<?xml version="1.0" encoding="UTF-8"?>
<svg width="88px" height="82px" viewBox="0 0 88 82" version="1.1" xmlns="http://www.w3.org/2000/svg" xmlns:xlink="http://www.w3.org/1999/xlink">
    <title>Calendar</title>
    <g id="Calendar" stroke="none" stroke-width="1" fill="none" fill-rule="evenodd">
        <g>
            <g id="Bottom" transform="translate(0.000000, 7.000000)">
                <path d="M8,0 L80,0 C84.418278,-8.66006284e-15 88,3.581722 88,8 C88,23.9978841 88,39.9957682 88,55.9936523 C88,58.7644011 85.5672278,60.5786731 80.7016835,61.4364684 L80.701684,61.4364714 C77.3826373,62.0216192 74.7862675,64.6240999 74.2089237,67.9445129 C73.3910653,72.648171 70.0046923,75 64.0498047,75 C45.3665365,75 26.6832682,75 8,75 C3.581722,75 5.41083001e-16,71.418278 0,67 L0,8 C-5.41083001e-16,3.581722 3.581722,8.11624501e-16 8,0 Z" id="Rectangle" fill="#FFFFFF"></path>
                <path d="M26.202,55 L26.202,52.072 L18.258,52.072 C18.674,51.496 19.154,50.992 19.698,50.56 C20.242,50.128 20.802,49.724 21.378,49.348 C21.954,48.972 22.526,48.592 23.094,48.208 C23.662,47.824 24.17,47.396 24.618,46.924 C25.066,46.452 25.426,45.912 25.698,45.304 C25.97,44.696 26.106,43.968 26.106,43.12 C26.106,42.304 25.95,41.568 25.638,40.912 C25.326,40.256 24.906,39.704 24.378,39.256 C23.85,38.808 23.238,38.464 22.542,38.224 C21.846,37.984 21.114,37.864 20.346,37.864 C19.338,37.864 18.446,38.036 17.67,38.38 C16.894,38.724 16.25,39.204 15.738,39.82 C15.226,40.436 14.842,41.156 14.586,41.98 C14.33,42.804 14.218,43.696 14.25,44.656 L17.514,44.656 C17.514,44.208 17.558,43.756 17.646,43.3 C17.734,42.844 17.882,42.428 18.09,42.052 C18.298,41.676 18.574,41.372 18.918,41.14 C19.262,40.908 19.682,40.792 20.178,40.792 C20.914,40.792 21.518,41.02 21.99,41.476 C22.462,41.932 22.698,42.568 22.698,43.384 C22.698,43.896 22.582,44.352 22.35,44.752 C22.118,45.152 21.83,45.512 21.486,45.832 C21.142,46.152 20.762,46.444 20.346,46.708 C19.93,46.972 19.538,47.232 19.17,47.488 C18.45,47.984 17.766,48.472 17.118,48.952 C16.47,49.432 15.906,49.956 15.426,50.524 C14.946,51.092 14.566,51.736 14.286,52.456 C14.006,53.176 13.866,54.024 13.866,55 L26.202,55 Z M36.154,55.312 C37.002,55.312 37.798,55.168 38.542,54.88 C39.286,54.592 39.942,54.112 40.51,53.44 C41.078,52.768 41.526,51.868 41.854,50.74 C42.182,49.612 42.346,48.208 42.346,46.528 C42.346,44.896 42.182,43.524 41.854,42.412 C41.526,41.3 41.078,40.408 40.51,39.736 C39.942,39.064 39.286,38.584 38.542,38.296 C37.798,38.008 37.002,37.864 36.154,37.864 C35.322,37.864 34.534,38.008 33.79,38.296 C33.046,38.584 32.394,39.064 31.834,39.736 C31.274,40.408 30.83,41.3 30.502,42.412 C30.174,43.524 30.01,44.896 30.01,46.528 C30.01,48.208 30.174,49.612 30.502,50.74 C30.83,51.868 31.274,52.768 31.834,53.44 C32.394,54.112 33.046,54.592 33.79,54.88 C34.534,55.168 35.322,55.312 36.154,55.312 Z M36.154,52.528 C35.466,52.528 34.938,52.304 34.57,51.856 C34.202,51.408 33.934,50.868 33.766,50.236 C33.598,49.604 33.498,48.948 33.466,48.268 C33.434,47.588 33.418,47.008 33.418,46.528 C33.418,46.24 33.422,45.892 33.43,45.484 C33.438,45.076 33.466,44.656 33.514,44.224 C33.562,43.792 33.642,43.364 33.754,42.94 C33.866,42.516 34.022,42.136 34.222,41.8 C34.422,41.464 34.678,41.192 34.99,40.984 C35.302,40.776 35.69,40.672 36.154,40.672 C36.618,40.672 37.01,40.776 37.33,40.984 C37.65,41.192 37.914,41.464 38.122,41.8 C38.33,42.136 38.486,42.516 38.59,42.94 C38.694,43.364 38.774,43.792 38.83,44.224 C38.886,44.656 38.918,45.076 38.926,45.484 C38.934,45.892 38.938,46.24 38.938,46.528 C38.938,47.008 38.922,47.588 38.89,48.268 C38.858,48.948 38.758,49.604 38.59,50.236 C38.422,50.868 38.15,51.408 37.774,51.856 C37.398,52.304 36.858,52.528 36.154,52.528 Z M53.958,55 L53.958,38.2 L51.246,38.2 C51.15,38.84 50.95,39.376 50.646,39.808 C50.342,40.24 49.97,40.588 49.53,40.852 C49.09,41.116 48.594,41.3 48.042,41.404 C47.49,41.508 46.918,41.552 46.326,41.536 L46.326,44.104 L50.55,44.104 L50.55,55 L53.958,55 Z M65.834,55.312 C67.034,55.312 68.05,55.052 68.882,54.532 C69.714,54.012 70.394,53.332 70.922,52.492 C71.45,51.652 71.834,50.712 72.074,49.672 C72.314,48.632 72.434,47.592 72.434,46.552 C72.434,45.496 72.338,44.448 72.146,43.408 C71.954,42.368 71.61,41.436 71.114,40.612 C70.618,39.788 69.958,39.124 69.134,38.62 C68.31,38.116 67.258,37.864 65.978,37.864 C65.098,37.864 64.298,38.024 63.578,38.344 C62.858,38.664 62.238,39.1 61.718,39.652 C61.198,40.204 60.798,40.852 60.518,41.596 C60.238,42.34 60.098,43.144 60.098,44.008 C60.098,44.68 60.202,45.344 60.41,46 C60.618,46.656 60.946,47.24 61.394,47.752 C61.874,48.28 62.458,48.7 63.146,49.012 C63.834,49.324 64.538,49.48 65.258,49.48 C66.074,49.48 66.794,49.336 67.418,49.048 C68.042,48.76 68.586,48.28 69.05,47.608 L69.098,47.656 C69.066,48.12 68.998,48.648 68.894,49.24 C68.79,49.832 68.618,50.388 68.378,50.908 C68.138,51.428 67.818,51.868 67.418,52.228 C67.018,52.588 66.506,52.768 65.882,52.768 C65.29,52.768 64.794,52.56 64.394,52.144 C63.994,51.728 63.738,51.24 63.626,50.68 L60.386,50.68 C60.482,51.416 60.682,52.072 60.986,52.648 C61.29,53.224 61.682,53.712 62.162,54.112 C62.642,54.512 63.194,54.812 63.818,55.012 C64.442,55.212 65.114,55.312 65.834,55.312 Z M66.074,46.912 C65.642,46.912 65.262,46.82 64.934,46.636 C64.606,46.452 64.338,46.212 64.13,45.916 C63.922,45.62 63.766,45.284 63.662,44.908 C63.558,44.532 63.506,44.144 63.506,43.744 C63.506,43.36 63.562,42.984 63.674,42.616 C63.786,42.248 63.954,41.92 64.178,41.632 C64.402,41.344 64.674,41.112 64.994,40.936 C65.314,40.76 65.674,40.672 66.074,40.672 C66.506,40.672 66.89,40.76 67.226,40.936 C67.562,41.112 67.846,41.348 68.078,41.644 C68.31,41.94 68.486,42.276 68.606,42.652 C68.726,43.028 68.786,43.408 68.786,43.792 C68.786,44.208 68.73,44.604 68.618,44.98 C68.506,45.356 68.338,45.688 68.114,45.976 C67.89,46.264 67.61,46.492 67.274,46.66 C66.938,46.828 66.538,46.912 66.074,46.912 Z" id="2019" fill="#575E75" fill-rule="nonzero"></path>
                <path d="M88,55.9936523 C88,58.7644011 83.5916186,58.7183766 78.7260742,59.5761719 C75.4070281,60.1613227 72.4665039,64.1078096 71.8891602,67.4282227 C71.0713018,72.1318807 70.0046923,75 64.0498047,75 C69.6344401,75.1337443 75.0614014,72.6098185 80.3306885,67.4282227 C85.5999756,62.2466268 88.1564128,58.4351034 88,55.9936523 Z" id="Path" fill="#E6E6E6"></path>
            </g>
            <g id="Top">
                <polygon id="Rectangle-Copy-2" fill-opacity="0.1" fill="#000000" points="0 27 88 27 88 31 44.1987305 31 0 31"></polygon>
                <path d="M8,7 L80,7 C84.418278,7 88,10.581722 88,15 L88,27 L88,27 L0,27 L0,15 C-5.41083001e-16,10.581722 3.581722,7 8,7 Z" id="Rectangle" fill="#0A8E69"></path>
                <circle id="Oval" fill-opacity="0.15" fill="#000000" cx="19" cy="16" r="6"></circle>
                <circle id="Oval-Copy" fill-opacity="0.15" fill="#000000" cx="69" cy="16" r="6"></circle>
                <rect id="Rectangle" fill="#FFFFFF" x="15" y="0" width="8" height="20" rx="4"></rect>
                <rect id="Rectangle-Copy" fill="#FFFFFF" x="65" y="0" width="8" height="20" rx="4"></rect>
            </g>
        </g>
    </g>
</svg>