<?xml version="1.0" encoding="UTF-8"?>
<svg width="620px" height="380px" viewBox="0 0 620 380" version="1.1" xmlns="http://www.w3.org/2000/svg" xmlns:xlink="http://www.w3.org/1999/xlink">
    <title>Community Growth Graph</title>
    <g id="Community-Growth-Graph" stroke="none" stroke-width="1" fill="none" fill-rule="evenodd">
        <g id="Vertical-bar-chart" transform="translate(20.000000, 20.000000)">
            <rect id="Rectangle" x="59" y="1" width="520" height="337"></rect>
            <path d="M117.691,341 L117.691,338.926 L112.064,338.926 C112.358667,338.518 112.698667,338.161 113.084,337.855 C113.469333,337.549 113.866,337.262833 114.274,336.9965 C114.682,336.730167 115.087167,336.461 115.4895,336.189 C115.891833,335.917 116.251667,335.613833 116.569,335.2795 C116.886333,334.945167 117.141333,334.562667 117.334,334.132 C117.526667,333.701333 117.623,333.185667 117.623,332.585 C117.623,332.007 117.5125,331.485667 117.2915,331.021 C117.0705,330.556333 116.773,330.165333 116.399,329.848 C116.025,329.530667 115.5915,329.287 115.0985,329.117 C114.6055,328.947 114.087,328.862 113.543,328.862 C112.829,328.862 112.197167,328.983833 111.6475,329.2275 C111.097833,329.471167 110.641667,329.811167 110.279,330.2475 C109.916333,330.683833 109.644333,331.193833 109.463,331.7775 C109.281667,332.361167 109.202333,332.993 109.225,333.673 L111.537,333.673 C111.537,333.355667 111.568167,333.0355 111.6305,332.7125 C111.692833,332.3895 111.797667,332.094833 111.945,331.8285 C112.092333,331.562167 112.287833,331.346833 112.5315,331.1825 C112.775167,331.018167 113.072667,330.936 113.424,330.936 C113.945333,330.936 114.373167,331.0975 114.7075,331.4205 C115.041833,331.7435 115.209,332.194 115.209,332.772 C115.209,333.134667 115.126833,333.457667 114.9625,333.741 C114.798167,334.024333 114.594167,334.279333 114.3505,334.506 C114.106833,334.732667 113.837667,334.9395 113.543,335.1265 C113.248333,335.3135 112.970667,335.497667 112.71,335.679 C112.2,336.030333 111.7155,336.376 111.2565,336.716 C110.7975,337.056 110.398,337.427167 110.058,337.8295 C109.718,338.231833 109.448833,338.688 109.2505,339.198 C109.052167,339.708 108.953,340.308667 108.953,341 L117.691,341 Z M122.757,341.221 C123.357667,341.221 123.9215,341.119 124.4485,340.915 C124.9755,340.711 125.440167,340.371 125.8425,339.895 C126.244833,339.419 126.562167,338.7815 126.7945,337.9825 C127.026833,337.1835 127.143,336.189 127.143,334.999 C127.143,333.843 127.026833,332.871167 126.7945,332.0835 C126.562167,331.295833 126.244833,330.664 125.8425,330.188 C125.440167,329.712 124.9755,329.372 124.4485,329.168 C123.9215,328.964 123.357667,328.862 122.757,328.862 C122.167667,328.862 121.6095,328.964 121.0825,329.168 C120.5555,329.372 120.093667,329.712 119.697,330.188 C119.300333,330.664 118.985833,331.295833 118.7535,332.0835 C118.521167,332.871167 118.405,333.843 118.405,334.999 C118.405,336.189 118.521167,337.1835 118.7535,337.9825 C118.985833,338.7815 119.300333,339.419 119.697,339.895 C120.093667,340.371 120.5555,340.711 121.0825,340.915 C121.6095,341.119 122.167667,341.221 122.757,341.221 Z M122.757,339.249 C122.269667,339.249 121.895667,339.090333 121.635,338.773 C121.374333,338.455667 121.1845,338.073167 121.0655,337.6255 C120.9465,337.177833 120.875667,336.713167 120.853,336.2315 C120.830333,335.749833 120.819,335.339 120.819,334.999 C120.819,334.795 120.821833,334.5485 120.8275,334.2595 C120.833167,333.9705 120.853,333.673 120.887,333.367 C120.921,333.061 120.977667,332.757833 121.057,332.4575 C121.136333,332.157167 121.246833,331.888 121.3885,331.65 C121.530167,331.412 121.7115,331.219333 121.9325,331.072 C122.1535,330.924667 122.428333,330.851 122.757,330.851 C123.085667,330.851 123.363333,330.924667 123.59,331.072 C123.816667,331.219333 124.003667,331.412 124.151,331.65 C124.298333,331.888 124.408833,332.157167 124.4825,332.4575 C124.556167,332.757833 124.612833,333.061 124.6525,333.367 C124.692167,333.673 124.714833,333.9705 124.7205,334.2595 C124.726167,334.5485 124.729,334.795 124.729,334.999 C124.729,335.339 124.717667,335.749833 124.695,336.2315 C124.672333,336.713167 124.6015,337.177833 124.4825,337.6255 C124.3635,338.073167 124.170833,338.455667 123.9045,338.773 C123.638167,339.090333 123.255667,339.249 122.757,339.249 Z M134.164,341 L134.164,329.1 L132.243,329.1 C132.175,329.553333 132.033333,329.933 131.818,330.239 C131.602667,330.545 131.339167,330.7915 131.0275,330.9785 C130.715833,331.1655 130.3645,331.295833 129.9735,331.3695 C129.5825,331.443167 129.177333,331.474333 128.758,331.463 L128.758,333.282 L131.75,333.282 L131.75,341 L134.164,341 Z M141.678,341.221 C142.278667,341.232333 142.845333,341.133167 143.378,340.9235 C143.910667,340.713833 144.378167,340.416333 144.7805,340.031 C145.182833,339.645667 145.503,339.1895 145.741,338.6625 C145.979,338.1355 146.098,337.566 146.098,336.954 C146.098,336.398667 146.015833,335.8745 145.8515,335.3815 C145.687167,334.8885 145.449167,334.460667 145.1375,334.098 C144.825833,333.735333 144.443333,333.446333 143.99,333.231 C143.536667,333.015667 143.015333,332.908 142.426,332.908 C141.95,332.908 141.525,332.978833 141.151,333.1205 C140.777,333.262167 140.425667,333.497333 140.097,333.826 L140.063,333.792 L140.539,331.089 L145.452,331.089 L145.452,329.1 L138.805,329.1 L137.632,335.679 L139.808,335.679 C140.046,335.350333 140.301,335.1095 140.573,334.9565 C140.845,334.8035 141.196333,334.727 141.627,334.727 C141.955667,334.727 142.244667,334.783667 142.494,334.897 C142.743333,335.010333 142.958667,335.169 143.14,335.373 C143.321333,335.577 143.457333,335.815 143.548,336.087 C143.638667,336.359 143.684,336.648 143.684,336.954 C143.684,337.248667 143.635833,337.534833 143.5395,337.8125 C143.443167,338.090167 143.307167,338.333833 143.1315,338.5435 C142.955833,338.753167 142.7405,338.923167 142.4855,339.0535 C142.2305,339.183833 141.944333,339.249 141.627,339.249 C141.083,339.249 140.635333,339.0875 140.284,338.7645 C139.932667,338.4415 139.728667,338.008 139.672,337.464 L137.258,337.464 C137.269333,338.087333 137.396833,338.634167 137.6405,339.1045 C137.884167,339.574833 138.21,339.968667 138.618,340.286 C139.026,340.603333 139.4935,340.8385 140.0205,340.9915 C140.5475,341.1445 141.1,341.221 141.678,341.221 Z" id="2015" fill="#FFFFFF" fill-rule="nonzero"></path>
            <path d="M217.691,341 L217.691,338.926 L212.064,338.926 C212.358667,338.518 212.698667,338.161 213.084,337.855 C213.469333,337.549 213.866,337.262833 214.274,336.9965 C214.682,336.730167 215.087167,336.461 215.4895,336.189 C215.891833,335.917 216.251667,335.613833 216.569,335.2795 C216.886333,334.945167 217.141333,334.562667 217.334,334.132 C217.526667,333.701333 217.623,333.185667 217.623,332.585 C217.623,332.007 217.5125,331.485667 217.2915,331.021 C217.0705,330.556333 216.773,330.165333 216.399,329.848 C216.025,329.530667 215.5915,329.287 215.0985,329.117 C214.6055,328.947 214.087,328.862 213.543,328.862 C212.829,328.862 212.197167,328.983833 211.6475,329.2275 C211.097833,329.471167 210.641667,329.811167 210.279,330.2475 C209.916333,330.683833 209.644333,331.193833 209.463,331.7775 C209.281667,332.361167 209.202333,332.993 209.225,333.673 L211.537,333.673 C211.537,333.355667 211.568167,333.0355 211.6305,332.7125 C211.692833,332.3895 211.797667,332.094833 211.945,331.8285 C212.092333,331.562167 212.287833,331.346833 212.5315,331.1825 C212.775167,331.018167 213.072667,330.936 213.424,330.936 C213.945333,330.936 214.373167,331.0975 214.7075,331.4205 C215.041833,331.7435 215.209,332.194 215.209,332.772 C215.209,333.134667 215.126833,333.457667 214.9625,333.741 C214.798167,334.024333 214.594167,334.279333 214.3505,334.506 C214.106833,334.732667 213.837667,334.9395 213.543,335.1265 C213.248333,335.3135 212.970667,335.497667 212.71,335.679 C212.2,336.030333 211.7155,336.376 211.2565,336.716 C210.7975,337.056 210.398,337.427167 210.058,337.8295 C209.718,338.231833 209.448833,338.688 209.2505,339.198 C209.052167,339.708 208.953,340.308667 208.953,341 L217.691,341 Z M222.757,341.221 C223.357667,341.221 223.9215,341.119 224.4485,340.915 C224.9755,340.711 225.440167,340.371 225.8425,339.895 C226.244833,339.419 226.562167,338.7815 226.7945,337.9825 C227.026833,337.1835 227.143,336.189 227.143,334.999 C227.143,333.843 227.026833,332.871167 226.7945,332.0835 C226.562167,331.295833 226.244833,330.664 225.8425,330.188 C225.440167,329.712 224.9755,329.372 224.4485,329.168 C223.9215,328.964 223.357667,328.862 222.757,328.862 C222.167667,328.862 221.6095,328.964 221.0825,329.168 C220.5555,329.372 220.093667,329.712 219.697,330.188 C219.300333,330.664 218.985833,331.295833 218.7535,332.0835 C218.521167,332.871167 218.405,333.843 218.405,334.999 C218.405,336.189 218.521167,337.1835 218.7535,337.9825 C218.985833,338.7815 219.300333,339.419 219.697,339.895 C220.093667,340.371 220.5555,340.711 221.0825,340.915 C221.6095,341.119 222.167667,341.221 222.757,341.221 Z M222.757,339.249 C222.269667,339.249 221.895667,339.090333 221.635,338.773 C221.374333,338.455667 221.1845,338.073167 221.0655,337.6255 C220.9465,337.177833 220.875667,336.713167 220.853,336.2315 C220.830333,335.749833 220.819,335.339 220.819,334.999 C220.819,334.795 220.821833,334.5485 220.8275,334.2595 C220.833167,333.9705 220.853,333.673 220.887,333.367 C220.921,333.061 220.977667,332.757833 221.057,332.4575 C221.136333,332.157167 221.246833,331.888 221.3885,331.65 C221.530167,331.412 221.7115,331.219333 221.9325,331.072 C222.1535,330.924667 222.428333,330.851 222.757,330.851 C223.085667,330.851 223.363333,330.924667 223.59,331.072 C223.816667,331.219333 224.003667,331.412 224.151,331.65 C224.298333,331.888 224.408833,332.157167 224.4825,332.4575 C224.556167,332.757833 224.612833,333.061 224.6525,333.367 C224.692167,333.673 224.714833,333.9705 224.7205,334.2595 C224.726167,334.5485 224.729,334.795 224.729,334.999 C224.729,335.339 224.717667,335.749833 224.695,336.2315 C224.672333,336.713167 224.6015,337.177833 224.4825,337.6255 C224.3635,338.073167 224.170833,338.455667 223.9045,338.773 C223.638167,339.090333 223.255667,339.249 222.757,339.249 Z M234.164,341 L234.164,329.1 L232.243,329.1 C232.175,329.553333 232.033333,329.933 231.818,330.239 C231.602667,330.545 231.339167,330.7915 231.0275,330.9785 C230.715833,331.1655 230.3645,331.295833 229.9735,331.3695 C229.5825,331.443167 229.177333,331.474333 228.758,331.463 L228.758,333.282 L231.75,333.282 L231.75,341 L234.164,341 Z M241.882,341.221 C242.505333,341.221 243.072,341.1105 243.582,340.8895 C244.092,340.6685 244.531167,340.3625 244.8995,339.9715 C245.267833,339.5805 245.551167,339.1215 245.7495,338.5945 C245.947833,338.0675 246.047,337.498 246.047,336.886 C246.047,336.41 245.973333,335.939667 245.826,335.475 C245.678667,335.010333 245.446333,334.596667 245.129,334.234 C244.789,333.86 244.375333,333.5625 243.888,333.3415 C243.400667,333.1205 242.902,333.01 242.392,333.01 C241.814,333.01 241.304,333.112 240.862,333.316 C240.42,333.52 240.034667,333.86 239.706,334.336 L239.672,334.302 C239.683333,333.973333 239.728667,333.599333 239.808,333.18 C239.887333,332.760667 240.012,332.366833 240.182,331.9985 C240.352,331.630167 240.5815,331.3185 240.8705,331.0635 C241.1595,330.8085 241.519333,330.681 241.95,330.681 C242.369333,330.681 242.720667,330.828333 243.004,331.123 C243.287333,331.417667 243.468667,331.763333 243.548,332.16 L245.843,332.16 C245.775,331.627333 245.633333,331.157 245.418,330.749 C245.202667,330.341 244.925,329.998167 244.585,329.7205 C244.245,329.442833 243.854,329.230333 243.412,329.083 C242.97,328.935667 242.494,328.862 241.984,328.862 C241.134,328.862 240.414333,329.049 239.825,329.423 C239.235667,329.797 238.754,330.2815 238.38,330.8765 C238.006,331.4715 237.734,332.137333 237.564,332.874 C237.394,333.610667 237.309,334.347333 237.309,335.084 C237.309,335.843333 237.377,336.5885 237.513,337.3195 C237.649,338.0505 237.892667,338.705 238.244,339.283 C238.595333,339.861 239.065667,340.3285 239.655,340.6855 C240.244333,341.0425 240.986667,341.221 241.882,341.221 Z M241.814,339.249 C241.508,339.249 241.236,339.186667 240.998,339.062 C240.76,338.937333 240.558833,338.770167 240.3945,338.5605 C240.230167,338.350833 240.1055,338.112833 240.0205,337.8465 C239.9355,337.580167 239.893,337.311 239.893,337.039 C239.893,336.744333 239.932667,336.463833 240.012,336.1975 C240.091333,335.931167 240.210333,335.696 240.369,335.492 C240.527667,335.288 240.728833,335.1265 240.9725,335.0075 C241.216167,334.8885 241.496667,334.829 241.814,334.829 C242.12,334.829 242.389167,334.894167 242.6215,335.0245 C242.853833,335.154833 243.043667,335.324833 243.191,335.5345 C243.338333,335.744167 243.448833,335.982167 243.5225,336.2485 C243.596167,336.514833 243.633,336.789667 243.633,337.073 C243.633,337.345 243.593333,337.611333 243.514,337.872 C243.434667,338.132667 243.315667,338.365 243.157,338.569 C242.998333,338.773 242.8085,338.937333 242.5875,339.062 C242.3665,339.186667 242.108667,339.249 241.814,339.249 Z" id="2016" fill="#FFFFFF" fill-rule="nonzero"></path>
            <path d="M317.691,341 L317.691,338.926 L312.064,338.926 C312.358667,338.518 312.698667,338.161 313.084,337.855 C313.469333,337.549 313.866,337.262833 314.274,336.9965 C314.682,336.730167 315.087167,336.461 315.4895,336.189 C315.891833,335.917 316.251667,335.613833 316.569,335.2795 C316.886333,334.945167 317.141333,334.562667 317.334,334.132 C317.526667,333.701333 317.623,333.185667 317.623,332.585 C317.623,332.007 317.5125,331.485667 317.2915,331.021 C317.0705,330.556333 316.773,330.165333 316.399,329.848 C316.025,329.530667 315.5915,329.287 315.0985,329.117 C314.6055,328.947 314.087,328.862 313.543,328.862 C312.829,328.862 312.197167,328.983833 311.6475,329.2275 C311.097833,329.471167 310.641667,329.811167 310.279,330.2475 C309.916333,330.683833 309.644333,331.193833 309.463,331.7775 C309.281667,332.361167 309.202333,332.993 309.225,333.673 L311.537,333.673 C311.537,333.355667 311.568167,333.0355 311.6305,332.7125 C311.692833,332.3895 311.797667,332.094833 311.945,331.8285 C312.092333,331.562167 312.287833,331.346833 312.5315,331.1825 C312.775167,331.018167 313.072667,330.936 313.424,330.936 C313.945333,330.936 314.373167,331.0975 314.7075,331.4205 C315.041833,331.7435 315.209,332.194 315.209,332.772 C315.209,333.134667 315.126833,333.457667 314.9625,333.741 C314.798167,334.024333 314.594167,334.279333 314.3505,334.506 C314.106833,334.732667 313.837667,334.9395 313.543,335.1265 C313.248333,335.3135 312.970667,335.497667 312.71,335.679 C312.2,336.030333 311.7155,336.376 311.2565,336.716 C310.7975,337.056 310.398,337.427167 310.058,337.8295 C309.718,338.231833 309.448833,338.688 309.2505,339.198 C309.052167,339.708 308.953,340.308667 308.953,341 L317.691,341 Z M322.757,341.221 C323.357667,341.221 323.9215,341.119 324.4485,340.915 C324.9755,340.711 325.440167,340.371 325.8425,339.895 C326.244833,339.419 326.562167,338.7815 326.7945,337.9825 C327.026833,337.1835 327.143,336.189 327.143,334.999 C327.143,333.843 327.026833,332.871167 326.7945,332.0835 C326.562167,331.295833 326.244833,330.664 325.8425,330.188 C325.440167,329.712 324.9755,329.372 324.4485,329.168 C323.9215,328.964 323.357667,328.862 322.757,328.862 C322.167667,328.862 321.6095,328.964 321.0825,329.168 C320.5555,329.372 320.093667,329.712 319.697,330.188 C319.300333,330.664 318.985833,331.295833 318.7535,332.0835 C318.521167,332.871167 318.405,333.843 318.405,334.999 C318.405,336.189 318.521167,337.1835 318.7535,337.9825 C318.985833,338.7815 319.300333,339.419 319.697,339.895 C320.093667,340.371 320.5555,340.711 321.0825,340.915 C321.6095,341.119 322.167667,341.221 322.757,341.221 Z M322.757,339.249 C322.269667,339.249 321.895667,339.090333 321.635,338.773 C321.374333,338.455667 321.1845,338.073167 321.0655,337.6255 C320.9465,337.177833 320.875667,336.713167 320.853,336.2315 C320.830333,335.749833 320.819,335.339 320.819,334.999 C320.819,334.795 320.821833,334.5485 320.8275,334.2595 C320.833167,333.9705 320.853,333.673 320.887,333.367 C320.921,333.061 320.977667,332.757833 321.057,332.4575 C321.136333,332.157167 321.246833,331.888 321.3885,331.65 C321.530167,331.412 321.7115,331.219333 321.9325,331.072 C322.1535,330.924667 322.428333,330.851 322.757,330.851 C323.085667,330.851 323.363333,330.924667 323.59,331.072 C323.816667,331.219333 324.003667,331.412 324.151,331.65 C324.298333,331.888 324.408833,332.157167 324.4825,332.4575 C324.556167,332.757833 324.612833,333.061 324.6525,333.367 C324.692167,333.673 324.714833,333.9705 324.7205,334.2595 C324.726167,334.5485 324.729,334.795 324.729,334.999 C324.729,335.339 324.717667,335.749833 324.695,336.2315 C324.672333,336.713167 324.6015,337.177833 324.4825,337.6255 C324.3635,338.073167 324.170833,338.455667 323.9045,338.773 C323.638167,339.090333 323.255667,339.249 322.757,339.249 Z M334.164,341 L334.164,329.1 L332.243,329.1 C332.175,329.553333 332.033333,329.933 331.818,330.239 C331.602667,330.545 331.339167,330.7915 331.0275,330.9785 C330.715833,331.1655 330.3645,331.295833 329.9735,331.3695 C329.5825,331.443167 329.177333,331.474333 328.758,331.463 L328.758,333.282 L331.75,333.282 L331.75,341 L334.164,341 Z M341.848,341 C341.859333,340.206667 341.952833,339.351 342.1285,338.433 C342.304167,337.515 342.5535,336.608333 342.8765,335.713 C343.1995,334.817667 343.601833,333.973333 344.0835,333.18 C344.565167,332.386667 345.117667,331.718 345.741,331.174 L345.741,329.1 L337.615,329.1 L337.615,331.344 L343.259,331.344 C342.125667,332.715333 341.2105,334.222667 340.5135,335.866 C339.8165,337.509333 339.4,339.220667 339.264,341 L341.848,341 Z" id="2017" fill="#FFFFFF" fill-rule="nonzero"></path>
            <path d="M417.691,341 L417.691,338.926 L412.064,338.926 C412.358667,338.518 412.698667,338.161 413.084,337.855 C413.469333,337.549 413.866,337.262833 414.274,336.9965 C414.682,336.730167 415.087167,336.461 415.4895,336.189 C415.891833,335.917 416.251667,335.613833 416.569,335.2795 C416.886333,334.945167 417.141333,334.562667 417.334,334.132 C417.526667,333.701333 417.623,333.185667 417.623,332.585 C417.623,332.007 417.5125,331.485667 417.2915,331.021 C417.0705,330.556333 416.773,330.165333 416.399,329.848 C416.025,329.530667 415.5915,329.287 415.0985,329.117 C414.6055,328.947 414.087,328.862 413.543,328.862 C412.829,328.862 412.197167,328.983833 411.6475,329.2275 C411.097833,329.471167 410.641667,329.811167 410.279,330.2475 C409.916333,330.683833 409.644333,331.193833 409.463,331.7775 C409.281667,332.361167 409.202333,332.993 409.225,333.673 L411.537,333.673 C411.537,333.355667 411.568167,333.0355 411.6305,332.7125 C411.692833,332.3895 411.797667,332.094833 411.945,331.8285 C412.092333,331.562167 412.287833,331.346833 412.5315,331.1825 C412.775167,331.018167 413.072667,330.936 413.424,330.936 C413.945333,330.936 414.373167,331.0975 414.7075,331.4205 C415.041833,331.7435 415.209,332.194 415.209,332.772 C415.209,333.134667 415.126833,333.457667 414.9625,333.741 C414.798167,334.024333 414.594167,334.279333 414.3505,334.506 C414.106833,334.732667 413.837667,334.9395 413.543,335.1265 C413.248333,335.3135 412.970667,335.497667 412.71,335.679 C412.2,336.030333 411.7155,336.376 411.2565,336.716 C410.7975,337.056 410.398,337.427167 410.058,337.8295 C409.718,338.231833 409.448833,338.688 409.2505,339.198 C409.052167,339.708 408.953,340.308667 408.953,341 L417.691,341 Z M422.757,341.221 C423.357667,341.221 423.9215,341.119 424.4485,340.915 C424.9755,340.711 425.440167,340.371 425.8425,339.895 C426.244833,339.419 426.562167,338.7815 426.7945,337.9825 C427.026833,337.1835 427.143,336.189 427.143,334.999 C427.143,333.843 427.026833,332.871167 426.7945,332.0835 C426.562167,331.295833 426.244833,330.664 425.8425,330.188 C425.440167,329.712 424.9755,329.372 424.4485,329.168 C423.9215,328.964 423.357667,328.862 422.757,328.862 C422.167667,328.862 421.6095,328.964 421.0825,329.168 C420.5555,329.372 420.093667,329.712 419.697,330.188 C419.300333,330.664 418.985833,331.295833 418.7535,332.0835 C418.521167,332.871167 418.405,333.843 418.405,334.999 C418.405,336.189 418.521167,337.1835 418.7535,337.9825 C418.985833,338.7815 419.300333,339.419 419.697,339.895 C420.093667,340.371 420.5555,340.711 421.0825,340.915 C421.6095,341.119 422.167667,341.221 422.757,341.221 Z M422.757,339.249 C422.269667,339.249 421.895667,339.090333 421.635,338.773 C421.374333,338.455667 421.1845,338.073167 421.0655,337.6255 C420.9465,337.177833 420.875667,336.713167 420.853,336.2315 C420.830333,335.749833 420.819,335.339 420.819,334.999 C420.819,334.795 420.821833,334.5485 420.8275,334.2595 C420.833167,333.9705 420.853,333.673 420.887,333.367 C420.921,333.061 420.977667,332.757833 421.057,332.4575 C421.136333,332.157167 421.246833,331.888 421.3885,331.65 C421.530167,331.412 421.7115,331.219333 421.9325,331.072 C422.1535,330.924667 422.428333,330.851 422.757,330.851 C423.085667,330.851 423.363333,330.924667 423.59,331.072 C423.816667,331.219333 424.003667,331.412 424.151,331.65 C424.298333,331.888 424.408833,332.157167 424.4825,332.4575 C424.556167,332.757833 424.612833,333.061 424.6525,333.367 C424.692167,333.673 424.714833,333.9705 424.7205,334.2595 C424.726167,334.5485 424.729,334.795 424.729,334.999 C424.729,335.339 424.717667,335.749833 424.695,336.2315 C424.672333,336.713167 424.6015,337.177833 424.4825,337.6255 C424.3635,338.073167 424.170833,338.455667 423.9045,338.773 C423.638167,339.090333 423.255667,339.249 422.757,339.249 Z M434.164,341 L434.164,329.1 L432.243,329.1 C432.175,329.553333 432.033333,329.933 431.818,330.239 C431.602667,330.545 431.339167,330.7915 431.0275,330.9785 C430.715833,331.1655 430.3645,331.295833 429.9735,331.3695 C429.5825,331.443167 429.177333,331.474333 428.758,331.463 L428.758,333.282 L431.75,333.282 L431.75,341 L434.164,341 Z M441.712,341.221 C442.267333,341.221 442.811333,341.1445 443.344,340.9915 C443.876667,340.8385 444.352667,340.609 444.772,340.303 C445.191333,339.997 445.5285,339.611667 445.7835,339.147 C446.0385,338.682333 446.166,338.132667 446.166,337.498 C446.166,336.75 445.973333,336.118167 445.588,335.6025 C445.202667,335.086833 444.653,334.749667 443.939,334.591 L443.939,334.557 C444.517,334.364333 444.9505,334.047 445.2395,333.605 C445.5285,333.163 445.673,332.647333 445.673,332.058 C445.673,331.763333 445.605,331.431833 445.469,331.0635 C445.333,330.695167 445.109167,330.3495 444.7975,330.0265 C444.485833,329.7035 444.075,329.428667 443.565,329.202 C443.055,328.975333 442.431667,328.862 441.695,328.862 C441.207667,328.862 440.726,328.93 440.25,329.066 C439.774,329.202 439.346167,329.406 438.9665,329.678 C438.586833,329.95 438.278,330.29 438.04,330.698 C437.802,331.106 437.683,331.576333 437.683,332.109 C437.683,332.698333 437.830333,333.214 438.125,333.656 C438.419667,334.098 438.856,334.398333 439.434,334.557 L439.434,334.591 C438.72,334.761 438.1675,335.101 437.7765,335.611 C437.3855,336.121 437.19,336.755667 437.19,337.515 C437.19,338.161 437.3175,338.716333 437.5725,339.181 C437.8275,339.645667 438.1675,340.031 438.5925,340.337 C439.0175,340.643 439.499167,340.866833 440.0375,341.0085 C440.575833,341.150167 441.134,341.221 441.712,341.221 Z M441.695,333.894 C441.207667,333.894 440.782667,333.760833 440.42,333.4945 C440.057333,333.228167 439.876,332.84 439.876,332.33 C439.876,332.058 439.924167,331.82 440.0205,331.616 C440.116833,331.412 440.25,331.242 440.42,331.106 C440.59,330.97 440.7855,330.865167 441.0065,330.7915 C441.2275,330.717833 441.457,330.681 441.695,330.681 C442.069,330.681 442.372167,330.737667 442.6045,330.851 C442.836833,330.964333 443.018167,331.106 443.1485,331.276 C443.278833,331.446 443.366667,331.6245 443.412,331.8115 C443.457333,331.9985 443.48,332.171333 443.48,332.33 C443.48,332.84 443.31,333.228167 442.97,333.4945 C442.63,333.760833 442.205,333.894 441.695,333.894 Z M441.712,339.419 C441.428667,339.419 441.156667,339.370833 440.896,339.2745 C440.635333,339.178167 440.4115,339.042167 440.2245,338.8665 C440.0375,338.690833 439.887333,338.478333 439.774,338.229 C439.660667,337.979667 439.604,337.702 439.604,337.396 C439.604,336.784 439.808,336.3165 440.216,335.9935 C440.624,335.6705 441.122667,335.509 441.712,335.509 C441.995333,335.509 442.258833,335.554333 442.5025,335.645 C442.746167,335.735667 442.9615,335.866 443.1485,336.036 C443.3355,336.206 443.482833,336.407167 443.5905,336.6395 C443.698167,336.871833 443.752,337.129667 443.752,337.413 C443.752,337.707667 443.701,337.979667 443.599,338.229 C443.497,338.478333 443.3525,338.690833 443.1655,338.8665 C442.9785,339.042167 442.763167,339.178167 442.5195,339.2745 C442.275833,339.370833 442.006667,339.419 441.712,339.419 Z" id="2018" fill="#FFFFFF" fill-rule="nonzero"></path>
            <path d="M518.691,341 L518.691,338.926 L513.064,338.926 C513.358667,338.518 513.698667,338.161 514.084,337.855 C514.469333,337.549 514.866,337.262833 515.274,336.9965 C515.682,336.730167 516.087167,336.461 516.4895,336.189 C516.891833,335.917 517.251667,335.613833 517.569,335.2795 C517.886333,334.945167 518.141333,334.562667 518.334,334.132 C518.526667,333.701333 518.623,333.185667 518.623,332.585 C518.623,332.007 518.5125,331.485667 518.2915,331.021 C518.0705,330.556333 517.773,330.165333 517.399,329.848 C517.025,329.530667 516.5915,329.287 516.0985,329.117 C515.6055,328.947 515.087,328.862 514.543,328.862 C513.829,328.862 513.197167,328.983833 512.6475,329.2275 C512.097833,329.471167 511.641667,329.811167 511.279,330.2475 C510.916333,330.683833 510.644333,331.193833 510.463,331.7775 C510.281667,332.361167 510.202333,332.993 510.225,333.673 L512.537,333.673 C512.537,333.355667 512.568167,333.0355 512.6305,332.7125 C512.692833,332.3895 512.797667,332.094833 512.945,331.8285 C513.092333,331.562167 513.287833,331.346833 513.5315,331.1825 C513.775167,331.018167 514.072667,330.936 514.424,330.936 C514.945333,330.936 515.373167,331.0975 515.7075,331.4205 C516.041833,331.7435 516.209,332.194 516.209,332.772 C516.209,333.134667 516.126833,333.457667 515.9625,333.741 C515.798167,334.024333 515.594167,334.279333 515.3505,334.506 C515.106833,334.732667 514.837667,334.9395 514.543,335.1265 C514.248333,335.3135 513.970667,335.497667 513.71,335.679 C513.2,336.030333 512.7155,336.376 512.2565,336.716 C511.7975,337.056 511.398,337.427167 511.058,337.8295 C510.718,338.231833 510.448833,338.688 510.2505,339.198 C510.052167,339.708 509.953,340.308667 509.953,341 L518.691,341 Z M523.757,341.221 C524.357667,341.221 524.9215,341.119 525.4485,340.915 C525.9755,340.711 526.440167,340.371 526.8425,339.895 C527.244833,339.419 527.562167,338.7815 527.7945,337.9825 C528.026833,337.1835 528.143,336.189 528.143,334.999 C528.143,333.843 528.026833,332.871167 527.7945,332.0835 C527.562167,331.295833 527.244833,330.664 526.8425,330.188 C526.440167,329.712 525.9755,329.372 525.4485,329.168 C524.9215,328.964 524.357667,328.862 523.757,328.862 C523.167667,328.862 522.6095,328.964 522.0825,329.168 C521.5555,329.372 521.093667,329.712 520.697,330.188 C520.300333,330.664 519.985833,331.295833 519.7535,332.0835 C519.521167,332.871167 519.405,333.843 519.405,334.999 C519.405,336.189 519.521167,337.1835 519.7535,337.9825 C519.985833,338.7815 520.300333,339.419 520.697,339.895 C521.093667,340.371 521.5555,340.711 522.0825,340.915 C522.6095,341.119 523.167667,341.221 523.757,341.221 Z M523.757,339.249 C523.269667,339.249 522.895667,339.090333 522.635,338.773 C522.374333,338.455667 522.1845,338.073167 522.0655,337.6255 C521.9465,337.177833 521.875667,336.713167 521.853,336.2315 C521.830333,335.749833 521.819,335.339 521.819,334.999 C521.819,334.795 521.821833,334.5485 521.8275,334.2595 C521.833167,333.9705 521.853,333.673 521.887,333.367 C521.921,333.061 521.977667,332.757833 522.057,332.4575 C522.136333,332.157167 522.246833,331.888 522.3885,331.65 C522.530167,331.412 522.7115,331.219333 522.9325,331.072 C523.1535,330.924667 523.428333,330.851 523.757,330.851 C524.085667,330.851 524.363333,330.924667 524.59,331.072 C524.816667,331.219333 525.003667,331.412 525.151,331.65 C525.298333,331.888 525.408833,332.157167 525.4825,332.4575 C525.556167,332.757833 525.612833,333.061 525.6525,333.367 C525.692167,333.673 525.714833,333.9705 525.7205,334.2595 C525.726167,334.5485 525.729,334.795 525.729,334.999 C525.729,335.339 525.717667,335.749833 525.695,336.2315 C525.672333,336.713167 525.6015,337.177833 525.4825,337.6255 C525.3635,338.073167 525.170833,338.455667 524.9045,338.773 C524.638167,339.090333 524.255667,339.249 523.757,339.249 Z M535.164,341 L535.164,329.1 L533.243,329.1 C533.175,329.553333 533.033333,329.933 532.818,330.239 C532.602667,330.545 532.339167,330.7915 532.0275,330.9785 C531.715833,331.1655 531.3645,331.295833 530.9735,331.3695 C530.5825,331.443167 530.177333,331.474333 529.758,331.463 L529.758,333.282 L532.75,333.282 L532.75,341 L535.164,341 Z M542.372,341.221 C543.222,341.221 543.941667,341.036833 544.531,340.6685 C545.120333,340.300167 545.602,339.8185 545.976,339.2235 C546.35,338.6285 546.622,337.962667 546.792,337.226 C546.962,336.489333 547.047,335.752667 547.047,335.016 C547.047,334.268 546.979,333.525667 546.843,332.789 C546.707,332.052333 546.463333,331.392167 546.112,330.8085 C545.760667,330.224833 545.293167,329.7545 544.7095,329.3975 C544.125833,329.0405 543.380667,328.862 542.474,328.862 C541.850667,328.862 541.284,328.975333 540.774,329.202 C540.264,329.428667 539.824833,329.7375 539.4565,330.1285 C539.088167,330.5195 538.804833,330.9785 538.6065,331.5055 C538.408167,332.0325 538.309,332.602 538.309,333.214 C538.309,333.69 538.382667,334.160333 538.53,334.625 C538.677333,335.089667 538.909667,335.503333 539.227,335.866 C539.567,336.24 539.980667,336.5375 540.468,336.7585 C540.955333,336.9795 541.454,337.09 541.964,337.09 C542.542,337.09 543.052,336.988 543.494,336.784 C543.936,336.58 544.321333,336.24 544.65,335.764 L544.684,335.798 C544.661333,336.126667 544.613167,336.500667 544.5395,336.92 C544.465833,337.339333 544.344,337.733167 544.174,338.1015 C544.004,338.469833 543.777333,338.7815 543.494,339.0365 C543.210667,339.2915 542.848,339.419 542.406,339.419 C541.986667,339.419 541.635333,339.271667 541.352,338.977 C541.068667,338.682333 540.887333,338.336667 540.808,337.94 L538.513,337.94 C538.581,338.461333 538.722667,338.926 538.938,339.334 C539.153333,339.742 539.431,340.087667 539.771,340.371 C540.111,340.654333 540.502,340.866833 540.944,341.0085 C541.386,341.150167 541.862,341.221 542.372,341.221 Z M542.542,335.271 C542.236,335.271 541.966833,335.205833 541.7345,335.0755 C541.502167,334.945167 541.312333,334.775167 541.165,334.5655 C541.017667,334.355833 540.907167,334.117833 540.8335,333.8515 C540.759833,333.585167 540.723,333.310333 540.723,333.027 C540.723,332.755 540.762667,332.488667 540.842,332.228 C540.921333,331.967333 541.040333,331.735 541.199,331.531 C541.357667,331.327 541.550333,331.162667 541.777,331.038 C542.003667,330.913333 542.258667,330.851 542.542,330.851 C542.848,330.851 543.12,330.913333 543.358,331.038 C543.596,331.162667 543.797167,331.329833 543.9615,331.5395 C544.125833,331.749167 544.2505,331.987167 544.3355,332.2535 C544.4205,332.519833 544.463,332.789 544.463,333.061 C544.463,333.355667 544.423333,333.636167 544.344,333.9025 C544.264667,334.168833 544.145667,334.404 543.987,334.608 C543.828333,334.812 543.63,334.9735 543.392,335.0925 C543.154,335.2115 542.870667,335.271 542.542,335.271 Z" id="2019" fill="#FFFFFF" fill-rule="nonzero"></path>
            <text id="0" font-family="HelveticaNeue, Helvetica Neue" font-size="10" font-weight="normal" line-spacing="10" fill="#A3A3A3">
                <tspan x="60" y="326">0</tspan>
            </text>
            <path d="M11.986,246 L11.986,243.732 L13.288,243.732 L13.288,242.094 L11.986,242.094 L11.986,236.2 L10.208,236.2 L5.952,241.912 L5.952,243.732 L10.096,243.732 L10.096,246 L11.986,246 Z M10.096,242.094 L7.52,242.094 L10.054,238.692 L10.096,238.692 L10.096,242.094 Z M14.38,248.31 C14.6786667,248.263333 14.961,248.177 15.227,248.051 C15.493,247.925 15.724,247.764 15.92,247.568 C16.116,247.372 16.2723333,247.141 16.389,246.875 C16.5056667,246.609 16.564,246.317333 16.564,246 L16.564,243.844 L14.366,243.844 L14.366,246 L15.374,246 C15.3833333,246.149333 15.3646667,246.296333 15.318,246.441 C15.2713333,246.585667 15.2013333,246.716333 15.108,246.833 C15.0146667,246.949667 14.905,247.05 14.779,247.134 C14.653,247.218 14.52,247.274 14.38,247.302 L14.38,248.31 Z M21.282,246.182 C21.7766667,246.182 22.241,246.098 22.675,245.93 C23.109,245.762 23.4916667,245.482 23.823,245.09 C24.1543333,244.698 24.4156667,244.173 24.607,243.515 C24.7983333,242.857 24.894,242.038 24.894,241.058 C24.894,240.106 24.7983333,239.305667 24.607,238.657 C24.4156667,238.008333 24.1543333,237.488 23.823,237.096 C23.4916667,236.704 23.109,236.424 22.675,236.256 C22.241,236.088 21.7766667,236.004 21.282,236.004 C20.7966667,236.004 20.337,236.088 19.903,236.256 C19.469,236.424 19.0886667,236.704 18.762,237.096 C18.4353333,237.488 18.1763333,238.008333 17.985,238.657 C17.7936667,239.305667 17.698,240.106 17.698,241.058 C17.698,242.038 17.7936667,242.857 17.985,243.515 C18.1763333,244.173 18.4353333,244.698 18.762,245.09 C19.0886667,245.482 19.469,245.762 19.903,245.93 C20.337,246.098 20.7966667,246.182 21.282,246.182 Z M21.282,244.558 C20.8806667,244.558 20.5726667,244.427333 20.358,244.166 C20.1433333,243.904667 19.987,243.589667 19.889,243.221 C19.791,242.852333 19.7326667,242.469667 19.714,242.073 C19.6953333,241.676333 19.686,241.338 19.686,241.058 C19.686,240.89 19.6883333,240.687 19.693,240.449 C19.6976667,240.211 19.714,239.966 19.742,239.714 C19.77,239.462 19.8166667,239.212333 19.882,238.965 C19.9473333,238.717667 20.0383333,238.496 20.155,238.3 C20.2716667,238.104 20.421,237.945333 20.603,237.824 C20.785,237.702667 21.0113333,237.642 21.282,237.642 C21.5526667,237.642 21.7813333,237.702667 21.968,237.824 C22.1546667,237.945333 22.3086667,238.104 22.43,238.3 C22.5513333,238.496 22.6423333,238.717667 22.703,238.965 C22.7636667,239.212333 22.8103333,239.462 22.843,239.714 C22.8756667,239.966 22.8943333,240.211 22.899,240.449 C22.9036667,240.687 22.906,240.89 22.906,241.058 C22.906,241.338 22.8966667,241.676333 22.878,242.073 C22.8593333,242.469667 22.801,242.852333 22.703,243.221 C22.605,243.589667 22.4463333,243.904667 22.227,244.166 C22.0076667,244.427333 21.6926667,244.558 21.282,244.558 Z M29.066,246.182 C29.5606667,246.182 30.025,246.098 30.459,245.93 C30.893,245.762 31.2756667,245.482 31.607,245.09 C31.9383333,244.698 32.1996667,244.173 32.391,243.515 C32.5823333,242.857 32.678,242.038 32.678,241.058 C32.678,240.106 32.5823333,239.305667 32.391,238.657 C32.1996667,238.008333 31.9383333,237.488 31.607,237.096 C31.2756667,236.704 30.893,236.424 30.459,236.256 C30.025,236.088 29.5606667,236.004 29.066,236.004 C28.5806667,236.004 28.121,236.088 27.687,236.256 C27.253,236.424 26.8726667,236.704 26.546,237.096 C26.2193333,237.488 25.9603333,238.008333 25.769,238.657 C25.5776667,239.305667 25.482,240.106 25.482,241.058 C25.482,242.038 25.5776667,242.857 25.769,243.515 C25.9603333,244.173 26.2193333,244.698 26.546,245.09 C26.8726667,245.482 27.253,245.762 27.687,245.93 C28.121,246.098 28.5806667,246.182 29.066,246.182 Z M29.066,244.558 C28.6646667,244.558 28.3566667,244.427333 28.142,244.166 C27.9273333,243.904667 27.771,243.589667 27.673,243.221 C27.575,242.852333 27.5166667,242.469667 27.498,242.073 C27.4793333,241.676333 27.47,241.338 27.47,241.058 C27.47,240.89 27.4723333,240.687 27.477,240.449 C27.4816667,240.211 27.498,239.966 27.526,239.714 C27.554,239.462 27.6006667,239.212333 27.666,238.965 C27.7313333,238.717667 27.8223333,238.496 27.939,238.3 C28.0556667,238.104 28.205,237.945333 28.387,237.824 C28.569,237.702667 28.7953333,237.642 29.066,237.642 C29.3366667,237.642 29.5653333,237.702667 29.752,237.824 C29.9386667,237.945333 30.0926667,238.104 30.214,238.3 C30.3353333,238.496 30.4263333,238.717667 30.487,238.965 C30.5476667,239.212333 30.5943333,239.462 30.627,239.714 C30.6596667,239.966 30.6783333,240.211 30.683,240.449 C30.6876667,240.687 30.69,240.89 30.69,241.058 C30.69,241.338 30.6806667,241.676333 30.662,242.073 C30.6433333,242.469667 30.585,242.852333 30.487,243.221 C30.389,243.589667 30.2303333,243.904667 30.011,244.166 C29.7916667,244.427333 29.4766667,244.558 29.066,244.558 Z M36.85,246.182 C37.3446667,246.182 37.809,246.098 38.243,245.93 C38.677,245.762 39.0596667,245.482 39.391,245.09 C39.7223333,244.698 39.9836667,244.173 40.175,243.515 C40.3663333,242.857 40.462,242.038 40.462,241.058 C40.462,240.106 40.3663333,239.305667 40.175,238.657 C39.9836667,238.008333 39.7223333,237.488 39.391,237.096 C39.0596667,236.704 38.677,236.424 38.243,236.256 C37.809,236.088 37.3446667,236.004 36.85,236.004 C36.3646667,236.004 35.905,236.088 35.471,236.256 C35.037,236.424 34.6566667,236.704 34.33,237.096 C34.0033333,237.488 33.7443333,238.008333 33.553,238.657 C33.3616667,239.305667 33.266,240.106 33.266,241.058 C33.266,242.038 33.3616667,242.857 33.553,243.515 C33.7443333,244.173 34.0033333,244.698 34.33,245.09 C34.6566667,245.482 35.037,245.762 35.471,245.93 C35.905,246.098 36.3646667,246.182 36.85,246.182 Z M36.85,244.558 C36.4486667,244.558 36.1406667,244.427333 35.926,244.166 C35.7113333,243.904667 35.555,243.589667 35.457,243.221 C35.359,242.852333 35.3006667,242.469667 35.282,242.073 C35.2633333,241.676333 35.254,241.338 35.254,241.058 C35.254,240.89 35.2563333,240.687 35.261,240.449 C35.2656667,240.211 35.282,239.966 35.31,239.714 C35.338,239.462 35.3846667,239.212333 35.45,238.965 C35.5153333,238.717667 35.6063333,238.496 35.723,238.3 C35.8396667,238.104 35.989,237.945333 36.171,237.824 C36.353,237.702667 36.5793333,237.642 36.85,237.642 C37.1206667,237.642 37.3493333,237.702667 37.536,237.824 C37.7226667,237.945333 37.8766667,238.104 37.998,238.3 C38.1193333,238.496 38.2103333,238.717667 38.271,238.965 C38.3316667,239.212333 38.3783333,239.462 38.411,239.714 C38.4436667,239.966 38.4623333,240.211 38.467,240.449 C38.4716667,240.687 38.474,240.89 38.474,241.058 C38.474,241.338 38.4646667,241.676333 38.446,242.073 C38.4273333,242.469667 38.369,242.852333 38.271,243.221 C38.173,243.589667 38.0143333,243.904667 37.795,244.166 C37.5756667,244.427333 37.2606667,244.558 36.85,244.558 Z M41.624,248.31 C41.9226667,248.263333 42.205,248.177 42.471,248.051 C42.737,247.925 42.968,247.764 43.164,247.568 C43.36,247.372 43.5163333,247.141 43.633,246.875 C43.7496667,246.609 43.808,246.317333 43.808,246 L43.808,243.844 L41.61,243.844 L41.61,246 L42.618,246 C42.6273333,246.149333 42.6086667,246.296333 42.562,246.441 C42.5153333,246.585667 42.4453333,246.716333 42.352,246.833 C42.2586667,246.949667 42.149,247.05 42.023,247.134 C41.897,247.218 41.764,247.274 41.624,247.302 L41.624,248.31 Z M48.526,246.182 C49.0206667,246.182 49.485,246.098 49.919,245.93 C50.353,245.762 50.7356667,245.482 51.067,245.09 C51.3983333,244.698 51.6596667,244.173 51.851,243.515 C52.0423333,242.857 52.138,242.038 52.138,241.058 C52.138,240.106 52.0423333,239.305667 51.851,238.657 C51.6596667,238.008333 51.3983333,237.488 51.067,237.096 C50.7356667,236.704 50.353,236.424 49.919,236.256 C49.485,236.088 49.0206667,236.004 48.526,236.004 C48.0406667,236.004 47.581,236.088 47.147,236.256 C46.713,236.424 46.3326667,236.704 46.006,237.096 C45.6793333,237.488 45.4203333,238.008333 45.229,238.657 C45.0376667,239.305667 44.942,240.106 44.942,241.058 C44.942,242.038 45.0376667,242.857 45.229,243.515 C45.4203333,244.173 45.6793333,244.698 46.006,245.09 C46.3326667,245.482 46.713,245.762 47.147,245.93 C47.581,246.098 48.0406667,246.182 48.526,246.182 Z M48.526,244.558 C48.1246667,244.558 47.8166667,244.427333 47.602,244.166 C47.3873333,243.904667 47.231,243.589667 47.133,243.221 C47.035,242.852333 46.9766667,242.469667 46.958,242.073 C46.9393333,241.676333 46.93,241.338 46.93,241.058 C46.93,240.89 46.9323333,240.687 46.937,240.449 C46.9416667,240.211 46.958,239.966 46.986,239.714 C47.014,239.462 47.0606667,239.212333 47.126,238.965 C47.1913333,238.717667 47.2823333,238.496 47.399,238.3 C47.5156667,238.104 47.665,237.945333 47.847,237.824 C48.029,237.702667 48.2553333,237.642 48.526,237.642 C48.7966667,237.642 49.0253333,237.702667 49.212,237.824 C49.3986667,237.945333 49.5526667,238.104 49.674,238.3 C49.7953333,238.496 49.8863333,238.717667 49.947,238.965 C50.0076667,239.212333 50.0543333,239.462 50.087,239.714 C50.1196667,239.966 50.1383333,240.211 50.143,240.449 C50.1476667,240.687 50.15,240.89 50.15,241.058 C50.15,241.338 50.1406667,241.676333 50.122,242.073 C50.1033333,242.469667 50.045,242.852333 49.947,243.221 C49.849,243.589667 49.6903333,243.904667 49.471,244.166 C49.2516667,244.427333 48.9366667,244.558 48.526,244.558 Z M56.31,246.182 C56.8046667,246.182 57.269,246.098 57.703,245.93 C58.137,245.762 58.5196667,245.482 58.851,245.09 C59.1823333,244.698 59.4436667,244.173 59.635,243.515 C59.8263333,242.857 59.922,242.038 59.922,241.058 C59.922,240.106 59.8263333,239.305667 59.635,238.657 C59.4436667,238.008333 59.1823333,237.488 58.851,237.096 C58.5196667,236.704 58.137,236.424 57.703,236.256 C57.269,236.088 56.8046667,236.004 56.31,236.004 C55.8246667,236.004 55.365,236.088 54.931,236.256 C54.497,236.424 54.1166667,236.704 53.79,237.096 C53.4633333,237.488 53.2043333,238.008333 53.013,238.657 C52.8216667,239.305667 52.726,240.106 52.726,241.058 C52.726,242.038 52.8216667,242.857 53.013,243.515 C53.2043333,244.173 53.4633333,244.698 53.79,245.09 C54.1166667,245.482 54.497,245.762 54.931,245.93 C55.365,246.098 55.8246667,246.182 56.31,246.182 Z M56.31,244.558 C55.9086667,244.558 55.6006667,244.427333 55.386,244.166 C55.1713333,243.904667 55.015,243.589667 54.917,243.221 C54.819,242.852333 54.7606667,242.469667 54.742,242.073 C54.7233333,241.676333 54.714,241.338 54.714,241.058 C54.714,240.89 54.7163333,240.687 54.721,240.449 C54.7256667,240.211 54.742,239.966 54.77,239.714 C54.798,239.462 54.8446667,239.212333 54.91,238.965 C54.9753333,238.717667 55.0663333,238.496 55.183,238.3 C55.2996667,238.104 55.449,237.945333 55.631,237.824 C55.813,237.702667 56.0393333,237.642 56.31,237.642 C56.5806667,237.642 56.8093333,237.702667 56.996,237.824 C57.1826667,237.945333 57.3366667,238.104 57.458,238.3 C57.5793333,238.496 57.6703333,238.717667 57.731,238.965 C57.7916667,239.212333 57.8383333,239.462 57.871,239.714 C57.9036667,239.966 57.9223333,240.211 57.927,240.449 C57.9316667,240.687 57.934,240.89 57.934,241.058 C57.934,241.338 57.9246667,241.676333 57.906,242.073 C57.8873333,242.469667 57.829,242.852333 57.731,243.221 C57.633,243.589667 57.4743333,243.904667 57.255,244.166 C57.0356667,244.427333 56.7206667,244.558 56.31,244.558 Z M64.094,246.182 C64.5886667,246.182 65.053,246.098 65.487,245.93 C65.921,245.762 66.3036667,245.482 66.635,245.09 C66.9663333,244.698 67.2276667,244.173 67.419,243.515 C67.6103333,242.857 67.706,242.038 67.706,241.058 C67.706,240.106 67.6103333,239.305667 67.419,238.657 C67.2276667,238.008333 66.9663333,237.488 66.635,237.096 C66.3036667,236.704 65.921,236.424 65.487,236.256 C65.053,236.088 64.5886667,236.004 64.094,236.004 C63.6086667,236.004 63.149,236.088 62.715,236.256 C62.281,236.424 61.9006667,236.704 61.574,237.096 C61.2473333,237.488 60.9883333,238.008333 60.797,238.657 C60.6056667,239.305667 60.51,240.106 60.51,241.058 C60.51,242.038 60.6056667,242.857 60.797,243.515 C60.9883333,244.173 61.2473333,244.698 61.574,245.09 C61.9006667,245.482 62.281,245.762 62.715,245.93 C63.149,246.098 63.6086667,246.182 64.094,246.182 Z M64.094,244.558 C63.6926667,244.558 63.3846667,244.427333 63.17,244.166 C62.9553333,243.904667 62.799,243.589667 62.701,243.221 C62.603,242.852333 62.5446667,242.469667 62.526,242.073 C62.5073333,241.676333 62.498,241.338 62.498,241.058 C62.498,240.89 62.5003333,240.687 62.505,240.449 C62.5096667,240.211 62.526,239.966 62.554,239.714 C62.582,239.462 62.6286667,239.212333 62.694,238.965 C62.7593333,238.717667 62.8503333,238.496 62.967,238.3 C63.0836667,238.104 63.233,237.945333 63.415,237.824 C63.597,237.702667 63.8233333,237.642 64.094,237.642 C64.3646667,237.642 64.5933333,237.702667 64.78,237.824 C64.9666667,237.945333 65.1206667,238.104 65.242,238.3 C65.3633333,238.496 65.4543333,238.717667 65.515,238.965 C65.5756667,239.212333 65.6223333,239.462 65.655,239.714 C65.6876667,239.966 65.7063333,240.211 65.711,240.449 C65.7156667,240.687 65.718,240.89 65.718,241.058 C65.718,241.338 65.7086667,241.676333 65.69,242.073 C65.6713333,242.469667 65.613,242.852333 65.515,243.221 C65.417,243.589667 65.2583333,243.904667 65.039,244.166 C64.8196667,244.427333 64.5046667,244.558 64.094,244.558 Z" id="4,000,000" fill="#FFFFFF" fill-rule="nonzero"></path>
            <path d="M9.648,167.182 C10.1053333,167.182 10.5533333,167.119 10.992,166.993 C11.4306667,166.867 11.8226667,166.678 12.168,166.426 C12.5133333,166.174 12.791,165.856667 13.001,165.474 C13.211,165.091333 13.316,164.638667 13.316,164.116 C13.316,163.5 13.1573333,162.979667 12.84,162.555 C12.5226667,162.130333 12.07,161.852667 11.482,161.722 L11.482,161.694 C11.958,161.535333 12.315,161.274 12.553,160.91 C12.791,160.546 12.91,160.121333 12.91,159.636 C12.91,159.393333 12.854,159.120333 12.742,158.817 C12.63,158.513667 12.4456667,158.229 12.189,157.963 C11.9323333,157.697 11.594,157.470667 11.174,157.284 C10.754,157.097333 10.2406667,157.004 9.634,157.004 C9.23266667,157.004 8.836,157.06 8.444,157.172 C8.052,157.284 7.69966667,157.452 7.387,157.676 C7.07433333,157.9 6.82,158.18 6.624,158.516 C6.428,158.852 6.33,159.239333 6.33,159.678 C6.33,160.163333 6.45133333,160.588 6.694,160.952 C6.93666667,161.316 7.296,161.563333 7.772,161.694 L7.772,161.722 C7.184,161.862 6.729,162.142 6.407,162.562 C6.085,162.982 5.924,163.504667 5.924,164.13 C5.924,164.662 6.029,165.119333 6.239,165.502 C6.449,165.884667 6.729,166.202 7.079,166.454 C7.429,166.706 7.82566667,166.890333 8.269,167.007 C8.71233333,167.123667 9.172,167.182 9.648,167.182 Z M9.634,161.148 C9.23266667,161.148 8.88266667,161.038333 8.584,160.819 C8.28533333,160.599667 8.136,160.28 8.136,159.86 C8.136,159.636 8.17566667,159.44 8.255,159.272 C8.33433333,159.104 8.444,158.964 8.584,158.852 C8.724,158.74 8.885,158.653667 9.067,158.593 C9.249,158.532333 9.438,158.502 9.634,158.502 C9.942,158.502 10.1916667,158.548667 10.383,158.642 C10.5743333,158.735333 10.7236667,158.852 10.831,158.992 C10.9383333,159.132 11.0106667,159.279 11.048,159.433 C11.0853333,159.587 11.104,159.729333 11.104,159.86 C11.104,160.28 10.964,160.599667 10.684,160.819 C10.404,161.038333 10.054,161.148 9.634,161.148 Z M9.648,165.698 C9.41466667,165.698 9.19066667,165.658333 8.976,165.579 C8.76133333,165.499667 8.577,165.387667 8.423,165.243 C8.269,165.098333 8.14533333,164.923333 8.052,164.718 C7.95866667,164.512667 7.912,164.284 7.912,164.032 C7.912,163.528 8.08,163.143 8.416,162.877 C8.752,162.611 9.16266667,162.478 9.648,162.478 C9.88133333,162.478 10.0983333,162.515333 10.299,162.59 C10.4996667,162.664667 10.677,162.772 10.831,162.912 C10.985,163.052 11.1063333,163.217667 11.195,163.409 C11.2836667,163.600333 11.328,163.812667 11.328,164.046 C11.328,164.288667 11.286,164.512667 11.202,164.718 C11.118,164.923333 10.999,165.098333 10.845,165.243 C10.691,165.387667 10.5136667,165.499667 10.313,165.579 C10.1123333,165.658333 9.89066667,165.698 9.648,165.698 Z M14.38,169.31 C14.6786667,169.263333 14.961,169.177 15.227,169.051 C15.493,168.925 15.724,168.764 15.92,168.568 C16.116,168.372 16.2723333,168.141 16.389,167.875 C16.5056667,167.609 16.564,167.317333 16.564,167 L16.564,164.844 L14.366,164.844 L14.366,167 L15.374,167 C15.3833333,167.149333 15.3646667,167.296333 15.318,167.441 C15.2713333,167.585667 15.2013333,167.716333 15.108,167.833 C15.0146667,167.949667 14.905,168.05 14.779,168.134 C14.653,168.218 14.52,168.274 14.38,168.302 L14.38,169.31 Z M21.282,167.182 C21.7766667,167.182 22.241,167.098 22.675,166.93 C23.109,166.762 23.4916667,166.482 23.823,166.09 C24.1543333,165.698 24.4156667,165.173 24.607,164.515 C24.7983333,163.857 24.894,163.038 24.894,162.058 C24.894,161.106 24.7983333,160.305667 24.607,159.657 C24.4156667,159.008333 24.1543333,158.488 23.823,158.096 C23.4916667,157.704 23.109,157.424 22.675,157.256 C22.241,157.088 21.7766667,157.004 21.282,157.004 C20.7966667,157.004 20.337,157.088 19.903,157.256 C19.469,157.424 19.0886667,157.704 18.762,158.096 C18.4353333,158.488 18.1763333,159.008333 17.985,159.657 C17.7936667,160.305667 17.698,161.106 17.698,162.058 C17.698,163.038 17.7936667,163.857 17.985,164.515 C18.1763333,165.173 18.4353333,165.698 18.762,166.09 C19.0886667,166.482 19.469,166.762 19.903,166.93 C20.337,167.098 20.7966667,167.182 21.282,167.182 Z M21.282,165.558 C20.8806667,165.558 20.5726667,165.427333 20.358,165.166 C20.1433333,164.904667 19.987,164.589667 19.889,164.221 C19.791,163.852333 19.7326667,163.469667 19.714,163.073 C19.6953333,162.676333 19.686,162.338 19.686,162.058 C19.686,161.89 19.6883333,161.687 19.693,161.449 C19.6976667,161.211 19.714,160.966 19.742,160.714 C19.77,160.462 19.8166667,160.212333 19.882,159.965 C19.9473333,159.717667 20.0383333,159.496 20.155,159.3 C20.2716667,159.104 20.421,158.945333 20.603,158.824 C20.785,158.702667 21.0113333,158.642 21.282,158.642 C21.5526667,158.642 21.7813333,158.702667 21.968,158.824 C22.1546667,158.945333 22.3086667,159.104 22.43,159.3 C22.5513333,159.496 22.6423333,159.717667 22.703,159.965 C22.7636667,160.212333 22.8103333,160.462 22.843,160.714 C22.8756667,160.966 22.8943333,161.211 22.899,161.449 C22.9036667,161.687 22.906,161.89 22.906,162.058 C22.906,162.338 22.8966667,162.676333 22.878,163.073 C22.8593333,163.469667 22.801,163.852333 22.703,164.221 C22.605,164.589667 22.4463333,164.904667 22.227,165.166 C22.0076667,165.427333 21.6926667,165.558 21.282,165.558 Z M29.066,167.182 C29.5606667,167.182 30.025,167.098 30.459,166.93 C30.893,166.762 31.2756667,166.482 31.607,166.09 C31.9383333,165.698 32.1996667,165.173 32.391,164.515 C32.5823333,163.857 32.678,163.038 32.678,162.058 C32.678,161.106 32.5823333,160.305667 32.391,159.657 C32.1996667,159.008333 31.9383333,158.488 31.607,158.096 C31.2756667,157.704 30.893,157.424 30.459,157.256 C30.025,157.088 29.5606667,157.004 29.066,157.004 C28.5806667,157.004 28.121,157.088 27.687,157.256 C27.253,157.424 26.8726667,157.704 26.546,158.096 C26.2193333,158.488 25.9603333,159.008333 25.769,159.657 C25.5776667,160.305667 25.482,161.106 25.482,162.058 C25.482,163.038 25.5776667,163.857 25.769,164.515 C25.9603333,165.173 26.2193333,165.698 26.546,166.09 C26.8726667,166.482 27.253,166.762 27.687,166.93 C28.121,167.098 28.5806667,167.182 29.066,167.182 Z M29.066,165.558 C28.6646667,165.558 28.3566667,165.427333 28.142,165.166 C27.9273333,164.904667 27.771,164.589667 27.673,164.221 C27.575,163.852333 27.5166667,163.469667 27.498,163.073 C27.4793333,162.676333 27.47,162.338 27.47,162.058 C27.47,161.89 27.4723333,161.687 27.477,161.449 C27.4816667,161.211 27.498,160.966 27.526,160.714 C27.554,160.462 27.6006667,160.212333 27.666,159.965 C27.7313333,159.717667 27.8223333,159.496 27.939,159.3 C28.0556667,159.104 28.205,158.945333 28.387,158.824 C28.569,158.702667 28.7953333,158.642 29.066,158.642 C29.3366667,158.642 29.5653333,158.702667 29.752,158.824 C29.9386667,158.945333 30.0926667,159.104 30.214,159.3 C30.3353333,159.496 30.4263333,159.717667 30.487,159.965 C30.5476667,160.212333 30.5943333,160.462 30.627,160.714 C30.6596667,160.966 30.6783333,161.211 30.683,161.449 C30.6876667,161.687 30.69,161.89 30.69,162.058 C30.69,162.338 30.6806667,162.676333 30.662,163.073 C30.6433333,163.469667 30.585,163.852333 30.487,164.221 C30.389,164.589667 30.2303333,164.904667 30.011,165.166 C29.7916667,165.427333 29.4766667,165.558 29.066,165.558 Z M36.85,167.182 C37.3446667,167.182 37.809,167.098 38.243,166.93 C38.677,166.762 39.0596667,166.482 39.391,166.09 C39.7223333,165.698 39.9836667,165.173 40.175,164.515 C40.3663333,163.857 40.462,163.038 40.462,162.058 C40.462,161.106 40.3663333,160.305667 40.175,159.657 C39.9836667,159.008333 39.7223333,158.488 39.391,158.096 C39.0596667,157.704 38.677,157.424 38.243,157.256 C37.809,157.088 37.3446667,157.004 36.85,157.004 C36.3646667,157.004 35.905,157.088 35.471,157.256 C35.037,157.424 34.6566667,157.704 34.33,158.096 C34.0033333,158.488 33.7443333,159.008333 33.553,159.657 C33.3616667,160.305667 33.266,161.106 33.266,162.058 C33.266,163.038 33.3616667,163.857 33.553,164.515 C33.7443333,165.173 34.0033333,165.698 34.33,166.09 C34.6566667,166.482 35.037,166.762 35.471,166.93 C35.905,167.098 36.3646667,167.182 36.85,167.182 Z M36.85,165.558 C36.4486667,165.558 36.1406667,165.427333 35.926,165.166 C35.7113333,164.904667 35.555,164.589667 35.457,164.221 C35.359,163.852333 35.3006667,163.469667 35.282,163.073 C35.2633333,162.676333 35.254,162.338 35.254,162.058 C35.254,161.89 35.2563333,161.687 35.261,161.449 C35.2656667,161.211 35.282,160.966 35.31,160.714 C35.338,160.462 35.3846667,160.212333 35.45,159.965 C35.5153333,159.717667 35.6063333,159.496 35.723,159.3 C35.8396667,159.104 35.989,158.945333 36.171,158.824 C36.353,158.702667 36.5793333,158.642 36.85,158.642 C37.1206667,158.642 37.3493333,158.702667 37.536,158.824 C37.7226667,158.945333 37.8766667,159.104 37.998,159.3 C38.1193333,159.496 38.2103333,159.717667 38.271,159.965 C38.3316667,160.212333 38.3783333,160.462 38.411,160.714 C38.4436667,160.966 38.4623333,161.211 38.467,161.449 C38.4716667,161.687 38.474,161.89 38.474,162.058 C38.474,162.338 38.4646667,162.676333 38.446,163.073 C38.4273333,163.469667 38.369,163.852333 38.271,164.221 C38.173,164.589667 38.0143333,164.904667 37.795,165.166 C37.5756667,165.427333 37.2606667,165.558 36.85,165.558 Z M41.624,169.31 C41.9226667,169.263333 42.205,169.177 42.471,169.051 C42.737,168.925 42.968,168.764 43.164,168.568 C43.36,168.372 43.5163333,168.141 43.633,167.875 C43.7496667,167.609 43.808,167.317333 43.808,167 L43.808,164.844 L41.61,164.844 L41.61,167 L42.618,167 C42.6273333,167.149333 42.6086667,167.296333 42.562,167.441 C42.5153333,167.585667 42.4453333,167.716333 42.352,167.833 C42.2586667,167.949667 42.149,168.05 42.023,168.134 C41.897,168.218 41.764,168.274 41.624,168.302 L41.624,169.31 Z M48.526,167.182 C49.0206667,167.182 49.485,167.098 49.919,166.93 C50.353,166.762 50.7356667,166.482 51.067,166.09 C51.3983333,165.698 51.6596667,165.173 51.851,164.515 C52.0423333,163.857 52.138,163.038 52.138,162.058 C52.138,161.106 52.0423333,160.305667 51.851,159.657 C51.6596667,159.008333 51.3983333,158.488 51.067,158.096 C50.7356667,157.704 50.353,157.424 49.919,157.256 C49.485,157.088 49.0206667,157.004 48.526,157.004 C48.0406667,157.004 47.581,157.088 47.147,157.256 C46.713,157.424 46.3326667,157.704 46.006,158.096 C45.6793333,158.488 45.4203333,159.008333 45.229,159.657 C45.0376667,160.305667 44.942,161.106 44.942,162.058 C44.942,163.038 45.0376667,163.857 45.229,164.515 C45.4203333,165.173 45.6793333,165.698 46.006,166.09 C46.3326667,166.482 46.713,166.762 47.147,166.93 C47.581,167.098 48.0406667,167.182 48.526,167.182 Z M48.526,165.558 C48.1246667,165.558 47.8166667,165.427333 47.602,165.166 C47.3873333,164.904667 47.231,164.589667 47.133,164.221 C47.035,163.852333 46.9766667,163.469667 46.958,163.073 C46.9393333,162.676333 46.93,162.338 46.93,162.058 C46.93,161.89 46.9323333,161.687 46.937,161.449 C46.9416667,161.211 46.958,160.966 46.986,160.714 C47.014,160.462 47.0606667,160.212333 47.126,159.965 C47.1913333,159.717667 47.2823333,159.496 47.399,159.3 C47.5156667,159.104 47.665,158.945333 47.847,158.824 C48.029,158.702667 48.2553333,158.642 48.526,158.642 C48.7966667,158.642 49.0253333,158.702667 49.212,158.824 C49.3986667,158.945333 49.5526667,159.104 49.674,159.3 C49.7953333,159.496 49.8863333,159.717667 49.947,159.965 C50.0076667,160.212333 50.0543333,160.462 50.087,160.714 C50.1196667,160.966 50.1383333,161.211 50.143,161.449 C50.1476667,161.687 50.15,161.89 50.15,162.058 C50.15,162.338 50.1406667,162.676333 50.122,163.073 C50.1033333,163.469667 50.045,163.852333 49.947,164.221 C49.849,164.589667 49.6903333,164.904667 49.471,165.166 C49.2516667,165.427333 48.9366667,165.558 48.526,165.558 Z M56.31,167.182 C56.8046667,167.182 57.269,167.098 57.703,166.93 C58.137,166.762 58.5196667,166.482 58.851,166.09 C59.1823333,165.698 59.4436667,165.173 59.635,164.515 C59.8263333,163.857 59.922,163.038 59.922,162.058 C59.922,161.106 59.8263333,160.305667 59.635,159.657 C59.4436667,159.008333 59.1823333,158.488 58.851,158.096 C58.5196667,157.704 58.137,157.424 57.703,157.256 C57.269,157.088 56.8046667,157.004 56.31,157.004 C55.8246667,157.004 55.365,157.088 54.931,157.256 C54.497,157.424 54.1166667,157.704 53.79,158.096 C53.4633333,158.488 53.2043333,159.008333 53.013,159.657 C52.8216667,160.305667 52.726,161.106 52.726,162.058 C52.726,163.038 52.8216667,163.857 53.013,164.515 C53.2043333,165.173 53.4633333,165.698 53.79,166.09 C54.1166667,166.482 54.497,166.762 54.931,166.93 C55.365,167.098 55.8246667,167.182 56.31,167.182 Z M56.31,165.558 C55.9086667,165.558 55.6006667,165.427333 55.386,165.166 C55.1713333,164.904667 55.015,164.589667 54.917,164.221 C54.819,163.852333 54.7606667,163.469667 54.742,163.073 C54.7233333,162.676333 54.714,162.338 54.714,162.058 C54.714,161.89 54.7163333,161.687 54.721,161.449 C54.7256667,161.211 54.742,160.966 54.77,160.714 C54.798,160.462 54.8446667,160.212333 54.91,159.965 C54.9753333,159.717667 55.0663333,159.496 55.183,159.3 C55.2996667,159.104 55.449,158.945333 55.631,158.824 C55.813,158.702667 56.0393333,158.642 56.31,158.642 C56.5806667,158.642 56.8093333,158.702667 56.996,158.824 C57.1826667,158.945333 57.3366667,159.104 57.458,159.3 C57.5793333,159.496 57.6703333,159.717667 57.731,159.965 C57.7916667,160.212333 57.8383333,160.462 57.871,160.714 C57.9036667,160.966 57.9223333,161.211 57.927,161.449 C57.9316667,161.687 57.934,161.89 57.934,162.058 C57.934,162.338 57.9246667,162.676333 57.906,163.073 C57.8873333,163.469667 57.829,163.852333 57.731,164.221 C57.633,164.589667 57.4743333,164.904667 57.255,165.166 C57.0356667,165.427333 56.7206667,165.558 56.31,165.558 Z M64.094,167.182 C64.5886667,167.182 65.053,167.098 65.487,166.93 C65.921,166.762 66.3036667,166.482 66.635,166.09 C66.9663333,165.698 67.2276667,165.173 67.419,164.515 C67.6103333,163.857 67.706,163.038 67.706,162.058 C67.706,161.106 67.6103333,160.305667 67.419,159.657 C67.2276667,159.008333 66.9663333,158.488 66.635,158.096 C66.3036667,157.704 65.921,157.424 65.487,157.256 C65.053,157.088 64.5886667,157.004 64.094,157.004 C63.6086667,157.004 63.149,157.088 62.715,157.256 C62.281,157.424 61.9006667,157.704 61.574,158.096 C61.2473333,158.488 60.9883333,159.008333 60.797,159.657 C60.6056667,160.305667 60.51,161.106 60.51,162.058 C60.51,163.038 60.6056667,163.857 60.797,164.515 C60.9883333,165.173 61.2473333,165.698 61.574,166.09 C61.9006667,166.482 62.281,166.762 62.715,166.93 C63.149,167.098 63.6086667,167.182 64.094,167.182 Z M64.094,165.558 C63.6926667,165.558 63.3846667,165.427333 63.17,165.166 C62.9553333,164.904667 62.799,164.589667 62.701,164.221 C62.603,163.852333 62.5446667,163.469667 62.526,163.073 C62.5073333,162.676333 62.498,162.338 62.498,162.058 C62.498,161.89 62.5003333,161.687 62.505,161.449 C62.5096667,161.211 62.526,160.966 62.554,160.714 C62.582,160.462 62.6286667,160.212333 62.694,159.965 C62.7593333,159.717667 62.8503333,159.496 62.967,159.3 C63.0836667,159.104 63.233,158.945333 63.415,158.824 C63.597,158.702667 63.8233333,158.642 64.094,158.642 C64.3646667,158.642 64.5933333,158.702667 64.78,158.824 C64.9666667,158.945333 65.1206667,159.104 65.242,159.3 C65.3633333,159.496 65.4543333,159.717667 65.515,159.965 C65.5756667,160.212333 65.6223333,160.462 65.655,160.714 C65.6876667,160.966 65.7063333,161.211 65.711,161.449 C65.7156667,161.687 65.718,161.89 65.718,162.058 C65.718,162.338 65.7086667,162.676333 65.69,163.073 C65.6713333,163.469667 65.613,163.852333 65.515,164.221 C65.417,164.589667 65.2583333,164.904667 65.039,165.166 C64.8196667,165.427333 64.5046667,165.558 64.094,165.558 Z" id="8,000,000" fill="#FFFFFF" fill-rule="nonzero"></path>
            <path d="M6.432,88 L6.432,78.2 L4.85,78.2 C4.794,78.5733333 4.67733333,78.886 4.5,79.138 C4.32266667,79.39 4.10566667,79.593 3.849,79.747 C3.59233333,79.901 3.303,80.0083333 2.981,80.069 C2.659,80.1296667 2.32533333,80.1553333 1.98,80.146 L1.98,81.644 L4.444,81.644 L4.444,88 L6.432,88 Z M16.218,88 L16.218,86.292 L11.584,86.292 C11.8266667,85.956 12.1066667,85.662 12.424,85.41 C12.7413333,85.158 13.068,84.9223333 13.404,84.703 C13.74,84.4836667 14.0736667,84.262 14.405,84.038 C14.7363333,83.814 15.0326667,83.5643333 15.294,83.289 C15.5553333,83.0136667 15.7653333,82.6986667 15.924,82.344 C16.0826667,81.9893333 16.162,81.5646667 16.162,81.07 C16.162,80.594 16.071,80.1646667 15.889,79.782 C15.707,79.3993333 15.462,79.0773333 15.154,78.816 C14.846,78.5546667 14.489,78.354 14.083,78.214 C13.677,78.074 13.25,78.004 12.802,78.004 C12.214,78.004 11.6936667,78.1043333 11.241,78.305 C10.7883333,78.5056667 10.4126667,78.7856667 10.114,79.145 C9.81533333,79.5043333 9.59133333,79.9243333 9.442,80.405 C9.29266667,80.8856667 9.22733333,81.406 9.246,81.966 L11.15,81.966 C11.15,81.7046667 11.1756667,81.441 11.227,81.175 C11.2783333,80.909 11.3646667,80.6663333 11.486,80.447 C11.6073333,80.2276667 11.7683333,80.0503333 11.969,79.915 C12.1696667,79.7796667 12.4146667,79.712 12.704,79.712 C13.1333333,79.712 13.4856667,79.845 13.761,80.111 C14.0363333,80.377 14.174,80.748 14.174,81.224 C14.174,81.5226667 14.1063333,81.7886667 13.971,82.022 C13.8356667,82.2553333 13.6676667,82.4653333 13.467,82.652 C13.2663333,82.8386667 13.0446667,83.009 12.802,83.163 C12.5593333,83.317 12.3306667,83.4686667 12.116,83.618 C11.696,83.9073333 11.297,84.192 10.919,84.472 C10.541,84.752 10.212,85.0576667 9.932,85.389 C9.652,85.7203333 9.43033333,86.096 9.267,86.516 C9.10366667,86.936 9.022,87.4306667 9.022,88 L16.218,88 Z M17.38,90.31 C17.6786667,90.2633333 17.961,90.177 18.227,90.051 C18.493,89.925 18.724,89.764 18.92,89.568 C19.116,89.372 19.2723333,89.141 19.389,88.875 C19.5056667,88.609 19.564,88.3173333 19.564,88 L19.564,85.844 L17.366,85.844 L17.366,88 L18.374,88 C18.3833333,88.1493333 18.3646667,88.2963333 18.318,88.441 C18.2713333,88.5856667 18.2013333,88.7163333 18.108,88.833 C18.0146667,88.9496667 17.905,89.05 17.779,89.134 C17.653,89.218 17.52,89.274 17.38,89.302 L17.38,90.31 Z M24.282,88.182 C24.7766667,88.182 25.241,88.098 25.675,87.93 C26.109,87.762 26.4916667,87.482 26.823,87.09 C27.1543333,86.698 27.4156667,86.173 27.607,85.515 C27.7983333,84.857 27.894,84.038 27.894,83.058 C27.894,82.106 27.7983333,81.3056667 27.607,80.657 C27.4156667,80.0083333 27.1543333,79.488 26.823,79.096 C26.4916667,78.704 26.109,78.424 25.675,78.256 C25.241,78.088 24.7766667,78.004 24.282,78.004 C23.7966667,78.004 23.337,78.088 22.903,78.256 C22.469,78.424 22.0886667,78.704 21.762,79.096 C21.4353333,79.488 21.1763333,80.0083333 20.985,80.657 C20.7936667,81.3056667 20.698,82.106 20.698,83.058 C20.698,84.038 20.7936667,84.857 20.985,85.515 C21.1763333,86.173 21.4353333,86.698 21.762,87.09 C22.0886667,87.482 22.469,87.762 22.903,87.93 C23.337,88.098 23.7966667,88.182 24.282,88.182 Z M24.282,86.558 C23.8806667,86.558 23.5726667,86.4273333 23.358,86.166 C23.1433333,85.9046667 22.987,85.5896667 22.889,85.221 C22.791,84.8523333 22.7326667,84.4696667 22.714,84.073 C22.6953333,83.6763333 22.686,83.338 22.686,83.058 C22.686,82.89 22.6883333,82.687 22.693,82.449 C22.6976667,82.211 22.714,81.966 22.742,81.714 C22.77,81.462 22.8166667,81.2123333 22.882,80.965 C22.9473333,80.7176667 23.0383333,80.496 23.155,80.3 C23.2716667,80.104 23.421,79.9453333 23.603,79.824 C23.785,79.7026667 24.0113333,79.642 24.282,79.642 C24.5526667,79.642 24.7813333,79.7026667 24.968,79.824 C25.1546667,79.9453333 25.3086667,80.104 25.43,80.3 C25.5513333,80.496 25.6423333,80.7176667 25.703,80.965 C25.7636667,81.2123333 25.8103333,81.462 25.843,81.714 C25.8756667,81.966 25.8943333,82.211 25.899,82.449 C25.9036667,82.687 25.906,82.89 25.906,83.058 C25.906,83.338 25.8966667,83.6763333 25.878,84.073 C25.8593333,84.4696667 25.801,84.8523333 25.703,85.221 C25.605,85.5896667 25.4463333,85.9046667 25.227,86.166 C25.0076667,86.4273333 24.6926667,86.558 24.282,86.558 Z M32.066,88.182 C32.5606667,88.182 33.025,88.098 33.459,87.93 C33.893,87.762 34.2756667,87.482 34.607,87.09 C34.9383333,86.698 35.1996667,86.173 35.391,85.515 C35.5823333,84.857 35.678,84.038 35.678,83.058 C35.678,82.106 35.5823333,81.3056667 35.391,80.657 C35.1996667,80.0083333 34.9383333,79.488 34.607,79.096 C34.2756667,78.704 33.893,78.424 33.459,78.256 C33.025,78.088 32.5606667,78.004 32.066,78.004 C31.5806667,78.004 31.121,78.088 30.687,78.256 C30.253,78.424 29.8726667,78.704 29.546,79.096 C29.2193333,79.488 28.9603333,80.0083333 28.769,80.657 C28.5776667,81.3056667 28.482,82.106 28.482,83.058 C28.482,84.038 28.5776667,84.857 28.769,85.515 C28.9603333,86.173 29.2193333,86.698 29.546,87.09 C29.8726667,87.482 30.253,87.762 30.687,87.93 C31.121,88.098 31.5806667,88.182 32.066,88.182 Z M32.066,86.558 C31.6646667,86.558 31.3566667,86.4273333 31.142,86.166 C30.9273333,85.9046667 30.771,85.5896667 30.673,85.221 C30.575,84.8523333 30.5166667,84.4696667 30.498,84.073 C30.4793333,83.6763333 30.47,83.338 30.47,83.058 C30.47,82.89 30.4723333,82.687 30.477,82.449 C30.4816667,82.211 30.498,81.966 30.526,81.714 C30.554,81.462 30.6006667,81.2123333 30.666,80.965 C30.7313333,80.7176667 30.8223333,80.496 30.939,80.3 C31.0556667,80.104 31.205,79.9453333 31.387,79.824 C31.569,79.7026667 31.7953333,79.642 32.066,79.642 C32.3366667,79.642 32.5653333,79.7026667 32.752,79.824 C32.9386667,79.9453333 33.0926667,80.104 33.214,80.3 C33.3353333,80.496 33.4263333,80.7176667 33.487,80.965 C33.5476667,81.2123333 33.5943333,81.462 33.627,81.714 C33.6596667,81.966 33.6783333,82.211 33.683,82.449 C33.6876667,82.687 33.69,82.89 33.69,83.058 C33.69,83.338 33.6806667,83.6763333 33.662,84.073 C33.6433333,84.4696667 33.585,84.8523333 33.487,85.221 C33.389,85.5896667 33.2303333,85.9046667 33.011,86.166 C32.7916667,86.4273333 32.4766667,86.558 32.066,86.558 Z M39.85,88.182 C40.3446667,88.182 40.809,88.098 41.243,87.93 C41.677,87.762 42.0596667,87.482 42.391,87.09 C42.7223333,86.698 42.9836667,86.173 43.175,85.515 C43.3663333,84.857 43.462,84.038 43.462,83.058 C43.462,82.106 43.3663333,81.3056667 43.175,80.657 C42.9836667,80.0083333 42.7223333,79.488 42.391,79.096 C42.0596667,78.704 41.677,78.424 41.243,78.256 C40.809,78.088 40.3446667,78.004 39.85,78.004 C39.3646667,78.004 38.905,78.088 38.471,78.256 C38.037,78.424 37.6566667,78.704 37.33,79.096 C37.0033333,79.488 36.7443333,80.0083333 36.553,80.657 C36.3616667,81.3056667 36.266,82.106 36.266,83.058 C36.266,84.038 36.3616667,84.857 36.553,85.515 C36.7443333,86.173 37.0033333,86.698 37.33,87.09 C37.6566667,87.482 38.037,87.762 38.471,87.93 C38.905,88.098 39.3646667,88.182 39.85,88.182 Z M39.85,86.558 C39.4486667,86.558 39.1406667,86.4273333 38.926,86.166 C38.7113333,85.9046667 38.555,85.5896667 38.457,85.221 C38.359,84.8523333 38.3006667,84.4696667 38.282,84.073 C38.2633333,83.6763333 38.254,83.338 38.254,83.058 C38.254,82.89 38.2563333,82.687 38.261,82.449 C38.2656667,82.211 38.282,81.966 38.31,81.714 C38.338,81.462 38.3846667,81.2123333 38.45,80.965 C38.5153333,80.7176667 38.6063333,80.496 38.723,80.3 C38.8396667,80.104 38.989,79.9453333 39.171,79.824 C39.353,79.7026667 39.5793333,79.642 39.85,79.642 C40.1206667,79.642 40.3493333,79.7026667 40.536,79.824 C40.7226667,79.9453333 40.8766667,80.104 40.998,80.3 C41.1193333,80.496 41.2103333,80.7176667 41.271,80.965 C41.3316667,81.2123333 41.3783333,81.462 41.411,81.714 C41.4436667,81.966 41.4623333,82.211 41.467,82.449 C41.4716667,82.687 41.474,82.89 41.474,83.058 C41.474,83.338 41.4646667,83.6763333 41.446,84.073 C41.4273333,84.4696667 41.369,84.8523333 41.271,85.221 C41.173,85.5896667 41.0143333,85.9046667 40.795,86.166 C40.5756667,86.4273333 40.2606667,86.558 39.85,86.558 Z M44.624,90.31 C44.9226667,90.2633333 45.205,90.177 45.471,90.051 C45.737,89.925 45.968,89.764 46.164,89.568 C46.36,89.372 46.5163333,89.141 46.633,88.875 C46.7496667,88.609 46.808,88.3173333 46.808,88 L46.808,85.844 L44.61,85.844 L44.61,88 L45.618,88 C45.6273333,88.1493333 45.6086667,88.2963333 45.562,88.441 C45.5153333,88.5856667 45.4453333,88.7163333 45.352,88.833 C45.2586667,88.9496667 45.149,89.05 45.023,89.134 C44.897,89.218 44.764,89.274 44.624,89.302 L44.624,90.31 Z M51.526,88.182 C52.0206667,88.182 52.485,88.098 52.919,87.93 C53.353,87.762 53.7356667,87.482 54.067,87.09 C54.3983333,86.698 54.6596667,86.173 54.851,85.515 C55.0423333,84.857 55.138,84.038 55.138,83.058 C55.138,82.106 55.0423333,81.3056667 54.851,80.657 C54.6596667,80.0083333 54.3983333,79.488 54.067,79.096 C53.7356667,78.704 53.353,78.424 52.919,78.256 C52.485,78.088 52.0206667,78.004 51.526,78.004 C51.0406667,78.004 50.581,78.088 50.147,78.256 C49.713,78.424 49.3326667,78.704 49.006,79.096 C48.6793333,79.488 48.4203333,80.0083333 48.229,80.657 C48.0376667,81.3056667 47.942,82.106 47.942,83.058 C47.942,84.038 48.0376667,84.857 48.229,85.515 C48.4203333,86.173 48.6793333,86.698 49.006,87.09 C49.3326667,87.482 49.713,87.762 50.147,87.93 C50.581,88.098 51.0406667,88.182 51.526,88.182 Z M51.526,86.558 C51.1246667,86.558 50.8166667,86.4273333 50.602,86.166 C50.3873333,85.9046667 50.231,85.5896667 50.133,85.221 C50.035,84.8523333 49.9766667,84.4696667 49.958,84.073 C49.9393333,83.6763333 49.93,83.338 49.93,83.058 C49.93,82.89 49.9323333,82.687 49.937,82.449 C49.9416667,82.211 49.958,81.966 49.986,81.714 C50.014,81.462 50.0606667,81.2123333 50.126,80.965 C50.1913333,80.7176667 50.2823333,80.496 50.399,80.3 C50.5156667,80.104 50.665,79.9453333 50.847,79.824 C51.029,79.7026667 51.2553333,79.642 51.526,79.642 C51.7966667,79.642 52.0253333,79.7026667 52.212,79.824 C52.3986667,79.9453333 52.5526667,80.104 52.674,80.3 C52.7953333,80.496 52.8863333,80.7176667 52.947,80.965 C53.0076667,81.2123333 53.0543333,81.462 53.087,81.714 C53.1196667,81.966 53.1383333,82.211 53.143,82.449 C53.1476667,82.687 53.15,82.89 53.15,83.058 C53.15,83.338 53.1406667,83.6763333 53.122,84.073 C53.1033333,84.4696667 53.045,84.8523333 52.947,85.221 C52.849,85.5896667 52.6903333,85.9046667 52.471,86.166 C52.2516667,86.4273333 51.9366667,86.558 51.526,86.558 Z M59.31,88.182 C59.8046667,88.182 60.269,88.098 60.703,87.93 C61.137,87.762 61.5196667,87.482 61.851,87.09 C62.1823333,86.698 62.4436667,86.173 62.635,85.515 C62.8263333,84.857 62.922,84.038 62.922,83.058 C62.922,82.106 62.8263333,81.3056667 62.635,80.657 C62.4436667,80.0083333 62.1823333,79.488 61.851,79.096 C61.5196667,78.704 61.137,78.424 60.703,78.256 C60.269,78.088 59.8046667,78.004 59.31,78.004 C58.8246667,78.004 58.365,78.088 57.931,78.256 C57.497,78.424 57.1166667,78.704 56.79,79.096 C56.4633333,79.488 56.2043333,80.0083333 56.013,80.657 C55.8216667,81.3056667 55.726,82.106 55.726,83.058 C55.726,84.038 55.8216667,84.857 56.013,85.515 C56.2043333,86.173 56.4633333,86.698 56.79,87.09 C57.1166667,87.482 57.497,87.762 57.931,87.93 C58.365,88.098 58.8246667,88.182 59.31,88.182 Z M59.31,86.558 C58.9086667,86.558 58.6006667,86.4273333 58.386,86.166 C58.1713333,85.9046667 58.015,85.5896667 57.917,85.221 C57.819,84.8523333 57.7606667,84.4696667 57.742,84.073 C57.7233333,83.6763333 57.714,83.338 57.714,83.058 C57.714,82.89 57.7163333,82.687 57.721,82.449 C57.7256667,82.211 57.742,81.966 57.77,81.714 C57.798,81.462 57.8446667,81.2123333 57.91,80.965 C57.9753333,80.7176667 58.0663333,80.496 58.183,80.3 C58.2996667,80.104 58.449,79.9453333 58.631,79.824 C58.813,79.7026667 59.0393333,79.642 59.31,79.642 C59.5806667,79.642 59.8093333,79.7026667 59.996,79.824 C60.1826667,79.9453333 60.3366667,80.104 60.458,80.3 C60.5793333,80.496 60.6703333,80.7176667 60.731,80.965 C60.7916667,81.2123333 60.8383333,81.462 60.871,81.714 C60.9036667,81.966 60.9223333,82.211 60.927,82.449 C60.9316667,82.687 60.934,82.89 60.934,83.058 C60.934,83.338 60.9246667,83.6763333 60.906,84.073 C60.8873333,84.4696667 60.829,84.8523333 60.731,85.221 C60.633,85.5896667 60.4743333,85.9046667 60.255,86.166 C60.0356667,86.4273333 59.7206667,86.558 59.31,86.558 Z M67.094,88.182 C67.5886667,88.182 68.053,88.098 68.487,87.93 C68.921,87.762 69.3036667,87.482 69.635,87.09 C69.9663333,86.698 70.2276667,86.173 70.419,85.515 C70.6103333,84.857 70.706,84.038 70.706,83.058 C70.706,82.106 70.6103333,81.3056667 70.419,80.657 C70.2276667,80.0083333 69.9663333,79.488 69.635,79.096 C69.3036667,78.704 68.921,78.424 68.487,78.256 C68.053,78.088 67.5886667,78.004 67.094,78.004 C66.6086667,78.004 66.149,78.088 65.715,78.256 C65.281,78.424 64.9006667,78.704 64.574,79.096 C64.2473333,79.488 63.9883333,80.0083333 63.797,80.657 C63.6056667,81.3056667 63.51,82.106 63.51,83.058 C63.51,84.038 63.6056667,84.857 63.797,85.515 C63.9883333,86.173 64.2473333,86.698 64.574,87.09 C64.9006667,87.482 65.281,87.762 65.715,87.93 C66.149,88.098 66.6086667,88.182 67.094,88.182 Z M67.094,86.558 C66.6926667,86.558 66.3846667,86.4273333 66.17,86.166 C65.9553333,85.9046667 65.799,85.5896667 65.701,85.221 C65.603,84.8523333 65.5446667,84.4696667 65.526,84.073 C65.5073333,83.6763333 65.498,83.338 65.498,83.058 C65.498,82.89 65.5003333,82.687 65.505,82.449 C65.5096667,82.211 65.526,81.966 65.554,81.714 C65.582,81.462 65.6286667,81.2123333 65.694,80.965 C65.7593333,80.7176667 65.8503333,80.496 65.967,80.3 C66.0836667,80.104 66.233,79.9453333 66.415,79.824 C66.597,79.7026667 66.8233333,79.642 67.094,79.642 C67.3646667,79.642 67.5933333,79.7026667 67.78,79.824 C67.9666667,79.9453333 68.1206667,80.104 68.242,80.3 C68.3633333,80.496 68.4543333,80.7176667 68.515,80.965 C68.5756667,81.2123333 68.6223333,81.462 68.655,81.714 C68.6876667,81.966 68.7063333,82.211 68.711,82.449 C68.7156667,82.687 68.718,82.89 68.718,83.058 C68.718,83.338 68.7086667,83.6763333 68.69,84.073 C68.6713333,84.4696667 68.613,84.8523333 68.515,85.221 C68.417,85.5896667 68.2583333,85.9046667 68.039,86.166 C67.8196667,86.4273333 67.5046667,86.558 67.094,86.558 Z" id="12,000,000" fill="#FFFFFF" fill-rule="nonzero"></path>
            <path d="M6.432,10 L6.432,0.2 L4.85,0.2 C4.794,0.573333333 4.67733333,0.886 4.5,1.138 C4.32266667,1.39 4.10566667,1.593 3.849,1.747 C3.59233333,1.901 3.303,2.00833333 2.981,2.069 C2.659,2.12966667 2.32533333,2.15533333 1.98,2.146 L1.98,3.644 L4.444,3.644 L4.444,10 L6.432,10 Z M12.788,10.182 C13.3013333,10.182 13.768,10.091 14.188,9.909 C14.608,9.727 14.9696667,9.475 15.273,9.153 C15.5763333,8.831 15.8096667,8.453 15.973,8.019 C16.1363333,7.585 16.218,7.116 16.218,6.612 C16.218,6.22 16.1573333,5.83266667 16.036,5.45 C15.9146667,5.06733333 15.7233333,4.72666667 15.462,4.428 C15.182,4.12 14.8413333,3.875 14.44,3.693 C14.0386667,3.511 13.628,3.42 13.208,3.42 C12.732,3.42 12.312,3.504 11.948,3.672 C11.584,3.84 11.2666667,4.12 10.996,4.512 L10.968,4.484 C10.9773333,4.21333333 11.0146667,3.90533333 11.08,3.56 C11.1453333,3.21466667 11.248,2.89033333 11.388,2.587 C11.528,2.28366667 11.717,2.027 11.955,1.817 C12.193,1.607 12.4893333,1.502 12.844,1.502 C13.1893333,1.502 13.4786667,1.62333333 13.712,1.866 C13.9453333,2.10866667 14.0946667,2.39333333 14.16,2.72 L16.05,2.72 C15.994,2.28133333 15.8773333,1.894 15.7,1.558 C15.5226667,1.222 15.294,0.939666667 15.014,0.711 C14.734,0.482333333 14.412,0.307333333 14.048,0.186 C13.684,0.0646666667 13.292,0.004 12.872,0.004 C12.172,0.004 11.5793333,0.158 11.094,0.466 C10.6086667,0.774 10.212,1.173 9.904,1.663 C9.596,2.153 9.372,2.70133333 9.232,3.308 C9.092,3.91466667 9.022,4.52133333 9.022,5.128 C9.022,5.75333333 9.078,6.367 9.19,6.969 C9.302,7.571 9.50266667,8.11 9.792,8.586 C10.0813333,9.062 10.4686667,9.447 10.954,9.741 C11.4393333,10.035 12.0506667,10.182 12.788,10.182 Z M12.732,8.558 C12.48,8.558 12.256,8.50666667 12.06,8.404 C11.864,8.30133333 11.6983333,8.16366667 11.563,7.991 C11.4276667,7.81833333 11.325,7.62233333 11.255,7.403 C11.185,7.18366667 11.15,6.962 11.15,6.738 C11.15,6.49533333 11.1826667,6.26433333 11.248,6.045 C11.3133333,5.82566667 11.4113333,5.632 11.542,5.464 C11.6726667,5.296 11.8383333,5.163 12.039,5.065 C12.2396667,4.967 12.4706667,4.918 12.732,4.918 C12.984,4.918 13.2056667,4.97166667 13.397,5.079 C13.5883333,5.18633333 13.7446667,5.32633333 13.866,5.499 C13.9873333,5.67166667 14.0783333,5.86766667 14.139,6.087 C14.1996667,6.30633333 14.23,6.53266667 14.23,6.766 C14.23,6.99 14.1973333,7.20933333 14.132,7.424 C14.0666667,7.63866667 13.9686667,7.83 13.838,7.998 C13.7073333,8.166 13.551,8.30133333 13.369,8.404 C13.187,8.50666667 12.9746667,8.558 12.732,8.558 Z M17.38,12.31 C17.6786667,12.2633333 17.961,12.177 18.227,12.051 C18.493,11.925 18.724,11.764 18.92,11.568 C19.116,11.372 19.2723333,11.141 19.389,10.875 C19.5056667,10.609 19.564,10.3173333 19.564,10 L19.564,7.844 L17.366,7.844 L17.366,10 L18.374,10 C18.3833333,10.1493333 18.3646667,10.2963333 18.318,10.441 C18.2713333,10.5856667 18.2013333,10.7163333 18.108,10.833 C18.0146667,10.9496667 17.905,11.05 17.779,11.134 C17.653,11.218 17.52,11.274 17.38,11.302 L17.38,12.31 Z M24.282,10.182 C24.7766667,10.182 25.241,10.098 25.675,9.93 C26.109,9.762 26.4916667,9.482 26.823,9.09 C27.1543333,8.698 27.4156667,8.173 27.607,7.515 C27.7983333,6.857 27.894,6.038 27.894,5.058 C27.894,4.106 27.7983333,3.30566667 27.607,2.657 C27.4156667,2.00833333 27.1543333,1.488 26.823,1.096 C26.4916667,0.704 26.109,0.424 25.675,0.256 C25.241,0.088 24.7766667,0.004 24.282,0.004 C23.7966667,0.004 23.337,0.088 22.903,0.256 C22.469,0.424 22.0886667,0.704 21.762,1.096 C21.4353333,1.488 21.1763333,2.00833333 20.985,2.657 C20.7936667,3.30566667 20.698,4.106 20.698,5.058 C20.698,6.038 20.7936667,6.857 20.985,7.515 C21.1763333,8.173 21.4353333,8.698 21.762,9.09 C22.0886667,9.482 22.469,9.762 22.903,9.93 C23.337,10.098 23.7966667,10.182 24.282,10.182 Z M24.282,8.558 C23.8806667,8.558 23.5726667,8.42733333 23.358,8.166 C23.1433333,7.90466667 22.987,7.58966667 22.889,7.221 C22.791,6.85233333 22.7326667,6.46966667 22.714,6.073 C22.6953333,5.67633333 22.686,5.338 22.686,5.058 C22.686,4.89 22.6883333,4.687 22.693,4.449 C22.6976667,4.211 22.714,3.966 22.742,3.714 C22.77,3.462 22.8166667,3.21233333 22.882,2.965 C22.9473333,2.71766667 23.0383333,2.496 23.155,2.3 C23.2716667,2.104 23.421,1.94533333 23.603,1.824 C23.785,1.70266667 24.0113333,1.642 24.282,1.642 C24.5526667,1.642 24.7813333,1.70266667 24.968,1.824 C25.1546667,1.94533333 25.3086667,2.104 25.43,2.3 C25.5513333,2.496 25.6423333,2.71766667 25.703,2.965 C25.7636667,3.21233333 25.8103333,3.462 25.843,3.714 C25.8756667,3.966 25.8943333,4.211 25.899,4.449 C25.9036667,4.687 25.906,4.89 25.906,5.058 C25.906,5.338 25.8966667,5.67633333 25.878,6.073 C25.8593333,6.46966667 25.801,6.85233333 25.703,7.221 C25.605,7.58966667 25.4463333,7.90466667 25.227,8.166 C25.0076667,8.42733333 24.6926667,8.558 24.282,8.558 Z M32.066,10.182 C32.5606667,10.182 33.025,10.098 33.459,9.93 C33.893,9.762 34.2756667,9.482 34.607,9.09 C34.9383333,8.698 35.1996667,8.173 35.391,7.515 C35.5823333,6.857 35.678,6.038 35.678,5.058 C35.678,4.106 35.5823333,3.30566667 35.391,2.657 C35.1996667,2.00833333 34.9383333,1.488 34.607,1.096 C34.2756667,0.704 33.893,0.424 33.459,0.256 C33.025,0.088 32.5606667,0.004 32.066,0.004 C31.5806667,0.004 31.121,0.088 30.687,0.256 C30.253,0.424 29.8726667,0.704 29.546,1.096 C29.2193333,1.488 28.9603333,2.00833333 28.769,2.657 C28.5776667,3.30566667 28.482,4.106 28.482,5.058 C28.482,6.038 28.5776667,6.857 28.769,7.515 C28.9603333,8.173 29.2193333,8.698 29.546,9.09 C29.8726667,9.482 30.253,9.762 30.687,9.93 C31.121,10.098 31.5806667,10.182 32.066,10.182 Z M32.066,8.558 C31.6646667,8.558 31.3566667,8.42733333 31.142,8.166 C30.9273333,7.90466667 30.771,7.58966667 30.673,7.221 C30.575,6.85233333 30.5166667,6.46966667 30.498,6.073 C30.4793333,5.67633333 30.47,5.338 30.47,5.058 C30.47,4.89 30.4723333,4.687 30.477,4.449 C30.4816667,4.211 30.498,3.966 30.526,3.714 C30.554,3.462 30.6006667,3.21233333 30.666,2.965 C30.7313333,2.71766667 30.8223333,2.496 30.939,2.3 C31.0556667,2.104 31.205,1.94533333 31.387,1.824 C31.569,1.70266667 31.7953333,1.642 32.066,1.642 C32.3366667,1.642 32.5653333,1.70266667 32.752,1.824 C32.9386667,1.94533333 33.0926667,2.104 33.214,2.3 C33.3353333,2.496 33.4263333,2.71766667 33.487,2.965 C33.5476667,3.21233333 33.5943333,3.462 33.627,3.714 C33.6596667,3.966 33.6783333,4.211 33.683,4.449 C33.6876667,4.687 33.69,4.89 33.69,5.058 C33.69,5.338 33.6806667,5.67633333 33.662,6.073 C33.6433333,6.46966667 33.585,6.85233333 33.487,7.221 C33.389,7.58966667 33.2303333,7.90466667 33.011,8.166 C32.7916667,8.42733333 32.4766667,8.558 32.066,8.558 Z M39.85,10.182 C40.3446667,10.182 40.809,10.098 41.243,9.93 C41.677,9.762 42.0596667,9.482 42.391,9.09 C42.7223333,8.698 42.9836667,8.173 43.175,7.515 C43.3663333,6.857 43.462,6.038 43.462,5.058 C43.462,4.106 43.3663333,3.30566667 43.175,2.657 C42.9836667,2.00833333 42.7223333,1.488 42.391,1.096 C42.0596667,0.704 41.677,0.424 41.243,0.256 C40.809,0.088 40.3446667,0.004 39.85,0.004 C39.3646667,0.004 38.905,0.088 38.471,0.256 C38.037,0.424 37.6566667,0.704 37.33,1.096 C37.0033333,1.488 36.7443333,2.00833333 36.553,2.657 C36.3616667,3.30566667 36.266,4.106 36.266,5.058 C36.266,6.038 36.3616667,6.857 36.553,7.515 C36.7443333,8.173 37.0033333,8.698 37.33,9.09 C37.6566667,9.482 38.037,9.762 38.471,9.93 C38.905,10.098 39.3646667,10.182 39.85,10.182 Z M39.85,8.558 C39.4486667,8.558 39.1406667,8.42733333 38.926,8.166 C38.7113333,7.90466667 38.555,7.58966667 38.457,7.221 C38.359,6.85233333 38.3006667,6.46966667 38.282,6.073 C38.2633333,5.67633333 38.254,5.338 38.254,5.058 C38.254,4.89 38.2563333,4.687 38.261,4.449 C38.2656667,4.211 38.282,3.966 38.31,3.714 C38.338,3.462 38.3846667,3.21233333 38.45,2.965 C38.5153333,2.71766667 38.6063333,2.496 38.723,2.3 C38.8396667,2.104 38.989,1.94533333 39.171,1.824 C39.353,1.70266667 39.5793333,1.642 39.85,1.642 C40.1206667,1.642 40.3493333,1.70266667 40.536,1.824 C40.7226667,1.94533333 40.8766667,2.104 40.998,2.3 C41.1193333,2.496 41.2103333,2.71766667 41.271,2.965 C41.3316667,3.21233333 41.3783333,3.462 41.411,3.714 C41.4436667,3.966 41.4623333,4.211 41.467,4.449 C41.4716667,4.687 41.474,4.89 41.474,5.058 C41.474,5.338 41.4646667,5.67633333 41.446,6.073 C41.4273333,6.46966667 41.369,6.85233333 41.271,7.221 C41.173,7.58966667 41.0143333,7.90466667 40.795,8.166 C40.5756667,8.42733333 40.2606667,8.558 39.85,8.558 Z M44.624,12.31 C44.9226667,12.2633333 45.205,12.177 45.471,12.051 C45.737,11.925 45.968,11.764 46.164,11.568 C46.36,11.372 46.5163333,11.141 46.633,10.875 C46.7496667,10.609 46.808,10.3173333 46.808,10 L46.808,7.844 L44.61,7.844 L44.61,10 L45.618,10 C45.6273333,10.1493333 45.6086667,10.2963333 45.562,10.441 C45.5153333,10.5856667 45.4453333,10.7163333 45.352,10.833 C45.2586667,10.9496667 45.149,11.05 45.023,11.134 C44.897,11.218 44.764,11.274 44.624,11.302 L44.624,12.31 Z M51.526,10.182 C52.0206667,10.182 52.485,10.098 52.919,9.93 C53.353,9.762 53.7356667,9.482 54.067,9.09 C54.3983333,8.698 54.6596667,8.173 54.851,7.515 C55.0423333,6.857 55.138,6.038 55.138,5.058 C55.138,4.106 55.0423333,3.30566667 54.851,2.657 C54.6596667,2.00833333 54.3983333,1.488 54.067,1.096 C53.7356667,0.704 53.353,0.424 52.919,0.256 C52.485,0.088 52.0206667,0.004 51.526,0.004 C51.0406667,0.004 50.581,0.088 50.147,0.256 C49.713,0.424 49.3326667,0.704 49.006,1.096 C48.6793333,1.488 48.4203333,2.00833333 48.229,2.657 C48.0376667,3.30566667 47.942,4.106 47.942,5.058 C47.942,6.038 48.0376667,6.857 48.229,7.515 C48.4203333,8.173 48.6793333,8.698 49.006,9.09 C49.3326667,9.482 49.713,9.762 50.147,9.93 C50.581,10.098 51.0406667,10.182 51.526,10.182 Z M51.526,8.558 C51.1246667,8.558 50.8166667,8.42733333 50.602,8.166 C50.3873333,7.90466667 50.231,7.58966667 50.133,7.221 C50.035,6.85233333 49.9766667,6.46966667 49.958,6.073 C49.9393333,5.67633333 49.93,5.338 49.93,5.058 C49.93,4.89 49.9323333,4.687 49.937,4.449 C49.9416667,4.211 49.958,3.966 49.986,3.714 C50.014,3.462 50.0606667,3.21233333 50.126,2.965 C50.1913333,2.71766667 50.2823333,2.496 50.399,2.3 C50.5156667,2.104 50.665,1.94533333 50.847,1.824 C51.029,1.70266667 51.2553333,1.642 51.526,1.642 C51.7966667,1.642 52.0253333,1.70266667 52.212,1.824 C52.3986667,1.94533333 52.5526667,2.104 52.674,2.3 C52.7953333,2.496 52.8863333,2.71766667 52.947,2.965 C53.0076667,3.21233333 53.0543333,3.462 53.087,3.714 C53.1196667,3.966 53.1383333,4.211 53.143,4.449 C53.1476667,4.687 53.15,4.89 53.15,5.058 C53.15,5.338 53.1406667,5.67633333 53.122,6.073 C53.1033333,6.46966667 53.045,6.85233333 52.947,7.221 C52.849,7.58966667 52.6903333,7.90466667 52.471,8.166 C52.2516667,8.42733333 51.9366667,8.558 51.526,8.558 Z M59.31,10.182 C59.8046667,10.182 60.269,10.098 60.703,9.93 C61.137,9.762 61.5196667,9.482 61.851,9.09 C62.1823333,8.698 62.4436667,8.173 62.635,7.515 C62.8263333,6.857 62.922,6.038 62.922,5.058 C62.922,4.106 62.8263333,3.30566667 62.635,2.657 C62.4436667,2.00833333 62.1823333,1.488 61.851,1.096 C61.5196667,0.704 61.137,0.424 60.703,0.256 C60.269,0.088 59.8046667,0.004 59.31,0.004 C58.8246667,0.004 58.365,0.088 57.931,0.256 C57.497,0.424 57.1166667,0.704 56.79,1.096 C56.4633333,1.488 56.2043333,2.00833333 56.013,2.657 C55.8216667,3.30566667 55.726,4.106 55.726,5.058 C55.726,6.038 55.8216667,6.857 56.013,7.515 C56.2043333,8.173 56.4633333,8.698 56.79,9.09 C57.1166667,9.482 57.497,9.762 57.931,9.93 C58.365,10.098 58.8246667,10.182 59.31,10.182 Z M59.31,8.558 C58.9086667,8.558 58.6006667,8.42733333 58.386,8.166 C58.1713333,7.90466667 58.015,7.58966667 57.917,7.221 C57.819,6.85233333 57.7606667,6.46966667 57.742,6.073 C57.7233333,5.67633333 57.714,5.338 57.714,5.058 C57.714,4.89 57.7163333,4.687 57.721,4.449 C57.7256667,4.211 57.742,3.966 57.77,3.714 C57.798,3.462 57.8446667,3.21233333 57.91,2.965 C57.9753333,2.71766667 58.0663333,2.496 58.183,2.3 C58.2996667,2.104 58.449,1.94533333 58.631,1.824 C58.813,1.70266667 59.0393333,1.642 59.31,1.642 C59.5806667,1.642 59.8093333,1.70266667 59.996,1.824 C60.1826667,1.94533333 60.3366667,2.104 60.458,2.3 C60.5793333,2.496 60.6703333,2.71766667 60.731,2.965 C60.7916667,3.21233333 60.8383333,3.462 60.871,3.714 C60.9036667,3.966 60.9223333,4.211 60.927,4.449 C60.9316667,4.687 60.934,4.89 60.934,5.058 C60.934,5.338 60.9246667,5.67633333 60.906,6.073 C60.8873333,6.46966667 60.829,6.85233333 60.731,7.221 C60.633,7.58966667 60.4743333,7.90466667 60.255,8.166 C60.0356667,8.42733333 59.7206667,8.558 59.31,8.558 Z M67.094,10.182 C67.5886667,10.182 68.053,10.098 68.487,9.93 C68.921,9.762 69.3036667,9.482 69.635,9.09 C69.9663333,8.698 70.2276667,8.173 70.419,7.515 C70.6103333,6.857 70.706,6.038 70.706,5.058 C70.706,4.106 70.6103333,3.30566667 70.419,2.657 C70.2276667,2.00833333 69.9663333,1.488 69.635,1.096 C69.3036667,0.704 68.921,0.424 68.487,0.256 C68.053,0.088 67.5886667,0.004 67.094,0.004 C66.6086667,0.004 66.149,0.088 65.715,0.256 C65.281,0.424 64.9006667,0.704 64.574,1.096 C64.2473333,1.488 63.9883333,2.00833333 63.797,2.657 C63.6056667,3.30566667 63.51,4.106 63.51,5.058 C63.51,6.038 63.6056667,6.857 63.797,7.515 C63.9883333,8.173 64.2473333,8.698 64.574,9.09 C64.9006667,9.482 65.281,9.762 65.715,9.93 C66.149,10.098 66.6086667,10.182 67.094,10.182 Z M67.094,8.558 C66.6926667,8.558 66.3846667,8.42733333 66.17,8.166 C65.9553333,7.90466667 65.799,7.58966667 65.701,7.221 C65.603,6.85233333 65.5446667,6.46966667 65.526,6.073 C65.5073333,5.67633333 65.498,5.338 65.498,5.058 C65.498,4.89 65.5003333,4.687 65.505,4.449 C65.5096667,4.211 65.526,3.966 65.554,3.714 C65.582,3.462 65.6286667,3.21233333 65.694,2.965 C65.7593333,2.71766667 65.8503333,2.496 65.967,2.3 C66.0836667,2.104 66.233,1.94533333 66.415,1.824 C66.597,1.70266667 66.8233333,1.642 67.094,1.642 C67.3646667,1.642 67.5933333,1.70266667 67.78,1.824 C67.9666667,1.94533333 68.1206667,2.104 68.242,2.3 C68.3633333,2.496 68.4543333,2.71766667 68.515,2.965 C68.5756667,3.21233333 68.6223333,3.462 68.655,3.714 C68.6876667,3.966 68.7063333,4.211 68.711,4.449 C68.7156667,4.687 68.718,4.89 68.718,5.058 C68.718,5.338 68.7086667,5.67633333 68.69,6.073 C68.6713333,6.46966667 68.613,6.85233333 68.515,7.221 C68.417,7.58966667 68.2583333,7.90466667 68.039,8.166 C67.8196667,8.42733333 67.5046667,8.558 67.094,8.558 Z" id="16,000,000" fill="#FFFFFF" fill-rule="nonzero"></path>
            <line x1="77" y1="320.5" x2="579" y2="320.5" id="Grid_1" stroke-opacity="0.15" stroke="#000000"></line>
            <line x1="77" y1="241.5" x2="579" y2="241.5" id="Grid_3" stroke-opacity="0.15" stroke="#000000"></line>
            <line x1="77" y1="162.5" x2="579" y2="162.5" id="Grid_5" stroke-opacity="0.15" stroke="#000000"></line>
            <line x1="77" y1="83.5" x2="579" y2="83.5" id="Grid_7" stroke-opacity="0.15" stroke="#000000"></line>
            <line x1="77" y1="5.5" x2="579" y2="5.5" id="Grid_9" stroke-opacity="0.15" stroke="#000000"></line>
            <path d="M97,320 L97,244 C97,239.581722 100.581722,236 105,236 L149,236 C153.418278,236 157,239.581722 157,244 L157,320 L157,320 L97,320 Z" id="Bar_1_1" fill="#FFBF00"></path>
            <path d="M198,320 L198,203 C198,198.581722 201.581722,195 206,195 L250,195 C254.418278,195 258,198.581722 258,203 L258,320 L258,320 L198,320 Z" id="Bar_1_2" fill="#FFBF00"></path>
            <path d="M298,320 L298,170 C298,165.581722 301.581722,162 306,162 L349,162 C353.418278,162 357,165.581722 357,170 L357,320 L357,320 L298,320 Z" id="Bar_1_3" fill="#FFBF00"></path>
            <path d="M398,320 L398,114 C398,109.581722 401.581722,106 406,106 L450,106 C454.418278,106 458,109.581722 458,114 L458,320 L458,320 L398,320 Z" id="Bar_1_4" fill="#FFBF00"></path>
            <path d="M499,320 L499,44 C499,39.581722 502.581722,36 507,36 L551,36 C555.418278,36 559,39.581722 559,44 L559,320 L559,320 L499,320 Z" id="Bar_1_5" fill="#FFBF00"></path>
        </g>
    </g>
</svg>