<?xml version="1.0" encoding="UTF-8"?>
<svg width="88px" height="88px" viewBox="0 0 88 88" version="1.1" xmlns="http://www.w3.org/2000/svg" xmlns:xlink="http://www.w3.org/1999/xlink">
    <title>ScratchJr Command</title>
    <g id="ScratchJr-Command" stroke="none" stroke-width="1" fill="none" fill-rule="evenodd">
        <g id="Horizontal/Block/Command" transform="translate(44.000000, 44.000000) rotate(14.000000) translate(-44.000000, -44.000000) translate(8.000000, 12.000000)" fill="#FFBF00">
            <path d="M0,49.6568542 C0,48.5959883 0.421427361,47.5785726 1.17157288,46.8284271 L1.17157288,46.8284271 L6.82842712,41.1715729 C7.57857264,40.4214274 8,39.4040117 8,38.3431458 L8,38.3431458 L8,25.6568542 C8,24.5959883 7.57857264,23.5785726 6.82842712,22.8284271 L6.82842712,22.8284271 L1.17157288,17.1715729 C0.421427361,16.4214274 0,15.4040117 0,14.3431458 L0,14.3431458 L0,4 C-2.705415e-16,1.790861 1.790861,4.05812251e-16 4,0 L60,0 C62.209139,-4.05812251e-16 64,1.790861 64,4 L64,14.375 L64.0064166,14.5697275 C64.061881,15.5479932 64.4750092,16.4750092 65.1715729,17.1715729 L70.8284271,22.8284271 C71.5785726,23.5785726 72,24.5959883 72,25.6568542 L72,38.3431458 C72,39.4040117 71.5785726,40.4214274 70.8284271,41.1715729 L65.1715729,46.8284271 C64.4290142,47.5709858 64.0085581,48.5754358 64.0001292,49.6246797 L64,60 C64,62.209139 62.209139,64 60,64 L4,64 C1.790861,64 2.705415e-16,62.209139 0,60 Z" id="Command"></path>
        </g>
    </g>
</svg>