<?xml version="1.0" encoding="UTF-8"?>
<svg width="200px" height="55px" viewBox="0 0 200 55" version="1.1" xmlns="http://www.w3.org/2000/svg" xmlns:xlink="http://www.w3.org/1999/xlink">
    <title>ScratchJr Logo</title>
    <defs>
        <polygon id="path-1" points="1.177346e-05 0.374407583 199.067109 0.374407583 199.067109 54.0279621 1.177346e-05 54.0279621"></polygon>
    </defs>
    <g id="ScratchJr-Logo" stroke="none" stroke-width="1" fill="none" fill-rule="evenodd">
        <g id="Logo" transform="translate(0.000000, -0.000000)">
            <g id="Group-3" transform="translate(0.000000, 0.573934)">
                <mask id="mask-2" fill="white">
                    <use xlink:href="#path-1"></use>
                </mask>
                <g id="Clip-2"></g>
                <path d="M172.239621,0.373933649 C166.058578,0.373933649 160.371374,2.46966825 155.834882,5.98151659 C154.437725,4.58720379 152.127773,2.69146919 149.800758,2.58056872 C148.987488,2.54170616 147.610237,2.52274882 145.708815,2.52274882 C142.505972,2.52274882 138.835829,2.57677725 138.79981,2.57867299 L138.535355,2.58246445 L138.283223,2.65829384 C137.648152,2.84881517 134.730616,3.78056872 132.93346,5.29810427 L125.983697,5.29810427 C124.194123,5.29810427 121.689858,6.87535545 117.696493,9.78625592 C117.544834,9.8971564 117.389384,10.0099526 117.238673,10.1189573 C117.026351,9.88957346 116.796967,9.62701422 116.602654,9.40236967 C115.316398,7.92938389 113.71545,6.0971564 111.764739,5.60900474 L111.537251,5.5521327 L86.8225592,5.5521327 C85.4642654,4.29905213 82.3893839,1.75592417 79.796019,1.75592417 C79.517346,1.75592417 79.1505213,1.73791469 78.7116588,1.71611374 C77.9865403,1.68293839 77.0822749,1.63933649 76.0500474,1.63933649 C69.7761137,1.63933649 65.0538389,3.392891 62.0111848,6.85165877 C61.7950711,7.02322275 61.7126066,7.02322275 61.6017062,7.02322275 C61.3107109,7.02322275 60.816872,6.91611374 60.2453081,6.79383886 C58.9685308,6.51990521 57.0405687,6.1056872 54.0557346,6.1056872 L44.2405687,6.16540284 L43.8073934,6.41563981 C42.6254028,7.0943128 36.7145024,10.556872 34.8092891,12.9957346 C34.6917536,13.0241706 34.2604739,13.0421801 33.8709005,12.9872038 C33.2699526,9.06966825 30.5751659,3.49526066 23.2936493,3.49526066 C20.1182938,3.49526066 17.8604739,4.69052133 16.7306161,5.46682464 C16.3732701,5.42227488 15.9325118,5.38720379 15.424455,5.38720379 C12.5846445,5.38720379 5.6149763,6.59194313 2.2121327,17.7464455 L2.12872038,18.0184834 L2.12872038,27.1578199 C1.36473934,28.1834123 0.122085308,30.350237 0.042464455,33.7255924 C-0.0257819905,36.6203791 0.00360189573,38.9625592 0.0254028436,40.671564 C0.032985782,41.3398104 0.042464455,41.9170616 0.042464455,42.4080569 C0.042464455,47.8971564 6.04246445,53.7009479 11.7145024,53.7009479 L11.9562085,53.7009479 L12.1903318,53.6412322 C12.3704265,53.5938389 16.6329858,52.4744076 19.4945972,50.2706161 C20.1325118,49.7777251 20.8699526,49.5274882 21.6803791,49.5274882 C22.4453081,49.5274882 23.0130806,49.7483412 23.0130806,49.7483412 L23.9628436,50.1587678 L24.8746919,49.5521327 C26.9704265,50.956872 31.6481517,53.7009479 36.2017062,53.7009479 C40.303128,53.7009479 43.3182938,52.0545024 45.1201896,51.0696682 C45.5410427,50.8402844 46.0566825,50.5587678 46.2898578,50.4734597 C48.3107109,50.4706161 54.1694787,50.3663507 56.802654,49.3436019 C56.974218,49.435545 57.2216114,49.5947867 57.4187678,49.7189573 C58.7524171,50.564455 60.9780095,51.9767773 65.2623697,51.9938389 C65.3618957,51.9995261 65.5268246,52.0080569 65.7495735,52.0080569 C67.5448341,52.0080569 73.4225592,51.463981 77.1704265,44.8260664 C79.0320379,45.5473934 81.03109,45.7066351 81.2927014,45.7255924 L84.7912796,45.7293839 C85.8092891,47.4175355 88.131564,50.3322275 92.0225592,50.3322275 L105.889858,50.3322275 L106.261422,50.1654028 C107.229194,49.7312796 107.932512,49.3170616 108.443412,48.9388626 C109.795071,49.9540284 111.960948,51.5189573 114.357156,51.5189573 L122.542938,51.5189573 L122.834882,51.421327 C123.436777,51.2203791 124.759052,50.756872 125.653839,50.2753555 C125.918294,50.257346 126.423507,50.2383886 127.350521,50.2383886 C128.684171,50.2383886 130.2709,50.2772512 131.214976,50.3056872 C132.334408,51.5236967 134.692701,53.7009479 137.229194,53.7009479 C140.196967,53.7009479 143.340095,53.5672986 146.211185,52.5881517 C146.792227,52.3900474 147.579905,52.3322275 148.414976,52.2696682 C150.672796,52.1037915 153.692701,51.8725118 156.264265,48.7540284 C160.727773,52.0658768 166.253839,54.0279621 172.239621,54.0279621 C187.055735,54.0279621 199.067109,42.0175355 199.067109,27.2014218 C199.067109,12.3853081 187.055735,0.373933649 172.239621,0.373933649" id="Fill-1" fill="#2BA4D9" mask="url(#mask-2)"></path>
            </g>
            <path d="M172.216493,4.36909953 C165.727393,4.36909953 159.856303,7.01080569 155.616493,11.2762085 L151.972891,8.19184834 L151.864834,8.10654028 L151.78237,8.22028436 C150.991848,7.60890995 150.199431,7.15014218 149.620284,7.12170616 C148.865782,7.08663507 147.550142,7.06862559 145.708436,7.06862559 C143.04019,7.06862559 140.04019,7.10748815 139.131185,7.11981043 C137.799431,7.55203791 135.770995,8.4363981 135.155829,9.16720379 L134.588057,9.84492891 L125.984265,9.84492891 C124.916967,9.97099526 121.165308,12.7055924 119.932133,13.6032227 C119.016493,14.2714692 118.562464,14.601327 118.229763,14.7823697 C117.903697,14.9624645 117.532133,15.0563033 117.157725,15.0563033 C115.844929,15.0563033 114.962464,14.0477725 113.742559,12.6487204 C113.007962,11.8079621 111.812701,10.4382938 111.009858,10.0989573 L85.2724171,10.0989573 L84.7169668,9.54161137 C83.1482464,7.97763033 80.7946919,6.30180095 79.7956398,6.30180095 C79.4724171,6.30180095 79.043981,6.28189573 78.5321327,6.25725118 C77.8468246,6.22597156 76.9918483,6.18616114 76.0496682,6.18616114 C70.7861611,6.18616114 67.1027488,7.49800948 64.7842654,10.1946919 L64.5880569,10.3927962 C63.6648341,11.1946919 62.7150711,11.5690995 61.6022749,11.5690995 C60.9065403,11.5690995 60.2307109,11.423128 59.4468246,11.2544076 C58.2600948,11.0003791 56.6363981,10.6525118 54.0676777,10.6525118 L45.2686256,10.7065403 C42.7207583,12.2022749 38.7700474,14.7757346 37.8003791,16.08 C37.3292891,16.7454028 36.3378199,17.5776303 34.4345024,17.5776303 C32.9937441,17.5776303 31.6145972,17.0932701 31.4610427,17.037346 L30.2411374,16.5956398 L30.2098578,15.2989573 C30.1852133,14.5643602 29.7833175,8.04208531 23.294218,8.04208531 C20.2771564,8.04208531 18.587109,9.55298578 18.5169668,9.61744076 L17.7387678,10.3283412 L16.7065403,10.0581991 C16.7055924,10.0581991 16.2003791,9.93402844 15.4240758,9.93402844 C12.9738389,9.93402844 8.50654028,11.1634123 5.92549763,19.3387678 L5.92549763,29.3965877 L5.35109005,29.9577251 C5.31317536,29.9975355 3.91127962,31.4866351 3.83734597,34.5653081 C3.77099526,37.3909005 3.80037915,39.6923223 3.82123223,41.372891 C3.83165877,42.0591469 3.83734597,42.6544076 3.83734597,43.1577251 C3.83734597,46.516019 7.92265403,50.4781043 11.4781043,50.6487204 C12.3273934,50.4032227 15.2686256,49.4828436 17.1766825,48.0127014 C18.4771564,47.0098578 20.0335545,46.4809479 21.6809479,46.4809479 C22.3709953,46.4809479 22.9804739,46.5738389 23.4581991,46.6837915 L24.9909005,45.6610427 L26.0695735,46.4961137 C26.122654,46.5359242 31.5188626,50.6553555 36.2022749,50.6553555 C39.3349763,50.6553555 41.6269194,49.4041706 43.2999052,48.4885308 C44.4278673,47.8724171 45.2420853,47.4288152 46.1662559,47.4288152 C49.8818957,47.4288152 54.5188626,47.0648341 55.5018009,46.5236019 L55.6961137,46.4174408 L55.908436,46.358673 C56.1918483,46.28 56.48,46.2401896 56.7700474,46.2401896 C57.8411374,46.2401896 58.6600948,46.7605687 59.4525118,47.2629384 C60.6354502,48.0136493 62.1074882,48.9463507 65.3378199,48.9463507 L65.5217062,48.9558294 C65.5340284,48.9558294 65.6193365,48.9615166 65.7501422,48.9615166 C67.0875829,48.9615166 71.6638863,48.508436 74.3927962,42.6856872 C74.7615166,41.9008531 75.5909005,41.4335545 76.6098578,41.4335545 C76.9501422,41.4335545 77.4563033,41.4894787 77.9283412,41.7520379 C79.0250237,42.3672038 80.8183886,42.6259716 81.4980095,42.6828436 L87.1946919,42.6828436 L87.6828436,43.8468246 C87.694218,43.8724171 89.1994313,47.2856872 92.023128,47.2856872 L105.056303,47.2856872 C105.594692,47.0174408 106.131185,46.6951659 106.359621,46.5027488 C106.703697,45.8193365 107.397536,45.3814218 108.180474,45.3814218 C109.032607,45.3814218 109.647773,45.843981 110.579526,46.5454028 C111.536872,47.265782 113.140664,48.4724171 114.356777,48.4724171 L121.91981,48.4724171 C122.801327,48.1643602 123.699905,47.7946919 123.934976,47.6354502 L124.25346,47.423128 L124.670521,47.3207583 C124.999431,47.2563033 125.573839,47.1918483 127.350142,47.1918483 C129.454408,47.1918483 132.062938,47.2837915 132.172891,47.2866351 L133.041137,47.3179147 L133.585213,47.9956398 C134.485687,49.108436 136.256303,50.6553555 137.229763,50.6553555 C139.007962,50.6553555 142.314123,50.6553555 144.985213,49.744455 C146.028815,49.3890047 147.099905,49.3112796 148.135924,49.2335545 C150.18237,49.0837915 151.834502,48.9558294 153.386161,47.0316588 C153.383318,47.0288152 153.381422,47.0259716 153.378578,47.023128 L153.594692,46.7747867 L155.457251,44.1074882 C159.709384,48.4686256 165.643981,51.1814218 172.216493,51.1814218 C174.451564,51.1814218 176.612701,50.8676777 178.660095,50.2818957 C186.638294,48.0022749 192.874313,41.5946919 194.910332,33.516019 C195.375735,31.6790521 195.621232,29.7558294 195.621232,27.7747867 C195.621232,14.8487204 185.143507,4.36909953 172.216493,4.36909953" id="Fill-4" fill="#FEFEFE"></path>
            <path d="M169.501611,19.1494787 L169.509194,19.1058768 L169.481706,19.004455 C169.160379,17.8082464 168.89782,17.4850237 167.668436,17.4850237 L164.068436,17.4850237 C163.56891,17.4850237 163.006825,17.5390521 162.620095,17.9409479 C162.348057,18.2243602 162.219147,18.6290995 162.239052,19.1466351 C162.267488,19.8878673 162.60872,20.7712796 164.068436,20.7712796 L166.71109,20.7712796 C166.998294,22.7295735 167.321517,26.3580095 167.40019,29.754218 C167.458957,32.2622749 166.98218,35.4954502 165.469384,37.0433175 C164.872227,37.6546919 164.177441,37.9513744 163.346161,37.9513744 C161.974597,37.9513744 161.67128,37.01109 161.548057,35.9940284 C161.53763,35.9020853 161.528152,35.8272038 161.517725,35.7741232 C161.288341,34.5873934 160.685498,34.01109 159.777441,34.0745972 C159.292133,34.103981 158.88455,34.2954502 158.601137,34.6290995 C158.281706,35.004455 158.146161,35.5295735 158.20872,36.1475829 L158.222938,36.3049289 C158.319621,37.4395261 158.616303,40.8935545 163.301611,40.8935545 C164.967014,40.8935545 166.417251,40.2708057 167.61346,39.0404739 C169.827678,36.7636967 170.532891,33.0603791 170.464645,30.5817062 C170.349953,26.3864455 169.952796,20.9722275 169.501611,19.1494787" id="Fill-6" fill="#F9A738"></path>
            <path d="M164.736303,16.9227488 C164.941991,16.9672986 165.157156,16.9900474 165.378957,16.9900474 C165.835829,16.9900474 166.31545,16.8943128 166.777062,16.7056872 C167.461422,16.4270142 168.033934,15.9748815 168.388436,15.4336493 C168.778957,14.8364929 168.867109,14.2004739 168.638673,13.6412322 C168.187488,12.5341232 166.661422,12.1436019 165.163791,12.7540284 C164.480379,13.0327014 163.909763,13.485782 163.555261,14.0270142 C163.170427,14.6156398 163.079431,15.2687204 163.304076,15.8184834 C163.52872,16.3691943 164.050047,16.7720379 164.736303,16.9227488" id="Fill-8" fill="#F9A738"></path>
            <path d="M188.59128,21.910237 C188.519242,21.5623697 187.945782,19.4998104 184.541991,19.4998104 C182.632986,19.4998104 181.297441,20.116872 180.514502,20.6040758 C180.267109,19.924455 179.606445,19.4571564 178.833934,19.502654 L174.47564,19.7737441 C173.556209,19.831564 172.852891,20.6277725 172.907867,21.5509953 C172.966635,22.4723223 173.751469,23.167109 174.684171,23.1197156 L177.218768,22.9614218 L177.436777,32.7036019 L176.564739,32.7301422 C176.122085,32.7453081 175.710711,32.93109 175.408341,33.2543128 C175.104076,33.5775355 174.945782,33.9993365 174.959052,34.4400948 C174.972322,34.8846445 175.157156,35.296019 175.480379,35.5993365 C175.790332,35.8912796 176.19128,36.0495735 176.612133,36.0495735 C176.632038,36.0495735 176.650047,36.0486256 176.669953,36.0486256 L182.551469,35.8656872 C182.995071,35.8514692 183.406445,35.6656872 183.710711,35.3415166 C184.014028,35.0182938 184.17327,34.595545 184.159052,34.152891 C184.131564,33.2381991 183.358104,32.5434123 182.448152,32.5462559 L181.145782,32.5870142 L180.801706,25.1908057 C181.408341,23.4704265 183.238673,22.6533649 184.363791,22.6230332 C184.905972,22.5699526 185.149573,22.9358294 185.484171,23.516872 C185.811185,24.0893839 186.299336,24.9547867 187.521137,24.6059716 C187.972322,24.4770616 188.318294,24.2050237 188.521137,23.8182938 C188.916398,23.0656872 188.65763,22.1235071 188.59128,21.910237" id="Fill-10" fill="#F9A738"></path>
            <path d="M17.9927962,27.1734597 C17.829763,27.1393365 17.7093839,27.1146919 17.6420853,27.0957346 C15.7615166,26.5810427 15.3994313,25.8511848 15.294218,25.2748815 C15.2212322,24.8625592 15.3122275,21.0473934 15.4079621,20.5270142 C15.4591469,20.2511848 15.6781043,19.3222749 16.3406635,18.9943128 C16.8070142,18.7630332 17.4449289,18.8483412 18.2401896,19.2511848 C20.68,20.4853081 20.7103318,23.0303318 20.7245498,24.2530806 C20.7264455,24.4009479 20.7283412,24.5308057 20.7330806,24.6379147 C20.7956398,26.042654 21.6600948,26.8473934 23.1046445,26.8473934 C24.4572512,26.8473934 24.9150711,25.8218009 24.9700474,25.2559242 L25.4790521,14.3222749 L25.4714692,14.2720379 C25.3814218,13.7469194 24.8117536,12.7535545 23.294218,12.7535545 C21.7482464,12.7535545 21.2534597,13.7725118 21.2070142,14.3516588 L21.2070142,16.0521327 C20.4079621,15.3222749 18.972891,14.557346 16.4600948,14.557346 C14.330237,14.557346 11.7150711,15.5317536 11.3491943,20.1725118 L11.3378199,20.3052133 C11.243981,21.3867299 11.20891,25.5336493 11.3766825,27.1469194 C11.6724171,29.9886256 14.3169668,30.6369668 15.4458768,30.9137441 C17.0108057,31.2995261 18.7558294,31.7753555 19.9359242,32.0976303 L20.9899526,32.3838863 C21.8667299,32.614218 22.772891,32.8521327 22.772891,34.7241706 C22.772891,36.9876777 21.1548815,38.2853081 18.3349763,38.2853081 C15.1842654,38.2853081 13.8506161,36.042654 13.8506161,35.1516588 L13.851564,34.9374408 C13.8581991,33.5734597 13.8733649,30.7345972 11.9861611,30.5971564 C11.3577251,30.5535545 10.8316588,30.7165877 10.4335545,31.0872038 C9.74540284,31.7260664 9.7236019,32.7156398 9.72265403,32.8274882 L9.72265403,43.5981043 C9.72265403,44.5943128 10.8563033,45.2104265 11.9055924,45.2104265 C12.9681517,45.2104265 13.708436,44.4530806 13.708436,43.7744076 C13.708436,43.5203791 13.694218,42.0123223 13.6847393,41.036019 C14.9236019,41.6549763 17.1918483,42.4597156 18.8335545,42.4597156 C22.5766825,42.4597156 26.9472986,40.3345972 26.9472986,34.3450237 C26.9472986,30.8454976 23.9349763,28.4322275 17.9927962,27.1734597" id="Fill-12" fill="#F9A738"></path>
            <path d="M42.94,33.0162085 C41.5390521,33.0162085 41.1693839,34.3403791 41.1693839,35.0418009 L41.1693839,38.0124171 C41.1674882,38.1508057 41.0850237,41.4010427 36.6129858,41.4010427 C34.6774408,41.4010427 33.3513744,40.8256872 32.6717536,39.6920379 C32.1191469,38.7678673 32.1191469,37.7081517 32.1200948,37.1612322 L32.1181991,29.0228436 C32.1286256,28.9034123 32.3987678,26.1185782 35.2205687,26.1185782 C37.94,26.1185782 38.8878673,27.7204739 39.5807583,28.89109 L39.8423697,29.3299526 C40.0622749,29.7157346 40.5210427,30.5166825 41.7058768,30.5166825 C42.6148815,30.5166825 43.6992417,30.127109 43.6992417,28.2711848 L43.6945024,21.6266351 C43.6101422,21.0029384 43.0850237,19.8237915 41.7058768,19.8237915 C40.3238863,19.8237915 39.8006635,21.0901422 39.7144076,21.8181043 L39.7144076,23.4550711 C38.8935545,22.7242654 37.4234123,21.912891 34.9362085,21.912891 C30.3068246,21.912891 28.1978199,25.405782 28.1978199,28.6512796 L28.1978199,37.9830332 C28.1978199,40.4835071 29.8575355,45.2105213 36.1381043,45.2105213 C42.7892891,45.2105213 45.0272038,40.6171564 45.0272038,38.5214218 L45.0272038,35.1356398 C45.0272038,33.7887204 44.2660664,33.0162085 42.94,33.0162085" id="Fill-14" fill="#F9A738"></path>
            <path d="M60.3080569,21.295545 C60.3080569,23.9201896 55.3763033,25.1780095 52.9042654,25.5372512 L52.9042654,19.6187678 C54.7867299,19.4832227 58.7241706,19.4490995 59.9658768,20.5751659 C60.1990521,20.7874882 60.3080569,21.0159242 60.3080569,21.295545 M68.042654,36.3363033 L67.9232227,36.3344076 C67.5270142,36.3306161 66.856872,36.3116588 66.3886256,36.7685308 C66.1014218,37.0500474 65.9554502,37.4481517 65.9554502,37.9514692 C65.9554502,38.5306161 65.8388626,38.9268246 65.6104265,39.1277725 C65.4123223,39.303128 65.0815166,39.3618957 64.642654,39.3088152 C63.0473934,39.0936493 63.0540284,34.3780095 63.0597156,31.2576303 L63.0597156,30.6908057 C63.0597156,29.1552607 62.5668246,27.9656872 61.5507109,27.1211374 C61.8890995,26.9381991 62.242654,26.6595261 62.5924171,26.2936493 C63.6682464,25.1675829 64.7810427,23.1192417 64.6729858,20.7514692 C64.4796209,16.5780095 59.5838863,15.652891 57.0331754,15.7448341 L46.9184834,15.7448341 C46.1658768,15.7581043 44.743128,16.188436 44.743128,17.7211374 C44.743128,19.2348815 46.1374408,19.7258768 46.9061611,19.7751659 L48.6824645,19.7751659 L48.6824645,25.9694787 C47.4151659,26.1002844 46.878673,26.7486256 46.6635071,27.1514692 C46.3099526,27.8159242 46.3696682,28.6718483 46.814218,29.3325118 C47.250237,29.9789573 47.9630332,30.3192417 48.6796209,30.2405687 C48.7526066,30.2405687 48.8161137,30.2396209 48.8872038,30.2377251 L48.8872038,37.9334597 L46.743128,38.1732701 C45.6104265,38.2974408 45.157346,39.0680569 45.3165877,40.5941232 C45.3933649,41.3353555 45.7364929,41.7268246 46.0104265,41.9249289 C46.6407583,42.3808531 47.4151659,42.2301422 47.4398104,42.2197156 C47.743128,42.1950711 54.8729858,41.602654 56.1004739,41.2794313 C57.0037915,41.0415166 57.2947867,39.931564 57.1156398,38.9581043 C56.9080569,37.8254028 56.1734597,37.131564 55.2862559,37.2235071 L52.9042654,37.4851185 L52.9042654,29.6595261 L53.1507109,29.6121327 C54.7943128,29.2974408 56.4957346,28.9694787 57.5080569,29.0083412 C58.1706161,29.03109 58.3971564,29.3562085 58.5327014,29.6718483 C59.1819905,31.1732701 59.2274882,34.723981 59.2521327,36.63109 L59.264455,37.4396209 C59.2976303,38.9296682 59.8018957,43.7874882 64.9099526,43.7874882 C69.7876777,43.7874882 70.0350711,39.202654 70.0350711,38.2832227 C70.0350711,36.8547867 68.8436019,36.3363033 68.042654,36.3363033" id="Fill-16" fill="#F9A738"></path>
            <path d="M126.14218,33.7122275 C126.14218,32.3653081 125.381043,31.5937441 124.054976,31.5937441 C122.654028,31.5937441 122.28436,32.9179147 122.28436,33.6174408 L122.28436,36.5880569 C122.282464,36.7273934 122.2,39.9766825 117.726066,39.9766825 C115.791469,39.9766825 114.465403,39.4022749 113.78673,38.2686256 C113.233175,37.3454028 113.234123,36.2847393 113.235071,35.7378199 L113.233175,27.6003791 C113.243602,27.4809479 113.513744,24.694218 116.334597,24.694218 C119.054976,24.694218 120.002844,26.2989573 120.695735,27.4695735 L120.956398,27.9065403 C121.176303,28.2913744 121.634123,29.0932701 122.820853,29.0932701 C123.729858,29.0932701 124.81327,28.7036967 124.81327,26.8477725 L124.808531,20.2032227 C124.723223,19.5795261 124.198104,18.4022749 122.820853,18.4022749 C121.438863,18.4022749 120.91564,19.6667299 120.829384,20.3937441 L120.829384,22.0307109 C120.008531,21.2989573 118.538389,20.4885308 116.051185,20.4885308 C111.421801,20.4885308 109.312796,23.9814218 109.312796,27.2269194 L109.312796,36.5596209 C109.312796,39.0600948 110.972512,43.787109 117.252133,43.787109 C123.903318,43.787109 126.14218,39.1927962 126.14218,37.0970616 L126.14218,33.7122275 Z" id="Fill-18" fill="#F9A738"></path>
            <path d="M80.4016114,26.5800948 L76.6651185,26.9033175 L78.0063507,21.4635071 L80.4016114,26.5800948 Z M92.1636967,30.9004739 C91.5703318,29.6274882 90.6347867,29.250237 90.0129858,29.5393365 L87.2651185,30.8208531 L79.4366825,13.32891 C79.4148815,11.8530806 78.7561137,11.1800948 78.1428436,11.1800948 C77.7570616,11.1819905 69.6603791,11.2075829 69.5817062,11.2151659 C69.525782,11.2246445 68.2016114,11.4729858 68.2091943,13.4274882 C68.2139336,15.32891 69.2016114,15.6018957 69.3144076,15.6265403 L69.3655924,15.6379147 L74.5390521,15.6208531 L71.3940284,31.957346 L66.3618009,31.9620853 C65.8442654,32.0369668 64.8641706,32.5791469 64.8641706,34.0995261 C64.8641706,35.9800948 66.0054028,36.2246445 66.1447393,36.242654 L75.968436,36.242654 C76.5655924,36.242654 77.2016114,35.4909953 77.2016114,34.0995261 C77.2016114,32.692891 76.5096682,31.957346 75.8253081,31.957346 L75.4177251,31.957346 L75.6869194,30.8672986 L81.9030332,29.7905213 L83.2603791,32.6890995 L81.4366825,33.5440758 C80.9987678,33.8303318 80.3409479,34.7364929 80.9836019,36.1137441 C81.5627488,37.3554502 82.3219905,37.5535545 82.7437915,37.5535545 C82.9011374,37.5535545 83.01109,37.5260664 83.0480569,37.5146919 L91.954218,33.3620853 C92.4935545,33.1090047 92.7504265,32.1601896 92.1636967,30.9004739 L92.1636967,30.9004739 Z" id="Fill-20" fill="#F9A738"></path>
            <path d="M109.880379,22.7136493 L109.890806,22.3790521 C109.918294,21.5743128 109.99128,19.4349763 109.99128,17.2615166 C109.99128,16.2529858 109.730616,15.5060664 109.216872,15.0406635 C108.681327,14.5572512 108.071848,14.5648341 107.92872,14.5743128 L88.0908057,14.9496682 C87.3277725,14.9638863 86.9021801,15.2994313 86.6803791,15.5790521 C86.0784834,16.3354502 86.2898578,17.4472986 86.309763,17.5382938 C86.3476777,17.8131754 87.224455,24.2852133 87.4320379,25.1980095 C87.7088152,26.408436 88.4945972,26.8605687 90.0614218,26.7022749 C90.7770616,26.6311848 91.1410427,26.301327 91.3201896,26.0378199 C91.7268246,25.4378199 91.5372512,24.7117536 91.5296682,24.7117536 L90.9637915,19.0472986 L96.1836967,18.8738389 L96.1836967,38.0472986 L93.6595261,38.0472986 C92.495545,38.0472986 91.5486256,38.994218 91.5486256,40.1572512 C91.5486256,41.3221801 92.495545,42.2690995 93.6595261,42.2690995 L102.8491,42.2690995 C104.014028,42.2690995 104.961896,41.3221801 104.961896,40.1572512 C104.961896,38.994218 104.014028,38.0472986 102.8491,38.0472986 L100.723033,38.0472986 L100.521137,18.7288152 L105.628246,18.5591469 C105.632986,19.5837915 105.642464,21.9174408 105.642464,22.5051185 C105.642464,22.8709953 105.780853,23.2018009 106.040569,23.4605687 C106.420664,23.8378199 107.05763,24.0529858 107.792227,24.0529858 L107.814028,24.0529858 C109.032986,24.044455 109.866161,23.3534597 109.880379,22.7136493" id="Fill-22" fill="#F9A738"></path>
            <path d="M148.91327,40.4927014 C148.536019,40.2036019 148.077251,40.0794313 147.625118,40.1363033 L146.274408,40.3126066 L145.981517,16.0263507 L147.93981,16.0263507 C148.933175,16.0263507 149.740758,15.1334597 149.740758,14.0348815 C149.740758,12.9363033 148.933175,12.0424645 147.93981,12.0424645 L139.840284,12.0424645 C138.845972,12.0424645 138.036493,12.9363033 138.036493,14.0348815 C138.036493,15.1334597 138.845972,16.0263507 139.840284,16.0263507 L141.882938,16.0263507 L141.908531,25.6803791 L133.659242,27.2927014 L133.752133,18.6851185 L135.917062,18.6851185 C136.911374,18.6851185 137.718957,17.8765877 137.718957,16.8822749 C137.718957,15.8879621 136.911374,15.0784834 135.917062,15.0784834 L127.818483,15.0784834 C126.824171,15.0784834 126.016588,15.8879621 126.016588,16.8822749 C126.016588,17.8765877 126.824171,18.6851185 127.818483,18.6851185 L129.733175,18.6851185 L129.733175,38.3979147 L127.574882,38.4235071 C126.57109,38.4367773 125.763507,39.3391469 125.77569,40.4377251 C125.782464,40.9950711 126.003318,41.5296682 126.38436,41.9002844 C126.720853,42.2291943 127.152133,42.4083412 127.603318,42.4083412 L127.624171,42.4083412 L135.85545,42.309763 C136.861137,42.2964929 137.669668,41.3941232 137.657346,40.295545 C137.64218,39.2054976 136.824171,38.3258768 135.82891,38.3258768 L135.808057,38.3258768 L133.541706,38.3533649 L133.613744,31.5912796 L141.920853,29.988436 L141.949289,40.8775355 L139.461137,41.202654 C138.464929,41.3325118 137.768246,42.3249289 137.909479,43.4159242 C138.043128,44.424455 138.849763,45.1685308 139.760664,45.1685308 C139.831754,45.1685308 139.904739,45.1637915 139.976777,45.1543128 L148.141706,44.0879621 C149.137915,43.9562085 149.833649,42.9637915 149.691469,41.8746919 C149.619431,41.3211374 149.335071,40.8178199 148.91327,40.4927014" id="Fill-24" fill="#F9A738"></path>
            <path d="M183.166066,39.5660664 L178.855166,39.8655924 C178.650427,39.8655924 178.40872,39.8655924 178.14237,39.8636967 C176.806825,39.8513744 174.770806,39.7452133 172.780284,38.9423697 C172.58218,38.8627488 171.896872,39.0276777 171.752796,39.1935545 C166.691185,44.9774408 161.938578,44.4381043 161.938578,44.4381043 C159.217251,44.4381043 153.902559,41.1783886 153.997346,36.1490047 C154.093081,31.118673 157.06654,30.3594313 159.597346,30.2646445 C161.180284,30.2058768 162.043791,30.7888152 162.470332,31.2343128 C162.726256,31.5016114 162.963223,31.7632227 163.021991,31.068436 C163.06654,30.5670142 163.069384,29.6798104 162.949953,28.1139336 C162.665592,24.3802844 161.685498,23.4949763 161.685498,23.4949763 C160.640948,22.8618009 157.445687,22.5452133 158.078863,16.4077725 C158.787867,9.532891 164.721517,8.81630332 164.721517,8.81630332 C171.560379,8.26748815 172.24,13.383128 172.24,15.1907109 C172.24,15.7745972 172.836209,15.7850237 172.836209,15.7850237 L185.238104,15.332891 C187.609668,15.332891 191.739526,17.9584834 191.739526,22.4191469 C191.739526,27.7347867 186.712986,28.1338389 184.528152,28.0599052 C183.864645,28.0381043 183.913934,28.1499526 184.290237,28.4229384 C185.203033,29.0892891 186.665592,30.5082464 187.184076,32.6324171 C187.303507,33.1234123 187.372701,33.6532701 187.372701,34.2191469 C187.372701,38.2381043 183.166066,39.5660664 183.166066,39.5660664 M172.216303,4.36890995 C159.290237,4.36890995 148.810616,14.8485308 148.810616,27.775545 C148.810616,40.7025592 159.290237,51.1812322 172.216303,51.1812322 C174.452322,51.1812322 176.612512,50.8674882 178.659905,50.282654 C186.638104,48.0020853 192.874123,41.5954502 194.91109,33.5158294 C195.375545,31.6798104 195.621991,29.7556398 195.621991,27.775545 C195.621991,14.8485308 185.143318,4.36890995 172.216303,4.36890995" id="Fill-26" fill="#F9A738"></path>
            <path d="M183.166066,39.5660664 L178.855166,39.8655924 C178.650427,39.8655924 178.40872,39.8655924 178.14237,39.8636967 C176.806825,39.8513744 174.770806,39.7452133 172.780284,38.9423697 C172.58218,38.8627488 171.896872,39.0276777 171.752796,39.1935545 C166.691185,44.9774408 161.938578,44.4381043 161.938578,44.4381043 C159.217251,44.4381043 153.902559,41.1783886 153.997346,36.1490047 C154.093081,31.118673 157.06654,30.3594313 159.597346,30.2646445 C161.180284,30.2058768 162.043791,30.7888152 162.470332,31.2343128 C162.726256,31.5016114 162.963223,31.7632227 163.021991,31.068436 C163.06654,30.5670142 163.069384,29.6798104 162.949953,28.1139336 C162.665592,24.3802844 161.685498,23.4949763 161.685498,23.4949763 C160.640948,22.8618009 157.445687,22.5452133 158.078863,16.4077725 C158.787867,9.532891 164.721517,8.81630332 164.721517,8.81630332 C171.560379,8.26748815 172.24,13.383128 172.24,15.1907109 C172.24,15.7745972 172.836209,15.7850237 172.836209,15.7850237 L185.238104,15.332891 C187.609668,15.332891 191.739526,17.9584834 191.739526,22.4191469 C191.739526,27.7347867 186.712986,28.1338389 184.528152,28.0599052 C183.864645,28.0381043 183.913934,28.1499526 184.290237,28.4229384 C185.203033,29.0892891 186.665592,30.5082464 187.184076,32.6324171 C187.303507,33.1234123 187.372701,33.6532701 187.372701,34.2191469 C187.372701,38.2381043 183.166066,39.5660664 183.166066,39.5660664 M172.216303,4.36890995 C159.290237,4.36890995 148.810616,14.8485308 148.810616,27.775545 C148.810616,40.7025592 159.290237,51.1812322 172.216303,51.1812322 C174.452322,51.1812322 176.612512,50.8674882 178.659905,50.282654 C186.638104,48.0020853 192.874123,41.5954502 194.91109,33.5158294 C195.375545,31.6798104 195.621991,29.7556398 195.621991,27.775545 C195.621991,14.8485308 185.143318,4.36890995 172.216303,4.36890995" id="Fill-28" fill="#F9A738"></path>
        </g>
    </g>
</svg>