<svg width="128" height="109" viewBox="0 0 128 109" fill="none" xmlns="http://www.w3.org/2000/svg">
<path opacity="0.4" d="M128 14.5829C128 17.9426 125.862 20.8752 122.871 22.4037C117.426 25.1857 113.078 28.9046 109.827 33.5604C107.187 37.5944 105.429 42.1559 104.553 47.245C103.804 51.5993 107.483 55.2094 111.901 55.2094H120C124.418 55.2094 128 58.7911 128 63.2094V100.348C128 104.766 124.418 108.348 120 108.348H86.6173C82.199 108.348 78.6173 104.766 78.6173 100.348V55.2094C78.6173 47.8618 79.9342 41.0391 82.5679 34.7413C85.2017 28.4434 88.7572 22.9328 93.2346 18.2094C97.712 13.2236 102.848 9.02499 108.642 5.61364C111.614 3.93975 114.682 2.42381 117.844 1.06582C122.787 -1.05649 128 2.78869 128 8.16769V14.5829ZM49.3827 14.5829C49.3827 17.9426 47.2451 20.8752 44.2533 22.4037C38.8084 25.1857 34.4606 28.9046 31.2099 33.5604C28.5694 37.5944 26.8113 42.1559 25.9356 47.245C25.1864 51.5993 28.8657 55.2094 33.284 55.2094H41.3827C45.801 55.2094 49.3827 58.7911 49.3827 63.2094V100.348C49.3827 104.766 45.801 108.348 41.3827 108.348H8C3.58173 108.348 0 104.766 0 100.348V55.2094C0 47.8618 1.31687 41.0391 3.95062 34.7413C6.58436 28.4434 10.1399 22.9328 14.6173 18.2094C19.0947 13.2236 24.2305 9.02499 30.0247 5.61364C32.9971 3.93975 36.0645 2.42381 39.2271 1.06582C44.1697 -1.05649 49.3827 2.78869 49.3827 8.16769V14.5829Z" fill="white" fill-opacity="0.25"/>
</svg>
