<svg width="300" height="300" viewBox="0 0 300 300" fill="none" xmlns="http://www.w3.org/2000/svg">
<mask id="mask0" style="mask-type:alpha" maskUnits="userSpaceOnUse" x="12" y="24" width="276" height="252">
<path fill-rule="evenodd" clip-rule="evenodd" d="M12 24H288V275.999H12V24Z" fill="white"/>
</mask>
<g mask="url(#mask0)">
<path fill-rule="evenodd" clip-rule="evenodd" d="M287.553 113.101C279.488 204.286 176.208 276 150.009 276C123.81 276 20.513 204.286 12.465 113.101C12.233 110.126 12 107.152 12 104.177C12 59.965 48.108 24 92.513 24C112.404 24 130.692 31.135 144.671 43.21C147.733 45.854 152.285 45.854 155.347 43.21C169.326 31.135 187.615 24 207.505 24C251.893 24 288 59.965 288 104.177C288 107.152 287.768 110.126 287.553 113.101Z" fill="#0DA57A"/>
</g>
<path fill-rule="evenodd" clip-rule="evenodd" d="M158.114 176.006C144.837 182.11 149.718 164.98 163.039 160.725C172.852 157.59 184.781 152.323 187.449 137.411C188.558 131.219 186.985 124.105 180.544 120.161C173.961 116.13 166.767 118.404 160.996 122.917C152.774 129.346 145.553 121.153 154.752 113.797C175.284 97.3789 191.893 112.797 195.431 118.795C193.339 110.652 186.197 95.1359 185.114 80.2929C184.455 71.2519 196.461 64.6429 196.474 76.8419C196.478 81.8349 197.217 84.0266 197.217 84.0266C197.217 84.0266 205.376 80.2676 209.617 92.6116C213.456 92.6536 218.359 97.2366 218.238 102.156C217.358 137.84 237.122 154.006 236.046 173.799C234.872 195.392 202.626 194.114 192.747 176.471C185.947 164.328 166.978 171.931 158.114 176.006Z" fill="#E4B681"/>
<path fill-rule="evenodd" clip-rule="evenodd" d="M192.747 176.47C201.4 192.965 225.779 226.43 227.49 226.864C227.49 226.864 244.885 209.544 258.33 189.852C258.33 189.852 239.361 172.214 233.185 158.598L192.747 176.47Z" fill="#E4B681"/>
<path fill-rule="evenodd" clip-rule="evenodd" d="M231.17 223.363L227.64 226.723C227.54 226.813 227.49 226.863 227.49 226.863L227.27 226.733C224.27 224.353 201.13 192.443 192.75 176.473C185.95 164.324 166.98 171.933 158.11 176.004C153.38 178.183 150.96 177.403 150.4 175.313V175.293C153.81 179.254 176.99 161.403 189.25 166.763C192.4 168.134 195.06 170.733 197.69 174.293C200.33 177.863 202.95 182.403 206 187.664C211.76 197.563 219.11 210.023 231.17 223.363Z" fill="black" fill-opacity="0.15"/>
<path fill-rule="evenodd" clip-rule="evenodd" d="M227.49 226.862C227.44 226.852 227.36 226.802 227.27 226.732L227.49 226.862Z" fill="black" fill-opacity="0.15"/>
<path fill-rule="evenodd" clip-rule="evenodd" d="M187.78 133.645C187.74 128.525 185.7 123.326 180.54 120.166C173.96 116.135 166.77 118.405 161 122.916C156.24 126.635 151.82 125.465 150.72 122.385V122.374C153.61 123.815 156.33 123.544 159.13 121.155C161.92 118.775 168.87 113.935 177.79 116.326C186.2 118.565 187.82 128.615 187.78 133.645Z" fill="black" fill-opacity="0.15"/>
<path fill-rule="evenodd" clip-rule="evenodd" d="M195.43 118.796L200.197 125.09L190.707 104.523L195.43 118.796Z" fill="black" fill-opacity="0.15"/>
<path fill-rule="evenodd" clip-rule="evenodd" d="M141.892 176.006C155.169 182.11 150.288 164.98 136.967 160.725C127.154 157.59 115.225 152.323 112.557 137.411C111.448 131.219 113.021 124.105 119.461 120.161C126.045 116.13 133.239 118.404 139.01 122.917C147.231 129.346 154.453 121.153 145.253 113.797C124.722 97.3789 108.113 112.797 104.575 118.795C106.667 110.652 113.809 95.1359 114.892 80.2929C115.551 71.2519 103.545 64.6429 103.532 76.8419C103.527 81.8349 102.776 83.1356 102.776 83.1356C102.776 83.1356 94.6169 79.3766 90.3759 91.7206C86.5369 91.7626 81.6329 96.3456 81.7549 101.265C82.6349 136.949 62.8839 154.006 63.9599 173.799C65.1339 195.392 97.3789 194.114 107.259 176.471C114.059 164.328 133.028 171.931 141.892 176.006Z" fill="#825331"/>
<path fill-rule="evenodd" clip-rule="evenodd" d="M107.259 176.47C98.6059 192.965 74.2269 226.43 72.5159 226.864C72.5159 226.864 55.9059 210.696 42.4619 191.003C42.4619 191.003 60.6449 172.214 66.8209 158.598L107.259 176.47Z" fill="#825331"/>
<path fill-rule="evenodd" clip-rule="evenodd" d="M68.8357 223.363L72.3657 226.723C72.4657 226.813 72.5157 226.863 72.5157 226.863L72.7357 226.733C75.7357 224.353 98.8757 192.443 107.256 176.473C114.056 164.324 133.026 171.933 141.896 176.004C146.626 178.183 149.046 177.403 149.606 175.313V175.294C146.196 179.254 123.016 161.403 110.756 166.763C107.606 168.134 104.946 170.733 102.316 174.294C99.6757 177.863 97.0557 182.403 94.0057 187.663C88.2457 197.563 80.8957 210.023 68.8357 223.363Z" fill="black" fill-opacity="0.15"/>
<path fill-rule="evenodd" clip-rule="evenodd" d="M72.5157 226.862C72.5657 226.852 72.6457 226.802 72.7357 226.732L72.5157 226.862Z" fill="black" fill-opacity="0.15"/>
<path fill-rule="evenodd" clip-rule="evenodd" d="M112.226 133.645C112.266 128.525 114.306 123.326 119.466 120.166C126.046 116.135 133.236 118.405 139.006 122.916C143.766 126.635 148.186 125.465 149.286 122.385V122.375C146.396 123.815 143.676 123.545 140.876 121.155C138.086 118.775 131.136 113.935 122.216 116.326C113.806 118.565 112.186 128.615 112.226 133.645Z" fill="black" fill-opacity="0.15"/>
<path fill-rule="evenodd" clip-rule="evenodd" d="M104.575 118.796L99.8083 125.09L109.298 104.523L104.575 118.796Z" fill="black" fill-opacity="0.15"/>
<mask id="mask1" style="mask-type:alpha" maskUnits="userSpaceOnUse" x="12" y="24" width="276" height="90">
<path fill-rule="evenodd" clip-rule="evenodd" d="M12 24.0039H288V113.344H12V24.0039Z" fill="white"/>
</mask>
<g mask="url(#mask1)">
<path fill-rule="evenodd" clip-rule="evenodd" d="M288 104.174C288 107.153 287.77 110.123 287.55 113.104C287.506 113.104 287.526 113.104 287.482 113.105C282.947 73.1479 248.813 42.0039 207.51 42.0039C187.79 42.0039 169.646 49.0079 155.718 60.8929C152.426 63.7009 147.592 63.7019 144.3 60.8939C130.367 49.0079 112.23 42.0039 92.51 42.0039C51.11 42.0039 16.91 73.2739 12.49 113.344H12.489C12.243 110.283 12 107.234 12 104.174C12 59.9639 48.11 24.0039 92.51 24.0039C112.23 24.0039 130.367 31.0079 144.3 42.8939C147.592 45.7019 152.426 45.7009 155.718 42.8929C169.646 31.0079 187.79 24.0039 207.51 24.0039C251.89 24.0039 288 59.9639 288 104.174Z" fill="black" fill-opacity="0.1"/>
</g>
</svg>
