<svg width="1400" height="720" viewBox="0 0 1400 720" fill="none" xmlns="http://www.w3.org/2000/svg">
<g opacity="0.5">
<mask id="mask0" style="mask-type:alpha" maskUnits="userSpaceOnUse" x="0" y="0" width="1400" height="720">
<path d="M1400 0H0V720H1400V0Z" fill="white"/>
</mask>
<g mask="url(#mask0)">
<path opacity="0.1" fill-rule="evenodd" clip-rule="evenodd" d="M1021.87 507.256C1086.13 493.464 1022.75 580.407 961.068 608.613C933.441 621.245 966.522 638.08 993.106 625.172C1065.35 590.105 1096.76 617.046 1022.16 666.66C1003.62 678.996 946.313 708.202 876.731 717.124C806.489 726.135 808.314 700.276 830.05 690.581C861.309 676.643 882.721 646.424 798.914 671.947C649.101 717.57 560.357 709.973 594.461 671.947C626.315 636.438 733.704 643.867 883.517 568.985C890.459 565.515 897.323 561.935 904.143 558.32L906.868 556.872C908.684 555.906 910.496 554.939 912.306 553.971L915.02 552.518C949.83 533.884 983.933 515.399 1021.87 507.256ZM401.44 617.827C519.937 607.143 522.707 490.257 562.279 514.664C589.488 531.441 562.653 599.917 545.167 635.621C498 731.938 401.158 722.475 414.754 689.597C428.347 656.72 372.425 683.504 346.521 677.509C320.621 671.521 305.26 626.494 401.44 617.827ZM-29.0087 512.09C-102.072 474.01 -40.9491 409.24 21.7892 467.794C111.176 551.221 189.829 506.03 213.747 536.609C245.693 577.451 147.004 579.732 110.557 592.001C74.1102 604.269 149.217 610.499 215.291 609.812C281.371 609.125 271.372 659.871 196.268 684.731C80.8794 722.92 -21.9811 683.262 66.4366 657.923C99.4122 648.467 75.9733 621.193 39.37 625.127C-29.7498 632.557 -80.9795 598.441 -69.3484 571.789C-56.2214 541.71 -23.7388 561.959 9.11097 564.207C41.9608 566.458 13.5274 534.26 -29.0087 512.09ZM1304.55 421.896C1390.3 390.103 1479.9 400.702 1429.32 426.715C1378.74 452.734 1245.78 538.885 1314.22 544.798C1347.9 547.709 1385.97 572.694 1314.22 631.955C1268.67 669.576 1109.94 721.564 1101.27 688.322C1092.6 655.081 1283.36 597.268 1224.11 591.484C1164.86 585.704 1085.52 635.641 1092.68 597.931C1108.01 517.289 1250.05 442.111 1304.55 421.896ZM768.806 332.669C758.069 342.462 730.472 351.84 746.958 361.504C796.77 390.699 948.586 239.041 973.701 288.798C985.777 312.722 925.228 366.227 859.138 399.652C810.349 424.325 828.138 469.529 900.552 424.991C972.97 380.45 985.747 432.951 945.631 467.407C905.519 501.859 649.235 621.187 631.773 557.417C618.184 507.82 761.37 516.905 743.552 484.861C730.472 461.347 630.889 523.781 595.639 483.235C561.524 444.002 689.225 418.007 681.048 394.483C674.591 375.921 613.485 402.076 612.302 356.634C611.387 321.414 677.376 332.536 738.404 280.885C763.621 259.538 815.191 290.365 768.806 332.669ZM464.858 351.61C549.135 331.463 596.556 365.239 577.68 388.317C557.291 413.238 508.485 413.18 504.65 461.971C497.483 553.263 407.682 569.418 445.999 505.683C459.421 483.353 439.712 469.204 428.159 497.753C421.183 514.982 388.098 538.628 370.616 547.371C291.269 587.042 228.004 529.403 284.755 513.384C321.685 502.962 354.861 477.895 376.053 420.491C387.344 389.901 427.84 360.461 464.858 351.61ZM1252.59 199.735C1331.59 186.157 1349.08 213.36 1316.19 235.132C1295.79 248.638 1216.37 291.707 1274.38 295.926C1332.39 300.146 1289.16 355.303 1221.03 406.651C1152.9 458 1004.06 485.74 1010.56 442.436C1017.07 399.133 1192.34 378.354 1160.78 332.653C1147.07 312.802 1080.03 395.131 1050.27 347.761C1020.5 300.391 1203.06 208.242 1252.59 199.735ZM318.3 226.201C309.039 252.971 280.735 260.027 236.434 277.25C192.137 294.476 248.466 317.435 321.557 282.945C363.366 263.22 408.163 296.472 357.681 330.717C315.485 359.337 218.262 367.542 220.917 392.093C222.386 405.728 292.964 372.928 305.789 402.321C316.451 426.749 291.186 454.822 220.587 460.521C148.662 466.329 92.7239 451.534 91.8876 416.201C90.939 376.199 175.324 365.359 137.409 352.992C127.115 349.637 113.807 347.459 100.232 345.216L97.2123 344.716C61.4507 338.774 25.2467 331.738 38.533 300.981C49.1509 276.407 168.178 272.479 256.687 193.105C288.531 164.546 327.565 199.43 318.3 226.201ZM856.238 -6.11821C840.786 44.5195 684.448 72.2049 681.619 116.368C678.787 160.535 840.398 62.5888 851.958 88.5367C863.517 114.488 685.053 245.571 590.601 283.889C533.686 306.977 488.787 274.348 554.317 223.846C598.159 190.06 577.525 161.028 537.185 180.886C496.845 200.748 475.382 149.528 531.113 105.753C586.844 61.9802 873.72 -63.4239 856.238 -6.11821ZM821.944 230.59C849.782 219.447 857.003 239.869 857.003 256.371C857.003 272.876 829.162 279.062 813.692 269.779C798.223 260.499 802.557 238.346 821.944 230.59ZM423.79 226.541C432.079 214.171 447.43 202.654 465.731 215.378C479.946 225.263 480.388 237.868 465.279 255.355C445.692 278.032 413.002 276.978 403.401 268.685C393.8 260.391 415.505 238.915 423.79 226.541ZM1311.06 -13.7373C1315.85 14.2032 1239.93 35.309 1145.62 80.5266C1100.02 102.387 1148.26 120.81 1177.95 109.001C1276.13 69.9481 1268.46 129.627 1185.56 171.703C1120.79 204.584 1066 221.831 1033.54 229.743C986.464 241.219 976.651 210.814 1003.53 193.655C1055.99 160.162 1030.76 129.246 983.801 155.235C954.056 171.696 878.629 260.091 865.757 197.148C857.801 158.231 954.906 35.615 1073.99 3.28812C1193.69 -29.2054 1306.23 -41.841 1311.06 -13.7373ZM248.052 -138.953C291.595 -136.811 252.703 -53.4793 178.769 10.4468C126.387 55.7392 177.542 78.722 227.775 51.6792C288.48 18.9986 335.8 40.8662 257.453 112.521C179.106 184.18 60.1434 236.909 -4.74701 223.389C-69.634 209.869 86.3974 168.576 92.5886 113.878C98.671 60.1324 4.04173 168.633 -45.2976 132.539C-93.1885 97.5088 10.7463 57.4189 76.1807 -6.05498C146.633 -74.4016 206.145 -141.014 248.052 -138.953ZM358.514 80.8442C404.916 20.9406 553.957 -41.1426 561.24 -7.8024C566.588 16.6834 483.005 48.2928 432.088 124.266C388.81 188.835 306.074 148.555 358.514 80.8442Z" fill="white"/>
</g>
</g>
</svg>
