<svg width="524" height="200" viewBox="0 0 524 200" fill="none" xmlns="http://www.w3.org/2000/svg">
<ellipse cx="278" cy="192.5" rx="229" ry="7.5" fill="#4C97FF" fill-opacity="0.25"/>
<ellipse cx="472.294" cy="70.115" rx="43.5027" ry="37.5487" fill="#2F9B73"/>
<ellipse cx="460.709" cy="123.884" rx="49.8438" ry="36.9747" transform="rotate(-23.0526 460.709 123.884)" fill="#2F9B73"/>
<ellipse cx="422.453" cy="96.9089" rx="43.5027" ry="37.5487" fill="#2F9B73"/>
<path d="M481.321 46.6844C481.321 63.6822 462.595 77.4148 439.451 77.4148C416.307 77.4148 397.581 63.6822 397.581 46.6844C397.581 29.6867 416.307 10 439.451 10C481.321 10 481.321 29.6867 481.321 46.6844Z" fill="#3BB98A"/>
<path d="M438.01 53.1177C438.106 53.1177 437.914 52.8297 437.626 52.6376C437.818 52.7336 437.914 52.9257 438.01 53.1177Z" fill="#CB722A"/>
<path d="M435.61 49.0854C435.706 49.1814 435.706 49.0854 435.322 48.6052C435.322 48.6052 435.322 48.6052 435.322 48.7013C435.418 48.7973 435.514 48.8933 435.61 49.0854Z" fill="#CB722A"/>
<path d="M446.653 117.174C445.117 116.79 446.173 117.078 446.653 117.174V117.174Z" fill="#CB722A"/>
<path d="M430.231 104.783C430.039 104.207 430.039 104.207 430.039 104.399C430.039 104.495 430.135 104.591 430.135 104.687C430.231 104.783 430.231 104.783 430.231 104.783Z" fill="#CB722A"/>
<path d="M433.209 109.874C432.825 109.298 432.825 109.298 432.921 109.49C433.017 109.586 433.113 109.682 433.209 109.874C433.209 109.874 433.209 109.778 433.209 109.874Z" fill="#CB722A"/>
<path d="M436.666 113.233C436.186 112.656 436.089 112.656 436.186 112.848C436.378 112.945 436.474 113.041 436.666 113.233Z" fill="#CB722A"/>
<path d="M481.321 110.161C478.728 110.257 476.519 112.274 476.519 114.963C476.519 115.251 476.519 115.635 476.519 115.923C476.519 115.923 476.519 115.923 476.519 116.019C476.327 116.595 476.231 117.267 476.039 117.94C475.943 118.228 475.847 118.516 475.751 118.804C475.463 119.476 475.079 120.052 474.695 120.629C474.407 121.109 474.023 121.589 473.735 122.069L473.638 122.165C473.446 122.453 473.158 122.741 472.966 123.029C472.006 124.086 471.046 125.046 469.989 125.91C469.701 126.102 469.509 126.295 469.221 126.487L469.125 126.583C468.645 126.967 468.069 127.351 467.588 127.735C466.532 128.503 465.476 129.175 464.323 129.848C462.499 130.904 460.674 131.864 458.753 132.729C458.657 132.729 458.657 132.825 458.561 132.825C458.561 129.079 458.561 125.43 458.561 121.685C458.561 115.155 458.657 108.625 458.753 102.094C459.042 102.094 459.33 101.998 459.618 101.902C468.549 98.6371 477.672 93.1633 482.954 85.0966C485.162 81.8315 486.411 77.8941 486.411 73.9568C486.411 71.2679 484.01 68.675 481.321 68.8671C478.536 68.9631 476.231 71.0758 476.231 73.9568C476.231 74.2449 476.231 74.629 476.231 74.9171C476.039 75.4933 475.943 76.1655 475.751 76.7417C475.655 77.0298 475.559 77.2219 475.463 77.51C475.175 78.1822 474.791 78.7584 474.503 79.3346C474.215 79.8148 473.831 80.2949 473.542 80.6791L473.446 80.7751C473.254 81.0632 472.966 81.3513 472.774 81.6394C471.814 82.6958 470.854 83.6561 469.797 84.5204C469.509 84.7124 469.317 84.9045 469.029 85.0966C469.029 85.0966 469.029 85.0966 468.933 85.0966C468.453 85.4807 467.973 85.8648 467.396 86.1529C466.34 86.9212 465.284 87.5934 464.131 88.2656C462.403 89.226 460.674 90.1863 458.946 90.9545C459.042 87.7855 459.042 84.6164 459.138 81.3513C459.33 70.5957 459.618 59.744 459.906 48.9883C460.098 43.9946 460.386 39.001 460.386 34.0073C460.386 33.9112 460.386 33.9112 460.386 33.8152C460.482 31.3184 458.081 28.9175 455.584 29.0136C452.895 29.1096 450.879 31.1263 450.783 33.8152C450.687 37.9446 450.495 41.978 450.399 46.1074C450.303 50.2368 450.207 54.4622 450.014 58.5916C449.726 58.5916 449.534 58.5916 449.246 58.5916C448.862 58.5916 448.478 58.4956 448.094 58.4956C447.902 58.4956 447.71 58.3995 447.614 58.3995C446.557 58.2075 445.501 57.9194 444.445 57.5352C444.157 57.4392 443.964 57.3432 443.676 57.2471C443.1 56.959 442.62 56.767 442.14 56.4789C441.564 56.1908 441.083 55.8066 440.507 55.4225C440.219 55.2305 440.027 54.9424 439.739 54.7503C439.259 54.2701 438.779 53.79 438.299 53.2138C438.202 53.1177 438.202 53.0217 438.106 52.9257C438.106 52.9257 438.01 52.9257 437.914 52.7336C437.818 52.6376 437.818 52.5415 437.722 52.4455C437.722 52.4455 437.626 52.4455 437.626 52.3495C437.626 52.3495 437.626 52.3495 437.722 52.3495C437.626 52.2534 437.53 52.0614 437.434 51.9653C436.954 51.1971 436.474 50.3328 435.994 49.5645C435.898 49.3725 435.802 49.0844 435.706 48.8923C435.61 48.7963 435.61 48.7002 435.514 48.6042V48.5082C435.514 48.5082 435.514 48.4121 435.418 48.4121C435.418 48.4121 435.418 48.4121 435.418 48.5082C435.322 48.3161 435.225 48.124 435.129 47.8359C434.265 45.5312 433.785 43.0343 433.401 40.6335C433.017 38.1367 429.752 36.5041 427.447 37.2724C424.758 38.1367 423.702 40.5375 424.086 43.2264C425.334 51.4852 428.983 59.4559 436.186 64.2575C440.123 66.9464 445.021 68.1948 449.822 68.2909C449.726 71.1719 449.63 74.0528 449.63 76.9338C449.342 90.1863 449.15 103.343 448.958 116.595C448.958 116.787 448.958 117.075 448.958 117.267C448.766 117.267 448.478 117.267 448.286 117.267C447.806 117.267 447.23 117.171 446.749 117.171C446.845 117.171 446.845 117.171 446.941 117.171C446.557 117.075 446.173 117.075 445.885 116.979C444.637 116.787 443.292 116.403 442.044 116.019C441.66 115.923 441.372 115.827 440.987 115.635H440.891C440.219 115.347 439.547 114.963 438.875 114.675C438.202 114.29 437.626 113.906 436.954 113.522C436.858 113.426 436.762 113.426 436.666 113.33L436.762 113.426C436.666 113.33 436.666 113.33 436.57 113.234L436.474 113.138C436.378 113.042 436.282 112.946 436.186 112.85C436.09 112.754 435.898 112.658 435.802 112.562C435.129 111.986 434.553 111.409 433.977 110.737C433.689 110.449 433.497 110.161 433.209 109.873C433.209 109.969 433.305 109.969 433.305 110.065C433.209 109.969 433.209 109.873 433.113 109.873C433.017 109.777 432.921 109.681 432.921 109.585C432.825 109.489 432.825 109.393 432.729 109.393C432.056 108.529 431.48 107.568 431 106.512C430.712 106.032 430.52 105.455 430.232 104.975C430.232 105.071 430.232 105.071 430.328 105.167C430.328 105.071 430.232 104.975 430.232 104.879C430.232 104.879 430.232 104.879 430.232 104.783C430.232 104.687 430.136 104.591 430.136 104.495C430.04 104.303 430.04 104.207 429.944 104.015C428.887 101.23 428.215 98.3491 427.831 95.4681C427.447 92.9712 424.182 91.3387 421.877 92.1069C419.188 92.9712 418.132 95.372 418.516 98.061C419.956 107.664 424.47 116.883 432.825 122.261C437.53 125.334 443.292 126.775 448.862 126.967C448.862 136.666 448.862 146.365 449.054 156.161C449.246 166.052 449.438 175.943 450.495 185.739C450.591 186.603 450.687 187.371 450.783 188.235C451.071 190.732 452.799 193.133 455.584 193.037C457.889 192.941 460.77 190.924 460.386 188.235C459.234 179.112 458.946 169.701 458.753 160.482C458.657 154.624 458.561 148.862 458.465 143.004C458.849 143.004 459.138 142.908 459.522 142.812C462.691 141.66 465.764 140.123 468.645 138.491C474.023 135.418 479.208 131.384 482.666 126.198C484.778 122.933 486.027 119.092 486.123 115.251C486.123 112.466 483.914 110.065 481.321 110.161Z" fill="#CB722A"/>
<ellipse cx="268.491" cy="92.6472" rx="49.2969" ry="42.6472" fill="#2F9B73"/>
<ellipse cx="268.491" cy="92.6472" rx="49.2969" ry="42.6472" fill="#2F9B73"/>
<ellipse cx="268.491" cy="92.6472" rx="49.2969" ry="42.6472" fill="#2F9B73"/>
<path d="M278.225 116.054C278.55 108.695 278.875 101.336 279.28 93.9766C279.443 90.5188 279.767 87.1496 279.93 83.6917C279.93 83.603 279.93 83.603 279.93 83.5143C280.092 80.7658 277.576 78.1059 275.061 78.1945C272.302 78.3719 270.435 80.4998 270.192 83.5143C270.03 86.3516 269.867 89.1888 269.624 92.026C269.218 99.0305 268.894 106.035 268.569 113.039C268.569 113.305 268.569 113.483 268.569 113.749C268.407 113.749 268.245 113.749 268.001 113.749C267.595 113.749 267.19 113.66 266.703 113.66C266.459 113.66 266.297 113.571 266.054 113.571C264.918 113.305 263.863 113.039 262.808 112.596C262.564 112.507 262.402 112.419 262.159 112.33C261.591 112.064 261.023 111.709 260.454 111.355C259.886 111 259.318 110.557 258.832 110.202C258.507 109.936 258.182 109.67 257.939 109.315C257.452 108.783 256.965 108.251 256.478 107.719C256.397 107.631 256.316 107.542 256.235 107.365C256.235 107.365 256.235 107.453 256.316 107.453C256.316 107.365 256.235 107.365 256.235 107.276C256.235 107.188 256.154 107.188 256.154 107.099C256.073 106.922 255.991 106.833 255.991 106.744C255.829 106.567 255.667 106.301 255.586 106.124C255.099 105.237 254.612 104.35 254.206 103.464C254.044 103.198 253.963 102.843 253.801 102.577C253.719 102.488 253.719 102.311 253.638 102.222C253.638 102.222 253.638 102.134 253.557 102.134V102.222C253.476 101.956 253.314 101.602 253.232 101.247C252.34 98.6758 251.853 95.9272 251.447 93.1787C251.123 90.6961 248.12 89.1888 246.092 89.8981C243.657 90.7848 242.684 93.09 243.089 95.7499C244.306 104.882 247.958 113.66 255.18 118.891C258.994 121.64 263.619 123.058 268.245 123.236C268.082 128.91 267.92 134.673 267.758 140.348C267.595 149.303 267.595 158.258 267.92 167.213C268.163 174.394 268.569 181.665 269.949 188.669C270.03 189.29 270.192 189.822 270.354 190.443C271.003 193.102 273.844 195.053 276.278 194.166C278.794 193.28 280.416 190.531 279.686 187.694C279.362 186.453 279.118 185.211 278.956 183.97C278.875 183.261 278.712 182.551 278.631 181.931C278.631 181.931 278.631 181.931 278.631 182.019C278.631 182.019 278.631 182.019 278.631 181.931C278.631 181.754 278.55 181.576 278.55 181.399C278.469 180.601 278.631 181.488 278.631 181.931C278.631 181.576 278.55 181.222 278.469 180.867C278.063 177.232 277.82 173.596 277.657 169.961C277.252 161.184 277.252 152.317 277.333 143.451C277.576 134.23 277.82 125.186 278.225 116.054Z" fill="#CB722A"/>
<path d="M253.719 102.576C253.882 102.842 253.963 102.931 253.557 102.133C253.557 102.133 253.557 102.133 253.557 102.222C253.638 102.31 253.719 102.488 253.719 102.576Z" fill="#CB722A"/>
<path d="M256.316 107.364C256.072 106.743 255.91 106.743 255.991 106.832C256.072 107.009 256.154 107.098 256.316 107.364C256.316 107.364 256.316 107.275 256.316 107.364Z" fill="#CB722A"/>
<path d="M117.136 136.99C108.236 139.113 101.622 144.665 98.7642 151.442C105.46 155.933 114.523 157.811 123.423 155.688C133.384 153.32 142.121 151.279 144.162 143.032C137.385 137.235 127.179 134.622 117.136 136.99Z" fill="#2F9B73"/>
<path d="M84.1485 131.358C76.065 127.602 66.7568 127.602 59 130.623C59.8982 137.808 64.7972 144.503 72.8807 148.259C81.9439 152.505 89.7824 156.261 98.1924 151.689C98.2741 143.524 93.2117 135.604 84.1485 131.358Z" fill="#2F9B73"/>
<path d="M95.4166 149.892C94.6818 160.425 94.1919 171.121 94.6001 181.736C94.6818 184.757 94.8451 187.86 95.58 190.799C95.9882 192.595 98.1111 193.82 99.9074 193.249C101.785 192.677 102.847 190.799 102.357 188.921C102.275 188.431 102.194 188.023 102.112 187.533C102.03 187.206 102.03 186.145 102.112 187.451C102.112 187.125 102.03 186.798 102.03 186.472C101.867 185.165 101.785 183.777 101.785 182.471C101.622 179.123 101.622 175.775 101.704 172.509C101.785 166.304 102.03 160.017 102.357 153.811C102.439 152.505 102.52 151.117 102.602 149.81C102.765 147.932 100.887 146.218 99.0909 146.299C96.968 146.381 95.58 147.851 95.4166 149.892Z" fill="#CB722A"/>
<path d="M91.0029 97.5432C91.3116 101.23 94.05 104.011 97.1194 103.754C100.189 103.497 102.427 100.3 102.118 96.6125C101.809 92.9255 94.8288 81.2561 91.7594 81.5131C88.6901 81.7701 90.6942 93.8561 91.0029 97.5432Z" fill="#4C97FF" fill-opacity="0.5"/>
<path d="M108.665 124.498C108.975 126.979 110.9 128.782 112.965 128.525C115.031 128.267 116.455 126.047 116.146 123.566C115.837 121.084 110.804 113.395 108.739 113.652C106.673 113.91 108.356 122.016 108.665 124.498Z" fill="#4C97FF" fill-opacity="0.5"/>
<path fill-rule="evenodd" clip-rule="evenodd" d="M307.346 32.0262C305.907 38.5338 297.807 42.7503 295.925 42.5066C294.042 42.263 287.294 36.1251 287.576 29.4677C287.587 29.2508 287.598 29.0339 287.627 28.8191C288.044 25.6275 290.978 23.3671 294.169 23.7801C295.789 23.9896 297.174 24.841 298.073 26.0675C299.256 25.1105 300.814 24.64 302.434 24.8496C305.624 25.2624 307.88 28.1945 307.463 31.3861C307.435 31.6009 307.39 31.8134 307.346 32.0262Z" fill="#FF6680"/>
<path fill-rule="evenodd" clip-rule="evenodd" d="M285.26 13.7307C284.017 17.8766 278.57 20.2208 277.362 19.9731C276.155 19.7254 272.078 15.4282 272.578 11.13C272.596 10.9901 272.613 10.8501 272.642 10.7124C273.064 8.66526 275.072 7.34136 277.12 7.76117C278.158 7.9742 279.015 8.59173 279.538 9.42893C280.351 8.86563 281.382 8.63527 282.421 8.8483C284.467 9.26794 285.788 11.2746 285.366 13.3217C285.338 13.4594 285.298 13.595 285.26 13.7307Z" fill="#FF6680"/>
<path fill-rule="evenodd" clip-rule="evenodd" d="M508.533 14.5508C510.005 14.1546 511.155 13.0049 511.551 11.5338L512.452 8.18626C512.878 6.60458 515.122 6.60458 515.548 8.18626L516.449 11.5338C516.845 13.0049 517.995 14.1546 519.467 14.5508L522.814 15.4518C524.395 15.8776 524.395 18.1225 522.814 18.5483L519.467 19.4493C517.995 19.8455 516.845 20.9948 516.449 22.4663L515.548 25.8134C515.122 27.3955 512.878 27.3955 512.452 25.8134L511.551 22.4663C511.155 20.9948 510.005 19.8455 508.533 19.4493L505.186 18.5483C503.605 18.1225 503.605 15.8776 505.186 15.4518L508.533 14.5508Z" fill="#FFBF00"/>
<path fill-rule="evenodd" clip-rule="evenodd" d="M386.4 147.663C387.504 147.366 388.366 146.504 388.663 145.4L389.339 142.89C389.658 141.703 391.342 141.703 391.661 142.89L392.337 145.4C392.634 146.504 393.496 147.366 394.6 147.663L397.11 148.339C398.297 148.658 398.297 150.342 397.11 150.661L394.6 151.337C393.496 151.634 392.634 152.496 392.337 153.6L391.661 156.11C391.342 157.297 389.658 157.297 389.339 156.11L388.663 153.6C388.366 152.496 387.504 151.634 386.4 151.337L383.89 150.661C382.703 150.342 382.703 148.658 383.89 148.339L386.4 147.663Z" fill="#FFBF00"/>
<path fill-rule="evenodd" clip-rule="evenodd" d="M76.823 75.2416C78.1584 77.9593 81.0929 79.6887 81.8202 79.7053C82.7799 79.7272 84.2876 75.3867 84.3863 71.0652C84.4849 66.7436 83.5446 63.6936 82.585 63.6716C81.8963 63.6559 78.9362 65.9109 77.2831 68.7828L51.4808 67.1147L54.6679 61.3479C55.6076 59.8028 51.6281 52.3563 42.6529 46.8977C33.6776 41.439 25.3826 41.8834 24.4429 43.4284L21.9151 47.1483C21.3083 45.5962 20.4879 43.9984 19.4886 42.6546C18.4335 41.2356 16.9955 39.8497 15.1494 39.2832C13.1505 38.6699 11.0761 39.1354 9.15795 40.6648C7.33603 42.1173 6.44182 44.2523 6.04672 46.4448C5.65097 48.6418 5.71391 51.1125 5.99337 53.5523C6.51207 58.0831 7.83034 62.9088 8.82658 66.4088L6.77726 69.4245C5.83757 70.9695 10.5661 79.5829 19.5414 85.0415C28.5166 90.5002 38.3397 90.737 39.2794 89.1919L44.2696 80.1626C55.0822 76.9833 69.5087 76.3086 76.823 75.2416ZM18.93 51.541L11.8623 61.9415C11.1247 59.1352 10.4156 56.0216 10.0791 53.0844C9.82221 50.8402 9.79841 48.8154 10.0942 47.1741C10.3907 45.5285 10.9664 44.4826 11.7216 43.8804C12.7607 43.0521 13.45 43.0636 13.943 43.2149C14.5891 43.4131 15.3719 44.0106 16.1885 45.1086C17.6596 47.0869 18.6455 49.8778 18.93 51.541Z" fill="#0B8E69"/>
<path d="M27.9634 43.7375C27.6811 44.2017 34.175 49.6679 39.6127 53.2605C43.9054 56.0967 52.8696 59.3778 53.0868 59.0206C53.3041 58.6634 48.5472 52.1417 42.6981 48.5844C36.2919 44.6882 28.2457 43.2734 27.9634 43.7375Z" fill="black" fill-opacity="0.15"/>
<path d="M80.4226 72.0934C80.2397 76.6336 80.7313 79.9393 82.4859 80.01C84.2405 80.0807 86.3563 77.0284 86.5392 72.4882C86.7222 67.948 84.9031 63.6392 83.1484 63.5685C81.3938 63.4978 80.6056 67.5532 80.4226 72.0934Z" fill="#097959"/>
<path fill-rule="evenodd" clip-rule="evenodd" d="M8.76656 66.196C7.77808 62.7147 6.50193 57.9916 5.99363 53.5516C5.71418 51.1118 5.65123 48.6411 6.04698 46.4441C6.44208 44.2516 7.33629 42.1166 9.15821 40.6641C11.0764 39.1347 13.1507 38.6692 15.1497 39.2825C16.9958 39.849 18.4337 41.2349 19.4889 42.6538C20.4581 43.9572 21.259 45.4994 21.86 47.0072L18.8959 51.3512C18.5722 49.6717 17.6055 47.013 16.1888 45.1079C15.3722 44.0099 14.5894 43.4124 13.9433 43.2142C13.4502 43.0629 12.761 43.0514 11.7219 43.8797C10.9667 44.4819 10.391 45.5277 10.0944 47.1734C9.79867 48.8147 9.82247 50.8394 10.0794 53.0837C10.4077 55.95 11.091 58.9842 11.8092 61.737L8.76656 66.196Z" fill="black" fill-opacity="0.1"/>
</svg>
