<svg width="781" height="242" viewBox="0 0 781 242" fill="none" xmlns="http://www.w3.org/2000/svg">
<g id="Pillars-Desktop">
<g id="Pillars">
<g id="Equity">
<path id="Fill 1" fill-rule="evenodd" clip-rule="evenodd" d="M141.421 183.733C-101.361 194.364 -11.2644 241.904 257.632 240.239C526.53 238.574 772.653 253.416 779.893 214.744C787.245 175.473 415.785 171.719 141.421 183.733" fill="#FFCA2C"/>
</g>
<g id="Adaptation">
<path id="Oval" d="M512.08 77.4902C494.452 127.29 454.08 166.69 390.08 157.49C326.08 148.29 268.58 137.873 268.58 93.6902C268.58 49.5074 290.106 14.6958 356.58 3.69019C432.08 -8.8098 529.708 27.6902 512.08 77.4902Z" fill="#088763"/>
</g>
<g id="Connectivity">
<path id="Oval Copy" d="M244.5 76.6902C230 136.69 190.5 170.69 122.5 156.69C54.5 142.69 0.5 120.873 0.5 76.6902C0.5 32.5074 49.5 14.1902 122.5 2.6902C195.5 -8.8098 259 16.6902 244.5 76.6902Z" fill="#774DCB"/>
</g>
<g id="Community">
<path id="Oval Copy 4" d="M780 76.6902C786.5 135.19 753.5 177.19 656 165.69C558.5 154.19 534.5 110.873 534.5 66.6902C534.5 22.5074 567.621 1.1902 635 1.1902C702.379 1.1902 773.5 18.1902 780 76.6902Z" fill="#3373CC"/>
</g>
</g>
</g>
</svg>
