<svg version="1.1" width="360" height="35" viewBox="0 3 360 35" xmlns="http://www.w3.org/2000/svg" xmlns:xlink="http://www.w3.org/1999/xlink">
  <!-- Exported by Scratch - http://scratch.mit.edu/ -->
  <g id="ID0.24890166614204645" transform="matrix(1, 0, 0, 1, 0, -7)">
    <path id="ID0.5602954248897731" fill="#96D4FF" stroke="#4F7E83" stroke-width="2" d="M 157 285 C 160.862 285 164.362 286.569 166.897 289.103 C 169.431 291.638 171 295.138 171 299 C 171 302.862 169.431 306.362 166.897 308.897 C 164.362 311.431 160.862 313 157 313 C 153.138 313 149.638 311.431 147.103 308.897 C 144.569 306.362 143 302.862 143 299 C 143 295.138 144.569 291.638 147.103 289.103 C 149.638 286.569 153.138 285 157 285 Z " transform="matrix(0.1124344989657402, 0.3958204686641693, -0.3958204686641693, 0.1124344989657402, 321.35, -65.4)"/>
    <path id="ID0.026205711532384157" fill="#FFFFFF" stroke="none" d="M 157.875 290.250 C 159.220 290.250 160.439 290.656 161.321 291.312 C 162.204 291.969 162.750 292.875 162.750 293.875 C 162.750 294.875 162.204 295.781 161.321 296.438 C 160.439 297.094 159.220 297.500 157.875 297.500 C 156.530 297.500 155.311 297.094 154.429 296.438 C 153.546 295.781 153 294.875 153 293.875 C 153 292.875 153.546 291.969 154.429 291.312 C 155.311 290.656 156.530 290.250 157.875 290.250 Z " transform="matrix(0.12684917449951172, 0.4465666711330414, -0.4465666711330414, 0.12684917449951172, 334.3, -78.85)"/>
  </g>
  <g id="ID0.24890166614204645">
    <path id="ID0.5602954248897731" fill="#96D4FF" stroke="#4F7E83" stroke-width="2" d="M 157 285 C 160.862 285 164.362 286.569 166.897 289.103 C 169.431 291.638 171 295.138 171 299 C 171 302.862 169.431 306.362 166.897 308.897 C 164.362 311.431 160.862 313 157 313 C 153.138 313 149.638 311.431 147.103 308.897 C 144.569 306.362 143 302.862 143 299 C 143 295.138 144.569 291.638 147.103 289.103 C 149.638 286.569 153.138 285 157 285 Z " transform="matrix(-0.1124344989657402, 0.3958204686641693, 0.3958204686641693, 0.1124344989657402, 148.85, -82.6)"/>
    <path id="ID0.026205711532384157" fill="#FFFFFF" stroke="none" d="M 157.875 290.250 C 159.220 290.250 160.439 290.656 161.321 291.312 C 162.204 291.969 162.750 292.875 162.750 293.875 C 162.750 294.875 162.204 295.781 161.321 296.438 C 160.439 297.094 159.220 297.500 157.875 297.500 C 156.530 297.500 155.311 297.094 154.429 296.438 C 153.546 295.781 153 294.875 153 293.875 C 153 292.875 153.546 291.969 154.429 291.312 C 155.311 290.656 156.530 290.250 157.875 290.250 Z " transform="matrix(-0.12684917449951172, 0.4465666711330414, 0.4465666711330414, 0.12684917449951172, 135.9, -96.05)"/>
  </g>
  <g id="ID0.24890166614204645" transform="matrix(1, 0, 0, 1, 0, -2)">
    <path id="ID0.5602954248897731" fill="#96D4FF" stroke="#4F7E83" stroke-width="2" d="M 157 285 C 160.862 285 164.362 286.569 166.897 289.103 C 169.431 291.638 171 295.138 171 299 C 171 302.862 169.431 306.362 166.897 308.897 C 164.362 311.431 160.862 313 157 313 C 153.138 313 149.638 311.431 147.103 308.897 C 144.569 306.362 143 302.862 143 299 C 143 295.138 144.569 291.638 147.103 289.103 C 149.638 286.569 153.138 285 157 285 Z " transform="matrix(0.13655994832515717, 0.36841848492622375, 0.36841848492622375, -0.13655994832515717, 144.15, 1)"/>
    <path id="ID0.026205711532384157" fill="#FFFFFF" stroke="none" d="M 157.875 290.250 C 159.220 290.250 160.439 290.656 161.321 291.312 C 162.204 291.969 162.750 292.875 162.750 293.875 C 162.750 294.875 162.204 295.781 161.321 296.438 C 160.439 297.094 159.220 297.500 157.875 297.500 C 156.530 297.500 155.311 297.094 154.429 296.438 C 153.546 295.781 153 294.875 153 293.875 C 153 292.875 153.546 291.969 154.429 291.312 C 155.311 290.656 156.530 290.250 157.875 290.250 Z " transform="matrix(0.15406763553619385, 0.4156516194343567, 0.4156516194343567, -0.15406763553619385, 126.55, -2)"/>
  </g>
  <g id="ID0.24890166614204645" transform="matrix(1, 0, 0, 1, 4, -5)">
    <path id="ID0.5602954248897731" fill="#96D4FF" stroke="#4F7E83" stroke-width="2" d="M 157 285 C 160.862 285 164.362 286.569 166.897 289.103 C 169.431 291.638 171 295.138 171 299 C 171 302.862 169.431 306.362 166.897 308.897 C 164.362 311.431 160.862 313 157 313 C 153.138 313 149.638 311.431 147.103 308.897 C 144.569 306.362 143 302.862 143 299 C 143 295.138 144.569 291.638 147.103 289.103 C 149.638 286.569 153.138 285 157 285 Z " transform="matrix(0.429103821516037, 0.4236290454864502, 0.4236290454864502, -0.429103821516037, 99.7, 88.45)"/>
    <path id="ID0.026205711532384157" fill="#FFFFFF" stroke="none" d="M 157.875 290.250 C 159.220 290.250 160.439 290.656 161.321 291.312 C 162.204 291.969 162.750 292.875 162.750 293.875 C 162.750 294.875 162.204 295.781 161.321 296.438 C 160.439 297.094 159.220 297.500 157.875 297.500 C 156.530 297.500 155.311 297.094 154.429 296.438 C 153.546 295.781 153 294.875 153 293.875 C 153 292.875 153.546 291.969 154.429 291.312 C 155.311 290.656 156.530 290.250 157.875 290.250 Z " transform="matrix(0.4841171205043793, 0.47794046998023987, 0.47794046998023987, -0.4841171205043793, 73.25, 95.65)"/>
  </g>
  <g id="ID0.24890166614204645" transform="matrix(1, 0, 0, 1, 0, -4)">
    <path id="ID0.5602954248897731" fill="#96D4FF" stroke="#4F7E83" stroke-width="2" d="M 157 285 C 160.862 285 164.362 286.569 166.897 289.103 C 169.431 291.638 171 295.138 171 299 C 171 302.862 169.431 306.362 166.897 308.897 C 164.362 311.431 160.862 313 157 313 C 153.138 313 149.638 311.431 147.103 308.897 C 144.569 306.362 143 302.862 143 299 C 143 295.138 144.569 291.638 147.103 289.103 C 149.638 286.569 153.138 285 157 285 Z " transform="matrix(-0.12975932657718658, -0.45681169629096985, 0.45681169629096985, -0.12975932657718658, 210.85, 130.7)"/>
    <path id="ID0.026205711532384157" fill="#FFFFFF" stroke="none" d="M 157.875 290.250 C 159.220 290.250 160.439 290.656 161.321 291.312 C 162.204 291.969 162.750 292.875 162.750 293.875 C 162.750 294.875 162.204 295.781 161.321 296.438 C 160.439 297.094 159.220 297.500 157.875 297.500 C 156.530 297.500 155.311 297.094 154.429 296.438 C 153.546 295.781 153 294.875 153 293.875 C 153 292.875 153.546 291.969 154.429 291.312 C 155.311 290.656 156.530 290.250 157.875 290.250 Z " transform="matrix(-0.14639513194561005, -0.5153772830963135, 0.5153772830963135, -0.14639513194561005, 195.85, 146.25)"/>
  </g>
  <g id="ID0.24890166614204645" transform="matrix(1, 0, 0, 1, 2, 2)">
    <path id="ID0.5602954248897731" fill="#96D4FF" stroke="#4F7E83" stroke-width="2" d="M 157 285 C 160.862 285 164.362 286.569 166.897 289.103 C 169.431 291.638 171 295.138 171 299 C 171 302.862 169.431 306.362 166.897 308.897 C 164.362 311.431 160.862 313 157 313 C 153.138 313 149.638 311.431 147.103 308.897 C 144.569 306.362 143 302.862 143 299 C 143 295.138 144.569 291.638 147.103 289.103 C 149.638 286.569 153.138 285 157 285 Z " transform="matrix(-0.5274384021759033, 0.37245088815689087, -0.37245088815689087, -0.5274384021759033, 542.9, 113.6)"/>
    <path id="ID0.026205711532384157" fill="#FFFFFF" stroke="none" d="M 157.875 290.250 C 159.220 290.250 160.439 290.656 161.321 291.312 C 162.204 291.969 162.750 292.875 162.750 293.875 C 162.750 294.875 162.204 295.781 161.321 296.438 C 160.439 297.094 159.220 297.500 157.875 297.500 C 156.530 297.500 155.311 297.094 154.429 296.438 C 153.546 295.781 153 294.875 153 293.875 C 153 292.875 153.546 291.969 154.429 291.312 C 155.311 290.656 156.530 290.250 157.875 290.250 Z " transform="matrix(-0.5950586795806885, 0.42020100355148315, -0.42020100355148315, -0.5950586795806885, 569.65, 125.8)"/>
  </g>
  <g id="ID0.24890166614204645" transform="matrix(1, 0, 0, 1, 0, -3)">
    <path id="ID0.5602954248897731" fill="#96D4FF" stroke="#4F7E83" stroke-width="2" d="M 157 285 C 160.862 285 164.362 286.569 166.897 289.103 C 169.431 291.638 171 295.138 171 299 C 171 302.862 169.431 306.362 166.897 308.897 C 164.362 311.431 160.862 313 157 313 C 153.138 313 149.638 311.431 147.103 308.897 C 144.569 306.362 143 302.862 143 299 C 143 295.138 144.569 291.638 147.103 289.103 C 149.638 286.569 153.138 285 157 285 Z " transform="matrix(0.13655994832515717, -0.36841848492622375, 0.36841848492622375, 0.13655994832515717, -123.9, 43)"/>
    <path id="ID0.026205711532384157" fill="#FFFFFF" stroke="none" d="M 157.875 290.250 C 159.220 290.250 160.439 290.656 161.321 291.312 C 162.204 291.969 162.750 292.875 162.750 293.875 C 162.750 294.875 162.204 295.781 161.321 296.438 C 160.439 297.094 159.220 297.500 157.875 297.500 C 156.530 297.500 155.311 297.094 154.429 296.438 C 153.546 295.781 153 294.875 153 293.875 C 153 292.875 153.546 291.969 154.429 291.312 C 155.311 290.656 156.530 290.250 157.875 290.250 Z " transform="matrix(0.15406763553619385, -0.4156516194343567, 0.4156516194343567, 0.15406763553619385, -141.5, 46.05)"/>
  </g>
  <g id="ID0.24890166614204645" transform="matrix(1, 0, 0, 1, 7, -4)">
    <path id="ID0.5602954248897731" fill="#96D4FF" stroke="#4F7E83" stroke-width="2" d="M 157 285 C 160.862 285 164.362 286.569 166.897 289.103 C 169.431 291.638 171 295.138 171 299 C 171 302.862 169.431 306.362 166.897 308.897 C 164.362 311.431 160.862 313 157 313 C 153.138 313 149.638 311.431 147.103 308.897 C 144.569 306.362 143 302.862 143 299 C 143 295.138 144.569 291.638 147.103 289.103 C 149.638 286.569 153.138 285 157 285 Z " transform="matrix(0.429103821516037, -0.4236290454864502, 0.4236290454864502, 0.429103821516037, -168.25, -44.45)"/>
    <path id="ID0.026205711532384157" fill="#FFFFFF" stroke="none" d="M 157.875 290.250 C 159.220 290.250 160.439 290.656 161.321 291.312 C 162.204 291.969 162.750 292.875 162.750 293.875 C 162.750 294.875 162.204 295.781 161.321 296.438 C 160.439 297.094 159.220 297.500 157.875 297.500 C 156.530 297.500 155.311 297.094 154.429 296.438 C 153.546 295.781 153 294.875 153 293.875 C 153 292.875 153.546 291.969 154.429 291.312 C 155.311 290.656 156.530 290.250 157.875 290.250 Z " transform="matrix(0.4841171205043793, -0.47794046998023987, 0.47794046998023987, 0.4841171205043793, -194.75, -51.65)"/>
  </g>
  <g id="ID0.24890166614204645" transform="matrix(1, 0, 0, 1, 0, -3)">
    <path id="ID0.5602954248897731" fill="#96D4FF" stroke="#4F7E83" stroke-width="2" d="M 157 285 C 160.862 285 164.362 286.569 166.897 289.103 C 169.431 291.638 171 295.138 171 299 C 171 302.862 169.431 306.362 166.897 308.897 C 164.362 311.431 160.862 313 157 313 C 153.138 313 149.638 311.431 147.103 308.897 C 144.569 306.362 143 302.862 143 299 C 143 295.138 144.569 291.638 147.103 289.103 C 149.638 286.569 153.138 285 157 285 Z " transform="matrix(-0.1124344989657402, 0.3958204686641693, 0.3958204686641693, 0.1124344989657402, -28.75, -82.1)"/>
    <path id="ID0.026205711532384157" fill="#FFFFFF" stroke="none" d="M 157.875 290.250 C 159.220 290.250 160.439 290.656 161.321 291.312 C 162.204 291.969 162.750 292.875 162.750 293.875 C 162.750 294.875 162.204 295.781 161.321 296.438 C 160.439 297.094 159.220 297.500 157.875 297.500 C 156.530 297.500 155.311 297.094 154.429 296.438 C 153.546 295.781 153 294.875 153 293.875 C 153 292.875 153.546 291.969 154.429 291.312 C 155.311 290.656 156.530 290.250 157.875 290.250 Z " transform="matrix(-0.12684917449951172, 0.4465666711330414, 0.4465666711330414, 0.12684917449951172, -41.7, -95.55)"/>
  </g>
  <g id="ID0.24890166614204645" transform="matrix(1, 0, 0, 1, 0, -3)">
    <path id="ID0.5602954248897731" fill="#96D4FF" stroke="#4F7E83" stroke-width="2" d="M 157 285 C 160.862 285 164.362 286.569 166.897 289.103 C 169.431 291.638 171 295.138 171 299 C 171 302.862 169.431 306.362 166.897 308.897 C 164.362 311.431 160.862 313 157 313 C 153.138 313 149.638 311.431 147.103 308.897 C 144.569 306.362 143 302.862 143 299 C 143 295.138 144.569 291.638 147.103 289.103 C 149.638 286.569 153.138 285 157 285 Z " transform="matrix(0.13655994832515717, 0.36841848492622375, 0.36841848492622375, -0.13655994832515717, -33.5, 1.5)"/>
    <path id="ID0.026205711532384157" fill="#FFFFFF" stroke="none" d="M 157.875 290.250 C 159.220 290.250 160.439 290.656 161.321 291.312 C 162.204 291.969 162.750 292.875 162.750 293.875 C 162.750 294.875 162.204 295.781 161.321 296.438 C 160.439 297.094 159.220 297.500 157.875 297.500 C 156.530 297.500 155.311 297.094 154.429 296.438 C 153.546 295.781 153 294.875 153 293.875 C 153 292.875 153.546 291.969 154.429 291.312 C 155.311 290.656 156.530 290.250 157.875 290.250 Z " transform="matrix(0.15406763553619385, 0.4156516194343567, 0.4156516194343567, -0.15406763553619385, -51.1, -1.5)"/>
  </g>
  <g id="ID0.24890166614204645" transform="matrix(1, 0, 0, 1, 2, -7)">
    <path id="ID0.5602954248897731" fill="#96D4FF" stroke="#4F7E83" stroke-width="2" d="M 157 285 C 160.862 285 164.362 286.569 166.897 289.103 C 169.431 291.638 171 295.138 171 299 C 171 302.862 169.431 306.362 166.897 308.897 C 164.362 311.431 160.862 313 157 313 C 153.138 313 149.638 311.431 147.103 308.897 C 144.569 306.362 143 302.862 143 299 C 143 295.138 144.569 291.638 147.103 289.103 C 149.638 286.569 153.138 285 157 285 Z " transform="matrix(0.429103821516037, 0.4236290454864502, 0.4236290454864502, -0.429103821516037, -77.9, 88.95)"/>
    <path id="ID0.026205711532384157" fill="#FFFFFF" stroke="none" d="M 157.875 290.250 C 159.220 290.250 160.439 290.656 161.321 291.312 C 162.204 291.969 162.750 292.875 162.750 293.875 C 162.750 294.875 162.204 295.781 161.321 296.438 C 160.439 297.094 159.220 297.500 157.875 297.500 C 156.530 297.500 155.311 297.094 154.429 296.438 C 153.546 295.781 153 294.875 153 293.875 C 153 292.875 153.546 291.969 154.429 291.312 C 155.311 290.656 156.530 290.250 157.875 290.250 Z " transform="matrix(0.4841171205043793, 0.47794046998023987, 0.47794046998023987, -0.4841171205043793, -104.35, 96.15)"/>
  </g>
  <g id="ID0.24890166614204645" transform="matrix(1, 0, 0, 1, 6, -3)">
    <path id="ID0.5602954248897731" fill="#96D4FF" stroke="#4F7E83" stroke-width="2" d="M 157 285 C 160.862 285 164.362 286.569 166.897 289.103 C 169.431 291.638 171 295.138 171 299 C 171 302.862 169.431 306.362 166.897 308.897 C 164.362 311.431 160.862 313 157 313 C 153.138 313 149.638 311.431 147.103 308.897 C 144.569 306.362 143 302.862 143 299 C 143 295.138 144.569 291.638 147.103 289.103 C 149.638 286.569 153.138 285 157 285 Z " transform="matrix(0.1124344989657402, -0.3958204686641693, -0.3958204686641693, -0.1124344989657402, 234.1, 109.4)"/>
    <path id="ID0.026205711532384157" fill="#FFFFFF" stroke="none" d="M 157.875 290.250 C 159.220 290.250 160.439 290.656 161.321 291.312 C 162.204 291.969 162.750 292.875 162.750 293.875 C 162.750 294.875 162.204 295.781 161.321 296.438 C 160.439 297.094 159.220 297.500 157.875 297.500 C 156.530 297.500 155.311 297.094 154.429 296.438 C 153.546 295.781 153 294.875 153 293.875 C 153 292.875 153.546 291.969 154.429 291.312 C 155.311 290.656 156.530 290.250 157.875 290.250 Z " transform="matrix(0.12684917449951172, -0.4465666711330414, -0.4465666711330414, -0.12684917449951172, 247.05, 122.85)"/>
  </g>
  <g id="ID0.24890166614204645" transform="matrix(1, 0, 0, 1, 21, 1)">
    <path id="ID0.5602954248897731" fill="#96D4FF" stroke="#4F7E83" stroke-width="2" d="M 157 285 C 160.862 285 164.362 286.569 166.897 289.103 C 169.431 291.638 171 295.138 171 299 C 171 302.862 169.431 306.362 166.897 308.897 C 164.362 311.431 160.862 313 157 313 C 153.138 313 149.638 311.431 147.103 308.897 C 144.569 306.362 143 302.862 143 299 C 143 295.138 144.569 291.638 147.103 289.103 C 149.638 286.569 153.138 285 157 285 Z " transform="matrix(-0.5274384021759033, 0.37245088815689087, -0.37245088815689087, -0.5274384021759033, 365.3, 114.1)"/>
    <path id="ID0.026205711532384157" fill="#FFFFFF" stroke="none" d="M 157.875 290.250 C 159.220 290.250 160.439 290.656 161.321 291.312 C 162.204 291.969 162.750 292.875 162.750 293.875 C 162.750 294.875 162.204 295.781 161.321 296.438 C 160.439 297.094 159.220 297.500 157.875 297.500 C 156.530 297.500 155.311 297.094 154.429 296.438 C 153.546 295.781 153 294.875 153 293.875 C 153 292.875 153.546 291.969 154.429 291.312 C 155.311 290.656 156.530 290.250 157.875 290.250 Z " transform="matrix(-0.5950586795806885, 0.42020100355148315, -0.42020100355148315, -0.5950586795806885, 392, 126.3)"/>
  </g>
  <g id="ID0.24890166614204645" transform="matrix(1, 0, 0, 1, 0, -7)">
    <path id="ID0.5602954248897731" fill="#96D4FF" stroke="#4F7E83" stroke-width="2" d="M 157 285 C 160.862 285 164.362 286.569 166.897 289.103 C 169.431 291.638 171 295.138 171 299 C 171 302.862 169.431 306.362 166.897 308.897 C 164.362 311.431 160.862 313 157 313 C 153.138 313 149.638 311.431 147.103 308.897 C 144.569 306.362 143 302.862 143 299 C 143 295.138 144.569 291.638 147.103 289.103 C 149.638 286.569 153.138 285 157 285 Z " transform="matrix(-0.1124344989657402, -0.3958204686641693, 0.3958204686641693, -0.1124344989657402, 61.6, 126.6)"/>
    <path id="ID0.026205711532384157" fill="#FFFFFF" stroke="none" d="M 157.875 290.250 C 159.220 290.250 160.439 290.656 161.321 291.312 C 162.204 291.969 162.750 292.875 162.750 293.875 C 162.750 294.875 162.204 295.781 161.321 296.438 C 160.439 297.094 159.220 297.500 157.875 297.500 C 156.530 297.500 155.311 297.094 154.429 296.438 C 153.546 295.781 153 294.875 153 293.875 C 153 292.875 153.546 291.969 154.429 291.312 C 155.311 290.656 156.530 290.250 157.875 290.250 Z " transform="matrix(-0.12684917449951172, -0.4465666711330414, 0.4465666711330414, -0.12684917449951172, 48.65, 140.05)"/>
  </g>
</svg>