<svg version="1.1" width="350" height="42" viewBox="-1 -1 350 42" xmlns="http://www.w3.org/2000/svg" xmlns:xlink="http://www.w3.org/1999/xlink">
  <!-- Exported by Scratch - http://scratch.mit.edu/ -->
  <g id="ID0.13694870378822088" transform="matrix(1, 0, 0, 1, -18, -161)">
    <g id="ID0.25953190866857767" transform="matrix(1, 0, 0, 1, 18, 161)">
      <path id="ID0.3160514016635716" fill="#D5A800" stroke="#D5A800" stroke-width="2" stroke-linecap="round" d="M 228.500 170.500 C 232.296 171.045 234.928 166.021 238.500 164.500 C 244.363 162.018 249.561 159.369 255.500 158.500 C 263.756 157.296 273.426 154.998 281.500 158.500 C 284.947 160.118 284.069 166.694 282.500 170.500 C 276.935 183.952 269.421 196.908 260 208 C 257.643 210.777 253.443 209.705 250.500 209 C 246.810 208.115 243 205.846 240.500 203.500 C 237.036 200.239 234.439 195.804 232 192 C 230.063 188.998 230.197 183.777 227 182.500 C 223.954 181.286 221.027 186.757 218 187 C 216.344 187.120 214.318 185.587 214 184 C 213.553 181.667 215.317 179.576 215.500 177 C 215.654 175.013 215.763 173.125 215.500 171 C 215.101 167.658 212.121 162.820 214 161 C 215.804 159.393 220.031 161.471 222.500 163 C 225.352 164.776 225.344 170.044 228.500 170.500 Z " transform="matrix(0.30471888184547424, 0, 0, 0.30471888184547424, 27.6, -25.65)"/>
      <path id="ID0.9766952991485596" fill="#D8D8D8" stroke="#D8D8D8" stroke-width="2" stroke-linecap="round" d="M 290.500 197.500 C 292.456 197.202 293.658 200.076 294.750 201.750 C 296.095 203.816 297.174 205.979 298 208.250 C 298.339 209.208 299.173 210.364 298.500 211 C 297.151 212.280 295.027 212.021 293.250 212.250 C 292.108 212.401 290.604 213.089 289.500 212.500 C 288.045 211.723 286.661 210.141 286 208.500 C 285.325 206.832 284.807 204.601 285.500 202.750 C 286.443 200.600 288.088 197.870 290.500 197.500 Z " transform="matrix(0.30471888184547424, 0, 0, 0.30471888184547424, 27.6, -25.65)"/>
      <path id="ID0.6063170093111694" fill="#FE9300" stroke="#FE9300" stroke-width="2" stroke-linecap="round" d="M 300.500 175.500 C 303.824 176.015 304.433 180.896 305.500 184 C 306.650 187.374 307.105 190.628 307.500 194 C 307.707 195.763 306.954 197.752 307.500 199.500 C 308.208 201.768 311.452 203.242 311 205 C 310.702 206.742 307.630 207.115 306 206.500 C 299.804 204.135 294.380 199.486 288.500 197 C 286.486 196.176 281.809 198.331 282 196 C 282.430 190.842 286.750 186.296 290 182.500 C 292.718 179.312 296.425 174.909 300.500 175.500 Z " transform="matrix(0.30471888184547424, 0, 0, 0.30471888184547424, 27.6, -25.65)"/>
      <path id="ID0.5334869814105332" fill="#156699" stroke="#156699" stroke-width="2" stroke-linecap="round" d="M 265 163 C 270.277 162.856 276.060 162.766 281.500 163.500 C 284.928 163.969 288.488 164.066 291.500 165.500 C 294.875 167.713 298.878 170.291 300 174 C 300.540 175.819 296.648 176.215 295 177.500 C 292.825 179.049 292.177 180.377 291 182 C 289.220 184.317 288.372 186.893 287.500 189.500 C 286.271 193.196 285.626 197.456 285.500 201.500 C 285.389 205.388 290.713 211.634 287.500 213.500 C 282.648 216.306 275.044 212.420 269 211 C 264.894 210.033 260.405 208.953 256.500 207 C 253.103 205.309 249.592 202.983 246.500 200.500 C 243.891 198.401 240.887 196.710 239 194 C 236.809 190.837 236.700 186.141 234.500 182.500 C 233.104 180.491 227.599 180.198 228.500 177.500 C 229.985 173.129 235.382 171.096 239.500 169 C 242.901 167.246 247.046 165.889 251 165 C 255.263 164.034 260.297 163.115 265 163 Z " transform="matrix(0.30471888184547424, 0, 0, 0.30471888184547424, 27.6, -25.65)"/>
      <path id="ID0.3526467867195606" fill="#000000" stroke="#000000" stroke-width="2" d="M 309 174.750 C 311.223 175.749 311.602 179.499 311.250 182 C 311.012 183.676 308.411 184.060 307.500 185.500 C 306.431 187.187 306.056 189.289 305 191 C 304.319 192.096 302.555 192.704 302 194 C 301.465 195.202 301.829 196.540 302.500 197.500 C 303.890 199.458 305.332 201.379 307.250 202.500 C 310.070 203.963 316.694 204.435 316.250 205 C 315.799 205.572 308.176 207.213 304.750 205.500 C 301.626 203.929 301.234 199.066 299.250 196 C 298.752 195.232 297.668 195.218 297.250 194.500 C 296.296 192.829 294.998 190.589 295.250 188.500 C 295.517 186.264 297.173 184.181 298.500 182.250 C 299.584 180.659 300.676 178.739 302.250 177.500 C 304.280 176.164 306.827 173.790 309 174.750 Z " transform="matrix(0.30471888184547424, 0, 0, 0.30471888184547424, 25.85, -24.75)"/>
      <path id="ID0.5240444806404412" fill="#FFFFFF" stroke="none" d="M 299 188.750 C 300.793 188.750 302.418 189.450 303.595 190.582 C 304.772 191.713 305.500 193.276 305.500 195 C 305.500 196.724 304.772 198.287 303.595 199.418 C 302.418 200.550 300.793 201.250 299 201.250 C 297.207 201.250 295.582 200.550 294.405 199.418 C 293.228 198.287 292.500 196.724 292.500 195 C 292.500 193.276 293.228 191.713 294.405 190.582 C 295.582 189.450 297.207 188.750 299 188.750 Z " transform="matrix(0.30471888184547424, 0, 0, 0.30471888184547424, 27.15, -26.5)"/>
      <path id="ID0.7714696801267564" fill="none" stroke="#000000" stroke-width="2" stroke-linecap="round" d="M 296.750 192 C 295.799 191.704 297.205 193.337 297.500 194 C 297.661 194.361 296.122 193.558 295.750 193 C 295.378 192.442 295.140 191.566 295.500 191 C 295.882 190.400 296.852 189.956 297.500 190.250 C 298.148 190.544 297.865 191.652 298.250 192.250 C 298.632 192.844 299.814 193.109 299.750 193.750 C 299.689 194.359 298.623 194.501 298 194.750 C 297.363 195.005 296.641 195.496 296 195.250 C 295.332 194.993 294.976 194.179 294.750 193.500 C 294.539 192.868 294.750 192.166 294.750 191.500 C 294.750 191.250 294.488 190.512 294.750 190.750 Z " transform="matrix(0.30471888184547424, 0, 0, 0.30471888184547424, 27.6, -25.65)"/>
      <path id="ID0.9720923146232963" fill="none" stroke="#000000" stroke-width="2" stroke-linecap="round" d="M 297.500 191.750 C 297.593 193.090 297.485 193.631 297.500 193.750 C 297.504 193.780 297.758 193.750 297.750 193.750 Z " transform="matrix(0.30471888184547424, 0, 0, 0.30471888184547424, 27.6, -25.65)"/>
      <path id="ID0.47732368437573314" fill="#000000" stroke="none" d="M 259.250 197 C 259.250 197 259.250 197.014 259.250 197.037 C 259.250 197.059 259.250 197.091 259.250 197.125 C 259.250 197.159 259.250 197.191 259.250 197.213 C 259.250 197.236 259.250 197.250 259.250 197.250 C 259.250 197.250 259.250 197.236 259.250 197.213 C 259.250 197.191 259.250 197.159 259.250 197.125 C 259.250 197.091 259.250 197.059 259.250 197.037 C 259.250 197.014 259.250 197 259.250 197 Z " transform="matrix(0.30471888184547424, 0, 0, 0.30471888184547424, 27.6, -25.65)"/>
      <path id="ID0.5334869814105332" fill="#0F4B67" stroke="#0F4B67" stroke-width="2" stroke-linecap="round" d="M 236.250 177.200 C 238.854 179.376 237.988 183.530 239.250 186.450 C 240.091 188.157 241.403 189.526 242.500 190.950 C 243.660 192.440 244.821 193.817 246.250 195.200 C 247.778 196.613 249.504 197.748 251.250 198.950 C 253.088 200.158 255.012 201.205 257 202.200 C 259.932 203.587 262.948 204.831 266 205.950 C 268.888 206.954 271.791 208.113 274.750 208.950 C 275.995 209.309 277.273 208.763 278.500 208.950 C 279.209 209.070 279.995 209.469 280.750 209.700 C 283.093 210.422 287.308 210.735 288 212.200 C 288.485 213.252 284.964 214.822 283.250 214.700 C 278.288 214.401 273.669 212.357 269 211 C 264.804 209.779 260.405 208.953 256.500 207 C 253.103 205.309 249.592 202.983 246.500 200.500 C 243.891 198.401 240.887 196.710 239 194 C 236.809 190.837 236.700 186.141 234.500 182.500 C 233.104 180.491 228.044 178.893 228.500 177.500 C 228.967 176.097 234.267 175.546 236.250 177.200 Z " transform="matrix(0.30471888184547424, 0, 0, 0.30471888184547424, 27.6, -25.65)"/>
    </g>
    <g id="ID0.22971575800329447" transform="matrix(1, 0, 0, 1, 18, 161)">
      <path id="ID0.15444352198392153" fill="#156699" stroke="none" stroke-linecap="round" d="M 126.750 43.750 C 128.348 45.765 129.717 47.882 130.500 50.250 C 131.316 52.737 131.595 55.560 131.500 58.250 C 131.256 60.648 130.695 63.056 129.500 65.250 C 127.247 69.389 123.905 75.692 121.250 76.750 C 119.664 77.388 120.932 71.285 120.500 68.500 C 119.932 64.368 119.965 59.994 118.250 56 C 116.810 52.615 112.682 48.940 111.500 47.250 C 110.942 46.443 116.084 51.782 115 50.500 C 112.929 48.325 108.839 44.232 105.500 41.250 C 102.424 38.400 94.788 34.860 95.750 33 C 96.739 31.095 104.856 32.542 109.250 33.500 C 113.082 34.337 116.882 35.927 120.250 38 C 122.691 39.498 124.954 41.490 126.750 43.750 Z " transform="matrix(0.28325462341308594, -0.02896539680659771, 0.02896539680659771, 0.28325462341308594, 24.3, 5.95)"/>
      <path id="ID0.8846706752665341" fill="#FF6500" stroke="none" stroke-linecap="round" d="M 172.500 29.500 C 178.602 27.258 187.615 25.571 192 28.500 C 194.644 30.274 188.165 35.642 187 39.500 C 185.618 43.893 184.287 48.257 185 52.500 C 185.505 57.130 188.107 61.250 190.500 65 C 192.326 67.923 197.665 70.406 197 73 C 196.241 75.721 190.319 75.731 187 76.500 C 181.614 77.758 175.978 79.257 170.500 78.500 C 163.472 77.519 156.742 75.557 150.500 72.500 C 147.143 70.844 143.945 67.639 142 64 C 140.897 61.903 141.296 59.150 142 56.500 C 143.207 52.047 144.606 47.242 148 44 C 155.139 37.915 163.532 32.796 172.500 29.500 Z " transform="matrix(0.28325462341308594, -0.02896539680659771, 0.02896539680659771, 0.28325462341308594, 19.05, 4.85)"/>
      <path id="ID0.5688502001576126" fill="#FFB327" stroke="none" stroke-linecap="round" d="M 204.500 33 C 208.445 35.703 212.402 38.772 215.500 42.500 C 218.069 45.590 218.613 49.646 220.500 53.500 C 221.487 55.588 223.784 57.725 223 60 C 221.878 63.205 218.022 64.681 215 66.500 C 210.394 69.251 205.183 72.154 200 72.500 C 197.008 72.705 194.204 69.732 192.500 67.500 C 189.243 63.246 186.370 57.963 185.500 53 C 184.630 48.036 186.072 42.607 187.500 38 C 188.610 34.428 189.899 29.447 193.500 28.500 C 197.268 27.514 201.033 30.987 204.500 33 Z " transform="matrix(0.28325462341308594, -0.02896539680659771, 0.02896539680659771, 0.28325462341308594, 18.9, 5)"/>
      <path id="ID0.7559871361590922" fill="#156699" stroke="none" stroke-linecap="round" d="M 173 15.500 C 176.552 16.907 180.326 18.676 183 21.500 C 184.522 23.107 185.307 25.191 185 27 C 184.828 27.978 182.764 26.746 181.500 27 C 179.223 27.589 177.103 29.116 174.500 29.500 C 172.202 29.841 169.330 31.101 167.500 29.500 C 165.210 27.472 166.888 23.450 165.500 20.500 C 164.074 17.447 158.294 12.962 160 12 C 162.394 10.668 168.833 13.856 173 15.500 Z " transform="matrix(0.28325462341308594, -0.02896539680659771, 0.02896539680659771, 0.28325462341308594, 19.35, 5.1)"/>
      <path id="ID0.7559871361590922" fill="#156699" stroke="none" stroke-linecap="round" d="M 173 15.500 C 176.552 16.907 180.326 18.676 183 21.500 C 184.522 23.107 185.307 25.191 185 27 C 184.828 27.978 182.764 26.746 181.500 27 C 179.223 27.589 177.103 29.116 174.500 29.500 C 172.202 29.841 169.330 31.101 167.500 29.500 C 165.210 27.472 166.888 23.450 165.500 20.500 C 164.074 17.447 158.294 12.962 160 12 C 162.394 10.668 168.833 13.856 173 15.500 Z " transform="matrix(0.14023293554782867, -0.07412896305322647, -0.07412896305322647, -0.14023293554782867, 52.55, 37.65)"/>
      <path id="ID0.7559871361590922" fill="#156699" stroke="none" stroke-linecap="round" d="M 173 15.500 C 176.552 16.907 180.326 18.676 183 21.500 C 184.522 23.107 185.307 25.191 185 27 C 184.828 27.978 182.764 26.746 181.500 27 C 179.223 27.589 177.103 29.116 174.500 29.500 C 172.202 29.841 169.330 31.101 167.500 29.500 C 165.210 27.472 166.888 23.450 165.500 20.500 C 164.074 17.447 158.294 12.962 160 12 C 162.394 10.668 168.833 13.856 173 15.500 Z " transform="matrix(0.10009558498859406, -0.05291184037923813, -0.05291184037923813, -0.10009558498859406, 54.9, 34.1)"/>
      <g id="ID0.200826785992831">
        <path id="ID0.45205234037712216" fill="#FFFFFF" stroke="none" d="M 204.500 44.500 C 206.914 44.500 209.102 45.480 210.686 47.064 C 212.270 48.648 213.250 50.836 213.250 53.250 C 213.250 55.664 212.270 57.852 210.686 59.436 C 209.102 61.020 206.914 62 204.500 62 C 202.086 62 199.898 61.020 198.314 59.436 C 196.730 57.852 195.750 55.664 195.750 53.250 C 195.750 50.836 196.730 48.648 198.314 47.064 C 199.898 45.480 202.086 44.500 204.500 44.500 Z " transform="matrix(0.311580091714859, -0.031861938536167145, 0.031861938536167145, 0.311580091714859, 12.95, 3.2)"/>
        <path id="ID0.5682034506462514" fill="#000000" stroke="none" stroke-linecap="round" d="M 203.875 48.500 C 205.157 48.976 204.318 51.441 205.250 52.500 C 206.370 53.493 208.958 52.758 209.500 54.125 C 210.023 55.455 208.870 57.083 207.851 58.101 C 206.833 59.120 205.427 59.750 203.875 59.750 C 202.323 59.750 200.917 59.120 199.899 58.101 C 198.880 57.083 198.250 55.677 198.250 54.125 C 198.250 52.573 198.880 51.167 199.899 50.149 C 200.917 49.130 202.534 48.005 203.875 48.500 Z " transform="matrix(0.28325462341308594, -0.02896539680659771, 0.02896539680659771, 0.28325462341308594, 18.9, 4.05)"/>
      </g>
    </g>
    <g id="ID0.1571304271928966" transform="matrix(1, 0, 0, 1, 18, 161)">
      <path id="ID0.7064403598196805" fill="#FEC93E" stroke="none" stroke-linecap="round" d="M 230.500 231.250 C 232.089 230.404 233.955 230.107 235.750 229.750 C 239.143 229.437 246.327 227.829 246 229.250 C 245.664 230.712 237.995 233.834 234.500 236.750 C 232.851 237.966 231.079 239.499 230.750 241.500 C 230.449 243.316 231.738 244.963 232.500 246.750 C 233.166 248.329 234.408 249.641 234.500 251.500 C 234.557 252.983 233.538 254.494 232.500 255.500 C 230.939 257.007 229.103 258.843 227 259 C 224.115 259.216 221.342 257.296 218.750 256.250 C 215.228 254.832 209.293 254.712 208.500 251.250 C 207.636 247.481 212.246 244.050 215.250 241.250 C 219.692 237.110 225.144 234.104 230.500 231.250 Z " transform="matrix(0.2853225767612457, 0.03976035863161087, -0.03976035863161087, 0.2853225767612457, -35.95, -67.2)"/>
      <path id="ID0.2519802562892437" fill="#FEC93E" stroke="none" stroke-linecap="round" d="M 219 308.500 C 224.760 307.795 231.044 304.882 236.750 306 C 238.538 306.382 235.074 309.758 234 311.500 C 232.415 314.057 230.331 316.075 229.250 318.750 C 228.325 321.031 226.007 325.339 228.250 325.500 C 233.882 326.339 244.565 320.145 245 320.750 C 245.435 321.355 236.538 328.638 231.500 330.750 C 228.038 332.201 223.795 332.145 220.250 331.500 C 217.750 331.046 215.067 329.515 213.750 327.500 C 211.805 324.524 211.477 320.567 210.750 317.250 C 210.174 314.628 207.968 311.182 209.750 309.250 C 211.824 307.004 215.933 308.876 219 308.500 Z " transform="matrix(0.2853225767612457, 0.03976035863161087, -0.03976035863161087, 0.2853225767612457, -37.2, -65.95)"/>
      <path id="ID0.4992571324110031" fill="#FEC93E" stroke="none" stroke-linecap="round" d="M 306.750 303.250 C 309.969 303.881 313.159 305.951 314.750 309 C 316.356 312.103 315.458 316.080 314.750 319.500 C 314.433 321.010 313.367 322.249 312.250 323.250 C 311.106 324.270 308.236 326.302 308.250 325.250 C 308.236 323.462 312.053 320.396 312.250 317.500 C 312.420 314.965 311.358 311.543 309 310.250 C 306.428 308.976 303.218 310.748 300.250 311.250 C 297.284 311.753 294.557 312.879 291.500 313.500 C 287.462 314.317 283.418 315.303 279.250 315.250 C 275.169 315.197 271.269 314.167 267.250 312.750 C 264.812 311.888 262.817 310.141 260.750 308.500 C 258.908 307.031 255.304 305.290 256 303.250 C 256.994 300.378 261.565 300.124 264 298.250 C 265.724 296.921 266.590 293.214 268.750 293.750 C 271.622 294.464 271.776 299.211 274.250 300.750 C 276.856 302.372 280.237 302.562 283.250 302.750 C 291.060 303.236 299.084 301.748 306.750 303.250 Z " transform="matrix(0.2853225767612457, 0.03976035863161087, -0.03976035863161087, 0.2853225767612457, -37.2, -69.15)"/>
      <path id="ID0.4335831757634878" fill="#FEC93E" stroke="none" stroke-linecap="round" d="M 282.500 262.750 C 285.688 261.366 287.997 258.398 290.250 255.750 C 292.265 253.384 293.587 250.562 294.750 247.750 C 295.278 246.843 294.708 245.666 295.250 244.750 C 296.579 242.530 299.956 239.060 300.500 239 C 301.044 238.940 298.976 242.572 298.750 244.500 C 297.971 248.520 298.021 252.648 297.500 256.750 C 297.007 260.619 297.696 265.387 295.250 268.250 C 291.785 272.297 285.866 273.682 281.250 276 C 277.985 277.635 274.556 279.222 271.250 280.500 C 268.180 281.688 264.988 283.844 261.750 283.250 C 258.239 282.605 255.596 279.603 252.750 277.500 C 251.401 276.331 248.618 275.106 249.250 273.500 C 250.412 270.548 253.816 268.764 256.750 267.500 C 259.821 266.181 263.268 266.197 266.500 265.500 C 271.844 264.615 277.551 264.898 282.500 262.750 Z " transform="matrix(0.2853225767612457, 0.03976035863161087, -0.03976035863161087, 0.2853225767612457, -35.95, -67.2)"/>
      <path id="ID0.7443878236226737" fill="#156699" stroke="none" stroke-linecap="round" d="M 224 257.500 C 232.163 261.084 239.603 266.312 246.531 271.310 C 252.300 275.471 262.258 278.446 262.500 285.500 C 262.244 293.591 253.027 299.469 246.500 304 C 239.061 309.170 229.909 312.435 221 313.500 C 212.819 314.473 200.725 315.519 196.500 310 C 193.200 305.674 203.804 299.085 206.500 293 C 208.997 288.029 212.006 282.810 212 277 C 212 271.737 209.148 267.100 207 262 C 205.562 258.567 199.163 252.634 202 252 C 207.932 250.691 217.164 254.580 224 257.500 Z " transform="matrix(0.2853225767612457, 0.03976035863161087, -0.03976035863161087, 0.2853225767612457, -35.95, -67.2)"/>
      <path id="ID0.4867734210565686" fill="#FEC93E" stroke="none" stroke-linecap="round" d="M 198 253 C 202.245 252.136 207.380 255.916 209.500 260 C 212.710 266.264 212.818 274.022 212 281 C 211.246 287.449 207.908 293.565 204.500 299 C 201.758 302.647 198.306 307.682 194 307.500 C 186.721 307.192 180.197 302.318 174.500 297.500 C 171.692 295.118 171.325 290.652 171 287 C 170.844 285.212 174.046 284.333 174 282.500 C 173.958 280.191 170.980 278.516 171.500 276 C 172.382 272.043 175.460 268.686 178.500 266 C 184.267 260.911 190.179 254.472 198 253 Z " transform="matrix(0.2853225767612457, 0.03976035863161087, -0.03976035863161087, 0.2853225767612457, -35.95, -67.2)"/>
      <g id="ID0.200826785992831">
        <path id="ID0.45205234037712216" fill="#FFFFFF" stroke="none" d="M 204.500 44.500 C 206.914 44.500 209.102 45.480 210.686 47.064 C 212.270 48.648 213.250 50.836 213.250 53.250 C 213.250 55.664 212.270 57.852 210.686 59.436 C 209.102 61.020 206.914 62 204.500 62 C 202.086 62 199.898 61.020 198.314 59.436 C 196.730 57.852 195.750 55.664 195.750 53.250 C 195.750 50.836 196.730 48.648 198.314 47.064 C 199.898 45.480 202.086 44.500 204.500 44.500 Z " transform="matrix(0.313854843378067, 0.043736398220062256, -0.043736398220062256, 0.313854843378067, -52.9, -6.9)"/>
        <path id="ID0.5682034506462514" fill="#000000" stroke="none" stroke-linecap="round" d="M 203.875 48.500 C 205.157 48.976 204.318 51.441 205.250 52.500 C 206.370 53.493 208.958 52.758 209.500 54.125 C 210.023 55.455 208.870 57.083 207.851 58.101 C 206.833 59.120 205.427 59.750 203.875 59.750 C 202.323 59.750 200.917 59.120 199.899 58.101 C 198.880 57.083 198.250 55.677 198.250 54.125 C 198.250 52.573 198.880 51.167 199.899 50.149 C 200.917 49.130 202.534 48.005 203.875 48.500 Z " transform="matrix(0.2853225767612457, 0.03976035863161087, -0.03976035863161087, 0.2853225767612457, -47.3, -4.65)"/>
      </g>
      <path id="ID0.8089016047306359" fill="#0F506D" stroke="none" stroke-linecap="round" d="M 226.250 281.250 L 218.500 265.500 L 234.500 284 L 218 296.500 L 226.250 281.250 Z " transform="matrix(0.2853225767612457, 0.03976035863161087, -0.03976035863161087, 0.2853225767612457, -37.1, -67.25)"/>
      <path id="ID0.8089016047306359" fill="#0F506D" stroke="none" stroke-linecap="round" d="M 226 282.750 L 218.750 271.500 L 234.500 284 L 217.250 293.750 L 226 282.750 Z " transform="matrix(0.2853225767612457, 0.03976035863161087, -0.03976035863161087, 0.2853225767612457, -31.05, -66.2)"/>
    </g>
    <g id="ID0.9654617104679346" transform="matrix(1, 0, 0, 1, 18, 161)">
      <path id="ID0.042643893510103226" fill="#0074B4" stroke="none" stroke-linecap="round" d="M 345.500 43.500 C 352.226 40.920 364.285 37.186 367 41 C 369.641 44.721 359.934 52.951 357 58.750 C 356.240 60.259 356.356 62.300 355.315 63.522 C 354.274 64.744 352.836 65.500 351.250 65.500 C 349.664 65.500 348.226 64.744 347.185 63.522 C 346.144 62.300 346.457 60.133 345.500 58.750 C 343.657 56.129 338.232 54.934 338 51.500 C 338.232 47.912 342.204 44.763 345.500 43.500 Z " transform="matrix(0.29237398505210876, 0.045474451035261154, -0.045474451035261154, 0.29237398505210876, 67.1, -20.85)"/>
      <path id="ID0.2613167092204094" fill="#0084C9" stroke="none" stroke-linecap="round" d="M 331.500 58 C 340.311 58.032 349.029 59.803 357.500 62 C 362.281 63.275 365.981 65.969 370.500 67 C 377.140 68.536 383.821 69.391 390.500 69 C 394.861 68.748 398.933 66.835 402.500 64.500 C 406.907 61.595 414.259 49.896 414 52.500 C 413.607 57.068 406.879 72.390 401 81 C 398.213 85.071 393.472 87.202 389.500 90 C 384.456 93.045 379.690 97.290 374 98.500 C 364.068 100.616 353.576 99.708 343.500 99 C 336.495 98.501 330.107 94.690 323 94 C 317.366 93.448 312.435 92.811 306 94.500 C 297.405 96.586 289.223 100.280 281 103.500 C 276.539 105.248 272.143 107.884 267.500 108.500 C 265.141 108.817 262.298 107.412 261 105.500 C 259.797 103.705 260.835 100.810 262 99 C 263.311 96.993 265.622 96.206 268 95 C 271.622 93.188 275.736 92.491 279.500 91 C 282.122 89.969 284.940 89.188 286.500 87 C 290.451 82.471 291.701 76.148 295.500 71.500 C 298.871 67.379 303.008 63.674 308.172 61.737 C 315.215 59.103 323.241 57.971 331.500 58 Z " transform="matrix(0.29237398505210876, 0.045474451035261154, -0.045474451035261154, 0.29237398505210876, 65.3, -23.55)"/>
      <path id="ID0.2703171642497182" fill="#0084C9" stroke="none" stroke-linecap="round" d="M 402 11 C 403.979 11.181 402.002 18.582 403.250 22 C 404.314 25.262 407.082 27.571 408.750 30.500 C 409.510 31.851 408.932 33.874 410 35 C 411.060 36.113 413.210 35.527 414.750 36.250 C 416.348 37.139 417.679 38.552 419.250 39.750 C 421.646 41.579 423.648 44.040 426.250 45.500 C 428.623 47.076 434.615 47.495 434 48.750 C 433.250 50.288 426.954 52.513 423.250 52 C 416.053 51.002 407.785 49.418 402.750 44 C 397.201 38.286 394.443 29.644 394.250 21.500 C 394.148 17.156 399.740 10.797 402 11 Z " transform="matrix(0.29237398505210876, 0.045474451035261154, -0.045474451035261154, 0.29237398505210876, 67.1, -20.85)"/>
      <path id="ID0.23363662092015147" fill="#0084C9" stroke="none" stroke-linecap="round" d="M 307.500 93 C 313.403 90.529 320.479 92.813 326.750 92.750 C 328.416 92.733 330.398 91.938 331.750 92.900 C 333.256 93.980 333.414 96.219 334.500 97.750 C 336.083 100.422 337.077 103.815 339.750 105.500 C 343.355 107.777 349.277 106.663 352 109.250 C 353.261 110.451 349.368 112.456 347.500 113.250 C 343.730 114.855 339.599 116.125 335.500 116 C 330.373 115.845 325.149 114.261 320.500 112.500 C 317.694 111.436 315.228 109.616 313 107.500 C 310.995 105.590 309.505 103.098 308.500 100.500 C 307.596 98.150 305.232 93.951 307.500 93 Z " transform="matrix(0.29237398505210876, 0.045474451035261154, -0.045474451035261154, 0.29237398505210876, 76.1, -19.8)"/>
      <path id="ID0.8955960888415575" fill="#B9DFF5" stroke="none" stroke-linecap="round" d="M 348.500 94.900 C 356.828 94.074 364.724 90.502 372.500 87.400 C 376.682 85.723 379.988 83.161 383.500 80.750 C 386.324 78.993 389.383 77.500 391.500 74.900 C 395.721 69.694 398.543 63.542 401.750 57.750 C 403.789 54.415 406.633 44.911 407.250 47.500 C 408.660 53.743 409.066 66.843 406.250 75.750 C 403.404 84.750 398.305 93.835 390.750 99.500 C 379.373 108.022 365.480 112.541 352 116.750 C 344.690 119.030 337.034 119.506 329.500 119.250 C 324.033 119.065 318.555 117.327 313.250 115.750 C 307.591 114.069 301.808 112.016 296.250 109.750 C 292.977 108.418 289.993 106.012 286.500 105.250 C 282.117 104.219 278.641 105.941 274.750 105.750 C 266.381 104.854 264.327 102.788 264.500 100.400 C 265.089 97.425 269.799 95.466 273 93.900 C 277.344 91.790 282.608 90.777 287.500 89.400 C 292.113 88.108 295.629 86.648 299.750 85.750 C 302.836 85.308 305.215 85.260 309 85.400 C 315.030 85.720 321.085 86.643 327 87.900 C 330.872 88.727 333.830 89.999 337.250 91 C 340.991 92.330 344.181 95.296 348.500 94.900 Z " transform="matrix(0.29237398505210876, 0.045474451035261154, -0.045474451035261154, 0.29237398505210876, 67.1, -20.85)"/>
      <path id="ID0.20290940441191196" fill="#006CA8" stroke="none" stroke-linecap="round" d="M 313.250 105.500 C 315.749 104.614 320.363 107.191 323.750 107.750 C 325.565 108.048 327.412 108.249 329.250 108.250 C 330.819 108.246 332.742 106.764 334.250 107.500 C 335.557 108.150 335.324 110.181 336.250 111.250 C 338.053 113.334 340.371 114.872 342.500 116.500 C 343.703 117.623 347.044 118.488 346.250 119.500 C 344.815 121.315 341.196 121.780 338.500 122.250 C 336.824 122.543 335.027 122.256 333.250 122 C 331.258 121.586 329.170 121.154 327.250 120.250 C 325.037 119.207 323.110 117.572 321.250 116 C 319.341 114.138 317.694 112.065 316 110 C 314.891 108.642 311.923 105.985 313.250 105.500 Z " transform="matrix(0.29237398505210876, 0.045474451035261154, -0.045474451035261154, 0.29237398505210876, 67.3, -17.4)"/>
      <path id="ID0.2685543983243406" fill="#720402" stroke="none" stroke-linecap="round" d="M 262.500 111.500 C 266.045 110.482 269.759 110.083 273.250 109 C 275.819 108.203 278.469 107.443 280.750 106 C 282.626 104.898 283.891 101.399 285.500 101.500 C 286.710 101.604 287.072 105.331 286.250 106.750 C 285.368 108.256 283.169 108.481 281.500 109 C 278.612 109.897 275.645 110.605 272.750 111.500 C 269.605 112.473 266.389 113.190 263.350 114.350 C 259.377 116.028 254.644 120.035 251.750 120 C 250.335 119.982 253.099 115.774 254.750 114.500 C 256.953 112.800 259.871 112.318 262.500 111.500 Z " transform="matrix(0.29237398505210876, 0.045474451035261154, -0.045474451035261154, 0.29237398505210876, 71.05, -26.15)"/>
      <path id="ID0.020179532933980227" fill="#FFFFFF" stroke="none" d="M 327.750 102.500 C 327.750 102.500 327.750 102.514 327.750 102.537 C 327.750 102.559 327.750 102.591 327.750 102.625 C 327.750 102.659 327.750 102.691 327.750 102.713 C 327.750 102.736 327.750 102.750 327.750 102.750 C 327.750 102.750 327.750 102.736 327.750 102.713 C 327.750 102.691 327.750 102.659 327.750 102.625 C 327.750 102.591 327.750 102.559 327.750 102.537 C 327.750 102.514 327.750 102.500 327.750 102.500 Z " transform="matrix(0.29237398505210876, 0.045474451035261154, -0.045474451035261154, 0.29237398505210876, 56.2, -42)"/>
      <g id="ID0.01900169951841235">
        <path id="ID0.1263936124742031" fill="#FFFFFF" stroke="none" d="M 287.875 89.750 C 288.944 89.750 289.913 90.184 290.614 90.886 C 291.316 91.587 291.750 92.556 291.750 93.625 C 291.750 94.694 291.316 95.663 290.614 96.364 C 289.913 97.066 288.944 97.500 287.875 97.500 C 286.806 97.500 285.837 97.066 285.136 96.364 C 284.434 95.663 284 94.694 284 93.625 C 284 92.556 284.434 91.587 285.136 90.886 C 285.837 90.184 286.806 89.750 287.875 89.750 Z " transform="matrix(0.29237398505210876, 0.045474451035261154, -0.045474451035261154, 0.29237398505210876, 71.25, -26.1)"/>
        <path id="ID0.3772318004630506" fill="#612C2F" stroke="none" d="M 288.375 91.250 C 289.168 91.250 289.887 91.572 290.407 92.093 C 290.928 92.613 291.250 93.332 291.250 94.125 C 291.250 94.918 290.928 95.637 290.407 96.157 C 289.887 96.678 289.168 97 288.375 97 C 287.582 97 286.863 96.678 286.343 96.157 C 285.822 95.637 285.500 94.918 285.500 94.125 C 285.500 93.332 285.822 92.613 286.343 92.093 C 286.863 91.572 287.582 91.250 288.375 91.250 Z " transform="matrix(0.34322163462638855, 0.05338304862380028, -0.05338304862380028, 0.34322163462638855, 57.3, -33.2)"/>
        <path id="ID0.5327137666754425" fill="#FFFFFF" stroke="none" d="M 297.125 91 C 297.435 91 297.717 91.126 297.920 91.330 C 298.124 91.533 298.250 91.815 298.250 92.125 C 298.250 92.435 298.124 92.717 297.920 92.920 C 297.717 93.124 297.435 93.250 297.125 93.250 C 296.815 93.250 296.533 93.124 296.330 92.920 C 296.126 92.717 296 92.435 296 92.125 C 296 91.815 296.126 91.533 296.330 91.330 C 296.533 91.126 296.815 91 297.125 91 Z " transform="matrix(0.29237398505210876, 0.045474451035261154, -0.045474451035261154, 0.29237398505210876, 68.45, -26.25)"/>
        <path id="ID0.5327137666754425" fill="#FFFFFF" stroke="none" d="M 297.125 91 C 297.435 91 297.717 91.126 297.920 91.330 C 298.124 91.533 298.250 91.815 298.250 92.125 C 298.250 92.435 298.124 92.717 297.920 92.920 C 297.717 93.124 297.435 93.250 297.125 93.250 C 296.815 93.250 296.533 93.124 296.330 92.920 C 296.126 92.717 296 92.435 296 92.125 C 296 91.815 296.126 91.533 296.330 91.330 C 296.533 91.126 296.815 91 297.125 91 Z " transform="matrix(0.17796677350997925, 0.02768009901046753, -0.02768009901046753, 0.17796677350997925, 100.95, -10.15)"/>
      </g>
    </g>
    <g id="ID0.25953190866857767" transform="matrix(1, 0, 0, 1, 18, 161)">
      <path id="ID0.3160514016635716" fill="#D5A800" stroke="#D5A800" stroke-width="2" stroke-linecap="round" d="M 228.500 170.500 C 232.296 171.045 234.928 166.021 238.500 164.500 C 244.363 162.018 249.561 159.369 255.500 158.500 C 263.756 157.296 273.426 154.998 281.500 158.500 C 284.947 160.118 284.069 166.694 282.500 170.500 C 276.935 183.952 269.421 196.908 260 208 C 257.643 210.777 253.443 209.705 250.500 209 C 246.810 208.115 243 205.846 240.500 203.500 C 237.036 200.239 234.439 195.804 232 192 C 230.063 188.998 230.197 183.777 227 182.500 C 223.954 181.286 221.027 186.757 218 187 C 216.344 187.120 214.318 185.587 214 184 C 213.553 181.667 215.317 179.576 215.500 177 C 215.654 175.013 215.763 173.125 215.500 171 C 215.101 167.658 212.121 162.820 214 161 C 215.804 159.393 220.031 161.471 222.500 163 C 225.352 164.776 225.344 170.044 228.500 170.500 Z " transform="matrix(-0.3694818913936615, -0.15866419672966003, -0.15866419672966003, 0.3694818913936615, 352.8, -3.75)"/>
      <path id="ID0.9766952991485596" fill="#D8D8D8" stroke="#D8D8D8" stroke-width="2" stroke-linecap="round" d="M 290.500 197.500 C 292.456 197.202 293.658 200.076 294.750 201.750 C 296.095 203.816 297.174 205.979 298 208.250 C 298.339 209.208 299.173 210.364 298.500 211 C 297.151 212.280 295.027 212.021 293.250 212.250 C 292.108 212.401 290.604 213.089 289.500 212.500 C 288.045 211.723 286.661 210.141 286 208.500 C 285.325 206.832 284.807 204.601 285.500 202.750 C 286.443 200.600 288.088 197.870 290.500 197.500 Z " transform="matrix(-0.3694818913936615, -0.15866419672966003, -0.15866419672966003, 0.3694818913936615, 352.8, -3.75)"/>
      <path id="ID0.6063170093111694" fill="#FE9300" stroke="#FE9300" stroke-width="2" stroke-linecap="round" d="M 300.500 175.500 C 303.824 176.015 304.433 180.896 305.500 184 C 306.650 187.374 307.105 190.628 307.500 194 C 307.707 195.763 306.954 197.752 307.500 199.500 C 308.208 201.768 311.452 203.242 311 205 C 310.702 206.742 307.630 207.115 306 206.500 C 299.804 204.135 294.380 199.486 288.500 197 C 286.486 196.176 281.809 198.331 282 196 C 282.430 190.842 286.750 186.296 290 182.500 C 292.718 179.312 296.425 174.909 300.500 175.500 Z " transform="matrix(-0.3694818913936615, -0.15866419672966003, -0.15866419672966003, 0.3694818913936615, 352.8, -3.75)"/>
      <path id="ID0.5334869814105332" fill="#156699" stroke="#156699" stroke-width="2" stroke-linecap="round" d="M 265 163 C 270.277 162.856 276.060 162.766 281.500 163.500 C 284.928 163.969 288.488 164.066 291.500 165.500 C 294.875 167.713 298.878 170.291 300 174 C 300.540 175.819 296.648 176.215 295 177.500 C 292.825 179.049 292.177 180.377 291 182 C 289.220 184.317 288.372 186.893 287.500 189.500 C 286.271 193.196 285.626 197.456 285.500 201.500 C 285.389 205.388 290.713 211.634 287.500 213.500 C 282.648 216.306 275.044 212.420 269 211 C 264.894 210.033 260.405 208.953 256.500 207 C 253.103 205.309 249.592 202.983 246.500 200.500 C 243.891 198.401 240.887 196.710 239 194 C 236.809 190.837 236.700 186.141 234.500 182.500 C 233.104 180.491 227.599 180.198 228.500 177.500 C 229.985 173.129 235.382 171.096 239.500 169 C 242.901 167.246 247.046 165.889 251 165 C 255.263 164.034 260.297 163.115 265 163 Z " transform="matrix(-0.3694818913936615, -0.15866419672966003, -0.15866419672966003, 0.3694818913936615, 352.8, -3.75)"/>
      <path id="ID0.3526467867195606" fill="#000000" stroke="#000000" stroke-width="2" d="M 309 174.750 C 311.223 175.749 311.602 179.499 311.250 182 C 311.012 183.676 308.411 184.060 307.500 185.500 C 306.431 187.187 306.056 189.289 305 191 C 304.319 192.096 302.555 192.704 302 194 C 301.465 195.202 301.829 196.540 302.500 197.500 C 303.890 199.458 305.332 201.379 307.250 202.500 C 310.070 203.963 316.694 204.435 316.250 205 C 315.799 205.572 308.176 207.213 304.750 205.500 C 301.626 203.929 301.234 199.066 299.250 196 C 298.752 195.232 297.668 195.218 297.250 194.500 C 296.296 192.829 294.998 190.589 295.250 188.500 C 295.517 186.264 297.173 184.181 298.500 182.250 C 299.584 180.659 300.676 178.739 302.250 177.500 C 304.280 176.164 306.827 173.790 309 174.750 Z " transform="matrix(-0.3694818913936615, -0.15866419672966003, -0.15866419672966003, 0.3694818913936615, 354.45, -1.7)"/>
      <path id="ID0.5240444806404412" fill="#FFFFFF" stroke="none" d="M 299 188.750 C 300.793 188.750 302.418 189.450 303.595 190.582 C 304.772 191.713 305.500 193.276 305.500 195 C 305.500 196.724 304.772 198.287 303.595 199.418 C 302.418 200.550 300.793 201.250 299 201.250 C 297.207 201.250 295.582 200.550 294.405 199.418 C 293.228 198.287 292.500 196.724 292.500 195 C 292.500 193.276 293.228 191.713 294.405 190.582 C 295.582 189.450 297.207 188.750 299 188.750 Z " transform="matrix(-0.3694818913936615, -0.15866419672966003, -0.15866419672966003, 0.3694818913936615, 353.8, -4.5)"/>
      <path id="ID0.7714696801267564" fill="none" stroke="#000000" stroke-width="2" stroke-linecap="round" d="M 296.750 192 C 295.799 191.704 297.205 193.337 297.500 194 C 297.661 194.361 296.122 193.558 295.750 193 C 295.378 192.442 295.140 191.566 295.500 191 C 295.882 190.400 296.852 189.956 297.500 190.250 C 298.148 190.544 297.865 191.652 298.250 192.250 C 298.632 192.844 299.814 193.109 299.750 193.750 C 299.689 194.359 298.623 194.501 298 194.750 C 297.363 195.005 296.641 195.496 296 195.250 C 295.332 194.993 294.976 194.179 294.750 193.500 C 294.539 192.868 294.750 192.166 294.750 191.500 C 294.750 191.250 294.488 190.512 294.750 190.750 Z " transform="matrix(-0.3694818913936615, -0.15866419672966003, -0.15866419672966003, 0.3694818913936615, 352.8, -3.75)"/>
      <path id="ID0.9720923146232963" fill="none" stroke="#000000" stroke-width="2" stroke-linecap="round" d="M 297.500 191.750 C 297.593 193.090 297.485 193.631 297.500 193.750 C 297.504 193.780 297.758 193.750 297.750 193.750 Z " transform="matrix(-0.3694818913936615, -0.15866419672966003, -0.15866419672966003, 0.3694818913936615, 352.8, -3.75)"/>
      <path id="ID0.47732368437573314" fill="#000000" stroke="none" d="M 259.250 197 C 259.250 197 259.250 197.014 259.250 197.037 C 259.250 197.059 259.250 197.091 259.250 197.125 C 259.250 197.159 259.250 197.191 259.250 197.213 C 259.250 197.236 259.250 197.250 259.250 197.250 C 259.250 197.250 259.250 197.236 259.250 197.213 C 259.250 197.191 259.250 197.159 259.250 197.125 C 259.250 197.091 259.250 197.059 259.250 197.037 C 259.250 197.014 259.250 197 259.250 197 Z " transform="matrix(-0.3694818913936615, -0.15866419672966003, -0.15866419672966003, 0.3694818913936615, 352.8, -3.75)"/>
      <path id="ID0.5334869814105332" fill="#0F4B67" stroke="#0F4B67" stroke-width="2" stroke-linecap="round" d="M 236.250 177.200 C 238.854 179.376 237.988 183.530 239.250 186.450 C 240.091 188.157 241.403 189.526 242.500 190.950 C 243.660 192.440 244.821 193.817 246.250 195.200 C 247.778 196.613 249.504 197.748 251.250 198.950 C 253.088 200.158 255.012 201.205 257 202.200 C 259.932 203.587 262.948 204.831 266 205.950 C 268.888 206.954 271.791 208.113 274.750 208.950 C 275.995 209.309 277.273 208.763 278.500 208.950 C 279.209 209.070 279.995 209.469 280.750 209.700 C 283.093 210.422 287.308 210.735 288 212.200 C 288.485 213.252 284.964 214.822 283.250 214.700 C 278.288 214.401 273.669 212.357 269 211 C 264.804 209.779 260.405 208.953 256.500 207 C 253.103 205.309 249.592 202.983 246.500 200.500 C 243.891 198.401 240.887 196.710 239 194 C 236.809 190.837 236.700 186.141 234.500 182.500 C 233.104 180.491 228.044 178.893 228.500 177.500 C 228.967 176.097 234.267 175.546 236.250 177.200 Z " transform="matrix(-0.3694818913936615, -0.15866419672966003, -0.15866419672966003, 0.3694818913936615, 352.8, -3.7)"/>
    </g>
    <g id="ID0.22971575800329447" transform="matrix(1, 0, 0, 1, 18, 161)">
      <path id="ID0.15444352198392153" fill="#156699" stroke="none" stroke-linecap="round" d="M 126.750 43.750 C 128.348 45.765 129.717 47.882 130.500 50.250 C 131.316 52.737 131.595 55.560 131.500 58.250 C 131.256 60.648 130.695 63.056 129.500 65.250 C 127.247 69.389 123.905 75.692 121.250 76.750 C 119.664 77.388 120.932 71.285 120.500 68.500 C 119.932 64.368 119.965 59.994 118.250 56 C 116.810 52.615 112.682 48.940 111.500 47.250 C 110.942 46.443 116.084 51.782 115 50.500 C 112.929 48.325 108.839 44.232 105.500 41.250 C 102.424 38.400 94.788 34.860 95.750 33 C 96.739 31.095 104.856 32.542 109.250 33.500 C 113.082 34.337 116.882 35.927 120.250 38 C 122.691 39.498 124.954 41.490 126.750 43.750 Z " transform="matrix(0.2750067412853241, 0.08883959800004959, -0.08883959800004959, 0.2750067412853241, 239.65, -14.25)"/>
      <path id="ID0.8846706752665341" fill="#FF6500" stroke="none" stroke-linecap="round" d="M 172.500 29.500 C 178.602 27.258 187.615 25.571 192 28.500 C 194.644 30.274 188.165 35.642 187 39.500 C 185.618 43.893 184.287 48.257 185 52.500 C 185.505 57.130 188.107 61.250 190.500 65 C 192.326 67.923 197.665 70.406 197 73 C 196.241 75.721 190.319 75.731 187 76.500 C 181.614 77.758 175.978 79.257 170.500 78.500 C 163.472 77.519 156.742 75.557 150.500 72.500 C 147.143 70.844 143.945 67.639 142 64 C 140.897 61.903 141.296 59.150 142 56.500 C 143.207 52.047 144.606 47.242 148 44 C 155.139 37.915 163.532 32.796 172.500 29.500 Z " transform="matrix(0.2750067412853241, 0.08883959800004959, -0.08883959800004959, 0.2750067412853241, 235.2, -17.45)"/>
      <path id="ID0.5688502001576126" fill="#FFB327" stroke="none" stroke-linecap="round" d="M 204.500 33 C 208.445 35.703 212.402 38.772 215.500 42.500 C 218.069 45.590 218.613 49.646 220.500 53.500 C 221.487 55.588 223.784 57.725 223 60 C 221.878 63.205 218.022 64.681 215 66.500 C 210.394 69.251 205.183 72.154 200 72.500 C 197.008 72.705 194.204 69.732 192.500 67.500 C 189.243 63.246 186.370 57.963 185.500 53 C 184.630 48.036 186.072 42.607 187.500 38 C 188.610 34.428 189.899 29.447 193.500 28.500 C 197.268 27.514 201.033 30.987 204.500 33 Z " transform="matrix(0.2750067412853241, 0.08883959800004959, -0.08883959800004959, 0.2750067412853241, 235.05, -17.35)"/>
      <path id="ID0.7559871361590922" fill="#156699" stroke="none" stroke-linecap="round" d="M 173 15.500 C 176.552 16.907 180.326 18.676 183 21.500 C 184.522 23.107 185.307 25.191 185 27 C 184.828 27.978 182.764 26.746 181.500 27 C 179.223 27.589 177.103 29.116 174.500 29.500 C 172.202 29.841 169.330 31.101 167.500 29.500 C 165.210 27.472 166.888 23.450 165.500 20.500 C 164.074 17.447 158.294 12.962 160 12 C 162.394 10.668 168.833 13.856 173 15.500 Z " transform="matrix(0.2750067412853241, 0.08883959800004959, -0.08883959800004959, 0.2750067412853241, 235.4, -17.1)"/>
      <path id="ID0.7559871361590922" fill="#156699" stroke="none" stroke-linecap="round" d="M 173 15.500 C 176.552 16.907 180.326 18.676 183 21.500 C 184.522 23.107 185.307 25.191 185 27 C 184.828 27.978 182.764 26.746 181.500 27 C 179.223 27.589 177.103 29.116 174.500 29.500 C 172.202 29.841 169.330 31.101 167.500 29.500 C 165.210 27.472 166.888 23.450 165.500 20.500 C 164.074 17.447 158.294 12.962 160 12 C 162.394 10.668 168.833 13.856 173 15.500 Z " transform="matrix(0.16058212518692017, -0.011566982604563236, -0.011566982604563236, -0.16058212518692017, 252.95, 26.65)"/>
      <path id="ID0.7559871361590922" fill="#156699" stroke="none" stroke-linecap="round" d="M 173 15.500 C 176.552 16.907 180.326 18.676 183 21.500 C 184.522 23.107 185.307 25.191 185 27 C 184.828 27.978 182.764 26.746 181.500 27 C 179.223 27.589 177.103 29.116 174.500 29.500 C 172.202 29.841 169.330 31.101 167.500 29.500 C 165.210 27.472 166.888 23.450 165.500 20.500 C 164.074 17.447 158.294 12.962 160 12 C 162.394 10.668 168.833 13.856 173 15.500 Z " transform="matrix(0.11462045460939407, -0.008256294764578342, -0.008256294764578342, -0.11462045460939407, 256.55, 24.35)"/>
      <g id="ID0.200826785992831">
        <path id="ID0.45205234037712216" fill="#FFFFFF" stroke="none" d="M 204.500 44.500 C 206.914 44.500 209.102 45.480 210.686 47.064 C 212.270 48.648 213.250 50.836 213.250 53.250 C 213.250 55.664 212.270 57.852 210.686 59.436 C 209.102 61.020 206.914 62 204.500 62 C 202.086 62 199.898 61.020 198.314 59.436 C 196.730 57.852 195.750 55.664 195.750 53.250 C 195.750 50.836 196.730 48.648 198.314 47.064 C 199.898 45.480 202.086 44.500 204.500 44.500 Z " transform="matrix(0.3025074303150177, 0.09772355854511261, -0.09772355854511261, 0.3025074303150177, 230.2, -21.45)"/>
        <path id="ID0.5682034506462514" fill="#000000" stroke="none" stroke-linecap="round" d="M 203.875 48.500 C 205.157 48.976 204.318 51.441 205.250 52.500 C 206.370 53.493 208.958 52.758 209.500 54.125 C 210.023 55.455 208.870 57.083 207.851 58.101 C 206.833 59.120 205.427 59.750 203.875 59.750 C 202.323 59.750 200.917 59.120 199.899 58.101 C 198.880 57.083 198.250 55.677 198.250 54.125 C 198.250 52.573 198.880 51.167 199.899 50.149 C 200.917 49.130 202.534 48.005 203.875 48.500 Z " transform="matrix(0.2750067412853241, 0.08883959800004959, -0.08883959800004959, 0.2750067412853241, 235.4, -18.25)"/>
      </g>
    </g>
    <g id="ID0.1571304271928966" transform="matrix(-0.9250670075416565, 0.37980392575263977, 0.37980392575263977, 0.9250670075416565, 643.3, 37.55)">
      <path id="ID0.7064403598196805" fill="#FEC93E" stroke="none" stroke-linecap="round" d="M 230.500 231.250 C 232.089 230.404 233.955 230.107 235.750 229.750 C 239.143 229.437 246.327 227.829 246 229.250 C 245.664 230.712 237.995 233.834 234.500 236.750 C 232.851 237.966 231.079 239.499 230.750 241.500 C 230.449 243.316 231.738 244.963 232.500 246.750 C 233.166 248.329 234.408 249.641 234.500 251.500 C 234.557 252.983 233.538 254.494 232.500 255.500 C 230.939 257.007 229.103 258.843 227 259 C 224.115 259.216 221.342 257.296 218.750 256.250 C 215.228 254.832 209.293 254.712 208.500 251.250 C 207.636 247.481 212.246 244.050 215.250 241.250 C 219.692 237.110 225.144 234.104 230.500 231.250 Z " transform="matrix(-0.2853225767612457, 0.03976035863161087, 0.03976035863161087, 0.2853225767612457, 386, -67.7)"/>
      <path id="ID0.2519802562892437" fill="#FEC93E" stroke="none" stroke-linecap="round" d="M 219 308.500 C 224.760 307.795 231.044 304.882 236.750 306 C 238.538 306.382 235.074 309.758 234 311.500 C 232.415 314.057 230.331 316.075 229.250 318.750 C 228.325 321.031 226.007 325.339 228.250 325.500 C 233.882 326.339 244.565 320.145 245 320.750 C 245.435 321.355 236.538 328.638 231.500 330.750 C 228.038 332.201 223.795 332.145 220.250 331.500 C 217.750 331.046 215.067 329.515 213.750 327.500 C 211.805 324.524 211.477 320.567 210.750 317.250 C 210.174 314.628 207.968 311.182 209.750 309.250 C 211.824 307.004 215.933 308.876 219 308.500 Z " transform="matrix(-0.2853225767612457, 0.03976035863161087, 0.03976035863161087, 0.2853225767612457, 387.25, -66.45)"/>
      <path id="ID0.4992571324110031" fill="#FEC93E" stroke="none" stroke-linecap="round" d="M 306.750 303.250 C 309.969 303.881 313.159 305.951 314.750 309 C 316.356 312.103 315.458 316.080 314.750 319.500 C 314.433 321.010 313.367 322.249 312.250 323.250 C 311.106 324.270 308.236 326.302 308.250 325.250 C 308.236 323.462 312.053 320.396 312.250 317.500 C 312.420 314.965 311.358 311.543 309 310.250 C 306.428 308.976 303.218 310.748 300.250 311.250 C 297.284 311.753 294.557 312.879 291.500 313.500 C 287.462 314.317 283.418 315.303 279.250 315.250 C 275.169 315.197 271.269 314.167 267.250 312.750 C 264.812 311.888 262.817 310.141 260.750 308.500 C 258.908 307.031 255.304 305.290 256 303.250 C 256.994 300.378 261.565 300.124 264 298.250 C 265.724 296.921 266.590 293.214 268.750 293.750 C 271.622 294.464 271.776 299.211 274.250 300.750 C 276.856 302.372 280.237 302.562 283.250 302.750 C 291.060 303.236 299.084 301.748 306.750 303.250 Z " transform="matrix(-0.2853225767612457, 0.03976035863161087, 0.03976035863161087, 0.2853225767612457, 387.25, -69.65)"/>
      <path id="ID0.4335831757634878" fill="#FEC93E" stroke="none" stroke-linecap="round" d="M 282.500 262.750 C 285.688 261.366 287.997 258.398 290.250 255.750 C 292.265 253.384 293.587 250.562 294.750 247.750 C 295.278 246.843 294.708 245.666 295.250 244.750 C 296.579 242.530 299.956 239.060 300.500 239 C 301.044 238.940 298.976 242.572 298.750 244.500 C 297.971 248.520 298.021 252.648 297.500 256.750 C 297.007 260.619 297.696 265.387 295.250 268.250 C 291.785 272.297 285.866 273.682 281.250 276 C 277.985 277.635 274.556 279.222 271.250 280.500 C 268.180 281.688 264.988 283.844 261.750 283.250 C 258.239 282.605 255.596 279.603 252.750 277.500 C 251.401 276.331 248.618 275.106 249.250 273.500 C 250.412 270.548 253.816 268.764 256.750 267.500 C 259.821 266.181 263.268 266.197 266.500 265.500 C 271.844 264.615 277.551 264.898 282.500 262.750 Z " transform="matrix(-0.2853225767612457, 0.03976035863161087, 0.03976035863161087, 0.2853225767612457, 386, -67.7)"/>
      <path id="ID0.7443878236226737" fill="#156699" stroke="none" stroke-linecap="round" d="M 224 257.500 C 232.163 261.084 239.603 266.312 246.531 271.310 C 252.300 275.471 262.258 278.446 262.500 285.500 C 262.244 293.591 253.027 299.469 246.500 304 C 239.061 309.170 229.909 312.435 221 313.500 C 212.819 314.473 200.725 315.519 196.500 310 C 193.200 305.674 203.804 299.085 206.500 293 C 208.997 288.029 212.006 282.810 212 277 C 212 271.737 209.148 267.100 207 262 C 205.562 258.567 199.163 252.634 202 252 C 207.932 250.691 217.164 254.580 224 257.500 Z " transform="matrix(-0.2853225767612457, 0.03976035863161087, 0.03976035863161087, 0.2853225767612457, 386, -67.7)"/>
      <path id="ID0.4867734210565686" fill="#FEC93E" stroke="none" stroke-linecap="round" d="M 198 253 C 202.245 252.136 207.380 255.916 209.500 260 C 212.710 266.264 212.818 274.022 212 281 C 211.246 287.449 207.908 293.565 204.500 299 C 201.758 302.647 198.306 307.682 194 307.500 C 186.721 307.192 180.197 302.318 174.500 297.500 C 171.692 295.118 171.325 290.652 171 287 C 170.844 285.212 174.046 284.333 174 282.500 C 173.958 280.191 170.980 278.516 171.500 276 C 172.382 272.043 175.460 268.686 178.500 266 C 184.267 260.911 190.179 254.472 198 253 Z " transform="matrix(-0.2853225767612457, 0.03976035863161087, 0.03976035863161087, 0.2853225767612457, 386, -67.7)"/>
      <g id="ID0.200826785992831">
        <path id="ID0.45205234037712216" fill="#FFFFFF" stroke="none" d="M 204.500 44.500 C 206.914 44.500 209.102 45.480 210.686 47.064 C 212.270 48.648 213.250 50.836 213.250 53.250 C 213.250 55.664 212.270 57.852 210.686 59.436 C 209.102 61.020 206.914 62 204.500 62 C 202.086 62 199.898 61.020 198.314 59.436 C 196.730 57.852 195.750 55.664 195.750 53.250 C 195.750 50.836 196.730 48.648 198.314 47.064 C 199.898 45.480 202.086 44.500 204.500 44.500 Z " transform="matrix(-0.313854843378067, 0.043736398220062256, 0.043736398220062256, 0.313854843378067, 402.95, -7.4)"/>
        <path id="ID0.5682034506462514" fill="#000000" stroke="none" stroke-linecap="round" d="M 203.875 48.500 C 205.157 48.976 204.318 51.441 205.250 52.500 C 206.370 53.493 208.958 52.758 209.500 54.125 C 210.023 55.455 208.870 57.083 207.851 58.101 C 206.833 59.120 205.427 59.750 203.875 59.750 C 202.323 59.750 200.917 59.120 199.899 58.101 C 198.880 57.083 198.250 55.677 198.250 54.125 C 198.250 52.573 198.880 51.167 199.899 50.149 C 200.917 49.130 202.534 48.005 203.875 48.500 Z " transform="matrix(-0.2853225767612457, 0.03976035863161087, 0.03976035863161087, 0.2853225767612457, 397.35, -5.15)"/>
      </g>
      <path id="ID0.8089016047306359" fill="#0F506D" stroke="none" stroke-linecap="round" d="M 226.250 281.250 L 218.500 265.500 L 234.500 284 L 218 296.500 L 226.250 281.250 Z " transform="matrix(-0.2853225767612457, 0.03976035863161087, 0.03976035863161087, 0.2853225767612457, 387.15, -67.75)"/>
      <path id="ID0.8089016047306359" fill="#0F506D" stroke="none" stroke-linecap="round" d="M 226 282.750 L 218.750 271.500 L 234.500 284 L 217.250 293.750 L 226 282.750 Z " transform="matrix(-0.2853225767612457, 0.03976035863161087, 0.03976035863161087, 0.2853225767612457, 381.1, -66.7)"/>
    </g>
    <g id="ID0.9654617104679346" transform="matrix(-0.9984326362609863, -0.055967751890420914, -0.055967751890420914, 0.9984326362609863, 572.55, 173.3)">
      <path id="ID0.042643893510103226" fill="#0074B4" stroke="none" stroke-linecap="round" d="M 345.500 43.500 C 352.226 40.920 364.285 37.186 367 41 C 369.641 44.721 359.934 52.951 357 58.750 C 356.240 60.259 356.356 62.300 355.315 63.522 C 354.274 64.744 352.836 65.500 351.250 65.500 C 349.664 65.500 348.226 64.744 347.185 63.522 C 346.144 62.300 346.457 60.133 345.500 58.750 C 343.657 56.129 338.232 54.934 338 51.500 C 338.232 47.912 342.204 44.763 345.500 43.500 Z " transform="matrix(0.29237398505210876, 0.045474451035261154, -0.045474451035261154, 0.29237398505210876, 67.1, -20.85)"/>
      <path id="ID0.2613167092204094" fill="#0084C9" stroke="none" stroke-linecap="round" d="M 331.500 58 C 340.311 58.032 349.029 59.803 357.500 62 C 362.281 63.275 365.981 65.969 370.500 67 C 377.140 68.536 383.821 69.391 390.500 69 C 394.861 68.748 398.933 66.835 402.500 64.500 C 406.907 61.595 414.259 49.896 414 52.500 C 413.607 57.068 406.879 72.390 401 81 C 398.213 85.071 393.472 87.202 389.500 90 C 384.456 93.045 379.690 97.290 374 98.500 C 364.068 100.616 353.576 99.708 343.500 99 C 336.495 98.501 330.107 94.690 323 94 C 317.366 93.448 312.435 92.811 306 94.500 C 297.405 96.586 289.223 100.280 281 103.500 C 276.539 105.248 272.143 107.884 267.500 108.500 C 265.141 108.817 262.298 107.412 261 105.500 C 259.797 103.705 260.835 100.810 262 99 C 263.311 96.993 265.622 96.206 268 95 C 271.622 93.188 275.736 92.491 279.500 91 C 282.122 89.969 284.940 89.188 286.500 87 C 290.451 82.471 291.701 76.148 295.500 71.500 C 298.871 67.379 303.008 63.674 308.172 61.737 C 315.215 59.103 323.241 57.971 331.500 58 Z " transform="matrix(0.29237398505210876, 0.045474451035261154, -0.045474451035261154, 0.29237398505210876, 65.3, -23.55)"/>
      <path id="ID0.2703171642497182" fill="#0084C9" stroke="none" stroke-linecap="round" d="M 402 11 C 403.979 11.181 402.002 18.582 403.250 22 C 404.314 25.262 407.082 27.571 408.750 30.500 C 409.510 31.851 408.932 33.874 410 35 C 411.060 36.113 413.210 35.527 414.750 36.250 C 416.348 37.139 417.679 38.552 419.250 39.750 C 421.646 41.579 423.648 44.040 426.250 45.500 C 428.623 47.076 434.615 47.495 434 48.750 C 433.250 50.288 426.954 52.513 423.250 52 C 416.053 51.002 407.785 49.418 402.750 44 C 397.201 38.286 394.443 29.644 394.250 21.500 C 394.148 17.156 399.740 10.797 402 11 Z " transform="matrix(0.29237398505210876, 0.045474451035261154, -0.045474451035261154, 0.29237398505210876, 67.1, -20.85)"/>
      <path id="ID0.23363662092015147" fill="#0084C9" stroke="none" stroke-linecap="round" d="M 307.500 93 C 313.403 90.529 320.479 92.813 326.750 92.750 C 328.416 92.733 330.398 91.938 331.750 92.900 C 333.256 93.980 333.414 96.219 334.500 97.750 C 336.083 100.422 337.077 103.815 339.750 105.500 C 343.355 107.777 349.277 106.663 352 109.250 C 353.261 110.451 349.368 112.456 347.500 113.250 C 343.730 114.855 339.599 116.125 335.500 116 C 330.373 115.845 325.149 114.261 320.500 112.500 C 317.694 111.436 315.228 109.616 313 107.500 C 310.995 105.590 309.505 103.098 308.500 100.500 C 307.596 98.150 305.232 93.951 307.500 93 Z " transform="matrix(0.29237398505210876, 0.045474451035261154, -0.045474451035261154, 0.29237398505210876, 76.1, -19.8)"/>
      <path id="ID0.8955960888415575" fill="#B9DFF5" stroke="none" stroke-linecap="round" d="M 348.500 94.900 C 356.828 94.074 364.724 90.502 372.500 87.400 C 376.682 85.723 379.988 83.161 383.500 80.750 C 386.324 78.993 389.383 77.500 391.500 74.900 C 395.721 69.694 398.543 63.542 401.750 57.750 C 403.789 54.415 406.633 44.911 407.250 47.500 C 408.660 53.743 409.066 66.843 406.250 75.750 C 403.404 84.750 398.305 93.835 390.750 99.500 C 379.373 108.022 365.480 112.541 352 116.750 C 344.690 119.030 337.034 119.506 329.500 119.250 C 324.033 119.065 318.555 117.327 313.250 115.750 C 307.591 114.069 301.808 112.016 296.250 109.750 C 292.977 108.418 289.993 106.012 286.500 105.250 C 282.117 104.219 278.641 105.941 274.750 105.750 C 266.381 104.854 264.327 102.788 264.500 100.400 C 265.089 97.425 269.799 95.466 273 93.900 C 277.344 91.790 282.608 90.777 287.500 89.400 C 292.113 88.108 295.629 86.648 299.750 85.750 C 302.836 85.308 305.215 85.260 309 85.400 C 315.030 85.720 321.085 86.643 327 87.900 C 330.872 88.727 333.830 89.999 337.250 91 C 340.991 92.330 344.181 95.296 348.500 94.900 Z " transform="matrix(0.29237398505210876, 0.045474451035261154, -0.045474451035261154, 0.29237398505210876, 67.1, -20.85)"/>
      <path id="ID0.20290940441191196" fill="#006CA8" stroke="none" stroke-linecap="round" d="M 313.250 105.500 C 315.749 104.614 320.363 107.191 323.750 107.750 C 325.565 108.048 327.412 108.249 329.250 108.250 C 330.819 108.246 332.742 106.764 334.250 107.500 C 335.557 108.150 335.324 110.181 336.250 111.250 C 338.053 113.334 340.371 114.872 342.500 116.500 C 343.703 117.623 347.044 118.488 346.250 119.500 C 344.815 121.315 341.196 121.780 338.500 122.250 C 336.824 122.543 335.027 122.256 333.250 122 C 331.258 121.586 329.170 121.154 327.250 120.250 C 325.037 119.207 323.110 117.572 321.250 116 C 319.341 114.138 317.694 112.065 316 110 C 314.891 108.642 311.923 105.985 313.250 105.500 Z " transform="matrix(0.29237398505210876, 0.045474451035261154, -0.045474451035261154, 0.29237398505210876, 67.3, -17.4)"/>
      <path id="ID0.2685543983243406" fill="#720402" stroke="none" stroke-linecap="round" d="M 262.500 111.500 C 266.045 110.482 269.759 110.083 273.250 109 C 275.819 108.203 278.469 107.443 280.750 106 C 282.626 104.898 283.891 101.399 285.500 101.500 C 286.710 101.604 287.072 105.331 286.250 106.750 C 285.368 108.256 283.169 108.481 281.500 109 C 278.612 109.897 275.645 110.605 272.750 111.500 C 269.605 112.473 266.389 113.190 263.350 114.350 C 259.377 116.028 254.644 120.035 251.750 120 C 250.335 119.982 253.099 115.774 254.750 114.500 C 256.953 112.800 259.871 112.318 262.500 111.500 Z " transform="matrix(0.29237398505210876, 0.045474451035261154, -0.045474451035261154, 0.29237398505210876, 71.05, -26.15)"/>
      <path id="ID0.020179532933980227" fill="#FFFFFF" stroke="none" d="M 327.750 102.500 C 327.750 102.500 327.750 102.514 327.750 102.537 C 327.750 102.559 327.750 102.591 327.750 102.625 C 327.750 102.659 327.750 102.691 327.750 102.713 C 327.750 102.736 327.750 102.750 327.750 102.750 C 327.750 102.750 327.750 102.736 327.750 102.713 C 327.750 102.691 327.750 102.659 327.750 102.625 C 327.750 102.591 327.750 102.559 327.750 102.537 C 327.750 102.514 327.750 102.500 327.750 102.500 Z " transform="matrix(0.29237398505210876, 0.045474451035261154, -0.045474451035261154, 0.29237398505210876, 56.2, -42)"/>
      <g id="ID0.01900169951841235">
        <path id="ID0.1263936124742031" fill="#FFFFFF" stroke="none" d="M 287.875 89.750 C 288.944 89.750 289.913 90.184 290.614 90.886 C 291.316 91.587 291.750 92.556 291.750 93.625 C 291.750 94.694 291.316 95.663 290.614 96.364 C 289.913 97.066 288.944 97.500 287.875 97.500 C 286.806 97.500 285.837 97.066 285.136 96.364 C 284.434 95.663 284 94.694 284 93.625 C 284 92.556 284.434 91.587 285.136 90.886 C 285.837 90.184 286.806 89.750 287.875 89.750 Z " transform="matrix(0.29237398505210876, 0.045474451035261154, -0.045474451035261154, 0.29237398505210876, 71.25, -26.1)"/>
        <path id="ID0.3772318004630506" fill="#612C2F" stroke="none" d="M 288.375 91.250 C 289.168 91.250 289.887 91.572 290.407 92.093 C 290.928 92.613 291.250 93.332 291.250 94.125 C 291.250 94.918 290.928 95.637 290.407 96.157 C 289.887 96.678 289.168 97 288.375 97 C 287.582 97 286.863 96.678 286.343 96.157 C 285.822 95.637 285.500 94.918 285.500 94.125 C 285.500 93.332 285.822 92.613 286.343 92.093 C 286.863 91.572 287.582 91.250 288.375 91.250 Z " transform="matrix(0.34322163462638855, 0.05338304862380028, -0.05338304862380028, 0.34322163462638855, 57.3, -33.2)"/>
        <path id="ID0.5327137666754425" fill="#FFFFFF" stroke="none" d="M 297.125 91 C 297.435 91 297.717 91.126 297.920 91.330 C 298.124 91.533 298.250 91.815 298.250 92.125 C 298.250 92.435 298.124 92.717 297.920 92.920 C 297.717 93.124 297.435 93.250 297.125 93.250 C 296.815 93.250 296.533 93.124 296.330 92.920 C 296.126 92.717 296 92.435 296 92.125 C 296 91.815 296.126 91.533 296.330 91.330 C 296.533 91.126 296.815 91 297.125 91 Z " transform="matrix(0.29237398505210876, 0.045474451035261154, -0.045474451035261154, 0.29237398505210876, 68.45, -26.25)"/>
        <path id="ID0.5327137666754425" fill="#FFFFFF" stroke="none" d="M 297.125 91 C 297.435 91 297.717 91.126 297.920 91.330 C 298.124 91.533 298.250 91.815 298.250 92.125 C 298.250 92.435 298.124 92.717 297.920 92.920 C 297.717 93.124 297.435 93.250 297.125 93.250 C 296.815 93.250 296.533 93.124 296.330 92.920 C 296.126 92.717 296 92.435 296 92.125 C 296 91.815 296.126 91.533 296.330 91.330 C 296.533 91.126 296.815 91 297.125 91 Z " transform="matrix(0.17796677350997925, 0.02768009901046753, -0.02768009901046753, 0.17796677350997925, 100.95, -10.15)"/>
      </g>
    </g>
  </g>
</svg>