<svg version="1.1" width="189" height="153" viewBox="-1 -1 189 153" xmlns="http://www.w3.org/2000/svg" xmlns:xlink="http://www.w3.org/1999/xlink">
  <!-- Exported by Scratch - http://scratch.mit.edu/ -->
  <g id="ID0.2224607989192009" transform="matrix(0.9720298647880554, 0, 0, 0.9720298647880554, 0.25, -0.25)">
    <g id="ID0.6571062658913434">
      <path id="ID0.025416731368750334" fill="#AC9D93" stroke="#000000" stroke-width="2" stroke-linecap="round" d="M 237 222 C 249.844 222.609 262.812 219.658 275.500 221.500 C 278.675 221.961 276.931 226.111 278 228.250 C 279.031 230.226 283.806 233.379 281.500 234 C 272.816 236.385 263.325 234.600 254.250 234.750 C 243.001 234.937 231.731 234.922 220.500 234.500 C 205.956 233.954 191.279 233.363 176.750 232 C 161.560 230.575 145.325 232.645 131.500 226.500 C 126.391 224.100 124.727 213.131 128 210 C 131.343 206.806 139.139 212.382 144.750 213.250 C 150.966 214.547 157.186 215.918 163.500 216.500 C 187.987 218.757 212.484 220.838 237 222 Z " transform="matrix(0.8718572854995728, 0, 0, 0.8718572854995728, -109, -53.6)"/>
      <path id="ID0.06462631793692708" fill="#AC9D93" stroke="#000000" stroke-width="2" stroke-linecap="round" d="M 334.500 71 C 337.715 71.555 341.173 73.991 342.750 77 C 344.374 80.101 343.527 84.345 343.250 88 C 343.095 90.072 343.541 93.087 341.750 94.250 C 339.589 95.646 336.370 94.719 333.750 94.250 C 331.091 93.777 327.848 93.589 325.750 91.750 C 323.904 90.131 322.872 87.387 323.250 85 C 323.588 81.123 325.289 77.242 327.750 74.250 C 329.334 72.324 332.042 70.579 334.500 71 Z " transform="matrix(0.8718572854995728, 0, 0, 0.8718572854995728, -112.5, -51.4)"/>
      <path id="ID0.39883529115468264" fill="#F3F0ED" stroke="#000000" stroke-width="2" stroke-linecap="round" d="M 252.250 64 C 264.576 63.746 277.010 64.022 289.250 65.500 C 301.908 67.024 314.984 68.817 327.250 72.750 C 330.317 73.733 325.450 75.456 325 77 C 324.103 81.431 323.722 85.978 323.250 90.500 C 322.363 98.977 322.543 107.496 321 116 C 314.895 149.622 310.120 183.784 300.250 216.500 C 297.781 224.678 293.117 232.470 285.750 234 C 280.066 235.032 279.025 222.870 273.500 221.750 C 263.328 219.690 252.934 225.703 242.500 225 C 210.686 222.852 178.756 219.307 147.500 213 C 139.686 211.423 152.284 209.384 153.500 206.750 C 156.206 201.539 157.844 195.843 159 190 C 161.450 177.619 162.785 165.140 164.500 152.500 C 166.900 134.839 168.015 116.861 172 99.500 C 173.877 91.328 175.774 81.935 182.250 76.500 C 190.438 69.638 202.227 68.379 212.750 66.500 C 225.725 64.183 239.053 64.273 252.250 64 Z " transform="matrix(0.8718572854995728, 0, 0, 0.8718572854995728, -109.9, -54.05)"/>
    </g>
    <g id="ID0.69259964954108">
      <path id="ID0.022748230025172234" fill="#C8BEB7" stroke="#000000" stroke-width="3" stroke-linecap="round" d="M 196 132 C 199.298 131.851 198.723 131.185 199 131 C 199.876 130.416 201.001 130.333 202 130 C 202.999 129.667 204.001 129.333 205 129 C 205.999 128.667 207.178 128.658 208 128 C 208.938 127.250 209.620 126.139 210 125 C 210.316 124.052 209.836 122.985 210 122 C 210.173 120.961 210.158 119.632 211 119 C 211.799 118.401 213.052 118.684 214 119 C 215.139 119.380 216.151 120.151 217 121 C 217.849 121.849 218.151 123.151 219 124 C 219.849 124.849 220.823 126.235 222 126 C 223.177 125.765 223.404 124.042 224 123 C 224.739 121.707 225.047 120.144 226 119 C 226.769 118.078 228.078 117.769 229 117 C 230.085 116.096 230.824 114.784 232 114 C 232.876 113.416 234.022 112.609 235 113 C 236.115 113.446 236.062 115.250 237 116 C 237.822 116.658 238.961 116.827 240 117 C 240.985 117.164 242.001 117 243 117 C 243.999 117 245.015 117.164 246 117 C 247.039 116.827 248.001 116.333 249 116 C 249.999 115.667 251.058 115.471 252 115 C 253.074 114.463 253.861 113.380 255 113 C 255.948 112.684 257.513 112.270 258 113 C 258.513 113.770 257.471 115.058 257 116 C 256.463 117.074 255.537 117.926 255 119 C 254.529 119.942 253.609 121.022 254 122 C 254.446 123.115 255.861 123.620 257 124 C 257.948 124.316 259.001 124 260 124 C 260.999 124 262.143 123.486 263 124 C 264.030 124.618 263.970 126.382 265 127 C 265.857 127.514 267.015 127.164 268 127 C 269.039 126.827 269.961 126.173 271 126 C 271.985 125.836 273.052 125.684 274 126 C 275.139 126.380 276.151 127.151 277 128 C 277.849 128.849 278.620 129.861 279 131 C 279.316 131.948 278.836 133.015 279 134 C 279.173 135.039 279.529 136.058 280 137 C 280.537 138.074 281.463 138.926 282 140 C 282.471 140.942 282.827 141.961 283 143 C 283.164 143.985 283 145.001 283 146 C 283 146.999 283 148.001 283 149 C 283 149.999 283 151.001 283 152 C 283 152.999 283 154.001 283 155 C 283 155.999 283.316 157.052 283 158 C 282.620 159.139 281.769 160.078 281 161 C 280.096 162.085 278.784 162.824 278 164 C 277.416 164.876 277.333 166.001 277 167 C 276.667 167.999 276.333 169.001 276 170 C 275.667 170.999 275.842 172.368 275 173 C 274.201 173.599 272.894 173.447 272 173 C 270.736 172.368 269.904 171.085 269 170 C 268.231 169.078 267.666 167.999 267 167 C 266.334 166.001 265.537 165.074 265 164 C 264.529 163.058 264.935 161.234 264 161 C 262.935 160.734 262.074 162.463 261 163 C 260.058 163.471 258.942 163.529 258 164 C 256.926 164.537 256.074 165.463 255 166 C 254.058 166.471 252.942 166.529 252 167 C 250.926 167.537 250.139 168.620 249 169 C 248.052 169.316 246.999 169 246 169 C 245.001 169 243.985 169.164 243 169 C 241.961 168.827 240.942 167.529 240 168 C 239.058 168.471 238.827 169.961 239 171 C 239.197 172.184 240.463 172.926 241 174 C 241.471 174.942 241.827 175.961 242 177 C 242.164 177.985 242.514 179.143 242 180 C 241.382 181.030 240.139 181.620 239 182 C 238.052 182.316 236.999 182 236 182 C 235.001 182 233.999 182 233 182 C 232.001 182 230.999 182 230 182 C 229.001 182 227.985 182.164 227 182 C 225.961 181.827 224.745 181.745 224 181 C 223.255 180.255 223.173 179.039 223 178 C 222.836 177.015 223.164 175.985 223 175 C 222.827 173.961 221.827 173.039 222 172 C 222.197 170.816 223.062 169.750 224 169 C 224.822 168.342 226.178 168.658 227 168 C 227.938 167.250 228.620 166.139 229 165 C 229.316 164.052 229.316 162.948 229 162 C 228.620 160.861 228.030 159.618 227 159 C 226.143 158.486 224.799 159.599 224 159 C 223.158 158.368 223.658 156.822 223 156 C 222.250 155.062 221.139 154.380 220 154 C 219.052 153.684 217.985 154.164 217 154 C 215.961 153.827 214.999 153.333 214 153 C 213.001 152.667 212.053 152 211 152 C 209.947 152 209.039 152.827 208 153 C 207.015 153.164 205.948 152.684 205 153 C 203.861 153.380 202.849 154.151 202 155 C 201.151 155.849 201.030 157.382 200 158 C 199.143 158.514 197.999 158 197 158 C 196.001 158 194.894 158.447 194 158 C 192.736 157.368 192.085 155.904 191 155 C 190.078 154.231 189.139 153.380 188 153 C 187.052 152.684 185.857 153.514 185 153 C 183.970 152.382 183.380 151.139 183 150 C 182.684 149.052 182.836 147.985 183 147 C 183.173 145.961 183.667 144.999 184 144 C 184.333 143.001 184.827 142.039 185 141 C 185.164 140.015 185 138.999 185 138 C 185 137.001 185.599 135.799 185 135 C 184.368 134.158 182.745 134.745 182 134 C 181.255 133.255 181.333 131.999 181 131 C 180.667 130.001 180.173 129.039 180 128 C 179.836 127.015 179.486 125.857 180 125 C 180.618 123.970 181.861 123.380 183 123 C 183.948 122.684 185.001 123 186 123 C 186.999 123 188.015 122.836 189 123 C 190.039 123.173 191.368 123.158 192 124 C 192.599 124.799 191.684 126.052 192 127 C 192.380 128.139 193.151 129.151 194 130 C 194.849 130.849 195.885 131.554 197 132 C 197.618 132.247 198.404 132.298 199 132 Z " transform="matrix(0.8718572854995728, 0, 0, 0.8718572854995728, -110.75, -32.25)"/>
      <path id="ID0.591429878026247" fill="none" stroke="#000000" stroke-width="2" stroke-linecap="round" d="M 231.250 134 L 231.550 134.300 " transform="matrix(0.8718572854995728, 0, 0, 0.8718572854995728, -116, -37.45)"/>
      <path id="ID0.7572442013770342" fill="none" stroke="#000000" stroke-width="2" stroke-linecap="round" d="M 233.250 137.500 L 233.550 137.800 " transform="matrix(0.8718572854995728, 0, 0, 0.8718572854995728, -116, -37.45)"/>
      <path id="ID0.3759294683113694" fill="none" stroke="#000000" stroke-width="2" stroke-linecap="round" d="M 235.500 142.500 L 235.800 142.800 " transform="matrix(0.8718572854995728, 0, 0, 0.8718572854995728, -116.45, -38.75)"/>
      <path id="ID0.3759294683113694" fill="none" stroke="#000000" stroke-width="2" stroke-linecap="round" d="M 235.500 142.500 L 235.800 142.800 " transform="matrix(0.8718572854995728, 0, 0, 0.8718572854995728, -113.7, -36.4)"/>
      <path id="ID0.3759294683113694" fill="none" stroke="#000000" stroke-width="2" stroke-linecap="round" d="M 235.500 142.500 L 235.800 142.800 " transform="matrix(0.8364297747612, -0.2460087686777115, 0.2460087686777115, 0.8364297747612, -137.25, 27.35)"/>
      <path id="ID0.3759294683113694" fill="none" stroke="#000000" stroke-width="2" stroke-linecap="round" d="M 235.500 142.500 L 235.800 142.800 " transform="matrix(0.8718572854995728, 0, 0, 0.8718572854995728, -108.5, -33.3)"/>
      <path id="ID0.3759294683113694" fill="none" stroke="#000000" stroke-width="2" stroke-linecap="round" d="M 235.500 142.500 L 235.800 142.800 " transform="matrix(0.8691243529319763, 0.06897812336683273, -0.06897812336683273, 0.8691243529319763, -96.7, -46.4)"/>
      <path id="ID0.3759294683113694" fill="none" stroke="#000000" stroke-width="2" stroke-linecap="round" d="M 235.500 142.500 L 235.800 142.800 " transform="matrix(0.7545217275619507, 0.43684330582618713, -0.43684330582618713, 0.7545217275619507, -16.7, -113.95)"/>
      <path id="ID0.3759294683113694" fill="none" stroke="#000000" stroke-width="2" stroke-linecap="round" d="M 235.500 142.500 L 235.800 142.800 " transform="matrix(0.37522855401039124, 0.7869807481765747, -0.7869807481765747, 0.37522855401039124, 122.6, -139.5)"/>
      <path id="ID0.3759294683113694" fill="none" stroke="#000000" stroke-width="2" stroke-linecap="round" d="M 235.500 142.500 L 235.800 142.800 " transform="matrix(-0.34835198521614075, 0.7992409467697144, -0.7992409467697144, -0.34835198521614075, 292.95, -37.05)"/>
      <path id="ID0.3759294683113694" fill="none" stroke="#000000" stroke-width="2" stroke-linecap="round" d="M 235.500 142.500 L 235.800 142.800 " transform="matrix(-0.8364843726158142, 0.24582335352897644, -0.24582335352897644, -0.8364843726158142, 325.85, 162.65)"/>
      <path id="ID0.3759294683113694" fill="none" stroke="#000000" stroke-width="2" stroke-linecap="round" d="M 235.500 142.500 L 235.800 142.800 " transform="matrix(-0.7410890460014343, -0.4592626988887787, 0.4592626988887787, -0.7410890460014343, 201.1, 312.85)"/>
      <path id="ID0.3759294683113694" fill="none" stroke="#000000" stroke-width="2" stroke-linecap="round" d="M 235.500 142.500 L 235.800 142.800 " transform="matrix(-0.2617223858833313, -0.8316469192504883, 0.8316469192504883, -0.2617223858833313, 35.3, 328.95)"/>
      <path id="ID0.3759294683113694" fill="none" stroke="#000000" stroke-width="2" stroke-linecap="round" d="M 235.500 142.500 L 235.800 142.800 " transform="matrix(0.5694977045059204, -0.6601572632789612, 0.6601572632789612, 0.5694977045059204, -133.35, 167.8)"/>
      <path id="ID0.3759294683113694" fill="none" stroke="#000000" stroke-width="2" stroke-linecap="round" d="M 235.500 142.500 L 235.800 142.800 " transform="matrix(0.5694977045059204, -0.6601572632789612, 0.6601572632789612, 0.5694977045059204, -127.35, 167.85)"/>
      <path id="ID0.3759294683113694" fill="none" stroke="#000000" stroke-width="2" stroke-linecap="round" d="M 235.500 142.500 L 235.800 142.800 " transform="matrix(0.5694977045059204, -0.6601572632789612, 0.6601572632789612, 0.5694977045059204, -124.2, 167.85)"/>
      <path id="ID0.3759294683113694" fill="none" stroke="#000000" stroke-width="2" stroke-linecap="round" d="M 235.500 142.500 L 235.800 142.800 " transform="matrix(0.015517489053308964, -0.871719241142273, 0.871719241142273, 0.015517489053308964, -21.15, 296.5)"/>
      <path id="ID0.3759294683113694" fill="none" stroke="#000000" stroke-width="2" stroke-linecap="round" d="M 235.500 142.500 L 235.800 142.800 " transform="matrix(0.015517489053308964, -0.871719241142273, 0.871719241142273, 0.015517489053308964, -18.95, 294.55)"/>
      <path id="ID0.3759294683113694" fill="none" stroke="#000000" stroke-width="2" stroke-linecap="round" d="M 235.500 142.500 L 235.800 142.800 " transform="matrix(0.3892618417739868, -0.780134916305542, 0.780134916305542, 0.3892618417739868, -91.25, 218.15)"/>
      <path id="ID0.3759294683113694" fill="none" stroke="#000000" stroke-width="2" stroke-linecap="round" d="M 235.500 142.500 L 235.800 142.800 " transform="matrix(0.6326940059661865, -0.599861204624176, 0.599861204624176, 0.6326940059661865, -120.5, 140.4)"/>
      <path id="ID0.08639472490176558" fill="none" stroke="#000000" stroke-width="2" stroke-linecap="round" d="M 266.500 141.750 C 266.500 141.750 268.259 142.805 269 143.500 C 269.607 144.069 270.092 144.774 270.500 145.500 C 270.849 146.120 271.025 146.825 271.250 147.500 C 271.306 147.669 271.250 147.750 271.250 147.750 " transform="matrix(0.8718572854995728, 0, 0, 0.8718572854995728, -116, -37.45)"/>
      <path id="ID0.012617005966603756" fill="none" stroke="#000000" stroke-width="2" stroke-linecap="round" d="M 266.500 148 C 266.500 148 268.894 145.722 270 144.500 C 270.863 143.548 272.750 141.250 272.750 141.250 " transform="matrix(0.8718572854995728, 0, 0, 0.8718572854995728, -116, -37.45)"/>
    </g>
    <g id="ID0.4510777541436255">
      <g id="ID0.14801309304311872">
        <g id="ID0.2537396028637886">
          <path id="ID0.9389303363859653" fill="#C8BEB7" stroke="#000000" stroke-width="2" d="M 436 132 C 448.967 132 460.717 137.267 469.225 145.775 C 477.733 154.283 483 166.033 483 179 C 483 191.967 477.733 203.717 469.225 212.225 C 460.717 220.733 448.967 226 436 226 C 423.033 226 411.283 220.733 402.775 212.225 C 394.267 203.717 389 191.967 389 179 C 389 166.033 394.267 154.283 402.775 145.775 C 411.283 137.267 423.033 132 436 132 Z " transform="matrix(0.36415529251098633, 0, 0, 0.36415529251098633, -88.9, -28.15)"/>
          <path id="ID0.11479042703285813" fill="#F3F0ED" stroke="#000000" stroke-width="2" d="M 408 153 C 417.656 153 426.406 156.922 432.742 163.258 C 439.078 169.594 443 178.344 443 188 C 443 197.656 439.078 206.406 432.742 212.742 C 426.406 219.078 417.656 223 408 223 C 398.344 223 389.594 219.078 383.258 212.742 C 376.922 206.406 373 197.656 373 188 C 373 178.344 376.922 169.594 383.258 163.258 C 389.594 156.922 398.344 153 408 153 Z " transform="matrix(0.424847811460495, 0, 0, 0.424847811460495, -103.4, -42.85)"/>
        </g>
        <g id="ID0.11548982094973326">
          <path id="ID0.3447116296738386" fill="#C8BEB7" stroke="#000000" stroke-width="2" stroke-linecap="round" d="M 342 226 L 385 242 L 401 184 L 416 242 L 456 225 L 438 268 L 491 282 L 438 297 L 453 340 L 415 322 L 399 380 L 384 322 L 342 338 L 358 297 L 300 280 L 358 269 L 342 226 Z " transform="matrix(0.26005101203918457, 0, 0, 0.26005101203918457, -33.45, -35.9)"/>
          <path id="ID0.3447116296738386" fill="#F3F0ED" stroke="#000000" stroke-width="2" stroke-linecap="round" d="M 342 226 L 385 242 L 401 184 L 416 242 L 456 225 L 438 268 L 491 282 L 438 297 L 453 340 L 415 322 L 399 380 L 384 322 L 342 338 L 358 297 L 300 280 L 358 269 L 342 226 Z " transform="matrix(0.1881079524755478, 0, 0, 0.1881079524755478, -4.85, -15.05)"/>
        </g>
      </g>
      <g id="ID0.4135345579124987">
        <path id="ID0.2975855153053999" fill="#C8BEB7" stroke="#000000" stroke-width="2" d="M 390 128 C 393.311 128 396.311 129.345 398.483 131.517 C 400.655 133.689 402 136.689 402 140 C 402 143.311 400.655 146.311 398.483 148.483 C 396.311 150.655 393.311 152 390 152 C 386.689 152 383.689 150.655 381.517 148.483 C 379.345 146.311 378 143.311 378 140 C 378 136.689 379.345 133.689 381.517 131.517 C 383.689 129.345 386.689 128 390 128 Z " transform="matrix(0.36415529251098633, 0, 0, 0.36415529251098633, -71.95, -13.05)"/>
        <path id="ID0.4250159035436809" fill="#F3F0ED" stroke="#000000" stroke-width="2" d="M 411 86 L 427 86 L 427 102 L 411 102 L 411 86 Z " transform="matrix(0.20213572680950165, 0.2012747824192047, -0.2012747824192047, 0.20213572680950165, 4.25, -65.3)"/>
      </g>
    </g>
    <g id="ID0.2592455539852381">
      <path id="ID0.0035764137282967567" fill="#C8BEB7" stroke="#000000" stroke-width="2" stroke-linecap="round" d="M 260 302 C 275.827 296.554 302.609 307.128 324 307 C 346.363 306.867 374.471 296.647 391 303 C 398.297 305.204 380.809 320.258 371.657 324.113 C 357.405 330.142 343.209 331 325 331 C 306.791 331 292.545 330.061 278.343 324.113 C 269.500 320.431 252.995 305.111 260 302 Z " transform="matrix(0.33934181928634644, -0.06847125291824341, 0.06847125291824341, 0.33934181928634644, -1, -39.45)"/>
      <path id="ID0.8124154442921281" fill="#F3F0ED" stroke="#000000" stroke-width="2" stroke-linecap="round" d="M 326 251 C 325.667 250.584 325.257 249.319 325 248.500 C 324.589 247.190 324.204 245.858 324 244.500 C 323.703 242.517 323.500 240.505 323.500 238.500 C 323.500 236.495 323.483 234.437 324 232.500 C 324.182 231.817 325.108 231.588 325.500 231 C 325.792 230.562 326 229.500 326 229.500 C 326.500 228.500 330.850 228.500 333 229 C 333.800 229.150 334.250 230.050 335 230.500 C 335.600 230.850 336.300 231.150 337 231.500 C 337.650 231.800 338.450 231.950 339 232.500 C 339.500 233 339.450 233.950 340 234.500 C 340.500 235 341.250 235.300 342 235.500 C 342.800 235.650 343.650 235.500 344.500 235.500 C 345.150 235.500 345.800 235.500 346.500 235.500 C 347.150 235.500 347.850 235.650 348.500 235.500 C 349.200 235.300 349.850 234.900 350.500 234.500 C 351.050 234.050 351.500 233.450 352 233 C 352.450 232.500 352.850 231.850 353.500 231.500 C 354.050 231.150 354.900 231.300 355.500 231 C 356.100 230.600 356.350 229.750 357 229.500 C 357.600 229.200 358.300 229.500 359 229.500 C 359.650 229.500 360.450 229.050 361 229.500 C 361.500 229.900 361.500 230.800 361.500 231.500 C 361.500 232.150 361.150 232.800 361 233.500 C 360.800 234.150 360.500 234.800 360.500 235.500 C 360.350 237.450 360.500 239.500 360.500 241.500 C 360.500 243.450 360.350 245.500 360.500 247.500 C 360.500 248.150 360.900 248.800 361 249.500 C 361.200 251.450 361.500 253.450 361.500 255.500 C 361.500 256.150 361.300 256.900 361 257.500 C 360.600 258.100 359.950 258.500 359.500 259 C 359 259.450 358.600 260.200 358 260.500 C 357.350 260.750 356.600 260.300 356 260.500 C 355.250 260.650 354.700 261.300 354 261.500 C 353.350 261.650 352.650 261.500 352 261.500 C 350 261.500 347.950 261.500 346 261.500 C 345.300 261.500 344.600 261.650 344 261.500 C 343.250 261.300 342.500 261 342 260.500 C 341.450 259.950 341.450 259.050 341 258.500 C 340.100 257.350 338.950 256.450 338 255.500 C 337 254.500 336.100 253.350 335 252.500 C 334.400 252 333.650 251.800 333 251.500 C 332.300 251.150 331.700 250.650 331 250.500 C 330.350 250.300 329.654 250.500 329 250.500 C 328 250.500 326.447 250.723 326 250.500 Z " transform="matrix(0.33934181928634644, -0.06847125291824341, 0.06847125291824341, 0.33934181928634644, -1, -39.45)"/>
      <path id="ID0.8732011117972434" fill="#C8BEB7" stroke="#000000" stroke-width="2" d="M 422 181 L 427 181 L 427 257 L 422 257 L 422 181 Z " transform="matrix(0.33934181928634644, -0.06847125291824341, 0.06847125291824341, 0.33934181928634644, -31.9, -16.25)"/>
    </g>
    <path id="ID0.4170255893841386" fill="#AC9D93" stroke="#000000" stroke-width="2" stroke-linecap="round" d="M 316 155.750 C 316.402 155.626 315.682 157.191 315.500 158 C 315.348 158.669 315.057 159.316 315 160 C 314.889 161.327 315.172 162.679 315 164 C 314.918 164.629 314.250 165.750 314.250 165.750 C 314 165.500 313.300 165.500 313 165.500 C 312.300 165.500 311.600 165.200 311 165.500 C 310.350 165.750 309.700 167.100 309.500 167 C 309.250 166.900 309.800 165.650 310 165 C 310.150 164.300 310.850 163.200 310.500 163 C 310.100 162.700 309.150 163.700 308.500 164 C 307.850 164.200 307 164.050 306.500 164.500 C 305.900 164.950 306.050 166 305.500 166.500 C 304.950 166.900 304.050 167.350 303.500 167 C 302.900 166.600 303.550 165.350 303 165 C 302.400 164.600 301.650 165.400 301 165.500 C 300.300 165.550 299.450 165.950 299 165.500 C 298.500 165 299.450 163.950 299 163.500 C 298.500 163 297.650 163.400 297 163.500 C 296.300 163.550 295.500 164.350 295 164 C 294.500 163.600 294.700 162.600 295 162 C 295.250 161.350 296 161 296.500 160.500 C 297 160 297.650 159.600 298 159 C 298.350 158.200 298.400 157.300 298.500 156.500 C 298.550 155.650 298.500 154 298.500 154 C 298.500 153.950 298.300 155.350 298.500 156 C 298.650 156.700 298.850 157.600 299.500 158 C 300.200 158.400 301.150 158.050 302 158 C 302.650 157.900 303.500 157.950 304 157.500 C 304.450 157 304.050 156 304.500 155.500 C 304.950 154.900 305.750 154.500 306.500 154.500 C 307.200 154.500 307.850 155.050 308.500 155.500 C 309.050 155.900 309.250 157 310 157 C 310.700 157 310.807 155.706 311.500 155.500 C 312.908 155.006 315.402 154.626 316 155 Z " transform="matrix(0.8718572854995728, 0, 0, 0.8718572854995728, -109.8, -64.5)"/>
    <path id="ID0.8788982317782938" fill="#C8BEB7" stroke="#000000" stroke-width="2" stroke-linecap="round" d="M 167.250 150.500 C 166.963 150.041 167.066 148.979 167 148.250 C 166.941 147.582 166.778 146.921 166.750 146.250 C 166.695 144.919 166.639 143.577 166.750 142.250 C 166.807 141.566 167.103 140.921 167.250 140.250 C 167.686 138.256 168.064 136.244 168.500 134.250 C 168.647 133.579 168.887 132.927 169 132.250 C 169.055 131.922 169 131.250 169 131.250 C 169.250 131 169.850 132.350 170.500 132.750 C 171.050 133.100 171.850 133.150 172.500 133 C 173.150 132.800 173.500 131.600 174.250 131.750 C 174.900 131.850 174.900 132.900 175.250 133.500 C 175.550 134.050 175.600 134.950 176.250 135.250 C 176.900 135.550 177.800 135.350 178.500 135 C 179.150 134.600 179.250 133.250 180 133.250 C 180.650 133.250 180.850 134.350 181.250 135 C 181.600 135.550 181.800 136.200 182.250 136.750 C 182.650 137.300 183.750 137.500 183.750 138.250 C 183.750 138.950 182.600 139.100 182.250 139.750 C 181.900 140.300 181.350 141.200 181.750 141.750 C 182.100 142.200 183.250 141.250 183.750 141.750 C 184.750 142.700 185.650 144.050 185.750 145.500 C 185.750 146.150 184.650 146.350 184 146.500 C 183.300 146.600 182.650 146.100 182 146.250 C 181.300 146.350 180.800 146.850 180.250 147.250 C 179.600 147.600 179.200 148.500 178.500 148.500 C 177.750 148.500 177.100 147.850 176.750 147.250 C 176.350 146.650 177 145.500 176.500 145.250 C 176 145 175.150 145.700 174.750 146.250 C 174.300 146.750 174.400 147.550 174.250 148.250 C 174.050 148.900 174.350 149.900 173.750 150.250 C 173.100 150.550 172.400 149.650 171.750 149.500 C 171.050 149.300 170.250 148.800 169.750 149.250 C 169.250 149.650 169.750 150.550 169.750 151.250 C 169.750 151.900 170.200 152.900 169.750 153.250 C 169.200 153.550 168.200 153 167.750 152.500 C 167.250 151.950 167.507 151.107 167.250 150.500 C 167.156 150.307 166.760 150.343 166.750 150.250 Z " transform="matrix(0.8718572854995728, 0, 0, 0.8718572854995728, -109.8, -64.5)"/>
  </g>
</svg>