<svg xmlns="http://www.w3.org/2000/svg" width="450" height="129" viewBox="-1 4 450 129"><defs><linearGradient id="a" y2="1"><stop offset="0" stop-color="#BFFF56"/><stop offset="1" stop-color="#9FD547"/></linearGradient><linearGradient id="b" y2="1"><stop offset="0" stop-color="#D5754A"/><stop offset="1" stop-color="#FF8D59"/></linearGradient><linearGradient id="c" y2="1"><stop offset="0" stop-color="#FF51C8"/><stop offset="1" stop-color="#E74D81"/></linearGradient><linearGradient id="d" y2="1"><stop offset="0" stop-color="#402407"/><stop offset="1" stop-color="#351F03"/></linearGradient><linearGradient id="e" y2="1"><stop offset="0" stop-color="#402407"/><stop offset="1" stop-color="#351F03"/></linearGradient><linearGradient id="f" x2="1"><stop offset="0" stop-color="#402606"/><stop offset="1" stop-color="#2F1D00"/></linearGradient><linearGradient id="g" y2="1"><stop offset="0" stop-color="#5C84FF"/><stop offset="1" stop-color="#3C57A8"/></linearGradient></defs><path fill="#FEE5B5" d="M.593 29.983h447v103h-447v-103z"/><path fill="#B79666" d="M376.632 25.075c-30.653.98-61.174 6.69-91.833 7.496-35 .93-70.1-3.52-105.11-3-26.16.65-52.19 6.41-78.34 6.51-24.82.1-49.58-4.29-74.39-5.23-7.9-.3-16.32-.3-24.29 1.24-1.98.41.19 2.29 0 3.45.3 2.63-.02 5.27.32 7.89.14 1.14-5.35 1.94 1.74 2.86 114.69 1.75 231.36-1.16 347.3-.29 28.98.22 28.4 4.48 44.79 4.48s30.19-.89 44.79-4.48c3.65-.89 5.44-4.2 5.57-7.35.17-4.08.05-9.97-5.51-11-21.2-4.12-43.16-3.26-65.07-2.56z"/><path fill="url(#a)" d="M312.5 69.5c.812 4.88 1.29 9.713 3 14.25.838 2.223 2.414 4.02 4.25 5.25 8.583 1.976 5.075 4.734 8 5 1.527.08 2.75-2.015 2.75-3.5.045-1.77-1.89-3.175-3-4.75-1.64-2.59-4.225-4.807-5.25-7.75-1.96-5.623-3.3-11.734-4-17.75-.595-5.11-.6-10.338-.5-15.5.236-2.372 0-5.532 1.5-7 .846-.82 2.604 1.066 3 2.25 1.23 3.677 1.47 7.637 1.75 11.5.412 5.685-.227 11.384.5 17 .393 3.02.776 6.108 2.5 8.5.716.974 3.028 3.444 3.25-.25.888-14.778-2.002-29.57-1-44.25.397-3.7 3.51.197 4.25 1.5 1.41 2.51 1.656 5.444 1.75 8.25.134 4.107-1.008 7.826-1 11.75 0 2.285-.176 5.098 1.5 6.5 1.198 1.01 3.672-.548 4.25-2 1.374-3.47 0-7.74.75-11.5.286-1.433 1.37-4.785 2.25-4 1.778 1.6 2.74 5.51 3 8.5.2 2.374-.696 4.433-1.5 6.5-.99 2.514-2.13 4.785-3.5 7-1.044 1.684-2.927 3.05-3.5 5-1.052 3.564-1.056 7.323-1 11 .053 3.53-1.773 8.98 1 10.5 2.985 1.62 8.13-1.435 10.75-4.25 1.8-1.973.575-5.115.5-7.75-.01-.983-.38-2.057-.75-3-.512-1.31-1.572-2.56-1.75-4-.3-2.423-.72-6.177.25-7.5.567-.765 1.635 2.523 2.75 3.5 1.024.902 2.977 4.278 3.25 1.75 1.09-10.112-1.633-20.605-.25-30.75.44-2.52 4.25-2.065 4.75-.5 1.997 6.26.703 13.027 1.25 19.5 3.265 15.76-1.498 13.427.25 19.75 4.658 2.666 3.597-.744 4.5-2 4.77-7.41 1.034-10.68 1.25-15.5.247-5.418-.045-11.138 1.75-16.25.47-1.295 2.864-.063 3.25 1 1.067 2.956.343 6.17.5 9.25.138 2.67-.554 6.5.75 7.75.937 1.01 2.908-1.975 3.5-3.5.835-2.12-.45-4.965.5-7 .39-.64 2.24-1.044 2.5-.25.9 2.73.802 5.788 0 8.5-.785 2.647-3.393 4.36-4.75 6.75-1.867 3.297-2.79 7.478-5 10.75-2.436 3.602-5.835 6.758-9.25 9.75-5.676 5.265-14.444 7.9-18 15-3.47 6.926.75 15.693-.75 23.25-.375 1.89-3.07 1.02-4.5 1-1.557-.02-3.945.404-4.5-1.25-2.22-6.616-.34-14.26-3.25-20.5-1.398-3.36-6.25-3.61-8.75-6.25-2.746-2.904-3.983-6.958-6.25-10.25-2.52-3.654-6.23-6.608-8.5-10.5-1.955-3.71-4.227-9.503-4-12 .122-1.28 2.688 3.302 4.5 3.75 4.205-1.592 2.374 3.83 3 3 1.134-1.53.443-5.498.5-8.25.032-1.58-.687-3.473-.25-5.25.358-1.228 1.347-3.34 2.5-3.25 1.197.102 1.707 2.366 2 3.75.66 3.116.216 6.538.75 9.75z" transform="rotate(9.34 119.007 95.338) scale(.3588)"/><path fill="none" stroke="#EAD1A8" stroke-width=".597" d="M125.688 44.98s.84.17 1.11.465c.133.146-.257.51-.162.574.1.06.353-.24.552-.31.208-.08.433-.11.654-.13.205-.02.464-.12.615.01.165.15.233.56.127.65-.098.08-.346-.23-.535-.31-.19-.08-.56-.22-.58-.16-.02.05.27.41.49.44.24.03.47-.17.69-.27.19-.09.38-.4.55-.31.17.09.07.64.13.65.05.01.01-.45.16-.58.17-.15.52-.25.65-.13.11.1-.11.38-.16.57-.06.19-.01.44-.16.57-.17.15-.44.13-.66.13-.2-.01-.39-.11-.58-.16-.19-.06-.39-.11-.58-.16l-.58-.16-.58-.16c-.19-.06-.39-.24-.58-.16-.19.08-.4.47-.31.53.1.07.53-.09.69-.27.16-.19.13-.48.2-.72.05-.19.28-.51.16-.58-.15-.09-.49.13-.7.27-.19.12-.49.27-.45.49.05.26.38.41.64.49.21.06.43-.09.65-.13l.65-.13c.22-.04.43-.13.66-.13.2.01.37.16.57.16.22.01.43-.13.65-.13.2.01.41.22.57.16.09-.03-.06-.33-.06-.33l-.04-.07" stroke-linecap="round"/><path fill="none" stroke="#D8C19B" stroke-width=".597" d="M127.228 45.565c.374.392.934.358 1.11.466.178.11.397.37.31.56-.105.22-.45.31-.696.27-.22-.03-.484-.22-.494-.45-.01-.22.227-.47.448-.49.395-.04 1.17.3 1.15.33-.023.03-1.38-.08-1.374-.07.006.01 1.473.27 1.476.26.002-.01-1.17-.28-1.436-.4z" stroke-linecap="round"/><path fill="#E8CB9C" d="M64.668 37.125c30.623 1.8 61.165 7.747 91.833 7.496 34.64-.28 69.69-7.43 104.69-9.81 27.11-1.46 54.18-.51 81.74-1.72 21.43-.94 42.9-5.74 64.29-4.04 13.36 1.06 42.56 7.05 39.49 12.14-3.53 5.17-29.95 10.9-55.1 12.08-100.6 4.73-201.96 1.87-302.34 4.78-25.09.73-29.78 4.3-44.79 4.49-13.17.16-27.17 1.54-39.76-3.46-3.8-1.63-2.85-9.02-2.43-13.61.34-3.6-.76-9.21 3.91-9.91 19.44-2.52 39.27.45 58.5 1.58z"/><path fill="#FEE5B5" stroke="#FEE5B5" stroke-width="2" d="M269.35 124c25.724-1.864 50.01 15.842 75.8 16 15.354.09 30.965-21.39 43.4-15.35 9.79 4.31 1.36 24.074 1.05 36.05-.08 3.018-1.81 3.023-2.15 7.2-.043 16.594 1.323 33.15 1.1 49.85-.258 16.842-1.472 33.966-1.2 50.55.132 7.91 14.362 21.534 1.65 23.7-50.842 8.66-103.277 2.657-154.85 3-47.816.318-95.547 2.12-143.15-1.6-11.797-.558-11.01 1.807-12.3-9.6-5.163-45.628-5.718-92.065-5.05-138.1.358-11.46 3.372-5.248 7.6-4.8 16.91 1.793 33.18 10.465 49.85 11.1 29.695 1.125 59.986 1.39 89.1-5 17.787-3.108 30.876-21.67 49.15-23z" transform="matrix(1.38153 0 0 .5231 -98.95 -22.4)"/><g fill="none" stroke="#BD9D74" stroke-width="2" stroke-linecap="round"><path d="M434 308l.3.3m.7-27.3l.3.3M457 310l.3.3M456 297l.3.3M431 290l.3.3M446 312l.3.3M443 336l.3.3M414 326l.3.3m39.7.7l.3.3M469 335l.3.3M452 347l.3.3M461 336l.3.3M434 343l.3.3M423 358l.3.3M446 357l.3.3M424 350l.3.3M422 335l.3.3m6.7-5.3l.3.3M423 313l.3.3M408 299l.3.3M425 286l.3.3M450 295l.3.3M452 275l.3.3m19.7-.3l.3.3M466 295l.3.3M460 310l.3.3M472 315l.3.3M466 327l.3.3M474 345l.3.3M462 350l.3.3M474 296l.3.3M462 283l.3.3" transform="matrix(.91833 0 0 .57693 .2 -76.25)"/><path d="M434 308l.3.3m.7-27.3l.3.3M457 310l.3.3M456 297l.3.3M431 290l.3.3M446 312l.3.3M443 336l.3.3M414 326l.3.3M437 323l.3.3M454 327l.3.3M469 335l.3.3M452 347l.3.3M461 336l.3.3M434 343l.3.3M423 358l.3.3M446 357l.3.3M424 350l.3.3M422 335l.3.3m6.7-5.3l.3.3M423 313l.3.3M408 299l.3.3M425 286l.3.3M450 295l.3.3M452 275l.3.3m19.7-.3l.3.3M466 295l.3.3M460 310l.3.3M472 315l.3.3M466 327l.3.3M474 345l.3.3M462 350l.3.3M474 296l.3.3M462 283l.3.3" transform="matrix(.91833 0 0 .57693 -.6 -119.75)"/><path d="M434 308l.3.3m.7-27.3l.3.3M457 310l.3.3M456 297l.3.3M431 290l.3.3M446 312l.3.3M443 336l.3.3M414 326l.3.3M437 323l.3.3M454 327l.3.3M469 335l.3.3M452 347l.3.3M461 336l.3.3M434 343l.3.3M423 358l.3.3M446 357l.3.3M424 350l.3.3M422 335l.3.3m6.7-5.3l.3.3M423 313l.3.3M408 299l.3.3M425 286l.3.3M450 295l.3.3M452 275l.3.3m19.7-.3l.3.3M466 295l.3.3M460 310l.3.3M472 315l.3.3M466 327l.3.3M474 345l.3.3M462 350l.3.3M474 296l.3.3M462 283l.3.3" transform="matrix(.91833 0 0 .57693 -62.25 -111.85)"/><path d="M434 308l.3.3m.7-27.3l.3.3M457 310l.3.3M456 297l.3.3M431 290l.3.3M446 312l.3.3M443 336l.3.3M414 326l.3.3M437 323l.3.3M454 327l.3.3M469 335l.3.3M452 347l.3.3M461 336l.3.3M434 343l.3.3M423 358l.3.3M446 357l.3.3M424 350l.3.3M422 335l.3.3m6.7-5.3l.3.3M423 313l.3.3M408 299l.3.3M425 286l.3.3M450 295l.3.3M452 275l.3.3m19.7-.3l.3.3M466 295l.3.3M460 310l.3.3M472 315l.3.3M466 327l.3.3M474 345l.3.3M462 350l.3.3M474 296l.3.3M462 283l.3.3" transform="matrix(-.0092 .5769 -.91828 -.00578 641.55 -142.45)"/></g><g fill="none" stroke="#BD9D74" stroke-width="2" stroke-linecap="round"><path d="M434 308l.3.3m.7-27.3l.3.3M457 310l.3.3M456 297l.3.3M431 290l.3.3M446 312l.3.3M443 336l.3.3M414 326l.3.3M437 323l.3.3M454 327l.3.3M469 335l.3.3M452 347l.3.3M461 336l.3.3M434 343l.3.3M423 358l.3.3M446 357l.3.3M424 350l.3.3M422 335l.3.3m6.7-5.3l.3.3M423 313l.3.3M408 299l.3.3M425 286l.3.3M450 295l.3.3M452 275l.3.3m19.7-.3l.3.3M466 295l.3.3M460 310l.3.3M472 315l.3.3M466 327l.3.3M474 345l.3.3M462 350l.3.3M474 296l.3.3M462 283l.3.3" transform="matrix(.91833 0 0 .57693 -132.55 -76.95)"/><path d="M434 308l.3.3m.7-27.3l.3.3M457 310l.3.3M456 297l.3.3M431 290l.3.3M446 312l.3.3M443 336l.3.3M414 326l.3.3M437 323l.3.3M454 327l.3.3M469 335l.3.3M452 347l.3.3M461 336l.3.3M434 343l.3.3M423 358l.3.3M446 357l.3.3M424 350l.3.3M422 335l.3.3m6.7-5.3l.3.3M423 313l.3.3M408 299l.3.3M425 286l.3.3M450 295l.3.3M452 275l.3.3m19.7-.3l.3.3M466 295l.3.3M460 310l.3.3M472 315l.3.3M466 327l.3.3M474 345l.3.3M462 350l.3.3M474 296l.3.3M462 283l.3.3" transform="matrix(.91833 0 0 .57693 -133.55 -120.3)"/><path d="M434 308l.3.3m.7-27.3l.3.3M457 310l.3.3M456 297l.3.3M431 290l.3.3M446 312l.3.3M443 336l.3.3M414 326l.3.3M437 323l.3.3M454 327l.3.3M469 335l.3.3M452 347l.3.3M461 336l.3.3M434 343l.3.3M423 358l.3.3M446 357l.3.3M424 350l.3.3M422 335l.3.3m6.7-5.3l.3.3M423 313l.3.3M408 299l.3.3M425 286l.3.3M450 295l.3.3M452 275l.3.3m19.7-.3l.3.3M466 295l.3.3M460 310l.3.3M472 315l.3.3M466 327l.3.3M474 345l.3.3M462 350l.3.3M474 296l.3.3M462 283l.3.3" transform="matrix(.91833 0 0 .57693 -195.3 -112.55)"/><path d="M434 308l.3.3m.7-27.3l.3.3M457 310l.3.3M456 297l.3.3M431 290l.3.3M446 312l.3.3M443 336l.3.3M414 326l.3.3M437 323l.3.3M454 327l.3.3M469 335l.3.3M452 347l.3.3M461 336l.3.3M434 343l.3.3M423 358l.3.3M446 357l.3.3M424 350l.3.3M422 335l.3.3m6.7-5.3l.3.3M423 313l.3.3M408 299l.3.3M425 286l.3.3M450 295l.3.3M452 275l.3.3m19.7-.3l.3.3M466 295l.3.3M460 310l.3.3M472 315l.3.3M466 327l.3.3M474 345l.3.3M462 350l.3.3M474 296l.3.3M462 283l.3.3" transform="matrix(-.0092 .5769 -.91828 -.00578 508.5 -143)"/></g><path fill="none" stroke="#BD9D74" stroke-width="2" d="M434 308l.3.3m.7-27.3l.3.3M457 310l.3.3M456 297l.3.3M431 290l.3.3M446 312l.3.3M443 336l.3.3M414 326l.3.3M437 323l.3.3M454 327l.3.3M469 335l.3.3M452 347l.3.3M461 336l.3.3M434 343l.3.3M423 358l.3.3M446 357l.3.3M424 350l.3.3M422 335l.3.3m6.7-5.3l.3.3M423 313l.3.3M408 299l.3.3M425 286l.3.3M450 295l.3.3M452 275l.3.3m19.7-.3l.3.3M466 295l.3.3M460 310l.3.3M472 315l.3.3M466 327l.3.3M474 345l.3.3M462 350l.3.3M474 296l.3.3M462 283l.3.3" transform="matrix(.91833 0 0 .5123 -259.4 -52.55)" stroke-linecap="round"/><path fill="none" stroke="#BD9D74" stroke-width="2" d="M434 308l.3.3m.7-27.3l.3.3M457 310l.3.3M456 297l.3.3M431 290l.3.3M446 312l.3.3M443 336l.3.3M414 326l.3.3M437 323l.3.3M454 327l.3.3M469 335l.3.3M452 347l.3.3M461 336l.3.3M434 343l.3.3M423 358l.3.3M446 357l.3.3M424 350l.3.3M422 335l.3.3m6.7-5.3l.3.3M423 313l.3.3M408 299l.3.3M425 286l.3.3M450 295l.3.3M452 275l.3.3m19.7-.3l.3.3M466 295l.3.3M460 310l.3.3M472 315l.3.3M466 327l.3.3M474 345l.3.3M462 350l.3.3M474 296l.3.3M462 283l.3.3" transform="matrix(.91833 0 0 .5123 -322.15 -84.2)" stroke-linecap="round"/><path fill="none" stroke="#BD9D74" stroke-width="2" d="M434 308l.3.3m.7-27.3l.3.3M457 310l.3.3M456 297l.3.3M431 290l.3.3M446 312l.3.3M443 336l.3.3M414 326l.3.3M437 323l.3.3M454 327l.3.3M469 335l.3.3M452 347l.3.3M461 336l.3.3M434 343l.3.3M423 358l.3.3M446 357l.3.3M424 350l.3.3M422 335l.3.3m6.7-5.3l.3.3M423 313l.3.3M408 299l.3.3M425 286l.3.3M450 295l.3.3M452 275l.3.3m19.7-.3l.3.3M466 295l.3.3M460 310l.3.3M472 315l.3.3M466 327l.3.3M474 345l.3.3M462 350l.3.3M474 296l.3.3M462 283l.3.3" transform="matrix(-.0092 .51228 -.91828 -.00513 381.65 -111.1)" stroke-linecap="round"/><path fill="none" stroke="#BD9D74" stroke-width="2" d="M434 308l.3.3m.7-27.3l.3.3M457 310l.3.3M456 297l.3.3M431 290l.3.3M446 312l.3.3M443 336l.3.3M414 326l.3.3M437 323l.3.3M454 327l.3.3M469 335l.3.3M452 347l.3.3M461 336l.3.3M434 343l.3.3M423 358l.3.3M446 357l.3.3M424 350l.3.3M422 335l.3.3m6.7-5.3l.3.3M423 313l.3.3M408 299l.3.3M425 286l.3.3M450 295l.3.3M452 275l.3.3m19.7-.3l.3.3M466 295l.3.3M460 310l.3.3M472 315l.3.3M466 327l.3.3M474 345l.3.3M462 350l.3.3M474 296l.3.3M462 283l.3.3" transform="matrix(.91833 0 0 .5123 -260.4 -91.6)" stroke-linecap="round"/><path fill="#F0CA92" d="M39.05 64.274c2.588 1.475 4.36 3.19 7.518 4.68 3.496 1.656 7.007 3.758 11.26 4.484 2.634.448 6.6-.074 7.097-1.296.176-1.31-4.022-2.59-5.742-3.795-2.817-1.982-5.36-4.945-8.627-5.913-1.322-.39.89 3.292-.552 3.195-1.58-.11-2.607-2.44-4.62-3.33-1.918-.84-4.882-.55-7.043-1.3-3.73-1.29-7.06-2.84-9.54-4.69-1.76-1.07-.82-3.72-2.63-3.68-3.12.06-8.03 2.34-7.88 3.92.13.96 5.15.3 7.32 1.12 4.68 1.77 9.04 4.3 13.46 6.58z"/><path fill="none" stroke="#BD9D74" stroke-width="2" d="M434 308l.3.3m.7-27.3l.3.3M457 310l.3.3M456 297l.3.3M431 290l.3.3M446 312l.3.3M443 336l.3.3M414 326l.3.3M437 323l.3.3M454 327l.3.3M469 335l.3.3M452 347l.3.3M461 336l.3.3M434 343l.3.3M423 358l.3.3M446 357l.3.3M424 350l.3.3M422 335l.3.3m6.7-5.3l.3.3M423 313l.3.3M425 286l.3.3M450 295l.3.3M452 275l.3.3m19.7-.3l.3.3M466 295l.3.3M460 310l.3.3M472 315l.3.3M466 327l.3.3M474 345l.3.3M462 350l.3.3M474 296l.3.3M462 283l.3.3" stroke-linecap="round" transform="matrix(.81387 .03217 -.05547 .57587 -317.4 -132.05)"/><path fill="#F0CA92" d="M50.75 99.14c7.628.516 15.758-.94 22.95.378 1.81.332-4.205 1.708-3.29 2.67 2.16 2.242 12.51 4.387 11.122 4.662-1.498.29-11.908-2.595-18.068-3.334-9.765-1.17-20.742-.308-30.54-2.514-2.18-.5 3.837-2.294 5.897-3.053 1.8-.67 4.03-1.04 6.12-.91 2.27.13 3.68 1.77 5.81 2.1z"/><path fill="none" stroke="#BD9D74" stroke-width="2" d="M434 308l.3.3m.7-27.3l.3.3M457 310l.3.3M456 297l.3.3M431 290l.3.3M446 312l.3.3M443 336l.3.3M414 326l.3.3M437 323l.3.3M454 327l.3.3M469 335l.3.3M452 347l.3.3M461 336l.3.3M434 343l.3.3M423 358l.3.3M446 357l.3.3M424 350l.3.3M422 335l.3.3m6.7-5.3l.3.3M423 313l.3.3M425 286l.3.3M450 295l.3.3M452 275l.3.3m19.7-.3l.3.3M466 295l.3.3M460 310l.3.3M472 315l.3.3M466 327l.3.3M474 345l.3.3M462 350l.3.3M474 296l.3.3M462 283l.3.3" stroke-linecap="round" transform="matrix(.81387 .03217 -.05547 .57587 -317.45 -89.8)"/><path fill="#F0CA92" d="M237.08 104.734c7.515-.97 14.55-3.914 22.04-4.04 1.883-.03-3.176 2.434-1.838 3.174 3.147 1.72 14.044 1.78 12.857 2.308-1.29.563-12.61-.19-18.83.29-9.87.755-19.9 3.682-30.31 3.46-2.32-.058 2.54-2.92 4.13-4.038 1.38-.982 3.33-1.758 5.38-2.04 2.22-.308 4.37.986 6.55.886zM359.43 82.85c-5.514 3.353-8.934 8.21-15.147 10.84-1.564.66.6-3.123-1.16-3.297-4.126-.39-13.37 3.234-12.82 2.388.605-.9 10.793-4.09 15.638-6.59 7.68-3.96 13.65-9.82 22.62-13.14 2.01-.73.36 3.33-.03 4.81-.33 1.3-1.31 2.61-2.8 3.54-1.61 1.01-4.53.64-6.28 1.47zM133.82 69.007c3.444.597 5.82-1.262 9.41-.29 4.186.845 8.61 5.212 12.337 5.37 2.317.095-2.66-5.877-.484-5.205 4.35 1.366 12.355 6.21 14.33 9.808.91 2.04-5.91.773-8.555 1.475-1.427.375-1.03 2.68-2.875 2.15-7.164-2.058-14.1-6.6-21.45-9.408-6.305-2.27-13.142-2.525-19.333-5.753-1.95-1.016 1.227-2.502 2.944-2.68 2.325-.334 5.444.42 7.92 1.303 2.09.753 3.666 2.866 5.757 3.23zM344.88 117.8c3.41.618 4.897 2.75 8.585 3.13 4.193.665 9.95-1.243 13.454-.208 2.17.647-4.71 3.59-2.44 3.76 4.54.32 13.79-.836 16.99-2.924 1.62-1.25-5.17-2.412-7.35-3.76-1.18-.723.07-2.33-1.84-2.505-7.41-.673-15.55.588-23.42.418-6.7-.24-13.11-2.17-20.07-1.67-2.19.16.18 2.26 1.7 2.93 2.02.97 5.19 1.37 7.81 1.48 2.22.09 4.48-1.01 6.55-.64zm-46.61-63.082c-3.484-.73-7.647.915-11.005-.178-4.144-1-5.83-5.348-9.978-5.677-2.58-.2-1.504 5.692-3.477 4.952-3.925-1.503-9.346-6.474-8.824-9.975.54-1.976 7.372-.448 10.946-.985 1.925-.287 3.255-2.488 4.96-1.9 6.614 2.295 11.042 6.93 17.29 9.94 5.467 2.452 13.102 3.02 17.695 6.376 1.446 1.06-3.343 2.31-5.447 2.4-2.923.21-5.913-.66-8.066-1.61-1.81-.81-1.98-2.89-4.095-3.33zM274.458 78.7c-2.916 1.192-5.09 2.68-8.57 3.84-3.857 1.294-7.84 3.01-12.206 3.357-2.704.214-6.474-.6-6.656-1.8.156-1.26 4.608-2.138 6.603-3.146 3.26-1.65 6.51-4.26 9.97-4.92 1.4-.26-1.71 3.06-.26 3.08 1.58.03 3.17-2.1 5.38-2.79 2.1-.64 4.94-.13 7.25-.66 3.99-.92 7.66-2.13 10.56-3.68 2-.87 1.75-3.46 3.52-3.28 3.06.32 7.31 2.87 6.77 4.36-.37.91-5.14-.12-7.49.49-5.05 1.31-9.98 3.36-14.89 5.17zm148.164-28.416c3.356-.622 6.63-.674 10.296-1.6 4.072-1.02 8.766-1.81 11.94-3.736 1.96-1.193 3.263-3.623 1.83-4.54-1.718-.79-5.628.81-8.17 1.104-4.174.48-9.564.288-12.567 1.55-1.21.51 5 1.26 4.13 1.994-.95.8-4.69.123-6.95.742-2.14.596-3.25 2.36-5.38 3.137-3.68 1.345-7.52 2.327-11.33 2.697-2.37.39-5.55-1.52-6.42-.518-1.5 1.73-.86 5.602 1.4 6.362 1.39.442 3.04-2.636 5.3-3.377 4.84-1.6 10.55-2.63 15.95-3.82zm-281.968 69.55c7.22-.028 13.264-4.53 20.204-3.668 11.21 1.41 27.775 9.318 29.386 10.546 1.534 1.142-13.705-3.51-21.12-4.585-4.165-.33-8.535.486-12.858.458-12.57-.162-25.55.786-37.747-.74-8.62-1.072-22.2-6.32-21.03-7.055.26-.72 16.64 1.326 25.71 2.293 5.95.638 11.36 2.78 17.45 2.75zm68.288-55.59c-6.28 2.24-14.542.827-19.98 3.63-8.772 4.546-17.825 15.536-18.398 16.94-.563 1.32 9.527-6.864 15.235-9.975 3.38-1.55 7.72-2.32 11.45-3.69 10.79-4.06 22.68-7.42 32.23-12.36 6.75-3.49 15-11.59 13.49-11.76-.71-.45-13.54 6.18-20.76 9.73-4.74 2.33-7.99 5.6-13.28 7.48z"/><path fill="none" stroke="#EAD1A8" stroke-width="1.837" d="M391.867 96.998s.636-1.65 1.378-1.837c.8-.19 1.714.34 2.296.92.45.45.42 1.84.46 1.84.05 0 0-1.22 0-1.83 0-.61.39-1.36 0-1.83-.39-.49-1.23-.63-1.83-.46-.62.18-1.05.82-1.37 1.38-.31.55-.74 1.28-.46 1.84.31.61 1.16 1 1.84.92.76-.09 1.3-.83 1.84-1.37.54-.54 1.04-1.83 1.38-1.83.31 0-.33 1.73 0 1.84.36.12 1.49-.82 1.38-1.38-.12-.58-1.17-.76-1.83-.91-.74-.17-1.63-.38-2.29 0-.59.34-1.01 1.16-.92 1.84.09.64.74 1.29 1.38 1.38.68.1 1.21-.65 1.84-.91.45-.19 1.38-.46 1.38-.46" stroke-linecap="round"/><path fill="#7F7F7F" d="M209.81 74.04h.16-.39.23z"/><path fill="url(#b)" d="M312.5 69.5c.812 4.88 1.29 9.713 3 14.25.838 2.223 2.414 4.02 4.25 5.25 8.583 1.976 5.075 4.734 8 5 1.527.08 2.75-2.015 2.75-3.5.045-1.77-1.89-3.175-3-4.75-1.64-2.59-4.225-4.807-5.25-7.75-1.96-5.623-3.3-11.734-4-17.75-.595-5.11-.6-10.338-.5-15.5.236-2.372 0-5.532 1.5-7 .846-.82 2.604 1.066 3 2.25 1.23 3.677 1.47 7.637 1.75 11.5.412 5.685-.227 11.384.5 17 .393 3.02.776 6.108 2.5 8.5.716.974 3.028 3.444 3.25-.25.888-14.778-2.002-29.57-1-44.25.397-3.7 3.51.197 4.25 1.5 1.41 2.51 1.656 5.444 1.75 8.25.134 4.107-1.008 7.826-1 11.75 0 2.285-.176 5.098 1.5 6.5 1.198 1.01 3.672-.548 4.25-2 1.374-3.47 0-7.74.75-11.5.286-1.433 1.37-4.785 2.25-4 1.778 1.6 2.74 5.51 3 8.5.2 2.374-.696 4.433-1.5 6.5-.99 2.514-2.13 4.785-3.5 7-1.044 1.684-2.927 3.05-3.5 5-1.052 3.564-1.056 7.323-1 11 .053 3.53-1.773 8.98 1 10.5 2.985 1.62 8.13-1.435 10.75-4.25 1.8-1.973.575-5.115.5-7.75-.01-.983-.38-2.057-.75-3-.512-1.31-1.572-2.56-1.75-4-.3-2.423-.72-6.177.25-7.5.567-.765 1.635 2.523 2.75 3.5 1.024.902 2.977 4.278 3.25 1.75 1.09-10.112-1.633-20.605-.25-30.75.44-2.52 4.25-2.065 4.75-.5 1.997 6.26.703 13.027 1.25 19.5 3.265 15.76-1.498 13.427.25 19.75 4.658 2.666 3.597-.744 4.5-2 4.77-7.41 1.034-10.68 1.25-15.5.247-5.418-.045-11.138 1.75-16.25.47-1.295 2.864-.063 3.25 1 1.067 2.956.343 6.17.5 9.25.138 2.67-.554 6.5.75 7.75.937 1.01 2.908-1.975 3.5-3.5.835-2.12-.45-4.965.5-7 .39-.64 2.24-1.044 2.5-.25.9 2.73.802 5.788 0 8.5-.785 2.647-3.393 4.36-4.75 6.75-1.867 3.297-2.79 7.478-5 10.75-2.436 3.602-5.835 6.758-9.25 9.75-5.676 5.265-14.444 7.9-18 15-3.47 6.926.75 15.693-.75 23.25-.375 1.89-3.07 1.02-4.5 1-1.557-.02-3.945.404-4.5-1.25-2.22-6.616-.34-14.26-3.25-20.5-1.398-3.36-6.25-3.61-8.75-6.25-2.746-2.904-3.983-6.958-6.25-10.25-2.52-3.654-6.23-6.608-8.5-10.5-1.955-3.71-4.227-9.503-4-12 .122-1.28 2.688 3.302 4.5 3.75 4.205-1.592 2.374 3.83 3 3 1.134-1.53.443-5.498.5-8.25.032-1.58-.687-3.473-.25-5.25.358-1.228 1.347-3.34 2.5-3.25 1.197.102 1.707 2.366 2 3.75.66 3.116.216 6.538.75 9.75z" transform="rotate(170.66 214.907 7.84) scale(.3588)"/><path fill="none" stroke="#EAD1A8" stroke-width=".597" d="M319.662 43.68s-.84.17-1.11.465c-.133.146.257.51.162.574-.1.06-.353-.24-.552-.31-.208-.08-.433-.11-.654-.13-.205-.02-.464-.12-.615.01-.165.15-.233.56-.127.65.098.08.346-.23.535-.31.19-.08.56-.22.58-.16.02.05-.27.41-.49.44-.24.03-.47-.17-.69-.27-.19-.09-.38-.4-.55-.31-.17.09-.07.64-.13.65-.05.01-.01-.45-.16-.58-.17-.15-.52-.25-.65-.13-.11.1.11.38.16.57.06.19.01.44.16.57.17.15.44.13.66.13.2-.01.39-.11.58-.16.19-.06.39-.11.58-.16l.58-.16.58-.16c.19-.06.39-.24.58-.16.19.08.4.47.31.53-.1.07-.53-.09-.69-.27-.16-.19-.13-.48-.2-.72-.05-.19-.28-.51-.16-.58.15-.09.49.13.7.27.19.12.49.27.45.49-.05.26-.38.41-.64.49-.21.06-.43-.09-.65-.13l-.65-.13c-.22-.04-.43-.13-.66-.13-.2.01-.37.16-.57.16-.22.01-.43-.13-.65-.13-.2.01-.41.22-.57.16-.09-.03.06-.33.06-.33l.04-.07" stroke-linecap="round"/><path fill="none" stroke="#D8C19B" stroke-width=".597" d="M318.122 44.265c-.374.392-.934.358-1.11.466-.178.11-.397.37-.31.56.105.22.45.31.696.27.22-.03.484-.22.494-.45.01-.22-.227-.47-.448-.49-.395-.04-1.17.3-1.15.33.023.03 1.38-.08 1.374-.07-.006.01-1.473.27-1.476.26-.002-.01 1.17-.28 1.436-.4z" stroke-linecap="round"/><path fill="#666" d="M342.107 84.387c-3.21.703-5.12 2.965-7.347 4.592-4.052 2.2-10.264 2.95-11.48 6.88-.913 3.1 2.48 6.79 5.518 8.11 4.432 1.91 9.79-.08 14.686-.31 3.977.23 8.363 2.08 11.93.31 2.972-1.48 5.518-4.88 5.52-8.12 0-4-1.742-9.6-5.51-12.4-3.77-1.81-8.968-.08-13.317.91z"/><path fill="#7F7F7F" d="M353.77 85.08c-1.13-.73-2.36-1.066-3.44-1.02-1.078.043-2.002.47-2.517 1.266-.515.797-.523 1.815-.12 2.816.403 1 1.217 1.985 2.346 2.714 1.12.73 2.36 1.066 3.43 1.022 1.08-.044 2-.47 2.52-1.267.51-.79.52-1.81.12-2.81-.41-1-1.22-1.98-2.35-2.71z"/><path fill="url(#c)" d="M312.5 69.5c.812 4.88 1.29 9.713 3 14.25.838 2.223 2.414 4.02 4.25 5.25 8.583 1.976 5.075 4.734 8 5 1.527.08 2.75-2.015 2.75-3.5.045-1.77-1.89-3.175-3-4.75-1.64-2.59-4.225-4.807-5.25-7.75-1.96-5.623-3.3-11.734-4-17.75-.595-5.11-.6-10.338-.5-15.5.236-2.372 0-5.532 1.5-7 .846-.82 2.604 1.066 3 2.25 1.23 3.677 1.47 7.637 1.75 11.5.412 5.685-.227 11.384.5 17 .393 3.02.776 6.108 2.5 8.5.716.974 3.028 3.444 3.25-.25.888-14.778-2.002-29.57-1-44.25.397-3.7 3.51.197 4.25 1.5 1.41 2.51 1.656 5.444 1.75 8.25.134 4.107-1.008 7.826-1 11.75 0 2.285-.176 5.098 1.5 6.5 1.198 1.01 3.672-.548 4.25-2 1.374-3.47 0-7.74.75-11.5.286-1.433 1.37-4.785 2.25-4 1.778 1.6 2.74 5.51 3 8.5.2 2.374-.696 4.433-1.5 6.5-.99 2.514-2.13 4.785-3.5 7-1.044 1.684-2.927 3.05-3.5 5-1.052 3.564-1.056 7.323-1 11 .053 3.53-1.773 8.98 1 10.5 2.985 1.62 8.13-1.435 10.75-4.25 1.8-1.973.575-5.115.5-7.75-.01-.983-.38-2.057-.75-3-.512-1.31-1.572-2.56-1.75-4-.3-2.423-.72-6.177.25-7.5.567-.765 1.635 2.523 2.75 3.5 1.024.902 2.977 4.278 3.25 1.75 1.09-10.112-1.633-20.605-.25-30.75.44-2.52 4.25-2.065 4.75-.5 1.997 6.26.703 13.027 1.25 19.5 3.265 15.76-1.498 13.427.25 19.75 4.658 2.666 3.597-.744 4.5-2 4.77-7.41 1.034-10.68 1.25-15.5.247-5.418-.045-11.138 1.75-16.25.47-1.295 2.864-.063 3.25 1 1.067 2.956.343 6.17.5 9.25.138 2.67-.554 6.5.75 7.75.937 1.01 2.908-1.975 3.5-3.5.835-2.12-.45-4.965.5-7 .39-.64 2.24-1.044 2.5-.25.9 2.73.802 5.788 0 8.5-.785 2.647-3.393 4.36-4.75 6.75-1.867 3.297-2.79 7.478-5 10.75-2.436 3.602-5.835 6.758-9.25 9.75-5.676 5.265-14.444 7.9-18 15-3.47 6.926.75 15.693-.75 23.25-.375 1.89-3.07 1.02-4.5 1-1.557-.02-3.945.404-4.5-1.25-2.22-6.616-.34-14.26-3.25-20.5-1.398-3.36-6.25-3.61-8.75-6.25-2.746-2.904-3.983-6.958-6.25-10.25-2.52-3.654-6.23-6.608-8.5-10.5-1.955-3.71-4.227-9.503-4-12 .122-1.28 2.688 3.302 4.5 3.75 4.205-1.592 2.374 3.83 3 3 1.134-1.53.443-5.498.5-8.25.032-1.58-.687-3.473-.25-5.25.358-1.228 1.347-3.34 2.5-3.25 1.197.102 1.707 2.366 2 3.75.66 3.116.216 6.538.75 9.75z" transform="rotate(-6.304 131.305 -590.168) scale(.95733)"/><path fill="none" stroke="#EAD1A8" stroke-width="1.592" d="M390.087 94.538s2.278-.168 3.183.398c.45.28-.29 1.495 0 1.592.308.102.737-.867 1.194-1.194.482-.345 1.037-.588 1.592-.796.512-.192 1.103-.642 1.59-.398.53.265 1.004 1.282.797 1.592-.19.286-1.05-.33-1.59-.398-.527-.066-1.593-.14-1.593 0s1.004.87 1.592.796c.657-.082 1.088-.763 1.59-1.194.428-.366.71-1.29 1.195-1.194.51.102.655 1.592.796 1.592.14 0-.294-1.15 0-1.592.33-.493 1.17-1.006 1.59-.795.377.187 0 1.06 0 1.59s.295 1.152 0 1.593c-.327.493-1.016.652-1.59.796-.514.13-1.062 0-1.592 0h-4.77c-.53 0-1.18-.33-1.59 0-.43.34-.67 1.5-.4 1.59.31.105 1.3-.6 1.59-1.192.3-.593 0-1.328 0-1.99 0-.53.36-1.503 0-1.592-.44-.11-1.16.69-1.59 1.194-.38.45-1.06 1.062-.79 1.592.32.638 1.28.796 1.99.796.6 0 1.06-.53 1.59-.796l1.59-.796c.53-.265 1.02-.652 1.59-.796.52-.13 1.08.13 1.6 0 .58-.144 1.02-.652 1.59-.796.52-.13 1.21.256 1.59 0 .22-.142-.39-.796-.39-.796l-.16-.16" stroke-linecap="round"/><path fill="none" stroke="#D8C19B" stroke-width="1.592" d="M394.464 94.936c1.243.738 2.658.248 3.183.398.54.154 1.286.645 1.194 1.194-.1.645-.93 1.11-1.59 1.193-.59.08-1.4-.23-1.59-.79-.18-.56.25-1.37.8-1.59.99-.39 3.22-.07 3.19 0-.04.08-3.6.77-3.58.8.03.03 3.98-.37 3.98-.39 0-.02-3.2.13-3.98 0z" stroke-linecap="round"/><path fill="#666" d="M207.793 54.237c3.21.703 5.12 2.965 7.347 4.592 4.052 2.2 10.264 2.95 11.48 6.88.913 3.1-2.48 6.79-5.518 8.11-4.432 1.91-9.79-.08-14.686-.31-3.977.23-8.363 2.08-11.93.31-2.972-1.48-5.518-4.88-5.52-8.12 0-4 1.742-9.6 5.51-12.4 3.77-1.81 8.968-.08 13.317.91z"/><path fill="#7F7F7F" d="M196.43 55.03c1.13-.73 2.36-1.066 3.44-1.02 1.078.043 2.002.47 2.517 1.266.515.797.523 1.815.12 2.816-.403 1-1.217 1.985-2.346 2.714-1.12.73-2.36 1.066-3.43 1.022-1.08-.044-2-.47-2.52-1.267-.51-.79-.52-1.81-.12-2.81.41-1 1.22-1.98 2.35-2.71z"/><g stroke="#000"><g stroke-width=".492" stroke-linecap="round"><path fill="#AC9D93" d="M391.435 116.996c3.16.15 6.348-.576 9.468-.123.78.113.352 1.134.615 1.66.253.486 1.428 1.26.86 1.414-2.135.587-4.47.148-6.7.185-2.767.046-5.54.042-8.3-.062-3.578-.134-7.187-.28-10.76-.615-3.736-.35-7.73.16-11.128-1.352-1.257-.59-1.666-3.288-.86-4.058.82-.786 2.738.586 4.118.8 1.53.318 3.058.655 4.61.798 6.023.555 12.048 1.067 18.077 1.353zm22.928-36.436c.79.137 1.64.736 2.03 1.476.398.763.19 1.807.122 2.706-.038.51.07 1.25-.37 1.537-.53.34-1.322.11-1.967 0-.654-.12-1.45-.17-1.967-.62-.45-.4-.7-1.08-.61-1.66.09-.96.5-1.91 1.11-2.65.39-.48 1.06-.91 1.66-.8z"/><path fill="#F3F0ED" d="M394.935 78.09c3.032-.063 6.09.005 9.1.368 3.113.375 6.328.816 9.345 1.783.754.25-.443.67-.553 1.05-.22 1.09-.315 2.21-.43 3.32-.22 2.09-.175 4.18-.554 6.27-1.502 8.27-2.676 16.67-5.103 24.72-.607 2.01-1.754 3.93-3.566 4.31-1.398.26-1.654-2.73-3.013-3.01-2.5-.5-5.05.98-7.62.8-7.82-.53-15.67-1.4-23.36-2.95-1.92-.39 1.18-.89 1.48-1.54.67-1.28 1.07-2.68 1.36-4.12.6-3.04.93-6.11 1.35-9.22.59-4.34.87-8.76 1.85-13.03.46-2.01.93-4.32 2.52-5.65 2.02-1.69 4.92-2 7.5-2.46 3.2-.57 6.47-.55 9.72-.61z"/></g><g stroke-linecap="round"><path fill="#C8BEB7" stroke-width=".738" d="M380.802 100.962c.81-.036.67-.2.738-.245.215-.144.492-.164.737-.246l.738-.24c.246-.08.536-.08.738-.24.23-.18.398-.46.492-.74.078-.23-.04-.49 0-.73.042-.25.04-.58.246-.74.2-.14.51-.07.74 0 .28.1.53.29.74.49.21.21.29.53.49.74.21.21.45.55.74.49.29-.05.35-.48.49-.73.18-.32.26-.7.49-.98.19-.22.51-.3.74-.49.27-.22.45-.54.74-.74.22-.14.5-.34.74-.24.28.11.26.55.49.74.2.16.48.2.74.25.24.04.49 0 .74 0s.5.04.74 0c.26-.04.49-.16.74-.24.25-.08.51-.13.74-.24.27-.13.46-.4.74-.49.23-.08.62-.18.74 0 .13.19-.13.51-.24.74-.13.27-.36.48-.49.74-.12.23-.34.5-.25.74.11.27.46.4.74.49.24.08.5 0 .74 0 .25 0 .53-.13.74 0 .26.15.24.59.49.74.22.13.5.04.74 0 .26-.04.48-.2.74-.24.24-.04.5-.08.74 0 .28.1.53.29.74.49.21.21.4.46.49.74.08.24-.04.5 0 .74.04.26.13.51.25.74.13.26.36.47.49.74.12.23.2.48.25.74.04.24 0 .49 0 .74v2.22c0 .25.08.5 0 .74-.09.28-.3.51-.49.74-.22.26-.54.45-.73.74-.14.21-.16.49-.25.74l-.24.73c-.08.25-.04.58-.24.74-.19.15-.51.11-.73 0-.31-.15-.51-.47-.74-.73-.19-.23-.32-.5-.49-.74-.16-.25-.36-.48-.49-.74-.11-.23-.01-.68-.24-.74-.26-.07-.47.36-.73.49-.23.12-.5.13-.74.25-.26.13-.47.36-.73.49-.23.12-.51.13-.74.25-.26.13-.45.395-.73.49-.23.08-.49 0-.73 0s-.5.04-.74 0c-.26-.044-.51-.36-.74-.25-.23.12-.29.485-.24.74.05.29.36.475.49.74.12.23.2.48.25.74.04.24.13.524 0 .735-.15.25-.45.39-.73.49-.24.07-.5 0-.74 0h-1.48c-.25 0-.5.04-.74 0-.254-.05-.553-.07-.74-.25-.18-.19-.2-.48-.24-.74-.04-.24.04-.5 0-.74-.05-.26-.29-.48-.25-.74.05-.297.26-.56.49-.74.206-.16.54-.087.74-.25.23-.19.4-.46.49-.74.08-.236.08-.51 0-.74-.09-.28-.24-.59-.49-.74-.21-.13-.54.15-.74 0-.2-.156-.08-.536-.24-.74-.19-.23-.46-.4-.74-.49-.234-.08-.5.04-.74 0-.26-.04-.494-.16-.74-.243-.25-.08-.48-.24-.74-.24s-.48.206-.74.25c-.24.04-.5-.08-.74 0-.28.09-.53.28-.74.49-.21.21-.24.58-.49.73-.21.13-.5 0-.74 0-.25 0-.52.11-.74 0-.31-.153-.47-.513-.74-.74-.22-.19-.45-.4-.732-.493-.232-.08-.53.125-.74 0-.26-.153-.4-.46-.493-.74-.073-.234-.04-.496 0-.74.047-.254.17-.49.25-.736.08-.25.205-.48.248-.74.04-.243 0-.493 0-.74s.15-.54 0-.74c-.15-.21-.55-.06-.74-.25-.18-.18-.16-.49-.25-.73-.08-.246-.2-.48-.24-.74-.04-.24-.12-.525 0-.74.15-.25.46-.39.74-.49.238-.08.497 0 .74 0s.5-.04.74 0c.26.045.587.04.74.25.15.2-.08.51 0 .74.09.28.28.53.49.74.21.21.468.39.74.5.15.06.347.07.49 0z"/><path fill="none" stroke-width=".492" d="M388.07 99.954l.075.074m.418.787l.073.074m.33.8l.074.07m.726.62l.074.07m.71.16l.093.05m.573.51l.074.07m.222.75l.068.08m.132.65l.027.1m0 .76l-.04.1m-.48.53l-.1.04m-.79-.07l-.09-.05m-.38-.66l-.03-.11m-.02-.82l.05-.09m.67-.61l.1-.01m1.65.15l.1-.01m.8.01l.1-.01m.7-.06l.08-.07m.52-.58l.07-.07m.62-.32l.1-.04m.57-.11h.1m.64-.93s.43.26.62.43c.15.14.27.31.37.49.08.15.13.33.18.49.01.04 0 .06 0 .06"/><path fill="none" stroke-width=".492" d="M396.74 103.397s.59-.56.86-.86c.213-.235.677-.8.677-.8"/></g><g stroke-width="2"><path fill="#C8BEB7" stroke-width=".205" d="M383.485 83.21c1.332 0 2.54.54 3.413 1.414.874.874 1.415 2.08 1.415 3.413 0 1.332-.54 2.54-1.415 3.412-.874.87-2.08 1.41-3.413 1.41-1.332 0-2.54-.54-3.413-1.42-.873-.88-1.414-2.08-1.414-3.42 0-1.33.54-2.54 1.414-3.42.874-.88 2.08-1.42 3.413-1.42z"/><path fill="#F3F0ED" stroke-width=".24" d="M383.594 83.835c1.157 0 2.206.47 2.965 1.23.75.76 1.22 1.807 1.22 2.965 0 1.157-.47 2.205-1.23 2.965-.76.76-1.81 1.23-2.97 1.23s-2.21-.47-2.97-1.23c-.76-.76-1.23-1.808-1.23-2.965 0-1.158.47-2.206 1.23-2.965.76-.76 1.8-1.23 2.96-1.23z"/><g stroke-linecap="round"><path fill="#C8BEB7" stroke-width=".147" d="M379.537 84.078l3.154 1.174 1.18-4.255 1.1 4.255 2.94-1.247-1.32 3.154 3.89 1.02-3.88 1.1 1.1 3.15-2.79-1.32-1.17 4.25-1.1-4.26-3.08 1.17 1.17-3.01-4.25-1.25 4.26-.81-1.17-3.16z"/><path fill="#F3F0ED" stroke-width=".106" d="M380.697 85.342l2.28.85.85-3.08.796 3.08 2.122-.903-.955 2.28 2.813.74-2.813.79.796 2.28-2.016-.96-.85 3.08-.795-3.08-2.228.85.85-2.18-3.08-.91 3.08-.59-.85-2.28z"/></g><path fill="#C8BEB7" stroke-width=".205" d="M383.61 87.048c.34 0 .648.138.872.36.223.224.36.532.36.873 0 .34-.137.65-.36.88-.224.23-.532.36-.872.36-.34 0-.648-.13-.87-.36-.224-.22-.362-.53-.362-.87 0-.34.138-.65.36-.87.224-.22.532-.36.872-.36z"/><path fill="#F3F0ED" stroke-width=".161" d="M383.6 87.388l.914.908-.91.912-.91-.908.907-.912z"/></g><g stroke-width=".195"><path fill="#C8BEB7" d="M394.27 90.386c1.41-.827 4.177-.332 6.222-.758 2.138-.445 4.632-1.966 6.336-1.677.74.07-.642 1.85-1.443 2.4-1.248.85-2.59 1.21-4.333 1.56-1.743.35-3.125.54-4.6.24-.917-.18-2.793-1.33-2.182-1.76z" stroke-linecap="round"/><path fill="#F3F0ED" d="M399.602 84.23c-.04-.034-.103-.147-.144-.22-.064-.118-.127-.238-.173-.364-.066-.184-.125-.373-.163-.565-.04-.19-.08-.38-.068-.58.004-.07.088-.11.114-.17.02-.04.02-.15.02-.15.028-.1.444-.19.66-.18.08 0 .14.08.22.11.064.02.137.04.21.06.07.02.148.02.21.06.06.04.072.13.136.17.057.04.135.06.21.06.08 0 .158-.03.24-.05l.19-.03c.063-.01.133-.01.193-.04.063-.03.117-.08.172-.13.04-.05.07-.12.11-.17.03-.05.06-.12.11-.17.04-.04.13-.04.18-.08.05-.05.05-.13.11-.17.05-.04.12-.02.19-.04.06-.01.13-.07.19-.04.05.03.07.12.08.19.01.06-.01.13-.01.2-.01.07-.02.14-.01.2.02.19.08.38.12.58.04.18.06.38.11.57.01.06.06.12.08.18.05.19.12.37.16.57.01.06.01.14-.01.2-.03.07-.08.12-.12.18-.04.05-.06.13-.11.17-.06.04-.14.01-.2.04-.07.03-.11.1-.17.13-.06.03-.13.03-.19.04l-.58.12c-.07.02-.13.04-.19.04-.08 0-.16-.02-.21-.06-.07-.04-.08-.13-.14-.17-.11-.09-.24-.15-.34-.23-.12-.07-.23-.17-.35-.23-.07-.03-.15-.04-.21-.05-.08-.02-.14-.05-.21-.06-.07-.01-.13.03-.19.04-.1.02-.24.07-.29.06z" stroke-linecap="round"/><path fill="#C8BEB7" d="M398.84 82.175l.478-.097 1.468 7.275-.48.096-1.467-7.28z"/></g><path fill="#AC9D93" stroke-width=".492" d="M410.613 97.653c.1-.03-.078.355-.123.554-.037.164-.11.323-.123.49-.027.328.043.66 0 .985-.02.155-.184.43-.184.43-.062-.06-.234-.06-.308-.06-.172 0-.344-.075-.49 0-.16.06-.32.393-.37.368-.062-.025.073-.332.123-.492.037-.172.21-.443.123-.492-.09-.074-.33.172-.49.246-.16.05-.37.012-.49.123-.15.11-.11.37-.24.492-.13.098-.35.21-.49.123-.15-.098.01-.406-.12-.492-.14-.098-.33.098-.49.123-.17.02-.38.12-.49 0-.12-.12.11-.38 0-.49-.12-.12-.33-.02-.49 0-.17.01-.37.21-.49.13-.12-.1-.07-.34 0-.49.06-.16.25-.24.37-.37.12-.12.28-.22.37-.36.09-.19.1-.42.12-.61.02-.21 0-.61 0-.61 0-.01-.05.33 0 .49.04.17.09.39.25.49.18.1.41.01.62 0 .16-.02.37-.01.5-.12.11-.12.01-.37.12-.49.11-.15.31-.24.49-.24.17 0 .33.13.49.24.14.1.18.37.37.37.17 0 .2-.32.37-.37.35-.12.96-.21 1.11-.12z" stroke-linecap="round"/><path fill="#C8BEB7" stroke-width=".492" d="M374.03 96.362c-.07-.113-.044-.374-.06-.553-.015-.17-.055-.33-.062-.5-.013-.33-.027-.66 0-.99.014-.17.087-.33.123-.49.11-.49.21-.99.31-1.48.04-.17.1-.33.13-.49.02-.08 0-.25 0-.25.06-.06.21.27.37.37.14.08.33.09.49.06.16-.05.25-.35.43-.31.16.02.16.28.25.43.08.13.09.36.25.43s.38.02.56-.06c.16-.1.19-.43.37-.43.16 0 .21.27.31.43.09.14.14.3.25.43.1.14.37.19.37.37 0 .17-.28.21-.37.37-.08.13-.22.36-.12.49.09.11.37-.12.49 0 .25.23.47.57.49.92 0 .16-.27.21-.43.24-.17.03-.33-.1-.49-.06-.17.02-.3.15-.43.25-.16.08-.26.3-.43.3-.18 0-.34-.16-.43-.31-.1-.15.06-.43-.06-.5-.12-.06-.33.11-.43.24-.11.12-.08.32-.12.49-.05.16.03.4-.12.49-.16.07-.33-.15-.49-.19-.17-.05-.37-.17-.49-.06-.12.1 0 .32 0 .49 0 .16.11.41 0 .49-.13.07-.38-.06-.49-.18-.12-.14-.06-.35-.12-.49-.02-.05-.12-.04-.12-.06z" stroke-linecap="round"/></g><path fill="#FEE5B5" stroke="#FEE5B5" stroke-width=".725" d="M61.08 57.254c-7.206 2.22-11.522 9.717-18.13 13.054-6.925 3.856-17.657 2.612-22.118 8.34-2.49 3.195 5.864 6.597 8.34 10.152 1.7 4.183-1.09 11.024 3.988 12.69 7.453 2.287 15.35-2.937 22.843-5.438 9.464-3.158 22.756-3.914 27.92-10.878 2.81-3.79-11.33-5.39-12.328-10.878-.965-5.294 9.945-10.527 7.415-14.36-2.877-4.35-12.162-4.45-17.93-2.682z" stroke-linecap="round"/><path fill="#7C512C" d="M40.937 35.745c-1.24 1.96.102 4.916-1.206 6.836-1.09 1.6-4.75.9-5.63 2.72-.76 1.59.96 3.46 2.1 4.82 2.01 2.38 4.73 4.45 7.53 6.26.59.42 1.66.22 1.1-.6-2.23-3.23-7.05-5.2-7.97-8.86-.49-1.96 3.94-2 4.91-3.67 1.22-2.08-.38-5.01 1.5-7.06 2.14-2.28 6.32-1.76 8.99-3.48.81-.53 1.65-2.36.84-2.44-2.13-.2-4.4 1.1-6.35 2.05-2.13.9-4.64 1.64-5.79 3.44z"/><path fill="#7F7F7F" stroke="#000" stroke-width=".725" d="M50.985 25.724c-1.35.437-.517 4.09-1.93 5.353-2.05 1.832-5.403 1.712-7.67 3.315-.587.417-.228 1.343.45 1.39 2.71.19 7.034-3.142 8.36-.677 3.536 6.572 5.03 14.816 3.48 22.038-.663 2.93-5.826 1.725-8.69 1.848-.857.04-2.446-1.7-2.265-1.22.333.88 1.857 3.49 3.557 4.12 3.762 1.39 7.994 2.59 11.934 1.59 4.71-1.19 8.92-4.32 12.37-7.72 1.18-1.29 1.08-4.87.47-5.26-.63-.37-1.41 3.02-2.8 3.68-2.56 1.21-6.85 3.98-8.54 1.64-4.1-6.36-5.6-14.48-5.11-21.91.2-2.41 5.05-.75 7.02-1.89.52-.3.34-1.47-.34-1.78-2.21-.8-5.05.47-7.1-.48-1.54-.71-2-4.38-3.16-4.01z" stroke-linecap="round"/><path d="M51.73 30.555c-.442.084-.808.34-1.043.686-.234.35-.337.79-.252 1.23.084.44.34.81.686 1.05.35.24.79.34 1.23.26.44-.08.81-.34 1.05-.68s.34-.78.26-1.22c-.08-.44-.34-.8-.68-1.04-.34-.23-.78-.34-1.22-.25z"/><path fill="#FFF" d="M44.876 50.706l.005.026.02.063c.01.024.01.046.01.063l.01.026v-.026l-.01-.063c0-.025-.01-.047-.01-.063v-.026z"/><path fill="#7C512C" d="M51.736 31.612c-.326-.11-.295.914-.124 1.317 1.063 1.21.44 1.3.818 1.86.518.77 1.244 1.41 1.96 2.02.636.54 1.257.99 1.988 1.2 1.368.49 4.658 1.6 4.22.85-.838-1.43-4.638-3.43-6.823-5.26-.77-.6-1.36-1.77-2.04-2.01z"/><path fill="none" stroke="#000" stroke-width=".363" d="M43.75 54.76c-.394.088-.804.128-1.185.264-.096.034-.144.212-.144.212m-.33-2.15s-.62.104-.92.213c-.12.04-.23.14-.32.24-.08.09-.1.22-.16.32-.02.05-.08.14-.08.14m-.01-2.27s-.32.03-.48.05c-.12.02-.23.04-.35.07-.12.02-.24.03-.35.07-.13.04-.27.07-.39.15-.12.07-.21.2-.31.3-.02.02 0 0 0 0m.2-2.16s-.42-.06-.63-.11c-.13-.03-.25-.1-.39-.11-.12-.02-.24 0-.36.01s-.24.04-.35.07c-.12.03-.23.07-.34.12-.08.03-.22.11-.22.11m.88-1.78s-.29-.02-.43-.05c-.13-.03-.26-.07-.39-.11-.13-.05-.26-.14-.4-.17s-.28.01-.42.02c-.12 0-.24.01-.36.03-.1.02-.3.09-.3.09m1.42-1.75l-.45-.23c-.12-.06-.24-.12-.37-.17-.12-.06-.23-.13-.36-.16-.12-.02-.24.02-.36.03-.12.01-.24 0-.37.01-.12.01-.24.04-.35.07l-.25.04m3.35-.84s-.02-.3-.04-.4l-.06-.36c-.02-.14-.09-.28-.17-.33-.05-.1-.24-.14-.24-.14-.14-.09-.27-.14-.4-.18-.03-.01 0 0 0 0m2.93.55s-.11-.58-.22-.85c-.04-.11-.15-.19-.24-.28-.02-.02-.08-.06-.08-.06m2.81-.47s-.08-.29-.17-.41c-.08-.11-.21-.17-.32-.23-.11-.07-.24-.08-.34-.16-.1-.08-.14-.22-.24-.29-.1-.07-.24-.07-.35-.11-.03-.01-.04-.03-.04-.03m1.87-1.56s-.24-.17-.36-.24c-.11-.06-.213-.13-.33-.177-.13-.05-.26-.076-.39-.11l-.193-.058m1.28-1.58s-.184-.2-.294-.278c-.13-.088-.27-.145-.41-.2-.15-.06-.3-.11-.452-.155-.102-.03-.322-.06-.322-.06m12.38-4.39c-.236.06-.476.11-.705.19-.06.02-.11.09-.11.09m2.46 1.3s-.674.11-.99.227c-.13.05-.244.14-.324.25-.07.1-.07.24-.115.352-.01.04-.05.09-.05.09m3.375.57s-.33.006-.49.04c-.12.02-.24.05-.35.12-.11.07-.19.17-.28.27-.08.1-.15.21-.21.32-.07.11-.13.225-.18.35-.01.03.02.106.02.106m3.28-.22s-.27.04-.38.11c-.13.09-.21.23-.3.355-.08.11-.15.23-.21.35-.05.11-.12.34-.12.34m2.28-.14s-.236.16-.316.28c-.07.1-.08.23-.12.35-.01.03-.02.08-.02.08" stroke-linecap="round"/><g fill="#CCE117" stroke="#646709" stroke-width=".725" stroke-linecap="round"><path d="M85.67 55.027c-7.52-1.117-15.763-3.154-22.118.363-4.063 2.115-2.75 8.703-2.67 13.038.037 1.75 1.344 4.73 2.308 4.73.964 0 2.025-2.974 2.307-4.73.49-6.212-2.55-8.385.23-10.5 3.872-2.924 9.513-.996 14.142-.725 2.22.096 4.53 2.623 6.16 1.813 1.16-.624 1.52-3.71-.36-3.99z"/><path d="M72.634 41.646c-5.618 3.155-10.957 7.89-14.232 13.144-2.338 3.763-2.75 8.703-2.67 13.038.037 1.75 1.344 4.73 2.308 4.73.964 0 2.025-2.974 2.307-4.73.49-6.212-1.62-7.537.23-10.5 3.172-5.095 8.815-8.515 13.508-12.42 1.534-1.107 5.437-1.597 5.076-2.537-.35-.89-4.5-1.84-6.52-.72z"/><path d="M71.143 30.76c-7.257 6.75-12.94 15.53-17.44 24.13-2.054 3.927-2.752 8.703-2.67 13.038.036 1.75 1.343 4.73 2.307 4.73s2.025-2.974 2.307-4.73c.49-6.212-1.205-7.312.23-10.5 3.77-8.368 8.89-16.514 15.266-23.406 1.74-2.044 7.924-1.61 7.977-2.175.053-.565-6.087-2.844-7.977-1.088z"/></g><path fill="#EEC997" d="M36.807 89.664c-.602 1.594-3.368 2.344-3.038 3.878.56 2.604 3.28 5.69 5.13 5.875 1.27.117.18-3.85.95-5.62 1.07-2.13 4.25-3.287 4.45-5.772.1-1.345-3.1-.528-3.66-1.756-.81-1.8.6-4.83-.29-5.93-.5-.62-1.57.95-2.22 2.64-.64 1.69-.54 4.56-1.35 6.68zm25.07-5.877c-1.56.687-4.03-.763-4.896.547-1.46 2.224-1.76 6.33-.59 7.78.81.995 2.88-2.564 4.68-3.25 2.28-.724 5.33.734 7.24-.867 1.04-.866-1.79-2.584-1.31-3.843.72-1.834 3.87-2.953 4.03-4.35.09-.79-1.78-.453-3.43.268-1.65.72-3.63 2.806-5.71 3.715z"/><g fill="#CCE117" stroke="#646709" stroke-width=".492" stroke-linecap="round"><path d="M11.605 79.01c3.934-3.344 7.955-7.477 12.88-7.73 3.102-.24 4.71 4.028 6.22 6.556.607 1.022.923 3.21.367 3.555-.555.35-2.234-.98-3.027-1.89-2.512-3.4-1.54-5.75-3.903-5.97-3.28-.29-5.84 2.84-8.412 4.66-1.245.85-1.675 3.14-2.903 3.26-.89.06-2.206-1.59-1.222-2.43z"/><path d="M14.412 66.56c4.37-.197 9.15.615 12.923 2.47 2.7 1.33 4.71 4.028 6.22 6.556.607 1.022.923 3.21.367 3.555-.555.35-2.234-.98-3.027-1.89-2.512-3.4-1.772-4.92-3.903-5.97-3.657-1.8-8.138-1.74-12.244-2.31-1.283-.09-3.71 1.03-3.838.36-.115-.64 1.935-2.68 3.502-2.76z"/><path d="M11.218 59.83c6.608 1.287 13.035 4.307 18.717 7.65 2.593 1.525 4.71 4.028 6.22 6.556.607 1.022.923 3.21.367 3.555-.555.35-2.234-.98-3.027-1.89-2.512-3.4-1.93-4.65-3.903-5.97-5.177-3.47-11.052-6.33-17.202-8.01-1.738-.55-5.146 1.92-5.38 1.61-.233-.3 2.49-3.82 4.208-3.49z"/></g><path fill="#FFBE00" stroke="#FFBE00" stroke-width=".725" d="M71.17 62.128L51.046 57.05l-22.39 7.525 18.764 6.89 23.75-9.337z" stroke-linecap="round"/><path fill="#D4A603" stroke="#2F1D00" d="M23.25 258.75c2.552 0 4.865.672 6.54 1.758 1.674 1.087 2.71 2.587 2.71 4.242 0 1.655-1.036 3.155-2.71 4.242-1.675 1.086-3.988 1.758-6.54 1.758s-4.865-.672-6.54-1.758c-1.674-1.087-2.71-2.587-2.71-4.242 0-1.655 1.036-3.155 2.71-4.242 1.675-1.086 3.988-1.758 6.54-1.758z" transform="matrix(-.25373 .08415 .09584 .28897 28.4 -18.4)"/><path fill="#FFBE00" stroke="#2F1D00" d="M23.25 258.75c2.552 0 4.865.672 6.54 1.758 1.674 1.087 2.71 2.587 2.71 4.242 0 1.655-1.036 3.155-2.71 4.242-1.675 1.086-3.988 1.758-6.54 1.758s-4.865-.672-6.54-1.758c-1.674-1.087-2.71-2.587-2.71-4.242 0-1.655 1.036-3.155 2.71-4.242 1.675-1.086 3.988-1.758 6.54-1.758z" transform="matrix(-.3022 .10023 .11415 .34416 25.6 -31.05)"/><path fill="#FFEC00" stroke="#000" stroke-width=".363" d="M44.28 61.96c-.5.455-.822 1.01-.94 1.54-.116.528-.028 1.03.292 1.382.32.35.813.484 1.35.416.538-.068 1.12-.338 1.62-.793.498-.455.82-1.01.937-1.54.11-.528.03-1.03-.3-1.382-.32-.35-.81-.484-1.35-.416s-1.12.338-1.62.793z"/><path fill="#AE835E" stroke="#000" stroke-width="2" d="M220.5 266H254v32l-10.5-.5-1-15-5.5-.5h-4.5l-1 16h-11v-32z" stroke-linecap="round" transform="matrix(-.18153 .0291 .02234 .1393 69.6 -4.75)"/><path fill="#FFD063" stroke="#000" stroke-width=".363" d="M42.106 61.358c-.675 0-1.288.193-1.73.505-.444.312-.718.742-.718 1.217 0 .475.274.906.717 1.218.443.312 1.056.505 1.73.505.676 0 1.288-.193 1.73-.505.444-.312.718-.743.718-1.218s-.274-.905-.717-1.217c-.443-.312-1.055-.505-1.73-.505z"/><path fill="#FFBE00" stroke="#2F1D00" d="M23.25 258.75c2.552 0 4.865.672 6.54 1.758 1.674 1.087 2.71 2.587 2.71 4.242 0 1.655-1.036 3.155-2.71 4.242-1.675 1.086-3.988 1.758-6.54 1.758s-4.865-.672-6.54-1.758c-1.674-1.087-2.71-2.587-2.71-4.242 0-1.655 1.036-3.155 2.71-4.242 1.675-1.086 3.988-1.758 6.54-1.758z" transform="matrix(-.3022 .10023 .11415 .34416 17.8 -27.7)"/><path fill="#FFED00" stroke="#2F1D00" d="M23.25 258.75c2.552 0 4.865.672 6.54 1.758 1.674 1.087 2.71 2.587 2.71 4.242 0 1.655-1.036 3.155-2.71 4.242-1.675 1.086-3.988 1.758-6.54 1.758s-4.865-.672-6.54-1.758c-1.674-1.087-2.71-2.587-2.71-4.242 0-1.655 1.036-3.155 2.71-4.242 1.675-1.086 3.988-1.758 6.54-1.758z" transform="matrix(-.31838 0 0 .3626 70.65 -33.05)"/><g stroke="#000" stroke-width=".363" stroke-linecap="round"><path fill="#AE835E" d="M72.257 62.61L47.6 70.95v18.854L72.258 78.2V62.61z"/><path fill="#8B6338" d="M70.082 65.872l-19.218 7.615v11.965l19.218-8.702V65.872z"/><path fill="none" d="M69.884 68.67l-19.218 7.615m19.468-4.515l-19.218 7.615m19.218-4.715l-19.218 7.615"/><path fill="#8D6338" d="M47.582 71.186l-20.85-5.983v17.95l20.67 6.888.18-18.85z"/><path fill="#7C512C" d="M44.7 72.443L29.29 67.91l-.18 14.867 15.41 4.713.18-15.047z"/><path fill="none" d="M44.7 75.205l-15.41-4.17m15.36 8.27l-15.41-4.17m15.41 8.32l-15.41-4.17"/><path fill="#BDAE58" d="M26.61 65.374l24.84-8.34 21.03 5.62v-1.087l-21.176-5.04-24.693 7.76v1.087z"/><path fill="#BDAE58" d="M72.44 61.426l-24.84 8.34-21.03-5.62v1.087l20.668 5.983 25.2-8.702v-1.088z"/></g><path fill="#AF825C" stroke="#000" stroke-width=".725" d="M47.727 42.885l-30.64.907 9.066 20.124L50.99 55.94l-3.263-13.055z" stroke-linecap="round"/><path fill="url(#d)" stroke="url(#e)" stroke-width="2" d="M113 46.5l76 4-22.5 50.5-61-19 7.5-35.5z" stroke-linecap="round" transform="matrix(-.34563 0 0 .32762 85.95 28.9)"/><path fill="url(#f)" stroke="#000" d="M95.5 95.25l-7.75 33.5c-.5 2.622 7.95-3.25 12.75-6.25 2.05-1.9 4.65-3.55 6-6 1.25-2.4 1.65-5.3 1.5-8-.2-2.8-.65-5.94-2.5-8-2.445-2.746-8.528-7.048-9.5-5.5z" stroke-linecap="round" transform="matrix(-.34563 0 0 .32762 79.7 13)"/><g stroke="#000" stroke-width=".725" stroke-linecap="round"><path fill="#8B6338" d="M17.357 43.942c-.76-1.12-1.998.655-2.538 1.45-1.12 1.81-2.28 3.87-2.18 5.983.12 2.71 1.53 5.27 2.9 7.615.79 1.364 2 2.615 3.44 3.263 2.06.922 5.63 2.23 7.07 1.27 1.01-.68-1.38-3.15-2.09-4.715-2.24-4.955-3.58-10.38-6.62-14.866z"/><path fill="#7C512C" d="M16.288 48.09c.804-.075 1.315 1.65 1.813 2.556.51 1.05.73 2.215 1.18 3.263 1.03 2.36 3.74 6.1 3.18 7.07-.52.88-3.81-1.72-5.35-3.09-.85-.76-1.22-2.03-1.63-3.18-.41-1.15-.96-2.36-.81-3.65.13-1.13.77-2.91 1.63-2.99z"/></g><path fill="#FFBE00" stroke="#2F1D00" d="M23.25 258.75c2.552 0 4.865.672 6.54 1.758 1.674 1.087 2.71 2.587 2.71 4.242 0 1.655-1.036 3.155-2.71 4.242-1.675 1.086-3.988 1.758-6.54 1.758s-4.865-.672-6.54-1.758c-1.674-1.087-2.71-2.587-2.71-4.242 0-1.655 1.036-3.155 2.71-4.242 1.675-1.086 3.988-1.758 6.54-1.758z" transform="matrix(-.3022 .10023 .11415 .34416 35.15 -31.45)"/><path fill="#D4A603" stroke="#2F1D00" d="M23.25 258.75c2.552 0 4.865.672 6.54 1.758 1.674 1.087 2.71 2.587 2.71 4.242 0 1.655-1.036 3.155-2.71 4.242-1.675 1.086-3.988 1.758-6.54 1.758s-4.865-.672-6.54-1.758c-1.674-1.087-2.71-2.587-2.71-4.242 0-1.655 1.036-3.155 2.71-4.242 1.675-1.086 3.988-1.758 6.54-1.758z" transform="matrix(-.25373 .08415 .09584 .28897 35.8 -14)"/><path fill="#FFEC00" stroke="#000" stroke-width=".363" d="M51.953 58.294c-.658.153-1.21.48-1.57.885-.36.4-.53.88-.423 1.34.108.46.473.82.976 1.02.502.2 1.142.25 1.8.09.657-.16 1.21-.48 1.57-.89.36-.41.53-.89.42-1.35-.106-.46-.47-.82-.974-1.02-.502-.21-1.142-.25-1.8-.1z"/><path fill="#FFD063" stroke="#000" stroke-width=".363" d="M53.856 59.408c-.675 0-1.288.193-1.73.505-.444.312-.718.742-.718 1.217 0 .475.274.906.717 1.218.443.312 1.056.505 1.73.505.676 0 1.288-.193 1.73-.505.444-.312.718-.743.718-1.218s-.274-.905-.717-1.217c-.443-.312-1.055-.505-1.73-.505z"/><path fill="#FFEC00" stroke="#000" stroke-width=".363" d="M38.09 62.737c-.664-.117-1.3-.034-1.79.196-.492.23-.836.607-.92 1.075-.08.468.114.94.496 1.324.382.384.95.68 1.616.797.665.11 1.3.03 1.792-.2.49-.23.835-.61.918-1.08.082-.47-.113-.94-.495-1.33-.382-.39-.952-.68-1.616-.8z"/><path fill="#D4A603" stroke="#2F1D00" d="M23.25 258.75c2.552 0 4.865.672 6.54 1.758 1.674 1.087 2.71 2.587 2.71 4.242 0 1.655-1.036 3.155-2.71 4.242-1.675 1.086-3.988 1.758-6.54 1.758s-4.865-.672-6.54-1.758c-1.674-1.087-2.71-2.587-2.71-4.242 0-1.655 1.036-3.155 2.71-4.242 1.675-1.086 3.988-1.758 6.54-1.758z" transform="matrix(.02902 .26574 .30265 -.03305 -36.05 68.75)"/><path fill="#FFEC00" stroke="#000" stroke-width=".363" d="M50.57 64.307c-.623.26-1.113.675-1.4 1.134-.29.46-.376.97-.192 1.4.183.44.603.73 1.132.85.53.12 1.168.06 1.79-.2.623-.26 1.113-.67 1.4-1.13.29-.46.376-.96.192-1.4-.183-.43-.602-.73-1.132-.84-.53-.11-1.168-.06-1.79.21z"/><path fill="#FFD063" stroke="#000" stroke-width=".363" d="M46.814 65.55c-.462.493-.74 1.07-.816 1.607-.076.537.05 1.032.397 1.357.346.325.848.42 1.378.31.53-.11 1.09-.424 1.553-.917.462-.492.74-1.07.816-1.607.075-.536-.05-1.03-.397-1.356-.347-.325-.848-.42-1.38-.31-.53.11-1.09.424-1.55.916z"/><g fill="#98D2F5" stroke="#426C7D" stroke-width=".259"><path d="M44.95 70.276c.227-.043.416-.175.538-.353.12-.178.175-.402.132-.63-.043-.23-.175-.418-.353-.54-.178-.12-.402-.175-.63-.132-.23.05-.418.18-.54.36-.12.18-.175.4-.132.63.043.23.175.42.353.54.178.12.402.18.63.13zm1.55.7c.227-.043.416-.175.538-.353.12-.178.175-.402.132-.63-.043-.23-.175-.418-.353-.54-.178-.12-.402-.175-.63-.132-.23.05-.418.18-.54.36-.12.18-.175.4-.132.63.043.23.175.42.353.54.178.12.402.18.63.13zm1.2 1.55c.227-.043.416-.175.538-.353.12-.178.175-.402.132-.63-.043-.23-.175-.418-.353-.54-.178-.12-.402-.175-.63-.132-.23.05-.418.18-.54.36-.12.18-.175.4-.132.63.043.23.175.42.353.54.178.12.402.18.63.13zm.2 1.7c.227-.043.416-.175.538-.353.12-.178.175-.402.132-.63-.043-.23-.175-.418-.353-.54-.178-.12-.402-.175-.63-.132-.23.05-.418.18-.54.36-.12.18-.175.4-.132.63.043.23.175.42.353.54.178.12.402.18.63.13z"/><path d="M48.9 75.526c.227-.043.416-.175.538-.353.12-.178.175-.402.132-.63-.043-.23-.175-.418-.353-.54-.178-.12-.402-.175-.63-.132-.23.05-.418.18-.54.36-.12.18-.175.4-.132.63.043.23.175.42.353.54.178.12.402.18.63.13zm1.75.1c.227-.043.416-.175.538-.353.12-.178.175-.402.132-.63-.043-.23-.175-.418-.353-.54-.178-.12-.402-.175-.63-.132-.23.05-.418.18-.54.36-.12.18-.175.4-.132.63.043.23.175.42.353.54.178.12.402.18.63.13z"/><path d="M51.95 74.576c.227-.043.416-.175.538-.353.12-.178.175-.402.132-.63-.043-.23-.175-.418-.353-.54-.178-.12-.402-.175-.63-.132-.23.05-.418.18-.54.36-.12.18-.175.4-.132.63.043.23.175.42.353.54.178.12.402.18.63.13z"/><path d="M52.65 73.126c.227-.043.416-.175.538-.353.12-.178.175-.402.132-.63-.043-.23-.175-.418-.353-.54-.178-.12-.402-.175-.63-.132-.23.05-.418.18-.54.36-.12.18-.175.4-.132.63.043.23.175.42.353.54.178.12.402.18.63.13z"/><path d="M53.5 71.726c.227-.043.416-.175.538-.353.12-.178.175-.402.132-.63-.043-.23-.175-.418-.353-.54-.178-.12-.402-.175-.63-.132-.23.05-.418.18-.54.36-.12.18-.175.4-.132.63.043.23.175.42.353.54.178.12.402.18.63.13z"/><path d="M53 70.126c.227-.043.416-.175.538-.353.12-.178.175-.402.132-.63-.043-.23-.175-.418-.353-.54-.178-.12-.402-.175-.63-.132-.23.05-.418.18-.54.36-.12.18-.175.4-.132.63.043.23.175.42.353.54.178.12.402.18.63.13zm.6-1.65c.227-.043.416-.175.538-.353.12-.178.175-.402.132-.63-.043-.23-.175-.418-.353-.54-.178-.12-.402-.175-.63-.132-.23.05-.418.18-.54.36-.12.18-.175.4-.132.63.043.23.175.42.353.54.178.12.402.18.63.13z"/></g><path fill="#96D4FF" stroke="#4F7E83" stroke-width=".411" d="M52.94 43.66c-.792 0-1.51.32-2.032.842-.52.52-.843 1.24-.843 2.034 0 .793.322 1.512.843 2.033.52.52 1.24.84 2.033.84.8 0 1.52-.32 2.04-.85.52-.52.85-1.24.85-2.04s-.32-1.52-.84-2.04-1.24-.85-2.03-.85z"/><path fill="#FFF" d="M53.253 44.284c-.312 0-.595.094-.8.246-.204.152-.33.362-.33.594 0 .232.126.442.33.594.205.152.488.246.8.246.31 0 .594-.094.798-.246.21-.152.34-.362.34-.594 0-.232-.12-.442-.33-.594-.2-.152-.48-.246-.79-.246z"/><path fill="#96D4FF" stroke="#4F7E83" stroke-width=".289" d="M56.913 37.793c-.508.23-.876.643-1.06 1.127-.184.484-.183 1.038.046 1.547.22.51.64.877 1.12 1.06.48.184 1.04.183 1.54-.046.51-.22.87-.64 1.06-1.12.18-.48.18-1.04-.05-1.54-.23-.51-.65-.87-1.13-1.06-.49-.18-1.04-.18-1.55.05z"/><path fill="#FFF" d="M57.35 37.938c-.2.09-.355.23-.442.388-.087.156-.108.328-.04.476.066.15.207.247.383.285.18.04.39.018.59-.072.2-.09.36-.232.44-.388.09-.157.11-.328.04-.477-.06-.148-.21-.247-.38-.285-.17-.04-.38-.017-.58.073z"/><path fill="#96D4FF" stroke="#4F7E83" stroke-width=".289" d="M49.687 35.407c.508-.23.876-.643 1.06-1.127.184-.484.183-1.038-.046-1.547-.22-.51-.64-.877-1.12-1.06-.48-.184-1.04-.183-1.54.046-.51.22-.87.64-1.06 1.12-.18.48-.18 1.04.05 1.54.23.51.65.87 1.13 1.06.49.18 1.04.18 1.55-.05z"/><path fill="#FFF" d="M49.4 35.112c.2-.09.355-.23.442-.388.087-.156.108-.328.04-.476-.066-.15-.207-.247-.383-.285-.18-.04-.39-.018-.59.072-.2.09-.36.232-.44.388-.09.157-.11.328-.04.477.06.148.21.247.38.285.17.04.38.017.58-.073z"/><path fill="#96D4FF" stroke="#4F7E83" stroke-width=".453" d="M56.967 25.238c-.796.358-1.373 1.007-1.66 1.766-.288.758-.287 1.626.072 2.423.35.797 1 1.373 1.76 1.66.76.288 1.62.287 2.42-.07.79-.36 1.37-1.01 1.66-1.767.28-.758.28-1.626-.08-2.423-.36-.797-1.01-1.374-1.77-1.662-.76-.287-1.63-.286-2.43.073z"/><path fill="#FFF" d="M57.753 25.71c-.313.14-.554.364-.69.61-.138.244-.17.512-.065.745.105.233.327.387.6.447.275.06.602.027.915-.114.313-.14.554-.363.69-.608.137-.245.17-.514.065-.746-.105-.233-.327-.387-.6-.447-.275-.06-.602-.027-.915.113z"/><path fill="#666" d="M58.653 94.35c2.824-.14 4.88 1.232 7.074 2.034 3.834.86 9.175.105 10.995 2.95 1.397 2.248-.68 5.892-2.947 7.597-3.31 2.47-8.19 2.06-12.327 2.94-3.274 1.04-6.56 3.45-9.9 2.83-2.784-.52-5.605-2.65-6.268-5.21-.818-3.15-.51-7.95 2.065-10.97 2.78-2.23 7.473-2 11.308-2.16z"/><path fill="#7F7F7F" d="M49.058 97.427c.794-.82 1.753-1.353 2.662-1.55.91-.2 1.77-.064 2.362.454.593.52.808 1.32.676 2.2-.13.88-.61 1.83-1.403 2.65-.794.82-1.753 1.35-2.663 1.55-.91.2-1.77.06-2.362-.45-.593-.52-.808-1.32-.676-2.19s.61-1.83 1.404-2.65z"/><path fill="url(#g)" d="M312.5 69.5c.812 4.88 1.29 9.713 3 14.25.838 2.223 2.414 4.02 4.25 5.25 8.583 1.976 5.075 4.734 8 5 1.527.08 2.75-2.015 2.75-3.5.045-1.77-1.89-3.175-3-4.75-1.64-2.59-4.225-4.807-5.25-7.75-1.96-5.623-3.3-11.734-4-17.75-.595-5.11-.6-10.338-.5-15.5.236-2.372 0-5.532 1.5-7 .846-.82 2.604 1.066 3 2.25 1.23 3.677 1.47 7.637 1.75 11.5.412 5.685-.227 11.384.5 17 .393 3.02.776 6.108 2.5 8.5.716.974 3.028 3.444 3.25-.25.888-14.778-2.002-29.57-1-44.25.397-3.7 3.51.197 4.25 1.5 1.41 2.51 1.656 5.444 1.75 8.25.134 4.107-1.008 7.826-1 11.75 0 2.285-.176 5.098 1.5 6.5 1.198 1.01 3.672-.548 4.25-2 1.374-3.47 0-7.74.75-11.5.286-1.433 1.37-4.785 2.25-4 1.778 1.6 2.74 5.51 3 8.5.2 2.374-.696 4.433-1.5 6.5-.99 2.514-2.13 4.785-3.5 7-1.044 1.684-2.927 3.05-3.5 5-1.052 3.564-1.056 7.323-1 11 .053 3.53-1.773 8.98 1 10.5 2.985 1.62 8.13-1.435 10.75-4.25 1.8-1.973.575-5.115.5-7.75-.01-.983-.38-2.057-.75-3-.512-1.31-1.572-2.56-1.75-4-.3-2.423-.72-6.177.25-7.5.567-.765 1.635 2.523 2.75 3.5 1.024.902 2.977 4.278 3.25 1.75 1.09-10.112-1.633-20.605-.25-30.75.44-2.52 4.25-2.065 4.75-.5 1.997 6.26.703 13.027 1.25 19.5 3.265 15.76-1.498 13.427.25 19.75 4.658 2.666 3.597-.744 4.5-2 4.77-7.41 1.034-10.68 1.25-15.5.247-5.418-.045-11.138 1.75-16.25.47-1.295 2.864-.063 3.25 1 1.067 2.956.343 6.17.5 9.25.138 2.67-.554 6.5.75 7.75.937 1.01 2.908-1.975 3.5-3.5.835-2.12-.45-4.965.5-7 .39-.64 2.24-1.044 2.5-.25.9 2.73.802 5.788 0 8.5-.785 2.647-3.393 4.36-4.75 6.75-1.867 3.297-2.79 7.478-5 10.75-2.436 3.602-5.835 6.758-9.25 9.75-5.676 5.265-14.444 7.9-18 15-3.47 6.926.75 15.693-.75 23.25-.375 1.89-3.07 1.02-4.5 1-1.557-.02-3.945.404-4.5-1.25-2.22-6.616-.34-14.26-3.25-20.5-1.398-3.36-6.25-3.61-8.75-6.25-2.746-2.904-3.983-6.958-6.25-10.25-2.52-3.654-6.23-6.608-8.5-10.5-1.955-3.71-4.227-9.503-4-12 .122-1.28 2.688 3.302 4.5 3.75 4.205-1.592 2.374 3.83 3 3 1.134-1.53.443-5.498.5-8.25.032-1.58-.687-3.473-.25-5.25.358-1.228 1.347-3.34 2.5-3.25 1.197.102 1.707 2.366 2 3.75.66 3.116.216 6.538.75 9.75z" transform="matrix(-.70246 .11553 .11553 .70246 274.45 -1)"/><path fill="none" stroke="#EAD1A8" stroke-width="1.184" d="M58.94 123.924s-1.666.336-2.2.923c-.267.29.506 1.013.318 1.14-.2.135-.7-.473-1.094-.616-.415-.15-.86-.21-1.3-.25-.404-.03-.918-.23-1.22.04-.325.3-.46 1.12-.25 1.3.194.17.686-.45 1.06-.6.364-.15 1.112-.42 1.14-.32.028.11-.544.83-.98.89-.487.08-.933-.32-1.38-.53-.378-.17-.766-.78-1.094-.61-.344.18-.15 1.27-.25 1.3-.1.03-.02-.88-.32-1.14-.334-.28-1.04-.48-1.3-.25-.23.21.214.76.32 1.14.107.38.02.89.32 1.14.334.29.86.27 1.3.25.393-.01.76-.21 1.14-.32.378-.1.76-.21 1.138-.32.38-.1.76-.21 1.14-.31l1.14-.32c.38-.1.777-.47 1.14-.32.374.16.78.94.604 1.06-.202.14-1.048-.17-1.38-.53-.33-.36-.266-.95-.398-1.42-.107-.38-.555-1-.32-1.14.295-.17.97.26 1.38.54.366.25.972.55.89.98-.102.52-.755.83-1.266.97-.425.12-.867-.17-1.3-.25-.432-.08-.866-.17-1.3-.25-.432-.08-.858-.26-1.298-.25-.394.01-.746.31-1.14.32-.44.01-.86-.26-1.3-.25-.393.01-.814.43-1.14.32-.18-.06.126-.65.126-.65l.082-.14" stroke-linecap="round"/><path fill="none" stroke="#D8C19B" stroke-width="1.184" d="M55.884 125.086c-.742.778-1.854.71-2.2.923-.356.21-.79.72-.615 1.09.2.44.89.61 1.37.53.43-.07.96-.45.98-.89.02-.44-.45-.93-.89-.98-.79-.09-2.32.59-2.28.64.04.05 2.73-.17 2.72-.15-.02.02-2.93.53-2.93.51-.01-.02 2.32-.55 2.85-.8z" stroke-linecap="round"/></svg>