<svg xmlns="http://www.w3.org/2000/svg" viewBox="0 0 45.13 45.13"><defs><style>.cls-3{fill:#fff}.cls-4{fill:#a5d6a7}</style></defs><g id="Layer_2" data-name="Layer 2"><g id="Layer_1-2" data-name="Layer 1"><path fill="#ffc107" d="M0 0h45.13v45.13H0z"/><g id="surface1"><path d="M6.58 8.2h32v29h-32z" fill="#388e3c"/><path class="cls-3" d="M26.32 35.13h7.52v2.07h-7.52zM25.38 18.56a3 3 0 0 1-2.82 3.1 3 3 0 0 1-2.82-3.1 3 3 0 0 1 2.82-3.11 3 3 0 0 1 2.82 3.11z"/><path class="cls-4" d="M16.92 21.66A2 2 0 0 1 15 23.73a2.08 2.08 0 0 1 0-4.14 2 2 0 0 1 1.92 2.07z"/><path d="M6.58 8.2h32v2.07h-32z" fill="#2e7d32"/><path class="cls-4" d="M32 21.66a1.89 1.89 0 1 1-1.88-2.07A2 2 0 0 1 32 21.66zM34.78 27.55a2 2 0 0 0-.44-1.24 5.51 5.51 0 0 0-4.26-1.54 5.51 5.51 0 0 0-4.26 1.54 1.9 1.9 0 0 0-.44 1.24v1.36h9.4zM19.74 27.55a2 2 0 0 0-.44-1.24 5.51 5.51 0 0 0-4.3-1.54 5.51 5.51 0 0 0-4.26 1.54 1.9 1.9 0 0 0-.44 1.24v1.36h9.4z"/><path class="cls-3" d="M28.2 26.57a2.29 2.29 0 0 0-.53-1.48 6.66 6.66 0 0 0-10.22 0 2.24 2.24 0 0 0-.53 1.48v2.34H28.2z"/></g></g></g></svg>