<svg xmlns="http://www.w3.org/2000/svg" viewBox="0 0 400 400"><defs><style>.cls-1{fill:#2dc100;}.cls-2{fill:#fff;}</style></defs><title>Asset 1</title><g id="Layer_2" data-name="Layer 2"><g id="Layer_1-2" data-name="Layer 1"><path class="cls-1" d="M400,340a60,60,0,0,1-60,60H60A60,60,0,0,1,0,340V60A60,60,0,0,1,60,0H340a60,60,0,0,1,60,60Z"/><path class="cls-2" d="M196.68,121.14c-8,.15-14.7,6.93-14.56,14.67A14.54,14.54,0,0,0,197.06,150a14.44,14.44,0,1,0-.38-28.88M119.15,136c.3-7.71-6.38-14.66-14.32-14.89a14.46,14.46,0,0,0-15,14A14.29,14.29,0,0,0,103.94,150,14.69,14.69,0,0,0,119.15,136m148.59,13.13c-32.29,1.69-60.36,11.48-83.15,33.59-23,22.34-33.54,49.71-30.67,83.64-12.62-1.56-24.11-3.28-35.67-4.25-4-.34-8.73.14-12.11,2.05-11.22,6.33-22,13.48-34.74,21.45,2.34-10.58,3.86-19.85,6.54-28.77,2-6.55,1.06-10.19-5-14.46C34.21,215.06,17.87,174.11,30.1,132,41.41,93,69.18,69.3,106.92,57c51.52-16.82,109.41.34,140.73,41.24a96.37,96.37,0,0,1,20.09,51"/><path class="cls-2" d="M298.92,213.74A12,12,0,0,0,287,225.25a11.87,11.87,0,1,0,23.71,1,12,12,0,0,0-11.77-12.54m-75,24a12,12,0,1,0,.09-24.05,12.25,12.25,0,0,0-12.17,12.46,12.12,12.12,0,0,0,12.08,11.59M340.27,350.44c-10.23-4.55-19.6-11.38-29.59-12.42s-20.4,4.69-30.8,5.76c-31.7,3.24-60.09-5.59-83.5-27.24-44.53-41.19-38.17-104.34,13.35-138.1,45.79-30,112.94-20,145.22,21.63,28.17,36.32,24.86,84.53-9.53,115.05-9.95,8.83-13.54,16.09-7.15,27.73,1.18,2.15,1.31,4.87,2,7.59"/></g></g></svg>