<?xml version="1.0" encoding="UTF-8"?>
<svg width="20px" height="20px" viewBox="0 0 20 20" version="1.1" xmlns="http://www.w3.org/2000/svg" xmlns:xlink="http://www.w3.org/1999/xlink">
    <!-- Generator: Sketch 57.1 (83088) - https://sketch.com -->
    <title>Android</title>
    <desc>Created with Sketch.</desc>
    <g id="Android" stroke="none" stroke-width="1" fill="none" fill-rule="evenodd">
        <g transform="translate(2.000000, 0.000000)" fill="#FFFFFF" fill-rule="nonzero">
            <path d="M1.25537906,6.46718412 C0.911371841,6.46718412 0.619494585,6.58714801 0.379566787,6.82707581 C0.139638989,7.06700361 0.0196389892,7.35490975 0.0196389892,7.69093863 L0.0196389892,12.8502888 C0.0196389892,13.1947292 0.139602888,13.4863538 0.379566787,13.7263177 C0.619494585,13.9662455 0.911371841,14.0862455 1.25537906,14.0862455 C1.59913357,14.0862455 1.88924188,13.9662816 2.12545126,13.7263177 C2.36119134,13.4863899 2.47938628,13.1947292 2.47938628,12.8502888 L2.47938628,7.69093863 C2.47938628,7.35487365 2.35942238,7.06700361 2.11945848,6.82707581 C1.87949458,6.58714801 1.59140794,6.46718412 1.25537906,6.46718412 Z" id="Path"></path>
            <path d="M11.1903249,1.83563177 L12.0422383,0.264079422 C12.0981588,0.160036101 12.0782671,0.0802527076 11.9823827,0.0241516245 C11.8783032,-0.0242238267 11.7983394,0.000288808664 11.7424549,0.0959566787 L10.8786282,1.6800722 C10.1185199,1.34400722 9.31458484,1.17566787 8.4668231,1.17566787 C7.61888087,1.17566787 6.81487365,1.34404332 6.05505415,1.6800722 L5.19119134,0.0959566787 C5.13505415,0.000288808664 5.05509025,-0.0240072202 4.95126354,0.0241516245 C4.85516245,0.0805054152 4.83527076,0.160036101 4.89140794,0.264079422 L5.7433574,1.83563177 C4.87949458,2.27617329 4.19148014,2.88971119 3.67956679,3.67758123 C3.16765343,4.46588448 2.91158845,5.32732852 2.91158845,6.2634296 L14.01,6.2634296 C14.01,5.32754513 13.7538989,4.46606498 13.2420217,3.67758123 C12.7300722,2.88971119 12.0460289,2.27617329 11.1903249,1.83563177 Z M6.26494585,4.12148014 C6.17281588,4.21382671 6.06277978,4.25978339 5.93487365,4.25978339 C5.8067148,4.25978339 5.69891697,4.21382671 5.61097473,4.12148014 C5.52303249,4.02956679 5.47906137,3.9199639 5.47906137,3.79162455 C5.47906137,3.66371841 5.52303249,3.55389892 5.61097473,3.46176895 C5.69891697,3.3698556 5.80696751,3.32389892 5.93487365,3.32389892 C6.06277978,3.32389892 6.17281588,3.3698556 6.26494585,3.46176895 C6.35685921,3.55411552 6.40303249,3.66371841 6.40303249,3.79162455 C6.40277978,3.91974729 6.3566426,4.02956679 6.26494585,4.12148014 Z M11.3222022,4.12148014 C11.2340794,4.21382671 11.1260289,4.25978339 10.9983394,4.25978339 C10.8701444,4.25978339 10.7601444,4.21382671 10.6681949,4.12148014 C10.5761011,4.02956679 10.5301444,3.9199639 10.5301444,3.79162455 C10.5301444,3.66371841 10.5761011,3.55389892 10.6681949,3.46176895 C10.7601444,3.3698556 10.8701444,3.32389892 10.9983394,3.32389892 C11.1262455,3.32389892 11.2340433,3.3698556 11.3222022,3.46176895 C11.4102166,3.55411552 11.4541155,3.66371841 11.4541155,3.79162455 C11.4541155,3.91974729 11.4101805,4.02956679 11.3222022,4.12148014 Z" id="Shape"></path>
            <path d="M2.95924188,14.686065 C2.95924188,15.0543682 3.08714801,15.3661372 3.34299639,15.6219856 C3.59906137,15.8778339 3.91083032,16.0057401 4.27888087,16.0057401 L5.1668231,16.0057401 L5.17898917,18.7297112 C5.17898917,19.0736823 5.29895307,19.3657762 5.53888087,19.6057401 C5.77880866,19.845704 6.06693141,19.9656679 6.40274368,19.9656679 C6.7465343,19.9656679 7.03859206,19.845704 7.27855596,19.6057401 C7.51851986,19.3657762 7.63848375,19.0737184 7.63848375,18.7297112 L7.63848375,16.0059928 L9.29422383,16.0059928 L9.29422383,18.7297112 C9.29422383,19.0736823 9.41415162,19.3657762 9.65411552,19.6057401 C9.89407942,19.845704 10.1858845,19.9656679 10.5299278,19.9656679 C10.8737184,19.9656679 11.1657762,19.845704 11.4057401,19.6057401 C11.645704,19.3657762 11.7656318,19.0737184 11.7656318,18.7297112 L11.7656318,16.0059928 L12.6655596,16.0059928 C13.0254513,16.0059928 13.333213,15.8780505 13.5895307,15.6222022 C13.845343,15.3663538 13.9733213,15.0545848 13.9733213,14.6863177 L13.9733213,6.69494585 L2.95924188,6.69494585 L2.95924188,14.686065 Z" id="Path"></path>
            <path d="M15.6777978,6.46718412 C15.3417329,6.46718412 15.0538628,6.58537906 14.8138989,6.82111913 C14.5739711,7.05729242 14.4540072,7.34740072 14.4540072,7.69093863 L14.4540072,12.8502888 C14.4540072,13.1947292 14.573935,13.4863538 14.8138989,13.7263177 C15.0538628,13.9662816 15.3419495,14.0862455 15.6777978,14.0862455 C16.0215884,14.0862455 16.3136462,13.9662816 16.5536101,13.7263177 C16.793574,13.4863538 16.9135018,13.1947292 16.9135018,12.8502888 L16.9135018,7.69093863 C16.9135018,7.34736462 16.793574,7.05729242 16.5536101,6.82111913 C16.3136462,6.58537906 16.0215884,6.46718412 15.6777978,6.46718412 Z" id="Path"></path>
        </g>
    </g>
</svg>