<svg xmlns="http://www.w3.org/2000/svg" viewBox="0 0 20 20"  fill="#575e75" xmlns:v="https://vecta.io/nano"><path d="M3.3 6.5c-.3 0-.6.1-.9.4s-.4.5-.4.8v5.2c0 .3.1.6.4.9.2.2.5.4.9.4.3 0 .6-.1.9-.4.2-.2.4-.5.4-.9V7.7c0-.3-.1-.6-.4-.9s-.6-.3-.9-.3zm9.9-4.7L14 .3c.1-.1 0-.2-.1-.2s-.2 0-.2.1l-.9 1.6c-.8-.3-1.6-.5-2.4-.5s-1.7.2-2.4.5L7.2.1C7.1 0 7.1 0 7 0c-.1.1-.2.2-.1.3l.9 1.6c-.9.4-1.6 1-2.1 1.8s-.8 1.6-.8 2.6H16c0-.9-.3-1.8-.8-2.6s-1.2-1.4-2-1.9zM8.3 4.1c-.1.1-.2.2-.4.2-.1 0-.2 0-.3-.1-.1-.2-.1-.3-.1-.4s0-.2.1-.3.2-.1.3-.1.2 0 .3.1.1.2.1.3c.1.1.1.2 0 .3zm5 0c-.1.1-.2.1-.3.1s-.2 0-.3-.1-.1-.2-.1-.3 0-.2.1-.3.2-.1.3-.1.2 0 .3.1.1.2.1.3c.1.1 0 .2-.1.3zM5 14.7c0 .4.1.7.4.9.2.3.5.4.9.4h.9v2.7c0 .3.1.6.4.9s.5.4.8.4.6-.1.9-.4.4-.5.4-.9V16h1.7v2.7c0 .3.1.6.4.9.2.2.5.4.9.4.3 0 .6-.1.9-.4.2-.2.4-.5.4-.9V16h.9c.4 0 .7-.1.9-.4.3-.3.4-.6.4-.9v-8H5v8zm12.7-8.2c-.3 0-.6.1-.9.4-.2.2-.4.5-.4.9V13c0 .3.1.6.4.9.2.2.5.4.9.4.3 0 .6-.1.9-.4.2-.2.4-.5.4-.9V7.7c0-.3-.1-.6-.4-.9-.3-.2-.6-.3-.9-.3z"/></svg>