<?xml version="1.0" encoding="UTF-8"?>
<svg width="20px" height="20px" viewBox="0 0 20 20" version="1.1" xmlns="http://www.w3.org/2000/svg" xmlns:xlink="http://www.w3.org/1999/xlink">
    <!-- Generator: Sketch 51 (57462) - http://www.bohemiancoding.com/sketch -->
    <title>bluetooth</title>
    <desc>Created with Sketch.</desc>
    <defs></defs>
    <g id="bluetooth" stroke="none" stroke-width="1" fill="none" fill-rule="evenodd">
        <path d="M10.0067929,11.7982296 L12.3957387,13.6405035 L10.0067929,15.5035099 L10.0067929,11.7982296 Z M10.0067929,4.00347068 L12.3854344,5.85578685 L10.0067929,7.68801845 L10.0067929,4.00347068 Z M8.88494896,1.00665765 C8.38336008,1.06820716 8.00841492,1.4860959 8.01240369,1.97881589 L8.01240369,7.76900464 L6.64126113,6.71618415 C6.43185026,6.5493526 6.16194292,6.47290163 5.89336518,6.50367638 C5.34557295,6.55971883 4.9480247,7.03753736 5.00552959,7.57139833 C5.03411584,7.83865277 5.17505267,8.08258317 5.39476788,8.2448795 L7.3476073,9.74312404 L5.39476788,11.2514109 C4.96165303,11.5870177 4.88952262,12.2012169 5.23388715,12.622993 C5.57791929,13.045417 6.20814627,13.1153891 6.64126113,12.7801062 L8.01240369,11.7172434 L8.01240369,17.5278407 C8.01240369,18.0646172 8.45848208,18.499999 9.00926589,18.499999 C9.23596146,18.5003229 9.45600907,18.4251677 9.63284491,18.2871672 L14.6188179,14.3998301 C15.0519327,14.0684346 15.1270547,13.4571508 14.7870114,13.0350508 C14.7378164,12.9741491 14.6813087,12.9190785 14.6188179,12.8711347 L10.5675486,9.75316633 L14.6188179,6.62515567 C15.0489412,6.29019678 15.1190772,5.67826512 14.7753774,5.25908059 C14.7291741,5.2027142 14.6766552,5.15153093 14.6188179,5.10650261 L9.63284491,1.21916542 C9.42343405,1.05265781 9.15352671,0.975882898 8.88494896,1.00665765 Z" id="Fill-1" fill="#FFFFFF"></path>
    </g>
</svg>