<?xml version="1.0" encoding="UTF-8"?>
<svg width="20px" height="20px" viewBox="0 0 20 20" version="1.1" xmlns="http://www.w3.org/2000/svg" xmlns:xlink="http://www.w3.org/1999/xlink">
    <!-- Generator: Sketch 57.1 (83088) - https://sketch.com -->
    <title>Chrome</title>
    <desc>Created with Sketch.</desc>
    <g id="Chrome" stroke="none" stroke-width="1" fill="none" fill-rule="evenodd">
        <g transform="translate(2.000000, 2.000000)" fill="#FFFFFF">
            <path d="M-2.84217094e-14,7.51020408 C0.0433306122,7.19373061 0.0761142857,6.87539592 0.13195102,6.56114286 C0.320685714,5.49874286 0.718008163,4.51797551 1.30847347,3.61521633 C1.32009796,3.59738776 1.33590204,3.58230204 1.35928163,3.5547102 C1.57185306,3.91699592 1.78060408,4.27173878 1.98834286,4.62703673 C2.85528163,6.10958367 3.72205714,7.59222857 4.58811429,9.07529796 C4.62906122,9.14543673 4.66795102,9.21779592 4.69825306,9.29299592 C5.46089796,11.1836735 7.56679184,12.0508408 9.43497143,11.2424816 C9.47294694,11.2260571 9.51203265,11.2122449 9.58279184,11.1846204 C9.54497959,11.2586122 9.52395102,11.3050122 9.49851429,11.3488653 C8.64199184,12.824849 7.78370612,14.2998531 6.93093878,15.7779592 C6.86834286,15.8864327 6.80581224,15.9149061 6.68574694,15.8938776 C3.47578776,15.331951 0.990530612,13.0129306 0.217926531,9.83826939 C0.123297959,9.44943673 0.0910367347,9.04542041 0.029322449,8.64852245 C0.0210938776,8.59536327 0.00986122449,8.54269388 -2.84217094e-14,8.48979592 L-2.84217094e-14,7.51020408 Z" id="Fill-4"></path>
            <path d="M7.51020408,16 C7.52636735,15.9419429 7.53113469,15.8772245 7.56039184,15.8267102 C8.7072,13.8461714 9.85642449,11.8670041 11.0049959,9.8874449 C11.9937633,8.18337959 11.6030041,6.26808163 10.0272,5.09208163 C10.0116245,5.08045714 9.9979102,5.06638367 9.96133878,5.03399184 C10.0355918,5.03046531 10.0817633,5.02635102 10.127902,5.02635102 C11.8421551,5.02602449 13.5563755,5.02759184 15.2706286,5.02288745 C15.3963429,5.02253061 15.4454857,5.06328163 15.4880327,5.17838367 C15.7498449,5.88659592 15.9166367,6.6144 15.9716898,7.36773878 C15.9751837,7.41564082 15.990302,7.46272653 16,7.51020408 L16,8.48979592 C15.9907918,8.53662041 15.9766857,8.58302041 15.9730286,8.63030204 C15.8665469,10.0016653 15.4397061,11.2664816 14.6717388,12.405649 C13.4046367,14.2852245 11.6505796,15.4418612 9.42226939,15.8699755 C9.12496327,15.9270857 8.82249796,15.9572898 8.52244898,16 L7.51020408,16 Z" id="Fill-6"></path>
            <path d="M8.48979592,2.84217094e-14 C8.86566531,0.0544653061 9.24662857,0.0857142857 9.61652245,0.167216327 C12.045649,0.702269388 13.8570449,2.06971429 15.0628571,4.24280816 C15.0961306,4.30275918 15.124702,4.36532245 15.168,4.4516898 L14.9320816,4.4516898 C12.6580245,4.4516898 10.3839673,4.4475102 8.10994286,4.45319184 C6.65002449,4.45684898 5.55529796,5.09724082 4.84813061,6.3787102 C4.62618776,6.78089796 4.51265306,7.22106122 4.46409796,7.71451429 C4.41319184,7.63627755 4.38001633,7.58961633 4.35121633,7.54037551 C3.50060408,6.08610612 2.65172245,4.63082449 1.79738776,3.17874286 C1.73381224,3.07072653 1.74220408,3.0069551 1.82164898,2.91320816 C3.19614694,1.29093878 4.92897959,0.327510204 7.04290612,0.0598530612 C7.19869388,0.0401306122 7.35444898,0.0199510204 7.51020408,2.84217094e-14 L8.48979592,2.84217094e-14 Z" id="Fill-8"></path>
            <path d="M5.02659576,7.98558694 C5.03150694,6.32864 6.36590694,5.02310531 8.05018449,5.02740487 C9.66131918,5.0315298 10.9807967,6.38290939 10.9732861,8.02108082 C10.9655804,9.67394612 9.62566204,10.9782727 7.94122122,10.9726095 C6.34269061,10.9671706 5.02177633,9.61344 5.02659576,7.98558694" id="Fill-12"></path>
        </g>
    </g>
</svg>