<svg xmlns="http://www.w3.org/2000/svg" viewBox="0 0 20 20"  fill-rule="evenodd" fill="#575e75" xmlns:v="https://vecta.io/nano"><path d="M2 9.5c0-.3.1-.6.1-.9.2-1.1.6-2 1.2-2.9l.1-.1.6 1L6.6 11c0 .1.1.1.1.2.8 1.9 2.9 2.8 4.7 1.9 0 0 .1 0 .1-.1 0 .1-.1.1-.1.2l-2.6 4.4c-.1.1-.1.1-.2.1-3.1-.4-5.6-2.7-6.4-5.9-.1-.4-.1-.8-.2-1.2V9.5zM9.5 18c0-.1 0-.1.1-.2l3.4-5.9c1-1.7.6-3.6-1-4.8l-.1-.1h5.3c.1 0 .2 0 .2.2.3.7.4 1.4.5 2.2v1.2a7.53 7.53 0 0 1-1.3 3.8c-1.3 1.9-3 3-5.2 3.5-.3 0-.6.1-.9.1h-1zm1-16c.4.1.8.1 1.1.2 2.4.5 4.2 1.9 5.4 4.1 0 .1.1.1.1.2h-7c-1.5 0-2.6.6-3.3 1.9-.2.4-.3.8-.3 1.3-.1-.1-.1-.1-.1-.2L3.8 5.2c-.1-.1-.1-.2 0-.3C5.2 3.3 6.9 2.3 9 2.1c.2-.1.4-.1.5-.1h1z"/><path d="M7 10c0-1.7 1.3-3 3-3a3.01 3.01 0 0 1 3 3c0 1.7-1.3 3-3 3a3.01 3.01 0 0 1-3-3"/></svg>