<?xml version="1.0" encoding="UTF-8"?>
<svg width="20px" height="20px" viewBox="0 0 20 20" version="1.1" xmlns="http://www.w3.org/2000/svg" xmlns:xlink="http://www.w3.org/1999/xlink">
    <!-- Generator: Sketch 51.1 (57501) - http://www.bohemiancoding.com/sketch -->
    <title>download-white</title>
    <desc>Created with Sketch.</desc>
    <defs></defs>
    <g id="download-white" stroke="none" stroke-width="1" fill="none" fill-rule="evenodd">
        <path d="M14.7292766,8.77879087 L10.4765261,13.042979 C10.2257229,13.2945489 9.8362769,13.2945489 9.58703145,13.042979 L5.33583877,8.77879087 C4.93081492,8.37096636 5.2252361,7.70063411 5.78759614,7.70063411 L7.90462467,7.70063411 L9.16798754,2.68486136 C9.29261026,2.20047209 9.78954337,1.90358835 10.2740142,2.02859203 C10.6151689,2.10515678 10.8659722,2.37078961 10.9423036,2.68486136 L12.2056664,7.70063411 L14.2775192,7.70063411 C14.8367637,7.70063411 15.1343005,8.37096636 14.7292766,8.77879087 Z M18,11.8123177 L18,14.3905187 C18,16.3749521 16.3954824,18 14.4170967,18 L5.60003894,18 C3.60607536,18 2,16.3749521 2,14.3905187 L2,11.8123177 C2,11.1560484 2.53120436,10.6404082 3.16833804,10.6404082 C3.80858728,10.6404082 4.33667608,11.1560484 4.33667608,11.8123177 L4.33667608,14.3905187 C4.33667608,15.0780389 4.89903612,15.656181 5.60003894,15.656181 L14.4170967,15.656181 C15.1025217,15.656181 15.6633239,15.0780389 15.6633239,14.3905187 L15.6633239,11.8123177 C15.6633239,11.1560484 16.1929705,10.6404082 16.831662,10.6404082 C17.4859313,10.6404082 18,11.1560484 18,11.8123177 Z" id="Fill-1" fill="#FFFFFF"></path>
    </g>
</svg>