<svg xmlns="http://www.w3.org/2000/svg" viewBox="0 0 20 20"  xmlns:v="https://vecta.io/nano"><path d="M12.4 3.8c-.6.8-1.6 1.3-2.5 1.2-.2-1 .3-2 .8-2.7.6-.7 1.7-1.3 2.6-1.3.1 1-.4 2.1-.9 2.8zm2.7 7.9c.3.7 1.2 1.7 1.9 2 0 .1-.1.2-.1.2h0c-.2.6-.8 1.7-1.1 2.2-.7 1.1-1.5 2.1-2.6 2.2-1.2 0-1.5-.7-2.8-.7s-1.7.7-2.8.7c-1.1.1-2-1.1-2.7-2.2h0c-.4-.6-.9-1.7-1.1-2.2h0c-.2-.5-.5-1.6-.5-2.2h0C3 11.2 3 10 3 9.6h0c.1-.7.4-1.8.7-2.2h0a4.2 4.2 0 0 1 3.4-2.2h.2c1.1-.1 2.1.8 2.8.7.7 0 2-.9 3.2-.8 1.2 0 2.4.6 3.2 1.7-.2.1-.5.4-.6.5h0c-.5.3-1.1 1.3-1.2 2.2h0c-.1.8.1 1.7.4 2.2h0z" fill-rule="evenodd" fill="#575e75"/></svg>