<?xml version="1.0" encoding="UTF-8"?>
<svg width="20px" height="20px" viewBox="0 0 20 20" version="1.1" xmlns="http://www.w3.org/2000/svg" xmlns:xlink="http://www.w3.org/1999/xlink">
    <!-- Generator: Sketch 51 (57462) - http://www.bohemiancoding.com/sketch -->
    <title>mac</title>
    <desc>Created with Sketch.</desc>
    <defs></defs>
    <g id="mac" stroke="none" stroke-width="1" fill="none" fill-rule="evenodd">
        <path d="M12.3502164,3.80378193 C11.7367853,4.55389379 10.7566828,5.11624576 9.80322734,5.05205118 C9.6637863,4.04961379 10.1503698,2.98409502 10.7108717,2.33806745 C11.3330634,1.58814113 12.3775936,1.03283943 13.254758,1 C13.3651792,2.03360701 12.9373654,3.05867948 12.3502164,3.80378193 Z M15.0523884,11.7406744 C15.3564574,12.4314156 16.2254087,13.4683622 17,13.6917445 C16.9764556,13.7659579 16.9430555,13.8681868 16.9207887,13.9344223 L16.918051,13.9344223 C16.7196578,14.5628242 16.1584259,15.6212927 15.8006976,16.1713994 C15.0699098,17.2389591 14.3400345,18.3042923 13.1622688,18.3556851 C12.0069524,18.3506757 11.642106,17.6443497 10.3238042,17.6552962 C9.00477231,17.6443497 8.60159791,18.3415845 7.50651125,18.3838862 C6.37291405,18.4354645 5.51308851,17.2374748 4.78266571,16.1713994 L4.7788329,16.1713994 L4.7788329,16.1673177 C4.41727179,15.6090475 3.85695245,14.5168119 3.65655159,13.9344223 L3.65764668,13.9344223 L3.65764668,13.929784 C3.44866764,13.4028689 3.1701506,12.3251049 3.10992084,11.7673913 L3.10827821,11.7685045 C3.10754815,11.7605265 3.10681809,11.7505077 3.10353283,11.7406744 C3.02632922,11.1811055 2.96007648,10.017625 3.02870191,9.58106475 L3.02870191,9.54451465 C3.07944093,8.85655651 3.41983036,7.76933033 3.70364032,7.30289916 L3.70364032,7.30716643 L3.70802067,7.30716643 L3.70802067,7.30289916 C4.42530243,6.00861761 5.68848489,5.15497808 7.11337514,5.11935565 C7.11337514,5.11935565 7.30702297,5.10840917 7.33111487,5.10840917 L7.34170071,5.11007898 C8.41671078,5.05831514 9.4355064,5.87763098 10.1098973,5.85685123 C10.8069199,5.87763098 12.0996697,4.96981567 13.3453308,5.07612635 C14.5805885,5.09542183 15.7935795,5.69302517 16.5344057,6.8010311 C16.3338223,6.94797362 16.0368713,7.19028034 15.9326555,7.30716643 L15.9313779,7.30716643 L15.9313779,7.3092073 C15.9249899,7.31440224 15.9186019,7.31922611 15.912944,7.32330784 C15.4431518,7.66765798 14.8554553,8.61684726 14.7459466,9.54451465 L14.7452166,9.54451465 L14.7452166,9.57086041 C14.6406358,10.2792272 14.7651106,11.1536465 15.0383348,11.71303 L15.0523884,11.7406744 Z" id="Combined-Shape" fill="#FFFFFF"></path>
    </g>
</svg>