<?xml version="1.0" encoding="UTF-8"?>
<svg width="20px" height="20px" viewBox="0 0 20 20" version="1.1" xmlns="http://www.w3.org/2000/svg" xmlns:xlink="http://www.w3.org/1999/xlink">
    <!-- Generator: Sketch 51.3 (57544) - http://www.bohemiancoding.com/sketch -->
    <title>scratch-link</title>
    <defs></defs>
    <g id="scratch-link" stroke="none" stroke-width="1" fill="none" fill-rule="evenodd">
        <path d="M11.25425,13.6746875 C11.089875,13.6746875 10.92925,13.6121875 10.808625,13.4990625 C10.563,13.2628125 10.56425,12.8796875 10.8105,12.6471875 C11.454875,12.0378125 11.808625,11.2290625 11.808625,10.3678125 C11.808625,9.5084375 11.454875,8.7003125 10.8105,8.0884375 C10.563,7.8540625 10.563,7.4715625 10.808625,7.2353125 C11.053,7.0009375 11.44925,7.0009375 11.6955,7.2334375 C12.578,8.0715625 13.066125,9.1846875 13.066125,10.3678125 C13.066125,11.5515625 12.578,12.6646875 11.6955,13.5009375 C11.57675,13.6121875 11.418,13.6746875 11.25425,13.6746875 M13.53925,16.4265625 C13.373625,16.4265625 13.214875,16.3640625 13.093625,16.2509375 C12.848,16.0146875 12.849875,15.6315625 13.0955,15.3971875 C14.508,14.0571875 15.284875,12.2784375 15.284875,10.3878125 C15.284875,8.4946875 14.508,6.7178125 13.0955,5.3778125 C12.848,5.1434375 12.848,4.7609375 13.093625,4.5240625 C13.338,4.2896875 13.734875,4.2878125 13.9805,4.5221875 C15.633,6.0846875 16.543,8.1690625 16.543,10.3859375 C16.543,12.6003125 15.633,14.6846875 13.9805,16.2509375 C13.86175,16.3640625 13.703,16.4265625 13.53925,16.4265625 M15.80425,19.1259375 C15.641125,19.1259375 15.4805,19.0634375 15.35925,18.9496875 C15.113625,18.7140625 15.113625,18.3309375 15.361125,18.0965625 C17.541125,16.0321875 18.7405,13.2921875 18.7405,10.3759375 C18.7405,7.4621875 17.541125,4.7196875 15.361125,2.6553125 C15.113625,2.4209375 15.111125,2.0378125 15.35925,1.8015625 C15.603625,1.5671875 15.999875,1.5653125 16.246125,1.7996875 C18.6655,4.0928125 19.999875,7.1378125 19.999875,10.3759375 C19.999875,13.6140625 18.6655,16.6590625 16.246125,18.9521875 C16.12675,19.0653125 15.968625,19.1259375 15.80425,19.1259375" id="lines" fill="#FFFFFF"></path>
        <path d="M3.66025,9.6121875 C2.720875,9.4678125 2.219,8.8484375 2.467125,6.9328125 L2.4965,6.7021875 C2.70525,5.0384375 2.880875,4.6671875 3.69525,4.7096875 C3.933375,4.7259375 4.207125,4.8721875 4.48275,5.0946875 C4.7365,5.3834375 5.300875,5.7584375 5.619,6.5009375 C5.84775,7.0459375 5.925875,7.4015625 5.959,7.7840625 L6.009625,8.2528125 L6.009625,8.2509375 C6.0765,8.5709375 6.3265,8.8346875 6.672125,8.8934375 C7.117125,8.9734375 7.547125,8.6828125 7.62525,8.2446875 C7.634625,8.1921875 7.835875,3.1471875 7.835875,3.0653125 C7.835875,2.6196875 7.474625,2.2609375 7.019625,2.2528125 C6.5665,2.2509375 6.19775,2.6140625 6.19775,3.0578125 C6.19775,3.0671875 6.19525,3.7628125 6.179625,4.4659375 C5.533375,3.7746875 4.707125,3.1534375 3.779625,3.1009375 C1.300875,2.9678125 1.029625,5.2103125 0.867125,6.5028125 L0.842125,6.7315625 C0.508375,9.2859375 1.37525,10.8996875 3.408375,11.2121875 C5.619,11.5534375 7.094,12.0534375 7.10775,13.3915625 C7.11525,13.9109375 6.83775,14.4459375 6.3515,14.8565625 C5.76775,15.3465625 4.984625,15.5653125 4.245875,15.4459375 C4.01775,15.4109375 3.80275,15.3503125 3.59775,15.2821875 C3.309,15.1240625 2.578375,14.6865625 2.209,14.1821875 C1.8965,13.7565625 1.789,13.0884375 1.755875,12.6646875 C1.759625,12.4759375 1.759625,12.3484375 1.759625,12.3346875 C1.76775,11.8878125 1.404625,11.5246875 0.95525,11.5146875 C0.50025,11.5046875 0.12525,11.8640625 0.11775,12.3115625 C0.11775,12.3271875 0.09775,13.9071875 0.037125,14.8584375 C-0.046625,16.3915625 0.037125,17.6903125 0.037125,17.7471875 C0.07025,18.1921875 0.459,18.5284375 0.912125,18.4990625 C1.363375,18.4753125 1.707125,18.0890625 1.675875,17.6434375 C1.675875,17.6353125 1.634625,17.0065625 1.640875,16.1371875 C2.242125,16.5146875 3.0315,16.8815625 3.97275,17.0396875 C5.199,17.2428125 6.453375,16.8934375 7.412125,16.0828125 C8.269625,15.3603125 8.762125,14.3740625 8.748375,13.3740625 C8.720875,10.3915625 5.300875,9.8684375 3.66025,9.6121875" id="S" fill="#FFFFFF"></path>
    </g>
</svg>
