<svg width="173" height="119" fill="none" xmlns="http://www.w3.org/2000/svg"><rect x=".5" width="172" height="119" rx="8" fill="#4C97FF" fill-opacity=".15"/><mask id="a" style="mask-type:alpha" maskUnits="userSpaceOnUse" x="0" y="0" width="173" height="119"><rect x=".5" width="172" height="119" rx="8" fill="#C4C4C4"/></mask><g mask="url(#a)"><path d="M11.702 93.257C.5 93.257-8.5 83.593-8.5 71.628-8.5 59.665.591 50 11.702 50h7.346c11.203 0 20.202 9.664 20.202 21.629 0 11.964-9.09 21.628-20.202 21.628l6.52-1.565c-1.194 2.854-1.47 4.602-.827 10.492.735 7.363-5.51 8.1-16.436-9.111-.184-.276-1.378-2.117-1.562-2.301l4.96 2.485Z" fill="#4C97FF" fill-opacity=".5"/><path d="M15.929 85.158c-7.911 0-14.325-6.428-14.325-14.358 0-7.93 6.414-14.358 14.325-14.358S30.254 62.87 30.254 70.8c0 7.93-6.414 14.358-14.325 14.358Z" fill="#4C97FF"/><path d="M22.724 73.1s-6.428 4.234-13.315.369" stroke="#3373CC" stroke-width="2" stroke-miterlimit="10"/><path d="M25.112 70.34a1.747 1.747 0 0 1-1.745-1.75c0-.965.781-1.748 1.745-1.748.963 0 1.744.783 1.744 1.749 0 .965-.78 1.748-1.744 1.748ZM6.747 70.34a1.747 1.747 0 0 1-1.745-1.75c0-.965.78-1.748 1.745-1.748.963 0 1.744.783 1.744 1.749 0 .965-.78 1.748-1.744 1.748Z" fill="#3373CC"/><path d="M48.64 16.2c1.025-.273 1.776-1.094 2.049-2.052l.614-2.327c.273-1.095 1.844-1.095 2.117 0l.614 2.327c.273 1.026 1.093 1.779 2.049 2.053l2.32.616c1.093.273 1.093 1.847 0 2.12l-2.32.617c-1.024.274-1.776 1.095-2.049 2.053l-.614 2.326c-.273 1.095-1.844 1.095-2.117 0l-.614-2.326c-.273-1.027-1.093-1.78-2.048-2.053l-2.322-.616c-1.092-.274-1.092-1.848 0-2.121l2.322-.616ZM81.702 90.202a1.39 1.39 0 0 0 .963-.966l.29-1.095c.128-.515.867-.515.996 0l.289 1.095c.128.483.514.837.964.966l1.092.29c.514.129.514.87 0 .998l-1.092.29a1.39 1.39 0 0 0-.964.966l-.29 1.095c-.128.515-.867.515-.995 0l-.29-1.095a1.39 1.39 0 0 0-.963-.966l-1.093-.29c-.514-.128-.514-.87 0-.998l1.093-.29ZM69.64 79.2c1.025-.273 1.776-1.094 2.049-2.052l.614-2.327c.273-1.095 1.844-1.095 2.117 0l.614 2.327c.273 1.026 1.093 1.779 2.048 2.053l2.322.616c1.092.273 1.092 1.847 0 2.12l-2.322.617c-1.024.273-1.775 1.095-2.048 2.053l-.614 2.326c-.273 1.095-1.844 1.095-2.117 0l-.614-2.326c-.273-1.027-1.092-1.78-2.048-2.053l-2.322-.616c-1.092-.274-1.092-1.848 0-2.121l2.322-.616ZM154.886 100.294a1.3 1.3 0 0 0 .903-.905l.271-1.027c.121-.483.814-.483.934 0l.271 1.027c.121.453.482.785.904.905l1.024.272c.482.121.482.815 0 .936l-1.024.272c-.452.12-.783.483-.904.905l-.271 1.027c-.12.483-.813.483-.934 0l-.271-1.027a1.301 1.301 0 0 0-.903-.905l-1.025-.272c-.481-.121-.481-.815 0-.936l1.025-.272Z" fill="#fff"/><path d="M168.979 63.726c11.826 0 21.37-10.228 21.37-22.863S180.745 18 168.979 18H107.93C96.105 17.94 86.5 28.168 86.5 40.803c0 12.635 9.605 22.863 21.37 22.863h5.103c1.26 3.068.3 8.423-.901 14.62-1.621 8.303 15.668 4.332 27.193-13.898.18-.24.3-.481.48-.662h29.234Z" fill="#4C97FF" fill-opacity=".5"/><path fill-rule="evenodd" clip-rule="evenodd" d="M136.623 37.193c-.84 9.446-11.465 16.846-14.167 16.846-2.701 0-13.326-7.4-14.166-16.846 0-.3-.061-.602-.061-.902 0-4.573 3.722-8.243 8.284-8.243 2.342 0 4.443.963 5.943 2.527a8.19 8.19 0 0 1 5.943-2.527c4.562 0 8.284 3.73 8.284 8.243 0 .3-.06.601-.06.902ZM169.1 38.336c-.6 6.618-8.044 11.792-9.965 11.792-1.921 0-9.364-5.174-9.965-11.792 0-.24-.06-.421-.06-.662 0-3.189 2.642-5.836 5.823-5.836 1.621 0 3.122.662 4.142 1.745 1.021-1.083 2.521-1.745 4.142-1.745a5.797 5.797 0 0 1 5.823 5.836c.12.24.06.481.06.662Z" fill="#4C97FF"/></g></svg>