<svg width="172" height="119" fill="none" xmlns="http://www.w3.org/2000/svg"><rect width="172" height="119" rx="8" fill="#FFBF00" opacity=".3"/><path d="M74 37.886C54 5.978 16.333 10.156 0 16.234v46.153c5.5-2.469 23.9.114 53.5 30.199 29.6 30.084 91.333 18.613 118.5 9.116v-51.85c-24.333 9.306-78 19.942-98-11.966Z" fill="#fff" fill-opacity=".5"/><path stroke="#4C97FF" d="M47.5 12.5h85v73h-85z"/><path d="M139.278 34.194c-1.936 3.031-3.59 4.9-5.121 5.83a.675.675 0 0 1-.932-.235 8.511 8.511 0 0 0-2.761-2.876 9.392 9.392 0 0 0-3.845-1.334.674.674 0 0 1-.588-.76c.238-1.793 1.243-4.078 3.141-7.05 5.518-8.692 14.295-17.459 17.098-15.668 2.798 1.787-1.442 13.404-6.992 22.093Z" fill="#825331"/><path d="M127.281 50.23a.669.669 0 0 1-.23.098l-.296.064c-3.971 1.027-7.805-.141-10.589-2.614-1.104-.98-1.911-2.082-2.204-2.996-.388-1.212.203-2.166 1.498-2.014 2.039.233 3.391-.193 4.238-.973.242-.224.263-.252.477-.593 1.892-2.807 5.741-3.656 8.643-1.902 2.921 1.796 3.759 5.59 1.854 8.419a6.254 6.254 0 0 1-3.391 2.51Z" fill="#E4B681"/><mask id="a" style="mask-type:alpha" maskUnits="userSpaceOnUse" x="113" y="38" width="19" height="13"><path d="M127.281 50.23a.669.669 0 0 1-.23.098l-.296.064c-3.971 1.027-7.805-.141-10.589-2.614-1.104-.98-1.911-2.082-2.204-2.996-.388-1.212.203-2.166 1.498-2.014 2.039.233 3.391-.193 4.238-.973.242-.224.263-.252.477-.593 1.892-2.807 5.741-3.656 8.643-1.902 2.921 1.796 3.759 5.59 1.854 8.419a6.254 6.254 0 0 1-3.391 2.51Z" fill="#E4B681"/></mask><g mask="url(#a)"><path d="M124 41.5c.4-2.4-2.833-2-4.5-1.5-2.833.334-8.7 2.1-9.5 6.5-1 5.5 15 6 18.5 5s1-4.5-2-4.5-3-2.5-2.5-5.5Z" fill="#5CB1D6"/></g><path d="M106.089 50.197c6.045 2.221-10.353 9.187-17.64 8.098-5.288-.79-7.343-4.372-7.342-6.748 0-2.97 10.394-5.36 10.992-1.9.599 3.46 7.945-1.671 13.99.55ZM80.728 38.767c.744-.003 1.395.197 1.846.495.455.3.659.663.66.996.001.333-.2.697-.653 1-.448.302-1.098.506-1.842.51-.743.002-1.394-.197-1.846-.496-.454-.3-.658-.662-.66-.995 0-.334.2-.697.653-1.001.45-.302 1.099-.506 1.842-.509ZM83.967 65.533c7.582 1.726-16.067 15.524-25.585 15.704-6.906.13-8.814-4.479-8.249-7.859.706-4.225 13.328-.305 15.197-5.31 2.975-7.965 11.055-4.262 18.637-2.535Z" fill="#5CB1D6" stroke="#4C97FF"/><rect x="45" y="10" width="5" height="5" rx="2.5" fill="#4C97FF"/><rect x="44.5" y="9.5" width="6" height="6" rx="3" stroke="#000" stroke-opacity=".1"/><rect x="130" y="10" width="5" height="5" rx="2.5" fill="#4C97FF"/><rect x="129.5" y="9.5" width="6" height="6" rx="3" stroke="#000" stroke-opacity=".1"/><rect x="130" y="83" width="5" height="5" rx="2.5" fill="#4C97FF"/><rect x="129.5" y="82.5" width="6" height="6" rx="3" stroke="#000" stroke-opacity=".1"/><path fill-rule="evenodd" clip-rule="evenodd" d="m99.134 84.247-6.635 22.577a2.876 2.876 0 0 1-3.598 1.964l-29.857-8.774a2.977 2.977 0 0 0-2.204.241l-5.08 2.773a2.982 2.982 0 0 1-2.204.241l-14.56-4.279a2.978 2.978 0 0 1-1.723-1.395l-2.773-5.08a2.977 2.977 0 0 0-1.722-1.395l-7.362-2.163a2.875 2.875 0 0 1-1.964-3.599l6.634-22.577a2.875 2.875 0 0 1 3.599-1.964l7.28 2.14c.736.216 1.376.76 1.723 1.395l2.83 5.186c.428.659.987 1.178 1.723 1.395L57.8 75.21a2.977 2.977 0 0 0 2.204-.24l5.186-2.831c.717-.323 1.467-.458 2.203-.241l29.776 8.75a2.875 2.875 0 0 1 1.964 3.598Z" fill="#CF63CF"/><path fill-rule="evenodd" clip-rule="evenodd" d="m97.639 98.766-3.041 3.372c-.609.679-1.74.252-1.74-.658V86.19c0-.86 1.033-1.31 1.672-.726l11.289 10.306c.669.61.234 1.715-.677 1.715h-4.586l1.815 4.045a1.615 1.615 0 0 1-.792 2.127c-.8.365-1.743.008-2.104-.801l-1.836-4.09Z" fill="#575E75"/><path d="m97.639 98.766.353-.159-.243-.542-.398.441.288.26Zm-3.041 3.372-.288-.259v.001l.288.258Zm-.068-16.674-.261.286.261-.286Zm11.289 10.306-.261.286.261-.286Zm-5.263 1.715v-.387h-.598l.245.546.353-.159Zm1.815 4.045.354-.158-.354.158Zm-.792 2.127.161.352h.001l-.162-.352Zm-2.104-.801.354-.158-.354.158Zm-2.124-4.35-3.04 3.373.575.519 3.04-3.373-.575-.519Zm-3.042 3.374c-.375.418-1.064.148-1.064-.4h-.775c0 1.271 1.574 1.856 2.416.917l-.577-.517Zm-1.064-.4V86.19h-.775v15.29h.775Zm0-15.29c0-.517.628-.801 1.024-.44l.522-.572c-.882-.806-2.321-.193-2.321 1.012h.775Zm1.024-.44 11.289 10.306.522-.572-11.289-10.306-.522.572Zm11.289 10.306a.6.6 0 0 1-.416 1.042v.775c1.256 0 1.875-1.536.938-2.39l-.522.573Zm-.416 1.042h-4.586v.775h4.586v-.775Zm-4.939.546 1.814 4.045.708-.317-1.815-4.046-.707.318Zm1.814 4.045a1.227 1.227 0 0 1-.6 1.616l.324.704a2.003 2.003 0 0 0 .984-2.637l-.708.317Zm-.599 1.615a1.195 1.195 0 0 1-1.59-.606l-.707.316a1.97 1.97 0 0 0 2.619.995l-.322-.705Zm-1.59-.606-1.836-4.091-.707.317 1.836 4.091.707-.317Z" fill="#fff"/></svg>