<svg width="95" height="95" fill="none" xmlns="http://www.w3.org/2000/svg"><path fill-rule="evenodd" clip-rule="evenodd" d="M23.09 75.976c12.294 2.295 51.231-3.621 51.231-3.621 3.72-.931 8.847-1.86 7.78-3.102-7.477-14.155-7.707-29.918-11.976-44.98a.993.993 0 0 0-1.035-.716l-56.534 4.489c0 7.504 1.55 43.6 10.534 47.93Z" fill="#E5F0FF"/><path opacity=".25" fill-rule="evenodd" clip-rule="evenodd" d="M27.366 72.193c10.419 1.16 42.921-3.357 42.921-3.357 3.186-.651 7.57-1.33 6.687-2.073-4.525-8.55-5.344-18.657-6.553-27.214a.995.995 0 0 0-1.067-.85l-51.917 4.18c0 4.964 2.37 26.832 9.93 29.314Z" fill="#4C97FF"/><path d="M66.168 31.144C65 25.897 64.511 22.49 64.23 17.416c-.025-.452-.612-.619-.866-.244a.47.47 0 0 1-.712.078l-.503-.474a.5.5 0 0 0-.774.108l-.315.533a.5.5 0 0 1-.774.108l-.45-.424a.5.5 0 0 0-.773.108l-.33.556a.5.5 0 0 1-.757.123l-.245-.212a.495.495 0 0 0-.82.352c-.253 5.718.295 9.234 2.015 14.654.13.409.682.47.9.101l.2-.335a.5.5 0 0 1 .772-.109l.45.425a.5.5 0 0 0 .774-.108l.316-.533a.5.5 0 0 1 .773-.109l.45.425a.5.5 0 0 0 .774-.108l.35-.591a.475.475 0 0 1 .712-.122c.35.29.87-.03.771-.474ZM27.21 34.602c-.707-5.329-.897-8.766-.735-13.845.014-.452-.556-.67-.841-.318a.47.47 0 0 1-.717.015l-.46-.516a.5.5 0 0 0-.78.04l-.36.504a.5.5 0 0 1-.78.04l-.412-.462a.5.5 0 0 0-.78.04l-.376.526a.5.5 0 0 1-.766.056l-.225-.232a.495.495 0 0 0-.847.279c-.75 5.674-.51 9.224.73 14.773a.496.496 0 0 0 .888.18l.227-.317a.5.5 0 0 1 .78-.04l.411.462a.5.5 0 0 0 .78-.04l.361-.504a.5.5 0 0 1 .78-.04l.412.462a.5.5 0 0 0 .78-.04l.4-.559a.474.474 0 0 1 .72-.06c.322.321.87.047.81-.404Z" fill="#4C97FF" fill-opacity=".25"/><path fill-rule="evenodd" clip-rule="evenodd" d="M48.118 62.264c3.886-.477 6.86-2.401 6.409-6.077-.112-.908-.369-1.656-.758-2.261l-.534-5.325c-.072-.587-.807-.837-1.252-.428l-2.736 2.507c-.737-.264-1.628-.311-2.575-.195-.944.116-1.782.375-2.433.81l-3.262-1.77c-.545-.288-1.198.133-1.111.718l.77 5.295c-.233.681-.3 1.47-.188 2.378.451 3.675 3.786 4.825 7.67 4.348Zm1.2-2.444a1.997 1.997 0 0 0 1.412-.84c.182-.234.11-.567-.149-.734a.587.587 0 0 0-.774.168.88.88 0 0 1-.618.358c-.472.058-.916-.256-.972-.718l-.095-.768c.83-.329 1.396-1.092 1.34-1.54-.068-.56-.999-.445-2.122-.308-1.136.14-2.052.252-1.983.811.055.449.76 1.056 1.656 1.159l.096.782c.056.462-.282.872-.756.93a.886.886 0 0 1-.699-.196.585.585 0 0 0-.792.024.514.514 0 0 0 .034.748c.42.374.995.545 1.586.472a2.085 2.085 0 0 0 1.348-.746c.399.306.927.467 1.488.398Z" fill="#E5F0FF"/></svg>