<svg width="360" height="360" fill="none" xmlns="http://www.w3.org/2000/svg"><g clip-path="url(#a)"><path opacity=".5" d="M339.286 85.943c35.619 43.588-18.46 114.42-79.777 176.469-32.529 32.936-155.244 111.493-193.547 7.238-18.948-51.559 44.077-125.643 79.777-176.47 60.097-85.632 151.341-58.958 193.547-7.237ZM5.295 225.248c-11.304-8.295-2.602-28.707 8.295-47.493 5.774-9.921 30.496-36.513 46.191-13.743 7.726 11.222-2.846 33.017-8.295 47.492-9.19 24.397-32.773 23.584-46.19 13.744Z" fill="#C94FC9"/><path d="m283.579 226.305-110.191 42.694c-5.124 1.952-10.816-.569-12.768-5.611 0 0-17.891-53.022-24.397-69.693-14.15-36.433-33.016-61.887-33.016-61.887l9.352-21.143 97.18-37.653c5.123-1.951 10.816.57 12.767 5.612 0 0 19.924 20.168 42.532 65.627 7.888 15.939 24.234 69.205 24.234 69.205 1.952 5.123-.569 10.897-5.693 12.849Z" fill="#E9F1FC"/><path d="m266.518 197.629 8.38 18.79 79.322-35.375-8.38-18.79-79.322 35.375Z" fill="#FFBF00"/><path d="m274.876 216.384-22.445-1.545c-.244 0-.325-.326-.244-.488l14.232-16.753 8.457 18.786Z" fill="#FFE092"/><path d="m342.213 163.85 8.376 18.785 7.969-3.578c1.22-.569 1.79-2.033 1.22-3.253l-6.343-14.313c-.569-1.22-2.033-1.789-3.253-1.22l-7.969 3.579Z" fill="#FF6680"/><path d="m338.824 165.394 8.38 18.791 3.788-1.69-8.38-18.79-3.788 1.689Z" fill="#999"/><path d="m256.741 215.083-4.31-.244c-.244 0-.325-.325-.244-.488l2.765-3.334 1.789 4.066Z" fill="#575E75"/><path d="m266.49 197.63 2.782 6.238 72.341-32.261-2.782-6.239-72.341 32.262ZM272.12 210.193l2.749 6.165 72.341-32.261-2.749-6.165-72.341 32.261Z" fill="#FFAB1A"/><path d="m103.207 131.808 10.327-5.042a5.77 5.77 0 0 0 2.196-5.042l-3.171-11.059-9.352 21.143Z" fill="#D9E3F2"/><path d="m306.35 137.257 3.416-6.912c.244-.488.732-.814 1.301-.895l7.644-1.138c1.383-.163 1.952-1.871.976-2.847l-5.53-5.367a1.717 1.717 0 0 1-.488-1.464l1.301-7.644c.244-1.383-1.219-2.44-2.439-1.789l-6.831 3.578a1.722 1.722 0 0 1-1.545 0l-6.832-3.578c-1.219-.651-2.683.406-2.439 1.789l1.301 7.644c.081.569-.081 1.139-.488 1.464l-5.53 5.367c-.976.976-.488 2.684.976 2.847l7.644 1.138c.57.081 1.057.407 1.301.895l3.416 6.912c.488 1.301 2.277 1.301 2.846 0ZM106.868 265.828l4.554 1.626c.325.081.569.407.65.732l1.22 4.635c.244.814 1.301 1.057 1.871.407l2.927-3.822c.244-.244.57-.407.895-.407l4.798.244c.894.081 1.382-.894.894-1.626l-2.683-3.985c-.163-.325-.244-.651-.082-.976l1.708-4.473c.326-.813-.406-1.626-1.301-1.382l-4.635 1.382c-.326.082-.651 0-.976-.162l-3.741-3.009c-.651-.57-1.708-.082-1.708.813l-.162 4.798a.894.894 0 0 1-.488.813l-4.066 2.602c-.651.326-.488 1.464.325 1.79Z" fill="#F2F2F2"/><g opacity=".7"><path opacity=".7" fill-rule="evenodd" clip-rule="evenodd" d="M138.337 121.887c.895-1.464 2.847-2.196 4.473-1.708 1.627.488 3.578-.244 4.473-1.707l2.277 6.017c-.895 1.464-2.846 2.196-4.473 1.708-1.626-.488-3.578.244-4.473 1.708l-2.277-6.018Z" fill="#59C059"/><path opacity=".7" d="m141.591 130.426-3.497-9.271" stroke="#389438" stroke-width="1.5" stroke-linecap="round" stroke-linejoin="round"/></g><path opacity=".7" fill-rule="evenodd" clip-rule="evenodd" d="m155.011 115.056-1.545 3.497 1.382 3.578 3.497 1.545 3.578-1.382 1.545-3.497-1.382-3.578-3.497-1.545-3.578 1.382Z" fill="#EC5858"/><path d="m253.246 160.597-86.77 34.236-25.617-58.552 82.38-32.447s9.596 11.222 17.321 27.08c9.921 20.493 12.686 29.683 12.686 29.683Z" fill="#5CB1D6"/><path fill-rule="evenodd" clip-rule="evenodd" d="M197.052 131.809s-3.578-4.392.894-7.075c4.473-2.765 6.344 0 6.344 0s-1.546-6.344 2.683-7.726c4.229-1.383 7.156-.732 7.807 3.741 0 0 3.497-4.473 6.994-.407s-21.713 12.361-24.722 11.467ZM161.271 171.982s-3.578-4.392.894-7.075c4.473-2.684 6.343 0 6.343 0s-1.545-6.343 2.684-7.726c4.229-1.382 7.156-.732 7.807 3.741 0 0 3.497-4.473 6.994-.407 3.334 4.148-21.795 12.361-24.722 11.467Z" fill="#2E8EB8"/><path d="m204.089 148.024 5.693-1.383c.244-.081.488-.244.65-.569l1.708-3.985c.163-.325.488-.569.813-.569 1.22 0 5.205.081 5.449.894.244.732-2.277 1.708-3.09 1.952-.326.081-.732.488-.814.895l-.244 1.545c-.081.406-.325.65-.732.732l-5.204 1.057h-.244l-1.789-.082h-.163l-2.033-.487Z" fill="#E9F1FC"/><path fill-rule="evenodd" clip-rule="evenodd" d="M184.204 158.401c-3.904 1.138-7.563.488-8.702-3.416-.325-.975-.325-1.789-.244-2.602l-1.789-5.611c-.162-.651.407-1.22.976-.976l3.66 1.382c.569-.569 1.382-.975 2.358-1.301.976-.244 1.87-.406 2.684-.244l2.358-3.171c.407-.488 1.22-.407 1.383.244l1.545 5.692c.488.57.894 1.383 1.219 2.359 1.139 3.903-1.545 6.505-5.448 7.644Zm-2.196-1.952c-.569.163-1.22.082-1.708-.244-.244-.162-.325-.488-.162-.813.162-.244.569-.325.813-.163.244.163.488.163.732.082.488-.163.732-.651.65-1.139l-.243-.813c-.895 0-1.79-.488-1.952-.976-.163-.569.732-.894 1.87-1.22 1.139-.325 2.033-.569 2.277 0 .163.488-.244 1.383-1.057 1.871l.244.813c.163.488.651.732 1.139.65.243-.081.487-.243.569-.487a.601.601 0 0 1 .732-.326.602.602 0 0 1 .325.732 2.016 2.016 0 0 1-1.301 1.139 2.24 2.24 0 0 1-1.627-.163c-.325.488-.732.895-1.301 1.057Z" fill="#fff"/><path fill-rule="evenodd" clip-rule="evenodd" d="M181.681 158.889s-13.662 4.391-13.418 6.668c.244 2.277 14.882-4.391 14.882-4.391s-8.783 6.343-8.783 8.783c0 2.439 14.069-9.678 17.159-10.328 3.091-.651 26.837-8.783 26.837-8.783s4.554 1.057 6.587 0c2.033-1.057-3.497-5.449-5.205-5.286-.894.081-1.138.976-10.572 2.602-5.936.976-1.463-2.765-19.436 2.684" fill="#fff"/><path fill-rule="evenodd" clip-rule="evenodd" d="M200.873 148.236s4.961-2.521 5.53-6.506c.569-3.985 5.774-7.563 6.506-6.506.732 1.057-3.091 1.464-4.88 6.425-1.707 4.96-5.53 6.749-5.53 6.749" fill="#fff"/><path fill-rule="evenodd" clip-rule="evenodd" d="M221.207 163.443s-2.602-3.172.651-5.124c3.253-1.951 4.554 0 4.554 0s-1.139-4.554 1.87-5.529c3.009-.976 5.124-.57 5.611 2.683 0 0 2.521-3.253 5.042-.244 2.521 3.009-15.532 8.864-17.728 8.214Z" fill="#2E8EB8"/><path d="M170.056 205.161c-2.602 1.301-16.752-1.057-22.364-10.246-.162-.326-.325-.57-.488-.895-2.358-4.635-.569-10.247 3.904-12.524a8.617 8.617 0 0 1 7.075-.325c.65-2.358 2.277-4.31 4.473-5.448 4.472-2.196 10.002-.244 12.279 4.391" stroke="#ED5F87" stroke-width="2" stroke-miterlimit="10" stroke-linecap="round"/><path d="M175.501 180.602c-.406.244-.894.244-1.138-.163l-2.44-3.253c-.244-.406-.244-.894.163-1.138.406-.244.894-.244 1.138.162l2.44 3.253c.244.407.163.895-.163 1.139ZM106.777 83.252l-6.856 5.226 65.073 85.371 6.856-5.225-65.073-85.372Z" fill="#FF4D6A"/><path d="m165.007 173.852 7.807 5.367c.406.244.813.326 1.057.082l.732-.57c.244-.162.325-.569.162-1.057l-3.009-9.108-6.749 5.286ZM127.278 108.225l-8.701 6.669-21.47-28.22c-.487-.65-.406-1.626.326-2.114l6.343-4.798c.651-.488 1.627-.406 2.115.326l21.387 28.137Z" fill="#FF6680"/><path d="M112.555 109.038c-.244.244-.65.163-.894-.081l-14.963-19.68c-.244-.244-.163-.65.08-.895.245-.244.651-.162.895.082l14.964 19.68c.244.244.162.65-.082.894Z" fill="#FF4D6A"/><path d="m98.108 88.085-.97.74 3.253 4.268.97-.74-3.253-4.268ZM97.808 77.56l-.97.74 3.253 4.269.97-.74-3.254-4.268Z" fill="#FF4D6A"/><path fill-rule="evenodd" clip-rule="evenodd" d="M100.116 71.874c2.358 3.416.894 9.027-.082 9.759-.894.732-6.668 1.3-9.596-1.708a1.125 1.125 0 0 1-.244-.325c-1.3-1.545-1.057-3.904.488-5.205.813-.65 1.79-.976 2.765-.813.081-.976.488-1.87 1.301-2.521 1.545-1.301 3.904-1.139 5.205.488 0 .162.081.244.163.325ZM261.703 157.913c-.65 6.912-8.457 12.361-10.409 12.361s-9.759-5.449-10.409-12.361v-.651c0-3.334 2.765-6.099 6.099-6.099 1.708 0 3.253.732 4.31 1.871 1.057-1.139 2.684-1.871 4.31-1.871a6.091 6.091 0 0 1 6.099 6.099v.651ZM249.669 182.31c1.383 3.903-1.626 8.783-2.683 9.27-1.058.488-6.669-.569-8.702-4.228-.081-.082-.163-.244-.163-.326-.813-1.87 0-3.984 1.871-4.798.894-.406 1.952-.406 2.846-.081a3.43 3.43 0 0 1 1.952-2.033c1.87-.813 3.985 0 4.798 1.87 0 .082 0 .244.081.326Z" fill="#ED5F87"/><path opacity=".3" fill-rule="evenodd" clip-rule="evenodd" d="m232.264 183.204-51.721 20.493c-.976.407-2.033-.081-2.359-1.057-.406-.976.082-2.033 1.058-2.358l51.72-20.493c.976-.407 2.034.081 2.359 1.057.325.894-.163 2.033-1.057 2.358ZM226.818 195.89l-42.695 16.915c-.975.407-2.033-.081-2.358-1.057-.406-.976.081-2.033 1.057-2.358l42.695-16.915c.975-.407 2.033.081 2.358 1.057.406.895-.081 1.952-1.057 2.358Z" fill="#5CB1D6"/><path opacity=".3" fill-rule="evenodd" clip-rule="evenodd" d="m256.582 199.713-68.799 27.324c-.975.406-2.033-.082-2.358-1.057-.407-.976.081-2.033 1.057-2.359l68.799-27.324c.976-.407 2.033.081 2.358 1.057.407.895-.081 2.033-1.057 2.359ZM199.084 234.112c.894 2.684-1.057 6.018-1.87 6.343-.732.325-4.555-.407-5.937-2.846-.081-.082-.081-.163-.163-.244-.569-1.22 0-2.684 1.301-3.253a2.694 2.694 0 0 1 1.952 0c.244-.569.651-1.139 1.301-1.383 1.22-.569 2.684 0 3.253 1.22.082 0 .163.082.163.163ZM209.658 230.046c.895 2.683-1.057 6.018-1.87 6.343-.813.325-4.554-.407-5.937-2.846-.081-.082-.081-.163-.162-.244-.569-1.22 0-2.684 1.301-3.253a2.694 2.694 0 0 1 1.952 0c.244-.57.65-1.139 1.301-1.383 1.22-.569 2.683 0 3.253 1.22.081 0 .081.081.162.163ZM251.536 216.546l-35.293 13.988c-.976.406-2.033-.082-2.359-1.058-.406-.975.082-2.033 1.057-2.358l35.294-13.987c.976-.407 2.033.081 2.359 1.057.406.976-.082 2.033-1.058 2.358Z" fill="#575E75"/></g><defs><clipPath id="a"><path fill="#fff" d="M0 0h360v360H0z"/></clipPath></defs></svg>