<svg width="360" height="360" fill="none" xmlns="http://www.w3.org/2000/svg"><path opacity=".5" d="M323.684 177.056c-2.707 23.223-20.19 75.193-50.418 109.689-1.579 1.804-3.271 3.608-4.963 5.411-7.783 8.117-16.468 14.881-25.716 19.842-15.34 8.116-32.71 11.047-51.997 5.523-38.913-11.16-53.576-20.292-67.45-39.343-1.015-1.466-2.143-2.931-3.158-4.51-4.737-6.876-9.474-14.993-15.339-24.801-10.603-17.699-24.476-40.697-47.147-71.811-2.143-2.819-3.835-5.75-5.189-8.568-1.128-2.255-2.03-4.509-2.82-6.764-3.496-10.822-2.594-21.645 1.58-32.016 16.693-41.599 85.383-77.222 130.725-90.75 1.128-.339 2.256-.677 3.271-1.015 1.917-.564 3.722-1.015 5.527-1.466 9.587-2.367 19.174-2.592 28.536-.901 37.559 6.764 71.284 43.064 89.782 80.266.451.901.902 1.916 1.353 2.818 5.302 11.048 9.136 22.096 11.505 32.467 2.143 9.47 2.82 18.263 1.918 25.929Z" fill="#F35"/><path opacity=".4" d="m189.277 282.765 30.003-46.414c2.121-3.231 5.857-5.402 9.714-5.646l55.614-2.35c9.642-.609 15.136-11.795 8.433-19.889l-34.819-42.707c-2.918-3.3-3.16-7.156-2.22-10.699l15.272-52.839c2.505-9.45-6.561-18.168-16.395-14.45l-51.416 19.893c-4.17 1.425-7.714.487-10.945-1.631l-46.099-31.156c-8.077-5.297-19.719.47-18.68 10.857l3.073 55.165c.242 3.856-1.445 7.833-4.747 10.752L82.15 186.168c-8.099 6.705-5.01 18.898 4.44 21.398l53.906 13.63c3.544.937 7.209 3.803 8.198 7.224l19.127 51.828c2.967 10.265 15.407 11.028 21.456 2.517Z" fill="#FF6680"/><path opacity=".5" d="M78.727 273.456c8.63-4.981 7.144-23.705-3.321-41.821-10.465-18.117-25.946-28.765-34.577-23.784-8.632 4.981-7.145 23.705 3.32 41.821 10.465 18.117 25.946 28.765 34.578 23.784Z" fill="#F35"/><path d="M219.687 129.595c2.143-.451 3.609-2.593 3.271-4.735-1.466-9.695-3.384-20.292-4.624-26.718-3.271-16.233-31.469-23.11-41.508-4.283-5.414 10.033-2.143 7.215-14.324 26.717-4.399 6.99 2.594 12.288 11.617-1.352 4.963-7.553 5.189-8.117 4.85 3.043-.225 8.343-4.963 21.645-7.895 27.958-3.271 6.764 6.88 7.215 9.813.902 3.835-8.229 6.654-26.492 9.249-26.605 2.819-.113 2.819 18.376 7.106 29.649 3.383 8.793 11.279 8.568 10.038-.225-1.579-11.612-6.768-24.576-4.737-24.915 0 0 6.316 7.215 10.94-1.127 0 0 2.82 2.368 6.204 1.691 0 .113 0 .113 0 0Z" fill="#E4B681"/><path d="m219.125 35.688-11.054 49.828-19.061-1.24-1.467-.112-5.752-45.206c1.128-.339 2.256-.677 3.271-1.015 1.917-.564 3.722-1.015 5.527-1.466 9.7-2.367 19.287-2.48 28.536-.789Z" fill="#E4B681"/><path opacity=".1" d="M174.572 155.524s4.511.112 6.429-4.51c2.03-4.509 3.722-10.709 5.978-19.728 0 0 1.128-4.284 2.481-6.426 0 0-4.173 5.299-6.542 15.783-2.368 10.484-5.639 13.753-8.346 14.881ZM178.407 113.812s-.451-.451-3.722 4.848c-3.384 5.299-7.445 9.357-10.716 9.245 0 0 8.573-6.088 10.49-9.696-.113-.113 2.595-5.298 3.948-4.397ZM189.122 83.713v.676c-.112.79-.225 1.127-.451 1.24-2.368.902-4.737 1.127-7.331 2.48.225-.225 2.481-2.593 6.091-3.833l-5.753-45.206c1.128-.338 2.256-.676 3.271-1.014 1.805 13.753 4.512 38.554 4.173 45.657Z" fill="#000"/><path d="M236.945 153.269c-7.444 3.72-21.318 5.975-28.311 6.426-7.557.451-3.045 9.469 3.835 9.131 9.136-.563 26.393-6.877 27.747-4.622 1.466 2.368-14.776 11.273-22.671 20.405-6.204 7.215-2.143 13.979 5.075 8.68 9.475-6.989 18.385-17.699 19.626-16.121 0 0-3.384 9.019 6.204 9.019 0 0-.79 3.608 1.466 6.2l.113.113c1.466 1.691 3.947 1.917 5.752.564 7.895-5.862 16.242-12.626 21.205-16.797 12.745-10.597 5.188-38.668-16.129-38.555 0 0-15.34-1.128-16.919 1.014-1.579 2.142-6.993 14.543-6.993 14.543Z" fill="#B68554"/><path d="m321.762 151.127-39.138 14.994-.79.338-12.407-25.591-.789-1.691 40.266-23.223c.451.902.903 1.917 1.354 2.819 5.414 11.048 9.249 22.095 11.504 32.354Z" fill="#B68554"/><path opacity=".1" d="M247.21 144.588c-3.046 1.466-8.347 6.765-9.814 8.343 0 0-.112 0 0 0l6.542-8.793c.113-.113.226-.226.452-.113l2.932.451c0-.226 0 0-.112.112ZM205.475 165.219s2.03 3.945 6.993 3.607c4.963-.338 11.166-1.916 20.189-4.171 0 0 4.286-1.127 6.768-.902 0 0-6.655-1.24-17.032 1.804-10.264 2.818-14.55 1.466-16.918-.338ZM310.371 118.773c-12.181 7.102-31.13 18.037-39.251 21.419-.564.225-1.128.451-1.579.564-1.015.338-1.692.451-2.03.451-3.722-1.128-2.707-2.255-8.46-3.608 0 0 1.805 0 4.174.226h.112c1.241.112 2.707.338 4.061.789h.113c.225.112.564.112.789.225.113.113.339.113.451.226l40.267-23.223c.451 1.014.902 1.916 1.353 2.931Z" fill="#000"/><path d="m105.655 137.938-7.445 30.776-.676 2.593-45.23-2.931c-1.128-2.255-2.03-4.51-2.82-6.764-3.496-10.823-2.594-21.645 1.58-32.017l54.14 8.117.451.226Z" fill="#825331"/><path d="M142.765 137.261c-.226-2.254-2.256-3.833-4.512-3.72-9.813.564-20.528 1.578-26.957 2.255-16.468 1.803-25.83 29.31-7.896 40.922 9.588 6.2 6.993 2.818 25.378 16.572 6.655 4.96 12.52-1.579-.338-11.725-7.106-5.636-7.67-5.862 3.384-4.622 8.234 1.015 21.092 6.764 27.183 10.372 6.541 3.833 7.782-6.201 1.804-9.695-7.895-4.622-25.829-8.906-25.716-11.499.113-2.818 18.498-1.127 30.228-4.509 9.136-2.593 9.587-10.485.677-10.034-11.731.564-25.04 4.51-25.266 2.48 0 0 7.783-5.636-.225-10.935 0 .226 2.707-2.367 2.256-5.862 0 .113 0 .113 0 0Z" fill="#825331"/><path opacity=".1" d="M164.533 183.144c-.225-1.466-1.015-3.833-3.835-5.412-4.398-2.367-10.376-4.622-19.174-7.665 0 0-4.173-1.466-6.091-2.932 0 0 4.85 4.623 15.114 7.892 8.46 2.705 11.843 5.524 13.31 8.004l.676.113ZM123.253 176.943s-.451.339 4.512 4.172c4.963 3.833 8.685 8.342 8.234 11.499 0 0-5.414-9.019-8.798-11.274 0 0-4.963-3.044-3.948-4.397ZM104.979 177.845c-4.173-2.142-6.542-5.298-7.218-6.2 0 0 0-.113-.113-.113 0-.113-.113-.113-.113-.113l-45.23-2.931c-1.127-2.254-2.03-4.509-2.82-6.764 24.59 4.961 40.267 5.75 45.907 5.863h2.369c.112.338.225.789.45 1.127 1.918 4.284 6.43 8.793 6.768 9.131Z" fill="#000"/><path d="M134.307 199.264c-2.03-.902-4.399-.112-5.526 1.917-4.625 8.68-9.362 18.263-12.069 24.237-6.993 14.994 11.617 37.315 30.905 28.071 10.264-4.96 6.09-4.509 27.408-13.077 7.67-3.044 5.188-11.499-10.151-5.862-8.572 3.156-9.024 3.495-2.143-5.299 5.188-6.538 16.806-14.43 22.896-17.812 6.655-3.607-1.24-9.92-7.331-6.538-8.008 4.397-21.092 17.361-23.235 16.008-2.369-1.578 8.685-16.459 11.956-28.071 2.594-9.131-3.948-13.528-8.234-5.749-5.64 10.259-9.136 23.787-11.054 22.885 0 0-.789-9.582-9.474-5.524 0-.113-.79-3.72-3.948-5.186 0 .113 0 0 0 0Z" fill="#4C2F19"/><path d="m138.253 255.631-15.114 22.547c-1.015-1.466-2.143-2.932-3.158-4.51-4.737-6.876-9.474-14.993-15.339-24.801l11.166-11.386 19.062 15.444 3.383 2.706Z" fill="#4C2F19"/><path opacity=".1" d="M185.963 205.352s-3.496-2.706-7.895-.226c-4.286 2.481-9.362 6.426-16.467 12.401 0 0-3.497 2.818-5.753 3.72 0 0 6.542-1.691 14.663-8.793 8.008-7.215 12.52-7.779 15.452-7.102ZM157.993 236.692s.112.563 5.865-1.691c5.865-2.255 11.617-3.157 14.099-1.128 0 0-10.49-.112-14.212 1.691.113 0-5.076 2.706-5.752 1.128ZM154.834 249.656c-10.377 7.102-16.58 5.975-16.58 5.975l-15.114 22.547c-1.016-1.466-2.143-2.931-3.159-4.51 7.445-9.808 11.618-15.782 13.535-18.601 1.016-1.465 1.354-2.142 1.354-2.142 5.752.902 19.287-3.043 19.964-3.269Z" fill="#000"/><path d="M192.507 241.314c-1.579 1.578-1.466 4.171 0 5.862 6.767 7.215 14.324 14.768 19.062 19.277 11.956 11.499 39.026 1.015 36.544-20.179-1.353-11.273 8.459-8.68-7.331-25.365-6.317-6.764-15.34-3.607-4.399 5.524 6.203 5.073-.226 7.102-6.317-2.255-4.511-6.989-8.346-20.517-9.474-27.394-1.241-7.44-9.813-2.029-8.572 4.848 1.579 9.018 9.7 25.477 7.67 27.056-2.256 1.691-12.746-13.416-22.784-20.292-7.783-5.299-14.099-.564-8.121 5.975 7.895 8.567 19.626 16.346 18.159 17.811 0 0-9.361-2.367-8.346 7.215 0-.338-3.722-.676-6.091 1.917.113-.113 0-.113 0 0Z" fill="#FDDBB4"/><path d="M273.267 286.745c-1.579 1.804-3.271 3.608-4.962 5.412-7.783 8.116-16.468 14.88-25.717 19.841l-26.393-42.501 29.551-21.645 2.256-1.691 25.265 40.584Z" fill="#FDDBB4"/><path opacity=".1" d="M238.864 230.154s1.128-1.015-2.594-4.172c-3.722-3.043-5.189-5.862-4.85-7.215 0 0 1.466 2.931 5.527 6.088 4.06 3.157 1.917 5.299 1.917 5.299ZM214.388 194.417s-4.061 2.593-1.692 10.146c2.481 7.553 5.64 16.459 5.64 16.459s2.03 5.524 1.466 7.215c0 0 1.353-5.073-2.594-16.459-3.835-11.274-2.82-17.361-2.82-17.361ZM273.265 286.745c-1.579 1.804-.677.902-2.369 2.593-11.505-19.728-17.934-29.649-21.881-36.638-1.241-2.142-2.82-3.382-3.159-4.848-1.353-4.847-.225-6.2.79-7.44 2.369-3.269 2.594-8.793 2.594-8.793.113.225.451.789.677 1.803v.226c.113.789.113 1.804-.226 3.044v.112c-.112.339-.225.677-.338.902 0 .113-.113.226-.113.451v.113c-.225.451-.338 1.015-.451 1.465v.226a15.227 15.227 0 0 0-.564 4.171v2.142l25.04 40.471Z" fill="#000"/><path d="m190.815 165.219 3.158 6.087c.226.451.677.79 1.128.79l6.768.901c1.24.113 1.692 1.691.902 2.593l-4.85 4.848c-.338.338-.451.902-.451 1.353l1.241 6.764c.225 1.24-1.016 2.142-2.143 1.578l-6.091-3.044c-.451-.225-1.015-.225-1.354 0l-5.978 3.269c-1.128.564-2.368-.338-2.255-1.578l1.015-6.764c.112-.451-.113-1.015-.451-1.353l-4.963-4.735c-.903-.901-.451-2.367.789-2.592l6.768-1.128c.451-.112.902-.338 1.128-.789l2.932-6.2a1.506 1.506 0 0 1 2.707 0Z" fill="#FFBF00"/></svg>