<svg width="95" height="95" fill="none" xmlns="http://www.w3.org/2000/svg"><path fill-rule="evenodd" clip-rule="evenodd" d="M68.4 47.08c0 10.088-10.014 18.254-22.4 18.254-1.598 0-3.171-.125-4.67-.4l-8.647 4.682c-1.569.849-2.607.124-2.32-1.623l1.153-7.004c-4.844-3.321-7.916-8.316-7.916-13.91C23.6 36.992 33.64 28.8 46 28.8c12.386 0 22.4 8.19 22.4 18.28Z" fill="#FFAB19" opacity=".5"/><path fill-rule="evenodd" clip-rule="evenodd" d="m47.06 36.963 2.351 4.004 4.633.334c1.578.113 2.34 1.986 1.292 3.17l-3.084 3.475 1.115 4.51c.38 1.534-1.167 2.839-2.616 2.206l-4.257-1.858-3.944 2.454c-1.344.835-3.06-.232-2.909-1.806l.453-4.623-3.552-2.992c-1.21-1.02-.727-2.984.819-3.324l4.537-1 1.747-4.302c.597-1.465 2.612-1.611 3.414-.248Z" fill="#fff" fill-opacity=".5"/><path fill-rule="evenodd" clip-rule="evenodd" d="m75.59 64.952.55 2.494 2.366.962a1.05 1.05 0 0 1 .138 1.878L76.44 71.58l-.182 2.548a1.05 1.05 0 0 1-1.744.71l-1.91-1.695-2.48.614a1.05 1.05 0 0 1-1.216-1.439l1.022-2.341-1.35-2.169a1.05 1.05 0 0 1 .993-1.6l2.544.248 1.644-1.954a1.05 1.05 0 0 1 1.828.45Z" fill="#FFAB19" opacity=".5"/></svg>