<svg width="360" height="360" fill="none" xmlns="http://www.w3.org/2000/svg"><path opacity=".45" d="M282.546 288.243c21.257-4.754 37.172-14.49 35.549-21.745-1.623-7.256-20.17-9.283-41.426-4.528-21.256 4.754-37.172 14.49-35.549 21.745 1.623 7.256 20.17 9.283 41.426 4.528Z" fill="#96F"/><path opacity=".45" fill-rule="evenodd" clip-rule="evenodd" d="M351.831 185.344c16.685 56.404-81.341 67.875-174.627 83.327-83.047 13.84-170.74-25.785-167.99-83.327 2.559-55.173 77.643-117.929 171.308-104.278C279.591 95.57 335.43 130.17 351.831 185.344Z" fill="#96F"/><path d="M266.506 253.029c20.098-26.733 28.725-61.713 20.857-96.883-5.025-22.467-16.117-41.901-31.096-57.163-27.682-28.155-68.921-41.806-110.255-32.61-17.444 3.886-33.181 11.47-46.454 21.708-35.267 27.207-53.563 73.279-43.23 119.54 4.835 21.614 15.263 40.573 29.484 55.551l180.694-10.143Z" fill="#575E75"/><path d="M249.822 256.347c.853-.853 1.611-1.706 2.37-2.559 22.373-25.027 32.802-60.102 24.838-95.462-6.541-29.103-24.269-52.802-47.591-67.59-23.227-14.694-52.141-20.572-81.151-14.03-4.077.947-8.153 2.085-12.04 3.412-51.004 17.727-81.72 71.383-69.585 125.323 5.119 22.941 17.254 42.469 33.56 56.973 2.275 2.086 4.74 3.982 7.205 5.878l142.394-11.945Z" fill="#E5F0FF"/><path d="M171.892 248.194c36.598 0 66.267-29.667 66.267-66.263 0-36.597-29.669-66.264-66.267-66.264-36.599 0-66.268 29.667-66.268 66.264 0 36.596 29.669 66.263 66.268 66.263Z" fill="#5CB1D6"/><path fill-rule="evenodd" clip-rule="evenodd" d="m97.757 211.224-25.312-7.015 18.96-17.064 6.352 24.079ZM252.192 175.579l19.814-16.968-24.365-7.395 4.551 24.363Z" fill="#5CB1D6"/><path d="m166.583 189.514-32.518-32.8 42.757 16.685-10.239 16.115ZM166.583 189.514l43.609 15.453-33.37-31.568-10.239 16.115Z" fill="#E5F0FF"/><path d="m174.168 190.084-57.451 4.739 53.28-23.32 4.171 18.581ZM174.169 190.084l54.607-21.899-58.778 3.318 4.171 18.581Z" fill="#E5F0FF"/><path d="m162.794 182.879 22.658 57.637-4.077-61.808-18.581 4.171ZM162.793 182.879l-3.413-58.869 21.995 54.698-18.582 4.171Z" fill="#E5F0FF"/><path d="m180.802 186.292 15.453-43.513-31.569 33.369 16.116 10.144Z" fill="#E5F0FF"/><path d="M180.802 186.291 148 218.902l16.686-42.754 16.116 10.143Z" fill="#E5F0FF"/><path d="m163.265 186.007-27.398-78.398c-.189-.663.664-1.137 1.043-.474l43.894 70.814-17.539 8.058Z" fill="#E64D00"/><path d="m181.09 178.328 33.466 76.028c.284.664-.569 1.138-1.043.569l-49.298-67.117 16.875-9.48Z" fill="#3373CC"/><path d="M172.463 196.245c7.382 0 13.367-5.984 13.367-13.367 0-7.382-5.985-13.366-13.367-13.366-7.383 0-13.367 5.984-13.367 13.366 0 7.383 5.984 13.367 13.367 13.367Z" fill="#FFBF00"/><path d="M142.219 231.605a4.36 4.36 0 1 0 .001-8.72 4.36 4.36 0 0 0-.001 8.72ZM125.248 155.577a4.361 4.361 0 1 0 0-8.722 4.361 4.361 0 0 0 0 8.722ZM202.703 138.229a4.361 4.361 0 1 0 0-8.722 4.361 4.361 0 0 0 0 8.722ZM219.674 214.257a4.36 4.36 0 1 0 .001-8.72 4.36 4.36 0 0 0-.001 8.72ZM107.332 268.292s23.701 4.55 47.497 2.844c23.795-1.707 58.493-8.343 58.493-8.343s34.224-5.688 36.499-6.446c2.275-.664-142.489 11.945-142.489 11.945Z" fill="#E5F0FF"/><path fill-rule="evenodd" clip-rule="evenodd" d="m199.384 265.069 1.517-4.551 1.233-3.886.758-2.37-15.168 3.223-9.101 1.896 2.275 2.749 4.266 5.214 14.22-2.275Z" fill="#5CB1D6"/><path d="M107.332 268.292s-6.447-5.119-7.205-5.878c-.759-.663-14.316.853-14.316.853s13.747 3.982 21.521 5.025ZM252.189 253.787l-2.37 2.56s14.505-2.749 16.686-3.413l-14.316.853Z" fill="#575E75"/><path fill-rule="evenodd" clip-rule="evenodd" d="M136.34 96.518c2.939 9.195 15.263 14.219 17.917 13.651 2.75-.569 11.756-10.428 10.429-20.003 0-.284-.095-.663-.19-.948-1.043-4.55-5.593-7.489-10.144-6.446a8.105 8.105 0 0 0-5.403 3.792c-1.802-1.232-4.172-1.706-6.542-1.138-4.55 1.043-7.489 5.593-6.446 10.144.189.379.284.663.379.948Z" fill="#ED5F87"/><path d="M160.515 89.313c-.474-.095-.853-.474-1.043-.948l-.284-1.043a.56.56 0 0 0-1.043 0l-.284 1.138c-.095.474-.474.853-.948 1.043l-1.043.284a.56.56 0 0 0 0 1.043l1.138.19c.474.094.853.474 1.042.948l.285 1.042a.56.56 0 0 0 1.043 0l.284-1.137c.095-.474.474-.854.948-1.043l1.043-.284a.56.56 0 0 0 0-1.043l-1.138-.19Z" fill="#fff"/><path d="M66.383 75.378c-1.517-.38-2.655-1.517-3.129-3.034l-.948-3.412c-.474-1.612-2.749-1.612-3.128 0l-.853 3.412c-.38 1.517-1.517 2.655-3.034 3.129l-3.413.948c-1.612.474-1.612 2.749 0 3.128l3.413.853c1.517.38 2.654 1.517 3.128 3.034l.948 3.412c.474 1.612 2.75 1.612 3.129 0l.853-3.412c.38-1.517 1.517-2.655 3.034-3.129l3.413-.948c1.611-.474 1.611-2.749 0-3.128l-3.413-.853ZM330.977 174.536c-1.991-.474-3.508-2.085-4.077-4.076l-1.232-4.55c-.569-2.086-3.603-2.086-4.172 0l-1.137 4.55c-.474 1.991-2.086 3.508-4.077 4.076l-4.55 1.233c-2.086.569-2.086 3.602 0 4.171l4.55 1.138c1.991.474 3.508 2.085 4.077 4.076l1.232 4.55c.569 2.086 3.603 2.086 4.172 0l1.137-4.55c.474-1.991 2.086-3.508 4.077-4.076l4.55-1.233c2.086-.569 2.086-3.602 0-4.171l-4.55-1.138ZM15.473 169.607a2.993 2.993 0 0 1-1.991-1.991l-.569-2.18a1.024 1.024 0 0 0-1.99 0l-.57 2.18a2.993 2.993 0 0 1-1.99 1.991l-2.181.569a1.024 1.024 0 0 0 0 1.99l2.18.569a2.993 2.993 0 0 1 1.991 1.991l.57 2.18a1.024 1.024 0 0 0 1.99 0l.569-2.18a2.993 2.993 0 0 1 1.99-1.991l2.181-.569a1.024 1.024 0 0 0 0-1.99l-2.18-.569Z" fill="#CF63CF"/></svg>