<svg width="182" height="171" fill="none" xmlns="http://www.w3.org/2000/svg"><path d="M0 68.458h181.14v96.55a5.06 5.06 0 0 1-1.479 3.571 5.041 5.041 0 0 1-3.571 1.479H5.05a5.05 5.05 0 0 1-5.05-5.05v-96.55Z" fill="#2E8EB8"/><path d="m0 68.458 87.52-66.42a5 5 0 0 1 6.1 0l87.52 66.42H0Z" fill="#47A8D1"/><path fill-rule="evenodd" clip-rule="evenodd" d="M89.408 95.314c8.182 0 14.807 6.623 14.807 14.803 0 7.97-6.625 14.593-14.807 14.593-8.156 0-14.623-6.623-14.623-14.593 0-8.18 6.467-14.803 14.623-14.803ZM83.94 85.286a5.894 5.894 0 0 1-5.912-5.7c0-.554-.027-1.16-.027-1.768 0-7.995 3.247-16.65 12.96-23.934l8.657-6.465c4.593-3.404 6.097-7.494 6.097-11.927 0-6.623-4.909-13.062-15.124-13.062-9.845 0-15.625 7.995-15.625 15.965v.131c0 3.352-2.719 6.043-6.07 5.911L56.7 44.015c-3.088-.105-5.543-2.639-5.675-5.726 0-.554-.026-1.082-.026-1.61C51 16.81 65.78 0 90.591 0c27.53 0 41.307 16.492 41.307 33.46 0 13.616-6.308 22.931-16.496 30.584l-6.44 4.75c-4.751 3.562-8.314 7.098-9.555 12.27-.633 2.56-3.088 4.222-5.727 4.222h-9.74Z" fill="#FFBF00"/><path d="M0 115.578h181.14v49.43a5.06 5.06 0 0 1-1.479 3.571 5.041 5.041 0 0 1-3.571 1.479H5.05a5.05 5.05 0 0 1-5.05-5.05v-49.43Z" fill="#47A8D1"/><path d="m0 68.458 64.44 41.32a4.788 4.788 0 0 1 .24 7.89L0 164.988v-96.53ZM181.141 68.458l-64.44 41.32a4.796 4.796 0 0 0-2.195 3.882 4.792 4.792 0 0 0 1.955 4.008l64.68 47.32v-96.53Z" fill="#5CB1D6"/></svg>