<svg width="360" height="360" viewBox="0 0 360 360" fill="none" xmlns="http://www.w3.org/2000/svg">
<path opacity="0.34" fill-rule="evenodd" clip-rule="evenodd" d="M299.637 176.265C295.374 181.295 291.453 186.325 287.872 191.185C284.802 195.363 281.989 199.455 279.431 203.463C238.933 266.128 252.489 308.076 203.38 316.09H203.295C202.442 316.26 201.589 316.346 200.737 316.431C196.218 317.028 191.273 317.369 185.731 317.454C182.577 317.454 179.422 317.369 176.267 317.198C101.495 311.912 48.2935 234.923 41.4727 173.281C40.1939 161.43 39.8528 151.199 40.4496 142.332C41.217 129.969 43.7747 120.25 47.7819 112.406C56.3931 95.6098 71.7397 87.6807 91.0083 81.2862C98.5964 78.7284 106.867 76.4264 115.478 73.8687C117.439 73.2719 119.4 72.675 121.361 72.0782C122.469 71.7372 123.577 71.3962 124.686 71.0551C126.306 70.5436 127.926 70.032 129.545 69.5205C129.972 69.3499 130.483 69.2647 130.91 69.0942C141.908 65.5133 153.503 61.0798 165.184 55.1969C203.721 35.6726 252.574 39.5092 286.081 58.6925C286.081 58.6925 286.167 58.6925 286.167 58.7778C286.508 58.9483 286.849 59.1188 287.104 59.3746C295.716 64.4049 303.304 70.5436 309.357 77.5348C330.331 101.578 333.315 136.449 299.637 176.265Z" fill="#59C059"/>
<path opacity="0.15" fill-rule="evenodd" clip-rule="evenodd" d="M90.4968 223.584C72.0808 193.402 70.6314 153.16 86.8307 121.273C103.627 86.9984 131.847 71.8223 143.187 66.8773C150.008 63.7227 157.169 61.2502 164.928 59.3745L172.516 57.7546C178.058 56.6462 183.685 60.0565 184.879 65.5984C186.072 71.1402 182.577 76.5968 176.95 77.7905L169.532 79.4104C163.393 80.8598 157.51 82.906 151.798 85.549C144.295 88.7889 119.655 101.237 105.417 130.395C94.5892 151.625 91.3494 185.387 108.401 213.267C123.833 240.124 155.379 256.579 185.305 253.851C213.611 251.804 239.615 232.962 248.653 208.066C257.861 184.62 251.722 160.577 241.576 147.021C229.384 130.31 214.123 125.195 208.154 123.745C207.302 123.489 186.328 117.18 167.912 126.473C159.983 130.31 149.667 138.836 144.21 151.71C138.242 165.011 139.777 182.062 147.876 193.487C155.976 205.679 171.237 212.585 184.452 210.198C197.582 208.152 206.364 198.432 208.495 189.821C210.968 180.613 207.217 172.854 204.232 170.041C199.202 165.096 194.854 165.011 194.683 165.011C192.637 164.925 191.614 165.096 191.017 165.181C188.715 166.034 185.39 167.909 184.367 169.87C184.197 170.211 183.77 171.064 184.623 173.281C186.669 178.567 183.941 184.45 178.569 186.496C173.198 188.457 167.23 185.814 165.184 180.528C161.859 171.746 163.734 164.925 165.866 160.662C171.408 149.664 184.367 145.742 185.902 145.316C186.584 145.145 187.266 144.975 187.948 144.889C189.397 144.634 191.87 144.293 195.28 144.463C203.124 144.548 211.991 148.641 218.812 155.376C226.826 162.964 233.135 178.226 228.702 194.851C224.354 212.585 207.558 227.25 188.033 230.319C166.974 234.07 143.357 223.669 130.824 204.912C118.803 187.945 116.501 163.22 125.283 143.525C134.917 120.932 153.418 110.615 158.875 108.057C184.964 95.0128 212.844 103.624 213.952 103.965C221.455 105.755 242.258 112.747 258.457 134.829C270.905 151.454 281.051 182.574 268.177 215.143C256.496 247.2 223.075 271.584 187.095 274.228C184.282 274.483 181.383 274.654 178.569 274.654C143.613 274.654 108.231 254.533 90.4968 223.584Z" fill="#0DA57A"/>
<path fill-rule="evenodd" clip-rule="evenodd" d="M226.229 232.962L222.563 256.238C222.307 257.858 220.773 258.966 219.238 258.711L173.454 251.378C172.687 251.293 171.919 251.464 171.237 251.89L166.548 255.3C165.951 255.726 165.099 255.982 164.331 255.812L149.326 253.424C148.558 253.339 147.876 252.913 147.45 252.231L144.04 247.542C143.613 246.945 142.846 246.518 142.164 246.348L134.576 245.154C132.956 244.899 131.847 243.364 132.103 241.829L135.769 218.553C136.025 216.934 137.56 215.825 139.094 216.081L146.597 217.275C147.365 217.36 148.047 217.786 148.473 218.468L151.883 223.243C152.31 223.84 153.077 224.266 153.759 224.436L168.765 226.824C169.532 226.909 170.299 226.738 170.981 226.312L175.756 222.902C176.353 222.475 177.205 222.22 177.973 222.39L223.672 229.637C225.377 229.808 226.485 231.342 226.229 232.962Z" fill="#4D97FF"/>
<path fill-rule="evenodd" clip-rule="evenodd" d="M154.356 95.0982L138.498 112.491C137.389 113.685 135.514 113.77 134.32 112.662L111.3 91.7731C110.703 91.2615 109.936 91.0057 109.168 91.0057L103.371 91.2615C102.603 91.2615 101.836 91.0057 101.239 90.4942L89.9851 80.2631C89.3883 79.7515 89.0473 78.9842 89.0473 78.2169L88.7915 72.4192C88.7915 71.6519 88.3652 70.8846 87.8537 70.373L82.2266 65.2575C81.0329 64.1491 80.9477 62.2734 82.056 61.0798L97.9142 43.7722C99.0226 42.5785 100.898 42.4933 102.092 43.6016L107.719 48.7172C108.316 49.2287 108.657 49.9961 108.657 50.7634L108.913 56.6463C108.998 57.4136 109.339 58.181 109.851 58.6925L121.105 68.9236C121.702 69.4352 122.469 69.6909 123.236 69.6909L129.119 69.4352C129.886 69.4352 130.654 69.6909 131.251 70.2025L154.185 91.091C155.294 92.0288 155.379 93.9045 154.356 95.0982Z" fill="#FFBF00"/>
<path fill-rule="evenodd" clip-rule="evenodd" d="M99.7047 42.8343C99.7047 42.8343 126.902 44.1984 131.165 70.0319L121.02 71.3108L106.184 59.8861L97.9143 43.7721L99.7047 42.8343Z" fill="#FFBF00"/>
<path opacity="0.1" fill-rule="evenodd" clip-rule="evenodd" d="M253.512 99.8729C253.512 99.8729 254.109 102.857 246.521 109.848C238.933 116.839 232.709 122.04 232.709 122.04C232.709 122.04 227.849 125.28 229.469 129.032C229.469 129.032 230.066 125.195 233.732 122.978C237.484 120.847 253.768 103.624 253.853 101.834C253.853 100.129 253.512 99.8729 253.512 99.8729Z" fill="black"/>
<path opacity="0.34" d="M45.7357 235.179C55.1995 255.812 70.6314 269.027 62.8728 272.608C55.1142 276.189 28.3428 266.81 18.8791 246.092C9.41531 225.46 20.84 201.246 28.6839 197.75C36.4425 194.169 36.2719 214.461 45.7357 235.179Z" fill="#59C059"/>
<path opacity="0.34" d="M342.693 147.021C338.089 163.22 328.199 174.645 320.696 172.513C313.194 170.382 324.448 159.384 329.052 143.184C333.656 126.985 329.819 111.724 337.407 113.855C344.995 115.987 347.297 130.822 342.693 147.021Z" fill="#59C059"/>
<path fill-rule="evenodd" clip-rule="evenodd" d="M258.372 127.156C258.969 128.69 258.202 130.396 256.667 130.907L201.419 151.881C200.652 152.137 200.14 152.734 199.799 153.416L197.412 158.702C197.071 159.384 196.474 159.981 195.792 160.236L181.639 165.608C180.871 165.863 180.104 165.863 179.422 165.522L174.136 163.135C173.454 162.794 172.601 162.794 171.919 163.05L164.757 165.778C163.223 166.375 161.518 165.608 161.006 164.073L152.651 142.076C152.054 140.541 152.821 138.836 154.356 138.325L161.432 135.596C162.2 135.341 162.967 135.341 163.649 135.682L169.02 138.069C169.703 138.41 170.555 138.41 171.237 138.154L185.39 132.783C186.158 132.527 186.669 131.93 187.01 131.248L189.397 125.877C189.738 125.195 190.335 124.598 191.017 124.342L246.265 103.368C247.8 102.772 249.505 103.539 250.017 105.074L258.372 127.156Z" fill="#FFAB1A"/>
<path fill-rule="evenodd" clip-rule="evenodd" d="M309.357 77.3644C301.598 85.5492 295.886 91.6026 292.305 96.8887C292.049 97.4855 291.708 97.9971 291.282 98.5939C288.213 102.686 291.112 114.537 279.857 123.831C275.424 127.497 271.843 123.063 270.99 123.66C265.619 127.156 263.232 120.335 262.635 120.506C257.349 122.125 255.303 118.63 254.45 117.095C254.194 116.669 254.024 116.328 253.853 116.413C250.784 118.204 248.567 119.909 246.436 121.699C243.622 124.001 241.15 126.388 237.398 129.202C233.647 132.015 230.407 131.248 229.384 129.117C229.384 129.031 229.299 129.031 229.299 128.946C229.299 128.861 229.213 128.776 229.213 128.69C229.128 128.52 229.128 128.435 229.128 128.264C229.043 127.753 229.043 127.241 229.128 126.644C229.213 126.047 229.469 125.451 229.895 124.854C229.981 124.768 229.981 124.683 230.066 124.598C230.237 124.342 230.407 124.172 230.578 124.001L230.663 123.916C230.919 123.66 231.174 123.319 231.515 123.063L232.709 122.04C232.709 122.04 232.88 121.87 233.306 121.529C233.476 121.443 233.647 121.273 233.817 121.102C233.903 121.017 233.988 120.932 234.073 120.847C235.608 119.482 237.569 117.777 239.53 115.987C241.32 114.367 243.111 112.747 244.731 111.298C245.072 111.042 245.413 110.701 245.754 110.36C246.862 109.337 247.885 108.399 248.653 107.631C249.249 107.035 249.676 106.608 249.931 106.267C250.017 106.097 250.187 106.011 250.272 105.841C250.613 105.5 250.869 105.074 251.21 104.647C251.637 104.05 251.978 103.539 252.233 103.113C252.319 103.027 252.404 102.942 252.404 102.772C252.915 101.919 253.256 101.152 253.427 100.384C253.512 99.8728 253.512 99.7023 253.512 99.7023C253.342 97.9971 251.296 97.1445 245.413 98.5086C236.46 100.555 231.856 97.4855 231.856 94.5015C231.856 94.5015 231.856 94.2457 231.942 93.9046C232.112 92.7963 233.05 91.6879 234.585 90.9206C234.67 90.9206 234.755 90.8353 234.755 90.8353C235.011 90.7501 235.352 90.5795 235.693 90.4943C236.205 90.3238 236.716 90.2385 237.228 90.068C240.468 89.3006 244.645 88.7891 249.079 87.6807C249.249 87.5955 249.42 87.5955 249.676 87.5102C251.125 87.1692 252.574 86.7429 254.024 86.2313C254.109 86.2313 254.109 86.2313 254.194 86.1461C255.729 85.6345 257.178 85.0377 258.628 84.2704L258.884 84.0998C259.821 83.5883 261.271 82.821 262.891 81.9684H262.976C265.96 80.3484 269.626 78.6433 271.758 78.3875C271.843 78.3875 271.843 78.3875 271.843 78.3875L273.122 76.6823C277.3 70.9699 281.904 64.5755 286.252 58.5221C286.252 58.5221 286.337 58.5221 286.337 58.6074L286.422 58.5221L287.36 59.1189C295.801 64.3197 303.304 70.4584 309.357 77.3644Z" fill="#B68554"/>
<path opacity="0.1" fill-rule="evenodd" clip-rule="evenodd" d="M287.19 59.2894L273.378 80.3484C273.378 80.3484 261.441 83.503 253.768 88.107C246.095 92.7963 234.926 89.9827 231.942 94.5867C231.942 94.5867 231.942 94.3309 232.027 93.9899C232.112 93.7341 232.198 93.3931 232.368 93.1373C232.368 93.1373 232.88 91.9437 234.67 91.0911C234.755 91.0911 234.841 91.0058 234.841 91.0058C235.523 90.7501 236.29 90.409 237.313 90.2385C237.398 90.2385 237.569 90.1532 237.654 90.1532C239.871 89.8122 244.39 89.1301 249.079 87.8513C249.249 87.766 249.42 87.766 249.676 87.6807C251.125 87.2544 252.574 86.8281 254.024 86.4018C254.109 86.4018 254.109 86.4018 254.194 86.3166C257.008 85.3787 259.651 84.2704 261.697 82.9062C262.124 82.6504 262.465 82.3947 262.891 82.1389H262.976C268.262 78.9843 271.161 78.558 271.758 78.558C271.843 78.558 271.843 78.558 271.843 78.558L273.122 76.8528L286.337 58.6926L286.422 58.6074L287.19 59.2894Z" fill="black"/>
<path fill-rule="evenodd" clip-rule="evenodd" d="M227.935 247.968C190.847 231.087 170.726 204.486 167.997 180.357C165.781 160.577 169.276 144.549 175.926 144.378C182.577 144.207 176.864 156.911 184.026 156.57C191.188 156.229 184.879 130.395 194.769 130.992C204.488 131.589 194.854 151.369 202.016 151.881C206.108 152.137 201.93 168.165 206.876 170.297C210.286 171.746 206.364 173.707 217.959 189.565C221.029 193.743 226.144 198.091 233.817 203.292L227.935 247.968Z" fill="#59C059"/>
<path fill-rule="evenodd" clip-rule="evenodd" d="M218.471 242.256C214.549 239.186 217.021 233.048 219.494 229.552C221.54 226.738 216.766 220.6 221.625 216.678C225.547 213.523 223.331 210.369 223.672 205.679C224.098 199.456 224.183 196.216 226.911 198.177L232.709 201.758L228.19 230.405L228.02 247.968C227.935 247.968 221.37 244.558 218.471 242.256Z" fill="#389438"/>
<path fill-rule="evenodd" clip-rule="evenodd" d="M258.202 218.894L253.939 255.726C232.198 252.06 221.37 246.689 221.37 239.527C221.455 228.784 225.547 235.179 223.842 226.312C222.137 217.445 228.531 220.685 227.594 215.74C226.656 210.795 228.276 194.937 233.903 203.292C239.786 211.988 247.885 217.189 258.202 218.894Z" fill="white"/>
<path fill-rule="evenodd" clip-rule="evenodd" d="M299.978 245.58C299.723 247.115 301.087 248.735 303.048 249.076C305.009 249.417 306.884 248.479 307.14 246.945C307.396 245.41 306.032 243.79 304.071 243.449C302.11 243.023 300.234 244.046 299.978 245.58ZM258.287 237.822L261.697 219.576C262.209 219.662 263.743 219.917 266.216 220.429C273.037 221.708 269.029 235.008 278.323 236.628C287.616 238.333 289.833 234.753 298.359 236.287C303.218 237.14 311.83 240.209 310.465 247.286C309.186 254.362 300.064 254.192 295.204 253.254C286.593 251.719 285.825 247.541 276.532 245.836C267.239 244.131 265.704 257.687 258.969 256.494C256.496 256.067 254.962 255.726 254.45 255.641L258.287 237.822Z" fill="#CC8B2A"/>
<path fill-rule="evenodd" clip-rule="evenodd" d="M264.681 220.003L257.946 256.409L251.551 255.215L258.287 218.809L264.681 220.003Z" fill="#E3AB23"/>
<path fill-rule="evenodd" clip-rule="evenodd" d="M233.903 203.292C236.801 207.555 239.615 210.283 241.576 211.733C237.057 215.91 240.127 220.344 240.212 224.095C240.382 230.404 238.08 230.49 236.29 237.225C234.755 243.193 240.809 251.122 242.258 253.424C226.4 249.758 221.284 244.387 221.284 239.527C221.37 228.785 225.462 235.179 223.757 226.312C222.052 217.445 228.446 220.685 227.508 215.74C226.656 210.795 228.361 194.937 233.903 203.292Z" fill="#59C059"/>
<path fill-rule="evenodd" clip-rule="evenodd" d="M216.51 236.202C217.192 232.195 198.435 215.655 205.085 210.369C208.325 207.726 216.766 228.699 217.362 222.305L222.222 228.955L216.51 236.202Z" fill="#389438"/>
<path fill-rule="evenodd" clip-rule="evenodd" d="M217.362 222.22C217.277 219.065 206.705 206.447 212.588 203.548C215.572 202.098 219.75 215.91 222.222 212.5C223.416 210.88 223.672 208.322 223.586 205.679C223.586 203.036 225.462 206.276 225.121 210.539C224.95 213.779 221.881 223.584 219.75 225.8C219.238 226.482 217.362 222.22 217.362 222.22Z" fill="#389438"/>
<path fill-rule="evenodd" clip-rule="evenodd" d="M174.989 118.203C169.02 117.521 168.765 130.054 173.283 130.31C180.019 130.737 182.236 119.056 174.989 118.203Z" fill="#59C059"/>
<path fill-rule="evenodd" clip-rule="evenodd" d="M203.38 175.156V198.688C203.38 200.308 202.101 201.587 200.481 201.587H169.361C168.594 201.587 167.827 201.928 167.315 202.439L163.223 206.532C162.711 207.043 161.944 207.384 161.177 207.384H146C145.233 207.384 144.466 207.043 143.954 206.532L139.862 202.439C139.35 201.928 138.583 201.587 137.816 201.587H130.142C128.522 201.587 127.243 200.308 127.243 198.688V175.156C127.243 173.537 128.522 172.258 130.142 172.258H137.73C138.498 172.258 139.265 172.599 139.776 173.11L143.954 177.288C144.551 177.8 145.233 178.141 146 178.141H161.177C161.944 178.141 162.711 177.8 163.223 177.288L167.4 173.11C167.997 172.599 168.679 172.258 169.447 172.258H200.481C202.101 172.258 203.38 173.537 203.38 175.156Z" fill="#CF63CF"/>
<path d="M82.7381 157.508C84.4433 168.251 87.5979 165.693 89.7294 187.519C90.4967 195.363 98.8521 195.278 97.7437 179.846C97.1469 171.235 94.5892 169.189 100.813 177.8C105.417 184.279 112.238 193.487 117.353 197.324C123.663 202.013 129.801 196.898 125.368 192.379C118.291 185.303 108.742 174.73 110.618 173.11C112.664 171.405 122.554 187.775 130.142 196.557C135.599 202.951 142.42 197.58 137.645 190.589C131.336 181.381 121.361 170.894 122.725 169.444C124.089 167.995 135.769 176.521 141.482 183.256C146.171 188.713 152.395 182.659 148.047 177.714C141.652 170.212 126.732 161.345 127.84 159.981C129.375 158.19 141.311 161.174 146.341 163.817C152.651 167.228 157.169 160.407 151.883 158.787C142.42 155.973 121.787 141.394 116.842 136.961C104.82 126.388 79.4983 137.472 82.7381 157.508Z" fill="#4C2F19"/>
<path d="M103.541 134.914L97.7437 154.183L96.3796 158.787C92.7987 156.655 88.0242 154.694 82.4823 152.819C80.7772 152.222 78.9867 151.625 77.111 151.113C65.8568 147.703 52.4711 144.634 40.4496 142.246C41.2169 129.884 43.7747 120.164 47.7819 112.32L84.1023 127.07L99.9605 133.55L103.371 134.914H103.541Z" fill="#4C2F19"/>
<path d="M147.109 184.791C147.109 184.791 145.659 185.217 143.869 184.194C143.187 183.853 142.505 183.256 141.738 182.403C139.009 179.249 124.259 165.437 122.384 169.359C122.384 169.359 125.453 167.824 139.35 181.21C140.8 182.659 141.652 183.938 142.675 184.535C145.574 186.07 147.109 184.791 147.109 184.791Z" fill="black" fill-opacity="0.2"/>
<path d="M110.447 173.025C110.447 173.025 110.533 169.615 124.686 189.821C124.686 189.821 130.739 200.308 135.514 199.285C135.514 199.285 132.53 198.773 130.824 196.13C129.204 193.487 112.408 169.529 110.447 173.025Z" fill="black" fill-opacity="0.2"/>
<path d="M152.31 163.817C152.31 163.817 149.411 165.948 144.039 162.623C138.668 159.298 127.158 158.616 127.67 159.725C127.67 159.725 131.506 156.57 144.21 161.6C144.21 161.686 148.558 164.073 152.31 163.817Z" fill="black" fill-opacity="0.2"/>
</svg>
