<svg width="360" height="360" fill="none" xmlns="http://www.w3.org/2000/svg"><path opacity=".34" fill-rule="evenodd" clip-rule="evenodd" d="M299.637 176.265a279.632 279.632 0 0 0-11.765 14.92 227.225 227.225 0 0 0-8.441 12.278c-40.498 62.665-26.942 104.613-76.051 112.627h-.085c-.853.17-1.706.256-2.558.341-4.519.597-9.464.938-15.006 1.023-3.154 0-6.309-.085-9.464-.256-74.772-5.286-127.974-82.275-134.794-143.917-1.28-11.851-1.62-22.082-1.023-30.949.767-12.363 3.325-22.082 7.332-29.926 8.611-16.796 23.958-24.725 43.226-31.12 7.588-2.558 15.859-4.86 24.47-7.417l5.883-1.79 3.325-1.024 4.859-1.535c.427-.17.938-.255 1.365-.426 10.998-3.58 22.593-8.014 34.274-13.897 38.537-19.524 87.39-15.688 120.897 3.495 0 0 .086 0 .086.086.341.17.682.34.937.597 8.612 5.03 16.2 11.169 22.253 18.16 20.974 24.043 23.958 58.914-9.72 98.73Z" fill="#FFAB19"/><path opacity=".15" fill-rule="evenodd" clip-rule="evenodd" d="M90.497 223.584C72.08 193.402 70.63 153.16 86.83 121.273c16.796-34.275 45.016-49.45 56.356-54.396 6.821-3.154 13.982-5.627 21.741-7.502l7.588-1.62c5.542-1.109 11.169 2.301 12.363 7.843a10.234 10.234 0 0 1-7.929 12.192l-7.418 1.62a92.847 92.847 0 0 0-17.734 6.139c-7.503 3.24-32.143 15.688-46.381 44.846-10.828 21.23-14.068 54.992 2.984 82.872 15.432 26.857 46.978 43.312 76.904 40.584 28.306-2.047 54.31-20.889 63.348-45.785 9.208-23.446 3.069-47.489-7.077-61.045-12.192-16.711-27.453-21.826-33.422-23.276-.852-.256-21.826-6.565-40.242 2.728-7.929 3.837-18.245 12.363-23.702 25.237-5.968 13.301-4.433 30.352 3.666 41.777 8.1 12.192 23.361 19.098 36.576 16.711 13.13-2.046 21.912-11.766 24.043-20.377 2.473-9.208-1.278-16.967-4.263-19.78-5.03-4.945-9.378-5.03-9.549-5.03-2.046-.086-3.069.085-3.666.17-2.302.853-5.627 2.728-6.65 4.689-.17.341-.597 1.194.256 3.411 2.046 5.286-.682 11.169-6.054 13.215-5.371 1.961-11.339-.682-13.385-5.968-3.325-8.782-1.45-15.603.682-19.866 5.542-10.998 18.501-14.92 20.036-15.346.682-.171 1.364-.341 2.046-.427 1.449-.255 3.922-.596 7.332-.426 7.844.085 16.711 4.178 23.532 10.913 8.014 7.588 14.323 22.85 9.89 39.475-4.348 17.734-21.144 32.399-40.669 35.468-21.059 3.751-44.676-6.65-57.209-25.407-12.021-16.967-14.323-41.692-5.541-61.387 9.634-22.593 28.135-32.91 33.592-35.468 26.089-13.044 53.969-4.433 55.077-4.092 7.503 1.79 28.306 8.782 44.505 30.864 12.448 16.625 22.594 47.745 9.72 80.314-11.681 32.057-45.102 56.441-81.082 59.085-2.813.255-5.712.426-8.526.426-34.956 0-70.338-20.121-88.072-51.07Z" fill="#CF8B17"/><path fill-rule="evenodd" clip-rule="evenodd" d="m154.356 95.098-15.858 17.393c-1.109 1.194-2.984 1.279-4.178.171L111.3 91.773a3.275 3.275 0 0 0-2.132-.767l-5.797.255a3.275 3.275 0 0 1-2.132-.767l-11.254-10.23a2.724 2.724 0 0 1-.938-2.047l-.255-5.798c0-.767-.427-1.534-.938-2.046l-5.627-5.116c-1.194-1.108-1.28-2.984-.171-4.177l15.858-17.308c1.109-1.194 2.984-1.279 4.178-.17l5.627 5.115c.597.512.938 1.28.938 2.046l.256 5.883c.085.768.426 1.535.938 2.047l11.254 10.23a3.274 3.274 0 0 0 2.131.768l5.883-.256c.767 0 1.535.256 2.132.767l22.934 20.889c1.109.938 1.194 2.814.171 4.007Z" fill="#FFBF00"/><path fill-rule="evenodd" clip-rule="evenodd" d="M99.705 42.834s27.197 1.364 31.46 27.198L121.02 71.31l-14.836-11.425-8.27-16.114 1.79-.938Z" fill="#FFBF00"/><path opacity=".1" fill-rule="evenodd" clip-rule="evenodd" d="M253.512 99.873s.597 2.984-6.991 9.975c-7.588 6.991-13.812 12.192-13.812 12.192s-4.86 3.24-3.24 6.992c0 0 .597-3.837 4.263-6.054 3.752-2.131 20.036-19.354 20.121-21.144 0-1.705-.341-1.961-.341-1.961Z" fill="#000"/><path opacity=".34" d="M45.736 235.179c9.464 20.633 24.895 33.848 17.137 37.429-7.759 3.581-34.53-5.798-43.994-26.516-9.464-20.632 1.961-44.846 9.805-48.342 7.759-3.581 7.588 16.711 17.052 37.429ZM342.693 147.021c-4.604 16.199-14.494 27.624-21.997 25.492-7.502-2.131 3.752-13.129 8.356-29.329 4.604-16.199.767-31.46 8.355-29.329 7.588 2.132 9.89 16.967 5.286 33.166Z" fill="#FFAB19"/><path fill-rule="evenodd" clip-rule="evenodd" d="M258.372 127.156c.597 1.534-.17 3.24-1.705 3.751l-55.248 20.974c-.767.256-1.279.853-1.62 1.535l-2.387 5.286c-.341.682-.938 1.279-1.62 1.534l-14.153 5.372c-.768.255-1.535.255-2.217-.086l-5.286-2.387c-.682-.341-1.535-.341-2.217-.085l-7.162 2.728c-1.534.597-3.239-.17-3.751-1.705l-8.355-21.997c-.597-1.535.17-3.24 1.705-3.751l7.076-2.729c.768-.255 1.535-.255 2.217.086l5.371 2.387c.683.341 1.535.341 2.217.085l14.153-5.371c.768-.256 1.279-.853 1.62-1.535l2.387-5.371c.341-.682.938-1.279 1.62-1.535l55.248-20.974c1.535-.596 3.24.171 3.752 1.706l8.355 22.082Z" fill="#FFAB1A"/><path fill-rule="evenodd" clip-rule="evenodd" d="M309.357 77.364c-7.759 8.185-13.471 14.239-17.052 19.525-.256.597-.597 1.108-1.023 1.705-3.069 4.092-.17 15.943-11.425 25.237-4.433 3.666-8.014-.768-8.867-.171-5.371 3.496-7.758-3.325-8.355-3.154-5.286 1.619-7.332-1.876-8.185-3.411-.256-.426-.426-.767-.597-.682-3.069 1.791-5.286 3.496-7.417 5.286-2.814 2.302-5.286 4.689-9.038 7.503-3.751 2.813-6.991 2.046-8.014-.085 0-.086-.085-.086-.085-.171 0-.085-.086-.17-.086-.256-.085-.17-.085-.255-.085-.426a5.17 5.17 0 0 1 0-1.62c.085-.597.341-1.193.767-1.79.086-.086.086-.171.171-.256.171-.256.341-.426.512-.597l.085-.085c.256-.256.511-.597.852-.853l1.194-1.023s.171-.17.597-.511c.17-.086.341-.256.511-.427l.256-.255c1.535-1.365 3.496-3.07 5.457-4.86 1.79-1.62 3.581-3.24 5.201-4.689.341-.256.682-.597 1.023-.938 1.108-1.023 2.131-1.961 2.899-2.729.596-.596 1.023-1.023 1.278-1.364.086-.17.256-.256.341-.426.341-.341.597-.767.938-1.194a23.29 23.29 0 0 0 1.023-1.534c.086-.086.171-.171.171-.341.511-.853.852-1.62 1.023-2.388.085-.511.085-.682.085-.682-.17-1.705-2.216-2.558-8.099-1.193-8.953 2.046-13.557-1.023-13.557-4.008 0 0 0-.255.086-.596.17-1.109 1.108-2.217 2.643-2.984.085 0 .17-.086.17-.086.256-.085.597-.255.938-.34.512-.171 1.023-.257 1.535-.427 3.24-.767 7.417-1.279 11.851-2.387.17-.085.341-.085.597-.17a41.934 41.934 0 0 0 4.348-1.28c.085 0 .085 0 .17-.085a28.814 28.814 0 0 0 4.434-1.876l.256-.17c.937-.512 2.387-1.279 4.007-2.132h.085c2.984-1.62 6.65-3.325 8.782-3.58h.085l1.279-1.706c4.178-5.712 8.782-12.106 13.13-18.16 0 0 .085 0 .085.085l.085-.085.938.597c8.441 5.2 15.944 11.34 21.997 18.245Z" fill="#B68554"/><path opacity=".1" fill-rule="evenodd" clip-rule="evenodd" d="m287.19 59.29-13.812 21.058s-11.937 3.155-19.61 7.759c-7.673 4.69-18.842 1.876-21.826 6.48 0 0 0-.256.085-.597.085-.256.171-.597.341-.853 0 0 .512-1.193 2.302-2.046.085 0 .171-.085.171-.085.682-.256 1.449-.597 2.472-.767.085 0 .256-.086.341-.086 2.217-.34 6.736-1.023 11.425-2.302.17-.085.341-.085.597-.17l4.348-1.28c.085 0 .085 0 .17-.084 2.814-.938 5.457-2.047 7.503-3.41.427-.257.768-.512 1.194-.768h.085c5.286-3.155 8.185-3.581 8.782-3.581h.085l1.279-1.705 13.215-18.16.085-.086.768.682Z" fill="#000"/></svg>