<svg width="360" height="360" fill="none" xmlns="http://www.w3.org/2000/svg"><path fill-rule="evenodd" clip-rule="evenodd" d="M223.991 53.84c-1.391 15.513-18.992 27.764-23.432 27.764-4.44 0-22.04-12.197-23.431-27.764-.054-.482-.054-1.017-.054-1.498 0-7.543 6.152-13.642 13.695-13.642 3.852 0 7.329 1.551 9.79 4.12 2.461-2.569 5.938-4.12 9.79-4.12 7.543 0 13.695 6.152 13.695 13.642.054.481 0 .962-.053 1.498Z" fill="#FF6680"/><path opacity=".3" d="M120.85 125.379c5.735-7.163 2.391-19.37-7.469-27.264-9.86-7.895-22.503-8.488-28.238-1.325-5.735 7.163-2.391 19.37 7.469 27.264 9.86 7.895 22.502 8.488 28.238 1.325Z" fill="#4D97FF"/><path opacity=".3" fill-rule="evenodd" clip-rule="evenodd" d="M153.523 304.31c-15.875 11.099-45.607 9.485-71.64-3.7-21.055-10.695-39.62-28.925-46.213-54.15-1.009-3.7-1.883-7.265-2.758-10.561a638.785 638.785 0 0 1-4.709-18.97c-7.937-34.239-4.91-41.302 9.014-65.922 8.476-14.866 33.433-24.486 54.016-11.839 4.507 2.758 8.813 6.592 12.647 11.637.672.874 1.345 1.749 1.951 2.691 5.179 7.601 9.417 17.557 12.242 30.405a159.812 159.812 0 0 0 4.373 15.808c.538 1.614 1.076 3.229 1.681 4.843 3.229 8.879 6.996 17.153 10.965 24.889a420.163 420.163 0 0 0 7.265 13.655c2.489 4.44 4.843 8.678 7.13 12.781 1.817 3.229 3.498 6.323 4.978 9.283a.518.518 0 0 1 .135.337c8.677 16.951 11.839 29.732-1.077 38.813ZM305.82 258.097c-2.489 4.171-5.382 8.341-8.543 12.377-17.086 21.862-42.446 40.428-64.241 47.491-2.489.808-4.91 1.48-7.332 1.951h-.067c-9.889 2.018-18.634 1.278-25.024-3.162-9.956-6.995-20.113-24.216-23.544-43.858-1.143-6.391-1.547-13.05-1.009-19.642.471-5.516 1.547-10.965 3.431-16.279 5.516-15.674 17.826-30.002 40.293-39.083 9.351-3.767 16.952-9.35 23.477-15.875 8.005-8.005 14.395-17.288 20.046-26.1 17.22-26.84 28.252-49.24 61.617-16.682 20.786 20.18 11.57 67.469-19.104 118.862Z" fill="#4D97FF"/><path d="M297.274 270.474c-17.086 21.862-42.446 40.428-64.241 47.491-2.489.807-4.91 1.48-7.332 1.951-10.426-15.001-32.154-43.59-48.634-47.02a26.909 26.909 0 0 0-2.288-.337h-.538c-.336 0-.672 0-1.009-.067-6.121-.471-12.646-3.363-18.767-7.265-1.548-1.009-3.095-2.018-4.642-3.161a132.604 132.604 0 0 1-5.785-4.507c-9.014-7.534-15.472-15.001-15.472-15.001l6.458-12.983 18.095-36.324 11.772-23.679 5.785-11.57 5.583-11.301 20.382-40.966 46.617 76.215 24.015 39.351 30.001 49.173Z" fill="#E4B681"/><path opacity=".1" d="M266.734 222.243s0 .068 0 0c-.201.269-2.018 2.96-4.91 6.66-5.987 7.467-16.481 18.902-26.436 21.324-15.136 3.632-30.204 17.893-26.033 29.934 3.027 8.61 16.346 27.647 23.678 37.737-2.489.807-4.91 1.48-7.332 1.951h-.067c-10.494-14.934-32.423-43.455-48.568-47.02-.74-.202-1.547-.269-2.287-.337h-.538c-.336 0-.673 0-1.009-.067-6.659-.471-12.983-3.296-18.566-6.996-1.682-1.076-3.229-2.22-4.776-3.43-1.883-1.548-3.7-3.095-5.314-4.642-6.929-6.525-11.234-12.714-11.234-12.714l9.081-1.547 37.065-6.188 87.246-14.665Z" fill="#000"/><path d="M277.366 192.04c.403 8.207-5.651 20.584-10.091 29.261-.201.337-.336.673-.538 1.009a107.08 107.08 0 0 1-1.547 2.96c-.605 1.211-1.749 2.422-3.363 3.633-12.983 9.821-55.429 19.911-85.767 24.283-9.148 1.279-17.153 2.086-22.938 2.22-1.144 0-2.287.202-3.633.471a33.847 33.847 0 0 0-4.977 1.48c-.135.067-.269.135-.404.135-18.902 7.197-48.298 31.212-62.223 43.051-21.055-10.696-39.62-28.925-46.213-54.151-1.009-3.699-1.883-7.265-2.758-10.561a638.018 638.018 0 0 1-4.708-18.969l42.378-36.998 2.624-2.287 2.556-2.219c6.66-5.785 13.05-11.436 18.97-16.548.74-.606 1.412-1.278 2.152-1.884 2.489-2.152 4.843-4.238 7.063-6.188a2207.74 2207.74 0 0 0 9.687-8.476c1.009-.875 1.883-1.682 2.758-2.422 2.758-2.422 4.91-4.305 6.188-5.381 3.027-2.691 6.996-5.449 11.907-8.274.874-.538 1.816-1.009 2.758-1.547 6.996-3.835 15.606-7.602 25.629-11.1 1.211-.403 2.489-.874 3.767-1.278 2.287-.74 4.708-1.48 7.197-2.152 7.131-1.951 14.867-3.7 22.939-5.853 5.381-1.479 10.964-3.094 16.682-5.18.404-.134.807-.335 1.278-.47 34.912-13.117 36.728 13.79 36.325 23.006v.067c-.067 1.816-.202 2.892-.202 2.892s3.094 1.682 6.054 5.113c4.171 4.776 8.207 12.982 3.364 24.485h.067c.202.067 1.211.471 2.556 1.278h.067c.202.068.337.202.538.337 4.776 2.959 12.647 10.292 7.198 24.687l.067.067c.135.135.471.404.942.807.067 0 .067.068.135.135 1.681 1.883 5.314 5.987 5.516 10.561Z" fill="#B68554"/><path opacity=".1" d="M176.329 146.567c-.471 8.947-3.498 20.382-13.05 34.845-3.161 4.776-6.592 8.677-10.157 11.772-9.149 7.937-19.239 10.897-29.06 11.435-18.162 1.009-34.912-6.457-41.37-5.852-7.13.673-32.355 21.795-49.912 37.132a638.785 638.785 0 0 1-4.71-18.97l42.38-36.997 2.623-2.287 2.556-2.22 19.71-14.328 2.354-1.682 8.072-5.852 9.35-6.794 3.027-2.153 18.028-13.117 2.556-1.883 20.113-14.598 5.18-1.479 25.427-7.265c.875 3.43-6.188 7.332-13.924 13.386-4.911 3.767 1.614 11.839.807 26.907Z" fill="#000"/><path d="M196.642 104.256s-6.458-7.938-18.297-7.938c-6.727 0-22.198 4.171-22.198 4.171s-7.265-.875-14.934 2.018c-5.852 2.219-8.744 6.726-8.744 6.726s-7.804-2.152-15.001 3.296c-7.265 5.449-6.794 11.705-6.794 11.705s-10.696 1.009-16.145 8.072c-5.448 7.063-2.825 11.436-2.825 11.436s-32.76 11.973-9.888 41.975c22.669 29.732 27.109 1.816 23.88-5.718 0 0 8.745 23.813 20.718 21.055 10.427-2.422 4.507-26.033 4.507-26.033s13.79 18.768 21.257 10.629c7.332-7.938-.336-20.921-.336-20.921s2.825 5.045 6.861 6.391c4.776 1.681 10.965-.807 11.839-8.745 1.547-12.915-6.592-48.837-6.592-48.837l32.692-9.282Z" fill="#E4B681"/><path opacity=".1" d="m250.726 124.57-25.83 9.418s-.539-7.063 4.036-8.409c4.641-1.345 21.996-3.969 21.996-3.969l-.202 2.96ZM270.502 180.537l-7.736 20.651s3.834.068 4.843-2.69c1.009-2.691 4.036-16.952 4.036-16.952l-1.143-1.009ZM260.142 154.168l-14.53 13.588s3.767 3.296 6.727.538c2.892-2.757 10.493-12.78 10.493-12.78l-2.69-1.346ZM91.705 143.674l13.991 36.325s-1.278-1.345-2.489-2.556c-3.43-3.364-12.444-29.665-12.915-33.163l1.413-.606ZM130.92 174.954s-17.759-41.302-20.248-50.854l-3.296.605c.067 0 16.884 50.585 23.544 50.249ZM151.841 164.662c-4.373-7.937-19.306-55.496-19.306-55.496l-3.431-.269s14.463 50.653 22.737 55.765c0 0 1.614 3.565 1.21 2.422-.471-1.144-1.21-2.422-1.21-2.422ZM164.554 110.848c5.516-.605 11.771-.874 11.771-.874l-12.444 3.497s-7.669.404-10.427-.538c-1.614-.538-4.574-1.009-5.516-4.305.068 0 4.709 3.498 16.616 2.22Z" fill="#000"/></svg>