<svg width="360" height="360" fill="none" xmlns="http://www.w3.org/2000/svg"><path opacity=".5" d="M211.956 314.769c0 6.221 8.087 4.432 18.04 4.432s18.04 1.789 18.04-4.432-9.331-10.808-19.284-10.808-16.796 4.587-16.796 10.808ZM131.302 90.422c15.648-4.477 26.322-15.136 23.841-23.806-2.481-8.67-17.178-12.07-32.826-7.592-15.647 4.478-26.321 15.136-23.84 23.807 2.481 8.67 17.177 12.069 32.825 7.591Z" fill="#FFAB19"/><path opacity=".5" d="M262.112 294.785c84.368.778 59.33-129.857 12.753-179.001-71.928-75.97-107.93 4.121-179.002-12.83-68.194-16.252-72.238 141.91-12.752 179.001 58.397 36.391 73.404 11.819 179.001 12.83Z" fill="#FFAB19"/><path d="M50.842 122.938a2.59 2.59 0 0 0 1.788-1.789l.544-1.944c.234-.933 1.556-.933 1.789 0l.544 1.944a2.59 2.59 0 0 0 1.788 1.789l1.944.544c.934.233.934 1.555 0 1.788l-1.944.545a2.588 2.588 0 0 0-1.788 1.788l-.544 1.944c-.233.933-1.555.933-1.789 0l-.544-1.944a2.588 2.588 0 0 0-1.788-1.788l-1.944-.545c-.934-.233-.934-1.555 0-1.788l1.944-.544ZM77.435 170.448c1.166-.311 2.022-1.244 2.333-2.332l.7-2.644c.31-1.244 2.1-1.244 2.41 0l.7 2.644c.311 1.166 1.244 2.021 2.333 2.332l2.644.7c1.244.311 1.244 2.1 0 2.411l-2.644.7c-1.167.311-2.022 1.244-2.333 2.332l-.7 2.644c-.31 1.244-2.1 1.244-2.41 0l-.7-2.644c-.311-1.166-1.244-2.021-2.333-2.332l-2.644-.7c-1.244-.311-1.244-2.1 0-2.411l2.644-.7ZM283.575 223.247c.933-.234 1.71-1.011 2.021-2.022l.622-2.177c.311-1.011 1.789-1.011 2.022 0l.622 2.177c.233.933 1.011 1.711 2.022 2.022l2.177.622c1.011.311 1.011 1.788 0 2.021l-2.177.623c-.933.233-1.711 1.01-2.022 2.021l-.622 2.177c-.311 1.011-1.788 1.011-2.022 0l-.622-2.177c-.233-.933-1.011-1.71-2.021-2.021l-2.178-.623c-1.011-.311-1.011-1.788 0-2.021l2.178-.622ZM64.372 216.482a1.688 1.688 0 0 0 1.244-1.245l.389-1.399c.156-.7 1.166-.7 1.322 0l.389 1.399a1.688 1.688 0 0 0 1.244 1.245l1.4.388c.7.156.7 1.167 0 1.322l-1.4.389a1.688 1.688 0 0 0-1.244 1.244l-.39 1.4c-.155.7-1.165.7-1.321 0l-.389-1.4a1.688 1.688 0 0 0-1.244-1.244l-1.4-.389c-.7-.155-.7-1.166 0-1.322l1.4-.388ZM302.624 272.468a1.688 1.688 0 0 0 1.244-1.244l.389-1.4c.155-.699 1.166-.699 1.322 0l.388 1.4a1.687 1.687 0 0 0 1.245 1.244l1.399.389c.7.155.7 1.166 0 1.322l-1.399.389a1.687 1.687 0 0 0-1.245 1.244l-.388 1.399c-.156.7-1.167.7-1.322 0l-.389-1.399a1.688 1.688 0 0 0-1.244-1.244l-1.4-.389c-.7-.156-.7-1.167 0-1.322l1.4-.389Z" fill="#FFAB19"/><path d="M229.142 210.261V88.646c0-26.438-21.384-47.822-47.744-47.822s-47.744 21.384-47.744 47.745v121.614l95.488.078Zm-73.949 0V88.569c0-14.464 11.742-26.205 26.205-26.205 14.463 0 26.205 11.741 26.205 26.205V210.26" fill="#CCC"/><path d="M181.396 282.188c43.246 0 78.304-35.057 78.304-78.303 0-43.246-35.058-78.303-78.304-78.303-43.245 0-78.303 35.057-78.303 78.303 0 43.246 35.058 78.303 78.303 78.303Z" fill="#4280D7"/><path d="M181.396 275.656c39.638 0 71.771-32.133 71.771-71.771s-32.133-71.772-71.771-71.772c-39.639 0-71.772 32.134-71.772 71.772 0 39.638 32.133 71.771 71.772 71.771Z" fill="#4D97FF"/><path d="M181.397 235.299c17.35 0 31.415-14.065 31.415-31.414 0-17.35-14.065-31.415-31.415-31.415s-31.415 14.065-31.415 31.415c0 17.349 14.065 31.414 31.415 31.414ZM181.395 172.47v-9.02M181.395 235.299v8.942M165.69 176.669l-4.51-7.776M197.104 231.023l4.432 7.776M197.104 176.668l4.432-7.776M165.69 231.022l-4.51 7.775M212.731 203.885h9.02M149.979 203.885h-9.02M208.532 219.592l7.776 4.432M154.18 188.177l-7.776-4.51M154.18 219.592l-7.776 4.432M208.532 188.177l7.776-4.51M203.558 226.046l6.376 6.376M159.156 181.646l-6.376-6.299M159.156 226.046l-6.377 6.376M203.558 181.645l6.376-6.298M150.992 195.72l-8.632-2.333M211.721 211.972l8.631 2.333M211.721 195.72l8.631-2.333M150.992 211.972l-8.631 2.332M173.229 173.558l-2.333-8.709M189.478 234.211l2.333 8.631M189.478 173.559l2.333-8.709M173.229 234.21l-2.333 8.632" stroke="#4280D7" stroke-width="2" stroke-miterlimit="10"/><path d="M181.394 244.32c22.332 0 40.435-18.104 40.435-40.435 0-22.332-18.103-40.435-40.435-40.435-22.331 0-40.434 18.103-40.434 40.435 0 22.331 18.103 40.435 40.434 40.435Z" fill="#3373CC"/><path d="M181.63 235.299c17.221 0 31.182-13.96 31.182-31.181s-13.961-31.181-31.182-31.181c-17.221 0-31.181 13.96-31.181 31.181s13.96 31.181 31.181 31.181Z" fill="#4D97FF"/><path d="M151.768 131.414s-.933-35.225.078-47.2c.778-9.72 9.487-25.971 28.849-25.971 21.539 0 28.382 15.551 29.237 22.938.933 7.465.622 50 .622 50l-3.032-1.167V87.091s-.934-23.794-26.205-24.727c0 0-22.861-.778-26.05 23.56l-.155 44.09-3.344 1.4Z" fill="#B3B3B3"/><path d="M181.395 136.468v9.378M181.395 261.921v9.304M113.98 203.883h9.378M239.433 203.883h9.304M133.693 156.183l6.646 6.646M222.378 244.864l6.646 6.646M229.024 156.183l-6.646 6.646M140.339 244.864l-6.646 6.646M123.211 170.434l5.243 3.028M234.263 234.231l5.316 3.101M239.579 170.434l-5.316 3.028M128.454 234.231l-5.243 3.101M214.918 261.995l-3.028-5.317M150.828 151.015l-3.028-5.317M147.8 261.995l3.028-5.317M211.89 151.015l3.028-5.317M198.6 268.714l-1.55-5.907M165.668 144.886l-1.551-5.907M164.117 268.714l1.551-5.907M197.05 144.886l1.55-5.907M246.153 221.309l-5.907-1.55M122.472 187.934l-5.907-1.551M116.565 221.309l5.907-1.55M240.246 187.934l5.907-1.551" stroke="#fff" stroke-opacity=".8" stroke-width="4" stroke-miterlimit="10" stroke-linecap="round"/></svg>