<svg width="67" height="67" viewBox="0 0 67 67" fill="none" xmlns="http://www.w3.org/2000/svg">
<g filter="url(#filter0_d_1154_13046)">
<path fill-rule="evenodd" clip-rule="evenodd" d="M10.9967 45.1305C5.99892 36.9346 5.59074 25.9968 9.99448 17.3259C14.5575 8.00641 22.2367 3.87569 25.3229 2.53264C27.178 1.67111 29.1327 0.999586 31.2366 0.504948L33.3008 0.0594462C34.8174 -0.25175 36.3273 0.68839 36.6558 2.18868C36.9877 3.69225 36.022 5.17289 34.4988 5.50047L32.491 5.93286C30.8218 6.32595 29.2223 6.87628 27.6625 7.6035C25.6349 8.4814 18.9281 11.8783 15.0586 19.786C12.1217 25.5612 11.2456 34.7431 15.8683 42.3199C20.0564 49.6183 28.6315 54.0929 36.7654 53.3395C44.4578 52.7859 51.5164 47.6659 53.992 40.8851C56.5042 34.5072 54.835 27.9688 52.0772 24.2869C48.7553 19.75 44.6204 18.3545 42.9976 17.9647C42.7554 17.8926 37.074 16.186 32.0563 18.6985C29.8959 19.7336 27.1017 22.0627 25.605 25.5612C23.9889 29.1743 24.407 33.8193 26.5973 36.9051C28.8008 40.2136 32.9556 42.0873 36.5297 41.4518C40.0872 40.8917 42.4932 38.2449 43.064 35.9191C43.7343 33.4197 42.7056 31.3068 41.9025 30.5468C40.5386 29.2005 39.3605 29.1776 39.3107 29.1743C38.7532 29.1579 38.4777 29.2005 38.3118 29.2267C37.6746 29.4593 36.772 29.9703 36.5065 30.5075C36.46 30.596 36.3406 30.8384 36.5696 31.4444C37.1171 32.8825 36.3771 34.4908 34.9202 35.0313C33.47 35.5751 31.8373 34.8446 31.2864 33.4033C30.3804 31.0186 30.8815 29.1514 31.4623 28.0049C32.9789 25.0207 36.4999 23.9397 36.8981 23.825C37.0806 23.7693 37.2731 23.7366 37.4623 23.7202C37.8505 23.6612 38.5342 23.5695 39.46 23.6055C41.5806 23.6317 43.9965 24.7389 45.8483 26.5701C48.0352 28.6338 49.7476 32.7809 48.533 37.2883C47.3483 42.1135 42.7952 46.1034 37.4822 46.9387C31.7676 47.9575 25.3329 45.1403 21.9347 40.0334C18.6593 35.431 18.032 28.696 20.4281 23.3533C23.0564 17.2014 28.0773 14.4171 29.5508 13.7095C36.6359 10.1717 44.2089 12.5073 44.5275 12.6056C46.5651 13.0871 52.2299 14.9838 56.6336 21.0013C60.0186 25.5284 62.763 33.9831 59.2752 42.8342C56.0894 51.5575 47.0197 58.1843 37.2399 58.8886C36.4733 58.9607 35.6968 59 34.9236 59C25.4325 59 15.8186 53.5295 10.9967 45.1305Z" fill="black"/>
<path d="M4 0V-1H3V0H4ZM63 0H64V-1H63V0ZM63 59V60H64V59H63ZM4 59H3V60H4V59ZM4 1H63V-1H4V1ZM62 0V59H64V0H62ZM63 58H4V60H63V58ZM5 59V0H3V59H5Z" fill="black"/>
</g>
<defs>
<filter id="filter0_d_1154_13046" x="0" y="0" width="67" height="67" filterUnits="userSpaceOnUse" color-interpolation-filters="sRGB">
<feFlood flood-opacity="0" result="BackgroundImageFix"/>
<feColorMatrix in="SourceAlpha" type="matrix" values="0 0 0 0 0 0 0 0 0 0 0 0 0 0 0 0 0 0 127 0" result="hardAlpha"/>
<feOffset dy="4"/>
<feGaussianBlur stdDeviation="2"/>
<feComposite in2="hardAlpha" operator="out"/>
<feColorMatrix type="matrix" values="0 0 0 0 0 0 0 0 0 0 0 0 0 0 0 0 0 0 0.25 0"/>
<feBlend mode="normal" in2="BackgroundImageFix" result="effect1_dropShadow_1154_13046"/>
<feBlend mode="normal" in="SourceGraphic" in2="effect1_dropShadow_1154_13046" result="shape"/>
</filter>
</defs>
</svg>
