<?xml version="1.0" encoding="UTF-8"?>
<svg width="1020px" height="500px" viewBox="0 0 1020 500" version="1.1" xmlns="http://www.w3.org/2000/svg" xmlns:xlink="http://www.w3.org/1999/xlink">
    <title>CPS Video Splash</title>
    <g id="CPS-Video-Splash" stroke="none" stroke-width="1" fill="none" fill-rule="evenodd" opacity="0.5">
        <path d="M189.677106,48.736809 C409.27062,-39.241082 721.790908,11.5395658 857.893065,48.736809 C1066.07982,105.635051 1051.20364,233.393881 937.08313,210.818772 C905.604851,204.591797 882.181308,244.273438 909.681303,272.776252 C949.726815,314.282072 984.355163,342.884792 976.691905,392.780366 C954.578838,536.758827 401.144054,520.645823 189.677106,433.095425 C-37.5164562,339.033979 -59.0503945,135.133524 114.233615,172.943359 C143.924915,179.421875 154.598037,141.642021 140.724482,121.722656 C126.242474,100.929688 139.619628,68.7918246 189.677106,48.736809 Z M945.486357,243.740234 C975.445342,216.269531 1009.4512,267.462891 984.578154,289 C959.705107,310.537109 915.527373,271.210938 945.486357,243.740234 Z M53.4476056,22.9108019 C83.40659,-4.55990118 117.412449,46.6334582 92.5394025,68.1705676 C81.8826781,77.3980273 53.0455462,94.9215554 42.6504196,87.5234375 C28.7830748,77.6541732 36.3243885,38.6118287 53.4476056,22.9108019 Z" id="splash" fill="#9966FF" transform="translate(509.572280, 250.000000) scale(1, -1) rotate(-180.000000) translate(-509.572280, -250.000000) "></path>
    </g>
</svg>