<?xml version="1.0" encoding="UTF-8"?>
<svg width="20px" height="20px" viewBox="0 0 20 20" version="1.1" xmlns="http://www.w3.org/2000/svg" xmlns:xlink="http://www.w3.org/1999/xlink">
    <title>News Icon</title>
    <g id="News-Icon" stroke="none" stroke-width="1" fill="none" fill-rule="evenodd">
        <path d="M2,19 C0.8954305,19 1.3527075e-16,18.1045695 0,17 L0,1.70710678 C3.57012085e-17,1.54534632 0.131132761,1.41421356 0.292893219,1.41421356 C0.37057333,1.41421356 0.445071866,1.44507187 0.5,1.5 C0.776142375,1.77614237 1.22385763,1.77614237 1.5,1.5 C1.77614237,1.22385763 2.22385763,1.22385763 2.5,1.5 C2.77614237,1.77614237 3.22385763,1.77614237 3.5,1.5 C3.77614237,1.22385763 4.22385763,1.22385763 4.5,1.5 C4.77614237,1.77614237 5.22385763,1.77614237 5.5,1.5 C5.77614237,1.22385763 6.22385763,1.22385763 6.5,1.5 C6.77614237,1.77614237 7.22385763,1.77614237 7.5,1.5 C7.77614237,1.22385763 8.22385763,1.22385763 8.5,1.5 C8.77614237,1.77614237 9.22385763,1.77614237 9.5,1.5 C9.77614237,1.22385763 10.2238576,1.22385763 10.5,1.5 C10.7761424,1.77614237 11.2238576,1.77614237 11.5,1.5 C11.7761424,1.22385763 12.2238576,1.22385763 12.5,1.5 C12.7761424,1.77614237 13.2238576,1.77614237 13.5,1.5 C13.7761424,1.22385763 14.2238576,1.22385763 14.5,1.5 C14.7761424,1.77614237 15.2238576,1.77614237 15.5,1.5 C15.6143819,1.38561808 15.7998316,1.38561808 15.9142136,1.5 C15.9691417,1.55492813 16,1.62942667 16,1.70710678 L16,6 L19,6 C19.5522847,6 20,6.44771525 20,7 L20,17 C20,18.1045695 19.1045695,19 18,19 L2,19 Z" id="Combined-Shape" fill="#FFFFFF"></path>
        <path d="M16,6 L19,6 C19.5522847,6 20,6.44771525 20,7 L20,17 C20,18.1045695 19.1045695,19 18,19 C16.8954305,19 16,18.1045695 16,17 L16,6 L16,6 Z" id="Rectangle-Copy" fill="#4D97FF" opacity="0.5"></path>
        <path d="M0.5,1.5 C0.776142375,1.77614237 1.22385763,1.77614237 1.5,1.5 C1.77614237,1.22385763 2.22385763,1.22385763 2.5,1.5 C2.77614237,1.77614237 3.22385763,1.77614237 3.5,1.5 C3.77614237,1.22385763 4.22385763,1.22385763 4.5,1.5 C4.77614237,1.77614237 5.22385763,1.77614237 5.5,1.5 C5.77614237,1.22385763 6.22385763,1.22385763 6.5,1.5 C6.77614237,1.77614237 7.22385763,1.77614237 7.5,1.5 C7.77614237,1.22385763 8.22385763,1.22385763 8.5,1.5 C8.77614237,1.77614237 9.22385763,1.77614237 9.5,1.5 C9.77614237,1.22385763 10.2238576,1.22385763 10.5,1.5 C10.7761424,1.77614237 11.2238576,1.77614237 11.5,1.5 C11.7761424,1.22385763 12.2238576,1.22385763 12.5,1.5 C12.7761424,1.77614237 13.2238576,1.77614237 13.5,1.5 C13.7761424,1.22385763 14.2238576,1.22385763 14.5,1.5 C14.7761424,1.77614237 15.2238576,1.77614237 15.5,1.5 C15.6143819,1.38561808 15.7998316,1.38561808 15.9142136,1.5 C15.9691417,1.55492813 16,1.62942667 16,1.70710678 L16,17 L16,17 C16,18.1045695 16.8954305,19 18,19 L18,19 L18,19 L2,19 C0.8954305,19 1.3527075e-16,18.1045695 0,17 L0,1.70710678 C3.57012085e-17,1.54534632 0.131132761,1.41421356 0.292893219,1.41421356 C0.37057333,1.41421356 0.445071866,1.44507187 0.5,1.5 Z" id="Rectangle" fill-opacity="0.25" fill="#4D97FF"></path>
        <path d="M16,6 L17,6 L17,17 L17,18 C17,18.5522847 17.4477153,19 18,19 L18,19 L18,19 C16.8954305,19 16,18.1045695 16,17 L16,6 L16,6 Z" id="Rectangle" fill="#4D97FF" opacity="0.5"></path>
        <rect id="Rectangle" fill="#4D97FF" x="2" y="4" width="12" height="6" rx="1"></rect>
        <rect id="Rectangle-Copy-5" fill="#4D97FF" x="2" y="11" width="6" height="6" rx="1"></rect>
        <rect id="Rectangle-Copy-2" fill="#4D97FF" x="9" y="11.5" width="5" height="1" rx="0.5"></rect>
        <rect id="Rectangle-Copy-3" fill="#4D97FF" x="9" y="13.5" width="5" height="1" rx="0.5"></rect>
        <rect id="Rectangle-Copy-4" fill="#4D97FF" x="9" y="15.5" width="5" height="1" rx="0.5"></rect>
    </g>
</svg>