<?xml version="1.0" encoding="UTF-8"?>
<svg width="140px" height="140px" viewBox="0 0 140 140" version="1.1" xmlns="http://www.w3.org/2000/svg" xmlns:xlink="http://www.w3.org/1999/xlink">
    <title>Pencils</title>
    <g id="Pencils" stroke="none" stroke-width="1" fill="none" fill-rule="evenodd">
        <g id="Illustration" transform="translate(2.000000, 4.000000)">
            <g id="Group-21" transform="translate(48.000000, 39.000000) rotate(-16.000000) translate(-48.000000, -39.000000) translate(7.000000, 11.000000)">
                <rect id="Rectangle" fill="#FF661A" x="0" y="0" width="81.6" height="55.2" rx="3.2"></rect>
                <rect id="Rectangle" fill="#FFFFFF" x="2.4" y="18.4" width="76.8" height="34.4" rx="1.6"></rect>
                <polyline id="Path-34-Copy" stroke="#575E75" stroke-width="3.2" stroke-linecap="round" stroke-linejoin="round" points="15.1908203 40.7694413 21.5393912 29.3773203 24.7558074 41.3359654 29.6363865 29.3773203 32.1484299 39.6024872 36.3483347 28.0931211 38.4891013 39.6024872 41.616648 29.3773203 46.2418097 41.3359654 49.2653462 32.3876037 52.7510039 43.3750363 55.6514398 32.3876037 58.7526548 41.3359654 63.2474746 32.3876037 66.3908203 39.6024872"></polyline>
                <text id="Hello" font-family="Helvetica-Bold, Helvetica" font-size="11.2" font-weight="bold" fill="#FFFFFF">
                    <tspan x="26.7089844" y="13.4">Hello</tspan>
                </text>
            </g>
            <g id="Pencil" transform="translate(68.000000, 58.500000) rotate(35.000000) translate(-68.000000, -58.500000) translate(59.000000, -1.000000)">
                <rect id="Rectangle-Copy-2" fill="#9B9EA8" x="3" y="0" width="12" height="18" rx="6"></rect>
                <rect id="Rectangle-Copy" fill="#575E75" x="3" y="6" width="12" height="22" rx="6"></rect>
                <path d="M8.5,17 L9.5,17 C12.5375661,17 15,19.4624339 15,22.5 L15,102 L15,102 L3,102 L3,22.5 C3,19.4624339 5.46243388,17 8.5,17 Z" id="Rectangle" fill="#4D97FF"></path>
                <path d="M9,96 C12.3444763,96 15.0557101,98.7112338 15.0557101,102.05571 C15.0557101,102.837805 14.904212,103.612494 14.6095873,104.336972 L9.92633022,115.853028 C9.71827763,116.364626 9.13488553,116.610698 8.62328747,116.402646 C8.37346318,116.301049 8.17526632,116.102852 8.07366978,115.853028 L3.39041274,104.336972 C2.13050661,101.238882 3.62064865,97.706029 6.71873814,96.4461228 C7.44321588,96.1514981 8.21790554,96 9,96 Z" id="Rectangle-Copy-3" fill="#F6DDC3"></path>
                <path d="M9,108 C10.5112275,108 11.7363195,109.225092 11.7363195,110.736319 C11.7363195,111.089715 11.6678639,111.439764 11.5347354,111.767125 L9.92633022,115.722168 C9.71827763,116.233767 9.13488553,116.479839 8.62328747,116.271786 C8.37346318,116.17019 8.17526632,115.971993 8.07366978,115.722168 L6.46526461,111.767125 C5.89596627,110.36723 6.56929848,108.770882 7.96919418,108.201584 C8.29655505,108.068456 8.64660457,108 9,108 Z" id="Rectangle-Copy-3" fill="#3D73CC"></path>
            </g>
            <g id="Pencil-Copy" transform="translate(95.000000, 82.500000) rotate(-137.000000) translate(-95.000000, -82.500000) translate(86.000000, 23.000000)">
                <rect id="Rectangle-Copy-2" fill="#9B9EA8" x="3" y="0" width="12" height="18" rx="6"></rect>
                <rect id="Rectangle-Copy" fill="#575E75" x="3" y="6" width="12" height="22" rx="6"></rect>
                <path d="M8.5,17 L9.5,17 C12.5375661,17 15,19.4624339 15,22.5 L15,102 L15,102 L3,102 L3,22.5 C3,19.4624339 5.46243388,17 8.5,17 Z" id="Rectangle" fill="#0EBD8C"></path>
                <path d="M9,96 C12.3444763,96 15.0557101,98.7112338 15.0557101,102.05571 C15.0557101,102.837805 14.904212,103.612494 14.6095873,104.336972 L9.92633022,115.853028 C9.71827763,116.364626 9.13488553,116.610698 8.62328747,116.402646 C8.37346318,116.301049 8.17526632,116.102852 8.07366978,115.853028 L3.39041274,104.336972 C2.13050661,101.238882 3.62064865,97.706029 6.71873814,96.4461228 C7.44321588,96.1514981 8.21790554,96 9,96 Z" id="Rectangle-Copy-3" fill="#F6DDC3"></path>
                <path d="M9,108 C10.5112275,108 11.7363195,109.225092 11.7363195,110.736319 C11.7363195,111.089715 11.6678639,111.439764 11.5347354,111.767125 L9.92633022,115.722168 C9.71827763,116.233767 9.13488553,116.479839 8.62328747,116.271786 C8.37346318,116.17019 8.17526632,115.971993 8.07366978,115.722168 L6.46526461,111.767125 C5.89596627,110.36723 6.56929848,108.770882 7.96919418,108.201584 C8.29655505,108.068456 8.64660457,108 9,108 Z" id="Rectangle-Copy-3" fill="#0A8E69"></path>
            </g>
        </g>
    </g>
</svg>