<?xml version="1.0" encoding="UTF-8"?>
<svg width="140px" height="140px" viewBox="0 0 140 140" version="1.1" xmlns="http://www.w3.org/2000/svg" xmlns:xlink="http://www.w3.org/1999/xlink">
    <title>Pizza</title>
    <g id="Pizza" stroke="none" stroke-width="1" fill="none" fill-rule="evenodd">
        <g transform="translate(13.000000, 8.000000)">
            <path d="M11.5811637,19.1832613 C22.0477729,-1.06274655 47.7270121,-4.01021156 72.4511911,4.42114374 C97.17537,12.852499 129.392331,38.7654681 105.749962,51.6996751 C83.0368491,60.7859349 52.6829903,83.4722222 14.6883854,119.758537 L14.6883927,119.758545 C13.490189,120.902876 11.5911894,120.859203 10.4468586,119.660999 C9.98679139,119.179273 9.70013616,118.558128 9.63208424,117.895489 C4.20912059,65.0906648 4.85881374,32.186589 11.5811637,19.1832613 Z" id="Path-34" fill="#F6DDC3"></path>
            <path d="M9.44094556,21.403993 C21.7247463,0.247990958 47.6554696,8.50366521 71.7723293,16.6486267 C84.0012253,20.7786788 93.9141738,28.1555664 101.77263,38.5765842 C102.485461,39.521862 103.221,40.8748677 103.84943,40.8748677 C104.477859,40.8748677 105.241352,37.752337 108.370989,36.5458326 C111.500625,35.3393281 112.801201,36.6889581 112.91816,38.2087468 C113.645829,47.6642412 109.403473,48.0274807 104.865504,51.8529868 C71.8324517,65.0836243 41.2619529,87.6996785 13.1540073,119.701149 L13.1540147,119.701156 C12.060617,120.946012 10.1650881,121.068792 8.92023248,119.975395 C8.46450689,119.575116 8.14081909,119.046098 7.99186321,118.458117 C-3.1268715,74.5686192 -2.64384405,42.2172444 9.44094556,21.403993 Z" id="Path-34" fill="#ECC293"></path>
            <path d="M5.76872448,29.5253694 C19.021402,3.80003047 46.7363142,11.8088075 70.1038257,19.7206866 C85.6821667,24.9952727 96.9808915,34.397583 104,47.9276176 C71.7952284,60.6294468 41.6304647,84.3922726 13.5057088,119.216095 L13.5057148,119.2161 C12.4646979,120.505078 10.5758639,120.70609 9.28688606,119.665073 C8.76982508,119.247479 8.40607499,118.670004 8.25273813,118.023301 C-1.84897968,75.4190062 -2.67698423,45.9196956 5.76872448,29.5253694 Z" id="Path-34" fill="#FFBF00"></path>
            <path d="M21.2856759,24.0187065 C16.6767761,23.6908073 10,27.6629896 10,36.77489 C10,45.8867903 22.4380162,43.841651 27.3147445,38.0067435 C32.1914727,32.171836 25.3341484,24.3067341 21.2856759,24.0187065 Z" id="Path-35" fill="#FF8000"></path>
            <path d="M29.5918467,58.2284536 C19.9383884,60.4006109 17.5776303,68.1847116 19.7424118,74.66237 C21.9071933,81.1400284 32.6379308,81.9139291 37.6940379,75.9264369 C42.750145,69.9389447 39.245305,56.0562963 29.5918467,58.2284536 Z" id="Path-35-Copy-2" fill="#FF8000"></path>
            <path d="M1,80.2267405 C1.53355831,83.8098178 1.86085938,90.2269074 4.39539817,101 C6.24776409,100.352271 8.57015977,99.1234764 9.89642417,97.5625168 C14.9104174,91.6612495 10.5730517,78.0858641 1,80.2267405 Z" id="Path-35-Copy-3" fill="#FF8000"></path>
            <path d="M60.9485996,27.441105 C52.4478334,30.567613 44.5322093,37.6763698 47.7220101,46.6186037 C50.9118109,55.5608377 67.106795,54.6820896 73.9102833,46.6186037 C80.7137715,38.5551179 69.4493659,24.314597 60.9485996,27.441105 Z" id="Path-35-Copy" fill="#FF8000"></path>
        </g>
    </g>
</svg>