<?xml version="1.0" encoding="UTF-8"?>
<svg width="24px" height="24px" viewBox="0 0 24 24" version="1.1" xmlns="http://www.w3.org/2000/svg" xmlns:xlink="http://www.w3.org/1999/xlink">
    <title>Video Icon Purple</title>
    <g id="Video-Icon-Purple" stroke="none" stroke-width="1" fill="none" fill-rule="evenodd">
        <path d="M17.3333333,3.64285714 L19.7108476,3.92943253 C21.4651024,4.14088288 22.8727915,5.47829355 23.1737287,7.21943052 L23.3333333,8.14285714 C23.7745072,10.6953629 23.7745072,13.3046371 23.3333333,15.8571429 L23.1737287,16.7805695 C22.8727915,18.5217065 21.4651024,19.8591171 19.7108476,20.0705675 L17.3333333,20.3571429 C13.7905993,20.7841688 10.2094007,20.7841688 6.66666667,20.3571429 L4.28915237,20.0705675 C2.53489756,19.8591171 1.12720852,18.5217065 0.826271269,16.7805695 L0.666666667,15.8571429 C0.225492827,13.3046371 0.225492827,10.6953629 0.666666667,8.14285714 L0.826271269,7.21943052 C1.12720852,5.47829355 2.53489756,4.14088288 4.28915237,3.92943253 L6.66666667,3.64285714 C10.2094007,3.21583117 13.7905993,3.21583117 17.3333333,3.64285714 Z M10.885255,8.6 C10.1201998,8.6 9.5,9.21745879 9.5,9.9791328 L9.5,9.9791328 L9.5,14.0206859 C9.5,14.280354 9.57363424,14.5347467 9.71243054,14.7545943 C10.1195563,15.3994647 10.9746883,15.5936534 11.6224213,15.188327 L11.6224213,15.188327 L14.8517293,13.1675505 C15.0278111,13.0573652 15.176713,12.9091214 15.2873874,12.7338178 C15.6945131,12.0889474 15.4994623,11.2375947 14.8517293,10.8322683 L14.8517293,10.8322683 L11.6224213,8.8114917 C11.4015978,8.67330881 11.1460758,8.6 10.885255,8.6 Z" id="Combined-Shape" fill="#9966FF"></path>
    </g>
</svg>