<svg width="446" height="575" viewBox="0 0 446 575" fill="none" xmlns="http://www.w3.org/2000/svg">
<path d="M446 290.103C446 446.214 375.196 595.105 223 572.767C70.8041 550.428 0 446.214 0 290.103C0 133.992 95.2878 52.9744 223 7.43883C350.712 -38.0968 446 133.992 446 290.103Z" fill="#9966FF"/>
<path d="M160.46 380.903V375.663H164.18C165.26 375.663 166.047 375.89 166.54 376.343C167.047 376.783 167.3 377.43 167.3 378.283C167.3 379.136 167.047 379.79 166.54 380.243C166.047 380.696 165.26 380.916 164.18 380.903H160.46ZM158.56 374.063V388.343H160.46V382.503H164.82C166.26 382.516 167.347 382.15 168.08 381.403C168.827 380.656 169.2 379.616 169.2 378.283C169.2 376.95 168.827 375.916 168.08 375.183C167.347 374.436 166.26 374.063 164.82 374.063H158.56ZM171.349 374.063V388.343H173.049V374.063H171.349ZM184.842 388.303C184.549 388.476 184.142 388.563 183.622 388.563C183.182 388.563 182.829 388.443 182.562 388.203C182.309 387.95 182.182 387.543 182.182 386.983C181.716 387.543 181.169 387.95 180.542 388.203C179.929 388.443 179.262 388.563 178.542 388.563C178.076 388.563 177.629 388.51 177.202 388.403C176.789 388.296 176.429 388.13 176.122 387.903C175.816 387.676 175.569 387.383 175.382 387.023C175.209 386.65 175.122 386.203 175.122 385.683C175.122 385.096 175.222 384.616 175.422 384.243C175.622 383.87 175.882 383.57 176.202 383.343C176.536 383.103 176.909 382.923 177.322 382.803C177.749 382.683 178.182 382.583 178.622 382.503C179.089 382.41 179.529 382.343 179.942 382.303C180.369 382.25 180.742 382.183 181.062 382.103C181.382 382.01 181.636 381.883 181.822 381.723C182.009 381.55 182.102 381.303 182.102 380.983C182.102 380.61 182.029 380.31 181.882 380.083C181.749 379.856 181.569 379.683 181.342 379.563C181.129 379.443 180.882 379.363 180.602 379.323C180.336 379.283 180.069 379.263 179.802 379.263C179.082 379.263 178.482 379.403 178.002 379.683C177.522 379.95 177.262 380.463 177.222 381.223H175.522C175.549 380.583 175.682 380.043 175.922 379.603C176.162 379.163 176.482 378.81 176.882 378.543C177.282 378.263 177.736 378.063 178.242 377.943C178.762 377.823 179.316 377.763 179.902 377.763C180.369 377.763 180.829 377.796 181.282 377.863C181.749 377.93 182.169 378.07 182.542 378.283C182.916 378.483 183.216 378.77 183.442 379.143C183.669 379.516 183.782 380.003 183.782 380.603V385.923C183.782 386.323 183.802 386.616 183.842 386.803C183.896 386.99 184.056 387.083 184.322 387.083C184.469 387.083 184.642 387.05 184.842 386.983V388.303ZM182.082 383.003C181.869 383.163 181.589 383.283 181.242 383.363C180.896 383.43 180.529 383.49 180.142 383.543C179.769 383.583 179.389 383.636 179.002 383.703C178.616 383.756 178.269 383.85 177.962 383.983C177.656 384.116 177.402 384.31 177.202 384.563C177.016 384.803 176.922 385.136 176.922 385.563C176.922 385.843 176.976 386.083 177.082 386.283C177.202 386.47 177.349 386.623 177.522 386.743C177.709 386.863 177.922 386.95 178.162 387.003C178.402 387.056 178.656 387.083 178.922 387.083C179.482 387.083 179.962 387.01 180.362 386.863C180.762 386.703 181.089 386.51 181.342 386.283C181.596 386.043 181.782 385.79 181.902 385.523C182.022 385.243 182.082 384.983 182.082 384.743V383.003ZM193.445 381.323H195.205C195.138 380.71 194.978 380.183 194.725 379.743C194.471 379.29 194.145 378.916 193.745 378.623C193.358 378.33 192.905 378.116 192.385 377.983C191.878 377.836 191.331 377.763 190.745 377.763C189.931 377.763 189.218 377.91 188.605 378.203C187.991 378.483 187.478 378.876 187.065 379.383C186.665 379.876 186.365 380.463 186.165 381.143C185.965 381.81 185.865 382.53 185.865 383.303C185.865 384.076 185.965 384.79 186.165 385.443C186.378 386.083 186.685 386.636 187.085 387.103C187.498 387.57 188.005 387.93 188.605 388.183C189.218 388.436 189.918 388.563 190.705 388.563C192.025 388.563 193.065 388.216 193.825 387.523C194.598 386.83 195.078 385.843 195.265 384.563H193.525C193.418 385.363 193.125 385.983 192.645 386.423C192.178 386.863 191.525 387.083 190.685 387.083C190.151 387.083 189.691 386.976 189.305 386.763C188.918 386.55 188.605 386.27 188.365 385.923C188.125 385.563 187.945 385.156 187.825 384.703C187.718 384.25 187.665 383.783 187.665 383.303C187.665 382.783 187.718 382.283 187.825 381.803C187.931 381.31 188.105 380.876 188.345 380.503C188.598 380.13 188.931 379.83 189.345 379.603C189.758 379.376 190.271 379.263 190.885 379.263C191.605 379.263 192.178 379.443 192.605 379.803C193.031 380.163 193.311 380.67 193.445 381.323ZM204.347 382.183H198.407C198.433 381.783 198.52 381.41 198.667 381.063C198.813 380.703 199.013 380.39 199.267 380.123C199.52 379.856 199.82 379.65 200.167 379.503C200.527 379.343 200.927 379.263 201.367 379.263C201.793 379.263 202.18 379.343 202.527 379.503C202.887 379.65 203.193 379.856 203.447 380.123C203.713 380.376 203.92 380.683 204.067 381.043C204.227 381.403 204.32 381.783 204.347 382.183ZM205.987 385.063H204.307C204.16 385.743 203.853 386.25 203.387 386.583C202.933 386.916 202.347 387.083 201.627 387.083C201.067 387.083 200.58 386.99 200.167 386.803C199.753 386.616 199.413 386.37 199.147 386.063C198.88 385.743 198.687 385.383 198.567 384.983C198.447 384.57 198.393 384.136 198.407 383.683H206.147C206.173 383.056 206.113 382.396 205.967 381.703C205.833 381.01 205.58 380.37 205.207 379.783C204.847 379.196 204.36 378.716 203.747 378.343C203.147 377.956 202.387 377.763 201.467 377.763C200.76 377.763 200.107 377.896 199.507 378.163C198.92 378.43 198.407 378.803 197.967 379.283C197.54 379.763 197.207 380.33 196.967 380.983C196.727 381.636 196.607 382.356 196.607 383.143C196.633 383.93 196.747 384.656 196.947 385.323C197.16 385.99 197.473 386.563 197.887 387.043C198.3 387.523 198.807 387.896 199.407 388.163C200.02 388.43 200.74 388.563 201.567 388.563C202.74 388.563 203.713 388.27 204.487 387.683C205.26 387.096 205.76 386.223 205.987 385.063ZM207.909 374.063V388.343H209.609V382.503C209.609 382.036 209.669 381.61 209.789 381.223C209.922 380.823 210.116 380.476 210.369 380.183C210.622 379.89 210.936 379.663 211.309 379.503C211.696 379.343 212.149 379.263 212.669 379.263C213.322 379.263 213.836 379.45 214.209 379.823C214.582 380.196 214.769 380.703 214.769 381.343V388.343H216.469V381.543C216.469 380.983 216.409 380.476 216.289 380.023C216.182 379.556 215.989 379.156 215.709 378.823C215.429 378.49 215.062 378.23 214.609 378.043C214.156 377.856 213.589 377.763 212.909 377.763C212.602 377.763 212.282 377.796 211.949 377.863C211.629 377.93 211.316 378.036 211.009 378.183C210.716 378.316 210.449 378.496 210.209 378.723C209.969 378.936 209.782 379.203 209.649 379.523H209.609V374.063H207.909ZM220.262 383.183C220.262 382.556 220.342 382.003 220.502 381.523C220.676 381.03 220.909 380.616 221.202 380.283C221.496 379.95 221.836 379.696 222.222 379.523C222.622 379.35 223.042 379.263 223.482 379.263C223.922 379.263 224.336 379.35 224.722 379.523C225.122 379.696 225.469 379.95 225.762 380.283C226.056 380.616 226.282 381.03 226.442 381.523C226.616 382.003 226.702 382.556 226.702 383.183C226.702 383.81 226.616 384.37 226.442 384.863C226.282 385.343 226.056 385.75 225.762 386.083C225.469 386.403 225.122 386.65 224.722 386.823C224.336 386.996 223.922 387.083 223.482 387.083C223.042 387.083 222.622 386.996 222.222 386.823C221.836 386.65 221.496 386.403 221.202 386.083C220.909 385.75 220.676 385.343 220.502 384.863C220.342 384.37 220.262 383.81 220.262 383.183ZM218.462 383.183C218.462 383.943 218.569 384.65 218.782 385.303C218.996 385.956 219.316 386.53 219.742 387.023C220.169 387.503 220.696 387.883 221.322 388.163C221.949 388.43 222.669 388.563 223.482 388.563C224.309 388.563 225.029 388.43 225.642 388.163C226.269 387.883 226.796 387.503 227.222 387.023C227.649 386.53 227.969 385.956 228.182 385.303C228.396 384.65 228.502 383.943 228.502 383.183C228.502 382.423 228.396 381.716 228.182 381.063C227.969 380.396 227.649 379.823 227.222 379.343C226.796 378.85 226.269 378.463 225.642 378.183C225.029 377.903 224.309 377.763 223.482 377.763C222.669 377.763 221.949 377.903 221.322 378.183C220.696 378.463 220.169 378.85 219.742 379.343C219.316 379.823 218.996 380.396 218.782 381.063C218.569 381.716 218.462 382.423 218.462 383.183ZM230.607 374.063V388.343H232.307V374.063H230.607ZM236.18 383.263C236.18 382.756 236.233 382.263 236.34 381.783C236.447 381.303 236.62 380.876 236.86 380.503C237.1 380.13 237.42 379.83 237.82 379.603C238.22 379.376 238.707 379.263 239.28 379.263C239.867 379.263 240.367 379.376 240.78 379.603C241.193 379.816 241.527 380.103 241.78 380.463C242.047 380.823 242.24 381.243 242.36 381.723C242.48 382.19 242.54 382.676 242.54 383.183C242.54 383.663 242.48 384.136 242.36 384.603C242.253 385.07 242.073 385.49 241.82 385.863C241.567 386.223 241.24 386.516 240.84 386.743C240.44 386.97 239.953 387.083 239.38 387.083C238.833 387.083 238.353 386.976 237.94 386.763C237.54 386.55 237.207 386.263 236.94 385.903C236.687 385.543 236.493 385.136 236.36 384.683C236.24 384.216 236.18 383.743 236.18 383.263ZM244.18 388.343V374.063H242.48V379.383H242.44C242.253 379.076 242.02 378.823 241.74 378.623C241.473 378.41 241.187 378.243 240.88 378.123C240.573 377.99 240.267 377.896 239.96 377.843C239.653 377.79 239.367 377.763 239.1 377.763C238.313 377.763 237.62 377.91 237.02 378.203C236.433 378.483 235.94 378.87 235.54 379.363C235.153 379.843 234.86 380.41 234.66 381.063C234.473 381.716 234.38 382.41 234.38 383.143C234.38 383.876 234.48 384.57 234.68 385.223C234.88 385.876 235.173 386.45 235.56 386.943C235.96 387.436 236.453 387.83 237.04 388.123C237.64 388.416 238.34 388.563 239.14 388.563C239.86 388.563 240.52 388.436 241.12 388.183C241.72 387.93 242.16 387.516 242.44 386.943H242.48V388.343H244.18ZM253.976 382.183H248.036C248.062 381.783 248.149 381.41 248.296 381.063C248.442 380.703 248.642 380.39 248.896 380.123C249.149 379.856 249.449 379.65 249.796 379.503C250.156 379.343 250.556 379.263 250.996 379.263C251.422 379.263 251.809 379.343 252.156 379.503C252.516 379.65 252.822 379.856 253.076 380.123C253.342 380.376 253.549 380.683 253.696 381.043C253.856 381.403 253.949 381.783 253.976 382.183ZM255.616 385.063H253.936C253.789 385.743 253.482 386.25 253.016 386.583C252.562 386.916 251.976 387.083 251.256 387.083C250.696 387.083 250.209 386.99 249.796 386.803C249.382 386.616 249.042 386.37 248.776 386.063C248.509 385.743 248.316 385.383 248.196 384.983C248.076 384.57 248.022 384.136 248.036 383.683H255.776C255.802 383.056 255.742 382.396 255.596 381.703C255.462 381.01 255.209 380.37 254.836 379.783C254.476 379.196 253.989 378.716 253.376 378.343C252.776 377.956 252.016 377.763 251.096 377.763C250.389 377.763 249.736 377.896 249.136 378.163C248.549 378.43 248.036 378.803 247.596 379.283C247.169 379.763 246.836 380.33 246.596 380.983C246.356 381.636 246.236 382.356 246.236 383.143C246.262 383.93 246.376 384.656 246.576 385.323C246.789 385.99 247.102 386.563 247.516 387.043C247.929 387.523 248.436 387.896 249.036 388.163C249.649 388.43 250.369 388.563 251.196 388.563C252.369 388.563 253.342 388.27 254.116 387.683C254.889 387.096 255.389 386.223 255.616 385.063ZM257.478 378.003V388.343H259.178V383.743C259.178 383.076 259.244 382.49 259.378 381.983C259.511 381.463 259.724 381.023 260.018 380.663C260.311 380.303 260.698 380.03 261.178 379.843C261.658 379.656 262.238 379.563 262.918 379.563V377.763C261.998 377.736 261.238 377.923 260.638 378.323C260.038 378.723 259.531 379.343 259.118 380.183H259.078V378.003H257.478Z" fill="black"/>
</svg>
