<svg width="447" height="576" viewBox="0 0 447 576" fill="none" xmlns="http://www.w3.org/2000/svg">
<g clip-path="url(#clip0_363_12182)">
<path opacity="0.3" d="M395.5 289.645C395.5 417.52 337.555 539.481 213 521.183C88.4451 502.885 30.5 417.52 30.5 289.645C30.5 161.769 108.482 95.4056 213 58.1061C317.518 20.8065 395.5 161.769 395.5 289.645Z" fill="#9966FF"/>
<path d="M429.5 142.289C429.5 218.851 380.921 291.873 276.5 280.917C172.079 269.962 123.5 218.851 123.5 142.289C123.5 65.727 188.877 25.9932 276.5 3.66095C364.123 -18.6713 429.5 65.727 429.5 142.289Z" fill="white" fill-opacity="0.5"/>
<path d="M347.5 445.694C347.5 516.555 297.175 584.138 189 573.999C80.8249 563.859 30.5 516.555 30.5 445.694C30.5 374.833 98.227 338.058 189 317.389C279.773 296.72 347.5 374.833 347.5 445.694Z" fill="white" fill-opacity="0.5"/>
<path d="M123.5 444.864C123.5 495.905 151.917 544.586 213 537.282C274.083 529.979 302.5 495.905 302.5 444.864C302.5 393.822 264.257 367.333 213 352.445C161.743 337.557 123.5 393.822 123.5 444.864Z" fill="white" fill-opacity="0.5"/>
<mask id="path-5-inside-1_363_12182" fill="white">
<path fill-rule="evenodd" clip-rule="evenodd" d="M178.432 71.241C177.917 67.9258 180.188 64.8208 183.503 64.3058L372.506 34.9452C375.822 34.4302 378.927 36.7002 379.442 40.0154L388.766 100.043C389.281 103.358 387.011 106.463 383.696 106.978L261.761 125.92C260.954 126.175 260.243 126.681 259.738 127.373L252.06 137.875C251.109 139.175 249.681 140.045 248.089 140.292L229.051 143.25C227.459 143.497 225.833 143.102 224.533 142.151L214.031 134.473C213.34 133.968 212.509 133.701 211.662 133.702L194.693 136.339C191.377 136.854 188.272 134.584 187.757 131.268L178.432 71.241ZM199.886 61.7607L251.153 53.7968C250.112 53.9632 249.178 54.5342 248.555 55.386L240.877 65.8876C239.927 67.1882 238.498 68.0578 236.906 68.3051L217.868 71.2626C216.276 71.5099 214.651 71.1146 213.35 70.1638L202.849 62.4862C201.996 61.8626 200.931 61.6019 199.886 61.7607Z"/>
</mask>
<path fill-rule="evenodd" clip-rule="evenodd" d="M178.432 71.241C177.917 67.9258 180.188 64.8208 183.503 64.3058L372.506 34.9452C375.822 34.4302 378.927 36.7002 379.442 40.0154L388.766 100.043C389.281 103.358 387.011 106.463 383.696 106.978L261.761 125.92C260.954 126.175 260.243 126.681 259.738 127.373L252.06 137.875C251.109 139.175 249.681 140.045 248.089 140.292L229.051 143.25C227.459 143.497 225.833 143.102 224.533 142.151L214.031 134.473C213.34 133.968 212.509 133.701 211.662 133.702L194.693 136.339C191.377 136.854 188.272 134.584 187.757 131.268L178.432 71.241ZM199.886 61.7607L251.153 53.7968C250.112 53.9632 249.178 54.5342 248.555 55.386L240.877 65.8876C239.927 67.1882 238.498 68.0578 236.906 68.3051L217.868 71.2626C216.276 71.5099 214.651 71.1146 213.35 70.1638L202.849 62.4862C201.996 61.8626 200.931 61.6019 199.886 61.7607Z" fill="#9966FF"/>
<path d="M183.503 64.3058L183.27 62.8051L183.503 64.3058ZM178.432 71.241L179.933 71.0079L178.432 71.241ZM372.506 34.9452L372.739 36.4459L372.506 34.9452ZM379.442 40.0154L377.941 40.2486L379.442 40.0154ZM261.761 125.92L261.528 124.419L261.414 124.437L261.304 124.472L261.761 125.92ZM259.738 127.373L258.512 126.477L259.738 127.373ZM252.06 137.875L253.286 138.771L253.286 138.771L252.06 137.875ZM248.089 140.292L248.322 141.793L248.089 140.292ZM229.051 143.25L228.817 141.749L229.051 143.25ZM224.533 142.151L223.637 143.377L223.637 143.377L224.533 142.151ZM214.031 134.473L213.135 135.699L213.135 135.699L214.031 134.473ZM211.662 133.702L211.659 132.184L211.544 132.184L211.429 132.202L211.662 133.702ZM187.757 131.268L186.257 131.501L187.757 131.268ZM251.153 53.7968L251.393 55.2965L250.92 52.2961L251.153 53.7968ZM199.886 61.7607L199.653 60.26L200.115 63.2621L199.886 61.7607ZM248.555 55.386L247.329 54.4897L247.329 54.4897L248.555 55.386ZM240.877 65.8876L239.651 64.9913L239.651 64.9913L240.877 65.8876ZM236.906 68.3051L236.673 66.8044L236.906 68.3051ZM217.868 71.2626L218.101 72.7632L217.868 71.2626ZM213.35 70.1638L212.454 71.3898L212.454 71.3898L213.35 70.1638ZM202.849 62.4862L203.745 61.2602L203.745 61.2602L202.849 62.4862ZM183.27 62.8051C179.126 63.4489 176.288 67.3301 176.932 71.4741L179.933 71.0079C179.547 68.5215 181.249 66.1927 183.736 65.8065L183.27 62.8051ZM372.273 33.4445L183.27 62.8051L183.736 65.8065L372.739 36.4459L372.273 33.4445ZM380.942 39.7823C380.298 35.6383 376.417 32.8008 372.273 33.4445L372.739 36.4459C375.226 36.0596 377.555 37.7621 377.941 40.2486L380.942 39.7823ZM390.267 99.8096L380.942 39.7823L377.941 40.2486L387.266 100.276L390.267 99.8096ZM383.929 108.479C388.073 107.835 390.911 103.954 390.267 99.8096L387.266 100.276C387.652 102.762 385.949 105.091 383.463 105.477L383.929 108.479ZM261.995 127.421L383.929 108.479L383.463 105.477L261.528 124.419L261.995 127.421ZM261.304 124.472C260.19 124.824 259.209 125.522 258.512 126.477L260.964 128.269C261.277 127.84 261.718 127.526 262.219 127.368L261.304 124.472ZM258.512 126.477L250.834 136.978L253.286 138.771L260.964 128.269L258.512 126.477ZM250.834 136.978C250.121 137.954 249.05 138.606 247.856 138.792L248.322 141.793C250.312 141.484 252.098 140.397 253.286 138.771L250.834 136.978ZM247.856 138.792L228.817 141.749L229.284 144.75L248.322 141.793L247.856 138.792ZM228.817 141.749C227.623 141.935 226.405 141.638 225.429 140.925L223.637 143.377C225.262 144.565 227.294 145.06 229.284 144.75L228.817 141.749ZM225.429 140.925L214.928 133.247L213.135 135.699L223.637 143.377L225.429 140.925ZM214.928 133.247C213.973 132.55 212.827 132.181 211.659 132.184L211.665 135.221C212.19 135.22 212.706 135.386 213.135 135.699L214.928 133.247ZM194.926 137.839L211.895 135.203L211.429 132.202L194.459 134.838L194.926 137.839ZM186.257 131.501C186.9 135.645 190.782 138.483 194.926 137.839L194.459 134.838C191.973 135.224 189.644 133.522 189.258 131.035L186.257 131.501ZM176.932 71.4741L186.257 131.501L189.258 131.035L179.933 71.0079L176.932 71.4741ZM250.92 52.2961L199.653 60.26L200.119 63.2614L251.386 55.2975L250.92 52.2961ZM249.781 56.2823C250.167 55.7539 250.747 55.3997 251.393 55.2965L250.913 52.2971C249.477 52.5267 248.188 53.3145 247.329 54.4897L249.781 56.2823ZM242.103 66.7839L249.781 56.2823L247.329 54.4897L239.651 64.9913L242.103 66.7839ZM237.139 69.8058C239.129 69.4966 240.915 68.4096 242.103 66.7839L239.651 64.9913C238.938 65.9667 237.867 66.6189 236.673 66.8044L237.139 69.8058ZM218.101 72.7632L237.139 69.8058L236.673 66.8044L217.635 69.7619L218.101 72.7632ZM212.454 71.3898C214.08 72.5783 216.111 73.0724 218.101 72.7632L217.635 69.7619C216.441 69.9474 215.222 69.6509 214.246 68.9378L212.454 71.3898ZM201.952 63.7122L212.454 71.3898L214.246 68.9378L203.745 61.2602L201.952 63.7122ZM200.115 63.2621C200.762 63.1636 201.423 63.3253 201.952 63.7122L203.745 61.2602C202.568 60.3998 201.099 60.0402 199.658 60.2593L200.115 63.2621Z" fill="#774DCB" mask="url(#path-5-inside-1_363_12182)"/>
<mask id="path-7-inside-2_363_12182" fill="white">
<path fill-rule="evenodd" clip-rule="evenodd" d="M202.718 147.864L219.303 147.939C220.357 147.949 221.366 148.374 222.108 149.124L231.265 158.364C232.399 159.509 233.941 160.156 235.552 160.163L254.818 160.251C256.429 160.258 257.977 159.625 259.122 158.491L268.362 149.334C269.112 148.592 270.124 148.175 271.179 148.176L236.429 148.017L372.116 148.635C375.471 148.651 378.179 151.383 378.163 154.738L377.887 215.484C377.871 218.839 375.139 221.547 371.784 221.531L270.258 221.069C269.421 221.193 268.639 221.581 268.03 222.184L258.79 231.341C257.646 232.475 256.098 233.108 254.487 233.101L235.22 233.013C233.609 233.005 232.067 232.358 230.933 231.214L221.776 221.974C221.173 221.365 220.395 220.97 219.559 220.838L202.386 220.76C199.031 220.745 196.323 218.012 196.339 214.657L196.615 153.911C196.631 150.556 199.363 147.849 202.718 147.864Z"/>
</mask>
<path fill-rule="evenodd" clip-rule="evenodd" d="M202.718 147.864L219.303 147.939C220.357 147.949 221.366 148.374 222.108 149.124L231.265 158.364C232.399 159.509 233.941 160.156 235.552 160.163L254.818 160.251C256.429 160.258 257.977 159.625 259.122 158.491L268.362 149.334C269.112 148.592 270.124 148.175 271.179 148.176L236.429 148.017L372.116 148.635C375.471 148.651 378.179 151.383 378.163 154.738L377.887 215.484C377.871 218.839 375.139 221.547 371.784 221.531L270.258 221.069C269.421 221.193 268.639 221.581 268.03 222.184L258.79 231.341C257.646 232.475 256.098 233.108 254.487 233.101L235.22 233.013C233.609 233.005 232.067 232.358 230.933 231.214L221.776 221.974C221.173 221.365 220.395 220.97 219.559 220.838L202.386 220.76C199.031 220.745 196.323 218.012 196.339 214.657L196.615 153.911C196.631 150.556 199.363 147.849 202.718 147.864Z" fill="#59C059"/>
<path d="M219.303 147.939L219.317 146.421L219.31 146.421L219.303 147.939ZM222.108 149.124L221.029 150.193L221.029 150.193L222.108 149.124ZM231.265 158.364L230.186 159.433L230.186 159.433L231.265 158.364ZM235.552 160.163L235.559 158.644L235.552 160.163ZM254.818 160.251L254.811 161.769L254.818 160.251ZM259.122 158.491L258.053 157.412L258.053 157.412L259.122 158.491ZM268.362 149.334L267.293 148.256L267.293 148.256L268.362 149.334ZM271.179 148.176L271.178 149.694L271.186 146.657L271.179 148.176ZM270.258 221.069L270.265 219.55L270.15 219.55L270.035 219.567L270.258 221.069ZM258.79 231.341L259.859 232.42L259.859 232.42L258.79 231.341ZM254.487 233.101L254.48 234.619L254.487 233.101ZM235.22 233.013L235.227 231.494L235.22 233.013ZM230.933 231.214L229.854 232.283L229.854 232.283L230.933 231.214ZM221.776 221.974L220.698 223.043L220.698 223.043L221.776 221.974ZM219.559 220.838L219.796 219.338L219.682 219.32L219.566 219.319L219.559 220.838ZM196.339 214.657L197.857 214.664L196.339 214.657ZM196.615 153.911L195.097 153.904L196.615 153.911ZM219.31 146.421L202.725 146.345L202.711 149.383L219.296 149.458L219.31 146.421ZM223.187 148.055C222.162 147.021 220.771 146.434 219.317 146.421L219.289 149.458C219.943 149.464 220.569 149.728 221.029 150.193L223.187 148.055ZM232.343 157.295L223.187 148.055L221.029 150.193L230.186 159.433L232.343 157.295ZM235.559 158.644C234.351 158.639 233.194 158.153 232.343 157.295L230.186 159.433C231.603 160.864 233.531 161.672 235.545 161.682L235.559 158.644ZM254.825 158.732L235.559 158.644L235.545 161.682L254.811 161.769L254.825 158.732ZM258.053 157.412C257.195 158.263 256.033 158.737 254.825 158.732L254.811 161.769C256.825 161.778 258.76 160.987 260.191 159.57L258.053 157.412ZM267.293 148.256L258.053 157.412L260.191 159.57L269.431 150.413L267.293 148.256ZM271.179 146.657C269.724 146.657 268.327 147.231 267.293 148.256L269.431 150.413C269.896 149.952 270.524 149.694 271.178 149.694L271.179 146.657ZM236.422 149.536L271.172 149.694L271.186 146.657L236.436 146.499L236.422 149.536ZM372.123 147.117L236.436 146.499L236.422 149.536L372.109 150.154L372.123 147.117ZM379.682 154.745C379.701 150.551 376.317 147.136 372.123 147.117L372.109 150.154C374.626 150.165 376.656 152.214 376.645 154.731L379.682 154.745ZM379.405 215.491L379.682 154.745L376.645 154.731L376.368 215.477L379.405 215.491ZM371.777 223.05C375.971 223.069 379.386 219.685 379.405 215.491L376.368 215.477C376.357 217.994 374.307 220.024 371.791 220.013L371.777 223.05ZM270.251 222.588L371.777 223.05L371.791 220.013L270.265 219.55L270.251 222.588ZM270.035 219.567C268.88 219.738 267.801 220.273 266.961 221.105L269.099 223.263C269.477 222.889 269.962 222.648 270.481 222.571L270.035 219.567ZM266.961 221.105L257.721 230.262L259.859 232.42L269.099 223.263L266.961 221.105ZM257.721 230.262C256.863 231.113 255.702 231.587 254.493 231.582L254.48 234.619C256.493 234.628 258.429 233.837 259.859 232.42L257.721 230.262ZM254.493 231.582L235.227 231.494L235.213 234.531L254.48 234.619L254.493 231.582ZM235.227 231.494C234.019 231.489 232.862 231.003 232.012 230.145L229.854 232.283C231.272 233.713 233.199 234.522 235.213 234.531L235.227 231.494ZM232.012 230.145L222.855 220.905L220.698 223.043L229.854 232.283L232.012 230.145ZM222.855 220.905C222.023 220.065 220.949 219.52 219.796 219.338L219.322 222.338C219.841 222.42 220.323 222.665 220.698 223.043L222.855 220.905ZM202.379 222.278L219.552 222.357L219.566 219.319L202.393 219.241L202.379 222.278ZM194.82 214.651C194.801 218.844 198.185 222.259 202.379 222.278L202.393 219.241C199.876 219.23 197.846 217.181 197.857 214.664L194.82 214.651ZM195.097 153.904L194.82 214.651L197.857 214.664L198.134 153.918L195.097 153.904ZM202.725 146.345C198.531 146.326 195.116 149.71 195.097 153.904L198.134 153.918C198.146 151.402 200.195 149.371 202.711 149.383L202.725 146.345Z" fill="#389438" mask="url(#path-7-inside-2_363_12182)"/>
<path d="M47.6062 25.5127C26.4395 69.6794 -8.79389 108.013 47.6061 170.013C118.106 247.513 143.106 90.0127 57.6062 133.513C-27.8938 177.013 77.1062 282.013 185.106 292.013C293.106 302.013 415.894 253.013 392.5 422.513" stroke="#CF63CF" stroke-width="10" stroke-linecap="round"/>
<ellipse rx="4.8988" ry="10.465" transform="matrix(0.817571 -0.575828 -0.575828 -0.817571 388.674 419.599)" fill="#BD42BD"/>
<path fill-rule="evenodd" clip-rule="evenodd" d="M387.474 419.629C384.597 421.863 380.378 421.467 378.28 418.488L375.457 414.48C371.059 414.421 366.75 412.326 364.024 408.454L345.014 381.465C340.496 375.05 342.034 366.187 348.449 361.669C354.863 357.151 363.726 358.689 368.244 365.104L387.253 392.093C389.98 395.965 390.501 400.728 389.075 404.89L391.899 408.9C393.996 411.878 392.951 415.984 389.878 417.939C389.426 418.226 388.993 418.513 388.601 418.79C388.241 419.044 387.861 419.328 387.474 419.629Z" fill="#BD42BD"/>
<path d="M338.625 378.537C339.659 380.005 341.744 380.247 343.102 379.071C345.806 376.728 350.163 373.048 353.587 370.612C357.329 367.949 362.747 364.786 366.064 362.907C367.625 362.023 368.098 359.98 367.065 358.513L290.909 250.386C285.378 242.534 274.529 240.651 266.677 246.182C258.824 251.713 256.942 262.562 262.473 270.414L338.625 378.537Z" fill="white"/>
<path d="M261.278 271.79C262.315 273.263 264.41 273.501 265.766 272.314C268.784 269.674 273.921 265.297 277.951 262.458C281.981 259.62 287.833 256.258 291.335 254.305C292.909 253.428 293.391 251.376 292.354 249.903L250.89 191.032C244.359 181.759 233.434 176.601 222.123 177.451C219.758 177.629 217.681 179.092 216.717 181.259C212.106 191.622 213.283 203.646 219.814 212.919L261.278 271.79Z" fill="#BD42BD"/>
<path fill-rule="evenodd" clip-rule="evenodd" d="M220.233 213.514L215.897 216.568L215.898 216.569L214.453 217.586C214.453 217.586 222.075 233.719 228.914 242.722C235.861 251.868 249.699 263.791 249.699 263.791L252.59 261.755C252.59 261.755 238.976 249.42 231.983 240.172C227.197 233.842 221.825 224.084 219.114 218.96L222.426 216.627L220.233 213.514Z" fill="#BD42BD"/>
<mask id="mask0_363_12182" style="mask-type:alpha" maskUnits="userSpaceOnUse" x="215" y="178" width="181" height="251">
<path fill-rule="evenodd" clip-rule="evenodd" d="M263.557 271.697C262.435 271.902 261.236 271.472 260.528 270.467L220.947 214.268C214.431 205.017 213.349 192.992 218.109 182.726C219.059 180.677 221.03 179.289 223.28 179.084C234.549 178.061 245.507 183.13 252.023 192.381L291.604 248.58C292.239 249.482 292.305 250.601 291.899 251.535L367.171 358.408C368.105 359.734 367.808 361.527 366.597 362.515L386.237 390.399C388.963 394.27 389.484 399.032 388.059 403.193L391.339 407.851C392.843 409.985 392.728 412.693 391.422 414.786C391.677 415.115 391.928 415.454 392.175 415.804C395.826 420.987 396.992 426.452 394.78 428.01C392.568 429.568 387.815 426.629 384.165 421.446C383.824 420.963 383.506 420.478 383.21 419.993C381.112 420.127 379.014 419.276 377.72 417.439L374.443 412.786C370.044 412.727 365.734 410.632 363.007 406.76L343.347 378.847L343.249 378.935C341.893 380.143 339.777 379.915 338.731 378.43L263.557 271.697Z" fill="#4C97FF"/>
</mask>
<g mask="url(#mask0_363_12182)">
<path d="M238.129 189.142C234.297 183.076 224.501 180.481 220.082 179.941L240.699 165.42L406.993 403.873L387.848 417.357C388.585 416.838 388.315 412.546 385.835 404.333C383.355 396.119 242.919 196.725 238.129 189.142Z" fill="black" fill-opacity="0.1"/>
</g>
<path d="M283.334 284.252C293.199 284.012 310.907 285.363 302.829 292.686C292.732 301.84 302.267 304.562 308.813 307.706C315.358 310.849 319.716 310.031 315.972 318.085C312.977 324.527 320.179 328.677 324.155 329.946" stroke="#CF63CF" stroke-width="6" stroke-linecap="round"/>
<path fill-rule="evenodd" clip-rule="evenodd" d="M189.401 451.578L196.541 463.58L209.92 464.299C214.479 464.54 216.846 470.176 213.93 473.838L205.358 484.581L208.98 498.195C210.212 502.83 205.875 506.889 201.642 505.062L189.207 499.694L178.065 507.396C174.268 510.018 169.223 506.887 169.519 502.101L170.405 488.04L159.899 479.186C156.317 476.168 157.533 470.177 161.956 469.047L174.939 465.718L179.584 452.55C181.17 448.067 186.966 447.493 189.401 451.578Z" fill="#FFBF00"/>
<path fill-rule="evenodd" clip-rule="evenodd" d="M184.022 413.083C179.363 405.443 178.983 395.247 183.088 387.164C187.342 378.476 194.5 374.626 197.377 373.374C199.106 372.571 200.929 371.945 202.89 371.483L204.814 371.068C206.228 370.778 207.635 371.654 207.942 373.053C208.251 374.455 207.351 375.835 205.931 376.14L204.059 376.543C202.503 376.91 201.012 377.423 199.558 378.101C197.668 378.919 191.416 382.086 187.809 389.457C185.071 394.841 184.254 403.4 188.564 410.463C192.468 417.267 200.461 421.438 208.044 420.736C215.215 420.22 221.795 415.447 224.103 409.126C226.444 403.18 224.888 397.085 222.318 393.653C219.221 389.424 215.366 388.123 213.854 387.759C213.628 387.692 208.332 386.101 203.654 388.443C201.64 389.408 199.035 391.58 197.64 394.841C196.134 398.209 196.523 402.539 198.565 405.416C200.619 408.5 204.492 410.247 207.824 409.654C211.14 409.132 213.383 406.665 213.915 404.497C214.54 402.167 213.581 400.197 212.833 399.489C211.561 398.234 210.463 398.212 210.417 398.209C209.897 398.194 209.64 398.234 209.485 398.258C208.891 398.475 208.05 398.951 207.802 399.452C207.759 399.534 207.648 399.76 207.861 400.325C208.372 401.666 207.682 403.165 206.324 403.669C204.972 404.176 203.45 403.495 202.936 402.151C202.092 399.928 202.559 398.188 203.1 397.119C204.514 394.337 207.796 393.329 208.168 393.222C208.338 393.171 208.517 393.14 208.693 393.125C209.055 393.07 209.693 392.984 210.556 393.018C212.533 393.042 214.785 394.074 216.511 395.781C218.55 397.705 220.146 401.571 219.014 405.773C217.909 410.271 213.665 413.99 208.712 414.769C203.385 415.719 197.386 413.093 194.219 408.332C191.165 404.042 190.581 397.763 192.814 392.783C195.264 387.048 199.945 384.452 201.318 383.793C207.923 380.495 214.983 382.672 215.28 382.764C217.179 383.213 222.46 384.981 226.565 390.59C229.721 394.81 232.279 402.692 229.028 410.943C226.058 419.075 217.603 425.252 208.486 425.909C207.772 425.976 207.048 426.013 206.327 426.013C197.479 426.013 188.517 420.913 184.022 413.083Z" fill="#0FBD8C"/>
<path fill-rule="evenodd" clip-rule="evenodd" d="M244.769 469.55C241.72 464.549 241.47 457.875 244.158 452.584C246.942 446.898 251.627 444.378 253.51 443.558C254.642 443.032 255.835 442.623 257.119 442.321L258.378 442.049C259.304 441.859 260.225 442.433 260.425 443.348C260.628 444.266 260.039 445.169 259.109 445.369L257.884 445.633C256.866 445.873 255.89 446.208 254.938 446.652C253.701 447.188 249.609 449.261 247.247 454.086C245.455 457.609 244.921 463.212 247.742 467.835C250.297 472.288 255.529 475.019 260.492 474.559C265.186 474.221 269.493 471.097 271.003 466.96C272.536 463.068 271.518 459.078 269.835 456.832C267.808 454.064 265.285 453.212 264.295 452.974C264.147 452.93 260.681 451.889 257.619 453.422C256.301 454.054 254.596 455.475 253.683 457.609C252.696 459.814 252.952 462.648 254.288 464.531C255.633 466.55 258.168 467.693 260.349 467.305C262.519 466.964 263.987 465.349 264.336 463.929C264.745 462.404 264.117 461.115 263.627 460.651C262.795 459.83 262.076 459.816 262.045 459.814C261.705 459.804 261.537 459.83 261.436 459.846C261.047 459.988 260.496 460.3 260.334 460.627C260.306 460.681 260.233 460.829 260.373 461.199C260.707 462.077 260.255 463.058 259.366 463.388C258.482 463.72 257.485 463.274 257.149 462.394C256.596 460.939 256.902 459.8 257.257 459.1C258.182 457.28 260.33 456.62 260.573 456.55C260.685 456.516 260.802 456.496 260.918 456.486C261.154 456.45 261.572 456.394 262.137 456.416C263.43 456.432 264.905 457.108 266.034 458.225C267.369 459.484 268.414 462.015 267.673 464.765C266.95 467.709 264.172 470.144 260.93 470.653C257.443 471.275 253.517 469.556 251.443 466.44C249.445 463.632 249.062 459.522 250.524 456.262C252.127 452.508 255.191 450.81 256.09 450.378C260.413 448.219 265.034 449.644 265.229 449.704C266.472 449.998 269.928 451.155 272.615 454.827C274.681 457.589 276.355 462.748 274.227 468.149C272.283 473.472 266.749 477.515 260.782 477.945C260.314 477.989 259.84 478.013 259.368 478.013C253.577 478.013 247.711 474.675 244.769 469.55Z" fill="#0FBD8C"/>
<path fill-rule="evenodd" clip-rule="evenodd" d="M74.0744 394.962C76.2094 394.39 77.8768 392.722 78.4495 390.587L79.7545 385.734C80.3743 383.439 83.6293 383.439 84.2455 385.734L85.5541 390.587C86.1268 392.722 87.7942 394.39 89.9256 394.962L94.7791 396.267C97.0736 396.887 97.0736 400.142 94.7791 400.762L89.9256 402.067C87.7942 402.639 86.1268 404.307 85.5541 406.438L84.2455 411.292C83.6293 413.586 80.3743 413.586 79.7545 411.292L78.4495 406.438C77.8768 404.307 76.2094 402.639 74.0744 402.067L69.2209 400.762C66.9264 400.142 66.9264 396.887 69.2209 396.267L74.0744 394.962Z" fill="white"/>
<circle cx="102" cy="418.513" r="5.5" fill="white"/>
</g>
<defs>
<clipPath id="clip0_363_12182">
<rect width="446" height="575" fill="white" transform="translate(0.5 0.0126953)"/>
</clipPath>
</defs>
</svg>
