<svg width="67" height="68" viewBox="0 0 67 68" fill="none" xmlns="http://www.w3.org/2000/svg">
<circle cx="33.5" cy="34.0291" r="33.5" fill="#9966FF"/>
<path fill-rule="evenodd" clip-rule="evenodd" d="M30.6584 53.0945L18.2429 40.6789C17.282 39.6588 17.025 38.2275 17.5588 36.9978C18.0887 35.7681 19.259 35.0089 20.6153 35.0089H25.3245L27.7245 17.73C28.0685 15.0848 30.3697 13.0722 33.0782 13.0722C33.3115 13.0722 33.5488 13.088 33.782 13.1157C36.2256 13.4992 38.1117 15.405 38.4082 17.7498L40.8715 35.0089H45.3751C46.7472 35.0089 47.9689 35.8155 48.4869 37.061C49.0049 38.3144 48.7242 39.7023 47.7475 40.6789L35.332 53.0945C34.7152 53.7073 33.8848 54.0474 32.9952 54.0474C32.1055 54.0474 31.2752 53.7073 30.6584 53.0945Z" fill="white"/>
</svg>
