<svg width="446" height="411" viewBox="0 0 446 411" fill="none" xmlns="http://www.w3.org/2000/svg">
<path d="M446 207.36C446 318.946 375.196 425.371 223 409.404C70.8041 393.437 0 318.946 0 207.36C0 95.775 95.2878 37.8652 223 5.31714C350.712 -27.2309 446 95.775 446 207.36Z" fill="#9966FF"/>
<path d="M160.46 275.56V270.32H164.18C165.26 270.32 166.047 270.547 166.54 271C167.047 271.44 167.3 272.087 167.3 272.94C167.3 273.793 167.047 274.447 166.54 274.9C166.047 275.353 165.26 275.573 164.18 275.56H160.46ZM158.56 268.72V283H160.46V277.16H164.82C166.26 277.173 167.347 276.807 168.08 276.06C168.827 275.313 169.2 274.273 169.2 272.94C169.2 271.607 168.827 270.573 168.08 269.84C167.347 269.093 166.26 268.72 164.82 268.72H158.56ZM171.349 268.72V283H173.049V268.72H171.349ZM184.842 282.96C184.549 283.133 184.142 283.22 183.622 283.22C183.182 283.22 182.829 283.1 182.562 282.86C182.309 282.607 182.182 282.2 182.182 281.64C181.716 282.2 181.169 282.607 180.542 282.86C179.929 283.1 179.262 283.22 178.542 283.22C178.076 283.22 177.629 283.167 177.202 283.06C176.789 282.953 176.429 282.787 176.122 282.56C175.816 282.333 175.569 282.04 175.382 281.68C175.209 281.307 175.122 280.86 175.122 280.34C175.122 279.753 175.222 279.273 175.422 278.9C175.622 278.527 175.882 278.227 176.202 278C176.536 277.76 176.909 277.58 177.322 277.46C177.749 277.34 178.182 277.24 178.622 277.16C179.089 277.067 179.529 277 179.942 276.96C180.369 276.907 180.742 276.84 181.062 276.76C181.382 276.667 181.636 276.54 181.822 276.38C182.009 276.207 182.102 275.96 182.102 275.64C182.102 275.267 182.029 274.967 181.882 274.74C181.749 274.513 181.569 274.34 181.342 274.22C181.129 274.1 180.882 274.02 180.602 273.98C180.336 273.94 180.069 273.92 179.802 273.92C179.082 273.92 178.482 274.06 178.002 274.34C177.522 274.607 177.262 275.12 177.222 275.88H175.522C175.549 275.24 175.682 274.7 175.922 274.26C176.162 273.82 176.482 273.467 176.882 273.2C177.282 272.92 177.736 272.72 178.242 272.6C178.762 272.48 179.316 272.42 179.902 272.42C180.369 272.42 180.829 272.453 181.282 272.52C181.749 272.587 182.169 272.727 182.542 272.94C182.916 273.14 183.216 273.427 183.442 273.8C183.669 274.173 183.782 274.66 183.782 275.26V280.58C183.782 280.98 183.802 281.273 183.842 281.46C183.896 281.647 184.056 281.74 184.322 281.74C184.469 281.74 184.642 281.707 184.842 281.64V282.96ZM182.082 277.66C181.869 277.82 181.589 277.94 181.242 278.02C180.896 278.087 180.529 278.147 180.142 278.2C179.769 278.24 179.389 278.293 179.002 278.36C178.616 278.413 178.269 278.507 177.962 278.64C177.656 278.773 177.402 278.967 177.202 279.22C177.016 279.46 176.922 279.793 176.922 280.22C176.922 280.5 176.976 280.74 177.082 280.94C177.202 281.127 177.349 281.28 177.522 281.4C177.709 281.52 177.922 281.607 178.162 281.66C178.402 281.713 178.656 281.74 178.922 281.74C179.482 281.74 179.962 281.667 180.362 281.52C180.762 281.36 181.089 281.167 181.342 280.94C181.596 280.7 181.782 280.447 181.902 280.18C182.022 279.9 182.082 279.64 182.082 279.4V277.66ZM193.445 275.98H195.205C195.138 275.367 194.978 274.84 194.725 274.4C194.471 273.947 194.145 273.573 193.745 273.28C193.358 272.987 192.905 272.773 192.385 272.64C191.878 272.493 191.331 272.42 190.745 272.42C189.931 272.42 189.218 272.567 188.605 272.86C187.991 273.14 187.478 273.533 187.065 274.04C186.665 274.533 186.365 275.12 186.165 275.8C185.965 276.467 185.865 277.187 185.865 277.96C185.865 278.733 185.965 279.447 186.165 280.1C186.378 280.74 186.685 281.293 187.085 281.76C187.498 282.227 188.005 282.587 188.605 282.84C189.218 283.093 189.918 283.22 190.705 283.22C192.025 283.22 193.065 282.873 193.825 282.18C194.598 281.487 195.078 280.5 195.265 279.22H193.525C193.418 280.02 193.125 280.64 192.645 281.08C192.178 281.52 191.525 281.74 190.685 281.74C190.151 281.74 189.691 281.633 189.305 281.42C188.918 281.207 188.605 280.927 188.365 280.58C188.125 280.22 187.945 279.813 187.825 279.36C187.718 278.907 187.665 278.44 187.665 277.96C187.665 277.44 187.718 276.94 187.825 276.46C187.931 275.967 188.105 275.533 188.345 275.16C188.598 274.787 188.931 274.487 189.345 274.26C189.758 274.033 190.271 273.92 190.885 273.92C191.605 273.92 192.178 274.1 192.605 274.46C193.031 274.82 193.311 275.327 193.445 275.98ZM204.347 276.84H198.407C198.433 276.44 198.52 276.067 198.667 275.72C198.813 275.36 199.013 275.047 199.267 274.78C199.52 274.513 199.82 274.307 200.167 274.16C200.527 274 200.927 273.92 201.367 273.92C201.793 273.92 202.18 274 202.527 274.16C202.887 274.307 203.193 274.513 203.447 274.78C203.713 275.033 203.92 275.34 204.067 275.7C204.227 276.06 204.32 276.44 204.347 276.84ZM205.987 279.72H204.307C204.16 280.4 203.853 280.907 203.387 281.24C202.933 281.573 202.347 281.74 201.627 281.74C201.067 281.74 200.58 281.647 200.167 281.46C199.753 281.273 199.413 281.027 199.147 280.72C198.88 280.4 198.687 280.04 198.567 279.64C198.447 279.227 198.393 278.793 198.407 278.34H206.147C206.173 277.713 206.113 277.053 205.967 276.36C205.833 275.667 205.58 275.027 205.207 274.44C204.847 273.853 204.36 273.373 203.747 273C203.147 272.613 202.387 272.42 201.467 272.42C200.76 272.42 200.107 272.553 199.507 272.82C198.92 273.087 198.407 273.46 197.967 273.94C197.54 274.42 197.207 274.987 196.967 275.64C196.727 276.293 196.607 277.013 196.607 277.8C196.633 278.587 196.747 279.313 196.947 279.98C197.16 280.647 197.473 281.22 197.887 281.7C198.3 282.18 198.807 282.553 199.407 282.82C200.02 283.087 200.74 283.22 201.567 283.22C202.74 283.22 203.713 282.927 204.487 282.34C205.26 281.753 205.76 280.88 205.987 279.72ZM207.909 268.72V283H209.609V277.16C209.609 276.693 209.669 276.267 209.789 275.88C209.922 275.48 210.116 275.133 210.369 274.84C210.622 274.547 210.936 274.32 211.309 274.16C211.696 274 212.149 273.92 212.669 273.92C213.322 273.92 213.836 274.107 214.209 274.48C214.582 274.853 214.769 275.36 214.769 276V283H216.469V276.2C216.469 275.64 216.409 275.133 216.289 274.68C216.182 274.213 215.989 273.813 215.709 273.48C215.429 273.147 215.062 272.887 214.609 272.7C214.156 272.513 213.589 272.42 212.909 272.42C212.602 272.42 212.282 272.453 211.949 272.52C211.629 272.587 211.316 272.693 211.009 272.84C210.716 272.973 210.449 273.153 210.209 273.38C209.969 273.593 209.782 273.86 209.649 274.18H209.609V268.72H207.909ZM220.262 277.84C220.262 277.213 220.342 276.66 220.502 276.18C220.676 275.687 220.909 275.273 221.202 274.94C221.496 274.607 221.836 274.353 222.222 274.18C222.622 274.007 223.042 273.92 223.482 273.92C223.922 273.92 224.336 274.007 224.722 274.18C225.122 274.353 225.469 274.607 225.762 274.94C226.056 275.273 226.282 275.687 226.442 276.18C226.616 276.66 226.702 277.213 226.702 277.84C226.702 278.467 226.616 279.027 226.442 279.52C226.282 280 226.056 280.407 225.762 280.74C225.469 281.06 225.122 281.307 224.722 281.48C224.336 281.653 223.922 281.74 223.482 281.74C223.042 281.74 222.622 281.653 222.222 281.48C221.836 281.307 221.496 281.06 221.202 280.74C220.909 280.407 220.676 280 220.502 279.52C220.342 279.027 220.262 278.467 220.262 277.84ZM218.462 277.84C218.462 278.6 218.569 279.307 218.782 279.96C218.996 280.613 219.316 281.187 219.742 281.68C220.169 282.16 220.696 282.54 221.322 282.82C221.949 283.087 222.669 283.22 223.482 283.22C224.309 283.22 225.029 283.087 225.642 282.82C226.269 282.54 226.796 282.16 227.222 281.68C227.649 281.187 227.969 280.613 228.182 279.96C228.396 279.307 228.502 278.6 228.502 277.84C228.502 277.08 228.396 276.373 228.182 275.72C227.969 275.053 227.649 274.48 227.222 274C226.796 273.507 226.269 273.12 225.642 272.84C225.029 272.56 224.309 272.42 223.482 272.42C222.669 272.42 221.949 272.56 221.322 272.84C220.696 273.12 220.169 273.507 219.742 274C219.316 274.48 218.996 275.053 218.782 275.72C218.569 276.373 218.462 277.08 218.462 277.84ZM230.607 268.72V283H232.307V268.72H230.607ZM236.18 277.92C236.18 277.413 236.233 276.92 236.34 276.44C236.447 275.96 236.62 275.533 236.86 275.16C237.1 274.787 237.42 274.487 237.82 274.26C238.22 274.033 238.707 273.92 239.28 273.92C239.867 273.92 240.367 274.033 240.78 274.26C241.193 274.473 241.527 274.76 241.78 275.12C242.047 275.48 242.24 275.9 242.36 276.38C242.48 276.847 242.54 277.333 242.54 277.84C242.54 278.32 242.48 278.793 242.36 279.26C242.253 279.727 242.073 280.147 241.82 280.52C241.567 280.88 241.24 281.173 240.84 281.4C240.44 281.627 239.953 281.74 239.38 281.74C238.833 281.74 238.353 281.633 237.94 281.42C237.54 281.207 237.207 280.92 236.94 280.56C236.687 280.2 236.493 279.793 236.36 279.34C236.24 278.873 236.18 278.4 236.18 277.92ZM244.18 283V268.72H242.48V274.04H242.44C242.253 273.733 242.02 273.48 241.74 273.28C241.473 273.067 241.187 272.9 240.88 272.78C240.573 272.647 240.267 272.553 239.96 272.5C239.653 272.447 239.367 272.42 239.1 272.42C238.313 272.42 237.62 272.567 237.02 272.86C236.433 273.14 235.94 273.527 235.54 274.02C235.153 274.5 234.86 275.067 234.66 275.72C234.473 276.373 234.38 277.067 234.38 277.8C234.38 278.533 234.48 279.227 234.68 279.88C234.88 280.533 235.173 281.107 235.56 281.6C235.96 282.093 236.453 282.487 237.04 282.78C237.64 283.073 238.34 283.22 239.14 283.22C239.86 283.22 240.52 283.093 241.12 282.84C241.72 282.587 242.16 282.173 242.44 281.6H242.48V283H244.18ZM253.976 276.84H248.036C248.062 276.44 248.149 276.067 248.296 275.72C248.442 275.36 248.642 275.047 248.896 274.78C249.149 274.513 249.449 274.307 249.796 274.16C250.156 274 250.556 273.92 250.996 273.92C251.422 273.92 251.809 274 252.156 274.16C252.516 274.307 252.822 274.513 253.076 274.78C253.342 275.033 253.549 275.34 253.696 275.7C253.856 276.06 253.949 276.44 253.976 276.84ZM255.616 279.72H253.936C253.789 280.4 253.482 280.907 253.016 281.24C252.562 281.573 251.976 281.74 251.256 281.74C250.696 281.74 250.209 281.647 249.796 281.46C249.382 281.273 249.042 281.027 248.776 280.72C248.509 280.4 248.316 280.04 248.196 279.64C248.076 279.227 248.022 278.793 248.036 278.34H255.776C255.802 277.713 255.742 277.053 255.596 276.36C255.462 275.667 255.209 275.027 254.836 274.44C254.476 273.853 253.989 273.373 253.376 273C252.776 272.613 252.016 272.42 251.096 272.42C250.389 272.42 249.736 272.553 249.136 272.82C248.549 273.087 248.036 273.46 247.596 273.94C247.169 274.42 246.836 274.987 246.596 275.64C246.356 276.293 246.236 277.013 246.236 277.8C246.262 278.587 246.376 279.313 246.576 279.98C246.789 280.647 247.102 281.22 247.516 281.7C247.929 282.18 248.436 282.553 249.036 282.82C249.649 283.087 250.369 283.22 251.196 283.22C252.369 283.22 253.342 282.927 254.116 282.34C254.889 281.753 255.389 280.88 255.616 279.72ZM257.478 272.66V283H259.178V278.4C259.178 277.733 259.244 277.147 259.378 276.64C259.511 276.12 259.724 275.68 260.018 275.32C260.311 274.96 260.698 274.687 261.178 274.5C261.658 274.313 262.238 274.22 262.918 274.22V272.42C261.998 272.393 261.238 272.58 260.638 272.98C260.038 273.38 259.531 274 259.118 274.84H259.078V272.66H257.478Z" fill="black"/>
</svg>
