<svg width="446" height="411" viewBox="0 0 446 411" fill="none" xmlns="http://www.w3.org/2000/svg">
<g clip-path="url(#clip0_223_4236)">
<path opacity="0.3" d="M394 183.143C394 281.697 331.451 375.692 197 361.59C62.549 347.488 0 281.697 0 183.143C0 84.5896 84.178 33.443 197 4.69616C309.822 -24.0506 394 84.5896 394 183.143Z" fill="#9966FF"/>
<mask id="mask0_223_4236" style="mask-type:alpha" maskUnits="userSpaceOnUse" x="0" y="0" width="394" height="364">
<path d="M394 183.184C394 281.759 331.451 375.776 197 361.67C62.5489 347.565 0 281.759 0 183.184C0 84.6084 84.178 33.4504 197 4.69721C309.822 -24.056 394 84.6084 394 183.184Z" fill="#9966FF"/>
</mask>
<g mask="url(#mask0_223_4236)">
<path d="M45.6594 209.035L48.3096 209.918C50.0704 210.542 52.0922 210.198 53.8302 210.884C54.7635 211.251 55.2151 212.369 56.0709 212.893C59.6482 215.082 64.9541 215.403 68.8481 217.067C73.2749 218.959 77.3612 219.783 81.9649 221.432C85.6828 222.764 89.2014 224.673 93.0087 225.723C98.9501 227.36 106.631 226.955 112.795 227.419C113.923 227.456 114.647 227.891 115.112 228.434C115.642 228.963 116.031 229.766 115.937 230.983C115.855 232.055 115.451 232.753 114.943 233.205L114.472 234.369C110.811 236.78 108.404 240.292 105.017 243.008C104.636 243.314 100.377 246.107 99.7165 246.542C98.1514 248.076 96.0895 249.005 94.2528 250.201C92.3156 251.463 90.9286 253.922 89.1156 255.376C84.9458 258.72 80.0511 261.438 75.6018 264.405C73.2115 265.998 70.8275 268.324 68.4386 269.767C67.7306 270.194 66.7011 269.945 66.0576 270.465C65.2314 271.132 65.1281 272.462 64.2908 273.115C63.3885 273.818 62.105 273.823 61.0852 274.342C58.7886 275.509 56.7383 277.108 54.5422 278.456C54.392 278.558 54.2264 278.654 54.044 278.746C53.0767 279.229 52.2673 279.239 51.6158 279.033C50.9556 278.857 50.2782 278.414 49.7218 277.487C49.6057 277.294 49.5107 277.106 49.4345 276.923L48.5363 275.063C47.938 273.188 47.5256 271.214 47.5256 269.246C46.5193 266.407 46.1407 264.084 45.7409 261.169C45.2827 257.83 43.5866 254.807 43.0906 251.452C42.9676 250.62 43.2435 249.758 43.1086 248.928C42.1397 242.961 39.6659 237.234 38.6916 231.26C38.5951 230.668 38.6872 224.186 38.6736 224.066C38.5363 222.86 37.956 221.735 37.7902 220.533C37.4903 218.357 37.7654 216.14 37.7654 213.944C37.7654 213.944 37.7654 210.631 41.0782 210.631C41.2814 210.631 41.4721 210.644 41.6512 210.667C42.8389 208.094 45.6594 209.035 45.6594 209.035L45.6594 209.035Z" fill="white"/>
<path d="M120.498 227.945C122.841 230.287 120.498 232.63 120.498 232.63L118.818 234.262C114.775 237.295 111.791 241.122 107.883 244.337C99.6646 251.1 90.7001 257.179 81.5759 262.63C78.7653 264.729 76.5592 267.487 73.5184 269.325C68.6118 272.29 63.8154 275.472 58.8235 278.229C56.1595 279.7 52.4345 282.007 49.1594 279.851C47.9694 279.068 47.6907 277.406 47.0574 276.13C44.8124 271.606 43.8946 265.835 42.8994 260.92C42.6034 259.1 41.8681 257.371 41.5628 255.553C41.0721 252.632 41.0806 249.528 40.6614 246.593C38.957 234.662 37.5447 222.979 37.5447 210.852C37.5447 210.852 37.5447 207.539 40.8575 207.539C44.1702 207.539 44.1702 210.852 44.1702 210.852C44.1702 227.42 46.6669 243.564 49.4164 259.726C50.212 263.767 51.2581 267.813 52.4253 271.747C52.5945 272.317 53.1021 273.136 53.173 273.724C53.4716 273.689 53.8137 273.778 54.0815 273.642C54.6496 273.354 55.0216 272.764 55.5775 272.453C57.5758 271.335 59.2268 270.182 61.201 268.989C64.1484 267.208 67.0739 265.451 70.0351 263.689C72.9824 261.935 75.1561 259.181 77.8789 257.132C86.8293 251.742 95.5744 245.804 103.693 239.205C107.681 235.964 110.705 232.065 114.843 228.962L115.813 227.945C115.813 227.945 118.156 225.602 120.498 227.945V227.945Z" fill="white"/>
<path d="M48.3096 210.212C50.0704 210.837 52.0923 210.493 53.8302 211.178C54.7635 211.546 55.2152 212.664 56.0709 213.187C59.6482 215.376 64.9541 215.698 68.8481 217.362C73.2749 219.253 77.3612 220.077 81.9649 221.727C85.6828 223.059 89.2014 224.967 93.0087 226.017C98.9501 227.655 106.631 227.249 112.795 227.713C113.923 227.751 114.647 228.186 115.113 228.728C115.642 229.257 116.031 230.06 115.937 231.277C115.855 232.35 115.451 233.047 114.943 233.5L114.472 234.663C110.811 237.074 108.404 240.587 105.017 243.303C104.636 243.608 100.377 246.401 99.7165 246.836C98.1514 248.371 96.0895 249.299 94.2528 250.496C92.9861 251.321 91.9547 252.658 90.8855 253.891C89.969 253.527 89.0462 253.184 88.1134 252.875C85.1801 251.908 82.1672 251.185 79.2316 250.21C76.3315 249.246 73.3471 248.221 70.3331 247.705C68.0065 245.878 64.36 245.679 61.768 244.287C59.146 242.88 55.7779 242.319 52.9052 241.488C49.9128 240.623 47.1787 239.304 44.152 238.532C42.8362 238.196 41.4077 237.64 39.9816 237.202C39.4642 235.334 39.0019 233.456 38.6916 231.554C38.5951 230.963 38.6873 224.481 38.6736 224.361C38.6464 224.122 38.6019 223.886 38.5466 223.653C42.6241 223.432 42.6241 219.245 42.6241 219.245C42.6241 216.008 42.7553 212.783 42.8749 209.563C44.1502 208.826 45.6594 209.329 45.6594 209.329L48.3096 210.212Z" fill="#FF8B50"/>
<path d="M120.498 228.239C122.84 230.582 120.498 232.924 120.498 232.924L118.818 234.557C114.775 237.589 111.791 241.416 107.883 244.632C103.387 248.331 98.6683 251.826 93.8222 255.125C91.9396 254.301 90.0482 253.516 88.1133 252.875C87.4547 252.658 86.7921 252.453 86.1272 252.255C92.1885 248.293 98.0898 244.054 103.692 239.5C107.681 236.258 110.705 232.359 114.843 229.256L115.813 228.239C115.813 228.239 118.155 225.897 120.498 228.239H120.498Z" fill="#FF8B50"/>
<path d="M120.12 130.105L119.925 130.366C119.031 131.557 118.137 132.749 117.243 133.94C115.252 136.429 113.4 139.135 111.147 141.396C109.028 143.522 106.293 145.225 104.426 147.643C95.2805 159.486 83.0793 169.094 72.3946 179.711C72.1094 180.116 71.6808 180.497 71.0521 180.812C71.0049 180.835 70.958 180.858 70.9115 180.879C70.4083 181.126 69.7519 181.317 69.0277 181.194C68.302 181.081 67.7395 180.693 67.3402 180.3C67.3028 180.265 67.2655 180.229 67.2281 180.191C66.7225 179.686 66.4352 179.18 66.2954 178.698L65.6114 177.312C64.3766 174.225 62.814 171.391 61.5772 168.319C61.1684 166.783 60.3078 165.403 59.5979 163.981C57.6393 160.056 56.7224 155.774 55.0473 151.782C54.698 150.949 54.0002 150.29 53.6713 149.449C52.2112 145.717 52.0631 141.356 50.6087 137.596C50.2895 136.771 49.5729 136.14 49.2543 135.315C48.0467 132.188 47.9445 128.492 46.9454 125.295C46.6766 124.435 46.3712 123.583 46.0686 122.731C46.1235 122.066 46.1577 121.402 46.1577 120.745C46.1577 118.655 46.1577 116.565 46.1577 114.475C46.4904 114.291 46.8938 114.149 47.3825 114.068C49.0794 113.785 50.042 114.53 50.5753 115.312C50.7585 115.328 50.9408 115.345 51.122 115.364C52.8589 115.542 54.4871 116.299 56.1566 116.81C57.1462 117.113 60.6999 117.519 61.204 117.629C66.5702 118.795 72.0242 120.586 77.3245 122.101C85.9009 124.559 94.5029 124.623 103.358 124.623C107.498 124.623 112.13 125.341 115.983 123.8L116.873 123.781C117.59 123.301 118.678 122.914 119.964 123.569C120.078 123.433 120.211 123.304 120.364 123.182C120.364 124.726 120.364 126.269 120.364 127.812C120.364 128.543 120.364 129.273 120.364 130.004C120.282 130.042 120.2 130.075 120.12 130.105Z" fill="#FCE950"/>
<path d="M72.3948 179.711C72.1097 180.116 71.6811 180.497 71.0524 180.812C71.0051 180.835 70.9583 180.858 70.9118 180.879C70.4086 181.126 69.7521 181.317 69.028 181.194C68.3022 181.081 67.7397 180.693 67.3404 180.3C67.3031 180.265 67.2657 180.229 67.2284 180.191C66.7227 179.686 66.4354 179.18 66.2957 178.698L65.6116 177.312C64.3768 174.225 62.8142 171.391 61.5774 168.319C61.1687 166.783 60.308 165.403 59.5982 163.981C57.7293 160.236 56.8089 156.166 55.2732 152.332C56.7121 152.353 58.1479 152.413 59.5889 152.583C62.7014 152.949 65.6365 153.408 68.6705 154.197C71.6651 154.977 74.6573 155.755 77.6671 156.473C80.6747 157.19 83.6822 157.908 86.6898 158.625C88.8361 159.137 90.9807 159.656 93.1299 160.155C86.3721 166.809 79.0861 173.062 72.3948 179.711Z" fill="#48C8FF"/>
<path d="M120.531 129.923C120.393 129.995 120.255 130.055 120.12 130.105L119.925 130.366C119.031 131.557 118.137 132.749 117.243 133.94C115.252 136.429 113.401 139.135 111.147 141.396C109.804 142.744 108.213 143.922 106.753 145.22C104.521 144.763 102.292 144.296 100.065 143.815C97.0028 143.153 94.0291 142.56 90.9095 142.259C87.7789 141.956 84.8576 141.612 81.8184 140.793C78.8353 139.989 75.7997 139.301 72.7701 138.696C69.726 138.087 66.5592 138.26 63.5955 137.655C60.5858 137.048 57.6269 136.156 54.7388 135.088C52.7143 134.636 50.8602 134.374 48.8952 134.27C48.0138 131.385 47.8353 128.143 46.9455 125.295C46.5641 124.074 46.1088 122.871 45.6927 121.658C45.622 121.653 45.5512 121.649 45.4805 121.644C45.8375 120.003 46.1578 118.368 46.1578 116.769C46.1578 116.769 46.1578 116.652 46.0725 116.588C46.335 115.819 46.5473 115.05 46.5923 114.275C46.8272 114.187 47.0896 114.116 47.3826 114.068C49.0795 113.785 50.0421 114.53 50.5754 115.312C50.7586 115.328 50.9409 115.345 51.1221 115.364C52.859 115.542 54.4872 116.299 56.1567 116.81C57.1463 117.113 60.7 117.519 61.204 117.629C66.5703 118.795 72.0243 120.586 77.3246 122.101C85.901 124.559 94.503 124.623 103.358 124.623C107.498 124.623 112.13 125.341 115.983 123.8L116.873 123.781C117.547 123.33 118.548 122.961 119.733 123.461C119.933 124.437 120.125 125.413 120.23 126.387C120.368 127.657 120.505 128.927 120.642 130.196C120.605 130.105 120.568 130.014 120.531 129.923H120.531Z" fill="#FF5AE1"/>
<path d="M194.171 233.436L194.129 233.379L194.748 232.915C194.818 232.348 195.075 231.741 195.649 231.146C195.685 230.764 195.797 230.364 196.03 229.973C196.373 229.304 196.914 228.902 197.441 228.661C197.441 229.939 197.441 231.217 197.441 232.496C197.441 234.438 197.273 236.352 197.145 238.267C195.662 241.521 193.743 244.378 192.132 247.612C191.462 248.956 190.78 250.307 190.083 251.658C187.041 248.637 182.275 249.137 177.262 248.023C171.867 246.824 165.458 248.934 160.183 248.293C148.428 246.863 137.344 243.714 125.345 243.974C125.23 243.692 125.109 243.413 124.983 243.136C123.23 239.291 121.226 235.486 119.639 231.549C119.639 231.549 118.818 229.498 120.869 228.678C121.382 228.473 121.818 228.448 122.184 228.525C122.694 227.352 123.863 226.533 125.223 226.533H127.431C138.006 226.533 148.422 228.124 158.957 228.745C164.865 229.094 171.272 228.981 177.092 230.127C179.773 230.655 182.54 230.936 185.095 231.905C185.532 232.07 186.024 232.201 186.521 232.337V232.337C186.975 231.608 187.793 230.95 189.27 230.95C190.935 230.95 191.763 231.786 192.175 232.619C192.901 232.628 193.567 232.81 194.06 233.292C194.098 233.329 194.13 233.379 194.156 233.439C194.161 233.438 194.166 233.437 194.171 233.436Z" fill="#FF0000"/>
<path d="M199.68 228.3C206.511 228.306 213.534 228.566 220.304 227.874C226.587 227.232 232.498 225.284 238.856 224.782C243.136 224.444 247.046 222.616 251.344 222.564C253.146 222.338 257.535 221.576 260.239 222.288C260.755 221.233 261.39 220.253 262.141 219.876C262.332 219.78 262.528 219.693 262.725 219.613L262.655 219.496L264.817 218.199C265.325 217.882 265.925 217.699 266.568 217.699C268.398 217.699 269.881 219.182 269.881 221.011C269.881 221.257 269.854 221.497 269.803 221.728L269.421 223.639C269.375 225.3 268.871 226.926 268.433 228.53C266.684 234.93 265.201 241.285 262.561 247.456C261.934 248.979 260.995 250.355 260.18 251.787C258.141 255.373 257.642 259.925 255.81 263.627C255.493 264.266 254.812 264.681 254.517 265.33C252.092 270.666 251.68 275.999 248.016 280.862C246.824 282.445 244.623 288.034 243.137 288.545C238.481 290.149 233.925 283.843 231.673 280.862C229.799 278.363 228.06 275.728 226.171 273.226C224.458 271.318 222.769 269.382 221.09 267.444C220.051 266.388 219.016 265.328 218.069 264.19C215.285 260.845 212.79 256.971 210.39 253.362C209.75 252.401 209.096 251.453 208.433 250.515C206.861 248.738 205.158 247.079 203.586 245.306C201.479 242.931 199.608 240.384 197.61 237.923C197.735 236.123 197.883 234.321 197.883 232.496C197.883 231.153 197.883 229.809 197.883 228.466C198.559 228.191 199.162 228.177 199.68 228.3Z" fill="#73D6FF"/>
<path d="M340.439 193.555C340.614 193.818 340.747 194.072 340.845 194.317L341.657 192.963C342.694 194.828 344.069 196.545 344.829 198.532L344.97 198.484C344.97 198.63 344.97 198.775 344.968 198.92C344.969 198.922 344.97 198.924 344.97 198.926C345.389 200.183 344.97 201.576 344.97 202.902C344.97 207.063 345.303 211.654 344.493 215.75C344.182 217.325 343.479 218.803 343.132 220.37C341.46 227.929 341.001 235.614 339.616 243.252C338.706 248.266 337.014 253.321 337.003 258.441C336.349 261.823 336.256 268.17 332.239 269.601C328.037 271.099 327.426 268.746 325.043 266.91C323.744 265.909 322.172 265.318 320.816 264.397C317.258 261.983 314.301 258.206 311.399 255.065C307.656 251.012 303.317 247.672 299.784 243.43C298.316 241.667 296.973 239.848 295.572 238.067C294.325 236.876 293.066 235.702 291.783 234.557C286.58 229.909 281.991 224.334 277.035 219.379C277.035 219.379 275.086 217.429 276.521 215.309L276.185 214.827C276.8 214.521 277.417 214.231 278.035 213.954C278.117 213.913 278.199 213.877 278.28 213.845C284.745 210.988 291.385 209.537 298.182 207.276C299.199 206.938 301.765 205.745 302.693 205.478C304.718 204.897 306.874 204.821 308.872 204.155C312.194 203.047 315.355 201.209 318.356 199.592C322.78 197.208 328.248 195.638 333.009 194.049C333.715 193.766 334.421 193.483 335.127 193.2L335.845 192.636C335.845 192.636 338.601 190.799 340.439 193.555V193.555Z" fill="#FF00D2"/>
<path d="M349.737 186.844L351.154 184.792C358.277 179.449 366.17 175.983 373.24 170.657C375.274 169.137 377.458 167.985 379.563 166.583C382.852 164.391 385.53 161.473 388.731 159.149C391.436 157.186 394.327 155.733 396.909 153.578C399.346 151.545 402.887 145.05 406.615 145.734C408.399 146.062 409.619 147.945 410.532 149.513C412.174 152.332 410.817 153.207 411.201 155.676C411.629 158.429 412.026 161.127 412.497 163.876C416.578 184.281 413.871 205.801 413.875 226.503C413.963 226.994 413.93 227.571 413.706 228.243C413.69 228.293 413.672 228.342 413.655 228.39C413.473 228.92 413.144 229.519 412.545 229.945C411.952 230.378 411.28 230.501 410.719 230.505C410.668 230.507 410.616 230.508 410.563 230.508C409.783 230.508 409.187 230.324 408.731 230.043L407.534 229.594C406.119 228.728 404.5 228.253 402.995 227.555C400.678 226.48 398.679 224.717 396.491 223.41C390.619 219.874 385.039 216.143 379.474 212.215C375.492 209.404 370.65 207.58 366.651 204.696C361.331 200.859 356.239 195.295 349.886 193.235C349.886 193.235 346.743 192.187 347.791 189.044C348.204 187.806 348.942 187.218 349.685 186.961C349.717 186.885 349.737 186.844 349.737 186.844V186.844Z" fill="#4086FF"/>
<path d="M-24.2939 170.878C-21.8566 170.878 -21.2125 172.671 -21.0423 173.619C-18.1538 176.374 -15.0583 178.773 -12.234 181.566C-11.2353 182.564 -10.5283 183.924 -9.3012 184.624C-8.49216 185.085 -7.44644 185.023 -6.65097 185.507C-4.28324 186.948 -2.45438 189.364 0.130135 190.65C1.05998 191.112 2.1781 191.153 3.06651 191.691C4.61486 192.628 5.65809 194.316 7.28418 195.111C11.321 197.084 15.7703 198.197 19.6471 200.409C23.8259 202.793 27.8212 206.22 32.9065 206.217C33.6129 206.138 34.5024 206.235 35.2638 206.922C35.7707 207.299 36.212 207.876 36.3742 208.761C36.6247 209.624 36.4882 210.338 36.2033 210.902C35.6781 212.244 34.4054 212.656 33.6723 212.783C31.3819 215.041 28.7141 216.922 25.9563 218.576C24.0592 219.714 21.6786 219.932 19.8513 221.179C18.8827 221.84 18.3535 223.021 17.3964 223.699C15.2468 225.221 12.465 225.691 10.3292 227.232C9.37126 227.924 8.75376 229.006 7.84221 229.757C5.89739 231.36 3.43691 232.211 1.29971 233.547C-5.67893 237.908 -12.9734 242.16 -19.8061 246.736C-19.8061 246.736 -22.5625 248.574 -24.4001 245.818C-26.2377 243.061 -23.4813 241.224 -23.4813 241.224C-15.4737 235.907 -6.9265 230.798 1.42896 226.097C3.33912 225.022 4.6666 223.124 6.45516 221.857C8.60446 220.335 11.3862 219.864 13.5224 218.324C14.5981 217.548 15.2583 216.269 16.368 215.543C17.2943 214.937 18.4755 214.855 19.4921 214.417C21.4922 213.556 23.4116 212.516 25.1906 211.279C23.4103 210.635 21.6929 209.828 20.1058 208.928C18.8251 208.201 17.8501 207.009 16.5722 206.278C12.7025 204.063 8.20752 203.013 4.19969 200.975C2.45157 200.086 1.27031 198.327 -0.416712 197.327C-1.12578 196.907 -2.04425 196.972 -2.78078 196.602C-5.53131 195.219 -7.62238 192.625 -10.1342 191.143C-10.9362 190.67 -11.994 190.752 -12.7844 190.26C-13.2017 190 -16.3413 186.828 -16.9189 186.251C-19.973 183.151 -23.5136 180.539 -26.6364 177.417L-27.6067 174.191C-27.6067 174.191 -27.6067 170.878 -24.2939 170.878L-24.2939 170.878Z" fill="#FF00D2"/>
<path d="M-6.35179 190.848C-5.05887 190.73 -3.75792 190.537 -2.50173 190.788C2.0039 191.688 6.35318 194.384 10.3871 196.401C11.3931 196.904 16.0279 199.174 16.5538 199.674C17.2705 200.355 17.2227 201.589 17.8802 202.327C19.1849 203.792 21.8714 203.081 23.4377 204.262C23.5015 204.31 23.5646 204.359 23.6269 204.409L23.6515 204.359L26.2402 205.654C27.3607 206.185 28.1356 207.326 28.1356 208.649C28.1356 210.479 26.6524 211.962 24.8228 211.962H23.2207C20.5834 214.971 17.1511 216.957 14.1526 219.668C13.1657 219.705 12.1094 219.413 11.192 219.778C9.87171 220.304 8.98407 221.61 7.70815 222.236C6.69852 222.732 5.34051 222.411 4.4439 223.09C3.71388 223.642 3.94066 224.939 3.28941 225.582C1.83996 227.015 -0.492823 227.493 -1.67137 229.156C-3.15259 231.246 -4.37033 233.651 -6.40113 235.212C-7.96885 236.417 -10.0756 236.748 -11.7069 237.865C-12.3518 238.307 -12.8896 238.997 -13.4449 239.626C-13.5734 239.836 -13.7397 240.021 -13.9543 240.173C-13.9589 240.176 -13.9634 240.18 -13.968 240.183C-14.3933 240.597 -14.8489 240.927 -15.3845 241.05C-21.426 244.134 -23.4773 236.822 -23.5889 232.525C-23.5889 228.18 -23.7364 224.049 -24.1005 219.866C-24.8318 218.114 -25.7483 216.425 -26.182 214.581C-26.5336 213.087 -26.6421 211.458 -26.2417 209.975V207.322C-26.2417 205.493 -24.7586 204.01 -22.929 204.01C-22.2174 204.01 -21.5583 204.234 -21.0184 204.616C-21.3647 202.988 -21.7346 201.476 -22.0567 200.513C-22.4127 199.449 -23.2745 198.571 -23.5003 197.472C-23.7826 196.097 -23.3142 194.646 -23.5461 193.262C-23.5551 193.208 -23.5651 193.155 -23.5759 193.101C-24.1502 192.615 -24.5726 191.978 -24.7453 191.126C-24.9077 190.325 -24.9636 189.608 -24.9279 188.967C-25.2852 186.72 -24.9153 184.401 -24.9153 182.12C-24.9153 182.12 -24.9153 178.807 -21.6025 178.807C-18.2898 178.807 -18.2898 182.12 -18.2898 182.12C-18.2898 182.705 -18.3279 183.293 -18.3723 183.882C-16.2182 183.695 -13.9587 183.905 -12.3175 184.113C-10.6347 184.327 -8.52152 183.884 -7.3221 185.083C-6.12268 186.283 -6.67525 188.414 -6.35181 190.079L-6.35179 190.848Z" fill="#FF00D2"/>
<path d="M196.79 124.73L195.677 126.169C194.809 126.702 194.259 127.712 193.927 128.676C189.551 134.59 186.515 141.44 182.259 147.518C179.754 151.096 176.789 154.4 174.377 158.018C172.588 160.702 171.304 163.82 169.465 166.49C166.531 170.749 163.09 174.313 160.47 178.836C160.399 178.97 160.319 179.106 160.226 179.245C159.622 180.15 158.919 180.56 158.248 180.702C157.583 180.875 156.771 180.823 155.826 180.283C155.61 180.16 155.42 180.03 155.252 179.894L153.802 178.866C153.213 178.277 152.624 177.688 152.035 177.099C148.606 173.649 145.72 169.593 142.87 165.67C139.807 161.454 135.84 157.991 133.036 153.574C130.52 149.611 128.549 145.11 126.287 140.997C124.325 137.429 122.332 134.18 120.806 130.587C120.806 129.662 120.806 128.737 120.806 127.812C120.806 126.171 120.806 124.531 120.806 122.89C121.052 122.754 121.337 122.636 121.665 122.542C123.226 122.096 124.241 122.634 124.87 123.298C131.686 123.298 138.503 123.298 145.32 123.298C153.073 123.298 160.8 123.51 168.404 121.989C174.828 121.979 180.634 119.937 186.823 118.913C190.051 118.379 193.395 118.173 196.777 118.126C196.778 118.424 196.78 118.722 196.783 119.019C197.546 120.974 198.058 122.795 198.325 124.715C197.812 124.717 197.3 124.721 196.79 124.73Z" fill="#4086FF"/>
<path d="M223.877 117.595C226.979 117.164 229.869 115.686 232.911 114.992C237.945 113.842 242.876 112.801 247.877 111.471C253.43 109.994 259.347 109.365 264.675 107.192L267.231 106.955C267.231 106.955 268.024 106.955 268.834 107.344C269.442 106.566 270.801 105.366 272.911 106.422L272.911 106.422C275.874 107.903 274.392 110.866 274.392 110.866L274.236 110.918C273.868 112.747 273.395 114.555 272.882 116.349C271.765 121.802 269.225 126.488 266.943 131.502C263.246 139.62 260.232 147.98 256.795 156.21C255.425 159.492 253.517 163.114 251.791 166.221C251.254 167.186 250.542 168.129 250.384 169.223C250.384 169.223 249.735 172.471 246.486 171.821C244.85 171.494 244.203 170.508 243.963 169.609L243.823 169.456C240.15 166.682 237.362 163.019 233.901 160.014C229.961 156.593 225.38 153.618 222.071 149.5C220.255 147.241 218.838 144.659 216.862 142.538C213.454 138.879 209.609 135.677 206.519 131.717C204.471 129.093 203.959 127.634 202.7 124.774C201.393 124.741 200.086 124.717 198.782 124.715C198.527 122.758 198.022 120.894 197.217 118.936C197.219 118.664 197.221 118.392 197.223 118.121C202.919 118.065 208.712 118.439 214.226 118.439H214.754C217.792 118.217 220.825 118.019 223.877 117.595L223.877 117.595Z" fill="#FF00D2"/>
<path d="M45.6927 121.658C45.1688 121.622 44.6452 121.582 44.1243 121.535C42.0008 124.234 39.5545 125.785 36.5673 127.564C34.3346 129.361 31.812 130.95 29.6475 132.756C24.9307 136.69 20.7277 141.345 16.1254 145.423C14.5533 146.815 12.7206 147.883 11.0393 149.142C6.83732 152.288 3.19972 156.119 -0.698223 159.591C-2.46708 161.167 -4.5779 162.272 -6.47065 163.694C-6.81277 164.078 -7.30492 164.415 -8.00502 164.648C-8.01229 164.651 -8.01955 164.653 -8.02681 164.656C-8.57069 164.856 -9.2753 164.982 -10.0124 164.756C-10.7541 164.545 -11.2773 164.057 -11.6251 163.593C-11.6299 163.587 -11.6347 163.581 -11.6395 163.575C-12.1328 162.958 -12.3615 162.371 -12.4238 161.834L-12.7428 160.83C-13.1869 158.525 -14.0447 156.465 -14.5196 154.152C-15.778 146.512 -17.9156 138.887 -19.7767 131.385C-20.3433 129.101 -21.0354 128.429 -21.5591 126.019C-22.4201 122.055 -22.4779 117.962 -23.3386 114.034C-24.144 110.359 -25.1507 106.983 -25.1748 103.201C-25.1748 103.201 -25.1748 99.8879 -21.862 99.8879C-21.6786 99.8879 -21.5053 99.8981 -21.3416 99.9173C-20.4569 99.8099 -19.7128 100.058 -19.7128 100.058C-16.3845 101.169 -13.0811 102.62 -9.70856 103.544C-3.95415 105.121 2.07054 105.967 7.70036 108.018C13.4135 110.099 18.8112 112.251 25.0615 112.272C29.029 113.065 32.9982 112.724 36.9875 113.155C38.6153 113.331 40.0994 114.202 41.7046 114.524C41.8334 114.55 41.9628 114.574 42.0929 114.598C42.555 114.303 44.1849 113.417 45.716 114.474C45.716 116.564 45.716 118.654 45.716 120.745C45.716 121.051 45.7086 121.358 45.6951 121.666C45.6943 121.663 45.6935 121.661 45.6927 121.658Z" fill="white"/>
<path d="M306.251 101.737C313.961 99.9767 320.586 96.1439 327.93 93.4645C335.933 90.5443 344.326 88.6728 352.223 85.5138C354.648 84.7043 356.989 83.7833 359.52 83.3917L360.651 82.4406C360.651 82.4406 361.157 82.0612 361.892 81.8549C362.595 81.261 363.673 80.8334 365.185 81.4688V81.4688C368.239 82.7523 366.956 85.8063 366.956 85.8063L366.55 86.7053C364.979 92.1325 363.639 97.9094 362.375 103.546C362.224 105.36 362.043 107.168 361.808 108.963C361.061 114.697 359.198 120.302 358.291 126.01C357.416 131.512 357.037 138.143 354.654 143.187C353.755 146.646 352.057 149.062 349.591 149.83C349.067 150.382 348.236 150.884 346.784 151.406C343.107 152.727 337.862 149.299 335.045 147.317C330.267 144.97 325.765 141.836 321.604 138.542C317.967 135.662 313.716 133.547 310.166 130.52C305.517 126.555 301.085 121.975 296.458 117.92C294.797 116.464 293.135 115.009 291.475 113.553C290.302 112.524 288.734 111.784 287.63 110.703C286.942 110.301 286.25 109.912 285.552 109.537L285.374 108.589L284.967 108.849L283.798 107.014C283.414 106.425 283.213 105.709 283.271 104.954C283.41 103.13 285.002 101.763 286.826 101.902C287.16 101.928 287.478 102.002 287.775 102.117C287.859 101.981 287.955 101.844 288.064 101.704C290.105 99.0957 292.714 101.138 292.714 101.138C293.323 101.615 293.938 102.095 294.556 102.578C298.484 102.629 302.375 102.622 306.251 101.737L306.251 101.737Z" fill="#73D6FF"/>
<path d="M394.325 71.6525C394.79 70.3909 396.052 69.7601 396.052 69.7601L397.112 69.2365C403.177 66.6714 409.318 64.7812 415.054 61.363C417.425 60.4559 421.355 59.4349 424.034 60.5812C427.13 60.7227 427.13 63.8891 427.13 63.8891V65.2142C427.13 68.6692 427.569 72.0434 427.556 75.4886C428.849 81.957 428.354 88.7969 428.881 95.3653C429.225 99.6553 430.668 103.535 430.206 107.944C429.873 111.113 428.555 117.213 425.449 118.893C422.071 120.72 420.376 118.949 417.806 117.589C414.949 116.077 412.526 113.962 409.536 112.794C406.827 111.177 404.408 108.888 401.585 107.494C399.976 106.699 398.259 106.005 396.911 104.82C393.354 101.693 390.163 98.119 386.442 95.2109C382.308 91.9796 377.515 89.3744 373.734 85.6296C372.65 84.5553 371.712 83.3178 370.51 82.3772C370.51 82.3772 367.923 80.3078 369.993 77.7209C370.742 76.7842 371.559 76.458 372.297 76.4231C372.962 74.2691 375.448 74.2691 375.448 74.2691C378.625 74.2691 382.124 74.8432 385.225 74.2912C388.191 73.7631 391 72.5704 393.904 71.7667C394.044 71.728 394.184 71.69 394.325 71.6525H394.325Z" fill="#FF5AE1"/>
<path d="M44.1243 121.535C42.0008 124.234 39.5545 125.785 36.5673 127.564C34.3346 129.361 31.812 130.95 29.6475 132.756C27.9702 134.155 26.3579 135.645 24.7695 137.168C23.0097 136.546 21.2742 135.776 19.7926 135.405C16.7532 134.654 13.8779 134.135 10.9384 133.136C7.98354 132.137 5.06874 131.29 2.11485 130.367C-0.808968 129.46 -3.71498 128.369 -6.65725 127.429C-9.60843 126.486 -12.6283 125.873 -15.5676 124.893C-17.7971 124.155 -19.768 123.763 -21.9887 123.651C-22.4745 120.44 -22.6484 117.184 -23.3386 114.034C-24.144 110.359 -25.1507 106.983 -25.1748 103.201C-25.1748 103.201 -25.1748 99.8879 -21.862 99.8879C-21.6786 99.8879 -21.5053 99.8981 -21.3416 99.9173C-20.4569 99.8099 -19.7128 100.058 -19.7128 100.058C-16.3845 101.169 -13.0811 102.62 -9.70856 103.544C-3.95415 105.121 2.07054 105.967 7.70036 108.018C13.4135 110.099 18.8112 112.251 25.0615 112.272C29.029 113.065 32.9982 112.724 36.9875 113.155C38.6153 113.331 40.0994 114.202 41.7046 114.524C41.8334 114.55 41.9628 114.574 42.0929 114.598C42.5751 114.29 44.329 113.339 45.9152 114.623C46.0165 114.554 46.1256 114.489 46.2431 114.429C46.2546 114.598 46.2429 114.763 46.1746 114.918C45.3727 116.74 44.4042 119.099 44.391 121.172C44.391 121.301 44.3903 121.43 44.3889 121.558C44.3006 121.551 44.2124 121.543 44.1243 121.535Z" fill="#FF9CED"/>
<path d="M16.1253 145.422C14.5532 146.815 12.7205 147.883 11.0392 149.142C6.83722 152.288 3.19962 156.119 -0.698322 159.591C-2.46718 161.167 -4.578 162.272 -6.47075 163.694C-6.81287 164.078 -7.30502 164.415 -8.00512 164.648C-8.01239 164.651 -8.01965 164.653 -8.02691 164.656C-8.57078 164.856 -9.2754 164.982 -10.0125 164.756C-10.7542 164.545 -11.2774 164.057 -11.6252 163.593C-11.63 163.587 -11.6348 163.581 -11.6396 163.575C-12.1329 162.958 -12.3616 162.371 -12.4239 161.834L-12.7429 160.83C-13.187 158.524 -14.0448 156.465 -14.5197 154.152C-15.5078 148.153 -17.0379 142.164 -18.5505 136.236C-16.6107 136.691 -14.453 136.921 -12.7102 137.501C-9.79446 138.472 -6.63755 138.544 -3.64688 139.279C-0.647015 140.016 2.41389 140.546 5.43542 141.192C8.48513 141.845 11.3552 142.669 14.4174 143.287C15.4777 143.5 16.554 143.776 17.6366 144.052C17.1369 144.515 16.6335 144.972 16.1252 145.422L16.1253 145.422Z" fill="#FF9CED"/>
<path d="M44.1243 121.535C42.3352 123.809 40.3169 125.268 37.939 126.735C36.8172 126.508 35.6941 126.299 34.5789 126.205C31.6391 125.664 28.5975 124.795 25.6366 124.055C22.7114 123.334 19.5511 122.452 16.5789 122.189C13.8365 121.027 10.4224 121.246 7.53378 120.521C4.73249 119.603 1.42662 118.466 -1.43246 118.294C-4.28162 118.2 -7.5545 116.868 -10.4783 116.489C-13.5041 116.105 -16.2122 113.986 -19.2681 113.788C-20.6913 113.27 -22.277 112.616 -23.7624 112.176C-24.4589 109.195 -25.1549 106.338 -25.1748 103.201C-25.1748 103.201 -25.1748 99.8879 -21.862 99.8879C-21.6786 99.8879 -21.5053 99.8981 -21.3416 99.9173C-20.4569 99.8099 -19.7128 100.058 -19.7128 100.058C-16.3845 101.169 -13.0811 102.62 -9.70856 103.544C-3.95415 105.121 2.07054 105.967 7.70036 108.018C13.4135 110.099 18.8112 112.251 25.0615 112.272C29.029 113.065 32.9982 112.724 36.9875 113.155C38.6153 113.331 40.0994 114.202 41.7046 114.524C41.8334 114.55 41.9628 114.574 42.0929 114.598C42.5751 114.29 44.329 113.339 45.9152 114.623C46.0165 114.554 46.1256 114.489 46.243 114.429C46.2546 114.598 46.2429 114.763 46.1745 114.918C45.3727 116.74 44.4042 119.099 44.391 121.172C44.391 121.301 44.3903 121.43 44.3889 121.558C44.3006 121.551 44.2124 121.543 44.1243 121.535L44.1243 121.535Z" fill="#73D6FF"/>
<path d="M-0.698446 159.591C-2.4673 161.167 -4.57813 162.272 -6.47087 163.694C-6.81299 164.078 -7.30515 164.415 -8.00525 164.648C-8.01252 164.651 -8.01978 164.653 -8.02703 164.656C-8.57091 164.856 -9.27552 164.982 -10.0126 164.756C-10.7543 164.545 -11.2775 164.057 -11.6253 163.593C-11.6301 163.587 -11.6349 163.581 -11.6397 163.575C-12.133 162.958 -12.3617 162.371 -12.424 161.834L-12.743 160.83C-13.1871 158.525 -14.0449 156.465 -14.5199 154.152C-14.7647 152.666 -15.0428 151.18 -15.3457 149.695C-13.3442 149.744 -11.4695 149.908 -9.42221 150.419C-6.42007 151.17 -3.44267 151.937 -0.482639 152.841C1.34959 153.4 3.12033 153.913 4.90899 154.381C3.03806 156.123 1.20071 157.899 -0.698446 159.591Z" fill="#73D6FF"/>
<path d="M405.927 64.3515C405.927 64.3515 358.675 84.5858 302.155 100.383C261.347 111.789 214.437 119.612 183.024 121.869C154.308 123.933 109.945 125.663 71.5955 120.582C12.8724 112.802 -37.1035 96.186 -37.1035 96.186" stroke="black" stroke-width="8" stroke-miterlimit="10" stroke-linecap="round"/>
<path d="M45.6594 209.329L48.3096 210.212C50.0704 210.837 52.0922 210.493 53.8302 211.178C54.7635 211.546 55.2151 212.664 56.0709 213.187C59.6482 215.376 64.9541 215.698 68.8481 217.362C73.2749 219.253 77.3612 220.077 81.9648 221.727C85.6828 223.059 89.2014 224.967 93.0087 226.017C98.9501 227.655 106.631 227.249 112.795 227.713C113.923 227.751 114.647 228.186 115.112 228.728C115.642 229.257 116.031 230.06 115.937 231.277C115.855 232.35 115.451 233.047 114.943 233.5L114.472 234.663C111.162 236.843 108.877 239.923 105.966 242.501C105.545 242.444 105.132 242.409 104.732 242.402C101.992 241.023 98.8481 240.46 95.896 239.676C92.9389 238.777 89.9827 237.874 87.0216 236.987C84.0589 236.1 81.0918 235.23 78.1223 234.366C75.1527 233.502 72.1364 232.806 69.152 231.994C66.1517 231.177 63.1541 230.513 60.1062 229.898C57.0838 229.288 54.0972 228.437 51.1053 227.692C50.0072 227.443 48.9252 227.156 47.8491 226.851C47.7844 226.797 47.6982 226.797 47.6982 226.797C47.6852 226.797 47.6723 226.797 47.6593 226.797C46.8503 226.565 46.0442 226.324 45.2366 226.082C44.3447 225.646 43.4624 225.117 42.578 224.821C41.6044 224.497 40.641 224.144 39.6829 223.774C39.2628 219.817 38.7963 215.86 38.6775 211.857C39.1674 211.33 39.9205 210.926 41.0781 210.926C41.2814 210.926 41.4721 210.938 41.6512 210.962C42.8389 208.389 45.6594 209.329 45.6594 209.329Z" fill="#F35100"/>
<path d="M120.498 228.239C122.841 230.582 120.498 232.924 120.498 232.924L118.818 234.557C115.305 237.192 112.592 240.427 109.377 243.339C107.801 242.811 106.182 242.428 104.732 242.402C103.734 241.9 102.683 241.506 101.607 241.17C102.307 240.618 103.002 240.061 103.693 239.5C107.681 236.258 110.705 232.36 114.843 229.256L115.813 228.239C115.813 228.239 118.156 225.897 120.498 228.239Z" fill="#F35100"/>
<path d="M37.9861 211.147C37.9861 211.147 37.9861 207.834 41.2989 207.834C44.6116 207.834 44.6116 211.147 44.6116 211.147C44.6116 216.081 44.8331 220.978 45.2168 225.849C44.4814 225.47 43.7512 225.066 43.0196 224.821C41.4642 224.303 39.9346 223.712 38.4116 223.096C38.1416 219.145 37.9861 215.17 37.9861 211.147L37.9861 211.147Z" fill="#F35100"/>
<path d="M182.259 147.518C179.754 151.096 176.789 154.4 174.377 158.018C172.588 160.702 171.304 163.82 169.465 166.489C166.531 170.749 163.09 174.313 160.47 178.836C160.4 178.969 160.319 179.106 160.226 179.245C159.622 180.15 158.92 180.56 158.248 180.702C157.583 180.875 156.771 180.823 155.826 180.283C155.61 180.16 155.42 180.029 155.252 179.894L153.802 178.866C153.213 178.277 152.624 177.688 152.035 177.099C148.606 173.649 145.72 169.593 142.87 165.669C139.807 161.454 135.841 157.991 133.036 153.574C132.426 152.613 131.848 151.621 131.291 150.61C132.825 150.46 134.376 150.409 135.898 150.308C138.932 150.104 142.108 149.981 145.149 149.974C148.23 149.966 151.258 149.09 154.337 148.808C157.421 148.501 160.471 147.976 163.53 147.627C166.441 147.264 169.988 147.378 172.767 146.606C175.565 145.81 179.065 146.544 181.978 146.272C182.384 146.234 182.787 146.193 183.188 146.152C182.885 146.611 182.575 147.066 182.259 147.518Z" fill="#FF20D6"/>
<path d="M182.259 147.518C180.857 149.521 179.31 151.438 177.798 153.372C177.524 153.381 177.25 153.392 176.977 153.405C174.237 154.203 170.668 153.947 167.781 154.19C164.697 154.449 161.621 154.751 158.544 155.085C155.455 155.421 152.416 155.418 149.31 155.419C146.221 155.421 143.162 156.007 140.062 156.007C138.292 156.007 136.522 156.007 134.751 156.007C134.147 155.223 133.57 154.416 133.036 153.574C131.369 150.949 129.942 148.087 128.51 145.259C130.005 145.259 131.5 145.259 132.995 145.259C136.087 145.259 139.179 145.259 142.271 145.259C145.364 145.259 148.457 145.259 151.551 145.259C154.642 145.145 157.747 145.105 160.83 144.858C163.923 144.611 166.978 144.4 170.081 144.378C173.174 144.098 176.228 144.081 179.333 144.081C181.105 144.081 182.861 143.985 184.618 143.903C183.865 145.129 183.085 146.338 182.259 147.518V147.518Z" fill="#8D41FF"/>
<path d="M75.6015 264.699C73.2111 266.293 70.8271 268.619 68.4382 270.061C67.7302 270.489 66.7008 270.24 66.0572 270.759C65.2311 271.426 65.1277 272.757 64.2904 273.409C63.3881 274.113 62.1046 274.117 61.0848 274.636C58.7882 275.804 56.738 277.403 54.5418 278.751C54.3916 278.852 54.226 278.949 54.0436 279.04C53.0763 279.524 52.267 279.534 51.6155 279.328C50.9553 279.152 50.2778 278.709 49.7214 277.782C49.6053 277.588 49.5104 277.4 49.4341 277.217L48.5359 275.358C47.9376 273.483 47.5252 271.509 47.5252 269.541C46.5189 266.702 46.1404 264.379 45.7405 261.464C45.2824 258.125 43.5862 255.101 43.0903 251.746C42.9672 250.914 43.2431 250.053 43.1082 249.222C43.0783 249.038 43.0469 248.854 43.0142 248.67C44.0148 248.995 45.0086 249.391 46.048 249.8C48.9518 250.864 51.8374 251.974 54.7324 253.061C57.63 254.149 60.5452 255.176 63.4681 256.194C66.3773 257.207 69.2281 258.534 72.1572 259.444C74.82 260.27 77.4963 260.974 80.1767 261.77C78.631 262.74 77.0912 263.706 75.6015 264.699Z" fill="#FB69E0"/>
<path d="M81.5754 262.925C78.7648 265.023 76.5588 267.782 73.5179 269.619C68.6114 272.585 63.8149 275.767 58.8231 278.523C56.1591 279.994 52.434 282.301 49.159 280.145C47.969 279.362 47.6903 277.7 47.057 276.424C44.8119 271.9 43.8941 266.13 42.899 261.215C42.603 259.395 41.8677 257.666 41.5623 255.848C41.1386 253.325 41.0872 250.666 40.811 248.097C42.6004 248.428 44.2566 249.095 46.0481 249.8C46.645 250.019 47.2411 250.24 47.8367 250.462C48.3419 253.649 48.874 256.835 49.416 260.02C50.2115 264.061 51.2576 268.107 52.4248 272.041C52.594 272.611 53.1017 273.431 53.1725 274.019C53.4711 273.983 53.8132 274.072 54.0811 273.936C54.6492 273.648 55.0212 273.058 55.5771 272.747C57.5753 271.63 59.2264 270.477 61.2006 269.284C64.1479 267.503 67.0734 265.746 70.0347 263.983C71.7668 262.952 73.2316 261.576 74.6978 260.201C76.8059 260.809 78.9206 261.383 81.0372 262.029C81.486 262.166 81.9348 262.303 82.3836 262.44C82.1144 262.602 81.845 262.764 81.5755 262.925H81.5754Z" fill="#FB69E0"/>
<path d="M64.2907 273.409C63.3885 274.113 62.1049 274.117 61.0851 274.636C58.7886 275.804 56.7383 277.403 54.5421 278.751C54.392 278.852 54.2264 278.949 54.0439 279.04C53.0767 279.524 52.2673 279.534 51.6158 279.328C50.9556 279.152 50.2781 278.709 49.7217 277.782C49.6057 277.588 49.5107 277.4 49.4344 277.217L48.5362 275.358C47.9379 273.483 47.5256 271.509 47.5256 269.541C46.886 267.736 46.5 266.14 46.2009 264.469C46.3726 264.519 46.5462 264.564 46.722 264.602C49.6384 265.654 52.3938 267.017 55.351 267.952C58.3038 268.886 61.2209 269.896 64.1982 270.753C64.6835 270.892 65.1733 271.038 65.6664 271.185C65.1686 271.892 64.9742 272.876 64.2907 273.409Z" fill="#DF14BA"/>
<path d="M58.8232 278.523C56.1592 279.994 52.4342 282.301 49.1591 280.145C47.9691 279.362 47.6904 277.7 47.0571 276.424C45.1074 272.495 44.1587 267.627 43.291 263.194C44.4063 263.747 45.512 264.342 46.7219 264.602C48.1127 265.104 49.4668 265.676 50.8237 266.239C51.319 268.191 51.8576 270.129 52.4249 272.041C52.5941 272.611 53.1018 273.431 53.1726 274.019C53.4712 273.983 53.8133 274.072 54.0812 273.936C54.6493 273.648 55.0213 273.058 55.5772 272.747C57.37 271.745 58.8832 270.714 60.6012 269.651C61.7945 270.033 62.9913 270.405 64.1981 270.753C65.8478 271.227 67.5503 271.769 69.2538 272.248C65.8026 274.401 62.362 276.569 58.8232 278.523H58.8232Z" fill="#DF14BA"/>
<path d="M417.305 136.683C417.305 136.683 367.282 184.973 307.042 205.563C266.947 219.267 215.431 231.1 183.938 230.88C155.148 230.679 106.808 230.242 70.3026 218.183C12.373 205.809 -32.1624 162.766 -32.1624 162.766" stroke="black" stroke-width="8" stroke-miterlimit="10" stroke-linecap="round"/>
<path d="M137.854 241.549C140.987 241.553 143.968 241.986 147.075 241.992C150.109 241.994 153.308 241.707 156.315 242.107C159.374 242.513 162.493 242.84 165.581 242.864C168.691 242.887 171.583 243.492 174.691 243.907C177.758 244.317 180.798 244.598 183.726 245.272C186.596 245.933 189.586 246.253 192.488 246.912C192.368 247.143 192.249 247.376 192.132 247.612C190.229 251.43 188.226 255.308 186.069 259.075C181.861 258.704 176.664 261.113 172.335 260.833C161.576 260.135 151.083 256.11 140.309 254.907C136.734 254.508 132.207 252.495 128.161 252.704C128.098 252.518 128.035 252.331 127.972 252.144C126.982 249.182 126.296 246.014 124.983 243.136C124.54 242.164 124.081 241.195 123.616 240.225C123.957 240.225 124.298 240.225 124.639 240.225C125.658 240.328 126.658 240.462 127.672 240.555C127.899 240.684 128.171 240.667 128.756 240.667H128.756C131.833 240.667 134.765 241.513 137.854 241.549Z" fill="#FF6519"/>
<path d="M181.86 265.921C179.433 269.969 176.778 273.803 174.364 277.827C168.9 286.933 163.967 295.717 155.272 302.275C155.268 302.278 155.263 302.282 155.259 302.285C154.645 302.745 154.085 302.832 153.615 302.75C153.14 302.697 152.627 302.457 152.167 301.843L150.842 300.076C147.252 295.29 144.035 290.541 141.356 285.161C139.529 281.49 138.603 277.626 136.495 274.114C133.588 266.893 130.437 259.52 127.972 252.144C127.851 251.782 127.735 251.416 127.621 251.048C129.387 251.135 131.134 251.268 132.91 251.268C136.002 251.268 139.094 251.268 142.186 251.268C144.861 251.268 148.652 251.272 151.297 251.956C154.169 252.682 157.509 252.734 160.525 252.739C163.477 252.722 166.583 253.628 169.668 253.623C172.708 254.124 175.816 254.437 178.897 254.488C181.91 254.538 185.079 254.804 188.101 255.139C188.148 255.145 188.195 255.15 188.243 255.155C186.257 258.844 184.146 262.484 181.86 265.921Z" fill="#FCE950"/>
<path d="M174.364 277.827C168.9 286.933 163.966 295.717 155.272 302.275C155.267 302.278 155.263 302.282 155.259 302.285C154.645 302.745 154.085 302.832 153.615 302.75C153.14 302.697 152.627 302.457 152.167 301.843L150.841 300.076C147.252 295.29 144.035 290.541 141.356 285.161C139.529 281.49 138.603 277.626 136.495 274.114C135.133 270.732 133.718 267.316 132.345 263.882C134.054 263.969 135.741 264.095 137.481 264.095C140.573 264.095 143.665 264.095 146.757 264.095C149.886 264.095 152.855 264.673 155.934 264.684C159.026 264.685 162.018 265.27 165.135 265.273C168.163 265.273 171.337 265.649 174.331 265.861C176.748 265.862 179.164 266.227 181.582 266.382C179.231 270.261 176.687 273.956 174.364 277.827Z" fill="#3AE651"/>
<path d="M174.363 277.827C168.9 286.933 163.966 295.717 155.272 302.275C155.267 302.278 155.263 302.281 155.258 302.285C154.645 302.745 154.084 302.832 153.614 302.75C153.14 302.697 152.627 302.457 152.166 301.843L150.841 300.076C147.252 295.29 144.035 290.541 141.356 285.161C139.851 282.138 138.957 278.984 137.512 276.003C138.868 276.003 140.225 276.003 141.581 276.003C144.673 276.003 147.765 276.003 150.857 276.003C153.948 276.003 157.04 276.003 160.132 276.003C163.224 276.003 166.316 276.003 169.408 276.003C171.432 276.003 173.456 276.003 175.48 276.003C175.103 276.608 174.731 277.215 174.363 277.827H174.363Z" fill="#4086FF"/>
<path d="M155.272 302.275C155.268 302.278 155.263 302.281 155.259 302.285C154.645 302.745 154.085 302.832 153.615 302.75C153.14 302.697 152.627 302.457 152.167 301.843L150.842 300.076C147.833 296.065 145.086 292.079 142.698 287.726C144.242 287.726 145.785 287.726 147.328 287.726C150.42 287.726 153.512 287.726 156.604 287.726C159.696 287.726 162.788 287.726 165.88 287.726C166.682 287.726 167.484 287.726 168.286 287.726C164.725 293.14 160.743 298.148 155.272 302.275Z" fill="#8D41FF"/>
<path d="M262.561 247.456C261.934 248.979 260.995 250.355 260.18 251.787C258.141 255.373 257.643 259.925 255.81 263.627C255.493 264.266 254.812 264.681 254.517 265.33C253.915 266.655 253.437 267.98 253.002 269.297C244.044 270.298 235.359 271.972 226.482 273.641C226.379 273.502 226.275 273.364 226.171 273.226C224.458 271.318 222.769 269.382 221.09 267.444C220.051 266.388 219.016 265.328 218.069 264.19C215.285 260.845 212.79 256.971 210.39 253.362C209.75 252.401 209.096 251.454 208.433 250.515C207.283 249.216 206.063 247.979 204.876 246.714C206.49 246.33 208.028 245.695 209.694 245.121C212.407 244.175 215.942 244.163 218.809 243.685C221.734 243.198 224.935 241.95 227.856 241.822C230.92 241.675 233.882 240.532 236.989 240.493C240.098 240.454 243.119 239.565 246.181 239.561C249.255 239.557 252.33 238.968 255.404 238.683C258.605 238.662 261.395 237.588 264.481 237.213C265.036 237.145 265.59 237.071 266.143 236.992C265.144 240.521 264.032 244.017 262.561 247.456H262.561Z" fill="#FF9CED"/>
<path d="M260.18 251.787C259.114 253.661 258.469 255.799 257.835 257.941C255.892 258.275 253.905 258.767 252.113 259.183C249.636 260.226 245.719 260.456 243.042 260.567C239.988 261.203 237.066 261.763 233.975 262.234C231.02 262.688 227.779 263.141 224.915 263.862C222.869 264.384 220.808 264.654 218.734 264.963C218.508 264.709 218.286 264.451 218.069 264.19C216.092 261.816 214.262 259.174 212.507 256.55C214.552 256.245 216.588 255.923 218.606 255.444C221.615 254.729 224.621 254.047 227.653 253.437C230.662 252.832 233.688 251.989 236.719 251.534C239.756 251.077 242.817 250.45 245.882 250.257C248.958 250.064 252.048 249.765 255.129 249.753C257.245 249.745 259.361 249.674 261.476 249.595C261.05 250.329 260.599 251.051 260.18 251.787Z" fill="white"/>
<path d="M413.875 226.503C413.963 226.994 413.931 227.571 413.706 228.243C413.69 228.293 413.672 228.342 413.655 228.39C413.473 228.92 413.144 229.519 412.545 229.945C411.952 230.378 411.28 230.501 410.72 230.505C410.668 230.507 410.616 230.508 410.564 230.508C409.784 230.508 409.187 230.324 408.731 230.043L407.534 229.594C406.12 228.728 404.5 228.253 402.996 227.555C400.678 226.48 398.679 224.718 396.492 223.41C390.619 219.874 385.039 216.143 379.474 212.215C375.627 209.499 370.977 207.704 367.06 204.985C368.545 203.915 369.97 202.613 371.192 201.459C373.368 199.406 376.129 197.643 378.644 196.03C381.247 194.36 383.598 192.317 386.221 190.706C388.834 189.097 391.016 186.804 393.72 185.286C396.403 183.777 399.081 182.205 401.819 180.796C404.5 179.2 407.053 177.509 409.576 175.674C411.028 174.618 412.415 173.462 413.818 172.336C415.886 190.173 413.871 208.643 413.875 226.503L413.875 226.503Z" fill="#FF20D6"/>
<path d="M367.06 204.985C368.545 203.915 369.97 202.613 371.192 201.459C373.368 199.406 376.129 197.643 378.644 196.03C381.247 194.36 383.598 192.317 386.221 190.706C388.834 189.097 391.016 186.804 393.72 185.286C396.403 183.777 399.081 182.205 401.819 180.796C404.5 179.2 407.053 177.509 409.576 175.674C411.028 174.618 412.415 173.462 413.818 172.336C414.365 177.055 414.627 181.817 414.715 186.601C414.623 186.674 414.531 186.747 414.439 186.819C411.998 188.719 409.344 190.293 406.915 192.227C404.469 194.134 401.765 195.628 399.374 197.584C397.002 199.525 394.713 201.673 392.147 203.35C389.562 205.04 387.115 206.885 384.61 208.717C382.814 209.659 381.143 210.987 379.467 212.21C375.621 209.497 370.974 207.703 367.06 204.985V204.985Z" fill="#8D41FF"/>
</g>
<path d="M426 241.5C426 308.603 400 374.5 317.5 363C235 351.5 209 308.603 209 241.5C209 174.397 254 140.5 317.5 120C381 99.5 426 174.397 426 241.5Z" fill="white" fill-opacity="0.25"/>
<path fill-rule="evenodd" clip-rule="evenodd" d="M416.825 279.577C415.889 268.017 372.736 262.079 320.44 266.315C268.144 270.551 226.509 283.356 227.446 294.916L235.277 391.599L235.446 391.586C239.428 405.385 281.565 413.175 332.017 409.089C382.468 405.002 422.803 390.532 424.512 376.272L424.656 376.26L424.566 375.147C424.563 375.001 424.555 374.855 424.543 374.71C424.531 374.564 424.516 374.419 424.496 374.274L416.825 279.577Z" fill="#9966FF"/>
<path fill-rule="evenodd" clip-rule="evenodd" d="M375.426 220.603C374.852 213.515 348.393 209.874 316.328 212.471C284.263 215.068 258.735 222.92 259.31 230.007L264.012 288.066L264.111 289.288L264.371 289.267C267.683 295.556 292.91 298.643 323.11 296.197C353.309 293.751 377.711 286.644 379.967 279.904L380.227 279.883L380.128 278.661L375.426 220.603Z" fill="#855CD6"/>
<path fill-rule="evenodd" clip-rule="evenodd" d="M271.568 183.163C271.159 178.113 289.346 172.519 312.191 170.669C335.036 168.818 353.888 171.412 354.297 176.462L357.647 217.827L357.717 218.697L357.532 218.712C355.925 223.515 338.539 228.578 317.023 230.321C295.507 232.063 277.533 229.864 275.174 225.383L274.988 225.398L274.918 224.527L271.568 183.163C271.568 183.163 271.568 183.163 271.568 183.163Z" fill="#774DCB"/>
<path d="M402.425 265.288C409.225 266.888 407.425 273.788 403.925 275.788C400.425 277.788 392.025 276.788 394.425 274.788C397.425 272.288 393.925 263.288 402.425 265.288Z" fill="#855CD6"/>
<path d="M394.425 262.288C401.225 263.888 399.425 270.788 395.925 272.788C392.425 274.788 384.025 273.788 386.425 271.788C389.425 269.288 385.925 260.288 394.425 262.288Z" fill="#855CD6"/>
<path d="M384.425 262.288C391.225 263.888 389.425 270.788 385.925 272.788C382.425 274.788 374.025 273.788 376.425 271.788C379.425 269.288 375.925 260.288 384.425 262.288Z" fill="#855CD6"/>
<path d="M239.613 279.288C232.813 280.888 234.613 287.788 238.113 289.788C241.613 291.788 250.013 290.788 247.613 288.788C244.613 286.288 248.113 277.288 239.613 279.288Z" fill="#855CD6"/>
<path d="M245.613 275.288C238.813 276.888 240.613 283.788 244.113 285.788C247.613 287.788 256.013 286.788 253.613 284.788C250.613 282.288 254.113 273.288 245.613 275.288Z" fill="#855CD6"/>
<path d="M254.613 272.288C247.813 273.888 249.613 280.788 253.113 282.788C256.613 284.788 265.013 283.788 262.613 281.788C259.613 279.288 263.113 270.288 254.613 272.288Z" fill="#855CD6"/>
<rect x="288.204" y="149.814" width="6" height="30" rx="2" transform="rotate(-7.79436 288.204 149.814)" fill="#4C97FF"/>
<rect x="310.283" y="148.254" width="6" height="30" rx="2" transform="rotate(0.278751 310.283 148.254)" fill="#FFBF00"/>
<path d="M288.346 141.062C288.346 141.062 284.436 150.322 291.086 148.692C297.736 147.062 290.306 140.282 288.346 141.062Z" fill="#FFBF00"/>
<path d="M289.326 143.222C289.326 143.222 287.186 149.302 290.836 148.222C294.486 147.142 290.386 142.722 289.326 143.222Z" fill="#FF8C1A"/>
<rect x="261.204" y="197.814" width="6" height="30" rx="2" transform="rotate(-7.79436 261.204 197.814)" fill="#FFAB19"/>
<rect x="286.561" y="205.328" width="6" height="30" rx="2" transform="rotate(-0.537582 286.561 205.328)" fill="#CF63CF"/>
<rect x="361.078" y="190.869" width="6" height="30" rx="2" transform="rotate(-0.537582 361.078 190.869)" fill="#5CB1D6"/>
<path d="M261.346 189.062C261.346 189.062 257.436 198.322 264.086 196.692C270.736 195.062 263.306 188.282 261.346 189.062Z" fill="#FFBF00"/>
<path d="M262.326 191.222C262.326 191.222 260.186 197.302 263.836 196.222C267.486 195.142 263.386 190.722 262.326 191.222Z" fill="#FF8C1A"/>
<path d="M287.807 196.665C287.807 196.665 282.758 205.357 289.561 204.58C296.364 203.803 289.85 196.139 287.807 196.665Z" fill="#FFBF00"/>
<path d="M288.506 198.931C288.506 198.931 285.615 204.692 289.373 204.082C293.13 203.472 289.621 198.569 288.506 198.931Z" fill="#FF8C1A"/>
<rect x="316.078" y="205.869" width="6" height="30" rx="2" transform="rotate(-0.537582 316.078 205.869)" fill="#59C059"/>
<path d="M317.325 197.206C317.325 197.206 312.276 205.898 319.079 205.121C325.882 204.344 319.367 196.68 317.325 197.206Z" fill="#FFBF00"/>
<path d="M318.024 199.473C318.024 199.473 315.133 205.234 318.89 204.623C322.648 204.013 319.139 199.11 318.024 199.473Z" fill="#FF8C1A"/>
<rect x="345.078" y="199.869" width="6" height="30" rx="2" transform="rotate(-0.537582 345.078 199.869)" fill="#4C97FF"/>
<path d="M346.325 191.206C346.325 191.206 341.276 199.898 348.079 199.121C354.882 198.344 348.367 190.68 346.325 191.206Z" fill="#FFBF00"/>
<path d="M347.024 193.473C347.024 193.473 344.133 199.234 347.89 198.623C351.648 198.013 348.139 193.11 347.024 193.473Z" fill="#FF8C1A"/>
<path d="M362.325 182.206C362.325 182.206 357.276 190.898 364.079 190.121C370.882 189.344 364.367 181.68 362.325 182.206Z" fill="#FFBF00"/>
<path d="M363.024 184.473C363.024 184.473 360.133 190.234 363.89 189.623C367.648 189.013 364.139 184.11 363.024 184.473Z" fill="#FF8C1A"/>
<rect x="327.972" y="147" width="6" height="30" rx="2" transform="rotate(3.37988 327.972 147)" fill="#FF6680"/>
<path d="M333.655 139.062C333.655 139.062 337.565 148.322 330.915 146.692C324.265 145.062 331.695 138.282 333.655 139.062Z" fill="#FFBF00"/>
<path d="M332.675 141.222C332.675 141.222 334.815 147.302 331.165 146.222C327.515 145.142 331.615 140.722 332.675 141.222Z" fill="#FF8C1A"/>
<rect x="252.182" y="257.276" width="5.20105" height="26.0052" rx="2" transform="rotate(-1.16433 252.182 257.276)" fill="#59C059"/>
<path d="M256.547 250.027C256.547 250.027 260.562 257.76 254.704 256.808C248.845 255.856 254.8 249.487 256.547 250.027Z" fill="#FFBF00"/>
<path d="M255.849 251.961C255.849 251.961 258.115 257.068 254.887 256.385C251.659 255.702 254.898 251.601 255.849 251.961Z" fill="#FF8C1A"/>
<rect x="239.732" y="267.356" width="6" height="30" rx="2" transform="rotate(-3.08973 239.732 267.356)" fill="#FF6680"/>
<path d="M244.484 258.828C244.484 258.828 249.413 267.589 242.622 266.718C235.83 265.848 242.449 258.274 244.484 258.828Z" fill="#FFBF00"/>
<path d="M243.754 261.085C243.754 261.085 246.565 266.885 242.817 266.223C239.068 265.561 242.644 260.708 243.754 261.085Z" fill="#FF8C1A"/>
<rect x="258.863" y="274.718" width="6" height="30" rx="2" transform="rotate(-3.08973 258.863 274.718)" fill="#4C97FF"/>
<path d="M263.615 266.191C263.615 266.191 268.543 274.951 261.752 274.081C254.961 273.21 261.579 265.636 263.615 266.191Z" fill="#FFBF00"/>
<path d="M262.884 268.447C262.884 268.447 265.696 274.247 261.947 273.586C258.199 272.924 261.775 268.07 262.884 268.447Z" fill="#FF8C1A"/>
<rect x="283.863" y="279.718" width="6" height="30" rx="2" transform="rotate(-3.08973 283.863 279.718)" fill="#FF661A"/>
<path d="M288.615 271.191C288.615 271.191 293.543 279.951 286.752 279.081C279.961 278.21 286.579 270.636 288.615 271.191Z" fill="#FFBF00"/>
<path d="M287.884 273.447C287.884 273.447 290.696 279.247 286.947 278.586C283.199 277.924 286.775 273.07 287.884 273.447Z" fill="#FF8C1A"/>
<rect x="315.863" y="280.718" width="6" height="30" rx="2" transform="rotate(-3.08973 315.863 280.718)" fill="#0FBD8C"/>
<path d="M320.615 272.191C320.615 272.191 325.543 280.951 318.752 280.081C311.961 279.21 318.579 271.636 320.615 272.191Z" fill="#FFBF00"/>
<path d="M319.884 274.447C319.884 274.447 322.696 280.247 318.947 279.586C315.199 278.924 318.775 274.07 319.884 274.447Z" fill="#FF8C1A"/>
<rect x="348.863" y="274.718" width="6" height="30" rx="2" transform="rotate(-3.08973 348.863 274.718)" fill="#FF8C1A"/>
<path d="M353.615 266.191C353.615 266.191 358.543 274.951 351.752 274.081C344.961 273.21 351.579 265.636 353.615 266.191Z" fill="#FFBF00"/>
<path d="M352.884 268.447C352.884 268.447 355.696 274.247 351.947 273.586C348.199 272.924 351.775 268.07 352.884 268.447Z" fill="#FF8C1A"/>
<rect x="374.863" y="265.718" width="6" height="30" rx="2" transform="rotate(-3.08973 374.863 265.718)" fill="#5CB1D6"/>
<path d="M379.615 257.191C379.615 257.191 384.543 265.951 377.752 265.081C370.961 264.21 377.579 256.636 379.615 257.191Z" fill="#FFBF00"/>
<path d="M378.884 259.447C378.884 259.447 381.696 265.247 377.947 264.586C374.199 263.924 377.775 259.07 378.884 259.447Z" fill="#FF8C1A"/>
<rect x="393.863" y="251.718" width="6" height="30" rx="2" transform="rotate(-3.08973 393.863 251.718)" fill="#FFBF00"/>
<path d="M398.615 243.191C398.615 243.191 403.543 251.951 396.752 251.081C389.961 250.21 396.579 242.636 398.615 243.191Z" fill="#FFBF00"/>
<path d="M397.884 245.447C397.884 245.447 400.696 251.247 396.947 250.586C393.199 249.924 396.775 245.07 397.884 245.447Z" fill="#FF8C1A"/>
<rect x="381.59" y="246.825" width="5.38543" height="26.9272" rx="2" transform="rotate(-3.08973 381.59 246.825)" fill="#CF63CF"/>
<path d="M385.856 239.171C385.856 239.171 390.279 247.034 384.183 246.253C378.088 245.472 384.029 238.674 385.856 239.171Z" fill="#FFBF00"/>
<path d="M385.2 241.197C385.2 241.197 387.723 246.403 384.359 245.809C380.994 245.214 384.204 240.858 385.2 241.197Z" fill="#FF8C1A"/>
<path d="M314.435 139.604C314.435 139.604 320.867 147.328 314.03 147.701C307.193 148.073 312.333 139.427 314.435 139.604Z" fill="#FFBF00"/>
<path d="M314.124 141.955C314.124 141.955 317.939 147.151 314.133 147.178C310.326 147.205 312.965 141.785 314.124 141.955Z" fill="#FF8C1A"/>
<path d="M233.613 285.288C226.813 286.888 228.613 293.788 232.113 295.788C235.613 297.788 244.013 296.788 241.613 294.788C238.613 292.288 242.113 283.288 233.613 285.288Z" fill="#855CD6"/>
<path d="M237.613 292.288C230.813 293.888 232.613 300.788 236.113 302.788C239.613 304.788 248.013 303.788 245.613 301.788C242.613 299.288 246.113 290.288 237.613 292.288Z" fill="#855CD6"/>
<path d="M246.613 296.288C239.813 297.888 241.613 304.788 245.113 306.788C248.613 308.788 257.013 307.788 254.613 305.788C251.613 303.288 255.113 294.288 246.613 296.288Z" fill="#855CD6"/>
<path d="M257.613 299.288C250.813 300.888 252.613 307.788 256.113 309.788C259.613 311.788 268.013 310.788 265.613 308.788C262.613 306.288 266.113 297.288 257.613 299.288Z" fill="#855CD6"/>
<path d="M268.613 301.288C261.813 302.888 263.613 309.788 267.113 311.788C270.613 313.788 279.013 312.788 276.613 310.788C273.613 308.288 277.113 299.288 268.613 301.288Z" fill="#855CD6"/>
<path d="M278.613 302.288C271.813 303.888 273.613 310.788 277.113 312.788C280.613 314.788 289.013 313.788 286.613 311.788C283.613 309.288 287.113 300.288 278.613 302.288Z" fill="#855CD6"/>
<path d="M288.613 303.288C281.813 304.888 283.613 311.788 287.113 313.788C290.613 315.788 299.013 314.788 296.613 312.788C293.613 310.288 297.113 301.288 288.613 303.288Z" fill="#855CD6"/>
<path d="M299.613 304.288C292.813 305.888 294.613 312.788 298.113 314.788C301.613 316.788 310.013 315.788 307.613 313.788C304.613 311.288 308.113 302.288 299.613 304.288Z" fill="#855CD6"/>
<path d="M308.613 304.288C301.813 305.888 303.613 312.788 307.113 314.788C310.613 316.788 319.013 315.788 316.613 313.788C313.613 311.288 317.113 302.288 308.613 304.288Z" fill="#855CD6"/>
<path d="M318.613 304.288C311.813 305.888 313.613 312.788 317.113 314.788C320.613 316.788 329.013 315.788 326.613 313.788C323.613 311.288 327.113 302.288 318.613 304.288Z" fill="#855CD6"/>
<path d="M330.425 304.288C337.225 305.888 335.425 312.788 331.925 314.788C328.425 316.788 320.025 315.788 322.425 313.788C325.425 311.288 321.925 302.288 330.425 304.288Z" fill="#855CD6"/>
<path d="M340.425 303.288C347.225 304.888 345.425 311.788 341.925 313.788C338.425 315.788 330.025 314.788 332.425 312.788C335.425 310.288 331.925 301.288 340.425 303.288Z" fill="#855CD6"/>
<path d="M349.425 302.288C356.225 303.888 354.425 310.788 350.925 312.788C347.425 314.788 339.025 313.788 341.425 311.788C344.425 309.288 340.925 300.288 349.425 302.288Z" fill="#855CD6"/>
<path d="M359.425 300.288C366.225 301.888 364.425 308.788 360.925 310.788C357.425 312.788 349.025 311.788 351.425 309.788C354.425 307.288 350.925 298.288 359.425 300.288Z" fill="#855CD6"/>
<path d="M369.425 297.288C376.225 298.888 374.425 305.788 370.925 307.788C367.425 309.788 359.025 308.788 361.425 306.788C364.425 304.288 360.925 295.288 369.425 297.288Z" fill="#855CD6"/>
<path d="M378.425 293.288C385.225 294.888 383.425 301.788 379.925 303.788C376.425 305.788 368.025 304.788 370.425 302.788C373.425 300.288 369.925 291.288 378.425 293.288Z" fill="#855CD6"/>
<path d="M388.425 288.288C395.225 289.888 393.425 296.788 389.925 298.788C386.425 300.788 378.025 299.788 380.425 297.788C383.425 295.288 379.925 286.288 388.425 288.288Z" fill="#855CD6"/>
<path d="M398.425 283.288C405.225 284.888 403.425 291.788 399.925 293.788C396.425 295.788 388.025 294.788 390.425 292.788C393.425 290.288 389.925 281.288 398.425 283.288Z" fill="#855CD6"/>
<path d="M407.425 277.288C414.225 278.888 412.425 285.788 408.925 287.788C405.425 289.788 397.025 288.788 399.425 286.788C402.425 284.288 398.925 275.288 407.425 277.288Z" fill="#855CD6"/>
<path d="M409.425 268.288C416.225 269.888 414.425 276.788 410.925 278.788C407.425 280.788 399.025 279.788 401.425 277.788C404.425 275.288 400.925 266.288 409.425 268.288Z" fill="#855CD6"/>
<path fill-rule="evenodd" clip-rule="evenodd" d="M186.574 331.95C188.709 331.377 190.377 329.709 190.95 327.574L192.254 322.721C192.874 320.426 196.129 320.426 196.746 322.721L198.054 327.574C198.627 329.709 200.294 331.377 202.426 331.95L207.279 333.254C209.574 333.874 209.574 337.129 207.279 337.749L202.426 339.054C200.294 339.627 198.627 341.294 198.054 343.426L196.746 348.279C196.129 350.574 192.874 350.574 192.254 348.279L190.95 343.426C190.377 341.294 188.709 339.627 186.574 339.054L181.721 337.749C179.426 337.129 179.426 333.874 181.721 333.254L186.574 331.95Z" fill="white"/>
<path fill-rule="evenodd" clip-rule="evenodd" d="M379.761 127.929C381.307 127.514 382.514 126.307 382.929 124.761L383.874 121.246C384.323 119.585 386.68 119.585 387.126 121.246L388.074 124.761C388.488 126.307 389.696 127.514 391.239 127.929L394.754 128.874C396.415 129.323 396.415 131.68 394.754 132.129L391.239 133.074C389.696 133.488 388.488 134.696 388.074 136.239L387.126 139.754C386.68 141.415 384.323 141.415 383.874 139.754L382.929 136.239C382.514 134.696 381.307 133.488 379.761 133.074L376.246 132.129C374.585 131.68 374.585 129.323 376.246 128.874L379.761 127.929Z" fill="white"/>
<path fill-rule="evenodd" clip-rule="evenodd" d="M334.901 334.566L342.041 346.567L355.42 347.287C359.979 347.527 362.346 353.164 359.43 356.825L350.858 367.568L354.48 381.182C355.712 385.817 351.375 389.876 347.142 388.05L334.707 382.681L323.565 390.383C319.768 393.005 314.723 389.874 315.019 385.088L315.905 371.028L305.399 362.173C301.817 359.155 303.033 353.164 307.456 352.034L320.439 348.705L325.084 335.537C326.67 331.054 332.466 330.48 334.901 334.566Z" fill="#855CD6"/>
<path fill-rule="evenodd" clip-rule="evenodd" d="M258.28 322.695L261.659 335.575L270.841 338.183C273.97 339.067 274.873 344.976 272.373 348.184L265.024 357.593L265.753 371.57C266.001 376.328 262.463 379.728 259.768 377.321L251.849 370.25L243.116 376.288C240.141 378.342 237.053 374.532 237.884 369.84L240.339 356.061L234.214 345.816C232.126 342.323 233.753 336.571 236.967 336.08L246.404 334.628L251.347 322.264C253.034 318.056 257.126 318.31 258.28 322.695Z" fill="#855CD6"/>
<path fill-rule="evenodd" clip-rule="evenodd" d="M390.125 313.65L388.412 326.855L379.637 330.611C376.646 331.886 376.502 337.862 379.391 340.725L387.877 349.123L388.933 363.079C389.292 367.83 393.235 370.751 395.602 368.022L402.556 360L411.986 364.877C415.199 366.536 417.777 362.364 416.355 357.816L412.166 344.461L416.938 333.52C418.564 329.79 416.219 324.291 412.968 324.214L403.423 323.975L396.947 312.34C394.738 308.381 390.711 309.154 390.125 313.65Z" fill="#855CD6"/>
</g>
<defs>
<clipPath id="clip0_223_4236">
<rect width="446" height="411" fill="white"/>
</clipPath>
</defs>
</svg>
