<svg width="67" height="68" viewBox="0 0 67 68" fill="none" xmlns="http://www.w3.org/2000/svg">
<path fill-rule="evenodd" clip-rule="evenodd" d="M7.70796 14.5947C10.211 13.8672 12.1659 11.7492 12.8374 9.03723L14.3673 2.87197C15.094 -0.0426081 18.9103 -0.0426081 19.6327 2.87197L21.1669 9.03723C21.8383 11.7492 23.7932 13.8672 26.292 14.5947L31.9824 16.2523C34.6725 17.0396 34.6725 21.1744 31.9824 21.9617L26.292 23.6193C23.7932 24.3468 21.8383 26.4648 21.1669 29.1722L19.6327 35.3375C18.9103 38.252 15.094 38.252 14.3673 35.3375L12.8374 29.1722C12.1659 26.4648 10.211 24.3468 7.70796 23.6193L2.01756 21.9617C-0.67252 21.1744 -0.67252 17.0396 2.01756 16.2523L7.70796 14.5947Z" fill="white"/>
<path fill-rule="evenodd" clip-rule="evenodd" d="M51.5341 54.3725C53.0065 53.9446 54.1564 52.6987 54.5514 51.1034L55.4513 47.4768C55.8788 45.7623 58.1237 45.7623 58.5487 47.4768L59.4511 51.1034C59.8461 52.6987 60.996 53.9446 62.4659 54.3725L65.8132 55.3475C67.3956 55.8107 67.3956 58.2429 65.8132 58.706L62.4659 59.6811C60.996 60.109 59.8461 61.3549 59.4511 62.9475L58.5487 66.5741C58.1237 68.2886 55.8788 68.2886 55.4513 66.5741L54.5514 62.9475C54.1564 61.3549 53.0065 60.109 51.5341 59.6811L48.1868 58.706C46.6044 58.2429 46.6044 55.8107 48.1868 55.3475L51.5341 54.3725Z" fill="white"/>
</svg>
