<svg width="70" height="119" viewBox="0 0 70 119" fill="none" xmlns="http://www.w3.org/2000/svg">
<path fill-rule="evenodd" clip-rule="evenodd" d="M7.70796 95.2637C10.211 94.5362 12.1659 92.4182 12.8374 89.7062L14.3673 83.5409C15.094 80.6263 18.9103 80.6263 19.6327 83.5409L21.1669 89.7062C21.8383 92.4182 23.7932 94.5362 26.292 95.2637L31.9824 96.9212C34.6725 97.7086 34.6725 101.843 31.9824 102.631L26.292 104.288C23.7932 105.016 21.8383 107.134 21.1669 109.841L19.6327 116.006C18.9103 118.921 15.094 118.921 14.3673 116.006L12.8374 109.841C12.1659 107.134 10.211 105.016 7.70796 104.288L2.01756 102.631C-0.67252 101.843 -0.67252 97.7086 2.01756 96.9212L7.70796 95.2637Z" fill="white"/>
<path fill-rule="evenodd" clip-rule="evenodd" d="M29.0153 21.7773C32.9172 20.6432 35.9645 17.3416 37.0112 13.1141L39.3961 3.50355C40.5289 -1.03976 46.4778 -1.03976 47.6039 3.50355L49.9954 13.1141C51.0421 17.3416 54.0894 20.6432 57.9847 21.7773L66.855 24.3611C71.0483 25.5885 71.0483 32.0338 66.855 33.2611L57.9847 35.845C54.0894 36.979 51.0421 40.2806 49.9954 44.501L47.6039 54.1115C46.4778 58.6548 40.5289 58.6548 39.3961 54.1115L37.0112 44.501C35.9645 40.2806 32.9172 36.979 29.0153 35.845L20.145 33.2611C15.9517 32.0338 15.9517 25.5885 20.145 24.3611L29.0153 21.7773Z" fill="white"/>
</svg>
