<svg width="1288" height="5056" viewBox="0 0 1288 5056" fill="none" xmlns="http://www.w3.org/2000/svg">
<path d="M644.003 215.638C344.103 219.425 87.3706 73.6326 0 0V325.035H1285V0C1193.95 70.477 943.904 211.852 644.003 215.638Z" fill="#F7F3FF"/>
<path fill-rule="evenodd" clip-rule="evenodd" d="M0 129.753V236.242H2V4949.77C2 4949.77 388.137 5042.11 639.491 5042.56C893.947 5043.01 1285 4949.77 1285 4949.77V235.282H1283.5V129.753C1281.67 130.368 1279.75 131.016 1277.73 131.696C1202.48 157.048 996.891 226.316 707.555 235.282H583.393C297.988 226.453 90.5876 159.145 9.67074 132.885C6.21524 131.763 2.9904 130.717 0 129.753Z" fill="#F0E8FF"/>
<path d="M2 4952.09V4520.87C39 4639.33 221.9 4876.9 657.5 4879.5C1093.1 4882.1 1259.33 4641.5 1288 4520.87V4952.09C1205.17 4985.31 957.4 5052.52 629 5055.56C300.6 5058.59 74.1667 4987.84 2 4952.09Z" fill="#F7F3FF"/>
</svg>
