<svg version="1.1" width="209" height="131" viewBox="1 4 209 131" xmlns="http://www.w3.org/2000/svg" xmlns:xlink="http://www.w3.org/1999/xlink">
  <!-- Exported by Scratch - http://scratch.mit.edu/ -->
  <g id="ID0.3197706500068307" transform="matrix(0.9889600276947021, 0, 0, 0.9889600276947021, 0.4, -0.4)">
    <g id="ID0.24890166614204645">
      <path id="ID0.5602954248897731" fill="#96D4FF" stroke="#4F7E83" stroke-width="2" d="M 157 285 C 160.862 285 164.362 286.569 166.897 289.103 C 169.431 291.638 171 295.138 171 299 C 171 302.862 169.431 306.362 166.897 308.897 C 164.362 311.431 160.862 313 157 313 C 153.138 313 149.638 311.431 147.103 308.897 C 144.569 306.362 143 302.862 143 299 C 143 295.138 144.569 291.638 147.103 289.103 C 149.638 286.569 153.138 285 157 285 Z " transform="matrix(0.34718596935272217, 0.39651766419410706, -0.39651766419410706, 0.34718596935272217, 151.35, -131.6)"/>
      <path id="ID0.026205711532384157" fill="#FFFFFF" stroke="none" d="M 157.875 290.250 C 159.220 290.250 160.439 290.656 161.321 291.312 C 162.204 291.969 162.750 292.875 162.750 293.875 C 162.750 294.875 162.204 295.781 161.321 296.438 C 160.439 297.094 159.220 297.500 157.875 297.500 C 156.530 297.500 155.311 297.094 154.429 296.438 C 153.546 295.781 153 294.875 153 293.875 C 153 292.875 153.546 291.969 154.429 291.312 C 155.311 290.656 156.530 290.250 157.875 290.250 Z " transform="matrix(0.3916969895362854, 0.4473532736301422, -0.4473532736301422, 0.3916969895362854, 159, -154.55)"/>
    </g>
    <g id="ID0.13005974842235446">
      <path id="ID0.042643893510103226" fill="#0074B4" stroke="none" stroke-linecap="round" d="M 345.500 43.500 C 352.226 40.920 364.285 37.186 367 41 C 369.641 44.721 359.934 52.951 357 58.750 C 356.240 60.259 356.356 62.300 355.315 63.522 C 354.274 64.744 352.836 65.500 351.250 65.500 C 349.664 65.500 348.226 64.744 347.185 63.522 C 346.144 62.300 346.457 60.133 345.500 58.750 C 343.657 56.129 338.232 54.934 338 51.500 C 338.232 47.912 342.204 44.763 345.500 43.500 Z " transform="matrix(1.0197949409484863, 0.4661940932273865, -0.4661940932273865, 1.0197949409484863, -210.65, -162.35)"/>
      <path id="ID0.2613167092204094" fill="#0084C9" stroke="none" stroke-linecap="round" d="M 331.500 58 C 340.311 58.032 349.029 59.803 357.500 62 C 362.281 63.275 365.981 65.969 370.500 67 C 377.140 68.536 383.821 69.391 390.500 69 C 394.861 68.748 398.933 66.835 402.500 64.500 C 406.907 61.595 414.259 49.896 414 52.500 C 413.607 57.068 406.879 72.390 401 81 C 398.213 85.071 393.472 87.202 389.500 90 C 384.456 93.045 379.690 97.290 374 98.500 C 364.068 100.616 353.576 99.708 343.500 99 C 336.495 98.501 330.107 94.690 323 94 C 317.366 93.448 312.435 92.811 306 94.500 C 297.405 96.586 289.223 100.280 281 103.500 C 276.539 105.248 272.143 107.884 267.500 108.500 C 265.141 108.817 262.298 107.412 261 105.500 C 259.797 103.705 260.835 100.810 262 99 C 263.311 96.993 265.622 96.206 268 95 C 271.622 93.188 275.736 92.491 279.500 91 C 282.122 89.969 284.940 89.188 286.500 87 C 290.451 82.471 291.701 76.148 295.500 71.500 C 298.871 67.379 303.008 63.674 308.172 61.737 C 315.215 59.103 323.241 57.971 331.500 58 Z " transform="matrix(1.0197949409484863, 0.4661940932273865, -0.4661940932273865, 1.0197949409484863, -214.6, -174)"/>
      <path id="ID0.2703171642497182" fill="#0084C9" stroke="none" stroke-linecap="round" d="M 402 11 C 403.979 11.181 402.002 18.582 403.250 22 C 404.314 25.262 407.082 27.571 408.750 30.500 C 409.510 31.851 408.932 33.874 410 35 C 411.060 36.113 413.210 35.527 414.750 36.250 C 416.348 37.139 417.679 38.552 419.250 39.750 C 421.646 41.579 423.648 44.040 426.250 45.500 C 428.623 47.076 434.615 47.495 434 48.750 C 433.250 50.288 426.954 52.513 423.250 52 C 416.053 51.002 407.785 49.418 402.750 44 C 397.201 38.286 394.443 29.644 394.250 21.500 C 394.148 17.156 399.740 10.797 402 11 Z " transform="matrix(1.0197949409484863, 0.4661940932273865, -0.4661940932273865, 1.0197949409484863, -210.65, -162.35)"/>
      <path id="ID0.23363662092015147" fill="#0084C9" stroke="none" stroke-linecap="round" d="M 307.500 93 C 313.403 90.529 320.479 92.813 326.750 92.750 C 328.416 92.733 330.398 91.938 331.750 92.900 C 333.256 93.980 333.414 96.219 334.500 97.750 C 336.083 100.422 337.077 103.815 339.750 105.500 C 343.355 107.777 349.277 106.663 352 109.250 C 353.261 110.451 349.368 112.456 347.500 113.250 C 343.730 114.855 339.599 116.125 335.500 116 C 330.373 115.845 325.149 114.261 320.500 112.500 C 317.694 111.436 315.228 109.616 313 107.500 C 310.995 105.590 309.505 103.098 308.500 100.500 C 307.596 98.150 305.232 93.951 307.500 93 Z " transform="matrix(1.0197949409484863, 0.4661940932273865, -0.4661940932273865, 1.0197949409484863, -179.1, -149.15)"/>
      <path id="ID0.8955960888415575" fill="#B9DFF5" stroke="none" stroke-linecap="round" d="M 348.500 94.900 C 356.828 94.074 364.724 90.502 372.500 87.400 C 376.682 85.723 379.988 83.161 383.500 80.750 C 386.324 78.993 389.383 77.500 391.500 74.900 C 395.721 69.694 398.543 63.542 401.750 57.750 C 403.789 54.415 406.633 44.911 407.250 47.500 C 408.660 53.743 409.066 66.843 406.250 75.750 C 403.404 84.750 398.305 93.835 390.750 99.500 C 379.373 108.022 365.480 112.541 352 116.750 C 344.690 119.030 337.034 119.506 329.500 119.250 C 324.033 119.065 318.555 117.327 313.250 115.750 C 307.591 114.069 301.808 112.016 296.250 109.750 C 292.977 108.418 289.993 106.012 286.500 105.250 C 282.117 104.219 278.641 105.941 274.750 105.750 C 266.381 104.854 264.327 102.788 264.500 100.400 C 265.089 97.425 269.799 95.466 273 93.900 C 277.344 91.790 282.608 90.777 287.500 89.400 C 292.113 88.108 295.629 86.648 299.750 85.750 C 302.836 85.308 305.215 85.260 309 85.400 C 315.030 85.720 321.085 86.643 327 87.900 C 330.872 88.727 333.830 89.999 337.250 91 C 340.991 92.330 344.181 95.296 348.500 94.900 Z " transform="matrix(1.0197949409484863, 0.4661940932273865, -0.4661940932273865, 1.0197949409484863, -210.65, -162.35)"/>
      <path id="ID0.20290940441191196" fill="#006CA8" stroke="none" stroke-linecap="round" d="M 313.250 105.500 C 315.749 104.614 320.363 107.191 323.750 107.750 C 325.565 108.048 327.412 108.249 329.250 108.250 C 330.819 108.246 332.742 106.764 334.250 107.500 C 335.557 108.150 335.324 110.181 336.250 111.250 C 338.053 113.334 340.371 114.872 342.500 116.500 C 343.703 117.623 347.044 118.488 346.250 119.500 C 344.815 121.315 341.196 121.780 338.500 122.250 C 336.824 122.543 335.027 122.256 333.250 122 C 331.258 121.586 329.170 121.154 327.250 120.250 C 325.037 119.207 323.110 117.572 321.250 116 C 319.341 114.138 317.694 112.065 316 110 C 314.891 108.642 311.923 105.985 313.250 105.500 Z " transform="matrix(1.0197949409484863, 0.4661940932273865, -0.4661940932273865, 1.0197949409484863, -213.7, -149.55)"/>
      <path id="ID0.2685543983243406" fill="#720402" stroke="none" stroke-linecap="round" d="M 262.500 111.500 C 266.045 110.482 269.759 110.083 273.250 109 C 275.819 108.203 278.469 107.443 280.750 106 C 282.626 104.898 283.891 101.399 285.500 101.500 C 286.710 101.604 287.072 105.331 286.250 106.750 C 285.368 108.256 283.169 108.481 281.500 109 C 278.612 109.897 275.645 110.605 272.750 111.500 C 269.605 112.473 266.389 113.190 263.350 114.350 C 259.377 116.028 254.644 120.035 251.750 120 C 250.335 119.982 253.099 115.774 254.750 114.500 C 256.953 112.800 259.871 112.318 262.500 111.500 Z " transform="matrix(1.0197949409484863, 0.4661940932273865, -0.4661940932273865, 1.0197949409484863, -190.85, -177.7)"/>
      <path id="ID0.020179532933980227" fill="#FFFFFF" stroke="none" d="M 327.750 102.500 C 327.750 102.500 327.750 102.514 327.750 102.537 C 327.750 102.559 327.750 102.591 327.750 102.625 C 327.750 102.659 327.750 102.691 327.750 102.713 C 327.750 102.736 327.750 102.750 327.750 102.750 C 327.750 102.750 327.750 102.736 327.750 102.713 C 327.750 102.691 327.750 102.659 327.750 102.625 C 327.750 102.591 327.750 102.559 327.750 102.537 C 327.750 102.514 327.750 102.500 327.750 102.500 Z " transform="matrix(1.0197949409484863, 0.4661940932273865, -0.4661940932273865, 1.0197949409484863, -228.8, -250.8)"/>
      <g id="ID0.01900169951841235">
        <path id="ID0.1263936124742031" fill="#FFFFFF" stroke="none" d="M 287.875 89.750 C 288.944 89.750 289.913 90.184 290.614 90.886 C 291.316 91.587 291.750 92.556 291.750 93.625 C 291.750 94.694 291.316 95.663 290.614 96.364 C 289.913 97.066 288.944 97.500 287.875 97.500 C 286.806 97.500 285.837 97.066 285.136 96.364 C 284.434 95.663 284 94.694 284 93.625 C 284 92.556 284.434 91.587 285.136 90.886 C 285.837 90.184 286.806 89.750 287.875 89.750 Z " transform="matrix(1.0197949409484863, 0.4661940932273865, -0.4661940932273865, 1.0197949409484863, -190.25, -177.35)"/>
        <path id="ID0.3772318004630506" fill="#612C2F" stroke="none" d="M 288.375 91.250 C 289.168 91.250 289.887 91.572 290.407 92.093 C 290.928 92.613 291.250 93.332 291.250 94.125 C 291.250 94.918 290.928 95.637 290.407 96.157 C 289.887 96.678 289.168 97 288.375 97 C 287.582 97 286.863 96.678 286.343 96.157 C 285.822 95.637 285.500 94.918 285.500 94.125 C 285.500 93.332 285.822 92.613 286.343 92.093 C 286.863 91.572 287.582 91.250 288.375 91.250 Z " transform="matrix(1.1971505880355835, 0.5472713112831116, -0.5472713112831116, 1.1971505880355835, -233.85, -217.65)"/>
        <path id="ID0.5327137666754425" fill="#FFFFFF" stroke="none" d="M 297.125 91 C 297.435 91 297.717 91.126 297.920 91.330 C 298.124 91.533 298.250 91.815 298.250 92.125 C 298.250 92.435 298.124 92.717 297.920 92.920 C 297.717 93.124 297.435 93.250 297.125 93.250 C 296.815 93.250 296.533 93.124 296.330 92.920 C 296.126 92.717 296 92.435 296 92.125 C 296 91.815 296.126 91.533 296.330 91.330 C 296.533 91.126 296.815 91 297.125 91 Z " transform="matrix(1.0197949409484863, 0.4661940932273865, -0.4661940932273865, 1.0197949409484863, -200.4, -180.75)"/>
        <path id="ID0.5327137666754425" fill="#FFFFFF" stroke="none" d="M 297.125 91 C 297.435 91 297.717 91.126 297.920 91.330 C 298.124 91.533 298.250 91.815 298.250 92.125 C 298.250 92.435 298.124 92.717 297.920 92.920 C 297.717 93.124 297.435 93.250 297.125 93.250 C 296.815 93.250 296.533 93.124 296.330 92.920 C 296.126 92.717 296 92.435 296 92.125 C 296 91.815 296.126 91.533 296.330 91.330 C 296.533 91.126 296.815 91 297.125 91 Z " transform="matrix(0.6207447052001953, 0.28377029299736023, -0.28377029299736023, 0.6207447052001953, -98.25, -88.75)"/>
      </g>
    </g>
    <g id="ID0.24890166614204645">
      <path id="ID0.5602954248897731" fill="#96D4FF" stroke="#4F7E83" stroke-width="2" d="M 157 285 C 160.862 285 164.362 286.569 166.897 289.103 C 169.431 291.638 171 295.138 171 299 C 171 302.862 169.431 306.362 166.897 308.897 C 164.362 311.431 160.862 313 157 313 C 153.138 313 149.638 311.431 147.103 308.897 C 144.569 306.362 143 302.862 143 299 C 143 295.138 144.569 291.638 147.103 289.103 C 149.638 286.569 153.138 285 157 285 Z " transform="matrix(-0.243867889046669, -0.2785191237926483, 0.2785191237926483, -0.243867889046669, 60.8, 144)"/>
      <path id="ID0.026205711532384157" fill="#FFFFFF" stroke="none" d="M 157.875 290.250 C 159.220 290.250 160.439 290.656 161.321 291.312 C 162.204 291.969 162.750 292.875 162.750 293.875 C 162.750 294.875 162.204 295.781 161.321 296.438 C 160.439 297.094 159.220 297.500 157.875 297.500 C 156.530 297.500 155.311 297.094 154.429 296.438 C 153.546 295.781 153 294.875 153 293.875 C 153 292.875 153.546 291.969 154.429 291.312 C 155.311 290.656 156.530 290.250 157.875 290.250 Z " transform="matrix(-0.2751329839229584, -0.3142266869544983, 0.3142266869544983, -0.2751329839229584, 55.4, 160.05)"/>
    </g>
    <g id="ID0.24890166614204645">
      <path id="ID0.5602954248897731" fill="#96D4FF" stroke="#4F7E83" stroke-width="2" d="M 157 285 C 160.862 285 164.362 286.569 166.897 289.103 C 169.431 291.638 171 295.138 171 299 C 171 302.862 169.431 306.362 166.897 308.897 C 164.362 311.431 160.862 313 157 313 C 153.138 313 149.638 311.431 147.103 308.897 C 144.569 306.362 143 302.862 143 299 C 143 295.138 144.569 291.638 147.103 289.103 C 149.638 286.569 153.138 285 157 285 Z " transform="matrix(0.3110176622867584, -0.3120478689670563, 0.3120478689670563, 0.3110176622867584, -45.9, -31.85)"/>
      <path id="ID0.026205711532384157" fill="#FFFFFF" stroke="none" d="M 157.875 290.250 C 159.220 290.250 160.439 290.656 161.321 291.312 C 162.204 291.969 162.750 292.875 162.750 293.875 C 162.750 294.875 162.204 295.781 161.321 296.438 C 160.439 297.094 159.220 297.500 157.875 297.500 C 156.530 297.500 155.311 297.094 154.429 296.438 C 153.546 295.781 153 294.875 153 293.875 C 153 292.875 153.546 291.969 154.429 291.312 C 155.311 290.656 156.530 290.250 157.875 290.250 Z " transform="matrix(0.35089173913002014, -0.35205399990081787, 0.35205399990081787, 0.35089173913002014, -65.3, -36.95)"/>
    </g>
  </g>
</svg>