<svg xmlns="http://www.w3.org/2000/svg" width="434" height="119" viewBox="-1 -1 434 119"><defs><radialGradient id="a" cx=".517" cy=".727" r=".945"><stop offset="0" stop-color="#FFF"/><stop offset="1" stop-color="#73EBFE"/></radialGradient><radialGradient id="b" cx=".873" cy=".007" r="1.291"><stop offset="0" stop-color="#73EBFE" stop-opacity="0"/><stop offset="1" stop-color="#73EBFE"/></radialGradient></defs><path fill="url(#a)" stroke="url(#b)" d="M17 159h432v75H17v-75z" transform="matrix(.9964 0 0 .9684 -15.95 -153.1)"/><path fill="#19759F" stroke="#19759F" stroke-width="5" d="M429.5 89l-.25-22c.047-7.333-14.26 4.74-21.25 3-6.69-1.665-9.696-10.735-16.5-12.5-5.728-1.685-11.77 1.877-18 3-8.646 1.55-16.89 5.212-26 4.5-7.77-.595-14.464-8.73-22-8-6.43.636-9.516 9.706-16 11-7.274 1.46-14.805-1.558-22.15-2.5-9.18-1.183-20.435-4.31-27.35-5-6.05-.378-11.43-6.337-17.5-6-10.48.582-19.79 7.574-30.5 8-9.984.398-19.694-5.818-29.5-5.5-9.928.327-18.89 7.19-29 7-7.77-.143-14.343-7.536-22.1-7.5-7.02.035-12.902 6.59-19.9 7-8.218-.063-15.826-6.455-24-6-5.2.29-8.987 5.452-14 7-9.29 2.155-19 2.278-28.5 4-7.323 1.324-14.543 4.126-22 4-6.75.126-14.518-7.59-19.85-4L3 87l426.5 2z" stroke-linecap="round"/><path fill="#1E8FC3" stroke="#1E8FC3" stroke-width="5" d="M21 270v-12c.45-.5 20.63-15.636 32.95-16 7.552-.27 9.815 13.267 17.05 13 7.58.68 11.242-11.726 19-12 8.702-.298 14.373 12.162 23 12 12.225-.307 21.672-15.017 34-15 7.788.777 9.05 16.95 16.65 17 7.37.026 9.26-14.34 16.35-15 10.232-.9 18.466 11.873 28 11 6.96-.567 7.51-14.114 14.6-15 12.676-1.55 24.225 10.192 36.95 10 16.404-6.266 19.148 1.01 27.7 0 8.017-.962 13.088-14.225 20.8-14 6.01 9.9 5.218 13.605 11.55 14 30.942-10.102 29.497 3.4 43.9 1 6.438-1.08 9.03-13.87 15.5-13 8.687 2.298 9.703 18.752 18 20 21.233-12.442 11.886 2.828 17.35 1 5.452-1.872 7.43-13.13 13.65-13 8.315 1.172 14.735 9.46 19.85 16l.15 12-427 1z" stroke-linecap="round" transform="matrix(-.9993 0 0 1 450.45 -170.5)"/><path fill="none" stroke="#176E96" stroke-width="2" d="M38.5 35.05s1.185-4.31 3-5c5.68-2.163 11.93-3.264 18-3 2.13.093 3.377 2.622 5 4 1.2 1.02 1.897 2.66 3.2 3.5 1.163.57 2.735 1.11 3.8.5 3.48-1.99 6.15-5.725 9-8 4.964-1.895 10.18-1.375 15 0 2.5.712 6 5 6 5" stroke-linecap="round"/><path fill="none" stroke="#176E96" stroke-width="1.413" d="M77.93 16.867s1.23-2.908 2.567-3.223c4.18-.987 8.66-1.176 12.89-.426 1.483.264 1.898 2.424 3.13 3.268 1.587 1.07 2.79 3.327 4.53 3.454 2.856-.648 4.843-3.438 7.05-4.767 3.654-.865 7.26-.015 10.508 1.397 1.685.73 3.738 4.06 3.738 4.06" stroke-linecap="round"/><path fill="none" stroke="#176E96" stroke-width="1.636" d="M93.797 47.27s.588-3.61 2.004-4.33c4.44-2.256 9.42-3.698 14.39-4.014 1.74-.11 2.8 2.206 4.42 2.817 2.08.77 4.05 2.977 6.05 2.642 3.04-1.51 4.51-5.195 6.63-7.295 3.87-1.975 8.16-2.008 12.21-1.31 2.1.36 5.32 3.543 5.32 3.543" stroke-linecap="round"/><path fill="#F9A737" stroke="#000" stroke-width=".756" d="M330.108 14.016c4.993 3.8 9.5 8.743 12.825 13.996 4.958 7.833 8.578 16.503 11.993 25.12 3.17 8.002 7.27 15.958 7.863 24.504.15 2.18-4.35-.682-6.58-.948-4.41-.685-8.75-1.76-13.34-1.907-5.38-.17-10.77 1.55-16.14.78-1.35-.19-.04-.37.17-3.02 1.1-10.16 2.73-20.31 3.28-30.67.42-7.93-.11-15.86-.14-23.86-.01-1.89-1.22-4.93.04-3.97zM299.174 73.6l20.867-46.513-2.54 47.383-8.41-1.812-9.9.942zm-3.734 6.203l-.968-2.896 70.762 4.28-11.593 7.282-48.49-3-3.52-1.34-4.06-1.75-2.12-2.59z" stroke-linecap="round"/><path fill="#FAA51F" stroke="#8E5322" stroke-width=".272" d="M346.842 63.533c-.442 1.347-2.3.657-3.547-.75-1.246-1.41-.906-2.09-.906-2.09s.04-1.378 1.24-.873c0 0 .44 1.28 1.05 1.698.27.188.79.427 1.25.708.38.24.72.515.87.814.07.15.09.314.03.493zm-4.052 1.047s-.493 1.326-.42 3.502c.02.938 1.83-.02 1.597 1.792-.075.514-2.337.338-2.842.11-.46-.2-.57-.38-.468-.865.375-1.78-.41-3.9-.41-3.9m2.587 3.33s-.314-.06-.69-.01" stroke-linecap="round" stroke-linejoin="round"/><path fill="#FAA51F" stroke="#8E5322" stroke-width=".272" d="M343.145 61.92c-.095 1.648.183 4.073-2.743 3.903-2.926-.17-2.527-2.363-2.43-4.012.094-1.64 1.125-2.02 2.773-1.93 1.674.13 2.494.42 2.4 2.04z" stroke-linecap="round" stroke-linejoin="round"/><path fill="#FFF" d="M342.47 62.616c-.06 1.033.067 2.595-1.5 2.504-1.595-.092-1.37-1.488-1.31-2.51.06-1.034.62-1.293 1.526-1.24.908.016 1.342.214 1.283 1.246z"/><path fill="#FAA51F" stroke="#8E5322" stroke-width=".272" d="M338.026 64.305s.557 1.386.116 3.506c-.2.93-1.51-.3-1.518 1.57-.008.62 1.86.67 2.4.61.523-.07.738-.33.714-.85-.013-1.03.487-3.25.487-3.25m-2.672 2.37s.392-.02.73.09" stroke-linecap="round" stroke-linejoin="round"/><g stroke="#8E5322" stroke-width=".272" stroke-linecap="round" stroke-linejoin="round"><path fill="#FAA51F" d="M337.345 62.566c1.357.424 1.184.904 1.134 1.3-.11.977-.97 1.027-2.72.19-1.3-.62-.86-3.104 1.83-4.43l1.92.457"/><path fill="none" d="M337.345 62.566l.693-.97m-.693.97l-.32-.12"/></g><path fill="#FAA51F" d="M341.44 48.805c-.37-.048-1.128-.138-1.547-.134-1.135-.02-2.21.35-2.21.35l-2.982-2.19.29 4.53c.16-.19-2.68 2.9-1.16 5.7 1.54 2.83 5.06 4.24 9.57 3.61 4.52-.63 5.73-3.14 5.52-4.51-.21-1.36-1.88-1.98-1.88-1.98s.04-1.06-.65-2.4c-.42-.81-1.88-2.02-1.88-2.02l-.53-2.79-1.86 1.62-.65.25z"/><path fill="#FFF" d="M346.806 54.096l-.56-.523-2.203.51s-.046.805-1.092.972c-1.04.158-2.76-.332-2.76-.332l-1.77.343s-1.98-.242-2.16 1.33c-.33 2.715 1.88 4.152 3.97 4.245 1.35.08 2.22-.04 3.19-.16 4.27-.51 5.62-3 5.34-4.37-.22-1.36-1.81-1.86-1.81-1.86l-.12-.15z"/><path fill="none" stroke="#8E5322" stroke-width=".272" d="M347.952 55.49s1.088-.11 1.643-.278c.647-.18 1.114-.554 1.114-.554m-2.72 2.262s.62.307 1.3.392c.66.11 1.1.092 1.1.092m-13.27-8.82l1.22.952" stroke-linecap="round" stroke-linejoin="round"/><path fill="none" stroke="#8E5322" stroke-width=".272" d="M341.44 48.805c-.37-.048-1.128-.138-1.547-.134-1.135-.02-2.21.35-2.21.35l-2.982-2.19.29 4.53c.16-.19-2.68 2.9-1.16 5.7 1.54 2.83 5.06 4.24 9.57 3.61 4.52-.63 5.73-3.14 5.52-4.51-.21-1.36-1.88-1.98-1.88-1.98s.04-1.06-.65-2.4c-.42-.81-1.88-2.02-1.88-2.02l-.53-2.79-1.86 1.62-.65.25z" stroke-linecap="round" stroke-linejoin="round"/><path fill="none" stroke="#8E5322" stroke-width=".272" d="M331 55.846s.97.156 1.417.154c.445 0 1.313-.07 1.313-.07m.11-.956s-.538-.45-1.403-.89c-.953-.5-1.49-.632-1.49-.632" stroke-linecap="round" stroke-linejoin="round"/><path fill="#FFF" stroke="#8E5322" stroke-width=".272" d="M345.825 51.722c.627 1.1.584 2.324-.11 2.702-.688.406-1.763-.175-2.39-1.292-.627-1.1-.583-2.325.11-2.702.696-.387 1.772.193 2.39 1.292z" stroke-linecap="round" stroke-linejoin="round"/><path fill="#414142" d="M344.9 52.614c.06.248-.073.486-.33.544-.222.06-.468-.1-.524-.376-.06-.248.073-.486.33-.544.257-.03.494.13.525.376"/><path fill="#FFF" stroke="#8E5322" stroke-width=".272" d="M340.08 52.18c.63 1.1.482 2.373-.336 2.844-.818.47-1.997-.043-2.623-1.16-.62-1.1-.48-2.373.34-2.844.83-.47 2.01.034 2.63 1.16z" stroke-linecap="round" stroke-linejoin="round"/><path fill="#414142" d="M339.11 53.115c-.015.245-.227.46-.445.447-.244-.014-.405-.223-.39-.495.015-.245.227-.46.445-.447.217.022.404.25.39.495"/><path fill="#5F4B43" stroke="#8E5322" stroke-width=".272" d="M342.65 54.765c.42-.02 1-.315 1.054.16-.012.2-.448.984-.893.985-.49 0-1.31-.666-1.26-1.036.03-.37.73-.085 1.11-.11z" stroke-linecap="round" stroke-linejoin="round"/><path fill="#FFF" stroke="#8E5322" stroke-width=".272" d="M340.26 57.417c.668.393 1.384.435 2.156.125" stroke-linecap="round" stroke-linejoin="round"/><g fill="none" stroke="#28A5DA" stroke-width=".748"><path d="M330.298 70.606c-.705-.04-1.264-.627-1.273-1.335v-.02c0-.22.012-.67.068-1.16.037-.32.077-.86.078-.88v-.01c.03-.33.18-.63.4-.85-.08-.36-.09-.79 0-1.29l.02-.08c.06-.3.14-.74.39-1.15.38-.62 1.02-.96 1.77-.91.05 0 .09.01.14.01.07.01.14.02.22.04.25-.2.57-.31.91-.29h.02c.74.05 1.3.7 1.26 1.43v.02c0 .02-.18 1.9-.21 2.04v.03c-.02.1-.06.2-.1.28.3.41.45.89.43 1.43-.03.68-.38 1.32-.96 1.76-.49.38-1.1.57-1.71.53-.1 0-.2-.01-.3-.03l-.07.08c-.25.26-.59.4-.95.4h-.08z"/><path d="M331.56 66.35c-.338-.073-.504-.31-.374-1.008l.015-.085c.12-.607.19-.737.48-.705.09.01.19.07.28.157.09.11.28.26.38.54.07.2.09.33.1.47l.01.17c.02.11.1.22.23.25.16.03.32-.06.36-.22.01-.02.19-1.87.19-1.9.01-.17-.11-.31-.27-.32-.16-.01-.3.11-.31.27 0 0-.01.25-.03.51-.22-.27-.5-.52-.83-.55-.89-.1-1.03.71-1.12 1.19l-.01.08c-.17.93.11 1.54.84 1.69.79.17 1.31.38 1.29.88-.01.19-.12.38-.31.52-.22.17-.51.23-.77.17-.08-.02-.16-.04-.23-.07-.1-.06-.35-.24-.48-.43-.1-.16-.12-.41-.13-.57l.01-.12c.01-.16-.11-.31-.27-.32-.16-.01-.31.11-.32.27 0 .01-.04.59-.08.93-.06.56-.06 1.04-.06 1.06 0 .16.14.29.3.29.17 0 .3-.14.3-.3 0 0 0-.23.02-.55.21.15.49.3.82.38.44.1.9 0 1.27-.28.32-.25.52-.6.54-.97.05-1.1-1.17-1.36-1.76-1.49zm8.98 4.57c-.256-.015-.51-.08-.777-.203-.237-.107-.42-.26-.563-.42-.103.034-.21.057-.32.067l-1.442.127c-.068.01-.132.01-.196.01-.667-.04-1.213-.57-1.27-1.23-.03-.35.08-.7.31-.98.117-.14.257-.25.413-.33l.01-.2c-.26-.26-.412-.63-.39-1.03.018-.29.127-.56.298-.77-.306-.23-.516-.58-.55-.98-.032-.35.078-.7.31-.98.234-.28.56-.44.92-.48.302-.02.91-.06 1.55-.03 1.424.09 2.31.5 2.706 1.28.2.41.42 1.21-.33 2.19.05.22.09.45.1.71h.01c.13.01.26.04.39.09.7.26 1.05 1.04.79 1.74-.26.68-.62 1.09-1.19 1.33-.26.11-.53.16-.81.14z"/><path d="M341.373 68.71c-.154-.058-.326.02-.382.173-.12.346-.21.354-.27.38-.06.024-.14.01-.26-.046-.02-.013-.07-.086-.09-.153-.04-.102-.07-.518-.06-.753.03-.87-.09-1.35-.32-1.63.17-.1.3-.23.32-.25h.01c.39-.45.5-.85.33-1.19-.43-.85-2.58-.73-3.22-.67-.16.02-.28.16-.27.33.02.17.16.29.32.27l.47-.03-.07 1.38h-.15c-.16-.01-.3.12-.31.28-.01.17.11.31.28.32l.15.01-.09 1.73-.41.04c-.16.01-.28.16-.27.32.02.16.16.28.32.27l1.44-.13c.16-.01.29-.15.27-.32-.01-.16-.16-.28-.32-.27l-.43.04.09-1.7c.29-.03.56-.07.79-.13 0 0 .07 0 .11.01.12.03.18.05.25.15.09.14.19.47.165 1.21-.01.14 0 .73.1.99.037.09.16.37.4.48.18.08.45.17.747.05.27-.11.44-.29.6-.72.06-.15-.02-.32-.17-.38zm-1.532-2.744c-.02.03-.1.105-.18.147-.07.04-.17.063-.27.087l-.15.04c-.21.06-.49.123-.79.16l.08-1.348c.79.024 1.47.15 1.58.385.01.02.02.046.02.075 0 .108-.09.27-.25.454zm10.72 5.474c-1.52-.088-2.33-1.287-2.34-2.425 0-.07.01-.215.02-.594v-.03l.07-.88c.14-1.08.56-1.82 1.25-2.19.33-.17.69-.25 1.09-.23.14.01.26.03.38.06.27-.26.64-.42 1.04-.4.75.05 1.32.69 1.27 1.43l-.07 1.29c-.01.16-.04.3-.1.44.18.23.28.52.27.83.01.11.01.17 0 .24-.03.35-.03.35-.04.4v.04c-.04.22-.15.64-.36.97-.13.21-.27.36-.4.49-.26.26-.54.4-.79.49-.41.17-.76.15-1.01.14h-.24z"/><path d="M352.082 68.393c-.16-.007-.298.118-.307.28 0 0 .002.095 0 .107l-.022.28c-.026.12-.08.313-.125.38-.05.075-.098.13-.186.22-.05.05-.165.096-.235.125-.078.03-.15.027-.324.02l-.18-.01c-.772-.02-.833-.65-.837-.79l.02-.508.055-.793c.07-.507.21-.842.4-.942.15-.08.37-.043.68.11.39.185.63.63.63.633.06.117.2.177.33.15.13-.03.23-.14.23-.273l.08-1.284c.01-.163-.11-.303-.28-.313-.16-.01-.3.116-.31.28l-.03.526c-.11-.09-.23-.18-.37-.25-.18-.09-.74-.36-1.22-.1-.37.21-.6.66-.7 1.4l-.06.83-.02.55c.01.47.31 1.36 1.42 1.39l.17.01c.2.01.38.02.58-.06.15-.06.31-.13.44-.25.09-.09.18-.18.27-.31.13-.19.2-.53.21-.6l.03-.34v-.12c.01-.16-.12-.3-.28-.3z"/><path d="M354.744 72.16c-.318-.02-.617-.157-.84-.388-.09-.092-.165-.194-.223-.303l-1.11-.09c-.74-.06-1.3-.71-1.25-1.45.04-.54.4-.99.87-1.17l.13-2.07c-.45-.24-.74-.73-.71-1.27.05-.75.69-1.32 1.43-1.28l1.27.07c.26-.28.64-.45 1.05-.44l1.57.06c.73.04 1.31.67 1.28 1.4-.02.53-.35.98-.81 1.18l-.15 2.99c.4.23.66.66.67 1.15.01.75-.6 1.36-1.34 1.36-.61 0-1.01.05-1.12.08l-.06.02c-.14.04-.34.11-.61.09zm-10.717-2.174c-.293-.018-.567-.126-.792-.316-.05-.04-.094-.084-.136-.13-.18.065-.36.096-.56.085-.02 0-.04-.003-.06-.005l-1.48-.156c-.74-.077-1.29-.743-1.21-1.483.07-.72.7-1.25 1.42-1.21h.01c.09-.33.3-1.15.31-1.19-.48-.18-.83-.63-.87-1.16-.06-.74.5-1.39 1.24-1.45l1.28-.1h.18c.37.02.72.2.96.49.08.11.21.31.27.48l.96 2.76.01.05.01.01c.57.03 1.06.42 1.22.97.21.72-.2 1.47-.91 1.68-.45.14-.75.27-.85.33-.27.27-.65.42-1.04.4z"/><path d="M345.446 67.687c-.09.026-.264.102-.534.202 0 0-.315-.94-.327-.97l-.958-2.76c-.01-.03-.066-.13-.084-.15-.062-.08-.155-.12-.25-.11l-1.28.1c-.164.01-.285.15-.274.31.01.16.15.28.31.27 0 0 .47-.04.86-.07-.14.53-.71 2.71-.89 3.38l-.86-.09c-.16-.02-.31.1-.33.26-.02.16.1.31.26.32l1.47.15c.16.01.31-.11.32-.27.02-.17-.07-.32-.28-.33l.09-.45 1.38-.15.25.74c-.23.11-.38.19-.49.32-.11.13-.09.31.04.42.12.11.31.09.42-.04.14-.17.72-.41 1.28-.57.16-.05.25-.21.2-.37-.05-.16-.21-.25-.37-.2zm-2.562-.627l.466-1.757.558 1.647-1.024.11z"/><path d="M346.072 70.954c-.73-.043-1.302-.674-1.273-1.407.02-.6.43-1.092.98-1.246l.02-.39c-.04.01-.09.02-.13.02-.07.01-.14.01-.2.01-.68-.04-1.21-.55-1.27-1.22l-.14-1.46c-.04-.39.09-.77.37-1.06.26-.28.65-.43 1.04-.42l1.88.08c.91.04 1.73.03 1.78.03h.02c.03 0 .06 0 .09.01.36.02.7.19.94.46.25.29.37.68.32 1.07-.05.34-.09.87-.09 1-.02.55-.35 1.03-.85 1.23-.19.08-.39.11-.6.1-.16 0-.32-.04-.46-.11l-.05.85c.5.22.85.73.82 1.3-.01.37-.17.7-.44.94-.27.25-.61.37-.97.36l-1.82-.08z"/><path d="M349.178 64.908c-.01 0-.88.013-1.85-.025l-1.894-.077c-.086-.005-.17.028-.228.09-.06.063-.09.147-.082.232l.143 1.47c.015.165.16.285.322.27.14-.014.26-.134.27-.278 0-.014-.08-.767-.12-1.177l1.25.05-.22 3.87-.63-.026c-.17-.007-.3.12-.31.283-.01.164.12.303.28.31l1.8.078c.16.007.3-.12.31-.284.01-.164-.12-.302-.28-.31l-.59-.025.21-3.88c.51.01.95.01 1.25.01-.03.24-.05.43-.06.56-.02.31.01.38.03.42.06.14.22.19.37.13.11-.05.18-.17.18-.29 0-.01.04-.67.1-1.09.01-.09-.02-.18-.07-.24-.06-.07-.14-.1-.23-.1zm-14.213 6.002c-1.52-.087-2.33-1.273-2.347-2.407v-.086l.022-.55.058-.82.008-.08c.14-1.083.56-1.82 1.248-2.19.328-.175.693-.254 1.084-.23.134.007.262.026.38.052.264-.27.636-.43 1.038-.4.744.04 1.315.68 1.272 1.43l-.075 1.28c-.008.14-.036.27-.084.39.16.23.26.51.25.82v.21s-.03.36-.05.5c-.06.27-.17.66-.36.96-.14.21-.28.35-.4.48-.26.26-.55.39-.8.49-.41.17-.76.15-1.02.14l-.16-.01c-.03 0-.06 0-.09-.01z"/><path d="M336.488 67.803c-.163-.006-.3.12-.31.28v.167c0 .012-.02.244-.024.278-.026.122-.08.314-.124.38-.05.077-.102.135-.187.22-.05.05-.165.098-.234.125-.08.03-.16.03-.33.02l-.18-.007c-.77-.02-.83-.652-.84-.79l.02-.51.05-.793c.06-.507.2-.842.39-.942.14-.07.36-.04.67.11.38.19.63.63.63.64.06.12.2.18.33.15s.22-.14.23-.27l.07-1.28c.01-.16-.12-.3-.28-.31-.17-.01-.31.12-.32.28l-.03.53c-.11-.09-.24-.18-.38-.25-.18-.09-.74-.36-1.22-.1-.38.21-.61.66-.7 1.4 0 .01 0 .01-.01.02l-.05.81v.01l-.02.53v.01c0 .47.3 1.36 1.41 1.39l.17.01c.2.01.37.02.57-.06.14-.06.31-.13.43-.25.09-.09.18-.19.26-.31.12-.19.19-.53.21-.6l.03-.35v-.17c.01-.16-.12-.3-.28-.31z"/></g><g fill="#F7F8F9"><path d="M330.298 70.606c-.705-.04-1.264-.627-1.273-1.335v-.02c0-.22.012-.67.068-1.16.037-.32.077-.86.078-.88v-.01c.03-.33.18-.63.4-.85-.08-.36-.09-.79 0-1.29l.02-.08c.06-.3.14-.74.39-1.15.38-.62 1.02-.96 1.77-.91.05 0 .09.01.14.01.07.01.14.02.22.04.25-.2.57-.31.91-.29h.02c.74.05 1.3.7 1.26 1.43v.02c0 .02-.18 1.9-.21 2.04v.03c-.02.1-.06.2-.1.28.3.41.45.89.43 1.43-.03.68-.38 1.32-.96 1.76-.49.38-1.1.57-1.71.53-.1 0-.2-.01-.3-.03l-.07.08c-.25.26-.59.4-.95.4h-.08z"/><path d="M331.56 66.35c-.338-.073-.504-.31-.374-1.008l.015-.085c.12-.607.19-.737.48-.705.09.01.19.07.28.157.09.11.28.26.38.54.07.2.09.33.1.47l.01.17c.02.11.1.22.23.25.16.03.32-.06.36-.22.01-.02.19-1.87.19-1.9.01-.17-.11-.31-.27-.32-.16-.01-.3.11-.31.27 0 0-.01.25-.03.51-.22-.27-.5-.52-.83-.55-.89-.1-1.03.71-1.12 1.19l-.01.08c-.17.93.11 1.54.84 1.69.79.17 1.31.38 1.29.88-.01.19-.12.38-.31.52-.22.17-.51.23-.77.17-.08-.02-.16-.04-.23-.07-.1-.06-.35-.24-.48-.43-.1-.16-.12-.41-.13-.57l.01-.12c.01-.16-.11-.31-.27-.32-.16-.01-.31.11-.32.27 0 .01-.04.59-.08.93-.06.56-.06 1.04-.06 1.06 0 .16.14.29.3.29.17 0 .3-.14.3-.3 0 0 0-.23.02-.55.21.15.49.3.82.38.44.1.9 0 1.27-.28.32-.25.52-.6.54-.97.05-1.1-1.17-1.36-1.76-1.49zm8.98 4.57c-.256-.015-.51-.08-.777-.203-.237-.107-.42-.26-.563-.42-.103.034-.21.057-.32.067l-1.442.127c-.068.01-.132.01-.196.01-.667-.04-1.213-.57-1.27-1.23-.03-.35.08-.7.31-.98.117-.14.257-.25.413-.33l.01-.2c-.26-.26-.412-.63-.39-1.03.018-.29.127-.56.298-.77-.306-.23-.516-.58-.55-.98-.032-.35.078-.7.31-.98.234-.28.56-.44.92-.48.302-.02.91-.06 1.55-.03 1.424.09 2.31.5 2.706 1.28.2.41.42 1.21-.33 2.19.05.22.09.45.1.71h.01c.13.01.26.04.39.09.7.26 1.05 1.04.79 1.74-.26.68-.62 1.09-1.19 1.33-.26.11-.53.16-.81.14z"/><path d="M341.373 68.71c-.154-.058-.326.02-.382.173-.12.346-.21.354-.27.38-.06.024-.14.01-.26-.046-.02-.013-.07-.086-.09-.153-.04-.102-.07-.518-.06-.753.03-.87-.09-1.35-.32-1.63.17-.1.3-.23.32-.25h.01c.39-.45.5-.85.33-1.19-.43-.85-2.58-.73-3.22-.67-.16.02-.28.16-.27.33.02.17.16.29.32.27l.47-.03-.07 1.38h-.15c-.16-.01-.3.12-.31.28-.01.17.11.31.28.32l.15.01-.09 1.73-.41.04c-.16.01-.28.16-.27.32.02.16.16.28.32.27l1.44-.13c.16-.01.29-.15.27-.32-.01-.16-.16-.28-.32-.27l-.43.04.09-1.7c.29-.03.56-.07.79-.13 0 0 .07 0 .11.01.12.03.18.05.25.15.09.14.19.47.165 1.21-.01.14 0 .73.1.99.037.09.16.37.4.48.18.08.45.17.747.05.27-.11.44-.29.6-.72.06-.15-.02-.32-.17-.38zm-1.532-2.744c-.02.03-.1.105-.18.147-.07.04-.17.063-.27.087l-.15.04c-.21.06-.49.123-.79.16l.08-1.348c.79.024 1.47.15 1.58.385.01.02.02.046.02.075 0 .108-.09.27-.25.454zm10.72 5.474c-1.52-.088-2.33-1.287-2.34-2.425 0-.07.01-.215.02-.594v-.03l.07-.88c.14-1.08.56-1.82 1.25-2.19.33-.17.69-.25 1.09-.23.14.01.26.03.38.06.27-.26.64-.42 1.04-.4.75.05 1.32.69 1.27 1.43l-.07 1.29c-.01.16-.04.3-.1.44.18.23.28.52.27.83.01.11.01.17 0 .24-.03.35-.03.35-.04.4v.04c-.04.22-.15.64-.36.97-.13.21-.27.36-.4.49-.26.26-.54.4-.79.49-.41.17-.76.15-1.01.14h-.24z"/><path d="M352.082 68.393c-.16-.007-.298.118-.307.28 0 0 .002.095 0 .107l-.022.28c-.026.12-.08.313-.125.38-.05.075-.098.13-.186.22-.05.05-.165.096-.235.125-.078.03-.15.027-.324.02l-.18-.01c-.772-.02-.833-.65-.837-.79l.02-.508.055-.793c.07-.507.21-.842.4-.942.15-.08.37-.043.68.11.39.185.63.63.63.633.06.117.2.177.33.15.13-.03.23-.14.23-.273l.08-1.284c.01-.163-.11-.303-.28-.313-.16-.01-.3.116-.31.28l-.03.526c-.11-.09-.23-.18-.37-.25-.18-.09-.74-.36-1.22-.1-.37.21-.6.66-.7 1.4l-.06.83-.02.55c.01.47.31 1.36 1.42 1.39l.17.01c.2.01.38.02.58-.06.15-.06.31-.13.44-.25.09-.09.18-.18.27-.31.13-.19.2-.53.21-.6l.03-.34v-.12c.01-.16-.12-.3-.28-.3z"/><path d="M354.744 72.16c-.318-.02-.617-.157-.84-.388-.09-.092-.165-.194-.223-.303l-1.11-.09c-.74-.06-1.3-.71-1.25-1.45.04-.54.4-.99.87-1.17l.13-2.07c-.45-.24-.74-.73-.71-1.27.05-.75.69-1.32 1.43-1.28l1.27.07c.26-.28.64-.45 1.05-.44l1.57.06c.73.04 1.31.67 1.28 1.4-.02.53-.35.98-.81 1.18l-.15 2.99c.4.23.66.66.67 1.15.01.75-.6 1.36-1.34 1.36-.61 0-1.01.05-1.12.08l-.06.02c-.14.04-.34.11-.61.09z"/><path d="M356.83 70.613c-.002-.163-.136-.296-.3-.295-.11.002-.256.004-.418.012.03-.506.083-1.527.255-4.84l.456.02c.163.007.302-.12.31-.284.006-.164-.12-.302-.285-.31l-1.544-.062c-.164-.006-.3.12-.308.284-.007.164.12.303.283.31l.49.02-.11 2.052-1.76.19.11-1.84.47.028c.16.01.3-.116.31-.28.01-.163-.12-.304-.28-.314l-1.56-.09c-.17-.01-.31.116-.32.28-.01.164.11.304.28.314l.49.028-.24 3.943-.5-.04c-.16-.01-.31.11-.32.27-.01.16.11.3.27.31l1.6.12c.16.01.31-.11.32-.28.01-.17-.11-.31-.27-.32l-.51-.04.09-1.51 1.76-.19-.12 2.26c-.41.05-.68.07-.86.24-.12.11-.11.29 0 .41s.25.06.42.01c.17-.07.74-.13 1.45-.14.16 0 .3-.13.29-.3zm-12.803-.627c-.293-.018-.567-.126-.792-.316-.05-.04-.094-.084-.136-.13-.18.065-.36.096-.56.085-.02 0-.04-.003-.06-.005l-1.48-.156c-.74-.077-1.29-.743-1.21-1.483.07-.72.7-1.25 1.42-1.21h.01c.09-.33.3-1.15.31-1.19-.48-.18-.83-.63-.87-1.16-.06-.74.5-1.39 1.24-1.45l1.28-.1h.18c.37.02.72.2.96.49.08.11.21.31.27.48l.96 2.76.01.05.01.01c.57.03 1.06.42 1.22.97.21.72-.2 1.47-.91 1.68-.45.14-.75.27-.85.33-.27.27-.65.42-1.04.4z"/><path d="M345.446 67.687c-.09.026-.264.102-.534.202 0 0-.315-.94-.327-.97l-.958-2.76c-.01-.03-.066-.13-.084-.15-.062-.08-.155-.12-.25-.11l-1.28.1c-.164.01-.285.15-.274.31.01.16.15.28.31.27 0 0 .47-.04.86-.07-.14.53-.71 2.71-.89 3.38l-.86-.09c-.16-.02-.31.1-.33.26-.02.16.1.31.26.32l1.47.15c.16.01.31-.11.32-.27.02-.17-.07-.32-.28-.33l.09-.45 1.38-.15.25.74c-.23.11-.38.19-.49.32-.11.13-.09.31.04.42.12.11.31.09.42-.04.14-.17.72-.41 1.28-.57.16-.05.25-.21.2-.37-.05-.16-.21-.25-.37-.2zm-2.562-.627l.466-1.757.558 1.647-1.024.11z"/><path d="M346.072 70.954c-.73-.043-1.302-.674-1.273-1.407.02-.6.43-1.092.98-1.246l.02-.39c-.04.01-.09.02-.13.02-.07.01-.14.01-.2.01-.68-.04-1.21-.55-1.27-1.22l-.14-1.46c-.04-.39.09-.77.37-1.06.26-.28.65-.43 1.04-.42l1.88.08c.91.04 1.73.03 1.78.03h.02c.03 0 .06 0 .09.01.36.02.7.19.94.46.25.29.37.68.32 1.07-.05.34-.09.87-.09 1-.02.55-.35 1.03-.85 1.23-.19.08-.39.11-.6.1-.16 0-.32-.04-.46-.11l-.05.85c.5.22.85.73.82 1.3-.01.37-.17.7-.44.94-.27.25-.61.37-.97.36l-1.82-.08z"/><path d="M349.178 64.908c-.01 0-.88.013-1.85-.025l-1.894-.077c-.086-.005-.17.028-.228.09-.06.063-.09.147-.082.232l.143 1.47c.015.165.16.285.322.27.14-.014.26-.134.27-.278 0-.014-.08-.767-.12-1.177l1.25.05-.22 3.87-.63-.026c-.17-.007-.3.12-.31.283-.01.164.12.303.28.31l1.8.078c.16.007.3-.12.31-.284.01-.164-.12-.302-.28-.31l-.59-.025.21-3.88c.51.01.95.01 1.25.01-.03.24-.05.43-.06.56-.02.31.01.38.03.42.06.14.22.19.37.13.11-.05.18-.17.18-.29 0-.01.04-.67.1-1.09.01-.09-.02-.18-.07-.24-.06-.07-.14-.1-.23-.1zm-14.213 6.002c-1.52-.087-2.33-1.273-2.347-2.407v-.086l.022-.55.058-.82.008-.08c.14-1.083.56-1.82 1.248-2.19.328-.175.693-.254 1.084-.23.134.007.262.026.38.052.264-.27.636-.43 1.038-.4.744.04 1.315.68 1.272 1.43l-.075 1.28c-.008.14-.036.27-.084.39.16.23.26.51.25.82v.21s-.03.36-.05.5c-.06.27-.17.66-.36.96-.14.21-.28.35-.4.48-.26.26-.55.39-.8.49-.41.17-.76.15-1.02.14l-.16-.01c-.03 0-.06 0-.09-.01z"/><path d="M336.488 67.803c-.163-.006-.3.12-.31.28v.167c0 .012-.02.244-.024.278-.026.122-.08.314-.124.38-.05.077-.102.135-.187.22-.05.05-.165.098-.234.125-.08.03-.16.03-.33.02l-.18-.007c-.77-.02-.83-.652-.84-.79l.02-.51.05-.793c.06-.507.2-.842.39-.942.14-.07.36-.04.67.11.38.19.63.63.63.64.06.12.2.18.33.15s.22-.14.23-.27l.07-1.28c.01-.16-.12-.3-.28-.31-.17-.01-.31.12-.32.28l-.03.53c-.11-.09-.24-.18-.38-.25-.18-.09-.74-.36-1.22-.1-.38.21-.61.66-.7 1.4 0 .01 0 .01-.01.02l-.05.81v.01l-.02.53v.01c0 .47.3 1.36 1.41 1.39l.17.01c.2.01.37.02.57-.06.14-.06.31-.13.43-.25.09-.09.18-.19.26-.31.12-.19.19-.53.21-.6l.03-.35v-.17c.01-.16-.12-.3-.28-.31z"/></g><path fill="#F9A737" d="M331.56 66.35c-.338-.073-.504-.31-.374-1.008l.015-.085c.12-.607.19-.737.48-.705.09.01.19.07.28.157.09.11.28.26.38.54.07.2.09.33.1.47l.01.17c.02.11.1.22.23.25.16.03.32-.06.36-.22.01-.02.19-1.87.19-1.9.01-.17-.11-.31-.27-.32-.16-.01-.3.11-.31.27 0 0-.01.25-.03.51-.22-.27-.5-.52-.83-.55-.89-.1-1.03.71-1.12 1.19l-.01.08c-.17.93.11 1.54.84 1.69.79.17 1.31.38 1.29.88-.01.19-.12.38-.31.52-.22.17-.51.23-.77.17-.08-.02-.16-.04-.23-.07-.1-.06-.35-.24-.48-.43-.1-.16-.12-.41-.13-.57l.01-.12c.01-.16-.11-.31-.27-.32-.16-.01-.31.11-.32.27 0 .01-.04.59-.08.93-.06.56-.06 1.04-.06 1.06 0 .16.14.29.3.29.17 0 .3-.14.3-.3 0 0 0-.23.02-.55.21.15.49.3.82.38.44.1.9 0 1.27-.28.32-.25.52-.6.54-.97.05-1.1-1.17-1.36-1.76-1.49zm9.813 2.36c-.154-.058-.326.02-.382.173-.12.346-.21.354-.27.38-.06.024-.14.01-.26-.046-.02-.013-.07-.086-.09-.153-.04-.102-.07-.518-.06-.753.03-.87-.09-1.35-.32-1.63.17-.1.3-.23.32-.25h.01c.39-.45.5-.85.33-1.19-.43-.85-2.58-.73-3.22-.67-.16.02-.28.16-.27.33.02.17.16.29.32.27l.47-.03-.07 1.38h-.15c-.16-.01-.3.12-.31.28-.01.17.11.31.28.32l.15.01-.09 1.73-.41.04c-.16.01-.28.16-.27.32.02.16.16.28.32.27l1.44-.13c.16-.01.29-.15.27-.32-.01-.16-.16-.28-.32-.27l-.43.04.09-1.7c.29-.03.56-.07.79-.13 0 0 .07 0 .11.01.12.03.18.05.25.15.09.14.19.47.165 1.21-.01.14 0 .73.1.99.037.09.16.37.4.48.18.08.45.17.747.05.27-.11.44-.29.6-.72.06-.15-.02-.32-.17-.38zm-1.532-2.744c-.02.03-.1.105-.18.147-.07.04-.17.063-.27.087l-.15.04c-.21.06-.49.123-.79.16l.08-1.348c.79.024 1.47.15 1.58.385.01.02.02.046.02.075 0 .108-.09.27-.25.454zm12.25 2.427c-.16-.007-.3.118-.3.28v.107l-.02.28c-.02.12-.08.313-.12.38-.05.075-.1.13-.18.22-.05.05-.16.096-.23.125-.08.03-.15.027-.32.02l-.18-.01c-.77-.02-.83-.65-.83-.79l.02-.508.06-.793c.07-.507.21-.842.4-.942.14-.08.37-.043.68.11.39.185.63.63.63.633.06.117.2.177.33.15.13-.03.23-.14.23-.273l.08-1.284c.01-.163-.11-.303-.28-.313-.16-.01-.3.116-.31.28l-.03.526c-.11-.09-.24-.18-.38-.25-.18-.09-.74-.36-1.22-.1-.38.21-.6.66-.7 1.4l-.06.83-.02.55c0 .47.31 1.36 1.42 1.39l.17.01c.2.01.37.02.574-.06.14-.06.31-.13.43-.25.09-.09.18-.18.264-.31.12-.19.193-.53.21-.6l.03-.34v-.12c.003-.16-.12-.3-.29-.3zm4.75 2.22c0-.163-.13-.296-.3-.295-.11.002-.25.004-.41.012.03-.506.09-1.527.26-4.84l.46.02c.17.007.3-.12.31-.284.01-.164-.12-.302-.28-.31l-1.54-.062c-.16-.006-.3.12-.31.284 0 .164.12.303.29.31l.49.02-.1 2.052-1.76.19.11-1.84.48.028c.16.01.31-.116.31-.28.01-.163-.11-.304-.28-.314l-1.55-.09c-.16-.01-.3.116-.31.28-.01.164.12.304.28.314l.49.028-.23 3.943-.5-.04c-.16-.01-.3.11-.32.27-.01.16.11.3.28.31l1.6.12c.16.01.31-.11.32-.28.01-.17-.11-.31-.28-.32l-.51-.04.09-1.51 1.77-.19-.12 2.26c-.41.05-.68.07-.85.24-.117.11-.115.29 0 .41.11.12.25.06.42.01.17-.07.74-.13 1.45-.14.165 0 .3-.13.296-.3z"/><path fill="#F9A737" d="M345.446 67.687c-.09.026-.264.102-.534.202 0 0-.315-.94-.327-.97l-.958-2.76c-.01-.03-.066-.13-.084-.15-.062-.08-.155-.12-.25-.11l-1.28.1c-.164.01-.285.15-.274.31.01.16.15.28.31.27 0 0 .47-.04.86-.07-.14.53-.71 2.71-.89 3.38l-.86-.09c-.16-.02-.31.1-.33.26-.02.16.1.31.26.32l1.47.15c.16.01.31-.11.32-.27.02-.17-.07-.32-.28-.33l.09-.45 1.38-.15.25.74c-.23.11-.38.19-.49.32-.11.13-.09.31.04.42.12.11.31.09.42-.04.14-.17.72-.41 1.28-.57.16-.05.25-.21.2-.37-.05-.16-.21-.25-.37-.2zm-2.562-.627l.466-1.757.558 1.647-1.024.11z"/><path fill="#F9A737" d="M349.178 64.908c-.01 0-.88.013-1.85-.025l-1.894-.077c-.086-.005-.17.028-.228.09-.06.063-.09.147-.082.232l.143 1.47c.015.165.16.285.322.27.14-.014.26-.134.27-.278 0-.014-.08-.767-.12-1.177l1.25.05-.22 3.87-.63-.026c-.17-.007-.3.12-.31.283-.01.164.12.303.28.31l1.8.078c.16.007.3-.12.31-.284.01-.164-.12-.302-.28-.31l-.59-.025.21-3.88c.51.01.95.01 1.25.01-.03.24-.05.43-.06.56-.02.31.01.38.03.42.06.14.22.19.37.13.11-.05.18-.17.18-.29 0-.01.04-.67.1-1.09.01-.09-.02-.18-.07-.24-.06-.07-.14-.1-.23-.1zm-12.69 2.895c-.163-.006-.3.12-.31.28v.167c0 .012-.02.244-.024.278-.026.122-.08.314-.124.38-.05.077-.102.135-.187.22-.05.05-.165.098-.234.125-.08.03-.16.03-.33.02l-.18-.007c-.77-.02-.83-.652-.84-.79l.02-.51.05-.793c.06-.507.2-.842.39-.942.14-.07.36-.04.67.11.38.19.63.63.63.64.06.12.2.18.33.15s.22-.14.23-.27l.07-1.28c.01-.16-.12-.3-.28-.31-.17-.01-.31.12-.32.28l-.03.53c-.11-.09-.24-.18-.38-.25-.18-.09-.74-.36-1.22-.1-.38.21-.61.66-.7 1.4 0 .01 0 .01-.01.02l-.05.81v.01l-.02.53v.01c0 .47.3 1.36 1.41 1.39l.17.01c.2.01.37.02.57-.06.14-.06.31-.13.43-.25.09-.09.18-.19.26-.31.12-.19.19-.53.21-.6l.03-.35v-.17c.01-.16-.12-.3-.28-.31z"/><path fill="#FAA51F" stroke="#8E5322" stroke-width=".272" d="M346.45 63.764c-.374.17-1.114.236-1.074-.46.023-.4.575-.977.93-.81.23.103.337.282.473.59" stroke-linecap="round" stroke-linejoin="round"/><path fill="#0C4" stroke="#0C4" stroke-width="1.086" d="M324.684 22.765c.72-.384.295-1.885.535-2.814.18-.71.64-1.39.6-2.12-.09-1.87.06-3.98-.99-5.54-.55-.82-1.92.05-2.87.06-.65 0-1.32.02-2.01.21-1.59.33-3.14.92-4.81 1.34-1.41.37-2.83.87-4.32.78-.73-.05-1.27-1.25-1.96-1-.66.24-.62 1.28-.73 1.98-.34 2.15-.92 4.35-.61 6.49.11.77.99 1.42 1.76 1.53 1.98.3 3.97-.26 5.93-.59 2.01-.31 3.88-1.08 5.83-1.1 1.21-.08 2.42 1.25 3.46.8z" stroke-linecap="round"/><path fill="#794400" stroke="#663B00" stroke-width="2" d="M387.25 114.25c.268-7.426 3.877-2.546 4.25 0 1.49 10.185.335 20.785.5 31.25.002 3.19-.05 5.73 0 9.75.2 16.067 1.602 34.98.5 48.25-.275 3.318-3.286 7.393-3.75 0-1.855-29.574-2.573-59.545-1.5-89.25z" stroke-linecap="round" transform="matrix(.6045 .0563 -.0613 .6586 98.65 -83.6)"/><path fill="#25AFF4" stroke="#25AFF4" stroke-width="5" d="M2.5 112v-12c.45-.5 20.63-15.636 32.95-16 7.552-.27 9.815 13.267 17.05 13 7.58.68 11.242-11.726 19-12 8.702-.298 14.373 12.162 23 12 12.225-.307 21.672-15.017 34-15 7.788.777 9.05 16.95 16.65 17 7.37.026 9.26-14.34 16.35-15 10.232-.9 18.466 11.873 28 11 6.96-.567 7.51-14.114 14.6-15 12.676-1.55 24.225 10.192 36.95 10 16.404-6.266 18.785 2.33 27.7 0 7.593-1.984 12.025-12.26 19.7-12.2 5.922-.06 7.138 10.238 12.65 12.2 5.62 1.98 11.54-1.957 17.35-1.95 8.89.327 17.833 5.115 26.55 2.95 6.532-1.63 9.03-13.87 15.5-13 8.687 2.298 9.703 18.752 18 20 21.233-12.442 11.886 2.828 17.35 1 5.452-1.872 7.43-13.13 13.65-13 8.315 1.172 14.735 9.46 19.85 16l.15 12-427 1z" stroke-linecap="round"/></svg>