<svg version="1.1" width="434" height="119" viewBox="-1 -1 434 119" xmlns="http://www.w3.org/2000/svg" xmlns:xlink="http://www.w3.org/1999/xlink">
  <defs>
    <radialGradient id="grad_1" cx="0.5166" cy="0.7269" r="0.94497">
      <stop offset="0" stop-color="#FFFFFF" stop-opacity="1"/>
      <stop offset="1" stop-color="#73EBFE" stop-opacity="1"/>
    </radialGradient>
    <radialGradient id="grad_2" cx="0.8733" cy="0.0072" r="1.2906400000000002">
      <stop offset="0" stop-color="#73EBFE" stop-opacity="0"/>
      <stop offset="1" stop-color="#73EBFE" stop-opacity="1"/>
    </radialGradient>
  </defs>
  <!-- Exported by Scratch - http://scratch.mit.edu/ -->
  <g id="ID0.3471851637586951" transform="matrix(1, 0, 0, 1, 0.3, 0.2)">
    <path id="ID0.17091090977191925" fill="url(#grad_1)" stroke="url(#grad_2)" d="M 17 159 L 449 159 L 449 234 L 17 234 L 17 159 Z " transform="matrix(0.9964302778244019, 0, 0, 0.9684210419654846, -15.45, -153.1)"/>
    <path id="ID0.4235581778921187" fill="#19759F" stroke="#19759F" stroke-width="5" stroke-linecap="round" d="M 21.500 280.500 L 21.750 258.500 C 21.703 251.167 36.010 263.239 43 261.500 C 49.689 259.835 52.696 250.765 59.500 249 C 65.228 247.315 71.269 250.877 77.500 252 C 86.146 253.550 94.389 257.212 103.500 256.500 C 111.269 255.905 117.964 247.769 125.500 248.500 C 131.930 249.136 135.016 258.206 141.500 259.500 C 148.774 260.961 156.305 257.942 163.650 257 C 172.831 255.817 184.085 252.690 191 252 C 197.051 251.622 202.429 245.663 208.500 246 C 218.980 246.582 228.291 253.574 239 254 C 248.984 254.398 258.694 248.182 268.500 248.500 C 278.428 248.827 287.391 255.689 297.500 255.500 C 305.270 255.357 311.843 247.964 319.600 248 C 326.620 248.035 332.502 254.590 339.500 255 C 347.718 254.937 355.326 248.545 363.500 249 C 368.699 249.290 372.487 254.452 377.500 256 C 386.791 258.155 396.501 258.278 406 260 C 413.323 261.324 420.543 264.126 428 264 C 434.750 264.126 442.518 256.410 447.850 260 L 448 278.500 L 21.500 280.500 Z " transform="matrix(-1, 0, 0, 1, 451.5, -191.5)"/>
    <path id="ID0.4235581778921187" fill="#1E8FC3" stroke="#1E8FC3" stroke-width="5" stroke-linecap="round" d="M 21 270 L 21 258 C 21.450 257.501 41.630 242.364 53.950 242 C 61.502 241.730 63.765 255.267 71 255 C 78.581 255.679 82.242 243.274 90 243 C 98.702 242.702 104.373 255.162 113 255 C 125.225 254.693 134.672 239.983 147 240 C 154.788 240.777 156.049 256.949 163.650 257 C 171.019 257.026 172.910 242.660 180 242 C 190.232 241.099 198.466 253.873 208 253 C 214.959 252.433 215.509 238.886 222.600 238 C 235.276 236.449 246.825 248.192 259.550 248 C 275.954 241.734 278.698 249.010 287.250 248 C 295.267 247.038 300.338 233.775 308.050 234 C 314.061 243.900 313.268 247.605 319.600 248 C 350.542 237.898 349.097 251.401 363.500 249 C 369.938 247.919 372.531 235.131 379 236 C 387.687 238.298 388.703 254.752 397 256 C 418.233 243.558 408.886 258.828 414.350 257 C 419.802 255.128 421.780 243.870 428 244 C 436.315 245.172 442.735 253.459 447.850 260 L 448 272 L 21 273 Z " transform="matrix(-0.9993056654930115, 0, 0, 1, 450.95, -170.5)"/>
    <path id="ID0.0035764137282967567" fill="#C8BEB7" stroke="#000000" stroke-width="2" stroke-linecap="round" d="M 260 302 C 275.827 296.554 302.609 307.128 324 307 C 346.363 306.867 374.471 296.647 391 303 C 398.297 305.204 380.809 320.258 371.657 324.113 C 357.405 330.142 343.209 331 325 331 C 306.791 331 292.545 330.061 278.343 324.113 C 269.500 320.431 252.995 305.111 260 302 Z " transform="matrix(0.7116991877555847, 0.029116464778780937, -0.029116464778780937, 0.7116991877555847, 79.4, -154.85)"/>
    <path id="ID0.8124154442921281" fill="#F3F0ED" stroke="#000000" stroke-width="2" stroke-linecap="round" d="M 326 251 C 325.294 250.265 325.172 249.324 325 248.500 C 324.313 245.204 323.404 241.866 323.500 238.500 C 323.574 235.916 323.378 232.476 325.500 231 C 328.101 229.191 331.851 230.150 335 230.500 C 336.480 230.664 337.837 231.570 339 232.500 C 339.581 232.965 339.346 234.143 340 234.500 C 341.348 235.235 342.975 235.321 344.500 235.500 C 345.823 235.656 347.299 236.076 348.500 235.500 C 351.623 234.001 353.877 230.999 357 229.500 C 358.201 228.924 360.329 228.349 361 229.500 C 362.010 231.232 360.461 233.495 360.500 235.500 C 360.628 242.167 362.164 248.865 361.500 255.500 C 361.298 257.522 359.603 259.293 358 260.500 C 352.693 261.322 349.515 261.983 346 261.500 C 344.079 261.226 342.503 259.730 341 258.500 C 338.813 256.711 337.206 254.265 335 252.500 C 333.837 251.570 332.454 250.823 331 250.500 C 329.375 250.139 327.580 251.027 326 250.500 Z " transform="matrix(0.7116991877555847, 0.029116464778780937, -0.029116464778780937, 0.7116991877555847, 79.4, -154.85)"/>
    <path id="ID0.8732011117972434" fill="#C8BEB7" stroke="#000000" stroke-width="2" d="M 422 181 L 427 181 L 427 257 L 422 257 L 422 181 Z " transform="matrix(0.7116991877555847, 0.029116464778780937, -0.029116464778780937, 0.7116991877555847, 6.3, -123.6)"/>
    <path id="ID0.005611923057585955" fill="none" stroke="#176E96" stroke-width="2" stroke-linecap="round" d="M 55 87 C 55 87 56.185 82.691 58 82 C 63.679 79.837 69.929 78.736 76 79 C 78.130 79.093 79.115 82.046 81 83 C 83.426 84.206 85.535 87.147 88 87 C 91.884 85.560 94.151 81.275 97 79 C 101.964 77.105 107.180 77.625 112 79 C 114.499 79.712 118 84 118 84 " transform="matrix(1, 0, 0, 1, -16, -52)"/>
    <path id="ID0.005611923057585955" fill="none" stroke="#176E96" stroke-width="2" stroke-linecap="round" d="M 55 87 C 55 87 56.185 82.691 58 82 C 63.679 79.837 69.929 78.736 76 79 C 78.130 79.093 79.115 82.046 81 83 C 83.426 84.206 85.535 87.147 88 87 C 91.884 85.560 94.151 81.275 97 79 C 101.964 77.105 107.180 77.625 112 79 C 114.499 79.712 118 84 118 84 " transform="matrix(0.700538158416748, 0.09309983998537064, -0.09309983998537064, 0.700538158416748, 48, -49.25)"/>
    <path id="ID0.005611923057585955" fill="none" stroke="#176E96" stroke-width="2" stroke-linecap="round" d="M 55 87 C 55 87 56.185 82.691 58 82 C 63.679 79.837 69.929 78.736 76 79 C 78.130 79.093 79.115 82.046 81 83 C 83.426 84.206 85.535 87.147 88 87 C 91.884 85.560 94.151 81.275 97 79 C 101.964 77.105 107.180 77.625 112 79 C 114.499 79.712 118 84 118 84 " transform="matrix(0.8135192394256592, -0.08739716559648514, 0.08739716559648514, 0.8135192394256592, 41.95, -18.65)"/>
    <path id="ID0.4235581778921187" fill="#25AFF4" stroke="#25AFF4" stroke-width="5" stroke-linecap="round" d="M 21 270 L 21 258 C 21.450 257.501 41.630 242.364 53.950 242 C 61.502 241.730 63.765 255.267 71 255 C 78.581 255.679 82.242 243.274 90 243 C 98.702 242.702 104.373 255.162 113 255 C 125.225 254.693 134.672 239.983 147 240 C 154.788 240.777 156.049 256.949 163.650 257 C 171.019 257.026 172.910 242.660 180 242 C 190.232 241.099 198.466 253.873 208 253 C 214.959 252.433 215.509 238.886 222.600 238 C 235.276 236.449 246.825 248.192 259.550 248 C 275.954 241.734 278.698 249.010 287.250 248 C 295.267 247.038 300.338 233.775 308.050 234 C 314.061 243.900 313.268 247.605 319.600 248 C 350.542 237.898 349.097 251.401 363.500 249 C 369.938 247.919 372.531 235.131 379 236 C 387.687 238.298 388.703 254.752 397 256 C 418.233 243.558 408.886 258.828 414.350 257 C 419.802 255.128 421.780 243.870 428 244 C 436.315 245.172 442.735 253.459 447.850 260 L 448 272 L 21 273 Z " transform="matrix(1, 0, 0, 1, -18, -158)"/>
    <g id="ID0.6212248015217483">
      <path id="Back_Leg" fill="#FAA51D" stroke="#000000" d="M 38.988 80.967 C 38.988 80.967 30.156 87.168 21.918 89.379 L 22.004 89.594 C 23.251 91.418 27.873 97.092 21.670 99.090 C 16.337 100.808 6.550 85.986 10.849 83.189 C 13.475 81.476 15.741 82.937 15.741 82.937 C 15.741 82.937 19.216 81.868 21.742 80.592 C 26.046 78.430 27.526 77.139 27.526 77.139 C 27.526 77.139 31.711 72.832 34.382 73.002 C 37.051 73.172 42.440 77.715 38.988 80.967 Z M 19.646 90.090 L 21.917 89.379 " transform="matrix(0.1324125975370407, 0.010022054426372051, -0.010022054426372051, 0.1324125975370407, 313.8, 24.05)"/>
      <g id="Tail">
        <path id="Tail_1_" fill="#FAA51D" stroke="#000000" d="M 23.295 73.217 C 20.880 72.766 17.990 71.906 15.553 69.713 C 10.102 64.807 8.359 56.713 4.505 58.799 C 0.649 60.887 0.723 73.965 12.858 77.994 C 17.040 79.385 20.856 79.389 23.949 79.306 C 24.761 79.280 31.667 78.651 34.028 75.231 C 36.389 71.812 34.747 70.960 33.938 70.487 C 33.128 70.016 26.711 73.855 23.295 73.217 Z " transform="matrix(0.1324125975370407, 0.010022054426372051, -0.010022054426372051, 0.1324125975370407, 313.8, 24.05)"/>
        <path id="Tail_Tip" fill="#FFFFFF" d="M 4.641 59.107 C 3.204 59.885 2.385 62.504 2.647 65.481 C 2.788 67.075 3.751 71.133 7.615 74.553 C 7.890 74.008 6.640 71.617 8.357 70.174 C 10.194 68.631 13.217 68.949 14.210 69.113 C 12.547 67.301 11.206 65.301 10.034 63.473 C 7.751 59.922 6.475 58.116 4.641 59.107 Z " transform="matrix(0.1324125975370407, 0.010022054426372051, -0.010022054426372051, 0.1324125975370407, 313.8, 24.05)"/>
      </g>
      <path id="R_Arm" fill="#FAA51D" stroke="#000000" d="M 52.940 69.096 C 52.940 69.096 54.174 69.262 57.684 72.773 C 61.193 76.282 63.709 74.933 66.595 73.497 C 69.472 72.055 77.131 67.370 73.084 63.680 C 69.034 59.992 66.877 64.826 63.368 66.085 C 59.857 67.345 58.308 63.598 56.512 61.798 C 55.922 61.204 55.324 60.700 54.783 60.292 C 54.783 60.292 53.811 59.534 52.878 63.083 C 51.943 66.624 50.933 67.627 52.940 69.096 Z " transform="matrix(0.1324125975370407, 0.010022054426372051, -0.010022054426372051, 0.1324125975370407, 313.8, 24.05)"/>
      <g id="Front_Leg_x2F_Body_1_">
        <path id="Front_Leg_x2F_Body" fill="#FAA51D" stroke="#000000" d="M 47.524 76.224 C 48.712 75.312 49.920 73.823 51.475 71.510 C 52.771 69.584 54.174 65.933 54.174 65.933 C 55.049 63.412 56.109 59.357 52.273 58.637 C 50.720 58.346 48.194 58.539 44.603 57.861 C 41.010 57.180 37.805 55.339 35.086 60.094 C 32.367 64.851 25.495 68.365 34.029 76.656 C 34.029 76.656 38.930 80.498 44.794 86.295 C 49.626 91.069 56.838 96.898 56.838 96.898 C 56.838 96.898 75.811 99.086 76.372 96.204 C 78.295 86.415 61.597 89.294 61.597 89.294 C 61.597 89.294 56.993 85.361 54.870 83.499 C 51.393 80.441 43.745 72.728 43.745 72.728 " transform="matrix(0.1324125975370407, 0.010022054426372051, -0.010022054426372051, 0.1324125975370407, 313.8, 24.05)"/>
        <path id="Belly" fill="#FFFFFF" d="M 49.740 64.551 C 44.800 61.895 42.526 64.536 41 66.073 C 38.355 68.727 44.442 72.683 44.442 72.683 L 47.504 75.772 C 50.503 72.276 52.083 69.898 52.796 67.838 C 52.654 66.897 51.918 65.725 49.740 64.551 Z " transform="matrix(0.1324125975370407, 0.010022054426372051, -0.010022054426372051, 0.1324125975370407, 313.8, 24.05)"/>
      </g>
      <path id="L_Arm" fill="#FAA51D" stroke="#000000" d="M 30.697 67.430 C 31.446 66.859 33.587 65.228 35.551 63.773 C 37.979 61.974 41.668 57.924 36.628 56.127 C 31.588 54.326 29.120 57.731 25.108 61.072 C 22.949 62.873 19.800 63.770 20.789 67.281 C 21.782 70.793 25.651 80.688 32.578 77.451 C 39.508 74.213 30.779 68.270 29.518 66.295 " transform="matrix(0.1324125975370407, 0.010022054426372051, -0.010022054426372051, 0.1324125975370407, 313.8, 24.05)"/>
      <g id="Head">
        <g id="Head_1_">
          <path id="Head_Fill" fill="#FAA51D" stroke="#000000" d="M 86.452 37.457 C 84.980 31.010 77.561 29.878 77.561 29.878 C 77.561 29.878 77.737 24.527 74.933 19.531 C 73.077 16.224 66.582 11.489 66.582 11.489 L 63.728 -0.061 L 56.298 7.259 L 53.444 8.364 C 51.905 8.221 48.726 8.052 46.959 8.137 C 42.230 8.362 37.732 10.173 37.732 10.173 L 24.854 1.649 L 27.087 20.559 C 27.733 19.773 16.534 33.361 23.610 44.779 C 26.929 50.139 33.769 54.903 39.209 56.726 C 43.271 58.086 50.042 58.463 53.209 58.463 C 55.855 58.463 60.977 57.922 63.529 57.484 C 66.550 56.965 70.008 55.855 73.584 54.376 C 83.081 50.442 87.922 43.904 86.452 37.457 Z M 39.771 12.212 L 37.736 10.173 M 53.688 8.212 C 55.688 8.545 58.021 9.578 58.021 9.578 " transform="matrix(0.1324125975370407, 0.010022054426372051, -0.010022054426372051, 0.1324125975370407, 313.8, 24.05)"/>
          <path id="Muzzle" fill="#FFFFFF" d="M 77.146 30.129 L 74.265 27.022 L 65.152 29.683 C 65.152 29.693 65.147 31.302 63.732 32.616 C 63.086 33.216 62.149 33.754 60.784 34.051 C 56.413 35.002 49.572 31.774 49.572 31.774 L 41.788 35.191 C 41.788 35.191 37.044 35.713 34.544 38.147 C 33.711 38.959 33.127 39.982 33.052 41.270 C 32.559 49.668 41.732 54.522 48.135 56.872 C 49.913 57.524 50.523 57.723 51.607 58.011 C 51.607 58.011 59.031 57.816 61.788 57.423 C 64.820 56.991 69.366 55.665 72.942 54.187 C 82.440 50.254 87.543 44.163 86.071 37.716 C 84.597 31.265 77.146 30.129 77.146 30.129 Z " transform="matrix(0.1324125975370407, 0.010022054426372051, -0.010022054426372051, 0.1324125975370407, 313.8, 24.05)"/>
        </g>
        <g id="L_Eye">
          <path id="Eyeball_1_" fill="#FFFFFF" stroke="#000000" d="M 48.638 22.831 C 51.564 27.311 51.256 32.693 47.956 34.846 C 44.653 37.005 39.604 35.118 36.681 30.638 C 33.753 26.158 34.057 20.778 37.359 18.621 C 40.661 16.465 45.709 18.349 48.638 22.831 " transform="matrix(0.1324125975370407, 0.010022054426372051, -0.010022054426372051, 0.1324125975370407, 313.8, 24.05)"/>
          <path id="Pupil_1_" d="M 46.850 28.719 C 46.850 29.800 46.047 30.676 45.049 30.676 C 44.057 30.676 43.245 29.798 43.245 28.719 C 43.245 27.639 44.057 26.762 45.049 26.762 C 46.045 26.762 46.850 27.639 46.850 28.719 " transform="matrix(0.1324125975370407, 0.010022054426372051, -0.010022054426372051, 0.1324125975370407, 313.8, 24.05)"/>
        </g>
        <g id="R_Eye">
          <path id="Eyeball" fill="#FFFFFF" stroke="#000000" d="M 72.361 19.750 C 75.286 24.229 75.644 29.169 72.853 30.993 C 70.060 32.818 65.672 30.441 62.749 25.959 C 59.816 21.479 59.670 16.825 62.463 15 C 65.250 13.177 69.434 15.268 72.361 19.750 " transform="matrix(0.1324125975370407, 0.010022054426372051, -0.010022054426372051, 0.1324125975370407, 313.8, 24.05)"/>
          <path id="Pupil" d="M 71.860 26.734 C 71.860 27.814 71.058 28.690 70.060 28.690 C 69.067 28.690 68.256 27.813 68.256 26.734 C 68.256 25.654 69.067 24.776 70.060 24.776 C 71.058 24.776 71.860 25.654 71.860 26.734 " transform="matrix(0.1324125975370407, 0.010022054426372051, -0.010022054426372051, 0.1324125975370407, 313.8, 24.05)"/>
        </g>
        <path id="Nose" fill="#5E4A42" stroke="#000000" d="M 60.536 32.138 C 62.390 32.138 65.092 31.854 65.232 32.707 C 65.377 33.562 63.523 36.910 62.245 37.052 C 60.963 37.194 56.120 34.699 56.051 33.133 C 55.977 31.567 58.825 32.138 60.536 32.138 " transform="matrix(0.1324125975370407, 0.010022054426372051, -0.010022054426372051, 0.1324125975370407, 313.8, 24.05)"/>
        <path id="Whisker_3_" d="M 22.750 36.602 C 22.727 36.585 20.368 34.842 16.748 33.240 C 12.736 31.463 10.485 30.980 10.464 30.975 L 10.709 29.800 C 10.804 29.820 13.090 30.306 17.234 32.142 C 20.985 33.803 23.367 35.566 23.466 35.640 L 22.750 36.602 L 22.750 36.602 Z " transform="matrix(0.1324125975370407, 0.010022054426372051, -0.010022054426372051, 0.1324125975370407, 313.8, 24.05)"/>
        <path id="Whisker_2_" d="M 16.628 41.254 C 14.593 41.254 11.536 40.978 11.390 40.965 L 11.497 39.770 C 11.538 39.774 15.585 40.137 17.384 40.036 C 19.204 39.932 22.796 39.458 22.831 39.453 L 22.988 40.642 C 22.840 40.662 19.318 41.126 17.451 41.233 C 17.209 41.248 16.929 41.254 16.628 41.254 L 16.628 41.254 Z " transform="matrix(0.1324125975370407, 0.010022054426372051, -0.010022054426372051, 0.1324125975370407, 313.8, 24.05)"/>
        <path id="Whisker_1_" d="M 82.524 35.475 L 82.330 34.290 C 82.376 34.283 86.854 33.546 89.091 32.767 C 91.664 31.873 93.417 30.352 93.436 30.337 L 94.227 31.239 C 94.149 31.307 92.279 32.930 89.485 33.900 C 87.151 34.714 82.711 35.444 82.524 35.475 L 82.524 35.475 Z " transform="matrix(0.1324125975370407, 0.010022054426372051, -0.010022054426372051, 0.1324125975370407, 313.8, 24.05)"/>
        <path id="Whisker" d="M 91.551 42.979 C 90.739 42.979 89.646 42.944 88.362 42.816 C 85.504 42.530 82.778 41.437 82.663 41.390 L 83.113 40.278 C 83.140 40.289 85.799 41.353 88.481 41.622 C 91.153 41.889 92.999 41.733 93.016 41.732 L 93.120 42.927 C 93.077 42.931 92.508 42.979 91.551 42.979 L 91.551 42.979 Z " transform="matrix(0.1324125975370407, 0.010022054426372051, -0.010022054426372051, 0.1324125975370407, 313.8, 24.05)"/>
        <path id="Mouth" fill="none" stroke="#231F20" stroke-width="1.2" d="M 47.545 39.447 C 47.545 39.447 57.892 42.501 61.762 43.343 C 65.629 44.185 72.613 45.027 72.613 45.027 C 72.613 45.027 64.624 55.272 55.286 52.672 C 45.947 50.075 46.115 44.187 47.545 39.447 Z " transform="matrix(0.1324125975370407, 0.010022054426372051, -0.010022054426372051, 0.1324125975370407, 313.8, 24.05)"/>
      </g>
    </g>
  </g>
</svg>