<svg version="1.1" width="162" height="146" viewBox="-1 3 162 146" xmlns="http://www.w3.org/2000/svg" xmlns:xlink="http://www.w3.org/1999/xlink">
  <defs>
    <linearGradient id="grad_1" y2="1">
      <stop offset="0" stop-color="#402407" stop-opacity="1"/>
      <stop offset="1" stop-color="#351F03" stop-opacity="1"/>
    </linearGradient>
    <linearGradient id="grad_2" y2="1">
      <stop offset="0" stop-color="#402407" stop-opacity="1"/>
      <stop offset="1" stop-color="#351F03" stop-opacity="1"/>
    </linearGradient>
    <linearGradient id="grad_3" x2="1">
      <stop offset="0" stop-color="#402606" stop-opacity="1"/>
      <stop offset="1" stop-color="#2F1D00" stop-opacity="1"/>
    </linearGradient>
  </defs>
  <!-- Exported by Scratch - http://scratch.mit.edu/ -->
  <g id="ID0.5875018239021301" transform="matrix(0.9927749633789063, 0, 0, 0.9927749633789063, 0, 0)">
    <path id="ID0.6095231166109443" fill="#D39C5E" stroke="#D39C5E" stroke-width="2" stroke-linecap="round" d="M 351 179 C 370.871 185.118 382.776 205.798 401 215 C 420.099 225.636 449.697 222.205 462 238 C 468.864 246.813 445.984 256.162 439 266 C 434.556 272.274 435.073 283.363 428 285.050 C 407.691 290.764 385.454 290.415 365 286 C 338.103 280.194 302.242 275.205 288 256 C 280.251 245.551 319.250 241.138 322 226 C 324.660 211.399 294.571 196.968 301.550 186.395 C 309.484 174.399 335.090 174.125 351 179 Z " transform="matrix(0.7175684571266174, 0, 0, 0.7175684571266174, -198.95, -58.95)"/>
    <g id="ID0.593184054363519">
      <path id="ID0.08484571240842342" fill="#7C512C" stroke="none" stroke-linecap="round" d="M 397 119.500 C 403.442 117.575 410.767 123.244 417.147 121.112 C 422.463 119.323 423.212 109.063 429 108 C 434.043 107.076 438.026 112.989 441 117 C 446.206 124.039 450.009 132.751 453 141.500 C 453.748 143.376 452.367 146.069 450.500 144 C 443.063 135.750 441.106 121.526 431.500 116.500 C 426.338 113.798 422.916 125.588 417.500 127 C 410.725 128.760 403.677 122.437 396.500 126 C 388.472 130.099 386.813 141.598 380 147.500 C 377.910 149.288 372.108 150.227 372.500 148 C 373.511 142.177 378.879 137.029 383 132.500 C 387.102 127.464 391.083 121.277 397 119.500 Z " transform="matrix(0.17396478354930878, 0.6567548513412476, -0.6936463713645935, 0.18373680114746094, 106.4, -255.7)"/>
      <path id="ID0.7321020690724254" fill="#7F7F7F" stroke="#000000" stroke-width="2" stroke-linecap="round" d="M 414 147 C 417.878 147.483 417.520 157.812 422 160.500 C 428.508 164.397 437.524 162.334 444.500 165.500 C 446.302 166.327 445.811 169.021 444 169.500 C 436.757 171.416 423.315 164.635 421 172 C 414.831 191.635 415.057 214.743 423 233.500 C 426.317 241.089 439.680 235.152 447.500 234 C 449.841 233.654 453.242 228.116 453 229.500 C 452.554 232.061 449.781 239.920 445.500 242.500 C 436.029 248.207 425.187 253.653 414 253 C 400.634 252.220 387.622 245.917 376.500 238.500 C 372.629 235.620 371.058 225.871 372.500 224.500 C 374.015 223.153 377.892 231.943 382 233 C 389.559 234.932 402.624 240.228 406 233 C 413.810 213.646 413.667 190.869 408.500 171 C 406.710 164.575 394.441 171.579 388.500 169.500 C 386.930 168.945 386.822 165.704 388.500 164.500 C 394.069 161.165 402.432 163.141 407.500 159.500 C 411.301 156.756 410.643 146.591 414 147 Z " transform="matrix(0.7047715783119202, 0.13491258025169373, -0.13491258025169373, 0.7047715783119202, -199.3, -152.2)"/>
      <path id="ID0.4320603013038635" fill="#000000" stroke="none" d="M 418 160.500 C 419.242 160.500 420.367 161.004 421.181 161.819 C 421.996 162.633 422.500 163.758 422.500 165 C 422.500 166.242 421.996 167.367 421.181 168.181 C 420.367 168.996 419.242 169.500 418 169.500 C 416.758 169.500 415.633 168.996 414.819 168.181 C 414.004 167.367 413.500 166.242 413.500 165 C 413.500 163.758 414.004 162.633 414.819 161.819 C 415.633 161.004 416.758 160.500 418 160.500 Z " transform="matrix(0.7047715783119202, 0.13491258025169373, -0.13491258025169373, 0.7047715783119202, -201.75, -152.7)"/>
      <path id="ID0.6236423533409834" fill="#FFFFFF" stroke="none" d="M 443.500 211.500 C 443.500 211.500 443.500 211.528 443.500 211.573 C 443.500 211.619 443.500 211.681 443.500 211.750 C 443.500 211.819 443.500 211.881 443.500 211.927 C 443.500 211.972 443.500 212 443.500 212 C 443.500 212 443.500 211.972 443.500 211.927 C 443.500 211.881 443.500 211.819 443.500 211.750 C 443.500 211.681 443.500 211.619 443.500 211.573 C 443.500 211.528 443.500 211.500 443.500 211.500 Z " transform="matrix(0.7047715783119202, 0.13491258025169373, -0.13491258025169373, 0.7047715783119202, -199.3, -152.2)"/>
      <path id="ID0.08484571240842342" fill="#7C512C" stroke="none" stroke-linecap="round" d="M 437.400 115.250 C 437.334 114.303 440.047 115.110 441 115.850 C 443.485 119.542 444.163 117.947 445.400 119.350 C 447.101 121.279 448.293 123.666 449.400 126 C 450.391 128.077 451.169 130.056 451.200 132.150 C 451.542 136.144 452.193 145.703 450.500 144 C 447.274 140.758 444.632 129.218 441.300 122.100 C 440.262 119.628 437.538 117.228 437.400 115.250 Z " transform="matrix(0.18373680114746094, 0.6936463713645935, -0.6936463713645935, 0.18373680114746094, 70.8, -305.75)"/>
      <path id="ID0.4582245294004679" fill="none" stroke="#000000" stroke-width="1" stroke-linecap="round" d="M 448.650 221.900 C 449.766 221.933 450.897 221.828 452 222 C 452.276 222.043 452.500 222.500 452.500 222.500 " transform="matrix(0.7047715783119202, 0.13491258025169373, -0.13491258025169373, 0.7047715783119202, -199.3, -152.2)"/>
      <path id="ID0.18549925088882446" fill="none" stroke="#000000" stroke-width="1" stroke-linecap="round" d="M 452.300 216.500 C 452.300 216.500 454.045 216.458 454.900 216.600 C 455.267 216.661 455.611 216.865 455.900 217.100 C 456.158 217.310 456.295 217.638 456.500 217.900 C 456.595 218.021 456.800 218.250 456.800 218.250 " transform="matrix(0.7047715783119202, 0.13491258025169373, -0.13491258025169373, 0.7047715783119202, -199.3, -152.2)"/>
      <path id="ID0.9010871862992644" fill="none" stroke="#000000" stroke-width="1" stroke-linecap="round" d="M 455.650 212.100 C 455.650 212.100 456.550 212.019 457 212 C 457.333 211.986 457.667 212 458 212 C 458.333 212 458.668 211.969 459 212 C 459.387 212.036 459.789 212.057 460.150 212.200 C 460.519 212.346 460.817 212.634 461.150 212.850 C 461.233 212.904 461.150 212.850 461.150 212.850 " transform="matrix(0.7047715783119202, 0.13491258025169373, -0.13491258025169373, 0.7047715783119202, -199.3, -152.2)"/>
      <path id="ID0.9002706361934543" fill="none" stroke="#000000" stroke-width="1" stroke-linecap="round" d="M 459.500 207.100 C 459.500 207.100 460.610 206.724 461.150 206.500 C 461.494 206.357 461.796 206.115 462.150 206 C 462.470 205.896 462.814 205.875 463.150 205.850 C 463.482 205.825 463.818 205.825 464.150 205.850 C 464.486 205.875 464.821 205.930 465.150 206 C 465.372 206.047 465.800 206.200 465.800 206.200 " transform="matrix(0.7047715783119202, 0.13491258025169373, -0.13491258025169373, 0.7047715783119202, -199.3, -152.2)"/>
      <path id="ID0.8131589610129595" fill="none" stroke="#000000" stroke-width="1" stroke-linecap="round" d="M 462.500 201.850 C 462.500 201.850 463.278 201.647 463.650 201.500 C 463.996 201.363 464.327 201.186 464.650 201 C 464.994 200.802 465.278 200.489 465.650 200.350 C 466.012 200.215 466.416 200.245 466.800 200.200 C 467.132 200.161 467.465 200.100 467.800 200.100 C 468.085 200.100 468.650 200.200 468.650 200.200 " transform="matrix(0.7047715783119202, 0.13491258025169373, -0.13491258025169373, 0.7047715783119202, -199.3, -152.2)"/>
      <path id="ID0.9376086620613933" fill="none" stroke="#000000" stroke-width="1" stroke-linecap="round" d="M 463.900 196.200 C 463.900 196.200 464.630 195.628 465 195.350 C 465.296 195.128 465.596 194.911 465.900 194.700 C 466.196 194.495 466.462 194.225 466.800 194.100 C 467.114 193.984 467.468 194.042 467.800 194 C 468.134 193.958 468.464 193.875 468.800 193.850 C 469.132 193.825 469.467 193.850 469.800 193.850 C 470.033 193.850 470.500 193.850 470.500 193.850 " transform="matrix(0.7047715783119202, 0.13491258025169373, -0.13491258025169373, 0.7047715783119202, -199.3, -152.2)"/>
      <path id="ID0.067360685672611" fill="none" stroke="#000000" stroke-width="1" stroke-linecap="round" d="M 461 193.300 C 461 193.300 460.900 192.500 460.900 192.200 C 460.900 191.800 460.900 191.500 460.900 191.200 C 460.900 190.800 461 190.400 461.200 190.200 C 461.300 189.900 461.800 189.700 461.800 189.700 C 462.133 189.400 462.467 189.200 462.800 189 C 462.883 188.950 462.800 189 462.800 189 " transform="matrix(0.7047715783119202, 0.13491258025169373, -0.13491258025169373, 0.7047715783119202, -199.3, -152.2)"/>
      <path id="ID0.44444498233497143" fill="none" stroke="#000000" stroke-width="1" stroke-linecap="round" d="M 455.150 192 C 455.150 192 455.145 190.386 455.300 189.600 C 455.366 189.264 455.616 188.989 455.800 188.700 C 455.851 188.621 456 188.500 456 188.500 " transform="matrix(0.7047715783119202, 0.13491258025169373, -0.13491258025169373, 0.7047715783119202, -199.3, -152.2)"/>
      <path id="ID0.4145353944040835" fill="none" stroke="#000000" stroke-width="1" stroke-linecap="round" d="M 448.150 188.700 C 448.150 188.700 448.217 187.865 448.400 187.500 C 448.563 187.173 448.875 186.940 449.150 186.700 C 449.411 186.472 449.768 186.358 450 186.100 C 450.229 185.845 450.258 185.442 450.500 185.200 C 450.742 184.958 451.106 184.876 451.400 184.700 C 451.473 184.656 451.500 184.600 451.500 184.600 " transform="matrix(0.7047715783119202, 0.13491258025169373, -0.13491258025169373, 0.7047715783119202, -199.3, -152.2)"/>
      <path id="ID0.6928726802580059" fill="none" stroke="#000000" stroke-width="1" stroke-linecap="round" d="M 445.650 181.350 C 445.650 181.350 446.204 180.769 446.500 180.500 C 446.754 180.269 447.011 180.035 447.300 179.850 C 447.614 179.650 447.967 179.517 448.300 179.350 C 448.466 179.267 448.800 179.100 448.800 179.100 " transform="matrix(0.7047715783119202, 0.13491258025169373, -0.13491258025169373, 0.7047715783119202, -199.3, -152.2)"/>
      <path id="ID0.25517935352399945" fill="none" stroke="#000000" stroke-width="1" stroke-linecap="round" d="M 444.500 175.500 C 444.500 175.500 444.889 174.861 445.150 174.600 C 445.444 174.306 445.801 174.077 446.150 173.850 C 446.519 173.610 446.907 173.397 447.300 173.200 C 447.574 173.063 448.150 172.850 448.150 172.850 " transform="matrix(0.7047715783119202, 0.13491258025169373, -0.13491258025169373, 0.7047715783119202, -199.3, -152.2)"/>
      <path id="ID0.7078137840144336" fill="none" stroke="#000000" stroke-width="1" stroke-linecap="round" d="M 412.350 167.350 C 413.016 167.400 413.689 167.402 414.350 167.500 C 414.515 167.525 414.700 167.700 414.700 167.700 " transform="matrix(0.7047715783119202, 0.13491258025169373, -0.13491258025169373, 0.7047715783119202, -199.3, -152.2)"/>
      <path id="ID0.4247505199164152" fill="none" stroke="#000000" stroke-width="1" stroke-linecap="round" d="M 408.700 172.500 C 408.700 172.500 410.578 172.454 411.500 172.600 C 411.868 172.658 412.228 172.846 412.500 173.100 C 412.751 173.334 412.816 173.711 413 174 C 413.051 174.079 413.200 174.200 413.200 174.200 " transform="matrix(0.7047715783119202, 0.13491258025169373, -0.13491258025169373, 0.7047715783119202, -199.3, -152.2)"/>
      <path id="ID0.1194304684177041" fill="none" stroke="#000000" stroke-width="1" stroke-linecap="round" d="M 404.350 177.500 C 404.350 177.500 405.248 177.350 405.700 177.350 C 406.037 177.350 406.387 177.376 406.700 177.500 C 407.035 177.632 407.321 177.872 407.600 178.100 C 407.873 178.324 408.117 178.584 408.350 178.850 C 408.585 179.118 408.825 179.390 409 179.700 C 409.049 179.787 409 180 409 180 " transform="matrix(0.7047715783119202, 0.13491258025169373, -0.13491258025169373, 0.7047715783119202, -199.3, -152.2)"/>
      <path id="ID0.04366484750062227" fill="none" stroke="#000000" stroke-width="1" stroke-linecap="round" d="M 400 181.100 C 400 181.100 400.762 181.055 401.100 181.200 C 401.492 181.368 401.790 181.707 402.100 182 C 402.375 182.259 402.626 182.546 402.850 182.850 C 403.045 183.115 403.350 183.700 403.350 183.700 " transform="matrix(0.7047715783119202, 0.13491258025169373, -0.13491258025169373, 0.7047715783119202, -199.3, -152.2)"/>
      <path id="ID0.9239019267261028" fill="none" stroke="#000000" stroke-width="1" stroke-linecap="round" d="M 397.100 184.500 C 397.100 184.500 397.825 184.825 398.100 185.100 C 398.342 185.342 398.436 185.699 398.600 186 C 398.641 186.075 398.700 186.200 398.700 186.200 " transform="matrix(0.7047715783119202, 0.13491258025169373, -0.13491258025169373, 0.7047715783119202, -199.3, -152.2)"/>
    </g>
    <g id="ID0.11242985958233476">
      <path id="ID0.8690051888115704" fill="#CCE117" stroke="#646709" stroke-width="2" stroke-linecap="round" d="M 46 288 C 66.741 284.918 89.475 279.302 107 289 C 118.206 294.835 114.588 313.003 114.362 324.958 C 114.263 329.782 110.658 338 108 338 C 105.342 338 102.414 329.802 101.638 324.958 C 100.289 307.827 108.670 301.834 101 296 C 90.324 287.937 74.767 293.254 62 294 C 55.879 294.265 49.481 301.236 45 299 C 41.808 297.281 40.815 288.770 46 288 Z " transform="matrix(0.7175684571266174, 0, 0, 0.7175684571266174, -28.9, -141.45)"/>
      <path id="ID0.8690051888115704" fill="#CCE117" stroke="#646709" stroke-width="2" stroke-linecap="round" d="M 67.750 252.750 C 83.244 261.451 97.968 274.509 107 289 C 113.449 299.379 114.588 313.003 114.362 324.958 C 114.263 329.782 110.658 338 108 338 C 105.342 338 102.414 329.802 101.638 324.958 C 100.289 307.827 106.105 304.173 101 296 C 92.254 281.949 76.691 272.517 63.750 261.750 C 59.518 258.694 48.754 257.342 49.750 254.750 C 50.739 252.274 62.179 249.653 67.750 252.750 Z " transform="matrix(0.7175684571266174, 0, 0, 0.7175684571266174, -18.7, -142.75)"/>
      <path id="ID0.8690051888115704" fill="#CCE117" stroke="#646709" stroke-width="2" stroke-linecap="round" d="M 58.900 222.450 C 78.915 241.072 94.585 265.282 107 289 C 112.662 299.830 114.588 313.003 114.362 324.958 C 114.263 329.782 110.658 338 108 338 C 105.342 338 102.414 329.802 101.638 324.958 C 100.289 307.827 104.961 304.794 101 296 C 90.604 272.923 76.489 250.457 58.900 231.450 C 54.098 225.813 37.046 227.011 36.900 225.450 C 36.754 223.891 53.689 217.607 58.900 222.450 Z " transform="matrix(0.7175684571266174, 0, 0, 0.7175684571266174, -9.4, -142.5)"/>
    </g>
    <path id="ID0.568838894367218" fill="#EEC997" stroke="none" stroke-linecap="round" d="M 98.500 291 C 106.279 288.725 112.763 272.785 118 278 C 128.015 288.050 128.711 313.514 128.200 323.500 C 128.231 327.417 123.334 306.348 117 307 C 105.541 308.211 99.857 325.980 88 326 C 81.580 326.015 86.621 311.097 81 308 C 72.794 303.500 57.877 309.091 53 304.500 C 50.257 301.911 58.098 297.400 66.335 294.957 C 74.572 292.513 88.150 294.055 98.500 291 Z " transform="matrix(0.03176150843501091, 0.41475602984428406, -0.41475602984428406, 0.03176150843501091, 218.65, 83.55)"/>
    <path id="ID0.568838894367218" fill="#EEC997" stroke="none" stroke-linecap="round" d="M 98.500 291 C 106.279 288.725 110.841 275.876 118 278 C 130.148 281.605 143.801 295.639 144 304.500 C 144.093 310.600 125.675 303.969 117 307 C 106.502 311.330 99.857 325.980 88 326 C 81.580 326.015 86.621 311.097 81 308 C 72.794 303.500 57.877 309.091 53 304.500 C 50.257 301.911 58.098 297.400 66.335 294.957 C 74.572 292.513 88.150 294.055 98.500 291 Z " transform="matrix(0.31834250688552856, 0.26774877309799194, -0.26774877309799194, 0.31834250688552856, 97.75, 3.05)"/>
    <g id="ID0.11242985958233476">
      <path id="ID0.8690051888115704" fill="#CCE117" stroke="#646709" stroke-width="2" stroke-linecap="round" d="M 46 288 C 66.741 284.918 89.475 279.302 107 289 C 118.206 294.835 114.588 313.003 114.362 324.958 C 114.263 329.782 110.658 338 108 338 C 105.342 338 102.414 329.802 101.638 324.958 C 100.289 307.827 108.670 301.834 101 296 C 90.324 287.937 74.767 293.254 62 294 C 55.879 294.265 49.481 301.236 45 299 C 41.808 297.281 40.815 288.770 46 288 Z " transform="matrix(-0.41364967823028564, -0.2576090097427368, -0.2576090097427368, 0.41364967823028564, 244.3, 5.35)"/>
      <path id="ID0.8690051888115704" fill="#CCE117" stroke="#646709" stroke-width="2" stroke-linecap="round" d="M 67.750 252.750 C 83.244 261.451 97.968 274.509 107 289 C 113.449 299.379 114.588 313.003 114.362 324.958 C 114.263 329.782 110.658 338 108 338 C 105.342 338 102.414 329.802 101.638 324.958 C 100.289 307.827 106.105 304.173 101 296 C 92.254 281.949 76.691 272.517 63.750 261.750 C 59.518 258.694 48.754 257.342 49.750 254.750 C 50.739 252.274 62.179 249.653 67.750 252.750 Z " transform="matrix(-0.41364967823028564, -0.2576090097427368, -0.2576090097427368, 0.41364967823028564, 238.85, 0.95)"/>
      <path id="ID0.8690051888115704" fill="#CCE117" stroke="#646709" stroke-width="2" stroke-linecap="round" d="M 58.900 222.450 C 78.915 241.072 94.585 265.282 107 289 C 112.662 299.830 114.588 313.003 114.362 324.958 C 114.263 329.782 110.658 338 108 338 C 105.342 338 102.414 329.802 101.638 324.958 C 100.289 307.827 104.961 304.794 101 296 C 90.604 272.923 76.489 250.457 58.900 231.450 C 54.098 225.813 37.046 227.011 36.900 225.450 C 36.754 223.891 53.689 217.607 58.900 222.450 Z " transform="matrix(-0.41364967823028564, -0.2576090097427368, -0.2576090097427368, 0.41364967823028564, 233.45, -2.1)"/>
    </g>
    <g id="ID0.7139145298860967">
      <path id="ID0.11953883292153478" fill="#FFBE00" stroke="#FFBE00" stroke-width="2" stroke-linecap="round" d="M 58 226.500 L 113.500 212.500 L 175.250 233.250 L 123.500 252.250 L 58 226.500 Z " transform="matrix(0.7175684571266174, 0, 0, 0.7175684571266174, -8.8, -83.3)"/>
      <path id="ID0.95182174583897" fill="#D4A603" stroke="#2F1D00" stroke-width="1" d="M 23.250 258.750 C 25.802 258.750 28.115 259.422 29.789 260.508 C 31.464 261.595 32.500 263.095 32.500 264.750 C 32.500 266.405 31.464 267.905 29.789 268.992 C 28.115 270.078 25.802 270.750 23.250 270.750 C 20.698 270.750 18.385 270.078 16.711 268.992 C 15.036 267.905 14 266.405 14 264.750 C 14 263.095 15.036 261.595 16.711 260.508 C 18.385 259.422 20.698 258.750 23.250 258.750 Z " transform="matrix(0.5021324753761292, 0.16654060781002045, -0.18967123329639435, 0.571873128414154, 117.4, -80.3)"/>
      <path id="ID0.95182174583897" fill="#FFBE00" stroke="#2F1D00" stroke-width="1" d="M 23.250 258.750 C 25.802 258.750 28.115 259.422 29.789 260.508 C 31.464 261.595 32.500 263.095 32.500 264.750 C 32.500 266.405 31.464 267.905 29.789 268.992 C 28.115 270.078 25.802 270.750 23.250 270.750 C 20.698 270.750 18.385 270.078 16.711 268.992 C 15.036 267.905 14 266.405 14 264.750 C 14 263.095 15.036 261.595 16.711 260.508 C 18.385 259.422 20.698 258.750 23.250 258.750 Z " transform="matrix(0.5980257987976074, 0.19834524393081665, -0.22589318454265594, 0.6810849905014038, 122.9, -105.25)"/>
      <path id="ID0.14635724388062954" fill="#FFEC00" stroke="#000000" stroke-width="1" d="M 105.750 219 C 107.612 219 109.300 219.532 110.522 220.392 C 111.744 221.252 112.500 222.440 112.500 223.750 C 112.500 225.060 111.744 226.248 110.522 227.108 C 109.300 227.968 107.612 228.500 105.750 228.500 C 103.888 228.500 102.200 227.968 100.978 227.108 C 99.756 226.248 99 225.060 99 223.750 C 99 222.440 99.756 221.252 100.978 220.392 C 102.200 219.532 103.888 219 105.750 219 Z " transform="matrix(0.5301786661148071, 0.4835442304611206, -0.4835442304611206, 0.5301786661148071, 136, -88.5)"/>
      <path id="ID0.828320536762476" fill="#AE835E" stroke="#000000" stroke-width="2" stroke-linecap="round" d="M 220.500 266 L 254 266 L 254 298 L 243.500 297.500 L 242.500 282.500 L 237 282 L 232.500 282 L 231.500 298 L 220.500 298 L 220.500 266 Z " transform="matrix(0.35924676060676575, 0.057615045458078384, -0.04421619698405266, 0.27570101618766785, 35.85, -53.1)"/>
      <path id="ID0.14635724388062954" fill="#FFD063" stroke="#000000" stroke-width="1" d="M 105.750 219 C 107.612 219 109.300 219.532 110.522 220.392 C 111.744 221.252 112.500 222.440 112.500 223.750 C 112.500 225.060 111.744 226.248 110.522 227.108 C 109.300 227.968 107.612 228.500 105.750 228.500 C 103.888 228.500 102.200 227.968 100.978 227.108 C 99.756 226.248 99 225.060 99 223.750 C 99 222.440 99.756 221.252 100.978 220.392 C 102.200 219.532 103.888 219 105.750 219 Z " transform="matrix(0.7175684571266174, 0, 0, 0.7175684571266174, 14.45, -79.5)"/>
      <path id="ID0.95182174583897" fill="#FFBE00" stroke="#2F1D00" stroke-width="1" d="M 23.250 258.750 C 25.802 258.750 28.115 259.422 29.789 260.508 C 31.464 261.595 32.500 263.095 32.500 264.750 C 32.500 266.405 31.464 267.905 29.789 268.992 C 28.115 270.078 25.802 270.750 23.250 270.750 C 20.698 270.750 18.385 270.078 16.711 268.992 C 15.036 267.905 14 266.405 14 264.750 C 14 263.095 15.036 261.595 16.711 260.508 C 18.385 259.422 20.698 258.750 23.250 258.750 Z " transform="matrix(0.5980257987976074, 0.19834524393081665, -0.22589318454265594, 0.6810849905014038, 138.45, -98.55)"/>
      <path id="ID0.95182174583897" fill="#FFED00" stroke="#2F1D00" stroke-width="1" d="M 23.250 258.750 C 25.802 258.750 28.115 259.422 29.789 260.508 C 31.464 261.595 32.500 263.095 32.500 264.750 C 32.500 266.405 31.464 267.905 29.789 268.992 C 28.115 270.078 25.802 270.750 23.250 270.750 C 20.698 270.750 18.385 270.078 16.711 268.992 C 15.036 267.905 14 266.405 14 264.750 C 14 263.095 15.036 261.595 16.711 260.508 C 18.385 259.422 20.698 258.750 23.250 258.750 Z " transform="matrix(0.630060076713562, 0, 0, 0.7175684571266174, 33.85, -109.2)"/>
      <g id="ID0.6995943421497941">
        <g id="ID0.1705539058893919">
          <path id="ID0.43905050912871957" fill="#AE835E" stroke="#000000" stroke-linecap="round" d="M 55 96 L 123 119 L 123 171 L 55 139 L 55 96 Z " transform="matrix(0.7175684571266174, 0, 0, 0.7175684571266174, -8.8, 11.3)"/>
          <path id="ID0.3650492839515209" fill="#8B6338" stroke="#000000" stroke-linecap="round" d="M 61 105 L 114 126 L 114 159 L 61 135 L 61 105 Z " transform="matrix(0.7175684571266174, 0, 0, 0.7175684571266174, -8.8, 11.3)"/>
          <path id="ID0.3488199417479336" fill="none" stroke="#000000" stroke-linecap="round" d="M -24.500 216 L 28.500 237 " transform="matrix(0.7175684571266174, 0, 0, 0.7175684571266174, 52.85, -62.9)"/>
          <path id="ID0.3488199417479336" fill="none" stroke="#000000" stroke-linecap="round" d="M -24.500 216 L 28.500 237 " transform="matrix(0.7175684571266174, 0, 0, 0.7175684571266174, 52.45, -56.8)"/>
          <path id="ID0.3488199417479336" fill="none" stroke="#000000" stroke-linecap="round" d="M -24.500 216 L 28.500 237 " transform="matrix(0.7175684571266174, 0, 0, 0.7175684571266174, 52.45, -51.05)"/>
        </g>
        <path id="ID0.048101059161126614" fill="#8D6338" stroke="#000000" stroke-linecap="round" d="M 122.500 118 L 180 101.500 L 180 151 L 123 170 L 122.500 118 Z " transform="matrix(0.7175684571266174, 0, 0, 0.7175684571266174, -8.4, 12.35)"/>
        <path id="ID0.29947247449308634" fill="#7C512C" stroke="#000000" stroke-linecap="round" d="M 131 120.500 L 173.500 108 L 174 149 L 131.500 162 L 131 120.500 Z " transform="matrix(0.7175684571266174, 0, 0, 0.7175684571266174, -8.8, 13.1)"/>
        <path id="ID0.2403766461648047" fill="none" stroke="#000000" stroke-linecap="round" d="M 131 248.500 L 173.500 237 " transform="matrix(0.7175684571266174, 0, 0, 0.7175684571266174, -8.8, -73.25)"/>
        <path id="ID0.2403766461648047" fill="none" stroke="#000000" stroke-linecap="round" d="M 131 248.500 L 173.500 237 " transform="matrix(0.7175684571266174, 0, 0, 0.7175684571266174, -8.6, -65.2)"/>
        <path id="ID0.2403766461648047" fill="none" stroke="#000000" stroke-linecap="round" d="M 131 248.500 L 173.500 237 " transform="matrix(0.7175684571266174, 0, 0, 0.7175684571266174, -8.6, -57)"/>
        <path id="ID0.7126770615577698" fill="#BDAE58" stroke="#000000" stroke-linecap="round" d="M 54.500 210.500 L 123 233.500 L 181 218 L 181 221 L 122.600 234.900 L 54.500 213.500 L 54.500 210.500 Z " transform="matrix(-0.7175684571266174, 0, 0, -0.7175684571266174, 160, 236.55)"/>
        <path id="ID0.7126770615577698" fill="#BDAE58" stroke="#000000" stroke-linecap="round" d="M 54.500 210.500 L 123 233.500 L 181 218 L 181 221 L 124 237.500 L 54.500 213.500 L 54.500 210.500 Z " transform="matrix(0.7175684571266174, 0, 0, 0.7175684571266174, -8.8, -73.25)"/>
      </g>
      <path id="ID0.5111572868190706" fill="#AF825C" stroke="#000000" stroke-width="2" stroke-linecap="round" d="M 109 44.500 L 193.500 47 L 168.500 102.500 L 100 80.500 L 109 44.500 Z " transform="matrix(0.7175684571266174, 0, 0, 0.7175684571266174, 0.85, 9.15)"/>
      <path id="ID0.9214681424200535" fill="url(#grad_1)" stroke="url(#grad_2)" stroke-width="2" stroke-linecap="round" d="M 113 46.500 L 189 50.500 L 166.500 101 L 105.500 82 L 113 46.500 Z " transform="matrix(0.6839980483055115, 0, 0, 0.6483516693115234, 3.55, 13.3)"/>
      <path id="ID0.6994984769262373" fill="url(#grad_3)" stroke="#000000" stroke-linecap="round" d="M 95.500 95.250 L 87.750 128.750 C 87.251 131.372 95.700 125.500 100.500 122.500 C 102.550 120.600 105.150 118.950 106.500 116.500 C 107.750 114.100 108.150 111.200 108 108.500 C 107.800 105.700 107.351 102.559 105.500 100.500 C 103.055 97.754 96.972 93.452 96 95 Z " transform="matrix(0.6839980483055115, 0, 0, 0.6483516693115234, 15.9, -18.05)"/>
      <g id="ID0.7322061732411385">
        <path id="ID0.4833239926956594" fill="#8B6338" stroke="#000000" stroke-width="2" stroke-linecap="round" d="M 194 47 C 196.097 43.908 199.511 48.806 201 51 C 204.069 55.995 207.270 61.676 207 67.500 C 206.653 74.975 202.771 82.036 199 88.500 C 196.804 92.264 193.474 95.714 189.500 97.500 C 183.813 100.043 173.962 103.653 170 101 C 167.213 99.130 173.805 92.315 175.750 88 C 181.913 74.335 185.613 59.369 194 47 Z " transform="matrix(0.7175684571266174, 0, 0, 0.7175684571266174, 0.05, 9.45)"/>
        <path id="ID0.6493554706685245" fill="#7C512C" stroke="#000000" stroke-width="2" stroke-linecap="round" d="M 197.500 57.750 C 195.282 57.544 193.873 62.303 192.500 64.800 C 191.103 67.692 190.510 70.909 189.250 73.800 C 186.409 80.325 178.937 90.643 180.500 93.300 C 181.935 95.734 191.008 88.560 195.250 84.800 C 197.604 82.713 198.628 79.201 199.750 76.050 C 200.894 72.889 202.391 69.535 202 66 C 201.654 62.891 199.886 57.989 197.500 57.750 Z " transform="matrix(0.7175684571266174, 0, 0, 0.7175684571266174, -0.15, 9.95)"/>
      </g>
      <path id="ID0.95182174583897" fill="#FFBE00" stroke="#2F1D00" stroke-width="1" d="M 23.250 258.750 C 25.802 258.750 28.115 259.422 29.789 260.508 C 31.464 261.595 32.500 263.095 32.500 264.750 C 32.500 266.405 31.464 267.905 29.789 268.992 C 28.115 270.078 25.802 270.750 23.250 270.750 C 20.698 270.750 18.385 270.078 16.711 268.992 C 15.036 267.905 14 266.405 14 264.750 C 14 263.095 15.036 261.595 16.711 260.508 C 18.385 259.422 20.698 258.750 23.250 258.750 Z " transform="matrix(0.5980257987976074, 0.19834524393081665, -0.22589318454265594, 0.6810849905014038, 104.1, -106.05)"/>
      <path id="ID0.95182174583897" fill="#D4A603" stroke="#2F1D00" stroke-width="1" d="M 23.250 258.750 C 25.802 258.750 28.115 259.422 29.789 260.508 C 31.464 261.595 32.500 263.095 32.500 264.750 C 32.500 266.405 31.464 267.905 29.789 268.992 C 28.115 270.078 25.802 270.750 23.250 270.750 C 20.698 270.750 18.385 270.078 16.711 268.992 C 15.036 267.905 14 266.405 14 264.750 C 14 263.095 15.036 261.595 16.711 260.508 C 18.385 259.422 20.698 258.750 23.250 258.750 Z " transform="matrix(0.5021324753761292, 0.16654060781002045, -0.18967123329639435, 0.571873128414154, 102.75, -71.5)"/>
      <path id="ID0.14635724388062954" fill="#FFEC00" stroke="#000000" stroke-width="1" d="M 105.750 219 C 107.612 219 109.300 219.532 110.522 220.392 C 111.744 221.252 112.500 222.440 112.500 223.750 C 112.500 225.060 111.744 226.248 110.522 227.108 C 109.300 227.968 107.612 228.500 105.750 228.500 C 103.888 228.500 102.200 227.968 100.978 227.108 C 99.756 226.248 99 225.060 99 223.750 C 99 222.440 99.756 221.252 100.978 220.392 C 102.200 219.532 103.888 219 105.750 219 Z " transform="matrix(0.6987977027893066, 0.16305281221866608, -0.16305281221866608, 0.6987977027893066, 32.65, -98.65)"/>
      <path id="ID0.14635724388062954" fill="#FFD063" stroke="#000000" stroke-width="1" d="M 105.750 219 C 107.612 219 109.300 219.532 110.522 220.392 C 111.744 221.252 112.500 222.440 112.500 223.750 C 112.500 225.060 111.744 226.248 110.522 227.108 C 109.300 227.968 107.612 228.500 105.750 228.500 C 103.888 228.500 102.200 227.968 100.978 227.108 C 99.756 226.248 99 225.060 99 223.750 C 99 222.440 99.756 221.252 100.978 220.392 C 102.200 219.532 103.888 219 105.750 219 Z " transform="matrix(0.7175684571266174, 0, 0, 0.7175684571266174, -8.8, -83.3)"/>
      <path id="ID0.14635724388062954" fill="#FFEC00" stroke="#000000" stroke-width="1" d="M 105.750 219 C 107.612 219 109.300 219.532 110.522 220.392 C 111.744 221.252 112.500 222.440 112.500 223.750 C 112.500 225.060 111.744 226.248 110.522 227.108 C 109.300 227.968 107.612 228.500 105.750 228.500 C 103.888 228.500 102.200 227.968 100.978 227.108 C 99.756 226.248 99 225.060 99 223.750 C 99 222.440 99.756 221.252 100.978 220.392 C 102.200 219.532 103.888 219 105.750 219 Z " transform="matrix(0.706652045249939, -0.12468897551298141, 0.12468897551298141, 0.706652045249939, -3.7, -61.2)"/>
      <path id="ID0.95182174583897" fill="#D4A603" stroke="#2F1D00" stroke-width="1" d="M 23.250 258.750 C 25.802 258.750 28.115 259.422 29.789 260.508 C 31.464 261.595 32.500 263.095 32.500 264.750 C 32.500 266.405 31.464 267.905 29.789 268.992 C 28.115 270.078 25.802 270.750 23.250 270.750 C 20.698 270.750 18.385 270.078 16.711 268.992 C 15.036 267.905 14 266.405 14 264.750 C 14 263.095 15.036 261.595 16.711 260.508 C 18.385 259.422 20.698 258.750 23.250 258.750 Z " transform="matrix(-0.05742955952882767, 0.5259036421775818, -0.5989457964897156, -0.06540587544441223, 245.2, 92.15)"/>
      <path id="ID0.14635724388062954" fill="#FFEC00" stroke="#000000" stroke-width="1" d="M 105.750 219 C 107.612 219 109.300 219.532 110.522 220.392 C 111.744 221.252 112.500 222.440 112.500 223.750 C 112.500 225.060 111.744 226.248 110.522 227.108 C 109.300 227.968 107.612 228.500 105.750 228.500 C 103.888 228.500 102.200 227.968 100.978 227.108 C 99.756 226.248 99 225.060 99 223.750 C 99 222.440 99.756 221.252 100.978 220.392 C 102.200 219.532 103.888 219 105.750 219 Z " transform="matrix(0.6618282198905945, 0.27728667855262756, -0.27728667855262756, 0.6618282198905945, 64.4, -90.95)"/>
      <path id="ID0.14635724388062954" fill="#FFD063" stroke="#000000" stroke-width="1" d="M 105.750 219 C 107.612 219 109.300 219.532 110.522 220.392 C 111.744 221.252 112.500 222.440 112.500 223.750 C 112.500 225.060 111.744 226.248 110.522 227.108 C 109.300 227.968 107.612 228.500 105.750 228.500 C 103.888 228.500 102.200 227.968 100.978 227.108 C 99.756 226.248 99 225.060 99 223.750 C 99 222.440 99.756 221.252 100.978 220.392 C 102.200 219.532 103.888 219 105.750 219 Z " transform="matrix(0.49104225635528564, 0.5232417583465576, -0.5232417583465576, 0.49104225635528564, 143.65, -76.9)"/>
      <g id="ID0.5503524877130985">
        <path id="ID0.6075039426796138" fill="#98D2F5" stroke="#426C7D" stroke-width="2" d="M 235.500 307 C 237.293 307 238.918 307.728 240.095 308.905 C 241.272 310.082 242 311.707 242 313.500 C 242 315.293 241.272 316.918 240.095 318.095 C 238.918 319.272 237.293 320 235.500 320 C 233.707 320 232.082 319.272 230.905 318.095 C 229.728 316.918 229 315.293 229 313.500 C 229 311.707 229.728 310.082 230.905 308.905 C 232.082 307.728 233.707 307 235.500 307 Z " transform="matrix(-0.2518501579761505, -0.04751889780163765, 0.04751889780163765, -0.2518501579761505, 129.3, 183.8)"/>
        <path id="ID0.6075039426796138" fill="#98D2F5" stroke="#426C7D" stroke-width="2" d="M 235.500 307 C 237.293 307 238.918 307.728 240.095 308.905 C 241.272 310.082 242 311.707 242 313.500 C 242 315.293 241.272 316.918 240.095 318.095 C 238.918 319.272 237.293 320 235.500 320 C 233.707 320 232.082 319.272 230.905 318.095 C 229.728 316.918 229 315.293 229 313.500 C 229 311.707 229.728 310.082 230.905 308.905 C 232.082 307.728 233.707 307 235.500 307 Z " transform="matrix(-0.2518501579761505, -0.04751889780163765, 0.04751889780163765, -0.2518501579761505, 126.25, 185.2)"/>
        <path id="ID0.6075039426796138" fill="#98D2F5" stroke="#426C7D" stroke-width="2" d="M 235.500 307 C 237.293 307 238.918 307.728 240.095 308.905 C 241.272 310.082 242 311.707 242 313.500 C 242 315.293 241.272 316.918 240.095 318.095 C 238.918 319.272 237.293 320 235.500 320 C 233.707 320 232.082 319.272 230.905 318.095 C 229.728 316.918 229 315.293 229 313.500 C 229 311.707 229.728 310.082 230.905 308.905 C 232.082 307.728 233.707 307 235.500 307 Z " transform="matrix(-0.2518501579761505, -0.04751889780163765, 0.04751889780163765, -0.2518501579761505, 124.05, 188.2)"/>
        <path id="ID0.6075039426796138" fill="#98D2F5" stroke="#426C7D" stroke-width="2" d="M 235.500 307 C 237.293 307 238.918 307.728 240.095 308.905 C 241.272 310.082 242 311.707 242 313.500 C 242 315.293 241.272 316.918 240.095 318.095 C 238.918 319.272 237.293 320 235.500 320 C 233.707 320 232.082 319.272 230.905 318.095 C 229.728 316.918 229 315.293 229 313.500 C 229 311.707 229.728 310.082 230.905 308.905 C 232.082 307.728 233.707 307 235.500 307 Z " transform="matrix(-0.2518501579761505, -0.04751889780163765, 0.04751889780163765, -0.2518501579761505, 123.65, 191.6)"/>
        <path id="ID0.6075039426796138" fill="#98D2F5" stroke="#426C7D" stroke-width="2" d="M 235.500 307 C 237.293 307 238.918 307.728 240.095 308.905 C 241.272 310.082 242 311.707 242 313.500 C 242 315.293 241.272 316.918 240.095 318.095 C 238.918 319.272 237.293 320 235.500 320 C 233.707 320 232.082 319.272 230.905 318.095 C 229.728 316.918 229 315.293 229 313.500 C 229 311.707 229.728 310.082 230.905 308.905 C 232.082 307.728 233.707 307 235.500 307 Z " transform="matrix(-0.2518501579761505, -0.04751889780163765, 0.04751889780163765, -0.2518501579761505, 121.75, 194.1)"/>
        <path id="ID0.6075039426796138" fill="#98D2F5" stroke="#426C7D" stroke-width="2" d="M 235.500 307 C 237.293 307 238.918 307.728 240.095 308.905 C 241.272 310.082 242 311.707 242 313.500 C 242 315.293 241.272 316.918 240.095 318.095 C 238.918 319.272 237.293 320 235.500 320 C 233.707 320 232.082 319.272 230.905 318.095 C 229.728 316.918 229 315.293 229 313.500 C 229 311.707 229.728 310.082 230.905 308.905 C 232.082 307.728 233.707 307 235.500 307 Z " transform="matrix(-0.2518501579761505, -0.04751889780163765, 0.04751889780163765, -0.2518501579761505, 118.2, 194.45)"/>
        <path id="ID0.6075039426796138" fill="#98D2F5" stroke="#426C7D" stroke-width="2" d="M 235.500 307 C 237.293 307 238.918 307.728 240.095 308.905 C 241.272 310.082 242 311.707 242 313.500 C 242 315.293 241.272 316.918 240.095 318.095 C 238.918 319.272 237.293 320 235.500 320 C 233.707 320 232.082 319.272 230.905 318.095 C 229.728 316.918 229 315.293 229 313.500 C 229 311.707 229.728 310.082 230.905 308.905 C 232.082 307.728 233.707 307 235.500 307 Z " transform="matrix(-0.2518501579761505, -0.04751889780163765, 0.04751889780163765, -0.2518501579761505, 115.7, 192.25)"/>
        <path id="ID0.6075039426796138" fill="#98D2F5" stroke="#426C7D" stroke-width="2" d="M 235.500 307 C 237.293 307 238.918 307.728 240.095 308.905 C 241.272 310.082 242 311.707 242 313.500 C 242 315.293 241.272 316.918 240.095 318.095 C 238.918 319.272 237.293 320 235.500 320 C 233.707 320 232.082 319.272 230.905 318.095 C 229.728 316.918 229 315.293 229 313.500 C 229 311.707 229.728 310.082 230.905 308.905 C 232.082 307.728 233.707 307 235.500 307 Z " transform="matrix(-0.2518501579761505, -0.04751889780163765, 0.04751889780163765, -0.2518501579761505, 114.25, 189.3)"/>
        <path id="ID0.6075039426796138" fill="#98D2F5" stroke="#426C7D" stroke-width="2" d="M 235.500 307 C 237.293 307 238.918 307.728 240.095 308.905 C 241.272 310.082 242 311.707 242 313.500 C 242 315.293 241.272 316.918 240.095 318.095 C 238.918 319.272 237.293 320 235.500 320 C 233.707 320 232.082 319.272 230.905 318.095 C 229.728 316.918 229 315.293 229 313.500 C 229 311.707 229.728 310.082 230.905 308.905 C 232.082 307.728 233.707 307 235.500 307 Z " transform="matrix(-0.2518501579761505, -0.04751889780163765, 0.04751889780163765, -0.2518501579761505, 112.4, 186.55)"/>
        <path id="ID0.6075039426796138" fill="#98D2F5" stroke="#426C7D" stroke-width="2" d="M 235.500 307 C 237.293 307 238.918 307.728 240.095 308.905 C 241.272 310.082 242 311.707 242 313.500 C 242 315.293 241.272 316.918 240.095 318.095 C 238.918 319.272 237.293 320 235.500 320 C 233.707 320 232.082 319.272 230.905 318.095 C 229.728 316.918 229 315.293 229 313.500 C 229 311.707 229.728 310.082 230.905 308.905 C 232.082 307.728 233.707 307 235.500 307 Z " transform="matrix(-0.2518501579761505, -0.04751889780163765, 0.04751889780163765, -0.2518501579761505, 113.45, 183.5)"/>
        <path id="ID0.6075039426796138" fill="#98D2F5" stroke="#426C7D" stroke-width="2" d="M 235.500 307 C 237.293 307 238.918 307.728 240.095 308.905 C 241.272 310.082 242 311.707 242 313.500 C 242 315.293 241.272 316.918 240.095 318.095 C 238.918 319.272 237.293 320 235.500 320 C 233.707 320 232.082 319.272 230.905 318.095 C 229.728 316.918 229 315.293 229 313.500 C 229 311.707 229.728 310.082 230.905 308.905 C 232.082 307.728 233.707 307 235.500 307 Z " transform="matrix(-0.2518501579761505, -0.04751889780163765, 0.04751889780163765, -0.2518501579761505, 112.35, 180.15)"/>
      </g>
    </g>
    <g id="ID0.24890166614204645">
      <path id="ID0.5602954248897731" fill="#96D4FF" stroke="#4F7E83" stroke-width="2" d="M 157 285 C 160.862 285 164.362 286.569 166.897 289.103 C 169.431 291.638 171 295.138 171 299 C 171 302.862 169.431 306.362 166.897 308.897 C 164.362 311.431 160.862 313 157 313 C 153.138 313 149.638 311.431 147.103 308.897 C 144.569 306.362 143 302.862 143 299 C 143 295.138 144.569 291.638 147.103 289.103 C 149.638 286.569 153.138 285 157 285 Z " transform="matrix(0.40662211179733276, 0, 0, 0.40662211179733276, 5.1, -73.25)"/>
      <path id="ID0.026205711532384157" fill="#FFFFFF" stroke="none" d="M 157.875 290.250 C 159.220 290.250 160.439 290.656 161.321 291.312 C 162.204 291.969 162.750 292.875 162.750 293.875 C 162.750 294.875 162.204 295.781 161.321 296.438 C 160.439 297.094 159.220 297.500 157.875 297.500 C 156.530 297.500 155.311 297.094 154.429 296.438 C 153.546 295.781 153 294.875 153 293.875 C 153 292.875 153.546 291.969 154.429 291.312 C 155.311 290.656 156.530 290.250 157.875 290.250 Z " transform="matrix(0.45875316858291626, 0, 0, 0.45875316858291626, -4.15, -89.35)"/>
    </g>
    <g id="ID0.24890166614204645">
      <path id="ID0.5602954248897731" fill="#96D4FF" stroke="#4F7E83" stroke-width="2" d="M 157 285 C 160.862 285 164.362 286.569 166.897 289.103 C 169.431 291.638 171 295.138 171 299 C 171 302.862 169.431 306.362 166.897 308.897 C 164.362 311.431 160.862 313 157 313 C 153.138 313 149.638 311.431 147.103 308.897 C 144.569 306.362 143 302.862 143 299 C 143 295.138 144.569 291.638 147.103 289.103 C 149.638 286.569 153.138 285 157 285 Z " transform="matrix(0.26065585017204285, 0.11729511618614197, -0.11729511618614197, 0.26065585017204285, 53.6, -61.8)"/>
      <path id="ID0.026205711532384157" fill="#FFFFFF" stroke="none" d="M 157.875 290.250 C 159.220 290.250 160.439 290.656 161.321 291.312 C 162.204 291.969 162.750 292.875 162.750 293.875 C 162.750 294.875 162.204 295.781 161.321 296.438 C 160.439 297.094 159.220 297.500 157.875 297.500 C 156.530 297.500 155.311 297.094 154.429 296.438 C 153.546 295.781 153 294.875 153 293.875 C 153 292.875 153.546 291.969 154.429 291.312 C 155.311 290.656 156.530 290.250 157.875 290.250 Z " transform="matrix(0.2940732538700104, 0.1323329508304596, -0.1323329508304596, 0.2940732538700104, 52.25, -74.8)"/>
    </g>
    <g id="ID0.24890166614204645">
      <path id="ID0.5602954248897731" fill="#96D4FF" stroke="#4F7E83" stroke-width="2" d="M 157 285 C 160.862 285 164.362 286.569 166.897 289.103 C 169.431 291.638 171 295.138 171 299 C 171 302.862 169.431 306.362 166.897 308.897 C 164.362 311.431 160.862 313 157 313 C 153.138 313 149.638 311.431 147.103 308.897 C 144.569 306.362 143 302.862 143 299 C 143 295.138 144.569 291.638 147.103 289.103 C 149.638 286.569 153.138 285 157 285 Z " transform="matrix(-0.26065585017204285, -0.11729511618614197, 0.11729511618614197, -0.26065585017204285, 82.6, 118.95)"/>
      <path id="ID0.026205711532384157" fill="#FFFFFF" stroke="none" d="M 157.875 290.250 C 159.220 290.250 160.439 290.656 161.321 291.312 C 162.204 291.969 162.750 292.875 162.750 293.875 C 162.750 294.875 162.204 295.781 161.321 296.438 C 160.439 297.094 159.220 297.500 157.875 297.500 C 156.530 297.500 155.311 297.094 154.429 296.438 C 153.546 295.781 153 294.875 153 293.875 C 153 292.875 153.546 291.969 154.429 291.312 C 155.311 290.656 156.530 290.250 157.875 290.250 Z " transform="matrix(-0.2940732538700104, -0.1323329508304596, 0.1323329508304596, -0.2940732538700104, 83.95, 131.9)"/>
    </g>
    <g id="ID0.24890166614204645">
      <path id="ID0.5602954248897731" fill="#96D4FF" stroke="#4F7E83" stroke-width="2" d="M 157 285 C 160.862 285 164.362 286.569 166.897 289.103 C 169.431 291.638 171 295.138 171 299 C 171 302.862 169.431 306.362 166.897 308.897 C 164.362 311.431 160.862 313 157 313 C 153.138 313 149.638 311.431 147.103 308.897 C 144.569 306.362 143 302.862 143 299 C 143 295.138 144.569 291.638 147.103 289.103 C 149.638 286.569 153.138 285 157 285 Z " transform="matrix(0.4083608388900757, 0.1837623417377472, -0.1837623417377472, 0.4083608388900757, 49.1, -138.95)"/>
      <path id="ID0.026205711532384157" fill="#FFFFFF" stroke="none" d="M 157.875 290.250 C 159.220 290.250 160.439 290.656 161.321 291.312 C 162.204 291.969 162.750 292.875 162.750 293.875 C 162.750 294.875 162.204 295.781 161.321 296.438 C 160.439 297.094 159.220 297.500 157.875 297.500 C 156.530 297.500 155.311 297.094 154.429 296.438 C 153.546 295.781 153 294.875 153 293.875 C 153 292.875 153.546 291.969 154.429 291.312 C 155.311 290.656 156.530 290.250 157.875 290.250 Z " transform="matrix(0.46071478724479675, 0.2073216289281845, -0.2073216289281845, 0.46071478724479675, 46.9, -159.35)"/>
    </g>
  </g>
</svg>