<svg width="17" height="18" viewBox="0 0 17 18" fill="none" xmlns="http://www.w3.org/2000/svg">
<rect width="17" height="18" fill="white"/>
<path d="M7 16.4004C7 15.5169 7.71613 14.8 8.59961 14.7998C9.48326 14.7998 10.2002 15.5167 10.2002 16.4004C10.2 17.2839 9.48313 18 8.59961 18C7.71626 17.9998 7.00021 17.2837 7 16.4004ZM7 10.001C7 9.11745 7.71613 8.4006 8.59961 8.40039C9.48326 8.40039 10.2002 9.11732 10.2002 10.001C10.1999 10.8844 9.48311 11.6006 8.59961 11.6006C7.71629 11.6004 7.00025 10.8843 7 10.001ZM7 3.59961C7.00021 2.71626 7.71626 2.00021 8.59961 2C9.48313 2 10.2 2.71613 10.2002 3.59961C10.2002 4.48326 9.48326 5.2002 8.59961 5.2002C7.71613 5.19998 7 4.48314 7 3.59961Z" fill="#E2E3E9"/>
</svg>
