<?xml version="1.0" encoding="UTF-8"?>
<svg width="164px" height="291px" viewBox="0 0 164 291" version="1.1" xmlns="http://www.w3.org/2000/svg" xmlns:xlink="http://www.w3.org/1999/xlink">
    <!-- Generator: Sketch 52.2 (67145) - http://www.bohemiancoding.com/sketch -->
    <title>left hand stuff</title>
    <desc>Created with Sketch.</desc>
    <g id="Sketches" stroke="none" stroke-width="1" fill="none" fill-rule="evenodd">
        <g id="V3_Announcement-(Logged-out)" transform="translate(0.000000, -87.000000)">
            <g id="Banner">
                <g id="Illustrations-">
                    <g id="left-hand-stuff" transform="translate(-42.000000, 88.000000)">
                        <path d="M106.69431,100.494193 C121.482072,128.616711 78.0460228,142.006849 138.11178,143.52393 C198.177537,145.041011 212.963212,161.344722 203.261157,185.712612 C193.559102,210.080501 74.8106127,180.694768 80.8172928,211.330913 C86.823973,241.967057 178.772384,215.925162 170.917495,265.315642 C163.062605,314.706122 51.8595901,271.810522 24.0353714,287.739751 C-3.78884736,303.668981 0.65234375,73.7175407 0.65234375,45.2016381 C0.65234375,10.3723754 116.395321,-2.9681166 60.4869909,54.9085474 C27.6643915,88.8867139 91.9065484,72.3716761 106.69431,100.494193 Z" id="Combined-Shape" fill-opacity="0.15" fill="#FFFFFF" transform="translate(103.196143, 152.618326) scale(1, -1) translate(-103.196143, -152.618326) "></path>
                        <g id="Blocks" transform="translate(25.000000, 127.000000)">
                            <g id="Motion-Block" transform="translate(114.107708, 95.968213) rotate(-10.000000) translate(-114.107708, -95.968213) translate(87.107708, 81.468213)">
                                <path d="M53.96,5.24691358 L53.96,22.0790123 C53.96,23.2375309 53.0299415,24.1777778 51.8839766,24.1777778 L29.8822807,24.1777778 C29.3300585,24.1777778 28.8027485,24.3960494 28.4166082,24.7906173 L25.5184795,27.7204938 C25.1323392,28.1108642 24.6050292,28.3333333 24.052807,28.3333333 L13.315614,28.3333333 C12.7675439,28.3333333 12.2402339,28.1108642 11.8457895,27.7204938 L8.95596491,24.7906173 C8.56567251,24.3960494 8.03421053,24.1777778 7.48614035,24.1777778 L2.07602339,24.1777778 C0.93005848,24.1777778 0,23.2375309 0,22.0790123 L0,5.24691358 C0,4.08839506 0.93005848,3.14814815 2.07602339,3.14814815 L7.44461988,3.14814815 C7.99684211,3.14814815 8.52415205,3.37061728 8.9102924,3.76098765 L11.8457895,6.73283951 C12.2402339,7.12320988 12.7675439,7.34567901 13.315614,7.34567901 L24.052807,7.34567901 C24.6050292,7.34567901 25.1323392,7.12320988 25.5184795,6.73283951 L28.4539766,3.76098765 C28.8484211,3.37061728 29.375731,3.14814815 29.9238012,3.14814815 L51.8839766,3.14814815 C53.0299415,3.14814815 53.96,4.08839506 53.96,5.24691358" id="Fill-6-Copy" fill="#855CD6"></path>
                                <path d="M53.96,2.09876543 L53.96,18.9308642 C53.96,20.0893827 53.0299415,21.0296296 51.8839766,21.0296296 L29.8822807,21.0296296 C29.3300585,21.0296296 28.8027485,21.2479012 28.4166082,21.6424691 L25.5184795,24.5723457 C25.1323392,24.962716 24.6050292,25.1851852 24.052807,25.1851852 L13.315614,25.1851852 C12.7675439,25.1851852 12.2402339,24.962716 11.8457895,24.5723457 L8.95596491,21.6424691 C8.56567251,21.2479012 8.03421053,21.0296296 7.48614035,21.0296296 L2.07602339,21.0296296 C0.93005848,21.0296296 0,20.0893827 0,18.9308642 L0,2.09876543 C0,0.940246914 0.93005848,0 2.07602339,0 L7.44461988,0 C7.99684211,0 8.52415205,0.222469136 8.9102924,0.612839506 L11.8457895,3.58469136 C12.2402339,3.97506173 12.7675439,4.19753086 13.315614,4.19753086 L24.052807,4.19753086 C24.6050292,4.19753086 25.1323392,3.97506173 25.5184795,3.58469136 L28.4539766,0.612839506 C28.8484211,0.222469136 29.375731,0 29.9238012,0 L51.8839766,0 C53.0299415,0 53.96,0.940246914 53.96,2.09876543" id="Fill-6" fill="#9966FF"></path>
                            </g>
                            <g id="Command-Block" transform="translate(38.500000, 25.000000) rotate(10.000000) translate(-38.500000, -25.000000) translate(3.000000, 6.000000)">
                                <path d="M71,28.2831749 C71,29.4060467 70.1125,30.3173629 69.0277778,30.3173629 L28.3881667,30.3173629 C27.8635556,30.3173629 27.3626111,30.5289185 26.9918333,30.9113458 L24.2425556,33.7510723 C23.8717778,34.1294313 23.3708333,34.3450552 22.8462222,34.3450552 L12.6498333,34.3450552 C12.1252222,34.3450552 11.6242778,34.1294313 11.2535,33.7510723 L8.50422222,30.9113458 C8.13344444,30.5289185 7.6325,30.3173629 7.11183333,30.3173629 L1.97222222,30.3173629 C0.883555556,30.3173629 0,29.4060467 0,28.2831749 L0,9.9347988 C4.82713782,3.34578764 12.0223742,0.0512820513 21.5857093,0.0512820513 C31.1490443,0.0512820513 38.3442807,3.34578764 43.1714186,9.9347988 L69.0277778,9.9347988 C70.1125,9.9347988 71,10.846115 71,11.9689868 L71,28.2831749 Z" id="Fill-3-Copy" fill="#E6AC00"></path>
                                <path d="M71,31.2318928 C71,32.3547646 70.1125,33.2660809 69.0277778,33.2660809 L28.3881667,33.2660809 C27.8635556,33.2660809 27.3626111,33.4776364 26.9918333,33.8600638 L24.2425556,36.6997903 C23.8717778,37.0781492 23.3708333,37.2937732 22.8462222,37.2937732 L12.6498333,37.2937732 C12.1252222,37.2937732 11.6242778,37.0781492 11.2535,36.6997903 L8.50422222,33.8600638 C8.13344444,33.4776364 7.6325,33.2660809 7.11183333,33.2660809 L1.97222222,33.2660809 C0.883555556,33.2660809 0,32.3547646 0,31.2318928 L0,12.8835168 C4.82713782,6.29450558 12.0223742,3 21.5857093,3 C31.1490443,3 38.3442807,6.29450558 43.1714186,12.8835168 L69.0277778,12.8835168 C70.1125,12.8835168 71,13.794833 71,14.9177048 L71,31.2318928 Z" id="Fill-3" fill="#FFBF00"></path>
                            </g>
                        </g>
                        <g id="Wave" transform="translate(78.000000, 0.000000)">
                            <path d="M51.2719192,6.78787121 C53.6773667,8.15334882 55.1700752,10.7664211 55.1748291,13.6005239" id="Stroke-4" stroke="#FFFFFF" stroke-width="3.24" stroke-linecap="round" stroke-linejoin="round"></path>
                            <path d="M55.0322136,0.758157836 C59.3914929,3.22878819 62.0964329,7.95393015 62.1011867,13.0867507" id="Stroke-6" stroke="#FFFFFF" stroke-width="3.24" stroke-linecap="round" stroke-linejoin="round"></path>
                            <path d="M12.9810935,56.3566733 C10.2666458,55.6248166 8.14642925,53.4145111 7.45712117,50.6000554" id="Stroke-8" stroke="#FFFFFF" stroke-width="3.24" stroke-linecap="round" stroke-linejoin="round"></path>
                            <path d="M10.701623,63.3161885 C5.78138948,61.9850934 1.94978736,57.99672 0.699525134,52.9031938" id="Stroke-10" stroke="#FFFFFF" stroke-width="3.24" stroke-linecap="round" stroke-linejoin="round"></path>
                            <path d="M66.3915086,26.4986116 C69.5385565,21.1594959 59.3082739,19.8824305 54.2596865,30.2905134 C51.3741003,36.2436029 47.2049749,31.4251369 45.3937585,27.191174 C43.0168341,21.6113805 39.280309,14.4745497 37.1173078,10.1374392 C34.6738295,5.24529635 28.7315185,8.7965205 30.7899351,13.2171315 C33.589952,19.2340742 39.342109,28.8710061 37.801862,29.9172174 C36.1522765,31.0567527 30.2052117,17.6623014 25.3895628,10.2897047 C21.8812224,4.92111821 16.7137888,8.27095897 19.3426672,14.1945777 C22.4944689,21.2921142 29.6775344,30.7276627 28.5841492,31.7198443 C27.4812563,32.7169377 21.3060067,23.5564494 17.6122662,17.9471852 C14.6078338,13.3841323 9.51646176,17.4167119 12.2546787,21.5868216 C16.3762656,27.869001 24.9094241,37.5697862 23.9301313,38.5177616 C22.6418382,39.7751799 17.902251,33.2621464 15.1164956,30.0301886 C11.741263,26.1105802 7.98096861,29.995806 10.5813239,33.3702057 C15.168788,39.3085598 26.8252252,53.2482198 30.1434116,57.0695924 C37.9730006,66.0778152 59.5602279,57.8898613 58.8804275,42.2998399 C58.519135,33.9547088 64.6040614,29.5340978 66.3915086,26.4986116 Z" id="Fill-1" fill="#FFBF00"></path>
                            <path d="M10.3532401,29.2226789 C10.4230342,29.3302802 10.4989908,29.4376334 10.5813239,29.5444745 C15.168788,35.4828286 26.8252252,49.4224886 30.1434116,53.2438612 C37.9730006,62.252084 59.5602279,54.0641301 58.8804275,38.4741087 C58.5331542,30.4527929 64.1415416,26.0573407 66.1646501,23.0326424 C67.08479,23.7055973 67.3185336,24.9258697 66.3915086,26.4986116 C64.6040614,29.5340978 58.519135,33.9547088 58.8804275,42.2998399 C59.5602279,57.8898613 37.9730006,66.0778152 30.1434116,57.0695924 C26.8252252,53.2482198 15.168788,39.3085598 10.5813239,33.3702057 C9.39508068,31.830855 9.53251921,30.185199 10.3532401,29.2226789 Z M23.984955,38.4331035 C24.4964131,37.0993143 16.2758898,27.7160068 12.2546787,21.5868216 C11.2052946,19.9886843 11.3058426,18.410746 11.9981617,17.329079 C12.074568,17.4726846 12.1599367,17.6168051 12.2546787,17.7610904 C16.3482678,24.0005952 25.6077611,36.3639657 23.984955,38.4331035 Z M28.6452981,31.6405935 C29.3577982,30.3061794 22.423878,21.1331506 19.3426672,14.1945777 C18.4673946,12.2223369 18.456363,10.535406 18.960594,9.36057054 C19.0627173,9.68710896 19.189451,10.0236064 19.3426672,10.3688465 C22.4944689,17.466383 30.7899351,29.5444745 28.6637835,31.6243379 C28.6577888,31.6302021 28.6516266,31.6356193 28.6452981,31.6405935 Z M37.9051051,29.8212912 C39.0523744,28.3847443 33.5189722,19.0815461 30.7899351,13.2171315 C30.1435785,11.8290301 30.2860953,10.5266505 30.861446,9.54449141 C33.6793693,15.5552021 40.5119187,27.6381069 37.9051051,29.8212912 Z" id="Combined-Shape" fill-opacity="0.15" fill="#000000"></path>
                        </g>
                    </g>
                </g>
            </g>
        </g>
    </g>
</svg>