<svg width="300" height="300" viewBox="0 0 300 300" fill="none" xmlns="http://www.w3.org/2000/svg">
<g clip-path="url(#clip0_236_7019)">
<path opacity="0.5" d="M287.902 223.119C295.075 243.667 280.632 270.321 233.851 282.547C187.071 294.774 87.0517 318.385 49.7305 252.775C12.4093 187.165 19.842 81.4418 94.1821 70.0635C139.558 63.1184 208.932 77.4817 250.027 122.872C276.259 151.847 285.107 215.113 287.902 223.119Z" fill="#4C97FF" fill-opacity="0.5"/>
<path d="M210.606 133.144C225.963 153.667 190.862 214.379 163.22 179.32C135.578 144.26 115.834 164.783 115.833 133.144C115.833 101.506 136.456 90.3892 163.22 86.9689C189.984 83.5485 195.25 112.622 210.606 133.144Z" fill="#FFD966" fill-opacity="0.3"/>
<path opacity="0.15" d="M88.4185 253.137C74.3895 265.525 106.457 302.175 131.709 281.011C156.962 259.847 175 272.236 175 253.137C175 234.038 156.16 227.327 131.709 225.263C107.258 223.198 102.447 240.748 88.4185 253.137Z" fill="#CF63CF"/>
<path d="M32.9695 119.903C35.4343 181.122 78.8084 201.175 100.187 203.549L105.194 177.755C61.0549 132.613 86.8333 140.872 74.2168 109.54C69.1234 96.8916 85.8448 65.7825 71.4994 63.4788C57.154 61.175 82.2841 19.2324 64.2232 13.6642C46.1624 8.09609 56.5398 83.887 53.5323 80.2087C48.6952 74.2927 29.8886 43.3794 32.9695 119.903Z" fill="#80B5FF" fill-opacity="0.3"/>
<mask id="mask0_236_7019" style="mask-type:alpha" maskUnits="userSpaceOnUse" x="56" y="90" width="235" height="194">
<path fill-rule="evenodd" clip-rule="evenodd" d="M252.373 187.925C261.534 171.224 262.381 152.886 256.609 136.354C243.914 99.9885 187.608 73.9261 134.603 103.332C81.598 132.738 45.876 165.636 58.5717 202.002C70.6358 236.559 107.278 250.789 170.44 237.362C181.271 262.132 200.441 290.698 236.055 281.793C283.005 270.054 296.314 240.15 287.95 216.193C283.33 202.958 269.705 191.873 252.373 187.925Z" fill="#59C059"/>
</mask>
<g mask="url(#mask0_236_7019)">
<path d="M218.141 171.63L201.118 159.509C192.914 153.668 187.477 162.129 187.477 162.129C187.477 162.129 180.02 184.609 187.71 184.17C195.399 183.731 195.068 172.525 197.671 170.918C200.273 169.311 209.173 179.108 209.173 179.108" fill="#9F6F40"/>
<path d="M212.465 162.504L195.441 150.384C187.223 144.532 181.8 153.003 181.8 153.003C181.8 153.003 174.343 175.483 182.033 175.044C189.723 174.605 189.34 163.468 191.994 161.792C194.648 160.117 203.483 169.972 203.483 169.972" fill="#9F6F40"/>
<path fill-rule="evenodd" clip-rule="evenodd" d="M189.093 164.069L132.637 180.25L134.436 188.785L192.37 177.829L189.093 164.069Z" fill="#EC9C13"/>
<path fill-rule="evenodd" clip-rule="evenodd" d="M196.248 236.111C183.171 213.893 180.486 204.468 172.146 193.913C157.705 175.592 166.283 172.235 174.432 175.561C186.603 180.534 191.651 201.211 196.845 202.013C207.037 203.562 210.704 182.374 206.004 174.432C200.474 165.079 197.517 155.902 193.94 155.348C189.157 154.629 182.848 159.623 176.983 167.997C171.888 175.261 158.912 172.045 165.303 160.457C174.079 144.354 188.826 138.758 195.049 138.992C199.983 139.168 204.096 141.237 211.037 148.026C219.897 156.748 226.221 164.672 227.391 165.715C227.391 165.715 260.115 196.444 265.165 214.689C275.049 250.583 215.313 268.532 196.238 236.125" fill="#B68554"/>
<path fill-rule="evenodd" clip-rule="evenodd" d="M189.071 164.268L192.363 178.039L247.601 165.307C249.411 164.93 251.007 163.89 252.057 162.402C253.108 160.914 253.533 159.092 253.246 157.312C253.221 157.142 253.182 156.974 253.13 156.81L253.097 156.682C252.44 154.857 251.111 153.336 249.366 152.415C247.621 151.495 245.585 151.239 243.652 151.697L189.071 164.268Z" fill="#EC9C13"/>
<path fill-rule="evenodd" clip-rule="evenodd" d="M266.521 223.556L333.697 254.597L309.714 308.76C309.714 308.76 258.014 290.44 217.039 251.65L266.521 223.556Z" fill="#B68554"/>
<path opacity="0.1" d="M216.958 251.508C216.958 251.508 276.276 298.847 310.848 306.436L309.807 308.766C309.807 308.766 261.486 292.244 216.958 251.508Z" fill="black"/>
<path fill-rule="evenodd" clip-rule="evenodd" d="M132.642 179.998C132.642 179.998 129.474 169.475 113.337 172.779C97.1999 176.083 94.2604 153.089 91.379 155.78C88.4977 158.471 71.1591 193.677 101.713 203.01C132.267 212.342 134.457 188.551 134.457 188.551L132.642 179.998Z" fill="#E5F0FF"/>
<path fill-rule="evenodd" clip-rule="evenodd" d="M150.045 175.164L132.637 180.173L134.436 188.709L152.492 185.293L150.045 175.164Z" fill="#CF8B17"/>
<path fill-rule="evenodd" clip-rule="evenodd" d="M113.3 172.8C97.2026 176.025 94.2262 153.113 91.3453 155.804C88.4644 158.494 71.1284 193.694 101.678 203.025C101.678 203.025 115.54 207 114.248 196.554C112.955 186.108 120.902 191.556 121.126 188.002C121.351 184.449 111.823 183.246 115.121 179.971C118.42 176.697 113.3 172.8 113.3 172.8Z" fill="#80B5FF"/>
</g>
<path d="M92.1273 14.2241C93.2261 26.6431 91.1829 28.7653 86.6609 29.6086C82.1388 30.4519 74.0173 28.9192 75.7515 17.2778C77.4856 5.63641 76.6959 2.73653 81.218 1.89327C85.74 1.05002 91.0286 1.80506 92.1273 14.2241Z" fill="#80B5FF" fill-opacity="0.3"/>
<path d="M26.2579 130.356C27.5048 120.79 36.2768 113.996 45.8508 115.181L97.0994 121.524C106.673 122.708 113.424 131.424 112.177 140.99C110.93 150.556 102.158 157.35 92.5841 156.165L41.3354 149.822C31.7615 148.638 25.011 139.922 26.2579 130.356Z" fill="#4C97FF"/>
<mask id="mask1_236_7019" style="mask-type:alpha" maskUnits="userSpaceOnUse" x="30" y="9" width="73" height="197">
<path d="M30.6624 119.225C33.1272 182.05 76.5012 202.629 97.8802 205.065L102.887 178.594C58.7478 132.268 84.5262 140.744 71.9097 108.59C66.8163 95.6097 83.5377 63.6846 69.1923 61.3204C54.8469 58.9562 79.9769 15.9135 61.9161 10.1993C43.8553 4.48511 54.2327 82.264 51.2252 78.4892C46.3881 72.418 27.5814 40.6939 30.6624 119.225Z" fill="#80B5FF"/>
</mask>
<g mask="url(#mask1_236_7019)">
<path d="M26.2574 130.356C27.5043 120.79 36.2763 113.996 45.8503 115.181L97.0989 121.524C106.673 122.709 113.423 131.424 112.176 140.99C110.929 150.556 102.157 157.35 92.5835 156.165L41.3349 149.822C31.761 148.638 25.0106 139.922 26.2574 130.356Z" fill="#80B5FF"/>
</g>
<path fill-rule="evenodd" clip-rule="evenodd" d="M6.1303 56.5945C5.8364 54.6594 7.16961 52.8714 9.10811 52.6009L18.1841 51.3346C19.115 51.2048 20.0639 51.4493 20.8219 52.0146L26.5383 56.2771C27.2964 56.8424 28.2452 57.087 29.1761 56.9571L40.3082 55.4039C41.2391 55.274 42.0758 54.7803 42.6343 54.0314L46.8455 48.3837C47.404 47.6348 48.2407 47.1411 49.1716 47.0112L49.4726 46.9692L49.4727 46.9692L134.611 35.0906C136.549 34.8201 138.359 36.1695 138.653 38.1046L139.185 41.6084L143.753 71.6856L55.1051 84.0539L55.6373 87.5577L55.3361 87.5997C54.4052 87.7296 53.5685 88.2233 53.0101 88.9722L48.7988 94.6199C48.2404 95.3688 47.4037 95.8625 46.4728 95.9924L35.3407 97.5456C34.4098 97.6755 33.4609 97.4309 32.7029 96.8656L26.9865 92.6031C26.2284 92.0379 25.2796 91.7933 24.3487 91.9231L15.2727 93.1895C13.3342 93.4599 11.5245 92.1105 11.2306 90.1754L6.66245 60.0982L6.1303 56.5945ZM140.775 75.6791C142.714 75.4086 144.047 73.6207 143.753 71.6856L55.1051 84.0539L55.6373 87.5577L140.775 75.6791Z" fill="#4C97FF"/>
<mask id="mask2_236_7019" style="mask-type:alpha" maskUnits="userSpaceOnUse" x="31" y="13" width="73" height="196">
<path d="M31.6624 122.517C34.1272 185.342 77.5012 205.921 98.8802 208.357L103.887 181.886C59.7478 135.56 85.5262 144.036 72.9097 111.883C67.8163 98.902 84.5377 66.977 70.1923 64.6128C55.8469 62.2486 80.9769 19.2058 62.9161 13.4917C44.8553 7.77747 55.2327 85.5563 52.2252 81.7815C47.3881 75.7103 28.5814 43.9863 31.6624 122.517Z" fill="#80B5FF"/>
</mask>
<g mask="url(#mask2_236_7019)">
<g clip-path="url(#clip1_236_7019)">
<g filter="url(#filter0_d_236_7019)">
<path fill-rule="evenodd" clip-rule="evenodd" d="M10.4766 52.6679C8.55653 52.9352 7.21663 54.7083 7.48385 56.6284L8.20962 61.8433L29.9384 58.8192L51.6671 55.7952L50.4575 47.1037L50.1593 47.1452C49.2372 47.2735 48.4039 47.7629 47.8427 48.5056L43.6103 54.1065C43.049 54.8492 42.2157 55.3386 41.2937 55.4669L30.2674 57.0015C29.3453 57.1298 28.4101 56.8866 27.6673 56.3253L22.0664 52.093C21.3237 51.5317 20.3884 51.2885 19.4664 51.4168L10.4766 52.6679ZM140.849 34.5236L50.4575 47.1037L51.6672 55.7952L145.535 42.7313L144.81 37.5164C144.542 35.5963 142.769 34.2564 140.849 34.5236Z" fill="#80B5FF"/>
</g>
</g>
<rect width="139.142" height="30.7135" transform="translate(8.08887 60.9742) rotate(-7.92314)" fill="#80B5FF"/>
<path d="M17.4124 71.1287L18.413 78.3183L20.3877 78.0435L19.8071 73.8715C19.758 73.5192 19.7697 73.2294 19.842 73.002C19.913 72.7653 20.0103 72.5816 20.1339 72.451C20.2654 72.3098 20.4028 72.2104 20.546 72.1527C20.6971 72.0844 20.819 72.0438 20.9118 72.0309C21.227 71.987 21.4711 72.0097 21.6442 72.0991C21.8253 72.1778 21.9605 72.3007 22.0499 72.4679C22.1486 72.6337 22.2174 72.8226 22.2564 73.0345C22.294 73.2372 22.3277 73.4451 22.3574 73.6584L22.9186 77.6912L24.8933 77.4164L24.336 73.4114C24.305 73.1888 24.2886 72.969 24.2867 72.7519C24.2928 72.5243 24.3306 72.3206 24.4001 72.1408C24.4776 71.9504 24.5927 71.7927 24.7453 71.6675C24.906 71.5317 25.1254 71.4445 25.4035 71.4057C25.6817 71.367 25.906 71.3831 26.0765 71.4538C26.2563 71.5233 26.3988 71.6311 26.5042 71.7771C26.6096 71.9231 26.6864 72.1014 26.7346 72.312C26.7828 72.5227 26.8237 72.7485 26.8572 72.9896L27.4243 77.0642L29.399 76.7893L28.7294 71.9777C28.6649 71.5142 28.5451 71.1292 28.3702 70.8228C28.1939 70.5071 27.9757 70.2634 27.7156 70.0917C27.4554 69.92 27.1566 69.8103 26.8193 69.7628C26.4819 69.7152 26.1231 69.7179 25.743 69.7708C25.2424 69.8405 24.8234 70.0217 24.4861 70.3143C24.1581 70.6057 23.9094 70.9238 23.7401 71.2687C23.4834 70.8508 23.1528 70.5802 22.7482 70.457C22.3528 70.3324 21.928 70.3018 21.4738 70.365C21.0009 70.4308 20.5933 70.5915 20.2508 70.847C19.9177 71.1013 19.6471 71.4319 19.4391 71.8389L19.4113 71.8428L19.2758 70.8693L17.4124 71.1287ZM32.2129 72.7404C32.1729 72.453 32.1614 72.1663 32.1783 71.8805C32.1952 71.5946 32.2537 71.336 32.3538 71.1047C32.4632 70.8721 32.6201 70.6755 32.8246 70.5147C33.0277 70.3447 33.2962 70.2364 33.6299 70.19C33.9637 70.1435 34.2515 70.1744 34.4933 70.2825C34.7432 70.38 34.9478 70.5263 35.1073 70.7215C35.276 70.9154 35.4076 71.1475 35.5019 71.4179C35.5962 71.6883 35.6634 71.9672 35.7034 72.2546C35.7434 72.542 35.7549 72.8286 35.738 73.1145C35.7198 73.3911 35.6567 73.6503 35.5486 73.8922C35.4484 74.1235 35.2915 74.3201 35.0778 74.4822C34.8734 74.6429 34.6043 74.7465 34.2705 74.793C33.9368 74.8394 33.6496 74.8133 33.4091 74.7144C33.1685 74.6156 32.9638 74.4693 32.7951 74.2754C32.6343 74.0709 32.5074 73.8382 32.4144 73.577C32.3201 73.3067 32.2529 73.0278 32.2129 72.7404ZM30.2382 73.0152C30.3182 73.59 30.4785 74.0969 30.7192 74.5359C30.9598 74.975 31.2656 75.3388 31.6366 75.6274C32.0062 75.9067 32.4304 76.1028 32.9092 76.2158C33.388 76.3287 33.9102 76.3458 34.4757 76.2671C35.0412 76.1884 35.5389 76.0293 35.9686 75.79C36.4077 75.5493 36.7668 75.2442 37.0462 74.8745C37.3242 74.4956 37.519 74.0621 37.6307 73.574C37.7423 73.086 37.7581 72.5546 37.6781 71.9798C37.5981 71.405 37.4378 70.898 37.1971 70.459C36.9552 70.0107 36.6494 69.6469 36.2797 69.3676C35.9088 69.079 35.4793 68.8789 34.9912 68.7672C34.5112 68.645 33.9884 68.6233 33.4228 68.702C32.8573 68.7807 32.3603 68.9444 31.9318 69.193C31.5021 69.4324 31.1482 69.7415 30.8701 70.1204C30.5908 70.4901 30.396 70.9236 30.2856 71.4209C30.174 71.909 30.1582 72.4404 30.2382 73.0152ZM43.4386 74.8354L44.8717 67.3071L42.9108 67.58L42.0782 72.6999L42.0504 72.7038L39.8514 68.0058L37.7794 68.2941L41.2414 75.1412L43.4386 74.8354ZM50.9179 69.3433L47.7055 69.7904C47.6955 69.65 47.7013 69.4885 47.7232 69.3059C47.7543 69.122 47.8191 68.9429 47.9177 68.7685C48.0256 68.5929 48.1744 68.4398 48.3642 68.3095C48.5619 68.1685 48.8184 68.0762 49.1336 68.0323C49.6157 67.9652 49.9907 68.0453 50.2586 68.2726C50.5358 68.4987 50.7555 68.8556 50.9179 69.3433ZM47.8797 71.0419L53.0668 70.32C53.0265 69.7586 52.9059 69.232 52.7052 68.7402C52.5044 68.2483 52.228 67.8237 51.8758 67.4664C51.5329 67.1077 51.1182 66.8441 50.6317 66.6756C50.1439 66.4977 49.594 66.4514 48.9821 66.5366C48.4352 66.6127 47.9481 66.7797 47.5209 67.0376C47.103 67.2942 46.7557 67.6166 46.4789 68.0048C46.2009 68.3837 46.0061 68.8172 45.8944 69.3053C45.7828 69.7933 45.7644 70.3062 45.8392 70.8439C45.9166 71.4002 46.071 71.8985 46.3024 72.3388C46.5431 72.7778 46.8442 73.1423 47.2059 73.4322C47.5676 73.7221 47.9884 73.9281 48.4685 74.0503C48.9473 74.1632 49.4695 74.1803 50.035 74.1016C50.8508 73.9881 51.5204 73.7059 52.0435 73.2551C52.5667 72.8042 52.9074 72.1284 53.0655 71.2275L51.3272 71.4694C51.2933 71.7009 51.1468 71.9387 50.8878 72.1826C50.6275 72.4173 50.298 72.5624 49.8994 72.6179C49.3431 72.6953 48.8967 72.611 48.56 72.3648C48.2233 72.1187 47.9966 71.6778 47.8797 71.0419Z" fill="#80B5FF"/>
<path d="M60.517 67.4103C59.546 60.4332 64.4149 53.9899 71.3921 53.0188L82.8324 51.4266C89.8095 50.4556 96.2528 55.3245 97.2239 62.3017C98.1949 69.2789 93.326 75.7222 86.3488 76.6932L74.9085 78.2854C67.9313 79.2564 61.488 74.3875 60.517 67.4103Z" fill="#80B5FF"/>
<path d="M77.2838 70.125L75.9291 60.3906L74.3576 60.6093C74.3536 60.9878 74.2809 61.3145 74.1396 61.5894C73.9983 61.8642 73.8088 62.0985 73.5712 62.2922C73.3415 62.4754 73.069 62.622 72.7535 62.7321C72.446 62.8316 72.1201 62.9005 71.7758 62.939L71.9829 64.427L74.4304 64.0864L75.3091 70.3999L77.2838 70.125ZM81.1434 64.5839C81.1201 64.417 81.0924 64.2177 81.0601 63.9859C81.0359 63.7435 81.0202 63.4953 81.0132 63.2411C81.0062 62.9869 81.0183 62.7348 81.0497 62.4847C81.0797 62.2254 81.1368 61.9906 81.221 61.7804C81.3144 61.569 81.4408 61.3907 81.6002 61.2457C81.7688 61.0993 81.9876 61.0075 82.2564 60.9701C82.5253 60.9326 82.7608 60.9613 82.963 61.056C83.1652 61.1507 83.3401 61.287 83.4877 61.465C83.6354 61.6429 83.7544 61.8531 83.8449 62.0957C83.9433 62.3277 84.0239 62.5669 84.0865 62.8134C84.1584 63.0585 84.2112 63.3016 84.2447 63.5427C84.2862 63.7732 84.3186 63.9718 84.3418 64.1387C84.3805 64.4168 84.4184 64.7565 84.4553 65.1578C84.491 65.5497 84.4836 65.9382 84.4332 66.3232C84.3908 66.6977 84.2764 67.0302 84.0901 67.3208C83.913 67.61 83.6205 67.7831 83.2125 67.8398C82.8139 67.8953 82.4899 67.8081 82.2405 67.5782C81.9912 67.3483 81.7903 67.0596 81.638 66.7123C81.4937 66.3543 81.3852 65.982 81.3125 65.5952C81.2384 65.1991 81.1821 64.862 81.1434 64.5839ZM79.1686 64.8587C79.3041 65.8321 79.5104 66.6351 79.7874 67.2675C80.0724 67.8894 80.4043 68.3724 80.7829 68.7166C81.1616 69.0609 81.5758 69.2867 82.0255 69.3943C82.4844 69.5005 82.955 69.5201 83.437 69.453C83.9284 69.3846 84.3757 69.2373 84.7789 69.011C85.1914 68.7835 85.5328 68.4525 85.8031 68.018C86.0827 67.5821 86.27 67.0268 86.3651 66.3521C86.4682 65.6667 86.452 64.8373 86.3165 63.8639C86.1849 62.9183 85.9773 62.1391 85.6936 61.5265C85.4178 60.9034 85.086 60.4203 84.698 60.0774C84.3194 59.7332 83.9005 59.508 83.4416 59.4017C82.9919 59.2942 82.5214 59.2746 82.03 59.343C81.5479 59.4101 81.1006 59.5574 80.6881 59.7849C80.2849 60.0112 79.9481 60.3415 79.6778 60.7761C79.4075 61.2106 79.2202 61.7659 79.1158 62.442C79.0194 63.1075 79.037 63.913 79.1686 64.8587Z" fill="#80B5FF"/>
<g clip-path="url(#clip2_236_7019)">
<path fill-rule="evenodd" clip-rule="evenodd" d="M12.2012 90.5252L12.3218 91.3918C12.589 93.3119 14.3622 94.6518 16.2822 94.3845L25.272 93.1334C26.194 93.0051 27.1293 93.2483 27.872 93.8095L33.4729 98.0419C34.2157 98.6032 35.1509 98.8464 36.073 98.7181L47.0993 97.1835C48.0213 97.0552 48.8547 96.5658 49.4159 95.8231L53.6483 90.2222C54.2095 89.4795 55.0428 88.9901 55.9649 88.8618L56.2631 88.8203L55.6587 84.4771L12.2012 90.5252ZM149.527 71.4132L55.6587 84.4772L56.2635 88.8229L146.655 76.2428C148.575 75.9756 149.915 74.2024 149.648 72.2824L149.527 71.4132Z" fill="#80B5FF"/>
</g>
</g>
<path fill-rule="evenodd" clip-rule="evenodd" d="M135.38 248.997C134.132 254.085 127.526 257.277 126.006 257.059C124.486 256.84 119.108 251.924 119.421 246.702C119.433 246.532 119.445 246.362 119.471 246.194C119.849 243.694 122.252 241.963 124.828 242.333C126.135 242.521 127.245 243.209 127.956 244.185C128.926 243.451 130.192 243.104 131.499 243.292C134.074 243.663 135.861 245.997 135.483 248.496C135.457 248.665 135.418 248.831 135.38 248.997Z" fill="#FF6680"/>
<path fill-rule="evenodd" clip-rule="evenodd" d="M113.215 228.95C113.877 232.978 110.1 237.203 108.939 237.488C107.777 237.774 102.395 235.802 101.018 231.95C100.974 231.824 100.93 231.698 100.897 231.569C100.402 229.659 101.601 227.711 103.57 227.227C104.569 226.981 105.579 227.154 106.391 227.649C106.864 226.838 107.67 226.219 108.669 225.973C110.637 225.489 112.64 226.65 113.135 228.56C113.168 228.688 113.191 228.82 113.215 228.95Z" fill="#FF6680"/>
<g clip-path="url(#clip3_236_7019)">
<g filter="url(#filter1_d_236_7019)">
<path fill-rule="evenodd" clip-rule="evenodd" d="M160.965 115.345L160.965 115.345L161.194 119.298L222.01 115.776C221.884 113.592 220.011 111.925 217.828 112.051L198.92 113.146C198.92 113.146 193.414 107.118 179.576 107.92C165.748 108.721 160.972 115.335 160.965 115.345C160.965 115.345 160.965 115.345 160.965 115.345Z" fill="#FFBF00"/>
</g>
</g>
<rect width="60.7839" height="14.9356" transform="translate(161.077 116.97) rotate(-3.31476)" fill="#FFBF00"/>
<path d="M168.867 126.002L169.709 122.672L168.785 122.726L168.313 124.975L168.3 124.975L167.615 122.793L166.742 122.844L166.327 125.096L166.314 125.097L165.584 122.911L164.636 122.966L165.862 126.176L166.792 126.123L167.222 123.895L167.235 123.894L167.944 126.056L168.867 126.002ZM170.019 121.404L170.281 125.92L171.179 125.868L171.08 124.154C171.061 123.821 171.102 123.58 171.203 123.43C171.304 123.276 171.477 123.192 171.721 123.178C171.937 123.165 172.09 123.224 172.182 123.354C172.274 123.48 172.328 123.678 172.344 123.948L172.451 125.795L173.349 125.743L173.232 123.731C173.221 123.529 173.191 123.346 173.144 123.184C173.1 123.017 173.031 122.88 172.936 122.771C172.84 122.658 172.713 122.574 172.553 122.52C172.397 122.461 172.199 122.439 171.959 122.453C171.79 122.463 171.62 122.517 171.448 122.616C171.275 122.71 171.138 122.856 171.035 123.052L171.016 123.053L170.917 121.352L170.019 121.404ZM176.117 123.589L174.656 123.674C174.656 123.611 174.665 123.538 174.681 123.457C174.702 123.375 174.738 123.297 174.788 123.222C174.843 123.147 174.916 123.084 175.006 123.032C175.1 122.976 175.218 122.943 175.362 122.935C175.581 122.922 175.747 122.972 175.859 123.084C175.976 123.196 176.062 123.364 176.117 123.589ZM174.689 124.243L177.048 124.107C177.05 123.853 177.015 123.612 176.943 123.383C176.87 123.154 176.761 122.953 176.616 122.78C176.475 122.606 176.298 122.473 176.085 122.379C175.872 122.281 175.626 122.241 175.348 122.257C175.099 122.271 174.874 122.329 174.672 122.429C174.475 122.529 174.307 122.662 174.169 122.826C174.03 122.987 173.926 123.175 173.859 123.39C173.791 123.606 173.764 123.836 173.778 124.08C173.793 124.333 173.844 124.563 173.932 124.77C174.024 124.976 174.147 125.151 174.299 125.294C174.451 125.438 174.633 125.546 174.844 125.618C175.056 125.686 175.29 125.713 175.547 125.698C175.918 125.676 176.23 125.574 176.482 125.39C176.733 125.206 176.911 124.914 177.015 124.515L176.224 124.561C176.2 124.664 176.126 124.765 176.001 124.866C175.875 124.962 175.721 125.015 175.54 125.026C175.287 125.04 175.089 124.986 174.947 124.863C174.804 124.74 174.718 124.534 174.689 124.243ZM177.474 122.222L177.663 125.493L178.561 125.441L178.462 123.727C178.443 123.393 178.484 123.152 178.585 123.002C178.686 122.848 178.859 122.764 179.104 122.75C179.319 122.738 179.472 122.796 179.565 122.926C179.656 123.052 179.71 123.25 179.726 123.52L179.833 125.367L180.731 125.315L180.615 123.304C180.603 123.101 180.573 122.919 180.526 122.757C180.482 122.59 180.413 122.452 180.318 122.343C180.222 122.23 180.095 122.147 179.935 122.093C179.779 122.034 179.581 122.012 179.341 122.025C179.151 122.036 178.968 122.091 178.792 122.191C178.616 122.285 178.476 122.431 178.373 122.627L178.354 122.628L178.328 122.173L177.474 122.222Z" fill="#FFBF00"/>
<path fill-rule="evenodd" clip-rule="evenodd" d="M186.149 120.278C186.997 119.515 188.438 119.432 189.369 120.092C190.299 120.751 191.741 120.668 192.589 119.905L192.841 124.248C191.993 125.011 190.551 125.095 189.62 124.434C188.69 123.775 187.248 123.858 186.4 124.621L186.149 120.278Z" fill="#FFBF00" stroke="#FFBF00" stroke-width="0.396033" stroke-linecap="round" stroke-linejoin="round"/>
<path d="M186.506 126.443L186.118 119.745" stroke="#FFBF00" stroke-width="0.594049" stroke-linecap="round" stroke-linejoin="round"/>
<path d="M200.323 122.054L201.202 122.003C201.178 121.793 201.116 121.615 201.019 121.468C200.921 121.317 200.798 121.195 200.649 121.102C200.504 121.005 200.339 120.936 200.154 120.896C199.974 120.856 199.787 120.841 199.593 120.852C199.328 120.868 199.094 120.926 198.893 121.026C198.691 121.127 198.523 121.261 198.389 121.43C198.255 121.594 198.156 121.788 198.093 122.012C198.034 122.231 198.011 122.467 198.026 122.72C198.04 122.965 198.093 123.188 198.185 123.39C198.277 123.588 198.399 123.757 198.551 123.896C198.703 124.035 198.883 124.141 199.09 124.214C199.301 124.282 199.529 124.309 199.774 124.295C200.208 124.27 200.558 124.135 200.823 123.891C201.088 123.647 201.238 123.307 201.272 122.869L200.405 122.919C200.387 123.123 200.323 123.29 200.212 123.419C200.105 123.544 199.944 123.612 199.729 123.625C199.589 123.633 199.469 123.608 199.369 123.55C199.268 123.493 199.186 123.417 199.121 123.323C199.06 123.225 199.014 123.116 198.981 122.995C198.949 122.874 198.929 122.755 198.922 122.637C198.915 122.514 198.921 122.391 198.939 122.268C198.957 122.14 198.993 122.023 199.046 121.919C199.103 121.81 199.178 121.721 199.272 121.652C199.365 121.579 199.483 121.538 199.626 121.53C200.01 121.507 200.242 121.682 200.323 122.054ZM201.615 119.574L201.877 124.09L202.775 124.038L202.514 119.522L201.615 119.574ZM204.187 120.167L204.144 119.427L203.246 119.479L203.289 120.219L204.187 120.167ZM203.318 120.726L203.508 123.996L204.406 123.944L204.217 120.674L203.318 120.726ZM207.217 121.655L208.097 121.604C208.072 121.394 208.011 121.215 207.913 121.069C207.816 120.918 207.692 120.796 207.543 120.703C207.398 120.606 207.233 120.537 207.049 120.497C206.869 120.456 206.682 120.442 206.488 120.453C206.222 120.469 205.988 120.526 205.787 120.627C205.585 120.728 205.418 120.862 205.283 121.031C205.149 121.195 205.05 121.389 204.987 121.613C204.928 121.832 204.906 122.068 204.92 122.321C204.934 122.566 204.987 122.789 205.08 122.991C205.171 123.189 205.293 123.357 205.445 123.497C205.597 123.636 205.777 123.742 205.984 123.815C206.195 123.883 206.423 123.91 206.668 123.896C207.102 123.87 207.452 123.736 207.717 123.492C207.982 123.248 208.132 122.907 208.166 122.47L207.299 122.52C207.281 122.724 207.217 122.89 207.106 123.02C206.999 123.144 206.838 123.213 206.623 123.225C206.484 123.233 206.364 123.209 206.263 123.151C206.162 123.093 206.08 123.018 206.015 122.924C205.954 122.826 205.908 122.717 205.875 122.596C205.843 122.475 205.823 122.356 205.817 122.237C205.81 122.115 205.815 121.992 205.833 121.868C205.851 121.74 205.887 121.624 205.94 121.519C205.997 121.41 206.072 121.321 206.166 121.252C206.259 121.179 206.377 121.139 206.521 121.13C206.904 121.108 207.137 121.283 207.217 121.655ZM208.566 119.171L208.828 123.688L209.726 123.636L209.661 122.51L209.99 122.154L210.973 123.564L212.061 123.501L210.568 121.512L211.732 120.238L210.669 120.3L209.605 121.542L209.465 119.119L208.566 119.171ZM214.465 121.368L213.003 121.453C213.004 121.39 213.012 121.317 213.029 121.236C213.05 121.154 213.085 121.076 213.136 121.001C213.191 120.926 213.263 120.863 213.353 120.811C213.447 120.755 213.566 120.722 213.709 120.714C213.929 120.701 214.095 120.751 214.207 120.863C214.323 120.975 214.409 121.143 214.465 121.368ZM213.036 122.022L215.396 121.886C215.398 121.632 215.363 121.39 215.29 121.162C215.218 120.933 215.109 120.732 214.964 120.559C214.822 120.385 214.645 120.251 214.433 120.158C214.22 120.06 213.974 120.02 213.696 120.036C213.447 120.05 213.222 120.108 213.02 120.208C212.823 120.308 212.655 120.441 212.516 120.605C212.377 120.766 212.274 120.954 212.206 121.169C212.138 121.385 212.111 121.615 212.126 121.859C212.14 122.112 212.192 122.342 212.28 122.549C212.372 122.755 212.494 122.93 212.647 123.073C212.799 123.217 212.981 123.325 213.192 123.397C213.403 123.465 213.638 123.492 213.895 123.477C214.266 123.455 214.577 123.353 214.829 123.169C215.081 122.985 215.259 122.693 215.362 122.294L214.572 122.34C214.548 122.443 214.473 122.544 214.348 122.645C214.223 122.741 214.069 122.794 213.888 122.805C213.635 122.819 213.437 122.765 213.294 122.642C213.152 122.519 213.066 122.313 213.036 122.022ZM218.237 121.493C218.245 121.628 218.24 121.759 218.222 121.887C218.204 122.015 218.168 122.131 218.115 122.236C218.062 122.336 217.986 122.419 217.888 122.484C217.795 122.549 217.674 122.585 217.526 122.594C217.387 122.602 217.265 122.579 217.161 122.526C217.06 122.468 216.973 122.393 216.9 122.3C216.831 122.202 216.778 122.091 216.741 121.967C216.704 121.842 216.682 121.716 216.675 121.59C216.667 121.455 216.672 121.325 216.691 121.201C216.713 121.073 216.751 120.959 216.804 120.858C216.862 120.758 216.939 120.675 217.037 120.61C217.135 120.545 217.258 120.508 217.405 120.5C217.553 120.491 217.677 120.514 217.777 120.567C217.878 120.621 217.96 120.694 218.025 120.788C218.093 120.877 218.144 120.984 218.177 121.109C218.209 121.23 218.229 121.358 218.237 121.493ZM218.321 122.719L218.345 123.137L219.199 123.087L218.937 118.571L218.039 118.623L218.134 120.267L218.122 120.268C218.011 120.114 217.865 120.002 217.683 119.932C217.506 119.857 217.32 119.826 217.126 119.837C216.885 119.851 216.677 119.912 216.501 120.019C216.325 120.122 216.181 120.256 216.068 120.419C215.959 120.582 215.878 120.768 215.827 120.979C215.78 121.184 215.762 121.397 215.775 121.616C215.788 121.844 215.831 122.062 215.902 122.269C215.977 122.476 216.079 122.659 216.206 122.816C216.338 122.969 216.499 123.089 216.691 123.175C216.882 123.257 217.099 123.291 217.344 123.277C217.559 123.265 217.749 123.216 217.913 123.13C218.081 123.04 218.213 122.903 218.308 122.72L218.321 122.719Z" fill="#FFBF00"/>
<g clip-path="url(#clip4_236_7019)">
<path fill-rule="evenodd" clip-rule="evenodd" d="M161.935 131.529L161.958 131.923C162.008 132.797 162.758 133.464 163.631 133.413L166.721 133.234C167.78 133.173 168.82 133.535 169.613 134.24L171.231 135.682C171.545 135.961 171.957 136.104 172.377 136.08L177.392 135.79C177.812 135.765 178.204 135.575 178.484 135.262L180.5 132.997C180.838 132.618 181.312 132.389 181.818 132.36L181.818 132.361L221.284 130.075C222.158 130.025 222.825 129.276 222.774 128.402L222.751 128.007L181.703 130.384L161.935 131.529Z" fill="#FFBF00"/>
</g>
<mask id="mask3_236_7019" style="mask-type:alpha" maskUnits="userSpaceOnUse" x="115" y="86" width="100" height="107">
<path d="M210.606 133.869C225.963 154.93 190.862 217.234 163.22 181.256C135.578 145.277 115.834 166.338 115.833 133.869C115.833 101.401 136.456 89.9927 163.22 86.4826C189.984 82.9725 195.25 112.808 210.606 133.869Z" fill="#FFD966"/>
</mask>
<g mask="url(#mask3_236_7019)">
<g clip-path="url(#clip5_236_7019)">
<g filter="url(#filter2_d_236_7019)">
<mask id="path-36-inside-1_236_7019" fill="white">
<path fill-rule="evenodd" clip-rule="evenodd" d="M160.963 115.255L160.963 115.255L161.198 119.208L222.02 115.776L221.879 113.404C221.827 112.53 221.077 111.862 220.204 111.912L198.922 113.113C198.922 113.113 193.406 107.077 179.567 107.859C165.734 108.639 160.968 115.249 160.963 115.255C160.963 115.255 160.963 115.255 160.963 115.255Z"/>
</mask>
<path fill-rule="evenodd" clip-rule="evenodd" d="M160.963 115.255L160.963 115.255L161.198 119.208L222.02 115.776L221.879 113.404C221.827 112.53 221.077 111.862 220.204 111.912L198.922 113.113C198.922 113.113 193.406 107.077 179.567 107.859C165.734 108.639 160.968 115.249 160.963 115.255C160.963 115.255 160.963 115.255 160.963 115.255Z" fill="#FFD966"/>
<path d="M160.963 115.255L161.359 115.233L161.335 114.837L160.94 114.86L160.963 115.255ZM160.963 115.255L160.839 114.879L160.987 115.65L160.963 115.255ZM161.198 119.208L160.803 119.231L160.826 119.626L161.222 119.604L161.198 119.208ZM222.02 115.776L222.044 116.171L222.439 116.149L222.416 115.753L222.02 115.776ZM220.204 111.912L220.18 111.516L220.204 111.912ZM198.922 113.113L198.63 113.379L198.757 113.519L198.946 113.508L198.922 113.113ZM160.963 115.255L161.278 115.497L161.285 115.487L160.963 115.255ZM160.94 114.86L160.94 114.86L160.987 115.65L160.987 115.65L160.94 114.86ZM161.594 119.186L161.359 115.233L160.568 115.277L160.803 119.231L161.594 119.186ZM221.997 115.38L161.175 118.813L161.222 119.604L222.044 116.171L221.997 115.38ZM221.484 113.426L221.625 115.798L222.416 115.753L222.275 113.381L221.484 113.426ZM220.227 112.307C220.882 112.27 221.445 112.771 221.484 113.426L222.275 113.381C222.21 112.29 221.272 111.455 220.18 111.516L220.227 112.307ZM198.946 113.508L220.227 112.307L220.18 111.516L198.899 112.717L198.946 113.508ZM179.59 108.254C186.447 107.867 191.222 109.169 194.271 110.553C195.797 111.246 196.894 111.96 197.606 112.498C197.962 112.766 198.221 112.991 198.39 113.146C198.475 113.224 198.537 113.284 198.576 113.324C198.596 113.344 198.611 113.359 198.619 113.368C198.624 113.373 198.627 113.376 198.629 113.378C198.63 113.379 198.63 113.38 198.63 113.38C198.631 113.38 198.631 113.38 198.63 113.38C198.63 113.38 198.63 113.38 198.63 113.38C198.63 113.38 198.63 113.379 198.922 113.113C199.214 112.846 199.214 112.846 199.214 112.846C199.214 112.846 199.213 112.845 199.213 112.845C199.213 112.845 199.212 112.844 199.212 112.844C199.211 112.842 199.209 112.841 199.207 112.839C199.204 112.835 199.199 112.829 199.192 112.823C199.179 112.809 199.161 112.79 199.137 112.766C199.089 112.718 199.019 112.65 198.926 112.564C198.739 112.392 198.459 112.151 198.082 111.866C197.327 111.296 196.18 110.551 194.597 109.832C191.429 108.394 186.526 107.069 179.543 107.463L179.59 108.254ZM161.285 115.487C161.233 115.559 165.898 109.027 179.59 108.254L179.543 107.463C165.57 108.252 160.702 114.94 160.642 115.023L161.285 115.487ZM160.963 115.255C161.088 115.631 161.088 115.631 161.088 115.631C161.088 115.631 161.088 115.631 161.088 115.631C161.088 115.631 161.088 115.631 161.088 115.631C161.088 115.631 161.088 115.631 161.088 115.631C161.089 115.631 161.089 115.631 161.089 115.631C161.09 115.631 161.091 115.63 161.091 115.63C161.093 115.63 161.094 115.629 161.096 115.629C161.099 115.628 161.102 115.626 161.106 115.625C161.113 115.622 161.123 115.618 161.135 115.613C161.139 115.611 161.216 115.577 161.278 115.497L160.649 115.013C160.686 114.966 160.724 114.938 160.742 114.926C160.763 114.912 160.781 114.903 160.792 114.897C160.804 114.892 160.814 114.888 160.821 114.885C160.825 114.884 160.828 114.883 160.831 114.881C160.832 114.881 160.834 114.88 160.835 114.88C160.836 114.88 160.837 114.88 160.837 114.879C160.838 114.879 160.838 114.879 160.838 114.879C160.838 114.879 160.839 114.879 160.839 114.879C160.839 114.879 160.839 114.879 160.839 114.879C160.839 114.879 160.839 114.879 160.839 114.879C160.839 114.879 160.839 114.879 160.963 115.255Z" fill="#FFBF00" mask="url(#path-36-inside-1_236_7019)"/>
</g>
</g>
<rect width="61.1778" height="15.115" transform="matrix(0.998411 -0.0563482 0.0593327 0.998238 161.057 116.836)" fill="#FFD966"/>
<line y1="-0.198016" x2="15.115" y2="-0.198016" transform="matrix(-0.0593327 -0.998238 -0.998411 0.0563482 161.954 131.925)" stroke="#FFBF00" stroke-width="0.396033"/>
<path d="M168.868 125.968L169.705 122.64L168.781 122.692L168.312 124.94L168.299 124.94L167.611 122.758L166.738 122.807L166.326 125.058L166.313 125.059L165.58 122.873L164.631 122.926L165.863 126.138L166.793 126.085L167.219 123.859L167.232 123.858L167.944 126.02L168.868 125.968ZM170.013 121.372L170.282 125.888L171.18 125.838L171.078 124.124C171.058 123.79 171.099 123.549 171.2 123.4C171.301 123.246 171.474 123.162 171.718 123.148C171.933 123.136 172.087 123.195 172.18 123.325C172.272 123.451 172.326 123.649 172.342 123.919L172.452 125.766L173.35 125.715L173.23 123.704C173.218 123.501 173.188 123.319 173.141 123.157C173.097 122.99 173.027 122.852 172.932 122.743C172.837 122.63 172.709 122.546 172.549 122.492C172.393 122.433 172.195 122.41 171.955 122.424C171.786 122.433 171.616 122.488 171.444 122.586C171.272 122.68 171.134 122.826 171.032 123.022L171.013 123.023L170.912 121.321L170.013 121.372ZM176.115 123.566L174.654 123.649C174.654 123.585 174.663 123.513 174.679 123.432C174.7 123.35 174.735 123.272 174.786 123.197C174.841 123.122 174.913 123.059 175.003 123.007C175.097 122.951 175.216 122.919 175.359 122.911C175.578 122.899 175.744 122.948 175.857 123.061C175.973 123.172 176.06 123.341 176.115 123.566ZM174.688 124.218L177.048 124.085C177.049 123.831 177.014 123.59 176.941 123.361C176.868 123.133 176.759 122.931 176.613 122.758C176.472 122.584 176.294 122.45 176.081 122.356C175.868 122.258 175.623 122.217 175.344 122.233C175.095 122.247 174.87 122.304 174.669 122.404C174.472 122.504 174.304 122.636 174.166 122.801C174.027 122.961 173.924 123.148 173.856 123.364C173.789 123.579 173.762 123.809 173.777 124.054C173.792 124.307 173.843 124.537 173.932 124.743C174.025 124.949 174.147 125.124 174.299 125.268C174.452 125.412 174.634 125.52 174.846 125.593C175.057 125.661 175.291 125.688 175.549 125.674C175.92 125.653 176.231 125.551 176.483 125.367C176.734 125.184 176.911 124.892 177.015 124.493L176.224 124.538C176.2 124.64 176.126 124.742 176.001 124.842C175.875 124.938 175.722 124.991 175.54 125.001C175.287 125.016 175.09 124.961 174.947 124.838C174.804 124.715 174.718 124.508 174.688 124.218ZM177.47 122.202L177.665 125.472L178.563 125.421L178.461 123.707C178.441 123.374 178.482 123.132 178.583 122.983C178.684 122.829 178.857 122.745 179.101 122.731C179.316 122.719 179.47 122.778 179.562 122.909C179.655 123.034 179.709 123.232 179.725 123.502L179.835 125.349L180.733 125.299L180.613 123.287C180.601 123.085 180.571 122.902 180.524 122.74C180.48 122.573 180.41 122.435 180.315 122.327C180.219 122.214 180.092 122.13 179.932 122.075C179.776 122.016 179.578 121.994 179.338 122.007C179.148 122.018 178.965 122.073 178.789 122.172C178.612 122.266 178.473 122.412 178.37 122.608L178.351 122.609L178.324 122.153L177.47 122.202Z" fill="#FFD966"/>
<path fill-rule="evenodd" clip-rule="evenodd" d="M186.144 120.27C186.991 119.509 188.433 119.428 189.364 120.089C190.296 120.75 191.738 120.668 192.585 119.907L192.843 124.249C191.996 125.011 190.554 125.092 189.622 124.431C188.691 123.77 187.249 123.851 186.402 124.613L186.144 120.27Z" fill="#FFD966" stroke="#FFD966" stroke-width="0.396033" stroke-linecap="round" stroke-linejoin="round"/>
<path d="M186.51 126.434L186.112 119.737" stroke="#FFD966" stroke-width="0.594049" stroke-linecap="round" stroke-linejoin="round"/>
<path d="M200.323 122.067L201.203 122.017C201.178 121.807 201.116 121.629 201.019 121.482C200.921 121.331 200.797 121.209 200.648 121.116C200.502 121.018 200.337 120.949 200.153 120.909C199.973 120.868 199.786 120.853 199.592 120.864C199.326 120.879 199.092 120.937 198.891 121.037C198.69 121.137 198.522 121.272 198.388 121.44C198.254 121.604 198.156 121.798 198.093 122.021C198.034 122.24 198.012 122.477 198.027 122.73C198.041 122.974 198.095 123.197 198.187 123.4C198.279 123.597 198.402 123.766 198.554 123.906C198.706 124.045 198.886 124.151 199.093 124.224C199.305 124.293 199.533 124.32 199.777 124.306C200.212 124.282 200.561 124.148 200.826 123.904C201.091 123.661 201.24 123.32 201.273 122.883L200.407 122.932C200.389 123.136 200.325 123.302 200.214 123.431C200.107 123.556 199.946 123.624 199.731 123.636C199.592 123.644 199.472 123.619 199.371 123.561C199.27 123.503 199.188 123.428 199.123 123.334C199.062 123.236 199.015 123.126 198.983 123.006C198.95 122.885 198.93 122.765 198.923 122.647C198.916 122.525 198.921 122.402 198.939 122.278C198.957 122.15 198.993 122.034 199.046 121.929C199.103 121.821 199.178 121.732 199.271 121.663C199.364 121.59 199.482 121.549 199.626 121.541C200.009 121.52 200.242 121.695 200.323 122.067ZM201.612 119.589L201.881 124.105L202.779 124.054L202.51 119.538L201.612 119.589ZM204.185 120.186L204.141 119.446L203.243 119.497L203.287 120.237L204.185 120.186ZM203.317 120.743L203.512 124.013L204.41 123.962L204.216 120.692L203.317 120.743ZM207.218 121.678L208.098 121.628C208.072 121.418 208.011 121.239 207.913 121.093C207.816 120.942 207.692 120.82 207.543 120.726C207.397 120.629 207.232 120.56 207.048 120.52C206.868 120.479 206.681 120.464 206.487 120.475C206.221 120.49 205.987 120.548 205.786 120.648C205.585 120.748 205.417 120.882 205.283 121.051C205.149 121.215 205.05 121.409 204.988 121.632C204.929 121.851 204.907 122.087 204.922 122.34C204.936 122.585 204.99 122.808 205.082 123.01C205.174 123.208 205.296 123.377 205.449 123.517C205.601 123.656 205.781 123.762 205.988 123.835C206.2 123.904 206.428 123.931 206.672 123.917C207.107 123.893 207.456 123.759 207.721 123.515C207.986 123.272 208.135 122.931 208.168 122.494L207.301 122.542C207.284 122.747 207.22 122.913 207.109 123.042C207.002 123.167 206.841 123.235 206.626 123.247C206.487 123.255 206.367 123.23 206.266 123.172C206.165 123.114 206.083 123.039 206.018 122.945C205.957 122.847 205.91 122.737 205.878 122.616C205.845 122.496 205.825 122.376 205.818 122.258C205.811 122.136 205.816 122.013 205.834 121.889C205.852 121.761 205.888 121.645 205.941 121.54C205.998 121.431 206.073 121.343 206.166 121.274C206.259 121.201 206.377 121.16 206.521 121.152C206.904 121.131 207.137 121.306 207.218 121.678ZM208.564 119.196L208.832 123.713L209.731 123.662L209.664 122.536L209.992 122.181L210.977 123.592L212.065 123.53L210.569 121.539L211.732 120.268L210.669 120.328L209.606 121.568L209.462 119.146L208.564 119.196ZM214.466 121.402L213.005 121.484C213.005 121.421 213.014 121.348 213.03 121.267C213.051 121.186 213.086 121.107 213.137 121.033C213.192 120.958 213.264 120.894 213.354 120.843C213.448 120.787 213.567 120.755 213.71 120.746C213.929 120.734 214.095 120.784 214.208 120.896C214.324 121.008 214.411 121.177 214.466 121.402ZM213.039 122.054L215.399 121.92C215.4 121.667 215.365 121.425 215.292 121.197C215.219 120.968 215.11 120.767 214.964 120.593C214.823 120.419 214.645 120.285 214.433 120.192C214.219 120.094 213.974 120.053 213.695 120.068C213.446 120.082 213.221 120.139 213.02 120.24C212.823 120.34 212.655 120.472 212.517 120.636C212.378 120.796 212.275 120.984 212.207 121.199C212.14 121.415 212.113 121.645 212.128 121.889C212.143 122.142 212.194 122.372 212.283 122.579C212.376 122.785 212.498 122.96 212.651 123.104C212.803 123.247 212.985 123.356 213.197 123.428C213.408 123.497 213.642 123.524 213.9 123.509C214.271 123.488 214.582 123.386 214.834 123.203C215.085 123.019 215.262 122.728 215.366 122.329L214.575 122.373C214.551 122.476 214.477 122.578 214.352 122.678C214.226 122.774 214.073 122.827 213.892 122.837C213.638 122.851 213.441 122.797 213.298 122.674C213.155 122.551 213.069 122.344 213.039 122.054ZM218.24 121.532C218.248 121.667 218.243 121.798 218.225 121.926C218.207 122.054 218.172 122.17 218.119 122.275C218.065 122.375 217.99 122.458 217.892 122.522C217.799 122.587 217.678 122.623 217.531 122.632C217.391 122.639 217.269 122.617 217.165 122.563C217.064 122.506 216.977 122.43 216.904 122.337C216.834 122.239 216.781 122.128 216.744 122.003C216.707 121.878 216.685 121.753 216.677 121.626C216.669 121.491 216.674 121.362 216.692 121.238C216.714 121.11 216.752 120.996 216.805 120.895C216.863 120.795 216.94 120.712 217.038 120.647C217.136 120.583 217.259 120.546 217.406 120.538C217.554 120.53 217.678 120.552 217.778 120.606C217.879 120.659 217.962 120.733 218.026 120.827C218.095 120.916 218.146 121.023 218.179 121.148C218.211 121.269 218.232 121.397 218.24 121.532ZM218.325 122.758L218.35 123.176L219.204 123.127L218.936 118.611L218.037 118.662L218.135 120.306L218.122 120.307C218.012 120.153 217.865 120.04 217.683 119.97C217.506 119.895 217.32 119.864 217.126 119.875C216.885 119.888 216.677 119.949 216.502 120.056C216.326 120.159 216.181 120.292 216.068 120.455C215.959 120.617 215.879 120.804 215.829 121.014C215.781 121.22 215.765 121.432 215.778 121.652C215.791 121.879 215.834 122.097 215.905 122.304C215.981 122.512 216.083 122.694 216.211 122.852C216.343 123.005 216.504 123.125 216.695 123.212C216.887 123.294 217.104 123.328 217.349 123.315C217.564 123.302 217.754 123.254 217.918 123.168C218.086 123.078 218.218 122.942 218.313 122.759L218.325 122.758Z" fill="#FFD966"/>
<g clip-path="url(#clip6_236_7019)">
<mask id="path-43-inside-2_236_7019" fill="white">
<path fill-rule="evenodd" clip-rule="evenodd" d="M161.931 131.529L161.954 131.924C162.006 132.797 162.756 133.465 163.63 133.416L167.719 133.185C168.139 133.161 168.551 133.305 168.865 133.585L171.235 135.695C171.549 135.975 171.961 136.119 172.381 136.095L177.397 135.812C177.817 135.788 178.209 135.599 178.488 135.286L180.592 132.923C180.871 132.61 181.263 132.42 181.683 132.397L181.818 132.389L181.818 132.39L221.288 130.163C222.162 130.113 222.828 129.365 222.776 128.492L222.752 128.097L181.701 130.414L161.931 131.529Z"/>
</mask>
<path fill-rule="evenodd" clip-rule="evenodd" d="M161.931 131.529L161.954 131.924C162.006 132.797 162.756 133.465 163.63 133.416L167.719 133.185C168.139 133.161 168.551 133.305 168.865 133.585L171.235 135.695C171.549 135.975 171.961 136.119 172.381 136.095L177.397 135.812C177.817 135.788 178.209 135.599 178.488 135.286L180.592 132.923C180.871 132.61 181.263 132.42 181.683 132.397L181.818 132.389L181.818 132.39L221.288 130.163C222.162 130.113 222.828 129.365 222.776 128.492L222.752 128.097L181.701 130.414L161.931 131.529Z" fill="#FFD966"/>
<path d="M161.931 131.529L161.907 131.134L161.512 131.156L161.535 131.552L161.931 131.529ZM163.63 133.416L163.653 133.811L163.63 133.416ZM167.719 133.185L167.696 132.789L167.719 133.185ZM168.865 133.585L168.602 133.88L168.602 133.88L168.865 133.585ZM171.235 135.695L170.972 135.99L170.972 135.99L171.235 135.695ZM172.381 136.095L172.357 135.7L172.381 136.095ZM177.397 135.812L177.421 136.207L177.397 135.812ZM178.488 135.286L178.784 135.549L178.784 135.549L178.488 135.286ZM180.592 132.923L180.296 132.659L180.296 132.659L180.592 132.923ZM181.683 132.397L181.659 132.001L181.683 132.397ZM181.818 132.389L182.214 132.366L182.19 131.972L181.795 131.994L181.818 132.389ZM181.818 132.39L181.423 132.413L181.447 132.808L181.842 132.786L181.818 132.39ZM221.288 130.163L221.265 129.767L221.288 130.163ZM222.752 128.097L223.148 128.074L223.124 127.679L222.729 127.701L222.752 128.097ZM181.701 130.414L181.724 130.809L181.701 130.414ZM162.349 131.901L162.326 131.507L161.535 131.552L161.559 131.946L162.349 131.901ZM163.606 133.02C162.951 133.057 162.388 132.556 162.349 131.901L161.559 131.946C161.624 133.038 162.561 133.873 163.653 133.811L163.606 133.02ZM167.696 132.789L163.606 133.02L163.653 133.811L167.743 133.58L167.696 132.789ZM169.128 133.29C168.735 132.94 168.22 132.76 167.696 132.789L167.743 133.58C168.058 133.562 168.367 133.67 168.602 133.88L169.128 133.29ZM171.498 135.4L169.128 133.29L168.602 133.88L170.972 135.99L171.498 135.4ZM172.357 135.7C172.043 135.717 171.734 135.61 171.498 135.4L170.972 135.99C171.365 136.34 171.88 136.52 172.404 136.49L172.357 135.7ZM177.374 135.417L172.357 135.7L172.404 136.49L177.421 136.207L177.374 135.417ZM178.192 135.022C177.982 135.257 177.688 135.399 177.374 135.417L177.421 136.207C177.945 136.178 178.435 135.941 178.784 135.549L178.192 135.022ZM180.296 132.659L178.192 135.022L178.784 135.549L180.888 133.187L180.296 132.659ZM181.659 132.001C181.135 132.031 180.644 132.268 180.296 132.659L180.888 133.187C181.097 132.952 181.391 132.81 181.706 132.792L181.659 132.001ZM181.795 131.994L181.659 132.001L181.706 132.792L181.842 132.784L181.795 131.994ZM182.214 132.367L182.214 132.366L181.423 132.412L181.423 132.413L182.214 132.367ZM221.265 129.767L181.795 131.995L181.842 132.786L221.312 130.558L221.265 129.767ZM222.381 128.514C222.419 129.169 221.92 129.73 221.265 129.767L221.312 130.558C222.404 130.496 223.236 129.561 223.171 128.47L222.381 128.514ZM222.357 128.119L222.381 128.514L223.171 128.47L223.148 128.074L222.357 128.119ZM181.724 130.809L222.776 128.492L222.729 127.701L181.677 130.018L181.724 130.809ZM161.954 131.925L181.724 130.809L181.677 130.018L161.907 131.134L161.954 131.925Z" fill="#FFBF00" mask="url(#path-43-inside-2_236_7019)"/>
</g>
</g>
<path d="M161.5 115.733L162 114.733L197 112.733L198.5 113.733L161.5 115.733Z" fill="#FFD966"/>
</g>
<defs>
<filter id="filter0_d_236_7019" x="7.44971" y="34.4897" width="138.086" height="27.3536" filterUnits="userSpaceOnUse" color-interpolation-filters="sRGB">
<feFlood flood-opacity="0" result="BackgroundImageFix"/>
<feColorMatrix in="SourceAlpha" type="matrix" values="0 0 0 0 0 0 0 0 0 0 0 0 0 0 0 0 0 0 127 0" result="hardAlpha"/>
<feOffset/>
<feComposite in2="hardAlpha" operator="out"/>
<feColorMatrix type="matrix" values="0 0 0 0 0 0 0 0 0 0 0 0 0 0 0 0 0 0 1 0"/>
<feBlend mode="normal" in2="BackgroundImageFix" result="effect1_dropShadow_236_7019"/>
<feBlend mode="normal" in="SourceGraphic" in2="effect1_dropShadow_236_7019" result="shape"/>
</filter>
<filter id="filter1_d_236_7019" x="160.965" y="107.846" width="61.0454" height="11.4521" filterUnits="userSpaceOnUse" color-interpolation-filters="sRGB">
<feFlood flood-opacity="0" result="BackgroundImageFix"/>
<feColorMatrix in="SourceAlpha" type="matrix" values="0 0 0 0 0 0 0 0 0 0 0 0 0 0 0 0 0 0 127 0" result="hardAlpha"/>
<feOffset/>
<feComposite in2="hardAlpha" operator="out"/>
<feColorMatrix type="matrix" values="0 0 0 0 0 0 0 0 0 0 0 0 0 0 0 0 0 0 1 0"/>
<feBlend mode="normal" in2="BackgroundImageFix" result="effect1_dropShadow_236_7019"/>
<feBlend mode="normal" in="SourceGraphic" in2="effect1_dropShadow_236_7019" result="shape"/>
</filter>
<filter id="filter2_d_236_7019" x="160.963" y="107.789" width="61.0566" height="11.4196" filterUnits="userSpaceOnUse" color-interpolation-filters="sRGB">
<feFlood flood-opacity="0" result="BackgroundImageFix"/>
<feColorMatrix in="SourceAlpha" type="matrix" values="0 0 0 0 0 0 0 0 0 0 0 0 0 0 0 0 0 0 127 0" result="hardAlpha"/>
<feOffset/>
<feComposite in2="hardAlpha" operator="out"/>
<feColorMatrix type="matrix" values="0 0 0 0 0 0 0 0 0 0 0 0 0 0 0 0 0 0 1 0"/>
<feBlend mode="normal" in2="BackgroundImageFix" result="effect1_dropShadow_236_7019"/>
<feBlend mode="normal" in="SourceGraphic" in2="effect1_dropShadow_236_7019" result="shape"/>
</filter>
<clipPath id="clip0_236_7019">
<rect width="300" height="300" fill="white"/>
</clipPath>
<clipPath id="clip1_236_7019">
<rect width="139.142" height="7.89775" fill="white" transform="translate(7 53.1518) rotate(-7.92314)"/>
</clipPath>
<clipPath id="clip2_236_7019">
<rect width="139.142" height="10.5303" fill="white" transform="translate(12.3223 91.3944) rotate(-7.92314)"/>
</clipPath>
<clipPath id="clip3_236_7019">
<rect width="60.7839" height="7.92065" fill="white" transform="translate(160.599 109.019) rotate(-3.31476)"/>
</clipPath>
<clipPath id="clip4_236_7019">
<rect width="60.7839" height="4.75239" fill="white" transform="translate(161.958 131.924) rotate(-3.31476)"/>
</clipPath>
<clipPath id="clip5_236_7019">
<rect width="61.1778" height="7.92065" fill="white" transform="matrix(0.998411 -0.0563482 0.0593327 0.998238 160.587 108.93)"/>
</clipPath>
<clipPath id="clip6_236_7019">
<rect width="61.1778" height="4.75239" fill="white" transform="matrix(0.998411 -0.0563482 0.0593327 0.998238 161.954 131.925)"/>
</clipPath>
</defs>
</svg>
