<svg width="247" height="202" viewBox="0 0 247 202" fill="none" xmlns="http://www.w3.org/2000/svg">
<path opacity="0.4" d="M247 109.842C247 160.34 218.901 208.503 158.5 201.278C98.0994 194.052 70 160.34 70 109.842C70 59.3434 107.816 33.1361 158.5 18.4063C209.184 3.67653 247 59.3434 247 109.842Z" fill="#59C059"/>
<mask id="mask0_234_6944" style="mask-type:alpha" maskUnits="userSpaceOnUse" x="-18" y="16" width="265" height="186">
<path fill-rule="evenodd" clip-rule="evenodd" d="M120.75 191.724C107.566 199.852 90.87 203.714 70.5 201.278C10.0994 194.052 -18 160.34 -18 109.842C-18 59.3434 19.816 33.136 70.5 18.4063C91.4793 12.3093 110.254 18.2735 125.055 30.9401C135.265 26.0085 146.523 21.887 158.5 18.4063C209.184 3.6765 247 59.3434 247 109.842C247 160.34 218.901 208.503 158.5 201.278C144.099 199.555 131.535 196.326 120.75 191.724Z" fill="#59C059"/>
</mask>
<g mask="url(#mask0_234_6944)">
<path d="M52.2196 106.321C52.2196 106.321 35.0205 104.955 35 116.962C35 124.998 41.2045 130.411 45.3249 133.11L45.4616 133.185C46.3567 133.78 47.1562 134.231 47.7575 134.552L47.942 134.654C48.4203 134.9 48.7415 135.051 48.8508 135.099H48.8918C49.8007 143.846 57.6656 147.4 65.5579 148.712C71.1635 149.542 76.8533 149.638 82.4837 148.999C81.9576 149.197 71.8855 153.277 81.3562 165.044C82.2138 165.983 83.2953 166.688 84.4995 167.095L84.7728 167.204C90.6493 169.418 102.416 170.156 116.889 169.938H117.265C130.562 169.712 146.107 168.66 161.407 167.204C163.853 166.978 166.293 166.726 168.718 166.459H168.957C182.87 164.983 196.229 163.193 207.121 161.388L207.62 161.3C217.418 159.666 225.167 158.012 229.424 156.584C232.984 155.395 236.797 154.042 240.747 152.607C247.518 150.14 254.666 147.406 261.52 144.714C261.538 144.649 261.552 144.583 261.561 144.516C262.374 140.251 263.009 135.891 263.426 131.442C265.254 112.519 262.969 93.4244 256.73 75.4665C254.229 68.2841 251.816 61.7373 249.5 55.7645C247.648 56.4958 245.735 57.2406 243.767 57.9855C224.832 65.1269 211.35 69.6577 211.35 69.6577C211.35 69.6577 194.268 44.8851 159.056 52.9627C152.019 54.5626 144.776 55.0583 137.586 54.4319C132.647 53.9791 127.746 53.1706 122.922 52.0127C122.898 52.0167 122.872 52.0167 122.847 52.0127C120.982 51.589 119.239 51.1517 117.599 50.7622C107.842 48.4045 102.143 47.3452 101.623 56.0789C101.589 56.6188 101.582 57.2065 101.589 57.8215C101.6 58.8342 101.673 59.8452 101.808 60.8489C101.808 60.8489 101.808 60.8831 101.808 60.9036C102.172 63.8156 103.249 66.5927 104.944 68.988C106.72 71.3819 109.048 73.3114 111.73 74.6123L111.798 74.6464C117.695 77.6055 124.234 77.7148 125.69 77.7011H125.984C106.393 83.2776 88.8044 78.4461 68.8925 81.8835C65.621 82.4399 62.3907 83.2162 59.2236 84.207C35.1435 91.6627 52.2196 106.321 52.2196 106.321Z" fill="#E4B681"/>
<path opacity="0.1" d="M70.7993 123.024C80.0309 122.86 89.7271 123.633 95.6241 123.257C103.557 122.744 125.41 114.995 125.41 114.995L121.686 101.177C116.732 101.976 96.3348 109.199 87.561 109.924C84.0829 110.204 77.8716 109.712 71.6124 109.008C61.964 107.915 52.2062 106.322 52.2062 106.322C57.8231 103.972 64.8886 104.443 71.5851 105.208C77.5914 105.892 83.2903 106.808 87.4038 106.124C93.95 105.044 122.096 95.4293 122.096 95.4293C123.465 93.6294 125.433 92.3787 127.644 91.903C131.3 91.1513 129.257 100.35 129.565 102.277C131.888 116.539 134.156 123.94 139.199 145.262C139.199 145.262 119.158 149.478 112.365 149.362C104.897 149.273 90.7179 145.46 82.4976 148.979C82.9816 148.287 83.5747 147.678 84.2538 147.175C84.8839 146.582 85.6377 146.136 86.4609 145.87C101.993 141.496 105.99 143.82 112.427 144.373C118.577 144.92 133.07 138.093 133.07 138.093L128.027 122.109C128.027 122.109 105.703 129.482 97.9611 129.885C90.9298 130.248 80.3247 127.835 70.2321 127.576C67.5093 127.48 64.7832 127.603 62.0801 127.945C49.9717 129.585 48.8853 135.086 48.8853 135.086H48.8443C48.5302 134.962 48.2264 134.813 47.9355 134.642L47.751 134.539C46.9378 134.088 45.9538 133.487 45.5302 133.227L45.455 133.173L45.3184 133.097C46.2067 131.177 49.4183 127.835 49.4183 127.835C53.6753 124.2 62.0323 123.188 70.7993 123.024ZM119.663 72.4539C128.915 72.5974 131.013 73.8207 131.013 73.8207C134.136 79.1032 142.377 84.1397 151.157 88.2947C160.146 92.4215 169.404 95.9376 178.866 98.8189C170.926 102.181 161.516 101.327 153.002 98.3268C145.575 95.7163 138.83 91.493 134.341 87.0305L125.95 77.6408H125.321C120.859 77.5278 116.457 76.587 112.338 74.8662L111.778 74.5929L111.709 74.5587C108.995 73.3097 106.655 71.3705 104.924 68.9345L104.753 68.6816C104.753 68.6816 110.432 72.3104 119.677 72.447L119.663 72.4539ZM130.733 83.2377C130.702 83.2098 130.672 83.1801 130.644 83.1488C130.261 82.7661 129.681 82.1169 129.059 81.3789C129.565 81.9461 130.138 82.568 130.747 83.2309L130.733 83.2377Z" fill="black"/>
<path opacity="0.1" d="M81.3564 165.067C82.2446 165.968 83.3167 166.668 84.4997 167.117L84.773 167.226C90.9844 169.707 103.038 170.274 116.889 169.96H117.265C131.614 169.598 147.864 168.265 161.393 167.096L168.718 166.454H168.958C183.724 165.176 196.735 163.256 207.121 161.383L207.62 161.295C217.74 159.449 225.297 157.659 229.424 156.579C231.222 156.114 235.356 154.638 240.747 152.602C246.658 150.367 254.065 147.476 261.561 144.511C262.374 140.246 263.009 135.886 263.426 131.437C231.365 143.738 192.047 152.704 160.02 158.602C129.906 164.144 106.229 166.96 101.063 167.192C88.3058 167.705 81.3564 165.067 81.3564 165.067Z" fill="black"/>
</g>
<rect width="88" height="43" transform="translate(36 12)" fill="#0B8E69"/>
<mask id="path-6-inside-1_234_6944" fill="white">
<path fill-rule="evenodd" clip-rule="evenodd" d="M36 54.9244V56.1979C36 59.0196 38.2875 61.3071 41.1093 61.3071H54.3206C55.6757 61.3071 56.9753 61.8454 57.9334 62.8036L65.159 70.0291C66.1172 70.9873 67.4167 71.5256 68.7718 71.5256H84.9761C86.3312 71.5256 87.6307 70.9873 88.5889 70.0291L95.8145 62.8036C96.7726 61.8454 98.0722 61.3071 99.4272 61.3071H99.8656V61.3109H118.891C121.713 61.3109 124 59.0234 124 56.2017V54.9244H99.8656H36Z"/>
</mask>
<path fill-rule="evenodd" clip-rule="evenodd" d="M36 54.9244V56.1979C36 59.0196 38.2875 61.3071 41.1093 61.3071H54.3206C55.6757 61.3071 56.9753 61.8454 57.9334 62.8036L65.159 70.0291C66.1172 70.9873 67.4167 71.5256 68.7718 71.5256H84.9761C86.3312 71.5256 87.6307 70.9873 88.5889 70.0291L95.8145 62.8036C96.7726 61.8454 98.0722 61.3071 99.4272 61.3071H99.8656V61.3109H118.891C121.713 61.3109 124 59.0234 124 56.2017V54.9244H99.8656H36Z" fill="#0B8E69"/>
<path d="M36 54.9244V53.6471H34.7227V54.9244H36ZM57.9334 62.8036L58.8366 61.9004L58.8366 61.9004L57.9334 62.8036ZM65.159 70.0291L64.2558 70.9323L64.2558 70.9323L65.159 70.0291ZM88.5889 70.0291L89.4921 70.9323L89.4921 70.9323L88.5889 70.0291ZM95.8145 62.8036L96.7177 63.7068L96.7177 63.7068L95.8145 62.8036ZM99.8656 61.3071H101.143V60.0298H99.8656V61.3071ZM99.8656 61.3109H98.5882V62.5882H99.8656V61.3109ZM124 54.9244H125.277V53.6471H124V54.9244ZM37.2773 56.1979V54.9244H34.7227V56.1979H37.2773ZM41.1093 60.0298C38.9929 60.0298 37.2773 58.3142 37.2773 56.1979H34.7227C34.7227 59.7251 37.5821 62.5844 41.1093 62.5844V60.0298ZM54.3206 60.0298H41.1093V62.5844H54.3206V60.0298ZM58.8366 61.9004C57.6389 60.7027 56.0145 60.0298 54.3206 60.0298V62.5844C55.3369 62.5844 56.3116 62.9881 57.0302 63.7068L58.8366 61.9004ZM66.0622 69.1259L58.8366 61.9004L57.0302 63.7068L64.2558 70.9323L66.0622 69.1259ZM68.7718 70.2483C67.7555 70.2483 66.7808 69.8446 66.0622 69.1259L64.2558 70.9323C65.4535 72.13 67.078 72.8029 68.7718 72.8029V70.2483ZM84.9761 70.2483H68.7718V72.8029H84.9761V70.2483ZM87.6857 69.1259C86.9671 69.8446 85.9924 70.2483 84.9761 70.2483V72.8029C86.6699 72.8029 88.2944 72.13 89.4921 70.9323L87.6857 69.1259ZM94.9113 61.9004L87.6857 69.1259L89.4921 70.9323L96.7177 63.7068L94.9113 61.9004ZM99.4272 60.0298C97.7334 60.0298 96.109 60.7027 94.9113 61.9004L96.7177 63.7068C97.4363 62.9881 98.411 62.5844 99.4272 62.5844V60.0298ZM99.8656 60.0298H99.4272V62.5844H99.8656V60.0298ZM101.143 61.3109V61.3071H98.5882V61.3109H101.143ZM118.891 60.0336H99.8656V62.5882H118.891V60.0336ZM122.723 56.2017C122.723 58.318 121.007 60.0336 118.891 60.0336V62.5882C122.418 62.5882 125.277 59.7289 125.277 56.2017H122.723ZM122.723 54.9244V56.2017H125.277V54.9244H122.723ZM99.8656 56.2017H124V53.6471H99.8656V56.2017ZM36 56.2017H99.8656V53.6471H36V56.2017Z" fill="#0B8E69" mask="url(#path-6-inside-1_234_6944)"/>
<g filter="url(#filter0_d_234_6944)">
<mask id="path-8-inside-2_234_6944" fill="white">
<path fill-rule="evenodd" clip-rule="evenodd" d="M41.1092 0C38.2875 0 36 2.28749 36 5.10924V12.7731H67.9328H99.8655H124V5.10924C124 2.28749 121.713 0 118.891 0H99.8655H99.4272C98.0722 0 96.7726 0.538294 95.8145 1.49646L88.5889 8.72202C87.6307 9.68019 86.3312 10.2185 84.9761 10.2185H68.7718C67.4167 10.2185 66.1172 9.68019 65.159 8.72202L57.9334 1.49646C56.9753 0.538294 55.6757 0 54.3207 0H41.1092Z"/>
</mask>
<path fill-rule="evenodd" clip-rule="evenodd" d="M41.1092 0C38.2875 0 36 2.28749 36 5.10924V12.7731H67.9328H99.8655H124V5.10924C124 2.28749 121.713 0 118.891 0H99.8655H99.4272C98.0722 0 96.7726 0.538294 95.8145 1.49646L88.5889 8.72202C87.6307 9.68019 86.3312 10.2185 84.9761 10.2185H68.7718C67.4167 10.2185 66.1172 9.68019 65.159 8.72202L57.9334 1.49646C56.9753 0.538294 55.6757 0 54.3207 0H41.1092Z" fill="#0B8E69"/>
<path d="M36 12.7731H34.7227V14.0504H36V12.7731ZM124 12.7731V14.0504H125.277V12.7731H124ZM95.8145 1.49646L94.9113 0.593266L94.9113 0.593268L95.8145 1.49646ZM88.5889 8.72202L87.6857 7.81883L87.6857 7.81883L88.5889 8.72202ZM65.159 8.72202L66.0622 7.81883L66.0622 7.81883L65.159 8.72202ZM57.9334 1.49646L58.8366 0.593268L58.8366 0.593266L57.9334 1.49646ZM37.2773 5.10924C37.2773 2.99293 38.9929 1.27731 41.1092 1.27731V-1.27731C37.582 -1.27731 34.7227 1.58205 34.7227 5.10924H37.2773ZM37.2773 12.7731V5.10924H34.7227V12.7731H37.2773ZM67.9328 11.4958H36V14.0504H67.9328V11.4958ZM99.8655 11.4958H67.9328V14.0504H99.8655V11.4958ZM124 11.4958H99.8655V14.0504H124V11.4958ZM122.723 5.10924V12.7731H125.277V5.10924H122.723ZM118.891 1.27731C121.007 1.27731 122.723 2.99293 122.723 5.10924H125.277C125.277 1.58205 122.418 -1.27731 118.891 -1.27731V1.27731ZM99.8655 1.27731H118.891V-1.27731H99.8655V1.27731ZM99.4272 1.27731H99.8655V-1.27731H99.4272V1.27731ZM96.7177 2.39966C97.4363 1.68103 98.411 1.27731 99.4272 1.27731V-1.27731C97.7334 -1.27731 96.109 -0.604443 94.9113 0.593266L96.7177 2.39966ZM89.4921 9.62522L96.7177 2.39966L94.9113 0.593268L87.6857 7.81883L89.4921 9.62522ZM84.9761 11.4958C86.6699 11.4958 88.2944 10.8229 89.4921 9.62522L87.6857 7.81883C86.9671 8.53746 85.9924 8.94118 84.9761 8.94118V11.4958ZM68.7718 11.4958H84.9761V8.94118H68.7718V11.4958ZM64.2558 9.62522C65.4535 10.8229 67.078 11.4958 68.7718 11.4958V8.94118C67.7555 8.94118 66.7808 8.53746 66.0622 7.81883L64.2558 9.62522ZM57.0302 2.39966L64.2558 9.62522L66.0622 7.81883L58.8366 0.593268L57.0302 2.39966ZM54.3207 1.27731C55.3369 1.27731 56.3116 1.68103 57.0303 2.39966L58.8366 0.593266C57.6389 -0.604444 56.0145 -1.27731 54.3207 -1.27731V1.27731ZM41.1092 1.27731H54.3207V-1.27731H41.1092V1.27731Z" fill="#0B8E69" mask="url(#path-8-inside-2_234_6944)"/>
</g>
<path fill-rule="evenodd" clip-rule="evenodd" d="M100.28 31.1891C98.974 45.959 82.245 57.5752 78.0014 57.5752C73.7577 57.5752 57.0258 45.959 55.7223 31.1891C55.6846 30.7072 55.647 30.2254 55.647 29.7435C55.647 22.5822 61.4956 16.7568 68.6882 16.7568C72.3382 16.7568 75.655 18.2398 78.0014 20.6894C80.3477 18.2398 83.6646 16.7568 87.3145 16.7568C94.5043 16.7568 100.353 22.5822 100.353 29.7435C100.353 30.2254 100.315 30.7072 100.28 31.1891Z" fill="#FF6680"/>
<path d="M22.4373 17.076C17.6179 21.5711 10.8707 33.7397 22.4373 46.4542" stroke="#46B946" stroke-width="3.83193" stroke-linecap="round"/>
<path d="M9.61691 13.2441C3.86901 19.2049 -4.17805 35.3416 9.61691 52.2021" stroke="#46B946" stroke-width="3.83193" stroke-linecap="round"/>
<path d="M133.563 15.7987C138.382 20.2937 145.129 32.4624 133.563 45.1769" stroke="#46B946" stroke-width="3.83193" stroke-linecap="round"/>
<path d="M146.383 11.9668C152.131 17.9276 160.178 34.0643 146.383 50.9248" stroke="#46B946" stroke-width="3.83193" stroke-linecap="round"/>
<defs>
<filter id="filter0_d_234_6944" x="36" y="0" width="88" height="12.7731" filterUnits="userSpaceOnUse" color-interpolation-filters="sRGB">
<feFlood flood-opacity="0" result="BackgroundImageFix"/>
<feColorMatrix in="SourceAlpha" type="matrix" values="0 0 0 0 0 0 0 0 0 0 0 0 0 0 0 0 0 0 127 0" result="hardAlpha"/>
<feOffset/>
<feComposite in2="hardAlpha" operator="out"/>
<feColorMatrix type="matrix" values="0 0 0 0 0 0 0 0 0 0 0 0 0 0 0 0 0 0 1 0"/>
<feBlend mode="normal" in2="BackgroundImageFix" result="effect1_dropShadow_234_6944"/>
<feBlend mode="normal" in="SourceGraphic" in2="effect1_dropShadow_234_6944" result="shape"/>
</filter>
</defs>
</svg>
