<svg width="247" height="202" viewBox="0 0 247 202" fill="none" xmlns="http://www.w3.org/2000/svg">
<path opacity="0.4" d="M247 109.842C247 160.34 218.901 208.503 158.5 201.278C98.0994 194.052 70 160.34 70 109.842C70 59.3434 107.816 33.1361 158.5 18.4063C209.184 3.67653 247 59.3434 247 109.842Z" fill="#59C059"/>
<mask id="mask0_234_6944" style="mask-type:alpha" maskUnits="userSpaceOnUse" x="-18" y="16" width="265" height="186">
<path fill-rule="evenodd" clip-rule="evenodd" d="M120.75 191.724C107.566 199.852 90.87 203.714 70.5 201.278C10.0994 194.052 -18 160.34 -18 109.842C-18 59.3434 19.816 33.136 70.5 18.4063C91.4793 12.3093 110.254 18.2735 125.055 30.9401C135.265 26.0085 146.523 21.887 158.5 18.4063C209.184 3.6765 247 59.3434 247 109.842C247 160.34 218.901 208.503 158.5 201.278C144.099 199.555 131.535 196.326 120.75 191.724Z" fill="#59C059"/>
</mask>
<g mask="url(#mask0_234_6944)">
<path d="M52.2196 106.321C52.2196 106.321 35.0205 104.955 35 116.962C35 124.998 41.2045 130.411 45.3249 133.11L45.4616 133.185C46.3567 133.78 47.1562 134.231 47.7575 134.552L47.942 134.654C48.4203 134.9 48.7415 135.051 48.8508 135.099H48.8918C49.8007 143.846 57.6656 147.4 65.5579 148.712C71.1635 149.542 76.8533 149.638 82.4837 148.999C81.9576 149.197 71.8855 153.277 81.3562 165.044C82.2138 165.983 83.2953 166.688 84.4995 167.095L84.7728 167.204C90.6493 169.418 102.416 170.156 116.889 169.938H117.265C130.562 169.712 146.107 168.66 161.407 167.204C163.853 166.978 166.293 166.726 168.718 166.459H168.957C182.87 164.983 196.229 163.193 207.121 161.388L207.62 161.3C217.418 159.666 225.167 158.012 229.424 156.584C232.984 155.395 236.797 154.042 240.747 152.607C247.518 150.14 254.666 147.406 261.52 144.714C261.538 144.649 261.552 144.583 261.561 144.516C262.374 140.251 263.009 135.891 263.426 131.442C265.254 112.519 262.969 93.4244 256.73 75.4665C254.229 68.2841 251.816 61.7373 249.5 55.7645C247.648 56.4958 245.735 57.2406 243.767 57.9855C224.832 65.1269 211.35 69.6577 211.35 69.6577C211.35 69.6577 194.268 44.8851 159.056 52.9627C152.019 54.5626 144.776 55.0583 137.586 54.4319C132.647 53.9791 127.746 53.1706 122.922 52.0127C122.898 52.0167 122.872 52.0167 122.847 52.0127C120.982 51.589 119.239 51.1517 117.599 50.7622C107.842 48.4045 102.143 47.3452 101.623 56.0789C101.589 56.6188 101.582 57.2065 101.589 57.8215C101.6 58.8342 101.673 59.8452 101.808 60.8489C101.808 60.8489 101.808 60.8831 101.808 60.9036C102.172 63.8156 103.249 66.5927 104.944 68.988C106.72 71.3819 109.048 73.3114 111.73 74.6123L111.798 74.6464C117.695 77.6055 124.234 77.7148 125.69 77.7011H125.984C106.393 83.2776 88.8044 78.4461 68.8925 81.8835C65.621 82.4399 62.3907 83.2162 59.2236 84.207C35.1435 91.6627 52.2196 106.321 52.2196 106.321Z" fill="#E4B681"/>
<path opacity="0.1" d="M70.7993 123.024C80.0309 122.86 89.7271 123.633 95.6241 123.257C103.557 122.744 125.41 114.995 125.41 114.995L121.686 101.177C116.732 101.976 96.3348 109.199 87.561 109.924C84.0829 110.204 77.8716 109.712 71.6124 109.008C61.964 107.915 52.2062 106.322 52.2062 106.322C57.8231 103.972 64.8886 104.443 71.5851 105.208C77.5914 105.892 83.2903 106.808 87.4038 106.124C93.95 105.044 122.096 95.4293 122.096 95.4293C123.465 93.6294 125.433 92.3787 127.644 91.903C131.3 91.1513 129.257 100.35 129.565 102.277C131.888 116.539 134.156 123.94 139.199 145.262C139.199 145.262 119.158 149.478 112.365 149.362C104.897 149.273 90.7179 145.46 82.4976 148.979C82.9816 148.287 83.5747 147.678 84.2538 147.175C84.8839 146.582 85.6377 146.136 86.4609 145.87C101.993 141.496 105.99 143.82 112.427 144.373C118.577 144.92 133.07 138.093 133.07 138.093L128.027 122.109C128.027 122.109 105.703 129.482 97.9611 129.885C90.9298 130.248 80.3247 127.835 70.2321 127.576C67.5093 127.48 64.7832 127.603 62.0801 127.945C49.9717 129.585 48.8853 135.086 48.8853 135.086H48.8443C48.5302 134.962 48.2264 134.813 47.9355 134.642L47.751 134.539C46.9378 134.088 45.9538 133.487 45.5302 133.227L45.455 133.173L45.3184 133.097C46.2067 131.177 49.4183 127.835 49.4183 127.835C53.6753 124.2 62.0323 123.188 70.7993 123.024ZM119.663 72.4539C128.915 72.5974 131.013 73.8207 131.013 73.8207C134.136 79.1032 142.377 84.1397 151.157 88.2947C160.146 92.4215 169.404 95.9376 178.866 98.8189C170.926 102.181 161.516 101.327 153.002 98.3268C145.575 95.7163 138.83 91.493 134.341 87.0305L125.95 77.6408H125.321C120.859 77.5278 116.457 76.587 112.338 74.8662L111.778 74.5929L111.709 74.5587C108.995 73.3097 106.655 71.3705 104.924 68.9345L104.753 68.6816C104.753 68.6816 110.432 72.3104 119.677 72.447L119.663 72.4539ZM130.733 83.2377C130.702 83.2098 130.672 83.1801 130.644 83.1488C130.261 82.7661 129.681 82.1169 129.059 81.3789C129.565 81.9461 130.138 82.568 130.747 83.2309L130.733 83.2377Z" fill="black"/>
<path opacity="0.1" d="M81.3564 165.067C82.2446 165.968 83.3167 166.668 84.4997 167.117L84.773 167.226C90.9844 169.707 103.038 170.274 116.889 169.96H117.265C131.614 169.598 147.864 168.265 161.393 167.096L168.718 166.454H168.958C183.724 165.176 196.735 163.256 207.121 161.383L207.62 161.295C217.74 159.449 225.297 157.659 229.424 156.579C231.222 156.114 235.356 154.638 240.747 152.602C246.658 150.367 254.065 147.476 261.561 144.511C262.374 140.246 263.009 135.886 263.426 131.437C231.365 143.738 192.047 152.704 160.02 158.602C129.906 164.144 106.229 166.96 101.063 167.192C88.3058 167.705 81.3564 165.067 81.3564 165.067Z" fill="black"/>
</g>
<g clip-path="url(#clip0_234_6944)">
<g filter="url(#filter0_d_234_6944)">
<mask id="path-6-inside-1_234_6944" fill="white">
<path fill-rule="evenodd" clip-rule="evenodd" d="M41.1092 0C38.2875 0 36 2.28749 36 5.10924V12.7731H67.9328H99.8655H124.454V5.10924C124.454 2.28749 122.166 0 119.345 0H99.8655H99.4272C98.0722 0 96.7726 0.538294 95.8145 1.49646L88.5889 8.72202C87.6307 9.68019 86.3312 10.2185 84.9761 10.2185H68.7718C67.4167 10.2185 66.1172 9.68019 65.159 8.72202L57.9334 1.49646C56.9753 0.538294 55.6757 0 54.3207 0H41.1092Z"/>
</mask>
<path fill-rule="evenodd" clip-rule="evenodd" d="M41.1092 0C38.2875 0 36 2.28749 36 5.10924V12.7731H67.9328H99.8655H124.454V5.10924C124.454 2.28749 122.166 0 119.345 0H99.8655H99.4272C98.0722 0 96.7726 0.538294 95.8145 1.49646L88.5889 8.72202C87.6307 9.68019 86.3312 10.2185 84.9761 10.2185H68.7718C67.4167 10.2185 66.1172 9.68019 65.159 8.72202L57.9334 1.49646C56.9753 0.538294 55.6757 0 54.3207 0H41.1092Z" fill="#0B8E69"/>
<path d="M36 12.7731H34.7227V14.0504H36V12.7731ZM124.454 12.7731V14.0504H125.731V12.7731H124.454ZM95.8145 1.49646L94.9113 0.593266V0.593268L95.8145 1.49646ZM88.5889 8.72202L87.6857 7.81883L88.5889 8.72202ZM65.159 8.72202L66.0622 7.81883L66.0622 7.81883L65.159 8.72202ZM57.9334 1.49646L58.8366 0.593268V0.593266L57.9334 1.49646ZM37.2773 5.10924C37.2773 2.99293 38.9929 1.27731 41.1092 1.27731V-1.27731C37.582 -1.27731 34.7227 1.58205 34.7227 5.10924H37.2773ZM37.2773 12.7731V5.10924H34.7227V12.7731H37.2773ZM67.9328 11.4958H36V14.0504H67.9328V11.4958ZM99.8655 11.4958H67.9328V14.0504H99.8655V11.4958ZM124.454 11.4958H99.8655V14.0504H124.454V11.4958ZM123.176 5.10924V12.7731H125.731V5.10924H123.176ZM119.345 1.27731C121.461 1.27731 123.176 2.99292 123.176 5.10924H125.731C125.731 1.58205 122.872 -1.27731 119.345 -1.27731V1.27731ZM99.8655 1.27731H119.345V-1.27731H99.8655V1.27731ZM99.4272 1.27731H99.8655V-1.27731H99.4272V1.27731ZM96.7177 2.39966C97.4363 1.68103 98.411 1.27731 99.4272 1.27731V-1.27731C97.7334 -1.27731 96.109 -0.604443 94.9113 0.593266L96.7177 2.39966ZM89.4921 9.62522L96.7177 2.39966L94.9113 0.593268L87.6857 7.81883L89.4921 9.62522ZM84.9761 11.4958C86.6699 11.4958 88.2944 10.8229 89.4921 9.62522L87.6857 7.81883C86.9671 8.53746 85.9924 8.94118 84.9761 8.94118V11.4958ZM68.7718 11.4958H84.9761V8.94118H68.7718V11.4958ZM64.2558 9.62522C65.4535 10.8229 67.078 11.4958 68.7718 11.4958V8.94118C67.7555 8.94118 66.7808 8.53746 66.0622 7.81883L64.2558 9.62522ZM57.0303 2.39966L64.2558 9.62522L66.0622 7.81883L58.8366 0.593268L57.0303 2.39966ZM54.3207 1.27731C55.3369 1.27731 56.3116 1.68103 57.0303 2.39966L58.8366 0.593266C57.6389 -0.604444 56.0145 -1.27731 54.3207 -1.27731V1.27731ZM41.1092 1.27731H54.3207V-1.27731H41.1092V1.27731Z" fill="#0B8E69" mask="url(#path-6-inside-1_234_6944)"/>
</g>
</g>
<rect width="88.437" height="44.7059" transform="translate(36 11.4958)" fill="#0B8E69"/>
<line y1="-0.638655" x2="44.7059" y2="-0.638655" transform="matrix(-1.19249e-08 -1 -1 1.19249e-08 36 56.2016)" stroke="#0B8E69" stroke-width="1.27731"/>
<path d="M47.3219 28.2282V38.7941H50.2239V34.0323C50.2239 33.5554 50.2716 33.1126 50.367 32.7038C50.4623 32.2951 50.619 31.9409 50.837 31.6411C51.0686 31.3278 51.3684 31.0825 51.7362 30.9054C52.1041 30.7283 52.5537 30.6397 53.0851 30.6397C53.2622 30.6397 53.4461 30.6533 53.6369 30.6806C53.8276 30.6942 53.9911 30.7146 54.1274 30.7419V28.0442C53.8958 27.9761 53.6846 27.942 53.4938 27.942C53.126 27.942 52.7717 27.9965 52.4311 28.1055C52.0905 28.2145 51.7703 28.3712 51.4706 28.5756C51.1708 28.7663 50.9051 29.0048 50.6735 29.2909C50.4419 29.5634 50.258 29.8631 50.1217 30.1901H50.0809V28.2282H47.3219ZM62.018 32.3769H57.297C57.3106 32.1725 57.3515 31.9409 57.4196 31.682C57.5014 31.4231 57.6308 31.1779 57.8079 30.9463C57.9987 30.7146 58.2439 30.5239 58.5437 30.374C58.857 30.2105 59.2453 30.1288 59.7086 30.1288C60.4171 30.1288 60.9416 30.3195 61.2822 30.701C61.6365 31.0825 61.8817 31.6411 62.018 32.3769ZM57.297 34.2162H64.92C64.9745 33.3987 64.9064 32.6153 64.7156 31.8659C64.5249 31.1166 64.2115 30.449 63.7755 29.8631C63.3532 29.2772 62.8082 28.814 62.1406 28.4734C61.473 28.1192 60.6896 27.942 59.7903 27.942C58.9865 27.942 58.2507 28.0851 57.5831 28.3712C56.9292 28.6573 56.3637 29.0524 55.8869 29.5566C55.41 30.047 55.0421 30.6329 54.7833 31.3141C54.5244 31.9954 54.395 32.7311 54.395 33.5213C54.395 34.3388 54.5176 35.0882 54.7628 35.7694C55.0217 36.4506 55.3828 37.0365 55.846 37.527C56.3092 38.0175 56.8747 38.399 57.5423 38.6714C58.2099 38.9303 58.9592 39.0597 59.7903 39.0597C60.9893 39.0597 62.0111 38.7873 62.8559 38.2423C63.7006 37.6973 64.3273 36.7912 64.7361 35.5242H62.1815C62.0861 35.8511 61.8272 36.1645 61.4049 36.4643C60.9825 36.7504 60.4784 36.8934 59.8925 36.8934C59.075 36.8934 58.4483 36.6822 58.0123 36.2599C57.5763 35.8375 57.3379 35.1563 57.297 34.2162ZM68.8893 35.3607H66.1303C66.1575 36.0691 66.3142 36.6618 66.6003 37.1387C66.9001 37.6019 67.2747 37.9766 67.7243 38.2627C68.1876 38.5488 68.7121 38.7532 69.298 38.8758C69.8839 38.9984 70.4833 39.0597 71.0964 39.0597C71.6959 39.0597 72.2818 38.9984 72.854 38.8758C73.4399 38.7668 73.9576 38.5693 74.4072 38.2831C74.8569 37.997 75.2179 37.6223 75.4904 37.1591C75.7765 36.6822 75.9196 36.0964 75.9196 35.4015C75.9196 34.911 75.8242 34.5023 75.6335 34.1753C75.4427 33.8347 75.1907 33.5554 74.8773 33.3374C74.5639 33.1058 74.2029 32.9218 73.7941 32.7856C73.399 32.6493 72.9903 32.5335 72.5679 32.4382C72.1592 32.3428 71.7572 32.2542 71.3621 32.1725C70.967 32.0907 70.6128 32.0022 70.2994 31.9068C69.9997 31.7978 69.7544 31.6616 69.5637 31.4981C69.3729 31.3346 69.2776 31.1234 69.2776 30.8645C69.2776 30.6465 69.3321 30.4762 69.4411 30.3536C69.55 30.2173 69.6795 30.1152 69.8294 30.047C69.9929 29.9789 70.17 29.938 70.3607 29.9244C70.5515 29.8972 70.7286 29.8835 70.8921 29.8835C71.4098 29.8835 71.8594 29.9857 72.2409 30.1901C72.6224 30.3808 72.8336 30.7555 72.8745 31.3141H75.6335C75.579 30.6602 75.4086 30.122 75.1225 29.6996C74.85 29.2636 74.5026 28.9162 74.0802 28.6573C73.6579 28.3985 73.1742 28.2145 72.6292 28.1055C72.0979 27.9965 71.5461 27.942 70.9738 27.942C70.4016 27.942 69.843 27.9965 69.298 28.1055C68.753 28.2009 68.2625 28.378 67.8265 28.6369C67.3905 28.8821 67.0363 29.2227 66.7638 29.6587C66.5049 30.0947 66.3755 30.6533 66.3755 31.3346C66.3755 31.7978 66.4709 32.1929 66.6616 32.5199C66.8524 32.8333 67.1044 33.099 67.4178 33.317C67.7312 33.5213 68.0854 33.6916 68.4805 33.8279C68.8893 33.9505 69.3048 34.0595 69.7272 34.1549C70.7626 34.3729 71.5665 34.5909 72.1387 34.8089C72.7246 35.0269 73.0175 35.3538 73.0175 35.7898C73.0175 36.0487 72.9562 36.2667 72.8336 36.4438C72.711 36.6073 72.5543 36.7436 72.3635 36.8526C72.1864 36.9479 71.982 37.0229 71.7504 37.0774C71.5324 37.1182 71.3213 37.1387 71.1169 37.1387C70.8308 37.1387 70.5515 37.1046 70.279 37.0365C70.0201 36.9684 69.7885 36.8662 69.5841 36.7299C69.3797 36.5801 69.2094 36.3961 69.0732 36.1781C68.9506 35.9465 68.8893 35.674 68.8893 35.3607ZM84.7301 32.3769H80.0092C80.0228 32.1725 80.0637 31.9409 80.1318 31.682C80.2136 31.4231 80.343 31.1779 80.5201 30.9463C80.7109 30.7146 80.9561 30.5239 81.2559 30.374C81.5692 30.2105 81.9575 30.1288 82.4208 30.1288C83.1292 30.1288 83.6538 30.3195 83.9944 30.701C84.3487 31.0825 84.5939 31.6411 84.7301 32.3769ZM80.0092 34.2162H87.6322C87.6867 33.3987 87.6186 32.6153 87.4278 31.8659C87.2371 31.1166 86.9237 30.449 86.4877 29.8631C86.0654 29.2772 85.5204 28.814 84.8528 28.4734C84.1852 28.1192 83.4017 27.942 82.5025 27.942C81.6987 27.942 80.9629 28.0851 80.2953 28.3712C79.6413 28.6573 79.0759 29.0524 78.5991 29.5566C78.1222 30.047 77.7543 30.6329 77.4955 31.3141C77.2366 31.9954 77.1072 32.7311 77.1072 33.5213C77.1072 34.3388 77.2298 35.0882 77.475 35.7694C77.7339 36.4506 78.0949 37.0365 78.5582 37.527C79.0214 38.0175 79.5868 38.399 80.2544 38.6714C80.9221 38.9303 81.6714 39.0597 82.5025 39.0597C83.7015 39.0597 84.7233 38.7873 85.5681 38.2423C86.4128 37.6973 87.0395 36.7912 87.4483 35.5242H84.8936C84.7983 35.8511 84.5394 36.1645 84.117 36.4643C83.6947 36.7504 83.1906 36.8934 82.6047 36.8934C81.7872 36.8934 81.1605 36.6822 80.7245 36.2599C80.2885 35.8375 80.0501 35.1563 80.0092 34.2162ZM93.032 28.2282V25.0604H90.13V28.2282H88.3724V30.1697H90.13V36.4029C90.13 36.9343 90.2185 37.3635 90.3957 37.6905C90.5728 38.0175 90.8112 38.2695 91.111 38.4466C91.4243 38.6238 91.7786 38.7396 92.1737 38.7941C92.5824 38.8622 93.0116 38.8963 93.4612 38.8963C93.7473 38.8963 94.0403 38.8894 94.34 38.8758C94.6397 38.8622 94.9122 38.8349 95.1575 38.7941V36.546C95.0212 36.5732 94.8782 36.5937 94.7283 36.6073C94.5784 36.6209 94.4217 36.6277 94.2582 36.6277C93.7678 36.6277 93.4408 36.546 93.2773 36.3825C93.1138 36.219 93.032 35.892 93.032 35.4015V30.1697H95.1575V28.2282H93.032ZM105.905 28.2282V25.0604H103.003V28.2282H101.245V30.1697H103.003V36.4029C103.003 36.9343 103.091 37.3635 103.269 37.6905C103.446 38.0175 103.684 38.2695 103.984 38.4466C104.297 38.6238 104.651 38.7396 105.047 38.7941C105.455 38.8622 105.884 38.8963 106.334 38.8963C106.62 38.8963 106.913 38.8894 107.213 38.8758C107.513 38.8622 107.785 38.8349 108.03 38.7941V36.546C107.894 36.5732 107.751 36.5937 107.601 36.6073C107.451 36.6209 107.295 36.6277 107.131 36.6277C106.641 36.6277 106.314 36.546 106.15 36.3825C105.987 36.219 105.905 35.892 105.905 35.4015V30.1697H108.03V28.2282H105.905ZM112.395 26.5932V24.2021H109.493V26.5932H112.395ZM109.493 28.2282V38.7941H112.395V28.2282H109.493Z" fill="#0B8E69"/>
<line x1="123.798" y1="56.2017" x2="123.798" y2="11.4958" stroke="#0B8E69" stroke-width="1.27731"/>
<g clip-path="url(#clip1_234_6944)">
<mask id="path-11-inside-2_234_6944" fill="white">
<path fill-rule="evenodd" clip-rule="evenodd" d="M36 54.9244V56.1979C36 59.0196 38.2875 61.3071 41.1093 61.3071H54.3206C55.6757 61.3071 56.9753 61.8454 57.9334 62.8036L65.159 70.0292C66.1172 70.9873 67.4167 71.5256 68.7718 71.5256H84.9761C86.3312 71.5256 87.6307 70.9873 88.5889 70.0292L95.8145 62.8036C96.7726 61.8454 98.0722 61.3071 99.4272 61.3071H99.8656L99.8655 61.311H119.345C122.166 61.311 124.454 59.0235 124.454 56.2018V54.9245H99.8655L99.8656 54.9244H36Z"/>
</mask>
<path fill-rule="evenodd" clip-rule="evenodd" d="M36 54.9244V56.1979C36 59.0196 38.2875 61.3071 41.1093 61.3071H54.3206C55.6757 61.3071 56.9753 61.8454 57.9334 62.8036L65.159 70.0292C66.1172 70.9873 67.4167 71.5256 68.7718 71.5256H84.9761C86.3312 71.5256 87.6307 70.9873 88.5889 70.0292L95.8145 62.8036C96.7726 61.8454 98.0722 61.3071 99.4272 61.3071H99.8656L99.8655 61.311H119.345C122.166 61.311 124.454 59.0235 124.454 56.2018V54.9245H99.8655L99.8656 54.9244H36Z" fill="#0B8E69"/>
<path d="M36 54.9244V53.6471H34.7227V54.9244H36ZM57.9334 62.8036L58.8366 61.9004V61.9004L57.9334 62.8036ZM65.159 70.0292L64.2558 70.9324V70.9324L65.159 70.0292ZM88.5889 70.0292L89.4921 70.9324V70.9324L88.5889 70.0292ZM95.8145 62.8036L96.7177 63.7068V63.7068L95.8145 62.8036ZM99.8656 61.3071L101.143 61.3096L101.145 60.0298H99.8656V61.3071ZM99.8655 61.311L98.5882 61.3085L98.5857 62.5883H99.8655V61.311ZM124.454 54.9245H125.731V53.6472H124.454V54.9245ZM99.8655 54.9245L98.6003 54.7496L98.3995 56.2018H99.8655V54.9245ZM99.8656 54.9244L101.131 55.0993L101.332 53.6471H99.8656V54.9244ZM37.2773 56.1979V54.9244H34.7227V56.1979H37.2773ZM41.1093 60.0298C38.9929 60.0298 37.2773 58.3142 37.2773 56.1979H34.7227C34.7227 59.7251 37.5821 62.5844 41.1093 62.5844V60.0298ZM54.3206 60.0298H41.1093V62.5844H54.3206V60.0298ZM58.8366 61.9004C57.6389 60.7027 56.0145 60.0298 54.3206 60.0298V62.5844C55.3369 62.5844 56.3116 62.9882 57.0302 63.7068L58.8366 61.9004ZM66.0622 69.126L58.8366 61.9004L57.0302 63.7068L64.2558 70.9324L66.0622 69.126ZM68.7718 70.2483C67.7555 70.2483 66.7808 69.8446 66.0622 69.126L64.2558 70.9324C65.4535 72.1301 67.078 72.8029 68.7718 72.8029V70.2483ZM84.9761 70.2483H68.7718V72.8029H84.9761V70.2483ZM87.6857 69.126C86.9671 69.8446 85.9924 70.2483 84.9761 70.2483V72.8029C86.6699 72.8029 88.2944 72.1301 89.4921 70.9324L87.6857 69.126ZM94.9113 61.9004L87.6857 69.126L89.4921 70.9324L96.7177 63.7068L94.9113 61.9004ZM99.4272 60.0298C97.7334 60.0298 96.109 60.7027 94.9113 61.9004L96.7177 63.7068C97.4363 62.9882 98.411 62.5844 99.4272 62.5844V60.0298ZM99.8656 60.0298H99.4272V62.5844H99.8656V60.0298ZM101.143 61.3135L101.143 61.3096L98.5882 61.3046L98.5882 61.3085L101.143 61.3135ZM119.345 60.0337H99.8655V62.5883H119.345V60.0337ZM123.176 56.2018C123.176 58.3181 121.461 60.0337 119.345 60.0337V62.5883C122.872 62.5883 125.731 59.729 125.731 56.2018H123.176ZM123.176 54.9245V56.2018H125.731V54.9245H123.176ZM99.8655 56.2018H124.454V53.6472H99.8655V56.2018ZM98.6003 54.7495L98.6003 54.7496L101.131 55.0994L101.131 55.0993L98.6003 54.7495ZM36 56.2017H99.8656V53.6471H36V56.2017Z" fill="#0B8E69" mask="url(#path-11-inside-2_234_6944)"/>
</g>
<path fill-rule="evenodd" clip-rule="evenodd" d="M100.28 31.1891C98.974 45.959 82.245 57.5752 78.0014 57.5752C73.7577 57.5752 57.0258 45.959 55.7223 31.1891C55.6846 30.7072 55.647 30.2254 55.647 29.7435C55.647 22.5822 61.4956 16.7568 68.6882 16.7568C72.3382 16.7568 75.655 18.2398 78.0014 20.6894C80.3477 18.2398 83.6646 16.7568 87.3145 16.7568C94.5043 16.7568 100.353 22.5822 100.353 29.7435C100.353 30.2254 100.315 30.7072 100.28 31.1891Z" fill="#FF6680"/>
<path d="M22.4373 17.076C17.6179 21.5711 10.8707 33.7397 22.4373 46.4542" stroke="#46B946" stroke-width="3.83193" stroke-linecap="round"/>
<path d="M9.61691 13.2441C3.86901 19.2049 -4.17805 35.3416 9.61691 52.2021" stroke="#46B946" stroke-width="3.83193" stroke-linecap="round"/>
<path d="M133.563 15.7987C138.382 20.2937 145.129 32.4624 133.563 45.1769" stroke="#46B946" stroke-width="3.83193" stroke-linecap="round"/>
<path d="M146.383 11.9668C152.131 17.9276 160.178 34.0643 146.383 50.9248" stroke="#46B946" stroke-width="3.83193" stroke-linecap="round"/>
<defs>
<filter id="filter0_d_234_6944" x="36" y="0" width="88.4536" height="12.7731" filterUnits="userSpaceOnUse" color-interpolation-filters="sRGB">
<feFlood flood-opacity="0" result="BackgroundImageFix"/>
<feColorMatrix in="SourceAlpha" type="matrix" values="0 0 0 0 0 0 0 0 0 0 0 0 0 0 0 0 0 0 127 0" result="hardAlpha"/>
<feOffset/>
<feComposite in2="hardAlpha" operator="out"/>
<feColorMatrix type="matrix" values="0 0 0 0 0 0 0 0 0 0 0 0 0 0 0 0 0 0 1 0"/>
<feBlend mode="normal" in2="BackgroundImageFix" result="effect1_dropShadow_234_6944"/>
<feBlend mode="normal" in="SourceGraphic" in2="effect1_dropShadow_234_6944" result="shape"/>
</filter>
<clipPath id="clip0_234_6944">
<rect width="88.437" height="11.4958" fill="white" transform="translate(36)"/>
</clipPath>
<clipPath id="clip1_234_6944">
<rect width="88.437" height="15.3277" fill="white" transform="translate(36 56.2017)"/>
</clipPath>
</defs>
</svg>
