<svg width="300" height="300" viewBox="0 0 300 300" fill="none" xmlns="http://www.w3.org/2000/svg">
<path opacity="0.15" d="M287 156.231C287 230.079 241.438 300.51 143.5 289.943C45.5627 279.377 9.50027 272.731 2.50038 154C-4.49951 35.2688 61.3179 44.0592 143.5 22.5189C225.683 0.97858 287 82.384 287 156.231Z" fill="#CF63CF"/>
<mask id="mask0_236_7021" style="mask-type:alpha" maskUnits="userSpaceOnUse" x="1" y="0" width="287" height="291">
<path fill-rule="evenodd" clip-rule="evenodd" d="M13.0002 79.5C8.3335 57.5 2.20017 12.1 15.0002 6.50002C31.0002 -0.49998 68.5002 1.50002 74.0002 8.00002C78.4002 13.2 163.5 4.83334 205.5 0L210.405 27.7918C256.81 48.8747 287 104.414 287 156.231C287 230.079 241.438 300.51 143.5 289.943C45.5627 279.377 9.50027 272.731 2.50038 154C0.488668 119.878 4.49124 96.2877 13.1681 79.4835L13.0002 79.5Z" fill="#C4C4C4"/>
</mask>
<g mask="url(#mask0_236_7021)">
<path d="M58.2784 68.737C65.6877 59.3135 68.1336 59.9609 73.5287 56.1484C83.5996 49.0988 75.9743 45.3582 71.5863 46.5091C64.9683 48.2356 61.3715 53.4149 58.566 53.5587C53.099 53.8465 51.4447 44.2791 54.1063 40.9701C57.2714 37.0137 61.9469 33.0573 63.8892 32.9854C66.4788 32.8415 68.2774 36.1505 71.2986 40.1069C73.8883 43.5598 80.8659 42.6246 77.7008 37.2295C73.2408 29.7483 68.3492 24.2093 65.0402 24.0654C62.3786 23.9935 59.3575 24.7848 55.545 27.5903C50.6534 31.1151 48.711 33.2012 47.7758 33.2731C45.6897 33.5608 48.7109 22.1232 52.7393 11.9804C55.5447 4.93079 47.7041 2.05342 44.7548 9.75044C39.1439 24.2093 38.9278 36.6541 37.6329 36.5821C36.6978 36.5102 35.3312 27.3745 37.1296 14.1385C37.9209 8.16786 29.6483 6.58528 29.0728 14.9297C28.2815 26.0077 29.5046 38.5244 27.8501 38.956C26.6991 39.2437 24.613 27.7341 23.462 22.9864C21.6636 15.5771 15.0456 18.7423 16.1965 23.8497C20.8003 43.9914 21.9513 45.0704 21.5916 56.7239C21.0881 73.1969 47.4162 82.4046 58.2784 68.737Z" fill="#825331"/>
<path fill-rule="evenodd" clip-rule="evenodd" d="M66.6952 34.5274C66.4142 32.5904 67.7568 30.7925 69.6937 30.5116L78.7626 29.1964C79.6928 29.0615 80.6385 29.3016 81.3916 29.8639L87.0708 34.1046C87.824 34.6669 88.7696 34.907 89.6998 34.7722L67.2038 38.0346L66.6952 34.5274ZM100.823 33.159C101.753 33.0241 102.592 32.5252 103.154 31.7721L107.395 26.0928C107.957 25.3397 108.796 24.8408 109.726 24.7059L110.027 24.6623L111.044 31.6767L100.823 33.159ZM110.027 24.6623L199.461 11.6922C201.398 11.4113 203.196 12.7538 203.476 14.6908L203.985 18.198L208.563 49.7629C208.844 51.6998 207.501 53.4977 205.564 53.7786L116.13 66.7488L115.622 63.2416L115.622 63.2416L116.13 66.7488L115.829 66.7925C114.899 66.9274 114.061 67.4262 113.498 68.1794L109.258 73.8586C108.695 74.6117 107.857 75.1106 106.927 75.2455L95.8034 76.8587C94.8732 76.9936 93.9276 76.7534 93.1745 76.1911L87.4952 71.9505C86.7421 71.3881 85.7964 71.148 84.8663 71.2829L75.7974 72.5981C73.8604 72.879 72.0624 71.5365 71.7815 69.5995L71.7815 69.5995L67.2039 38.0346L111.044 31.6768L110.027 24.6623Z" fill="#C94FC9"/>
<path fill-rule="evenodd" clip-rule="evenodd" d="M65.5087 26.3439C65.2278 24.4069 66.5703 22.6089 68.5073 22.328L77.5762 21.0128C78.5063 20.8779 79.452 21.1181 80.2051 21.6804L85.8844 25.921C86.6368 26.4828 87.5814 26.7231 88.5108 26.589L99.6393 24.9751C100.568 24.8396 101.406 24.341 101.968 23.5885L106.208 17.9093C106.771 17.1562 107.609 16.6573 108.539 16.5224L108.84 16.4788L109.857 23.4932L109.858 23.4932L108.84 16.4788L198.274 3.50863C200.211 3.22772 202.009 4.57023 202.29 6.50721L202.799 10.0144L207.376 41.5793C207.657 43.5163 206.315 45.3142 204.378 45.5952L114.944 58.5653L114.643 58.6089C113.713 58.7438 112.874 59.2427 112.312 59.9958L108.071 65.6751C107.509 66.4282 106.67 66.9271 105.74 67.062L94.6168 68.6751C93.6867 68.81 92.741 68.5699 91.9879 68.0075L86.3086 63.7669C85.5555 63.2046 84.6099 62.9644 83.6797 63.0993L74.6108 64.4146C72.6738 64.6955 70.8759 63.353 70.595 61.416L70.595 61.416L66.0173 29.8511L65.5087 26.3439Z" fill="#CF63CF"/>
<path d="M63.8892 32.9133C66.4788 32.7694 68.2774 36.0784 71.2987 40.0348C73.8883 43.4877 80.8659 42.5526 77.7008 37.1574C73.2408 29.6762 68.3492 24.1373 65.0402 23.9934" fill="#825331"/>
<path d="M21.5915 56.5799C16.1964 91.4683 -17.9728 121.177 -31.0649 128.083C-30.1298 149.016 -28.3312 171.604 -28.3312 171.604C-4.27991 158.546 15.8367 146.352 29.5043 121.534C43.3143 101.109 54.2831 72.6944 58.2062 68.7369" fill="#825331"/>
<path d="M-32 128.802L-24.0872 123.695C-21.8572 141.463 -4.59291 153.404 22.2388 115.71C37.7048 93.9141 49.862 60.5363 65.9753 56.2202V60.896C65.9753 60.896 58.9255 67.0104 55.6885 72.1178C52.3795 77.2252 39.5751 112.114 16.1243 139.808C2.6725 155.706 -28.2592 171.604 -28.2592 171.604C-29.9138 148.369 -32 128.802 -32 128.802Z" fill="black" fill-opacity="0.1"/>
<path d="M52.9551 44.1352C53.2428 40.9701 56.2641 35.2153 59.8609 32.9853C63.4576 30.7553 66.1192 29.4605 69.9318 34.9995C74.7514 41.8333 78.4199 39.891 78.4199 39.891C78.4199 39.891 78.5638 41.9052 75.5425 42.0491C69.0684 42.4087 67.4857 31.4027 63.1696 33.0572C57.4868 35.2872 52.9551 44.1352 52.9551 44.1352Z" fill="black" fill-opacity="0.1"/>
<path d="M18.1387 18.8142C19.7932 18.8861 20.7282 20.109 21.5914 23.0583C22.3827 25.5761 23.9653 38.884 27.7779 38.884C28.9288 38.884 27.7779 38.884 27.7779 38.884C27.7779 38.884 27.0584 39.5314 25.5478 32.6976C24.0372 25.8638 23.5336 21.8355 22.2387 20.181C20.9439 18.5265 19.6493 18.1668 18.1387 18.8142Z" fill="black" fill-opacity="0.1"/>
<path d="M33.3169 9.03093C35.1872 9.03093 33.6047 16.728 33.7486 22.6985C33.8924 28.6691 34.8997 36.1503 37.5613 36.4381C37.5613 36.4381 36.0504 33.3449 36.1943 24.7127C36.3382 16.0805 38.3525 12.5557 36.3383 10.3977C34.8277 8.74316 33.3169 9.03093 33.3169 9.03093Z" fill="black" fill-opacity="0.1"/>
<path d="M47.0563 6.15367C49.4302 5.07465 52.1638 7.01685 50.0057 12.0523C47.8477 17.0877 44.1069 30.3237 47.344 33.0573C47.344 33.0573 46.9845 29.1009 49.3584 21.3319C52.02 12.5558 53.9621 10.1101 53.1708 7.80816C52.4514 5.57818 50.3653 3.70788 47.0563 6.15367Z" fill="black" fill-opacity="0.1"/>
</g>
<path fill-rule="evenodd" clip-rule="evenodd" d="M79.3977 100.803C79.5996 98.8558 81.3414 97.4412 83.2882 97.6431L92.4031 98.588C93.338 98.685 94.1961 99.1493 94.7886 99.8789L99.2569 105.381C99.8494 106.11 100.708 106.575 101.642 106.672L79.0323 104.328L79.3977 100.803ZM112.822 107.831C113.757 107.928 114.692 107.649 115.422 107.057L120.924 102.588C121.653 101.996 122.588 101.717 123.523 101.814L123.826 101.846L123.095 108.896L112.822 107.831ZM123.826 101.846L213.714 111.165C215.66 111.367 217.075 113.108 216.873 115.055L216.508 118.58L213.219 150.305C213.017 152.252 211.275 153.667 209.328 153.465L119.44 144.146L119.806 140.621L119.806 140.621L119.44 144.146L119.138 144.114C118.203 144.018 117.268 144.296 116.538 144.889L111.036 149.357C110.307 149.949 109.372 150.228 108.437 150.131L97.2571 148.972C96.3222 148.875 95.4641 148.411 94.8715 147.681L90.4032 142.179C89.8107 141.449 88.9526 140.985 88.0177 140.888L78.9028 139.943C76.956 139.741 75.5414 138 75.7433 136.053L75.7433 136.053L79.0323 104.328L123.095 108.896L123.826 101.846Z" fill="#855CD6"/>
<path fill-rule="evenodd" clip-rule="evenodd" d="M80.2503 92.5776C80.4521 90.6308 82.1939 89.2162 84.1407 89.418L93.2557 90.363C94.1905 90.4599 95.0486 90.9242 95.6412 91.6538L100.109 97.1558C100.7 97.8828 101.554 98.3465 102.485 98.4456L113.685 99.6067C114.616 99.7007 115.547 99.4221 116.274 98.8317L121.776 94.3634C122.506 93.7709 123.441 93.4924 124.376 93.5893L124.678 93.6207L214.566 102.94C216.513 103.142 217.927 104.883 217.726 106.83L217.36 110.355L214.071 142.08L76.5958 127.828L79.8848 96.1026L79.8848 96.1026L80.2503 92.5776ZM210.181 145.24C212.127 145.442 213.869 144.027 214.071 142.08L120.658 132.396L76.5958 127.828C76.3939 129.774 77.8085 131.516 79.7553 131.718L88.8702 132.663C89.8051 132.76 90.6632 133.224 91.2557 133.954L95.724 139.456C96.3166 140.185 97.1747 140.65 98.1095 140.747L109.289 141.906C110.224 142.003 111.159 141.724 111.889 141.132L117.391 136.663C118.121 136.071 119.056 135.793 119.99 135.889L120.293 135.921L210.181 145.24Z" fill="#9966FF"/>
<path fill-rule="evenodd" clip-rule="evenodd" d="M78.5708 180.411C78.3826 178.463 79.8093 176.731 81.7575 176.543L90.8787 175.662C91.8143 175.571 92.7474 175.856 93.4729 176.454L98.9435 180.96C99.6689 181.558 100.602 181.843 101.538 181.753L112.725 180.672C113.661 180.581 114.522 180.123 115.12 179.397L119.626 173.927C120.224 173.201 121.085 172.743 122.021 172.653L122.323 172.623L123.005 179.678L123.005 179.678L122.323 172.623L238.315 161.416C240.263 161.228 241.995 162.655 242.183 164.603L242.524 168.13L245.592 199.878C245.78 201.826 244.353 203.558 242.405 203.746L126.413 214.953L126.073 211.426L126.072 211.426L126.413 214.953L126.111 214.982C125.175 215.073 124.314 215.531 123.716 216.256L119.21 221.727C118.612 222.453 117.751 222.911 116.815 223.001L105.628 224.082C104.692 224.173 103.759 223.888 103.033 223.29L97.5628 218.783C96.8374 218.186 95.9042 217.901 94.9687 217.991L85.8474 218.873C83.8992 219.061 82.1673 217.634 81.9791 215.686L78.9116 183.939L78.5708 180.411Z" fill="#EC9C13"/>
<path fill-rule="evenodd" clip-rule="evenodd" d="M77.7754 172.18C77.5872 170.232 79.0139 168.5 80.962 168.312L90.0833 167.431C91.0189 167.34 91.952 167.625 92.6775 168.223L98.1481 172.73C98.8735 173.327 99.8067 173.612 100.742 173.522L111.93 172.441C112.865 172.35 113.727 171.892 114.324 171.167L118.831 165.696C119.429 164.971 120.29 164.512 121.225 164.422L121.528 164.393L121.528 164.393L237.52 153.185C239.468 152.997 241.2 154.424 241.388 156.372L241.729 159.9L244.796 191.647C244.985 193.595 243.558 195.327 241.61 195.515L125.618 206.722L125.277 203.195L125.618 206.722L125.315 206.751C124.38 206.842 123.518 207.3 122.921 208.026L118.414 213.496C117.817 214.222 116.955 214.68 116.02 214.77L104.832 215.851C103.897 215.942 102.963 215.657 102.238 215.059L96.7674 210.553C96.0419 209.955 95.1088 209.67 94.1733 209.76L85.052 210.642C83.1038 210.83 81.3719 209.403 81.1837 207.455L78.1162 175.708L77.7754 172.18Z" fill="#FFAB19"/>
<path fill-rule="evenodd" clip-rule="evenodd" d="M83.27 226.171C83.0818 224.222 84.5085 222.49 86.4567 222.302L95.578 221.421C96.5135 221.331 97.4466 221.615 98.1721 222.213L103.643 226.72C104.368 227.317 105.301 227.602 106.237 227.512L117.424 226.431C118.36 226.34 119.221 225.882 119.819 225.157L124.326 219.686C124.923 218.961 125.784 218.502 126.72 218.412L127.023 218.383L127.704 225.438L127.704 225.438L127.023 218.383L200.114 211.321C202.062 211.132 203.794 212.559 203.982 214.507L204.323 218.035L207.39 249.782L207.39 249.782C207.579 251.73 206.152 253.462 204.204 253.65L131.113 260.712L130.772 257.185L130.772 257.185L131.113 260.712L130.81 260.742C129.874 260.832 129.013 261.29 128.415 262.016L123.909 267.486C123.311 268.212 122.45 268.67 121.514 268.761L110.327 269.842C109.391 269.932 108.458 269.647 107.733 269.049L102.262 264.543C101.537 263.945 100.603 263.66 99.6679 263.751L90.5466 264.632C88.5984 264.82 86.8665 263.393 86.6783 261.445L83.6109 229.698L83.27 226.171Z" fill="#47A8D1"/>
<path fill-rule="evenodd" clip-rule="evenodd" d="M82.4746 217.94C82.2864 215.992 83.7131 214.26 85.6613 214.071L94.7826 213.19C95.7181 213.1 96.6512 213.385 97.3767 213.982L102.847 218.489C103.573 219.086 104.506 219.371 105.441 219.281L116.629 218.2C117.565 218.11 118.426 217.651 119.024 216.926L123.53 211.455C124.128 210.73 124.989 210.272 125.925 210.181L126.227 210.152L126.227 210.152L199.318 203.09C201.267 202.902 202.998 204.328 203.187 206.276L203.528 209.804L206.595 241.551C206.783 243.499 205.357 245.231 203.408 245.419L130.317 252.482L130.015 252.511C129.079 252.601 128.218 253.06 127.62 253.785L123.113 259.256C122.516 259.981 121.655 260.439 120.719 260.53L109.531 261.611C108.596 261.701 107.663 261.416 106.937 260.819L101.467 256.312C100.741 255.714 99.808 255.429 98.8725 255.52L89.7512 256.401C87.803 256.589 86.0711 255.163 85.8829 253.214L82.8154 221.467L82.4746 217.94Z" fill="#5CB1D6"/>
<path d="M134.45 158.015C132.545 150.756 136.884 143.327 144.143 141.422L178.314 132.45C185.572 130.545 193.001 134.884 194.907 142.143C196.812 149.401 192.473 156.83 185.215 158.736L151.044 167.707C143.785 169.613 136.356 165.273 134.45 158.015Z" fill="#5CB1D6"/>
<path d="M144.315 142.079L178.486 133.108L178.141 131.793L143.97 140.764L144.315 142.079ZM185.042 158.079L150.871 167.05L151.216 168.364L185.387 159.393L185.042 158.079ZM150.871 167.05C143.975 168.86 136.918 164.738 135.108 157.842L133.793 158.187C135.794 165.809 143.595 170.365 151.216 168.364L150.871 167.05ZM194.25 142.315C196.06 149.211 191.938 156.268 185.042 158.079L185.387 159.393C193.008 157.392 197.565 149.592 195.564 141.97L194.25 142.315ZM178.486 133.108C185.382 131.297 192.439 135.42 194.25 142.315L195.564 141.97C193.563 134.349 185.763 129.792 178.141 131.793L178.486 133.108ZM143.97 140.764C136.349 142.765 131.792 150.566 133.793 158.187L135.108 157.842C133.297 150.947 137.42 143.889 144.315 142.079L143.97 140.764Z" fill="#47A8D1"/>
<mask id="mask1_236_7021" style="mask-type:alpha" maskUnits="userSpaceOnUse" x="1" y="19" width="287" height="272">
<path d="M287 156.231C287 230.079 241.438 300.51 143.5 289.943C45.5627 279.377 9.50027 272.731 2.50038 154C-4.49951 35.2688 61.3179 44.0592 143.5 22.5189C225.683 0.97858 287 82.384 287 156.231Z" fill="#59C059"/>
</mask>
<g mask="url(#mask1_236_7021)">
<path fill-rule="evenodd" clip-rule="evenodd" d="M301.517 227.699C283.85 222.409 270.778 218.33 260.382 217.028C259.315 217.068 258.246 216.995 257.195 216.808C248.912 215.384 233.643 228.322 211.775 218.587C203.156 214.756 207.076 206.311 205.621 205.46C196.529 200.18 204.806 191.591 204.118 190.839C197.939 184.248 201.516 178.78 203.137 176.32C203.137 176.32 203.153 176.294 203.16 176.277C203.642 175.552 203.952 175.102 203.744 174.972C199.546 172.287 195.134 169.952 190.552 167.989C185.103 165.59 179.74 163.647 172.909 160.265C166.079 156.883 164.858 151.487 167.223 148.388C167.284 148.299 167.351 148.214 167.422 148.132C167.502 148.032 167.593 147.94 167.692 147.857C167.849 147.703 168.013 147.557 168.176 147.413C168.871 146.845 169.688 146.443 170.563 146.24C171.588 145.968 172.656 145.896 173.709 146.026L174.159 146.083C174.588 146.139 175.014 146.218 175.435 146.32C175.503 146.333 175.579 146.359 175.646 146.369C176.27 146.553 176.884 146.768 177.485 147.015L179.822 148L179.829 148.013L181.066 148.519C181.368 148.652 181.681 148.774 182.013 148.907C182.188 148.977 182.386 149.064 182.587 149.15C185.674 150.421 189.619 152.01 193.693 153.642C197.307 155.088 201.045 156.563 204.424 157.856C205.1 158.111 205.801 158.386 206.482 158.656C208.845 159.535 210.933 160.304 212.582 160.885L212.638 160.905C213.899 161.337 214.872 161.648 215.528 161.819C215.798 161.888 216.067 161.956 216.347 162.019C217.115 162.213 217.916 162.392 218.743 162.526C219.882 162.736 220.887 162.878 221.776 162.964C221.97 162.993 222.166 163.01 222.362 163.014C223.976 163.141 225.455 163.061 226.618 162.7C227.013 162.619 227.39 162.463 227.727 162.241C230.111 160.786 229.883 157.156 223.591 149.497C214.096 137.911 215.227 128.92 219.596 126.678C219.866 126.543 220.148 126.435 220.439 126.355C222.247 125.811 224.486 126.317 226.728 128.086C226.817 128.166 226.916 128.24 227.022 128.328C227.422 128.667 227.802 129.031 228.158 129.416C228.726 130.023 229.306 130.685 229.894 131.39C229.911 131.407 229.923 131.429 229.928 131.452C233.366 135.588 237.194 141.324 242.025 147.028C242.218 147.261 242.436 147.508 242.647 147.748C244.227 149.594 245.911 151.409 247.736 153.15C247.784 153.214 247.843 153.269 247.91 153.312C249.808 155.156 251.827 156.87 253.954 158.445L254.324 158.713C255.792 159.774 257.991 161.267 260.376 162.981C260.403 163.012 260.437 163.038 260.475 163.055C265.041 166.309 270.239 170.277 272.172 173.244C272.2 173.287 272.225 173.332 272.247 173.379L275.725 173.951C287.195 175.815 299.907 177.918 312.035 179.853C312.029 179.903 312.037 179.947 312.031 179.998L312.149 180.014L311.918 181.841C310.773 198.147 307.344 213.7 301.517 227.699Z" fill="#4C2E19"/>
</g>
<path fill-rule="evenodd" clip-rule="evenodd" d="M26.194 168.519L26.194 168.519L13.5191 174.156L19.1561 186.831L19.1561 186.831L43.4755 196.178L56.1505 190.541L50.5135 177.866L26.194 168.519Z" fill="#59C059"/>
<path d="M200.504 78.0238C200.893 72.7915 205.451 68.8658 210.683 69.2554L235.614 71.1116C240.846 71.5011 244.772 76.0585 244.382 81.2907C243.993 86.5229 239.435 90.4487 234.203 90.0591L209.272 88.2029C204.04 87.8133 200.114 83.256 200.504 78.0238Z" fill="#4C97FF"/>
</svg>
