<svg width="300" height="300" viewBox="0 0 300 300" fill="none" xmlns="http://www.w3.org/2000/svg">
<path opacity="0.3" d="M0 151.358C0 232.807 47.6261 310.489 150 298.835C252.374 287.18 300 232.807 300 151.358C300 69.9088 235.905 27.6388 150 3.88113C64.095 -19.8766 0 69.9088 0 151.358Z" fill="#5CB1D6"/>
<mask id="mask0_236_7020" style="mask-type:alpha" maskUnits="userSpaceOnUse" x="0" y="0" width="300" height="300">
<path d="M0 151.358C0 232.807 47.6261 310.489 150 298.835C252.374 287.18 300 232.807 300 151.358C300 69.9088 235.905 27.6388 150 3.88113C64.095 -19.8766 0 69.9088 0 151.358Z" fill="#59C059"/>
</mask>
<g mask="url(#mask0_236_7020)">
<path d="M222.423 228.27C214.292 219.096 217.428 208.233 216.669 203.056C215.413 193.958 202.167 202.294 205.897 218.985C207.972 228.527 198.647 227.006 192.576 223.876C184.59 219.786 173.59 215.176 167.05 212.357C159.691 209.093 155.889 218.845 162.415 221.889C171.241 226.086 186.979 231.603 186.142 234.259C185.292 237.14 165.851 227.566 153.343 223.654C144.265 220.851 141.198 229.631 149.851 233.875C160.143 239.006 177.331 242.919 176.977 245.04C176.564 247.215 160.825 242.656 151.297 239.826C143.487 237.495 141.225 246.944 148.315 249.063C158.947 252.298 178.053 255.255 177.766 257.211C177.379 259.895 165.768 256.995 159.516 255.942C151.923 254.694 151.045 262.705 157.276 264.096C168.127 266.498 194.846 271.324 202.275 272.505C219.696 275.36 237.628 245.427 222.423 228.27Z" fill="#B68554"/>
<path d="M208.333 270.219C247.048 285.58 264.714 302.152 288.206 321.218C308.152 337.364 326.62 298.554 313.916 288.541C282.103 263.447 238.017 246.465 225.583 241.317C213.87 236.382 208.333 270.219 208.333 270.219Z" fill="#B68554"/>
<path d="M153.046 259.442C152.798 261.683 154.653 263.656 157.825 264.355C160.997 265.053 197.008 271.961 201.198 272.609C205.388 273.256 209.507 272.264 211.082 271.4C211.082 271.4 237.372 280.542 267.236 304.278C297.1 328.014 296.11 336.018 308.871 320.773C308.871 320.773 261.458 282.276 226.428 269.393C218.539 266.493 221.418 264.58 221.537 259.794C221.657 255.009 215.45 268.168 205.342 268.404C195.294 268.587 158.708 261.87 156.455 260.889C154.202 259.907 153.803 257.176 154.445 256.82C154.61 256.887 153.26 257.764 153.046 259.442Z" fill="black" fill-opacity="0.1"/>
<path d="M223.841 229.991C225.45 233.246 227.859 240.045 225.901 245.396C223.584 252.023 227.199 248.181 229.397 246.34C231.832 244.288 239.344 246.884 240.771 247.534L228.781 242.525C228.834 242.585 227.934 234.129 223.841 229.991Z" fill="black" fill-opacity="0.1"/>
<path d="M144.577 241.846C144.044 245.084 147.518 247.324 150.208 247.599C152.891 247.986 177.342 253.013 177.706 257.264C177.706 257.264 176.941 255.921 169.21 254.158C159.529 251.995 150.818 250.568 148.116 249.559C145.136 248.477 142.675 245.34 144.577 241.846Z" fill="black" fill-opacity="0.1"/>
<path d="M144.964 226.081C144.01 227.884 145.484 232.427 148.992 234.105C152.499 235.783 162.767 239.447 168.918 241.228C175.07 243.008 177.078 244.313 176.911 245.205C176.911 245.205 177.787 242.834 168.703 239.185C159.619 235.535 151.252 234.016 148.408 230.687C145.564 227.357 145.786 224.608 146.428 224.252C146.435 224.139 145.919 224.277 144.964 226.081Z" fill="black" fill-opacity="0.1"/>
<path d="M160.578 213.094C159.068 214.751 160.285 218.884 164.421 220.431C168.557 221.977 187.65 229.839 186.142 234.259C186.142 234.259 186.263 233.195 181.342 230.642C175.767 227.712 163.169 222.498 161.326 221.259C159.484 220.02 158.482 217.93 158.868 216.205C159.247 214.593 160.578 213.094 160.578 213.094Z" fill="black" fill-opacity="0.1"/>
<path d="M79.9444 128.478C77.7126 122.795 77.3966 117.76 67.2402 112.077C44.3302 99.3329 46.2474 55.7874 86.0327 59.9768C91.8122 60.6069 111.707 57.8761 122.251 53.4682C130.069 50.0954 133.217 57.467 125.775 61.0088C119.905 63.715 103.854 65.4081 104.965 66.0137C106.093 66.5208 124.564 67.1922 138.875 59.9042C148.157 55.1684 153.027 64.2711 144.586 68.8528C133.464 74.7826 111.919 75.3885 113.191 76.2263C114.544 77.1801 133.482 78.6464 151.471 71.8148C162.042 67.8182 164.888 79.7074 153.807 83.7141C133.065 91.1695 112.579 85.8697 113.442 87.8532C114.161 89.5062 133.206 94.3443 156.106 87.8855C165.197 85.3505 166.105 98.416 154.95 101.698C139.621 106.162 126.512 103.913 111.357 102.312C100.88 101.246 85.6319 101.864 90.8449 112.45C103.24 137.939 83.7868 138.209 79.9444 128.478Z" fill="#FDDBB4"/>
<path d="M76.0869 59.9201C55.2455 59.4332 -27.4553 28.8533 -36.2051 -46.9824L-49.9395 29.5957C-49.9395 29.5957 -0.621695 92.7946 66.9753 94.8603" fill="#FDDBB4"/>
<path d="M-49.9574 29.694C-49.9574 29.694 -7.13437 84.9212 53.3591 93.7389C53.3591 93.7389 55.1903 103.922 62.4467 108.779C69.7032 113.637 74.388 116.407 77.5687 122.464C80.7495 128.521 78.7126 129.679 84.3562 133.333C89.9998 136.987 94.4791 132.405 94.5594 128.559C94.5594 128.559 86.8619 130.125 83.9433 121.474C81.007 112.921 75.8757 106.413 70.7975 103.572C65.7193 100.731 58.3406 89.7557 58.1405 84.6401C57.948 78.9162 54.0515 80.2492 52.323 83.0887C50.4785 86.009 -41.5398 52.4373 -45.0771 1.91938L-50.0554 29.6764L-49.9574 29.694Z" fill="black" fill-opacity="0.1"/>
<path d="M90.1147 106.325C91.7319 101.84 93.543 96.2726 99.706 96.4636C105.869 96.6546 157.678 105.744 162.898 93.0659C162.898 93.0659 162.859 102.914 146.584 104.16C130.308 105.406 107.465 101.919 100.721 102.132C91.6257 102.431 90.1147 106.325 90.1147 106.325Z" fill="black" fill-opacity="0.1"/>
<path d="M113.129 87.8989C113.601 86.9676 128.264 88.48 137.206 87.3406C146.049 86.1836 158.539 83.9534 160.206 78.0551C160.206 78.0551 146.233 84.591 132.915 84.6407C119.615 84.592 113.545 86.1448 113.129 87.8989Z" fill="black" fill-opacity="0.1"/>
<path d="M148.63 62.1618C148.83 63.3151 149.93 67.3733 140.601 70.6781C131.271 73.9829 114.414 75.6331 113.985 75.7593C113.458 75.8679 112.948 75.8781 112.913 76.0749C112.913 76.0749 113.231 74.3033 115.636 73.9219C131.184 71.6308 140.247 68.6842 145.231 65.8191C147.383 64.5796 148.63 62.1618 148.63 62.1618Z" fill="black" fill-opacity="0.1"/>
<path d="M104.785 65.88C105.249 65.5569 113.636 64.1148 114.476 63.9607C115.415 63.8243 128.649 62.5404 129.842 56.4554C129.842 56.4554 128.684 58.3812 122.875 60.1839C117.065 61.9867 105.423 63.4546 104.785 65.88Z" fill="black" fill-opacity="0.1"/>
</g>
<path opacity="0.6" d="M194.414 194.964C194.758 198.201 194.807 205.127 190.379 211.596C189.585 212.736 187.907 212.402 187.504 211.166C186.486 207.573 184.44 201.792 180.699 198.384C179.849 197.714 178.769 197.428 177.748 197.647C169.351 199.786 127.718 208.603 116.072 177.278C103.102 142.436 127.842 121.537 158.794 117.085C190.153 112.564 201.848 129.448 209.452 149.817C218.305 173.395 201.29 187.989 195.857 191.969C194.796 192.687 194.31 193.752 194.414 194.964Z" fill="white"/>
<path opacity="0.6" d="M104.701 128.522C103.159 125.655 100.495 119.262 102.149 111.599C102.452 110.243 104.132 109.918 104.973 110.91C107.273 113.851 111.353 118.429 116.105 120.17C117.145 120.469 118.254 120.326 119.116 119.737C126.08 114.582 161.289 90.678 183.914 115.275C209.095 142.626 194.093 171.328 167.122 187.153C139.8 203.194 122.591 191.985 107.849 176.003C90.7386 157.522 100.973 137.579 104.498 131.84C105.208 130.774 105.256 129.605 104.701 128.522Z" fill="white"/>
<path fill-rule="evenodd" clip-rule="evenodd" d="M169.724 152.242C167.03 163.505 152.779 170.574 149.5 170.09C146.221 169.606 134.617 158.722 135.294 147.16C135.32 146.784 135.345 146.407 135.4 146.035C136.217 140.501 141.401 136.667 146.958 137.487C149.779 137.903 152.172 139.428 153.706 141.588C155.799 139.963 158.531 139.195 161.351 139.611C166.906 140.431 170.761 145.599 169.945 151.133C169.89 151.505 169.806 151.873 169.724 152.242Z" fill="#FF6680"/>
<g opacity="0.5">
<path fill-rule="evenodd" clip-rule="evenodd" d="M81.6519 215.84C81.5987 216.463 81.2178 217.005 80.6522 217.271L79.3673 217.876C78.7601 218.159 78.9208 219.065 79.5886 219.124L81.0028 219.248C81.6251 219.301 82.1701 219.684 82.4337 220.247L83.0388 221.532C83.3218 222.142 84.2279 221.981 84.2864 221.311L84.41 219.897C84.4637 219.277 84.8463 218.729 85.4124 218.465L86.6978 217.863C87.3045 217.578 87.1437 216.672 86.4764 216.615L85.0618 216.489C84.439 216.433 83.8922 216.056 83.6282 215.49L83.0257 214.204C82.7406 213.598 81.8345 213.758 81.7781 214.426L81.6519 215.84ZM68.1966 228.099C69.7517 227.372 70.8007 225.87 70.949 224.16L71.2885 220.271C71.4512 218.432 73.9407 217.99 74.7232 219.661L76.3825 223.196C77.1102 224.751 78.6116 225.8 80.3193 225.949L84.2083 226.288C86.0472 226.451 86.4888 228.94 84.8181 229.726L81.2832 231.382C79.7309 232.109 78.6819 233.611 78.5331 235.319L78.1908 239.208C78.0309 241.046 75.5414 241.488 74.7561 239.817L73.0996 236.282C72.3724 234.73 70.871 233.681 69.1605 233.533L65.2715 233.193C63.4326 233.031 62.991 230.541 64.6617 229.756L68.1966 228.099ZM64.0662 241.013C64.6316 240.746 65.0146 240.201 65.0678 239.579L65.1913 238.165C65.2476 237.498 66.1534 237.337 66.4411 237.944L67.0407 239.229C67.3073 239.794 67.8517 240.175 68.4743 240.231L69.8907 240.354C70.5578 240.41 70.7185 241.316 70.1124 241.603L68.8243 242.203C68.2589 242.47 67.8786 243.014 67.8227 243.637L67.7019 245.05C67.6407 245.721 66.7348 245.882 66.452 245.272L65.8498 243.987C65.5858 243.421 65.0388 243.041 64.4162 242.985L63.0029 242.865C62.3349 242.803 62.1742 241.897 62.7812 241.615L64.0662 241.013Z" fill="white"/>
</g>
<path fill-rule="evenodd" clip-rule="evenodd" d="M227.736 91.3357C229.45 91.222 230.972 90.2036 231.731 88.6635L233.458 85.1628C234.277 83.5083 236.757 84.0001 236.88 85.8414L237.144 89.737C237.257 91.4501 238.276 92.9725 239.813 93.7309L243.314 95.4584C244.968 96.2774 244.477 98.7574 242.635 98.8829L238.74 99.1437C237.029 99.258 235.507 100.276 234.749 101.814L233.018 105.314C232.202 106.969 229.722 106.477 229.596 104.635L229.336 100.74C229.221 99.0299 228.203 97.5076 226.663 96.7486L223.162 95.021C221.508 94.2021 221.999 91.7221 223.841 91.5966L227.736 91.3357Z" fill="white" fill-opacity="0.6"/>
</svg>
