<svg width="300" height="300" viewBox="0 0 300 300" fill="none" xmlns="http://www.w3.org/2000/svg">
<path opacity="0.3" d="M0 151.358C0 232.807 47.6261 310.489 150 298.835C252.374 287.18 300 232.807 300 151.358C300 69.9088 235.905 27.6388 150 3.88113C64.095 -19.8766 0 69.9088 0 151.358Z" fill="#5CB1D6"/>
<mask id="mask0_236_7020" style="mask-type:alpha" maskUnits="userSpaceOnUse" x="0" y="0" width="300" height="300">
<path d="M0 151.358C0 232.807 47.6261 310.489 150 298.835C252.374 287.18 300 232.807 300 151.358C300 69.9088 235.905 27.6388 150 3.88113C64.095 -19.8766 0 69.9088 0 151.358Z" fill="#59C059"/>
</mask>
<g mask="url(#mask0_236_7020)">
<path d="M228.59 135.671C228.59 135.671 225.666 143.7 231.395 145.296C235.231 146.357 238.634 144.11 240.467 142.499L240.521 142.444C240.923 142.095 241.244 141.773 241.477 141.529L241.55 141.454C241.731 141.258 241.845 141.125 241.882 141.079L241.887 141.059C246.183 141.781 248.918 138.495 250.587 134.901C251.723 132.335 252.521 129.631 252.959 126.859C252.984 127.137 253.601 132.483 260.47 129.516C261.031 129.231 261.51 128.808 261.863 128.287L261.952 128.17C263.785 125.658 265.691 120.138 267.497 113.2L267.547 113.021C269.195 106.644 270.746 99.0837 272.071 91.588C272.287 90.3905 272.488 89.1926 272.681 87.9994L272.713 87.8852C273.845 81.049 274.755 74.4356 275.332 68.9978L275.355 68.748C275.869 63.8547 276.103 59.9373 275.983 57.7165C275.886 55.86 275.744 53.8612 275.58 51.7863C275.297 48.228 274.935 44.455 274.555 40.8278C274.527 40.8105 274.497 40.7952 274.466 40.782C272.538 39.8308 270.54 38.9516 268.472 38.1652C259.68 34.7938 250.263 33.3628 240.866 33.9702C237.107 34.2156 233.664 34.5025 230.507 34.8196C230.611 35.8001 230.714 36.8118 230.81 37.8496C231.719 47.8315 232.101 54.8655 232.101 54.8655C232.101 54.8655 218.02 59.7491 217.226 77.6244C217.06 81.195 216.341 84.7181 215.092 88.0674C214.224 90.3657 213.191 92.5983 212.001 94.748C212 94.7604 211.996 94.7725 211.991 94.7839C211.542 95.6185 211.104 96.3925 210.701 97.1239C208.287 101.471 207.029 104.051 211.129 105.452C211.383 105.54 211.662 105.621 211.957 105.699C212.442 105.827 212.934 105.926 213.431 105.994C213.431 105.994 213.447 105.999 213.457 106.001C214.895 106.212 216.363 106.065 217.73 105.572C219.108 105.04 220.336 104.184 221.311 103.075L221.336 103.047C223.528 100.623 224.443 97.5157 224.629 96.8191L224.668 96.6789C224.743 106.767 220.114 114.525 219.125 124.485C218.959 126.12 218.903 127.764 218.958 129.407C219.337 141.886 228.59 135.671 228.59 135.671Z" fill="#E4B681"/>
<path opacity="0.1" d="M239.017 129.007C240.157 124.578 241.806 120.052 242.406 117.187C243.209 113.332 242.395 101.877 242.395 101.877L235.307 101.83C235.034 104.301 235.789 114.992 234.976 119.276C234.651 120.973 233.596 123.873 232.433 126.768C230.637 131.229 228.588 135.677 228.588 135.677C228.208 132.685 229.366 129.375 230.616 126.279C231.735 123.502 232.925 120.903 233.142 118.849C233.491 115.581 232.617 100.876 232.617 100.876C231.939 99.9843 231.602 98.8797 231.667 97.7615C231.791 95.9171 235.912 98.107 236.872 98.2147C243.988 98.989 247.82 98.8834 258.664 99.2916C258.664 99.2916 258.031 109.416 257.078 112.643C256.049 116.196 252.357 122.461 252.951 126.85C252.685 126.528 252.472 126.164 252.322 125.773C252.122 125.394 252.009 124.976 251.99 124.547C251.954 116.556 253.591 114.954 254.705 111.955C255.778 109.091 254.433 101.271 254.433 101.271L246.136 101.567C246.136 101.567 246.709 113.198 245.879 116.947C245.123 120.351 242.571 125.095 241.114 129.879C240.709 131.166 240.408 132.484 240.214 133.819C239.398 139.816 241.881 141.061 241.881 141.061L241.875 141.08C241.775 141.214 241.663 141.339 241.543 141.455L241.47 141.53C241.147 141.859 240.73 142.249 240.55 142.417L240.514 142.446L240.46 142.501C239.661 141.823 238.49 139.849 238.49 139.849C237.316 137.337 237.937 133.214 239.017 129.007ZM221.329 99.0031C222.619 94.6054 223.48 93.7655 223.48 93.7655C226.414 92.9724 229.906 89.7036 233.049 86.0607C236.206 82.3145 239.107 78.3598 241.732 74.2233C242.289 78.4577 240.638 82.8366 238.082 86.5048C235.855 89.7057 232.948 92.3676 230.225 93.9214L224.635 96.6871L224.552 96.9872C223.909 99.1023 222.878 101.08 221.513 102.818L221.308 103.05L221.283 103.078C220.328 104.209 219.094 105.07 217.702 105.574L217.559 105.622C217.559 105.622 220.041 103.391 221.327 98.9957L221.329 99.0031ZM227.938 95.1428C227.921 95.1541 227.903 95.1643 227.884 95.1735C227.651 95.3056 227.264 95.4971 226.83 95.6965C227.167 95.53 227.54 95.3382 227.937 95.1354L227.938 95.1428Z" fill="black"/>
<path opacity="0.1" d="M260.48 129.519C261.028 129.214 261.503 128.795 261.874 128.289L261.962 128.173C263.967 125.536 265.829 119.857 267.508 113.203L267.558 113.024C269.28 106.126 270.789 98.1932 272.018 91.5803L272.679 87.9987L272.71 87.8845C274.05 80.6667 274.852 74.2025 275.329 68.9971L275.353 68.7472C275.808 63.6727 275.952 59.8285 275.981 57.7158C275.997 56.7965 275.838 54.6281 275.578 51.7855C275.291 48.6689 274.89 44.7512 274.464 40.7813C272.535 39.83 270.538 38.9509 268.469 38.1644C270.108 55.0937 269.196 75.0468 267.782 91.1142C266.451 106.221 264.668 117.896 264.097 120.392C262.657 126.55 260.48 129.519 260.48 129.519Z" fill="black"/>
<path d="M222.423 228.27C214.292 219.096 217.428 208.233 216.669 203.056C215.413 193.958 202.167 202.294 205.897 218.985C207.972 228.527 198.647 227.006 192.576 223.876C184.59 219.786 173.59 215.176 167.05 212.357C159.691 209.093 155.889 218.845 162.415 221.889C171.241 226.086 186.979 231.603 186.142 234.259C185.292 237.14 165.851 227.566 153.343 223.654C144.265 220.851 141.198 229.631 149.851 233.875C160.143 239.006 177.331 242.919 176.977 245.04C176.564 247.215 160.825 242.656 151.297 239.826C143.487 237.495 141.225 246.944 148.315 249.063C158.947 252.298 178.053 255.255 177.766 257.211C177.379 259.895 165.768 256.995 159.516 255.942C151.923 254.694 151.045 262.705 157.276 264.096C168.127 266.498 194.846 271.324 202.275 272.505C219.696 275.36 237.628 245.427 222.423 228.27Z" fill="#B68554"/>
<path d="M208.333 270.219C247.048 285.58 264.714 302.152 288.206 321.218C308.152 337.364 326.62 298.554 313.916 288.541C282.103 263.447 238.017 246.465 225.583 241.317C213.87 236.382 208.333 270.219 208.333 270.219Z" fill="#B68554"/>
<path d="M153.046 259.442C152.798 261.683 154.653 263.656 157.825 264.355C160.997 265.053 197.008 271.961 201.198 272.609C205.388 273.256 209.507 272.264 211.082 271.4C211.082 271.4 237.372 280.542 267.236 304.278C297.1 328.014 296.11 336.018 308.871 320.773C308.871 320.773 261.458 282.276 226.428 269.393C218.539 266.493 221.418 264.58 221.537 259.794C221.657 255.009 215.45 268.168 205.342 268.404C195.294 268.587 158.708 261.87 156.455 260.889C154.202 259.907 153.803 257.176 154.445 256.82C154.61 256.887 153.26 257.764 153.046 259.442Z" fill="black" fill-opacity="0.1"/>
<path d="M223.841 229.991C225.45 233.246 227.859 240.045 225.901 245.396C223.584 252.023 227.199 248.181 229.397 246.34C231.832 244.288 239.344 246.884 240.771 247.534L228.781 242.525C228.834 242.585 227.934 234.129 223.841 229.991Z" fill="black" fill-opacity="0.1"/>
<path d="M144.577 241.846C144.044 245.084 147.518 247.324 150.208 247.599C152.891 247.986 177.342 253.013 177.706 257.264C177.706 257.264 176.941 255.921 169.21 254.158C159.529 251.995 150.818 250.568 148.116 249.559C145.136 248.477 142.675 245.34 144.577 241.846Z" fill="black" fill-opacity="0.1"/>
<path d="M144.964 226.081C144.01 227.884 145.484 232.427 148.992 234.105C152.499 235.783 162.767 239.447 168.918 241.228C175.07 243.008 177.078 244.313 176.911 245.205C176.911 245.205 177.787 242.834 168.703 239.185C159.619 235.535 151.252 234.016 148.408 230.687C145.564 227.357 145.786 224.608 146.428 224.252C146.435 224.139 145.919 224.277 144.964 226.081Z" fill="black" fill-opacity="0.1"/>
<path d="M160.578 213.094C159.068 214.751 160.285 218.884 164.421 220.431C168.557 221.977 187.65 229.839 186.142 234.259C186.142 234.259 186.263 233.195 181.342 230.642C175.767 227.712 163.169 222.498 161.326 221.259C159.484 220.02 158.482 217.93 158.868 216.205C159.247 214.593 160.578 213.094 160.578 213.094Z" fill="black" fill-opacity="0.1"/>
<path d="M69.9444 118.478C67.7126 112.795 67.3966 107.76 57.2402 102.077C34.3302 89.3329 36.2474 45.7874 76.0327 49.9768C81.8122 50.6069 101.707 47.8761 112.251 43.4682C120.069 40.0954 123.217 47.467 115.775 51.0088C109.905 53.715 93.854 55.4081 94.9645 56.0137C96.0927 56.5208 114.564 57.1922 128.875 49.9042C138.157 45.1684 143.027 54.2711 134.586 58.8528C123.464 64.7826 101.919 65.3885 103.191 66.2263C104.544 67.1801 123.482 68.6464 141.471 61.8148C152.042 57.8182 154.888 69.7074 143.807 73.7141C123.065 81.1695 102.579 75.8697 103.442 77.8532C104.161 79.5062 123.206 84.3443 146.106 77.8855C155.197 75.3505 156.105 88.416 144.95 91.6984C129.621 96.1624 116.512 93.9128 101.357 92.3122C90.8803 91.246 75.6319 91.8638 80.8449 102.45C93.2399 127.939 73.7868 128.209 69.9444 118.478Z" fill="#FDDBB4"/>
<path d="M66.0869 49.9201C45.2455 49.4332 -37.4553 18.8533 -46.2051 -56.9824L-59.9395 19.5957C-59.9395 19.5957 -10.6217 82.7946 56.9753 84.8603" fill="#FDDBB4"/>
<path d="M-59.9574 19.694C-59.9574 19.694 -17.1344 74.9212 43.3591 83.7389C43.3591 83.7389 45.1903 93.9221 52.4467 98.7794C59.7032 103.637 64.388 106.407 67.5687 112.464C70.7495 118.521 68.7126 119.679 74.3562 123.333C79.9998 126.987 84.4791 122.405 84.5594 118.559C84.5594 118.559 76.8619 120.125 73.9433 111.474C71.007 102.921 65.8757 96.4129 60.7975 93.5718C55.7193 90.7307 48.3406 79.7557 48.1405 74.6401C47.948 68.9162 44.0515 70.2492 42.323 73.0887C40.4785 76.009 -51.5398 42.4373 -55.0771 -8.08062L-60.0554 19.6764L-59.9574 19.694Z" fill="black" fill-opacity="0.1"/>
<path d="M80.1147 96.3253C81.7319 91.8404 83.543 86.2726 89.706 86.4636C95.8691 86.6546 147.678 95.7435 152.898 83.0659C152.898 83.0659 152.859 92.9136 136.584 94.1599C120.308 95.4063 97.4648 91.919 90.7213 92.1319C81.6257 92.4309 80.1147 96.3253 80.1147 96.3253Z" fill="black" fill-opacity="0.1"/>
<path d="M103.129 77.8989C103.601 76.9676 118.264 78.48 127.206 77.3406C136.049 76.1836 148.539 73.9534 150.206 68.0551C150.206 68.0551 136.233 74.591 122.915 74.6407C109.615 74.592 103.545 76.1448 103.129 77.8989Z" fill="black" fill-opacity="0.1"/>
<path d="M138.63 52.1618C138.83 53.3151 139.93 57.3733 130.601 60.6781C121.271 63.9829 104.414 65.6331 103.985 65.7593C103.458 65.8679 102.948 65.8781 102.913 66.0749C102.913 66.0749 103.231 64.3033 105.636 63.9219C121.184 61.6308 130.247 58.6842 135.231 55.8191C137.383 54.5796 138.63 52.1618 138.63 52.1618Z" fill="black" fill-opacity="0.1"/>
<path d="M94.7851 55.88C95.2494 55.5569 103.636 54.1148 104.476 53.9607C105.415 53.8243 118.649 52.5404 119.842 46.4554C119.842 46.4554 118.684 48.3812 112.875 50.1839C107.065 51.9867 95.4233 53.4546 94.7851 55.88Z" fill="black" fill-opacity="0.1"/>
<path d="M58.4996 247.722C71.5726 243.486 81.3139 251.586 86.9468 253.196C96.8172 256.082 94.328 238.712 75.503 234.952C64.7165 232.776 70.5646 223.882 76.4722 219.088C84.2462 212.754 93.9467 203.535 99.9057 198.108C106.584 191.979 98.2979 183.777 92.1762 189.093C83.8885 196.317 71.1055 209.97 68.7258 207.864C66.1835 205.647 84.7624 190.085 94.4203 178.974C101.407 170.859 93.7629 163.813 85.5008 170.72C75.6377 178.921 63.8219 194.86 61.7503 193.49C59.6787 192.12 71.4944 177.995 78.7036 169.555C84.6371 162.63 75.9485 156.063 70.5373 162.295C62.3863 171.762 50.827 189.978 48.8838 188.84C46.2901 187.256 54.5097 176.641 58.4313 170.632C63.1663 163.364 55.2394 158.894 51.0696 164.638C43.6975 174.782 26.7184 199.941 22.1718 207.003C11.3746 223.687 34.0231 255.57 58.4996 247.722Z" fill="#4C2F19"/>
<path d="M19.8412 224.227C19.8412 224.227 -8.93751 272.978 -22.5891 322.099C-30.2114 349.219 12.4175 387.85 16.1954 364.882C20.7615 337.342 31.9682 257.316 50.29 244.015C68.6546 230.79 19.8412 224.227 19.8412 224.227Z" fill="#4C2F19"/>
<path d="M57.5584 162.345C53.3717 165.88 44.1586 179.97 40.2285 185.782C36.2213 191.638 22.9668 211.703 24.1301 220.332C24.8999 226.257 31.628 233.106 30.241 233.876C28.9311 234.604 23.0931 230.083 21.4664 231.692C19.3858 233.755 -16.8612 311.356 -7.40337 328.384C2.78202 346.723 -9.81967 347.269 -9.81967 347.269C-9.81967 347.269 -23.782 342.825 -23.3606 326.157C-22.7502 302.931 19.9351 221.856 19.9351 221.856C19.9351 221.856 17.7358 213.902 21.6574 207.893C25.579 201.884 44.339 174.123 47.2759 169.971C50.1699 165.742 52.8501 160.221 57.5584 162.345Z" fill="black" fill-opacity="0.1"/>
</g>
<path opacity="0.6" d="M194.414 194.964C194.758 198.201 194.807 205.127 190.379 211.596C189.585 212.736 187.907 212.402 187.504 211.166C186.486 207.573 184.44 201.792 180.699 198.384C179.849 197.714 178.769 197.428 177.748 197.647C169.351 199.786 127.718 208.603 116.072 177.278C103.102 142.436 127.842 121.537 158.794 117.085C190.153 112.564 201.848 129.448 209.452 149.817C218.305 173.395 201.29 187.989 195.857 191.969C194.796 192.687 194.31 193.752 194.414 194.964Z" fill="white"/>
<path opacity="0.6" d="M104.701 128.522C103.159 125.655 100.495 119.262 102.149 111.599C102.452 110.243 104.132 109.918 104.973 110.91C107.273 113.851 111.353 118.429 116.105 120.17C117.145 120.469 118.254 120.326 119.116 119.737C126.08 114.582 161.289 90.678 183.914 115.275C209.095 142.626 194.093 171.328 167.122 187.153C139.8 203.194 122.591 191.985 107.849 176.003C90.7386 157.522 100.973 137.579 104.498 131.84C105.208 130.774 105.256 129.605 104.701 128.522Z" fill="white"/>
<path opacity="0.6" d="M127.839 205.326C125.095 206.898 118.952 209.619 111.434 207.969C110.103 207.666 109.733 205.964 110.672 205.109C113.463 202.769 117.793 198.619 119.337 193.798C119.594 192.744 119.419 191.62 118.818 190.749C113.572 183.709 89.1552 148.111 112.393 125.103C138.232 99.4956 166.676 114.601 182.958 141.878C199.462 169.51 189.094 186.986 173.997 201.977C156.54 219.377 136.783 209.074 131.078 205.521C130.017 204.804 128.876 204.76 127.839 205.326Z" fill="white"/>
<path opacity="0.6" d="M192.871 119.203C195.937 118.428 202.586 117.463 209.382 121.078C210.582 121.728 210.48 123.467 209.345 124.037C206.026 125.539 200.739 128.369 197.953 132.596C197.421 133.542 197.287 134.67 197.631 135.672C200.786 143.865 214.709 184.725 186.132 200.621C154.349 218.32 131.027 196.109 122.696 165.454C114.247 134.398 128.94 120.361 147.518 109.992C169.017 97.9388 185.268 113.184 189.805 118.143C190.633 119.119 191.72 119.468 192.871 119.203Z" fill="white"/>
<path fill-rule="evenodd" clip-rule="evenodd" d="M169.724 152.242C167.03 163.505 152.779 170.574 149.5 170.09C146.221 169.606 134.617 158.722 135.294 147.16C135.32 146.784 135.345 146.407 135.4 146.035C136.217 140.501 141.401 136.667 146.958 137.487C149.779 137.903 152.172 139.428 153.706 141.588C155.799 139.963 158.531 139.195 161.351 139.611C166.906 140.431 170.761 145.599 169.945 151.133C169.89 151.505 169.806 151.873 169.724 152.242Z" fill="#FF6680"/>
<g opacity="0.5">
<path fill-rule="evenodd" clip-rule="evenodd" d="M43.6519 132.84C43.5987 133.463 43.2178 134.005 42.6522 134.271L41.3673 134.877C40.7601 135.159 40.9208 136.065 41.5886 136.124L43.0028 136.248C43.6251 136.301 44.1701 136.684 44.4337 137.247L45.0388 138.532C45.3218 139.142 46.2279 138.981 46.2864 138.311L46.41 136.897C46.4637 136.277 46.8463 135.729 47.4124 135.465L48.6978 134.863C49.3045 134.578 49.1437 133.672 48.4764 133.615L47.0618 133.489C46.439 133.433 45.8922 133.056 45.6282 132.49L45.0257 131.204C44.7406 130.598 43.8345 130.759 43.7781 131.426L43.6519 132.84ZM30.1966 145.099C31.7517 144.372 32.8007 142.87 32.949 141.16L33.2885 137.271C33.4512 135.432 35.9407 134.99 36.7232 136.661L38.3825 140.196C39.1102 141.751 40.6116 142.8 42.3193 142.949L46.2083 143.288C48.0472 143.451 48.4888 145.94 46.8181 146.726L43.2832 148.382C41.7309 149.109 40.6819 150.611 40.5331 152.319L40.1908 156.208C40.0309 158.046 37.5414 158.488 36.7561 156.817L35.0996 153.283C34.3724 151.73 32.871 150.681 31.1605 150.533L27.2715 150.193C25.4326 150.031 24.991 147.541 26.6617 146.756L30.1966 145.099ZM26.0662 158.013C26.6316 157.746 27.0146 157.201 27.0678 156.579L27.1913 155.165C27.2476 154.498 28.1534 154.338 28.4411 154.944L29.0407 156.229C29.3073 156.794 29.8517 157.175 30.4743 157.231L31.8907 157.354C32.5578 157.41 32.7185 158.316 32.1124 158.603L30.8243 159.203C30.2589 159.47 29.8786 160.014 29.8227 160.637L29.7019 162.05C29.6407 162.721 28.7348 162.882 28.452 162.272L27.8498 160.987C27.5858 160.421 27.0388 160.041 26.4162 159.986L25.0029 159.865C24.3349 159.803 24.1742 158.897 24.7812 158.615L26.0662 158.013Z" fill="white"/>
</g>
<path fill-rule="evenodd" clip-rule="evenodd" d="M247.736 189.336C249.45 189.222 250.972 188.204 251.731 186.663L253.458 183.163C254.277 181.508 256.757 182 256.88 183.841L257.144 187.737C257.257 189.45 258.276 190.972 259.813 191.731L263.314 193.458C264.968 194.277 264.477 196.757 262.635 196.883L258.74 197.144C257.029 197.258 255.507 198.276 254.749 199.814L253.018 203.314C252.202 204.969 249.722 204.477 249.596 202.635L249.336 198.74C249.221 197.03 248.203 195.508 246.663 194.749L243.162 193.021C241.508 192.202 241.999 189.722 243.841 189.597L247.736 189.336Z" fill="white" fill-opacity="0.6"/>
</svg>
