<svg width="115" height="94" viewBox="0 0 115 94" fill="none" xmlns="http://www.w3.org/2000/svg">
<path opacity="0.15" d="M34.5326 94C41.16 94 46.5326 88.6274 46.5326 82V58.5384C46.5326 52.6872 41.7892 47.9439 35.9381 47.9439V47.9439C30.0869 47.9439 25.115 43.1174 26.5492 37.4448C27.2973 34.4858 28.3937 31.8048 29.8382 29.4019C31.8532 25.916 35.0296 23.0161 39.3674 20.7022C43.4472 18.5261 46.5326 14.5989 46.5326 9.97511V9.97511C46.5326 3.60619 40.8979 -1.42053 34.8846 0.677915C32.495 1.51182 30.1708 2.51326 27.912 3.68224C22.3472 6.47352 17.5315 10.0623 13.465 14.4486C9.3984 18.8349 6.18795 23.919 3.83362 29.7009C1.69333 35.4829 0.730196 41.6635 0.944225 48.243V82C0.944225 88.6274 6.31681 94 12.9442 94H34.5326ZM102.915 94C109.542 94 114.915 88.6274 114.915 82V58.5384C114.915 52.6872 110.172 47.9439 104.321 47.9439V47.9439C98.4694 47.9439 93.4974 43.1174 94.9317 37.4448C95.6798 34.4858 96.7762 31.8048 98.2207 29.4019C100.236 25.916 103.412 23.0161 107.75 20.7022C111.83 18.5261 114.915 14.5989 114.915 9.97511V9.97511C114.915 3.60619 109.28 -1.42053 103.267 0.677916C100.877 1.51182 98.5533 2.51326 96.2945 3.68224C90.7297 6.47352 85.914 10.0623 81.8475 14.4486C77.7809 18.8349 74.5704 23.919 72.2161 29.7009C70.0758 35.4829 69.1127 41.6635 69.3267 48.243V82C69.3267 88.6274 74.6993 94 81.3267 94H102.915Z" fill="#59C059"/>
</svg>
