<svg width="337" height="333" viewBox="0 0 337 333" fill="none" xmlns="http://www.w3.org/2000/svg">
<g clip-path="url(#clip0_236_7029)">
<path opacity="0.3" d="M316.219 141.271C328.001 131.388 324.098 98.5447 305.814 85.5392C287.53 72.5336 264.524 55.715 252.742 65.5984C240.96 75.4817 233.143 100.735 263.147 121.33C293.15 141.925 304.436 151.154 316.219 141.271Z" fill="#59C059"/>
<path d="M128.724 149.997C109.759 172.474 113.944 196.824 118.627 206.628L155.064 205.311C151.698 198.141 146.986 184.415 155.064 178.093C165.161 170.191 187.989 166.679 188.428 146.924C188.867 127.169 175.697 126.73 173.941 112.243C172.185 97.7564 194.574 62.1976 167.795 54.7347C141.016 47.2717 114.676 57.8077 113.798 90.2935C112.92 122.779 152.43 121.901 128.724 149.997Z" fill="#E5F0FF"/>
<path opacity="0.3" d="M328.326 227.7C319.546 292.228 263.115 254.04 161.068 279.501C59.0203 304.963 -4.43468 286.077 10.0522 207.94C24.5392 129.803 87.7548 118.389 161.068 118.389C259.018 118.389 337.105 163.172 328.326 227.7Z" fill="#59C059"/>
<mask id="mask0_236_7029" style="mask-type:alpha" maskUnits="userSpaceOnUse" x="8" y="118" width="321" height="173">
<path d="M328.326 227.7C319.546 292.228 263.115 254.04 161.068 279.501C59.0203 304.963 -4.43468 286.077 10.0522 207.94C24.5392 129.803 87.7548 118.389 161.068 118.389C259.018 118.389 337.105 163.172 328.326 227.7Z" fill="#C4C4C4"/>
</mask>
<g mask="url(#mask0_236_7029)">
<path d="M120.48 217.25C120.48 217.25 111.691 249.358 111.805 260.07C111.963 274.969 106.432 294.866 106.432 294.866L18.6323 286.849C18.6323 286.849 20.9063 271.212 24.3305 253.38C30.7048 220.2 38.9667 205.081 41.8465 201.156C47.5886 193.316 120.471 217.25 120.471 217.25H120.48Z" fill="#0DA57A"/>
<path d="M128.724 149.997C109.759 172.474 113.944 196.824 118.627 206.628L155.064 205.311C151.698 198.141 146.986 184.415 155.064 178.093C165.161 170.191 187.989 166.679 188.428 146.924C188.867 127.169 175.697 126.73 173.941 112.243C172.185 97.7565 194.574 62.1977 167.795 54.7347C141.016 47.2718 114.676 57.8077 113.798 90.2935C112.92 122.779 152.43 121.901 128.724 149.997Z" fill="white" fill-opacity="0.5"/>
</g>
<path d="M135.292 250.386C135.292 250.386 155.451 289.922 142.298 291.853C129.146 293.785 113.685 255.785 113.685 255.785L135.292 250.386Z" fill="#E0B585"/>
<path d="M110.348 255.417L114.509 264.223C115.08 265.426 116.388 266.093 117.696 265.839C120.726 265.25 126.002 264.17 128.11 263.363C130.217 262.555 134.809 259.851 137.539 258.2C138.786 257.445 139.278 255.891 138.707 254.556L133.509 242.493L110.356 255.417H110.348Z" fill="#0DA57A"/>
<path d="M208.183 134.139C208.183 134.139 197.524 129.828 201.466 143.929C205.417 158.038 212.283 150.944 212.283 150.944C212.283 150.944 212.95 144.666 212.371 142.401C211.862 140.408 208.174 134.13 208.174 134.13L208.183 134.139Z" fill="#6B3D1F"/>
<path d="M201.106 127.659C201.106 105.92 217.2 88.2901 237.051 88.2901C256.903 88.2901 267.21 105.911 267.21 127.659C267.21 142.067 256.139 158.898 251.52 164.114C250.239 165.562 246.876 168.188 245.374 169.101C241.362 171.533 237.947 174.246 226.252 173.236C214.557 172.226 204.987 157.415 204.767 149.557C204.697 147.125 204.1 144.297 203.731 142.77C202.045 137.985 201.106 132.84 201.106 127.659Z" fill="#6B3D1F"/>
<path d="M237.137 142.629C238.262 142.589 239.134 141.442 239.086 140.066C239.038 138.689 238.088 137.605 236.963 137.645C235.839 137.684 234.967 138.831 235.015 140.208C235.063 141.584 236.013 142.668 237.137 142.629Z" fill="black"/>
<path d="M213.44 143.455C214.564 143.416 215.436 142.268 215.388 140.892C215.34 139.516 214.39 138.432 213.266 138.471C212.141 138.51 211.269 139.658 211.317 141.034C211.365 142.411 212.315 143.494 213.44 143.455Z" fill="black"/>
<path d="M224.233 139.504C224.233 139.504 225.076 141.971 224.083 143.762C223.091 145.553 215.33 147.871 225.506 153.244" stroke="black" stroke-width="0.87" stroke-miterlimit="10" stroke-linecap="round"/>
<path d="M231.581 130.794C231.3 131.022 231.546 131.426 231.932 131.382C234.768 131.092 238.517 131.075 243.899 132.594C247.798 133.691 238.052 125.535 231.581 130.794Z" fill="black"/>
<path d="M216.954 131.224C217.217 131.435 217.033 131.847 216.682 131.83C214.135 131.689 212.204 132.374 207.515 134.157C204.118 135.447 210.782 126.316 216.945 131.224H216.954Z" fill="black"/>
<path d="M262.311 132.646C262.311 132.646 272.97 128.335 269.028 142.436C265.077 156.545 258.211 149.451 258.211 149.451C258.211 149.451 257.544 143.174 258.123 140.908C258.633 138.915 262.32 132.638 262.32 132.638L262.311 132.646Z" fill="#6B3D1F"/>
<path d="M222.064 161.216C221.809 159.961 221.976 156.528 225.506 157.415C229.035 158.301 229.351 160.075 229.29 161.532C229.228 162.99 223.354 167.45 222.073 161.216H222.064Z" fill="#352012"/>
<path d="M222.187 158.934C222.187 158.934 223.416 160.409 228.263 158.723C228.263 158.723 226.63 157.178 224.083 157.292C224.083 157.292 222.74 157.274 222.187 158.934Z" fill="white"/>
<path d="M210.536 103.576C210.536 103.576 206.962 104.498 202.098 118.423C202.098 118.423 203.959 108.502 208.894 103.19C213.828 97.8779 210.536 103.576 210.536 103.576Z" fill="black"/>
<path d="M220.668 92.6011C220.668 92.6011 220.703 91.2314 222.064 90.5817C223.425 89.932 224.048 90.7134 224.048 90.7134C224.048 90.7134 223.495 89.7388 225.708 88.5711C227.92 87.4033 229.202 88.694 229.202 88.694C229.202 88.694 230.308 86.7185 233.039 86.9731C234.409 87.1048 234.69 87.5877 235.137 87.6228C235.585 87.6579 235.453 87.4999 236.849 86.9643C238.553 86.3146 239.694 87.6053 239.694 87.6053C239.694 87.6053 240.669 86.8239 242.267 87.2541C243.865 87.6843 244.075 88.492 244.075 88.492C244.075 88.492 244.655 87.9389 245.989 88.2989C247.324 88.6589 247.28 89.7827 247.28 89.7827C247.28 89.7827 248.255 89.1066 249.756 90.1427C251.257 91.1787 251.108 91.5475 251.108 91.5475C251.108 91.5475 251.731 91.3367 252.408 91.8109C253.084 92.285 253.031 92.6098 253.031 92.6098C253.031 92.6098 253.294 93.5581 254.787 93.9005C256.279 94.2429 256.341 95.7267 256.341 95.7267C256.341 95.7267 257.052 96.6398 258.167 96.8769C259.282 97.114 259.186 98.87 259.186 98.87C259.186 98.87 261.504 98.7031 261.029 101.056C261.029 101.056 261.381 101.197 261.89 101.337C262.364 101.469 263.04 102.083 262.425 103.269C261.811 104.454 263.295 103.585 263.435 104.937C263.576 106.289 263.268 106.588 263.268 106.588L220.668 92.6011Z" fill="black"/>
<path d="M208.894 103.19C208.894 103.19 225.383 107.632 240.318 103.19C255.252 98.7471 262.75 123.296 261.53 129.758C260.309 136.22 260.906 137.001 260.906 137.001C260.906 137.001 261.205 131.075 266.517 132.102C266.517 132.102 271.478 102.97 249.247 90.9417C227.016 78.9132 208.903 103.19 208.903 103.19H208.894Z" fill="black"/>
<path d="M202.239 117.764C202.239 117.764 200.957 115.842 202.239 114.911C203.521 113.98 202.054 112.813 203.283 111.645C204.513 110.477 203.398 109.371 204.39 108.326C205.382 107.281 205.882 107.562 205.882 107.562C205.882 107.562 205.487 105.06 207.234 103.207C208.982 101.355 209.983 101.802 209.983 101.802C209.983 101.802 209.956 99.7304 212.099 98.1237C214.241 96.5169 214.592 96.8506 214.592 96.8506C214.592 96.8506 214.469 94.5327 216.497 94.1727C218.525 93.8127 217.867 93.9356 218.455 93.163C219.043 92.3904 220.668 92.6011 220.668 92.6011C220.668 92.6011 204.346 107.281 202.239 117.764Z" fill="black"/>
<path d="M221.976 105.077C220.44 105.745 219.017 104.867 219.017 104.867C216.524 106.763 214.785 104.357 214.785 104.357C211.423 104.858 210.536 103.585 210.536 103.585C210.536 103.585 209.535 105.025 209.254 104.867C209.254 104.867 208.288 106.93 207.762 106.851C207.762 106.851 207.621 107.799 207.033 107.887C206.445 107.975 207.805 103.488 209.755 103.234C211.704 102.979 221.976 105.086 221.976 105.086V105.077Z" fill="black"/>
<path d="M221.976 105.077C221.976 105.077 222.942 106.14 224.47 105.165C224.47 105.165 225.128 105.771 226.348 105.174C226.348 105.174 227.068 106.43 229.184 105.069C229.184 105.069 229.685 105.841 231.09 104.928C231.09 104.928 231.959 105.446 233.276 105.174C234.593 104.902 234.101 104.349 235.172 104.621C236.243 104.893 236.621 104.401 236.928 104.059C236.928 104.059 238.043 104.586 239.343 103.479C239.343 103.479 240.238 103.822 242.065 103.067C243.891 102.312 243.303 103.33 244.576 103.515C245.849 103.699 246.455 102.988 246.455 102.988L241.573 100.529L221.976 105.095V105.077Z" fill="black"/>
<path d="M263.268 106.579C263.268 106.579 265.577 107.65 265.402 109.669C265.226 111.689 265.129 111.592 265.568 112.119C266.007 112.646 266.604 112.663 265.911 114.481C265.911 114.481 267.412 115.587 266.982 116.939C266.552 118.291 266.587 118.572 266.587 118.572C266.587 118.572 267.386 119.029 267.201 120.978L267.017 122.927C267.017 122.927 268.246 123.612 267.597 125.245C266.947 126.878 267.201 126.764 267.201 126.764C267.201 126.764 268.106 127.089 267.597 128.634L267.087 130.188C267.087 130.188 268.194 131.733 266.859 132.172C265.525 132.611 264.085 123.524 264.085 123.524L263.259 106.579H263.268Z" fill="black"/>
<path d="M246.463 102.97C246.463 102.97 247.429 104.033 248.588 103.716C248.588 103.716 248.842 104.981 250.115 104.559C250.115 104.559 250.194 105.42 250.87 105.077C250.87 105.077 251.055 105.815 251.792 106.149C252.53 106.482 251.713 106.561 252.916 107.466C254.119 108.37 254.259 108.352 254.259 108.352C254.259 108.352 254.119 109.318 255.102 109.45C255.102 109.45 254.716 110.231 255.726 110.345C255.726 110.345 255.954 111.917 257.131 112.663C257.131 112.663 257.034 113.532 257.455 113.813C257.877 114.094 257.49 114.156 257.912 114.849C258.333 115.543 258.535 115.517 258.535 115.517C258.535 115.517 258.026 116.474 258.825 117.764C259.624 119.055 259.835 118.871 259.835 118.871C259.835 118.871 259.255 120.284 259.835 121.303C260.414 122.321 260.836 122.33 260.836 122.33C260.836 122.33 260.186 123.805 260.836 124.165C261.485 124.525 261.222 125.183 261.002 125.359C260.783 125.535 261.002 126.035 261.345 126.421C261.687 126.808 261.099 127.317 261.345 128.283C261.591 129.249 261.591 130.39 261.591 130.39L263.891 119.784L258.527 109.213L250.993 102.566L246.568 101.662L246.437 102.97H246.463Z" fill="black"/>
<path d="M230.106 172.99L234.382 189.786L265.534 184.913L257.078 151.479L230.106 172.99Z" fill="#6B3D1F"/>
<path d="M219.079 193.026C219.079 193.026 244.804 165.097 274.208 183.834C304.253 202.974 301.725 210.393 278.133 210.051C268.466 209.91 244.11 221.456 231.459 219.682C213.249 217.136 214.812 199.813 219.07 193.026H219.079Z" fill="#6B3D1F"/>
<path d="M295.236 201.2C295.236 201.2 309.108 228.33 297.975 272.906L274.146 270.483C274.146 270.483 274.954 213.65 281.012 205.318C287.071 196.986 295.236 201.2 295.236 201.2Z" fill="#6B3D1F"/>
<path d="M225.225 187.653C225.225 187.653 197.542 204.844 189.025 239.604C180.509 274.364 186.365 279.798 186.365 279.798L213.355 274.961L225.234 210.05V187.653H225.225Z" fill="#6B3D1F"/>
<path d="M301.795 250.386C301.795 250.386 299.345 293.847 287.308 295.357C275.271 296.867 217.077 286.849 217.077 286.849L226.761 268.841L274.235 266.251L301.804 250.386H301.795Z" fill="#6B3D1F"/>
<path d="M232.267 272.581C232.267 272.581 211.985 256.338 204.118 268.314C196.251 280.29 201.651 281.879 212.301 285.497C222.951 289.114 232.275 272.581 232.275 272.581H232.267Z" fill="#6B3D1F"/>
<path d="M126.266 277.805C126.266 277.805 136.196 234.555 147.531 241.527C158.857 248.498 146.301 287.542 146.301 287.542L126.266 277.805Z" fill="#E0B585"/>
<path d="M63.981 256.962L77.4933 283.109C77.4933 283.109 69.9075 304.813 58.5286 294.408C47.1498 284.004 40.0117 272.116 40.0117 272.116L52.4354 253.388L63.981 256.971V256.962Z" fill="#E0B585"/>
<path d="M63.9807 181.279C63.9807 181.279 40.2133 191.665 32.7591 221.886C25.305 252.107 40.3801 279.14 42.9878 279.509C45.5954 279.878 48.0099 255.812 71.1714 256.181C94.333 256.549 120.102 226.188 120.48 217.233C120.857 208.277 95.4392 182.657 63.9894 181.27L63.9807 181.279Z" fill="#0DA57A"/>
<path d="M102.121 246.847C102.121 246.847 109.119 233.423 112.236 232.413C115.352 231.403 110.567 243.23 110.567 243.23L102.121 246.847Z" fill="#E0B585"/>
<path d="M108.575 152.726C108.575 152.726 118.276 148.802 114.685 161.629C111.094 174.457 104.843 168.012 104.843 168.012C104.843 168.012 104.229 162.305 104.755 160.242C105.221 158.424 108.566 152.726 108.566 152.726H108.575Z" fill="#E0B585"/>
<path d="M53.2256 160.277C53.2256 160.277 60.0388 172.797 62.4445 174.448C64.8502 176.098 63.981 174.931 63.981 174.931H65.7897L60.9168 166.59L53.2344 160.277H53.2256Z" fill="#CF8B17"/>
<path d="M61.8652 188.285C61.8652 188.285 68.4941 204.8 88.6441 208.137C98.7498 209.814 88.6441 192.93 88.6441 192.93L61.8652 188.294V188.285Z" fill="#E0B585"/>
<path d="M92.4107 185.036C92.4107 185.036 89.8206 187.468 88.6353 192.921C88.0558 195.616 84.5965 197.381 81.866 197.759C78.0028 198.285 72.7436 198.479 69.2492 196.45C63.1559 192.921 61.8564 188.285 61.8564 188.285C62.392 182.912 67.502 174.316 67.502 174.316L92.4107 185.028V185.036Z" fill="#E0B585"/>
<path d="M112.613 164.43L113.052 165.685C113.122 165.896 113.298 166.045 113.509 166.107L114.799 166.458L113.737 167.266C113.561 167.398 113.465 167.608 113.473 167.828L113.535 169.162L112.437 168.398C112.262 168.276 112.025 168.249 111.823 168.319L110.576 168.794L110.962 167.512C111.024 167.301 110.98 167.073 110.848 166.906L110.014 165.87L111.349 165.844C111.568 165.844 111.77 165.729 111.893 165.545L112.622 164.43H112.613Z" fill="#0DA57A"/>
<path d="M57.1943 183.497C55.8002 184.366 55.0857 185.999 55.5112 187.586C56.6501 191.833 59.4744 200.261 65.0432 205.88C70.996 211.877 79.9252 214.897 84.9473 217.25L91.8659 207.873C91.8659 207.873 79.1701 198.558 75.4211 195.011C71.672 191.464 64.5 179 64.5 179C64.5 179 62.3076 180.309 57.1943 183.497Z" fill="#1E2128"/>
<path d="M68.6342 179.242C70.9082 181.472 72.4535 182.403 73.3402 183.158C76.141 185.546 84.2625 188.347 92.1469 188.294C103.148 188.215 111.48 173.904 111.682 166.757C111.744 164.544 112.288 161.972 112.622 160.584C114.149 156.23 115.01 151.55 115.01 146.835C115.01 127.063 100.374 111.03 82.3221 111.03C64.2705 111.03 54.8936 127.063 54.8936 146.835C54.8936 159.944 60.5566 171.305 68.6342 179.242Z" fill="#E0B585"/>
<path d="M63.0676 149.636C63.0676 149.636 64.0509 157.626 63.9807 161.621C63.9807 161.621 62.2159 155.194 60.9165 153.789L61.3906 150.022L63.0676 149.636Z" fill="#CF8B17"/>
<path d="M84.1648 160.201C84.2084 158.951 83.4149 157.909 82.3924 157.873C81.3698 157.837 80.5055 158.822 80.4619 160.072C80.4182 161.322 81.2117 162.365 82.2343 162.401C83.2568 162.436 84.1211 161.452 84.1648 160.201Z" fill="#3373CC"/>
<path d="M105.725 160.952C105.769 159.702 104.975 158.659 103.953 158.624C102.93 158.588 102.066 159.572 102.022 160.823C101.979 162.073 102.772 163.115 103.795 163.151C104.817 163.187 105.682 162.202 105.725 160.952Z" fill="#3373CC"/>
<path d="M95.72 159.338C95.72 159.338 94.9474 161.585 95.8517 163.21C96.756 164.834 105.422 167.398 95.0439 170.848" stroke="#BF8C5C" stroke-width="0.87" stroke-miterlimit="10" stroke-linecap="round"/>
<path d="M85.6672 152.068C85.8603 152.252 85.7989 152.621 85.5794 152.612C83.9814 152.533 79.6968 152.507 77.0277 154.201C75.0961 155.422 81.1806 147.801 85.6672 152.068Z" fill="#CF8B17"/>
<path d="M101.155 152.498C100.962 152.683 101.024 153.051 101.243 153.042C102.841 152.963 107.126 152.937 109.795 154.632C111.726 155.852 105.642 148.231 101.155 152.498Z" fill="#CF8B17"/>
<path d="M93.8678 176.072C92.4191 176.064 89.0827 174.158 87.116 176.16C86.2731 177.021 89.6007 179.558 93.183 179.646C96.7652 179.734 100.584 177.345 99.7416 176.116C98.5299 174.351 95.5974 176.09 93.8766 176.072H93.8678Z" fill="white"/>
<path d="M87.1072 176.16C86.2643 177.02 89.5919 179.558 93.1742 179.646C96.7564 179.733 100.576 177.345 99.7328 176.116C99.6362 175.984 99.5221 175.835 99.3904 175.739C99.3026 175.677 99.048 175.949 98.9075 176.046C97.8012 176.775 95.3165 178.135 93.2444 178.118C91.1723 178.1 89.3812 176.494 88.1696 176.055C88.0291 176.002 87.6867 175.703 87.5813 175.774C87.4145 175.879 87.2916 175.984 87.1248 176.16H87.1072Z" fill="#482D18"/>
<path d="M88.4243 129.731C88.4243 129.731 68.5553 147.107 63.2083 150.803C57.8613 154.5 71.6195 132.515 71.6195 132.515L81.734 128.213L88.4243 129.731Z" fill="#CF8B17"/>
<path d="M78.1169 111.32C78.1169 111.32 66.1937 112.417 58.8186 118.186C51.4346 123.954 50.2318 121.312 49.9947 122.76C49.7576 124.209 56.369 124.323 56.369 124.323C56.369 124.323 50.7147 131.777 49.3977 142.006C48.0719 152.226 50.1176 155.632 50.1176 155.632L51.979 152.919C51.979 152.919 50.3547 156.835 51.1976 160.909C52.0404 164.983 59.3366 151.383 59.3366 151.383L78.1169 111.329V111.32Z" fill="#CF8B17"/>
<path d="M59.3365 151.374C59.3365 151.374 49.6346 147.45 53.2256 160.277C56.8166 173.105 63.068 166.66 63.068 166.66C63.068 166.66 63.6825 160.953 63.1558 158.89C62.6904 157.072 59.3453 151.374 59.3453 151.374H59.3365Z" fill="#E0B585"/>
<path d="M58.2742 164.878L59.038 165.975C59.1609 166.151 59.3716 166.265 59.5824 166.265H60.9169L60.1092 167.319C59.9775 167.494 59.9423 167.722 60.0038 167.924L60.4165 169.189L59.1609 168.75C58.9502 168.679 58.7219 168.715 58.5463 168.837L57.4664 169.628L57.4927 168.293C57.4927 168.074 57.3962 167.872 57.2206 167.74L56.1406 166.959L57.4225 166.572C57.6332 166.511 57.8 166.344 57.8615 166.142L58.2742 164.869V164.878Z" fill="#0DA57A"/>
<path d="M58.09 128.52C58.09 128.52 54.183 138.292 54.8941 150.804C54.8941 150.804 58.1076 149.091 60.9172 153.78C60.9172 153.78 73.332 130.1 90.532 129.459C90.532 129.459 88.5389 114.955 78.8722 111.241C78.8722 111.241 71.7955 111.636 66.0886 116.816C60.3816 121.997 58.09 128.52 58.09 128.52Z" fill="#CF8B17"/>
<path d="M90.5233 129.459C90.5233 129.459 112.851 129.521 114.975 145.404C114.975 145.404 115.002 123.331 95.6683 114.156C95.6683 114.156 89.8296 110.24 79.7151 111.153L78.1084 111.32L90.5145 129.459H90.5233Z" fill="#CF8B17"/>
<path d="M90.5229 129.459C90.5229 129.459 110.787 132.603 114.466 153.341C114.466 153.341 115.212 148.055 114.975 145.404C114.738 142.752 111.902 131.848 106.494 131.075C101.085 130.302 90.5229 128.757 90.5229 128.757V129.468V129.459Z" fill="#CF8B17"/>
<path d="M88.8725 129.161C88.8725 129.161 84.0347 137.721 81.0671 141.734C78.0995 145.746 74.6577 148.872 75.1933 147.09C75.7289 145.307 75.2635 141.049 75.2635 141.049C75.2635 141.049 74.4734 145 71.6023 148.723C68.7313 152.445 63.674 155.624 63.674 155.624L61.9619 145.755L88.8637 129.152L88.8725 129.161Z" fill="#CF8B17"/>
<path d="M82.3145 111.039C82.3145 111.039 96.0024 108.502 108.356 118.932L104.905 119.204C104.905 119.204 114.001 125.825 115.476 137.44C116.951 149.065 114.976 145.413 114.976 145.413L82.3145 111.039Z" fill="#CF8B17"/>
<path d="M85.4397 108.993C85.4397 108.993 79.3816 112.382 74.4033 113.032" stroke="#CF8B17" stroke-width="2" stroke-miterlimit="10" stroke-linecap="round"/>
<path d="M90.2244 188.285L88.6353 192.921C88.6353 192.921 91.7697 205.099 91.8575 207.864C91.8575 207.864 97.4415 205.933 100.093 207.074C102.156 207.97 104.053 210.024 105.027 210.042C108.785 210.103 90.2244 188.285 90.2244 188.285Z" fill="#1E2128"/>
<path d="M100.102 270.193C111.252 257.84 114.773 248.015 103.21 252.625C100.954 253.52 102.121 249.824 100.409 251.597C97.2572 254.855 92.4897 254.846 80.2153 265.171C68.5643 274.97 58.5376 294.417 58.5376 294.417C58.5376 294.417 65.5089 300.976 73.3845 298.105C81.2601 295.234 91.7785 279.43 100.111 270.202L100.102 270.193Z" fill="#E0B585"/>
<path d="M164.221 249.718L115.247 251.352C113.201 251.422 111.489 249.815 111.419 247.769L107.257 210.946C107.187 208.9 108.794 207.188 110.839 207.118L165.187 205.309C167.233 205.239 168.945 206.846 169.015 208.892L167.804 245.89C167.874 247.936 166.267 249.648 164.221 249.718Z" fill="#575E75"/>
<path opacity="0.2" d="M139.699 233.713C142.899 233.713 145.494 232.018 145.494 229.929C145.494 227.839 142.899 226.144 139.699 226.144C136.499 226.144 133.904 227.839 133.904 229.929C133.904 232.018 136.499 233.713 139.699 233.713Z" fill="black"/>
<path d="M103.605 245.346C106.503 242.879 114.062 242.326 118.856 244.064C125.652 246.522 128.531 255.873 115.967 260.579C113.052 261.668 106.327 262.871 104.106 263.74C98.2845 266.04 100.172 258.015 99.4434 255.004C98.4689 250.991 101.674 246.988 103.605 245.337V245.346Z" fill="#E0B585"/>
<path d="M80.154 166.792C80.3043 166.792 80.4262 166.67 80.4262 166.519C80.4262 166.369 80.3043 166.247 80.154 166.247C80.0037 166.247 79.8818 166.369 79.8818 166.519C79.8818 166.67 80.0037 166.792 80.154 166.792Z" fill="#BF8C5C"/>
<path d="M85.3777 164.202C85.4989 164.202 85.5972 164.103 85.5972 163.982C85.5972 163.861 85.4989 163.763 85.3777 163.763C85.2565 163.763 85.1582 163.861 85.1582 163.982C85.1582 164.103 85.2565 164.202 85.3777 164.202Z" fill="#BF8C5C"/>
<path d="M85.5799 166.792C85.6914 166.792 85.7818 166.701 85.7818 166.59C85.7818 166.478 85.6914 166.388 85.5799 166.388C85.4683 166.388 85.3779 166.478 85.3779 166.59C85.3779 166.701 85.4683 166.792 85.5799 166.792Z" fill="#BF8C5C"/>
<path d="M85.1583 180.322C85.3813 180.322 85.5622 180.141 85.5622 179.918C85.5622 179.695 85.3813 179.514 85.1583 179.514C84.9352 179.514 84.7544 179.695 84.7544 179.918C84.7544 180.141 84.9352 180.322 85.1583 180.322Z" fill="#BF8C5C"/>
<path d="M88.9074 164.746C89.0578 164.746 89.1796 164.624 89.1796 164.474C89.1796 164.323 89.0578 164.202 88.9074 164.202C88.7571 164.202 88.6353 164.323 88.6353 164.474C88.6353 164.624 88.7571 164.746 88.9074 164.746Z" fill="#BF8C5C"/>
<path d="M93.7102 149.126C93.8605 149.126 93.9823 149.005 93.9823 148.854C93.9823 148.704 93.8605 148.582 93.7102 148.582C93.5599 148.582 93.438 148.704 93.438 148.854C93.438 149.005 93.5599 149.126 93.7102 149.126Z" fill="#BF8C5C"/>
<path d="M96.8181 150.759C96.9684 150.759 97.0903 150.638 97.0903 150.487C97.0903 150.337 96.9684 150.215 96.8181 150.215C96.6678 150.215 96.5459 150.337 96.5459 150.487C96.5459 150.638 96.6678 150.759 96.8181 150.759Z" fill="#BF8C5C"/>
<path d="M104.764 164.886C104.89 164.886 104.992 164.784 104.992 164.658C104.992 164.532 104.89 164.43 104.764 164.43C104.638 164.43 104.536 164.532 104.536 164.658C104.536 164.784 104.638 164.886 104.764 164.886Z" fill="#BF8C5C"/>
<path d="M104.325 167.696C104.446 167.696 104.544 167.598 104.544 167.477C104.544 167.355 104.446 167.257 104.325 167.257C104.204 167.257 104.105 167.355 104.105 167.477C104.105 167.598 104.204 167.696 104.325 167.696Z" fill="#BF8C5C"/>
<path d="M101.674 168.864C101.834 168.864 101.963 168.734 101.963 168.574C101.963 168.414 101.834 168.284 101.674 168.284C101.514 168.284 101.384 168.414 101.384 168.574C101.384 168.734 101.514 168.864 101.674 168.864Z" fill="#BF8C5C"/>
<path d="M93.4118 161.243C93.6009 161.243 93.7542 161.09 93.7542 160.9C93.7542 160.711 93.6009 160.558 93.4118 160.558C93.2226 160.558 93.0693 160.711 93.0693 160.9C93.0693 161.09 93.2226 161.243 93.4118 161.243Z" fill="#BF8C5C"/>
<path d="M94.2458 152.164C94.3913 152.164 94.5092 152.046 94.5092 151.901C94.5092 151.755 94.3913 151.638 94.2458 151.638C94.1004 151.638 93.9824 151.755 93.9824 151.901C93.9824 152.046 94.1004 152.164 94.2458 152.164Z" fill="#BF8C5C"/>
<path d="M104.878 170.628C105.062 170.628 105.212 170.479 105.212 170.295C105.212 170.111 105.062 169.961 104.878 169.961C104.694 169.961 104.544 170.111 104.544 170.295C104.544 170.479 104.694 170.628 104.878 170.628Z" fill="#BF8C5C"/>
<path d="M107.776 167.591C107.96 167.591 108.109 167.441 108.109 167.257C108.109 167.073 107.96 166.923 107.776 166.923C107.591 166.923 107.442 167.073 107.442 167.257C107.442 167.441 107.591 167.591 107.776 167.591Z" fill="#BF8C5C"/>
<path d="M77.2125 164.649C77.3968 164.649 77.5462 164.5 77.5462 164.316C77.5462 164.131 77.3968 163.982 77.2125 163.982C77.0283 163.982 76.8789 164.131 76.8789 164.316C76.8789 164.5 77.0283 164.649 77.2125 164.649Z" fill="#BF8C5C"/>
<path d="M113.685 243.089L122.974 240.482C122.974 240.482 130.156 233.124 131.385 233.739C133.343 234.722 128.953 240.455 127.311 242.326C125.432 244.459 120.489 247.146 120.489 247.146L113.693 243.089H113.685Z" fill="#E0B585"/>
<path d="M122.28 250.386C122.28 250.386 131.244 248.489 133.501 242.484C135.757 236.478 137.25 233.607 135.889 233.212C134.089 232.694 128.347 242.44 128.347 242.44L119.795 246.206L122.28 250.377V250.386Z" fill="#E0B585"/>
<path d="M122.815 253.564C122.815 253.564 131.859 250.851 135.292 245.443C138.435 240.482 139.506 236.461 137.768 237.163C136.029 237.865 130.682 244.837 130.682 244.837L120.331 249.402L122.815 253.573V253.564Z" fill="#E0B585"/>
<path d="M117.231 260.061C117.231 260.061 130.665 254.556 132.245 251.729C133.826 248.902 135.283 245.434 135.283 245.434L124.194 251.975L117.223 260.061H117.231Z" fill="#E0B585"/>
<path d="M42.9878 279.518C42.9878 279.518 33.0138 273.293 28.3955 255.794C28.3955 255.794 24.4533 282.845 42.9878 279.518Z" fill="#0B8E69"/>
<path d="M228.263 185.511C228.263 185.511 225.541 192.824 228.263 200.138C230.984 207.452 250.748 182.929 269.897 181.41C269.897 181.41 293.357 190.032 298.458 204.063C298.458 204.063 323.876 264.223 293.717 289.588C293.717 289.588 295.71 274.013 274.226 266.26L245.12 267.849L187.682 245.337C187.682 245.337 190.403 204.572 228.254 185.519L228.263 185.511Z" fill="#3373CC"/>
<path d="M200.377 243.054C200.377 243.054 201.87 237.356 202.581 235.486C203.082 234.187 204.811 230.394 204.811 230.394C204.811 230.394 263.453 230.323 272.531 232.352C278.668 233.721 275.894 234.915 275.025 245.399C274.63 250.166 274.068 259.201 274.234 266.251L200.377 247.146V243.054Z" fill="#E64D00"/>
<path d="M228.263 185.511C228.263 185.511 228.263 200.138 229.299 201.332C230.905 203.193 249.484 183.676 269.906 181.402L276.456 184.299C276.456 184.299 236.358 206.293 228.263 213.018C220.168 219.744 215.514 196.099 218.473 191.42C218.473 191.42 222.477 188.197 228.263 185.511Z" fill="#FFAB1A"/>
<path d="M269.906 265.136C269.906 265.136 274.507 256.786 274.63 255.601C274.753 254.416 308.801 258.657 302.77 278.271C302.77 278.271 296.492 293.32 290.952 293.443C290.952 293.443 288.16 276.287 269.897 265.145L269.906 265.136Z" fill="#FFAB1A"/>
<path d="M241.125 300.01L176.68 297.596L190.948 289.272C191.123 289.176 191.325 289.132 191.536 289.132L251.099 291.213C252.267 291.256 252.627 292.811 251.6 293.364L241.125 300.01Z" fill="#4D5466"/>
<path d="M238.667 300.756L177.69 297.701C175.267 297.701 173.3 295.734 173.3 293.311L171.482 243.994C171.482 241.571 173.449 239.604 175.872 239.604L240.721 242.659C243.144 242.659 245.111 244.626 245.111 247.049L243.057 296.366C243.057 298.79 241.09 300.756 238.667 300.756Z" fill="#4E5466"/>
<path opacity="0.2" d="M204.873 277.112C208.466 277.112 211.379 274.69 211.379 271.703C211.379 268.716 208.466 266.295 204.873 266.295C201.28 266.295 198.367 268.716 198.367 271.703C198.367 274.69 201.28 277.112 204.873 277.112Z" fill="black"/>
<path fill-rule="evenodd" clip-rule="evenodd" d="M125.396 150.375C125.469 149.682 126.091 149.179 126.785 149.252L130.033 149.596C130.366 149.631 130.672 149.797 130.882 150.057L132.471 152.022C132.681 152.282 132.987 152.448 133.32 152.484L137.304 152.905C137.637 152.94 137.971 152.842 138.231 152.631L140.195 151.043C140.456 150.832 140.789 150.733 141.122 150.769L141.23 150.78L167.284 153.536C167.978 153.609 168.481 154.231 168.407 154.925L168.275 156.181L167.306 165.34L139.996 162.452L139.996 162.452L167.306 165.34C167.232 166.034 166.61 166.537 165.917 166.464L139.863 163.708L139.863 163.708L139.755 163.696C139.422 163.661 139.088 163.76 138.828 163.97L136.864 165.559C136.603 165.769 136.27 165.868 135.936 165.833L131.953 165.411C131.619 165.376 131.314 165.21 131.103 164.95L129.515 162.985C129.304 162.725 128.999 162.559 128.666 162.523L125.417 162.18C124.724 162.106 124.221 161.485 124.294 160.791L125.263 151.631L125.396 150.375Z" fill="#9966FF"/>
<path fill-rule="evenodd" clip-rule="evenodd" d="M146.563 111.415C146.563 111.415 152.019 107.02 163.652 109.504C175.285 111.989 178.471 118.229 178.471 118.229L189.882 120.666C190.616 120.823 191.084 121.545 190.928 122.28L190.644 123.609L188.089 135.575L188.089 135.575C187.932 136.309 187.209 136.777 186.475 136.62L159.774 130.918L160.058 129.589L160.058 129.589L159.774 130.918L159.66 130.894C159.308 130.819 158.94 130.887 158.637 131.083L156.355 132.561C156.053 132.757 155.685 132.825 155.332 132.75L151.115 131.849C150.763 131.774 150.455 131.562 150.258 131.259L148.78 128.978C148.584 128.675 148.275 128.463 147.923 128.387L144.485 127.653C143.751 127.496 143.283 126.774 143.439 126.04L145.995 114.074L146.563 111.415Z" fill="#FFBF00"/>
<path fill-rule="evenodd" clip-rule="evenodd" d="M180.288 33.5676L144.644 46.3365L144.508 46.3851C144.088 46.5357 143.744 46.847 143.554 47.2505L142.116 50.2938C141.925 50.6973 141.582 51.0086 141.162 51.1591L136.137 52.9592C135.717 53.1097 135.254 53.0872 134.85 52.8965L131.807 51.4585C131.404 51.2679 130.941 51.2453 130.521 51.3958L126.424 52.8634C125.549 53.1769 125.094 54.1403 125.407 55.0153L125.975 56.5996L131.083 70.8587L132.785 75.6117L139.123 73.3414L138.555 71.7571C138.242 70.8821 138.697 69.9186 139.572 69.6052L143.669 68.1376C144.089 67.9871 144.552 68.0096 144.955 68.2003L147.998 69.6382C148.402 69.8289 148.865 69.8515 149.285 69.701L154.31 67.9009C154.73 67.7504 155.073 67.4391 155.264 67.0355L156.702 63.9923C156.892 63.5887 157.236 63.2774 157.656 63.1269L157.792 63.0782L157.224 61.4939L157.224 61.4939L157.792 63.0782L187.098 52.5796C187.973 52.2661 188.429 51.3027 188.115 50.4277L183.007 36.1687L141.162 51.1591L145.779 49.5051L183.007 36.1687L182.44 34.5843C182.126 33.7093 181.163 33.2541 180.288 33.5676ZM139.46 74.2828L139.123 73.3414L132.785 75.6117L133.123 76.5531L133.69 78.1374L134.258 79.7217L134.258 79.7218L137.663 89.2278L194.696 68.7968L191.29 59.2908L190.723 57.7065C190.409 56.8315 189.446 56.3762 188.571 56.6897L159.264 67.1883L159.128 67.237C158.708 67.3875 158.365 67.6988 158.174 68.1024L156.736 71.1456C156.546 71.5475 156.205 71.8578 155.787 72.0091L150.752 73.8129C150.333 73.9614 149.873 73.9382 149.471 73.7483L146.428 72.3104C146.024 72.1197 145.561 72.0972 145.141 72.2477L139.46 74.2828ZM193.679 70.9487C194.554 70.6353 195.009 69.6718 194.696 68.7968L157.467 82.1333L137.663 89.2278C137.976 90.1028 138.94 90.558 139.815 90.2446L143.912 88.777C144.332 88.6264 144.795 88.649 145.198 88.8397L148.241 90.2776C148.645 90.4683 149.108 90.4909 149.528 90.3403L154.553 88.5403C154.973 88.3897 155.316 88.0785 155.507 87.6749L156.945 84.6317C157.135 84.2281 157.479 83.9168 157.899 83.7663L158.035 83.7176L193.679 70.9487Z" fill="#FFAB19"/>
<path d="M132.37 191.08C131.613 187.888 133.587 184.687 136.779 183.931L151.805 180.37C154.997 179.613 158.198 181.587 158.954 184.779C159.71 187.971 157.736 191.172 154.544 191.928L139.519 195.489C136.327 196.246 133.126 194.271 132.37 191.08Z" fill="#5CB1D6"/>
<rect x="141.874" y="50.3332" width="43.3422" height="3" rx="1" transform="rotate(-20.718 141.874 50.3332)" fill="#FFAB19"/>
<rect x="155" y="60.5649" width="4.42352" height="3" rx="1" transform="rotate(-20.718 155 60.5649)" fill="#FFAB19"/>
<rect x="132.447" y="74.1522" width="6.31243" height="3" rx="1" transform="rotate(-20.718 132.447 74.1522)" fill="#FFAB19"/>
<rect x="137.118" y="86.9597" width="60.1467" height="3.39425" rx="1" transform="rotate(-19.631 137.118 86.9597)" fill="#FFAB19"/>
<rect x="159.359" y="129" width="3" height="1.69146" transform="rotate(10.3535 159.359 129)" fill="#FFBF00"/>
<rect x="139.142" y="160.957" width="28.3299" height="1.89831" rx="0.949155" transform="rotate(6.37279 139.142 160.957)" fill="#9966FF"/>
</g>
<defs>
<clipPath id="clip0_236_7029">
<rect width="337" height="333" fill="white"/>
</clipPath>
</defs>
</svg>
