<svg width="1188" height="271" viewBox="0 0 1188 271" fill="none" xmlns="http://www.w3.org/2000/svg">
<path fill-rule="evenodd" clip-rule="evenodd" d="M55.0632 150.727C56.1849 150.412 57.3756 150.444 58.4792 150.817C59.5827 151.191 60.5477 151.889 61.2475 152.821L120.891 232.134C121.456 232.885 121.829 233.763 121.977 234.69C122.126 235.618 122.047 236.568 121.746 237.458C121.445 238.349 120.931 239.152 120.249 239.799C119.568 240.446 118.739 240.917 117.834 241.171L107.517 244.07C106.395 244.385 105.204 244.353 104.101 243.98C102.997 243.606 102.032 242.908 101.332 241.977L92.5248 230.269L49.8624 242.255L48.4413 256.837C48.3291 257.997 47.869 259.095 47.1215 259.989C46.3739 260.883 45.3738 261.53 44.2522 261.845L33.9344 264.744C33.0298 264.998 32.0768 265.028 31.1581 264.83C30.2394 264.633 29.3827 264.215 28.6621 263.612C27.9414 263.009 27.3787 262.239 27.0225 261.369C26.6664 260.5 26.5276 259.557 26.6181 258.621L36.2266 159.85C36.3389 158.691 36.799 157.592 37.5465 156.699C38.294 155.805 39.2942 155.158 40.4158 154.843L55.0632 150.727ZM55.7811 181.406L52.2618 217.563L77.6166 210.44L55.7811 181.406Z" fill="#9966FF"/>
<path d="M54.2819 147.945L54.2814 147.945L39.634 152.06L39.6335 152.06C37.9511 152.533 36.4509 153.504 35.3296 154.844C34.2086 156.184 33.5185 157.832 33.3499 159.571C33.3499 159.571 33.3498 159.572 33.3498 159.572L23.7414 258.342L23.7412 258.343C23.6054 259.746 23.8136 261.161 24.3479 262.465C24.8821 263.769 25.7263 264.924 26.8072 265.828L28.6621 263.612L26.8072 265.828C27.8881 266.733 29.1732 267.36 30.5513 267.656L31.1568 264.837L30.5513 267.656C31.9293 267.952 33.3588 267.908 34.7158 267.527L34.7163 267.526L45.034 264.628L45.0345 264.627C46.7169 264.154 48.2171 263.184 49.3384 261.844L47.1215 259.989L49.3384 261.844C50.4593 260.504 51.1493 258.856 51.318 257.117C51.318 257.117 51.3181 257.117 51.3181 257.116C51.3181 257.116 51.3182 257.116 51.3182 257.116L52.5474 244.503L91.4035 233.586L99.0215 243.713C100.071 245.11 101.519 246.157 103.174 246.718C104.829 247.278 106.615 247.325 108.298 246.853L108.298 246.852L118.616 243.953L118.617 243.953C119.974 243.572 121.217 242.865 122.239 241.895L120.249 239.799L122.239 241.895C123.262 240.925 124.032 239.72 124.484 238.385C124.935 237.049 125.055 235.624 124.831 234.233C124.608 232.841 124.049 231.525 123.202 230.398L123.202 230.397L63.5583 151.084C63.5581 151.084 63.5578 151.084 63.5575 151.083C62.5079 149.687 61.0608 148.64 59.4058 148.079C57.7505 147.519 55.9644 147.472 54.2819 147.945ZM72.7669 208.8L55.5479 213.638L57.9379 189.083L72.7669 208.8Z" stroke="black" stroke-opacity="0.3" stroke-width="5.78062"/>
<path fill-rule="evenodd" clip-rule="evenodd" d="M119.518 128.052C120.772 127.728 122.094 127.791 123.312 128.231C124.529 128.672 125.586 129.47 126.342 130.522L190.78 220.036C191.39 220.884 191.784 221.868 191.928 222.902C192.072 223.937 191.961 224.991 191.606 225.973C191.251 226.955 190.661 227.836 189.889 228.539C189.117 229.242 188.185 229.746 187.174 230.007L175.641 232.99C174.388 233.314 173.065 233.251 171.848 232.811C170.63 232.37 169.574 231.572 168.818 230.52L159.302 217.307L111.618 229.637L109.701 245.808C109.55 247.094 109.013 248.304 108.162 249.28C107.31 250.255 106.184 250.951 104.93 251.275L93.398 254.258C92.3868 254.519 91.3272 254.53 90.3109 254.289C89.2947 254.049 88.3523 253.564 87.5655 252.877C86.7788 252.191 86.1713 251.322 85.7957 250.348C85.42 249.373 85.2877 248.322 85.4099 247.285L98.3755 137.753C98.5272 136.467 99.0638 135.257 99.9152 134.282C100.767 133.306 101.893 132.61 103.147 132.286L119.518 128.052ZM119.605 162.159L114.857 202.255L143.196 194.927L119.605 162.159Z" fill="#CF63CF"/>
<path d="M118.714 124.942L118.714 124.942L102.342 129.176L102.342 129.176C100.461 129.663 98.7718 130.706 97.4947 132.17C96.2177 133.633 95.4127 135.448 95.1852 137.377L82.2198 246.907L82.2196 246.909C82.0362 248.465 82.2348 250.042 82.7982 251.503C83.3616 252.965 84.2729 254.267 85.453 255.298C86.6332 256.328 88.0467 257.055 89.5711 257.415C91.0956 257.776 92.685 257.76 94.2017 257.368L94.2022 257.368L105.734 254.386L105.735 254.385C107.615 253.899 109.305 252.855 110.582 251.392C111.859 249.928 112.664 248.113 112.892 246.184L114.55 232.198L157.979 220.967L166.21 232.396C166.21 232.396 166.211 232.397 166.211 232.398C167.345 233.974 168.929 235.171 170.755 235.831C172.581 236.492 174.565 236.586 176.445 236.1L176.446 236.1L187.978 233.118L187.979 233.117C189.495 232.725 190.893 231.969 192.052 230.914C193.21 229.86 194.094 228.539 194.627 227.065C195.16 225.592 195.325 224.011 195.109 222.46C194.894 220.908 194.303 219.433 193.388 218.161L193.387 218.16L128.95 128.646C128.949 128.646 128.949 128.645 128.949 128.645C127.815 127.068 126.231 125.871 124.405 125.211C122.579 124.55 120.595 124.456 118.714 124.942ZM137.845 192.993L118.599 197.97L121.824 170.739L137.845 192.993Z" stroke="black" stroke-opacity="0.3" stroke-width="6.42482"/>
<path fill-rule="evenodd" clip-rule="evenodd" d="M197.757 96.4821C199.179 96.2298 200.645 96.4133 201.961 97.0083C203.277 97.6033 204.383 98.5821 205.133 99.8165L269.081 204.923C269.686 205.919 270.039 207.047 270.11 208.21C270.181 209.372 269.967 210.535 269.488 211.597C269.008 212.658 268.277 213.587 267.357 214.302C266.438 215.017 265.358 215.498 264.211 215.702L251.128 218.024C249.706 218.276 248.241 218.093 246.925 217.498C245.608 216.903 244.503 215.924 243.752 214.69L234.309 199.174L180.215 208.777L176.689 226.596C176.41 228.013 175.708 229.312 174.678 230.324C173.647 231.336 172.334 232.012 170.912 232.265L157.829 234.588C156.682 234.791 155.503 234.712 154.394 234.357C153.284 234.002 152.278 233.381 151.462 232.55C150.646 231.718 150.045 230.7 149.712 229.584C149.378 228.468 149.321 227.287 149.547 226.144L173.408 105.449C173.687 104.032 174.388 102.732 175.419 101.72C176.45 100.709 177.763 100.032 179.185 99.7792L197.757 96.4821ZM194.914 134.421L186.177 178.604L218.325 172.897L194.914 134.421Z" fill="#FF6680"/>
<path d="M197.131 92.9538L197.131 92.9539L178.559 96.2511L178.558 96.2512C176.425 96.6303 174.456 97.6451 172.909 99.1627C171.363 100.68 170.312 102.629 169.892 104.754C169.892 104.754 169.892 104.755 169.892 104.755L146.031 225.449L146.031 225.451C145.693 227.166 145.778 228.936 146.279 230.611C146.779 232.285 147.68 233.812 148.904 235.059L151.435 232.576L148.904 235.059C150.128 236.307 151.637 237.237 153.301 237.77C154.966 238.302 156.735 238.421 158.455 238.116L158.456 238.116L171.538 235.793L171.539 235.793C173.672 235.414 175.641 234.399 177.187 232.882C178.734 231.364 179.786 229.415 180.205 227.289L183.254 211.877L232.522 203.13L240.69 216.551C240.691 216.551 240.691 216.552 240.691 216.552C240.691 216.552 240.691 216.552 240.692 216.553C241.817 218.403 243.475 219.871 245.448 220.763C247.423 221.656 249.621 221.931 251.754 221.552L251.755 221.552L264.837 219.23L264.838 219.23C266.558 218.924 268.178 218.203 269.557 217.13C270.937 216.057 272.033 214.664 272.753 213.072C273.473 211.48 273.793 209.736 273.687 207.992C273.581 206.247 273.051 204.555 272.143 203.062L272.142 203.061L208.195 97.9554C207.07 96.1039 205.411 94.6356 203.437 93.7431L201.961 97.0083L203.437 93.7431C201.463 92.8506 199.265 92.5754 197.131 92.9538ZM212.541 170.284L190.708 174.16L196.642 144.155L212.541 170.284Z" stroke="black" stroke-opacity="0.3" stroke-width="7.16667"/>
<path fill-rule="evenodd" clip-rule="evenodd" d="M278.493 76.3593C279.95 76.0826 281.458 76.2529 282.817 76.8478C284.176 77.4427 285.324 78.4344 286.11 79.693L353.096 186.863C353.729 187.878 354.106 189.032 354.193 190.225C354.281 191.419 354.076 192.616 353.596 193.712C353.116 194.808 352.377 195.771 351.441 196.517C350.506 197.263 349.402 197.77 348.227 197.994L334.818 200.541C333.36 200.818 331.853 200.648 330.493 200.053C329.134 199.458 327.986 198.466 327.2 197.208L317.308 181.387L261.864 191.921L258.463 210.267C258.194 211.726 257.489 213.07 256.443 214.122C255.397 215.174 254.057 215.885 252.599 216.162L239.19 218.71C238.015 218.933 236.802 218.866 235.658 218.515C234.514 218.164 233.473 217.539 232.625 216.695C231.776 215.851 231.147 214.813 230.79 213.671C230.433 212.528 230.361 211.316 230.578 210.14L253.593 85.8709C253.862 84.4118 254.566 83.0682 255.613 82.0163C256.659 80.9644 257.999 80.2532 259.457 79.976L278.493 76.3593ZM276.042 115.364L267.614 160.855L300.565 154.594L276.042 115.364Z" fill="#FFAB19"/>
<path d="M277.806 72.743L277.806 72.7431L258.77 76.3597L258.769 76.3599C256.583 76.7757 254.573 77.8425 253.003 79.4204C251.434 80.9983 250.377 83.0137 249.973 85.2023L226.959 209.469L226.958 209.471C226.632 211.236 226.741 213.054 227.276 214.768C227.811 216.481 228.756 218.038 230.028 219.304C231.301 220.571 232.862 221.507 234.578 222.034C236.295 222.56 238.113 222.661 239.877 222.326L239.877 222.326L253.286 219.778L253.287 219.778C255.473 219.362 257.483 218.296 259.053 216.718C260.622 215.14 261.679 213.124 262.083 210.936L265.024 195.068L315.522 185.474L324.078 199.157C324.078 199.158 324.079 199.159 324.079 199.159C325.258 201.046 326.979 202.533 329.017 203.425L330.493 200.053L329.018 203.425C331.056 204.317 333.317 204.573 335.504 204.158L335.505 204.158L348.914 201.61L348.914 201.61C350.678 201.275 352.333 200.514 353.736 199.395C355.14 198.276 356.249 196.832 356.968 195.187C357.688 193.543 357.995 191.747 357.865 189.957C357.734 188.167 357.169 186.436 356.218 184.913L356.217 184.912L289.232 77.7434C288.053 75.8556 286.332 74.368 284.293 73.4757C282.254 72.5833 279.993 72.328 277.806 72.743ZM294.592 151.983L272.214 156.234L277.937 125.34L294.592 151.983Z" stroke="black" stroke-opacity="0.3" stroke-width="7.36182"/>
<path fill-rule="evenodd" clip-rule="evenodd" d="M368.438 58.7329C369.933 58.5449 371.451 58.8132 372.791 59.5026C374.132 60.1921 375.232 61.2705 375.949 62.5965L437.065 175.511C437.643 176.58 437.952 177.774 437.964 178.99C437.977 180.205 437.693 181.406 437.137 182.487C436.581 183.568 435.77 184.498 434.774 185.195C433.778 185.892 432.627 186.336 431.421 186.488L417.664 188.22C416.168 188.408 414.651 188.139 413.31 187.45C411.97 186.76 410.869 185.682 410.152 184.356L401.126 167.687L344.242 174.848L339.629 193.234C339.263 194.696 338.464 196.014 337.336 197.014C336.208 198.014 334.804 198.65 333.309 198.839L319.552 200.57C318.345 200.722 317.12 200.577 315.983 200.149C314.845 199.72 313.829 199.021 313.022 198.111C312.216 197.202 311.643 196.109 311.354 194.928C311.065 193.747 311.068 192.514 311.363 191.334L342.587 66.7963C342.953 65.334 343.752 64.0164 344.88 63.0162C346.008 62.016 347.412 61.38 348.907 61.1915L368.438 58.7329ZM363.476 98.1252L352.044 143.714L385.851 139.458L363.476 98.1252Z" fill="#FFBF00"/>
<path d="M367.971 55.0226L367.97 55.0227L348.44 57.4813L348.439 57.4814C346.196 57.7642 344.091 58.7182 342.399 60.2185C340.708 61.7183 339.509 63.6941 338.96 65.8869C338.96 65.8874 338.96 65.888 338.96 65.8886L307.736 190.425L307.736 190.427C307.293 192.196 307.288 194.046 307.722 195.817C308.156 197.589 309.015 199.227 310.224 200.592C311.434 201.957 312.958 203.006 314.665 203.648C316.371 204.291 318.209 204.508 320.018 204.281L320.019 204.281L333.776 202.549L333.777 202.549C336.02 202.266 338.125 201.312 339.817 199.812C341.508 198.312 342.707 196.336 343.256 194.144C343.256 194.144 343.256 194.143 343.256 194.143C343.256 194.143 343.256 194.142 343.256 194.141L347.246 178.239L399.056 171.717L406.863 186.134C407.938 188.123 409.589 189.741 411.6 190.775C413.611 191.809 415.887 192.212 418.13 191.93L418.131 191.93L431.888 190.198L431.889 190.198C433.698 189.97 435.425 189.304 436.919 188.258C438.413 187.213 439.629 185.819 440.463 184.197C441.297 182.575 441.723 180.774 441.704 178.951C441.685 177.128 441.222 175.336 440.354 173.732L440.353 173.731L379.239 60.818C378.163 58.829 376.512 57.2114 374.501 56.1772L372.791 59.5026L374.501 56.1772C372.491 55.143 370.215 54.7406 367.971 55.0226ZM379.96 136.431L357.001 139.321L364.765 108.361L379.96 136.431Z" stroke="black" stroke-opacity="0.3" stroke-width="7.47895"/>
<path fill-rule="evenodd" clip-rule="evenodd" d="M458.893 48.827C460.481 48.7606 462.053 49.1757 463.401 50.018C464.75 50.8603 465.812 52.0904 466.45 53.5471L520.789 177.598C521.303 178.773 521.523 180.055 521.43 181.334C521.336 182.613 520.933 183.85 520.253 184.938C519.574 186.025 518.64 186.931 517.532 187.577C516.424 188.222 515.175 188.588 513.894 188.642L499.281 189.256C497.692 189.322 496.121 188.907 494.772 188.065C493.424 187.222 492.361 185.992 491.724 184.535L483.698 166.223L423.275 168.761L416.814 187.682C416.301 189.187 415.345 190.502 414.072 191.455C412.799 192.407 411.268 192.953 409.679 193.02L395.066 193.634C393.785 193.687 392.51 193.428 391.352 192.877C390.193 192.327 389.187 191.503 388.419 190.476C387.651 189.449 387.145 188.25 386.944 186.984C386.744 185.717 386.855 184.421 387.269 183.207L431.013 55.0358C431.525 53.5308 432.481 52.2159 433.754 51.2635C435.027 50.311 436.559 49.7656 438.147 49.6986L458.893 48.827ZM450.223 89.7996L434.207 136.718L470.117 135.21L450.223 89.7996Z" fill="white"/>
<path d="M458.728 44.886L458.727 44.8861L437.982 45.7576L437.981 45.7576C435.598 45.8581 433.301 46.6764 431.392 48.105C429.482 49.5333 428.049 51.505 427.28 53.7618C427.279 53.7624 427.279 53.7629 427.279 53.7635L383.536 181.933L383.535 181.935C382.915 183.755 382.748 185.7 383.048 187.6C383.349 189.5 384.108 191.298 385.26 192.838C386.412 194.379 387.922 195.615 389.659 196.44C391.397 197.266 393.309 197.655 395.231 197.575L395.232 197.575L409.845 196.961L409.845 196.961C412.228 196.86 414.525 196.042 416.435 194.613C418.345 193.185 419.778 191.212 420.547 188.955L426.136 172.589L481.168 170.277L488.11 186.116C489.066 188.301 490.66 190.147 492.683 191.41C494.706 192.674 497.063 193.296 499.446 193.197L499.447 193.197L514.06 192.583L514.06 192.583C515.982 192.502 517.855 191.953 519.517 190.985C521.18 190.017 522.581 188.658 523.599 187.027C524.618 185.395 525.224 183.54 525.364 181.621C525.504 179.703 525.174 177.779 524.403 176.017L524.402 176.015L470.064 51.9662C469.108 49.7811 467.514 47.9359 465.491 46.6725C463.468 45.4091 461.111 44.7864 458.728 44.886ZM464.19 131.511L439.803 132.535L450.68 100.672L464.19 131.511Z" stroke="black" stroke-opacity="0.3" stroke-width="7.88889"/>
<path fill-rule="evenodd" clip-rule="evenodd" d="M713.063 110.727C714.185 110.412 715.376 110.444 716.479 110.817C717.583 111.191 718.548 111.889 719.247 112.821L778.891 192.134C779.456 192.885 779.829 193.763 779.977 194.69C780.126 195.618 780.047 196.568 779.746 197.458C779.445 198.349 778.931 199.152 778.249 199.799C777.568 200.446 776.739 200.917 775.834 201.171L765.517 204.07C764.395 204.385 763.204 204.353 762.101 203.98C760.997 203.606 760.032 202.908 759.332 201.977L750.525 190.269L707.862 202.255L706.441 216.837C706.329 217.997 705.869 219.095 705.121 219.989C704.374 220.883 703.374 221.53 702.252 221.845L691.934 224.744C691.03 224.998 690.077 225.028 689.158 224.83C688.239 224.633 687.383 224.215 686.662 223.612C685.941 223.009 685.379 222.239 685.023 221.369C684.666 220.5 684.528 219.557 684.618 218.621L694.227 119.85C694.339 118.691 694.799 117.592 695.547 116.699C696.294 115.805 697.294 115.158 698.416 114.843L713.063 110.727ZM713.781 141.406L710.262 177.563L735.617 170.44L713.781 141.406Z" fill="#9966FF"/>
<path d="M712.282 107.945L712.281 107.945L697.634 112.06L697.633 112.06C695.951 112.533 694.451 113.504 693.33 114.844C692.209 116.184 691.519 117.832 691.35 119.571C691.35 119.571 691.35 119.572 691.35 119.572L681.741 218.342L681.741 218.343C681.605 219.746 681.814 221.161 682.348 222.465C682.882 223.769 683.726 224.924 684.807 225.828L686.662 223.612L684.807 225.828C685.888 226.733 687.173 227.36 688.551 227.656L689.157 224.837L688.551 227.656C689.929 227.952 691.359 227.908 692.716 227.527L692.716 227.526L703.034 224.628L703.035 224.627C704.717 224.154 706.217 223.184 707.338 221.844L705.121 219.989L707.338 221.844C708.459 220.504 709.149 218.856 709.318 217.117C709.318 217.117 709.318 217.117 709.318 217.116C709.318 217.116 709.318 217.116 709.318 217.116L710.547 204.503L749.403 193.586L757.022 203.713C758.071 205.11 759.519 206.157 761.174 206.718C762.829 207.278 764.615 207.325 766.298 206.853L766.298 206.852L776.616 203.953L776.617 203.953C777.974 203.572 779.217 202.865 780.239 201.895L778.249 199.799L780.239 201.895C781.262 200.925 782.032 199.72 782.484 198.385C782.935 197.049 783.055 195.624 782.831 194.233C782.608 192.841 782.049 191.525 781.202 190.398L781.202 190.397L721.558 111.084C721.558 111.084 721.558 111.084 721.558 111.083C720.508 109.687 719.061 108.64 717.406 108.079C715.75 107.519 713.964 107.472 712.282 107.945ZM730.767 168.8L713.548 173.638L715.938 149.083L730.767 168.8Z" stroke="black" stroke-opacity="0.3" stroke-width="5.78062"/>
<path fill-rule="evenodd" clip-rule="evenodd" d="M777.518 88.0522C778.772 87.7282 780.094 87.7906 781.312 88.2313C782.529 88.6719 783.586 89.4702 784.342 90.5215L848.78 180.036C849.39 180.884 849.784 181.868 849.928 182.902C850.072 183.937 849.961 184.991 849.606 185.973C849.251 186.955 848.661 187.836 847.889 188.539C847.117 189.242 846.185 189.746 845.174 190.007L833.641 192.99C832.388 193.314 831.065 193.251 829.848 192.811C828.63 192.37 827.574 191.572 826.818 190.52L817.302 177.307L769.618 189.637L767.701 205.808C767.55 207.094 767.013 208.304 766.162 209.28C765.31 210.255 764.184 210.951 762.93 211.275L751.398 214.258C750.387 214.519 749.327 214.53 748.311 214.289C747.295 214.049 746.352 213.564 745.566 212.877C744.779 212.191 744.171 211.322 743.796 210.348C743.42 209.373 743.288 208.322 743.41 207.285L756.376 97.7535C756.527 96.4675 757.064 95.2573 757.915 94.2816C758.767 93.3059 759.893 92.6102 761.147 92.2858L777.518 88.0522ZM777.605 122.159L772.857 162.255L801.196 154.927L777.605 122.159Z" fill="#CF63CF"/>
<path d="M776.714 84.9419L776.714 84.9421L760.342 89.1757L760.342 89.1759C758.461 89.6625 756.772 90.706 755.495 92.1695C754.218 93.633 753.413 95.4483 753.185 97.3773L740.22 206.907L740.22 206.909C740.036 208.465 740.235 210.042 740.798 211.503C741.362 212.965 742.273 214.267 743.453 215.298C744.633 216.328 746.047 217.055 747.571 217.415C749.096 217.776 750.685 217.76 752.202 217.368L752.202 217.368L763.734 214.386L763.735 214.385C765.615 213.899 767.305 212.855 768.582 211.392C769.859 209.928 770.664 208.113 770.892 206.184L772.55 192.198L815.979 180.967L824.21 192.396C824.21 192.396 824.211 192.397 824.211 192.398C825.345 193.974 826.929 195.171 828.755 195.831C830.581 196.492 832.565 196.586 834.445 196.1L834.446 196.1L845.978 193.118L845.979 193.117C847.495 192.725 848.893 191.969 850.052 190.914C851.21 189.86 852.094 188.539 852.627 187.065C853.16 185.592 853.325 184.011 853.109 182.46C852.894 180.908 852.303 179.433 851.388 178.161L851.387 178.16L786.95 88.6459C786.949 88.6455 786.949 88.6451 786.949 88.6447C785.815 87.0684 784.231 85.8714 782.405 85.2106C780.579 84.5496 778.595 84.456 776.714 84.9419ZM795.845 152.993L776.599 157.97L779.824 130.739L795.845 152.993Z" stroke="black" stroke-opacity="0.3" stroke-width="6.42482"/>
<path fill-rule="evenodd" clip-rule="evenodd" d="M855.757 56.4821C857.179 56.2298 858.645 56.4133 859.961 57.0083C861.277 57.6033 862.383 58.5821 863.133 59.8165L927.081 164.923C927.686 165.919 928.039 167.047 928.11 168.21C928.181 169.372 927.967 170.535 927.488 171.597C927.008 172.658 926.277 173.587 925.357 174.302C924.438 175.017 923.358 175.498 922.211 175.702L909.128 178.024C907.706 178.276 906.241 178.093 904.925 177.498C903.608 176.903 902.503 175.924 901.752 174.69L892.309 159.174L838.215 168.777L834.689 186.596C834.41 188.013 833.708 189.312 832.678 190.324C831.647 191.336 830.334 192.012 828.912 192.265L815.829 194.588C814.682 194.791 813.503 194.712 812.394 194.357C811.284 194.002 810.278 193.381 809.462 192.55C808.646 191.718 808.045 190.7 807.712 189.584C807.378 188.468 807.321 187.287 807.547 186.144L831.408 65.4487C831.687 64.0316 832.388 62.732 833.419 61.7202C834.45 60.7085 835.763 60.032 837.185 59.7792L855.757 56.4821ZM852.914 94.4214L844.177 138.604L876.325 132.897L852.914 94.4214Z" fill="#FF6680"/>
<path d="M855.131 52.9538L855.131 52.9539L836.559 56.2511L836.558 56.2512C834.425 56.6303 832.456 57.6451 830.909 59.1627C829.363 60.6799 828.312 62.6287 827.892 64.7538C827.892 64.7543 827.892 64.7548 827.892 64.7554L804.031 185.449L804.031 185.451C803.693 187.166 803.778 188.936 804.279 190.611C804.779 192.285 805.68 193.812 806.904 195.059L809.435 192.576L806.904 195.059C808.128 196.307 809.637 197.237 811.301 197.77C812.966 198.302 814.735 198.421 816.455 198.116L816.456 198.116L829.538 195.793L829.539 195.793C831.672 195.414 833.641 194.399 835.187 192.882C836.734 191.364 837.786 189.415 838.205 187.289L841.254 171.877L890.522 163.13L898.69 176.551C898.691 176.551 898.691 176.552 898.691 176.552C898.691 176.552 898.691 176.552 898.692 176.553C899.817 178.403 901.475 179.871 903.448 180.763C905.423 181.656 907.621 181.931 909.754 181.552L909.755 181.552L922.837 179.23L922.838 179.23C924.558 178.924 926.178 178.203 927.557 177.13C928.937 176.057 930.033 174.664 930.753 173.072C931.473 171.48 931.793 169.736 931.687 167.992C931.581 166.247 931.051 164.555 930.143 163.062L930.142 163.061L866.195 57.9554C865.07 56.1039 863.411 54.6356 861.437 53.7431L859.961 57.0083L861.437 53.7431C859.463 52.8506 857.265 52.5754 855.131 52.9538ZM870.541 130.284L848.708 134.16L854.642 104.155L870.541 130.284Z" stroke="black" stroke-opacity="0.3" stroke-width="7.16667"/>
<path fill-rule="evenodd" clip-rule="evenodd" d="M936.493 36.3593C937.95 36.0826 939.458 36.2529 940.817 36.8478C942.176 37.4427 943.324 38.4344 944.11 39.693L1011.1 146.863C1011.73 147.878 1012.11 149.032 1012.19 150.225C1012.28 151.419 1012.08 152.616 1011.6 153.712C1011.12 154.808 1010.38 155.771 1009.44 156.517C1008.51 157.263 1007.4 157.77 1006.23 157.994L992.818 160.541C991.36 160.818 989.853 160.648 988.493 160.053C987.134 159.458 985.986 158.466 985.2 157.208L975.308 141.387L919.864 151.921L916.463 170.267C916.194 171.726 915.489 173.07 914.443 174.122C913.397 175.174 912.057 175.885 910.599 176.162L897.19 178.71C896.015 178.933 894.802 178.866 893.658 178.515C892.514 178.164 891.473 177.539 890.625 176.695C889.776 175.851 889.147 174.813 888.79 173.671C888.433 172.528 888.361 171.316 888.578 170.14L911.593 45.8709C911.862 44.4118 912.566 43.0682 913.613 42.0163C914.659 40.9644 915.999 40.2532 917.457 39.976L936.493 36.3593ZM934.042 75.3641L925.614 120.855L958.565 114.594L934.042 75.3641Z" fill="#FFAB19"/>
<path d="M935.806 32.743L935.806 32.7431L916.77 36.3597L916.769 36.3599C914.583 36.7757 912.573 37.8425 911.003 39.4204C909.434 40.9983 908.377 43.0137 907.973 45.2023L884.959 169.469L884.958 169.471C884.632 171.236 884.741 173.054 885.276 174.768C885.811 176.481 886.756 178.038 888.028 179.304C889.301 180.571 890.862 181.507 892.578 182.034C894.295 182.56 896.113 182.661 897.877 182.326L897.877 182.326L911.286 179.778L911.287 179.778C913.473 179.362 915.483 178.296 917.053 176.718C918.622 175.14 919.679 173.124 920.083 170.936L923.024 155.068L973.522 145.474L982.078 159.157C982.078 159.158 982.079 159.159 982.079 159.159C983.258 161.046 984.979 162.533 987.017 163.425L988.493 160.053L987.018 163.425C989.056 164.317 991.317 164.573 993.504 164.158L993.505 164.158L1006.91 161.61L1006.91 161.61C1008.68 161.275 1010.33 160.514 1011.74 159.395C1013.14 158.276 1014.25 156.832 1014.97 155.187C1015.69 153.543 1016 151.747 1015.86 149.957C1015.73 148.167 1015.17 146.436 1014.22 144.913L1014.22 144.912L947.232 37.7434C946.053 35.8556 944.332 34.368 942.293 33.4757C940.254 32.5833 937.993 32.328 935.806 32.743ZM952.592 111.983L930.214 116.234L935.937 85.3403L952.592 111.983Z" stroke="black" stroke-opacity="0.3" stroke-width="7.36182"/>
<path fill-rule="evenodd" clip-rule="evenodd" d="M1026.44 18.7329C1027.93 18.5449 1029.45 18.8132 1030.79 19.5026C1032.13 20.1921 1033.23 21.2705 1033.95 22.5965L1095.06 135.511C1095.64 136.58 1095.95 137.774 1095.96 138.99C1095.98 140.205 1095.69 141.406 1095.14 142.487C1094.58 143.568 1093.77 144.498 1092.77 145.195C1091.78 145.892 1090.63 146.336 1089.42 146.488L1075.66 148.22C1074.17 148.408 1072.65 148.139 1071.31 147.45C1069.97 146.76 1068.87 145.682 1068.15 144.356L1059.13 127.687L1002.24 134.848L997.629 153.234C997.263 154.696 996.463 156.014 995.336 157.014C994.208 158.014 992.804 158.65 991.309 158.839L977.551 160.57C976.345 160.722 975.12 160.577 973.982 160.149C972.845 159.72 971.829 159.021 971.022 158.111C970.216 157.202 969.643 156.109 969.354 154.928C969.065 153.747 969.068 152.514 969.363 151.334L1000.59 26.7963C1000.95 25.334 1001.75 24.0164 1002.88 23.0162C1004.01 22.016 1005.41 21.38 1006.91 21.1915L1026.44 18.7329ZM1021.48 58.1252L1010.04 103.714L1043.85 99.4585L1021.48 58.1252Z" fill="#FFBF00"/>
<path d="M1025.97 15.0226L1025.97 15.0227L1006.44 17.4813L1006.44 17.4814C1004.2 17.7642 1002.09 18.7182 1000.4 20.2185C998.707 21.7183 997.509 23.6941 996.96 25.8869C996.96 25.8874 996.959 25.888 996.959 25.8886L965.736 150.425L965.736 150.427C965.293 152.196 965.288 154.046 965.722 155.817C966.155 157.589 967.014 159.227 968.224 160.592C969.434 161.957 970.958 163.006 972.664 163.648C974.371 164.291 976.208 164.508 978.018 164.281L978.018 164.281L991.776 162.549L991.776 162.549C994.02 162.266 996.125 161.312 997.817 159.812C999.508 158.312 1000.71 156.336 1001.26 154.144C1001.26 154.144 1001.26 154.143 1001.26 154.143C1001.26 154.143 1001.26 154.142 1001.26 154.141L1005.25 138.239L1057.06 131.717L1064.86 146.134C1065.94 148.123 1067.59 149.741 1069.6 150.775C1071.61 151.809 1073.89 152.212 1076.13 151.93L1076.13 151.93L1089.89 150.198L1089.89 150.198C1091.7 149.97 1093.42 149.304 1094.92 148.258C1096.41 147.213 1097.63 145.819 1098.46 144.197C1099.3 142.575 1099.72 140.774 1099.7 138.951C1099.68 137.128 1099.22 135.336 1098.35 133.732L1098.35 133.731L1037.24 20.818C1036.16 18.829 1034.51 17.2114 1032.5 16.1772L1030.79 19.5026L1032.5 16.1772C1030.49 15.143 1028.21 14.7406 1025.97 15.0226ZM1037.96 96.4311L1015 99.3213L1022.76 68.3606L1037.96 96.4311Z" stroke="black" stroke-opacity="0.3" stroke-width="7.47895"/>
<path fill-rule="evenodd" clip-rule="evenodd" d="M1116.89 8.82704C1118.48 8.76059 1120.05 9.17572 1121.4 10.018C1122.75 10.8603 1123.81 12.0904 1124.45 13.5471L1178.79 137.598C1179.3 138.773 1179.52 140.055 1179.43 141.334C1179.34 142.613 1178.93 143.85 1178.25 144.938C1177.57 146.025 1176.64 146.931 1175.53 147.577C1174.42 148.222 1173.18 148.588 1171.89 148.642L1157.28 149.256C1155.69 149.322 1154.12 148.907 1152.77 148.065C1151.42 147.222 1150.36 145.992 1149.72 144.535L1141.7 126.223L1081.28 128.761L1074.81 147.682C1074.3 149.187 1073.35 150.502 1072.07 151.455C1070.8 152.407 1069.27 152.953 1067.68 153.02L1053.07 153.634C1051.78 153.687 1050.51 153.428 1049.35 152.877C1048.19 152.327 1047.19 151.503 1046.42 150.476C1045.65 149.449 1045.14 148.25 1044.94 146.984C1044.74 145.717 1044.86 144.421 1045.27 143.207L1089.01 15.0358C1089.53 13.5308 1090.48 12.2159 1091.75 11.2635C1093.03 10.311 1094.56 9.76557 1096.15 9.69855L1116.89 8.82704ZM1108.22 49.7996L1092.21 96.7184L1128.12 95.2098L1108.22 49.7996Z" fill="white"/>
<path d="M1116.73 4.88604L1116.73 4.88607L1095.98 5.75758L1095.98 5.75761C1093.6 5.85814 1091.3 6.67636 1089.39 8.105C1087.48 9.53327 1086.05 11.505 1085.28 13.7618C1085.28 13.7624 1085.28 13.7629 1085.28 13.7635L1041.54 141.933L1041.54 141.935C1040.92 143.755 1040.75 145.7 1041.05 147.6C1041.35 149.5 1042.11 151.298 1043.26 152.838C1044.41 154.379 1045.92 155.615 1047.66 156.44C1049.4 157.266 1051.31 157.655 1053.23 157.575L1053.23 157.575L1067.84 156.961L1067.85 156.961C1070.23 156.86 1072.53 156.042 1074.43 154.613C1076.34 153.185 1077.78 151.212 1078.55 148.955L1084.14 132.589L1139.17 130.277L1146.11 146.116C1147.07 148.301 1148.66 150.147 1150.68 151.41C1152.71 152.674 1155.06 153.296 1157.45 153.197L1157.45 153.197L1172.06 152.583L1172.06 152.583C1173.98 152.502 1175.86 151.953 1177.52 150.985C1179.18 150.017 1180.58 148.658 1181.6 147.027C1182.62 145.395 1183.22 143.54 1183.36 141.621C1183.5 139.703 1183.17 137.779 1182.4 136.017L1182.4 136.015L1128.06 11.9662C1127.11 9.7811 1125.51 7.93591 1123.49 6.67248C1121.47 5.40905 1119.11 4.78636 1116.73 4.88604ZM1122.19 91.5109L1097.8 92.5354L1108.68 60.6717L1122.19 91.5109Z" stroke="black" stroke-opacity="0.3" stroke-width="7.88889"/>
</svg>
