<svg width="300" height="186" viewBox="0 0 300 186" fill="none" xmlns="http://www.w3.org/2000/svg">
<g clip-path="url(#clip0_238_7034)">
<path opacity="0.5" d="M300 93.8419C300 144.34 252.374 192.503 150 185.278C47.6261 178.052 0 144.34 0 93.8419C0 43.3434 64.095 17.1361 150 2.4063C235.905 -12.3235 300 43.3434 300 93.8419Z" fill="#9966FF"/>
<mask id="mask0_238_7034" style="mask-type:alpha" maskUnits="userSpaceOnUse" x="0" y="1" width="312" height="185">
<path d="M150 185.278C252.374 192.503 300 144.34 300 93.8419L312 44.5L300 7.5L70.5 1.5L0 7.5V93.8419C0 144.34 47.6261 178.052 150 185.278Z" fill="#9966FF"/>
</mask>
<g mask="url(#mask0_238_7034)">
<path d="M33.0762 97.7837C28.9212 86.727 18.2549 84.5081 14.1863 81.5306C7.0011 76.3648 20.0667 68.8329 32.6059 79.5248C39.8007 85.5883 42.703 76.9595 42.7703 70.3793C42.881 61.7344 43.9057 50.2879 44.4485 43.4471C44.9818 35.7085 55.0008 36.8597 54.6555 43.7901C54.258 53.1983 51.8722 69.0892 54.5117 69.5722C57.3489 70.1447 57.9448 49.2728 60.2433 36.856C61.9427 27.8599 70.8038 29.2004 70.523 38.4828C70.2613 49.5606 65.8562 65.9645 67.8226 66.6185C69.8608 67.2454 73.0638 51.7849 74.9424 42.3937C76.4721 34.6904 85.5405 37.0181 84.1539 44.0121C82.1234 54.5256 76.0403 72.1336 77.8362 72.7698C80.2965 73.6478 83.0537 62.4516 84.9708 56.6511C87.3268 49.6205 94.5462 52.4792 92.9255 58.4141C90.087 68.7396 82.1687 93.6741 79.8305 100.534C74.4196 116.661 40.8466 118.461 33.0762 97.7837Z" fill="#825331"/>
<path d="M75.1559 104.667C70.8118 144.564 76.9765 167.074 82.6429 195.67C87.4175 219.932 46.0414 218.192 43.2299 202.861C36.1744 164.463 41.556 119.26 42.7679 106.35C43.8367 94.1496 75.1559 104.667 75.1559 104.667Z" fill="#825331"/>
<path d="M90.8659 52.7151C92.8863 53.5127 93.7319 55.9807 92.8991 58.9976C92.0664 62.0144 81.739 95.8021 80.4041 99.6631C79.0692 103.524 76.3694 106.587 74.9248 107.54C74.9248 107.54 70.8767 134.051 77.6524 170.179C84.4281 206.307 91.6925 209.067 72.9603 213.074C72.9603 213.074 61.5103 155.351 66.3063 119.709C67.3869 111.683 64.4616 113.274 60.3308 111.221C56.1999 109.168 70.2044 109.805 74.9563 101.301C79.6364 92.8231 90.3853 58.6313 90.5632 56.2702C90.7411 53.9091 88.5945 52.3396 88.0023 52.7261C87.9844 52.8966 89.3394 52.1416 90.8659 52.7151Z" fill="black" fill-opacity="0.1"/>
<path d="M33.9034 99.767C35.9522 102.602 40.6596 107.716 46.1001 108.457C52.7887 109.467 47.8882 110.817 45.3305 111.86C42.4856 113.011 41.315 120.579 41.2263 122.088L42.3575 109.618C42.3844 109.69 35.5858 105.116 33.9034 99.767Z" fill="black" fill-opacity="0.1"/>
<path d="M79.6876 37.5788C82.6866 38.5821 83.0305 42.5497 82.0537 44.9652C81.1756 47.4255 74.45 70.5189 77.9077 72.7428C77.9077 72.7428 77.1078 71.4866 79.0866 64.1061C81.6028 54.885 84.3082 46.8218 84.6654 44.0657C85.0852 41.0401 83.5207 37.5312 79.6876 37.5788Z" fill="black" fill-opacity="0.1"/>
<path d="M66.0831 30.8105C68.0491 30.8091 71.2561 34.1104 71.106 37.854C70.956 41.5975 69.4552 51.9938 68.2026 58.0362C66.9501 64.0786 67.158 66.3766 67.993 66.6363C67.993 66.6363 65.5781 66.3148 66.5591 56.9331C67.5401 47.5515 70.0123 39.7398 68.4566 35.818C66.9008 31.8961 64.4584 30.8475 63.8661 31.2339C63.7674 31.1891 64.1171 30.8118 66.0831 30.8105Z" fill="black" fill-opacity="0.1"/>
<path d="M47.9906 38.265C50.0819 37.725 53.0552 40.6225 52.5106 44.842C51.9659 49.0616 50.0676 68.8661 54.5117 69.5722C54.5117 69.5722 53.5509 69.1958 53.5921 63.8545C53.6058 57.7861 54.8356 44.7057 54.6097 42.5783C54.3838 40.451 53.054 38.6565 51.4109 38.2087C49.8666 37.8059 47.9906 38.265 47.9906 38.265Z" fill="black" fill-opacity="0.1"/>
<path d="M136.942 128.025C140.136 119.525 148.336 117.82 151.463 115.531C156.987 111.56 146.943 105.77 137.304 113.989C131.773 118.65 129.542 112.017 129.49 106.959C129.405 100.313 128.617 91.5141 128.2 86.2555C127.79 80.3067 120.088 81.1916 120.354 86.5192C120.659 93.7514 122.493 105.967 120.464 106.338C118.283 106.778 117.825 90.7338 116.058 81.1888C114.752 74.2734 107.94 75.3038 108.156 82.4393C108.357 90.955 111.744 103.565 110.232 104.068C108.665 104.55 106.203 92.6649 104.759 85.4457C103.583 79.524 96.612 81.3134 97.6779 86.6898C99.2388 94.7717 103.915 108.307 102.535 108.796C100.643 109.471 98.5237 100.865 97.05 96.4056C95.2389 91.0011 89.6892 93.1986 90.9351 97.7609C93.1171 105.698 99.204 124.866 101.001 130.139C105.161 142.536 130.969 143.92 136.942 128.025Z" fill="#B68554"/>
<path d="M104.594 133.316C107.934 163.986 103.195 181.289 98.8392 203.272C95.1688 221.922 126.975 220.585 129.137 208.8C134.56 179.282 130.423 144.534 129.492 134.61C128.67 125.231 104.594 133.316 104.594 133.316Z" fill="#B68554"/>
<path d="M92.5181 93.38C90.965 93.9931 90.3149 95.8903 90.9551 98.2094C91.5953 100.529 99.5341 126.502 100.56 129.47C101.586 132.438 103.662 134.792 104.772 135.525C104.772 135.525 107.884 155.905 102.676 183.677C97.4669 211.449 91.8827 213.57 106.282 216.651C106.282 216.651 115.084 172.278 111.398 144.88C110.567 138.71 112.816 139.933 115.991 138.355C119.166 136.777 108.401 137.266 104.748 130.729C101.15 124.212 92.8876 97.9278 92.7508 96.1129C92.6141 94.2979 94.2642 93.0914 94.7194 93.3884C94.7331 93.5195 93.6915 92.9391 92.5181 93.38Z" fill="black" fill-opacity="0.1"/>
<path d="M136.306 129.55C134.731 131.729 131.113 135.66 126.93 136.23C121.789 137.006 125.556 138.044 127.522 138.846C129.709 139.731 130.609 145.548 130.677 146.708L129.808 137.122C129.787 137.177 135.013 133.662 136.306 129.55Z" fill="black" fill-opacity="0.1"/>
<path d="M101.111 81.7444C98.8057 82.5157 98.5414 85.5657 99.2923 87.4225C99.9672 89.3138 105.137 107.066 102.479 108.776C102.479 108.776 103.094 107.81 101.573 102.136C99.6389 95.0481 97.5591 88.8497 97.2846 86.731C96.9618 84.4052 98.1645 81.7079 101.111 81.7444Z" fill="black" fill-opacity="0.1"/>
<path d="M111.569 76.5415C110.058 76.5405 107.593 79.0782 107.708 81.9559C107.823 84.8336 108.977 92.8255 109.94 97.4704C110.903 102.115 110.743 103.882 110.101 104.081C110.101 104.081 111.957 103.834 111.203 96.6225C110.449 89.4106 108.549 83.4056 109.745 80.3908C110.941 77.376 112.818 76.5699 113.273 76.867C113.349 76.8325 113.08 76.5425 111.569 76.5415Z" fill="black" fill-opacity="0.1"/>
<path d="M125.477 82.2719C123.87 81.8568 121.584 84.0841 122.003 87.3278C122.421 90.5714 123.88 105.796 120.464 106.338C120.464 106.338 121.203 106.049 121.171 101.943C121.161 97.2781 120.215 87.223 120.389 85.5876C120.563 83.9523 121.585 82.5728 122.848 82.2287C124.035 81.9189 125.477 82.2719 125.477 82.2719Z" fill="black" fill-opacity="0.1"/>
<path d="M165.083 114.463C161.457 104.814 152.148 102.877 148.598 100.279C142.327 95.7703 153.73 89.1971 164.673 98.5282C170.952 103.82 173.485 96.2893 173.544 90.5466C173.64 83.002 174.534 73.0123 175.008 67.0422C175.474 60.2885 184.217 61.2932 183.916 67.3416C183.569 75.5523 181.487 89.4207 183.791 89.8422C186.267 90.3419 186.787 72.1264 188.793 61.29C190.276 53.4388 198.009 54.6087 197.764 62.7097C197.536 72.3776 193.691 86.6937 195.407 87.2644C197.186 87.8116 199.981 74.3188 201.621 66.1228C202.956 59.3999 210.87 61.4314 209.66 67.5353C207.888 76.7107 202.579 92.0777 204.147 92.6329C206.294 93.3991 208.7 83.6279 210.373 78.5657C212.429 72.4299 218.73 74.9247 217.315 80.1043C214.838 89.1156 207.928 110.877 205.887 116.864C201.165 130.938 171.865 132.509 165.083 114.463Z" fill="#FDDBB4"/>
<path d="M201.808 120.47C198.016 155.289 203.396 174.934 208.342 199.891C212.509 221.065 176.399 219.547 173.945 206.167C167.787 172.656 172.484 133.206 173.542 121.939C174.474 111.292 201.808 120.47 201.808 120.47Z" fill="#FDDBB4"/>
<path d="M215.518 75.1306C217.281 75.8266 218.019 77.9806 217.292 80.6135C216.566 83.2463 207.553 112.734 206.388 116.103C205.223 119.473 202.866 122.146 201.606 122.977C201.606 122.977 198.073 146.115 203.986 177.645C209.9 209.174 216.239 211.583 199.891 215.08C199.891 215.08 189.899 164.704 194.084 133.598C195.027 126.594 192.474 127.982 188.869 126.191C185.264 124.399 197.486 124.955 201.633 117.532C205.718 110.134 215.098 80.2938 215.254 78.2332C215.409 76.1727 213.536 74.8029 213.019 75.1402C213.003 75.289 214.186 74.6301 215.518 75.1306Z" fill="black" fill-opacity="0.1"/>
<path d="M165.805 116.194C167.593 118.668 171.702 123.131 176.45 123.778C182.287 124.659 178.01 125.838 175.778 126.748C173.295 127.752 172.274 134.358 172.196 135.674L173.183 124.791C173.207 124.854 167.274 120.862 165.805 116.194Z" fill="black" fill-opacity="0.1"/>
<path d="M205.762 61.9207C208.38 62.7963 208.68 66.259 207.827 68.367C207.061 70.5142 201.192 90.6684 204.209 92.6093C204.209 92.6093 203.511 91.513 205.238 85.0719C207.434 77.0244 209.795 69.9874 210.107 67.582C210.473 64.9415 209.108 61.8792 205.762 61.9207Z" fill="black" fill-opacity="0.1"/>
<path d="M193.889 56.0139C195.605 56.0127 198.404 58.8938 198.273 62.1609C198.142 65.4279 196.832 74.5011 195.739 79.7745C194.646 85.0478 194.827 87.0533 195.556 87.28C195.556 87.28 193.449 86.9994 194.305 78.8118C195.161 70.6242 197.318 63.8067 195.961 60.384C194.603 56.9613 192.471 56.0462 191.955 56.3834C191.868 56.3443 192.174 56.015 193.889 56.0139Z" fill="black" fill-opacity="0.1"/>
<path d="M178.099 62.5197C179.925 62.0483 182.519 64.5771 182.044 68.2596C181.569 71.9421 179.912 89.226 183.791 89.8423C183.791 89.8423 182.952 89.5138 182.988 84.8523C183 79.5562 184.073 68.1406 183.876 66.284C183.679 64.4274 182.518 62.8613 181.084 62.4705C179.737 62.1189 178.099 62.5197 178.099 62.5197Z" fill="black" fill-opacity="0.1"/>
<path d="M275.332 100.908C279.278 90.4096 289.406 88.3027 293.269 85.4754C300.092 80.5704 287.685 73.4187 275.779 83.5709C268.947 89.3283 266.192 81.1351 266.128 74.887C266.023 66.6784 265.05 55.8097 264.534 49.3141C264.028 41.9662 254.515 43.0592 254.842 49.6399C255.22 58.5732 257.485 73.662 254.979 74.1206C252.285 74.6643 251.719 54.8458 249.537 43.0558C247.923 34.5137 239.509 35.7865 239.776 44.6004C240.024 55.1191 244.207 70.695 242.34 71.316C240.404 71.9113 237.363 57.2311 235.579 48.3139C234.127 40.9994 225.516 43.2096 226.833 49.8507C228.761 59.8335 234.537 76.5528 232.832 77.1568C230.496 77.9905 227.878 67.3594 226.057 61.8517C223.82 55.176 216.965 57.8903 218.504 63.5257C221.199 73.3301 228.718 97.0061 230.938 103.52C236.076 118.832 267.954 120.542 275.332 100.908Z" fill="#4C2F19"/>
<path d="M235.377 107.444C239.502 145.327 233.648 166.701 228.268 193.854C223.734 216.891 263.022 215.239 265.691 200.682C272.391 164.222 267.281 121.3 266.13 109.042C265.115 97.4576 235.377 107.444 235.377 107.444Z" fill="#4C2F19"/>
<path d="M220.46 58.1144C218.541 58.8717 217.738 61.2152 218.529 64.0798C219.32 66.9444 229.126 99.0267 230.393 102.693C231.661 106.359 234.224 109.267 235.596 110.172C235.596 110.172 239.44 135.346 233.006 169.65C226.572 203.954 219.675 206.575 237.462 210.38C237.462 210.38 248.334 155.57 243.78 121.727C242.754 114.106 245.531 115.617 249.454 113.668C253.376 111.718 240.078 112.323 235.566 104.248C231.122 96.1981 220.916 63.732 220.747 61.4901C220.578 59.2482 222.616 57.7579 223.179 58.1248C223.196 58.2868 221.909 57.5699 220.46 58.1144Z" fill="black" fill-opacity="0.1"/>
<path d="M274.547 102.791C272.602 105.484 268.132 110.339 262.966 111.043C256.615 112.002 261.268 113.284 263.697 114.274C266.398 115.367 267.51 122.553 267.594 123.986L266.52 112.145C266.494 112.213 272.95 107.871 274.547 102.791Z" fill="black" fill-opacity="0.1"/>
<path d="M231.074 43.742C228.226 44.6947 227.9 48.462 228.827 50.7556C229.661 53.0917 236.047 75.0196 232.764 77.1312C232.764 77.1312 233.523 75.9384 231.644 68.9305C229.255 60.1748 226.686 52.5186 226.347 49.9015C225.949 47.0287 227.434 43.6969 231.074 43.742Z" fill="black" fill-opacity="0.1"/>
<path d="M243.992 37.3153C242.125 37.314 239.08 40.4487 239.222 44.0033C239.365 47.5579 240.79 57.4295 241.979 63.1669C243.168 68.9043 242.971 71.0863 242.178 71.333C242.178 71.333 244.471 71.0276 243.54 62.1195C242.608 53.2114 240.261 45.794 241.738 42.0701C243.215 38.3462 245.534 37.3505 246.097 37.7174C246.19 37.6748 245.858 37.3166 243.992 37.3153Z" fill="black" fill-opacity="0.1"/>
<path d="M261.171 44.3937C259.185 43.8808 256.362 46.6321 256.879 50.6387C257.396 54.6453 259.199 73.4502 254.979 74.1207C254.979 74.1207 255.891 73.7633 255.852 68.6916C255.839 62.9294 254.671 50.5093 254.886 48.4893C255.1 46.4693 256.363 44.7653 257.923 44.3402C259.39 43.9577 261.171 44.3937 261.171 44.3937Z" fill="black" fill-opacity="0.1"/>
</g>
<path d="M282.344 42.6199C282.219 44.1443 281.637 47.3455 279.028 49.9444C278.563 50.4016 277.817 50.1006 277.739 49.4949C277.583 47.7478 277.143 44.9006 275.714 43.0007C275.381 42.6174 274.907 42.3906 274.416 42.4028C270.354 42.6568 250.367 43.0905 247.727 27.6141C244.783 10.3988 258.028 2.91304 272.704 3.56101C287.573 4.21318 291.497 13.0277 293.228 23.094C295.255 34.7508 286.127 40.0007 283.271 41.3635C282.719 41.6023 282.402 42.0513 282.344 42.6199Z" fill="#E5F0FF"/>
<g opacity="0.75">
<path d="M112.697 64.1516C113.144 66.0413 114.486 69.9482 118.257 72.7122C118.929 73.1971 119.807 72.6769 119.789 71.9018C119.652 69.6792 119.66 66.0215 121.091 63.364C121.436 62.8192 121.988 62.4441 122.605 62.3658C127.753 61.9091 152.923 58.6377 153.282 38.7084C153.69 16.5384 135.637 9.67113 117.34 13.2862C98.8007 16.9435 95.5589 28.7562 95.308 41.7214C94.989 56.7395 107.449 61.5864 111.293 62.7517C112.032 62.946 112.516 63.449 112.697 64.1516Z" fill="white"/>
</g>
<path d="M197.393 46.4187C197.088 47.7084 196.172 50.3749 193.598 52.2613C193.14 52.5922 192.54 52.2372 192.552 51.7082C192.646 50.1913 192.641 47.6949 191.664 45.8811C191.428 45.5093 191.052 45.2533 190.63 45.1999C187.117 44.8881 169.938 42.6554 169.693 29.0536C169.415 13.9225 181.736 9.23556 194.224 11.7029C206.877 14.199 209.09 22.2612 209.261 31.11C209.479 41.3599 200.975 44.6679 198.351 45.4633C197.847 45.5959 197.516 45.9392 197.393 46.4187Z" fill="white" fill-opacity="0.5"/>
<path d="M17.6644 55.1389C17.9098 56.1768 18.6469 58.3228 20.7182 59.841C21.0872 60.1074 21.5697 59.8217 21.56 59.3959C21.4843 58.1751 21.4889 56.166 22.2749 54.7062C22.4647 54.407 22.7676 54.201 23.1069 54.1579C25.9345 53.907 39.76 52.1101 39.9569 41.1633C40.1814 28.9857 30.2648 25.2136 20.2146 27.1993C10.0313 29.2082 8.25068 35.6967 8.11282 42.8183C7.93762 51.0675 14.7815 53.7298 16.8933 54.3699C17.299 54.4766 17.5649 54.7529 17.6644 55.1389Z" fill="#E5F0FF"/>
</g>
<defs>
<clipPath id="clip0_238_7034">
<rect width="300" height="186" fill="white"/>
</clipPath>
</defs>
</svg>
