<svg width="301" height="187" viewBox="0 0 301 187" fill="none" xmlns="http://www.w3.org/2000/svg">
<path d="M300.5 94.4904C300.5 144.989 252.874 193.152 150.5 185.926C48.1261 178.7 0.5 144.989 0.5 94.4904C0.5 43.9919 64.595 17.7845 150.5 3.05474C236.405 -11.675 300.5 43.9919 300.5 94.4904Z" fill="#9966FF"/>
<path d="M160.96 93.2084V87.9684H164.68C165.76 87.9684 166.547 88.1951 167.04 88.6484C167.547 89.0884 167.8 89.7351 167.8 90.5884C167.8 91.4418 167.547 92.0951 167.04 92.5484C166.547 93.0018 165.76 93.2218 164.68 93.2084H160.96ZM159.06 86.3684V100.648H160.96V94.8084H165.32C166.76 94.8218 167.847 94.4551 168.58 93.7084C169.327 92.9618 169.7 91.9218 169.7 90.5884C169.7 89.2551 169.327 88.2218 168.58 87.4884C167.847 86.7418 166.76 86.3684 165.32 86.3684H159.06ZM171.849 86.3684V100.648H173.549V86.3684H171.849ZM185.342 100.608C185.049 100.782 184.642 100.868 184.122 100.868C183.682 100.868 183.329 100.748 183.062 100.508C182.809 100.255 182.682 99.8484 182.682 99.2884C182.216 99.8484 181.669 100.255 181.042 100.508C180.429 100.748 179.762 100.868 179.042 100.868C178.576 100.868 178.129 100.815 177.702 100.708C177.289 100.602 176.929 100.435 176.622 100.208C176.316 99.9818 176.069 99.6884 175.882 99.3284C175.709 98.9551 175.622 98.5084 175.622 97.9884C175.622 97.4018 175.722 96.9218 175.922 96.5484C176.122 96.1751 176.382 95.8751 176.702 95.6484C177.036 95.4084 177.409 95.2284 177.822 95.1084C178.249 94.9884 178.682 94.8884 179.122 94.8084C179.589 94.7151 180.029 94.6484 180.442 94.6084C180.869 94.5551 181.242 94.4884 181.562 94.4084C181.882 94.3151 182.136 94.1884 182.322 94.0284C182.509 93.8551 182.602 93.6084 182.602 93.2884C182.602 92.9151 182.529 92.6151 182.382 92.3884C182.249 92.1618 182.069 91.9884 181.842 91.8684C181.629 91.7484 181.382 91.6684 181.102 91.6284C180.836 91.5884 180.569 91.5684 180.302 91.5684C179.582 91.5684 178.982 91.7084 178.502 91.9884C178.022 92.2551 177.762 92.7684 177.722 93.5284H176.022C176.049 92.8884 176.182 92.3484 176.422 91.9084C176.662 91.4684 176.982 91.1151 177.382 90.8484C177.782 90.5684 178.236 90.3684 178.742 90.2484C179.262 90.1284 179.816 90.0684 180.402 90.0684C180.869 90.0684 181.329 90.1018 181.782 90.1684C182.249 90.2351 182.669 90.3751 183.042 90.5884C183.416 90.7884 183.716 91.0751 183.942 91.4484C184.169 91.8218 184.282 92.3084 184.282 92.9084V98.2284C184.282 98.6284 184.302 98.9218 184.342 99.1084C184.396 99.2951 184.556 99.3884 184.822 99.3884C184.969 99.3884 185.142 99.3551 185.342 99.2884V100.608ZM182.582 95.3084C182.369 95.4684 182.089 95.5884 181.742 95.6684C181.396 95.7351 181.029 95.7951 180.642 95.8484C180.269 95.8884 179.889 95.9418 179.502 96.0084C179.116 96.0618 178.769 96.1551 178.462 96.2884C178.156 96.4218 177.902 96.6151 177.702 96.8684C177.516 97.1084 177.422 97.4418 177.422 97.8684C177.422 98.1484 177.476 98.3884 177.582 98.5884C177.702 98.7751 177.849 98.9284 178.022 99.0484C178.209 99.1684 178.422 99.2551 178.662 99.3084C178.902 99.3618 179.156 99.3884 179.422 99.3884C179.982 99.3884 180.462 99.3151 180.862 99.1684C181.262 99.0084 181.589 98.8151 181.842 98.5884C182.096 98.3484 182.282 98.0951 182.402 97.8284C182.522 97.5484 182.582 97.2884 182.582 97.0484V95.3084ZM193.945 93.6284H195.705C195.638 93.0151 195.478 92.4884 195.225 92.0484C194.971 91.5951 194.645 91.2218 194.245 90.9284C193.858 90.6351 193.405 90.4218 192.885 90.2884C192.378 90.1418 191.831 90.0684 191.245 90.0684C190.431 90.0684 189.718 90.2151 189.105 90.5084C188.491 90.7884 187.978 91.1818 187.565 91.6884C187.165 92.1818 186.865 92.7684 186.665 93.4484C186.465 94.1151 186.365 94.8351 186.365 95.6084C186.365 96.3818 186.465 97.0951 186.665 97.7484C186.878 98.3884 187.185 98.9418 187.585 99.4084C187.998 99.8751 188.505 100.235 189.105 100.488C189.718 100.742 190.418 100.868 191.205 100.868C192.525 100.868 193.565 100.522 194.325 99.8284C195.098 99.1351 195.578 98.1484 195.765 96.8684H194.025C193.918 97.6684 193.625 98.2884 193.145 98.7284C192.678 99.1684 192.025 99.3884 191.185 99.3884C190.651 99.3884 190.191 99.2818 189.805 99.0684C189.418 98.8551 189.105 98.5751 188.865 98.2284C188.625 97.8684 188.445 97.4618 188.325 97.0084C188.218 96.5551 188.165 96.0884 188.165 95.6084C188.165 95.0884 188.218 94.5884 188.325 94.1084C188.431 93.6151 188.605 93.1818 188.845 92.8084C189.098 92.4351 189.431 92.1351 189.845 91.9084C190.258 91.6818 190.771 91.5684 191.385 91.5684C192.105 91.5684 192.678 91.7484 193.105 92.1084C193.531 92.4684 193.811 92.9751 193.945 93.6284ZM204.847 94.4884H198.907C198.933 94.0884 199.02 93.7151 199.167 93.3684C199.313 93.0084 199.513 92.6951 199.767 92.4284C200.02 92.1618 200.32 91.9551 200.667 91.8084C201.027 91.6484 201.427 91.5684 201.867 91.5684C202.293 91.5684 202.68 91.6484 203.027 91.8084C203.387 91.9551 203.693 92.1618 203.947 92.4284C204.213 92.6818 204.42 92.9884 204.567 93.3484C204.727 93.7084 204.82 94.0884 204.847 94.4884ZM206.487 97.3684H204.807C204.66 98.0484 204.353 98.5551 203.887 98.8884C203.433 99.2218 202.847 99.3884 202.127 99.3884C201.567 99.3884 201.08 99.2951 200.667 99.1084C200.253 98.9218 199.913 98.6751 199.647 98.3684C199.38 98.0484 199.187 97.6884 199.067 97.2884C198.947 96.8751 198.893 96.4418 198.907 95.9884H206.647C206.673 95.3618 206.613 94.7018 206.467 94.0084C206.333 93.3151 206.08 92.6751 205.707 92.0884C205.347 91.5018 204.86 91.0218 204.247 90.6484C203.647 90.2618 202.887 90.0684 201.967 90.0684C201.26 90.0684 200.607 90.2018 200.007 90.4684C199.42 90.7351 198.907 91.1084 198.467 91.5884C198.04 92.0684 197.707 92.6351 197.467 93.2884C197.227 93.9418 197.107 94.6618 197.107 95.4484C197.133 96.2351 197.247 96.9618 197.447 97.6284C197.66 98.2951 197.973 98.8684 198.387 99.3484C198.8 99.8284 199.307 100.202 199.907 100.468C200.52 100.735 201.24 100.868 202.067 100.868C203.24 100.868 204.213 100.575 204.987 99.9884C205.76 99.4018 206.26 98.5284 206.487 97.3684ZM208.409 86.3684V100.648H210.109V94.8084C210.109 94.3418 210.169 93.9151 210.289 93.5284C210.422 93.1284 210.616 92.7818 210.869 92.4884C211.122 92.1951 211.436 91.9684 211.809 91.8084C212.196 91.6484 212.649 91.5684 213.169 91.5684C213.822 91.5684 214.336 91.7551 214.709 92.1284C215.082 92.5018 215.269 93.0084 215.269 93.6484V100.648H216.969V93.8484C216.969 93.2884 216.909 92.7818 216.789 92.3284C216.682 91.8618 216.489 91.4618 216.209 91.1284C215.929 90.7951 215.562 90.5351 215.109 90.3484C214.656 90.1618 214.089 90.0684 213.409 90.0684C213.102 90.0684 212.782 90.1018 212.449 90.1684C212.129 90.2351 211.816 90.3418 211.509 90.4884C211.216 90.6218 210.949 90.8018 210.709 91.0284C210.469 91.2418 210.282 91.5084 210.149 91.8284H210.109V86.3684H208.409ZM220.762 95.4884C220.762 94.8618 220.842 94.3084 221.002 93.8284C221.176 93.3351 221.409 92.9218 221.702 92.5884C221.996 92.2551 222.336 92.0018 222.722 91.8284C223.122 91.6551 223.542 91.5684 223.982 91.5684C224.422 91.5684 224.836 91.6551 225.222 91.8284C225.622 92.0018 225.969 92.2551 226.262 92.5884C226.556 92.9218 226.782 93.3351 226.942 93.8284C227.116 94.3084 227.202 94.8618 227.202 95.4884C227.202 96.1151 227.116 96.6751 226.942 97.1684C226.782 97.6484 226.556 98.0551 226.262 98.3884C225.969 98.7084 225.622 98.9551 225.222 99.1284C224.836 99.3018 224.422 99.3884 223.982 99.3884C223.542 99.3884 223.122 99.3018 222.722 99.1284C222.336 98.9551 221.996 98.7084 221.702 98.3884C221.409 98.0551 221.176 97.6484 221.002 97.1684C220.842 96.6751 220.762 96.1151 220.762 95.4884ZM218.962 95.4884C218.962 96.2484 219.069 96.9551 219.282 97.6084C219.496 98.2618 219.816 98.8351 220.242 99.3284C220.669 99.8084 221.196 100.188 221.822 100.468C222.449 100.735 223.169 100.868 223.982 100.868C224.809 100.868 225.529 100.735 226.142 100.468C226.769 100.188 227.296 99.8084 227.722 99.3284C228.149 98.8351 228.469 98.2618 228.682 97.6084C228.896 96.9551 229.002 96.2484 229.002 95.4884C229.002 94.7284 228.896 94.0218 228.682 93.3684C228.469 92.7018 228.149 92.1284 227.722 91.6484C227.296 91.1551 226.769 90.7684 226.142 90.4884C225.529 90.2084 224.809 90.0684 223.982 90.0684C223.169 90.0684 222.449 90.2084 221.822 90.4884C221.196 90.7684 220.669 91.1551 220.242 91.6484C219.816 92.1284 219.496 92.7018 219.282 93.3684C219.069 94.0218 218.962 94.7284 218.962 95.4884ZM231.107 86.3684V100.648H232.807V86.3684H231.107ZM236.68 95.5684C236.68 95.0618 236.733 94.5684 236.84 94.0884C236.947 93.6084 237.12 93.1818 237.36 92.8084C237.6 92.4351 237.92 92.1351 238.32 91.9084C238.72 91.6818 239.207 91.5684 239.78 91.5684C240.367 91.5684 240.867 91.6818 241.28 91.9084C241.693 92.1218 242.027 92.4084 242.28 92.7684C242.547 93.1284 242.74 93.5484 242.86 94.0284C242.98 94.4951 243.04 94.9818 243.04 95.4884C243.04 95.9684 242.98 96.4418 242.86 96.9084C242.753 97.3751 242.573 97.7951 242.32 98.1684C242.067 98.5284 241.74 98.8218 241.34 99.0484C240.94 99.2751 240.453 99.3884 239.88 99.3884C239.333 99.3884 238.853 99.2818 238.44 99.0684C238.04 98.8551 237.707 98.5684 237.44 98.2084C237.187 97.8484 236.993 97.4418 236.86 96.9884C236.74 96.5218 236.68 96.0484 236.68 95.5684ZM244.68 100.648V86.3684H242.98V91.6884H242.94C242.753 91.3818 242.52 91.1284 242.24 90.9284C241.973 90.7151 241.687 90.5484 241.38 90.4284C241.073 90.2951 240.767 90.2018 240.46 90.1484C240.153 90.0951 239.867 90.0684 239.6 90.0684C238.813 90.0684 238.12 90.2151 237.52 90.5084C236.933 90.7884 236.44 91.1751 236.04 91.6684C235.653 92.1484 235.36 92.7151 235.16 93.3684C234.973 94.0218 234.88 94.7151 234.88 95.4484C234.88 96.1818 234.98 96.8751 235.18 97.5284C235.38 98.1818 235.673 98.7551 236.06 99.2484C236.46 99.7418 236.953 100.135 237.54 100.428C238.14 100.722 238.84 100.868 239.64 100.868C240.36 100.868 241.02 100.742 241.62 100.488C242.22 100.235 242.66 99.8218 242.94 99.2484H242.98V100.648H244.68ZM254.476 94.4884H248.536C248.562 94.0884 248.649 93.7151 248.796 93.3684C248.942 93.0084 249.142 92.6951 249.396 92.4284C249.649 92.1618 249.949 91.9551 250.296 91.8084C250.656 91.6484 251.056 91.5684 251.496 91.5684C251.922 91.5684 252.309 91.6484 252.656 91.8084C253.016 91.9551 253.322 92.1618 253.576 92.4284C253.842 92.6818 254.049 92.9884 254.196 93.3484C254.356 93.7084 254.449 94.0884 254.476 94.4884ZM256.116 97.3684H254.436C254.289 98.0484 253.982 98.5551 253.516 98.8884C253.062 99.2218 252.476 99.3884 251.756 99.3884C251.196 99.3884 250.709 99.2951 250.296 99.1084C249.882 98.9218 249.542 98.6751 249.276 98.3684C249.009 98.0484 248.816 97.6884 248.696 97.2884C248.576 96.8751 248.522 96.4418 248.536 95.9884H256.276C256.302 95.3618 256.242 94.7018 256.096 94.0084C255.962 93.3151 255.709 92.6751 255.336 92.0884C254.976 91.5018 254.489 91.0218 253.876 90.6484C253.276 90.2618 252.516 90.0684 251.596 90.0684C250.889 90.0684 250.236 90.2018 249.636 90.4684C249.049 90.7351 248.536 91.1084 248.096 91.5884C247.669 92.0684 247.336 92.6351 247.096 93.2884C246.856 93.9418 246.736 94.6618 246.736 95.4484C246.762 96.2351 246.876 96.9618 247.076 97.6284C247.289 98.2951 247.602 98.8684 248.016 99.3484C248.429 99.8284 248.936 100.202 249.536 100.468C250.149 100.735 250.869 100.868 251.696 100.868C252.869 100.868 253.842 100.575 254.616 99.9884C255.389 99.4018 255.889 98.5284 256.116 97.3684ZM257.978 90.3084V100.648H259.678V96.0484C259.678 95.3818 259.744 94.7951 259.878 94.2884C260.011 93.7684 260.224 93.3284 260.518 92.9684C260.811 92.6084 261.198 92.3351 261.678 92.1484C262.158 91.9618 262.738 91.8684 263.418 91.8684V90.0684C262.498 90.0418 261.738 90.2284 261.138 90.6284C260.538 91.0284 260.031 91.6484 259.618 92.4884H259.578V90.3084H257.978Z" fill="black"/>
</svg>
