<svg width="940" height="503" viewBox="0 0 940 503" fill="none" xmlns="http://www.w3.org/2000/svg">
<path opacity="0.5" d="M797.855 20.727C687.843 77.1299 626.235 4.14452 515.956 4.14453C443.026 4.14454 406.118 0.519978 345.119 56.6445C284.12 112.769 145.689 -52.2729 81.7495 20.7271C26.9242 83.3217 110.109 131.056 81.7495 187.645C53.3902 244.233 -29.3979 278.941 10.8195 354.228C70.8986 466.695 178.232 350.517 315.748 354.228C453.264 357.939 360.16 480.392 493.93 501.265C627.7 522.138 595.06 297.639 728.83 402.931C862.6 508.223 963.73 406.642 907.012 329.644C850.293 252.647 837.987 203.016 907.012 143.181C976.037 83.3453 935.371 -49.7766 797.855 20.727Z" fill="#9966FF"/>
</svg>
