<svg width="464" height="255" viewBox="0 0 464 255" fill="none" xmlns="http://www.w3.org/2000/svg">
<rect y="0.648438" width="464" height="254" fill="#C4C4C4"/>
<path d="M160.46 127.208V121.968H164.18C165.26 121.968 166.047 122.195 166.54 122.648C167.047 123.088 167.3 123.735 167.3 124.588C167.3 125.442 167.047 126.095 166.54 126.548C166.047 127.002 165.26 127.222 164.18 127.208H160.46ZM158.56 120.368V134.648H160.46V128.808H164.82C166.26 128.822 167.347 128.455 168.08 127.708C168.827 126.962 169.2 125.922 169.2 124.588C169.2 123.255 168.827 122.222 168.08 121.488C167.347 120.742 166.26 120.368 164.82 120.368H158.56ZM171.349 120.368V134.648H173.049V120.368H171.349ZM184.842 134.608C184.549 134.782 184.142 134.868 183.622 134.868C183.182 134.868 182.829 134.748 182.562 134.508C182.309 134.255 182.182 133.848 182.182 133.288C181.716 133.848 181.169 134.255 180.542 134.508C179.929 134.748 179.262 134.868 178.542 134.868C178.076 134.868 177.629 134.815 177.202 134.708C176.789 134.602 176.429 134.435 176.122 134.208C175.816 133.982 175.569 133.688 175.382 133.328C175.209 132.955 175.122 132.508 175.122 131.988C175.122 131.402 175.222 130.922 175.422 130.548C175.622 130.175 175.882 129.875 176.202 129.648C176.536 129.408 176.909 129.228 177.322 129.108C177.749 128.988 178.182 128.888 178.622 128.808C179.089 128.715 179.529 128.648 179.942 128.608C180.369 128.555 180.742 128.488 181.062 128.408C181.382 128.315 181.636 128.188 181.822 128.028C182.009 127.855 182.102 127.608 182.102 127.288C182.102 126.915 182.029 126.615 181.882 126.388C181.749 126.162 181.569 125.988 181.342 125.868C181.129 125.748 180.882 125.668 180.602 125.628C180.336 125.588 180.069 125.568 179.802 125.568C179.082 125.568 178.482 125.708 178.002 125.988C177.522 126.255 177.262 126.768 177.222 127.528H175.522C175.549 126.888 175.682 126.348 175.922 125.908C176.162 125.468 176.482 125.115 176.882 124.848C177.282 124.568 177.736 124.368 178.242 124.248C178.762 124.128 179.316 124.068 179.902 124.068C180.369 124.068 180.829 124.102 181.282 124.168C181.749 124.235 182.169 124.375 182.542 124.588C182.916 124.788 183.216 125.075 183.442 125.448C183.669 125.822 183.782 126.308 183.782 126.908V132.228C183.782 132.628 183.802 132.922 183.842 133.108C183.896 133.295 184.056 133.388 184.322 133.388C184.469 133.388 184.642 133.355 184.842 133.288V134.608ZM182.082 129.308C181.869 129.468 181.589 129.588 181.242 129.668C180.896 129.735 180.529 129.795 180.142 129.848C179.769 129.888 179.389 129.942 179.002 130.008C178.616 130.062 178.269 130.155 177.962 130.288C177.656 130.422 177.402 130.615 177.202 130.868C177.016 131.108 176.922 131.442 176.922 131.868C176.922 132.148 176.976 132.388 177.082 132.588C177.202 132.775 177.349 132.928 177.522 133.048C177.709 133.168 177.922 133.255 178.162 133.308C178.402 133.362 178.656 133.388 178.922 133.388C179.482 133.388 179.962 133.315 180.362 133.168C180.762 133.008 181.089 132.815 181.342 132.588C181.596 132.348 181.782 132.095 181.902 131.828C182.022 131.548 182.082 131.288 182.082 131.048V129.308ZM193.445 127.628H195.205C195.138 127.015 194.978 126.488 194.725 126.048C194.471 125.595 194.145 125.222 193.745 124.928C193.358 124.635 192.905 124.422 192.385 124.288C191.878 124.142 191.331 124.068 190.745 124.068C189.931 124.068 189.218 124.215 188.605 124.508C187.991 124.788 187.478 125.182 187.065 125.688C186.665 126.182 186.365 126.768 186.165 127.448C185.965 128.115 185.865 128.835 185.865 129.608C185.865 130.382 185.965 131.095 186.165 131.748C186.378 132.388 186.685 132.942 187.085 133.408C187.498 133.875 188.005 134.235 188.605 134.488C189.218 134.742 189.918 134.868 190.705 134.868C192.025 134.868 193.065 134.522 193.825 133.828C194.598 133.135 195.078 132.148 195.265 130.868H193.525C193.418 131.668 193.125 132.288 192.645 132.728C192.178 133.168 191.525 133.388 190.685 133.388C190.151 133.388 189.691 133.282 189.305 133.068C188.918 132.855 188.605 132.575 188.365 132.228C188.125 131.868 187.945 131.462 187.825 131.008C187.718 130.555 187.665 130.088 187.665 129.608C187.665 129.088 187.718 128.588 187.825 128.108C187.931 127.615 188.105 127.182 188.345 126.808C188.598 126.435 188.931 126.135 189.345 125.908C189.758 125.682 190.271 125.568 190.885 125.568C191.605 125.568 192.178 125.748 192.605 126.108C193.031 126.468 193.311 126.975 193.445 127.628ZM204.347 128.488H198.407C198.433 128.088 198.52 127.715 198.667 127.368C198.813 127.008 199.013 126.695 199.267 126.428C199.52 126.162 199.82 125.955 200.167 125.808C200.527 125.648 200.927 125.568 201.367 125.568C201.793 125.568 202.18 125.648 202.527 125.808C202.887 125.955 203.193 126.162 203.447 126.428C203.713 126.682 203.92 126.988 204.067 127.348C204.227 127.708 204.32 128.088 204.347 128.488ZM205.987 131.368H204.307C204.16 132.048 203.853 132.555 203.387 132.888C202.933 133.222 202.347 133.388 201.627 133.388C201.067 133.388 200.58 133.295 200.167 133.108C199.753 132.922 199.413 132.675 199.147 132.368C198.88 132.048 198.687 131.688 198.567 131.288C198.447 130.875 198.393 130.442 198.407 129.988H206.147C206.173 129.362 206.113 128.702 205.967 128.008C205.833 127.315 205.58 126.675 205.207 126.088C204.847 125.502 204.36 125.022 203.747 124.648C203.147 124.262 202.387 124.068 201.467 124.068C200.76 124.068 200.107 124.202 199.507 124.468C198.92 124.735 198.407 125.108 197.967 125.588C197.54 126.068 197.207 126.635 196.967 127.288C196.727 127.942 196.607 128.662 196.607 129.448C196.633 130.235 196.747 130.962 196.947 131.628C197.16 132.295 197.473 132.868 197.887 133.348C198.3 133.828 198.807 134.202 199.407 134.468C200.02 134.735 200.74 134.868 201.567 134.868C202.74 134.868 203.713 134.575 204.487 133.988C205.26 133.402 205.76 132.528 205.987 131.368ZM207.909 120.368V134.648H209.609V128.808C209.609 128.342 209.669 127.915 209.789 127.528C209.922 127.128 210.116 126.782 210.369 126.488C210.622 126.195 210.936 125.968 211.309 125.808C211.696 125.648 212.149 125.568 212.669 125.568C213.322 125.568 213.836 125.755 214.209 126.128C214.582 126.502 214.769 127.008 214.769 127.648V134.648H216.469V127.848C216.469 127.288 216.409 126.782 216.289 126.328C216.182 125.862 215.989 125.462 215.709 125.128C215.429 124.795 215.062 124.535 214.609 124.348C214.156 124.162 213.589 124.068 212.909 124.068C212.602 124.068 212.282 124.102 211.949 124.168C211.629 124.235 211.316 124.342 211.009 124.488C210.716 124.622 210.449 124.802 210.209 125.028C209.969 125.242 209.782 125.508 209.649 125.828H209.609V120.368H207.909ZM220.262 129.488C220.262 128.862 220.342 128.308 220.502 127.828C220.676 127.335 220.909 126.922 221.202 126.588C221.496 126.255 221.836 126.002 222.222 125.828C222.622 125.655 223.042 125.568 223.482 125.568C223.922 125.568 224.336 125.655 224.722 125.828C225.122 126.002 225.469 126.255 225.762 126.588C226.056 126.922 226.282 127.335 226.442 127.828C226.616 128.308 226.702 128.862 226.702 129.488C226.702 130.115 226.616 130.675 226.442 131.168C226.282 131.648 226.056 132.055 225.762 132.388C225.469 132.708 225.122 132.955 224.722 133.128C224.336 133.302 223.922 133.388 223.482 133.388C223.042 133.388 222.622 133.302 222.222 133.128C221.836 132.955 221.496 132.708 221.202 132.388C220.909 132.055 220.676 131.648 220.502 131.168C220.342 130.675 220.262 130.115 220.262 129.488ZM218.462 129.488C218.462 130.248 218.569 130.955 218.782 131.608C218.996 132.262 219.316 132.835 219.742 133.328C220.169 133.808 220.696 134.188 221.322 134.468C221.949 134.735 222.669 134.868 223.482 134.868C224.309 134.868 225.029 134.735 225.642 134.468C226.269 134.188 226.796 133.808 227.222 133.328C227.649 132.835 227.969 132.262 228.182 131.608C228.396 130.955 228.502 130.248 228.502 129.488C228.502 128.728 228.396 128.022 228.182 127.368C227.969 126.702 227.649 126.128 227.222 125.648C226.796 125.155 226.269 124.768 225.642 124.488C225.029 124.208 224.309 124.068 223.482 124.068C222.669 124.068 221.949 124.208 221.322 124.488C220.696 124.768 220.169 125.155 219.742 125.648C219.316 126.128 218.996 126.702 218.782 127.368C218.569 128.022 218.462 128.728 218.462 129.488ZM230.607 120.368V134.648H232.307V120.368H230.607ZM236.18 129.568C236.18 129.062 236.233 128.568 236.34 128.088C236.447 127.608 236.62 127.182 236.86 126.808C237.1 126.435 237.42 126.135 237.82 125.908C238.22 125.682 238.707 125.568 239.28 125.568C239.867 125.568 240.367 125.682 240.78 125.908C241.193 126.122 241.527 126.408 241.78 126.768C242.047 127.128 242.24 127.548 242.36 128.028C242.48 128.495 242.54 128.982 242.54 129.488C242.54 129.968 242.48 130.442 242.36 130.908C242.253 131.375 242.073 131.795 241.82 132.168C241.567 132.528 241.24 132.822 240.84 133.048C240.44 133.275 239.953 133.388 239.38 133.388C238.833 133.388 238.353 133.282 237.94 133.068C237.54 132.855 237.207 132.568 236.94 132.208C236.687 131.848 236.493 131.442 236.36 130.988C236.24 130.522 236.18 130.048 236.18 129.568ZM244.18 134.648V120.368H242.48V125.688H242.44C242.253 125.382 242.02 125.128 241.74 124.928C241.473 124.715 241.187 124.548 240.88 124.428C240.573 124.295 240.267 124.202 239.96 124.148C239.653 124.095 239.367 124.068 239.1 124.068C238.313 124.068 237.62 124.215 237.02 124.508C236.433 124.788 235.94 125.175 235.54 125.668C235.153 126.148 234.86 126.715 234.66 127.368C234.473 128.022 234.38 128.715 234.38 129.448C234.38 130.182 234.48 130.875 234.68 131.528C234.88 132.182 235.173 132.755 235.56 133.248C235.96 133.742 236.453 134.135 237.04 134.428C237.64 134.722 238.34 134.868 239.14 134.868C239.86 134.868 240.52 134.742 241.12 134.488C241.72 134.235 242.16 133.822 242.44 133.248H242.48V134.648H244.18ZM253.976 128.488H248.036C248.062 128.088 248.149 127.715 248.296 127.368C248.442 127.008 248.642 126.695 248.896 126.428C249.149 126.162 249.449 125.955 249.796 125.808C250.156 125.648 250.556 125.568 250.996 125.568C251.422 125.568 251.809 125.648 252.156 125.808C252.516 125.955 252.822 126.162 253.076 126.428C253.342 126.682 253.549 126.988 253.696 127.348C253.856 127.708 253.949 128.088 253.976 128.488ZM255.616 131.368H253.936C253.789 132.048 253.482 132.555 253.016 132.888C252.562 133.222 251.976 133.388 251.256 133.388C250.696 133.388 250.209 133.295 249.796 133.108C249.382 132.922 249.042 132.675 248.776 132.368C248.509 132.048 248.316 131.688 248.196 131.288C248.076 130.875 248.022 130.442 248.036 129.988H255.776C255.802 129.362 255.742 128.702 255.596 128.008C255.462 127.315 255.209 126.675 254.836 126.088C254.476 125.502 253.989 125.022 253.376 124.648C252.776 124.262 252.016 124.068 251.096 124.068C250.389 124.068 249.736 124.202 249.136 124.468C248.549 124.735 248.036 125.108 247.596 125.588C247.169 126.068 246.836 126.635 246.596 127.288C246.356 127.942 246.236 128.662 246.236 129.448C246.262 130.235 246.376 130.962 246.576 131.628C246.789 132.295 247.102 132.868 247.516 133.348C247.929 133.828 248.436 134.202 249.036 134.468C249.649 134.735 250.369 134.868 251.196 134.868C252.369 134.868 253.342 134.575 254.116 133.988C254.889 133.402 255.389 132.528 255.616 131.368ZM257.478 124.308V134.648H259.178V130.048C259.178 129.382 259.244 128.795 259.378 128.288C259.511 127.768 259.724 127.328 260.018 126.968C260.311 126.608 260.698 126.335 261.178 126.148C261.658 125.962 262.238 125.868 262.918 125.868V124.068C261.998 124.042 261.238 124.228 260.638 124.628C260.038 125.028 259.531 125.648 259.118 126.488H259.078V124.308H257.478Z" fill="black"/>
</svg>
