<svg width="281" height="276" viewBox="0 0 281 276" fill="none" xmlns="http://www.w3.org/2000/svg">
<path opacity="0.1" d="M130.302 99.6788C130.302 130.664 109.693 160.217 65.3932 155.783C21.0933 151.349 0.484131 130.664 0.484131 99.6788C0.484131 68.6933 28.2198 52.6127 65.3932 43.5746C102.567 34.5366 130.302 68.6933 130.302 99.6788Z" fill="#9966FF"/>
<path opacity="0.1" d="M281 69.9451C281 31.8302 258.62 -4.52187 210.513 0.932043C162.406 6.38595 140.026 31.8302 140.026 69.9451C140.026 108.06 170.145 127.841 210.513 138.958C250.881 150.076 281 108.06 281 69.9451Z" fill="#9966FF"/>
<path opacity="0.1" d="M88.2676 205.655C88.2676 243.769 110.648 280.121 158.755 274.668C206.862 269.214 229.242 243.769 229.242 205.655C229.242 167.54 199.123 147.759 158.755 136.641C118.387 125.524 88.2676 167.54 88.2676 205.655Z" fill="#9966FF"/>
</svg>
