<?xml version="1.0" encoding="utf-8"?>
<!-- Generator: Adobe Illustrator 19.2.1, SVG Export Plug-In . SVG Version: 6.00 Build 0)  -->
<svg version="1.1" id="Layer_1" xmlns="http://www.w3.org/2000/svg" xmlns:xlink="http://www.w3.org/1999/xlink" x="0px" y="0px"
	 width="256.2px" height="95.6px" viewBox="0 0 256.2 95.6" style="enable-background:new 0 0 256.2 95.6;" xml:space="preserve">
<g>
	<g>
		<path style="fill:#FFFFFF;" d="M233.4,93.3c-3.1,0.2-5,0.5-5.9,0.6c-1.6,0.6-4.9,1.7-9.1,1.7c-5.3,0-10.5-1.8-14.6-5.1l-3.1,0
			c-1.1,0-2.1-0.1-3.1-0.3c-4.4,1.5-8.2,1.5-10.4,1.6l-0.9,0c-5.5,0.3-10.8-0.9-15.5-3c-2.2,0.6-4.4,1-6.8,1l-14.4,0.2
			c-6.5,0.1-12.5-2.5-17-6.7c-1.9,0-3.7-0.2-5.5-0.7c-2.5,2.8-5.6,5.1-9.2,6.9c-7.3,3.5-15.6,3.7-23.4,0.6c-0.9-0.4-1.8-0.8-2.7-1.2
			l-8.8,1.3c-0.2,0-0.3,0.1-0.5,0.1c-0.8,0.1-1.6,0.1-2.3,0.2c-1,0.6-1.9,1-2.8,1.5c-6,2.8-11.2,2.8-13.7,2.9l-0.8,0
			c-0.4,0-0.8,0-1.2,0c-6.7,0-13.1-1.9-18.4-5.3c-1.6,0.4-3.3,0.7-5,0.8c-3.6,2.4-7.8,3.9-12.2,4.2c-0.4,0-1,0-1.5,0
			C11.8,94.5,1.1,84.7,0.2,72v-0.1c0-0.2,0-0.3,0-0.5c-0.1-2-0.3-6.1,0-10.7c0.1-2.2,0.2-5.9,0.2-6.4v-0.2c0.1-3.2,0.8-6.4,2-9.3
			c-0.3-3-0.2-6.1,0.2-9.3l0.1-1c0.4-2.9,1.1-8.2,4-13.6c4.9-9.3,14.1-15,24.8-15.2c3.3-1.6,6.9-2.5,10.7-2.5c0.4,0,0.7,0,1.1,0
			C51,3.6,57.9,7.6,62.1,13.7c3.5-3,7.7-5,12.4-5.7c9.1-1.3,17-1.4,23.7-0.4c3.5-3.1,8-5.3,12.8-5.9l10-1.4c1.4-0.2,2.6-0.2,3.4-0.2
			c6,0,11.7,2.2,16.1,6.1c0.2,0,0.4,0,0.7,0l14.8-0.3c6.2-0.1,11.8-0.4,13-0.5c0.4,0,0.9-0.1,1.3-0.1c0.3,0,0.6,0,0.9,0
			c5.6,0,11.1,2,15.4,5.5c4.1-3.1,9.2-4.8,14.6-4.8h5.1c3.8-2.4,8.2-3.8,12.7-3.9l12.5-0.2h0.2c13.2,0,24.1,10.7,24.4,23.9
			c0.1,6.1-2.1,11.8-5.9,16.3l0.1,11.2c3.4,3.9,5.5,8.9,5.8,14.2C257,80.8,246.8,92.4,233.4,93.3z"/>
	</g>
	<path style="fill:#F9A83A;" d="M232.5,79.6c-4.9,0.3-8,0.9-8.8,1.1l-0.5,0.2c-1.1,0.4-2.7,1-4.8,1c-2.5,0-5-0.9-6.8-2.7
		c-0.8-0.7-1.4-1.4-1.9-2.3l-8.8-0.1c-1.6,0-3-0.4-4.4-1c-0.5,0.3-1.1,0.5-1.6,0.8c-3.2,1.5-5.9,1.5-7.9,1.5l-1.2,0
		c-0.2,0-0.5,0-0.7,0c-5.8,0-10.4-2.1-13.7-5.3l0,0c-2,2-4.7,3.2-7.6,3.2l-14.4,0.2c-5.2,0-9.5-3.7-10.5-8.7
		c-1.8,1.2-3.9,1.9-6.1,1.9c-2.3,0-4.5-0.7-6.4-2.1c-0.4-0.3-0.8-0.6-1.1-1c-1.3,0.6-2.8,0.9-4.4,0.9h-0.6c-1.7,4.7-4.3,7.8-8.4,9.7
		c-2,1-4.1,1.4-6.3,1.4c-2,0-4.1-0.4-6.2-1.3c-1.9-0.7-3.5-1.9-4.6-3.1c-0.8,0.3-1.6,0.6-2.5,0.7l-11.3,1.7
		c-0.5,0.1-1.1,0.1-1.5,0.1c-1,0-2-0.1-3-0.4c-1.6,1.5-3.4,2.5-5,3.2c-3.2,1.5-5.9,1.5-7.9,1.5l-1.2,0c-0.3,0-0.5,0-0.7,0
		c-7,0-12.3-3-15.6-7.4c-3.2,1.9-6.9,3-10.6,3c-0.8,0-1.6-0.1-2.4-0.2c-0.2,0.2-0.3,0.4-0.5,0.6c-1.9,2.1-4.5,3.4-7.4,3.6
		c-0.2,0-0.4,0-0.7,0c-5.6,0-10.3-4.4-10.7-10l0-0.2c-0.1-1.8-0.2-5.3,0-9.2c0.2-2.6,0.2-6.9,0.2-7v0c0.1-2.7,1.1-5.1,2.7-6.9
		c-0.8-2.8-1.1-6.2-0.6-10.2l0.1-0.6c0.3-2.3,0.7-5.9,2.5-9.2c2.7-5.1,7.6-8,13.5-8c0.4,0,0.7,0,1.1,0c0.5,0,1.1,0.1,1.7,0.2
		c1.9-1.7,4.4-2.7,7.1-2.7l0.1,0c5.9,0.1,10.6,4.9,10.6,10.8v0.1c0,0-0.1,1.9-0.2,4.4c2-0.9,4.2-1.3,6.5-1.3c1.1,0,2.1,0.1,3,0.3
		c1.6-1.8,3.7-3,6.1-3.5c0.3-0.7,0.7-1.3,1.1-1.9c1.7-2.3,4.2-3.8,7.1-4.2c2.3-0.3,7.1-0.9,12.2-0.9c6.3,0,11.4,0.9,15.2,2.8
		c1-4.2,4.5-7.6,9-8.2l10.1-1.4c0.5-0.1,1-0.1,1.4-0.1c2.9,0,5.8,1.2,7.8,3.4c0.7,0.8,1.8,2.3,2.4,3.7l0.5,1.2
		c1.8-1.3,4-2.1,6.3-2.1l15-0.3c7.3-0.1,13.8-0.6,14.1-0.6l0.2,0c0.2,0,0.5,0,0.7,0c2.8,0,5.6,1.2,7.6,3.2c1.6,1.6,2.6,3.6,2.9,5.9
		c0.3,0,0.6,0,0.9,0c1.1,0,2.1,0.1,3,0.2c1.6-1.8,3.8-3.1,6.4-3.5c1.9-3.1,5.3-5.1,9.1-5.1h10.1c1.9-2.3,4.8-3.8,8.1-3.9l12.4-0.2
		c5.8,0,10.6,4.7,10.7,10.5c0,4.3-2.4,8-5.9,9.7c0.1,11.6,0.1,18.9,0.1,23.8c3.3,1.7,5.6,5,5.8,8.8
		C242.9,74.2,238.4,79.3,232.5,79.6z"/>
	<polygon style="fill:#F9A83A;" points="125.2,33 122.3,47.1 130.4,45.8 	"/>
	<path style="fill:#FFFFFF;" d="M32.5,46.6c-2.7-0.4-4.1-2.2-3.4-7.8l0.1-0.7c0.6-4.8,1.1-5.9,3.4-5.8c0.7,0,1.5,0.5,2.3,1.1
		c0.7,0.8,2.3,1.9,3.3,4.1c0.7,1.6,0.9,2.6,1,3.7l0.1,1.4v0c0.2,0.9,0.9,1.7,1.9,1.9c1.3,0.2,2.5-0.6,2.7-1.9
		c0-0.2,0.6-14.8,0.6-15.1c0-1.3-1-2.3-2.3-2.4c-1.3,0-2.4,1-2.4,2.3c0,0,0,2.1,0,4.1c-1.9-2-4.2-3.8-6.9-4
		c-7.1-0.4-7.9,6.1-8.3,9.9l-0.1,0.7c-1,7.4,1.5,12.1,7.3,13c6.3,1,10.6,2.4,10.6,6.3c0,1.5-0.8,3.1-2.2,4.3c-1.7,1.4-3.9,2.1-6,1.7
		c-0.7-0.1-1.3-0.3-1.9-0.5c-0.8-0.5-2.9-1.7-4-3.2c-0.9-1.2-1.2-3.2-1.3-4.4c0-0.6,0-0.9,0-1c0-1.3-1-2.4-2.3-2.4
		c-1.3,0-2.4,1-2.4,2.3c0,0-0.1,4.6-0.2,7.4c-0.2,4.5,0,8.2,0,8.4c0.1,1.3,1.2,2.3,2.5,2.2c1.3-0.1,2.3-1.2,2.2-2.5
		c0,0-0.1-1.9-0.1-4.4c1.7,1.1,4,2.2,6.7,2.6c3.5,0.6,7.1-0.4,9.8-2.8c2.5-2.1,3.9-5,3.8-7.9C47,48.9,37.2,47.4,32.5,46.6"/>
	<path style="fill:#FFFFFF;" d="M97.8,39.8c-0.2,0.3-0.8,0.9-1.4,1.3c-0.6,0.3-1.4,0.6-2.1,0.8L93,42.3c-1.7,0.6-3.9,1.2-6.2,1.6
		l0-10.7c6.2-0.2,11.6,0.5,12.7,2.3c0.1,0.2,0.1,0.4,0.1,0.6C99.6,37,99,38.3,97.8,39.8 M111.1,60.8c-1.2-0.4-2.6,0.3-2.9,1.6
		c-0.9,2.8-1.5,2.9-2,3.1c-0.5,0.2-1.1,0.2-2.1-0.2c-0.1-0.1-0.6-0.6-0.8-1.2c-0.4-0.8-0.8-4-0.9-5.9c-0.2-6.9-1.4-10.7-3.3-12.8
		c1.3-0.9,2.3-2,2.4-2.1l0-0.1c2.9-3.7,3.6-6.9,2-9.6c-3.8-6.5-20.7-4.6-25.8-3.9c-1.3,0.2-2.2,1.4-2,2.7c0.2,1.3,1.4,2.2,2.7,2
		c1.2-0.2,2.4-0.3,3.7-0.4l0,10.9c-0.4,0-0.8,0-1.2,0c-1.3,0-2.4,1-2.4,2.3c0,1.3,1,2.4,2.4,2.4c0.4,0,0.8,0,1.2,0l0.1,13.7L79,63.8
		c-1.3,0.2-2.2,1.4-2,2.7c0.2,1.3,1.4,2.2,2.7,2L91,66.8c1.3-0.2,2.2-1.4,2-2.7c-0.2-1.3-1.4-2.2-2.7-2l-3.4,0.5l-0.1-13.5
		c2.2-0.4,4.4-0.8,6.2-1.4c0,0,0.5-0.1,0.8,0c0.9,0.1,1.5,0.3,2,1.1c0.8,1.1,1.7,3.6,1.8,9.4c0,1.1,0.3,5.8,1.3,7.8
		c0.3,0.6,1.4,2.8,3.4,3.6c1.4,0.6,3.6,1.2,5.9,0.1c2.1-1,3.4-2.5,4.5-6C113.1,62.5,112.4,61.2,111.1,60.8"/>
	<path style="fill:#FFFFFF;" d="M195.6,53.4c-1.3,0-2.3,1.1-2.3,2.3l0.1,0.8c0,0.1-0.1,2-0.1,2.2c-0.1,1-0.5,2.5-0.8,3.1
		c-0.3,0.6-0.7,1.1-1.4,1.8c-0.4,0.4-1.3,0.8-1.8,1.1c-0.6,0.3-1.2,0.3-2.5,0.3l-1.4,0c-6.1,0.2-6.9-4.8-7-5.9l-0.1-4l0.1-6.3
		c0.3-4,1.2-6.8,2.7-7.6c1.1-0.7,2.9-0.5,5.4,0.6c3.1,1.3,5.2,4.7,5.3,4.7c0.6,0.9,1.6,1.3,2.6,1c1-0.3,1.7-1.2,1.7-2.2V35.2
		c0-1.3-1.1-2.3-2.3-2.3c-1.3,0-2.4,1-2.4,2.3v4.2c-0.9-0.7-2-1.4-3.1-1.8c-1.5-0.6-6-2.5-9.7-0.2c-2.9,1.8-4.5,5.5-4.9,11.3
		l-0.1,6.6l0.1,4.3c0.2,3.7,3,10.5,11.8,10.3l1.3,0c1.6,0,3,0,4.5-0.8c1.1-0.5,2.4-1.2,3.3-2.2c0.7-0.8,1.3-1.5,2-2.6
		c0.9-1.6,1.3-4.3,1.4-4.8l0.1-2.7l-0.1-1C198,54.4,197,53.4,195.6,53.4"/>
	<path style="fill:#FFFFFF;" d="M234.2,68.8c-0.1-1.3-1.2-2.3-2.5-2.2c-0.9,0.1-2,0.1-3.3,0.3c0-4,0-12.1-0.2-38.4l3.6-0.1
		c1.3,0,2.3-1.1,2.3-2.4c0-1.3-1.1-2.3-2.4-2.3L219.5,24c-1.3,0-2.3,1.1-2.3,2.4c0,1.3,1.1,2.3,2.4,2.3l3.9-0.1
		c0,5.1,0.1,10.7,0.1,16.3l-13.8,2.3l0-14.6h3.8c1.3,0,2.3-1,2.3-2.4c0-1.3-1-2.4-2.3-2.4h-12.3c-1.3,0-2.4,1.1-2.4,2.4
		c0,1.3,1,2.4,2.4,2.4h3.9l0,31.3l-4-0.1c-1.3,0-2.4,1-2.4,2.3c0,1.3,1,2.4,2.3,2.4l12.7,0.2c1.3,0,2.4-1,2.4-2.3
		c0-1.3-1-2.4-2.3-2.4l-4-0.1l0-12l13.9-2.3c0,8.9,0.1,14.8,0.1,17.9c-3.2,0.6-5.3,0.9-6.7,2.3c-0.8,1-0.7,2.4,0.2,3.3
		c1,0.9,2,0.3,3.3-0.1l0,0c1.4-0.6,5.8-1.3,11.4-1.7C233.3,71.2,234.3,70.1,234.2,68.8"/>
	<path style="fill:#FFFFFF;" d="M122.3,47.1l2.9-14.1l5.2,12.8L122.3,47.1z M142.9,50.9c-0.7,0.2-2,0.9-4.1,1.8l-3-7.4l-8.8-21.4
		c-0.1-0.2-0.6-1-0.7-1.1c-0.5-0.6-1.3-0.8-2-0.7l-10.1,1.4c-1.3,0.2-2.2,1.4-2,2.7c0.2,1.3,1.4,2.2,2.6,2c0,0,3.8-0.5,6.8-1
		c-0.9,4.3-4.3,21.8-5.4,27.1l-6.8-0.3c-1.3-0.1-2.4,1-2.5,2.2c-0.1,1.3,0.9,2.4,2.2,2.5l11.7,0.6c1.3,0.1,2.4-0.9,2.5-2.2
		c0.1-1.3-0.7-2.5-2.4-2.5l0.5-3.6l10.9-1.8l2.3,5.7c-1.8,1-2.9,1.7-3.7,2.8c-0.8,1-0.6,2.5,0.5,3.3c1,0.8,2.5,0.6,3.3-0.5
		c1-1.4,5.5-3.5,9.9-5.1c1.2-0.4,1.8-1.8,1.4-3C145.4,51.1,144.1,50.4,142.9,50.9"/>
	<path style="fill:#FFFFFF;" d="M171.1,27.2c-0.1,0-7,0.5-14.7,0.7l-15,0.2c-0.7,0-1.3,0.3-1.8,0.8c-0.4,0.5-0.6,1.2-0.5,1.9
		l1.8,11.6c0.2,1.3,1.4,2.2,2.7,2c1.2-0.2,2-1.2,2-2.3c0-0.1-0.9-6-1.4-9.2c0.6,0,9.9-0.2,9.9-0.2l0.1,30.7l-4.9,0.1
		c-1.3,0-2.3,1.1-2.3,2.4c0,1.3,1.1,2.3,2.4,2.3l14.3-0.2c1.3,0,2.3-1.1,2.3-2.4c0-1.3-1.1-2.3-2.4-2.3l-4.7,0.1l0-30.7
		c4-0.1,7.5-0.3,9.9-0.4c-0.1,1.9-0.2,3.4-0.2,4.5c0,2.5,0.3,3,0.5,3.3c0.6,1.1,1.9,1.4,3,0.8c0.9-0.4,1.3-1.4,1.3-2.3
		c0,0,0-5.3,0.3-8.7c0-0.7-0.2-1.4-0.7-1.9C172.4,27.4,171.8,27.2,171.1,27.2"/>
	<path style="fill:#FFFFFF;" d="M72.1,55.9c-1.3,0-2.3,1.1-2.3,2.3l0.1,1.3c0,0.1,0,1.9,0,2.2c-0.2,1-0.5,2.5-0.8,3.1
		c-0.4,0.6-0.7,1.1-1.4,1.8c-0.4,0.4-1.3,0.9-1.8,1.1c-0.6,0.3-1.2,0.3-2.5,0.3l-1.4,0c-6.1,0.2-6.9-4.8-7-5.9l-0.1-4l0.1-6.3
		c0.3-4,1.2-6.8,2.7-7.6c1.1-0.7,2.9-0.5,5.4,0.6c3.1,1.3,5.2,4.7,5.3,4.7c0.5,0.9,1.6,1.3,2.6,1c1-0.3,1.7-1.2,1.7-2.2V38.1
		c0-1.3-1.1-2.3-2.4-2.3c-1.3,0-2.4,1-2.4,2.3v4.2c-0.9-0.7-2-1.4-3.1-1.8c-1.5-0.6-6-2.5-9.7-0.2c-2.9,1.8-4.5,5.5-4.9,11.3l0,0.1
		l-0.1,6.4v0.1l0.1,4.2l0,0.1c0.2,3.7,3,10.5,11.8,10.3l1.3,0c1.6,0,2.9,0,4.5-0.8c1.1-0.5,2.4-1.2,3.3-2.2c0.7-0.8,1.3-1.6,1.9-2.6
		c0.9-1.6,1.3-4.3,1.4-4.8l0.1-2.8l-0.1-1.3C74.5,56.9,73.4,55.9,72.1,55.9"/>
</g>
</svg>
