<?xml version="1.0" encoding="utf-8"?>
<!-- Generator: Adobe Illustrator 19.2.1, SVG Export Plug-In . SVG Version: 6.00 Build 0)  -->
<svg version="1.1" id="Layer_1" xmlns="http://www.w3.org/2000/svg" xmlns:xlink="http://www.w3.org/1999/xlink" x="0px" y="0px"
	 width="16px" height="16px" viewBox="0 0 16 16" style="enable-background:new 0 0 16 16;" xml:space="preserve">
<style type="text/css">
	.st0{fill:#4C95FF;}
</style>
<g>
	<path class="st0" d="M6.9,12.5h5.2c-0.1,0.1-0.3,0.2-0.4,0.2l-5.5,1.8c-0.2,0.1-0.3,0.1-0.5,0.1c-0.6,0-1.2-0.4-1.4-1L2,6.6
		C1.7,5.9,2.1,5,2.9,4.7l1.7-0.6v6.1C4.6,11.5,5.6,12.5,6.9,12.5z"/>
</g>
<g>
	<path class="st0" d="M12.6,1.4H6.9C6,1.4,5.3,2.1,5.3,2.9v7.3c0,0.8,0.7,1.5,1.5,1.5h5.8c0.8,0,1.5-0.7,1.5-1.5V2.9
		C14.1,2.1,13.4,1.4,12.6,1.4z M12.7,9.8c0,0.3-0.2,0.6-0.6,0.6h-5c-0.3,0-0.6-0.3-0.6-0.6V6c0-0.3,0.3-0.6,0.6-0.6h5
		c0.3,0,0.6,0.3,0.6,0.6V9.8z M12.2,4H7.3C7,4,6.7,3.8,6.7,3.5c0-0.3,0.3-0.6,0.6-0.6h4.9c0.3,0,0.6,0.3,0.6,0.6
		C12.7,3.8,12.5,4,12.2,4z"/>
</g>
</svg>
