<?xml version="1.0" encoding="UTF-8"?>
<svg width="220px" height="220px" viewBox="0 0 220 220" version="1.1" xmlns="http://www.w3.org/2000/svg" xmlns:xlink="http://www.w3.org/1999/xlink">
    <title>Expenses Graph</title>
    <defs>
        <path d="M108,0 C167.646753,0 216,48.353247 216,108 C216,167.646753 167.646753,216 108,216 C48.353247,216 0,167.646753 0,108 C0,48.353247 48.353247,0 108,0 Z M108,53.0847458 C77.6711426,53.0847458 53.0847458,77.6711426 53.0847458,108 C53.0847458,138.328857 77.6711426,162.915254 108,162.915254 C138.328857,162.915254 162.915254,138.328857 162.915254,108 C162.915254,77.6711426 138.328857,53.0847458 108,53.0847458 Z" id="path-1"></path>
    </defs>
    <g id="Expenses-Graph" stroke="none" stroke-width="1" fill="none" fill-rule="evenodd">
        <g transform="translate(2.000000, 2.000000)">
            <mask id="mask-2" fill="white">
                <use xlink:href="#path-1"></use>
            </mask>
            <path stroke-opacity="0.15" stroke="#000000" stroke-width="2" d="M108,-1 C138.099519,-1 165.349519,11.2002406 185.074639,30.9253609 C204.799759,50.6504811 217,77.9004811 217,108 C217,138.099519 204.799759,165.349519 185.074639,185.074639 C165.349519,204.799759 138.099519,217 108,217 C77.9004811,217 50.6504811,204.799759 30.9253609,185.074639 C11.2002406,165.349519 -1,138.099519 -1,108 C-1,77.9004811 11.2002406,50.6504811 30.9253609,30.9253609 C50.6504811,11.2002406 77.9004811,-1 108,-1 Z M108,54.0847458 C93.1117137,54.0847458 79.6329001,60.1194161 69.8761581,69.8761581 C60.1194161,79.6329001 54.0847458,93.1117137 54.0847458,108 C54.0847458,122.888286 60.1194161,136.3671 69.8761581,146.123842 C79.6329001,155.880584 93.1117137,161.915254 108,161.915254 C122.888286,161.915254 136.3671,155.880584 146.123842,146.123842 C155.880584,136.3671 161.915254,122.888286 161.915254,108 C161.915254,93.1117137 155.880584,79.6329001 146.123842,69.8761581 C136.3671,60.1194161 122.888286,54.0847458 108,54.0847458 Z"></path>
            <g id="Chart" mask="url(#mask-2)">
                <g transform="translate(-1.963636, -1.963636)">
                    <path d="M109.977082,109.958066 L55.1172319,204.976252 C2.64008765,174.679109 -15.3401674,107.577281 14.9579357,55.0991768 C34.9242588,20.5158532 70.0444354,0.240287352 109.977082,0.240287352 L109.977082,109.958066 Z" id="Fill-1" fill="#0EBD8C"></path>
                    <path d="M109.977082,109.958066 L117.630359,219.408859 C94.4179474,221.031903 75.2689086,216.611269 55.1172319,204.976252 L109.977082,109.958066 Z" id="Fill-5" fill="#FFBF00"></path>
                    <path d="M109.977082,109.958066 L109.977082,0.240287352 C170.572327,0.240287352 219.694861,49.36186 219.694861,109.958066 C219.694861,167.82679 175.357906,215.372377 117.630359,219.408859 L109.977082,109.958066 Z" id="Fill-9" fill="#4D97FF"></path>
                </g>
            </g>
        </g>
    </g>
</svg>