<?xml version="1.0" encoding="UTF-8"?>
<svg width="220px" height="220px" viewBox="0 0 220 220" version="1.1" xmlns="http://www.w3.org/2000/svg" xmlns:xlink="http://www.w3.org/1999/xlink">
    <title>Revenue Graph</title>
    <defs>
        <path d="M108,0 C167.646753,0 216,48.353247 216,108 C216,167.646753 167.646753,216 108,216 C48.353247,216 0,167.646753 0,108 C0,48.353247 48.353247,0 108,0 Z M108,53.0847458 C77.6711426,53.0847458 53.0847458,77.6711426 53.0847458,108 C53.0847458,138.328857 77.6711426,162.915254 108,162.915254 C138.328857,162.915254 162.915254,138.328857 162.915254,108 C162.915254,77.6711426 138.328857,53.0847458 108,53.0847458 Z" id="path-1"></path>
    </defs>
    <g id="Revenue-Graph" stroke="none" stroke-width="1" fill="none" fill-rule="evenodd">
        <g transform="translate(2.000000, 2.000000)">
            <mask id="mask-2" fill="white">
                <use xlink:href="#path-1"></use>
            </mask>
            <path stroke-opacity="0.15" stroke="#000000" stroke-width="2" d="M108,-1 C138.099519,-1 165.349519,11.2002406 185.074639,30.9253609 C204.799759,50.6504811 217,77.9004811 217,108 C217,138.099519 204.799759,165.349519 185.074639,185.074639 C165.349519,204.799759 138.099519,217 108,217 C77.9004811,217 50.6504811,204.799759 30.9253609,185.074639 C11.2002406,165.349519 -1,138.099519 -1,108 C-1,77.9004811 11.2002406,50.6504811 30.9253609,30.9253609 C50.6504811,11.2002406 77.9004811,-1 108,-1 Z M108,54.0847458 C93.1117137,54.0847458 79.6329001,60.1194161 69.8761581,69.8761581 C60.1194161,79.6329001 54.0847458,93.1117137 54.0847458,108 C54.0847458,122.888286 60.1194161,136.3671 69.8761581,146.123842 C79.6329001,155.880584 93.1117137,161.915254 108,161.915254 C122.888286,161.915254 136.3671,155.880584 146.123842,146.123842 C155.880584,136.3671 161.915254,122.888286 161.915254,108 C161.915254,93.1117137 155.880584,79.6329001 146.123842,69.8761581 C136.3671,60.1194161 122.888286,54.0847458 108,54.0847458 Z"></path>
            <g id="Chart" mask="url(#mask-2)">
                <g transform="translate(-1.963636, -1.963636)">
                    <path d="M110.053044,110.053133 L92.8717864,1.57692343 C98.623109,0.665796156 104.229908,0.224146286 110.053044,0.224146286 L110.053044,110.053133 Z" id="Fill-1" fill="#0EBD8C"></path>
                    <path d="M110.053044,110.053133 L13.0803765,58.4914086 C29.9384752,26.7859749 57.4051474,7.19449434 92.8717864,1.57692343 L110.053044,110.053133 Z" id="Fill-5" fill="#FFBF00"></path>
                    <path d="M110.053044,110.053133 L110.053044,0.224146286 C170.709883,0.224146286 219.882031,49.3962938 219.882031,110.053133 C219.882031,170.709973 170.709883,219.881223 110.053044,219.881223 C49.3962041,219.881223 0.224056519,170.709973 0.224056519,110.053133 C0.224056519,91.1887593 4.2240399,75.1475333 13.0803765,58.4914086 L110.053044,110.053133 Z" id="Fill-9" fill="#4D97FF"></path>
                </g>
            </g>
        </g>
    </g>
</svg>