<svg width="248" height="504" viewBox="0 0 248 504" fill="none" xmlns="http://www.w3.org/2000/svg">
<g clip-path="url(#clip0)">
<path fill-rule="evenodd" clip-rule="evenodd" d="M36.1432 356.869C36.2196 355.81 36.7127 354.824 37.5141 354.129L39.2843 352.594L94.4334 304.766C96.1024 303.318 98.626 303.5 100.07 305.172L126.218 335.442C127.662 337.114 127.48 339.642 125.811 341.09L70.6619 388.918L68.8917 390.454C68.0903 391.149 67.5972 392.134 67.5208 393.193L66.9451 401.18C66.8688 402.24 66.3757 403.225 65.5742 403.92L55.9901 412.232C55.1887 412.927 54.1446 413.275 53.0875 413.199L45.116 412.624C44.0589 412.548 43.0148 412.896 42.2134 413.591L40.4432 415.126L34.3995 420.367C32.7305 421.815 30.2069 421.633 28.7628 419.961L2.6148 389.691C1.17069 388.019 1.35294 385.491 3.02187 384.043L9.06561 378.802L10.8358 377.266C11.6372 376.571 12.6813 376.224 13.7384 376.3L21.7099 376.874C22.767 376.951 23.8111 376.603 24.6125 375.908L34.1966 367.596C34.998 366.901 35.4912 365.915 35.5675 364.856L36.1432 356.869Z" fill="#CF63CF"/>
<path d="M162.122 173.39C192.194 204.784 223.121 186.471 234.825 173.39L267.045 182.582C271.589 143.89 277.95 31.1236 267.045 18.8963C256.14 6.66907 233.861 18.2078 224.084 25.5056C224.635 23.3025 219.871 15.8395 196.408 3.61224C172.945 -8.61501 159.093 13.1132 155.1 25.5056C150.005 17.3817 134.528 4.68626 113.378 18.8963C92.2284 33.1064 96.8549 57.8638 101.812 68.4662C88.9237 67.8053 79.6431 74.8002 76.6139 78.3802C57.1164 113.74 81.7086 127.262 96.4418 129.602C87.2163 138.277 74.3006 160.088 96.4418 177.933C118.583 195.778 149.454 182.34 162.122 173.39Z" fill="#E9F1FC"/>
<path d="M148.077 235.094C148.077 250.269 160.785 259.925 176.167 261.944C201.365 265.252 204.256 249.923 204.256 235.094C204.256 220.265 200.952 213.197 176.167 208.244C151.382 203.29 148.077 219.919 148.077 235.094Z" fill="#E9F1FC"/>
<path d="M196.821 301.536C196.821 311.118 203.843 320.952 213.344 318.886C222.845 316.819 229.868 311.118 229.868 301.536C229.868 291.954 222.845 282.535 213.344 284.187C203.843 285.838 196.821 291.954 196.821 301.536Z" fill="#E9F1FC"/>
<path fill-rule="evenodd" clip-rule="evenodd" d="M173.24 73.7791L172.954 73.7086C171.923 73.4554 170.835 73.6218 169.927 74.1712L168.038 75.3148C167.131 75.8643 166.042 76.0307 165.012 75.7774L160.646 74.7044C159.616 74.4512 158.728 73.7991 158.179 72.8916L157.035 71.0024C156.486 70.0949 155.599 69.4428 154.568 69.1896L154.281 69.1191L154.281 69.119L152.478 68.6758C150.333 68.1485 148.166 69.4602 147.639 71.6054L140.206 101.847L140.206 101.847L139.274 105.639L139.274 105.639L134.637 124.506C134.109 126.651 135.421 128.817 137.566 129.345L139.369 129.788L139.369 129.788L139.656 129.859C140.687 130.112 141.574 130.764 142.123 131.672L143.267 133.561C143.816 134.468 144.704 135.12 145.734 135.373L150.1 136.447C151.13 136.7 152.219 136.533 153.126 135.984L155.015 134.84C155.923 134.291 157.011 134.124 158.041 134.378L158.328 134.448L158.328 134.448L209.425 147.007C211.571 147.535 213.737 146.223 214.265 144.078L216.083 136.679C216.61 134.534 215.299 132.367 213.153 131.84L169.64 121.145L169.64 121.145L169.353 121.074C168.323 120.821 167.234 120.988 166.327 121.537L164.438 122.681C163.53 123.23 162.442 123.396 161.411 123.143L157.046 122.07C156.015 121.817 155.128 121.165 154.579 120.257L153.435 118.368C152.886 117.461 151.998 116.809 150.968 116.555L150.681 116.485L150.681 116.485L148.878 116.042C146.733 115.514 145.421 113.348 145.948 111.202L147.789 103.711L147.789 103.711L148.721 99.9195L148.721 99.9195L149.631 96.2203C150.158 94.075 152.324 92.7634 154.47 93.2907L156.59 93.8118C157.607 94.0702 158.483 94.7184 159.027 95.6172L160.171 97.5063C160.72 98.4138 161.608 99.0659 162.638 99.3191L167.003 100.392C168.034 100.645 169.122 100.479 170.03 99.9296L171.919 98.7859C172.818 98.2418 173.894 98.0733 174.916 98.3162L218.745 109.089C220.891 109.617 223.057 108.305 223.585 106.16L227.267 91.1775C227.794 89.0323 226.483 86.8657 224.337 86.3384L173.24 73.7791L173.24 73.7791Z" fill="#FFAB19"/>
<path fill-rule="evenodd" clip-rule="evenodd" d="M270.852 499.109C230.053 476.476 189.189 455.04 164.032 453.041C118.975 449.461 104.697 463.221 90.1865 464.925C75.6762 466.629 76.3064 443.685 112.306 434.539C148.306 425.392 52.0843 404.858 41.4819 400.381C30.8794 395.904 35.0387 381.784 47.8195 383.88C60.6004 385.977 103.483 397.275 103.483 397.275C103.483 397.275 100.776 394.665 101.389 389.065C102.001 383.465 110.388 382.64 110.388 382.64C110.388 382.64 107.275 375.066 110.257 371.204C113.238 367.341 120.637 367.984 120.637 367.984C120.637 367.984 118.507 360.124 126.73 357.244C134.953 354.364 156.832 356.821 219.668 393.156C231.672 400.097 245.652 407.483 261.058 415.377L270.852 499.109Z" fill="#825331"/>
<mask id="mask0" style="mask-type:alpha" maskUnits="userSpaceOnUse" x="35" y="356" width="236" height="144">
<path fill-rule="evenodd" clip-rule="evenodd" d="M270.852 499.109C230.053 476.476 189.189 455.04 164.032 453.041C118.975 449.461 104.697 463.221 90.1865 464.925C75.6762 466.629 76.3064 443.685 112.306 434.539C148.306 425.392 52.0843 404.858 41.4819 400.381C30.8794 395.904 35.0387 381.784 47.8195 383.88C60.6004 385.977 103.483 397.275 103.483 397.275C103.483 397.275 100.776 394.665 101.389 389.065C102.001 383.465 110.388 382.64 110.388 382.64C110.388 382.64 107.275 375.066 110.257 371.204C113.238 367.341 120.637 367.984 120.637 367.984C120.637 367.984 118.507 360.124 126.73 357.244C134.953 354.364 156.832 356.821 219.668 393.156C231.672 400.097 245.652 407.483 261.058 415.377L270.852 499.109Z" fill="white"/>
</mask>
<g mask="url(#mask0)">
<path fill-rule="evenodd" clip-rule="evenodd" d="M35.5289 386.99C35.9793 390.84 32.9776 397.193 52.2161 401.814C71.4547 406.434 115.003 418.795 120.794 425.598C126.585 432.401 107.234 435.912 107.234 435.912C107.234 435.912 116.885 432.741 113.396 428.086C109.907 423.432 45.1593 409.67 38.6649 403.795C32.1705 397.921 35.0785 383.14 35.5289 386.99Z" fill="black" fill-opacity="0.1"/>
<path fill-rule="evenodd" clip-rule="evenodd" d="M96.5802 462.775C102.779 461.25 112.845 454.869 128.393 451.989C145.746 448.775 171.017 450.229 183.5 455.314C216.616 468.805 252.369 484.324 252.369 484.324L253.049 490.145C253.049 490.145 184.151 453.888 147.82 456.758C111.489 459.628 95.815 470.955 87.1624 467.926C87.1624 467.926 82.9898 466.12 96.5802 462.775Z" fill="black" fill-opacity="0.15"/>
</g>
</g>
<defs>
<clipPath id="clip0">
<rect width="248" height="504" fill="white"/>
</clipPath>
</defs>
</svg>
