<svg width="248" height="504" viewBox="0 0 248 504" fill="none" xmlns="http://www.w3.org/2000/svg">
<g clip-path="url(#clip0)">
<path fill-rule="evenodd" clip-rule="evenodd" d="M103.489 143H171.346C184.917 143 195.98 155.834 195.98 171.618C195.98 187.402 184.917 200.236 171.346 200.236H139.925C139.925 200.236 139.925 200.236 139.925 200.383C126.501 223.543 106.439 225.313 108.357 214.84C109.684 207.611 110.717 204.366 109.684 200.383H103.636C90.065 200.383 79.0014 187.549 79.0014 171.765C78.8539 155.834 89.77 143 103.489 143Z" fill="#D9E3F2"/>
<path d="M62.5852 223.012L123.618 259.249C138.345 267.992 143.195 287.018 134.451 301.745L24.9952 486.099C16.2519 500.826 -2.77413 505.676 -17.5005 496.932L-78.5335 460.696C-93.2599 451.952 -98.11 432.926 -89.3666 418.2L20.0895 233.845C28.8329 219.119 47.8589 214.269 62.5852 223.012Z" fill="#EC9C13"/>
<path d="M63.0581 223.293L113.919 253.49C128.645 262.233 133.496 281.259 124.752 295.986L15.3011 480.332C6.55774 495.058 -12.4683 499.909 -27.1946 491.165L-78.0556 460.968C-92.7819 452.224 -97.632 433.198 -88.8886 418.472L20.5624 234.126C29.3058 219.399 48.3318 214.549 63.0581 223.293Z" fill="#FFBF00"/>
<path d="M61.0907 242.317L93.2238 261.395C107.95 270.138 112.8 289.164 104.057 303.891L9.25273 463.567C0.509338 478.294 -18.5167 483.144 -33.243 474.4L-65.3761 455.322C-80.1024 446.579 -84.9525 427.553 -76.2091 412.827L18.595 253.15C27.3384 238.423 46.3643 233.573 61.0907 242.317Z" fill="#5CB1D6"/>
<path d="M101.603 258.898C100.906 260.062 99.6529 260.593 98.8025 260.084C97.9522 259.576 97.8272 258.22 98.5233 257.056C99.2194 255.892 100.473 255.361 101.323 255.87C102.174 256.378 102.299 257.734 101.603 258.898Z" fill="#CF8B17"/>
<path d="M74.9889 237.697L98.1364 251.441C99.0672 251.993 99.3749 253.194 98.8237 254.122C98.2725 255.051 97.0711 255.355 96.1403 254.803L72.9928 241.06C72.062 240.507 71.7543 239.306 72.3055 238.378C72.8567 237.449 74.0581 237.145 74.9889 237.697Z" fill="#CF8B17"/>
<path d="M25.4322 293.341C17.5238 288.644 15.1889 277.958 20.2099 269.478C25.2366 261.005 35.714 257.94 43.6281 262.646L84.4612 286.959C92.3754 291.665 94.7102 302.35 89.6835 310.823C84.6625 319.304 74.1712 322.366 66.271 317.663L62.8864 315.651C60.8182 317.198 59.3047 321.187 57.6927 325.776C55.4888 331.981 45.4895 322.45 45.0236 305.619C45.0181 305.381 44.9909 305.182 44.9663 304.968L25.4322 293.341Z" fill="#E9F1FC"/>
<path fill-rule="evenodd" clip-rule="evenodd" d="M62.0948 287.637L59.5976 286.23C58.9016 285.838 58.0184 286.084 57.6248 286.779L53.1713 294.646C52.7778 295.341 53.0229 296.223 53.7189 296.615L56.2169 298.022C56.5785 298.23 56.8326 298.585 56.9134 298.994L57.394 301.427C57.4757 301.841 57.7342 302.198 58.1018 302.405L61.2696 304.19C61.6372 304.397 62.0772 304.434 62.4744 304.29L64.8112 303.444C65.2043 303.302 65.6394 303.336 66.0047 303.538L71.6038 306.693C72.2998 307.085 73.183 306.839 73.5765 306.144L78.0301 298.277C78.4236 297.582 78.1785 296.7 77.4825 296.308L71.8842 293.154C71.5188 292.952 71.0833 292.917 70.6899 293.06L68.3531 293.905C67.9559 294.049 67.5159 294.013 67.1483 293.805L63.9805 292.02C63.6129 291.813 63.3544 291.456 63.2727 291.043L62.7921 288.609C62.7112 288.2 62.4568 287.845 62.0948 287.637Z" fill="#FFAB19"/>
<path d="M51.346 286.197C49.4812 291.172 43.9532 293.699 38.9989 291.842C34.0447 289.985 31.5402 284.446 33.4051 279.471C35.27 274.496 40.798 271.969 45.7522 273.826C50.7065 275.683 53.2109 281.222 51.346 286.197Z" fill="#FFC709"/>
<path d="M45.5275 286.503C43.96 286.515 42.4161 286.121 41.0463 285.359C39.6765 284.597 38.5276 283.493 37.7118 282.154" stroke="#5C6671" stroke-width="2" stroke-miterlimit="10"/>
<path d="M49.4501 285.131C49.2291 285.721 48.5721 286.019 47.9825 285.798C47.393 285.577 47.0942 284.92 47.3152 284.331C47.5362 283.741 48.1933 283.443 48.7828 283.663C49.3723 283.884 49.6711 284.542 49.4501 285.131Z" fill="#5C6671"/>
<path d="M38.8891 278.849C38.6681 279.439 38.011 279.737 37.4215 279.516C36.8319 279.295 36.5332 278.638 36.7541 278.049C36.9751 277.459 37.6322 277.16 38.2218 277.381C38.8113 277.602 39.1101 278.26 38.8891 278.849Z" fill="#5C6671"/>
<path d="M19.412 361.764C25.2455 365.215 34.0556 361.146 39.0879 352.681C44.1228 344.203 43.4748 334.533 37.6496 331.077L7.49595 313.177C1.63471 309.721 -7.1641 313.807 -12.2047 322.277C-17.237 330.741 -15.7001 336.376 -9.89145 339.844L-6.18989 342.656C-6.77534 345.079 -11.4885 351.121 -14.5382 354.9C-18.6382 359.978 -8.52854 362.384 4.43743 353.514C4.59667 353.392 4.76203 353.279 4.93285 353.175L19.412 361.764Z" fill="#E9F1FC"/>
<path fill-rule="evenodd" clip-rule="evenodd" d="M6.18718 328.58C3.00087 335.226 7.17717 344.424 8.98387 345.49C10.7906 346.557 20.8594 345.855 25.1403 339.854C25.2851 339.658 25.4159 339.459 25.5412 339.253C26.4099 337.779 26.6595 336.02 26.2352 334.363C25.8109 332.705 24.7473 331.283 23.2772 330.408C22.5407 329.965 21.7216 329.677 20.87 329.561C20.0183 329.445 19.152 329.505 18.3241 329.735C18.1277 328.898 17.7642 328.109 17.2553 327.416C16.7465 326.723 16.1029 326.14 15.3631 325.702C13.8911 324.833 12.1346 324.583 10.4784 325.006C8.82211 325.429 7.40117 326.492 6.52684 327.961C6.40422 328.154 6.2816 328.346 6.18718 328.58Z" fill="#ED5F87"/>
<path fill-rule="evenodd" clip-rule="evenodd" d="M129.636 156.929C114.391 156.573 108.566 163.41 108.566 163.41L150.38 164.387C150.38 164.387 144.881 157.285 129.636 156.929ZM108.566 163.41L163.595 164.695C164.557 164.718 165.319 165.516 165.296 166.478L164.968 180.533C164.945 181.495 164.147 182.257 163.185 182.234L130.806 181.478L130.806 181.478L129.785 181.454C129.323 181.443 128.876 181.616 128.541 181.936L126.02 184.342C125.685 184.661 125.238 184.834 124.776 184.823L119.25 184.694C118.788 184.684 118.349 184.49 118.03 184.155L115.624 181.634C115.305 181.299 114.866 181.105 114.404 181.095L113.383 181.071L113.383 181.071L109.899 180.989C108.936 180.967 108.175 180.169 108.197 179.206L108.566 163.41Z" fill="white"/>
</g>
<defs>
<clipPath id="clip0">
<rect width="248" height="504" fill="white"/>
</clipPath>
</defs>
</svg>
