<svg width="1280" height="632" viewBox="0 0 1280 632" fill="none" xmlns="http://www.w3.org/2000/svg">
<g clip-path="url(#clip0)">
<path opacity="0.1" d="M264.5 79.9973C202 50 79.1667 -6.00356 -0.5 7.99644V200.996C127 200.996 141.5 308 334 340.5C526.5 373 455 510 812.5 510C1098.5 510 1246 547 1284 565.5V119.5C1193.5 119.5 1175 184.5 1010 154.5C823.122 120.522 751.196 165.738 620 154.5C493.051 143.626 354.899 123.385 264.5 79.9973Z" fill="#4C97FF"/>
<path opacity="0.1" d="M260.103 164.799C197.579 136.18 74.6977 82.7491 -5 96.106V280.24C122.55 280.24 137.055 382.329 329.63 413.336C522.205 444.343 450.677 575.049 808.316 575.049C1094.43 575.049 1241.99 610.35 1280 628V202.488C1189.46 202.488 1170.96 264.502 1005.89 235.88C818.943 203.463 746.988 246.601 615.742 235.88C488.744 225.505 350.537 206.194 260.103 164.799Z" fill="#4C97FF"/>
</g>
<defs>
<clipPath id="clip0">
<rect width="1280" height="632" fill="white"/>
</clipPath>
</defs>
</svg>
