<svg width="424" height="385" viewBox="0 0 424 385" fill="none" xmlns="http://www.w3.org/2000/svg">
<g clip-path="url(#clip0)">
<path fill-rule="evenodd" clip-rule="evenodd" d="M10.5986 91.2246H1V92.0972C1 97.3984 5.29746 101.696 10.5986 101.696V91.2246ZM205.043 91.2255H10.5989V139.945C10.5989 144.363 14.1807 147.945 18.5989 147.945H205.043C209.461 147.945 213.043 144.363 213.043 139.945V99.2255C213.043 94.8072 209.461 91.2255 205.043 91.2255Z" fill="#E5F0FF"/>
<rect x="35.9187" y="108.154" width="158.721" height="6.34884" rx="3" fill="#D9E3F2"/>
<rect x="35.9187" y="122.969" width="133.326" height="6.34884" rx="3" fill="#D9E3F2"/>
<path fill-rule="evenodd" clip-rule="evenodd" d="M296.561 191.748H306.159V192.621C306.159 197.922 301.862 202.219 296.561 202.219V191.748ZM102.117 191.748H296.561V240.468C296.561 244.886 292.979 248.468 288.561 248.468H102.117C97.6983 248.468 94.1166 244.886 94.1166 240.468V199.748C94.1166 195.33 97.6983 191.748 102.117 191.748Z" fill="#E5F0FF"/>
<rect x="113.163" y="209.736" width="142.849" height="6.34884" rx="3" fill="#D9E3F2"/>
<rect x="113.163" y="224.551" width="133.326" height="6.34884" rx="3" fill="#D9E3F2"/>
<path fill-rule="evenodd" clip-rule="evenodd" d="M356.447 252.919C390.764 224.055 400.717 173.95 377.776 133.556C351.909 88.0094 294.017 72.0559 248.47 97.9231C202.923 123.79 186.97 181.683 212.837 227.23C235.172 266.557 281.383 283.821 322.908 271.151L380.435 372.445C384.935 380.369 395.007 383.144 402.931 378.644L407.425 376.092C415.349 371.592 418.124 361.52 413.624 353.596L356.447 252.919Z" fill="black" fill-opacity="0.15"/>
<path fill-rule="evenodd" clip-rule="evenodd" d="M359.691 235.921C394.008 207.057 403.961 156.952 381.02 116.558C355.153 71.0113 297.261 55.0578 251.714 80.925C206.167 106.792 190.213 164.685 216.081 210.232C238.416 249.559 284.627 266.823 326.152 254.153L383.679 355.447C388.179 363.371 398.251 366.146 406.175 361.646L410.669 359.094C418.593 354.594 421.368 344.522 416.868 336.598L359.691 235.921Z" fill="#575E75"/>
<circle cx="299.773" cy="162.034" r="74.6011" transform="rotate(-29.5933 299.773 162.034)" fill="#F2F8FF"/>
<circle cx="297.279" cy="134.61" r="33.8605" fill="#3373CC"/>
<path fill-rule="evenodd" clip-rule="evenodd" d="M297.279 139.436C294.562 139.436 292.361 141.603 292.361 144.279C292.361 146.956 294.562 149.123 297.279 149.123C299.996 149.123 302.197 146.956 302.197 144.279C302.197 141.603 299.996 139.436 297.279 139.436ZM300.102 135.023C298.851 137.782 295.707 137.782 294.456 135.023L290.463 126.264C289.212 123.524 290.779 120.1 293.286 120.1H301.272C303.779 120.1 305.346 123.524 304.095 126.264L300.102 135.023Z" fill="white"/>
<mask id="mask0" style="mask-type:alpha" maskUnits="userSpaceOnUse" x="225" y="87" width="150" height="151">
<circle cx="299.87" cy="162.4" r="74.6011" transform="rotate(-29.5933 299.87 162.4)" fill="#E9F1FC"/>
</mask>
<g mask="url(#mask0)">
<path fill-rule="evenodd" clip-rule="evenodd" d="M122.884 182.135H360.704V243.007C360.704 247.425 357.122 251.007 352.704 251.007H122.884C118.466 251.007 114.884 247.425 114.884 243.007V190.135C114.884 185.716 118.466 182.135 122.884 182.135ZM360.705 182.135H372.36V183.195C372.36 189.632 367.142 194.85 360.705 194.85V182.135Z" fill="#E5F0FF"/>
<rect x="138.011" y="203.979" width="173.456" height="7.70916" rx="3" fill="#D9E3F2"/>
<rect x="138.011" y="221.967" width="161.892" height="7.70916" rx="3" fill="#D9E3F2"/>
</g>
<path d="M110.232 197.99V191.142H114.136C114.712 191.142 115.267 191.185 115.8 191.27C116.333 191.355 116.803 191.526 117.208 191.782C117.613 192.017 117.933 192.358 118.168 192.806C118.424 193.254 118.552 193.841 118.552 194.566C118.552 195.291 118.424 195.878 118.168 196.326C117.933 196.774 117.613 197.126 117.208 197.382C116.803 197.617 116.333 197.777 115.8 197.862C115.267 197.947 114.712 197.99 114.136 197.99H110.232ZM105.208 187.238V210.086H110.232V201.894H115.512C116.941 201.894 118.157 201.691 119.16 201.286C120.163 200.859 120.973 200.305 121.592 199.622C122.232 198.939 122.691 198.161 122.968 197.286C123.267 196.39 123.416 195.483 123.416 194.566C123.416 193.627 123.267 192.721 122.968 191.846C122.691 190.971 122.232 190.193 121.592 189.51C120.973 188.827 120.163 188.283 119.16 187.878C118.157 187.451 116.941 187.238 115.512 187.238H105.208ZM126.552 187.238V210.086H142.712V205.862H131.576V187.238H126.552ZM151.281 201.254L154.257 192.87H154.321L157.201 201.254H151.281ZM151.76 187.238L143.12 210.086H148.177L149.969 204.998H158.513L160.241 210.086H165.457L156.913 187.238H151.76ZM182.659 194.918H187.523C187.373 193.595 187.011 192.422 186.435 191.398C185.859 190.374 185.123 189.521 184.227 188.838C183.352 188.134 182.349 187.601 181.219 187.238C180.109 186.875 178.925 186.694 177.667 186.694C175.917 186.694 174.339 187.003 172.931 187.622C171.544 188.241 170.371 189.094 169.411 190.182C168.451 191.27 167.715 192.55 167.203 194.022C166.691 195.473 166.435 197.051 166.435 198.758C166.435 200.422 166.691 201.979 167.203 203.43C167.715 204.859 168.451 206.107 169.411 207.174C170.371 208.241 171.544 209.083 172.931 209.702C174.339 210.299 175.917 210.598 177.667 210.598C179.075 210.598 180.365 210.385 181.539 209.958C182.712 209.531 183.736 208.913 184.611 208.102C185.485 207.291 186.189 206.31 186.723 205.158C187.256 204.006 187.587 202.715 187.715 201.286H182.851C182.659 202.822 182.125 204.059 181.251 204.998C180.397 205.937 179.203 206.406 177.667 206.406C176.536 206.406 175.576 206.193 174.787 205.766C173.997 205.318 173.357 204.731 172.867 204.006C172.376 203.281 172.013 202.47 171.779 201.574C171.565 200.657 171.459 199.718 171.459 198.758C171.459 197.755 171.565 196.785 171.779 195.846C172.013 194.907 172.376 194.075 172.867 193.35C173.357 192.603 173.997 192.017 174.787 191.59C175.576 191.142 176.536 190.918 177.667 190.918C178.285 190.918 178.872 191.025 179.427 191.238C180.003 191.43 180.515 191.707 180.963 192.07C181.411 192.433 181.784 192.859 182.083 193.35C182.381 193.819 182.573 194.342 182.659 194.918ZM191.146 187.238V210.086H208.49V205.862H196.17V200.262H207.242V196.358H196.17V191.462H208.234V187.238H191.146ZM211.896 187.238V210.086H216.92V200.23H226.168V210.086H231.192V187.238H226.168V196.006H216.92V187.238H211.896ZM239.646 198.758C239.646 197.755 239.753 196.785 239.966 195.846C240.201 194.907 240.564 194.075 241.054 193.35C241.545 192.603 242.185 192.017 242.974 191.59C243.764 191.142 244.724 190.918 245.854 190.918C246.985 190.918 247.945 191.142 248.734 191.59C249.524 192.017 250.164 192.603 250.654 193.35C251.145 194.075 251.497 194.907 251.71 195.846C251.945 196.785 252.062 197.755 252.062 198.758C252.062 199.718 251.945 200.657 251.71 201.574C251.497 202.47 251.145 203.281 250.654 204.006C250.164 204.731 249.524 205.318 248.734 205.766C247.945 206.193 246.985 206.406 245.854 206.406C244.724 206.406 243.764 206.193 242.974 205.766C242.185 205.318 241.545 204.731 241.054 204.006C240.564 203.281 240.201 202.47 239.966 201.574C239.753 200.657 239.646 199.718 239.646 198.758ZM234.622 198.758C234.622 200.422 234.878 201.979 235.39 203.43C235.902 204.859 236.638 206.107 237.598 207.174C238.558 208.241 239.732 209.083 241.118 209.702C242.526 210.299 244.105 210.598 245.854 210.598C247.625 210.598 249.204 210.299 250.59 209.702C251.977 209.083 253.15 208.241 254.11 207.174C255.07 206.107 255.806 204.859 256.318 203.43C256.83 201.979 257.086 200.422 257.086 198.758C257.086 197.051 256.83 195.473 256.318 194.022C255.806 192.55 255.07 191.27 254.11 190.182C253.15 189.094 251.977 188.241 250.59 187.622C249.204 187.003 247.625 186.694 245.854 186.694C244.105 186.694 242.526 187.003 241.118 187.622C239.732 188.241 238.558 189.094 237.598 190.182C236.638 191.27 235.902 192.55 235.39 194.022C234.878 195.473 234.622 197.051 234.622 198.758ZM260.521 187.238V210.086H276.681V205.862H265.545V187.238H260.521ZM284.513 205.862V191.462H288.097C289.335 191.462 290.369 191.643 291.201 192.006C292.055 192.347 292.737 192.849 293.249 193.51C293.761 194.171 294.124 194.971 294.337 195.91C294.572 196.827 294.689 197.862 294.689 199.014C294.689 200.273 294.529 201.339 294.209 202.214C293.889 203.089 293.463 203.803 292.929 204.358C292.396 204.891 291.788 205.275 291.105 205.51C290.423 205.745 289.719 205.862 288.993 205.862H284.513ZM279.489 187.238V210.086H289.345C291.095 210.086 292.609 209.798 293.889 209.222C295.191 208.625 296.268 207.814 297.121 206.79C297.996 205.766 298.647 204.55 299.073 203.142C299.5 201.734 299.713 200.198 299.713 198.534C299.713 196.635 299.447 194.982 298.913 193.574C298.401 192.166 297.676 190.993 296.737 190.054C295.82 189.115 294.721 188.411 293.441 187.942C292.183 187.473 290.817 187.238 289.345 187.238H279.489ZM303.208 187.238V210.086H320.552V205.862H308.232V200.262H319.304V196.358H308.232V191.462H320.296V187.238H303.208ZM328.982 197.574V191.142H334.486C335.638 191.142 336.502 191.398 337.078 191.91C337.654 192.401 337.942 193.201 337.942 194.31C337.942 195.462 337.654 196.294 337.078 196.806C336.502 197.318 335.638 197.574 334.486 197.574H328.982ZM323.958 187.238V210.086H328.982V201.158H334.006C335.265 201.158 336.171 201.435 336.726 201.99C337.281 202.545 337.643 203.419 337.814 204.614C337.942 205.531 338.038 206.491 338.102 207.494C338.166 208.497 338.337 209.361 338.614 210.086H343.638C343.403 209.766 343.222 209.382 343.094 208.934C342.987 208.465 342.902 207.974 342.838 207.462C342.795 206.95 342.763 206.449 342.742 205.958C342.721 205.467 342.699 205.041 342.678 204.678C342.635 204.102 342.55 203.526 342.422 202.95C342.315 202.374 342.134 201.851 341.878 201.382C341.622 200.891 341.291 200.475 340.886 200.134C340.481 199.771 339.969 199.505 339.35 199.334V199.27C340.63 198.758 341.547 198.011 342.102 197.03C342.678 196.049 342.966 194.886 342.966 193.542C342.966 192.667 342.806 191.857 342.486 191.11C342.187 190.342 341.739 189.67 341.142 189.094C340.566 188.518 339.862 188.07 339.03 187.75C338.219 187.409 337.302 187.238 336.278 187.238H323.958Z" fill="black"/>
<path d="M295.277 43.6938L284.841 8.27829M333.15 48.767L346.107 10.2457M368.317 67.1008L396.521 44.1875" stroke="#FFBF00" stroke-width="10" stroke-linecap="round" stroke-linejoin="round"/>
</g>
<defs>
<clipPath id="clip0">
<rect width="424" height="384" fill="white" transform="translate(0 0.0859375)"/>
</clipPath>
</defs>
</svg>
