<svg width="424" height="384" viewBox="0 0 424 384" fill="none" xmlns="http://www.w3.org/2000/svg">
<path opacity="0.5" d="M379.922 202.815C359.9 279.401 302.38 315.942 206.728 315.942C111.075 315.942 33.5332 290.914 33.5332 202.815C33.5332 114.716 112.622 113.715 206.728 89.6878C300.833 65.6608 399.945 126.229 379.922 202.815Z" fill="#5CB1D6"/>
<circle cx="223.246" cy="83.8532" r="44.55" fill="#4C97FF" fill-opacity="0.25"/>
<circle cx="223.607" cy="84.214" r="33.8985" fill="#4C97FF"/>
<path fill-rule="evenodd" clip-rule="evenodd" d="M223.607 89.0441C220.887 89.0441 218.684 91.2135 218.684 93.893C218.684 96.5725 220.887 98.7419 223.607 98.7419C226.328 98.7419 228.53 96.5725 228.53 93.893C228.53 91.2135 226.328 89.0441 223.607 89.0441M226.433 84.6261C225.181 87.3881 222.033 87.3881 220.781 84.6261L216.783 75.8576C215.531 73.1147 217.1 69.686 219.609 69.686H227.605C230.114 69.686 231.683 73.1147 230.431 75.8576L226.433 84.6261Z" fill="white"/>
<path fill-rule="evenodd" clip-rule="evenodd" d="M193.312 137.414H183.702V138.287C183.702 143.594 188.004 147.897 193.312 147.897V137.414ZM387.983 137.415H193.312V186.198C193.312 190.616 196.894 194.198 201.312 194.198H387.983C392.402 194.198 395.983 190.616 395.983 186.198V145.415C395.983 140.996 392.402 137.415 387.983 137.415Z" fill="#E5F0FF"/>
<rect x="207.729" y="154.433" width="158.899" height="6.35597" rx="3" fill="#D9E3F2"/>
<rect x="207.729" y="169.264" width="133.475" height="6.35597" rx="3" fill="#D9E3F2"/>
<path fill-rule="evenodd" clip-rule="evenodd" d="M402.977 223.51H411V225.97C411 230.401 407.408 233.993 402.977 233.993V223.51ZM241.758 223.512H402.977V272.295C402.977 276.713 399.395 280.295 394.977 280.295H241.758C237.34 280.295 233.758 276.713 233.758 272.295V231.512C233.758 227.093 237.34 223.512 241.758 223.512Z" fill="#E5F0FF"/>
<rect width="132.671" height="6.35597" rx="3" transform="matrix(-1 0 0 1 390.939 240.53)" fill="#D9E3F2"/>
<rect width="111.444" height="6.35597" rx="3" transform="matrix(-1 0 0 1 369.229 255.546)" fill="#D9E3F2"/>
<mask id="mask0" style="mask-type:alpha" maskUnits="userSpaceOnUse" x="33" y="84" width="350" height="232">
<path d="M379.922 202.815C359.9 279.401 302.38 315.942 206.728 315.942C111.075 315.942 33.5332 290.914 33.5332 202.815C33.5332 114.716 112.622 113.715 206.728 89.6878C300.833 65.6608 399.945 126.229 379.922 202.815Z" fill="#C4C4C4"/>
</mask>
<g mask="url(#mask0)">
<path d="M52.0537 323.623L60.0627 217.003L147.661 251.041L162.177 323.623H52.0537Z" fill="#B68454"/>
</g>
<path d="M54.9671 211.279C54.9673 287.58 131.057 300.141 173.185 252.132C195.742 226.435 184.479 232.55 233.089 183.894C250.624 166.368 233.801 146.15 198.264 179.875C178.601 198.717 177.501 199.995 186.149 167.825C192.565 143.73 203.555 112.379 209.293 93.2831C215.73 71.707 187.531 64.7686 181.276 83.8296C172.756 109.809 162.967 155.106 155.303 153.706C155.454 151.133 154.919 148.567 153.753 146.268C152.587 143.97 150.831 142.022 148.666 140.624C147.054 139.235 134.171 135.666 129.507 143.462C129.507 143.462 124.134 126.399 108.588 135.708C107.497 136.928 106.474 138.208 105.524 139.541C105.524 139.541 96.1447 120.313 80.5851 135.705C65.0256 151.098 57.7886 190.56 54.9671 211.279Z" fill="#B68554"/>
</svg>
