<svg width="400" height="190" xmlns="http://www.w3.org/2000/svg"><g transform="translate(54 19)" fill="none" fill-rule="evenodd"><ellipse stroke="#000" stroke-width="4.5" fill="#000" fill-rule="nonzero" opacity=".1" cx="146.3" cy="145.5" rx="145.9" ry="4.6"/><path stroke="#7C87A5" stroke-width="1.3" fill="#FFF" fill-rule="nonzero" stroke-linecap="round" stroke-linejoin="round" d="M147 89.8h130.7v52H147z"/><path d="M115.5 69H105v-4c0-.7.6-1.3 1.4-1.3h7.8c.7 0 1.3.6 1.3 1.3v4z" fill="#FFF" fill-rule="nonzero"/><path d="M112 63.7V69h3.5v-4.2c0-.5-.5-1-1.3-1H112z" stroke="#231F20" stroke-width="1.3" fill="#231F20" fill-rule="nonzero" opacity=".1" stroke-linecap="round" stroke-linejoin="round"/><path d="M115.5 69H105v-4c0-.7.6-1.3 1.4-1.3h7.8c.7 0 1.3.6 1.3 1.3v4z" stroke="#7C87A5" stroke-width="1.3" stroke-linecap="round" stroke-linejoin="round"/><path d="M99.8 69H89.4v-4c0-.7.5-1.3 1.3-1.3h7.8c.7 0 1.3.6 1.3 1.3v4z" fill="#FFF" fill-rule="nonzero"/><path d="M96.2 63.7V69h3.6v-4.2c0-.5-.5-1-1.3-1h-2.3z" stroke="#231F20" stroke-width="1.3" fill="#231F20" fill-rule="nonzero" opacity=".1" stroke-linecap="round" stroke-linejoin="round"/><path d="M99.8 69H89.4v-4c0-.7.5-1.3 1.3-1.3h7.8c.7 0 1.3.6 1.3 1.3v4z" stroke="#7C87A5" stroke-width="1.3" stroke-linecap="round" stroke-linejoin="round"/><path d="M84.1 69H73.7v-4c0-.7.5-1.3 1.3-1.3h7.8c.7 0 1.3.6 1.3 1.3v4z" fill="#FFF" fill-rule="nonzero"/><path d="M80.5 63.7V69h3.6v-4.2c0-.5-.5-1-1.2-1h-2.4z" stroke="#231F20" stroke-width="1.3" fill="#231F20" fill-rule="nonzero" opacity=".1" stroke-linecap="round" stroke-linejoin="round"/><path d="M84.1 69H73.7v-4c0-.7.5-1.3 1.3-1.3h7.8c.7 0 1.3.6 1.3 1.3v4z" stroke="#7C87A5" stroke-width="1.3" stroke-linecap="round" stroke-linejoin="round"/><path d="M68.4 69H58v-4c0-.7.5-1.3 1.3-1.3H67c.7 0 1.3.6 1.3 1.3v4z" fill="#FFF" fill-rule="nonzero"/><path d="M64.8 63.7V69h3.6v-4.2c0-.5-.5-1-1.2-1h-2.4z" stroke="#231F20" stroke-width="1.3" fill="#231F20" fill-rule="nonzero" opacity=".1" stroke-linecap="round" stroke-linejoin="round"/><path d="M68.4 69H58v-4c0-.7.5-1.3 1.3-1.3H67c.7 0 1.3.6 1.3 1.3v4z" stroke="#7C87A5" stroke-width="1.3" stroke-linecap="round" stroke-linejoin="round"/><path d="M52.7 69H42.3v-4c0-.7.6-1.3 1.3-1.3h7.8c.7 0 1.3.6 1.3 1.3v4z" fill="#FFF" fill-rule="nonzero"/><path d="M49.1 63.7V69h3.6v-4.2c0-.5-.5-1-1.2-1H49z" stroke="#231F20" stroke-width="1.3" fill="#231F20" fill-rule="nonzero" opacity=".1" stroke-linecap="round" stroke-linejoin="round"/><path d="M52.7 69H42.3v-4c0-.7.6-1.3 1.3-1.3h7.8c.7 0 1.3.6 1.3 1.3v4z" stroke="#7C87A5" stroke-width="1.3" stroke-linecap="round" stroke-linejoin="round"/><path d="M37 69H26.6v-4c0-.7.6-1.3 1.3-1.3h7.8c.7 0 1.3.6 1.3 1.3v4z" fill="#FFF" fill-rule="nonzero"/><path d="M33.4 63.7V69H37v-4.2c0-.5-.5-1-1.2-1h-2.4z" stroke="#231F20" stroke-width="1.3" fill="#231F20" fill-rule="nonzero" opacity=".1" stroke-linecap="round" stroke-linejoin="round"/><path d="M37 69H26.6v-4c0-.7.6-1.3 1.3-1.3h7.8c.7 0 1.3.6 1.3 1.3v4z" stroke="#7C87A5" stroke-width="1.3" stroke-linecap="round" stroke-linejoin="round"/><path d="M241 69h-10.4v-4c0-.7.6-1.3 1.3-1.3h7.9c.7 0 1.3.6 1.3 1.3v4z" fill="#FFF" fill-rule="nonzero"/><path d="M237.5 63.7V69h3.6v-4.2c0-.5-.6-1-1.3-1h-2.3z" stroke="#231F20" stroke-width="1.3" fill="#231F20" fill-rule="nonzero" opacity=".1" stroke-linecap="round" stroke-linejoin="round"/><path d="M241 69h-10.4v-4c0-.7.6-1.3 1.3-1.3h7.9c.7 0 1.3.6 1.3 1.3v4z" stroke="#7C87A5" stroke-width="1.3" stroke-linecap="round" stroke-linejoin="round"/><path d="M225.4 69h-10.5v-4c0-.7.6-1.3 1.3-1.3h7.9c.7 0 1.3.6 1.3 1.3v4z" fill="#FFF" fill-rule="nonzero"/><path d="M221.8 63.7V69h3.6v-4.2c0-.5-.6-1-1.3-1h-2.3z" stroke="#231F20" stroke-width="1.3" fill="#231F20" fill-rule="nonzero" opacity=".1" stroke-linecap="round" stroke-linejoin="round"/><path d="M225.4 69h-10.5v-4c0-.7.6-1.3 1.3-1.3h7.9c.7 0 1.3.6 1.3 1.3v4z" stroke="#7C87A5" stroke-width="1.3" stroke-linecap="round" stroke-linejoin="round"/><path d="M209.7 69h-10.5v-4c0-.7.6-1.3 1.3-1.3h7.9c.7 0 1.3.6 1.3 1.3v4z" fill="#FFF" fill-rule="nonzero"/><path d="M206 63.7V69h3.7v-4.2c0-.5-.6-1-1.3-1h-2.3z" stroke="#231F20" stroke-width="1.3" fill="#231F20" fill-rule="nonzero" opacity=".1" stroke-linecap="round" stroke-linejoin="round"/><path d="M209.7 69h-10.5v-4c0-.7.6-1.3 1.3-1.3h7.9c.7 0 1.3.6 1.3 1.3v4z" stroke="#7C87A5" stroke-width="1.3" stroke-linecap="round" stroke-linejoin="round"/><path d="M194 69h-10.5v-4c0-.7.6-1.3 1.4-1.3h7.8c.7 0 1.3.6 1.3 1.3v4z" fill="#FFF" fill-rule="nonzero"/><path d="M190.4 63.7V69h3.6v-4.2c0-.5-.6-1-1.3-1h-2.3z" stroke="#231F20" stroke-width="1.3" fill="#231F20" fill-rule="nonzero" opacity=".1" stroke-linecap="round" stroke-linejoin="round"/><path d="M194 69h-10.5v-4c0-.7.6-1.3 1.4-1.3h7.8c.7 0 1.3.6 1.3 1.3v4z" stroke="#7C87A5" stroke-width="1.3" stroke-linecap="round" stroke-linejoin="round"/><path d="M178.3 69h-10.5v-4c0-.7.6-1.3 1.4-1.3h7.8c.7 0 1.3.6 1.3 1.3v4z" fill="#FFF" fill-rule="nonzero"/><path d="M174.7 63.7V69h3.6v-4.2c0-.5-.6-1-1.3-1h-2.3z" stroke="#231F20" stroke-width="1.3" fill="#231F20" fill-rule="nonzero" opacity=".1" stroke-linecap="round" stroke-linejoin="round"/><path d="M178.3 69h-10.5v-4c0-.7.6-1.3 1.4-1.3h7.8c.7 0 1.3.6 1.3 1.3v4z" stroke="#7C87A5" stroke-width="1.3" stroke-linecap="round" stroke-linejoin="round"/><path d="M162.6 69h-10.5v-4c0-.7.6-1.3 1.4-1.3h7.8c.7 0 1.3.6 1.3 1.3v4z" fill="#FFF" fill-rule="nonzero"/><path d="M159 63.7V69h3.6v-4.2c0-.5-.6-1-1.3-1H159z" stroke="#231F20" stroke-width="1.3" fill="#231F20" fill-rule="nonzero" opacity=".1" stroke-linecap="round" stroke-linejoin="round"/><path d="M162.6 69h-10.5v-4c0-.7.6-1.3 1.4-1.3h7.8c.7 0 1.3.6 1.3 1.3v4z" stroke="#7C87A5" stroke-width="1.3" stroke-linecap="round" stroke-linejoin="round"/><path d="M275 69H24a2.6 2.6 0 0 0-2.7 2.5v18.3h256.4V71.5c0-1.4-1.2-2.6-2.6-2.6z" stroke="#7C87A5" stroke-width="1.3" fill="#FFF" fill-rule="nonzero" stroke-linecap="round" stroke-linejoin="round"/><g stroke-linecap="round" stroke-linejoin="round" stroke-width="1.3"><path stroke="#7C87A5" fill="#E6E7E8" fill-rule="nonzero" d="M147 84.5h-2.7V82h-21v2.6h-2.6v-13H147z"/><path stroke="#7C87A5" fill="#7C87A5" fill-rule="nonzero" d="M123.3 74.2h21v7.7h-21z"/><path d="M126 80.6v-1.3m2.6 1.3v-1.3m5.2 1.3v-1.3m5.2 1.3v-1.3m-7.8 1.3v-1.3m5.2 1.3v-1.3m5.3 1.3v-1.3" stroke="#E6E7E8"/></g><path d="M272.5 69H262v-4c0-.7.6-1.3 1.3-1.3h7.9c.7 0 1.3.6 1.3 1.3v4z" fill="#FFF" fill-rule="nonzero"/><path d="M268.9 63.7V69h3.6v-4.2c0-.5-.6-1-1.3-1H269z" stroke="#231F20" stroke-width="1.3" fill="#231F20" fill-rule="nonzero" opacity=".1" stroke-linecap="round" stroke-linejoin="round"/><path d="M272.5 69H262v-4c0-.7.6-1.3 1.3-1.3h7.9c.7 0 1.3.6 1.3 1.3v4z" stroke="#7C87A5" stroke-width="1.3" stroke-linecap="round" stroke-linejoin="round"/><path d="M277.7 89.8H21.3v-5.3H270c1.4 0 2.6-1.1 2.6-2.6V69h2.6c1.4 0 2.6 1.2 2.6 2.6v18.3z" stroke="#231F20" stroke-width="1.3" fill="#231F20" fill-rule="nonzero" opacity=".1" stroke-linecap="round" stroke-linejoin="round"/><path d="M256.8 69h-10.5v-4c0-.7.6-1.3 1.3-1.3h7.9c.7 0 1.3.6 1.3 1.3v4z" fill="#FFF" fill-rule="nonzero"/><path d="M253.2 63.7V69h3.6v-4.2c0-.5-.6-1-1.3-1h-2.3z" stroke="#231F20" stroke-width="1.3" fill="#231F20" fill-rule="nonzero" opacity=".1" stroke-linecap="round" stroke-linejoin="round"/><path d="M256.8 69h-10.5v-4c0-.7.6-1.3 1.3-1.3h7.9c.7 0 1.3.6 1.3 1.3v4z" stroke="#7C87A5" stroke-width="1.3" stroke-linecap="round" stroke-linejoin="round"/><path d="M115.5 89.8H105v-4c0-.7.6-1.3 1.4-1.3h7.8c.7 0 1.3.6 1.3 1.4v3.9z" fill="#FFF" fill-rule="nonzero"/><path d="M112 84.5v5.3h3.5v-4.3c0-.5-.5-1-1.3-1H112z" stroke="#231F20" stroke-width="1.3" fill="#231F20" fill-rule="nonzero" opacity=".1" stroke-linecap="round" stroke-linejoin="round"/><path d="M115.5 89.8H105v-4c0-.7.6-1.3 1.4-1.3h7.8c.7 0 1.3.6 1.3 1.4v3.9z" stroke="#7C87A5" stroke-width="1.3" stroke-linecap="round" stroke-linejoin="round"/><path d="M99.8 89.8H89.4v-4c0-.7.5-1.3 1.3-1.3h7.8c.7 0 1.3.6 1.3 1.4v3.9z" fill="#FFF" fill-rule="nonzero"/><path d="M96.2 84.5v5.3h3.6v-4.3c0-.5-.5-1-1.3-1h-2.3z" stroke="#231F20" stroke-width="1.3" fill="#231F20" fill-rule="nonzero" opacity=".1" stroke-linecap="round" stroke-linejoin="round"/><path d="M99.8 89.8H89.4v-4c0-.7.5-1.3 1.3-1.3h7.8c.7 0 1.3.6 1.3 1.4v3.9z" stroke="#7C87A5" stroke-width="1.3" stroke-linecap="round" stroke-linejoin="round"/><path d="M178.3 115.8h-10.5v-3.9c0-.7.6-1.3 1.4-1.3h7.8c.7 0 1.3.6 1.3 1.3v3.9z" fill="#FFF" fill-rule="nonzero"/><path d="M174.7 110.6v5.2h3.6v-4.2c0-.6-.6-1-1.3-1h-2.3z" stroke="#231F20" stroke-width="1.3" fill="#231F20" fill-rule="nonzero" opacity=".1" stroke-linecap="round" stroke-linejoin="round"/><path d="M178.3 115.8h-10.5v-3.9c0-.7.6-1.3 1.4-1.3h7.8c.7 0 1.3.6 1.3 1.3v3.9z" stroke="#7C87A5" stroke-width="1.3" stroke-linecap="round" stroke-linejoin="round"/><path d="M162.6 115.8h-10.5v-3.9c0-.7.6-1.3 1.4-1.3h7.8c.7 0 1.3.6 1.3 1.3v3.9z" fill="#FFF" fill-rule="nonzero"/><path d="M159 110.6v5.2h3.6v-4.2c0-.6-.6-1-1.3-1H159z" stroke="#231F20" stroke-width="1.3" fill="#231F20" fill-rule="nonzero" opacity=".1" stroke-linecap="round" stroke-linejoin="round"/><path d="M162.6 115.8h-10.5v-3.9c0-.7.6-1.3 1.4-1.3h7.8c.7 0 1.3.6 1.3 1.3v3.9z" stroke="#7C87A5" stroke-width="1.3" stroke-linecap="round" stroke-linejoin="round"/><path d="M84.1 89.8H73.7v-4c0-.7.5-1.3 1.3-1.3h7.8c.7 0 1.3.6 1.3 1.4v3.9z" fill="#FFF" fill-rule="nonzero"/><path d="M80.5 84.5v5.3h3.6v-4.3c0-.5-.5-1-1.2-1h-2.4z" stroke="#231F20" stroke-width="1.3" fill="#231F20" fill-rule="nonzero" opacity=".1" stroke-linecap="round" stroke-linejoin="round"/><path d="M84.1 89.8H73.7v-4c0-.7.5-1.3 1.3-1.3h7.8c.7 0 1.3.6 1.3 1.4v3.9z" stroke="#7C87A5" stroke-width="1.3" stroke-linecap="round" stroke-linejoin="round"/><path d="M68.4 89.8H58v-4c0-.7.5-1.3 1.3-1.3H67c.7 0 1.3.6 1.3 1.4v3.9z" fill="#FFF" fill-rule="nonzero"/><path d="M64.8 84.5v5.3h3.6v-4.3c0-.5-.5-1-1.2-1h-2.4z" stroke="#231F20" stroke-width="1.3" fill="#231F20" fill-rule="nonzero" opacity=".1" stroke-linecap="round" stroke-linejoin="round"/><path d="M68.4 89.8H58v-4c0-.7.5-1.3 1.3-1.3H67c.7 0 1.3.6 1.3 1.4v3.9z" stroke="#7C87A5" stroke-width="1.3" stroke-linecap="round" stroke-linejoin="round"/><g><path d="M52.7 89.8H42.3v-4c0-.7.6-1.3 1.3-1.3h7.8c.7 0 1.3.6 1.3 1.4v3.9z" fill="#FFF" fill-rule="nonzero"/><path d="M49.1 84.5v5.3h3.6v-4.3c0-.5-.5-1-1.2-1H49z" stroke="#231F20" stroke-width="1.3" fill="#231F20" fill-rule="nonzero" opacity=".1" stroke-linecap="round" stroke-linejoin="round"/><path d="M52.7 89.8H42.3v-4c0-.7.6-1.3 1.3-1.3h7.8c.7 0 1.3.6 1.3 1.4v3.9z" stroke="#7C87A5" stroke-width="1.3" stroke-linecap="round" stroke-linejoin="round"/></g><g><path d="M37 89.8H26.6v-4c0-.7.6-1.3 1.3-1.3h7.8c.7 0 1.3.6 1.3 1.4v3.9z" fill="#FFF" fill-rule="nonzero"/><path d="M33.4 84.5v5.3H37v-4.3c0-.5-.5-1-1.2-1h-2.4z" stroke="#231F20" stroke-width="1.3" fill="#231F20" fill-rule="nonzero" opacity=".1" stroke-linecap="round" stroke-linejoin="round"/><path d="M37 89.8H26.6v-4c0-.7.6-1.3 1.3-1.3h7.8c.7 0 1.3.6 1.3 1.4v3.9z" stroke="#7C87A5" stroke-width="1.3" stroke-linecap="round" stroke-linejoin="round"/></g><path d="M147 147H24a2.6 2.6 0 0 1-2.7-2.6v-2.6h110v-5.2h15.6V147z" stroke="#7C87A5" stroke-width="1.3" fill="#E6E7E8" fill-rule="nonzero" stroke-linecap="round" stroke-linejoin="round"/><path stroke="#7C87A5" stroke-width="1.3" fill="#E6E7E8" fill-rule="nonzero" stroke-linecap="round" stroke-linejoin="round" d="M21.3 105.4v36.4h110v-26H99.7L84 105.4zM147 147h128c1.5 0 2.7-1.1 2.7-2.6v-2.6H147v5.2z"/><path d="M277.7 89.8v54.6c0 1.5-1.2 2.6-2.6 2.6H146.9V89.8h5.2V108c0 1.4 1.2 2.6 2.7 2.6H186c1.5 0 2.7 1.2 2.7 2.6V134c0 1.4 1.1 2.6 2.6 2.6h10.4c1.5 0 2.7-1.2 2.7-2.6v-20.8c0-1.4 1.1-2.6 2.6-2.6h62.8c1.4 0 2.6-1.2 2.6-2.6V89.8h5.2z" stroke="#231F20" stroke-width="1.3" fill="#231F20" fill-rule="nonzero" opacity=".1" stroke-linecap="round" stroke-linejoin="round"/><path d="M147 89.8H21.2v15.6H84l15.7 10.4h31.4v20.8H181c1.5 0 2.6-1.2 2.6-2.6v-15.6c0-1.4-1.1-2.6-2.6-2.6h-34v-26z" stroke="#7C87A5" stroke-width="1.3" fill="#FFF" fill-rule="nonzero" stroke-linecap="round" stroke-linejoin="round"/><g transform="translate(31.4 114.6)"><ellipse fill="#CC4C23" fill-rule="nonzero" cx="8.3" cy="9" rx="7.8" ry="7.8"/><ellipse stroke="#231F20" stroke-width="2.6" opacity=".1" stroke-linecap="round" stroke-linejoin="round" cx="8.3" cy="9" rx="7.8" ry="7.8"/><path d="M10.9 9H5.6m2.6 2.7V6.5" stroke="#414042" stroke-width="1.3" stroke-linecap="round" stroke-linejoin="round"/></g><g transform="translate(158.3 118.5)"><ellipse stroke="#7C87A5" stroke-width="1.3" stroke-linecap="round" stroke-linejoin="round" cx="6.8" cy="6.9" rx="6.1" ry="6"/><ellipse fill="#7C87A5" fill-rule="nonzero" cx="6.8" cy="6.9" rx="4.3" ry="4.3"/><ellipse stroke="#231F20" stroke-width="1.3" fill="#231F20" fill-rule="nonzero" opacity=".1" stroke-linecap="round" stroke-linejoin="round" cx="6.8" cy="6.9" rx="6.1" ry="6"/></g><g><path d="M211 115.8h65.4c.7 0 1.3.6 1.3 1.3v18.2c0 .7-.6 1.3-1.3 1.3H211c-.7 0-1.3-.6-1.3-1.3v-18.2c0-.7.6-1.3 1.3-1.3z" stroke="#7C87A5" stroke-width="1.3" fill="#FFF" fill-rule="nonzero" stroke-linecap="round" stroke-linejoin="round"/><path d="M277.7 115.8v19.5c0 .7-.6 1.3-1.3 1.3H211c-.7 0-1.3-.6-1.3-1.3v-3.9h59c2 0 3.8-1.7 3.8-3.8v-11.8h5.2z" stroke="#231F20" stroke-width="1.3" fill="#231F20" fill-rule="nonzero" opacity=".1" stroke-linecap="round" stroke-linejoin="round"/><path d="M272.5 115.8H262v-3.9c0-.7.6-1.3 1.3-1.3h7.9c.7 0 1.3.6 1.3 1.3v3.9z" fill="#FFF" fill-rule="nonzero"/><path d="M268.9 110.6v5.2h3.6v-4.2c0-.6-.6-1-1.3-1H269z" stroke="#231F20" stroke-width="1.3" fill="#231F20" fill-rule="nonzero" opacity=".1" stroke-linecap="round" stroke-linejoin="round"/><path d="M272.5 115.8H262v-3.9c0-.7.6-1.3 1.3-1.3h7.9c.7 0 1.3.6 1.3 1.3v3.9z" stroke="#7C87A5" stroke-width="1.3" stroke-linecap="round" stroke-linejoin="round"/><path d="M225.4 115.8h-10.5v-3.9c0-.7.6-1.3 1.3-1.3h7.9c.7 0 1.3.6 1.3 1.3v3.9z" fill="#FFF" fill-rule="nonzero"/><path d="M221.8 110.6v5.2h3.6v-4.2c0-.6-.6-1-1.3-1h-2.3z" stroke="#231F20" stroke-width="1.3" fill="#231F20" fill-rule="nonzero" opacity=".1" stroke-linecap="round" stroke-linejoin="round"/><path d="M225.4 115.8h-10.5v-3.9c0-.7.6-1.3 1.3-1.3h7.9c.7 0 1.3.6 1.3 1.3v3.9z" stroke="#7C87A5" stroke-width="1.3" stroke-linecap="round" stroke-linejoin="round"/><path d="M256.8 115.8h-10.5v-3.9c0-.7.6-1.3 1.3-1.3h7.9c.7 0 1.3.6 1.3 1.3v3.9z" fill="#FFF" fill-rule="nonzero"/><path d="M253.2 110.6v5.2h3.6v-4.2c0-.6-.6-1-1.3-1h-2.3z" stroke="#231F20" stroke-width="1.3" fill="#231F20" fill-rule="nonzero" opacity=".1" stroke-linecap="round" stroke-linejoin="round"/><path d="M256.8 115.8h-10.5v-3.9c0-.7.6-1.3 1.3-1.3h7.9c.7 0 1.3.6 1.3 1.3v3.9z" stroke="#7C87A5" stroke-width="1.3" stroke-linecap="round" stroke-linejoin="round"/><path d="M241 115.8h-10.4v-3.9c0-.7.6-1.3 1.3-1.3h7.9c.7 0 1.3.6 1.3 1.3v3.9z" fill="#FFF" fill-rule="nonzero"/><path d="M237.5 110.6v5.2h3.6v-4.2c0-.6-.6-1-1.3-1h-2.3z" stroke="#231F20" stroke-width="1.3" fill="#231F20" fill-rule="nonzero" opacity=".1" stroke-linecap="round" stroke-linejoin="round"/><path d="M241 115.8h-10.4v-3.9c0-.7.6-1.3 1.3-1.3h7.9c.7 0 1.3.6 1.3 1.3v3.9z" stroke="#7C87A5" stroke-width="1.3" stroke-linecap="round" stroke-linejoin="round"/><g transform="translate(221 118.5)"><ellipse stroke="#7C87A5" stroke-width="1.3" stroke-linecap="round" stroke-linejoin="round" cx="6.7" cy="6.9" rx="6.1" ry="6"/><ellipse fill="#7C87A5" fill-rule="nonzero" cx="6.7" cy="6.9" rx="4.3" ry="4.3"/><ellipse stroke="#231F20" stroke-width="1.3" fill="#231F20" fill-rule="nonzero" opacity=".1" stroke-linecap="round" stroke-linejoin="round" cx="6.7" cy="6.9" rx="6.1" ry="6"/></g><g transform="translate(236.8 118.5)"><ellipse stroke="#7C87A5" stroke-width="1.3" stroke-linecap="round" stroke-linejoin="round" cx="6.9" cy="6.9" rx="6.1" ry="6"/><ellipse fill="#7C87A5" fill-rule="nonzero" cx="6.9" cy="6.9" rx="4.3" ry="4.3"/><ellipse stroke="#231F20" stroke-width="1.3" fill="#231F20" fill-rule="nonzero" opacity=".1" stroke-linecap="round" stroke-linejoin="round" cx="6.9" cy="6.9" rx="6.1" ry="6"/></g><g transform="translate(252.5 118.5)"><ellipse stroke="#7C87A5" stroke-width="1.3" stroke-linecap="round" stroke-linejoin="round" cx="7.2" cy="6.9" rx="6.1" ry="6"/><ellipse fill="#7C87A5" fill-rule="nonzero" cx="7.2" cy="6.9" rx="4.3" ry="4.3"/><ellipse stroke="#231F20" stroke-width="1.3" fill="#231F20" fill-rule="nonzero" opacity=".1" stroke-linecap="round" stroke-linejoin="round" cx="7.2" cy="6.9" rx="6.1" ry="6"/></g></g><path d="M147 147H24a2.6 2.6 0 0 1-2.7-2.6v-2.6h110v-5.2h15.6V147zm36.5-28.6V134c0 1.4-1.1 2.6-2.6 2.6h-49.7v-5.2h44.5c1.4 0 2.6-1.2 2.6-2.6v-13h2.6c1.5 0 2.6 1.2 2.6 2.6zm-53.6-3.9h-30L84 104H21.3v2.6h62.8L99.8 117h31.4v-1.3c0-.7-.6-1.3-1.3-1.3z" stroke="#231F20" stroke-width="1.3" fill="#231F20" fill-rule="nonzero" opacity=".1" stroke-linecap="round" stroke-linejoin="round"/><g><path d="M20 108.8a24.4 24.4 0 1 1 37.8 30.6" stroke="#3D79CC" stroke-width="11.3" stroke-linecap="round" stroke-linejoin="round"/><g fill-rule="nonzero"><path d="M9.4 125.4a2.6 2.6 0 0 1-2.7-2.6l-.1-17.5a2.6 2.6 0 0 1 4.1-2.2L27.5 115a2.6 2.6 0 0 1-.6 4.6l-16.7 5.7-.8.2z" fill="#4C97FF"/><path d="M9.2 103.4c.4 0 .7.1 1 .4l16.9 11.7c1.2.9.9 2.7-.5 3.2L10 124.5a1.8 1.8 0 0 1-2.4-1.7l-.2-17.6c0-1 .9-1.8 1.8-1.8zm0-1.6a3.4 3.4 0 0 0-3.4 3.4l.1 17.6a3.4 3.4 0 0 0 4.6 3.2l16.6-5.7c1.3-.5 2.1-1.5 2.3-2.8.2-1.3-.4-2.5-1.4-3.2l-16.8-11.8c-.6-.5-1.3-.7-2-.7z" fill="#3D79CC"/></g><path d="M20 108.8a24.4 24.4 0 1 1 37.8 30.6" stroke="#4C97FF" stroke-width="8.1" stroke-linecap="round" stroke-linejoin="round"/></g><g transform="translate(193.6 5.2)"><path d="M2.6 14h62.8c1.6 0 2.6 1 2.6 2.4v39.1c0 1.4-1.1 2.6-2.6 2.6H2.6A2.6 2.6 0 0 1 0 55.6v-39c0-1.5 1.2-2.7 2.6-2.7z" stroke="#7C87A5" stroke-width="1.3" fill="#E6E7E8" fill-rule="nonzero" stroke-linecap="round" stroke-linejoin="round"/><path d="M68 16.5v39.1c0 1.4-1.1 2.6-2.6 2.6H2.6A2.6 2.6 0 0 1 0 55.6V53h15.7v-.8a23.3 23.3 0 0 1 0-34.9V14h49.7c1.5 0 2.6 1.2 2.6 2.6z" stroke="#231F20" stroke-width="1.3" fill="#231F20" fill-rule="nonzero" opacity=".1" stroke-linecap="round" stroke-linejoin="round"/><path d="M62.8 14H52.3v-4c0-.7.6-1.3 1.4-1.3h7.8c.7 0 1.3.6 1.3 1.3v4z" stroke="#7C87A5" stroke-width="1.3" fill="#E6E7E8" fill-rule="nonzero" stroke-linecap="round" stroke-linejoin="round"/><path d="M59.2 8.7V14h3.6V9.7c0-.5-.6-1-1.3-1h-2.3z" stroke="#231F20" stroke-width="1.3" fill="#231F20" fill-rule="nonzero" opacity=".1" stroke-linecap="round" stroke-linejoin="round"/><path d="M62.8 14H52.3v-4c0-.7.6-1.3 1.4-1.3h7.8c.7 0 1.3.6 1.3 1.3v4z" stroke="#7C87A5" stroke-width="1.3" stroke-linecap="round" stroke-linejoin="round"/><path d="M15.7 14H5.2v-4c0-.7.6-1.3 1.4-1.3h7.8c.7 0 1.3.6 1.3 1.3v4z" stroke="#7C87A5" stroke-width="1.3" fill="#E6E7E8" fill-rule="nonzero" stroke-linecap="round" stroke-linejoin="round"/><path d="M12.1 8.7V14h3.6V9.7c0-.5-.6-1-1.3-1h-2.3z" stroke="#231F20" stroke-width="1.3" fill="#231F20" fill-rule="nonzero" opacity=".1" stroke-linecap="round" stroke-linejoin="round"/><path d="M15.7 14H5.2v-4c0-.7.6-1.3 1.4-1.3h7.8c.7 0 1.3.6 1.3 1.3v4z" stroke="#7C87A5" stroke-width="1.3" stroke-linecap="round" stroke-linejoin="round"/><path d="M47.1 6.1H36.6V2.2c0-.7.6-1.3 1.4-1.3h7.8c.7 0 1.3.6 1.3 1.3v4z" stroke="#7C87A5" stroke-width="1.3" fill="#E6E7E8" fill-rule="nonzero" stroke-linecap="round" stroke-linejoin="round"/><path d="M43.5 1v5h3.6V2c0-.5-.6-1-1.3-1h-2.3z" stroke="#231F20" stroke-width="1.3" fill="#231F20" fill-rule="nonzero" opacity=".1" stroke-linecap="round" stroke-linejoin="round"/><path d="M47.1 6.1H36.6V2.2c0-.7.6-1.3 1.4-1.3h7.8c.7 0 1.3.6 1.3 1.3v4z" stroke="#7C87A5" stroke-width="1.3" stroke-linecap="round" stroke-linejoin="round"/><path d="M31.4 6.1H21V2.2c0-.7.6-1.3 1.4-1.3H30c.7 0 1.3.6 1.3 1.3v4z" stroke="#7C87A5" stroke-width="1.3" fill="#E6E7E8" fill-rule="nonzero" stroke-linecap="round" stroke-linejoin="round"/><path d="M27.8 1v5h3.6V2c0-.5-.6-1-1.3-1h-2.3z" stroke="#231F20" stroke-width="1.3" fill="#231F20" fill-rule="nonzero" opacity=".1" stroke-linecap="round" stroke-linejoin="round"/><path d="M57.6 34.8c0 7-3 13.1-7.9 17.4v11.2H18.3V52.2a23.3 23.3 0 0 1 0-34.9V6.1h31.4v11.2a23.3 23.3 0 0 1 7.9 17.5z" stroke="#7C87A5" stroke-width="1.3" fill="#E6E7E8" fill-rule="nonzero" stroke-linecap="round" stroke-linejoin="round"/><path d="M31.4 6.1H21V2.2c0-.7.6-1.3 1.4-1.3H30c.7 0 1.3.6 1.3 1.3v4z" stroke="#7C87A5" stroke-width="1.3" stroke-linecap="round" stroke-linejoin="round"/><ellipse fill="#7C87A5" fill-rule="nonzero" opacity=".8" cx="34" cy="34.8" rx="18.3" ry="18.2"/><ellipse stroke="#7C87A5" stroke-width="1.3" stroke-linecap="round" stroke-linejoin="round" cx="34" cy="34.8" rx="18.3" ry="18.2"/><path d="M57.6 34.8c0 4.3-3.6 7.8-7.9 7.8H42v7.8c0 4.3-3.5 7.8-7.9 7.8a7.8 7.8 0 0 1-7.8-7.8v-7.8h-7.9a7.8 7.8 0 0 1-7.8-7.8c0-4.3 3.5-7.8 7.8-7.8h7.9v-8A7.8 7.8 0 0 1 42 19v8h7.8c4.3 0 7.9 3.5 7.9 7.8z" stroke="#7C87A5" stroke-width="1.3" fill="#E6E7E8" fill-rule="nonzero" stroke-linecap="round" stroke-linejoin="round"/><g transform="translate(26.2 26)"><ellipse fill="#CC4C23" fill-rule="nonzero" cx="7.9" cy="8.7" rx="7.8" ry="7.8"/><ellipse stroke="#231F20" stroke-width="2.6" opacity=".1" stroke-linecap="round" stroke-linejoin="round" cx="7.9" cy="8.7" rx="7.8" ry="7.8"/><path d="M10.5 8.7H5.2m2.6 2.6V6.1" stroke="#414042" stroke-width="1.3" stroke-linecap="round" stroke-linejoin="round"/></g><g opacity=".5" transform="translate(13 30)" stroke-linecap="round" stroke-linejoin="round" stroke-width="1.3"><ellipse stroke="#7C87A5" cx="5.3" cy="4.8" rx="4.3" ry="4.3"/><ellipse stroke="#231F20" fill="#231F20" fill-rule="nonzero" cx="5.3" cy="4.8" rx="4.3" ry="4.3"/></g><g opacity=".5" transform="translate(44.5 30)" stroke-linecap="round" stroke-linejoin="round" stroke-width="1.3"><ellipse stroke="#7C87A5" cx="5.2" cy="4.8" rx="4.3" ry="4.3"/><ellipse stroke="#231F20" fill="#231F20" fill-rule="nonzero" cx="5.2" cy="4.8" rx="4.3" ry="4.3"/></g><g opacity=".5" transform="translate(28.8 14.3)" stroke-linecap="round" stroke-linejoin="round" stroke-width="1.3"><ellipse stroke="#7C87A5" cx="5.2" cy="4.9" rx="4.3" ry="4.3"/><ellipse stroke="#231F20" fill="#231F20" fill-rule="nonzero" cx="5.2" cy="4.9" rx="4.3" ry="4.3"/></g><g opacity=".5" transform="translate(28.8 45.6)" stroke-linecap="round" stroke-linejoin="round" stroke-width="1.3"><ellipse stroke="#7C87A5" cx="5.2" cy="4.8" rx="4.3" ry="4.3"/><ellipse stroke="#231F20" fill="#231F20" fill-rule="nonzero" cx="5.2" cy="4.8" rx="4.3" ry="4.3"/></g></g><g><path d="M244.5 22.8a24.3 24.3 0 0 1-36.6 32" stroke="#3D79CC" stroke-width="11.3" stroke-linecap="round" stroke-linejoin="round"/><g fill-rule="nonzero"><path d="M235.3 30c-1.3 0-2.4-1-2.6-2.2l-2.9-17.3c-.1-.8 0-1.5.6-2.1a2.6 2.6 0 0 1 2.4-.9l17.4 2.8a2.6 2.6 0 0 1 1.4 4.4l-14.5 14.5c-.4.5-1 .8-1.8.8z" fill="#4C97FF"/><path d="M232.4 8.3h.3L250 11c1.4.2 2 2 1 3l-14.5 14.5c-.4.4-.8.6-1.3.6-.8 0-1.6-.6-1.8-1.5l-2.9-17.3c-.2-1.1.7-2.1 1.8-2.1zm0-1.6a3.4 3.4 0 0 0-3.4 4l3 17.2a3.4 3.4 0 0 0 5.7 1.9l14.5-14.6a3.4 3.4 0 0 0-1.9-5.7L233 6.7h-.5z" fill="#3D79CC"/></g><path d="M244.5 22.8a24.3 24.3 0 0 1-36.6 32" stroke="#4C97FF" stroke-width="8.1" stroke-linecap="round" stroke-linejoin="round"/></g><g transform="translate(36.6 20.8)"><path d="M31.8 5.6H21.3V1.7c0-.7.6-1.3 1.4-1.3h7.8c.7 0 1.3.6 1.3 1.3v4z" fill="#FFF" fill-rule="nonzero"/><path d="M28.2.4v5.2h3.6V1.4c0-.5-.6-1-1.3-1h-2.3z" stroke="#231F20" stroke-width="1.3" fill="#231F20" fill-rule="nonzero" opacity=".1" stroke-linecap="round" stroke-linejoin="round"/><path d="M31.8 5.6H21.3V1.7c0-.7.6-1.3 1.4-1.3h7.8c.7 0 1.3.6 1.3 1.3v4z" stroke="#7C87A5" stroke-width="1.3" stroke-linecap="round" stroke-linejoin="round"/><path d="M16.1 5.6H5.7V1.7C5.7 1 6.2.4 7 .4h7.8c.7 0 1.3.6 1.3 1.3v4z" fill="#FFF" fill-rule="nonzero"/><path d="M12.5.4v5.2h3.6V1.4c0-.5-.5-1-1.3-1h-2.3z" stroke="#231F20" stroke-width="1.3" fill="#231F20" fill-rule="nonzero" opacity=".1" stroke-linecap="round" stroke-linejoin="round"/><path d="M16.1 5.6H5.7V1.7C5.7 1 6.2.4 7 .4h7.8c.7 0 1.3.6 1.3 1.3v4z" stroke="#7C87A5" stroke-width="1.3" stroke-linecap="round" stroke-linejoin="round"/><path d="M37 26.5H.4V8.2C.4 6.8 1.6 5.6 3 5.6h31.4C36 5.6 37 6.8 37 8.2v18.3z" stroke="#7C87A5" stroke-width="1.3" fill="#FFF" fill-rule="nonzero" stroke-linecap="round" stroke-linejoin="round"/><path d="M.4 26.5H37v18.2c0 1.4-1.1 2.6-2.6 2.6H3a2.6 2.6 0 0 1-2.6-2.6V26.5z" stroke="#7C87A5" stroke-width="1.3" fill="#E6E7E8" fill-rule="nonzero" stroke-linecap="round" stroke-linejoin="round"/><path d="M27 31.7H10.4a7.8 7.8 0 0 1-7.8-7.8c0-4.3 3.5-7.8 7.8-7.8H27c4.4 0 7.9 3.5 7.9 7.8s-3.5 7.8-7.9 7.8z" fill="#414757" fill-rule="nonzero"/><path d="M10.9 34.3V23.9a7.8 7.8 0 0 1 15.7 0v10.4c0 4.3-3.5 7.8-7.9 7.8a7.8 7.8 0 0 1-7.8-7.8z" fill="#414757" fill-rule="nonzero"/><g transform="translate(5.2 19.5)" fill-rule="nonzero"><ellipse fill="#231F20" cx="4.3" cy="4.3" rx="4" ry="4"/><path d="M1.7 5.4c-.4-.5-.5-1.1-.4-1.7 0-.6.4-1.1.8-1.5.4-.4 1-.7 1.5-.8.6 0 1.2 0 1.7.3.1.1.2.3 0 .5l-.2.1c-.9 0-1.6.2-2.1.8-.6.5-.8 1.2-.8 2 0 .3 0 .4-.3.4l-.2-.1zm5.2-.3c0 .3.1.5 0 .8 0 .3-.2.5-.4.7l-.7.4H5v-.3c.4-.1.7-.3 1-.6.2-.2.4-.5.5-1h.4z" fill="#FFF" opacity=".5"/></g><g transform="translate(22.2 19.5)" fill-rule="nonzero"><ellipse fill="#231F20" cx="4.9" cy="4.3" rx="4" ry="4"/><path d="M2.3 5.4C2 4.9 2 4.3 2 3.7c0-.6.4-1.1.8-1.5.4-.4 1-.7 1.5-.8.6 0 1.2 0 1.7.3v.5l-.2.1c-1 0-1.7.2-2.2.8-.5.5-.7 1.2-.7 2 0 .3-.1.4-.3.4l-.3-.1zm5.2-.3c.2.3.2.5.1.8 0 .3-.2.5-.4.7l-.7.4h-.8v-.3h.1c.4-.1.7-.3 1-.6.2-.2.4-.5.4-1h.3z" fill="#FFF" opacity=".5"/></g><ellipse fill="#FFF" fill-rule="nonzero" opacity=".5" cx="18.7" cy="33.9" rx="6.2" ry="6.2"/><path d="M14.6 35.5c-.5-.7-.7-1.6-.6-2.6.1-.9.6-1.8 1.3-2.4.6-.7 1.5-1.1 2.5-1.3.9 0 1.8.1 2.6.6a.5.5 0 0 1-.4 1c-2.7-.3-4.7 1.7-4.5 4.4 0 .3-.2.5-.4.6-.2 0-.4-.1-.5-.3zm8.3-.3c.2.3.2.8 0 1.2 0 .4-.3.8-.6 1.1-.3.3-.6.5-1 .6H20a.3.3 0 0 1-.1-.4l.2-.2c.6 0 1.1-.3 1.5-.7.5-.4.7-1 .8-1.5 0-.2.1-.3.3-.3l.2.2z" fill="#FFF" fill-rule="nonzero" opacity=".5"/><path d="M34.9 23.9a7.8 7.8 0 0 1-7.8 7.8h-.5v2.6a7.8 7.8 0 0 1-15.7 0v-2.6h-.5A7.8 7.8 0 0 1 5 18.3a7.8 7.8 0 0 1 5.5-2.2H27c4.4 0 7.9 3.5 7.9 7.8z" stroke="#231F20" stroke-width="2.6" opacity=".1"/></g><g stroke-linecap="round" stroke-linejoin="round"><path d="M25.3 28.8l6.6-8.7s1.8-1.9-.1-3.4c-2-1.5-3.6.7-3.6.7l-5.5 7.3s-5 6.1-7 6c0 0 .8-2.6.2-5.4-.6-2.9.8-4.6-2.3-6.2-3-1.6-3 2.2-3 3.4-.2 1.2-1.7 7-2.3 9.1-.7 2.2-1.1 8-.5 9 .7 1.1 1.3 1.7 1.3 1.7l-1 2.2s-1.2 1.4 4.3 6.4c5.6 5 7.5 3.6 7.5 3.6s2.2-3 3.2-3.4c1-.6 2.9 0 5.3-2.3L41 36.9s2.3-1.7.8-3.4c-1.4-1.7-3.2.2-3.7.7l-5.5 5.2-.7-1.2 8.6-8.6s2.4-1.8.7-3.9c-1.8-2-4 .6-4 .6l-8 8-.3-.4L38 23.3s2.4-2.3.6-4c-1.9-1.8-3.8 1-3.8 1l-8.6 9.5-1-1z" opacity=".1" fill="#4C97FF" fill-rule="nonzero" stroke="#231F20" stroke-width="3.9"/><path d="M5.5 5l-3.6.3M28 14.2S21.2 6 9.3 5m3.3-3.6L8.8.8m25.4 12.4S28.7 6.6 18 2.9m-6.1 7l-2-.4" stroke="#3D79CC" stroke-width="1.6"/><path d="M25.3 28.8l6.6-8.7s1.8-1.9-.1-3.4c-2-1.5-3.6.7-3.6.7l-5.5 7.3s-5 6.1-7 6c0 0 .8-2.6.2-5.4-.6-2.9.8-4.6-2.3-6.2-3-1.6-3 2.2-3 3.4-.2 1.2-1.7 7-2.3 9.1-.7 2.2-1.1 8-.5 9 .7 1.1 1.3 1.7 1.3 1.7l-1 2.2s-1.2 1.4 4.3 6.4c5.6 5 7.5 3.6 7.5 3.6s2.2-3 3.2-3.4c1-.6 2.9 0 5.3-2.3L41 36.9s2.3-1.7.8-3.4c-1.4-1.7-3.2.2-3.7.7l-5.5 5.2-.7-1.2 8.6-8.6s2.4-1.8.7-3.9c-1.8-2-4 .6-4 .6l-8 8-.3-.4L38 23.3s2.4-2.3.6-4c-1.9-1.8-3.8 1-3.8 1l-8.6 9.5-1-1z" stroke="#3D79CC" stroke-width="1.2" fill="#4C97FF" fill-rule="nonzero"/><path d="M25 17.7s-2-4.3-10-7" stroke="#3D79CC" stroke-width="1.6"/></g></g></svg>