<svg width="462" height="458" viewBox="0 0 462 458" fill="none" xmlns="http://www.w3.org/2000/svg">
<g clip-path="url(#clip0)">
<path fill-rule="evenodd" clip-rule="evenodd" d="M92.6354 137.25C94.8208 135.317 98.5208 135.123 100.899 136.816C103.278 138.51 106.979 138.315 109.164 136.382L109.753 147.455C107.568 149.389 103.867 149.584 101.489 147.889C99.1101 146.195 95.4101 146.39 93.2247 148.323L92.6354 137.25Z" fill="#59C059"/>
<path d="M93.4719 152.968L92.563 135.89" stroke="#59C059" stroke-width="1.5" stroke-linecap="round" stroke-linejoin="round"/>
<path fill-rule="evenodd" clip-rule="evenodd" d="M125.441 134.372L120.937 139.346L121.293 146.027L126.299 150.501L133.024 150.148L137.528 145.174L137.172 138.493L132.166 134.019L125.441 134.372Z" fill="#EC5858"/>
<rect opacity="0.7" x="86.394" y="160.486" width="237.227" height="180.024" rx="8" transform="rotate(-3.02661 86.394 160.486)" fill="white"/>
<path d="M449.223 331.989C444.025 335 438.613 338.591 430.807 333.109C423 327.626 421.959 320.604 425.609 315.406C429.259 310.209 434.05 310.075 444.025 314.287C454 318.499 454.42 328.979 449.223 331.989Z" fill="#4C97FF" fill-opacity="0.5"/>
<path d="M308.539 420.597C313.312 421.592 318.529 422.352 320.279 429.895C322.03 437.438 318.855 442.247 313.833 443.413C308.811 444.578 305.842 442.064 302.093 434.115C298.344 426.166 303.766 419.602 308.539 420.597Z" fill="#4C97FF" fill-opacity="0.5"/>
<path d="M270.199 305.586C266.725 307.598 263.109 309.998 257.891 306.334C252.673 302.669 251.978 297.976 254.417 294.502C256.857 291.028 260.059 290.939 266.725 293.754C273.392 296.569 273.673 303.573 270.199 305.586Z" fill="#4C97FF" fill-opacity="0.5"/>
<path d="M214.551 257.9C166.447 224.314 112.732 248.23 91.8878 264.386L95.4768 332.265C95.7102 336.679 99.4791 340.067 103.893 339.831L173.907 336.085C174.962 336.029 175.988 336.131 177.008 336.408C225.192 349.493 320.799 380.771 329.535 406.5C340.57 439 438.5 493 429.5 402C420.5 311 356.375 313.77 374.5 309C382.5 306.895 427 322 406.5 293C386.712 265.007 345.19 261.374 329.535 266.061C311.25 277.335 262.655 291.487 214.551 257.9Z" fill="#4C97FF" fill-opacity="0.5"/>
<path d="M160.5 277.5C122.9 272.3 101.5 304.333 95.5 321L97.029 332.62C97.5762 336.779 101.243 339.809 105.43 339.563L174.5 335.5C280.1 361.1 321.833 390.167 329.5 401.5C329.333 411 339.4 433.7 381 448.5C422.6 463.3 431.333 429.667 430.5 411C424.833 413.667 406.4 414.5 378 396.5C342.5 374 387.5 346.5 369 321C350.5 295.499 311.5 316.5 268 321C224.5 325.499 207.5 284 160.5 277.5Z" fill="#4C97FF" fill-opacity="0.25"/>
<path d="M267.876 438.381C245.252 435.762 252.254 415.612 230.766 394.142C209.277 372.673 175.289 362.759 182.315 355.726C189.342 348.694 232.186 354.525 253.674 375.994C286.346 411.195 290.5 441 267.876 438.381Z" fill="#4C97FF" fill-opacity="0.5"/>
<path d="M202.389 233.957L228.181 251.492C226.829 254.483 222.997 260.657 218.485 261.425" stroke="#575E75" stroke-width="4" stroke-linecap="round" stroke-linejoin="round"/>
<path d="M213.776 240.959L221.533 230.603M221.533 230.603L229.29 220.248C236.519 227.696 250.203 242.661 247.113 242.936C243.251 243.28 238.729 238.278 233.347 235.963C229.041 234.112 223.677 231.619 221.533 230.603Z" stroke="#575E75" stroke-width="4" stroke-linecap="round" stroke-linejoin="round"/>
<path d="M200.891 233.083C198.244 235.594 193.742 242.093 196.907 248.004" stroke="#575E75" stroke-width="4" stroke-linecap="round"/>
<path d="M141.5 230.5C131 218.667 112.8 195 124 195C135.2 195 142.666 216.333 145 227" stroke="#4C97FF" stroke-width="6" stroke-linecap="round"/>
<path d="M156.5 225C151.333 208.5 143.5 176.6 153.5 181C163.5 185.4 159.667 212.167 156.5 225Z" stroke="#4C97FF" stroke-width="6" stroke-linecap="round" stroke-linejoin="round"/>
<path d="M168.5 220.5C169.667 210.333 174.7 190 185.5 190" stroke="#4C97FF" stroke-width="6" stroke-linecap="round" stroke-linejoin="round"/>
<path fill-rule="evenodd" clip-rule="evenodd" d="M293.068 70.8074C292.89 69.8401 293.177 68.8015 293.948 68.0641L331.244 32.3683L329.069 30.0962C325.45 32.7715 318.581 38.0262 314.277 42.4343C307.988 48.875 300.097 60.7559 300.097 60.7559L298.198 58.7726C298.198 58.7726 305.747 46.7672 311.963 40.3735C318.082 34.0804 329.584 26.3591 329.584 26.3591L330.532 27.35L330.533 27.3496L333.38 30.3241L333.788 29.9333C340.15 23.8444 349.244 21.5478 357.734 23.8859C359.51 24.3749 360.873 25.7996 361.284 27.595C363.248 36.1793 360.555 45.164 354.193 51.2529L314.352 89.3837C313.66 90.0465 312.741 90.3087 311.866 90.1949L239.629 159.331C238.55 160.365 236.92 160.424 235.762 159.602C235.313 160.287 234.779 160.931 234.163 161.521L215.646 179.243C212.99 181.785 209.394 182.737 206.034 182.125L204.144 183.934C202.537 185.471 200.332 185.831 198.326 185.228C198.015 185.58 197.681 185.929 197.325 186.269C194.083 189.372 190.278 190.657 188.825 189.139C187.373 187.622 188.824 183.876 192.065 180.774C192.523 180.336 192.991 179.934 193.463 179.572C193.23 177.8 193.747 175.985 195.132 174.659L197.093 172.782C196.629 169.399 197.738 165.848 200.394 163.306L218.91 145.584C219.514 145.006 220.167 144.51 220.855 144.096C219.734 142.895 219.747 140.982 220.962 139.819L293.068 70.8074Z" fill="black" fill-opacity="0.1"/>
<path fill-rule="evenodd" clip-rule="evenodd" d="M11.3907 295.522C7.90774 292.612 7.46132 287.444 10.3936 283.98L13.8621 279.882C16.7943 276.418 21.9949 275.969 25.4778 278.879L33.7111 285.758C33.759 285.796 33.8065 285.835 33.8537 285.874L51.9519 300.995L51.9863 301.024L160.414 391.614C162.011 392.593 163.388 394.003 164.356 395.826L175.456 416.736C175.54 416.894 175.59 417.056 175.609 417.215L175.736 417.455C176.143 418.22 175.406 419.09 174.578 418.823L174.321 418.741C174.158 418.749 173.989 418.728 173.816 418.673L151.178 411.394C149.199 410.758 147.56 409.647 146.314 408.247L37.8647 317.638L34.5967 314.908L34.5638 314.88L24.0477 306.094C23.9999 306.056 23.9523 306.017 23.905 305.977L11.3907 295.522Z" fill="black" fill-opacity="0.1"/>
<rect width="21.789" height="32.7659" rx="10.8727" transform="matrix(0.556289 -0.830989 0.834316 0.551287 3.44824 280.634)" fill="#FF6680"/>
<rect width="21.789" height="40.0472" rx="10.8945" transform="matrix(0.556289 -0.830989 0.834316 0.551287 12.5605 286.652)" fill="#83899C"/>
<path d="M38.3565 303.699C33.3366 300.382 31.9805 293.64 35.3276 288.64C38.6747 283.64 45.4576 282.275 50.4775 285.592L170.48 364.886L158.359 382.992L38.3565 303.699Z" fill="#575E75"/>
<path fill-rule="evenodd" clip-rule="evenodd" d="M162.268 384.741C154.597 383.191 150.963 374.407 155.307 367.918C159.651 361.428 169.21 361.362 173.615 367.791L187.013 387.347C187.707 388.36 186.809 389.701 185.601 389.456L162.268 384.741Z" fill="#F6DDC3"/>
<path fill-rule="evenodd" clip-rule="evenodd" d="M176.677 387.562C173.211 386.861 171.569 382.892 173.532 379.96C175.495 377.028 179.814 376.998 181.805 379.903L187.373 388.03C187.863 388.746 187.228 389.694 186.374 389.521L176.677 387.562Z" fill="#575E75"/>
<ellipse rx="3.80338" ry="8.12495" transform="matrix(0.771969 0.635661 0.635661 -0.771969 193.204 183.811)" fill="#3373CC"/>
<path fill-rule="evenodd" clip-rule="evenodd" d="M193.795 183.591C191.164 181.429 190.426 177.588 192.59 174.959L194.316 172.864C193.456 169.559 194.137 165.902 196.474 163.064L212.766 143.278C216.638 138.576 223.589 137.902 228.292 141.775C232.994 145.647 233.668 152.598 229.795 157.3L213.503 177.086C211.166 179.924 207.707 181.295 204.299 181.084L202.636 183.104C200.438 185.773 196.467 185.785 193.795 183.591Z" fill="#4C97FF"/>
<path d="M214.123 137.31C212.981 138.697 213.301 140.771 214.792 141.774C217.098 143.325 220.345 145.579 222.655 147.462C225.195 149.533 228.344 152.577 230.458 154.684C231.729 155.95 233.824 155.865 234.965 154.48L299.756 75.795C304.496 70.0385 303.672 61.5293 297.916 56.7892C292.159 52.0491 283.65 52.8731 278.91 58.6297L214.123 137.31Z" fill="white"/>
<path d="M278.116 57.4329C276.971 58.8239 277.296 60.9059 278.796 61.9045C281.424 63.6534 285.325 66.3345 288.052 68.5794C290.778 70.8243 294.158 74.139 296.378 76.3818C297.646 77.6624 299.752 77.5826 300.897 76.1916L335.952 33.6195C341.55 26.8215 343.162 17.5815 340.198 9.28934C339.578 7.55509 338.056 6.3015 336.235 6.02578C327.528 4.70746 318.769 8.06279 313.171 14.8608L278.116 57.4329Z" fill="#4C97FF"/>
<path fill-rule="evenodd" clip-rule="evenodd" d="M312.812 15.2975L309.634 12.68L309.633 12.6805L308.574 11.8085C308.574 11.8085 298.065 20.8351 292.733 27.8072C287.316 34.8908 281.239 47.7042 281.239 47.7042L283.358 49.4492C283.358 49.4492 289.79 36.719 295.274 29.5801C299.027 24.6942 305.227 18.6647 308.505 15.5803L310.933 17.5798L312.812 15.2975Z" fill="#4C97FF"/>
<mask id="mask0" style="mask-type:alpha" maskUnits="userSpaceOnUse" x="187" y="7" width="154" height="184">
<path fill-rule="evenodd" clip-rule="evenodd" d="M278.401 59.4288C278.11 58.4896 278.273 57.4247 278.95 56.602L312.394 15.9866C317.978 9.20479 326.758 5.91964 335.423 7.36993C337.153 7.65948 338.597 8.84895 339.213 10.4912C342.299 18.7165 340.76 27.9635 335.175 34.7453L301.732 75.3607C301.122 76.1009 300.24 76.47 299.358 76.4598L235.074 154.528C234.187 155.605 232.726 155.895 231.521 155.381L214.562 175.977C212.226 178.814 208.768 180.185 205.359 179.974L203.264 182.519C201.859 184.225 199.727 184.827 197.675 184.463C197.394 184.86 197.09 185.258 196.766 185.651C193.637 189.451 189.786 191.449 188.165 190.114C186.543 188.778 187.765 184.615 190.894 180.816C191.306 180.315 191.731 179.845 192.162 179.41C191.72 177.691 192.009 175.844 193.219 174.375L195.376 171.756C194.514 168.45 195.196 164.793 197.533 161.954L214.428 141.436C213.357 140.349 213.221 138.585 214.232 137.358L278.401 59.4288Z" fill="#4C97FF"/>
</mask>
<g mask="url(#mask0)">
<path d="M334.74 23.6781C338.492 19.561 338.419 11.6932 337.914 8.27393L353.028 20.7192L208.747 194.288L194.713 182.732C195.253 183.176 198.411 182.091 204.049 178.544C209.687 174.997 330.049 28.8245 334.74 23.6781Z" fill="black" fill-opacity="0.1"/>
</g>
<path d="M272.845 77.0954C275.055 84.4304 277.688 97.9654 270.544 93.4254C261.613 87.7504 261.538 95.449 260.531 100.996C259.525 106.543 261.035 109.637 254.235 108.492C248.796 107.576 247.172 113.821 247.04 117.059" stroke="#4C97FF" stroke-opacity="0.5" stroke-width="6" stroke-linecap="round"/>
<mask id="mask1" style="mask-type:alpha" maskUnits="userSpaceOnUse" x="7" y="265" width="181" height="125">
<path fill-rule="evenodd" clip-rule="evenodd" d="M10.7066 285.462C6.91996 282.96 5.89703 277.874 8.4218 274.102L11.3998 269.654C13.9245 265.882 19.0409 264.853 22.8276 267.355L33.9568 274.709C34.0293 274.755 34.1014 274.801 34.1731 274.848L49.4063 284.914C49.6574 285.08 49.8993 285.254 50.132 285.437C50.385 285.577 50.6343 285.727 50.8795 285.889L169.589 364.328C171.3 365.12 172.842 366.373 174.017 368.088L187.416 387.644C187.518 387.793 187.585 387.949 187.622 388.106L187.774 388.328C188.265 389.044 187.63 389.992 186.776 389.819L186.507 389.765C186.349 389.791 186.179 389.789 186.003 389.753L162.67 385.038C160.625 384.625 158.866 383.697 157.47 382.436L38.7585 303.996C38.5074 303.83 38.2654 303.655 38.0328 303.473C37.7798 303.333 37.5304 303.182 37.2853 303.02L24.5191 294.585C24.4561 294.546 24.3934 294.505 24.3311 294.464L10.7066 285.462Z" fill="white"/>
</mask>
<g mask="url(#mask1)">
<path d="M18.3154 285.797C11.9154 282.197 9.31543 276.297 8.81543 273.797L0.81543 281.297L175.815 394.797L181.815 388.797L161.815 379.297C116.649 349.63 24.7154 289.397 18.3154 285.797Z" fill="black" fill-opacity="0.1"/>
</g>
</g>
<defs>
<clipPath id="clip0">
<rect width="462" height="458" fill="white"/>
</clipPath>
</defs>
</svg>
