<svg width="449" height="510" viewBox="0 0 449 510" fill="none" xmlns="http://www.w3.org/2000/svg">
<path fill-rule="evenodd" clip-rule="evenodd" d="M210.63 404.369C211.165 403.971 211.694 403.562 212.218 403.141C233.95 385.684 238.038 354.691 221.35 333.917C204.662 313.142 173.517 310.453 151.785 327.91C151.209 328.373 150.645 328.845 150.093 329.327C149.398 329.099 148.818 328.927 148.365 328.803C148.024 328.709 147.755 328.642 147.563 328.596C147.467 328.574 147.391 328.556 147.334 328.544C147.306 328.538 147.282 328.533 147.264 328.529L147.24 328.524L147.232 328.522L147.228 328.521C147.226 328.521 147.225 328.521 146.908 331.501L147.225 328.521C145.599 328.192 144.14 329.26 143.965 330.906C143.837 332.112 144.434 333.294 145.402 333.968C137.852 342.437 133.498 352.858 132.574 363.452C132.284 363.409 132.034 363.378 131.825 363.355C131.595 363.33 131.416 363.316 131.289 363.307C131.225 363.303 131.175 363.3 131.138 363.298L131.094 363.297L131.079 363.296L131.074 363.296L131.072 363.296C131.071 363.296 131.07 363.296 131.162 364.815L131.07 363.296C130.254 363.272 129.634 363.934 129.684 364.772C129.709 365.185 129.892 365.563 130.168 365.845L25.8367 464.185L11.8741 475.401C7.56841 478.859 6.88181 485.154 10.3405 489.459L23.0709 505.307C26.5296 509.613 32.8239 510.3 37.1296 506.841L51.0922 495.625L172.428 414.134C172.65 414.707 173.183 415.143 173.802 415.198C174.398 415.25 174.91 414.936 175.143 414.438C185.249 415.393 195.783 413.264 205.196 407.916C205.67 408.929 206.64 409.694 207.774 409.827C209.409 410.017 210.765 408.82 210.804 407.152L207.845 406.807C210.804 407.152 210.804 407.151 210.804 407.149L210.804 407.144L210.805 407.135L210.805 407.111L210.805 407.066L210.806 407.043C210.806 406.99 210.806 406.92 210.804 406.833C210.802 406.659 210.795 406.418 210.778 406.112C210.755 405.666 210.71 405.083 210.63 404.369Z" fill="black" fill-opacity="0.1"/>
<ellipse cx="155.233" cy="308.997" rx="48.2491" ry="55.4504" transform="rotate(37.373 155.233 308.997)" fill="#68708A"/>
<path d="M112.652 284.837C112.652 284.837 134.738 282.866 160.749 304.148C186.76 325.43 189.866 343.337 189.866 343.337" stroke="#818698" stroke-width="6" stroke-linecap="round"/>
<path d="M105.23 320.812C105.23 320.812 122.604 322.168 137.446 333.47C152.288 344.771 156.578 360.032 156.578 360.032L48.2902 481.041L35.748 497.461C32.3957 501.85 26.12 502.69 21.731 499.338L5.57666 486.999C1.18765 483.647 0.347288 477.371 3.69967 472.982L16.2418 456.562L105.23 320.812Z" fill="#575E75"/>
<path d="M101.357 342.574C103.506 339.131 108.067 338.133 111.457 340.363C114.887 342.62 115.749 347.279 113.353 350.614L37.3986 456.33C36.4646 457.63 34.6715 457.962 33.3342 457.082C31.9804 456.191 31.5846 454.383 32.4425 453.008L101.357 342.574Z" fill="white" fill-opacity="0.15"/>
<path d="M103.355 323.552C103.355 323.552 117.934 319.686 135.864 333.17C153.795 346.654 156.608 360.586 156.608 360.586" stroke="#4D5368" stroke-width="3" stroke-linecap="round"/>
<mask id="mask0" style="mask-type:alpha" maskUnits="userSpaceOnUse" x="1" y="256" width="206" height="246">
<path fill-rule="evenodd" clip-rule="evenodd" d="M192.314 340.286C192.812 339.682 193.3 339.066 193.78 338.438C212.369 314.101 210.271 281.259 189.094 265.084C167.918 248.909 135.681 255.526 117.092 279.864C116.564 280.556 116.051 281.255 115.556 281.961C114.85 281.94 114.261 281.94 113.798 281.949C113.434 281.956 113.148 281.968 112.945 281.979C112.843 281.985 112.762 281.99 112.703 281.994C112.673 281.996 112.648 281.998 112.629 282L112.605 282.002L112.595 282.003L112.592 282.003C112.59 282.003 112.588 282.003 112.855 284.991L112.588 282.003C110.938 282.151 109.719 283.608 109.867 285.258C109.976 286.479 110.801 287.463 111.891 287.833C105.853 298.799 103.506 310.817 104.728 321.965C104.426 322.008 104.166 322.051 103.949 322.091C103.712 322.134 103.527 322.173 103.397 322.203C103.332 322.217 103.28 322.23 103.243 322.239L103.198 322.25L103.183 322.254L103.178 322.255L103.175 322.256C103.175 322.256 103.174 322.256 103.558 323.706L103.174 322.256C102.373 322.469 101.896 323.29 102.108 324.091C102.213 324.487 102.467 324.803 102.793 324.997L16.4453 456.719L3.90311 473.139C0.550744 477.528 1.39109 483.804 5.7801 487.156L21.9345 499.495C26.3235 502.848 32.5991 502.007 35.9515 497.618L48.4937 481.198L155.542 361.575C155.549 361.574 155.556 361.573 155.563 361.572C155.89 362.063 156.493 362.334 157.108 362.21C157.689 362.093 158.123 361.655 158.263 361.117C168.804 359.057 179.158 353.681 187.694 345.324C188.352 346.176 189.448 346.643 190.582 346.447C192.215 346.164 193.308 344.611 193.025 342.978L190.069 343.491C193.025 342.978 193.025 342.976 193.025 342.974L193.024 342.97L193.022 342.961L193.018 342.937L193.011 342.9L193.005 342.87C192.995 342.816 192.981 342.746 192.962 342.658C192.925 342.484 192.87 342.242 192.792 341.937C192.682 341.508 192.528 340.955 192.314 340.286Z" fill="#4D5368"/>
</mask>
<g mask="url(#mask0)">
<path d="M182.6 325.368C203.773 302.393 195.707 276.176 189.027 265.939L237.473 309.286L34.1043 505.545C27.9759 498.146 19.3915 491.589 21.5771 488.728C23.7627 485.866 104.806 392.812 125.017 371.097C141.186 353.724 147.581 343.929 144.282 342.315C151.216 345.497 161.427 348.343 182.6 325.368Z" fill="black" fill-opacity="0.1"/>
</g>
<ellipse cx="16.6654" cy="490.414" rx="13.6826" ry="4.32081" transform="rotate(37.373 16.6654 490.414)" fill="#4D5368"/>
<path fill-rule="evenodd" clip-rule="evenodd" d="M233.918 264.48C214.722 247.172 202.253 221.106 198.642 192.942C191.887 140.246 241.165 107.752 292.309 100.115C339.427 93.0782 382.262 119.413 390.987 177.587C398.593 228.297 364.017 282.928 292.309 285.77C281.559 286.196 271.514 284.633 262.287 281.434C256.29 286.918 246.617 292.086 231.902 292.992C227.454 293.266 224.772 287.38 226.903 283.496C229.926 277.986 232.854 271.005 233.918 264.48Z" fill="#EDF5FF"/>
<path fill-rule="evenodd" clip-rule="evenodd" d="M277.25 125.95C276.424 119.079 274.537 104.105 265.588 101.351L263.693 91.4905C270.02 90.9135 282.45 96.8324 281.548 125.124C281.417 126.871 281.096 129.453 280.54 132.122C279.917 135.108 277.511 134.293 277.521 131.243C277.528 129.413 277.447 127.593 277.25 125.95ZM258.923 98.518C258.298 95.2638 260.439 92.1169 263.693 91.4914L275.18 151.26C277.209 157.327 271.852 165.337 262.737 169.56C253.2 173.979 243.159 172.578 240.312 166.432C237.464 160.285 242.887 151.72 252.425 147.302C257.905 144.762 263.552 144.145 267.904 145.245L258.923 98.518Z" fill="#FF6680"/>
<path fill-rule="evenodd" clip-rule="evenodd" d="M102.988 6.91139C103.446 3.8266 106.318 1.69739 109.403 2.15565L101.001 58.7152C100.917 64.7266 93.6751 70.1647 84.2781 71.0744C74.4481 72.0261 65.9822 67.6622 65.3689 61.3273C64.7556 54.9925 72.2272 49.0856 82.0571 48.1339C87.7053 47.5871 92.9031 48.7952 96.4197 51.1238L102.988 6.91139ZM109.404 2.15586C115.193 3.61198 124.372 12.7248 114.774 37.5273C114.172 38.9043 113.212 40.8507 112.042 42.8489C110.5 45.481 108.535 43.9622 109.519 41.0749C110 39.6606 110.413 38.2455 110.706 36.923C112.111 30.5746 115.094 16.7115 108.017 11.4875L109.404 2.15586Z" fill="#4C97FF" fill-opacity="0.5"/>
<path fill-rule="evenodd" clip-rule="evenodd" d="M435.836 246.408C440.904 246.711 450.013 252.877 445.909 275.12C445.705 276.012 445.393 277.177 444.989 278.448C444.065 281.355 441.971 280.326 442.276 277.291C442.346 276.593 442.394 275.909 442.414 275.257C442.586 269.73 442.89 257.674 436.151 254.426L437.746 295.002C438.622 300.038 433.429 305.724 425.722 307.967C417.657 310.315 409.894 308.005 408.381 302.808C406.868 297.61 412.179 291.494 420.243 289.147C424.877 287.798 429.412 287.987 432.719 289.378L431.226 251.397C431.122 248.747 433.186 246.514 435.836 246.41L435.836 246.408Z" fill="#4C97FF" fill-opacity="0.5"/>
<path fill-rule="evenodd" clip-rule="evenodd" d="M188.378 5.92869C188.736 4.26936 190.269 3.16601 191.917 3.30415L191.922 3.27707L192.345 3.36805L217.787 8.84838L220.72 9.48011L220.72 9.48038C220.734 9.48325 220.748 9.48621 220.762 9.48927L213.643 42.538C213.363 46.0806 208.883 49.0112 203.305 49.1888C197.469 49.3746 192.641 46.4764 192.522 42.7155C192.402 38.9547 197.036 35.7552 202.872 35.5694C206.225 35.4627 209.245 36.3741 211.231 37.8825L215.654 17.3476L190.501 11.9294L185.226 36.4168C184.945 39.9594 180.466 42.89 174.888 43.0676C169.052 43.2534 164.224 40.3552 164.104 36.5943C163.984 32.8334 168.618 29.634 174.454 29.4482C177.807 29.3414 180.828 30.2529 182.814 31.7612L188.378 5.92869Z" fill="#4C97FF" fill-opacity="0.5"/>
<path fill-rule="evenodd" clip-rule="evenodd" d="M354.98 176.025L311.796 185.08L311.804 185.122C309.466 185.937 308.04 188.381 308.561 190.869L316.684 229.607C313.048 228.753 308.36 229.346 303.836 231.535C295.964 235.344 291.572 242.545 294.027 247.618C296.482 252.692 304.854 253.716 312.727 249.907C320.252 246.266 324.596 239.526 322.821 234.507L315.121 197.786L352.842 189.876L359.3 220.672C355.664 219.818 350.975 220.41 346.451 222.599C338.579 226.409 334.187 233.61 336.642 238.683C339.097 243.757 347.469 244.781 355.342 240.972C362.865 237.331 367.21 230.593 365.437 225.574L355.045 176.013C355.023 176.018 355.002 176.022 354.981 176.027L354.98 176.025Z" fill="#FF6680"/>
</svg>
