<svg width="396" height="376" viewBox="0 0 396 376" fill="none" xmlns="http://www.w3.org/2000/svg">
<path d="M371.192 36.9856C420.317 124.009 379.671 199.603 302.559 261.697C225.448 323.791 161.38 298.759 91.9748 261.914C5.72177 216.133 41.7808 91.0318 134.217 55.7339C271.927 3.12174 335.137 -26.8611 371.192 36.9856Z" fill="#4C97FF" fill-opacity="0.15"/>
<path d="M335.599 61.3072C373.718 128.844 342.194 187.487 282.334 235.704C222.474 283.921 172.85 264.493 118.949 235.831C52.0317 200.327 80.0189 103.25 151.703 75.875C258.583 35.0294 307.621 11.7954 335.599 61.3072Z" fill="#4C97FF" fill-opacity="0.15"/>
<path fill-rule="evenodd" clip-rule="evenodd" d="M137.429 26.5289C135.694 26.3793 133.967 26.9031 132.607 27.9917C131.247 29.0804 130.358 30.6505 130.124 32.3768L106.096 209.738L97.6222 208.59L106.248 219.513L106.614 219.248C107.152 220.012 107.842 220.656 108.64 221.14C109.439 221.624 110.329 221.939 111.254 222.063L290.76 246.437C291.643 246.557 292.542 246.501 293.404 246.273C294.265 246.046 295.074 245.651 295.783 245.11C296.492 244.57 297.088 243.895 297.536 243.125C297.984 242.354 298.276 241.503 298.395 240.619L323.486 55.6796C323.631 54.6035 323.516 53.5082 323.151 52.4857C322.785 51.4632 322.179 50.5434 321.385 49.8037L314.348 43.2524C313.241 42.2196 311.82 41.587 310.311 41.4552L137.429 26.5289Z" fill="#D9E3F2"/>
<path fill-rule="evenodd" clip-rule="evenodd" d="M97.2447 208.777C97.7749 209.547 98.4582 210.199 99.2515 210.69C100.045 211.182 100.931 211.502 101.854 211.632L280.282 235.909C282.054 236.15 283.849 235.673 285.272 234.583C286.696 233.493 287.631 231.879 287.873 230.097L312.915 45.0943C313.212 42.9043 311.621 41.1587 310.014 39.6584L304.368 38.3071C302.686 38.1957 298.761 37.6467 297.161 37.3113L128.001 16.0619C126.276 15.9129 124.56 16.4374 123.208 17.5266C121.855 18.6157 120.971 20.1862 120.738 21.9125L96.7505 199.276C96.1332 202.436 96.303 205.7 97.2447 208.777Z" fill="#E6EFFC"/>
<path d="M128.537 14.381L307.105 38.6588C307.969 38.7687 308.801 39.06 309.544 39.5136C310.288 39.9671 310.927 40.5727 311.421 41.2907C311.914 42.0086 312.25 42.8227 312.407 43.6796C312.563 44.5365 312.537 45.4168 312.33 46.2629L273.574 226.83C273.211 228.595 272.196 230.157 270.73 231.205C269.264 232.252 267.456 232.706 265.67 232.477L92.1655 205.39C91.3126 205.258 90.4952 204.955 89.7628 204.498C89.0305 204.042 88.3985 203.441 87.9051 202.733C87.4116 202.025 87.0671 201.224 86.8922 200.379C86.7174 199.534 86.7159 198.662 86.8879 197.816L120.597 20.0594C120.963 18.2876 121.984 16.7191 123.456 15.6666C124.927 14.6142 126.742 14.1551 128.537 14.381Z" fill="white"/>
<path d="M120.579 20.0575C120.946 18.2827 121.97 16.7118 123.445 15.6592C124.92 14.6066 126.739 14.1498 128.536 14.3803L307.399 38.7031C308.264 38.813 309.095 39.1043 309.838 39.5578C310.582 40.0114 311.222 40.617 311.715 41.335C312.208 42.0529 312.544 42.867 312.701 43.7239C312.858 44.5808 312.831 45.4611 312.624 46.3072L303.49 88.6131L112.628 61.7024L120.579 20.0575Z" fill="#389438"/>
<path d="M120.579 20.0572C120.946 18.2824 121.97 16.7115 123.445 15.6589C124.92 14.6063 126.739 14.1495 128.536 14.38L307.399 38.7028C308.264 38.8127 309.095 39.104 309.838 39.5576C310.582 40.0111 311.222 40.6167 311.715 41.3347C312.208 42.0526 312.544 42.8667 312.701 43.7236C312.858 44.5805 312.831 45.4608 312.624 46.3069L310.427 56.513L118.665 30.1036L120.579 20.0572Z" fill="#E64D00"/>
<path d="M118.666 30.0861L310.427 56.5125L306.76 73.3779L115.474 46.711L118.666 30.0861Z" fill="#575E75"/>
<path d="M177.805 85.2088L187.984 86.6564C188.415 86.7142 188.829 86.8606 189.2 87.0864C189.572 87.3122 189.892 87.6126 190.142 87.9685C190.391 88.3244 190.565 88.7281 190.65 89.1542C190.736 89.5803 190.732 90.0196 190.64 90.4443L188.589 100.618C188.406 101.503 187.895 102.286 187.159 102.811C186.423 103.336 185.516 103.563 184.62 103.448L174.458 101.993C174.029 101.933 173.616 101.785 173.246 101.559C172.877 101.332 172.558 101.032 172.309 100.676C172.061 100.321 171.888 99.9182 171.803 99.4932C171.717 99.0681 171.72 98.6299 171.811 98.206L173.835 88.0479C174.016 87.1611 174.526 86.3756 175.263 85.8491C175.999 85.3225 176.907 85.0938 177.805 85.2088Z" fill="#E9F1FC"/>
<path d="M200.217 88.4017L210.397 89.8493C210.827 89.9068 211.241 90.0532 211.611 90.2791C211.982 90.5051 212.301 90.8057 212.55 91.1619C212.798 91.518 212.969 91.9219 213.053 92.3479C213.136 92.7738 213.131 93.2125 213.036 93.6361L210.958 103.833C210.771 104.719 210.258 105.502 209.521 106.027C208.785 106.553 207.878 106.783 206.979 106.672L196.818 105.208C196.389 105.149 195.977 105.001 195.608 104.774C195.239 104.547 194.921 104.246 194.674 103.891C194.427 103.535 194.256 103.132 194.173 102.707C194.089 102.282 194.094 101.845 194.188 101.422L196.239 91.2403C196.422 90.3529 196.934 89.5674 197.672 89.0411C198.409 88.5148 199.319 88.2864 200.217 88.4017Z" fill="#E9F1FC"/>
<path d="M222.622 91.5948L232.811 93.0176C233.241 93.0783 233.653 93.2275 234.023 93.4558C234.392 93.6841 234.709 93.9865 234.956 94.3438C235.202 94.7012 235.372 95.1058 235.454 95.5321C235.535 95.9583 235.528 96.397 235.432 96.8202L233.319 107.032C233.134 107.921 232.621 108.707 231.882 109.234C231.143 109.762 230.232 109.992 229.332 109.878L219.179 108.407C218.749 108.349 218.336 108.201 217.966 107.974C217.597 107.747 217.278 107.446 217.031 107.089C216.785 106.732 216.615 106.327 216.534 105.901C216.452 105.474 216.461 105.036 216.558 104.613L218.644 94.4165C218.835 93.5343 219.349 92.7555 220.085 92.2333C220.821 91.7111 221.726 91.4833 222.622 91.5948Z" fill="#E9F1FC"/>
<path d="M245.017 94.7952L256.122 96.3806C256.552 96.4399 256.965 96.5883 257.334 96.8163C257.704 97.0443 258.021 97.3469 258.267 97.7048C258.513 98.0626 258.682 98.4678 258.762 98.8945C258.842 99.3211 258.833 99.7598 258.734 100.183L256.586 110.417C256.395 111.306 255.879 112.09 255.14 112.618C254.401 113.146 253.491 113.379 252.589 113.272L241.51 111.688C241.079 111.629 240.667 111.48 240.297 111.252C239.928 111.024 239.61 110.722 239.364 110.364C239.118 110.006 238.95 109.601 238.869 109.174C238.789 108.748 238.798 108.309 238.897 107.886L241.019 97.6665C241.201 96.7722 241.714 95.9796 242.455 95.4472C243.196 94.9148 244.111 94.682 245.017 94.7952Z" fill="#E9F1FC"/>
<path d="M268.338 98.1234L278.5 99.5868C278.93 99.6471 279.343 99.7966 279.712 100.026C280.081 100.255 280.398 100.558 280.643 100.917C280.888 101.275 281.055 101.681 281.135 102.108C281.214 102.535 281.203 102.974 281.103 103.397L278.92 113.646C278.727 114.537 278.208 115.324 277.466 115.853C276.724 116.383 275.811 116.616 274.906 116.508L264.808 114.989C264.378 114.929 263.965 114.78 263.596 114.551C263.227 114.322 262.909 114.018 262.664 113.659C262.419 113.301 262.252 112.895 262.173 112.468C262.093 112.041 262.104 111.602 262.204 111.179L264.361 100.945C264.56 100.068 265.076 99.2946 265.81 98.774C266.544 98.2533 267.444 98.0217 268.338 98.1234Z" fill="#E9F1FC"/>
<path d="M117.134 151L127.232 152.519C127.66 152.581 128.071 152.731 128.439 152.958C128.807 153.185 129.124 153.486 129.372 153.841C129.619 154.196 129.791 154.598 129.877 155.022C129.963 155.446 129.961 155.883 129.871 156.306L127.917 166.435C127.746 167.312 127.246 168.091 126.519 168.611C125.793 169.132 124.894 169.355 124.009 169.235L113.911 167.717C113.483 167.653 113.072 167.503 112.705 167.275C112.337 167.048 112.019 166.747 111.771 166.393C111.524 166.038 111.351 165.637 111.263 165.213C111.176 164.79 111.176 164.353 111.263 163.929L113.197 153.859C113.355 152.965 113.853 152.167 114.588 151.634C115.322 151.101 116.235 150.874 117.134 151Z" fill="#E9F1FC"/>
<path d="M139.335 154.308L150.342 155.954C150.77 156.018 151.181 156.168 151.549 156.396C151.916 156.625 152.233 156.926 152.48 157.282C152.726 157.638 152.897 158.04 152.982 158.464C153.066 158.889 153.063 159.326 152.972 159.749L150.975 169.892C150.802 170.771 150.3 171.55 149.572 172.072C148.845 172.594 147.945 172.819 147.058 172.701L136.076 171.047C135.648 170.984 135.237 170.833 134.87 170.605C134.502 170.377 134.185 170.075 133.939 169.72C133.692 169.364 133.521 168.961 133.437 168.537C133.352 168.113 133.355 167.675 133.446 167.252L135.409 157.116C135.586 156.237 136.09 155.459 136.819 154.938C137.547 154.417 138.447 154.191 139.335 154.308Z" fill="#E9F1FC"/>
<path d="M162.443 157.767L172.541 159.285C172.969 159.349 173.38 159.499 173.747 159.727C174.114 159.956 174.43 160.257 174.676 160.613C174.922 160.969 175.092 161.371 175.176 161.796C175.26 162.22 175.255 162.657 175.163 163.08L173.107 173.202C172.934 174.082 172.431 174.864 171.702 175.388C170.972 175.911 170.071 176.136 169.181 176.018L159.083 174.499C158.656 174.434 158.248 174.282 157.882 174.053C157.517 173.824 157.202 173.522 156.957 173.167C156.712 172.812 156.543 172.41 156.459 171.987C156.375 171.564 156.379 171.128 156.47 170.706L158.469 160.546C158.652 159.663 159.166 158.884 159.905 158.368C160.643 157.851 161.551 157.636 162.443 157.767Z" fill="#E9F1FC"/>
<path d="M184.618 161.089L194.716 162.607C195.144 162.672 195.554 162.823 195.921 163.052C196.288 163.282 196.604 163.584 196.849 163.941C197.094 164.297 197.263 164.701 197.345 165.125C197.428 165.55 197.422 165.987 197.328 166.409L195.26 176.599C195.085 177.48 194.58 178.262 193.85 178.785C193.119 179.308 192.216 179.533 191.325 179.415L181.278 177.899C180.851 177.834 180.442 177.682 180.076 177.452C179.71 177.222 179.395 176.92 179.151 176.563C178.907 176.207 178.739 175.804 178.657 175.38C178.575 174.956 178.581 174.52 178.674 174.098L180.708 163.923C180.881 163.044 181.38 162.263 182.106 161.737C182.831 161.211 183.729 160.98 184.618 161.089Z" fill="#E9F1FC"/>
<path d="M206.777 164.384L216.876 165.903C217.303 165.968 217.712 166.12 218.078 166.351C218.444 166.581 218.758 166.885 219.001 167.242C219.243 167.6 219.41 168.004 219.489 168.429C219.569 168.854 219.559 169.291 219.462 169.712L217.366 179.925C217.187 180.806 216.681 181.586 215.949 182.109C215.217 182.631 214.315 182.857 213.423 182.74L203.376 181.225C202.949 181.159 202.54 181.005 202.175 180.775C201.81 180.544 201.497 180.24 201.254 179.883C201.011 179.526 200.845 179.122 200.765 178.698C200.685 178.273 200.693 177.837 200.79 177.416L202.859 167.218C203.034 166.338 203.535 165.557 204.262 165.032C204.988 164.506 205.887 164.275 206.777 164.384Z" fill="#E9F1FC"/>
<path d="M228.933 167.746L239.914 169.4C240.343 169.464 240.753 169.617 241.119 169.848C241.485 170.079 241.8 170.384 242.043 170.742C242.286 171.101 242.452 171.506 242.53 171.932C242.609 172.358 242.599 172.795 242.5 173.217L240.369 183.444C240.186 184.328 239.677 185.11 238.943 185.635C238.209 186.16 237.304 186.388 236.408 186.276L225.47 184.608C225.042 184.541 224.633 184.386 224.267 184.154C223.902 183.922 223.588 183.616 223.345 183.257C223.103 182.899 222.937 182.494 222.857 182.068C222.778 181.642 222.788 181.204 222.885 180.782L224.989 170.578C225.17 169.697 225.676 168.916 226.407 168.391C227.138 167.866 228.04 167.636 228.933 167.746Z" fill="#E9F1FC"/>
<path d="M251.998 171.22L262.096 172.739C262.524 172.804 262.935 172.957 263.301 173.188C263.667 173.42 263.981 173.726 264.223 174.085C264.464 174.445 264.628 174.851 264.704 175.278C264.78 175.705 264.767 176.143 264.664 176.564L262.498 186.806C262.317 187.691 261.808 188.474 261.074 188.999C260.339 189.524 259.433 189.752 258.537 189.637L248.499 188.122C248.071 188.056 247.662 187.901 247.297 187.669C246.932 187.436 246.619 187.131 246.378 186.772C246.137 186.412 245.973 186.007 245.896 185.582C245.819 185.156 245.83 184.719 245.93 184.298L248.069 174.071C248.25 173.191 248.753 172.41 249.48 171.883C250.207 171.355 251.105 171.119 251.998 171.22Z" fill="#E9F1FC"/>
<path d="M112.518 175.139L122.565 176.654C122.993 176.718 123.404 176.868 123.771 177.096C124.139 177.325 124.456 177.626 124.702 177.982C124.949 178.338 125.12 178.74 125.205 179.164C125.289 179.589 125.286 180.026 125.195 180.449L123.241 190.569C123.074 191.445 122.578 192.223 121.854 192.743C121.13 193.263 120.234 193.485 119.351 193.363L109.32 191.849C108.893 191.783 108.484 191.631 108.118 191.402C107.751 191.173 107.436 190.872 107.189 190.517C106.943 190.162 106.772 189.76 106.686 189.337C106.601 188.913 106.602 188.477 106.691 188.054L108.615 177.983C108.773 177.097 109.267 176.306 109.994 175.776C110.722 175.246 111.626 175.018 112.518 175.139Z" fill="#E9F1FC"/>
<path d="M134.632 178.482L145.57 180.141C145.998 180.205 146.409 180.357 146.776 180.586C147.143 180.815 147.46 181.118 147.705 181.474C147.951 181.831 148.121 182.234 148.204 182.658C148.288 183.083 148.283 183.521 148.191 183.944L146.227 194.089C146.055 194.965 145.554 195.743 144.828 196.263C144.102 196.783 143.205 197.007 142.319 196.89L131.382 195.205C130.956 195.139 130.547 194.987 130.181 194.758C129.815 194.529 129.499 194.228 129.254 193.873C129.009 193.517 128.838 193.116 128.754 192.692C128.669 192.269 128.671 191.833 128.761 191.411L130.724 181.282C130.893 180.404 131.392 179.624 132.119 179.103C132.846 178.582 133.746 178.36 134.632 178.482Z" fill="#E9F1FC"/>
<path d="M157.653 181.978L167.7 183.493C168.128 183.558 168.537 183.71 168.902 183.94C169.268 184.17 169.583 184.472 169.827 184.829C170.071 185.185 170.24 185.588 170.322 186.012C170.404 186.436 170.398 186.873 170.304 187.294L168.28 197.461C168.109 198.34 167.607 199.12 166.879 199.641C166.15 200.162 165.25 200.384 164.363 200.261L154.35 198.748C153.923 198.682 153.515 198.529 153.15 198.299C152.784 198.069 152.47 197.766 152.226 197.41C151.982 197.054 151.814 196.652 151.731 196.228C151.649 195.804 151.654 195.368 151.746 194.947L153.736 184.795C153.907 183.914 154.407 183.133 155.136 182.609C155.864 182.085 156.764 181.86 157.653 181.978Z" fill="#E9F1FC"/>
<path d="M179.748 185.345L189.787 186.859C190.214 186.926 190.623 187.079 190.989 187.31C191.354 187.54 191.668 187.844 191.911 188.201C192.155 188.558 192.322 188.962 192.403 189.386C192.484 189.811 192.477 190.247 192.382 190.669L190.322 200.859C190.147 201.738 189.644 202.517 188.914 203.039C188.185 203.561 187.285 203.785 186.396 203.667L176.391 202.154C175.965 202.087 175.556 201.933 175.191 201.702C174.826 201.471 174.512 201.167 174.268 200.811C174.024 200.454 173.856 200.051 173.773 199.627C173.691 199.203 173.696 198.766 173.788 198.344L175.822 188.17C175.993 187.287 176.495 186.503 177.225 185.978C177.954 185.453 178.857 185.227 179.748 185.345Z" fill="#E9F1FC"/>
<path d="M127.35 102.869L137.503 104.332C137.932 104.391 138.344 104.538 138.714 104.763C139.084 104.988 139.404 105.286 139.654 105.64C139.903 105.993 140.078 106.394 140.167 106.818C140.255 107.242 140.256 107.679 140.169 108.103L138.197 118.239C138.022 119.121 137.517 119.902 136.787 120.426C136.056 120.949 135.153 121.174 134.262 121.055L124.161 119.579C123.733 119.52 123.32 119.373 122.951 119.148C122.581 118.923 122.261 118.625 122.011 118.271C121.761 117.918 121.587 117.516 121.498 117.093C121.409 116.669 121.409 116.231 121.496 115.807L123.441 105.687C123.616 104.81 124.116 104.032 124.842 103.509C125.567 102.986 126.463 102.757 127.35 102.869Z" fill="#E9F1FC"/>
<path d="M149.701 106.091L160.789 107.675C161.219 107.736 161.631 107.883 162.001 108.11C162.371 108.337 162.69 108.637 162.938 108.992C163.187 109.348 163.359 109.751 163.445 110.176C163.531 110.601 163.528 111.039 163.437 111.463L161.43 121.614C161.253 122.496 160.747 123.279 160.015 123.803C159.283 124.327 158.379 124.554 157.487 124.438L146.424 122.855C145.995 122.795 145.584 122.647 145.214 122.421C144.845 122.195 144.527 121.896 144.278 121.541C144.03 121.187 143.857 120.785 143.771 120.361C143.684 119.937 143.686 119.499 143.776 119.076L145.756 108.94C145.926 108.052 146.429 107.262 147.162 106.732C147.896 106.202 148.804 105.973 149.701 106.091Z" fill="#E9F1FC"/>
<path d="M172.978 109.451L183.131 110.914C183.559 110.975 183.97 111.123 184.339 111.351C184.707 111.578 185.025 111.878 185.271 112.234C185.518 112.589 185.689 112.991 185.773 113.416C185.858 113.84 185.854 114.277 185.761 114.7L183.728 124.875C183.546 125.759 183.037 126.542 182.303 127.068C181.568 127.593 180.662 127.821 179.767 127.706L169.668 126.187C169.239 126.127 168.827 125.979 168.457 125.753C168.087 125.526 167.768 125.226 167.52 124.87C167.271 124.515 167.099 124.112 167.013 123.687C166.927 123.262 166.93 122.824 167.021 122.4L169.037 112.241C169.227 111.368 169.737 110.597 170.466 110.081C171.195 109.565 172.091 109.34 172.978 109.451Z" fill="#E9F1FC"/>
<path d="M195.312 112.683L205.413 114.151C205.843 114.211 206.256 114.359 206.625 114.586C206.995 114.813 207.313 115.115 207.56 115.472C207.808 115.828 207.978 116.232 208.061 116.658C208.144 117.084 208.138 117.522 208.043 117.946L205.966 128.134C205.787 129.02 205.278 129.804 204.543 130.33C203.808 130.855 202.901 131.082 202.005 130.965L191.904 129.489C191.476 129.427 191.065 129.277 190.697 129.049C190.329 128.821 190.012 128.52 189.766 128.164C189.52 127.808 189.35 127.404 189.267 126.98C189.184 126.555 189.189 126.118 189.283 125.695L191.376 115.516C191.559 114.637 192.064 113.858 192.793 113.334C193.522 112.809 194.42 112.577 195.312 112.683Z" fill="#E9F1FC"/>
<path d="M217.636 115.921L227.738 117.389C228.167 117.451 228.578 117.601 228.946 117.83C229.315 118.058 229.631 118.361 229.877 118.718C230.122 119.075 230.291 119.479 230.372 119.905C230.454 120.331 230.446 120.769 230.35 121.191L228.237 131.403C228.054 132.289 227.544 133.073 226.808 133.599C226.072 134.125 225.165 134.355 224.267 134.242L214.169 132.723C213.741 132.66 213.33 132.51 212.963 132.281C212.595 132.052 212.279 131.749 212.034 131.392C211.788 131.035 211.62 130.632 211.537 130.206C211.455 129.781 211.462 129.344 211.557 128.921L213.635 118.724C213.828 117.84 214.347 117.061 215.088 116.541C215.829 116.022 216.739 115.801 217.636 115.921Z" fill="#E9F1FC"/>
<path d="M239.952 119.167L251.015 120.749C251.445 120.81 251.858 120.959 252.227 121.188C252.596 121.417 252.913 121.72 253.158 122.079C253.403 122.438 253.571 122.844 253.65 123.271C253.729 123.698 253.718 124.136 253.618 124.559L251.479 134.786C251.293 135.675 250.78 136.461 250.041 136.989C249.302 137.516 248.392 137.746 247.491 137.633L236.454 136.052C236.025 135.989 235.614 135.838 235.246 135.608C234.878 135.379 234.562 135.075 234.317 134.717C234.073 134.359 233.905 133.954 233.825 133.528C233.744 133.102 233.753 132.664 233.851 132.242L235.964 122.022C236.148 121.131 236.66 120.343 237.399 119.814C238.138 119.284 239.05 119.053 239.952 119.167Z" fill="#E9F1FC"/>
<path d="M263.151 122.547L273.249 124.066C273.679 124.127 274.092 124.277 274.46 124.507C274.829 124.737 275.146 125.042 275.39 125.401C275.634 125.761 275.801 126.167 275.879 126.594C275.957 127.022 275.945 127.461 275.843 127.883L273.66 138.133C273.471 139.02 272.957 139.804 272.219 140.33C271.481 140.857 270.573 141.089 269.673 140.979L259.574 139.461C259.145 139.398 258.733 139.247 258.366 139.017C257.998 138.786 257.683 138.482 257.439 138.123C257.196 137.763 257.03 137.357 256.953 136.931C256.875 136.504 256.887 136.065 256.989 135.643L259.137 125.409C259.323 124.514 259.839 123.722 260.584 123.192C261.328 122.661 262.244 122.431 263.151 122.547Z" fill="#E9F1FC"/>
<path d="M121.783 126.874L131.881 128.393C132.31 128.453 132.722 128.601 133.091 128.827C133.461 129.053 133.78 129.352 134.029 129.707C134.278 130.061 134.452 130.463 134.539 130.887C134.626 131.311 134.626 131.749 134.537 132.173L132.574 142.309C132.397 143.187 131.893 143.966 131.165 144.487C130.436 145.008 129.537 145.234 128.649 145.117L118.55 143.599C118.123 143.536 117.712 143.387 117.344 143.16C116.976 142.934 116.657 142.634 116.409 142.281C116.16 141.927 115.986 141.526 115.898 141.103C115.809 140.68 115.808 140.243 115.894 139.819L117.836 129.749C117.99 128.85 118.489 128.047 119.226 127.511C119.963 126.974 120.88 126.746 121.783 126.874Z" fill="#E9F1FC"/>
<path d="M144.047 130.134L155.093 131.715C155.521 131.776 155.933 131.925 156.301 132.152C156.67 132.379 156.988 132.679 157.236 133.035C157.483 133.39 157.655 133.792 157.74 134.217C157.825 134.641 157.822 135.079 157.731 135.502L155.733 145.653C155.556 146.534 155.051 147.314 154.321 147.837C153.591 148.36 152.689 148.586 151.799 148.469L140.782 146.83C140.354 146.768 139.943 146.618 139.575 146.391C139.207 146.164 138.89 145.863 138.642 145.508C138.395 145.154 138.223 144.752 138.137 144.328C138.052 143.904 138.054 143.467 138.143 143.043L140.115 132.907C140.299 132.034 140.807 131.263 141.536 130.749C142.266 130.234 143.162 130.015 144.047 130.134Z" fill="#E9F1FC"/>
<path d="M167.235 133.539L177.333 135.058C177.762 135.119 178.173 135.268 178.541 135.495C178.91 135.722 179.227 136.022 179.474 136.378C179.721 136.733 179.892 137.136 179.976 137.56C180.06 137.984 180.056 138.422 179.964 138.844L177.93 149.019C177.753 149.901 177.247 150.682 176.515 151.205C175.782 151.728 174.879 151.953 173.987 151.834L163.889 150.315C163.461 150.253 163.051 150.104 162.683 149.876C162.315 149.649 161.998 149.349 161.752 148.993C161.505 148.638 161.334 148.236 161.249 147.813C161.164 147.389 161.168 146.952 161.259 146.529L163.266 136.37C163.442 135.481 163.951 134.693 164.688 134.166C165.426 133.64 166.337 133.416 167.235 133.539Z" fill="#E9F1FC"/>
<path d="M189.489 136.816L199.587 138.334C200.017 138.396 200.428 138.546 200.797 138.775C201.165 139.003 201.483 139.306 201.729 139.663C201.975 140.02 202.144 140.424 202.227 140.85C202.309 141.276 202.303 141.714 202.208 142.137L200.139 152.326C199.96 153.209 199.453 153.992 198.719 154.516C197.986 155.04 197.081 155.266 196.187 155.149L186.089 153.631C185.661 153.569 185.25 153.419 184.882 153.191C184.514 152.963 184.197 152.661 183.951 152.305C183.705 151.949 183.535 151.546 183.452 151.121C183.369 150.696 183.374 150.259 183.468 149.837L185.51 139.663C185.688 138.772 186.198 137.982 186.937 137.453C187.676 136.924 188.589 136.696 189.489 136.816Z" fill="#E9F1FC"/>
<path d="M211.737 140.066L221.835 141.585C222.263 141.649 222.674 141.8 223.041 142.03C223.408 142.26 223.724 142.564 223.968 142.922C224.212 143.279 224.38 143.683 224.461 144.109C224.542 144.535 224.534 144.972 224.438 145.395L222.334 155.599C222.153 156.483 221.644 157.267 220.91 157.792C220.175 158.317 219.269 158.545 218.373 158.43L208.275 156.911C207.848 156.847 207.438 156.696 207.071 156.466C206.705 156.237 206.39 155.934 206.145 155.577C205.901 155.221 205.733 154.818 205.651 154.393C205.57 153.968 205.577 153.531 205.672 153.11L207.749 142.913C207.931 142.022 208.443 141.233 209.183 140.705C209.923 140.177 210.835 139.949 211.737 140.066Z" fill="#E9F1FC"/>
<path d="M233.97 143.391L244.996 145.022C245.425 145.086 245.836 145.238 246.203 145.468C246.57 145.699 246.885 146.004 247.128 146.363C247.371 146.721 247.537 147.127 247.615 147.553C247.693 147.98 247.682 148.418 247.582 148.839L245.451 159.067C245.266 159.951 244.755 160.733 244.019 161.258C243.284 161.782 242.378 162.011 241.482 161.898L230.483 160.251C230.055 160.186 229.645 160.034 229.279 159.803C228.913 159.573 228.599 159.27 228.355 158.912C228.112 158.555 227.944 158.151 227.864 157.726C227.784 157.301 227.792 156.864 227.888 156.442L230 146.23C230.182 145.343 230.692 144.558 231.428 144.031C232.164 143.505 233.073 143.276 233.97 143.391Z" fill="#E9F1FC"/>
<path d="M257.124 146.819L267.222 148.337C267.651 148.401 268.061 148.553 268.428 148.784C268.794 149.014 269.109 149.319 269.351 149.678C269.594 150.037 269.759 150.443 269.836 150.869C269.913 151.295 269.901 151.733 269.799 152.154L267.633 162.405C267.446 163.292 266.932 164.076 266.193 164.602C265.455 165.128 264.546 165.356 263.646 165.243L253.548 163.724C253.12 163.658 252.71 163.505 252.344 163.273C251.978 163.041 251.664 162.735 251.422 162.376C251.18 162.016 251.015 161.611 250.937 161.185C250.86 160.758 250.871 160.321 250.971 159.899L253.11 149.672C253.295 148.777 253.811 147.985 254.556 147.456C255.3 146.926 256.218 146.699 257.124 146.819Z" fill="#E9F1FC"/>
<path fill-rule="evenodd" clip-rule="evenodd" d="M159.509 98.9135L159.3 104.245L163.608 107.216C163.936 107.464 164.189 107.799 164.338 108.183C164.487 108.566 164.526 108.984 164.451 109.389C164.375 109.793 164.189 110.169 163.911 110.473C163.634 110.778 163.278 110.999 162.882 111.112L157.67 112.815L155.936 117.952C155.815 118.346 155.588 118.699 155.28 118.972C154.972 119.245 154.594 119.428 154.189 119.501C153.784 119.573 153.366 119.532 152.982 119.383C152.599 119.233 152.263 118.981 152.014 118.653L149.025 114.376L143.649 114.572C143.241 114.591 142.836 114.491 142.484 114.283C142.132 114.076 141.847 113.77 141.666 113.404C141.485 113.038 141.414 112.626 141.463 112.22C141.512 111.815 141.678 111.432 141.94 111.119L145.263 106.766L143.656 101.765C143.543 101.367 143.539 100.947 143.643 100.547C143.748 100.147 143.958 99.7832 144.252 99.4926C144.546 99.202 144.912 98.9956 145.313 98.895C145.714 98.7944 146.134 98.8033 146.53 98.9208L151.593 100.505L155.984 97.2097C156.3 96.9506 156.684 96.7877 157.09 96.7402C157.496 96.6927 157.907 96.7627 158.275 96.9418C158.642 97.1209 158.95 97.4016 159.163 97.7507C159.376 98.0998 159.484 98.5026 159.475 98.9112" fill="#FFBF00"/>
<path d="M164.455 179.623L167.116 184.108L172.425 184.273C172.834 184.289 173.229 184.422 173.564 184.657C173.898 184.892 174.158 185.218 174.313 185.597C174.467 185.975 174.509 186.39 174.433 186.792C174.358 187.194 174.168 187.566 173.887 187.862L170.316 192.003L171.548 197.141C171.638 197.542 171.619 197.96 171.492 198.351C171.365 198.742 171.136 199.091 170.828 199.363C170.519 199.635 170.144 199.818 169.74 199.895C169.336 199.971 168.919 199.937 168.533 199.797L163.681 197.861L159.148 200.858C158.819 201.093 158.43 201.228 158.026 201.248C157.622 201.267 157.222 201.169 156.872 200.967C156.522 200.764 156.238 200.466 156.054 200.106C155.87 199.746 155.793 199.341 155.833 198.939L156.39 193.605L152.357 190.338C152.051 190.065 151.825 189.714 151.704 189.322C151.582 188.931 151.571 188.513 151.67 188.115C151.769 187.718 151.975 187.354 152.265 187.065C152.556 186.776 152.92 186.572 153.319 186.475L158.508 185.119L160.54 180.094C160.68 179.709 160.925 179.37 161.247 179.117C161.569 178.863 161.956 178.704 162.363 178.658C162.771 178.611 163.183 178.679 163.554 178.855C163.925 179.03 164.239 179.305 164.462 179.649" stroke="#FFAB19" stroke-width="4"/>
<path fill-rule="evenodd" clip-rule="evenodd" d="M255.971 125.224C256.706 123.566 257.822 122.105 259.226 120.958C260.631 119.811 262.286 119.01 264.057 118.621C266.618 118.023 269.309 118.361 271.643 119.573C272.291 119.912 272.902 120.317 273.467 120.782L274.029 121.27C274.226 121.453 274.342 121.705 274.353 121.974C274.364 122.242 274.268 122.503 274.087 122.701C273.915 122.907 273.669 123.038 273.402 123.065C273.135 123.091 272.868 123.012 272.659 122.845L272.112 122.375C271.644 122.006 271.138 121.687 270.602 121.425C268.68 120.428 266.466 120.149 264.357 120.638C262.931 120.969 261.6 121.624 260.469 122.553C259.337 123.482 258.435 124.659 257.832 125.993C257.198 127.354 256.963 128.866 257.155 130.355C257.347 131.843 257.957 133.247 258.915 134.402C259.803 135.409 260.964 136.137 262.257 136.497C263.55 136.857 264.92 136.835 266.2 136.432C267.238 136.112 268.188 135.556 268.975 134.807C269.761 134.058 270.364 133.138 270.736 132.117C271.205 130.823 271.202 129.406 270.729 128.114C270.288 126.863 269.396 125.822 268.228 125.194C267.161 124.724 265.963 124.645 264.843 124.97C264.13 125.171 263.473 125.534 262.924 126.032C262.375 126.529 261.949 127.147 261.679 127.837C261.42 128.479 261.35 129.182 261.478 129.862C261.607 130.543 261.927 131.172 262.402 131.676C262.792 132.054 263.284 132.31 263.817 132.413C264.351 132.517 264.903 132.462 265.406 132.257C265.737 132.124 266.031 131.916 266.266 131.648C266.501 131.38 266.669 131.06 266.757 130.715C266.847 130.362 266.799 129.988 266.623 129.669C266.56 129.571 266.486 129.48 266.403 129.399C266.181 129.245 265.914 129.167 265.644 129.179C265.644 129.179 265.517 129.171 265.382 129.408C265.24 129.64 265.013 129.806 264.749 129.871C264.486 129.936 264.207 129.895 263.974 129.757C263.863 129.685 263.768 129.591 263.694 129.481C263.62 129.371 263.568 129.247 263.543 129.117C263.518 128.987 263.518 128.853 263.545 128.724C263.573 128.594 263.625 128.471 263.701 128.362C263.88 128.065 264.118 127.807 264.4 127.605C264.682 127.403 265.003 127.261 265.342 127.188C266.177 127.063 267.027 127.272 267.709 127.769C267.766 127.808 267.817 127.854 267.861 127.907C268.028 128.068 268.179 128.246 268.311 128.438C268.774 129.178 268.934 130.068 268.758 130.924C268.622 131.637 268.311 132.306 267.852 132.869C267.393 133.432 266.802 133.872 266.131 134.149C265.275 134.518 264.329 134.626 263.413 134.461C262.496 134.296 261.647 133.865 260.974 133.221C260.219 132.45 259.704 131.477 259.492 130.418C259.28 129.36 259.38 128.263 259.779 127.261C260.167 126.243 260.789 125.332 261.595 124.599C262.401 123.867 263.368 123.335 264.418 123.047C266.001 122.598 267.693 122.731 269.187 123.422C270.798 124.265 272.029 125.689 272.628 127.407C273.267 129.125 273.274 131.014 272.649 132.737C272.175 134.085 271.392 135.304 270.363 136.295C269.333 137.286 268.086 138.023 266.721 138.446C265.081 138.963 263.326 138.995 261.667 138.539C260.009 138.082 258.518 137.156 257.373 135.873C257.199 135.674 257.018 135.458 256.862 135.244C255.846 133.799 255.229 132.112 255.072 130.353C254.916 128.594 255.226 126.825 255.971 125.224Z" fill="#0FBD8C"/>
<path fill-rule="evenodd" clip-rule="evenodd" d="M224.855 148.975C223.094 154.909 215.403 158.624 213.694 158.374C211.985 158.125 206.229 152.39 206.929 146.308C206.947 146.11 206.977 145.914 207.019 145.719C207.313 144.311 208.127 143.065 209.3 142.23C210.472 141.396 211.916 141.034 213.343 141.217C214.034 141.312 214.696 141.553 215.286 141.925C215.876 142.296 216.379 142.79 216.761 143.373C217.339 142.939 217.997 142.623 218.698 142.444C219.398 142.264 220.126 142.224 220.842 142.326C221.526 142.425 222.182 142.664 222.769 143.029C223.355 143.394 223.86 143.877 224.251 144.446C224.642 145.016 224.911 145.66 225.041 146.339C225.17 147.018 225.158 147.716 225.004 148.389C224.991 148.593 224.936 148.784 224.855 148.975Z" fill="#FF6680"/>
<path d="M117.385 339.939C105.421 352.516 90.9657 352.421 74.2943 342.097C57.6228 331.772 52.6781 315.565 57.0249 302.559C63.455 283.33 84.0555 289.197 100.115 300.401C121.605 315.432 126.807 330.064 117.385 339.939Z" fill="#4C97FF" fill-opacity="0.15"/>
<path d="M33.9345 363.001C25.6651 373.136 17.6317 374.922 9.67464 369.994C1.71753 365.067 1.04059 354.613 5.1253 345.16C11.1664 331.183 21.8811 332.559 29.3852 338.166C39.4215 345.697 40.4434 355.039 33.9345 363.001Z" fill="#4C97FF" fill-opacity="0.15"/>
</svg>
