<svg width="1280" height="976" viewBox="0 0 1280 976" fill="none" xmlns="http://www.w3.org/2000/svg">
<g clip-path="url(#clip0)">
<path d="M1069.41 350.354C1140.21 234.419 1265.84 129.812 1319.81 92L1342.19 544.744C1270.87 607.209 1064.15 691.661 981.69 657.68C878.716 615.245 609.774 718.836 443.672 782.815L443.19 783C277.127 846.964 238.423 857.5 131.19 857.5C83.1904 857.5 8.652 910.037 1.19043 976V617.5C-12.8096 617.5 96.9656 606.625 315.19 473.5C587.971 307.094 980.912 495.272 1069.41 350.354Z" fill="#4C97FF" fill-opacity="0.15"/>
<path d="M1025.16 276.5C1095.96 160.566 1265.84 4.81195 1319.81 -33L1342.19 419.744C1270.87 482.209 1107.62 627.481 1025.16 593.5C922.087 551.024 616.51 624.628 450.446 688.592C284.383 752.556 259.423 775 152.19 775C99.1904 775 8.652 785.037 1.19043 851V532.68C17.1547 538.677 103.639 517.389 321.864 384.264C594.645 217.858 936.663 421.418 1025.16 276.5Z" fill="#4C97FF" fill-opacity="0.15"/>
</g>
<defs>
<clipPath id="clip0">
<rect width="1280" height="976" fill="white"/>
</clipPath>
</defs>
</svg>
