<svg width="1280" height="608" viewBox="0 0 1280 608" fill="none" xmlns="http://www.w3.org/2000/svg">
<g clip-path="url(#clip0)">
<path d="M234.781 233.846C163.983 156.731 38.351 87.1509 -15.6152 62L-37.9999 363.146C33.3188 404.695 196.571 482.142 279.03 459.54C382.104 431.287 687.681 499.427 853.744 541.973C1019.81 584.519 1055.28 585.48 1162 578.5C1247.37 572.916 1295.54 606.124 1303 650V387.5C1287.04 391.489 1200.55 428.096 982.326 339.547C709.545 228.86 323.279 330.24 234.781 233.846Z" fill="#4C97FF" fill-opacity="0.15"/>
<path d="M239.781 166.846C168.983 89.7315 43.351 20.1509 -10.6152 -5L-32.9999 296.146C38.3188 337.695 200.041 436.103 282.5 413.5C385.574 385.247 692.681 432.427 858.744 474.973C1024.81 517.519 1046.78 529.98 1153.5 523C1238.87 517.416 1300.54 539.124 1308 583L1318 316.5C1302.04 320.489 1205.55 361.096 987.326 272.547C714.545 161.86 328.279 263.24 239.781 166.846Z" fill="#4C97FF" fill-opacity="0.15"/>
</g>
<defs>
<clipPath id="clip0">
<rect width="1280" height="608" fill="white"/>
</clipPath>
</defs>
</svg>
