<?xml version="1.0" encoding="utf-8"?>
<!-- Generator: Adobe Illustrator 24.0.3, SVG Export Plug-In . SVG Version: 6.00 Build 0)  -->
<svg version="1.1" id="Layer_1" xmlns="http://www.w3.org/2000/svg" xmlns:xlink="http://www.w3.org/1999/xlink" x="0px" y="0px"
	 viewBox="0 0 484.8 380" style="enable-background:new 0 0 484.8 380;" xml:space="preserve">
<style type="text/css">
	.st0{opacity:0.26;fill:#006AFF;enable-background:new    ;}
	
		.st1{fill-rule:evenodd;clip-rule:evenodd;fill:#FFFFFF;stroke:#D9E3F2;stroke-width:7.59;stroke-linecap:round;stroke-linejoin:round;}
	
		.st2{fill-rule:evenodd;clip-rule:evenodd;fill:#D9E3F2;stroke:#D9E3F2;stroke-width:7.59;stroke-linecap:round;stroke-linejoin:round;}
	.st3{fill:none;stroke:#585F76;stroke-width:7.59;stroke-linecap:round;stroke-linejoin:round;}
	.st4{fill-rule:evenodd;clip-rule:evenodd;fill:#774DCB;}
	.st5{fill-rule:evenodd;clip-rule:evenodd;fill:#9966FF;}
	.st6{fill-rule:evenodd;clip-rule:evenodd;fill:#FF661A;}
	.st7{fill-rule:evenodd;clip-rule:evenodd;fill:#FF8C1A;}
	.st8{fill-rule:evenodd;clip-rule:evenodd;fill:#0EBD8C;}
	.st9{fill-rule:evenodd;clip-rule:evenodd;fill:#4D97FF;}
	.st10{fill-rule:evenodd;clip-rule:evenodd;fill:#FF6680;}
	.st11{fill:#120201;}
	.st12{fill:#E85F1A;}
	.st13{fill:#FCC3AC;}
	.st14{fill:#F47621;}
	.st15{fill:#FFFFFF;}
	.st16{fill:#000600;}
	.st17{fill:none;}
	.st18{fill:#FF661A;}
	.st19{fill:#EFAB00;}
	.st20{fill:#59C059;}
	.st21{fill:#E8511C;}
	.st22{fill:#C18500;}
	.st23{fill:#C6431A;}
	.st24{fill:#A06B00;}
	.st25{fill:#4BA04B;}
	.st26{fill:#FFBF00;}
	.st27{fill-rule:evenodd;clip-rule:evenodd;fill:#855CD6;}
	.st28{fill-rule:evenodd;clip-rule:evenodd;fill:#0EA57A;}
	.st29{fill-rule:evenodd;clip-rule:evenodd;fill:#FF3355;}
	.st30{opacity:0.26;fill:#4C97FF;enable-background:new    ;}
	.st31{fill:#4C97FF;}
</style>
<title>SEC-bottom-img</title>
<g>
	<g id="Layer_2_1_">
		<g id="Layer_1-2">
			<path class="st0" d="M465.1,173.6c-6.9-8.3-15.2-14.6-24.1-20.1c-8.3-5.1-17.7-10-23.5-18.6c-7.2-10.7-5-24.5-4.5-36.9
				c0.5-10.6-0.4-22.2-6.3-31c-6.8-10.1-18.2-12.4-29-12.9c-12.8-0.6-25.5,1-38.1,3.1c-25.4,4.4-50.7,11.9-76.6,10.6
				c-12-0.5-23.7-3.5-34.3-8.9c-9-4.7-17.3-10.8-25.4-16.9C187,29.9,170.4,16.7,150.4,14c-22.1-3-44.9,8.8-61.9,23.6
				c-7.7,6.8-14.7,15.8-16.7,26.7c-2,10.8,0.8,21.4,6.2,30.5c5,8.5,11.7,15.6,18.6,22.2c-17.3,8.3-30.7,23.3-40.8,40.9
				c-12,21-21.8,47-21.8,72.1c0.1,21.6,9.3,44.8,27.9,54.2c22.5,11.4,46.4-0.8,67.7-9.6c17.6-7.3,44.3-14.6,57.9,5.3
				c6.6,9.5,5.5,22.7,8.8,33.6c2.8,9.1,7.7,17.5,14.2,24.5c29.9,32.1,78.6,29.3,112.6,7.2c18.8-12.2,31.2-30.4,44.7-48.6
				c6.3-8.5,13.1-17,21.3-23.3c9.7-7.4,20.8-10.7,32.3-12.7c19-3.3,46.1-2.7,58.4-22.3C492.6,218.1,477.9,189.1,465.1,173.6z"/>
			<g id="Fill-Bucket">
				<g id="paint-bucket">
					<g id="Bucket">
						<path id="Oval" class="st1" d="M215.4,63.5c-2.4,3.9-18.7-1-36.4-10.9s-30.2-21.1-27.8-24.9s18.7,1,36.4,10.9
							S217.8,59.6,215.4,63.5z"/>
						<path id="Path" class="st2" d="M215.4,65.2l-42.1,55.4c-1.8,3.1-14.4-0.8-28.2-9s-23.4-17.2-21.6-20.3l27.1-64.1
							c-2.4,4.1,10.2,15.9,28.1,26.4S213,69.3,215.4,65.2z"/>
						<path id="Path-2" class="st3" d="M162,59.5c0,0,12.9-44.1,27.8-48c19-5,5.1,31.8,5.1,31.8"/>
						<path id="Path-3" class="st1" d="M186.6,37.9c17.8,9.8,30.4,20.8,28,24.7s-18.7-0.9-36.5-10.6"/>
					</g>
				</g>
				<g id="hand">
					<g id="Fill-1">
						<path id="path-3-2" class="st4" d="M141.5,38.9l-2.5,5.8c-3.2,7.4-4,8.8,1.8,9.9c7.6,1.5,17.6,4.2,23.7,5.8
							c6.8,1.8,4.3,10.7-1.8,9.3c-8.3-1.9-22-6.5-22.9-4.2c-0.9,2.5,17.6,6.3,28.2,10.5c7.8,3,5.2,10.9-2.9,9.2
							c-9.8-2-23.7-8.7-24.6-6.9s12.4,7.1,20.5,10.3c6.6,2.6,3.2,10.5-2.8,8.2c-9.1-3.5-23.7-11.9-24.6-10.3
							c-1.1,2.1,8.4,6.4,13.3,9.1c5.9,3.3,2.3,9.4-2.7,7c-8.8-4.3-29.8-15.4-35.5-18.7c-25.6-14.7-10.5-45.3,9.2-42.5
							C127.8,42.7,136.4,39.2,141.5,38.9z"/>
					</g>
					<path class="st5" d="M165.1,85.1c8.2,1.7,10.7-6.2,2.9-9.2c-10.6-4.1-34.1-5-34.1-7.7c0.2-6.9,20.4-0.5,28.7,1.4
						c6.1,1.4,8.6-7.5,1.8-9.3c-6-1.5-16-4.3-23.7-5.8c-5.8-1.1-5-2.5-1.8-9.9l2.5-5.8c-5.1,0.3-13.7,3.8-23.6,2.4
						c-19.7-2.8-34.8,27.8-9.3,42.5c5.7,3.3,26.7,14.4,35.5,18.7c5,2.4,7.9-1.1,2-4.4c-4.9-2.7-18.5-8.4-18.5-8.9
						c0.2-6.5,21.5,4,30.6,7.6c6,2.3,9.4-5.6,2.8-8.2c-8.1-3.2-26.4-5.7-26.4-7.7C134.8,74.3,155.3,83.1,165.1,85.1z"/>
				</g>
				<g id="Meltbow">
					<path id="Path-4" class="st6" d="M202.2,55.6c0,0,139,45,131.4,181.5c-0.5,9.9,14,10.1,14.5,0.2
						C356.8,81.6,202.2,55.6,202.2,55.6z"/>
					<path id="Path-5" class="st7" d="M204.5,56.4c0,0,128.3,56.6,120.8,190.7c-0.4,7,13.9,7.2,14.3,0.2
						C348.5,88.2,204.5,56.4,204.5,56.4z"/>
					<path id="Path-6" class="st8" d="M202.2,55.6c0,0,118.6,47.1,111.1,181.8c-0.5,8.9,13.7,9,14.2,0.2
						C336.1,83.8,202.2,55.6,202.2,55.6z"/>
					<path id="Path-7-2" class="st9" d="M202.2,55.6c0,0,103.8,62.6,97.7,169.7c-0.6,10.3,16.9,10.5,17.4,0.2
						C324.8,93.2,202.2,55.6,202.2,55.6z"/>
					<path id="Path-8" class="st5" d="M202.2,55.6c0,0,87.2,37.9,78.6,188.2c-1,17.5,21.7,18.5,22.7,1.7
						C312.1,93.8,202.2,55.6,202.2,55.6z"/>
					<path id="Path-9-2" class="st10" d="M202.2,55.6c0,0,50.6,33.6,56,142c0.4,8.1,1.1,10.8,5.2,10.8s4.5-8,5.7-8
						c2.3,0-1.4,25.7-1.8,32.3c-0.7,13.2,19.6,12,20.3,0.2C295,98.1,202.2,55.6,202.2,55.6z"/>
				</g>
			</g>
			<g id="ocean">
				<g id="fish-a">
					<g id="Clownfish">
						<g id="flipper1">
							<path id="Shape" class="st11" d="M175,340.3c-2.2,0.4-1.3,0.2-2.4-1.4c-1.3-2.1-4-3.1-5.4-5.3c-1.2-1.9-2.3-5.6-1.9-7.8
								c0.6-3.6,1.2-6.5,4.1-9.1c2.2-1.9,4.7-2.6,7.1-4c2.9-1.6,6-0.8,9.2-0.9c3.8-0.2,8.1-0.3,11.6-1.5c1.1-0.3,2.1-0.9,2.9-1.6
								c0.7-0.7,0.9-1.7,1.6-2.3c2.2-1.8,6.1-1.7,7.6-4.6s-1-5.9,1.4-8.4c0.9-0.7,1.8-1.4,2.5-2.3c0.9-1.3,1.9-1.4,3.2-2.5
								c3-2.5,5.5-2.2,9-1.4c1,0.3,2,0.6,3,0.7c0.6,0,1.2-0.1,1.8-0.2c2.1,0.1,2.1,0.1,4.7,3.9c1.7,2.4,4,10.8,4,10.8L175,340.3z"/>
							<path id="Shape-2" class="st12" d="M179,341.7c-2.2,0.4-1.3,0.2-2.4-1.4c-1.3-2.1-2.8-1.4-4.2-3.6c-1.2-1.9-4.3-4.5-4-6.8
								c0.6-3.6,0-8.2,3-10.8c2.2-1.9,4.7-2.6,7.1-4c2.9-1.6,6-0.8,9.2-0.9c3.8-0.2,8-0.3,11.6-1.5c1.1-0.3,2.1-0.9,2.9-1.6
								c0.6-0.7,0.9-1.7,1.6-2.3c2.2-1.8,6.1-1.7,7.6-4.6s-1-5.9,1.4-8.4c0.9-0.7,1.8-1.5,2.5-2.3c0.9-1.3,1.9-1.4,3.2-2.5
								c3-2.5,5.5-2.2,9-1.4c1,0.3,2,0.6,3,0.7c0.6,0,1.2-0.1,1.8-0.2c2.1,0.1,2.1,0.1,4.7,3.9c1.7,2.4,4,10.8,4,10.8L179,341.7z"/>
							<path id="Shape-3" class="st13" d="M209.7,302.1c-1.4,2.8-5.3,2.8-7.6,4.6c-0.7,0.6-0.9,1.6-1.6,2.3
								c-0.9,0.7-1.9,1.2-2.9,1.6c-3,0.8-6.2,1.3-9.3,1.4c2.3,2,4.5,4.6,6.3,6.4c0.3,0.4,0.7,0.6,1,1l0,0l0.1,0.1
								c0,0.1,0.2,0.1,0.2,0.2c0.7,0.7,1.4,1.5,2,2.3l2.8,3.6l21.7-12.7c-1.4-1.6-2.7-3-4-4.4c-0.8-0.9-1.6-1.7-2.5-2.5
								C213.9,304.5,211.9,303.2,209.7,302.1L209.7,302.1z"/>
							<path id="Shape-4" class="st14" d="M189.8,320.6c-2.5-3.3-5.4-6.3-8.6-8.9c-0.7,0-1.5,0.1-2.2,0.2c3.8,2.7,7.1,5.9,9.7,9.7
								c-1.6,1.4-3.1,2.9-4.6,4.4c-3.2-4.3-6.5-8.5-10.7-11.8c-0.5,0.2-1,0.4-1.4,0.7c4.3,3.3,7.9,7.6,11.1,12.1
								c-0.7,0.7-1.4,1.5-2,2.3l-0.6,0.7c-3.9-4.2-8.3-7.8-13.1-10.9c-0.3,0.4-0.5,0.8-0.6,1.3c4.7,3,9,6.6,12.7,10.7
								c-0.7,0.8-1.3,1.6-1.9,2.4c-2-1.6-4.3-3-6.7-3.9c-1.8-0.7-3.6-1.7-5.5-2.4c0,0.5,0.1,1,0.2,1.6c1.6,0.6,3.2,1.5,4.7,2.2
								c2.3,0.9,4.5,2.2,6.5,3.7c-1.2,1.7-2.5,3.2-3.6,5.1l0,0l0.1,0.3v0.1l0,0l0.1,0.1l0,0c0,0.1,0.1,0.1,0.2,0.1l0,0
								c0.1,0,0.2,0,0.2,0.1l0,0c0.1,0,0.3,0,0.6-0.1l0.1,0c0.1-0.1,0.3-0.1,0.4,0l27.9-16.3l-5.9-8.5
								C196.6,315.8,190.2,320.4,189.8,320.6z"/>
							<path id="Shape-5" class="st15" d="M210.3,308.2c-1-1.3-2.1-2.6-3.2-3.9l-1.1,0.4c1.1,1.3,2.2,2.5,3.2,3.9
								c-1.7,0.8-3.4,1.6-5.2,2.6l-0.3,0.1c-0.9-1.2-1.9-2.2-2.8-3.4c-0.2,0.3-0.4,0.6-0.6,0.9l0,0c0.8,0.9,1.7,2,2.5,2.9
								c-1.6,0.9-3.3,1.9-4.9,2.9c-1.1-1.3-2.1-2.4-3.4-3.6c-0.4,0-0.9,0.2-1.4,0.2c1.3,1.4,3.7,4.1,3.7,4.1l5.9,8.5l1.6-0.9
								l4.7-2.7l2.8-1.7l4.4-2.3L210.3,308.2z"/>
							<path id="Shape-6" class="st14" d="M235.2,301.9c-1.4-4.9-3.6-9.6-6.4-13.9c-0.7-0.1-1.3-0.3-2-0.5c3,4.5,5.3,9.3,6.9,14.5
								c-1.4,0.1-2.7,0.2-4,0.4c-1.9-5.7-4.7-11-8.3-15.8c-0.5,0-1.1,0.1-1.6,0.3c3.8,4.6,6.7,9.9,8.4,15.6c-1.3,0.2-2.7,0.4-4,0.8
								c-2-5.1-4.9-9.8-8.5-13.9c-0.4,0.3-0.9,0.5-1.2,0.8c3.6,3.9,6.4,8.4,8.3,13.3c-1.1,0.3-2.2,0.6-3.3,1c-2.6-3.7-5.6-7-9-10
								c-0.2,0.5-0.4,1.1-0.4,1.7c2.9,2.7,5.6,5.6,8,8.8l-7.6,2.9l5.9,8.2c0,0,23.2-13.9,23.1-14.1l0,0l-0.1-0.4l0,0L235.2,301.9z"
								/>
						</g>
						<g id="flipper2">
							<path id="Shape-7" class="st16" d="M194.2,355.3c-1.8,1.8-4.2,3.1-6,4.9c-1.4,1.1-2.5,2.3-3.5,3.8c-0.6,0.4-1.1,0.9-1.6,1.4
								c-1.3,1.1-3.4,2.8-3.4,4.8s1.3,2.7,2,4.1c0.4,1,0.9,2,1.6,3c0.6,0.8,1.5,1.3,2.5,1.4c1.1,0,1.3-1,2.4-0.6
								c0.4,0.2,1,1,1.4,1.3c0.9,0.6,2.1,0.8,3.1,0.5c2.9-0.5,4.2-3,7.1-3.2s4,0.8,5.8-0.5c2.9-2,5.6-4.3,8.1-6.8
								c0.4-0.5,0.9-1.1,1.7-1.9c1.3-1.1,2.4-2.1,3.6-3.2c2.1-2.2,8.3-9.7,8.6-11.3L194.2,355.3z"/>
							<path id="Shape-8" class="st12" d="M194.2,355.3c-1.8,1.8-4.2,3.1-6,4.9c-1.3,1.1-3.9,3.2-3.9,5s1.8,2.4,2.5,3.8
								c0.4,1.1-0.2,2.2,0.5,3.4c0.6,0.8,1.5,1.3,2.5,1.4c1.1,0,2.5-1.6,3.5-1c0.4,0.2,0.5,1.2,0.9,1.5c0.9,0.6,2.1,0.8,3.1,0.5
								c2.9-0.5,5-2.5,7.6-3.4c1.7,2.1,4,0.8,5.8-0.5c2.9-2,5.6-4.3,8.1-6.8c2.1-2.2,8.3-9.6,8.6-11.3L194.2,355.3z"/>
							<path id="Shape-9" class="st14" d="M188.1,360.3c-1.3,1.1-2.5,2.4-3.5,3.8c-0.1,0-0.2,0.2-0.4,0.3c1.7,0,3.5-0.2,5.1-0.4
								c-3.1,2.2-6.3,4.2-9.6,6c0.1,0.1-0.1,0.2,0,0.3c0,0.4,0.1,0.9,0.2,1.3c4.3-2.1,8.4-4.7,12.2-7.7c1.8-0.1,3.7-0.3,5.5-0.4
								c-4.2,5.2-9.1,9.8-14.4,13.8l0.1,0.1c0.2,0.4,0.6,0.7,0.9,0.9c5.8-4.3,10.9-9.4,15.4-15.1c1.3-0.2,2.7-0.2,3.9-0.4
								c-1.4,2.7-3,5.5-4.8,8.1c-2,2.9-4.1,6.2-6.6,9.1c0.1-0.1,0.3-0.1,0.5,0c0.8-0.2,1.6-0.4,2.3-0.9c1.9-2.4,3.5-4.9,5.1-7.3
								c2-2.9,3.7-6,5.4-9.2l5.3-0.6c-2.2,5.3-5,10.4-8.5,15c0.6,0.1,1.2,0.1,1.7,0.1c3.5-4.7,6.3-9.8,8.4-15.2c0,0,6.5-0.3,9.6-0.7
								c2.3-2.9,5.4-6.8,5.5-7.8l-33.1,2.5C192.4,357,188.1,360.3,188.1,360.3z"/>
						</g>
						<g id="fin2">
							<path id="Shape-10" class="st16" d="M250.4,343.6c-1.3,1-3,1.8-4.3,2.9c-0.3,0.3-0.5,0.6-0.7,0.9c-0.9,1.4-0.3,2.7-0.5,4.4
								c-0.2,0.2-0.6,0.4-0.8,0.6c-2.2,1.9-0.1,2.5-1.1,4.9c-0.7,1.5-1.2,3.4-0.2,4.7c0.4,0.8,0.6,1.8,0.6,2.7
								c-0.3,1.6,0.3,1.6,1,2.7c0.6,0.8,0.4,1.4,0.8,2.6c0.4,1.3,1.4,2.2,2.7,2.5c2.2,0.5,2.4-1.1,3.6-2.2c1,1,0.4,5.2,2.9,1.5
								c2.4-3.5,3.7-7.7,5-11.6c1-2.4,1.8-4.7,2.6-7c1-2.7,1.9-5.5,2.7-8.3c0.4-1.7,0.5-3.4,1-5L250.4,343.6z"/>
							<path id="Shape-11" class="st12" d="M251,343.4c-1.3,1-3,1.8-4.3,2.9c-2.2,1.9-0.7,4.1-1.7,6.5c-0.7,1.5-0.6,1.8,0.4,3.1
								c0.3,0.4,0.7,0.7,0.8,1.2c0.2,0.9-0.2,0.7-0.2,1.5c-0.3,1.7,0.3,1.6,1,2.7c0.6,0.8,0.4,1.4,0.8,2.6c0.4,1.3,1.4,2.2,2.7,2.5
								c2.2,0.5,4.1,3.1,6.5-0.6s3.9-8.4,5.5-12.7c1-2.7,1.9-5.5,2.7-8.3c0.4-1.7,0.5-3.4,1-5L251,343.4z"/>
							<path id="Shape-12" class="st14" d="M257.4,341.9l-1.5,0.4c0.1,0.1,0.1,0.3,0,0.5c-0.1,0.8-0.2,1.6-0.3,2.6
								c-1.5,3.2-3.1,6.3-4.9,9.3c-2.1,3.4-4.4,7.7-7.7,10.6c0,0.6,0.2,1.1,0.6,1.5c3-2.5,5.1-6.3,7.2-9.4c1.3-2.2,2.6-4.4,3.8-6.5
								c-1.6,7.4-4.4,14.5-8.3,21c0.4,0.3,0.9,0.6,1.4,0.7c4.4-7.4,7.4-15.5,9.1-24c0.3,8.3-1.2,16.5-4.4,24.2
								c0.3,0.8,0.7,1,1.9-0.7c3.5-8.8,4.7-18.3,3.6-27.7l0,0c0.2-0.4,0.1-0.6-0.1-0.7c-0.1-0.3-0.1-0.6-0.2-0.9
								C257.4,342.5,257.3,342.2,257.4,341.9z"/>
							<path id="Shape-13" class="st17" d="M248,349.6c-1.3,1-3,1.8-4.3,2.9c-2.2,1.9-0.1,2.5-1.1,4.9c-0.7,1.5-1.2,3.4-0.2,4.7
								c0.4,0.8,0.6,1.8,0.6,2.7c-0.3,1.6,0.3,1.6,1,2.7c0.6,0.8,0.4,1.4,0.8,2.6c0.4,1.3,1.4,2.2,2.7,2.5c2.2,0.5,2.4-1.1,3.6-2.2
								c1,1,0.5,5.2,2.9,1.5s3.9-8.4,5.5-12.7c1-2.7,1.9-5.5,2.7-8.3c0.4-1.7,0.5-3.4,1-5L248,349.6z"/>
						</g>
						<g id="body">
							<path id="Shape-14" class="st14" d="M169.3,347.4c3-6.2,8-12.9,12.6-18.4c6.8-8.1,13.9-13.3,23.1-18.2
								c17.8-9.6,36.2-11.8,56-6.9c9.9,2.4,19.9,3.4,27.3,10.6c2,1.1-3.7,6.8-7.8,8.7c5.4,2.4,10.1-5.7,9.9-3.6
								c-0.2,3.5-3.3,8.8-4.4,10c-9.2,10.9-22.7,23.3-37,26.3c-19.8,4.2-39.8,7.1-60,8.9c-2.8,0.3-9.6,0.7-9.6,0.7
								c-3.9-0.5-3.6-2.9-6.8-4.5L169.3,347.4z"/>
							<path id="Shape-15" class="st15" d="M270.4,340c-5.1-2.2-10.8-4.8-14.3-9.5c-5.8-7.8-4.5-18.8-1.7-27.9
								c-4.7-0.8-9.4-1.2-14.2-1.2L240,302c-1.7,5.7-3,11.6-1.1,17.4c3.7,11.8,17.8,25.4,30.7,26.2c1.8-1.4,3.5-2.9,5.2-4.5
								C273.3,340.9,271.8,340.5,270.4,340z"/>
							<path id="Shape-16" class="st15" d="M204.1,311.2c-3.6,1.8-7,4-10.2,6.5c6.7,6.8,12.2,14.5,16.5,23
								c2.6,5.2,7.3,13.1,9.4,20.6c5.2-0.8,10.5-1.7,15.7-2.6c0.6-0.7,1.1-1.6,1.5-2.4c8.1-19.9-21-49.8-21.4-50.1
								C211.6,307.5,207.7,309.1,204.1,311.2z"/>
							<g id="eye">
								<path id="Shape-17" class="st15" d="M270.1,323c3.3-1.5,4.9-5.7,3.7-8.2c-0.9-2-3.5-3-7-2.1c-5.5,1.3-6.4,5.4-5.2,8.3
									C262.4,323.2,266.7,324.6,270.1,323z"/>
								<path id="Shape-18" class="st16" d="M266.4,319.4c0.7-0.9-0.2-2.7-1.8-2.7c0.2-0.4,0.6-0.5,0.9-0.8c3.6-2.6,6.4,1.1,4.5,3.8
									c-1.4,1.9-3.9,1.6-4.5,0.5C265.9,320,266.2,319.7,266.4,319.4z"/>
								<path id="Shape-19" class="st12" d="M258,314.7c1.4-3.6,5.2-5.4,8.8-5.7c1.3-0.2,1-2.1-0.1-2c-4.3,0.4-8.9,2.6-10.5,6.8
									C255.8,315.1,257.7,315.9,258,314.7z"/>
							</g>
						</g>
						<g id="fin">
							<path id="Shape-20" class="st14" d="M250.2,342.5c0.1,0.1-8,8-10.3,9c-4.2,1.9-7.1,1.5-11-0.4c-0.7-0.3-1.9-0.2-2.7-0.7
								c-1.1-0.6-1.9-1.4-2.6-2.4c-0.8-1.6-1.9-2.9-3.2-4c-1.6-1.4-2.4-3.4-3.3-5.4s-0.1-3.4,0.5-5.5c0.4-1.2,0.7-3,1.8-3.9
								c0.6-0.5,1.6-0.6,2.4-1s1.2-1.4,2.2-1.6c1.6-0.3,3.8,1.3,5.1,1.9c3,1.3,5.9,2.7,8.8,4c3,1.5,6.3,2.4,9.6,2.6L250.2,342.5z"/>
							<path id="Shape-21" class="st12" d="M251.1,342l-2.6-6.9c-0.1-0.3-0.4-0.6-0.7-0.6c-6-0.5-11.4-3.5-16.8-6
								c-3.2-1.5-5.4-3.5-8.7-1.9c-3.8,1.9-5,3.8-6.1,7.9c-1.2,4.6,1.6,7.7,4.5,11.1s3.9,5.3,8.2,6.6c3.8,1.2,6.8,2.2,10.8,0.5
								c2.6-1.2,4.7-3.4,6.9-5.3c1.5-1.3,3.5-2.9,4.6-4.5l0,0C251.4,342.6,251.4,342.2,251.1,342z M219.3,340.3
								c-0.8-1.3-1.1-2.8-1.1-4.4c9.3,4.5,19.8,6.1,30,4.7c-0.2,0.2-0.4,0.3-0.6,0.5c-4.4,1.2-8.9,1.9-13.4,1.9
								C229.7,342.9,224.1,342.3,219.3,340.3L219.3,340.3z M227.8,329c4,2.2,8.1,4,12.3,5.6l0,0c-2.7-0.1-5.5-0.7-8-1.7
								c-3-1.2-5.9-2.8-8.5-4.6C225,328.1,226.5,328.4,227.8,329z M221.5,329.4c3.3,2.2,6.8,4.2,10.5,5.7c4.9,1.9,10.1,2.6,15.3,2.2
								c0.3,0.4,0.5,0.9,0.7,1.4c-10.1,1.4-20.3-0.3-29.4-4.8c-0.1-0.1,0.1-0.2,0-0.3C219,331.9,220.1,330.4,221.5,329.4
								L221.5,329.4z M224,346.3c-0.9-1.2-2-2.3-2.8-3.4c3.4,1.1,7,1.7,10.6,1.8c4.1,0.3,8.2,0,12.2-0.8c-1.3,1-2.6,1.8-4,2.6
								c-3,1.6-6.2,3-9.4,4c-0.4-0.2-0.8-0.3-1.2-0.5c-0.4-0.2-0.8-0.1-1.2-0.3C225.7,348.9,225.7,348.4,224,346.3z M244.4,346.9
								c-2.2,1.9-4.2,3.9-7.1,4.5c-1.3,0.3-2.6,0.3-3.8,0.1c2.9-0.9,5.6-2,8.2-3.5c2.5-1.5,4.8-3.2,7-5.1h0.1
								C247.5,344.3,246,345.7,244.4,346.9L244.4,346.9z"/>
						</g>
						<g id="tail">
							<path id="Shape-22" class="st12" d="M174.9,338.2c-1.3,2.2-5.4,2.4-5.4,2.4c-1.6,0.9-14.1-0.5-19.3,1.5
								c-0.4-0.1-0.9-0.2-1.3-0.3c-1.5-0.4-2.8-0.3-3.9,0.7c-1.1,0.9-2.4,1.4-3.9,1.6c-3.3,0.3-4.9,1.7-5.3,5.1
								c-0.2,1.9-2.1,3.3-2.6,5c-0.3,1.3,0.5,3.2,1.1,5s-0.3,4,0.6,5.2s0.6,2.1,1.7,2.9c2,1.6,2.1,1.4,2.6,3.5
								c0.9,1.8,2.3,3.4,3.9,4.7c2.7,1.8,2,0.8,4.2,2.1c1.6,1.1,4-0.3,5.8-0.2c1.2,0.2,2.5-0.1,3.6-0.8c0.2-0.1,0.4-0.2,0.6-0.4
								c1.6,0.2,2.3-0.9,4.2-1.6c4.6-1.6,8.8-4.1,12.4-7.5V367l5.7-1.6C179.6,365.5,187.1,359.3,174.9,338.2z"/>
							<path id="Shape-23" class="st11" d="M174.2,338.3c-0.3,0.4-0.5,0.8-0.8,1.2c-0.9,0.8-3.9,1-3.9,1c-1.1,0.7-7.4,0.4-13.2,0.6
								c13.9,7.3,15.5,19.4,11.2,30.9c2.4-1.3,4.5-2.9,6.5-4.8l-0.1-0.1l5.7-1.6c0.1-0.1,0.2-0.1,0.2-0.2c0,0,5.7-4.4,1.8-14.7
								S174.2,338.3,174.2,338.3z"/>
							<path id="Shape-24" class="st15" d="M181.1,359.6c0.6-6.1-3.3-13.9-8-19.9c-1.2,0.4-2.4,0.6-3.6,0.7c0,0-7.6,0.1-13.2,0.6
								c1.9,1.7,3.8,3.5,5.5,5.5c-3.9,0.2-7.8,0.2-11.7,0c-3.6-0.3-8.4-0.2-12.5-1.2c-0.4,0.3-0.7,0.8-0.9,1.3
								c4.2,1.3,9.1,1.2,13.2,1.4c4.4,0.3,8.7,0.3,13.1,0c0.2,0.3,0.4,0.5,0.6,0.8c-4.5,1.7-9.1,3-13.7,4c-3.8,0.9-7.7,1.4-11.6,1.6
								c-1.5,0.1-3.1,0.3-4.8,0.4c0,0.4,0.1,0.9,0.2,1.3c0.3-0.1,0.4,0,0.7-0.1c4.7-0.1,9.4-0.6,14.1-1.5c5.5-1,10.8-2.5,16-4.5
								c0.3,0.5,0.5,0.9,0.8,1.4c-9.6,4.7-19.9,8-30.4,11c0,0.5,0,1,0.1,1.5c10.6-3,21.1-6.2,30.9-11c0.3,0.7,0.6,1.3,0.9,2
								c-9.2,5.3-18.7,9.8-28.6,13.7c0.4,0.3,0.7,0.7,0.9,1.2c9.7-3.8,19.1-8.4,28.1-13.6c0.3,1,0.6,1.9,0.8,2.9
								c-3.5,2.2-7,4.4-10.5,6.3c-5.3,3-10.7,5.7-16.4,7.9c0.3,0.4,0.8,0.8,1.1,1.1c5.2-2.1,10.2-4.5,15-7.2
								c3.8-2.1,7.5-4.2,11.1-6.7c0.2,1.3,0.2,2.5,0.2,3.8c-3,2.5-6.3,5-9.5,7.3c-2.9,2-5.9,4.3-9,6.2c1.2-0.1,2.4-0.6,3.3-0.6
								c0.3,0,0.4,0,0.6,0.1c5.1-3.2,9.9-6.7,14.4-10.6c-0.2,1.8-0.6,3.5-1.1,5.2c2.4-1.4,4.7-3,6.8-4.9v-0.1l3.5-0.9
								C179.6,364.3,180.8,362,181.1,359.6z"/>
							<path id="Shape-25" class="st11" d="M156.1,375.7c-1.2-0.5-2.2-0.4-3.1-1.3c-0.7-0.6-0.5-1.8-1.7-2.1
								c-0.9-0.2-1.8-0.4-2.8-0.3c-2.9-0.4-3.2-2.6-5.2-4.3s-3-0.5-2.9-4.4c0.1-1.4-2.1-4.7-1.9-5.8c0.3-1.3,0.3-2.7,0.7-3.9
								c0.5-1,1-1.9,1.8-2.7c0.4-0.5,0.9-1,1.4-1.5c0.3-0.4-0.5-1-0.2-1.6c1.1-1.6,7.2-2.1,6-4.1c0.5-0.8,1.3-1.4,2.2-1.6l0,0
								c-0.4-0.1-0.9-0.2-1.3-0.3c-1.5-0.4-2.8-0.3-3.9,0.7c-1.1,0.9-2.4,1.4-3.9,1.6c-3.3,0.3-4.9,1.7-5.3,5.1
								c-0.2,1.9-2.1,3.3-2.6,5c-0.4,1.4,0.3,3.3,1,5s-0.3,4,0.6,5.2s0.6,2.1,1.7,2.9c2,1.6,2.1,1.4,2.6,3.5
								c0.9,1.8,2.3,3.4,3.9,4.7c2.7,1.8,2,0.8,4.2,2.1c1.6,1.1,4-0.3,5.8-0.2c1.2,0.2,2.5-0.1,3.6-0.8c0.2-0.1,0.4-0.2,0.6-0.4
								C157,376,156.5,375.8,156.1,375.7z"/>
						</g>
					</g>
				</g>
			</g>
			<g id="heart">
				<path id="Combined-Shape" class="st18" d="M381.4,304.5l0.3,4.5l-4.5,0.3l0.3,4.5l-4.5,0.3l0.3,4.5l-4.5,0.3l-4.5,0.3l0.1,2.3
					l-0.1-2.3l4.5-0.3l0.3,4.5l-4.5,0.3l-0.1-2.3l0.1,2.3l0.3,4.5l-4.5,0.3l-0.3-4.5l-4.5,0.3l-0.3-4.5l-4.5,0.3l-0.3-4.5l-4.5,0.3
					l-0.2-4.5l-4.5,0.3l-0.3-4.5l-0.3-4.5l-0.3-4.5l4.5-0.3l-0.3-4.5l4.5-0.3l4.5-0.3l4.5-0.3l0.3,4.5l4.5-0.3l-0.3-4.5l4.5-0.3
					l4.5-0.3l4.5-0.3l0.3,4.5l4.5-0.3l0.3,4.5L381.4,304.5z"/>
				
					<rect id="Rectangle-Copy-21" x="349.2" y="297.1" transform="matrix(0.9984 -5.704129e-02 5.704129e-02 0.9984 -16.5059 20.5346)" class="st15" width="4.5" height="4.5"/>
				
					<rect id="Rectangle-Copy-22" x="344.9" y="301.9" transform="matrix(0.9984 -5.704129e-02 5.704129e-02 0.9984 -16.7853 20.2976)" class="st15" width="4.5" height="4.5"/>
			</g>
			<g id="Taco">
				<path id="Fill-27" class="st19" d="M478.2,152.8c12-5.2-16.9-51.6-47.1-37.6c-30.7,14.3-21,67.3-21,67.3L478.2,152.8z"/>
				<path id="Fill-29" class="st20" d="M378.9,172.4c0,0,69.2-10.6,81.1-13.9c15.9-4.3,18.7-11.2,17.2-19.8
					c-2.6-14.1-13.2-10-19.4-15.6s-3.8-20.2-18.9-14.3c-12.7,4.9-17-4.5-23.4-2.5c-10,3.1-8.1,12.9-14.1,18.5
					c-5.6,5.3-11.7,0.7-17.9,7c-5.2,5.3,0.4,19-6.8,25.4C365.1,167.8,378.9,172.5,378.9,172.4"/>
				<path id="Fill-31" class="st21" d="M457.8,133.3c1.2-1,1.3-2.7,0.3-3.9c0,0,0,0,0,0l-2-2.3c-1-1.2-2.8-1.3-4-0.3c0,0,0,0,0,0
					l-6.3,5.3c-1.2,1-1.3,2.8-0.3,3.9c0,0,0,0,0,0l2,2.3c1,1.2,2.8,1.3,4,0.3c0,0,0,0,0,0L457.8,133.3"/>
				<path id="Fill-33" class="st22" d="M461.8,129.3c2-1.5,5.3,1.4,7,1.2s6.2-1.2,8.9,2.5c1.9,2.5,0.8,6.6,3.4,8.4
					c4.5,3,1.6,9-2.6,11.2l0,0c-5.8,2-11.5-8.8-21.1-18.5C459,132.9,460.5,130.3,461.8,129.3"/>
				<path id="Fill-35" class="st23" d="M450.6,128c2.4,1.7,4.6,3.7,6.6,5.8l-1,0.9l-1.1,0.9c-2-2.1-4.2-4.1-6.5-5.8L450.6,128z"/>
				<path id="Fill-37" class="st24" d="M456.2,134.7c0.5-0.1,0.9-0.3,1.3-0.6c9.6,9.7,15.3,20.5,21.1,18.5l-0.6,0.3l-0.3,0.1
					c-1.1,0.4-1.4,0.6-2,0.8c-5.7,1.8-11.3-8.7-20.6-18.2L456.2,134.7z"/>
				<path id="Fill-39" class="st21" d="M445.8,120.7c1.5,0,2.8-1.2,2.9-2.7v-0.6c0-1.5-1.2-2.8-2.7-2.9l-4.3-0.1
					c-1.5-0.1-2.8,1.2-2.9,2.7v0.6c-0.1,1.5,1.1,2.8,2.7,2.9c0,0,0,0,0,0L445.8,120.7"/>
				<path id="Fill-41" class="st25" d="M405.2,125.5c1.9-0.9,3.8-1.7,5.7-2.3c17.8-6.2,30.3-2.1,39.7,4.8l-2,1.7
					c-9.4-7.2-22.1-11.7-40.4-5.4C407.2,124.7,406.2,125.1,405.2,125.5"/>
				<path id="Fill-43" class="st21" d="M383.4,158.6c0.2-1.5-0.9-2.9-2.5-3.1l-1.6-0.2c-1.5-0.2-2.9,0.9-3.1,2.5l-0.7,5.8
					c-0.2,1.5,0.9,2.9,2.5,3.1c0,0,0,0,0,0l1.6,0.2c1.5,0.2,2.9-0.9,3.1-2.5L383.4,158.6"/>
				<path id="Fill-45" class="st21" d="M406,127.7c1.5-0.1,2.7-1.5,2.6-3l-0.1-1.6c-0.1-1.5-1.4-2.7-3-2.6c0,0,0,0,0,0l-5.8,0.4
					c-1.5,0.1-2.7,1.5-2.6,3l0.1,1.6c0.1,1.5,1.5,2.7,3,2.6L406,127.7"/>
				<path id="Fill-47" class="st26" d="M476.2,153.6c-11.9,5.2-23.1-44.9-68-29.2c-35.8,12.4-31.6,45.4-26.7,61.6
					c1.2,3.9,5.3,6.1,9.1,4.9c0.3-0.1,0.6-0.2,0.9-0.3L476.2,153.6z"/>
				<path id="Fill-49" class="st26" d="M422.5,116.6c-0.3,0.1-0.6,0.2-1,0.1l-9.4-2.6c-0.8-0.2-1.2-1-1-1.7c0,0,0,0,0,0
					c0.2-0.8,1-1.2,1.8-1l9.4,2.6c0.8,0.2,1.2,1,1,1.8c0,0,0,0,0,0C423.1,116.1,422.8,116.4,422.5,116.6"/>
				<path id="Fill-51" class="st26" d="M379.4,140.3c-0.7,0.3-1.6,0-1.9-0.7c-0.3-0.6-0.1-1.4,0.5-1.7l8-5.5c0.6-0.5,1.5-0.3,2,0.3
					c0.5,0.6,0.3,1.5-0.3,2c0,0-0.1,0.1-0.1,0.1l-8,5.5C379.5,140.2,379.5,140.2,379.4,140.3"/>
				<path id="Fill-53" class="st26" d="M465.9,134.5c-0.7,0.3-1.6,0-1.9-0.7c-0.2-0.4-0.2-0.9,0.1-1.3l4.5-8.6
					c0.4-0.7,1.2-1,1.9-0.6s1,1.2,0.6,1.9l0,0l-4.5,8.6C466.5,134.1,466.2,134.4,465.9,134.5"/>
				<path id="Fill-55" class="st19" d="M390,163.2c-0.9,0.4-2,0-2.4-0.9s0-2,0.9-2.4s2,0,2.4,0.9S390.9,162.8,390,163.2L390,163.2"
					/>
				<path id="Fill-57" class="st19" d="M408.4,158.7c-0.9,0.4-2,0-2.4-0.9s0-2,0.9-2.4s2,0,2.4,0.9S409.3,158.3,408.4,158.7
					L408.4,158.7"/>
				<path id="Fill-59" class="st19" d="M416.5,171.5c-0.9,0.4-2,0-2.4-0.9s0-2,0.9-2.4s2,0,2.4,0.9S417.4,171.1,416.5,171.5
					L416.5,171.5"/>
				<path id="Fill-61" class="st19" d="M445.4,160.8c-0.9,0.4-2-0.1-2.4-1c-0.4-0.9,0-1.9,0.9-2.3c0.9-0.4,2,0,2.4,0.9
					S446.4,160.4,445.4,160.8L445.4,160.8"/>
				<path id="Fill-63" class="st19" d="M429.5,133.4c-0.9,0.4-2,0-2.4-0.9s0-2,0.9-2.4l0,0c0.9-0.4,2,0,2.4,0.9
					S430.4,133,429.5,133.4"/>
				<path id="Fill-65" class="st19" d="M408.5,133.6c-0.9,0.3-2-0.2-2.3-1.1c-0.3-0.9,0.1-1.8,0.9-2.2c0.9-0.3,2,0.2,2.3,1.1
					C409.7,132.2,409.4,133.2,408.5,133.6"/>
				<path id="Fill-67" class="st19" d="M427.3,152.9c-0.9,0.4-2,0-2.4-0.9s0-2,0.9-2.4s2,0,2.4,0.9S428.2,152.5,427.3,152.9
					L427.3,152.9"/>
				<path id="Fill-69" class="st19" d="M446.3,146.1c-0.9,0.4-2,0-2.4-0.9s0-2,0.9-2.4l0,0c0.9-0.4,2,0,2.4,0.9
					S447.3,145.7,446.3,146.1"/>
				<path id="Fill-71" class="st19" d="M392.7,178.1c-0.9,0.4-2,0-2.4-0.9s0-2,0.9-2.4s2,0,2.4,0.9S393.6,177.7,392.7,178.1"/>
				<path id="Fill-73" class="st19" d="M394.5,146.7c-0.9,0.4-2,0-2.4-0.9s0-2,0.9-2.4s2,0,2.4,0.9S395.4,146.3,394.5,146.7
					L394.5,146.7"/>
				<path id="Fill-81" class="st25" d="M457.2,133.8l0.3,0.3c-0.4,0.3-0.8,0.5-1.3,0.6L457.2,133.8"/>
			</g>
			<g id="Stack-Blocks">
				<g id="Block">
					<path id="Fill-4-Copy" class="st27" d="M71.2,258.2c-0.4-1.7,0.6-3.5,2.4-3.9c0,0,0,0,0,0l8.2-2.1c0.8-0.2,1.7-0.1,2.5,0.4
						l5.6,3.3c0.8,0.4,1.6,0.6,2.5,0.3l10-2.6c0.8-0.2,1.6-0.7,2-1.5l3.3-5.6c0.4-0.7,1.2-1.3,2-1.5l48.1-12.3
						c1.7-0.5,3.5,0.6,4,2.3c0,0,0,0,0,0l8,31.4c0.4,1.7-0.6,3.5-2.4,3.9c0,0,0,0,0,0l-48.1,12.3c-0.8,0.2-1.6,0.7-2,1.5l-3.3,5.6
						c-0.4,0.7-1.2,1.3-2,1.5l-10,2.6c-0.8,0.2-1.7,0.1-2.5-0.4l-5.6-3.3c-0.7-0.4-1.6-0.6-2.5-0.4l-8.2,2.1c-1.7,0.5-3.5-0.5-4-2.3
						c0,0,0,0,0,0L71.2,258.2z"/>
					<path id="Fill-4" class="st5" d="M72.7,264.4c-0.4-1.7,0.6-3.5,2.4-4l8.2-2.1c0.8-0.2,1.7-0.1,2.5,0.3l5.6,3.3
						c0.8,0.4,1.6,0.6,2.5,0.3l10-2.6c0.8-0.2,1.6-0.8,2-1.5l3.3-5.6c0.4-0.7,1.2-1.3,2-1.5l48.1-12.3c1.7-0.5,3.5,0.6,4,2.3
						c0,0,0,0,0,0l8,31.4c0.4,1.7-0.6,3.5-2.4,4l-48.1,12.3c-0.8,0.2-1.6,0.8-2,1.5l-3.3,5.6c-0.4,0.7-1.2,1.3-2,1.5l-10,2.6
						c-0.8,0.2-1.7,0.1-2.5-0.3l-5.6-3.3c-0.7-0.4-1.6-0.6-2.5-0.4l-8.2,2.1c-1.7,0.5-3.5-0.6-4-2.3c0,0,0,0,0,0L72.7,264.4z"/>
				</g>
				<g id="Placing">
					<g id="Hand-2">
						<g id="Fill-1-2">
							<path id="path-7-3" class="st28" d="M71.1,240.4c6.7-11.2-2.3-11.6-6.1-8.5c-5.7,4.6-6.9,11.2-9.6,12.6
								c-5.2,2.7-11-5.9-9.8-10.3c1.3-5.2,4.2-11.1,6-12.1c2.5-1.3,5.7,1.2,10.3,3.7c4,2.2,10.4-1.8,5-5.6
								c-7.7-5.3-14.8-8.5-18.2-7.1c-2.6,1.1-5.2,3.2-7.7,7.6c-3.2,5.6-4.2,8.4-5,8.9c-1.9,1.2-4-11.2-4.5-22.9
								c-0.3-8.1-9.3-7.4-8.8,1.4c0.9,16.5,6.2,28.7,4.8,29.2c-0.9,0.4-6.3-7.9-10.3-21.6c-1.8-6.1-10.6-4.1-7.5,4.3
								c4,11.1,10.8,22.7,9.3,23.8c-1,0.8-8.1-9.5-11.3-13.6c-5-6.4-10.1-0.4-6.7,4c13.3,17.5,14.9,18.1,19.7,29.6
								c6.8,16.3,36.4,13.7,41-4.4C64.9,247,67.5,246.5,71.1,240.4z"/>
						</g>
						<g>
							<path id="Fill-1-Copy" class="st8" d="M69.2,238c6.7-11.2-2.3-11.6-6.1-8.5c-5.7,4.6-6.9,11.2-9.6,12.6
								c-5.2,2.7-9.3-4.4-8.2-8.8c1.3-5.2,3.2-11.2,5-12.1c2.5-1.3,5-0.2,9.6,2.3c4,2.2,10.4-1.8,5-5.6c-7.6-5.3-14.8-8.5-18.1-7.2
								c-2.6,1.1-5.2,3.2-7.7,7.6c-3.2,5.6-2.3,5.9-3.2,6.4c-1.9,1.2-0.8-10.8-2.1-22.5c-0.3-2.4-8.9-5.1-8.4,3.6
								c0.3,5.1,2,9.5,2.8,13.6c1.7,9.1,2.5,15.7-0.6,18c-3.2-5.3-6.1-12.5-8.7-21.6c-1.8-6.1-10-4.9-8,0.9s4.4,7.9,6.5,13.2
								c1.9,4.9,4,12.2,1.8,13.8c-4.6-6.7-8-11.4-10.1-14.1c-5-6.4-9.5-1.1-6.1,3.4c13.3,17.5,18.2,16,23,27.5
								c6.8,16.3,32.1,13.8,36.6-4.3C65.4,243.7,65.6,244,69.2,238z"/>
						</g>
					</g>
					<path id="Fill-4-Copy-2" class="st29" d="M64.7,241.1l-13.4-29.5c-0.7-1.6,0-3.6,1.6-4.3l7.7-3.5c0.8-0.4,1.7-0.4,2.5-0.1
						l6.1,2.3c0.8,0.3,1.7,0.3,2.5-0.1l9.4-4.3c0.8-0.4,1.4-1,1.7-1.8l2.3-6.1c0.3-0.8,0.9-1.5,1.7-1.8l74.4-33.7
						c1.6-0.8,3.6,0,4.3,1.6c0,0,0,0,0,0l13.4,29.5c0.7,1.6,0,3.6-1.6,4.3L103,227.3c-0.8,0.4-1.4,1-1.7,1.8l-2.3,6.1
						c-0.3,0.8-0.9,1.5-1.7,1.8l-9.4,4.3c-0.8,0.4-1.7,0.4-2.5,0.1l-6.1-2.3c-0.8-0.3-1.7-0.3-2.5,0.1l-7.7,3.5
						C67.4,243.4,65.5,242.7,64.7,241.1"/>
					<path id="Fill-4-2" class="st10" d="M67.3,246.7l-13.4-29.5c-0.7-1.6,0-3.6,1.6-4.3c0,0,0,0,0,0l7.7-3.5
						c0.8-0.4,1.7-0.4,2.5-0.1l6.1,2.3c0.8,0.3,1.7,0.3,2.5-0.1l9.4-4.3c0.8-0.4,1.4-1,1.7-1.8l2.3-6.1c0.3-0.8,0.9-1.5,1.7-1.8
						l74.4-33.7c1.6-0.8,3.6,0,4.3,1.6c0,0,0,0,0,0l13.4,29.5c0.7,1.6,0,3.6-1.6,4.3c0,0,0,0,0,0l-74.4,33.7c-0.8,0.4-1.4,1-1.7,1.8
						l-2.3,6.1c-0.3,0.8-0.9,1.5-1.7,1.8l-9.4,4.3c-0.8,0.4-1.7,0.4-2.5,0.1l-6.1-2.3c-0.8-0.3-1.7-0.3-2.5,0.1l-7.7,3.5
						C70,249.1,68.1,248.4,67.3,246.7C67.3,246.7,67.3,246.7,67.3,246.7"/>
					<g id="Finger">
						<g id="Fill-6">
							<path id="path-9-3" class="st28" d="M51.5,222.1c2.5-1.3,6.1,1.2,10.8,3.6c4,2.1,10.5-1.9,5-5.6c-7.5-5.2-15.1-8.4-18.4-7
								L51.5,222.1z"/>
						</g>
						<g>
							<path id="Fill-6-2" class="st8" d="M50.8,220.8c3-1,8,3.5,12.7,5.9c4,2.1,10.9-3.2,5.5-6.9c-7.6-5.2-18.7-10.4-22-9.1
								L50.8,220.8z"/>
						</g>
					</g>
				</g>
			</g>
			<path class="st30" d="M76.7,316.1c-1.1,0.3-1.9,1.2-2.2,2.3l-0.6,2.5c-0.2,0.6-0.8,1-1.4,0.9c-0.4-0.1-0.7-0.4-0.9-0.8l-0.7-2.4
				c-0.3-1.1-1.2-1.9-2.3-2.2l-2.5-0.6c-0.6-0.2-1-0.8-0.9-1.4c0.1-0.4,0.4-0.7,0.8-0.9l2.5-0.7c1.1-0.3,1.9-1.2,2.2-2.3l0.6-2.5
				c0.2-0.6,0.8-1,1.4-0.9c0.4,0.1,0.7,0.4,0.8,0.8l0.7,2.5c0.3,1.1,1.2,1.9,2.3,2.2l2.5,0.6c0.6,0.2,1,0.8,0.9,1.4
				c-0.1,0.4-0.4,0.7-0.8,0.8L76.7,316.1z"/>
			<path class="st31" d="M448.4,192.4c-1.9,0.5-3.5,1.9-4,3.9l-1.3,4.3c-0.3,1.1-1.5,1.8-2.6,1.4c-0.7-0.2-1.3-0.8-1.5-1.5l-1.1-4.4
				c-0.5-1.9-1.9-3.5-3.8-4.1l-4.4-1.3c-1.1-0.3-1.8-1.5-1.4-2.6c0.2-0.7,0.8-1.3,1.5-1.5l4.4-1.1c1.9-0.5,3.5-1.9,4.1-3.9l1.3-4.4
				c0.3-1.1,1.5-1.7,2.6-1.4c0.7,0.2,1.3,0.8,1.4,1.5l1.1,4.4c0.5,1.9,2,3.4,3.9,4l4.4,1.3c1.1,0.3,1.8,1.5,1.4,2.6
				c-0.2,0.7-0.8,1.3-1.5,1.5L448.4,192.4z"/>
			<path class="st31" d="M390.2,102.3c0.3,1.1,1.2,2,2.3,2.3l2.5,0.7c0.6,0.2,1,0.9,0.8,1.5c-0.1,0.4-0.4,0.7-0.8,0.8l-2.5,0.7
				c-1.1,0.3-2,1.2-2.3,2.3l-0.7,2.5c-0.2,0.6-0.9,1-1.5,0.8c-0.4-0.1-0.7-0.4-0.8-0.8l-0.7-2.5c-0.3-1.1-1.2-2-2.3-2.3l-2.5-0.7
				c-0.6-0.2-1-0.9-0.8-1.5c0.1-0.4,0.4-0.7,0.8-0.8l2.5-0.7c1.1-0.3,2-1.2,2.3-2.3l0.7-2.5c0.2-0.6,0.9-1,1.5-0.8
				c0.4,0.1,0.7,0.4,0.8,0.8L390.2,102.3z"/>
			<path class="st30" d="M167.7,302.5c-1.5,0.5-2.6,1.7-3,3.2l-0.8,3.5c-0.2,0.9-1.1,1.4-2,1.2c-0.6-0.1-1-0.6-1.2-1.1l-1-3.4
				c-0.5-1.5-1.7-2.6-3.2-3L153,302c-0.9-0.2-1.4-1.1-1.2-2c0.1-0.6,0.6-1,1.1-1.2l3.4-1c1.5-0.5,2.6-1.7,3-3.2l0.8-3.5
				c0.2-0.9,1.1-1.4,2-1.2c0.6,0.1,1,0.6,1.2,1.1l1,3.4c0.5,1.5,1.7,2.6,3.2,3l3.5,0.8c0.9,0.2,1.4,1.1,1.2,2
				c-0.1,0.6-0.6,1-1.1,1.2L167.7,302.5z"/>
			<path class="st31" d="M219.6,111.5c-1.7,0.4-3.1,1.7-3.6,3.4l-1.2,3.9c-0.3,1-1.3,1.6-2.3,1.3c-0.6-0.2-1.1-0.7-1.3-1.4l-0.9-3.9
				c-0.4-1.7-1.7-3.1-3.4-3.6l-3.9-1.2c-1-0.3-1.6-1.3-1.3-2.3c0.2-0.6,0.7-1.1,1.4-1.3l3.9-1c1.7-0.4,3.1-1.7,3.6-3.4l1.2-3.9
				c0.3-1,1.3-1.6,2.3-1.3c0.6,0.2,1.1,0.7,1.3,1.4l0.9,4c0.4,1.7,1.7,3.1,3.4,3.6l3.9,1.2c1,0.3,1.6,1.3,1.3,2.3
				c-0.2,0.6-0.7,1.1-1.4,1.3L219.6,111.5z"/>
			<path class="st30" d="M51.4,304.1c-1.9,0.6-3.3,2.1-3.8,4l-1.1,4.4c-0.3,1.1-1.4,1.8-2.5,1.5c-0.7-0.2-1.3-0.7-1.5-1.4l-1.3-4.3
				c-0.6-1.9-2.1-3.3-4-3.8l-4.4-1.1c-1.1-0.3-1.8-1.4-1.5-2.5c0.2-0.7,0.7-1.3,1.4-1.5l4.3-1.3c1.9-0.6,3.3-2.1,3.8-4l1-4.4
				c0.3-1.1,1.4-1.8,2.5-1.5c0.7,0.2,1.3,0.7,1.5,1.4l1.3,4.3c0.6,1.9,2.1,3.3,4,3.8l4.4,1c1.1,0.3,1.8,1.4,1.5,2.5
				c-0.2,0.7-0.7,1.3-1.4,1.5L51.4,304.1z"/>
			<path class="st30" d="M169.4,9.1c-1.1,0.3-1.9,1.2-2.2,2.3l-0.6,2.5c-0.2,0.6-0.8,1-1.4,0.9c-0.4-0.1-0.7-0.4-0.8-0.8l-0.7-2.5
				c-0.3-1.1-1.2-1.9-2.3-2.2l-2.5-0.6c-0.6-0.2-1-0.8-0.9-1.4c0.1-0.4,0.4-0.7,0.8-0.8l2.4-0.7c1.1-0.3,1.9-1.2,2.2-2.3l0.6-2.5
				c0.2-0.6,0.8-1,1.4-0.9c0.4,0.1,0.7,0.4,0.8,0.8l0.7,2.4c0.3,1.1,1.2,1.9,2.3,2.2l2.5,0.6c0.6,0.2,1,0.8,0.9,1.4
				c-0.1,0.4-0.4,0.7-0.8,0.9L169.4,9.1z"/>
			<path class="st30" d="M230.4,40.7c-1.5,0.5-2.6,1.7-3,3.2l-0.8,3.5c-0.2,0.9-1.1,1.4-2,1.2c-0.6-0.1-1-0.6-1.2-1.1l-1-3.4
				c-0.5-1.5-1.7-2.6-3.2-3l-3.5-0.8c-0.9-0.2-1.4-1.1-1.2-2c0.1-0.6,0.6-1,1.1-1.2l3.4-1c1.5-0.5,2.6-1.7,3-3.2l0.8-3.5
				c0.2-0.9,1.1-1.4,2-1.2c0.6,0.1,1,0.6,1.2,1.1l1,3.4c0.5,1.5,1.7,2.6,3.2,3l3.5,0.8c0.9,0.2,1.4,1.1,1.2,2
				c-0.1,0.6-0.6,1-1.1,1.2L230.4,40.7z"/>
			<path class="st31" d="M243.4,240.8c-2.3,0.6-4.1,2.3-4.8,4.6l-1.5,5.1c-0.4,1.3-1.8,2.1-3.1,1.7c-0.8-0.3-1.5-0.9-1.7-1.8
				l-1.3-5.2c-0.6-2.3-2.3-4.1-4.6-4.8l-5.1-1.5c-1.3-0.4-2.1-1.8-1.7-3.1c0.3-0.8,0.9-1.5,1.8-1.7l5.2-1.3c2.3-0.5,4.1-2.3,4.8-4.6
				l1.6-5.2c0.4-1.3,1.8-2.1,3.1-1.7c0.8,0.3,1.5,0.9,1.7,1.8l1.3,5.2c0.6,2.3,2.3,4.1,4.6,4.8l5.1,1.5c1.3,0.4,2.1,1.8,1.7,3.1
				c-0.3,0.8-0.9,1.5-1.8,1.7L243.4,240.8z"/>
			<path class="st31" d="M329.5,112.4c0.3,1.1,1.2,2,2.3,2.3l2.5,0.7c0.6,0.2,1,0.9,0.8,1.5c-0.1,0.4-0.4,0.7-0.8,0.8l-2.5,0.7
				c-1.1,0.3-2,1.2-2.3,2.3l-0.7,2.5c-0.2,0.6-0.9,1-1.5,0.8c-0.4-0.1-0.7-0.4-0.8-0.8l-0.7-2.5c-0.3-1.1-1.2-2-2.3-2.3l-2.5-0.7
				c-0.6-0.2-1-0.9-0.8-1.5c0.1-0.4,0.4-0.7,0.8-0.8l2.5-0.7c1.1-0.3,2-1.2,2.3-2.3l0.7-2.5c0.2-0.6,0.9-1,1.5-0.8
				c0.4,0.1,0.7,0.4,0.8,0.8L329.5,112.4z"/>
			<path class="st30" d="M399.6,290.7c-1.1,0.3-1.9,1.2-2.2,2.3l-0.6,2.5c-0.2,0.6-0.8,1-1.4,0.9c-0.4-0.1-0.7-0.4-0.8-0.8l-0.7-2.5
				c-0.3-1.1-1.2-1.9-2.3-2.2l-2.5-0.6c-0.6-0.2-1-0.8-0.8-1.5c0.1-0.4,0.4-0.7,0.8-0.8l2.5-0.7c1.1-0.3,1.9-1.2,2.1-2.3l0.6-2.5
				c0.2-0.6,0.8-1,1.4-0.9c0.4,0.1,0.7,0.4,0.8,0.8l0.7,2.5c0.3,1.1,1.2,1.9,2.3,2.2l2.5,0.6c0.6,0.2,1,0.8,0.9,1.4
				c-0.1,0.4-0.4,0.7-0.8,0.8L399.6,290.7z"/>
		</g>
	</g>
</g>
</svg>
