<?xml version="1.0" encoding="utf-8"?>
<!-- Generator: Adobe Illustrator 24.0.3, SVG Export Plug-In . SVG Version: 6.00 Build 0)  -->
<svg version="1.1" id="Layer_1" xmlns="http://www.w3.org/2000/svg" xmlns:xlink="http://www.w3.org/1999/xlink" x="0px" y="0px"
	 viewBox="0 0 460.9 347.5" style="enable-background:new 0 0 460.9 347.5;" xml:space="preserve">
<style type="text/css">
	.st0{opacity:0.26;fill:#006AFF;enable-background:new    ;}
	.st1{fill:#FFFFFF;}
	.st2{fill:#575E75;}
	.st3{fill:#CC9900;}
	.st4{fill:#FF8C1A;}
	.st5{fill-opacity:0.15;}
	.st6{fill:#0EBD8C;}
	.st7{fill:#47B946;}
	.st8{fill:#4D97FF;}
	.st9{fill:#9966FF;}
	.st10{fill:#FFAB19;}
	.st11{fill:#CF63CF;}
	.st12{fill:#FFBF00;}
	.st13{fill-rule:evenodd;clip-rule:evenodd;fill:#0EA57A;}
	.st14{fill-rule:evenodd;clip-rule:evenodd;fill:#FFFFFF;filter:url(#Adobe_OpacityMaskFilter);}
	.st15{mask:url(#a_1_);}
	.st16{fill-rule:evenodd;clip-rule:evenodd;fill:#0EBD8C;}
	.st17{fill-rule:evenodd;clip-rule:evenodd;fill:#FF3355;}
	.st18{fill-rule:evenodd;clip-rule:evenodd;fill:#FF6680;}
	.st19{fill-rule:evenodd;clip-rule:evenodd;fill:#FFFFFF;filter:url(#Adobe_OpacityMaskFilter_1_);}
	.st20{mask:url(#b_1_);}
	.st21{fill:#256ED1;}
	.st22{fill:#2876E0;}
	.st23{fill:#59C059;}
	.st24{fill-rule:evenodd;clip-rule:evenodd;fill:#FFFFFF;}
	.st25{opacity:0.26;fill:#4C97FF;enable-background:new    ;}
	.st26{fill:#4C97FF;}
</style>
<path class="st0" d="M420.1,209.1c-10.7-8-22.6-14-34.4-20.1c-11.6-6-24.3-12.2-33.8-21.4c-4-3.9-7.2-9-5.3-14.6
	c1.5-4.6,5.4-8.2,9.5-10.8c10.5-6.7,21.9-6.7,33.9-7.2c11.1-0.5,23.1-1.4,32.6-7.8c9.1-6.2,14.3-16.5,14-27.5
	c-0.4-23.6-18.7-43-37.8-54.4c-20-11.8-43.2-17.1-66.3-15.2c-11.3,0.9-22.4,3.6-32.9,8.1c-11.9,5.1-22,12.8-32.6,20.1
	c-10.8,7.4-22.4,14.2-35.9,14.3c-5.2,0.2-10.4-1.1-15-3.6c-6.3-3.7-9.5-10.2-13-16.3c-6.2-11-14.7-20.3-25.8-26.6
	c-10.8-6.1-25.2-10.1-36.8-3.6c-9.2,4.9-13.6,15.7-10.5,25.6c-25.2-6.3-52.2-8.5-77.6-4.2C39.6,46.1,27,51.3,18.9,61.6
	C12,70.3,8.8,82,12.7,92.7c6.3,17.1,25.3,23.9,39.7,32.6c6.7,4.1,13.8,9.1,16.8,16.7c4.9,12.3-2.2,26.1-2.7,38.7
	c-1,25.6,23.1,40.5,45.8,43.6c10.7,1.5,24.8,1.3,32.4,10.3s4.4,22.9,3.1,33.5c-1.5,11.3-2.1,22.6,2.7,33.3
	c4.4,9.7,12.4,17.4,21.5,22.7c21.3,12.3,45.6,11.1,68.5,4.4c13.7-4,26.9-9.6,40.4-14.4c14-5.1,28.5-8.7,43.2-10.7
	c14.7-1.8,29.6-2.1,44.4-0.8c11.4,0.8,22.8,1.9,34.2,0.9c21.2-1.7,42.5-12.4,45.9-35.5C452.1,245.1,437.7,222.4,420.1,209.1
	L420.1,209.1z"/>
<g>
	<path class="st1" d="M255.5,266h4.6v4.6h-4.6L255.5,266z"/>
	<path class="st1" d="M260.1,266h4.6v4.6h-4.6V266z"/>
	<path class="st1" d="M260.1,270.5h4.6v4.6h-4.6V270.5z"/>
	<path class="st1" d="M269.2,270.5h4.6v4.6h-4.6V270.5z"/>
	<path class="st1" d="M269.2,266h4.6v4.6h-4.6V266z"/>
	<path class="st1" d="M260.1,275.1h4.6v4.6h-4.6V275.1z"/>
	<path class="st1" d="M260.1,279.6h4.6v4.6h-4.6V279.6z"/>
	<path class="st1" d="M269.2,279.6h4.6v4.6h-4.6V279.6z"/>
	<path class="st1" d="M269.2,284.2h4.6v4.6h-4.6V284.2z"/>
	<path class="st1" d="M273.8,279.6h4.6v4.6h-4.6V279.6z"/>
	<path class="st1" d="M273.8,284.2h4.6v4.6h-4.6V284.2z"/>
	<path class="st1" d="M278.3,279.6h4.6v4.6h-4.6V279.6z"/>
	<path class="st1" d="M278.3,284.2h4.6v4.6h-4.6V284.2z"/>
	<path class="st1" d="M282.9,284.2h4.6v4.6h-4.6V284.2z"/>
	<path class="st1" d="M287.4,284.2h4.6v4.6h-4.6V284.2z"/>
	<path class="st1" d="M292,284.2h4.6v4.6H292V284.2z"/>
	<path class="st1" d="M260.1,288.8h45.6v4.6h-45.6V288.8z"/>
	<path class="st1" d="M260.1,293.3h50.1v4.6h-50.1V293.3z"/>
	<path class="st1" d="M260.1,297.9h63.8v4.6h-63.8V297.9z"/>
	<path class="st1" d="M264.6,302.4h54.7v4.6h-54.7V302.4z"/>
	<path class="st1" d="M292,307h27.3v4.6H292V307z"/>
	<path class="st1" d="M269.2,307h18.2v4.6h-18.2V307z"/>
	<path class="st1" d="M273.8,311.5h13.7v4.6h-13.7V311.5z"/>
	<path class="st1" d="M260.1,311.5h9.1v4.6h-9.1V311.5z"/>
	<path class="st1" d="M255.5,316.1h9.1v4.6h-9.1V316.1z"/>
	<path class="st1" d="M260.1,307h4.6v4.6h-4.6V307z"/>
	<path class="st1" d="M255.5,320.6h4.6v4.6h-4.6L255.5,320.6z"/>
	<path class="st1" d="M278.3,316.1h9.1v4.6h-9.1V316.1z"/>
	<path class="st1" d="M278.3,320.6h9.1v4.6h-9.1V320.6z"/>
	<path class="st1" d="M282.9,325.2h4.6v4.6h-4.6V325.2z"/>
	<path class="st1" d="M287.4,329.8h4.6v4.6h-4.6V329.8z"/>
	<path class="st1" d="M287.4,325.2h4.6v4.6h-4.6V325.2z"/>
	<path class="st1" d="M292,311.5h27.3v4.6H292V311.5z"/>
	<path class="st1" d="M305.6,316.1h13.7v4.6h-13.7V316.1z"/>
	<path class="st1" d="M310.2,320.6h9.1v4.6h-9.1V320.6z"/>
	<path class="st1" d="M296.5,316.1h4.6v4.6h-4.6V316.1z"/>
	<path class="st1" d="M314.8,325.2h4.6v4.6h-4.6V325.2z"/>
	<path class="st1" d="M314.8,334.3h4.6v4.6h-4.6V334.3z"/>
	<path class="st1" d="M314.8,329.8h4.6v4.6h-4.6V329.8z"/>
	<path class="st1" d="M319.3,334.3h4.6v4.6h-4.6V334.3z"/>
	<path class="st1" d="M319.3,329.8h4.6v4.6h-4.6V329.8z"/>
	<path class="st1" d="M305.6,334.3h4.6v4.6h-4.6V334.3z"/>
	<path class="st1" d="M305.6,329.8h4.6v4.6h-4.6V329.8z"/>
	<path class="st1" d="M305.6,325.2h4.6v4.6h-4.6V325.2z"/>
	<path class="st1" d="M301.1,320.6h4.6v4.6h-4.6V320.6z"/>
	<path class="st1" d="M269.2,275.1h4.6v4.6h-4.6V275.1z"/>
	<path class="st1" d="M273.8,275.1h4.6v4.6h-4.6V275.1z"/>
	<path class="st1" d="M264.6,279.6h4.6v4.6h-4.6V279.6z"/>
	<path class="st1" d="M264.6,284.2h4.6v4.6h-4.6V284.2z"/>
	<path class="st1" d="M260.1,284.2h4.6v4.6h-4.6V284.2z"/>
	<path class="st1" d="M255.5,279.6h4.6v4.6h-4.6L255.5,279.6z"/>
	<path class="st1" d="M264.6,270.5h4.6v4.6h-4.6V270.5z"/>
	<path class="st1" d="M264.6,270.5h4.6v4.6h-4.6V270.5z"/>
	<path class="st1" d="M255.5,275.1h4.6v4.6h-4.6L255.5,275.1z"/>
	<path class="st1" d="M246.4,275.1h4.6v4.6h-4.6V275.1z"/>
	<path class="st1" d="M251,275.1h4.6v4.6H251V275.1z"/>
	<path class="st1" d="M241.9,275.1h4.6v4.6h-4.6V275.1z"/>
	<path class="st1" d="M246.4,270.5h4.6v4.6h-4.6V270.5z"/>
	<path class="st1" d="M251,270.5h4.6v4.6H251V270.5z"/>
	<path class="st1" d="M246.4,266h4.6v4.6h-4.6V266z"/>
	<path class="st1" d="M251,266h4.6v4.6H251V266z"/>
	<path class="st1" d="M255.5,270.5h4.6v4.6h-4.6L255.5,270.5z"/>
	<path class="st1" d="M241.9,270.5h4.6v4.6h-4.6V270.5z"/>
	<path class="st1" d="M269.2,261.4h4.6v4.6h-4.6V261.4z"/>
	<path class="st1" d="M264.6,256.9h4.6v4.6h-4.6V256.9z"/>
	<path class="st1" d="M269.2,256.9h4.6v4.6h-4.6V256.9z"/>
	<path class="st1" d="M269.2,252.3h4.6v4.6h-4.6V252.3z"/>
	<path class="st1" d="M264.6,247.7h4.6v4.6h-4.6V247.7z"/>
	<path class="st1" d="M260.1,256.9h4.6v4.6h-4.6V256.9z"/>
	<path class="st1" d="M255.5,256.9h4.6v4.6h-4.6L255.5,256.9z"/>
	<path class="st1" d="M251,261.4h4.6v4.6H251V261.4z"/>
	<path class="st1" d="M264.6,252.3h4.6v4.6h-4.6V252.3z"/>
	<path class="st1" d="M264.6,266h4.6v4.6h-4.6V266z"/>
	<path class="st1" d="M264.6,270.5h4.6v4.6h-4.6V270.5z"/>
	<path class="st1" d="M264.6,275.1h4.6v4.6h-4.6V275.1z"/>
	<path class="st1" d="M264.6,261.4h4.6v4.6h-4.6V261.4z"/>
</g>
<path class="st2" d="M255.5,266h4.6v4.6h-4.6L255.5,266z"/>
<path class="st1" d="M260.1,266h4.6v4.6h-4.6V266z"/>
<path class="st1" d="M260.1,261.4h4.6v4.6h-4.6V261.4z"/>
<path class="st1" d="M255.5,261.4h4.6v4.6h-4.6L255.5,261.4z"/>
<path class="st3" d="M255.5,325.2h4.6v4.6h-4.6L255.5,325.2z"/>
<path class="st3" d="M292,329.8h4.6v4.6H292V329.8z"/>
<path class="st3" d="M319.3,338.9h4.6v4.6h-4.6V338.9z"/>
<path class="st3" d="M310.2,338.9h4.6v4.6h-4.6V338.9z"/>
<path class="st4" d="M246.4,252.3h4.6v4.6h-4.6V252.3z"/>
<path class="st4" d="M241.9,247.7h4.6v4.6h-4.6V247.7z"/>
<path class="st4" d="M237.3,243.2h4.6v4.6h-4.6V243.2z"/>
<path class="st4" d="M237.3,238.6h4.6v4.6h-4.6V238.6z"/>
<path class="st4" d="M241.9,238.6h4.6v4.6h-4.6V238.6z"/>
<path class="st4" d="M246.4,247.7h4.6v4.6h-4.6V247.7z"/>
<path class="st4" d="M241.9,243.2h4.6v4.6h-4.6V243.2z"/>
<path class="st4" d="M251,252.3h4.6v4.6H251V252.3z"/>
<path class="st4" d="M255.5,252.3h4.6v4.6h-4.6L255.5,252.3z"/>
<path class="st4" d="M251,256.9h4.6v4.6H251V256.9z"/>
<path class="st4" d="M246.4,243.2h4.6v4.6h-4.6V243.2z"/>
<path class="st4" d="M251,247.7h4.6v4.6H251V247.7z"/>
<path class="st5" d="M292,311.5h4.6v4.6H292V311.5z"/>
<path class="st5" d="M296.5,311.5h4.6v4.6h-4.6V311.5z"/>
<path class="st5" d="M296.5,307h4.6v4.6h-4.6V307z"/>
<path class="st5" d="M296.5,302.4h4.6v4.6h-4.6V302.4z"/>
<path class="st5" d="M301.1,311.5h4.6v4.6h-4.6V311.5z"/>
<path class="st5" d="M305.6,311.5h4.6v4.6h-4.6V311.5z"/>
<path class="st5" d="M305.6,316.1h4.6v4.6h-4.6V316.1z"/>
<path class="st5" d="M310.2,320.6h4.6v4.6h-4.6V320.6z"/>
<path class="st5" d="M301.1,320.6h4.6v4.6h-4.6V320.6z"/>
<path class="st5" d="M296.5,316.1h4.6v4.6h-4.6V316.1z"/>
<path class="st5" d="M305.6,325.2h4.6v4.6h-4.6V325.2z"/>
<path class="st5" d="M305.6,329.8h4.6v4.6h-4.6V329.8z"/>
<path class="st5" d="M305.6,334.3h4.6v4.6h-4.6V334.3z"/>
<path class="st5" d="M260.1,288.8h4.6v4.6h-4.6V288.8z"/>
<path class="st5" d="M260.1,293.3h4.6v4.6h-4.6V293.3z"/>
<path class="st5" d="M260.1,297.9h4.6v4.6h-4.6V297.9z"/>
<path class="st5" d="M264.6,311.5h4.6v4.6h-4.6V311.5z"/>
<path class="st5" d="M260.1,307h4.6v4.6h-4.6V307z"/>
<path class="st5" d="M264.6,302.4h4.6v4.6h-4.6V302.4z"/>
<path class="st5" d="M269.2,307h4.6v4.6h-4.6V307z"/>
<path class="st5" d="M282.9,307h4.6v4.6h-4.6V307z"/>
<path class="st5" d="M282.9,302.4h4.6v4.6h-4.6V302.4z"/>
<path class="st5" d="M273.8,311.5h4.6v4.6h-4.6V311.5z"/>
<path class="st5" d="M278.3,311.5h4.6v4.6h-4.6V311.5z"/>
<path class="st5" d="M278.3,316.1h4.6v4.6h-4.6V316.1z"/>
<path class="st5" d="M278.3,320.6h4.6v4.6h-4.6V320.6z"/>
<path class="st5" d="M255.5,279.6h4.6v4.6h-4.6L255.5,279.6z"/>
<path class="st5" d="M251,275.1h4.6v4.6H251V275.1z"/>
<path class="st5" d="M246.4,275.1h4.6v4.6h-4.6V275.1z"/>
<path class="st5" d="M241.9,275.1h4.6v4.6h-4.6V275.1z"/>
<path class="st5" d="M241.9,270.5h4.6v4.6h-4.6V270.5z"/>
<path class="st5" d="M246.4,270.5h4.6v4.6h-4.6V270.5z"/>
<path class="st5" d="M251,256.9h4.6v4.6H251V256.9z"/>
<path class="st5" d="M246.4,252.3h4.6v4.6h-4.6V252.3z"/>
<path class="st5" d="M241.9,247.7h4.6v4.6h-4.6V247.7z"/>
<path class="st5" d="M237.3,243.2h4.6v4.6h-4.6V243.2z"/>
<path class="st5" d="M260.1,279.6h4.6v4.6h-4.6V279.6z"/>
<path class="st5" d="M264.6,279.6h4.6v4.6h-4.6V279.6z"/>
<path class="st5" d="M260.1,284.2h4.6v4.6h-4.6V284.2z"/>
<path class="st6" d="M273.8,270.5h27.3v4.6h-27.3V270.5z"/>
<path class="st7" d="M278.3,275.1h18.2v4.6h-18.2V275.1z"/>
<path class="st8" d="M273.8,266H292v4.6h-18.2V266z"/>
<path class="st9" d="M273.8,261.4h13.7v4.6h-13.7V261.4z"/>
<path class="st4" d="M319.3,293.3H333v4.6h-13.7V293.3z"/>
<path class="st4" d="M346.6,293.3h9.1v4.6h-9.1V293.3z"/>
<path class="st10" d="M351.2,288.8h4.6v4.6h-4.6V288.8z"/>
<path class="st10" d="M323.9,288.8h4.6v4.6h-4.6V288.8z"/>
<path class="st11" d="M328.4,297.9h27.3v4.6h-27.3V297.9z"/>
<path class="st9" d="M333,302.4h18.2v4.6H333V302.4z"/>
<path class="st3" d="M332.1,170.9l-10.9-35.2c0,0,8.9-16.8,34.5-24.7s42.4,1,42.4,1l43.7-13.5c1.8-0.6,3.6,0.4,4.2,2.2c0,0,0,0,0,0
	l9.9,32c0.6,1.8-0.4,3.6-2.2,4.2c0,0,0,0,0,0l-80.8,24.9c-0.9,0.3-1.6,0.8-2,1.6l-3.1,5.9c-0.4,0.8-1.1,1.4-2,1.6l-10.2,3.1
	c-0.9,0.3-1.8,0.2-2.6-0.2l-5.9-3.1c-0.8-0.4-1.7-0.5-2.6-0.2l-8.3,2.6C334.5,173.6,332.7,172.6,332.1,170.9L332.1,170.9z"/>
<path class="st12" d="M331.1,167.6l-10.9-35.2c0,0,8.9-16.8,34.5-24.7s42.4,1,42.4,1l43.7-13.5c1.7-0.5,3.6,0.4,4.1,2.2l9.9,32
	c0.5,1.8-0.4,3.6-2.2,4.2l-80.8,24.9c-0.9,0.3-1.6,0.8-2,1.6l-3.1,5.9c-0.4,0.8-1.1,1.4-2,1.6l-10.2,3.1c-0.9,0.3-1.8,0.2-2.6-0.2
	l-5.9-3.1c-0.8-0.4-1.7-0.5-2.5-0.2l-8.3,2.6C333.5,170.3,331.7,169.4,331.1,167.6L331.1,167.6z"/>
<path class="st13" d="M346.4,209.6c9.1-8.6,0.9-11.3-3.4-9.5c-6.5,2.8-9.4,8.5-12.2,9.1c-5.5,1.1-8.5-8.3-6.3-12.1
	c2.6-4.5,6.8-9.2,8.7-9.6c2.6-0.5,4.9,2.6,8.5,6.1c3.1,3.1,10.1,1.1,6.1-3.9c-5.6-6.9-11.4-11.8-14.8-11.4c-2.7,0.3-5.6,1.6-9.1,4.9
	c-4.5,4.3-6.1,6.6-7,6.9c-2.1,0.6-0.7-11.4,1.9-22.3c1.8-7.6-6.6-9.3-8.5-1.1c-3.5,15.5-1.9,28.1-3.3,28.2c-1,0.1-3.7-9-3.8-22.6
	c0-6.1-8.7-6.6-8.1,2c0.8,11.3,4,23.8,2.3,24.5c-1.1,0.4-4.9-10.9-6.8-15.5c-2.9-7.3-9.2-3.1-7.2,1.9c7.6,19.7,9,20.6,10.3,32.5
	c1.9,16.8,30,22.3,38.9,6.9C339,214,341.5,214.2,346.4,209.6L346.4,209.6z"/>
<defs>
	<filter id="Adobe_OpacityMaskFilter" filterUnits="userSpaceOnUse" x="284.9" y="160.7" width="64.5" height="70.5">
		<feColorMatrix  type="matrix" values="1 0 0 0 0  0 1 0 0 0  0 0 1 0 0  0 0 0 1 0"/>
	</filter>
</defs>
<mask maskUnits="userSpaceOnUse" x="284.9" y="160.7" width="64.5" height="70.5" id="a_1_">
	<path class="st14" d="M346.4,209.6c9.1-8.6,0.9-11.3-3.4-9.5c-6.5,2.8-9.4,8.5-12.2,9.1c-5.5,1.1-8.5-8.3-6.3-12.1
		c2.6-4.5,6.8-9.2,8.7-9.6c2.6-0.5,4.9,2.6,8.5,6.1c3.1,3.1,10.1,1.1,6.1-3.9c-5.6-6.9-11.4-11.8-14.8-11.4
		c-2.7,0.3-5.6,1.6-9.1,4.9c-4.5,4.3-6.1,6.6-7,6.9c-2.1,0.6-0.7-11.4,1.9-22.3c1.8-7.6-6.6-9.3-8.5-1.1
		c-3.5,15.5-1.9,28.1-3.3,28.2c-1,0.1-3.7-9-3.8-22.6c0-6.1-8.7-6.6-8.1,2c0.8,11.3,4,23.8,2.3,24.5c-1.1,0.4-4.9-10.9-6.8-15.5
		c-2.9-7.3-9.2-3.1-7.2,1.9c7.6,19.7,9,20.6,10.3,32.5c1.9,16.8,30,22.3,38.9,6.9C339,214,341.5,214.2,346.4,209.6L346.4,209.6z"/>
</mask>
<g class="st15">
	<path class="st16" d="M345.3,206.8c9.1-8.6,0.9-11.3-3.4-9.5c-6.5,2.8-9.4,8.5-12.2,9c-5.5,1.1-7.4-6.5-5.2-10.3
		c2.6-4.5,6-9.5,7.9-9.9c2.6-0.5,4.7,1.1,8.3,4.7c3.1,3.1,10.1,1.1,6.1-3.9c-5.6-6.9-11.4-11.8-14.8-11.4c-2.7,0.3-5.6,1.6-9.1,4.9
		c-4.5,4.3-3.7,4.8-4.7,5.1c-2.1,0.6,2.2-10.2,4-21.3c0.4-2.3-6.9-7.1-8.7,1.1c-1.1,4.8-0.7,9.3-1.1,13.3
		c-0.9,8.9-1.9,15.2-5.3,16.5c-1.5-5.7-2.3-13.1-2.3-22.2c0-6.1-7.9-7.1-7.6-1.3s2,8.4,2.5,13.9c0.5,5,0.4,12.3-2,13.2
		c-2.5-7.4-4.4-12.6-5.6-15.7c-2.9-7.2-8.5-3.5-6.5,1.5c7.6,19.7,12.5,19.6,13.9,31.5c1.9,16.8,25.9,21.2,34.9,5.8
		C340.3,211.2,340.4,211.5,345.3,206.8L345.3,206.8z"/>
</g>
<path class="st17" d="M341.6,217.8l-4.5-30.8c-0.2-1.7,1-3.3,2.7-3.5l8-1.2c0.8-0.1,1.7,0.1,2.3,0.6l5,3.7c0.7,0.5,1.5,0.7,2.3,0.6
	l9.9-1.4c0.8-0.1,1.6-0.6,2.1-1.2l3.8-5c0.5-0.7,1.2-1.1,2.1-1.2l77.6-11.3c1.7-0.3,3.3,0.9,3.5,2.6c0,0,0,0,0,0l4.5,30.8
	c0.2,1.7-1,3.3-2.7,3.5l-77.6,11.3c-0.8,0.1-1.6,0.6-2.1,1.2l-3.8,5c-0.5,0.7-1.2,1.1-2.1,1.2l-9.9,1.4c-0.8,0.1-1.7-0.1-2.3-0.6
	l-5-3.7c-0.7-0.5-1.5-0.7-2.3-0.6l-8,1.2C343.5,220.6,341.9,219.5,341.6,217.8"/>
<path class="st18" d="M341.2,214.4l-4.5-30.8c-0.2-1.7,1-3.3,2.7-3.5l8-1.2c0.8-0.1,1.7,0.1,2.3,0.6l5,3.7c0.7,0.5,1.5,0.7,2.3,0.6
	l9.9-1.4c0.8-0.1,1.6-0.6,2.1-1.2l3.8-5c0.5-0.7,1.2-1.1,2.1-1.2l77.6-11.3c1.7-0.3,3.3,0.9,3.5,2.6c0,0,0,0,0,0l4.5,30.8
	c0.2,1.7-1,3.3-2.7,3.5l-77.6,11.3c-0.8,0.1-1.6,0.6-2.1,1.2l-3.8,5c-0.5,0.7-1.2,1.1-2.1,1.2l-9.9,1.4c-0.8,0.1-1.7-0.1-2.3-0.6
	l-5-3.7c-0.7-0.5-1.5-0.7-2.3-0.6l-8,1.2C343.1,217.3,341.5,216.1,341.2,214.4"/>
<path class="st13" d="M333.2,187.5c2.6-0.5,5.3,2.7,9,6.2c3.2,3,10.1,1.1,6.1-3.8c-5.6-6.8-11.7-11.7-15.1-11.4V187.5z"/>
<defs>
	<filter id="Adobe_OpacityMaskFilter_1_" filterUnits="userSpaceOnUse" x="332" y="175.8" width="19" height="20.4">
		<feColorMatrix  type="matrix" values="1 0 0 0 0  0 1 0 0 0  0 0 1 0 0  0 0 0 1 0"/>
	</filter>
</defs>
<mask maskUnits="userSpaceOnUse" x="332" y="175.8" width="19" height="20.4" id="b_1_">
	<path class="st19" d="M333.2,187.5c2.6-0.5,5.3,2.7,9,6.2c3.2,3,10.1,1.1,6.1-3.8c-5.6-6.8-11.7-11.7-15.1-11.4V187.5z"/>
</mask>
<g class="st20">
	<path class="st16" d="M332.9,186.2c3-0.1,6.5,5.3,10.1,8.8c3.1,3,10.9,0,6.9-4.9c-5.6-6.8-14.5-14.6-17.9-14.2L332.9,186.2z"/>
</g>
<path class="st21" d="M124.2,153.9c43.4,42,44.4,111.3,2.4,154.6c-13.5,13.9-30.5,24-49.2,29.2c51.5,10.1,101.4-23.4,111.5-74.9
	C198.2,215.4,170.4,168.5,124.2,153.9z"/>
<path class="st22" d="M157.4,232.4c0-29.6-12-57.9-33.2-78.5C74.2,138.2,20.8,166,5.1,216.1s12.1,103.4,62.1,119.1
	c3.3,1.1,6.8,1.9,10.2,2.6C124.7,324.6,157.4,281.5,157.4,232.4z"/>
<path class="st23" d="M151.9,190.1c-1.9-2.4-4.7-5-8.1-4.7c-6.1,0.2-5.7,5.4-5.7,6.2c-0.2,3.8,3.3,6.2,3.3,6.2s-7.1,5.4-12.3,0.2
	s-8.5-14.4-27-16.6s-23.9,3.6-23.9,6.7s2.8,5.2,2.8,5.2s-6.9,3.1-6.9,8.3s10.9,9.5,11.4,13c0.5,3.8-12.6,19.7-2.4,28.7
	s28.2-13.5,28.2-13.5s6.6,6.2,12.3,2.6c4.7-3.1,5.2-9.9,5.2-11.6c0.7,1.8,2.4,2.9,4.3,3.1c1.2,0,2.3-0.4,3.3-0.9v0.2
	c0,0,1,5.4,3.3,5.2s2.8-6.4,2.8-6.4s13-0.5,16.1,10.4s-1.2,13.3-1.2,13.3s-6.4-3.8-13.5,3.3s1.4,15.9-0.9,20.1s-15.9,4.3-15.2,11.1
	c0.7,7.1,23,4.3,32.9-7.1c4.1-4.7,7.7-9.9,10.7-15.4h0.2c2.1,2.1,5.7,5,9.2,4.5c5.7-1,8.3-7.1,9.2-10.7v-0.2
	c0.4-3.1,0.6-6.3,0.5-9.5c0-20.7-7.7-40.7-21.6-56.1l-0.2-0.5c-1.6-0.9-6.4-3.3-10.7-1.9C154.7,184.4,152.3,189.1,151.9,190.1
	L151.9,190.1z"/>
<path class="st23" d="M51.7,328.9C23,313.7,0.5,282.2,0,245.3c-0.2-16.7,4.4-33.2,13.3-47.4c2.9-3.1,10.7-9.9,19.2-10.9
	c11.1-1.2,19.4,1.9,19.9,5s-7.6,6.4-7.6,10s11.8,3.6,11.8,3.6s-2.1,2.4-0.7,4.3s4.5,1.7,4.5,1.7s-5.2,7.3-0.9,11.4s6.4,5.4,4.5,7.3
	c-1.9,1.7-21.1-4.7-21.1-4.7s4.5,12.8,1.7,15.2s-11.8-0.2-11.8-0.2s4.3,9.9,0.7,12.1s-5.5,0-7.8-1.4c-2.1-1.4-7.3-2.9-6.4,2.8
	c0.9,5.4,6.9,9.9,14,8.3s7.8-7.3,14.7-6.2s9,7.1,7.8,10.4S45.5,279,45.5,279s10.9,4.7,12.1,7.8c3.1,7.8-1.9,16.3-1.9,16.3
	s12.6,4,13.3,5.9s-4.7,3.6-4.7,3.6s6.6,10.7,2.1,14.5c-3.5,3.1-9,3.5-11.6,3.3L51.7,328.9z"/>
<path class="st24" d="M155.8,126.6l-0.1,0.2c-9.6,14.2-23.9,17.3-22.6,10.8c0.9-4.6,1.7-8.6,0.9-11h-4c-9.4,0-17-7.6-17-17
	s7.6-17,17-17h81c9.4,0,17,7.6,17,17s-7.6,17-17,17l0,0L155.8,126.6z"/>
<path class="st24" d="M260.4,78.3c-0.8,2.4-0.1,6.4,0.9,11c1.4,6.4-13,3.4-22.6-10.8l-0.1-0.2h-55.2c-9.4,0-17-7.6-17-17
	s7.6-17,17-17h81c9.4,0,17,7.6,17,17s-7.6,17-17,17L260.4,78.3z"/>
<path class="st2" d="M333.2,35.2c-7.4,0.3-12.5-10.2,8.6,26.3c2.1,3.8-0.8,8.3-6.4,10.1s-11.9,0-14-3.8s0.8-8.4,6.4-10.1
	c1.8-0.5,3.7-0.8,5.5-0.6c1.5-0.6-1.6-4.2-10.1-20.9c-10.7-20.9,4.6-5.1,14.5-9.9S340.6,34.8,333.2,35.2 M369.6,41.2
	c2.1,3.8-0.8,8.3-6.4,10.1s-11.9,0-14-3.8s0.8-8.4,6.4-10.1c1.2-0.4,2.4-0.6,3.6-0.6c0.6,0,1.3,0,1.9,0c1.6-0.5-1.5-4-10.1-20.9
	c-10.7-20.9,4.6-5.1,14.5-9.9s2.8,8.6-4.6,9S348.6,4.7,369.6,41.2"/>
<path class="st25" d="M163.2,339.4c-1.5,0.4-2.7,1.7-3.1,3.2l-0.9,3.5c-0.2,0.9-1.1,1.5-2,1.2c-0.6-0.1-1.1-0.6-1.2-1.2l-1-3.5
	c-0.4-1.5-1.7-2.7-3.2-3.1l-3.5-0.9c-0.9-0.2-1.5-1.1-1.2-2c0.1-0.6,0.6-1.1,1.2-1.2l3.5-1c1.5-0.4,2.7-1.7,3.1-3.2l0.9-3.5
	c0.2-0.9,1.1-1.5,2-1.2c0.6,0.1,1.1,0.6,1.2,1.2l1,3.5c0.4,1.5,1.7,2.7,3.2,3.1l3.5,0.9c0.9,0.2,1.5,1.1,1.2,2.1
	c-0.1,0.6-0.6,1-1.2,1.2L163.2,339.4z"/>
<path class="st25" d="M28.9,162.9c-0.9,0.3-1.6,1-1.8,1.9l-0.5,2.1c-0.2,0.5-0.7,0.8-1.3,0.7c-0.3-0.1-0.5-0.3-0.6-0.6l-0.6-2
	c-0.3-0.9-1-1.6-1.9-1.8l-2.1-0.5c-0.5-0.2-0.8-0.8-0.6-1.3c0.1-0.3,0.3-0.5,0.6-0.6l2-0.6c0.9-0.3,1.6-1,1.8-1.9l0.5-2.1
	c0.2-0.5,0.7-0.8,1.3-0.6c0.3,0.1,0.5,0.3,0.6,0.6l0.6,2c0.3,0.9,1,1.6,1.9,1.8l2.1,0.5c0.5,0.2,0.8,0.7,0.7,1.3
	c-0.1,0.3-0.3,0.5-0.6,0.6L28.9,162.9z"/>
<path class="st26" d="M203.7,195.3c-1.7,0.4-3.1,1.7-3.6,3.4l-1.1,3.9c-0.3,1-1.3,1.6-2.3,1.3c-0.6-0.2-1.1-0.7-1.3-1.4l-1-3.9
	c-0.4-1.7-1.7-3.1-3.4-3.6l-3.9-1.2c-1-0.3-1.6-1.3-1.3-2.3c0.2-0.6,0.7-1.1,1.4-1.3l3.9-1c1.7-0.4,3.1-1.7,3.6-3.4l1.2-3.9
	c0.3-1,1.3-1.6,2.3-1.3c0.6,0.2,1.1,0.7,1.3,1.4l1,4c0.4,1.7,1.7,3.1,3.4,3.6l3.9,1.1c1,0.3,1.6,1.3,1.3,2.3
	c-0.2,0.6-0.7,1.1-1.4,1.3L203.7,195.3z"/>
<path class="st26" d="M185.7,160.4c0.2,0.9,0.9,1.5,1.8,1.8l2,0.5c0.5,0.1,0.8,0.6,0.7,1.1c-0.1,0.3-0.3,0.6-0.7,0.7l-2,0.5
	c-0.9,0.2-1.5,0.9-1.8,1.8l-0.5,2c-0.1,0.5-0.6,0.8-1.1,0.7c-0.3-0.1-0.6-0.3-0.7-0.7l-0.5-2c-0.2-0.9-0.9-1.5-1.8-1.8l-2-0.6
	c-0.5-0.1-0.8-0.6-0.7-1.1c0.1-0.3,0.3-0.6,0.7-0.7l2-0.5c0.9-0.2,1.5-0.9,1.8-1.8l0.6-2c0.1-0.5,0.6-0.8,1.1-0.7
	c0.3,0.1,0.6,0.3,0.7,0.7L185.7,160.4z"/>
<path class="st25" d="M403.6,18.9c-2.2,0.6-4,2.4-4.5,4.7l-1.3,5.2c-0.3,1.3-1.7,2.1-3,1.8c-0.9-0.2-1.5-0.9-1.8-1.7l-1.5-5.1
	c-0.7-2.2-2.5-4-4.7-4.5l-5.1-1.2c-1.3-0.3-2.1-1.6-1.8-3c0.2-0.9,0.9-1.5,1.7-1.8l5.1-1.5c2.3-0.7,4-2.5,4.5-4.8l1.3-5.2
	c0.3-1.3,1.7-2.1,3-1.8c0.9,0.2,1.5,0.9,1.8,1.7l1.5,5.1c0.7,2.2,2.4,4,4.7,4.5l5.2,1.3c1.3,0.3,2.1,1.7,1.8,3
	c-0.2,0.9-0.9,1.5-1.7,1.8L403.6,18.9z"/>
<path class="st25" d="M426.1,39.6c-1.1,0.3-1.9,1.2-2.1,2.2l-0.6,2.5c-0.2,0.6-0.8,1-1.4,0.8c-0.4-0.1-0.7-0.4-0.8-0.8l-0.7-2.4
	c-0.3-1.1-1.2-1.9-2.3-2.1l-2.5-0.6c-0.6-0.1-1-0.8-0.9-1.4c0.1-0.4,0.4-0.8,0.8-0.9l2.4-0.7c1.1-0.3,1.9-1.2,2.1-2.3l0.6-2.5
	c0.2-0.6,0.8-1,1.4-0.8c0.4,0.1,0.7,0.4,0.8,0.8l0.7,2.4c0.3,1.1,1.2,1.9,2.3,2.1l2.5,0.6c0.6,0.2,1,0.8,0.9,1.4
	c-0.1,0.4-0.4,0.7-0.8,0.9L426.1,39.6z"/>
<path class="st25" d="M55.6,147.4c-1.5,0.5-2.6,1.7-3,3.2l-0.8,3.5c-0.2,0.9-1.1,1.4-2,1.2c-0.6-0.1-1-0.6-1.2-1.1l-1-3.4
	c-0.5-1.5-1.7-2.6-3.2-3l-3.5-0.8c-0.9-0.2-1.4-1.1-1.2-2c0.1-0.6,0.6-1,1.1-1.2l3.4-1c1.5-0.5,2.6-1.7,3-3.2l0.8-3.5
	c0.2-0.9,1.1-1.4,2-1.2c0.6,0.1,1,0.6,1.2,1.1l1,3.4c0.5,1.5,1.7,2.6,3.2,3l3.5,0.8c0.9,0.2,1.4,1.1,1.2,2c-0.1,0.6-0.6,1-1.1,1.2
	L55.6,147.4z"/>
<path class="st26" d="M349.3,271.4c-1.2,0.3-2.1,1.2-2.5,2.3l-0.8,2.6c-0.2,0.7-0.9,1.1-1.6,0.9c-0.4-0.1-0.8-0.5-0.9-0.9l-0.6-2.7
	c-0.3-1.2-1.2-2.1-2.3-2.5l-2.6-0.8c-0.7-0.2-1.1-0.9-0.9-1.6c0.1-0.4,0.5-0.8,0.9-0.9l2.7-0.6c1.2-0.3,2.1-1.2,2.5-2.3l0.8-2.6
	c0.2-0.7,0.9-1.1,1.6-0.9c0.4,0.1,0.8,0.5,0.9,0.9l0.6,2.7c0.3,1.2,1.2,2.1,2.3,2.5l2.6,0.8c0.7,0.2,1.1,0.9,0.9,1.6
	c-0.1,0.4-0.5,0.8-0.9,0.9L349.3,271.4z"/>
<path class="st26" d="M369.4,279.7c-0.7,0.2-1.2,0.7-1.4,1.3l-0.5,1.5c-0.1,0.4-0.5,0.6-0.9,0.5c-0.3-0.1-0.5-0.3-0.5-0.5l-0.4-1.6
	c-0.2-0.7-0.7-1.2-1.4-1.4l-1.5-0.5c-0.4-0.1-0.6-0.5-0.5-0.9c0.1-0.3,0.3-0.5,0.5-0.5l1.6-0.4c0.7-0.2,1.2-0.7,1.5-1.4l0.5-1.5
	c0.1-0.4,0.5-0.6,0.9-0.5c0.2,0.1,0.4,0.3,0.5,0.5l0.4,1.6c0.2,0.7,0.7,1.2,1.4,1.4l1.5,0.5c0.4,0.1,0.6,0.5,0.5,0.9
	c-0.1,0.3-0.3,0.5-0.5,0.5L369.4,279.7z"/>
</svg>
