<svg width="505" height="270" viewBox="0 0 505 270" fill="none" xmlns="http://www.w3.org/2000/svg">
<path opacity="0.5" d="M428.574 10.7875C369.48 41.0847 336.387 1.88004 277.15 1.88005C237.974 1.88006 218.149 -0.0669049 185.383 30.0808C152.617 60.2285 78.2577 -28.425 43.9123 10.7875C14.4625 44.4106 59.1457 70.0516 43.9123 100.448C28.6789 130.845 -15.7914 149.489 5.81171 189.93C38.0836 250.342 95.7386 187.937 169.606 189.93C243.474 191.923 193.462 257.7 265.318 268.912C337.174 280.124 319.641 159.533 391.496 216.091C463.352 272.649 517.675 218.084 487.208 176.725C456.741 135.365 450.131 108.705 487.208 76.5643C524.286 44.4234 502.442 -27.0841 428.574 10.7875Z" fill="#9966FF"/>
</svg>
