<?xml version="1.0" encoding="utf-8"?>
<!-- Generator: Adobe Illustrator 19.1.0, SVG Export Plug-In . SVG Version: 6.00 Build 0)  -->
<svg version="1.1" id="Layer_1" xmlns="http://www.w3.org/2000/svg" xmlns:xlink="http://www.w3.org/1999/xlink" x="0px" y="0px"
	 width="22px" height="22px" viewBox="0 0 22 22" style="enable-background:new 0 0 22 22;" xml:space="preserve">
<g>
	<g>
		<g>
			<path style="fill:#B3B3B3;" d="M17.3,4.7C15.6,2.9,13.3,2,11,2S6.4,2.9,4.6,4.7c-3.5,3.5-3.5,9.2,0,12.7C6.3,19,8.6,20,11,20
				c2.4,0,4.6-0.9,6.3-2.6C19,15.7,20,13.4,20,11S19,6.3,17.3,4.7z M16.1,16.2c-1.4,1.4-3.2,2.1-5.1,2.1s-3.8-0.8-5.1-2.1
				C3,13.3,3,8.7,5.9,5.9C7.2,4.5,9.1,3.7,11,3.7s3.8,0.8,5.1,2.1c1.4,1.4,2.1,3.2,2.1,5.1S17.5,14.8,16.1,16.2z"/>
		</g>
		<g>
			<path style="fill:#B3B3B3;" d="M15.8,11.6l-3,3c-0.2,0.2-0.4,0.2-0.6,0.2c-0.2,0-0.4-0.1-0.6-0.2c-0.3-0.3-0.3-0.9,0-1.2l1.5-1.5
				H7.2c-0.5,0-0.8-0.4-0.8-0.8c0-0.5,0.4-0.8,0.8-0.8h5.9l-1.5-1.5c-0.3-0.3-0.3-0.9,0-1.2c0.3-0.3,0.9-0.3,1.2,0l3,3
				C16.1,10.7,16.1,11.3,15.8,11.6z"/>
		</g>
	</g>
</g>
</svg>
