<?xml version="1.0" encoding="utf-8"?>
<!-- Generator: Adobe Illustrator 19.1.0, SVG Export Plug-In . SVG Version: 6.00 Build 0)  -->
<svg version="1.1" id="Layer_1" xmlns="http://www.w3.org/2000/svg" xmlns:xlink="http://www.w3.org/1999/xlink" x="0px" y="0px"
	 width="22px" height="22px" viewBox="0 0 22 22" style="enable-background:new 0 0 22 22;" xml:space="preserve">
<g>
	<g>
		<g>
			<path style="fill:#B3B3B3;" d="M17.3,4.6c-3.5-3.5-9.2-3.5-12.7,0s-3.5,9.2,0,12.7C6.3,19,8.6,20,11,20c1.2,0,2.4-0.2,3.4-0.7
				c1.1-0.5,2.1-1.1,2.9-2C19,15.6,20,13.4,20,11S19,6.3,17.3,4.6z M16.1,16.1c-1.4,1.4-3.2,2.1-5.1,2.1s-3.8-0.8-5.1-2.1
				C3,13.3,3,8.7,5.9,5.9C7.2,4.5,9.1,3.7,11,3.7s3.8,0.8,5.1,2.1c1.4,1.4,2.1,3.2,2.1,5.1S17.5,14.8,16.1,16.1z"/>
		</g>
		<g>
			<path style="fill:#B3B3B3;" d="M15.6,11c0,0.5-0.4,0.8-0.8,0.8H8.9l1.5,1.5c0.3,0.3,0.3,0.9,0,1.2c-0.2,0.2-0.4,0.2-0.6,0.2
				c-0.2,0-0.4-0.1-0.6-0.2l-3-3c-0.3-0.3-0.3-0.9,0-1.2l3-3c0.3-0.3,0.9-0.3,1.2,0c0.3,0.3,0.3,0.9,0,1.2l-1.5,1.5h5.9
				C15.2,10.1,15.6,10.5,15.6,11z"/>
		</g>
	</g>
</g>
</svg>
