<svg width="300" height="200" viewBox="0 0 300 200" fill="none" xmlns="http://www.w3.org/2000/svg">
<path fill-rule="evenodd" clip-rule="evenodd" d="M229.232 153.76C229.191 154.151 229.215 154.958 227.215 155.435C221.843 156.715 219.93 155.167 217.805 155.287C213.218 155.546 209.528 155.548 208.107 153.891C207.948 153.706 207.688 153.417 207.74 153.191L208.451 150.516" fill="#E0E0E0"/>
<path fill-rule="evenodd" clip-rule="evenodd" d="M216.611 144.882C217.509 145.013 217.869 147.265 225.123 151.209C229.083 152.412 230.284 154.066 228.283 154.543C222.911 155.823 220.15 153.798 218.052 154.091C210.539 155.14 210.783 152.193 208.125 151.791C209.291 147.317 209.317 145.88 209.108 145.101C208.899 144.323 211.485 146.545 213.46 146.737C215.435 146.929 215.713 144.75 216.611 144.882Z" fill="#9966FF"/>
<path fill-rule="evenodd" clip-rule="evenodd" d="M226.555 71.3456C226.555 71.3456 227.415 82.6511 217.023 89.8345C208.375 95.8125 208.669 77.6386 210.029 74.9919C211.389 72.3451 215.966 67.3376 220.593 68.0032C225.221 68.6683 226.555 71.3456 226.555 71.3456Z" fill="#CC9900"/>
<path fill-rule="evenodd" clip-rule="evenodd" d="M217.436 88.5559L211.8 84.8815L210.277 88.9103L214.077 91.3322L217.436 88.5559Z" fill="#CC9900"/>
<mask id="mask0" style="mask-type:alpha" maskUnits="userSpaceOnUse" x="236" y="7" width="64" height="91">
<path fill-rule="evenodd" clip-rule="evenodd" d="M239.852 36.2658C245.601 46.4049 245.689 60.1285 241.928 67.6015C226.056 99.1378 258.096 99.0984 274.736 95.3824C287.033 92.6361 299.854 85.229 299.876 75.2596V75.2029C299.869 72.592 298.984 69.8068 296.983 66.8828C286.452 51.4999 302.333 15.0375 281.645 8.61259C279.103 7.82326 275.416 7.38599 271.238 7.38599C253.816 7.38483 227.781 14.9785 239.852 36.2658Z" fill="white"/>
</mask>
<g mask="url(#mask0)">
<path fill-rule="evenodd" clip-rule="evenodd" d="M239.852 36.2658C245.601 46.4049 245.689 60.1285 241.928 67.6015C226.056 99.1378 258.096 99.0984 274.736 95.3824C287.033 92.6361 299.854 85.229 299.876 75.2596V75.2029C299.869 72.592 298.984 69.8068 296.983 66.8828C286.452 51.4999 302.333 15.0375 281.645 8.61259C279.103 7.82326 275.416 7.38599 271.238 7.38599C253.816 7.38483 227.781 14.9785 239.852 36.2658Z" fill="url(#paint0_linear)"/>
</g>
<path fill-rule="evenodd" clip-rule="evenodd" d="M253.584 21.0134C252.947 20.8418 252.449 20.3444 252.278 19.7074L251.887 18.2579C251.703 17.5731 250.731 17.5731 250.547 18.2579L250.156 19.7074C249.985 20.3444 249.487 20.8418 248.85 21.0134L247.401 21.4036C246.716 21.588 246.716 22.5601 247.401 22.7444L248.85 23.1342C249.487 23.3058 249.985 23.8036 250.156 24.4407L250.547 25.8898C250.731 26.575 251.703 26.575 251.887 25.8898L252.278 24.4407C252.449 23.8036 252.947 23.3058 253.584 23.1342L255.033 22.7444C255.718 22.5601 255.718 21.588 255.033 21.4036L253.584 21.0134Z" fill="white"/>
<path fill-rule="evenodd" clip-rule="evenodd" d="M261.965 28.4712C261.562 28.3628 261.248 28.0482 261.139 27.6452L260.892 26.7286C260.776 26.2952 260.161 26.2952 260.045 26.7286L259.797 27.6452C259.689 28.0482 259.374 28.3628 258.971 28.4712L258.055 28.718C257.622 28.8344 257.622 29.4495 258.055 29.5659L258.971 29.8127C259.374 29.921 259.689 30.2361 259.797 30.6387L260.045 31.5552C260.161 31.9887 260.776 31.9887 260.892 31.5552L261.139 30.6387C261.248 30.2361 261.562 29.921 261.965 29.8127L262.881 29.5659C263.315 29.4495 263.315 28.8344 262.881 28.718L261.965 28.4712Z" fill="white"/>
<path fill-rule="evenodd" clip-rule="evenodd" d="M276.706 20.9098C276.592 20.879 276.503 20.7903 276.473 20.6765L276.403 20.4174C276.37 20.2948 276.196 20.2948 276.164 20.4174L276.094 20.6765C276.063 20.7903 275.974 20.879 275.861 20.9098L275.601 20.9796C275.479 21.0124 275.479 21.1859 275.601 21.2191L275.861 21.2889C275.974 21.3193 276.063 21.4084 276.094 21.5222L276.164 21.7813C276.196 21.9035 276.37 21.9035 276.403 21.7813L276.473 21.5222C276.503 21.4084 276.592 21.3193 276.706 21.2889L276.965 21.2191C277.088 21.1859 277.088 21.0124 276.965 20.9796L276.706 20.9098Z" fill="white"/>
<path fill-rule="evenodd" clip-rule="evenodd" d="M284.227 84.4103C284.113 84.3798 284.024 84.2908 283.994 84.1774L283.924 83.9183C283.891 83.7956 283.717 83.7956 283.685 83.9183L283.615 84.1774C283.584 84.2908 283.495 84.3798 283.382 84.4103L283.122 84.4805C283 84.5132 283 84.6868 283.122 84.7199L283.382 84.7893C283.495 84.8198 283.584 84.9089 283.615 85.023L283.685 85.2821C283.717 85.4044 283.891 85.4044 283.924 85.2821L283.994 85.023C284.024 84.9089 284.113 84.8198 284.227 84.7893L284.486 84.7199C284.609 84.6868 284.609 84.5132 284.486 84.4805L284.227 84.4103Z" fill="white"/>
<path fill-rule="evenodd" clip-rule="evenodd" d="M269.607 82.9455C269.494 82.915 269.405 82.8255 269.374 82.7122L269.304 82.4531C269.271 82.3304 269.098 82.3304 269.065 82.4531L268.995 82.7122C268.965 82.8255 268.875 82.915 268.762 82.9455L268.503 83.0153C268.38 83.0484 268.38 83.2219 268.503 83.2547L268.762 83.3245C268.875 83.355 268.965 83.4441 268.995 83.5578L269.065 83.8169C269.098 83.9392 269.271 83.9392 269.304 83.8169L269.374 83.5578C269.405 83.4441 269.494 83.355 269.607 83.3245L269.866 83.2547C269.989 83.2219 269.989 83.0484 269.866 83.0153L269.607 82.9455Z" fill="white"/>
<path fill-rule="evenodd" clip-rule="evenodd" d="M284.811 50.1265C284.697 50.0956 284.608 50.0069 284.578 49.8932L284.508 49.634C284.475 49.5118 284.301 49.5118 284.268 49.634L284.199 49.8932C284.168 50.0069 284.079 50.0956 283.965 50.1265L283.706 50.1962C283.584 50.2294 283.584 50.4029 283.706 50.4357L283.965 50.5055C284.079 50.536 284.168 50.625 284.199 50.7388L284.268 50.9979C284.301 51.1205 284.475 51.1205 284.508 50.9979L284.578 50.7388C284.608 50.625 284.697 50.536 284.811 50.5055L285.07 50.4357C285.192 50.4029 285.192 50.2294 285.07 50.1962L284.811 50.1265Z" fill="white"/>
<path fill-rule="evenodd" clip-rule="evenodd" d="M277.477 38.5879C277.155 38.5011 276.904 38.2505 276.818 37.9293L276.621 37.1986C276.528 36.8531 276.038 36.8531 275.945 37.1986L275.749 37.9293C275.662 38.2505 275.411 38.5011 275.09 38.5879L274.359 38.7846C274.014 38.8775 274.014 39.3676 274.359 39.4605L275.09 39.6572C275.411 39.744 275.662 39.9946 275.749 40.3158L275.945 41.0465C276.038 41.392 276.528 41.392 276.621 41.0465L276.818 40.3158C276.904 39.9946 277.155 39.744 277.477 39.6572L278.207 39.4605C278.553 39.3676 278.553 38.8775 278.207 38.7846L277.477 38.5879Z" fill="white"/>
<path fill-rule="evenodd" clip-rule="evenodd" d="M290.706 74.1676C290.487 74.1086 290.317 73.9377 290.258 73.7195L290.124 73.2221C290.061 72.9868 289.727 72.9868 289.664 73.2221L289.53 73.7195C289.471 73.9377 289.3 74.1086 289.082 74.1676L288.585 74.3014C288.35 74.3646 288.35 74.6982 288.585 74.7614L289.082 74.8952C289.3 74.9542 289.471 75.1246 289.53 75.3433L289.664 75.8407C289.727 76.0755 290.061 76.0755 290.124 75.8407L290.258 75.3433C290.317 75.1246 290.487 74.9542 290.706 74.8952L291.203 74.7614C291.438 74.6982 291.438 74.3646 291.203 74.3014L290.706 74.1676Z" fill="white"/>
<path fill-rule="evenodd" clip-rule="evenodd" d="M255.765 45.5717C255.546 45.5131 255.375 45.3423 255.316 45.1236L255.183 44.6262C255.119 44.3914 254.786 44.3914 254.723 44.6262L254.589 45.1236C254.53 45.3423 254.359 45.5131 254.141 45.5717L253.644 45.7055C253.408 45.7687 253.408 46.1023 253.644 46.1655L254.141 46.2993C254.359 46.3583 254.53 46.5292 254.589 46.7474L254.723 47.2448C254.786 47.4797 255.119 47.4797 255.183 47.2448L255.316 46.7474C255.375 46.5292 255.546 46.3583 255.765 46.2993L256.262 46.1655C256.497 46.1023 256.497 45.7687 256.262 45.7055L255.765 45.5717Z" fill="white"/>
<path fill-rule="evenodd" clip-rule="evenodd" d="M206.102 116.039C210.247 115.939 217.254 118.978 219.968 123.051C222.582 126.972 219.562 137.753 221.021 142.346C223.616 150.515 206.784 150.475 206.521 144.758C206.328 140.567 210.543 136.879 207.474 130.818C207.474 130.818 205.001 126.134 199.33 127.142C197.033 138.11 201.275 144.439 197.101 149.159C193.552 153.172 167.709 143.633 165.871 141.892C163.353 139.508 166.793 132.529 170.54 134.362C172.581 135.359 180.367 136.845 182.213 137.305C183.58 137.645 183.859 138.581 183.954 136.988C184.091 134.699 185.724 133.317 184.618 128.111C183.174 121.317 184.145 114.349 185.773 111.88" fill="#E5C498"/>
<path fill-rule="evenodd" clip-rule="evenodd" d="M195.167 92.1321C195.167 92.1321 192.275 102.793 185.668 109.569C184.154 111.121 185.554 114.621 187.058 115.453C191.734 118.039 199.623 119.302 206.102 116.039C205.367 112.516 210.302 99.2427 210.302 99.2427C210.302 99.2427 216.625 103.489 219.669 105.932C222.712 108.374 229.519 95.1128 230.635 92.8301C231.75 90.5465 233.812 89.3858 230.635 89.7371C227.457 90.0884 221.411 96.7972 221.411 96.7972C221.411 96.7972 219.026 91.6952 213.608 90.1941C208.191 88.6929 209.003 90.2134 204.032 84.4C199.062 78.5866 191.704 90.6896 191.704 90.6896" fill="#4D97FF"/>
<path fill-rule="evenodd" clip-rule="evenodd" d="M40.4578 157.982C40.4578 158.737 38.7928 159.349 36.7387 159.349C34.6849 159.349 33.0199 158.737 33.0199 157.982C33.0199 157.227 34.6849 156.615 36.7387 156.615C38.7928 156.615 40.4578 157.227 40.4578 157.982Z" fill="#FF661A"/>
<path fill-rule="evenodd" clip-rule="evenodd" d="M117.989 146.642C117.989 147.816 115.402 148.767 112.21 148.767C109.018 148.767 106.431 147.816 106.431 146.642C106.431 145.469 109.018 144.518 112.21 144.518C115.402 144.518 117.989 145.469 117.989 146.642Z" fill="#9966FF"/>
<path fill-rule="evenodd" clip-rule="evenodd" d="M110.574 152.667C110.574 153.254 109.28 153.729 107.684 153.729C106.088 153.729 104.795 153.254 104.795 152.667C104.795 152.081 106.088 151.605 107.684 151.605C109.28 151.605 110.574 152.081 110.574 152.667Z" fill="#9966FF"/>
<path fill-rule="evenodd" clip-rule="evenodd" d="M42.7213 148.358C42.7213 148.944 41.4276 149.42 39.8316 149.42C38.2356 149.42 36.9419 148.944 36.9419 148.358C36.9419 147.771 38.2356 147.295 39.8316 147.295C41.4276 147.295 42.7213 147.771 42.7213 148.358Z" fill="#9966FF"/>
<path fill-rule="evenodd" clip-rule="evenodd" d="M29.7513 168.046C29.7513 168.875 27.9227 169.548 25.667 169.548C23.4116 169.548 21.5826 168.875 21.5826 168.046C21.5826 167.217 23.4116 166.545 25.667 166.545C27.9227 166.545 29.7513 167.217 29.7513 168.046Z" fill="#4D97FF"/>
<path fill-rule="evenodd" clip-rule="evenodd" d="M25.5634 163.047C25.5634 164.507 22.3444 165.69 18.3734 165.69C14.4029 165.69 11.1835 164.507 11.1835 163.047C11.1835 161.588 14.4029 160.405 18.3734 160.405C22.3444 160.405 25.5634 161.588 25.5634 163.047Z" fill="#4D97FF"/>
<path fill-rule="evenodd" clip-rule="evenodd" d="M77.3088 168.9C77.3088 169.73 75.4802 170.402 73.2245 170.402C70.9691 170.402 69.1401 169.73 69.1401 168.9C69.1401 168.071 70.9691 167.399 73.2245 167.399C75.4802 167.399 77.3088 168.071 77.3088 168.9Z" fill="#0FBD8C"/>
<path fill-rule="evenodd" clip-rule="evenodd" d="M77.4304 172.744C77.4304 173.196 76.4344 173.562 75.2062 173.562C73.9777 173.562 72.9821 173.196 72.9821 172.744C72.9821 172.293 73.9777 171.927 75.2062 171.927C76.4344 171.927 77.4304 172.293 77.4304 172.744Z" fill="#0FBD8C"/>
<path fill-rule="evenodd" clip-rule="evenodd" d="M83.5399 168.9C83.5399 169.352 82.5439 169.718 81.3157 169.718C80.0876 169.718 79.0916 169.352 79.0916 168.9C79.0916 168.449 80.0876 168.083 81.3157 168.083C82.5439 168.083 83.5399 168.449 83.5399 168.9Z" fill="#0FBD8C"/>
<path fill-rule="evenodd" clip-rule="evenodd" d="M206.427 90.2324C208.452 91.159 210.837 90.8752 211.454 89.509C212.129 88.0144 210.003 88.6063 212.669 83.0143C214.016 80.1893 209.33 78.8339 208.178 81.3901C205.766 86.7396 204.819 83.9706 203.903 85.8754C203.254 87.2266 204.619 89.4049 206.427 90.2324Z" fill="#E8B182"/>
<path fill-rule="evenodd" clip-rule="evenodd" d="M218.762 63.5795C218.762 63.5795 211.141 60.3038 206.543 70.3534C202.541 79.1016 212.19 88.6962 215.204 89.0834C216.431 89.2411 222.704 87.3073 223.446 80.2214C229.668 71.5395 224.966 66.4175 218.762 63.5795Z" fill="#ECC293"/>
<path d="M219.489 82.4912C220.158 83.2594 222.529 81.0074 221.097 80.9415C220.238 80.9025 219.871 79.5687 220.441 78.1898" stroke="#E8B182" stroke-width="0.5" stroke-linecap="round" stroke-linejoin="round"/>
<path d="M221.961 79.661C222.607 79.5473 223.213 79.8538 223.447 80.2213" stroke="#E8B182" stroke-width="0.5" stroke-linecap="round" stroke-linejoin="round"/>
<path fill-rule="evenodd" clip-rule="evenodd" d="M217.09 78.7301C216.91 79.1238 216.523 79.3324 216.225 79.1966C215.927 79.0601 215.832 78.6306 216.012 78.2373C216.192 77.8432 216.579 77.6346 216.877 77.7711C217.175 77.9068 217.27 78.3364 217.09 78.7301Z" fill="#231F20"/>
<path fill-rule="evenodd" clip-rule="evenodd" d="M216.209 74.6956C216.296 75.0445 216.619 75.2933 216.978 75.2709C218.065 75.203 219.283 75.8613 219.323 75.2219C219.367 74.4974 216.928 73.3479 216.383 73.944C216.164 74.1831 216.149 74.4553 216.209 74.6956Z" fill="#231F20"/>
<path fill-rule="evenodd" clip-rule="evenodd" d="M224.608 77.0345C224.408 77.2192 224.098 77.2411 223.88 77.0765C223.221 76.5787 222.174 76.4865 222.417 76.065C222.692 75.5877 224.717 75.8803 224.813 76.4857C224.851 76.7287 224.747 76.9076 224.608 77.0345Z" fill="#231F20"/>
<path fill-rule="evenodd" clip-rule="evenodd" d="M215.815 83.584C216.463 84.4327 219.017 85.0501 220.265 84.7092C221.84 84.2797 219.266 87.5102 216.491 86.7452C213.717 85.9802 215.166 82.7357 215.815 83.584Z" fill="#231F20"/>
<path fill-rule="evenodd" clip-rule="evenodd" d="M220.265 84.7093C220.265 84.7093 219.035 85.7971 217.288 85.4535C215.54 85.1092 215.914 83.6959 215.914 83.6959C215.914 83.6959 216.841 84.3977 217.901 84.6137C218.94 84.825 220.265 84.7093 220.265 84.7093Z" fill="white"/>
<path fill-rule="evenodd" clip-rule="evenodd" d="M81.9065 82.7225C83.1566 82.8105 95.3224 84.9243 96.6474 86.1602C100.887 90.1161 82.011 89.4625 79.6862 87.9567C77.3614 86.4517 75.8652 87.1007 74.9683 85.0724C74.0718 83.0441 81.9065 82.7225 81.9065 82.7225Z" fill="#B5875C"/>
<path fill-rule="evenodd" clip-rule="evenodd" d="M76.411 72.5946C76.411 72.5946 78.7651 82.1564 82.3524 82.8613C85.9393 83.5665 81.2607 87.6991 77.3615 86.4516C73.4627 85.2042 72.2002 76.6291 72.2002 76.6291C72.2002 76.6291 73.5834 69.9435 76.411 72.5946Z" fill="#B5875C"/>
<path fill-rule="evenodd" clip-rule="evenodd" d="M78.5166 74.9788C76.4193 70.0619 76.8208 57.1739 69.4611 55.9457C66.7611 55.5308 64.2073 54.2687 61.9846 56.4914C59.762 58.714 69.485 77.1867 72.2001 78.0536C75.0817 78.9729 78.5166 74.9788 78.5166 74.9788Z" fill="#0FBD8C"/>
<path fill-rule="evenodd" clip-rule="evenodd" d="M40.7961 71.9497C39.3308 72.5555 37.8231 70.5962 37.6122 68.7249C37.4009 66.8532 36.721 62.6 37.1668 61.9749C37.6129 61.3498 40.5883 67.0182 40.5883 67.0182L40.7961 71.9497Z" fill="#0B8E69"/>
<path fill-rule="evenodd" clip-rule="evenodd" d="M31.7949 66.6886C31.7949 66.6886 45.7414 55.4139 48.6631 55.5316C51.5845 55.6495 49.6468 61.0118 47.2491 63.3855C44.8506 65.7585 38.1982 71.8746 34.1636 73.2134C30.1291 74.5522 31.7949 66.6886 31.7949 66.6886Z" fill="#B5875C"/>
<path fill-rule="evenodd" clip-rule="evenodd" d="M57.7017 55.2473C55.0476 55.1084 52.3148 52.5507 46.9927 55.5307C42.3974 58.1038 38.9216 59.2001 37.1671 61.9749C36.6504 62.7916 39.0774 63.1005 39.9743 71.6782C40.1548 73.4038 45.6392 68.4461 46.6348 67.7597C47.4581 67.1921 49.5303 69.2782 49.5959 70.2758C49.8014 73.3899 49.7382 79.4771 49.7721 85.8099C49.8195 94.7412 68.7188 93.0257 73.5006 89.9844C78.2825 86.9431 74.3058 82.4138 74.0717 77.5039C73.8377 72.5944 65.9737 55.6799 57.7017 55.2473Z" fill="#0FBD8C"/>
<path fill-rule="evenodd" clip-rule="evenodd" d="M60.1327 25.8867C58.3489 24.1878 55.5178 24.2144 53.5504 27.4045C51.3791 30.9254 46.1445 33.0582 47.412 38.1659C49.3149 45.8375 41.4552 48.5653 48.6401 48.9663C52.3246 49.1718 54.3097 51.8838 55.539 50.0387C55.539 50.0387 51.9413 41.5774 54.7863 31.1769" fill="#231F20"/>
<path fill-rule="evenodd" clip-rule="evenodd" d="M88.8276 142.498C88.2766 141.581 78.109 140.961 77.3825 142.322C77.2645 142.543 78.3947 144.622 79.8962 144.564C81.3974 144.505 88.8276 142.498 88.8276 142.498Z" fill="#5E5D5E"/>
<path fill-rule="evenodd" clip-rule="evenodd" d="M61.8654 148.021C61.3148 147.104 51.1468 146.484 50.4203 147.846C50.3023 148.067 51.4325 150.146 52.9341 150.087C54.4352 150.028 61.8654 148.021 61.8654 148.021Z" fill="#5E5D5E"/>
<path fill-rule="evenodd" clip-rule="evenodd" d="M60.1725 152.925C59.9261 143.117 56.3982 116.346 60.963 109.9C63.4841 106.341 69.3457 108.104 70.9799 109.9C80.2209 120.055 78.8111 147.117 78.8111 147.117C78.8111 147.117 86.8047 149.014 87.2038 147.422C87.6025 145.831 86.7129 128.287 85.4261 122.192C84.1394 116.096 78.7 98.637 78.7 93.9577C78.7 89.2788 49.9251 96.0635 49.9251 96.0635C47.1179 96.1804 51.0245 141.796 51.3811 151.639L60.1725 152.925Z" fill="#404041"/>
<path fill-rule="evenodd" clip-rule="evenodd" d="M61.4388 58.8698C63.5832 59.3765 65.0808 57.4076 65.0743 56.0626C65.0673 54.5911 63.5535 55.8675 63.6414 50.3113C63.6857 47.5045 59.3581 48.1473 59.372 50.6622C59.4013 55.9261 57.1081 54.5961 57.0718 56.4914C57.046 57.836 59.7028 58.4595 61.4388 58.8698Z" fill="#A57955"/>
<path fill-rule="evenodd" clip-rule="evenodd" d="M57.2197 29.6246C57.2197 29.6246 50.2364 31.2645 51.591 40.096C48.7352 43.8194 54.7784 51.7054 57.3311 51.7054C59.8032 51.7054 67.6568 48.919 68.0903 42.0379C68.8827 29.4545 63.3388 29.6246 57.2197 29.6246Z" fill="#B5875C"/>
<path fill-rule="evenodd" clip-rule="evenodd" d="M52.4699 36.6242C52.6712 36.8521 52.9839 36.3103 53.3067 36.3149C54.1762 36.328 55.4352 36.8524 55.2289 36.3677C54.9952 35.8186 52.7606 35.0814 52.5385 35.7045C52.4495 35.9544 52.3315 36.4672 52.4699 36.6242Z" fill="#231F20"/>
<path fill-rule="evenodd" clip-rule="evenodd" d="M62.9399 38.2593C62.7386 38.5115 61.635 37.8174 61.3123 37.8228C60.4427 37.8375 59.9746 38.5123 60.1809 37.9759C60.4146 37.3678 61.3771 37.0377 62.0804 37.1472C62.6677 37.239 63.0784 38.0858 62.9399 38.2593Z" fill="#231F20"/>
<path fill-rule="evenodd" clip-rule="evenodd" d="M50.4204 147.846C51.6578 148.742 60.1226 149.064 61.3966 147.972C62.6707 146.88 61.6022 153.239 60.3166 152.906C59.0306 152.573 52.3284 153.818 51.3142 151.73C50.4204 149.889 50.4204 147.846 50.4204 147.846Z" fill="#6F6E70"/>
<path fill-rule="evenodd" clip-rule="evenodd" d="M77.3824 142.322C78.6198 143.219 87.0846 143.54 88.3587 142.448C89.6327 141.356 88.5642 147.715 87.2786 147.382C85.993 147.049 79.2904 148.295 78.2763 146.206C77.3824 144.365 77.3824 142.322 77.3824 142.322Z" fill="#6F6E70"/>
<path fill-rule="evenodd" clip-rule="evenodd" d="M51.8766 152.065C52.6058 150.982 56.3207 153.651 59.6068 152.559C60.1455 152.38 60.6985 152.784 60.668 153.351C60.6032 154.559 60.5311 156.448 60.5654 158.481C60.6094 161.075 61.9918 162.789 61.2618 163.697C59.7005 165.64 51.9557 170.095 48.0934 171.385C46.77 171.826 41.5532 170.751 41.2012 169.75C40.7184 168.376 40.4485 166.091 42.2573 165.169C43.5934 164.489 49.3366 160.631 51.0441 158.383C52.7419 156.15 51.0611 153.277 51.8766 152.065Z" fill="#FF661A"/>
<path fill-rule="evenodd" clip-rule="evenodd" d="M45.0284 163.332C49.4293 160.753 51.5193 152.654 51.3115 149.565C51.1788 147.593 55.973 147.765 56.0089 150.006C56.1384 158.182 52.4683 164.837 48.8521 166.727C45.1144 168.68 43.9877 163.942 45.0284 163.332Z" fill="#E64D00"/>
<path fill-rule="evenodd" clip-rule="evenodd" d="M43.8187 163.465C42.4764 163.936 39.9387 165.97 40.8434 167.086C41.7476 168.202 44.7322 169.084 46.5098 168.656C48.8258 168.098 49.4836 166.348 48.4301 164.581C47.5868 163.167 45.0306 163.039 43.8187 163.465Z" fill="#F1F2F2"/>
<path fill-rule="evenodd" clip-rule="evenodd" d="M40.991 168.386C41.3234 168.601 44.1946 170.18 47.5274 169.856C51.6352 169.456 60.9715 162.633 61.2117 162.458C61.8233 162.012 61.7273 163.735 61.1998 164.143C60.1043 164.99 50.9489 171.114 47.5972 171.472C43.462 171.914 41.1711 170.303 40.745 169.87C40.3162 169.433 40.3436 167.969 40.991 168.386Z" fill="#F1F2F2"/>
<path fill-rule="evenodd" clip-rule="evenodd" d="M59.6766 157.982C59.6766 159.32 58.9563 160.405 58.0675 160.405C57.179 160.405 56.4587 159.32 56.4587 157.982C56.4587 156.645 57.179 155.56 58.0675 155.56C58.9563 155.56 59.6766 156.645 59.6766 157.982Z" fill="#F1F2F2"/>
<path fill-rule="evenodd" clip-rule="evenodd" d="M88.0979 146.257C87.3687 145.174 83.6542 147.844 80.3677 146.751C79.829 146.572 79.2765 146.976 79.3065 147.543C79.3713 148.752 79.4434 150.641 79.4091 152.673C79.3655 155.268 77.9828 156.981 78.7127 157.889C80.274 159.832 87.572 163.835 91.4342 165.124C92.7576 165.566 97.9748 164.49 98.3265 163.49C98.8096 162.116 99.0795 159.83 97.2703 158.909C95.9342 158.228 90.6383 154.823 88.9304 152.576C87.2326 150.342 88.9139 147.469 88.0979 146.257Z" fill="#FF661A"/>
<path fill-rule="evenodd" clip-rule="evenodd" d="M94.4995 157.072C90.0986 154.493 88.4559 146.846 88.6634 143.758C88.796 141.785 84.0014 141.957 83.9659 144.199C83.8364 152.374 87.0596 158.577 90.6758 160.467C94.4135 162.42 95.5402 157.682 94.4995 157.072Z" fill="#E64D00"/>
<path fill-rule="evenodd" clip-rule="evenodd" d="M95.7091 157.204C97.0514 157.675 99.5891 159.709 98.6844 160.825C97.7806 161.941 94.7956 162.824 93.018 162.395C90.7021 161.838 90.0442 160.087 91.0977 158.321C91.941 156.907 94.4972 156.779 95.7091 157.204Z" fill="#F1F2F2"/>
<path fill-rule="evenodd" clip-rule="evenodd" d="M98.5368 162.126C98.2044 162.341 95.3336 163.919 92.0004 163.595C87.8926 163.195 79.0032 156.825 78.763 156.65C78.1514 156.205 78.2471 157.927 78.7746 158.336C79.8705 159.183 88.5789 164.853 91.9306 165.212C96.0658 165.654 98.3567 164.043 98.7828 163.609C99.2116 163.173 99.1842 161.708 98.5368 162.126Z" fill="#F1F2F2"/>
<path fill-rule="evenodd" clip-rule="evenodd" d="M80.298 152.175C80.298 153.513 81.0183 154.597 81.9071 154.597C82.7959 154.597 83.5162 153.513 83.5162 152.175C83.5162 150.837 82.7959 149.753 81.9071 149.753C81.0183 149.753 80.298 150.837 80.298 152.175Z" fill="#F1F2F2"/>
<path fill-rule="evenodd" clip-rule="evenodd" d="M75.0389 78.0504C75.3277 92.2665 92.8303 118.555 89.2264 125.216C85.6229 131.877 54.4889 134.668 47.4701 123.892C44.3618 119.119 52.1263 88.5493 50.9379 65.9806C50.5492 58.5948 53.8175 55.6792 55.2316 54.7704C55.5948 54.5371 56.0355 54.4634 56.457 54.5567L56.5549 54.5787C56.9209 54.6601 57.0967 55.0831 56.8873 55.3939C56.3109 56.2484 55.4174 58.2018 54.8591 62.4817C54.2876 66.8629 68.3791 66.2644 68.3791 64.449C68.3791 59.3043 66.6516 56.6351 65.5384 55.427C65.3976 55.2743 65.5079 55.0287 65.7157 55.0353C66.0828 55.0464 66.5552 55.1205 66.9508 55.2126C68.0914 55.4776 74.7975 66.1549 75.0389 78.0504Z" fill="#F1F2F2"/>
<mask id="mask1" style="mask-type:alpha" maskUnits="userSpaceOnUse" x="0" y="7" width="300" height="187">
<path fill-rule="evenodd" clip-rule="evenodd" d="M0 193.832H299.876V7.38562H0V193.832Z" fill="white"/>
</mask>
<g mask="url(#mask1)">
<path fill-rule="evenodd" clip-rule="evenodd" d="M82.3173 86.5208H83.6341V86.0469H82.3173V86.5208Z" fill="#B58D66"/>
<path fill-rule="evenodd" clip-rule="evenodd" d="M87.9447 76.7118H88.9804V76.2067H87.9447V76.7118Z" fill="#B58D66"/>
<path fill-rule="evenodd" clip-rule="evenodd" d="M121.802 82.4793H122.94V81.7714H121.802V82.4793Z" fill="#B58D66"/>
<path fill-rule="evenodd" clip-rule="evenodd" d="M95.2367 87.7703C93.503 87.7703 92.0967 87.1688 92.0967 86.4238C92.0967 85.6807 93.503 85.0773 95.2367 85.0773C96.9704 85.0773 98.3767 85.6807 98.3767 86.4238C98.3767 87.1688 96.9704 87.7703 95.2367 87.7703ZM88.1512 75.8494C86.345 79.6036 96.7321 78.3157 96.6788 80.2946C96.6276 82.2731 84.2362 80.4053 82.4281 85.8199C79.9664 93.1965 119.345 98.2927 122.839 82.9946C125.125 72.9839 90.8319 70.2816 88.1512 75.8494Z" fill="#B58D66"/>
<path fill-rule="evenodd" clip-rule="evenodd" d="M95.2367 87.2838C93.503 87.2838 92.0967 86.6822 92.0967 85.9373C92.0967 85.1942 93.503 84.5907 95.2367 84.5907C96.9704 84.5907 98.3767 85.1942 98.3767 85.9373C98.3767 86.6822 96.9704 87.2838 95.2367 87.2838ZM88.1512 75.3624C86.345 79.1167 96.7321 77.8292 96.6788 79.8077C96.6276 81.7866 84.2362 79.9187 82.4281 85.3334C79.9664 92.71 119.345 97.8062 122.839 82.5081C125.125 72.4974 90.8319 69.7947 88.1512 75.3624Z" fill="#E5C498"/>
<path fill-rule="evenodd" clip-rule="evenodd" d="M102.633 75.9774C102.633 76.4887 101.494 76.9029 100.089 76.9029C98.6851 76.9029 97.5464 76.4887 97.5464 75.9774C97.5464 75.4661 98.6851 74.1396 100.089 74.1396C101.494 74.1396 102.633 75.4661 102.633 75.9774Z" fill="#4D97FF"/>
<path fill-rule="evenodd" clip-rule="evenodd" d="M109.848 77.0601C109.848 77.5714 108.709 77.9859 107.304 77.9859C105.9 77.9859 104.761 77.5714 104.761 77.0601C104.761 76.5488 105.9 75.2223 107.304 75.2223C108.709 75.2223 109.848 76.5488 109.848 77.0601Z" fill="#9966FF"/>
<path fill-rule="evenodd" clip-rule="evenodd" d="M116.659 78.7406C116.659 79.2519 115.52 79.6665 114.116 79.6665C112.711 79.6665 111.573 79.2519 111.573 78.7406C111.573 78.2293 112.711 76.9028 114.116 76.9028C115.52 76.9028 116.659 78.2293 116.659 78.7406Z" fill="#FFBF00"/>
<path fill-rule="evenodd" clip-rule="evenodd" d="M110.693 81.9847C110.693 82.4961 109.555 82.9106 108.15 82.9106C106.746 82.9106 105.607 82.4961 105.607 81.9847C105.607 81.4734 106.746 80.1473 108.15 80.1473C109.555 80.1473 110.693 81.4734 110.693 81.9847Z" fill="#0FBD8C"/>
<path fill-rule="evenodd" clip-rule="evenodd" d="M120.266 82.7884C120.266 83.2997 119.128 83.7142 117.723 83.7142C116.319 83.7142 115.18 83.2997 115.18 82.7884C115.18 82.277 116.319 80.9506 117.723 80.9506C119.128 80.9506 120.266 82.277 120.266 82.7884Z" fill="#FF661A"/>
<path fill-rule="evenodd" clip-rule="evenodd" d="M58.641 27.0535C59.9278 25.1818 64.405 24.2201 68.1662 29.1007C72.8532 35.1832 72.5609 44.1898 75.4264 47.2897C78.2922 50.3895 71.3324 50.7404 68.8761 49.6291C66.4198 48.5178 60.1325 54.074 62.546 49.5998C63.1553 48.4708 70.8257 38.5947 64.6067 37.6688C59.5453 36.915 61.0391 31.6739 58.641 32.4343C56.243 33.1947 52.0322 26.3517 50.5699 33.0775" fill="#231F20"/>
<path fill-rule="evenodd" clip-rule="evenodd" d="M65.8152 43.7354C68.5318 46.3197 70.2897 39.8959 68.6386 38.2714C66.987 36.6472 65.8152 38.1237 65.8152 38.1237C65.8152 38.1237 66.9897 39.1016 66.522 42.0989C66.3805 43.0062 65.8152 43.7354 65.8152 43.7354Z" fill="#A57955"/>
<path d="M57.3131 38.9067C57.3131 38.9067 57.5665 41.1294 56.1822 41.948C54.691 42.8303 56.9815 44.2485 56.9815 44.2485" stroke="#A07552" stroke-width="0.5" stroke-linecap="round" stroke-linejoin="round"/>
<path fill-rule="evenodd" clip-rule="evenodd" d="M61.8201 40.8742C61.8201 41.2625 61.5818 41.5776 61.2883 41.5776C60.9949 41.5776 60.757 41.2625 60.757 40.8742C60.757 40.4859 60.9949 40.1709 61.2883 40.1709C61.5818 40.1709 61.8201 40.4859 61.8201 40.8742Z" fill="#231F20"/>
<path fill-rule="evenodd" clip-rule="evenodd" d="M54.3605 40.2219C54.3605 40.6102 54.1226 40.9252 53.8287 40.9252C53.5353 40.9252 53.2974 40.6102 53.2974 40.2219C53.2974 39.8336 53.5353 39.5186 53.8287 39.5186C54.1226 39.5186 54.3605 39.8336 54.3605 40.2219Z" fill="#231F20"/>
<path d="M57.3312 47.6407C57.3312 47.6407 59.8727 48.6544 60.7569 46.1981" stroke="#A07552" stroke-width="0.5" stroke-linecap="round" stroke-linejoin="round"/>
<path fill-rule="evenodd" clip-rule="evenodd" d="M34.1643 73.2134C34.1643 73.2134 24.9132 76.0426 21.0495 76.0426L18.4856 72.4333C21.7856 71.204 27.4031 66.7815 31.7947 66.6886C32.6303 65.927 35.7175 65.5345 36.1439 68.1951C36.5708 70.8558 35.5694 72.517 34.1643 73.2134Z" fill="#B5875C"/>
<path fill-rule="evenodd" clip-rule="evenodd" d="M2.11848 68.2145C-4.17381 58.6218 5.1794 37.1695 9.09521 32.7786C12.5587 28.8944 15.4515 25.3661 16.8848 26.4667C18.3185 27.5676 14.9622 29.3032 16.5435 30.4368C18.1249 31.5709 21.1635 25.0025 23.1659 26.8206C25.1267 28.601 19.7205 31.1791 21.1696 32.4948C21.9929 33.2421 18.037 36.2178 19.0905 37.2412C20.3857 38.4994 10.8069 48.5984 10.9908 59.7104L2.11848 68.2145Z" fill="#FF6680"/>
<path fill-rule="evenodd" clip-rule="evenodd" d="M1.08834 65.3774C0.778701 64.0498 2.34464 63.1764 3.46405 62.8528C4.37639 62.5891 4.40608 60.4895 6.09233 60.4791C7.47125 60.4706 7.52831 59.419 8.39708 58.482C9.54811 57.2408 10.9953 56.8043 10.9829 57.7043L10.9706 59.1861L5.14451 64.5021L2.11829 68.2143C2.11829 68.2143 1.32047 66.3726 1.08834 65.3774Z" fill="#FF3355"/>
<path fill-rule="evenodd" clip-rule="evenodd" d="M13.4988 67.1584L6.34005 74.2852C2.34095 69.8129 0.954708 66.8152 2.18093 65.2921C4.02026 63.0074 3.79815 65.085 4.93646 62.9014C6.07476 60.7185 6.8853 62.5057 7.5308 61.2915C8.17669 60.0776 11.211 56.99 10.9908 59.7105C10.7602 62.5605 11.5962 65.043 13.4988 67.1584Z" fill="white"/>
<path fill-rule="evenodd" clip-rule="evenodd" d="M17.8395 79.954C17.5137 80.2366 17.5384 80.7992 17.8951 81.2107C18.2518 81.6217 18.8055 81.7258 19.1313 81.4428C19.4572 81.1602 19.4325 80.5976 19.0758 80.1865C18.7191 79.7751 18.1658 79.6713 17.8395 79.954ZM10.2883 71.2116L14.0965 67.9077C14.1913 68.0165 14.4647 68.3315 14.917 68.8532C16.1525 70.2773 13.0411 72.4231 14.725 74.3647C16.409 76.3054 17.4867 75.9175 19.043 77.7117C19.9222 78.7247 21.2271 80.8386 19.7506 82.1219C18.2722 83.4021 16.3635 81.8118 15.4843 80.7981C13.928 79.0046 14.4644 77.9924 12.7804 76.0513C11.0965 74.1105 8.47438 76.7415 7.2389 75.3175C6.7862 74.7958 6.51281 74.4803 6.41833 74.3712L10.2883 71.2116Z" fill="#CC8B2A"/>
<path fill-rule="evenodd" clip-rule="evenodd" d="M14.6817 68.5082L7.06174 75.1186L5.8949 73.7736L13.5148 67.1632L14.6817 68.5082Z" fill="#E3AB23"/>
<path fill-rule="evenodd" clip-rule="evenodd" d="M10.9911 59.7108C10.8773 61.1206 11.0092 62.1733 11.1908 62.8018C9.53193 62.9272 9.42242 64.399 8.80777 65.2053C7.76239 66.5757 7.26226 66.2086 5.74723 67.34C4.40764 68.3403 4.35558 71.0696 4.27422 71.8053C1.53951 68.3279 1.36252 66.3081 2.18154 65.2924C4.02088 63.0066 3.79838 65.0846 4.9363 62.9013C6.0746 60.718 6.88553 62.5053 7.53142 61.2914C8.17769 60.0771 11.2112 56.9908 10.9911 59.7108Z" fill="#FF6680"/>
<path fill-rule="evenodd" clip-rule="evenodd" d="M17.0534 79.916C16.5637 79.004 15.8399 79.2519 14.9754 79.6437C13.3574 80.3767 13.6867 82.6025 15.7108 81.7375C16.7207 81.3057 17.4834 80.7165 17.0534 79.916Z" fill="#B5875C"/>
<path fill-rule="evenodd" clip-rule="evenodd" d="M13.9513 80.4424C14.6493 80.1343 15.1988 79.8636 15.6002 79.6307C16.2017 79.2801 17.0315 79.8088 16.5993 80.5854C16.167 81.362 15.2635 82.0731 14.5895 81.9053C14.1399 81.7935 13.9961 81.8992 14.1576 82.2215L16.4577 82.2879L17.2895 80.794L17.5494 79.675L16.0409 78.8386L14.9304 79.4548L13.7809 80.3479L13.9513 80.4424Z" fill="#A07552"/>
<path fill-rule="evenodd" clip-rule="evenodd" d="M13.8631 80.4401C15.7769 79.5771 16.4825 78.9655 16.0649 77.9683C15.5895 76.8327 14.3467 77.2461 12.8154 77.9379C10.897 78.8051 11.4978 81.507 13.8631 80.4401Z" fill="#B5875C"/>
<path fill-rule="evenodd" clip-rule="evenodd" d="M11.3812 78.8487C12.7836 78.4646 13.7476 78.1689 14.2732 77.9618C15.0618 77.6514 15.8206 78.3312 15.1639 79.3191C14.5069 80.3071 13.0512 81.0015 12.2337 80.5481C11.6885 80.2457 11.4853 80.5118 11.6237 81.347L14.8771 81.3775L16.0952 79.252L16.4935 77.6699L14.3819 76.5343L12.7936 77.4324L11.1421 78.7203L11.3812 78.8487Z" fill="#A07552"/>
<path fill-rule="evenodd" clip-rule="evenodd" d="M12.367 78.3893C14.3278 77.477 15.0605 76.8245 14.6722 75.7487C14.2303 74.5236 12.9616 74.9582 11.393 75.6897C9.39902 76.6194 9.91535 79.5303 12.367 78.3893Z" fill="#B5875C"/>
<path fill-rule="evenodd" clip-rule="evenodd" d="M9.97608 76.9622C11.0357 76.6672 11.8767 76.2658 12.4995 75.7579C13.4338 74.996 14.842 76.1254 14.0415 77.0127C13.241 77.9 11.4202 78.921 10.5159 78.353C9.91322 77.9748 9.90937 78.2563 10.5047 79.1983L13.7558 79.0583L14.8605 76.8727L15.1756 75.2717L13.0073 74.2483L11.468 75.2281L9.88623 76.6009L9.97608 76.9622Z" fill="#A07552"/>
<path fill-rule="evenodd" clip-rule="evenodd" d="M10.7056 76.555C12.1116 75.9284 12.6421 75.4565 12.3853 74.6208C12.0923 73.6696 11.1857 73.9557 10.0605 74.4585C8.63147 75.0967 8.94883 77.3378 10.7056 76.555Z" fill="#B5875C"/>
<path fill-rule="evenodd" clip-rule="evenodd" d="M10.8728 74.1308C11.6649 73.9291 12.3856 74.6101 11.9533 75.3867C11.521 76.1633 10.4926 76.8188 9.8186 76.6511C9.36938 76.5396 9.2668 76.6634 9.51166 77.0232L11.8118 77.0895L12.6435 75.5957L12.9034 74.4763L11.395 73.6399C10.5189 74.1018 10.345 74.2657 10.8728 74.1308Z" fill="#A07552"/>
<path fill-rule="evenodd" clip-rule="evenodd" d="M17.9507 76.7332C16.3346 76.8358 15.2333 75.1738 15.2333 75.1738C14.6422 74.3143 13.195 74.1612 12.5113 74.0262C10.8814 73.705 10.151 70.9815 11.0426 70.678C11.8431 70.4054 12.767 71.937 14.3962 72.3331C16.0917 72.6065 17.176 72.9211 19.3604 72.0635C21.4188 74.5657 20.4791 78.362 19.8794 78.9053C19.1873 77.8056 18.5445 77.0814 17.9507 76.7332Z" fill="#B5875C"/>
<path fill-rule="evenodd" clip-rule="evenodd" d="M10.8727 70.7477C10.747 72.0094 11.2564 72.8191 12.4005 73.1758C14.1175 73.711 15.016 73.3478 15.8335 74.232C16.6514 75.1162 17.9967 75.7131 18.4533 75.759C18.9094 75.8049 20.3335 74.9172 20.0335 73.3895C19.7335 71.8613 21.7286 76.1234 20.8722 77.6623C20.3011 78.688 19.8496 79.2036 19.5172 79.209L17.7345 77.5189L15.1367 75.6722L13.8229 74.5821L10.8075 73.6775L10.29 71.7942L10.8727 70.7477Z" fill="#A07552"/>
<path fill-rule="evenodd" clip-rule="evenodd" d="M1.70605 63.7693C2.53433 63.0266 1.36248 56.3232 3.67302 56.3232C4.81325 56.3232 3.04217 62.2145 4.2549 60.9416L4.15387 63.1828L1.70605 63.7693Z" fill="#FF3355"/>
<path fill-rule="evenodd" clip-rule="evenodd" d="M4.2551 60.9418C4.77836 60.2562 4.66731 55.7678 6.41834 56.163C7.28749 56.3593 5.85458 60.0133 6.9443 59.7033C7.47605 59.5521 7.95304 59.0531 8.39687 58.4821C8.8407 57.911 8.68569 58.924 7.90484 59.785C7.30445 60.4479 4.99314 62.0038 4.17759 62.1195C3.93312 62.1545 4.2551 60.9418 4.2551 60.9418Z" fill="#FF3355"/>
<path fill-rule="evenodd" clip-rule="evenodd" d="M20.2089 22.7862C19.054 21.6271 16.8742 24.2415 17.7935 25.0783C19.1496 26.3126 21.6102 24.1922 20.2089 22.7862Z" fill="#ED5F87"/>
<path fill-rule="evenodd" clip-rule="evenodd" d="M52.3733 42.1233C52.3733 42.2525 52.2688 42.3574 52.1396 42.3574C52.0104 42.3574 51.9055 42.2525 51.9055 42.1233C51.9055 41.9941 52.0104 41.8896 52.1396 41.8896C52.2688 41.8896 52.3733 41.9941 52.3733 42.1233Z" fill="#A07552"/>
<path fill-rule="evenodd" clip-rule="evenodd" d="M54.0628 42.3574C54.0628 42.4865 53.9583 42.591 53.8288 42.591C53.6996 42.591 53.5951 42.4865 53.5951 42.3574C53.5951 42.2282 53.6996 42.1233 53.8288 42.1233C53.9583 42.1233 54.0628 42.2282 54.0628 42.3574Z" fill="#A07552"/>
<path fill-rule="evenodd" clip-rule="evenodd" d="M53.1532 43.4879C53.1532 43.6171 53.0487 43.722 52.9191 43.722C52.7899 43.722 52.6854 43.6171 52.6854 43.4879C52.6854 43.3588 52.7899 43.2543 52.9191 43.2543C53.0487 43.2543 53.1532 43.3588 53.1532 43.4879Z" fill="#A07552"/>
<path fill-rule="evenodd" clip-rule="evenodd" d="M59.9715 43.722C59.9715 43.8512 59.867 43.9557 59.7378 43.9557C59.6087 43.9557 59.5038 43.8512 59.5038 43.722C59.5038 43.5928 59.6087 43.4879 59.7378 43.4879C59.867 43.4879 59.9715 43.5928 59.9715 43.722Z" fill="#A07552"/>
<path fill-rule="evenodd" clip-rule="evenodd" d="M61.4271 42.8252C61.4271 42.9544 61.3222 43.0589 61.193 43.0589C61.0638 43.0589 60.9594 42.9544 60.9594 42.8252C60.9594 42.6961 61.0638 42.5912 61.193 42.5912C61.3222 42.5912 61.4271 42.6961 61.4271 42.8252Z" fill="#A07552"/>
<path fill-rule="evenodd" clip-rule="evenodd" d="M61.661 44.1068C61.661 44.236 61.5565 44.3409 61.4273 44.3409C61.2977 44.3409 61.1932 44.236 61.1932 44.1068C61.1932 43.9777 61.2977 43.8732 61.4273 43.8732C61.5565 43.8732 61.661 43.9777 61.661 44.1068Z" fill="#A07552"/>
<path fill-rule="evenodd" clip-rule="evenodd" d="M63.3689 42.9373C63.3689 43.0665 63.264 43.171 63.1348 43.171C63.0056 43.171 62.9011 43.0665 62.9011 42.9373C62.9011 42.8081 63.0056 42.7032 63.1348 42.7032C63.264 42.7032 63.3689 42.8081 63.3689 42.9373Z" fill="#A07552"/>
<path fill-rule="evenodd" clip-rule="evenodd" d="M95.1756 85.3807C95.5361 85.1756 97.1738 85.0772 98.7663 84.6026C99.7527 84.3087 100.01 85.0919 100.69 85.8916C100.906 86.145 100.741 86.5375 100.409 86.5414C99.6316 86.5506 98.5758 86.4207 98.2315 86.2152C98.0703 86.6073 97.6068 86.7993 96.6945 86.622C94.5713 86.209 94.7082 85.6464 95.1756 85.3807Z" fill="#B5875C"/>
<path fill-rule="evenodd" clip-rule="evenodd" d="M49.3419 94.6848C52.8393 96.5037 57.3012 94.2337 58.3955 96.3865C60.1697 99.8762 52.7607 99.3213 52.4302 104.399C52.0596 110.092 54.75 112.431 51.553 113.582C49.1221 114.456 47.2889 111.424 47.2889 111.424L49.3419 94.6848Z" fill="#4D97FF"/>
<path fill-rule="evenodd" clip-rule="evenodd" d="M57.8694 107.148C55.7385 107.394 55.764 109.546 57.1089 110.306C58.4543 111.067 59.3902 106.973 57.8694 107.148Z" fill="#4D97FF"/>
<path fill-rule="evenodd" clip-rule="evenodd" d="M64.4291 40.5473L64.2428 41.1358C63.8198 42.4723 62.4432 43.2593 61.0736 42.9469C59.8119 42.6608 58.8274 41.669 58.5509 40.4012L58.4472 39.9257C58.2656 39.0975 58.8833 38.3062 59.7301 38.2842L60.0378 38.2777C60.4404 38.2676 60.8468 38.2834 61.2479 38.3239C62.0553 38.4061 62.8527 38.5912 63.6178 38.8773C64.291 39.1291 64.647 39.864 64.4291 40.5473ZM56.4621 39.7248L56.2655 40.1698C55.7403 41.3567 54.5773 42.1306 53.2805 42.1576C51.8796 42.1896 50.6885 41.1423 50.5389 39.748L50.4745 39.1341C50.4012 38.4215 50.8971 37.7725 51.6074 37.6611C52.414 37.5342 53.2323 37.5122 54.0401 37.5944C54.4408 37.6349 54.8422 37.7008 55.2347 37.7914L55.5317 37.8593C56.3599 38.0505 56.8065 38.9498 56.4621 39.7248ZM65.4255 38.8264L63.7909 38.2275C62.4182 37.7278 60.9413 37.5689 59.4945 37.7702C59.0808 37.8265 58.6508 37.9156 58.2374 37.8739C58.1407 37.8643 58.0416 37.8446 57.9459 37.8188L57.9212 37.8134C57.8387 37.786 57.752 37.7679 57.6644 37.759C57.5765 37.7502 57.4878 37.7505 57.4015 37.7606L57.376 37.7613C56.8601 37.7976 56.3572 37.5759 55.8687 37.4031C55.1973 37.1644 54.4982 37.0079 53.7907 36.9365C53.0545 36.8617 52.3065 36.881 51.5646 36.9894L49.8463 37.2485C49.6601 37.2739 49.5116 37.4266 49.4923 37.6175L49.414 38.391C49.3959 38.5726 49.4989 38.7412 49.6624 38.8148C49.7804 38.8646 49.8617 38.9679 49.8872 39.0936L50.1644 40.5072C50.3445 41.4172 50.9993 42.1669 51.8784 42.4491C52.4237 42.6242 52.7997 42.6909 53.3904 42.7002C55.4873 42.7322 56.4945 40.9996 56.8427 40.2188C56.9696 39.9342 57.1203 39.6616 57.3039 39.4083C57.3556 39.3377 57.4311 39.3103 57.5063 39.318C57.5815 39.3257 57.6498 39.3674 57.686 39.4468C57.8121 39.7318 57.9085 40.0295 57.976 40.3333C58.1603 41.1681 58.7997 43.0676 60.8607 43.4567C61.441 43.5658 61.8197 43.5759 62.3889 43.5134C63.3101 43.4135 64.1017 42.8108 64.4572 41.9544L65.0156 40.626C65.0626 40.5072 65.166 40.4228 65.2886 40.3973C65.4667 40.3584 65.5982 40.2134 65.6167 40.0318L65.695 39.2586C65.7143 39.0674 65.6029 38.8885 65.4255 38.8264Z" fill="#9966FF"/>
<path opacity="0.25" fill-rule="evenodd" clip-rule="evenodd" d="M56.4622 39.7247L56.2655 40.1697C55.7403 41.3566 54.577 42.1305 53.2806 42.1575C51.8793 42.1895 50.6885 41.1422 50.5385 39.7483L50.4745 39.1344C50.4009 38.4214 50.8968 37.7728 51.6074 37.661C52.4141 37.5341 53.2324 37.5125 54.0402 37.5943C54.4409 37.6348 54.8423 37.7007 55.2348 37.7913L55.5313 37.8592C56.3596 38.0504 56.8065 38.9497 56.4622 39.7247Z" fill="white"/>
<path opacity="0.25" fill-rule="evenodd" clip-rule="evenodd" d="M64.4291 40.5474L64.2429 41.1358C63.8199 42.4723 62.4433 43.2593 61.0736 42.947C59.8119 42.6609 58.8275 41.6691 58.551 40.4012L58.4472 39.9258C58.2656 39.0975 58.8834 38.3062 59.7302 38.2843L60.0379 38.2777C60.4404 38.2677 60.8469 38.2835 61.2479 38.324C62.0553 38.4061 62.8528 38.5912 63.6178 38.8773C64.2911 39.1291 64.647 39.8641 64.4291 40.5474Z" fill="white"/>
<path fill-rule="evenodd" clip-rule="evenodd" d="M50.0374 37.7615C50.0297 37.8344 49.9649 37.8876 49.8921 37.8803C49.8192 37.873 49.7656 37.8078 49.7733 37.7349C49.7806 37.6617 49.8458 37.6088 49.9187 37.6162C49.9915 37.6235 50.0448 37.6886 50.0374 37.7615Z" fill="white"/>
<path fill-rule="evenodd" clip-rule="evenodd" d="M49.9828 38.2996C49.9755 38.3725 49.9103 38.4257 49.8375 38.4184C49.7646 38.4111 49.7114 38.3459 49.7187 38.273C49.726 38.1997 49.7912 38.1469 49.8641 38.1542C49.9369 38.1616 49.9902 38.2267 49.9828 38.2996Z" fill="white"/>
<path fill-rule="evenodd" clip-rule="evenodd" d="M65.4328 39.3206C65.4255 39.3935 65.3603 39.4467 65.2874 39.4394C65.2145 39.432 65.1613 39.3669 65.1686 39.294C65.176 39.2211 65.2411 39.1679 65.314 39.1752C65.3869 39.1826 65.4401 39.2477 65.4328 39.3206Z" fill="white"/>
<path fill-rule="evenodd" clip-rule="evenodd" d="M65.3784 39.8587C65.3707 39.9316 65.3059 39.9848 65.233 39.9775C65.1601 39.9701 65.1065 39.905 65.1142 39.8321C65.1216 39.7592 65.1867 39.706 65.2596 39.7133C65.3325 39.7206 65.3857 39.7858 65.3784 39.8587Z" fill="white"/>
<path opacity="0.25" fill-rule="evenodd" clip-rule="evenodd" d="M56.3097 39.8397L56.1223 40.2638C55.6218 41.3948 54.5128 42.1329 53.2773 42.1583C51.9416 42.1888 50.8068 41.1904 50.6641 39.8616L50.6028 39.2767C50.533 38.5972 51.0053 37.9791 51.6825 37.8727C52.4514 37.7516 53.2314 37.7312 54.0011 37.8091C54.3832 37.8476 54.7658 37.9109 55.1398 37.9969L55.4228 38.0616C56.2122 38.244 56.6379 39.1008 56.3097 39.8397Z" fill="white"/>
<path opacity="0.25" fill-rule="evenodd" clip-rule="evenodd" d="M64.281 40.6568L64.1032 41.2186C63.6991 42.495 62.3846 43.2465 61.0766 42.9481C59.872 42.6751 58.9319 41.728 58.6677 40.5172L58.569 40.063C58.3951 39.2725 58.9851 38.5167 59.7937 38.4959L60.0875 38.4889C60.472 38.4797 60.8603 38.4951 61.2428 38.5337C62.0144 38.6119 62.7756 38.7886 63.5063 39.0619C64.1495 39.3022 64.4892 40.0044 64.281 40.6568Z" fill="white"/>
<path fill-rule="evenodd" clip-rule="evenodd" d="M81.8901 100.511C77.0546 104.477 76.3582 108.584 78.848 108.772C80.6288 108.906 84.1998 107.307 84.7416 107.142L81.8901 100.511Z" fill="#FF661A"/>
<path fill-rule="evenodd" clip-rule="evenodd" d="M85.0463 107.859C82.2345 108.09 80.8429 112.554 83.3381 112.47C85.8337 112.387 86.1815 110.583 86.1815 110.583L85.0463 107.859Z" fill="#FF661A"/>
<path fill-rule="evenodd" clip-rule="evenodd" d="M68.7359 117.628C68.0476 118.729 65.9869 117.394 65.3241 118.954C64.6616 120.513 68.9892 119.851 69.7304 120.552C70.4711 121.254 68.3264 123.594 69.4574 124.256C70.588 124.919 71.3873 122.755 72.713 122.716C74.0387 122.677 75.3355 126.234 76.4364 125.075C77.9183 123.516 75.8322 120.747 75.8322 119.734C75.8322 118.72 79.8209 118.903 79.0446 116.731C78.5414 115.323 75.9687 116.77 75.3837 115.873C74.7991 114.977 75.0718 112.676 73.9412 112.481C72.8102 112.286 72.9999 115.035 71.9916 114.996C70.9836 114.957 70.2563 113.924 69.2036 114.509C68.1509 115.094 69.3209 116.692 68.7359 117.628Z" fill="#FFBF00"/>
<path fill-rule="evenodd" clip-rule="evenodd" d="M221.655 87.1796L217.073 80.8437C216.869 80.6825 216.91 79.8774 217.516 79.5088C218.376 78.9863 218.696 79.2731 218.847 79.4405L222.381 86.6282L221.655 87.1796Z" fill="#404041"/>
<path d="M248.037 92.5618L271.322 158.007" stroke="#939598" stroke-width="1.54242" stroke-linecap="round" stroke-linejoin="round"/>
<path d="M245.724 91.8445L250.064 138.567" stroke="#939598" stroke-width="1.54242" stroke-linecap="round" stroke-linejoin="round"/>
<path fill-rule="evenodd" clip-rule="evenodd" d="M246.985 90.9561H244.463C244.27 90.9561 244.114 90.7995 244.114 90.6067V81.6942C244.114 81.501 244.27 81.3445 244.463 81.3445H246.985C247.178 81.3445 247.334 81.501 247.334 81.6942V90.6067C247.334 90.7995 247.178 90.9561 246.985 90.9561Z" fill="#D1D3D4"/>
<path fill-rule="evenodd" clip-rule="evenodd" d="M250.599 90.8492C251.238 92.2887 248.416 93.9672 245.724 93.9672C243.032 93.9672 241.777 92.6681 240.849 90.8492C240.23 89.6342 243.237 88.6971 245.929 88.6971C248.622 88.6971 250.037 89.5844 250.599 90.8492Z" fill="#D1D3D4"/>
<path fill-rule="evenodd" clip-rule="evenodd" d="M225.108 89.7353C226.514 91.6194 226.947 93.6596 226.081 94.2889C225.22 94.914 223.401 93.9083 222.011 92.0462C220.622 90.1842 220.176 88.1532 221.021 87.5065C221.871 86.8552 223.703 87.8516 225.108 89.7353Z" fill="#404041"/>
<path fill-rule="evenodd" clip-rule="evenodd" d="M239.852 84.1952L226.081 94.2888L221.021 87.5064L234.618 77.1807L239.852 84.1952Z" fill="#404041"/>
<path fill-rule="evenodd" clip-rule="evenodd" d="M232.492 84.2261C234.146 86.443 234.637 88.8549 233.596 89.6084C232.563 90.3561 230.408 89.1854 228.776 86.9986C227.145 84.8119 226.636 82.413 227.648 81.6353C228.666 80.8517 230.839 82.0093 232.492 84.2261Z" fill="#D1D3D4"/>
<path fill-rule="evenodd" clip-rule="evenodd" d="M247.761 79.292L233.596 89.6085L227.648 81.6353L241.571 70.9954L247.761 79.292Z" fill="#D1D3D4"/>
<path fill-rule="evenodd" clip-rule="evenodd" d="M242.069 77.0808C244.567 80.4286 245.273 84.0834 243.663 85.2321C242.071 86.3677 238.808 84.6201 236.361 81.3398C233.914 78.0595 233.167 74.4352 234.71 73.2321C236.269 72.0151 239.571 73.7326 242.069 77.0808Z" fill="#404041"/>
<path fill-rule="evenodd" clip-rule="evenodd" d="M261.39 72.5879L243.663 85.2319L234.71 73.2319L251.878 59.8395L261.39 72.5879Z" fill="#404041"/>
<path fill-rule="evenodd" clip-rule="evenodd" d="M262.147 62.1008C265.382 66.4373 266.172 71.2481 263.94 72.8248C261.74 74.3784 257.426 72.1982 254.275 67.9743C251.124 63.7504 250.262 58.9936 252.378 57.3278C254.525 55.6377 258.911 57.7643 262.147 62.1008Z" fill="#BCBEC0"/>
<path fill-rule="evenodd" clip-rule="evenodd" d="M269.982 68.5558L263.94 72.8245L252.378 57.3278L258.19 52.7518L269.982 68.5558Z" fill="#BCBEC0"/>
<path fill-rule="evenodd" clip-rule="evenodd" d="M268.235 57.5584C271.536 61.982 272.303 66.9158 269.982 68.5558C267.695 70.1719 263.26 67.9735 260.047 63.6671C256.835 59.3607 255.99 54.4839 258.19 52.7518C260.424 50.9935 264.935 53.1347 268.235 57.5584Z" fill="#D1D3D4"/>
<path fill-rule="evenodd" clip-rule="evenodd" d="M267.001 58.4787C269.309 61.5717 270.2 64.7826 267.608 66.6439C266.351 67.5466 263.504 65.8129 261.24 62.7775C258.975 59.7424 258.124 56.5191 259.347 55.5713C261.843 53.6375 264.694 55.3858 267.001 58.4787Z" fill="#E6F1FF"/>
<path d="M243.506 91.8445L215.972 163.951" stroke="#939598" stroke-width="1.54242" stroke-linecap="round" stroke-linejoin="round"/>
<path fill-rule="evenodd" clip-rule="evenodd" d="M211.086 74.1552C211.4 73.9243 211.479 73.4827 211.242 73.1743C210.834 72.6448 210.011 72.1011 208.483 72.838C206.618 73.738 206.674 77.0349 208.267 78.0822C208.691 78.3599 209.257 78.0699 209.32 77.5674C209.373 77.139 209.483 76.5691 209.708 75.9113C209.991 75.0811 210.631 74.4895 211.086 74.1552Z" fill="#E8B182"/>
<path fill-rule="evenodd" clip-rule="evenodd" d="M182.763 42.5478C181.265 59.4866 162.079 72.8088 157.212 72.8088C152.346 72.8088 133.157 59.4866 131.662 42.5478C131.619 41.9952 131.575 41.4426 131.575 40.8901C131.575 32.6767 138.283 25.9961 146.532 25.9961C150.718 25.9961 154.522 27.6966 157.212 30.5061C159.903 27.6966 163.707 25.9961 167.893 25.9961C176.139 25.9961 182.846 32.6767 182.846 40.8901C182.846 41.4426 182.803 41.9952 182.763 42.5478Z" fill="#FF6680"/>
<path fill-rule="evenodd" clip-rule="evenodd" d="M148.491 26.1219C143.325 25.2111 133.958 25.6997 134.151 27.9424C134.256 29.1682 136.952 27.5047 137.162 27.9948C137.714 29.2827 131.419 32.4771 131.034 34.1059C130.49 36.4048 133.334 33.1584 132.411 35.9783C131.489 38.7983 148.491 26.1219 148.491 26.1219Z" fill="#FF6680"/>
<path fill-rule="evenodd" clip-rule="evenodd" d="M132.435 29.1331C131.661 29.3695 131.787 30.4638 132.435 30.4461C133.082 30.4287 133.366 30.2868 133.415 29.6409C133.461 29.0421 133.065 28.9403 132.435 29.1331Z" fill="#FF6680"/>
<path fill-rule="evenodd" clip-rule="evenodd" d="M133.419 54.4685C135.082 57.4662 137.617 60.5614 138.51 61.8219C139.403 63.0829 138.353 63.6605 136.987 61.8219C135.621 59.9838 133.153 56.6745 132.365 55.0461C131.577 53.4177 132.811 53.373 133.419 54.4685Z" fill="#FF6680"/>
<path fill-rule="evenodd" clip-rule="evenodd" d="M180.469 51.1779C181.682 47.9535 184.476 44.8559 184.471 37.9752C184.47 36.3225 183.771 35.8567 183.648 36.6271C183.591 36.983 183.112 38.4267 182.846 38.3955C182.01 38.2964 182.79 32.8798 181.792 31.8819C180.794 30.8839 181.314 34.0154 180.469 32.8393C179.624 31.6636 178.378 36.3873 178.378 36.3873L180.469 51.1779Z" fill="#FF6680"/>
<path fill-rule="evenodd" clip-rule="evenodd" d="M203.37 82.3602C203.37 82.3602 197.382 81.835 194.477 86.9554C199.168 81.7297 200.218 87.2415 206.136 91.8445C209.922 94.789 203.37 82.3602 203.37 82.3602Z" fill="#FFBF00"/>
<path fill-rule="evenodd" clip-rule="evenodd" d="M202.54 83.1947C202.54 83.1947 203.825 98.1531 201.584 107.783C201.584 107.783 205.346 109.383 208.112 108.473L209.228 89.9956C209.228 89.9956 205.914 83.9941 202.54 83.1947Z" fill="#FFBF00"/>
<path fill-rule="evenodd" clip-rule="evenodd" d="M207.782 77.7379C207.782 77.7379 209.927 85.8595 213.418 77.6719C220.593 76.0809 221.801 70.7908 221.801 70.7908C221.801 70.7908 223.601 75.3348 226.114 75.8272C226.114 75.8272 227.847 68.2829 221.502 67.8965C215.679 67.5417 207.782 77.7379 207.782 77.7379Z" fill="#231F20"/>
<path fill-rule="evenodd" clip-rule="evenodd" d="M211.057 87.8192C209.56 83.1947 209.911 70.7297 218.462 69.0866C228.443 67.1694 225.625 77.8575 225.625 77.8575C225.625 77.8575 230.436 65.3941 218.611 62.9381C210.782 61.312 206.908 65.4423 204.49 70.9953C200.341 80.5275 204.032 84.4001 204.032 84.4001L207.292 85.7347L211.057 87.8192Z" fill="#FFBF00"/>
<path fill-rule="evenodd" clip-rule="evenodd" d="M225.25 79.1071C225.331 78.7678 227.81 68.4606 218.324 70.3462C212.023 71.5994 210.161 79.5236 210.547 85.1187C209.741 79.539 211.43 70.4349 218.463 69.0852C228.281 67.1996 225.712 77.5103 225.628 77.85C225.678 77.7613 225.311 78.9872 225.25 79.1071Z" fill="#231F20"/>
<path fill-rule="evenodd" clip-rule="evenodd" d="M201.58 104.81C205.738 105.824 207.026 107.227 206.926 109.828C208.115 105.792 208.673 104.001 208.673 104.001C208.673 104.001 211.574 95.8627 211.378 94.9249C211.183 93.9864 210.051 95.8994 206.343 96.29C202.766 96.6663 200.173 94.3766 198.617 92.8068C195.803 89.9688 191.454 97.5208 191.454 97.5208C193.265 100.428 197.777 103.881 201.58 104.81Z" fill="#231F20" fill-opacity="0.25"/>
<path fill-rule="evenodd" clip-rule="evenodd" d="M217.879 89.2785C217.879 89.2785 212.91 92.0248 210.303 86.4767C208.891 83.4702 202.996 82.7337 201.421 82.8528C201.421 82.8528 207.327 86.2122 207.432 91.9897C207.537 97.768 219.969 93.8371 217.879 89.2785Z" fill="#FFBF00"/>
<path fill-rule="evenodd" clip-rule="evenodd" d="M191.704 90.6894C186.862 97.3026 196.594 103.62 205.361 104.208C209.981 104.518 217.241 101.989 219.343 98.4756C221.291 95.2203 215.411 93.2946 213.838 93.9671C211.737 94.8659 211.828 96.9092 205.679 96.9092C200.627 96.9092 199.255 93.7508 196.812 89.9954" fill="#4D97FF"/>
<path fill-rule="evenodd" clip-rule="evenodd" d="M219.356 95.6444C220.219 93.7465 220.433 92.8565 221.228 92.0271C222.823 90.364 221.508 90.0828 220.867 90.5587C219.777 91.3661 219.764 92.7177 219.274 92.7358C218.315 92.7709 218.579 92.5553 218.562 91.8096C218.541 90.9065 218.841 90.0096 219.105 89.7994C219.903 89.1636 220.142 89.3201 220.667 88.6557C221.133 88.0673 220.731 87.1947 219.938 87.9489C219.502 88.3638 219.119 88.1394 218.407 88.783C217.624 89.4906 216.848 90.3181 216.829 90.4827C216.793 90.8116 216.069 91.6496 215.332 91.9862C214.746 92.2534 214.211 92.0641 213.978 92.3194C213.397 92.9579 214.212 94.569 213.762 95.6822C212.681 98.3575 217.746 99.185 219.356 95.6444Z" fill="#ECC293"/>
<path fill-rule="evenodd" clip-rule="evenodd" d="M216.179 90.2546C216.37 90.0344 217.008 89.8181 217.4 90.1108C217.704 90.3387 218.532 91.9987 219.122 92.7302C219.976 93.7875 218.113 93.8558 217.665 92.8582C217.41 92.2898 217.056 91.3598 216.576 91.3852C216.096 91.4107 215.721 90.7841 216.179 90.2546Z" fill="#E8B182"/>
<path fill-rule="evenodd" clip-rule="evenodd" d="M213.978 92.3193C214.14 92.1315 214.683 91.5041 215.017 91.7536C215.276 91.948 216.541 93.5663 216.605 94.3811C216.649 94.9453 215.958 95.0918 215.453 95.3097C214.798 95.5919 214.467 95.0058 215.326 94.2998C214.77 93.5868 214.726 93.2617 214.317 93.2837C213.907 93.3053 213.588 92.7708 213.978 92.3193Z" fill="#E8B182"/>
<path fill-rule="evenodd" clip-rule="evenodd" d="M214.937 91.2152C215.099 91.0278 215.638 90.506 215.972 90.7559C216.231 90.9503 218.038 93.1089 218.102 93.9233C218.146 94.4874 217.455 94.6343 216.949 94.8522C216.295 95.1345 215.963 94.5483 216.823 93.8419C216.266 93.1293 215.684 92.158 215.275 92.1796C214.866 92.2015 214.546 91.6671 214.937 91.2152Z" fill="#E8B182"/>
<path fill-rule="evenodd" clip-rule="evenodd" d="M222.323 89.3802C222.424 89.927 222.062 90.4522 221.516 90.5532C220.969 90.6546 220.444 90.2929 220.343 89.7461C220.242 89.1993 220.603 88.6742 221.15 88.5727C221.696 88.4721 222.222 88.833 222.323 89.3802Z" fill="#D1D3D4"/>
<path fill-rule="evenodd" clip-rule="evenodd" d="M221.573 90.5403L220.985 90.6491L220.62 88.6721L221.208 88.5634L221.573 90.5403Z" fill="#D1D3D4"/>
<path fill-rule="evenodd" clip-rule="evenodd" d="M221.833 89.4706C221.934 90.0174 221.573 90.5426 221.026 90.6436C220.479 90.745 219.954 90.3833 219.853 89.8366C219.752 89.2898 220.114 88.7646 220.66 88.6635C221.207 88.5625 221.732 88.9238 221.833 89.4706Z" fill="#BCBEC0"/>
<path fill-rule="evenodd" clip-rule="evenodd" d="M142.957 107.035C142.957 107.035 142.039 105.214 140.568 106.838C139.096 108.463 140.662 114.887 143.083 112.302" fill="#60412C"/>
<path fill-rule="evenodd" clip-rule="evenodd" d="M160.054 108.812C160.054 108.812 161.227 107.335 162.878 108.959C164.529 110.584 162.771 117.007 160.054 114.423" fill="#60412C"/>
<path fill-rule="evenodd" clip-rule="evenodd" d="M111.997 178.657C109.358 176.104 134.054 157.748 139.635 150.41C139.635 150.41 147.099 151.959 152.606 151.736C157.528 151.537 161.583 149.817 161.583 149.817C166.829 157.057 181.718 167.799 184.54 180.207L181.055 183.798C179.57 184.484 177.536 184.975 176.064 181.894C175.156 179.992 171.809 174.418 167.666 170.742C161.948 165.67 154.902 162.538 152.364 162.543C149.583 162.549 140.335 164.046 132.574 169.288C128.119 172.296 124.191 178.823 122.164 181.19C120.874 182.697 119.37 184.06 117.008 181.917L111.997 178.657Z" fill="#4D97FF"/>
<path fill-rule="evenodd" clip-rule="evenodd" d="M138.392 147.848C138.206 148.685 137.911 150.357 138.766 150.41C141.908 150.606 146.842 155.185 153.704 154.347C159.548 153.633 161.631 149.831 165.523 150.167C166.325 150.236 165.619 148.292 165.512 147.494C164.98 143.544 161.126 132.474 161.981 131.188C162.733 130.056 167.234 126.837 163.518 144.465C161.029 156.27 169.417 150.993 170.692 147.468C174.185 137.811 175.537 133.802 170.692 126.343C167.416 121.297 157.137 120.941 155.15 119.302C153.162 117.662 147.273 119.302 147.273 119.302C139.749 119.138 129.298 119.948 124.301 124.079C120.76 127.007 119.075 129.962 123.756 139.32C126.173 144.149 131.23 142.828 131.951 138.792C132.671 134.756 126.777 135.69 130.115 131.622C131.652 129.749 138.135 124.877 140.556 126.481C141.716 127.25 139.216 144.138 138.392 147.848Z" fill="#414042"/>
<path fill-rule="evenodd" clip-rule="evenodd" d="M115.819 165.184V167.606C115.819 168.528 116.594 169.274 117.55 169.274H187.663C188.619 169.274 189.395 168.528 189.395 167.606V165.184H115.819Z" fill="#4E5568"/>
<path fill-rule="evenodd" clip-rule="evenodd" d="M125.669 156.281L115.819 165.184H189.394L179.544 156.281H125.669Z" fill="#575E75"/>
<path fill-rule="evenodd" clip-rule="evenodd" d="M151.959 163.036H148.389C148.145 163.036 147.956 162.809 147.987 162.551L148.694 156.656C148.719 156.442 148.891 156.28 149.096 156.28H151.959C152.182 156.28 152.364 156.473 152.364 156.711V162.606C152.364 162.843 152.182 163.036 151.959 163.036Z" fill="white"/>
<path fill-rule="evenodd" clip-rule="evenodd" d="M151.959 163.036H148.389C148.145 163.036 147.956 162.809 147.987 162.551L148.694 156.656C148.719 156.442 148.891 156.28 149.096 156.28H151.959C152.182 156.28 152.364 156.473 152.364 156.711V162.606C152.364 162.843 152.182 163.036 151.959 163.036Z" stroke="#575E75" stroke-width="0.5" stroke-linecap="round"/>
<path fill-rule="evenodd" clip-rule="evenodd" d="M147.453 163.036H143.989C143.725 163.036 143.538 162.767 143.608 162.509L145.182 156.613C145.216 156.422 145.376 156.28 145.563 156.28H148.32C148.565 156.28 148.747 156.516 148.707 156.76L147.84 162.655C147.827 162.867 147.658 163.036 147.453 163.036Z" fill="white"/>
<path fill-rule="evenodd" clip-rule="evenodd" d="M147.453 163.036H143.989C143.725 163.036 143.538 162.767 143.608 162.509L145.182 156.613C145.216 156.422 145.376 156.28 145.563 156.28H148.32C148.565 156.28 148.747 156.516 148.707 156.76L147.84 162.655C147.827 162.867 147.658 163.036 147.453 163.036Z" stroke="#575E75" stroke-width="0.5" stroke-linecap="round"/>
<path fill-rule="evenodd" clip-rule="evenodd" d="M142.947 163.036H139.59C139.305 163.036 139.12 162.725 139.229 162.465L141.67 156.57C141.712 156.402 141.86 156.28 142.031 156.28H144.681C144.948 156.28 145.13 156.559 145.049 156.809L143.316 162.704C143.29 162.891 143.134 163.036 142.947 163.036Z" fill="white"/>
<path fill-rule="evenodd" clip-rule="evenodd" d="M142.947 163.036H139.59C139.305 163.036 139.12 162.725 139.229 162.465L141.67 156.57C141.712 156.402 141.86 156.28 142.031 156.28H144.681C144.948 156.28 145.13 156.559 145.049 156.809L143.316 162.704C143.29 162.891 143.134 163.036 142.947 163.036Z" stroke="#575E75" stroke-width="0.5" stroke-linecap="round"/>
<path fill-rule="evenodd" clip-rule="evenodd" d="M138.442 163.036H135.19C134.885 163.036 134.702 162.684 134.85 162.422L138.158 156.527C138.209 156.382 138.344 156.28 138.498 156.28H141.042C141.331 156.28 141.514 156.601 141.393 156.858L138.792 162.753C138.754 162.915 138.61 163.036 138.442 163.036Z" fill="white"/>
<path fill-rule="evenodd" clip-rule="evenodd" d="M138.442 163.036H135.19C134.885 163.036 134.702 162.684 134.85 162.422L138.158 156.527C138.209 156.382 138.344 156.28 138.498 156.28H141.042C141.331 156.28 141.514 156.601 141.393 156.858L138.792 162.753C138.754 162.915 138.61 163.036 138.442 163.036Z" stroke="#575E75" stroke-width="0.5" stroke-linecap="round"/>
<path fill-rule="evenodd" clip-rule="evenodd" d="M133.936 163.036H130.791C130.465 163.036 130.283 162.642 130.472 162.379L134.646 156.484C134.705 156.362 134.829 156.28 134.965 156.28H137.403C137.714 156.28 137.897 156.644 137.736 156.907L134.268 162.802C134.217 162.939 134.085 163.036 133.936 163.036Z" fill="white"/>
<path fill-rule="evenodd" clip-rule="evenodd" d="M133.936 163.036H130.791C130.465 163.036 130.283 162.642 130.472 162.379L134.646 156.484C134.705 156.362 134.829 156.28 134.965 156.28H137.403C137.714 156.28 137.897 156.644 137.736 156.907L134.268 162.802C134.217 162.939 134.085 163.036 133.936 163.036Z" stroke="#575E75" stroke-width="0.5" stroke-linecap="round"/>
<path fill-rule="evenodd" clip-rule="evenodd" d="M129.43 163.036H126.391C126.045 163.036 125.865 162.601 126.093 162.336L131.134 156.44C131.201 156.342 131.313 156.28 131.433 156.28H133.765C134.097 156.28 134.28 156.687 134.078 156.956L129.744 162.851C129.68 162.963 129.561 163.036 129.43 163.036Z" fill="white"/>
<path fill-rule="evenodd" clip-rule="evenodd" d="M129.43 163.036H126.391C126.045 163.036 125.865 162.601 126.093 162.336L131.134 156.44C131.201 156.342 131.313 156.28 131.433 156.28H133.765C134.097 156.28 134.28 156.687 134.078 156.956L129.744 162.851C129.68 162.963 129.561 163.036 129.43 163.036Z" stroke="#575E75" stroke-width="0.5" stroke-linecap="round"/>
<path fill-rule="evenodd" clip-rule="evenodd" d="M124.924 163.036H121.992C121.625 163.036 121.447 162.56 121.714 162.293L127.623 156.397C127.698 156.322 127.797 156.28 127.9 156.28H130.125C130.48 156.28 130.663 156.73 130.421 157.005L125.22 162.9C125.143 162.987 125.037 163.036 124.924 163.036Z" fill="white"/>
<path fill-rule="evenodd" clip-rule="evenodd" d="M124.924 163.036H121.992C121.625 163.036 121.447 162.56 121.714 162.293L127.623 156.397C127.698 156.322 127.797 156.28 127.9 156.28H130.125C130.48 156.28 130.663 156.73 130.421 157.005L125.22 162.9C125.143 162.987 125.037 163.036 124.924 163.036Z" stroke="#575E75" stroke-width="0.5" stroke-linecap="round"/>
<path fill-rule="evenodd" clip-rule="evenodd" d="M152.769 163.036H156.339C156.583 163.036 156.772 162.809 156.741 162.551L156.034 156.656C156.008 156.442 155.836 156.28 155.632 156.28H152.769C152.545 156.28 152.364 156.473 152.364 156.711V162.606C152.364 162.843 152.545 163.036 152.769 163.036Z" fill="white"/>
<path fill-rule="evenodd" clip-rule="evenodd" d="M152.769 163.036H156.339C156.583 163.036 156.772 162.809 156.741 162.551L156.034 156.656C156.008 156.442 155.836 156.28 155.632 156.28H152.769C152.545 156.28 152.364 156.473 152.364 156.711V162.606C152.364 162.843 152.545 163.036 152.769 163.036Z" stroke="#575E75" stroke-width="0.5" stroke-linecap="round"/>
<path fill-rule="evenodd" clip-rule="evenodd" d="M157.275 163.036H160.769C161.034 163.036 161.221 162.766 161.149 162.508L159.546 156.613C159.512 156.422 159.352 156.28 159.165 156.28H156.408C156.163 156.28 155.981 156.516 156.021 156.76L156.888 162.655C156.901 162.867 157.07 163.036 157.275 163.036Z" fill="white"/>
<path fill-rule="evenodd" clip-rule="evenodd" d="M157.275 163.036H160.769C161.034 163.036 161.221 162.766 161.149 162.508L159.546 156.613C159.512 156.422 159.352 156.28 159.165 156.28H156.408C156.163 156.28 155.981 156.516 156.021 156.76L156.888 162.655C156.901 162.867 157.07 163.036 157.275 163.036Z" stroke="#575E75" stroke-width="0.5" stroke-linecap="round"/>
<path fill-rule="evenodd" clip-rule="evenodd" d="M161.78 163.036H165.198C165.484 163.036 165.669 162.723 165.557 162.464L163.058 156.569C163.016 156.401 162.868 156.28 162.698 156.28H160.047C159.78 156.28 159.598 156.559 159.678 156.809L161.412 162.704C161.437 162.891 161.594 163.036 161.78 163.036Z" fill="white"/>
<path fill-rule="evenodd" clip-rule="evenodd" d="M161.78 163.036H165.198C165.484 163.036 165.669 162.723 165.557 162.464L163.058 156.569C163.016 156.401 162.868 156.28 162.698 156.28H160.047C159.78 156.28 159.598 156.559 159.678 156.809L161.412 162.704C161.437 162.891 161.594 163.036 161.78 163.036Z" stroke="#575E75" stroke-width="0.5" stroke-linecap="round"/>
<path fill-rule="evenodd" clip-rule="evenodd" d="M166.286 163.036H169.628C169.935 163.036 170.117 162.681 169.965 162.42L166.569 156.525C166.519 156.381 166.384 156.28 166.232 156.28H163.686C163.397 156.28 163.214 156.601 163.335 156.858L165.936 162.753C165.974 162.915 166.118 163.036 166.286 163.036Z" fill="white"/>
<path fill-rule="evenodd" clip-rule="evenodd" d="M166.286 163.036H169.628C169.935 163.036 170.117 162.681 169.965 162.42L166.569 156.525C166.519 156.381 166.384 156.28 166.232 156.28H163.686C163.397 156.28 163.214 156.601 163.335 156.858L165.936 162.753C165.974 162.915 166.118 163.036 166.286 163.036Z" stroke="#575E75" stroke-width="0.5" stroke-linecap="round"/>
<path fill-rule="evenodd" clip-rule="evenodd" d="M170.792 163.036H174.057C174.385 163.036 174.566 162.638 174.373 162.376L170.081 156.481C170.022 156.361 169.9 156.28 169.765 156.28H167.325C167.014 156.28 166.831 156.644 166.992 156.907L170.46 162.802C170.511 162.939 170.643 163.036 170.792 163.036Z" fill="white"/>
<path fill-rule="evenodd" clip-rule="evenodd" d="M170.792 163.036H174.057C174.385 163.036 174.566 162.638 174.373 162.376L170.081 156.481C170.022 156.361 169.9 156.28 169.765 156.28H167.325C167.014 156.28 166.831 156.644 166.992 156.907L170.46 162.802C170.511 162.939 170.643 163.036 170.792 163.036Z" stroke="#575E75" stroke-width="0.5" stroke-linecap="round"/>
<path fill-rule="evenodd" clip-rule="evenodd" d="M175.298 163.036H178.487C178.836 163.036 179.014 162.595 178.781 162.332L173.592 156.437C173.526 156.341 173.416 156.28 173.298 156.28H170.963C170.631 156.28 170.447 156.687 170.65 156.956L174.984 162.851C175.048 162.963 175.167 163.036 175.298 163.036Z" fill="white"/>
<path fill-rule="evenodd" clip-rule="evenodd" d="M175.298 163.036H178.487C178.836 163.036 179.014 162.595 178.781 162.332L173.592 156.437C173.526 156.341 173.416 156.28 173.298 156.28H170.963C170.631 156.28 170.447 156.687 170.65 156.956L174.984 162.851C175.048 162.963 175.167 163.036 175.298 163.036Z" stroke="#575E75" stroke-width="0.5" stroke-linecap="round"/>
<path fill-rule="evenodd" clip-rule="evenodd" d="M179.803 163.036H182.916C183.286 163.036 183.462 162.553 183.189 162.288L177.104 156.393C177.03 156.321 176.932 156.28 176.831 156.28H174.602C174.248 156.28 174.064 156.73 174.307 157.005L179.508 162.9C179.584 162.987 179.691 163.036 179.803 163.036Z" fill="white"/>
<path fill-rule="evenodd" clip-rule="evenodd" d="M179.803 163.036H182.916C183.286 163.036 183.462 162.553 183.189 162.288L177.104 156.393C177.03 156.321 176.932 156.28 176.831 156.28H174.602C174.248 156.28 174.064 156.73 174.307 157.005L179.508 162.9C179.584 162.987 179.691 163.036 179.803 163.036Z" stroke="#575E75" stroke-width="0.5" stroke-linecap="round"/>
<path fill-rule="evenodd" clip-rule="evenodd" d="M124.785 162.126L128.182 158.301C128.264 158.208 128.382 158.155 128.506 158.155H129.624C129.988 158.155 130.189 158.575 129.96 158.856L126.84 162.681C126.758 162.782 126.634 162.841 126.504 162.841H125.11C124.737 162.841 124.539 162.404 124.785 162.126Z" fill="#4E5568"/>
<path fill-rule="evenodd" clip-rule="evenodd" d="M129.458 162.165L132.138 158.339C132.219 158.224 132.351 158.155 132.493 158.155H133.708C134.047 158.155 134.255 158.526 134.075 158.813L131.671 162.639C131.592 162.764 131.454 162.841 131.304 162.841H129.814C129.464 162.841 129.259 162.45 129.458 162.165Z" fill="#4E5568"/>
<path fill-rule="evenodd" clip-rule="evenodd" d="M138.003 162.244L139.623 158.418C139.69 158.259 139.848 158.155 140.022 158.155H141.346C141.644 158.155 141.853 158.447 141.754 158.727L140.41 162.552C140.349 162.725 140.186 162.841 140.002 162.841H138.401C138.092 162.841 137.882 162.527 138.003 162.244Z" fill="#4E5568"/>
<path fill-rule="evenodd" clip-rule="evenodd" d="M142.492 162.292L143.595 158.466C143.648 158.282 143.818 158.155 144.011 158.155H145.153C145.429 158.155 145.635 158.407 145.577 158.675L144.749 162.501C144.707 162.699 144.531 162.841 144.326 162.841H142.908C142.62 162.841 142.412 162.567 142.492 162.292Z" fill="#4E5568"/>
<path fill-rule="evenodd" clip-rule="evenodd" d="M146.763 162.341L147.398 158.515C147.433 158.307 147.613 158.155 147.825 158.155H148.987C149.242 158.155 149.442 158.373 149.418 158.625L149.059 162.451C149.038 162.671 148.852 162.841 148.628 162.841H147.19C146.923 162.841 146.719 162.603 146.763 162.341Z" fill="#4E5568"/>
<path fill-rule="evenodd" clip-rule="evenodd" d="M155.542 162.445L155.237 158.619C155.218 158.369 155.416 158.155 155.669 158.155H156.833C157.047 158.155 157.229 158.311 157.261 158.521L157.841 162.347C157.88 162.607 157.678 162.841 157.413 162.841H155.973C155.747 162.841 155.559 162.668 155.542 162.445Z" fill="#4E5568"/>
<path fill-rule="evenodd" clip-rule="evenodd" d="M159.996 162.505L159.131 158.679C159.071 158.411 159.276 158.155 159.554 158.155H160.694C160.886 158.155 161.055 158.28 161.109 158.463L162.25 162.289C162.332 162.564 162.124 162.841 161.835 162.841H160.418C160.216 162.841 160.04 162.702 159.996 162.505Z" fill="#4E5568"/>
<path fill-rule="evenodd" clip-rule="evenodd" d="M169.008 162.61L166.989 158.785C166.838 158.498 167.047 158.155 167.372 158.155H168.415C168.568 158.155 168.709 158.234 168.787 158.365L171.082 162.191C171.254 162.477 171.046 162.841 170.71 162.841H169.391C169.23 162.841 169.083 162.752 169.008 162.61Z" fill="#4E5568"/>
<path fill-rule="evenodd" clip-rule="evenodd" d="M173.56 162.653L170.932 158.827C170.736 158.542 170.941 158.155 171.289 158.155H172.259C172.395 158.155 172.522 158.218 172.604 158.326L175.508 162.152C175.723 162.435 175.52 162.841 175.163 162.841H173.917C173.774 162.841 173.64 162.77 173.56 162.653Z" fill="#4E5568"/>
<path fill-rule="evenodd" clip-rule="evenodd" d="M177.961 162.684L174.781 158.859C174.548 158.579 174.749 158.155 175.115 158.155H176.008C176.131 158.155 176.248 158.207 176.33 158.298L179.785 162.123C180.036 162.401 179.838 162.841 179.463 162.841H178.294C178.165 162.841 178.043 162.784 177.961 162.684Z" fill="#4E5568"/>
<path fill-rule="evenodd" clip-rule="evenodd" d="M114.06 180.256C114.06 180.256 117.37 182.021 118.49 182.502C119.21 182.812 119.854 182.502 119.854 182.502C122.827 180.612 121.027 177.039 116.54 176.084C111.412 174.992 114.06 180.256 114.06 180.256Z" fill="#3373CC"/>
<path fill-rule="evenodd" clip-rule="evenodd" d="M184.108 183.161C182.948 184.469 178.577 184.887 177.561 183.158C176.182 180.813 177.366 178.796 180.872 178.388C185.1 177.895 185.267 181.852 184.108 183.161Z" fill="#3373CC"/>
<path fill-rule="evenodd" clip-rule="evenodd" d="M93.8926 178.198C95.1473 176.458 97.5874 175.072 100.957 176.235C104.326 177.398 106.808 179.12 108.623 179.183C109.433 179.211 112.593 177.379 113.692 177.114C114.863 176.833 115.058 176.77 116.212 177.114C118.441 177.778 120.037 179.231 120.246 179.972C120.928 182.393 118.293 184.563 116.929 187.441L107.019 184.575L93.8926 178.198Z" fill="#414042"/>
<path fill-rule="evenodd" clip-rule="evenodd" d="M95.9142 176.554C91.7389 178.24 92.3428 184.658 98.2653 187.648C104.644 190.868 112.496 188.823 114.778 188.946C117.124 189.071 119.351 183.421 115.468 182.927C104.504 181.533 100.727 174.61 95.9142 176.554Z" fill="#C49A6C"/>
<path fill-rule="evenodd" clip-rule="evenodd" d="M94.7606 178.527C94.3758 179.06 94.1579 179.72 94.1263 180.477C94.0492 182.317 95.1933 185.089 98.6714 186.844C103.314 189.188 108.903 188.586 112.243 188.226C113.346 188.107 114.218 188.014 114.827 188.046C115.511 188.083 116.546 186.817 116.668 185.473C116.8 184.004 115.712 183.866 115.355 183.821C109.647 183.095 105.885 180.95 102.862 179.227C100.074 177.639 98.2322 176.589 96.2517 177.389C95.6205 177.644 95.1185 178.031 94.7606 178.527Z" fill="#B58D66"/>
<path fill-rule="evenodd" clip-rule="evenodd" d="M190.155 169.402C188.09 168.968 185.707 169.687 184.931 173.087C184.155 176.487 185.189 179.845 183.452 179.606C182.794 179.516 181.763 179.32 181.014 179.171C180.4 179.049 179.859 179.291 179.577 179.804C178.925 180.991 177.981 183.21 178.967 184.774C181.559 188.885 181.454 187.864 183.099 191.583L188.642 184.093L190.155 169.402Z" fill="#414042"/>
<path fill-rule="evenodd" clip-rule="evenodd" d="M187.776 169.61C191.294 167.844 196.229 173.312 195.639 180.029C195.002 187.262 189.307 191.465 188.237 193.248C187.138 195.08 181.379 192.304 182.965 189.048C187.444 179.854 183.72 171.645 187.776 169.61Z" fill="#C49A6C"/>
<path fill-rule="evenodd" clip-rule="evenodd" d="M188.285 170.512C186.616 171.35 186.531 173.533 186.401 176.836C186.26 180.419 186.085 184.877 183.753 189.663C183.607 189.963 183.163 190.876 184.431 191.926C185.592 192.889 187.157 193.114 187.478 192.58C187.763 192.104 188.287 191.534 188.949 190.811C190.955 188.624 194.31 184.965 194.774 179.699C195.121 175.755 193.442 172.741 191.899 171.358C191.263 170.789 190.612 170.434 189.979 170.3C189.391 170.177 188.817 170.246 188.285 170.512Z" fill="#B58D66"/>
<path fill-rule="evenodd" clip-rule="evenodd" d="M151.319 124.842C153.317 124.842 155.157 123.721 155.15 122.376C155.143 120.904 153.629 122.181 153.717 116.625C153.761 113.818 149.433 114.461 149.447 116.976C149.477 122.239 147.67 120.335 147.634 122.23C147.609 123.574 149.535 124.842 151.319 124.842Z" fill="#60412C"/>
<path fill-rule="evenodd" clip-rule="evenodd" d="M148.262 120.967C148.262 120.967 148.219 123.799 151.392 123.643C154.565 123.487 154.278 120.985 154.278 120.985L155.15 120.329C155.15 120.329 156.261 124.715 151.319 124.842C146.377 124.969 147.383 120.329 147.383 120.329L148.262 120.967Z" fill="#6F6E70"/>
<path fill-rule="evenodd" clip-rule="evenodd" d="M150.034 99.1378C150.034 99.1378 142.594 99.3101 142.594 109.224C142.594 117.853 148.485 122.137 151.038 122.137C153.51 122.137 160.471 118.432 160.904 111.551C161.697 98.9681 156.153 99.1378 150.034 99.1378Z" fill="#755135"/>
<path d="M150.17 114.513C147.383 116.913 155.634 117.116 152.847 114.532" stroke="#60412C" stroke-width="0.5" stroke-linecap="round" stroke-linejoin="round"/>
<path fill-rule="evenodd" clip-rule="evenodd" d="M142.617 109.488C142.617 109.488 141.705 106.244 142.617 105.026C142.617 105.026 141.849 103.106 143.734 101.482C143.734 101.482 143.425 99.0108 145.997 98.4941C145.997 98.4941 147.159 95.2149 150.414 96.5596C150.414 96.5596 151.787 95.5759 153.676 96.0937C155.965 96.7215 155.899 97.7071 155.899 97.7071C155.899 97.7071 157.141 97.1626 158.684 98.4914C160.227 99.821 160.055 101.482 160.055 101.482C160.055 101.482 161.909 103.291 160.629 105.445C161.725 106.669 160.964 108.937 160.98 109.523L160.325 109.659C160.107 109.705 159.9 109.541 159.895 109.318C159.832 106.225 158.43 108.198 158.432 106.75C158.437 103.516 145.726 102.744 145.312 105.963C145.11 107.531 143.664 106.102 143.458 109.291C143.443 109.523 143.212 109.679 142.992 109.608L142.617 109.488Z" fill="#231F20"/>
<path fill-rule="evenodd" clip-rule="evenodd" d="M162.213 147.311C162.376 148.04 163.435 147.699 163.514 148.147C163.591 148.596 162.746 148.817 162.765 149.241C162.784 149.665 163.367 149.648 163.519 150.33C163.669 151.013 162.746 151.079 162.213 150.958C161.681 150.838 161.164 150.838 161.164 150.838L162.213 147.311Z" fill="#414042"/>
<path fill-rule="evenodd" clip-rule="evenodd" d="M163.845 149.025C162.887 149.573 162.376 147.658 163.123 146.997C163.871 146.335 165.479 145.305 167.49 145.535C169.537 145.769 171.722 147.111 171.59 148.206C171.458 149.3 170.805 149.434 170.805 149.434C170.805 149.434 168.075 146.6 163.845 149.025Z" fill="#6F6E70"/>
<path fill-rule="evenodd" clip-rule="evenodd" d="M155.83 112.946C155.83 113.334 155.592 113.649 155.299 113.649C155.005 113.649 154.767 113.334 154.767 112.946C154.767 112.557 155.005 112.243 155.299 112.243C155.592 112.243 155.83 112.557 155.83 112.946Z" fill="#231F20"/>
<path fill-rule="evenodd" clip-rule="evenodd" d="M148.37 112.946C148.37 113.334 148.133 113.649 147.839 113.649C147.545 113.649 147.307 113.334 147.307 112.946C147.307 112.557 147.545 112.243 147.839 112.243C148.133 112.243 148.37 112.557 148.37 112.946Z" fill="#231F20"/>
<path fill-rule="evenodd" clip-rule="evenodd" d="M145.98 109.343C146.181 109.595 146.538 109.677 146.823 109.525C147.684 109.064 148.923 109.147 148.716 108.61C148.483 108.002 146.064 107.975 145.842 108.665C145.753 108.941 145.842 109.169 145.98 109.343Z" fill="#231F20"/>
<path fill-rule="evenodd" clip-rule="evenodd" d="M157.037 109.343C156.835 109.595 156.479 109.677 156.194 109.525C155.333 109.064 154.094 109.147 154.3 108.61C154.534 108.002 156.953 107.975 157.175 108.665C157.264 108.941 157.175 109.169 157.037 109.343Z" fill="#231F20"/>
<path fill-rule="evenodd" clip-rule="evenodd" d="M150.188 118.659C151.034 119.109 153.347 118.659 154.238 117.915C155.363 116.977 155.195 120.4 152.646 120.811C150.098 121.222 149.342 118.209 150.188 118.659Z" fill="#231F20"/>
<path fill-rule="evenodd" clip-rule="evenodd" d="M154.239 117.916C154.239 117.916 153.933 119.007 152.379 119.379C150.825 119.751 150.31 118.713 150.31 118.713C150.31 118.713 151.329 118.939 152.274 118.72C153.201 118.504 154.239 117.916 154.239 117.916Z" fill="white"/>
<path fill-rule="evenodd" clip-rule="evenodd" d="M130.722 144.697C127.662 145.009 126.082 144.142 125.887 142.084C125.692 140.03 125.785 138.868 127.895 137.893C130.215 136.82 132.74 137.655 133.861 139.569C135.081 141.653 134.168 144.345 130.722 144.697Z" fill="#6F6E70"/>
<path fill-rule="evenodd" clip-rule="evenodd" d="M132.422 140.765C133.849 142.181 135.963 142.51 136.94 141.998C140.592 140.089 140.352 143.795 137.311 144.029C135.198 144.191 135.672 145.056 135.901 146.335C136.154 147.756 136.86 150.18 136.324 151.956C135.821 153.624 134.108 153.555 134.379 151.893C134.589 150.604 134.325 147.8 134.325 147.8C134.325 147.8 133.807 148.628 132.699 148.595C131.759 148.566 131.706 147.98 131.706 147.98C131.706 147.98 131.324 148.613 130.416 148.573C129.508 148.534 129.299 147.577 129.299 147.577C129.299 147.577 128.304 148.403 127.529 147.097C126.973 146.162 127.672 143.508 127.635 142.556C127.576 141.018 127.583 140.719 128.539 139.861C130.469 138.243 132.422 140.765 132.422 140.765Z" fill="#755135"/>
<path fill-rule="evenodd" clip-rule="evenodd" d="M162.445 150.057C161.657 151.011 160.187 154.469 158.395 155.474C156.771 156.384 158.237 157.499 159.851 156.762C160.804 156.327 162.34 153.502 164.365 153.607C165.446 153.663 166.325 154.732 167.196 156.638C167.767 157.891 170.238 157.645 169.351 156.398C168.02 154.527 168.335 153.896 168.414 152.946C169.994 153.412 170.9 155.734 171.415 156.713C172.231 158.265 174.411 157.72 173.85 156.772C172.914 155.19 172.53 153.919 170.992 152.923C172.097 153.291 172.819 153.93 173.964 153.863C176.346 153.723 176.441 152.535 175.956 152.503C172.998 152.305 171.413 151.587 171.413 151.587C171.413 151.587 172.526 151.979 173.332 152.161C175.071 152.552 176.02 150.763 175.267 150.738C170.534 150.58 171.352 148.267 168.888 147.874C167.104 147.59 164.978 146.99 162.445 150.057Z" fill="#755135"/>
<path fill-rule="evenodd" clip-rule="evenodd" d="M138.766 150.41C137.417 150.275 137.063 149.787 137.111 149.266C137.183 148.474 138.102 148.852 138.12 148.276C138.138 147.699 137.439 147.794 137.543 146.96C137.633 146.24 138.712 146.328 138.84 145.653" fill="#414042"/>
<path fill-rule="evenodd" clip-rule="evenodd" d="M142.612 109.841C142.612 109.841 142.555 110.205 142.675 110.335C142.794 110.465 143.427 110.744 143.441 110.363C143.445 110.251 143.46 110.09 143.247 109.987C142.996 109.866 142.612 109.841 142.612 109.841Z" fill="#231F20"/>
<path fill-rule="evenodd" clip-rule="evenodd" d="M160.967 109.841C160.967 109.841 161.023 110.205 160.904 110.335C160.784 110.465 160.151 110.744 160.137 110.363C160.133 110.251 160.119 110.09 160.331 109.987C160.583 109.866 160.967 109.841 160.967 109.841Z" fill="#231F20"/>
<path fill-rule="evenodd" clip-rule="evenodd" d="M144.666 132.306C143.956 132.753 143.404 133.713 144.475 134.166C145.547 134.618 146.006 133.85 145.951 132.88C145.904 132.032 145.043 132.068 144.666 132.306Z" fill="#4D97FF"/>
<path fill-rule="evenodd" clip-rule="evenodd" d="M157.601 133.091C157.346 133.229 156.608 132.3 156.461 132.535C156.182 132.979 156.499 133.87 157.2 134.166C158.271 134.618 158.731 133.85 158.676 132.88C158.629 132.032 158.313 132.706 157.601 133.091Z" fill="#4D97FF"/>
<path fill-rule="evenodd" clip-rule="evenodd" d="M154.104 133.135C153.395 133.666 153.18 134.154 154.251 134.691C155.322 135.228 155.32 134.167 155.266 133.015C155.219 132.008 154.482 132.853 154.104 133.135Z" fill="#9966FF"/>
<path fill-rule="evenodd" clip-rule="evenodd" d="M147.673 131.328C146.963 132.249 146.411 134.226 147.482 135.158C148.553 136.089 149.013 134.508 148.958 132.51C148.91 130.764 148.05 130.838 147.673 131.328Z" fill="#0FBD8C"/>
<path fill-rule="evenodd" clip-rule="evenodd" d="M150.662 131.994C149.952 132.61 149.902 134.143 150.973 134.765C152.044 135.387 152.691 133.595 152.29 132.749C151.79 131.694 151.039 131.667 150.662 131.994Z" fill="#FFBF00"/>
<path fill-rule="evenodd" clip-rule="evenodd" d="M139.939 69.6821C138.157 69.2098 137.714 66.273 140.063 76.7063C140.282 77.7929 139.265 78.6771 137.792 78.6771C136.324 78.6771 134.954 77.7929 134.739 76.7063C134.524 75.6158 135.542 74.7359 137.01 74.7359C137.32 74.7359 137.629 74.7744 137.916 74.8473L137.921 74.8515H137.929C138.08 74.8862 138.226 74.9333 138.367 74.9888C138.779 74.9846 138.316 73.8983 137.487 69.1627C136.465 63.2977 138.955 68.2739 141.686 67.849C144.417 67.4279 141.72 70.1502 139.939 69.6821Z" fill="#404041"/>
<path fill-rule="evenodd" clip-rule="evenodd" d="M184.147 77.5982C182.365 77.13 181.922 74.1933 184.275 84.627C184.49 85.7128 183.473 86.5974 182 86.5974C180.532 86.5974 179.162 85.7128 178.947 84.627C178.732 83.5361 179.75 82.6558 181.218 82.6558C181.528 82.6558 181.837 82.6947 182.124 82.7676L182.129 82.7718H182.137C182.288 82.8061 182.434 82.8536 182.575 82.9091C182.987 82.9052 182.524 81.8186 181.699 77.083C180.673 71.218 183.163 76.1942 185.894 75.7692C188.625 75.3482 185.928 78.0705 184.147 77.5982Z" fill="#404041"/>
<path fill-rule="evenodd" clip-rule="evenodd" d="M109.139 106.086C107.357 105.613 106.915 102.677 109.264 113.11C109.483 114.196 108.465 115.081 106.993 115.081C105.524 115.081 104.155 114.196 103.94 113.11C103.725 112.02 104.743 111.139 106.211 111.139C106.52 111.139 106.829 111.178 107.117 111.251L107.121 111.255H107.13C107.28 111.29 107.426 111.337 107.568 111.393C107.98 111.388 107.516 110.302 106.688 105.566C105.666 99.7014 108.156 104.678 110.887 104.253C113.617 103.832 110.921 106.554 109.139 106.086Z" fill="#404041"/>
<path fill-rule="evenodd" clip-rule="evenodd" d="M117.597 103.338C115.816 102.87 115.373 99.9335 117.726 110.367C117.941 111.453 116.923 112.337 115.451 112.337C113.982 112.337 112.613 111.453 112.398 110.367C112.183 109.276 113.201 108.396 114.669 108.396C114.978 108.396 115.288 108.435 115.575 108.507L115.58 108.512H115.588C115.738 108.546 115.885 108.593 116.026 108.649C116.438 108.645 115.974 107.558 115.15 102.823C114.124 96.9578 116.614 101.934 119.345 101.509C122.076 101.088 119.379 103.81 117.597 103.338Z" fill="#404041"/>
</g>
<defs>
<linearGradient id="paint0_linear" x1="226.221" y1="-6.32779" x2="226.221" y2="113.289" gradientUnits="userSpaceOnUse">
<stop stop-color="#4D97FF"/>
<stop offset="1" stop-color="#CF529E"/>
</linearGradient>
</defs>
</svg>
