<svg width="460" height="410" viewBox="0 0 460 410" fill="none" xmlns="http://www.w3.org/2000/svg">
<path opacity="0.15" fill-rule="evenodd" clip-rule="evenodd" d="M255.458 26.2735C373.057 26.2735 488.039 165.174 453.897 259.683C419.754 354.191 355.43 410 237.831 410C120.232 410 21.0556 296.475 1.65174 174.75C-17.7521 53.0239 137.859 26.2735 255.458 26.2735ZM378.309 3.28985C395.228 -9.41204 421.898 17.4653 438.199 36.2663C454.5 55.0674 448.491 75.2415 434.042 75.2415C424.138 75.2415 413.502 67.2204 403.698 59.6815L402.737 58.9418C398.582 55.7458 394.588 52.6882 390.876 50.4272C378.169 42.6875 361.39 15.9917 378.309 3.28985Z" fill="#4D97FF"/>
</svg>
