<svg width="300" height="200" viewBox="0 0 300 200" fill="none" xmlns="http://www.w3.org/2000/svg">
<path fill-rule="evenodd" clip-rule="evenodd" d="M99.0979 74.541C102.768 74.8054 114.646 85.7995 116.135 89.9608C117.623 94.122 104.924 88.2884 101.879 84.6052C98.8335 80.9224 95.4279 74.2765 99.0979 74.541Z" fill="#755135"/>
<path fill-rule="evenodd" clip-rule="evenodd" d="M97.7371 74.3611C97.7371 74.3611 102.659 74.418 106.879 77.9046C111.1 81.3905 105.195 87.0069 104.565 87.3944C103.934 87.7818 101.803 85.3125 101.803 85.3125L97.7371 74.3611Z" fill="#3D79CC"/>
<path fill-rule="evenodd" clip-rule="evenodd" d="M118.121 93.2698C112.469 89.8347 105.92 105.782 100.785 106.707C98.4608 106.822 93.5165 106.823 93.5165 106.823C88.6433 111.347 91.2811 121.861 97.8949 122.041C105.768 122.256 116.911 105.795 117.16 103.211L118.121 93.2698Z" fill="#BF9F75"/>
<path fill-rule="evenodd" clip-rule="evenodd" d="M109.853 93.2285C102.661 89.4156 94.8134 103.034 91.6922 107.626C88.7419 107.743 82.4633 107.723 82.4633 107.723C74.0977 112.765 79.6911 124.295 88.0904 124.523C98.0885 124.795 109.338 108.95 109.643 106.101L109.853 93.2285Z" fill="#CEAE7C"/>
<path fill-rule="evenodd" clip-rule="evenodd" d="M89.2315 74.9853C88.5658 76.8838 97.0337 82.4391 95.8539 74.6114C98.8536 73.5824 104.85 75.6308 103.965 81.5803C103.082 87.5078 102.276 89.1621 103.207 93.875C96.6935 99.532 91.692 107.626 91.692 107.626C84.927 116.043 77.566 112.235 78.331 110.775C80.5866 106.468 81.2951 96.7357 80.8376 82.5529C79.484 78.4606 86.2077 75.7837 89.2315 74.9853Z" fill="#4D97FF"/>
<path fill-rule="evenodd" clip-rule="evenodd" d="M104.383 104.841C104.045 115.606 101.671 114.398 104.821 124.129C105.352 125.768 112.208 124.757 112.379 122.386C113.43 107.84 112.918 94.9367 109.853 93.2284L104.383 104.841Z" fill="#CEAE7C"/>
<path fill-rule="evenodd" clip-rule="evenodd" d="M122.114 89.4182C114.921 85.6053 106.675 103.161 100.158 104.158C100.158 104.158 114.066 106.199 116.821 104.519C119.575 102.839 122.779 92.6393 122.779 92.6393L122.114 89.4182Z" fill="#CEAE7C"/>
<path fill-rule="evenodd" clip-rule="evenodd" d="M122.114 89.4182C127.233 92.8853 125.729 103.846 124.679 118.392C124.508 120.763 118.652 121.592 118.121 119.952C114.971 110.221 116.344 111.611 116.682 100.846L122.114 89.4182Z" fill="#CEAE7C"/>
<path fill-rule="evenodd" clip-rule="evenodd" d="M84.2236 59.8596C84.2236 59.8596 83.0645 58.0524 81.7003 59.9129C80.3361 61.7733 82.563 65.4408 84.9271 65.3609" fill="#60412C"/>
<path fill-rule="evenodd" clip-rule="evenodd" d="M101.586 63.0259C101.586 63.0259 103.006 61.6397 104.515 63.5549C106.024 65.4704 103.359 68.6719 100.842 68.8855" fill="#60412C"/>
<path fill-rule="evenodd" clip-rule="evenodd" d="M94.1405 79.4238C96.244 79.4238 96.6375 77.5627 96.6304 76.1469C96.6229 74.5982 95.0298 75.9419 95.1222 70.0933C95.1688 67.1384 90.6134 67.8155 90.6279 70.4626C90.6588 76.0033 88.7575 73.9979 88.7195 75.9934C88.6925 77.4088 92.2626 79.4238 94.1405 79.4238Z" fill="#60412C"/>
<path fill-rule="evenodd" clip-rule="evenodd" d="M91.2453 51.6859C91.2453 51.6859 83.4141 51.8675 83.4141 62.3029C83.4141 71.3867 89.6149 75.896 92.3021 75.896C94.904 75.896 102.232 71.9963 102.688 64.753C103.522 51.5071 97.6865 51.6859 91.2453 51.6859Z" fill="#755135"/>
<path d="M91.1644 66.181C89.4146 68.3812 92.4675 69.3175 92.4675 69.3175" stroke="#60412C" stroke-width="0.5" stroke-linecap="round" stroke-linejoin="round"/>
<mask id="mask0" style="mask-type:alpha" maskUnits="userSpaceOnUse" x="83" y="50" width="20" height="13">
<path fill-rule="evenodd" clip-rule="evenodd" d="M83.41 50.3554H102.955V62.7691H83.41V50.3554Z" fill="white"/>
</mask>
<g mask="url(#mask0)">
<path fill-rule="evenodd" clip-rule="evenodd" d="M83.4378 62.5813C83.4378 62.5813 82.3924 49.6503 93.1384 50.3854C105.167 51.2086 102.75 62.0005 102.768 62.6175L102.078 62.7611C101.849 62.8091 101.63 62.636 101.625 62.4014C101.559 59.1458 100.083 61.2235 100.086 59.6993C100.091 56.2944 85.6291 55.5227 85.1926 58.9109C84.9804 60.5612 84.0499 59.3499 83.8327 62.7078L83.4378 62.5813Z" fill="#231F20"/>
</g>
<path fill-rule="evenodd" clip-rule="evenodd" d="M95.8539 66.181C95.8539 66.5897 95.6033 66.9214 95.2945 66.9214C94.9852 66.9214 94.7346 66.5897 94.7346 66.181C94.7346 65.7722 94.9852 65.4409 95.2945 65.4409C95.6033 65.4409 95.8539 65.7722 95.8539 66.181Z" fill="#231F20"/>
<path fill-rule="evenodd" clip-rule="evenodd" d="M88.3388 65.8224C88.3388 66.2311 88.0882 66.5624 87.7793 66.5624C87.4701 66.5624 87.2198 66.2311 87.2198 65.8224C87.2198 65.4136 87.4701 65.082 87.7793 65.082C88.0882 65.082 88.3388 65.4136 88.3388 65.8224Z" fill="#231F20"/>
<path fill-rule="evenodd" clip-rule="evenodd" d="M86.9784 62.4279C87.1903 62.6934 87.5656 62.7798 87.8653 62.6198C88.7717 62.1346 90.0758 62.2217 89.8587 61.6569C89.6127 61.0171 87.0666 60.9887 86.8327 61.7145C86.7389 62.006 86.8327 62.2452 86.9784 62.4279Z" fill="#231F20"/>
<path fill-rule="evenodd" clip-rule="evenodd" d="M98.6169 62.4279C98.405 62.6934 98.0297 62.7798 97.73 62.6198C96.8233 62.1346 95.5195 62.2217 95.7367 61.6569C95.9826 61.0171 98.5287 60.9887 98.7626 61.7145C98.8564 62.006 98.7626 62.2452 98.6169 62.4279Z" fill="#231F20"/>
<path fill-rule="evenodd" clip-rule="evenodd" d="M91.4077 72.2343C92.2977 72.7085 94.7333 72.235 95.6713 71.4523C96.855 70.4642 96.6783 74.067 93.9954 74.5003C91.3124 74.9336 90.5176 71.7605 91.4077 72.2343Z" fill="#231F20"/>
<path fill-rule="evenodd" clip-rule="evenodd" d="M95.6713 71.4523C95.6713 71.4523 96.0406 72.9135 93.7938 73.3326C91.8186 73.7012 91.5364 72.2915 91.5364 72.2915C91.5364 72.2915 92.6084 72.53 93.604 72.2986C94.5787 72.0718 95.6713 71.4523 95.6713 71.4523Z" fill="white"/>
<path d="M92.0386 72.9432L93.1383 72.9365L94.1407 72.8295L94.9245 72.5938L95.5494 72.0752" stroke="#E5F0FF" stroke-width="0.5"/>
<path fill-rule="evenodd" clip-rule="evenodd" d="M93.2894 73.1497L93.036 73.1767C92.9805 73.1828 92.9311 73.1426 92.9251 73.0875L92.8981 72.8337C92.892 72.7786 92.9322 72.7292 92.9873 72.7235L93.2411 72.6962C93.2962 72.6901 93.3456 72.7299 93.3516 72.7854L93.3786 73.0388C93.3847 73.0943 93.3445 73.1437 93.2894 73.1497Z" fill="#CF63CF"/>
<path fill-rule="evenodd" clip-rule="evenodd" d="M94.3028 73.0341L94.0508 73.0746C93.9961 73.0835 93.9445 73.0461 93.9356 72.9914L93.8951 72.7397C93.8862 72.685 93.9235 72.6331 93.9783 72.6246L94.2303 72.5837C94.285 72.5748 94.3366 72.6121 94.3455 72.6672L94.386 72.9189C94.3949 72.9736 94.3575 73.0255 94.3028 73.0341Z" fill="#CF63CF"/>
<path fill-rule="evenodd" clip-rule="evenodd" d="M95.0536 72.7178L94.9335 72.7726C94.883 72.7957 94.8233 72.7733 94.8002 72.7228L94.7454 72.6027C94.7223 72.5518 94.7447 72.4925 94.7952 72.4694L94.9153 72.4143C94.9658 72.3915 95.0255 72.4139 95.0486 72.4644L95.1034 72.5845C95.1265 72.6354 95.1041 72.6951 95.0536 72.7178Z" fill="#CF63CF"/>
<path fill-rule="evenodd" clip-rule="evenodd" d="M92.054 73.1087L91.9225 73.0956C91.8674 73.0902 91.8268 73.0412 91.8325 72.9857L91.8457 72.8542C91.851 72.7991 91.9001 72.759 91.9555 72.7639L92.087 72.7771C92.1425 72.7828 92.1827 72.8322 92.177 72.8873L92.1642 73.0188C92.1585 73.0739 92.1091 73.1144 92.054 73.1087Z" fill="#CF63CF"/>
<path fill-rule="evenodd" clip-rule="evenodd" d="M95.6557 72.1907L95.5494 72.2696C95.505 72.3023 95.4417 72.293 95.409 72.2483L95.3301 72.142C95.2971 72.0975 95.3067 72.035 95.3511 72.0016L95.4574 71.923C95.5018 71.89 95.5651 71.8996 95.5978 71.944L95.6767 72.0499C95.7097 72.0943 95.7001 72.1576 95.6557 72.1907Z" fill="#CF63CF"/>
<path fill-rule="evenodd" clip-rule="evenodd" d="M69.1391 65.6974C69.1043 64.528 69.4914 64.4277 69.9553 64.3591C70.4461 64.2866 71.0614 64.1188 71.4606 64.1778C71.7695 64.2233 71.7833 64.4683 71.7833 64.4683C71.7833 64.4683 71.7976 64.4583 72.1527 64.3531C72.5309 64.2411 73.5709 63.9671 74.0045 63.9162C74.259 63.8864 74.5431 64.0321 74.6177 64.3076C74.714 64.282 74.7844 64.2681 74.8363 64.2621C74.9859 64.244 75.1231 64.1839 75.2383 64.0869C75.7839 63.6269 77.022 62.397 77.3273 60.4979C77.5818 58.9154 79.2649 59.7486 78.9009 61.0303C78.2955 63.1627 77.4876 64.7299 76.7884 65.7855C76.6907 65.9331 76.6711 66.1143 76.7273 66.2821C76.8705 66.7129 77.0468 67.7324 76.4045 69.4044C75.9204 70.6652 74.5676 73.0975 72.614 73.2038C70.6608 73.3104 68.9081 75.0877 69.3947 72.6518C69.9435 69.9049 69.174 66.8672 69.1391 65.6974Z" fill="#755135"/>
<path fill-rule="evenodd" clip-rule="evenodd" d="M84.9269 87.0071C83.6921 88.4598 73.962 95.0445 70.379 93.5921C66.7961 92.1394 68.1717 81.6327 69.3944 72.6519C69.3944 72.6519 74.7369 66.8751 73.5749 72.075C72.4126 77.2748 75.5604 75.4354 74.2552 84.1183C74.2552 84.1183 82.2635 78.4126 83.1113 77.711" fill="#755135"/>
<path fill-rule="evenodd" clip-rule="evenodd" d="M83.1112 77.7109C79.2517 79.7803 77.3721 80.7891 75.689 82.6012C74.6607 83.708 78.924 82.0321 79.8922 91.6072C82.9007 90.7594 85.7763 89.1375 86.5992 86.1357C88.7603 78.2543 85.2663 77.2047 83.1112 77.7109Z" fill="#3D79CC"/>
<path fill-rule="evenodd" clip-rule="evenodd" d="M113.69 87.1525C119.982 85.1187 124.217 87.2229 124.656 89.4182C125.095 91.6131 120.759 91.8491 119.815 90.2819C119.089 88.5324 116.353 89.7431 114.583 91.398" fill="#755135"/>
<path fill-rule="evenodd" clip-rule="evenodd" d="M106.033 124.062C109.72 127.712 108.205 120.896 110.961 123.206C112.957 124.879 116.756 130.321 120.299 131.47C120.799 131.632 121.523 132.797 121.071 133.866C120.323 134.75 115.795 138.524 110.593 134.05C106.941 130.91 104.658 131.633 104.623 129.763C104.609 129.046 104.723 122.766 106.033 124.062Z" fill="#9966FF"/>
<path fill-rule="evenodd" clip-rule="evenodd" d="M109.551 126.986C108.53 124.895 109.074 122.441 110.643 121.707C111.535 121.289 112.794 121.941 113.346 124.547C113.756 126.488 114.036 127.721 118.349 130.463C119.448 131.161 116.482 132.795 115.516 132.422C112.829 131.386 109.551 126.986 109.551 126.986Z" fill="#774DCB"/>
<path fill-rule="evenodd" clip-rule="evenodd" d="M120.518 131.595C120.518 131.595 118.332 134.776 115.759 134.732C111.711 134.664 111.097 131.706 108.705 130.704C106.312 129.703 106.392 127.016 104.689 127.717C104.689 127.717 104.46 129.941 104.623 130.596C104.786 131.252 107.356 131.633 109.53 133.503C111.704 135.373 113.403 137.177 116.955 136.268C120.508 135.359 121.056 134.352 121.412 133.633C121.731 132.989 120.962 131.37 120.518 131.595Z" fill="#F1F2F2"/>
<path fill-rule="evenodd" clip-rule="evenodd" d="M117.578 129.934C118.312 130.08 116.824 128.819 116.462 128.747C115.45 128.546 113.671 129.137 113.206 130.331C112.881 131.166 114.576 131.777 114.871 131.196C115.283 130.384 116.907 129.801 117.578 129.934Z" fill="#F1F2F2"/>
<path fill-rule="evenodd" clip-rule="evenodd" d="M115.205 127.205C115.938 127.35 115.189 126.076 114.883 125.868C114.021 125.285 111.147 125.844 110.681 127.039C110.356 127.873 112.203 129.048 112.497 128.466C112.909 127.655 114.533 127.071 115.205 127.205Z" fill="#F1F2F2"/>
<path fill-rule="evenodd" clip-rule="evenodd" d="M119.247 119.994C122.934 123.644 121.42 116.828 124.176 119.138C126.171 120.811 129.97 126.253 133.514 127.402C134.013 127.564 134.737 128.729 134.285 129.797C133.537 130.682 129.01 134.456 123.807 129.982C120.156 126.842 117.872 127.565 117.837 125.695C117.823 124.978 117.937 118.698 119.247 119.994Z" fill="#9966FF"/>
<path fill-rule="evenodd" clip-rule="evenodd" d="M123.927 122.307C122.906 120.217 125.174 116.119 126.821 116.659C127.888 117.01 127.06 118.212 127.722 119.869C128.458 121.71 127.354 123.724 131.668 126.465C132.767 127.164 130.858 128.116 129.892 127.743C127.205 126.707 123.927 122.307 123.927 122.307Z" fill="#774DCB"/>
<path fill-rule="evenodd" clip-rule="evenodd" d="M134.309 128.398C134.309 128.398 131.546 130.708 128.974 130.664C124.926 130.595 124.311 127.637 121.919 126.636C119.526 125.635 119.606 122.947 117.903 123.648C117.903 123.648 117.675 125.873 117.838 126.528C118.001 127.184 120.571 127.564 122.745 129.435C124.919 131.305 126.617 133.109 130.17 132.2C133.722 131.292 134.271 130.284 134.627 129.565C134.945 128.92 134.752 128.172 134.309 128.398Z" fill="#F1F2F2"/>
<path fill-rule="evenodd" clip-rule="evenodd" d="M130.793 125.866C131.526 126.011 130.039 124.751 129.676 124.679C128.664 124.478 126.886 125.068 126.42 126.263C126.095 127.098 127.791 127.709 128.085 127.128C128.497 126.316 130.121 125.732 130.793 125.866Z" fill="#F1F2F2"/>
<path fill-rule="evenodd" clip-rule="evenodd" d="M128.419 123.136C129.152 123.282 128.404 122.007 128.098 121.8C127.236 121.217 124.361 121.776 123.896 122.97C123.571 123.805 125.417 124.979 125.712 124.398C126.123 123.587 127.748 123.003 128.419 123.136Z" fill="#F1F2F2"/>
<path fill-rule="evenodd" clip-rule="evenodd" d="M121.706 88.7552C121.231 89.122 120.355 89.2681 119.608 90.6743C119.179 91.484 119.19 92.5141 118.581 92.7857C117.36 93.3299 118.833 94.3863 119.957 93.6206C120.502 93.2499 121.062 91.6656 121.635 92.5909C122.021 93.2136 122.005 93.8271 122.056 94.4844C122.147 95.6609 122.42 96.4973 122.225 98.1416C122.026 99.8346 123.115 99.8467 123.374 98.2809C123.563 97.1428 123.388 95.9851 123.471 95.4178C124.035 96.9778 124.393 97.8053 124.495 99.9313C124.528 100.62 125.567 100.628 125.536 99.798C125.459 97.7168 124.857 96.3946 124.926 95.5792C125.099 96.1607 125.838 97.7438 125.997 99.075C126.154 100.379 127.122 99.9313 126.831 98.3094C126.468 96.2797 125.894 94.811 125.894 94.811C125.894 94.811 126.727 96.3793 127.12 97.1897C127.616 98.2141 128.375 97.3848 127.789 96.2428C125.963 92.6833 126.337 91.3091 125.113 89.6648C124.227 88.4741 124.031 86.9623 121.706 88.7552Z" fill="#755135"/>
<path fill-rule="evenodd" clip-rule="evenodd" d="M73.6837 144.06C72.9902 137.652 38.3345 143.49 34.1118 146.772C29.8894 150.053 27.8633 156.144 33.3205 160.246C37.9386 163.718 61.8152 152.044 67.7168 144.571C70.2031 141.424 73.6837 144.06 73.6837 144.06Z" fill="#231F20"/>
<path fill-rule="evenodd" clip-rule="evenodd" d="M40.0757 99.8442C40.0757 99.8442 40.0188 100.376 39.792 100.572C39.5653 100.768 38.0962 100.515 37.8079 100.669C37.5196 100.824 37.5747 99.8022 38.1783 99.7628C38.7815 99.723 40.0757 99.8442 40.0757 99.8442Z" fill="white"/>
<path fill-rule="evenodd" clip-rule="evenodd" d="M19.6089 109.832C19.6089 109.832 30.5973 105.599 39.5091 111.786C48.4213 117.974 49.5815 119.62 52.3693 120.624C52.6029 115.342 57.336 103.022 57.336 103.022C57.336 103.022 64.5737 101.377 61.7013 105.776C59.2018 109.603 60.9325 128.593 53.2046 128.833C45.1615 129.084 34.2367 116.801 30.7867 118.031C27.3371 119.26 17.3781 116.397 19.6089 109.832Z" fill="#60412C"/>
<path fill-rule="evenodd" clip-rule="evenodd" d="M74.1593 159.986C74.1593 159.986 73.4001 162.293 74.1146 164.519C74.6381 166.151 74.572 166.514 77.5393 166.888C80.3353 167.239 85.5526 169.337 87.5577 169.49C94.5924 170.025 96.611 166.921 96.0067 164.581C96.6778 167.181 81.3792 159.198 74.1593 159.986Z" fill="#F1F2F2"/>
<path fill-rule="evenodd" clip-rule="evenodd" d="M47.6266 165.102C55.1916 160.804 64.3793 137.671 72.5589 142.415C81.9968 147.89 56.1677 159.508 56.5516 165.41C56.9891 172.134 40.5307 169.134 47.6266 165.102Z" fill="#231F20"/>
<path fill-rule="evenodd" clip-rule="evenodd" d="M17.1437 147.359C13.2014 158.914 16.821 166.73 28.5132 164.977C40.5409 163.175 54.824 142.447 54.4692 138.895C55.2071 141.221 58.3617 145.867 70.9966 157.063C72.6704 158.547 77.3876 155.696 75.9551 153.022C65.5657 133.627 62.0271 122.586 53.3503 124.34C46.8381 125.657 37.3785 141.751 28.6884 144.906C24.6629 145.928 17.1437 147.359 17.1437 147.359Z" fill="#231F20"/>
<path fill-rule="evenodd" clip-rule="evenodd" d="M24.9317 116.353C27.8179 116.358 30.4767 114.742 30.4703 112.8C30.4632 110.675 29.4825 112.07 28.4137 104.491C27.8478 100.476 15.969 98.039 19.6344 101.013C24.0015 104.557 19.6728 109.834 19.6163 112.572C19.5761 114.513 22.3554 116.349 24.9317 116.353Z" fill="#60412C"/>
<path fill-rule="evenodd" clip-rule="evenodd" d="M25.8605 75.3911C16.4666 77.5632 14.4107 85.8545 14.4036 90.4003C14.3911 98.19 21.4209 102.175 25.8605 103.447C28.6557 104.248 31.3859 106.692 34.9056 106.059C36.3381 105.801 37.6799 105.213 38.79 102.856C39.1738 102.721 39.8215 102.227 39.0942 102.046C38.1238 101.806 37.328 100.406 38.1157 99.9914C38.4302 99.8258 39.814 100.064 40.1218 99.947C40.5843 99.7711 40.8167 99.0481 40.1375 99.1188C40.4058 97.429 40.2953 95.7424 39.6669 93.341C42.5446 80.1118 31.8096 74.0151 25.8605 75.3911Z" fill="#755135"/>
<path fill-rule="evenodd" clip-rule="evenodd" d="M40.1114 98.452C41.5944 97.7549 42.3181 95.5344 41.4326 95.5721C40.0279 95.6318 39.7805 93.91 39.6671 93.3409" fill="#755135"/>
<path fill-rule="evenodd" clip-rule="evenodd" d="M39.3041 93.2607C39.3034 93.8213 38.959 94.2755 38.5346 94.2752C38.1109 94.2745 37.7678 93.8188 37.7686 93.2582C37.7696 92.6973 38.1141 92.2431 38.5381 92.2438C38.9622 92.2445 39.3052 92.6998 39.3041 93.2607Z" fill="#231F20"/>
<path fill-rule="evenodd" clip-rule="evenodd" d="M39.6566 89.9361C39.6075 90.2716 39.3274 90.5357 38.9883 90.5485C37.9614 90.5869 36.8808 91.3199 36.7834 90.7234C36.6733 90.0474 38.855 88.7389 39.4223 89.2472C39.6502 89.4509 39.6903 89.7051 39.6566 89.9361Z" fill="#231F20"/>
<path fill-rule="evenodd" clip-rule="evenodd" d="M33.9639 87.6291C39.2945 88.0087 38.8829 87.3405 40.8411 85.2739C40.8411 85.2739 37.5973 75.172 29.5222 75.0725C18.5754 74.9374 14.8222 82.0318 14.6124 87.6853C14.1209 100.941 22.4626 102.832 28.4139 104.491C28.4139 104.491 25.7387 92.3353 28.8994 91.3503C30.6777 90.7962 30.7733 90.5065 30.9969 89.1735C31.2404 87.7219 32.7059 87.5395 33.9639 87.6291Z" fill="#231F20"/>
<path fill-rule="evenodd" clip-rule="evenodd" d="M30.8048 92.5436C30.8048 92.5436 29.7125 90.3555 27.5848 92.0421C26.5703 92.8465 26.887 94.553 27.6562 95.8884C28.4997 97.3536 29.8881 98.3716 30.6605 97.2615" fill="#755135"/>
<path d="M30.8048 92.5436C30.8048 92.5436 29.7125 90.3555 27.5848 92.0421C26.5703 92.8465 26.887 94.553 27.6562 95.8884C28.4997 97.3536 29.8881 98.3716 30.6605 97.2615" stroke="#60412C" stroke-width="0.5" stroke-linecap="round" stroke-linejoin="round"/>
<path fill-rule="evenodd" clip-rule="evenodd" d="M20.7866 108.678C24.8199 107.547 31.5983 116.901 29.0529 108.131C37.0292 107.706 39.265 119.078 39.6955 125.474C40.1529 132.267 37.3456 132.091 38.5367 137.418C34.218 144.69 26.3391 148.142 24.3276 149.825C21.8906 151.864 18.5696 153.392 16.3516 151.598C13.0459 148.924 11.879 150.673 12.7068 148.993C15.1474 144.039 17.6593 140.78 15.2263 124.023C13.8784 114.74 13.8432 114.461 20.7866 108.678Z" fill="#FFBF00"/>
<path fill-rule="evenodd" clip-rule="evenodd" d="M30.3029 97.6654C30.3022 98.2 29.8682 98.6326 29.3336 98.6318C28.7993 98.6308 28.3667 98.1968 28.3678 97.6625C28.3685 97.1279 28.8025 96.6953 29.3368 96.6964C29.8714 96.6971 30.3036 97.1311 30.3029 97.6654Z" fill="#FF661A"/>
<path fill-rule="evenodd" clip-rule="evenodd" d="M75.3161 151.653C75.3161 151.653 78.3448 158.788 81.3534 159.564C84.3722 160.342 78.2265 163.324 77.3563 163.031C76.4475 162.724 72.5887 158.703 71.1886 157.354C70.4567 156.648 69.9417 156.125 69.9417 156.125C71.5614 157.112 77.035 154.473 75.3161 151.653Z" fill="#755135"/>
<path fill-rule="evenodd" clip-rule="evenodd" d="M58.9329 160.886C58.9329 160.886 56.4672 163.459 56.2095 165.877C55.951 168.302 49.7022 164.541 49.8302 163.835C49.9642 163.096 52.3258 160.499 53.3321 159.358C54.5875 157.935 59.5212 158.559 58.9329 160.886Z" fill="#755135"/>
<path fill-rule="evenodd" clip-rule="evenodd" d="M89.876 161.816C87.3779 161.408 83.105 158.269 81.3665 156.889C79.4165 155.341 78.695 158.001 79.4499 160.569C79.7531 161.6 82.4037 161.956 86.9695 164.144C89.8213 165.51 92.7548 163.75 93.9626 164.205C96.8706 165.3 92.7036 162.279 89.876 161.816Z" fill="#E64D00"/>
<path fill-rule="evenodd" clip-rule="evenodd" d="M95.7115 163.764C95.415 163.464 89.876 161.816 89.876 161.816C92.0308 162.904 90.1245 164.807 88.1226 164.158C82.6867 162.397 83.1196 161.123 79.3657 159.295C77.6894 158.479 79.0853 164.21 75.3132 160.974C75.3132 160.974 72.7316 158.994 73.0632 160.058C74.4122 164.384 73.3529 166.242 77.2497 166.186C80.2259 166.143 85.038 167.001 86.9176 167.449C94.119 169.164 97.2929 165.366 95.7115 163.764Z" fill="#FF5500"/>
<path fill-rule="evenodd" clip-rule="evenodd" d="M43.551 166.732C44.1805 165.326 48.4708 163.073 49.2692 162.523C51.6937 160.853 50.5282 162.997 51.7758 164.237C52.835 165.291 56.6447 162.859 56.8744 163.909C57.1765 165.289 60.9706 166.841 63.0556 167.256C65.1809 167.679 67.4519 170.099 65.8306 171.51L43.551 166.732Z" fill="#FF5500"/>
<path fill-rule="evenodd" clip-rule="evenodd" d="M14.6024 119.218C14.6024 119.218 14.7037 120.428 15.0393 122.971C15.887 129.396 38.8658 126.863 39.689 124.938L39.3986 123.147L14.6024 119.218Z" fill="#E6AC00"/>
<path fill-rule="evenodd" clip-rule="evenodd" d="M43.4035 169.036C42.7186 166.348 44.735 164.133 48.5441 165.599C53.8328 167.635 57.0688 166.072 61.3207 167.423C67.2923 169.319 68.279 172.792 61.3452 172.69C52.829 172.564 52.535 171.406 49.4913 171.541C46.1661 171.688 44.0124 171.426 43.4035 169.036Z" fill="#F1F2F2"/>
<path fill-rule="evenodd" clip-rule="evenodd" d="M9.78182 77.3248C6.97127 76.245 4.38537 77.3575 4.38146 79.8389C4.38146 79.8389 0.617242 80.2879 1.10634 84.7968C1.10634 84.7968 -2.04579 90.3873 2.29177 93.635C2.29177 93.635 3.35919 98.4908 8.36606 97.0509C8.36606 97.0509 13.4885 100.947 15.8529 96.5064C15.8529 96.5064 20.8996 95.8715 20.3948 90.3283C20.3948 90.3283 22.7796 84.0869 19.9278 82.7177C19.9278 82.7177 18.8191 77.8356 15.5515 77.9128C15.5515 77.9128 12.2255 75.2604 9.78182 77.3248Z" fill="#231F20"/>
<path fill-rule="evenodd" clip-rule="evenodd" d="M14.576 115.315C16.2711 110.515 19.6923 113.407 25.3731 114.593C28.1741 115.177 35.4356 115.998 38.2234 117.002C39.0928 111.668 49.2341 100.22 49.2341 100.22C49.2341 100.22 56.903 95.4289 53.4402 100.685C50.4384 105.242 45.749 117.694 43.1915 122.469C41.3741 125.862 26.0986 124.793 20.8543 123.437C17.3083 122.52 12.8805 120.115 14.576 115.315Z" fill="#755135"/>
<path fill-rule="evenodd" clip-rule="evenodd" d="M37.9291 101.05C37.9291 101.05 38.8621 101.06 38.8945 101.98C38.8945 101.98 38.3112 101.779 37.9291 101.05Z" fill="#ED5F87"/>
<path fill-rule="evenodd" clip-rule="evenodd" d="M56.5874 103.198C56.688 102.415 56.2721 101.324 57.3719 99.5447C58.0046 98.5203 59.1808 97.8492 59.0844 96.978C58.8914 95.2321 61.0671 96.2017 60.9452 97.985C60.8859 98.8498 59.4601 100.535 60.8905 100.572C61.853 100.597 62.5383 100.171 63.3175 99.7925C64.7123 99.115 65.447 97.9939 67.5783 97.5574C69.7053 97.1213 70.3924 98.3767 68.4985 98.7677C67.0138 99.0741 65.9037 100.308 65.3148 100.777C67.209 99.7129 68.4196 99.0656 71.2099 99.2614C72.7988 99.373 72.6537 100.584 71.5124 100.596C68.7566 100.625 67.3433 101.702 66.4643 102.321C67.2388 102.132 69.4885 101.961 71.2462 102.082C73.1183 102.212 72.6019 103.98 70.9312 103.537C68.313 102.842 66.2354 103.929 66.2354 103.929C66.2354 103.929 68.6923 103.852 69.5798 104.634C70.7037 105.626 70.1688 106.476 68.9503 106.022C64.0227 104.189 62.5568 106.755 59.8799 106.458C57.9413 106.243 56.0965 107.024 56.5874 103.198Z" fill="#60412C"/>
<path fill-rule="evenodd" clip-rule="evenodd" d="M67.261 103.532L60.1609 102.454C59.9128 102.416 59.767 101.811 60.0446 101.616L63.6979 99.4216C63.7559 99.3814 63.8273 99.3647 63.8974 99.3758L70.9975 100.119C71.402 100.15 71.3202 100.814 71.1137 100.956L67.4607 103.485C67.4024 103.526 67.331 103.542 67.261 103.532Z" fill="#BA9B72"/>
<path fill-rule="evenodd" clip-rule="evenodd" d="M67.261 103.197L60.1609 102.119C59.9128 102.081 59.8382 101.759 60.0447 101.616L63.698 99.0874C63.7559 99.0468 63.8274 99.0305 63.8974 99.0411L70.9975 100.12C71.2456 100.157 71.3203 100.479 71.1138 100.622L67.4608 103.151C67.4025 103.191 67.3311 103.208 67.261 103.197Z" fill="#CEAE7C"/>
<path fill-rule="evenodd" clip-rule="evenodd" d="M63.0011 95.5854L55.8498 96.1925C55.5996 96.2138 55.3174 95.66 55.5417 95.4059L58.5801 92.4219C58.6273 92.3689 58.6931 92.3362 58.7635 92.3302L65.8369 91.3982C66.2375 91.3338 66.3125 91.9971 66.1451 92.1844L63.1846 95.4937C63.1373 95.5466 63.0719 95.579 63.0011 95.5854Z" fill="#BA9B72"/>
<path fill-rule="evenodd" clip-rule="evenodd" d="M62.9232 95.2602L55.7719 95.8673C55.5217 95.8886 55.3742 95.5932 55.5416 95.4059L58.5022 92.0966C58.5494 92.0437 58.6148 92.011 58.6856 92.0053L65.8369 91.3982C66.0871 91.3769 66.2346 91.6722 66.0672 91.8596L63.1067 95.1688C63.0594 95.2218 62.9936 95.2541 62.9232 95.2602Z" fill="#CEAE7C"/>
<path fill-rule="evenodd" clip-rule="evenodd" d="M62.2066 94.199C62.2169 94.2573 62.1267 94.3224 62.0051 94.3437C61.8832 94.3657 61.7762 94.3362 61.7659 94.2779C61.7552 94.2196 61.8455 94.1546 61.9674 94.1329C62.089 94.1112 62.1963 94.1407 62.2066 94.199Z" fill="#BA9B72"/>
<path fill-rule="evenodd" clip-rule="evenodd" d="M63.2011 93.1164C63.2114 93.1747 63.1211 93.2397 62.9995 93.261C62.8776 93.2831 62.7706 93.2536 62.76 93.1953C62.7496 93.137 62.8399 93.0719 62.9619 93.0503C63.0834 93.0286 63.1908 93.0581 63.2011 93.1164Z" fill="#BA9B72"/>
<path fill-rule="evenodd" clip-rule="evenodd" d="M64.0437 92.0621C64.054 92.1204 63.9637 92.1855 63.8421 92.2068C63.7202 92.2288 63.6132 92.1993 63.6029 92.1411C63.5922 92.0828 63.6825 92.0177 63.8044 91.9957C63.926 91.9743 64.0334 92.0038 64.0437 92.0621Z" fill="#BA9B72"/>
<path fill-rule="evenodd" clip-rule="evenodd" d="M59.74 94.5146C59.7503 94.5729 59.66 94.6379 59.5384 94.6592C59.4165 94.6813 59.3095 94.6518 59.2992 94.5935C59.2885 94.5352 59.3788 94.4701 59.5007 94.4485C59.6223 94.4268 59.7296 94.4563 59.74 94.5146Z" fill="#BA9B72"/>
<path fill-rule="evenodd" clip-rule="evenodd" d="M60.7345 93.4319C60.7448 93.4902 60.6545 93.5553 60.533 93.5766C60.4111 93.5986 60.3041 93.5691 60.2934 93.5108C60.2831 93.4525 60.3734 93.3875 60.4953 93.3658C60.6169 93.3441 60.7242 93.3736 60.7345 93.4319Z" fill="#BA9B72"/>
<path fill-rule="evenodd" clip-rule="evenodd" d="M61.5771 92.3777C61.5874 92.436 61.4971 92.501 61.3756 92.5224C61.2537 92.5444 61.1467 92.5149 61.1364 92.4566C61.1257 92.3983 61.216 92.3333 61.3379 92.3112C61.4595 92.2899 61.5668 92.3194 61.5771 92.3777Z" fill="#BA9B72"/>
<path fill-rule="evenodd" clip-rule="evenodd" d="M57.5933 94.7323C57.6037 94.7906 57.5134 94.8556 57.3918 94.8773C57.2699 94.899 57.1629 94.8695 57.1526 94.8112C57.1419 94.7529 57.2322 94.6878 57.3541 94.6662C57.4757 94.6445 57.583 94.674 57.5933 94.7323Z" fill="#BA9B72"/>
<path fill-rule="evenodd" clip-rule="evenodd" d="M58.5879 93.6495C58.5982 93.7078 58.5079 93.7728 58.3864 93.7945C58.2645 93.8162 58.1575 93.7867 58.1468 93.7284C58.1365 93.6701 58.2268 93.6051 58.3487 93.5834C58.4703 93.5617 58.5776 93.5912 58.5879 93.6495Z" fill="#BA9B72"/>
<path fill-rule="evenodd" clip-rule="evenodd" d="M59.4305 92.5954C59.4408 92.6537 59.3505 92.7187 59.229 92.7401C59.107 92.7621 59.0001 92.7326 58.9897 92.6743C58.9791 92.616 59.0694 92.551 59.1913 92.5293C59.3129 92.5076 59.4202 92.5371 59.4305 92.5954Z" fill="#BA9B72"/>
<path fill-rule="evenodd" clip-rule="evenodd" d="M51.6704 103.535C52.548 101.498 57.064 97.7406 57.8485 96.8036C59.3066 95.0619 57.7724 94.7484 57.0356 95.1714C55.9348 95.8031 55.5367 96.8943 55.0408 97.0567C54.0711 97.3749 53.329 95.7419 53.6439 95.0136C54.0146 94.1562 54.6683 93.2221 55.0085 93.1098C55.4638 92.9587 55.9454 93.4713 56.672 94.0326C57.3025 94.5195 58.5093 94.019 57.6779 93.2044C56.527 92.0762 55.3863 91.3265 54.7803 91.4637C54.3008 91.5721 53.801 91.8675 53.2497 92.5439C52.5409 93.4137 52.2985 93.8687 52.1357 93.9369C51.7703 94.0905 51.5531 90.8818 51.7973 88.8696C51.9665 87.4738 50.4157 87.3327 50.255 88.8522C49.9525 91.709 50.7146 94.9549 50.4694 95.0072C50.3005 95.0431 49.4084 92.4529 49.1016 90.0057C48.963 88.9013 47.4022 89.0125 47.6929 90.5339C48.0783 92.5496 49.1158 95.7472 48.8364 95.8994C48.6424 96.0046 47.5163 93.0273 47.0809 92.2361C46.3973 90.9942 45.3694 91.8771 45.8283 92.7408C47.6219 96.1169 48.0879 97.2732 48.5826 99.3789C49.2843 102.366 50.3908 106.505 51.6704 103.535Z" fill="#755135"/>
<path fill-rule="evenodd" clip-rule="evenodd" d="M66.7598 102.546L61.7451 101.784C61.5699 101.758 61.4671 101.331 61.663 101.193L64.2432 99.6435C64.2844 99.6151 64.3345 99.6034 64.384 99.6108L69.3986 100.136C69.6848 100.158 69.6268 100.627 69.4808 100.727L66.9009 102.513C66.8597 102.542 66.8092 102.554 66.7598 102.546Z" fill="#755135"/>
<path fill-rule="evenodd" clip-rule="evenodd" d="M66.7597 102.31L61.745 101.548C61.5698 101.522 61.5172 101.295 61.6629 101.193L64.2431 99.4072C64.2843 99.3788 64.3345 99.3674 64.3839 99.3745L69.3986 100.136C69.5742 100.163 69.6268 100.39 69.4807 100.491L66.9008 102.277C66.8596 102.306 66.8091 102.318 66.7597 102.31Z" fill="#755135"/>
<path fill-rule="evenodd" clip-rule="evenodd" d="M67.6489 100.753C67.6489 101.14 66.777 101.454 65.7014 101.454C64.6255 101.454 63.7535 101.14 63.7535 100.753C63.7535 100.366 64.6255 100.052 65.7014 100.052C66.777 100.052 67.6489 100.366 67.6489 100.753Z" fill="#FFF0CA"/>
<mask id="mask1" style="mask-type:alpha" maskUnits="userSpaceOnUse" x="0" y="50" width="300" height="123">
<path fill-rule="evenodd" clip-rule="evenodd" d="M0 172.692H299.806V50.3555H0V172.692Z" fill="white"/>
</mask>
<g mask="url(#mask1)">
<path fill-rule="evenodd" clip-rule="evenodd" d="M63.7532 100.753H67.6486V97.5212H63.7532V100.753Z" fill="#FFF0CA"/>
<path fill-rule="evenodd" clip-rule="evenodd" d="M67.6489 97.5213C67.6489 97.9084 66.777 98.2219 65.7014 98.2219C64.6255 98.2219 63.7535 97.9084 63.7535 97.5213C63.7535 97.1345 64.6255 96.8207 65.7014 96.8207C66.777 96.8207 67.6489 97.1345 67.6489 97.5213Z" fill="#FFF0CA"/>
<path fill-rule="evenodd" clip-rule="evenodd" d="M13.2757 147.86C13.2757 147.86 16.1392 151.725 22.0805 150.003C29.9893 147.711 37.0261 139.351 38.5364 137.417C38.5364 137.417 35.5062 141.478 34.2703 144.691C32.947 148.131 25.7608 149.035 23.9207 151.553C22.0805 154.071 16.9535 153.974 15.6113 152.65C14.2691 151.327 11.7511 152.65 11.6544 151.294C11.5578 149.939 13.2757 147.86 13.2757 147.86Z" fill="#E6AC00"/>
<path fill-rule="evenodd" clip-rule="evenodd" d="M286.205 130.674C286.205 130.674 287.732 141.709 283.225 147.527C279.462 152.385 246.889 147.716 243.805 146.748C240.722 145.781 237.683 141.309 243.805 141.299C249.928 141.288 268.392 138.742 268.392 138.742L286.205 130.674Z" fill="#231F20"/>
<path fill-rule="evenodd" clip-rule="evenodd" d="M266.925 128.44C266.925 128.44 238.716 125.193 237.654 133.456C236.458 142.769 258.334 151.708 266.587 154.114C272.764 155.915 273.196 149.781 270.613 148.127C265.811 145.05 266.735 143.518 264.916 140.738C263.098 137.958 271.78 144.033 280.782 138.577C289.784 133.121 286.205 130.674 286.205 130.674" fill="#231F20"/>
<path fill-rule="evenodd" clip-rule="evenodd" d="M242.046 72.8442C242.046 72.8442 243.727 82.0152 246.396 91.7019C251.161 95.2849 251.711 96.2766 254.996 97.4041C263.056 100.17 260.217 108.214 252.326 105.275C249.511 104.226 240.963 99.7678 240.019 94.6348C238.03 83.8333 236.542 75.0096 236.542 75.0096" fill="#A57955"/>
<path fill-rule="evenodd" clip-rule="evenodd" d="M268.222 97.2863C273.711 98.2684 284.778 107.929 284.816 108.115C285.318 110.567 285.492 126.147 286.004 130.706C286.298 133.324 272.974 139.423 265.408 128.61C266.682 121.296 263.024 119.166 262.132 111.293C261.956 109.737 260.521 109.582 259.001 109.203C256.955 108.694 249.907 105.179 247.984 104.762C247.68 104.697 247.439 104.473 247.352 104.174C246.844 102.42 245.69 97.2265 251.216 94.5262C251.375 94.4487 255.389 97.9225 261.071 98.3547C266.754 98.787 268.222 97.2863 268.222 97.2863Z" fill="#0FBD8C"/>
<path fill-rule="evenodd" clip-rule="evenodd" d="M265.458 95.9627C265.458 95.9627 265.029 98.5795 264.929 103.42C264.828 108.26 271.878 104.731 272.438 101.198C272.998 97.6643 268.465 98.9521 269.943 92.7192" fill="#A57955"/>
<path fill-rule="evenodd" clip-rule="evenodd" d="M268.909 133.495C268.8 134.182 269.308 134.883 270.241 135.348L298.872 150.014C299.931 150.542 300.119 151.456 299.285 152.022C298.451 152.589 296.932 152.579 295.945 152.002L268.397 136.601C267.528 136.093 266.32 135.867 265.207 136.01C262.87 136.311 259.879 135.761 257.44 134.443C253.947 132.555 252.91 129.806 255.123 128.303C257.337 126.799 261.963 127.11 265.456 128.999C267.894 130.317 269.136 132.054 268.909 133.495Z" fill="#CEAE7C"/>
<path fill-rule="evenodd" clip-rule="evenodd" d="M264.617 129.568C267.379 131.061 268.2 133.235 266.45 134.424C264.699 135.613 261.041 135.366 258.279 133.874C255.516 132.381 254.696 130.207 256.446 129.017C258.197 127.828 261.855 128.075 264.617 129.568Z" fill="#AF916B"/>
<path fill-rule="evenodd" clip-rule="evenodd" d="M265.478 103.813C264.549 106.211 265.912 115.138 267.749 117.905C271.033 122.851 270.045 130.503 269.129 132.398C269.129 132.398 270.474 133.247 270.917 133.453C271.36 133.659 272.486 123.532 269.401 117.75C265.439 110.327 267.413 104.123 267.413 104.123L265.478 103.813Z" fill="#0B8E69"/>
<path fill-rule="evenodd" clip-rule="evenodd" d="M274.734 113.055L278.505 114.572L285.489 120.934C285.489 120.934 286.209 127.857 286.004 130.706C285.866 132.615 283.053 133.648 281.543 134.002C281.118 134.101 284.381 129.199 283.75 124.692C282.7 117.186 278.993 115.003 274.734 113.055Z" fill="#0DA57A"/>
<path fill-rule="evenodd" clip-rule="evenodd" d="M264.928 99.0719C264.928 99.0719 262.083 103.044 264.436 105.968L266.263 103.916C266.263 103.916 264.368 101.53 265.478 99.2521L264.928 99.0719Z" fill="#0DA57A"/>
<path fill-rule="evenodd" clip-rule="evenodd" d="M267.529 106.91L266.263 103.916C268.199 103.581 272.779 99.68 271.258 98.3701C271.258 98.3701 272.409 98.7931 273.065 100.006C273.721 101.219 272.724 103.572 271.014 105.013C269.317 106.443 267.529 106.91 267.529 106.91Z" fill="#0DA57A"/>
<path fill-rule="evenodd" clip-rule="evenodd" d="M294.914 147.875C293.55 151.54 292.431 152.851 291.126 152.455C289.82 152.059 290.29 150.971 290.29 150.971C290.29 150.971 289.653 151.357 288.777 150.741C287.902 150.126 288.364 149.417 288.364 149.417C288.364 149.417 287.654 149.871 286.691 149.309C285.727 148.746 286.101 147.898 286.101 147.898C286.101 147.898 285.251 148.284 284.52 147.739C283.42 146.917 285.544 144.951 286.384 143.926C287.626 142.408 284.078 144.236 282.705 142.997C281.331 141.757 282.093 140.492 282.654 140.655C283.215 140.818 284.548 141.457 286.112 141.158C288.688 140.664 288.976 139.721 291.595 140.047C295.451 140.526 296.19 144.449 294.914 147.875Z" fill="#B5875C"/>
<path fill-rule="evenodd" clip-rule="evenodd" d="M259.117 83.4769C259.323 84.4114 259.48 87.0129 259.107 89.2028C258.807 90.9648 258.95 92.7776 259.589 94.4464C261.091 98.3688 263.155 100.072 264.895 100.296C266.867 100.55 274.652 96.7071 275.818 91.1464C275.818 91.1464 280.307 87.8909 280.773 83.3749C281.086 80.3454 279.605 75.566 273.716 73.8982C264.311 71.2348 258.063 78.6875 259.117 83.4769Z" fill="#B5875C"/>
<path fill-rule="evenodd" clip-rule="evenodd" d="M278.718 89.7966C284.422 86.1407 279.254 77.3974 279.96 75.6045C280.665 73.8116 275.921 70.3463 273.944 71.4752C271.966 72.6038 268.059 71.9149 263.888 74.4841C258.779 77.6313 259.783 79.3634 259.783 79.3634C259.783 79.3634 271.402 81.5053 275.532 86.4774C279.662 91.4498 278.718 89.7966 278.718 89.7966Z" fill="#FFBF00"/>
<path fill-rule="evenodd" clip-rule="evenodd" d="M258.599 82.7722C258.599 82.7722 263.854 81.2327 270.204 84.7019C276.018 87.8789 275.818 91.1466 276.476 91.5618C277.182 92.0068 279.851 90.6749 279.665 89.8218C279.481 88.9688 277.35 82.9744 271.392 80.2727C264.659 77.2194 259.729 77.6654 258.282 79.0257C257.15 80.091 257.66 83.0832 258.599 82.7722Z" fill="#E6AC00"/>
<path fill-rule="evenodd" clip-rule="evenodd" d="M258.255 82.5407C258.255 82.5407 257.514 82.8346 257.061 82.3274C256.423 81.6129 256.756 84.5159 258.409 84.0417C260.062 83.5672 260.433 82.9665 260.433 82.9665C260.433 82.9665 259.936 83.6596 259.258 84.1114C258.701 84.4814 261.681 84.5554 262.917 82.4817C262.917 82.4817 260.286 82.0263 258.255 82.5407Z" fill="#473425"/>
<path fill-rule="evenodd" clip-rule="evenodd" d="M274.666 89.4498C274.666 89.4498 274.59 89.9524 275.23 91.1176C275.869 92.2827 277.159 92.5426 276.894 92.2788C276.628 92.0154 276.445 91.8903 276.125 91.0461C275.805 90.2023 275.21 88.7581 274.695 88.3639C274.179 87.9701 274.666 89.4498 274.666 89.4498Z" fill="#473425"/>
<path fill-rule="evenodd" clip-rule="evenodd" d="M259.319 79.1084C258.207 79.3355 258.679 82.0512 259.36 81.9019C260.041 81.7522 259.821 79.0057 259.319 79.1084Z" fill="#FFBF00"/>
<path fill-rule="evenodd" clip-rule="evenodd" d="M261.169 78.9306C260.057 79.1581 260.529 81.8738 261.21 81.7241C261.891 81.5745 261.671 78.8283 261.169 78.9306Z" fill="#FFBF00"/>
<path fill-rule="evenodd" clip-rule="evenodd" d="M263.216 78.8855C262.091 79.0284 262.358 81.7721 263.048 81.6744C263.738 81.5763 263.725 78.8208 263.216 78.8855Z" fill="#FFBF00"/>
<path fill-rule="evenodd" clip-rule="evenodd" d="M265.417 79.1549C264.282 79.1738 264.247 81.9306 264.944 81.9086C265.641 81.8866 265.929 79.1464 265.417 79.1549Z" fill="#FFBF00"/>
<path fill-rule="evenodd" clip-rule="evenodd" d="M274.364 83.2206C273.37 82.6736 271.97 85.049 272.586 85.3761C273.202 85.7031 274.813 83.4677 274.364 83.2206Z" fill="#FFBF00"/>
<path fill-rule="evenodd" clip-rule="evenodd" d="M276.106 84.9469C275.151 84.3334 273.594 86.6083 274.186 86.9766C274.778 87.3448 276.537 85.2238 276.106 84.9469Z" fill="#FFBF00"/>
<path fill-rule="evenodd" clip-rule="evenodd" d="M277.681 86.9369C276.854 86.1595 274.908 88.112 275.423 88.5823C275.938 89.0522 278.055 87.2881 277.681 86.9369Z" fill="#FFBF00"/>
<path fill-rule="evenodd" clip-rule="evenodd" d="M278.878 89.0929C278.214 88.1723 275.932 89.7199 276.349 90.2794C276.765 90.8385 279.178 89.5084 278.878 89.0929Z" fill="#FFBF00"/>
<path fill-rule="evenodd" clip-rule="evenodd" d="M267.868 79.6836C266.737 79.5887 266.427 82.3281 267.122 82.3761C267.818 82.4241 268.379 79.7266 267.868 79.6836Z" fill="#FFBF00"/>
<path fill-rule="evenodd" clip-rule="evenodd" d="M269.971 80.5632C268.851 80.3805 268.327 83.0872 269.017 83.1896C269.707 83.2916 270.477 80.6456 269.971 80.5632Z" fill="#FFBF00"/>
<path fill-rule="evenodd" clip-rule="evenodd" d="M272.296 81.7104C271.219 81.3514 270.271 83.9398 270.936 84.1505C271.6 84.3617 272.782 81.8725 272.296 81.7104Z" fill="#FFBF00"/>
<path fill-rule="evenodd" clip-rule="evenodd" d="M274.594 91.807C275.184 91.9051 275.778 91.0591 276.445 90.1687C277.458 88.8166 276.755 86.9835 275.499 86.1095C274.022 85.0815 272.66 86.8552 272.91 87.8217C273.082 88.4864 273.543 88.0947 273.522 89.9555C273.51 91.0947 273.972 91.7032 274.594 91.807Z" fill="#A57955"/>
<path fill-rule="evenodd" clip-rule="evenodd" d="M262.244 85.4669C261.193 84.8153 259.196 85.4356 259.41 85.7541C259.654 86.1145 262.467 86.5066 262.76 86.1476C262.877 86.004 262.537 85.6482 262.244 85.4669Z" fill="#473425"/>
<path fill-rule="evenodd" clip-rule="evenodd" d="M266.703 86.0421C267.846 85.8967 269.995 86.9456 269.625 87.182C269.206 87.45 265.998 87.0317 265.853 86.5223C265.795 86.3176 266.313 86.0918 266.703 86.0421Z" fill="#473425"/>
<path fill-rule="evenodd" clip-rule="evenodd" d="M266.069 95.2265C266.164 95.196 266.262 95.2653 266.263 95.3648C266.265 95.7497 266.085 96.563 264.566 96.659C263.137 96.7493 262.729 95.9353 262.613 95.4636C262.584 95.3417 262.709 95.2415 262.822 95.2955C263.089 95.4234 263.573 95.5777 264.311 95.5358C265.161 95.4874 265.783 95.3189 266.069 95.2265Z" fill="white"/>
<path d="M264.116 88.2974C264.116 88.2974 264.029 90.402 263.057 91.3098C262.084 92.2173 262.927 93.1468 263.835 93.1681" stroke="#A57955" stroke-width="0.5" stroke-linecap="round" stroke-linejoin="round"/>
<path fill-rule="evenodd" clip-rule="evenodd" d="M267.645 89.3775C267.645 89.8822 267.335 90.2917 266.954 90.2917C266.572 90.2917 266.263 89.8822 266.263 89.3775C266.263 88.8724 266.572 88.4633 266.954 88.4633C267.335 88.4633 267.645 88.8724 267.645 89.3775Z" fill="#231F20"/>
<path fill-rule="evenodd" clip-rule="evenodd" d="M261.762 88.6354C261.762 89.1401 261.423 89.6015 261.041 89.6015C260.66 89.6015 260.38 89.1401 260.38 88.6354C260.38 88.1303 260.689 87.7212 261.071 87.7212C261.453 87.7212 261.762 88.1303 261.762 88.6354Z" fill="#231F20"/>
<path fill-rule="evenodd" clip-rule="evenodd" d="M288.555 145.069C288.486 141.727 289.332 128.05 289.951 125.233C288.241 122.858 281.178 117.624 279.997 115.892C277.228 111.83 282.245 106.193 284.816 108.115C290.276 112.198 295.475 118.962 295.973 123.437C296.735 130.272 294.544 141.903 294.544 141.903" fill="#B5875C"/>
<path fill-rule="evenodd" clip-rule="evenodd" d="M232.16 72.5686C232.16 72.5686 225.561 81.1869 223.6 82.3769C221.566 82.7295 215.475 81.2029 215.475 81.2029C215.475 81.2029 210.59 88.1757 212.918 91.2966C219.829 90.0689 224.675 90.3927 226.885 89.2965C229.191 88.1526 237.705 77.568 237.607 72.8441C237.509 68.1198 232.16 72.5686 232.16 72.5686Z" fill="#414042"/>
<path fill-rule="evenodd" clip-rule="evenodd" d="M227.133 69.7399C229.153 70.1974 229.429 70.7707 231.405 72.9308C234.768 76.6069 239.094 74.9135 239.286 67.4345C239.29 67.2884 239.284 67.1459 239.269 67.0072C239.648 65.2581 239.978 62.8776 239.761 61.3712C239.562 59.9892 238.289 60.0632 238.26 61.1963C238.232 62.2424 238.394 64.9168 238.217 64.7796C238.063 64.6606 238.148 60.0774 237.54 58.4768C236.982 57.0088 235.637 57.3486 235.888 58.5905C236.172 59.9995 236.73 63.4869 236.51 63.3326C236.27 63.1645 235.938 59.3398 234.881 56.9658C234.11 55.2329 231.893 55.7722 232.697 57.4691C234.486 61.2461 235.01 63.9479 234.62 63.9077C234.293 63.8736 234.364 61.6136 232.286 57.9273C231.25 56.0899 229.422 56.7546 230.355 58.5361C231.531 60.7812 232.327 63.2068 232.457 65.6085C232.546 67.2866 232.433 69.4982 230.737 68.2808C227.212 65.7489 225.271 69.318 227.133 69.7399Z" fill="#ECC293"/>
<path fill-rule="evenodd" clip-rule="evenodd" d="M232.16 72.5687C233.248 72.4873 234.609 72.3479 235.353 74.085C236.572 76.9339 243.081 77.6669 242.958 71.0484C242.94 70.0908 243.554 67.1857 244.51 65.0886C245.105 63.7837 244.015 63.2523 243.354 64.4697C242.836 65.4227 242.336 68.0868 242.264 67.8952C242.191 67.7032 242.347 64.6482 243.719 62.315C244.606 60.8057 243.208 59.9487 242.362 61.3268C241.249 63.1396 240.863 66.703 240.738 66.4951C240.601 66.2683 240.63 63.129 241.974 60.1766C242.762 58.4459 240.884 57.9081 240.087 59.7348C238.606 63.1297 239.171 66.5459 238.859 66.4016C238.597 66.28 238.091 63.0931 239.45 59.3278C239.991 57.8281 237.898 57.612 237.214 59.4429C236.277 61.9524 236.402 64.1562 236.502 66.6657C236.594 68.9658 236.442 70.3286 234.589 70.0147C230.732 69.3621 230.441 72.697 232.16 72.5687Z" fill="#A57955"/>
<path fill-rule="evenodd" clip-rule="evenodd" d="M266.587 154.114L274.872 158.192L279.492 154.243C279.492 154.243 273.02 149.827 272.536 149.329C270.665 147.404 264.919 150.948 266.587 154.114Z" fill="#FFBF00"/>
<path fill-rule="evenodd" clip-rule="evenodd" d="M280.774 155.311C280.103 153.812 277.583 153.227 276.974 152.392C275.784 150.759 273.039 150.657 271.709 151.979C270.58 153.102 269.506 152.518 268.69 153.321C267.142 154.844 266.379 157.201 264.232 157.927C263.176 158.284 258.221 161.156 258.891 163.821L280.774 155.311Z" fill="#B5875C"/>
<path fill-rule="evenodd" clip-rule="evenodd" d="M280.932 156.091C280.711 153.142 279.228 153.281 275.168 154.844C274.4 155.139 274.292 153.982 273.642 154.257C269.525 156.004 267.176 158.07 263.261 159.314C257.367 161.185 257.344 166.174 263.244 166.088C272.323 165.954 271.296 161.132 274.442 160.438C275.563 161.821 281.192 159.575 280.932 156.091Z" fill="#F1F2F2"/>
<path fill-rule="evenodd" clip-rule="evenodd" d="M274.827 154.881C274.827 154.881 275.28 160.907 275.786 160.846C275.786 160.846 275.058 160.931 274.442 160.438L273.643 154.257C273.643 154.257 273.904 154.07 274.252 154.444C274.6 154.818 274.659 154.875 274.827 154.881Z" fill="#231F20" fill-opacity="0.2"/>
<path fill-rule="evenodd" clip-rule="evenodd" d="M249.84 105.642C250.434 105.245 247.515 103.065 249.657 98.7805C251.799 94.4963 253.907 96.6659 254.225 96.1221C254.356 95.8996 252.832 94.1348 251.851 93.8252C250.87 93.5156 246.177 95.735 246.173 101C246.168 107.401 249.84 105.642 249.84 105.642Z" fill="#0DA57A"/>
<path fill-rule="evenodd" clip-rule="evenodd" d="M282.062 118.413C282.656 118.016 281.039 116.341 283.183 112.058C284.995 108.44 286.228 109.82 286.546 109.276C286.676 109.053 285.389 107.003 284.361 107.039C283.333 107.075 279.664 107.711 279.187 111.857C278.456 118.215 282.062 118.413 282.062 118.413Z" fill="#0DA57A"/>
<path fill-rule="evenodd" clip-rule="evenodd" d="M177.28 126.113C176.271 126.354 175.208 126.95 173.122 126.4C171.241 125.904 170.334 125.989 168.976 125.666C167.824 125.393 167.063 125.123 165.366 124.66C165.366 125.617 168.407 128.127 170.21 128.26C173.534 128.873 174.155 129.067 175.504 130.293C176.252 130.974 177.718 131.437 177.152 130.327C176.533 129.111 176.718 126.249 179.415 126.476C179.745 125.243 177.28 126.113 177.28 126.113Z" fill="#F1F2F2"/>
<path fill-rule="evenodd" clip-rule="evenodd" d="M179.12 125.05C177.856 124.095 174.272 125.516 172.251 124.414C170.528 123.475 167.518 123.858 166.104 124.145V124.027H165.337V124.556H165.337C165.334 125.106 167.999 125.809 167.999 125.809C167.999 125.809 171.746 127.124 174.296 127.084C176.59 127.047 178.881 125.967 179.405 125.704H179.518V125.05H179.12Z" fill="#F1F2F2"/>
<path fill-rule="evenodd" clip-rule="evenodd" d="M166.103 123.627C167.516 123.34 170.527 122.955 172.251 123.895C174.571 125.16 178.956 123.098 179.518 125.128C179.518 125.128 176.908 126.523 174.296 126.565C171.746 126.605 167.999 125.29 167.999 125.29C167.999 125.29 163.61 124.133 166.103 123.627Z" fill="#C49A6C"/>
<path fill-rule="evenodd" clip-rule="evenodd" d="M210.273 108.097C214.345 107.999 223.013 111.579 226.751 113.503C230.868 115.622 226.751 129.9 227.733 132.911C230.346 140.919 220.938 140.401 220.35 138.554C219.097 134.626 216.441 129.676 218.575 120.867C218.575 120.867 208.59 120.769 204.082 116.709C201.826 127.488 204.309 132.856 200.208 137.493C196.72 141.437 179.487 133.124 177.681 131.413C175.207 129.07 176.8 124.819 180.483 126.619C182.487 127.599 187.645 128.346 189.46 128.798C190.802 129.133 191.077 130.052 191.17 128.486C191.304 126.237 192.909 124.879 191.822 119.763C190.404 113.087 191.358 106.239 192.958 103.813" fill="#B5875C"/>
<path fill-rule="evenodd" clip-rule="evenodd" d="M189.407 83.9295C189.407 83.9295 189 81.9912 192.271 81.5234C196.245 80.9561 200.857 76.2208 215.475 81.2028C220.601 82.9498 214.569 91.503 212.918 91.2969C212.918 91.2969 208.516 107.371 210.306 110.33C212.095 113.29 197.38 116.399 193.795 115.36C190.209 114.322 191.188 89.2491 191.188 89.2491L189.407 83.9295Z" fill="#414042"/>
<path fill-rule="evenodd" clip-rule="evenodd" d="M186.894 127.756L187.871 128.536L214.498 95.1798L213.522 94.3999L186.894 127.756Z" fill="#535354"/>
<path fill-rule="evenodd" clip-rule="evenodd" d="M214.498 95.1796C218.279 98.1978 215.384 108.112 208.031 117.323C200.677 126.535 191.652 131.555 187.87 128.537C184.089 125.518 186.985 115.604 194.338 106.393C201.691 97.1815 210.717 92.1612 214.498 95.1796Z" fill="#535354"/>
<path fill-rule="evenodd" clip-rule="evenodd" d="M213.521 94.4C217.303 97.4181 214.407 107.332 207.054 116.543C199.701 125.755 190.675 130.775 186.894 127.757C183.113 124.738 186.008 114.824 193.361 105.613C200.714 96.4019 209.74 91.3815 213.521 94.4Z" fill="#404041"/>
<path fill-rule="evenodd" clip-rule="evenodd" d="M212.692 95.4386C216.112 98.1688 213.295 107.384 206.4 116.021C199.505 124.659 191.143 129.448 187.723 126.718C184.303 123.988 187.12 114.773 194.015 106.135C200.91 97.4973 209.272 92.7084 212.692 95.4386Z" fill="#535354"/>
<path d="M196.333 115.932L195.138 114.978C194.238 114.26 194.091 112.949 194.809 112.049L199.959 105.599C200.677 104.699 201.988 104.552 202.888 105.27L204.083 106.224" stroke="#404041" stroke-width="1.06635" stroke-linecap="round" stroke-linejoin="round"/>
<path fill-rule="evenodd" clip-rule="evenodd" d="M230.183 57.2322C230.42 56.7268 231.567 57.3712 232.146 58.4183C233.604 61.0544 233.886 63.9154 234.62 63.9076C234.62 63.9076 234.526 63.9588 234.39 63.4007C234.254 62.8426 233.791 61.161 233.51 60.4832C233.228 59.806 232.449 57.4618 231.328 56.9518C230.478 56.565 230.183 57.2322 230.183 57.2322Z" fill="#ECC293"/>
<path fill-rule="evenodd" clip-rule="evenodd" d="M233.453 55.9027C233.907 56.1785 234.362 56.5052 235.039 58.7214C235.715 60.9377 235.887 63.3377 236.51 63.3323C236.51 63.3323 236.425 63.2751 236.267 62.4092C236.108 61.5426 235.74 59.4942 235.45 58.5807C235.16 57.6668 234.922 56.0733 233.453 55.9027Z" fill="#ECC293"/>
<path fill-rule="evenodd" clip-rule="evenodd" d="M192.789 108.23C192.789 108.23 177.382 104.762 176.822 100.005C176.009 93.1024 188.778 82.7221 190.76 81.9338C193.482 80.8518 195.335 89.1135 192.185 91.7957C191.125 92.6979 185.911 97.7634 185.989 98.058C188.351 98.4618 193.581 102.534 195.507 103.721C197.327 104.844 192.789 108.23 192.789 108.23Z" fill="#414042"/>
<path fill-rule="evenodd" clip-rule="evenodd" d="M193.392 110.004C195.014 112.454 196.056 113.222 196.944 112.71C197.831 112.198 197.262 111.481 197.262 111.481C197.262 111.481 197.967 111.577 198.502 110.977C199.038 110.377 198.34 109.809 198.34 109.809C198.34 109.809 199.175 110 199.784 109.424C200.394 108.849 199.876 108.413 199.876 108.413C199.876 108.413 200.532 108.659 200.974 108.135C201.64 107.346 199.75 106.269 198.961 105.662C197.794 104.763 200.701 105.496 201.495 104.356C202.29 103.215 201.516 102.419 201.134 102.633C200.751 102.848 199.884 103.543 198.689 103.59C196.72 103.667 196.349 103.026 194.487 103.71C191.748 104.718 191.874 107.714 193.392 110.004Z" fill="#ECC293"/>
<path fill-rule="evenodd" clip-rule="evenodd" d="M188.754 91.6334C189.732 90.9744 190.09 90.8934 190.185 92.3362C190.281 93.7786 191.634 89.3152 191.634 89.3152H188.923L188.754 91.6334Z" fill="#414042"/>
<path fill-rule="evenodd" clip-rule="evenodd" d="M197.225 76.6609C197.225 76.6609 197.965 80.1173 197.225 80.8456C196.486 81.5739 198.964 83.5698 201.751 83.2947C204.538 83.0195 205.426 81.1207 204.366 80.2261C203.307 79.3321 202.921 77.6992 202.921 76.839C202.921 75.9788 197.052 75.6734 197.225 76.6609Z" fill="#E8B182"/>
<path fill-rule="evenodd" clip-rule="evenodd" d="M199.619 54.8534C199.619 54.8534 191.529 54.4727 190.771 65.2358C190.112 74.6051 199.684 80.0264 202.455 80.2215C205.139 80.4103 212.549 76.1228 209.992 70.511C211.813 56.9093 206.263 55.3208 199.619 54.8534Z" fill="#ECC293"/>
<path d="M206.062 72.4648C207.8 72.5047 208.819 70.383 207.525 70.1861C206.11 69.9703 205.693 68.8293 205.903 66.5718" stroke="#E8B182" stroke-width="0.5" stroke-linecap="round" stroke-linejoin="round"/>
<path fill-rule="evenodd" clip-rule="evenodd" d="M203.285 69.2772C203.255 69.6992 202.973 70.0226 202.654 70.0002C202.335 69.9778 202.101 69.6178 202.13 69.1959C202.16 68.7743 202.443 68.4508 202.761 68.4729C203.08 68.4956 203.314 68.8553 203.285 69.2772Z" fill="#231F20"/>
<path fill-rule="evenodd" clip-rule="evenodd" d="M209.551 68.1869C209.521 68.6085 209.239 68.9323 208.92 68.9096C208.601 68.8872 208.367 68.5271 208.396 68.1056C208.426 67.684 208.709 67.3602 209.027 67.3826C209.346 67.4053 209.58 67.765 209.551 68.1869Z" fill="#231F20"/>
<path fill-rule="evenodd" clip-rule="evenodd" d="M199.261 66.0865C199.46 66.3755 199.841 66.4924 200.161 66.3485C201.132 65.9138 202.47 66.0983 202.287 65.5004C202.08 64.8225 199.456 64.6082 199.162 65.3397C199.044 65.6337 199.123 65.8875 199.261 66.0865Z" fill="#A57955"/>
<path fill-rule="evenodd" clip-rule="evenodd" d="M209.56 65.1555C209.439 65.393 209.164 65.5192 208.908 65.4438C208.135 65.2149 207.146 65.489 207.224 65.0208C207.311 64.4901 209.263 64.0632 209.558 64.584C209.677 64.7926 209.642 64.9917 209.56 65.1555Z" fill="#A57955"/>
<path fill-rule="evenodd" clip-rule="evenodd" d="M203.402 75.2921C204.285 75.8459 206.832 75.5342 207.856 74.7949C209.149 73.8618 207.903 77.6982 205.104 77.9502C202.305 78.2022 202.518 74.7387 203.402 75.2921Z" fill="#231F20"/>
<path fill-rule="evenodd" clip-rule="evenodd" d="M207.856 74.7947C207.856 74.7947 207.105 76.2108 205.389 76.4955C203.674 76.7802 203.53 75.3606 203.53 75.3606C203.53 75.3606 204.619 75.6844 205.662 75.5177C206.684 75.3549 207.856 74.7947 207.856 74.7947Z" fill="white"/>
<path fill-rule="evenodd" clip-rule="evenodd" d="M194.229 56.0259C194.229 56.0259 193.181 55.4697 191.5 56.8303C189.693 58.2934 188.427 63.2039 190.268 67.041C192.109 70.8781 191.058 72.6902 193.339 71.8332C194.421 71.4262 191.024 66.3294 195.795 65.9451C198.803 65.7031 195.702 60.0923 200.361 63.3112C203.507 65.4845 212.817 64.208 212.649 61.4227C212.48 58.6378 211.168 60.2249 209.443 56.3444C207.718 52.4636 198.622 47.8783 194.229 56.0259Z" fill="#A57955"/>
<path fill-rule="evenodd" clip-rule="evenodd" d="M196.228 67.1535C196.435 66.8351 196.357 66.4043 196.034 66.2031C195.48 65.859 194.541 65.6443 193.397 66.8422C192 68.3038 193.182 71.2988 194.998 71.7094C195.48 71.8185 195.898 71.3592 195.783 70.8783C195.685 70.4688 195.59 69.9097 195.57 69.2312C195.544 68.3756 195.926 67.6153 196.228 67.1535Z" fill="#E8B182"/>
<path fill-rule="evenodd" clip-rule="evenodd" d="M242.294 161.343C242.294 165.912 234.576 169.616 225.055 169.616C215.533 169.616 207.815 165.912 207.815 161.343C207.815 156.774 215.533 153.07 225.055 153.07C234.576 153.07 242.294 156.774 242.294 161.343Z" fill="#404041"/>
<path fill-rule="evenodd" clip-rule="evenodd" d="M203.969 145.089L207.847 161.837L242.2 162.21L246.276 144.589L203.969 145.089Z" fill="#404041"/>
<path fill-rule="evenodd" clip-rule="evenodd" d="M246.395 143.66C246.395 148.498 236.841 152.421 225.055 152.421C213.268 152.421 203.714 148.498 203.714 143.66C203.714 138.822 213.268 134.9 225.055 134.9C236.841 134.9 246.395 138.822 246.395 143.66Z" fill="#535354"/>
<path fill-rule="evenodd" clip-rule="evenodd" d="M245.398 143.66C245.398 148.044 236.29 151.597 225.055 151.597C213.819 151.597 204.711 148.044 204.711 143.66C204.711 139.277 213.819 135.724 225.055 135.724C236.29 135.724 245.398 139.277 245.398 143.66Z" fill="#404041"/>
<path d="M203.714 143.66C203.714 143.66 198.729 162.652 225.055 162.652C251.38 162.652 246.395 143.66 246.395 143.66" stroke="#535354" stroke-width="0.7109" stroke-linecap="round" stroke-linejoin="round"/>
<path fill-rule="evenodd" clip-rule="evenodd" d="M205.652 146.052C205.652 146.052 208.596 143.738 212.461 144.044C215.767 144.306 218.712 141.642 221.513 141.223C224.266 140.81 228.507 142.412 231.11 142.04C233.713 141.669 236.87 142.584 238.531 143.76C240.193 144.937 243.998 144.413 244.985 145.26C244.985 145.26 241.506 151.597 225.055 151.597C209.16 151.597 205.652 146.052 205.652 146.052Z" fill="#CCCEA5"/>
<path fill-rule="evenodd" clip-rule="evenodd" d="M206.31 146.75C206.31 146.75 208.596 144.569 212.461 144.843C215.767 145.077 218.712 142.695 221.513 142.319C224.267 141.95 228.507 143.383 231.11 143.051C233.713 142.719 236.87 143.537 238.531 144.589C240.193 145.641 243.48 145.282 244.467 146.041C244.467 146.041 240.266 151.597 225.055 151.597C209.843 151.597 206.31 146.75 206.31 146.75Z" fill="#D9DDAF"/>
<path fill-rule="evenodd" clip-rule="evenodd" d="M215.079 148.354C214.545 148.01 213.977 148.63 213.427 148.354C212.876 148.079 212.962 147.34 213.977 146.875C214.993 146.41 216.025 146.995 215.647 147.374C215.268 147.752 216.575 147.804 216.352 148.303C216.128 148.802 215.079 148.354 215.079 148.354Z" fill="#B5875C"/>
<path fill-rule="evenodd" clip-rule="evenodd" d="M234.081 147.109C234.615 146.765 235.183 147.384 235.733 147.109C236.284 146.834 236.044 145.705 235.029 145.24C234.013 144.776 232.757 145.371 233.135 145.75C233.514 146.128 232.018 146.651 232.241 147.15C232.465 147.649 234.081 147.109 234.081 147.109Z" fill="#B5875C"/>
<path fill-rule="evenodd" clip-rule="evenodd" d="M227.986 150.368C227.986 150.368 229.706 148.2 232.218 149.129C232.218 149.129 232.081 151.09 227.986 150.368Z" fill="#59C059"/>
<path fill-rule="evenodd" clip-rule="evenodd" d="M209.455 146.87C209.455 146.87 210.22 145.906 211.336 146.319C211.336 146.319 211.275 147.191 209.455 146.87Z" fill="#59C059"/>
<path fill-rule="evenodd" clip-rule="evenodd" d="M235.524 149.514L234.947 149.375C234.683 149.311 234.582 149.106 234.721 148.918L235.025 148.507C235.165 148.319 235.493 148.218 235.757 148.281L236.334 148.42C236.598 148.484 236.7 148.689 236.56 148.877L236.256 149.288C236.116 149.477 235.789 149.578 235.524 149.514Z" fill="#FFFAE6"/>
<path fill-rule="evenodd" clip-rule="evenodd" d="M217.896 150.149L218.472 150.01C218.737 149.946 218.838 149.742 218.699 149.553L218.395 149.142C218.255 148.954 217.927 148.853 217.663 148.916L217.086 149.055C216.822 149.119 216.72 149.324 216.86 149.512L217.164 149.923C217.303 150.112 217.631 150.213 217.896 150.149Z" fill="#FFFAE6"/>
<path fill-rule="evenodd" clip-rule="evenodd" d="M221.434 144.549L220.847 144.459C220.578 144.418 220.46 144.223 220.583 144.023L220.851 143.588C220.974 143.388 221.292 143.26 221.562 143.301L222.148 143.391C222.417 143.432 222.535 143.627 222.412 143.827L222.144 144.262C222.02 144.462 221.703 144.59 221.434 144.549Z" fill="#FFFAE6"/>
<path fill-rule="evenodd" clip-rule="evenodd" d="M226.019 145.532C223.774 145.167 221.083 146.226 221.131 147.277C221.179 148.329 225.348 148.704 227.552 148.124C229.756 147.545 227.696 145.805 226.019 145.532Z" fill="#CCCEA5"/>
<path fill-rule="evenodd" clip-rule="evenodd" d="M225.717 145.884C224.038 145.61 222.024 146.403 222.059 147.189C222.095 147.976 225.215 148.257 226.864 147.823C228.514 147.389 226.972 146.088 225.717 145.884Z" fill="#D9DDAF"/>
<path fill-rule="evenodd" clip-rule="evenodd" d="M217.812 144.858C216.956 144.719 215.93 145.122 215.949 145.523C215.967 145.924 217.556 146.066 218.396 145.846C219.236 145.625 218.451 144.962 217.812 144.858Z" fill="#CCCEA5"/>
<path fill-rule="evenodd" clip-rule="evenodd" d="M217.697 144.992C217.056 144.888 216.289 145.19 216.303 145.489C216.316 145.789 217.505 145.896 218.134 145.731C218.763 145.566 218.175 145.07 217.697 144.992Z" fill="#D9DDAF"/>
<path fill-rule="evenodd" clip-rule="evenodd" d="M224.745 150.071C223.89 149.932 222.864 150.335 222.883 150.736C222.901 151.137 224.49 151.28 225.33 151.059C226.17 150.838 225.385 150.175 224.745 150.071Z" fill="#CCCEA5"/>
<path fill-rule="evenodd" clip-rule="evenodd" d="M224.461 150.402C224.138 150.349 223.75 150.502 223.757 150.653C223.764 150.805 224.365 150.859 224.682 150.775C225 150.692 224.703 150.441 224.461 150.402Z" fill="#D9DDAF"/>
</g>
<path fill-rule="evenodd" clip-rule="evenodd" d="M133.182 134.998C138.165 136.199 142.308 139.604 146.93 141.538C157.216 145.844 172.672 152.234 177.906 153.719C183.139 155.204 184.483 160.703 182.579 165.125C180.675 169.548 178.919 170.83 171.012 169.734C163.105 168.638 155.307 162.468 150.747 161.836C146.076 161.189 130.773 152.891 126.289 151.013C121.804 149.136 119.721 142.884 121.802 138.952C123.882 135.019 128.199 133.798 133.182 134.998Z" fill="#B5875C"/>
<path fill-rule="evenodd" clip-rule="evenodd" d="M133.182 134.998C138.165 136.199 142.308 139.604 146.93 141.538C157.216 145.844 172.672 152.234 177.906 153.719C183.139 155.204 184.483 160.703 182.579 165.125C180.675 169.548 178.919 170.83 171.012 169.734C163.105 168.638 155.307 162.468 150.747 161.836C146.076 161.189 130.773 152.891 126.289 151.013C121.804 149.136 119.721 142.884 121.802 138.952C123.882 135.019 128.199 133.798 133.182 134.998Z" fill="black" fill-opacity="0.15"/>
<mask id="mask2" style="mask-type:alpha" maskUnits="userSpaceOnUse" x="120" y="134" width="64" height="37">
<path fill-rule="evenodd" clip-rule="evenodd" d="M133.182 134.998C138.165 136.199 142.308 139.604 146.93 141.538C157.216 145.844 172.672 152.234 177.906 153.719C183.139 155.204 184.483 160.703 182.579 165.125C180.675 169.548 178.919 170.83 171.012 169.734C163.105 168.638 155.307 162.468 150.747 161.836C146.076 161.189 130.773 152.891 126.289 151.013C121.804 149.136 119.721 142.884 121.802 138.952C123.882 135.019 128.199 133.798 133.182 134.998Z" fill="white"/>
</mask>
<g mask="url(#mask2)">
<path fill-rule="evenodd" clip-rule="evenodd" d="M134.717 133.044C139.464 134.211 143.395 137.587 147.793 139.49C157.58 143.727 172.287 150.013 177.271 151.464C182.256 152.914 183.502 158.4 181.656 162.83C179.811 167.261 178.126 168.553 170.589 167.508C163.051 166.463 155.65 160.348 151.302 159.746C146.85 159.129 132.301 150.935 128.034 149.088C123.767 147.241 121.82 141.008 123.831 137.065C125.842 133.123 129.97 131.876 134.717 133.044Z" fill="#B5875C"/>
<g filter="url(#filter0_i)">
<ellipse cx="175.911" cy="162.29" rx="5.6022" ry="7.09067" transform="rotate(30 175.911 162.29)" fill="#ECC293"/>
</g>
</g>
<path fill-rule="evenodd" clip-rule="evenodd" d="M167.053 134.491C162.917 137.055 157.775 137.878 153.206 139.931C143.038 144.502 128.029 152.759 122.843 154.365C117.657 155.971 116.416 161.602 118.39 166.078C120.364 170.554 122.136 171.83 129.99 170.574C137.845 169.318 147.354 164.237 150.033 162.165C154.312 158.856 169.767 152.693 174.2 150.7C178.633 148.707 180.597 142.296 178.456 138.322C176.315 134.348 171.189 131.927 167.053 134.491Z" fill="#B5875C"/>
<path fill-rule="evenodd" clip-rule="evenodd" d="M167.053 134.491C162.917 137.055 157.775 137.878 153.206 139.931C143.038 144.502 128.029 152.759 122.843 154.365C117.657 155.971 116.416 161.602 118.39 166.078C120.364 170.554 122.136 171.83 129.99 170.574C137.845 169.318 147.354 164.237 150.033 162.165C154.312 158.856 169.767 152.693 174.2 150.7C178.633 148.707 180.597 142.296 178.456 138.322C176.315 134.348 171.189 131.927 167.053 134.491Z" fill="black" fill-opacity="0.15"/>
<mask id="mask3" style="mask-type:alpha" maskUnits="userSpaceOnUse" x="117" y="133" width="63" height="39">
<path fill-rule="evenodd" clip-rule="evenodd" d="M167.053 134.491C162.917 137.055 157.775 137.878 153.206 139.931C143.038 144.502 128.029 152.759 122.843 154.365C117.657 155.971 116.416 161.602 118.39 166.078C120.364 170.554 122.136 171.83 129.99 170.574C137.845 169.318 147.354 164.237 150.033 162.165C154.312 158.856 169.767 152.693 174.2 150.7C178.633 148.707 180.597 142.296 178.456 138.322C176.315 134.348 171.189 131.927 167.053 134.491Z" fill="white"/>
</mask>
<g mask="url(#mask3)">
<path fill-rule="evenodd" clip-rule="evenodd" d="M164.487 133.843C160.65 136.359 155.856 137.126 151.611 139.128C142.161 143.584 128.228 151.669 123.401 153.217C118.574 154.766 117.473 160.375 119.363 164.864C121.253 169.354 122.921 170.646 130.245 169.475C137.568 168.304 146.397 163.332 148.877 161.292C152.84 158.033 167.21 152.044 171.33 150.101C175.45 148.158 177.218 141.778 175.177 137.788C173.136 133.799 168.323 131.326 164.487 133.843Z" fill="#B5875C"/>
<g filter="url(#filter1_i)">
<ellipse rx="5.58582" ry="6.7296" transform="matrix(-0.857167 0.515038 0.515038 0.857167 124.977 163.138)" fill="#ECC293"/>
</g>
</g>
<ellipse cx="149.713" cy="150.4" rx="15" ry="5.4" fill="black" fill-opacity="0.15"/>
<ellipse cx="148.513" cy="150.4" rx="12.6" ry="4.2" fill="#FFBF00" fill-opacity="0.5"/>
<path fill-rule="evenodd" clip-rule="evenodd" d="M151.087 152.199C161.652 152.115 174.164 142.333 167.775 127.009C161.387 111.685 152.035 103.27 152.725 93.821C153.415 84.3722 142.299 101.013 146.114 109.202C149.929 117.392 139.029 114.561 139.029 108.195C139.029 101.83 131.267 110.278 135.701 119.108C140.134 127.938 132.313 130.073 132.313 138.884C132.313 147.696 140.522 152.283 151.087 152.199Z" fill="#FFBF00"/>
<path fill-rule="evenodd" clip-rule="evenodd" d="M145.591 145.408C146.927 142.18 152.957 142.18 154.387 145.408C155.817 148.636 152.82 149.76 153.603 149.569C159.591 148.113 162.254 143.16 160.658 136.459C158.744 128.429 152.702 126.017 152.702 122.182C152.702 118.348 148.184 124.711 149.653 128.863C151.121 133.016 144.447 132.848 144.447 130.34C144.447 127.833 141.024 129.978 138.868 136.459C136.937 142.267 140.13 148.547 147.084 149.789C147.89 149.933 144.255 148.636 145.591 145.408Z" fill="#FF661A"/>
<mask id="mask4" style="mask-type:alpha" maskUnits="userSpaceOnUse" x="123" y="15" width="54" height="74">
<path fill-rule="evenodd" clip-rule="evenodd" d="M123 15H177V89H123V15Z" fill="white"/>
</mask>
<g mask="url(#mask4)">
<path fill-rule="evenodd" clip-rule="evenodd" d="M146.083 88.3755C146.109 89.25 147.562 89.172 147.875 88.3543C153.396 73.9156 128.546 58.5339 129.603 44.8971C130.908 28.0589 145.354 22.1421 152.868 22.4775C166.22 23.0734 171.271 29.81 170.13 39.0824C168.902 49.0631 163.106 58.1227 150.815 54.4559C139.289 51.0173 140.869 39.0885 148.626 39.225C150.401 39.256 147.632 45.8506 155.15 44.1743C162.67 42.4979 157.053 24.4909 144.15 31.6675C138.465 34.8293 129.483 49.9218 145.924 57.268C172.693 69.2288 182.184 35.6078 174.335 24.3181C166.286 12.7418 131.007 7.8875 124.174 34.3258C116.955 62.2629 145.354 63.408 146.083 88.3755Z" fill="#575E75" fill-opacity="0.5"/>
</g>
<defs>
<filter id="filter0_i" x="169.902" y="155.539" width="12.0188" height="13.5021" filterUnits="userSpaceOnUse" color-interpolation-filters="sRGB">
<feFlood flood-opacity="0" result="BackgroundImageFix"/>
<feBlend mode="normal" in="SourceGraphic" in2="BackgroundImageFix" result="shape"/>
<feColorMatrix in="SourceAlpha" type="matrix" values="0 0 0 0 0 0 0 0 0 0 0 0 0 0 0 0 0 0 127 0" result="hardAlpha"/>
<feOffset dx="2" dy="2"/>
<feComposite in2="hardAlpha" operator="arithmetic" k2="-1" k3="1"/>
<feColorMatrix type="matrix" values="0 0 0 0 0 0 0 0 0 0 0 0 0 0 0 0 0 0 0.15 0"/>
<feBlend mode="normal" in2="shape" result="effect1_innerShadow"/>
</filter>
<filter id="filter1_i" x="119.065" y="156.691" width="11.8225" height="12.8948" filterUnits="userSpaceOnUse" color-interpolation-filters="sRGB">
<feFlood flood-opacity="0" result="BackgroundImageFix"/>
<feBlend mode="normal" in="SourceGraphic" in2="BackgroundImageFix" result="shape"/>
<feColorMatrix in="SourceAlpha" type="matrix" values="0 0 0 0 0 0 0 0 0 0 0 0 0 0 0 0 0 0 127 0" result="hardAlpha"/>
<feOffset dx="2" dy="2"/>
<feComposite in2="hardAlpha" operator="arithmetic" k2="-1" k3="1"/>
<feColorMatrix type="matrix" values="0 0 0 0 0 0 0 0 0 0 0 0 0 0 0 0 0 0 0.15 0"/>
<feBlend mode="normal" in2="shape" result="effect1_innerShadow"/>
</filter>
</defs>
</svg>
