<svg width="300" height="200" viewBox="0 0 300 200" fill="none" xmlns="http://www.w3.org/2000/svg">
<path fill-rule="evenodd" clip-rule="evenodd" d="M181.283 122.548C180.2 122.922 179.06 123.85 176.821 122.994C174.803 122.222 173.829 122.354 172.373 121.853C171.137 121.427 170.32 121.007 168.499 120.287C168.499 121.775 170.952 124.078 172.886 124.285C175.662 127.71 176.906 127.551 178.353 129.46C179.156 130.52 179.918 129.898 179.311 128.171C178.647 126.279 180.68 122.757 183.573 123.112C183.928 121.193 181.283 122.548 181.283 122.548Z" fill="#FF5E75"/>
<path fill-rule="evenodd" clip-rule="evenodd" d="M183.257 120.893C181.901 119.408 178.055 121.617 175.887 119.903C174.038 118.442 170.808 119.039 169.29 119.485V119.302H168.467V120.125H168.468C168.465 120.98 171.325 122.074 171.325 122.074C171.325 122.074 175.345 124.12 178.081 124.057C180.542 124 183.001 122.32 183.563 121.911H183.684V120.893H183.257Z" fill="#F1F2F2"/>
<path fill-rule="evenodd" clip-rule="evenodd" d="M169.289 118.678C170.806 118.232 174.037 117.634 175.886 119.096C178.376 121.065 183.081 117.856 183.684 121.015C183.684 121.015 180.883 123.185 178.081 123.25C175.345 123.313 171.324 121.267 171.324 121.267C171.324 121.267 166.614 119.466 169.289 118.678Z" fill="#C49A6C"/>
<path fill-rule="evenodd" clip-rule="evenodd" d="M170.503 118.977C171.664 118.653 173.988 118.685 175.404 119.746C176.774 120.773 179.625 119.781 181.294 119.991C182.082 120.091 182.235 121.18 181.517 121.521C180.509 122 178.936 122.633 177.611 122.662C175.516 122.708 172.438 121.223 172.438 121.223C172.438 121.223 168.455 119.549 170.503 118.977Z" fill="#B58D66"/>
<path fill-rule="evenodd" clip-rule="evenodd" d="M205.532 83.9985C205.532 83.9985 205.886 80.2134 196.112 82.9156C192.053 84.0384 189.546 86.3014 189.085 87.6597C188.476 89.4527 187.194 92.7805 190.709 94.3624C190.532 100.799 205.532 83.9985 205.532 83.9985Z" fill="#0DA57A"/>
<path fill-rule="evenodd" clip-rule="evenodd" d="M47.2875 39.8817C49.4621 53.8872 43.322 56.4762 44.4171 60.0259C45.165 62.4476 38.1882 72.9498 39.3232 78.3914C41.653 89.5556 23.457 93.6047 14.8082 81.6012C11.4609 76.9564 25.0311 56.4606 25.0311 56.4606L28.3463 43.0881L33.1554 36.5067L42.106 41.8096L47.2875 39.8817Z" fill="#FFAB1A"/>
<path fill-rule="evenodd" clip-rule="evenodd" d="M2.90635 87.5277C0.383661 94.9275 26.625 101.706 24.2844 86.952C23.9142 84.6213 31.7688 78.6734 34.5763 74.9225C35.8699 73.1945 38.8678 74.2419 38.8678 74.2419C38.8678 74.2419 48.9737 82.0328 53.4949 81.5238C60.5592 80.7287 62.8569 80.9867 65.6089 80.6481C66.8033 80.5011 67.9045 83.3437 69.6967 82.8369C75.414 81.2208 74.1191 70.4854 70.1488 70.8855C67.7029 71.1322 59.0384 72.02 52.9209 73.1611C50.6536 73.5842 36.166 57.4323 25.8728 56.3806C21.4136 55.9254 17.8309 60.571 15.5675 66.1024C15.5675 66.1024 5.45591 80.0476 2.90635 87.5277Z" fill="#4D97FF"/>
<path fill-rule="evenodd" clip-rule="evenodd" d="M7.28282 79.3915C7.28282 79.3915 -2.45504 91.3425 0.58961 104.683C1.15536 107.161 3.63383 117.969 4.21042 123.339C1.19871 134.827 4.58455 146.91 5.49019 149.647C5.49019 149.647 7.77097 152.065 11.674 149.762C11.674 149.762 12.3377 135.806 15.3386 124.125C17.4065 116.075 14.6007 104.447 15.5788 104.138C16.5477 103.833 21.7912 109.7 22.8091 117.54C20.3718 128.973 21.3911 143.669 21.3911 143.669C21.3911 143.669 25.0808 146.326 29.045 142.43C29.045 142.43 29.3202 128.04 32.4377 116.165C31.9218 106.977 25.3084 92.7315 23.7637 86.4762C23.7637 86.4762 18.2996 88.8428 14.3779 87.3575C4.71764 83.6994 7.28282 79.3915 7.28282 79.3915Z" fill="#231F20"/>
<path fill-rule="evenodd" clip-rule="evenodd" d="M23.9942 67.8518C22.6091 75.155 23.4046 84.2118 24.6718 85.6008C29.5559 90.9544 33.6154 96.2079 35.2086 98.7258C36.4008 100.61 34.9208 108.649 30.3263 106.818C27.8504 105.831 25.2939 99.9822 22.9398 97.9047C20.581 95.8229 18.5209 90.2361 16.2934 87.5994C8.90096 78.8487 12.6653 58.6247 25.8726 56.3807C25.8726 56.3807 24.5638 56.9569 24.6323 59.6612C24.7008 62.3664 23.9942 67.8518 23.9942 67.8518Z" fill="#4D97FF"/>
<path fill-rule="evenodd" clip-rule="evenodd" d="M66.7229 78.6552C63.7038 77.3182 63.3119 77.7557 61.6121 77.5068C58.4538 77.0442 59.3495 75.2321 60.4277 74.9768C62.0395 74.5944 63.5985 75.3799 64.1863 75.0773C65.336 74.4847 64.0936 72.0218 63.0123 71.5454C61.7404 70.984 60.1511 70.612 59.7466 70.8184C59.2051 71.0954 59.3924 72.1072 59.4353 73.407C59.4726 74.5354 57.9232 75.1597 57.6787 73.4876C57.3397 71.1721 57.4212 69.2724 58.0701 68.8363C58.583 68.4912 59.3248 68.3269 60.5391 68.5207C62.1006 68.7704 62.8125 69.0244 63.0227 68.9412C63.494 68.7539 61.019 66.3942 58.5436 64.4742C56.8264 63.1424 57.9297 61.4989 59.7804 62.9716C63.259 65.7405 65.3326 68.6642 65.5914 68.4843C65.7691 68.3607 64.544 66.0136 62.0252 63.0973C60.8881 61.7811 62.2858 60.3994 63.7701 62.3083C65.7371 64.837 67.5314 67.9749 67.9307 67.8691C68.2086 67.7954 66.7355 64.8088 66.1949 63.5421C65.3464 61.5548 67.1829 61.5114 67.7863 62.8779C70.1447 68.219 70.0953 68.6208 72.0748 71.3512C74.8832 75.2256 71.1258 80.6052 66.7229 78.6552Z" fill="#F6DDC3"/>
<path fill-rule="evenodd" clip-rule="evenodd" d="M21.6235 142.639C25.8339 146.137 23.6173 139.111 26.7261 141.287C28.9774 142.862 33.4701 148.234 37.3003 149.117C37.8404 149.241 38.7083 150.399 38.3307 151.564C37.6258 152.563 33.213 156.944 27.3335 152.719C23.2072 149.753 20.8735 150.723 20.6646 148.761C20.5844 148.009 20.1283 141.397 21.6235 142.639Z" fill="#9966FF"/>
<path fill-rule="evenodd" clip-rule="evenodd" d="M26.7555 144.641C25.4901 142.537 27.4986 138.021 29.2786 138.438C30.4331 138.709 29.6727 140.049 30.5207 141.729C31.4632 143.598 30.4882 145.816 35.2739 148.302C36.493 148.935 34.5742 150.111 33.5242 149.808C30.6052 148.965 26.7555 144.641 26.7555 144.641Z" fill="#774DCB"/>
<path fill-rule="evenodd" clip-rule="evenodd" d="M38.2271 150.091C38.2271 150.091 35.5353 152.773 32.8266 152.963C28.5655 153.261 27.6486 150.208 25.0414 149.376C22.435 148.543 22.272 145.71 20.5461 146.603C20.5461 146.603 20.5097 148.963 20.7417 149.637C20.9732 150.311 23.7096 150.475 26.1664 152.242C28.6232 154.008 30.5745 155.749 34.2252 154.467C37.8759 153.186 38.3602 152.077 38.6684 151.288C38.9446 150.582 38.6723 149.813 38.2271 150.091Z" fill="#F1F2F2"/>
<path fill-rule="evenodd" clip-rule="evenodd" d="M34.2989 147.751C35.0831 147.837 33.4041 146.649 33.0165 146.606C31.934 146.488 30.1188 147.272 29.739 148.571C29.4742 149.478 31.3123 149.964 31.569 149.327C31.9275 148.435 33.5814 147.673 34.2989 147.751Z" fill="#F1F2F2"/>
<path fill-rule="evenodd" clip-rule="evenodd" d="M31.5531 145.1C32.3373 145.186 31.4334 143.915 31.0927 143.725C30.1333 143.191 27.1628 144.042 26.7834 145.341C26.5181 146.248 28.5665 147.313 28.8232 146.675C29.1817 145.784 30.8356 145.021 31.5531 145.1Z" fill="#F1F2F2"/>
<path fill-rule="evenodd" clip-rule="evenodd" d="M139.537 74.502C139.355 75.0296 140.395 75.2737 141.138 75.1592C141.881 75.0448 142.038 74.2588 141.138 74.2302C140.238 74.202 139.68 74.0876 139.537 74.502Z" fill="#231F20"/>
<path fill-rule="evenodd" clip-rule="evenodd" d="M118.199 113.729C116.212 115.53 115.694 117.427 114.558 119.673C113.959 120.858 112.694 123.943 115.199 126.003C118.145 128.428 121.258 132.949 124.545 134.51C127.212 135.776 130.533 133.725 130.132 132.036C130.132 132.036 124.102 123.656 121.503 123.05C121.503 123.05 125.735 117.803 126.572 116.032C127.409 114.26 118.199 113.729 118.199 113.729Z" fill="#4C392B"/>
<path fill-rule="evenodd" clip-rule="evenodd" d="M131.061 90.4493C131.061 90.4493 130.083 88.8088 128.516 90.272C126.949 91.7351 128.617 97.521 131.195 95.1934" fill="#35271E"/>
<path fill-rule="evenodd" clip-rule="evenodd" d="M149.271 90.1788C149.271 90.1788 150.52 88.8488 152.279 90.3119C154.038 91.7751 152.165 97.5609 149.271 95.2333" fill="#35271E"/>
<path fill-rule="evenodd" clip-rule="evenodd" d="M113.58 151.086C116.572 145.445 122.881 142.344 126.806 137.184C126.806 137.184 135.197 138.924 141.389 138.674C146.922 138.45 151.481 136.516 151.481 136.516C154.864 141.185 152.81 144.613 152.81 151.402C152.81 156.284 149.353 183.678 147.132 185.973C144.911 188.267 140.462 188.371 138.807 184.905C137.786 182.767 139.912 161.958 140.023 153.258C140.102 147.116 136.098 149.469 126.924 153.249C133.039 151.989 154.472 156.615 160.173 155.043C165.873 153.472 164.51 162.784 159.549 163.414C159.549 163.414 127.129 161.589 117.005 162.134C113.068 162.346 110.793 156.338 113.58 151.086Z" fill="#231F20"/>
<path fill-rule="evenodd" clip-rule="evenodd" d="M128.647 113.861C132.153 114.556 126.334 130.132 125.408 134.303C125.199 135.244 124.867 137.124 125.828 137.184C129.361 137.404 134.907 142.552 142.623 141.61C149.193 140.807 148.964 137.357 153.339 137.735C154.24 137.813 152.931 134.881 152.81 133.984C152.212 129.543 150.05 115.922 151.01 114.477L156.169 120.404C156.169 120.404 156.431 118.781 158.107 117.124C160.705 114.556 164.406 115.697 164.406 115.697C161.456 111.971 156.192 101.041 147.182 102.386C139.504 103.532 132.153 101.518 132.153 101.518C123.694 101.333 117.158 113.671 114.84 115.62C114.84 115.62 118.836 115.185 121.335 116.957C123.835 118.729 124.623 120.136 124.623 120.136L128.647 113.861Z" fill="white"/>
<path fill-rule="evenodd" clip-rule="evenodd" d="M139.923 108.438C142.674 108.438 145.206 106.894 145.197 105.043C145.187 103.017 143.103 104.774 143.224 97.1248C143.285 93.2603 137.327 94.1456 137.346 97.6082C137.387 104.855 134.9 102.232 134.85 104.841C134.815 106.693 137.467 108.438 139.923 108.438Z" fill="#35271E"/>
<path fill-rule="evenodd" clip-rule="evenodd" d="M140.475 77.7056C135.392 77.7056 130.132 79.7332 130.132 90.8787C130.132 100.581 136.755 105.397 139.625 105.397C142.404 105.397 150.231 101.232 150.718 93.4955C151.609 79.3482 144.415 77.7056 140.475 77.7056Z" fill="#4C392B"/>
<path d="M139.3 96.2389C138.444 97.6539 142.203 98.4573 141.404 96.1665" stroke="#35271E" stroke-width="0.5" stroke-linecap="round" stroke-linejoin="round"/>
<path fill-rule="evenodd" clip-rule="evenodd" d="M152.19 133.699C152.373 134.518 153.563 134.135 153.651 134.639C153.739 135.144 152.789 135.393 152.81 135.869C152.832 136.345 153.487 136.327 153.657 137.094C153.827 137.861 152.788 137.935 152.19 137.799C151.591 137.664 151.01 137.664 151.01 137.664L152.19 133.699Z" fill="#FFAB1A"/>
<path fill-rule="evenodd" clip-rule="evenodd" d="M145.013 95.0631C145.013 95.5001 144.746 95.8539 144.415 95.8539C144.085 95.8539 143.818 95.5001 143.818 95.0631C143.818 94.6266 144.085 94.2728 144.415 94.2728C144.746 94.2728 145.013 94.6266 145.013 95.0631Z" fill="#231F20"/>
<path fill-rule="evenodd" clip-rule="evenodd" d="M156.169 120.404C156.169 120.404 156.595 121.298 157.314 121.762C153.928 122.91 151.973 129.351 147.398 131.328C143.028 133.217 146.573 136.188 150.588 134.903C161.23 131.497 165.966 124.961 167.556 123.735C168.815 122.762 164.898 116.957 162.837 115.134C162.837 115.134 159.672 115.5 158.107 117.125C156.542 118.749 156.169 120.404 156.169 120.404Z" fill="#4C392B"/>
<path fill-rule="evenodd" clip-rule="evenodd" d="M136.626 95.0631C136.626 95.5001 136.359 95.8539 136.029 95.8539C135.699 95.8539 135.431 95.5001 135.431 95.0631C135.431 94.6266 135.699 94.2728 136.029 94.2728C136.359 94.2728 136.626 94.6266 136.626 95.0631Z" fill="#231F20"/>
<path fill-rule="evenodd" clip-rule="evenodd" d="M137.687 91.5073C137.616 91.6222 136.469 91.3491 135.431 91.5515C134.083 91.8142 132.781 92.5217 132.841 92.2421C132.903 91.9469 133.83 90.4807 135.042 90.1569C136.127 89.8668 137.501 90.6858 137.687 90.9186C137.845 91.1154 137.798 91.3256 137.687 91.5073Z" fill="#231F20"/>
<path fill-rule="evenodd" clip-rule="evenodd" d="M142.351 89.7876C142.418 89.9047 143.534 89.5782 144.565 89.8141C145.904 90.1206 147.221 90.9594 147.171 90.6781C147.118 90.3803 146.238 88.8855 145.038 88.5226C143.962 88.1979 142.563 88.9726 142.369 89.1989C142.205 89.3905 142.245 89.6025 142.351 89.7876Z" fill="#231F20"/>
<path fill-rule="evenodd" clip-rule="evenodd" d="M138.025 100.663C139.066 100.27 141.183 100.324 142.148 100.624C143.031 100.899 141.861 102.778 140.299 103.045C138.736 103.312 137.279 100.945 138.025 100.663Z" fill="#231F20"/>
<path fill-rule="evenodd" clip-rule="evenodd" d="M150.488 134.114C150.664 134.809 150.705 135.585 149.758 137.228C149.212 138.174 149.689 139.372 149.8 140.159C150.023 141.736 147.67 140.781 147.731 139.162C147.761 138.376 147.715 136.407 146.54 136.394C145.667 136.384 144.87 136.576 144.322 137.139C143.433 138.051 142.273 138.635 140.888 140.039C139.653 141.291 138.103 140.209 139.259 138.891C140.056 137.982 142.128 136.629 142.649 136.187C140.961 137.203 139.808 136.851 137.426 138.445C135.999 139.4 135.274 137.923 136.14 137.28C138.145 135.788 139.561 135.476 140.889 135.06C140.193 135.252 138.032 134.926 136.568 135.566C134.94 136.277 134.506 134.747 136.02 134.147C138.304 133.242 141.604 133.498 141.604 133.498C141.604 133.498 138.235 132.974 137.426 132.96C135.682 132.93 136.689 131.761 137.426 131.777C142.193 131.88 142.429 130.354 144.863 130.549C146.626 130.691 149.706 131.029 150.488 134.114Z" fill="#4C392B"/>
<path fill-rule="evenodd" clip-rule="evenodd" d="M125.828 137.184C124.312 137.032 123.914 136.482 123.967 135.897C124.048 135.007 125.082 135.431 125.102 134.783C125.122 134.135 124.336 134.242 124.454 133.305C124.555 132.495 125.768 132.594 125.912 131.835" fill="#FFAB1A"/>
<path fill-rule="evenodd" clip-rule="evenodd" d="M130.44 86.6327C130.44 86.4945 129.782 74.5868 140.344 74.5868C150.794 74.5868 150.794 86.6327 150.794 86.6327" fill="#4280D7"/>
<path fill-rule="evenodd" clip-rule="evenodd" d="M144.355 131.676L154.801 130.981L144.302 132.879L144.355 131.676Z" fill="#FF661A"/>
<path fill-rule="evenodd" clip-rule="evenodd" d="M145.078 134.424L154.801 130.982L144.302 132.88L145.078 134.424Z" fill="#FF5500"/>
<path fill-rule="evenodd" clip-rule="evenodd" d="M144.302 132.879L145.67 134.867L143.309 143.241L138.163 133.162L139.008 131.577L144.302 132.879Z" fill="#FF661A"/>
<path fill-rule="evenodd" clip-rule="evenodd" d="M144.302 132.879L144.417 130.251L140.591 121.526L137.8 127.985L139.008 131.577L144.302 132.879Z" fill="#FF661A"/>
<path fill-rule="evenodd" clip-rule="evenodd" d="M139.724 131.753L143.236 130.226L144.302 132.88L139.724 131.753Z" fill="#FF5500"/>
<path fill-rule="evenodd" clip-rule="evenodd" d="M143.236 130.226L138.766 130.86L139.724 131.753L143.236 130.226Z" fill="#E64D00"/>
<path fill-rule="evenodd" clip-rule="evenodd" d="M141.659 132.229L143.309 143.241L142.013 132.316L141.659 132.229Z" fill="#FF5500"/>
<path fill-rule="evenodd" clip-rule="evenodd" d="M141.478 130.475L140.591 121.525L141.834 130.425L141.478 130.475Z" fill="#FF5500"/>
<path fill-rule="evenodd" clip-rule="evenodd" d="M139.724 131.753L137.022 123.893L136.315 123.734L132.153 124.969L136.748 125.697L138.281 132.941L139.008 131.577L139.724 131.753Z" fill="#FF5500"/>
<path fill-rule="evenodd" clip-rule="evenodd" d="M136.315 123.734L132.153 124.969L136.293 125.032L136.826 126.003L136.315 123.734Z" fill="#E64D00"/>
<path opacity="0.1" fill-rule="evenodd" clip-rule="evenodd" d="M134.883 86.6327C134.883 86.4945 134.513 74.5868 140.461 74.5868C146.347 74.5868 146.347 86.6327 146.347 86.6327" fill="#231F20"/>
<path fill-rule="evenodd" clip-rule="evenodd" d="M130.875 132.211C131.933 129.884 132.194 128.793 133.169 127.777C135.124 125.738 133.44 124.902 132.654 125.485C131.318 126.475 131.375 128.624 130.774 128.645C129.599 128.688 129.923 128.425 129.902 127.51C129.876 126.403 130.244 125.304 130.567 125.047C131.545 124.268 132.184 125.069 133.179 124.775C134.509 124.38 134.891 122.682 132.798 123.213C132.084 123.394 130.584 123.012 129.712 123.801C128.753 124.669 127.801 125.682 127.778 125.885C127.734 126.287 126.847 127.314 125.943 127.727C125.226 128.054 124.569 127.822 124.284 128.135C123.573 128.917 124.571 130.892 124.019 132.256C122.694 135.535 128.902 136.55 130.875 132.211Z" fill="#4C392B"/>
<path fill-rule="evenodd" clip-rule="evenodd" d="M126.982 125.605C127.215 125.335 127.997 125.07 128.477 125.429C128.851 125.707 129.865 127.743 130.589 128.639C131.635 129.934 129.352 130.018 128.803 128.795C128.49 128.099 128.056 126.959 127.468 126.99C126.88 127.021 126.42 126.253 126.982 125.605Z" fill="#35271E"/>
<path fill-rule="evenodd" clip-rule="evenodd" d="M124.284 128.135C124.483 127.905 125.148 127.136 125.557 127.442C125.875 127.68 127.425 129.663 127.504 130.662C127.558 131.353 126.711 131.533 126.091 131.8C125.289 132.146 124.883 131.428 125.936 130.562C125.254 129.688 125.201 129.29 124.699 129.317C124.197 129.343 123.806 128.688 124.284 128.135Z" fill="#35271E"/>
<path fill-rule="evenodd" clip-rule="evenodd" d="M125.458 126.782C125.657 126.552 126.318 125.913 126.727 126.219C127.046 126.457 129.26 129.103 129.338 130.101C129.392 130.792 128.545 130.972 127.926 131.239C127.123 131.586 126.717 130.867 127.77 130.001C127.088 129.127 126.375 127.937 125.873 127.964C125.372 127.99 124.98 127.335 125.458 126.782Z" fill="#35271E"/>
<path fill-rule="evenodd" clip-rule="evenodd" d="M129.552 87.6882C127.59 90.6015 131.069 87.2754 140.236 87.4124C148.587 87.5373 152.771 90.3023 151.976 88.6623C150.77 86.173 148.285 84.161 140.463 84.1844C131.878 84.21 130.652 86.0546 129.552 87.6882Z" fill="#4D97FF"/>
<path fill-rule="evenodd" clip-rule="evenodd" d="M30.0496 61.5313C31.2868 63.8464 31.9103 62.3516 32.7335 60.3465C33.4675 58.5586 31.4802 57.986 35.9403 53.6455C38.5831 51.0734 31.1988 47.212 29.8415 50.2232C27.0001 56.5263 25.1091 54.8251 25.6129 57.0162C26.0082 58.7381 29.1292 59.8094 30.0496 61.5313Z" fill="#F6DDC3"/>
<path fill-rule="evenodd" clip-rule="evenodd" d="M37.6272 32.2866C32.1943 32.2476 27.0656 37.1603 26.4912 42.0115C26.0321 45.8911 29.0282 46.72 30.735 49.893C28.834 54.8954 35.7851 58.3099 38.7791 58.3099C39.3782 58.3099 45.3596 54.8456 44.6364 49.1317C45.9917 45.7424 47.2823 44.1596 46.6246 42.2863C44.6434 36.6392 43.0606 32.3256 37.6272 32.2866Z" fill="#F6DDC3"/>
<path d="M40.0956 52.3041C41.3554 52.7532 42.7795 51.669 41.9931 51.3334C40.9362 50.8826 41.1295 49.7376 42.1054 46.9808" stroke="#E8C5AC" stroke-width="0.5" stroke-linecap="round" stroke-linejoin="round"/>
<path fill-rule="evenodd" clip-rule="evenodd" d="M38.7089 47.4719C38.6248 47.9583 38.258 48.3008 37.8904 48.2375C37.5228 48.1733 37.2926 47.7276 37.3771 47.2412C37.4612 46.7544 37.828 46.4119 38.1956 46.4752C38.5632 46.5393 38.793 46.985 38.7089 47.4719Z" fill="#231F20"/>
<path fill-rule="evenodd" clip-rule="evenodd" d="M43.932 49.028C43.8479 49.5145 43.4812 49.8569 43.1135 49.7936C42.7459 49.7295 42.5157 49.2838 42.6002 48.7974C42.6848 48.311 43.0511 47.9681 43.4187 48.0318C43.7868 48.0955 44.0161 48.5416 43.932 49.028Z" fill="#231F20"/>
<path fill-rule="evenodd" clip-rule="evenodd" d="M51.9565 141.163C69.559 138.842 86.1765 144.625 86.1578 155.231C86.1496 159.871 78.1996 161.122 66.7779 163.358C53.0473 166.047 36.4888 161.703 31.5323 155.194C23.6651 144.864 34.7386 143.432 51.9565 141.163Z" fill="#575E75"/>
<path fill-rule="evenodd" clip-rule="evenodd" d="M80.259 145.687C80.259 145.687 67.0174 152.198 56.5651 148.385C46.1128 144.573 41.6097 142.644 41.6097 142.644C41.6097 142.644 55.7917 140.682 61.6269 140.682C73.2983 140.682 80.259 145.687 80.259 145.687Z" fill="#231F20" fill-opacity="0.1"/>
<path fill-rule="evenodd" clip-rule="evenodd" d="M69.4489 132.369C83.9911 133.618 84.8863 138.938 77.8628 143.811C71.1236 148.487 44.8962 145.881 36.7905 139.265C28.6849 132.649 55.2241 131.148 69.4489 132.369Z" fill="#666F87"/>
<path fill-rule="evenodd" clip-rule="evenodd" d="M72.2146 132.677C72.2146 132.677 70.1671 139.029 60.346 138.446C50.5253 137.862 42.8025 133.189 42.8025 133.189C42.8025 133.189 52.6604 131.938 60.613 131.982C68.5656 132.026 72.2146 132.677 72.2146 132.677Z" fill="#231F20" fill-opacity="0.1"/>
<path fill-rule="evenodd" clip-rule="evenodd" d="M85.0051 150.62C85.7737 152.504 82.283 155.718 80.7349 155.076C79.1872 154.434 76.5184 160.386 70.4872 160.27C64.456 160.153 53.2471 164.004 47.3759 161.145C41.5047 158.286 29.597 153.575 29.0928 150.62C28.5882 147.666 29.0928 150.62 29.0928 150.62C29.0928 150.62 31.1668 163.381 57.2052 164.159C64.2249 164.369 68.8372 162.84 73.1204 162.118C84.725 160.159 88.3853 157.722 85.0051 150.62Z" fill="#231F20" fill-opacity="0.1"/>
<path fill-rule="evenodd" clip-rule="evenodd" d="M58.7048 115.171C73.247 116.419 77.5871 128.494 70.5631 133.367C63.8239 138.043 51.7311 137.554 43.6255 130.938C35.5194 124.322 44.48 113.95 58.7048 115.171Z" fill="#B3BFA6"/>
<path fill-rule="evenodd" clip-rule="evenodd" d="M69.6727 119.17C67.4664 122.731 47.0612 120.35 46.5167 117.327C46.1456 115.269 46.5167 117.327 46.5167 117.327C46.5167 117.327 52.8024 114.384 59.0296 115.357C65.2563 116.329 68.9322 118.076 70.5735 120.067" fill="#231F20" fill-opacity="0.1"/>
<path fill-rule="evenodd" clip-rule="evenodd" d="M58.1684 107.321C68.7212 111.008 78.9577 107.01 75.1088 115.072C72.2159 121.132 47.8067 119.904 39.7006 113.288C31.5949 106.673 44.5769 102.572 58.1684 107.321Z" fill="#666F87"/>
<path fill-rule="evenodd" clip-rule="evenodd" d="M67.7299 109.145C66.4042 110.348 57.5971 111.982 54.3413 110.698C51.0856 109.414 47.1621 108.002 46.5487 105.266C46.5487 105.266 54.1727 105.504 57.1393 106.977C60.1059 108.451 67.7299 109.145 67.7299 109.145Z" fill="#231F20" fill-opacity="0.1"/>
<path fill-rule="evenodd" clip-rule="evenodd" d="M57.8748 96.9403C67.2524 97.7449 73.6087 104.57 69.0797 107.713C64.7336 110.727 54.1881 111.428 48.9606 107.162C43.7336 102.896 48.7018 96.153 57.8748 96.9403Z" fill="#D0E2D6"/>
<path fill-rule="evenodd" clip-rule="evenodd" d="M80.6783 135.504C81.9988 137.329 77.5712 143.406 72.2146 143.639C66.858 143.873 56.3965 140.721 53.8344 141.83C51.2723 142.938 43.353 140.721 42.8025 138.796C42.2519 136.87 34.5962 137.488 35.7555 135.837C36.9147 134.186 35.7555 135.837 35.7555 135.837C35.7555 135.837 31.3825 139.82 49.9799 144.519C68.5773 149.218 78.29 145.387 81.2146 140.682C83.4039 137.162 80.6783 135.504 80.6783 135.504Z" fill="#231F20" fill-opacity="0.1"/>
<path fill-rule="evenodd" clip-rule="evenodd" d="M72.2146 122.059C73.8499 124.032 71.0211 132.435 58.1575 131.151C45.2944 129.868 41.2413 122.462 42.6538 120.271C44.0666 118.08 42.6538 120.271 42.6538 120.271C42.6538 120.271 39.7929 123.408 40.7822 126.9C41.7715 130.393 48.9238 136.28 58.1042 136.458C67.2845 136.636 73.4493 133.003 73.8542 127.877C74.1165 124.557 72.2146 122.059 72.2146 122.059Z" fill="#231F20" fill-opacity="0.1"/>
<path fill-rule="evenodd" clip-rule="evenodd" d="M68.059 125.217C68.6781 125.252 68.4956 126.423 67.7126 126.306C66.9301 126.189 67.3736 125.178 68.059 125.217Z" fill="#231F20" fill-opacity="0.1"/>
<path fill-rule="evenodd" clip-rule="evenodd" d="M66.5463 123.862C67.0193 124.581 65.7781 125.334 65.2475 124.366C64.7169 123.398 66.0226 123.066 66.5463 123.862Z" fill="#231F20" fill-opacity="0.1"/>
<path fill-rule="evenodd" clip-rule="evenodd" d="M53.6801 125.098C54.1531 125.816 52.9124 126.57 52.3813 125.601C51.8506 124.634 53.1564 124.302 53.6801 125.098Z" fill="#231F20" fill-opacity="0.1"/>
<path fill-rule="evenodd" clip-rule="evenodd" d="M68.3878 122.67C69.3975 123.186 69.7044 124.46 68.957 124.46C68.2096 124.46 67.3915 124.654 67.4982 123.565C67.6048 122.476 67.9989 122.472 68.3878 122.67Z" fill="#231F20" fill-opacity="0.1"/>
<path fill-rule="evenodd" clip-rule="evenodd" d="M64.8567 103.686C65.4757 103.721 65.2928 104.892 64.5103 104.776C63.7273 104.659 64.1708 103.647 64.8567 103.686Z" fill="white"/>
<path fill-rule="evenodd" clip-rule="evenodd" d="M58.4956 104.235C59.1147 104.27 58.9322 105.441 58.1493 105.325C57.3667 105.208 57.8102 104.196 58.4956 104.235Z" fill="white"/>
<path fill-rule="evenodd" clip-rule="evenodd" d="M68.3732 102.214C68.7872 102.238 68.665 103.042 68.1417 102.962C67.618 102.882 67.9146 102.187 68.3732 102.214Z" fill="white"/>
<path fill-rule="evenodd" clip-rule="evenodd" d="M51.2724 99.7485C51.8915 99.7837 51.709 100.955 50.9261 100.838C50.1431 100.721 50.5866 99.7095 51.2724 99.7485Z" fill="white"/>
<path fill-rule="evenodd" clip-rule="evenodd" d="M63.3438 102.332C63.8168 103.05 62.5756 103.803 62.045 102.835C61.5143 101.868 62.8201 101.536 63.3438 102.332Z" fill="white"/>
<path fill-rule="evenodd" clip-rule="evenodd" d="M50.9314 124.848C51.9411 125.364 52.1123 126.168 51.5006 126.638C50.8425 127.144 50.6817 126.855 50.0418 125.743C49.5081 124.816 50.543 124.65 50.9314 124.848Z" fill="#231F20" fill-opacity="0.1"/>
<path fill-rule="evenodd" clip-rule="evenodd" d="M75.8405 111.539C75.5045 112.439 74.9223 112.361 73.8792 112.906C72.8357 113.451 73.3694 116.096 72.0527 116.174C70.7361 116.251 60.9866 117.886 59.4922 116.524C57.9974 115.162 54.1902 114.462 52.4821 114.773C50.774 115.085 44.3691 114.277 43.4795 112.133C42.5899 109.988 36.3631 109.877 37.6087 108.084C38.8538 106.292 37.6087 108.084 37.6087 108.084C37.6087 108.084 35.6478 110.518 40.2575 113.716C44.8676 116.913 54.3679 119.259 61.2358 119C68.1029 118.741 72.8322 118.154 74.5772 115.861C76.3225 113.567 75.8405 111.539 75.8405 111.539Z" fill="#231F20" fill-opacity="0.1"/>
<path fill-rule="evenodd" clip-rule="evenodd" d="M69.8945 102.96C70.6471 104.425 69.7133 106.73 67.0177 107.752C64.3224 108.773 57.8911 106.821 55.6224 107.288C53.3538 107.755 46.6021 102.616 47.4193 101.039C45.8104 102.684 47.4193 101.039 47.4193 101.039C47.4193 101.039 43.8947 106.911 54.595 109.69C62.2944 111.691 69.6864 108.216 70.3003 106.344C70.8804 104.575 69.8945 102.96 69.8945 102.96Z" fill="#231F20" fill-opacity="0.1"/>
<path fill-rule="evenodd" clip-rule="evenodd" d="M65.6632 99.2604C65.6632 99.2604 62.5631 101.505 57.558 101.04C52.5534 100.574 50.6719 98.1125 50.6719 98.1125C50.6719 98.1125 53.1265 96.5747 57.8749 96.9402C62.6233 97.3061 66.5394 99.7473 66.5394 99.7473" fill="#231F20" fill-opacity="0.1"/>
<path fill-rule="evenodd" clip-rule="evenodd" d="M54.6971 91.4752C61.1679 90.7798 68.266 91.4752 67.6981 96.7169C67.2663 100.701 54.417 100.76 49.6595 96.8769C44.902 92.9942 48.1079 92.1835 54.6971 91.4752Z" fill="#666F87"/>
<path fill-rule="evenodd" clip-rule="evenodd" d="M63.6854 91.8261C63.6854 91.8261 59.9367 93.7466 56.4677 93.4158C52.9982 93.0851 52.1263 91.8261 52.1263 91.8261C52.1263 91.8261 56.0406 91.243 58.5937 91.2499C61.1467 91.2569 63.6854 91.8261 63.6854 91.8261Z" fill="#231F20" fill-opacity="0.1"/>
<path fill-rule="evenodd" clip-rule="evenodd" d="M55.5067 87.051C60.1576 86.5512 67.5925 88.4938 64.85 90.8179C63.6657 91.8224 57.4181 93.6684 53.3603 92.2269C49.4616 90.8422 50.7713 87.5604 55.5067 87.051Z" fill="#D0E2D6"/>
<path fill-rule="evenodd" clip-rule="evenodd" d="M67.5561 94.9208C67.7235 96.3745 66.4576 97.5103 65.043 97.4808C63.6284 97.4518 61.9741 96.8986 61.3333 97.4812C60.693 98.0643 60.5863 98.8521 59.1184 98.5312C57.6505 98.2104 55.1152 96.4304 52.8202 96.5184C50.5251 96.606 47.5637 93.7416 47.7232 93.1603C47.8832 92.5794 47.7232 93.1603 47.7232 93.1603C47.7232 93.1603 47.2255 93.6454 47.4115 94.1587C47.5975 94.6724 48.8898 98.1116 55.9702 99.3814C63.0505 100.652 66.6514 98.7281 67.3147 97.6668C67.9788 96.606 67.7712 95.464 67.5561 94.9208Z" fill="#231F20" fill-opacity="0.1"/>
<path fill-rule="evenodd" clip-rule="evenodd" d="M61.6936 87.5154C61.6936 87.5154 60.406 88.5338 58.6056 88.242C56.8056 87.9498 54.9839 87.1209 54.9839 87.1209C54.9839 87.1209 56.7943 86.8955 58.6056 87.0338C60.4173 87.1721 61.6936 87.5154 61.6936 87.5154Z" fill="#231F20" fill-opacity="0.1"/>
<path fill-rule="evenodd" clip-rule="evenodd" d="M65.4225 89.6386C64.4202 90.4592 62.8678 91.6892 60.5194 91.879C58.171 92.0685 55.3292 91.8327 53.8613 91.3393C51.9928 90.712 51.6282 88.9874 51.2103 89.2775C50.3029 91.1399 53.4074 93.1723 57.851 92.7569C63.4929 92.2293 65.6926 90.8386 65.4225 89.6386Z" fill="#231F20" fill-opacity="0.1"/>
<path fill-rule="evenodd" clip-rule="evenodd" d="M57.2053 84.2932C61.8561 83.7934 65.1921 84.2447 62.4496 86.5688C61.2652 87.5728 59.5645 88.4923 55.5067 87.0509C51.608 85.6666 52.4699 84.8022 57.2053 84.2932Z" fill="#B3BFA6"/>
<path fill-rule="evenodd" clip-rule="evenodd" d="M60.5758 84.1412C60.5758 84.1412 62.1218 84.0771 61.8729 84.8743C61.6236 85.6716 58.67 86.5083 56.7664 85.7106C54.8628 84.9134 55.1498 84.5323 55.6913 84.4599C56.2327 84.3875 59.3554 84.0147 60.5758 84.1412Z" fill="#231F20" fill-opacity="0.1"/>
<path fill-rule="evenodd" clip-rule="evenodd" d="M63.4326 85.0742C62.4675 85.9417 60.8132 87.4092 58.7847 86.9887C56.7567 86.5686 53.7142 86.2968 53.2339 85.9148C52.7535 85.5333 53.2339 85.9148 53.2339 85.9148C53.2339 85.9148 55.7683 87.795 59.0782 87.7959C62.054 87.7963 63.6853 85.5624 63.4326 85.0742Z" fill="#231F20" fill-opacity="0.1"/>
<path fill-rule="evenodd" clip-rule="evenodd" d="M120.322 87.4362C120.129 88.5898 119.037 89.3684 117.883 89.1755C116.729 88.9817 115.95 87.8897 116.144 86.736C116.337 85.5824 117.429 84.8034 118.583 84.9967C119.737 85.1901 120.515 86.2821 120.322 87.4362Z" fill="white"/>
<path fill-rule="evenodd" clip-rule="evenodd" d="M112.899 78.6535C112.479 81.1549 110.112 82.8422 107.611 82.4234C105.11 82.0042 103.423 79.6372 103.841 77.1362C104.261 74.6347 106.628 72.9474 109.129 73.3666C111.63 73.7854 113.317 76.1525 112.899 78.6535Z" fill="white"/>
<path fill-rule="evenodd" clip-rule="evenodd" d="M111.423 61.0173C110.915 64.0525 108.042 66.1009 105.007 65.5923C101.972 65.0838 99.9236 62.2108 100.432 59.1757C100.941 56.1406 103.814 54.0922 106.849 54.6012C109.884 55.1097 111.932 57.9822 111.423 61.0173Z" fill="white"/>
<path fill-rule="evenodd" clip-rule="evenodd" d="M175.437 22.8607C176.081 16.3956 171.362 10.6318 164.897 9.98763C163.351 9.83329 161.847 9.9937 160.442 10.4038C159.437 5.48806 155.336 1.58242 150.081 1.05872C146.501 0.701933 143.142 1.99384 140.742 4.31104C138.94 2.67448 136.625 1.57245 134.017 1.31234C128.538 0.766094 123.576 4.07823 121.794 9.03344C121.041 8.79803 120.255 8.63503 119.439 8.55352C112.974 7.9093 107.211 12.6282 106.566 19.0938C106.178 22.9847 107.742 26.612 110.451 29.032C108.496 30.9035 107.169 33.4492 106.879 36.3529C106.235 42.8186 110.954 48.5818 117.419 49.2261C117.568 49.2412 117.715 49.2391 117.864 49.2482C118.752 54.3152 122.906 58.3847 128.276 58.9201C131.952 59.2865 135.398 57.9152 137.809 55.4784C139.587 57.0339 141.843 58.0774 144.373 58.3297C150.493 58.9401 155.977 54.7418 157.093 48.8086C157.839 49.0405 158.619 49.2009 159.427 49.2811C165.893 49.9258 171.656 45.2068 172.301 38.7417C172.572 36.02 171.884 33.4288 170.524 31.2855C173.205 29.3853 175.085 26.387 175.437 22.8607Z" fill="white"/>
<path opacity="0.1" fill-rule="evenodd" clip-rule="evenodd" d="M100.922 57.6465C101.568 60.1991 102.676 61.8695 105.683 62.919C108.681 63.9651 110.705 62.7755 111.38 61.2452C111.38 61.2452 110.374 66.4913 104.743 65.5414C99.5399 64.6635 100.016 58.8608 100.922 57.6465Z" fill="#4D97FF"/>
<path opacity="0.1" fill-rule="evenodd" clip-rule="evenodd" d="M104.246 75.9093C104.216 77.9391 104.259 78.6908 106.275 80.2151C108.388 81.8113 112.33 80.0638 112.866 78.849C112.866 78.849 111.545 83.5086 107.172 82.3272C103.129 81.2347 103.528 76.873 104.246 75.9093Z" fill="#4D97FF"/>
<path opacity="0.1" fill-rule="evenodd" clip-rule="evenodd" d="M116.333 86.3198C116.327 87.2055 116.349 87.5337 117.277 88.2065C118.25 88.911 120.048 88.1627 120.289 87.6343C120.289 87.6343 119.701 89.6627 117.695 89.1312C115.841 88.6401 116.008 86.7377 116.333 86.3198Z" fill="#4D97FF"/>
<path opacity="0.1" fill-rule="evenodd" clip-rule="evenodd" d="M170.527 31.2853C171.884 33.427 172.573 36.0194 172.3 38.742C171.658 45.2059 165.892 49.927 159.429 49.281C158.618 49.203 157.838 49.0426 157.092 48.8085C155.978 54.7434 150.494 58.94 144.372 58.3287C141.845 58.0772 139.586 57.0324 137.809 55.4809C135.398 57.9168 131.952 59.2868 128.275 58.9183C122.904 58.385 118.751 54.3142 117.866 49.2463C117.715 49.2376 117.567 49.242 117.42 49.2246C110.952 48.583 106.235 42.8171 106.881 36.3533C107.167 33.4486 108.498 30.9038 110.453 29.031C107.744 26.6119 106.179 22.9833 106.564 19.0946C106.686 17.8894 106.981 16.7492 107.431 15.6875C107.436 15.9216 107.479 23.9015 111.461 26.3288C114.002 27.8778 105.536 29.9895 108.116 39.2193C110.62 48.182 118.234 41.9158 119.591 47.2309C120.949 52.5459 128.903 58.353 134.611 53.3137C137.292 50.9466 138.655 51.2319 139.948 52.7197C142.932 56.1537 152.542 55.6456 154.67 50.4788C157.564 43.4509 159.536 45.9298 163.056 45.6363C169.651 45.0858 173.019 35.4025 171.217 32.5356C165.831 23.9631 176.107 28.8255 175.153 18.8778C175.469 20.1437 175.573 21.4876 175.439 22.8619C175.088 26.3865 173.206 29.3865 170.527 31.2853Z" fill="#4D97FF"/>
<path fill-rule="evenodd" clip-rule="evenodd" d="M37.5361 95.2206C36.728 95.7573 36.2429 96.4007 34.3913 96.2242C30.2489 95.8306 26.5731 101.723 32.1742 104.749C32.9845 105.187 35.3576 107.336 36.3313 108.858C37.0609 109.998 38.1304 109.315 37.465 108.189C36.9439 107.308 34.9822 105.634 35.1812 105.663C35.3806 105.693 37.8521 107.268 39.072 109.511C39.8619 110.963 41.3238 110.205 40.6219 108.85C39.6989 107.068 36.9239 105.063 37.165 105.057C37.4268 105.051 40.0375 106.559 41.7903 109.072C42.8186 110.545 44.2683 109.239 43.1654 107.713C41.1153 104.876 37.9575 103.731 38.244 103.539C38.4855 103.379 41.4205 104.466 43.8452 107.375C44.8111 108.534 46.1073 106.896 44.9403 105.462C43.341 103.497 41.404 102.61 39.2793 101.455C37.8109 100.657 35.8635 99.1926 37.4975 98.2813C41.4456 96.0786 38.919 94.302 37.5361 95.2206Z" fill="#F6DDC3"/>
<path fill-rule="evenodd" clip-rule="evenodd" d="M293.193 146.501C279.652 140.052 263.006 137.753 257.286 133.941C242.351 123.986 206.497 130.918 213.717 141.252C221.685 152.655 167.643 145.453 193.718 162.3C196.822 164.306 226.18 161.705 237.594 165.08C249.009 168.455 274.652 165.268 285.525 162.507C296.399 159.746 306.452 152.815 293.193 146.501Z" fill="#ECC293"/>
<mask id="mask0" style="mask-type:alpha" maskUnits="userSpaceOnUse" x="193" y="152" width="107" height="31">
<path fill-rule="evenodd" clip-rule="evenodd" d="M193.718 152.471H299.971V182.55H193.718V152.471Z" fill="white"/>
</mask>
<g mask="url(#mask0)">
<path fill-rule="evenodd" clip-rule="evenodd" d="M299.954 152.471C300.246 156.152 296.718 167.042 292.846 169.17C288.194 171.727 279.813 167.873 275.918 172.577C272.023 177.281 267.679 182.845 261.187 182.538C254.696 182.231 250.908 172.005 244.741 171.391C238.574 170.777 237.276 173.845 233.706 173.334C230.135 172.822 225.591 168.936 220.397 168.936C215.204 168.936 213.733 173.221 209.188 171.892C204.644 170.562 198.287 166.544 193.718 162.3L299.954 152.471Z" fill="#47A8D1"/>
</g>
<path fill-rule="evenodd" clip-rule="evenodd" d="M293.193 146.501C279.077 140.932 258.323 140.427 252.355 137.017C236.715 128.08 219.892 140.159 222.435 143.035C231.557 153.356 189.477 151.963 191.099 158.641C193.953 170.385 228.221 162.148 239.636 165.523C251.05 168.898 265.116 169.511 275.989 166.75C286.863 163.989 311.856 153.864 293.193 146.501Z" fill="#5CB1D6"/>
<path opacity="0.2" fill-rule="evenodd" clip-rule="evenodd" d="M243.607 166.544C238.196 164.206 259.294 159.144 252.558 155.769C245.823 152.394 216.286 162.825 211.742 156.536C207.198 150.246 196.11 159.409 197.684 154.22C197.684 154.22 190.802 155.611 191.099 158.641C191.423 161.931 207.143 153.268 206.981 157.789C206.819 162.309 216.332 163.719 222.508 161.828C229.639 159.645 240.779 157.072 245.527 158.185C250.207 159.281 237.655 162.59 236.708 164.932C236.708 164.932 239.413 165.357 240.873 165.778C242.334 166.2 243.607 166.544 243.607 166.544Z" fill="white"/>
<path opacity="0.2" fill-rule="evenodd" clip-rule="evenodd" d="M296.375 148.016C298.873 150.607 286.854 154.188 275.28 152.66C263.684 151.13 265.576 153.866 272.346 156.325C275.649 157.524 287.466 163.076 280.871 165.305C274.277 167.533 280.871 165.305 280.871 165.305C280.871 165.305 287.952 162.855 290.61 161.336C293.269 159.816 284.826 159.243 284.542 156.453C284.257 153.663 296.44 158.518 298.727 155.702C301.071 152.815 299.738 149.455 296.375 148.016Z" fill="white"/>
<path opacity="0.2" fill-rule="evenodd" clip-rule="evenodd" d="M276.335 141.95C270.26 140.352 264.742 144.86 266.69 148.243C268.637 151.627 258.413 154.028 253.138 151.6C247.864 149.173 223.723 155.461 218.813 152.588C216.33 151.135 215.263 150.834 211.11 151.382C206.787 151.952 211.11 151.382 211.11 151.382C211.11 151.382 216.052 150.393 218.248 149.545C220.136 148.817 217.316 151.239 223.807 150.932C230.299 150.625 242.102 147.51 255.924 149.709C257.983 150.037 262.961 149.79 262.795 148.243C262.578 146.232 262.842 144.24 264.296 143.043C267.198 140.654 271.514 141.344 271.514 141.344L276.335 141.95Z" fill="white"/>
<path fill-rule="evenodd" clip-rule="evenodd" d="M185.519 112.904C184.361 115.533 184.888 120.078 186.051 122.328C186.051 122.328 182.256 120.691 179.991 123.269C179.991 123.269 176.877 126.686 181.377 130.981C191.088 140.253 207.074 141.388 210.264 137.268C213.411 133.204 214.607 127.797 200.069 113.073L185.519 112.904Z" fill="#231F20"/>
<path fill-rule="evenodd" clip-rule="evenodd" d="M204.24 110.632C203.189 115.294 205.518 122.903 208.917 125.297C208.917 125.297 206.331 111.848 202.051 113.526C202.051 113.526 195.896 121.988 201.057 125.197C206.218 128.406 223.052 133.357 224.377 123.239C225.021 118.327 219.766 112.904 206.27 110.218L204.24 110.632Z" fill="#231F20"/>
<path fill-rule="evenodd" clip-rule="evenodd" d="M185.519 112.904C194.223 119.077 206.473 114.398 209.105 110.573C208.986 105.949 210.872 101.363 210.872 101.363C210.872 101.363 212.895 102.327 217.527 107.17C218.169 107.841 218.811 108.439 219.446 108.977C221.813 110.984 225.851 103.875 223.717 102.128C221.883 100.627 220.535 99.624 220.535 99.624C220.535 99.624 216.755 92.0234 212.584 87.275C209.155 83.3715 205.254 83.248 196.439 84.6313C194.304 84.9669 190.446 85.6536 187.849 90.7345C185.803 94.7377 187.786 104.372 185.519 112.904Z" fill="#0FBD8C"/>
<path fill-rule="evenodd" clip-rule="evenodd" d="M195.593 94.1686C195.466 96.2838 195.928 99.0865 198.516 104.311C199.585 106.469 200.281 107.178 201.556 109.013C204.499 113.254 197.956 118.94 194.577 113.151C189.2 103.939 187.338 89.001 190.974 86.982C195.466 84.4871 195.893 89.1601 195.593 94.1686Z" fill="#0DA57A"/>
<path fill-rule="evenodd" clip-rule="evenodd" d="M233.938 107.238C233.164 107.716 232.69 108.304 230.961 108.082C227.092 107.587 223.468 112.996 228.623 116.002C229.369 116.437 231.527 118.524 232.392 119.979C233.041 121.07 234.064 120.462 233.475 119.387C233.014 118.545 231.227 116.916 231.413 116.951C231.599 116.985 233.866 118.536 234.941 120.675C235.636 122.059 237.029 121.394 236.413 120.103C235.603 118.405 233.064 116.441 233.29 116.443C233.536 116.445 235.935 117.939 237.501 120.346C238.419 121.758 239.818 120.578 238.831 119.115C236.996 116.394 234.073 115.224 234.348 115.054C234.579 114.911 237.295 116.019 239.478 118.82C240.348 119.935 241.612 118.44 240.563 117.06C239.124 115.17 237.336 114.28 235.381 113.133C234.029 112.341 232.25 110.909 233.808 110.104C237.575 108.162 235.262 106.419 233.938 107.238Z" fill="#B5875C"/>
<path fill-rule="evenodd" clip-rule="evenodd" d="M196.437 105.949C196.437 105.949 195.787 114.133 200.949 113.614C206.112 113.095 208.079 111.418 207.864 109.421C207.569 106.675 208.396 107.354 206.949 105.021C205.75 103.09 197.057 106.227 196.437 105.949Z" fill="#0DA57A"/>
<path fill-rule="evenodd" clip-rule="evenodd" d="M196.694 93.421C196.567 95.5361 197.028 98.3385 199.617 103.563C200.686 105.721 201.951 107.77 203.225 109.606C206.168 113.846 200.583 119.221 197.021 113.544C194.608 109.697 192.622 105.913 191.9 103.939C188.508 94.6604 187.338 89.0012 190.974 86.9818C195.466 84.4873 196.994 88.412 196.694 93.421Z" fill="#0FBD8C"/>
<path fill-rule="evenodd" clip-rule="evenodd" d="M191.16 86.6475C193.751 85.265 194.555 86.4281 195.669 87.7482C196.784 89.0683 198.583 90.4846 200.384 90.5141C201.472 90.5319 202.337 92.018 202.852 93.1924C203.01 93.5531 203.534 93.4937 203.606 93.1062C203.837 91.8581 204.237 90.2536 204.793 90.081C206.821 89.4511 207.431 87.6203 207.185 86.5669C206.851 85.1362 207.11 84.1456 205.11 83.5851C203.11 83.0241 196.702 84.5904 196.702 84.5904C196.702 84.5904 192.497 85.0448 191.16 86.6475Z" fill="#0DA57A"/>
<path fill-rule="evenodd" clip-rule="evenodd" d="M200.33 88.6805C202.561 89.0672 204.83 88.1712 205.083 86.6685C205.36 85.0251 203.423 86.1574 204.596 79.9727C205.188 76.8483 200.233 76.7291 199.762 79.5388C198.777 85.4196 197.226 83.4327 196.82 85.5414C196.531 87.0375 198.339 88.3355 200.33 88.6805Z" fill="#A57955"/>
<path fill-rule="evenodd" clip-rule="evenodd" d="M196.439 84.6315C196.439 84.6315 194.223 87.8959 198.652 89.1657C203.081 90.4355 205.943 88.5306 206.291 87.1875C206.717 85.5415 205.11 84.3232 205.11 84.3232L204.602 84.4871C204.602 84.4871 206.093 87.1875 203.229 88.1027C200.413 89.0023 197.658 87.7507 197.116 86.8134C196.309 85.4157 197.589 84.3232 197.589 84.3232L196.439 84.6315Z" fill="#0DA57A"/>
<path opacity="0.2" fill-rule="evenodd" clip-rule="evenodd" d="M280.779 155.015C281.106 155.109 282.75 156.493 281.715 158.542C280.613 160.725 277.659 160.25 276.951 159.35C276.123 158.296 275.813 157.432 276.367 157.575C277.044 157.75 277.629 160.998 280.742 158.773C281.965 157.899 281.44 156.157 280.337 155.475C280.089 155.322 280.452 154.921 280.779 155.015Z" fill="white"/>
<path fill-rule="evenodd" clip-rule="evenodd" d="M251.336 104.116L251.022 104.115C250.83 104.114 250.674 104.269 250.673 104.462L250.516 148.941C250.516 149.134 250.671 149.29 250.863 149.291L251.178 149.292C251.37 149.293 251.526 149.138 251.527 148.945L251.683 104.465C251.684 104.273 251.528 104.117 251.336 104.116Z" fill="#E8B182"/>
<path fill-rule="evenodd" clip-rule="evenodd" d="M230.049 134.895L230.165 135.188C230.236 135.366 230.438 135.453 230.617 135.383L271.956 118.963C272.134 118.892 272.222 118.69 272.151 118.511L272.035 118.219C271.964 118.04 271.761 117.953 271.583 118.024L230.244 134.443C230.065 134.514 229.978 134.717 230.049 134.895Z" fill="#E8B182"/>
<path fill-rule="evenodd" clip-rule="evenodd" d="M245.48 143.182C245.48 143.182 269.237 152.946 265.97 156.372C262.703 159.797 236.46 149.815 235.95 148.08C235.44 146.345 241.826 141.443 245.48 143.182Z" fill="black" fill-opacity="0.2"/>
<path opacity="0.5" fill-rule="evenodd" clip-rule="evenodd" d="M227.557 141.233C222.991 138.921 231.312 139.126 232.329 138.351C233.351 137.571 232.091 136.09 233.493 135.138C234.925 134.167 237.31 135.42 238.861 134.449C240.282 133.558 238.897 130.204 244.081 132.258C249.139 134.263 267.322 142.615 273.788 145.107C277.264 146.446 278.267 146.577 278.211 150.785C278.191 152.226 277.705 154.282 280.779 155.015C282.246 155.75 282.638 158.179 280.982 159.415C279.65 160.411 277.088 160.644 276.08 157.984C271.981 156.509 263.57 162.759 257.384 160.572C250.186 158.026 239.079 153.109 233.303 150.409C227.45 147.674 226.871 142.762 226.228 140.211" fill="white"/>
<path opacity="0.25" fill-rule="evenodd" clip-rule="evenodd" d="M232.767 136.661C232.852 137.401 234.327 141.086 232.886 140.672C232.002 140.418 231.286 138.691 230.01 138.875C230.01 138.875 231.792 138.77 232.328 138.35C232.879 137.92 232.767 136.661 232.767 136.661Z" fill="white"/>
<path fill-rule="evenodd" clip-rule="evenodd" d="M239.988 132.371C239.431 133.727 240.963 136.09 239.575 137.178C238.615 137.931 237.654 134.692 235.315 134.747C235.315 134.747 236.718 134.79 237.194 134.843C237.67 134.896 238.914 134.772 239.345 133.803C239.803 132.772 239.988 132.371 239.988 132.371Z" fill="white"/>
<path opacity="0.5" fill-rule="evenodd" clip-rule="evenodd" d="M228.091 141.45C228.091 141.45 251.782 155.263 262.483 156.331C272.11 157.291 275.255 157.696 276.08 157.984C271.21 156.683 262.545 163.252 255.371 159.866C245.588 155.249 233.303 150.409 233.303 150.409C233.303 150.409 227.652 147.421 226.802 142.518C225.952 137.615 226.334 141.092 228.091 141.45Z" fill="white"/>
<path opacity="0.25" fill-rule="evenodd" clip-rule="evenodd" d="M279.117 154.286C276.883 153.262 278.541 147.194 275.124 145.734C272.543 144.632 275.124 145.734 275.124 145.734C275.124 145.734 276.267 146.462 276.053 150.542C275.893 153.6 276.929 153.05 279.117 154.286Z" fill="white"/>
<path fill-rule="evenodd" clip-rule="evenodd" d="M265.237 103.293C261.479 107.637 251.554 116.25 234.233 112.345C232.912 112.047 231.752 113.264 232.135 114.562C233.924 120.614 237.17 134.316 232.704 142.118C232.084 143.199 232.696 144.561 233.925 144.769C240.189 145.83 255.757 147.081 265.358 135.857C265.461 135.737 265.547 135.605 265.616 135.462C266.575 133.473 273.576 118.11 268.231 103.826C267.764 102.578 266.109 102.285 265.237 103.293Z" fill="#FF8C1A"/>
<path fill-rule="evenodd" clip-rule="evenodd" d="M269.849 120.909C268.747 128.425 266.183 134.286 265.616 135.463C265.546 135.604 265.462 135.738 265.358 135.855C255.756 147.08 240.19 145.827 233.923 144.768C232.694 144.562 232.084 143.202 232.704 142.118C233.325 141.034 233.796 139.836 234.14 138.559C233.021 143.653 265.54 150.32 269.849 120.909Z" fill="#FF8000"/>
<path fill-rule="evenodd" clip-rule="evenodd" d="M212.744 117.316C211.97 117.795 211.496 118.383 209.767 118.161C205.898 117.666 202.274 123.074 207.429 126.081C208.175 126.516 210.333 128.602 211.199 130.058C211.848 131.148 212.87 130.54 212.281 129.465C211.82 128.624 210.033 126.995 210.218 127.029C210.404 127.063 212.672 128.615 213.747 130.754C214.442 132.138 215.835 131.473 215.219 130.182C214.408 128.484 211.87 126.52 212.096 126.522C212.341 126.524 214.741 128.017 216.307 130.425C217.225 131.837 218.624 130.657 217.637 129.193C215.803 126.473 212.879 125.303 213.153 125.133C213.384 124.99 216.101 126.098 218.284 128.898C219.154 130.013 220.418 128.518 219.368 127.139C217.93 125.248 216.143 124.358 214.187 123.212C212.835 122.42 211.056 120.987 212.614 120.183C216.381 118.24 214.068 116.498 212.744 117.316Z" fill="#B5875C"/>
<path fill-rule="evenodd" clip-rule="evenodd" d="M205.641 59.174C205.641 59.174 197.234 57.9177 195.301 69.0749C193.619 78.7872 203.036 85.4635 205.909 85.9612C208.692 86.4428 217.529 81.3953 215.455 75.2648C218.8 61.2571 212.528 60.3671 205.641 59.174Z" fill="#B5875C"/>
<path d="M211.809 77.5197C212.961 79.4805 215.28 75.2693 212.048 76.3089" stroke="#A57955" stroke-width="0.5" stroke-linecap="round" stroke-linejoin="round"/>
<path fill-rule="evenodd" clip-rule="evenodd" d="M207.937 74.6226C207.861 75.0596 207.532 75.3678 207.202 75.3106C206.872 75.2529 206.665 74.8524 206.741 74.4149C206.817 73.9784 207.146 73.6706 207.476 73.7278C207.806 73.7846 208.013 74.1856 207.937 74.6226Z" fill="#231F20"/>
<path fill-rule="evenodd" clip-rule="evenodd" d="M214.595 74.1493C214.52 74.5863 214.19 74.8945 213.86 74.8369C213.529 74.7796 213.323 74.3791 213.398 73.9416C213.474 73.5051 213.803 73.1968 214.134 73.2545C214.465 73.3113 214.671 73.7119 214.595 74.1493Z" fill="#231F20"/>
<path fill-rule="evenodd" clip-rule="evenodd" d="M204.074 70.864C204.252 71.187 204.637 71.3491 204.987 71.2334C206.046 70.8826 207.425 71.2169 207.297 70.5731C207.152 69.8435 204.435 69.3415 204.05 70.0741C203.896 70.368 203.952 70.6416 204.074 70.864Z" fill="#594A42"/>
<path fill-rule="evenodd" clip-rule="evenodd" d="M214.926 70.9851C214.775 71.2206 214.475 71.3229 214.216 71.2171C213.432 70.8963 212.371 71.0775 212.501 70.5967C212.649 70.0522 214.733 69.8133 214.985 70.3882C215.087 70.6188 215.03 70.8234 214.926 70.9851Z" fill="#594A42"/>
<path fill-rule="evenodd" clip-rule="evenodd" d="M207.421 80.9152C208.285 81.5871 210.976 81.5321 212.124 80.8688C213.573 80.0316 211.865 83.9047 208.916 83.8705C205.967 83.8367 206.557 80.2436 207.421 80.9152Z" fill="#231F20"/>
<path fill-rule="evenodd" clip-rule="evenodd" d="M212.124 80.8685C212.124 80.8685 211.189 82.2675 209.368 82.3824C207.547 82.4977 207.548 81.0003 207.548 81.0003C207.548 81.0003 208.65 81.4538 209.757 81.3905C210.841 81.3289 212.124 80.8685 212.124 80.8685Z" fill="white"/>
<path fill-rule="evenodd" clip-rule="evenodd" d="M199.889 59.826C199.889 59.826 198.853 59.1337 196.954 60.3766C194.912 61.7119 193.07 66.7048 194.584 70.9065C196.099 75.1078 194.81 76.8879 197.282 76.2359C198.455 75.9259 195.449 70.2437 200.471 70.3486C203.637 70.4153 200.995 64.2281 205.517 68.0834C208.572 70.6867 218.428 70.3416 218.547 67.4158C218.667 64.4903 217.129 66.0085 215.74 61.7734C214.35 57.5387 205.34 51.7854 199.889 59.826Z" fill="#594A42"/>
<path fill-rule="evenodd" clip-rule="evenodd" d="M200.794 71.6565C201.045 71.3457 201.009 70.8874 200.693 70.6434C200.151 70.225 199.194 69.9012 197.872 71.0309C196.259 72.4087 197.174 75.661 199.026 76.2827C199.518 76.4474 200.004 76.0121 199.935 75.498C199.876 75.0601 199.836 74.4662 199.887 73.7556C199.951 72.8591 200.431 72.1065 200.794 71.6565Z" fill="#A57955"/>
<path fill-rule="evenodd" clip-rule="evenodd" d="M175.894 186.239L165.719 176.086L174.862 187.531L175.894 186.239Z" fill="#FF6680"/>
<path fill-rule="evenodd" clip-rule="evenodd" d="M172.664 188.427L165.719 176.086L174.862 187.531L172.664 188.427Z" fill="#FF4D6A"/>
<path fill-rule="evenodd" clip-rule="evenodd" d="M174.862 187.531L171.653 188.351L166.53 199.142L180.955 193.367L181.513 190.966L174.862 187.531Z" fill="#FF6680"/>
<path fill-rule="evenodd" clip-rule="evenodd" d="M174.862 187.531L177.117 184.709L188.953 179.142L186.006 188.341L181.513 190.966L174.862 187.531Z" fill="#FF6680"/>
<path fill-rule="evenodd" clip-rule="evenodd" d="M180.613 190.501L178.361 185.75L174.862 187.531L180.613 190.501Z" fill="#FF4D6A"/>
<path fill-rule="evenodd" clip-rule="evenodd" d="M178.361 185.75L182.411 190.441L180.613 190.501L178.361 185.75Z" fill="#FF3355"/>
<path fill-rule="evenodd" clip-rule="evenodd" d="M178.182 189.245L166.53 199.142L177.737 189.016L178.182 189.245Z" fill="#FF4D6A"/>
<path fill-rule="evenodd" clip-rule="evenodd" d="M179.954 187.595L188.953 179.142L179.632 187.222L179.954 187.595Z" fill="#FF4D6A"/>
<path fill-rule="evenodd" clip-rule="evenodd" d="M180.613 190.501L190.506 184.812L191.381 185.288L194.57 190.322L189.16 186.926L181.033 193.032L181.513 190.965L180.613 190.501Z" fill="#FF4D6A"/>
<path fill-rule="evenodd" clip-rule="evenodd" d="M191.381 185.288L194.57 190.322L190.231 186.65L188.803 187.173L191.381 185.288Z" fill="#FF3355"/>
<path fill-rule="evenodd" clip-rule="evenodd" d="M73.3146 135.019L66.9467 130.67L72.8977 135.802L73.3146 135.019Z" fill="#FF661A"/>
<path fill-rule="evenodd" clip-rule="evenodd" d="M71.8272 136.491L66.947 130.67L72.8979 135.802L71.8272 136.491Z" fill="#FF5500"/>
<path fill-rule="evenodd" clip-rule="evenodd" d="M72.8978 135.802L71.2863 136.551L69.6507 142.747L76.6866 138.278L76.744 136.957L72.8978 135.802Z" fill="#FF661A"/>
<path fill-rule="evenodd" clip-rule="evenodd" d="M72.8979 135.802L73.8083 134.092L79.5003 129.988L78.8542 135.13L76.7441 136.957L72.8979 135.802Z" fill="#FF661A"/>
<path fill-rule="evenodd" clip-rule="evenodd" d="M76.2237 136.8L74.5671 134.517L72.8976 135.802L76.2237 136.8Z" fill="#FF5500"/>
<path fill-rule="evenodd" clip-rule="evenodd" d="M74.567 134.517L77.1656 136.592L76.2236 136.801L74.567 134.517Z" fill="#E64D00"/>
<path fill-rule="evenodd" clip-rule="evenodd" d="M74.818 136.379L69.6506 142.748L74.5605 136.301L74.818 136.379Z" fill="#FF5500"/>
<path fill-rule="evenodd" clip-rule="evenodd" d="M75.589 135.333L79.5001 129.987L75.3823 135.168L75.589 135.333Z" fill="#FF5500"/>
<path fill-rule="evenodd" clip-rule="evenodd" d="M76.2236 136.8L80.8787 132.824L81.3867 132.988L83.5657 135.328L80.3775 134.072L76.6945 138.094L76.7438 136.957L76.2236 136.8Z" fill="#FF5500"/>
<path fill-rule="evenodd" clip-rule="evenodd" d="M81.3868 132.988L83.5657 135.328L80.9148 133.82L80.2135 134.237L81.3868 132.988Z" fill="#E64D00"/>
<path fill-rule="evenodd" clip-rule="evenodd" d="M109.023 173.86L116.434 166.466L109.775 174.802L109.023 173.86Z" fill="#0FBD8C"/>
<path fill-rule="evenodd" clip-rule="evenodd" d="M111.376 175.454L116.434 166.466L109.775 174.801L111.376 175.454Z" fill="#0DA57A"/>
<path fill-rule="evenodd" clip-rule="evenodd" d="M109.775 174.802L112.112 175.398L115.843 183.259L105.337 179.053L104.931 177.303L109.775 174.802Z" fill="#0FBD8C"/>
<path fill-rule="evenodd" clip-rule="evenodd" d="M109.775 174.801L108.133 172.747L99.511 168.691L101.658 175.392L104.93 177.303L109.775 174.801Z" fill="#0FBD8C"/>
<path fill-rule="evenodd" clip-rule="evenodd" d="M105.586 176.965L107.226 173.505L109.775 174.802L105.586 176.965Z" fill="#0DA57A"/>
<path fill-rule="evenodd" clip-rule="evenodd" d="M107.226 173.504L104.276 176.922L105.586 176.965L107.226 173.504Z" fill="#0B8E69"/>
<path fill-rule="evenodd" clip-rule="evenodd" d="M107.356 176.05L115.843 183.259L107.68 175.883L107.356 176.05Z" fill="#0DA57A"/>
<path fill-rule="evenodd" clip-rule="evenodd" d="M106.066 174.848L99.5107 168.691L106.301 174.577L106.066 174.848Z" fill="#0DA57A"/>
<path fill-rule="evenodd" clip-rule="evenodd" d="M105.586 176.965L98.38 172.821L97.7428 173.168L95.4199 176.835L99.3607 174.361L105.28 178.808L104.93 177.304L105.586 176.965Z" fill="#0DA57A"/>
<path fill-rule="evenodd" clip-rule="evenodd" d="M97.7429 173.168L95.42 176.835L98.5804 174.16L99.6209 174.541L97.7429 173.168Z" fill="#0B8E69"/>
<path fill-rule="evenodd" clip-rule="evenodd" d="M29.9791 51.9755C31.6187 48.9742 29.3631 45.7839 31.3595 45.6222C31.6373 45.5992 32.7953 45.1397 33.4525 43.1021C35.5122 45.118 39.5037 38.2683 44.1108 42.0725C48.0242 45.3045 55.6681 36.0274 40.0373 29.7279C33.1876 28.152 26.4519 33.2199 25.0313 39.3829C21.6147 54.2013 11.8313 52.7823 13.7271 68.717C13.7271 68.717 16.219 58.3098 25.8728 56.3806C28.8489 55.7858 28.4696 54.7393 29.9791 51.9755Z" fill="#FFAB1A"/>
<path fill-rule="evenodd" clip-rule="evenodd" d="M32.0974 45.8681C32.3493 45.5846 32.3349 45.148 32.0458 44.9027C31.5503 44.4821 30.6563 44.1327 29.3523 45.1454C27.7608 46.3823 28.4857 49.508 30.2163 50.1795C30.6754 50.3577 31.1553 49.9662 31.1124 49.4755C31.076 49.0567 31.0647 48.4922 31.1441 47.8203C31.2446 46.9723 31.7328 46.2791 32.0974 45.8681Z" fill="#F6DDC3"/>
<path d="M37.189 40.7179C31.2224 46.6117 36.4334 55.3849 29.7163 59.4245" stroke="#FFAB1A" stroke-width="0.5" stroke-linecap="round" stroke-linejoin="round"/>
<path fill-rule="evenodd" clip-rule="evenodd" d="M40.6622 44.366C40.9813 44.4713 40.8091 44.9365 40.5052 44.9217C40.3245 44.9135 38.971 44.2836 37.8911 44.0582C37.1532 43.9043 36.7279 44.2446 36.1305 44.3178C36.0295 44.2428 36.7709 43.6428 37.8477 43.6116C38.6367 43.5891 39.995 44.1457 40.6622 44.366Z" fill="#FF9B0B"/>
<path fill-rule="evenodd" clip-rule="evenodd" d="M45.3368 46.2136C45.9334 46.2703 46.1419 46.7095 46.5628 46.9427C46.6612 46.8994 46.2992 46.1268 45.5094 45.8021C44.9306 45.5641 43.7466 45.7193 43.1818 45.7453" fill="#FF9B0B"/>
<path opacity="0.4" d="M40.5471 54.9908C39.9918 54.3622 37.5094 54.533 37.7023 53.8871" stroke="#FF661A" stroke-width="0.5" stroke-linecap="round" stroke-linejoin="round"/>
<path fill-rule="evenodd" clip-rule="evenodd" d="M159.798 164.471C158.663 163.813 160.836 159.413 159.401 155.962C159.166 155.396 159.496 154.741 160.05 154.702C161.232 154.618 163.077 154.456 165.048 154.159C167.565 153.78 169.073 152.051 170.039 152.733C172.104 154.191 177.314 162.084 179.006 166.14C179.585 167.529 179.132 173.367 178.199 173.878C176.919 174.582 174.728 175.168 173.627 173.309C172.814 171.937 168.412 166.154 166.034 164.574C163.67 163.005 161.068 165.208 159.798 164.471Z" fill="#4D97FF"/>
<path fill-rule="evenodd" clip-rule="evenodd" d="M171.527 170.516C168.521 166.036 160.411 164.787 157.433 165.408C155.531 165.805 155.153 160.544 157.329 160.219C165.259 159.035 172.145 162.195 174.392 165.905C176.715 169.74 172.238 171.575 171.527 170.516Z" fill="#4280D7"/>
<path fill-rule="evenodd" clip-rule="evenodd" d="M171.793 171.821C172.403 173.227 174.668 175.74 175.65 174.61C176.632 173.48 177.151 170.106 176.533 168.218C175.728 165.759 173.952 165.264 172.355 166.64C171.076 167.742 171.242 170.551 171.793 171.821Z" fill="#F1F2F2"/>
<path fill-rule="evenodd" clip-rule="evenodd" d="M176.898 174.282C177.069 173.892 178.277 170.554 177.584 166.954C176.729 162.516 169.037 153.186 168.84 152.946C168.337 152.334 170.023 152.219 170.479 152.744C171.428 153.833 178.418 163.055 179.147 166.671C180.046 171.132 178.74 173.841 178.367 174.362C177.992 174.886 176.565 175.043 176.898 174.282Z" fill="#F1F2F2"/>
<path fill-rule="evenodd" clip-rule="evenodd" d="M164.664 155.194C165.965 155.023 167.1 155.672 167.201 156.643C167.302 157.614 166.33 158.54 165.03 158.71C163.729 158.881 162.594 158.232 162.493 157.261C162.392 156.29 163.364 155.365 164.664 155.194Z" fill="#F1F2F2"/>
<path fill-rule="evenodd" clip-rule="evenodd" d="M197.471 115.711C196.172 114.529 194.961 112.374 194.961 110.987C194.961 109.598 194.994 106.99 199.349 106.026C202.166 105.402 204.298 108.789 204.298 108.789" fill="#0B8E69"/>
<path fill-rule="evenodd" clip-rule="evenodd" d="M219.055 108.743C217.865 107.644 216.734 105.873 216.734 104.581C216.734 103.29 216.764 100.862 220.753 99.9658C223.333 99.3854 225.206 102.515 225.206 102.515" fill="#0B8E69"/>
<path fill-rule="evenodd" clip-rule="evenodd" d="M200.561 107.031C198.073 107.155 195.443 109.805 196.467 114.057C197.491 118.309 205.651 115.843 205.527 112.706C205.404 109.569 203.711 106.873 200.561 107.031Z" fill="#0DA57A"/>
<path fill-rule="evenodd" clip-rule="evenodd" d="M221.908 100.777C219.702 100.902 216.289 104.513 218.583 108.122C220.915 111.791 226.421 109.589 226.311 106.452C226.201 103.315 224.7 100.62 221.908 100.777Z" fill="#0DA57A"/>
<path fill-rule="evenodd" clip-rule="evenodd" d="M198.587 114.559C198.587 114.559 205.994 123.348 206.348 123.742C206.703 124.136 211.926 118.041 209.767 118.161C205.529 118.398 204.804 111.548 202.933 109.771C200.04 107.025 196.8 112.09 198.587 114.559Z" fill="#B5875C"/>
<path fill-rule="evenodd" clip-rule="evenodd" d="M220.278 107.908C220.278 107.908 225.958 111.538 226.312 111.931C226.667 112.325 233.12 107.962 230.961 108.082C226.723 108.319 225.916 105.381 224.045 103.604C221.152 100.858 218.491 105.439 220.278 107.908Z" fill="#B5875C"/>
<path fill-rule="evenodd" clip-rule="evenodd" d="M200.645 92.6132C200.645 93.0125 200.322 93.3363 199.922 93.3363C199.523 93.3363 199.199 93.0125 199.199 92.6132C199.199 92.2135 199.523 91.8896 199.922 91.8896C200.322 91.8896 200.645 92.2135 200.645 92.6132Z" fill="#0B8E69"/>
<path fill-rule="evenodd" clip-rule="evenodd" d="M206.557 91.8896C206.557 92.2893 206.233 92.6131 205.834 92.6131C205.434 92.6131 205.11 92.2893 205.11 91.8896C205.11 91.4899 205.434 91.166 205.834 91.166C206.233 91.166 206.557 91.4899 206.557 91.8896Z" fill="#0B8E69"/>
<path d="M199.922 92.6132C199.922 92.6132 199.694 95.8685 199.922 97.8172" stroke="white" stroke-width="0.5" stroke-linecap="round"/>
<path d="M205.834 91.8896C205.834 91.8896 206.132 94.3725 206.27 97.2068" stroke="white" stroke-width="0.5" stroke-linecap="round"/>
<path fill-rule="evenodd" clip-rule="evenodd" d="M209.712 105.174L210.873 101.363C210.873 101.363 208.573 99.0573 208.307 97.5513C208.307 97.5513 209.198 104.085 209.712 105.174Z" fill="#0DA57A"/>
<path fill-rule="evenodd" clip-rule="evenodd" d="M13.2744 71.3932C13.2744 71.3932 9.26424 77.7977 12.2881 86.4699C12.2881 86.4699 14.284 87.5945 16.4729 87.8108C16.4729 87.8108 10.6888 81.3834 13.2744 71.3932Z" fill="#4280D7"/>
<path fill-rule="evenodd" clip-rule="evenodd" d="M24.672 85.6009C24.672 85.6009 21.3694 81.7647 21.0407 79.6022C20.7121 77.4398 23.7637 86.4762 31.8546 77.9336C31.8546 77.9336 26.6926 82.392 24.672 85.6009Z" fill="#4280D7"/>
<path fill-rule="evenodd" clip-rule="evenodd" d="M5.00116 148.692C9.49769 153.143 7.65131 144.83 11.0124 147.647C13.4467 149.688 18.0798 156.325 22.4016 157.727C23.0111 157.924 23.8942 159.345 23.3423 160.648C22.4298 161.727 16.9084 166.33 10.5629 160.873C6.10969 157.043 3.32472 157.925 3.28136 155.645C3.26446 154.771 3.40405 147.111 5.00116 148.692Z" fill="#9966FF"/>
<path fill-rule="evenodd" clip-rule="evenodd" d="M10.7094 151.513C9.46343 148.963 12.2302 143.965 14.2379 144.624C15.5406 145.052 14.53 146.518 15.3373 148.539C16.2355 150.785 14.8894 153.241 20.1503 156.584C21.4907 157.436 19.1623 158.598 17.9844 158.143C14.7078 156.879 10.7094 151.513 10.7094 151.513Z" fill="#774DCB"/>
<path fill-rule="evenodd" clip-rule="evenodd" d="M23.3709 158.941C23.3709 158.941 20.0016 161.759 16.8637 161.706C11.9271 161.621 11.178 158.014 8.25994 156.792C5.34188 155.572 5.43899 152.294 3.36197 153.149C3.36197 153.149 3.08321 155.862 3.2822 156.661C3.48119 157.461 6.61515 157.925 9.26659 160.206C11.9185 162.487 13.9903 164.687 18.3225 163.579C22.6552 162.47 23.325 161.242 23.7589 160.365C24.1478 159.579 23.9115 158.666 23.3709 158.941Z" fill="#F1F2F2"/>
<path fill-rule="evenodd" clip-rule="evenodd" d="M19.0827 155.853C19.9771 156.031 18.1632 154.493 17.721 154.405C16.4867 154.16 14.3174 154.881 13.7499 156.338C13.3532 157.356 15.4216 158.101 15.781 157.392C16.283 156.402 18.2642 155.69 19.0827 155.853Z" fill="#F1F2F2"/>
<path fill-rule="evenodd" clip-rule="evenodd" d="M16.1876 152.524C17.0819 152.702 16.1693 151.147 15.7956 150.894C14.7448 150.183 11.2384 150.864 10.6709 152.321C10.2743 153.34 12.5264 154.772 12.8858 154.063C13.3883 153.073 15.3695 152.361 16.1876 152.524Z" fill="#F1F2F2"/>
<path fill-rule="evenodd" clip-rule="evenodd" d="M139.999 153.818L152.641 155.167L151.751 163.014L139.575 162.466L139.999 153.818Z" fill="#231F20"/>
<path fill-rule="evenodd" clip-rule="evenodd" d="M143.03 162.863C145.449 159.349 152.37 161.335 152.785 168.631C153.237 176.6 147.462 186.909 146.935 187.871C144.696 191.96 136.29 188.347 139.134 183.216C144.507 173.522 139.317 168.258 143.03 162.863Z" fill="#C49A6C"/>
<path fill-rule="evenodd" clip-rule="evenodd" d="M144.064 165.227C145.914 162.149 150.903 163.681 151.022 169.934C151.152 176.764 146.688 185.761 146.28 186.6C144.548 190.166 138.518 187.276 140.717 182.799C144.872 174.341 141.226 169.952 144.064 165.227Z" fill="#B58D66"/>
<path fill-rule="evenodd" clip-rule="evenodd" d="M55.2752 76.7612L55.9836 75.8848L49 69.0004L55.2752 76.7612Z" fill="#FF6680"/>
<path fill-rule="evenodd" clip-rule="evenodd" d="M53.7668 77.3684L55.2752 76.7612L49 69L53.7668 77.3684Z" fill="#FF4D6A"/>
<path fill-rule="evenodd" clip-rule="evenodd" d="M53.0724 77.3166L49.5568 84.6346L59.4572 80.7186L59.84 79.0898L55.2752 76.761L53.0724 77.3166Z" fill="#FF6680"/>
<path fill-rule="evenodd" clip-rule="evenodd" d="M55.2751 76.761L56.8227 74.8474L64.9471 71.0718L62.9239 77.3106L59.8399 79.0898L55.2751 76.761Z" fill="#FF6680"/>
<path fill-rule="evenodd" clip-rule="evenodd" d="M59.2225 78.7747L57.6769 75.5531L55.2753 76.7611L59.2225 78.7747Z" fill="#FF4D6A"/>
<path fill-rule="evenodd" clip-rule="evenodd" d="M57.6768 75.5532L60.4564 78.7344L59.2224 78.7748L57.6768 75.5532Z" fill="#FF3355"/>
<path fill-rule="evenodd" clip-rule="evenodd" d="M49.5565 84.6346L57.5537 77.9234L57.2485 77.7678L49.5565 84.6346Z" fill="#FF4D6A"/>
<path fill-rule="evenodd" clip-rule="evenodd" d="M58.7699 76.8043L64.9471 71.0719L58.5487 76.5511L58.7699 76.8043Z" fill="#FF4D6A"/>
<path fill-rule="evenodd" clip-rule="evenodd" d="M59.2225 78.7746L59.8401 79.0898L59.5101 80.491L65.0885 76.3502L68.8017 78.6538L66.6129 75.2398L66.0129 74.9174L59.2225 78.7746Z" fill="#FF4D6A"/>
<path fill-rule="evenodd" clip-rule="evenodd" d="M64.8436 76.5181L65.824 76.1629L68.802 78.6537L66.6132 75.2397L64.8436 76.5181Z" fill="#FF3355"/>
</svg>
