<?xml version="1.0" encoding="UTF-8"?>
<svg width="1020px" height="500px" viewBox="0 0 1020 500" version="1.1" xmlns="http://www.w3.org/2000/svg" xmlns:xlink="http://www.w3.org/1999/xlink">
    <title>Ahbi Video Splash</title>
    <g id="Ahbi-Video-Splash" stroke="none" stroke-width="1" fill="none" fill-rule="evenodd" opacity="0.5">
        <path d="M61.677234,70.3664159 C234.157139,-35.4025071 677.179332,4.68477567 750.952782,22.1909398 C858.405647,47.6891035 1006.11115,97.9507291 901.513249,165.833814 C860.427992,192.497771 991.213222,227.252548 997.104056,314.938082 C1008.60536,486.135949 650.276573,525.115334 446.776703,486.135949 C222.451203,443.16752 26.8853299,474.386664 19.1859313,410.891236 C11.4865326,347.395808 164.324967,351.218316 61.677234,281.991429 C-38.1378312,214.674927 -0.89844901,108.739365 61.677234,70.3664159 Z M973.641775,139.135036 C996.208002,132.302352 1020,153.081715 1020,176.598907 C1020,200.116099 994.545839,221.091846 966.091253,198.376727 C937.636667,175.661607 951.075548,145.96772 973.641775,139.135036 Z" id="splash" fill="#0EBD8C"></path>
    </g>
</svg>