<?xml version="1.0" encoding="UTF-8"?>
<svg width="1020px" height="500px" viewBox="0 0 1020 500" version="1.1" xmlns="http://www.w3.org/2000/svg" xmlns:xlink="http://www.w3.org/1999/xlink">
    <title>BLM Video Splash</title>
    <g id="BLM-Video-Splash" stroke="none" stroke-width="1" fill="none" fill-rule="evenodd" opacity="0.5">
        <path d="M1012.5263,321.154495 C1006.46594,230.488637 940.903783,200.762755 983.171406,173.192523 C1090.77946,103.002174 945.055691,-35.4860014 771.906145,15.8606443 C666.871088,47.0082733 527.006744,39.3956697 432.62076,15.8606443 C286.970753,-20.4570005 158.318713,5.84911207 61.2036433,92.1669801 C-35.911426,178.484848 -14.9442959,312.302059 106.288301,392.669852 C234.079975,477.385803 513.416265,531.117937 771.906145,480.182176 C912.911902,452.396811 1016.70263,383.634202 1012.5263,321.154495 Z M33.0078125,493.035156 C60.1224606,496.830673 83.8296658,479.357833 85.7820029,462.726382 C87.7343401,446.094932 76.5831796,421.063185 51.9233192,416.75149 C27.2634589,412.439794 9.13807792,427.574202 5.51073908,439.402108 C1.88340024,451.230014 5.89316443,489.239639 33.0078125,493.035156 Z" id="splash" fill="#4D97FF" transform="translate(510.000000, 250.000000) rotate(-180.000000) translate(-510.000000, -250.000000) "></path>
    </g>
</svg>