<?xml version="1.0" encoding="UTF-8"?>
<svg width="380px" height="440px" viewBox="0 0 380 440" version="1.1" xmlns="http://www.w3.org/2000/svg" xmlns:xlink="http://www.w3.org/1999/xlink">
    <title>BLM Hero</title>
    <g id="BLM-Hero" stroke="none" stroke-width="1" fill="none" fill-rule="evenodd">
        <g transform="translate(18.000000, 15.000000)">
            <path d="M181.533764,412 C286.552015,412 356.976018,308.208786 342.149912,232.836595 C327.323806,157.464404 272.930431,137.04662 171.618707,127.161743 C70.3069824,117.276865 -9.97010595,171.056111 1.14947358,266.198057 C12.2690531,361.340003 76.5155126,412 181.533764,412 Z" id="Oval-Copy" fill-opacity="0.25" fill="#4D97FF"></path>
            <g id="BLM-Fist" transform="translate(91.118421, 0.000000)" fill-rule="nonzero">
                <path d="M15.3487584,73.6955473 C13.776264,47.5425105 38.3384098,13.2112654 69.7156956,17.2788469 C101.092973,21.3464285 120.373875,34.0857682 122.037949,61.7639894 C123.702006,89.4420804 115.55758,121.815517 93.7140393,107.807725 C75.9151104,96.39371 40.0566927,113.354516 39.1977668,112.94197 C23.1562402,105.238642 16.9212609,99.8485842 15.3487665,73.6955473 L15.3487584,73.6955473 Z" id="Path" stroke="#6D3030" stroke-width="6.9" fill="#813939"></path>
                <path d="M42.9025798,29.0955446 C42.9025798,43.9284939 40.5604857,58.3945545 26.633349,58.3945545 C12.7062123,58.3945545 8.73719515,47.1839394 8.73719515,32.3509901 C8.73719515,17.5180408 12.7062123,4.67970297 26.633349,4.67970297 C40.5604857,4.67970297 42.9025798,14.2625952 42.9025798,29.0955446 Z" id="Path" stroke="#6D3030" stroke-width="6.9" fill="#813939"></path>
                <path d="M121.808349,121.061881 C121.808349,126.905162 98.4265115,128.386634 72.5939259,128.386634 C46.7613403,128.386634 25.0064259,136.671498 25.0064259,130.828218 C25.0064259,124.984937 45.9478788,120.24802 71.7804644,120.24802 C97.61305,120.24802 121.808349,115.218601 121.808349,121.061881 Z" id="Path" stroke="#D60000" stroke-width="6.9" fill="#D60000"></path>
                <path d="M128.316041,40.9335247 C128.316041,50.5974124 126.754643,60.0222772 117.46989,60.0222772 C108.185138,60.0222772 105.539118,52.7183922 105.539118,43.0545044 C105.539118,33.3906166 108.18513,25.0262376 117.46989,25.0262376 C126.754643,25.0262376 128.316041,31.2696369 128.316041,40.9335247 Z" id="Path" stroke="#6D3030" stroke-width="6.9" fill="#813939"></path>
                <path d="M99.8448875,144.256931 C99.8448875,159.764099 86.7337177,172.335149 70.5602721,172.335149 C54.3868264,172.335149 41.2756567,159.764099 41.2756567,144.256931 C41.2756567,136.423197 31.6061777,113.875387 37.0025188,108.782324 C42.2884407,103.793476 62.5571365,116.178713 70.5602721,116.178713 C72.8680055,116.178713 95.4499337,105.040597 97.6037847,105.524486 C110.5449,108.431876 99.8448875,130.962432 99.8448875,144.256931 Z" id="Path" stroke="#6D3030" stroke-width="6.9" fill="#813939"></path>
                <path d="M111.233349,32.3509901 C111.233349,47.1839313 108.891255,61.65 94.9641182,61.65 C81.0369815,61.65 77.0679644,50.4393768 77.0679644,35.6064356 C77.0679644,20.7734945 81.0369815,7.93514851 94.9641182,7.93514851 C108.891255,7.93514851 111.233349,17.5180489 111.233349,32.3509901 Z" id="Path" stroke="#6D3030" stroke-width="6.9" fill="#813939"></path>
                <path d="M78.6948875,25.0262376 C78.6948875,39.8591788 76.3527934,54.3252475 62.4256567,54.3252475 C48.4985281,54.3252475 44.5295028,43.1146243 44.5295028,28.2816832 C44.5295028,13.448742 48.4985281,0.61039604 62.4256567,0.61039604 C76.3527934,0.61039604 78.6948875,10.1932965 78.6948875,25.0262376 Z" id="Path" stroke="#6D3030" stroke-width="6.9" fill="#813939"></path>
                <g id="Group" transform="translate(13.617964, 116.341485)" fill="#FF2E2E" stroke="#D60000" stroke-linejoin="round" stroke-width="7.6">
                    <path d="M27.8269086,180.966295 C24.5881878,151.79556 17.6128496,98.6954728 17.3873581,94.8374768 C16.290999,76.0870953 9.3675709,69.6387006 6.90827331,51.0180241 C4.44897571,32.3973395 -8.14868827,22.2379567 11.9149745,17.1969155 C14.8191949,16.4672155 22.6261154,24.2029599 26.8939333,25.173457 C33.4011619,26.6531954 41.8428102,22.892879 48.7518644,23.1758424 C56.3664257,23.4877059 62.4686319,27.6625707 70.0269342,25.2875115 C90.7148067,18.7867286 113.440042,0.743226356 113.451781,0.787613425 C113.815666,2.2397384 119.159499,0.36866293 122.653682,11.4562954 C128.109365,28.7681037 121.989792,51.0644793 122.907767,61.3945777 C128.195682,120.900549 122.653682,278.29989 122.653682,284.852851 C122.653682,284.852851 102.647661,292 79.0558637,292 C63.3279992,292 46.7882856,290.736107 29.4367231,288.20832 C30.5226606,236.160793 29.9860558,200.413452 27.8269086,180.966295 Z" id="Path"></path>
                </g>
                <path d="M100.658349,97.459901 C100.658349,98.8083472 99.068593,128.386634 90.083349,128.386634 C85.239877,128.386634 56.5573207,134.183654 44.6426553,131.063416 C34.4541147,128.395212 37.208349,97.2676181 37.208349,96.6460396 C37.208349,95.2975934 75.4038743,92.5767327 84.3891182,92.5767327 C93.3743622,92.5767327 100.658349,96.1114548 100.658349,97.459901 Z" id="Path" fill="#813939"></path>
                <path d="M51.785596,81.5759311 C31.8568133,87.6071079 11.0716996,91.2659519 3.04841458,78.0461085 C-4.97486233,64.826265 7.80063248,56.5004955 27.7294152,50.4693269 C47.6581979,44.4381501 67.1936476,42.9854483 75.2169245,56.2052917 C83.2402014,69.4251352 71.7143788,75.5447543 51.785596,81.5759311 L51.785596,81.5759311 Z" id="Path" stroke="#6D3030" stroke-width="6.9" fill="#813939"></path>
            </g>
        </g>
    </g>
</svg>