<?xml version="1.0" encoding="UTF-8"?>
<svg width="300px" height="216px" viewBox="0 0 300 216" version="1.1" xmlns="http://www.w3.org/2000/svg" xmlns:xlink="http://www.w3.org/1999/xlink">
    <title>Pillars-Mobile</title>
    <g id="Pillars-Mobile" stroke="none" stroke-width="1" fill="none" fill-rule="evenodd">
        <g>
            <g id="Global" transform="translate(1.000000, 172.000000)">
                <path d="M106.878315,0.593999766 C7.17680352,-6.04601254 -47.836925,45.1991255 55.2756798,43.9785254 C158.387977,42.7579252 307.32714,39.8791761 298.636241,16.6498209 C289.028534,-9.03033185 212.154255,7.60481626 106.878315,0.593999766" id="Fill-1" fill="#FF8C1A"></path>
                <path d="M96.772,29.0661266 C97.3266667,29.0661266 97.876,28.9514599 98.42,28.7221266 C98.964,28.4927932 99.46,28.0901266 99.908,27.5141266 L100.164,28.8101266 L101.764,28.8101266 L101.764,22.6341266 L96.964,22.6341266 L96.964,24.5061266 L99.492,24.5061266 C99.4173333,25.3061266 99.1533333,25.9167932 98.7,26.3381266 C98.2466667,26.7594599 97.604,26.9701266 96.772,26.9701266 C96.2066667,26.9701266 95.7266667,26.8607932 95.332,26.6421266 C94.9373333,26.4234599 94.6173333,26.1327932 94.372,25.7701266 C94.1266667,25.4074599 93.948,24.9994599 93.836,24.5461266 C93.724,24.0927932 93.668,23.6261266 93.668,23.1461266 C93.668,22.6447932 93.724,22.1594599 93.836,21.6901266 C93.948,21.2207932 94.1266667,20.8021266 94.372,20.4341266 C94.6173333,20.0661266 94.9373333,19.7727932 95.332,19.5541266 C95.7266667,19.3354599 96.2066667,19.2261266 96.772,19.2261266 C97.38,19.2261266 97.8973333,19.3861266 98.324,19.7061266 C98.7506667,20.0261266 99.0386667,20.5061266 99.188,21.1461266 L101.588,21.1461266 C101.524,20.4954599 101.348,19.9194599 101.06,19.4181266 C100.772,18.9167932 100.406667,18.4954599 99.964,18.1541266 C99.5213333,17.8127932 99.0253333,17.5541266 98.476,17.3781266 C97.9266667,17.2021266 97.3586667,17.1141266 96.772,17.1141266 C95.8973333,17.1141266 95.1106667,17.2687932 94.412,17.5781266 C93.7133333,17.8874599 93.124,18.3141266 92.644,18.8581266 C92.164,19.4021266 91.796,20.0394599 91.54,20.7701266 C91.284,21.5007932 91.156,22.2927932 91.156,23.1461266 C91.156,23.9781266 91.284,24.7541266 91.54,25.4741266 C91.796,26.1941266 92.164,26.8207932 92.644,27.3541266 C93.124,27.8874599 93.7133333,28.3061266 94.412,28.6101266 C95.1106667,28.9141266 95.8973333,29.0661266 96.772,29.0661266 Z M105.892,28.8101266 L105.892,17.3861266 L103.62,17.3861266 L103.62,28.8101266 L105.892,28.8101266 Z M111.7,29.0181266 C112.350667,29.0181266 112.94,28.9167932 113.468,28.7141266 C113.996,28.5114599 114.446667,28.2207932 114.82,27.8421266 C115.193333,27.4634599 115.481333,27.0074599 115.684,26.4741266 C115.886667,25.9407932 115.988,25.3434599 115.988,24.6821266 C115.988,24.0207932 115.886667,23.4207932 115.684,22.8821266 C115.481333,22.3434599 115.193333,21.8847932 114.82,21.5061266 C114.446667,21.1274599 113.996,20.8341266 113.468,20.6261266 C112.94,20.4181266 112.350667,20.3141266 111.7,20.3141266 C111.049333,20.3141266 110.462667,20.4181266 109.94,20.6261266 C109.417333,20.8341266 108.969333,21.1274599 108.596,21.5061266 C108.222667,21.8847932 107.934667,22.3434599 107.732,22.8821266 C107.529333,23.4207932 107.428,24.0207932 107.428,24.6821266 C107.428,25.3434599 107.529333,25.9407932 107.732,26.4741266 C107.934667,27.0074599 108.222667,27.4634599 108.596,27.8421266 C108.969333,28.2207932 109.417333,28.5114599 109.94,28.7141266 C110.462667,28.9167932 111.049333,29.0181266 111.7,29.0181266 Z M111.7,27.3221266 C111.316,27.3221266 110.996,27.2474599 110.74,27.0981266 C110.484,26.9487932 110.278667,26.7487932 110.124,26.4981266 C109.969333,26.2474599 109.86,25.9647932 109.796,25.6501266 C109.732,25.3354599 109.7,25.0127932 109.7,24.6821266 C109.7,24.3514599 109.732,24.0261266 109.796,23.7061266 C109.86,23.3861266 109.969333,23.1034599 110.124,22.8581266 C110.278667,22.6127932 110.484,22.4127932 110.74,22.2581266 C110.996,22.1034599 111.316,22.0261266 111.7,22.0261266 C112.084,22.0261266 112.406667,22.1034599 112.668,22.2581266 C112.929333,22.4127932 113.137333,22.6127932 113.292,22.8581266 C113.446667,23.1034599 113.556,23.3861266 113.62,23.7061266 C113.684,24.0261266 113.716,24.3514599 113.716,24.6821266 C113.716,25.0127932 113.684,25.3354599 113.62,25.6501266 C113.556,25.9647932 113.446667,26.2474599 113.292,26.4981266 C113.137333,26.7487932 112.929333,26.9487932 112.668,27.0981266 C112.406667,27.2474599 112.084,27.3221266 111.7,27.3221266 Z M122.372,29.0181266 C122.788,29.0181266 123.198667,28.9327932 123.604,28.7621266 C124.009333,28.5914599 124.374667,28.3301266 124.7,27.9781266 C125.025333,27.6261266 125.289333,27.1754599 125.492,26.6261266 C125.694667,26.0767932 125.796,25.4234599 125.796,24.6661266 C125.796,23.9087932 125.694667,23.2554599 125.492,22.7061266 C125.289333,22.1567932 125.025333,21.7061266 124.7,21.3541266 C124.374667,21.0021266 124.009333,20.7407932 123.604,20.5701266 C123.198667,20.3994599 122.788,20.3141266 122.372,20.3141266 C121.86,20.3141266 121.366667,20.4127932 120.892,20.6101266 C120.417333,20.8074599 120.041333,21.1194599 119.764,21.5461266 L119.732,21.5461266 L119.732,17.3861266 L117.46,17.3861266 L117.46,28.8101266 L119.62,28.8101266 L119.62,27.7541266 L119.652,27.7541266 C119.897333,28.2127932 120.26,28.5381266 120.74,28.7301266 C121.22,28.9221266 121.764,29.0181266 122.372,29.0181266 Z M121.588,27.3221266 C121.257333,27.3221266 120.969333,27.2501266 120.724,27.1061266 C120.478667,26.9621266 120.276,26.7674599 120.116,26.5221266 C119.956,26.2767932 119.838667,25.9941266 119.764,25.6741266 C119.689333,25.3541266 119.652,25.0234599 119.652,24.6821266 C119.652,24.3301266 119.689333,23.9941266 119.764,23.6741266 C119.838667,23.3541266 119.956,23.0714599 120.116,22.8261266 C120.276,22.5807932 120.478667,22.3861266 120.724,22.2421266 C120.969333,22.0981266 121.257333,22.0261266 121.588,22.0261266 C121.929333,22.0261266 122.22,22.0981266 122.46,22.2421266 C122.7,22.3861266 122.9,22.5807932 123.06,22.8261266 C123.22,23.0714599 123.337333,23.3541266 123.412,23.6741266 C123.486667,23.9941266 123.524,24.3301266 123.524,24.6821266 C123.524,25.0234599 123.486667,25.3541266 123.412,25.6741266 C123.337333,25.9941266 123.22,26.2767932 123.06,26.5221266 C122.9,26.7674599 122.7,26.9621266 122.46,27.1061266 C122.22,27.2501266 121.929333,27.3221266 121.588,27.3221266 Z M129.7,29.0181266 C130.212,29.0181266 130.713333,28.9434599 131.204,28.7941266 C131.694667,28.6447932 132.121333,28.3834599 132.484,28.0101266 C132.494667,28.1487932 132.513333,28.2847932 132.54,28.4181266 C132.566667,28.5514599 132.601333,28.6821266 132.644,28.8101266 L132.644,28.8101266 L134.948,28.8101266 C134.841333,28.6394599 134.766667,28.3834599 134.724,28.0421266 C134.681333,27.7007932 134.66,27.3434599 134.66,26.9701266 L134.66,26.9701266 L134.66,22.6661266 C134.66,22.1647932 134.548,21.7621266 134.324,21.4581266 C134.1,21.1541266 133.812,20.9167932 133.46,20.7461266 C133.108,20.5754599 132.718667,20.4607932 132.292,20.4021266 C131.865333,20.3434599 131.444,20.3141266 131.028,20.3141266 C130.569333,20.3141266 130.113333,20.3594599 129.66,20.4501266 C129.206667,20.5407932 128.798667,20.6927932 128.436,20.9061266 C128.073333,21.1194599 127.774667,21.4021266 127.54,21.7541266 C127.305333,22.1061266 127.172,22.5487932 127.14,23.0821266 L127.14,23.0821266 L129.412,23.0821266 C129.454667,22.6341266 129.604,22.3141266 129.86,22.1221266 C130.116,21.9301266 130.468,21.8341266 130.916,21.8341266 C131.118667,21.8341266 131.308,21.8474599 131.484,21.8741266 C131.66,21.9007932 131.814667,21.9541266 131.948,22.0341266 C132.081333,22.1141266 132.188,22.2261266 132.268,22.3701266 C132.348,22.5141266 132.388,22.7087932 132.388,22.9541266 C132.398667,23.1887932 132.329333,23.3674599 132.18,23.4901266 C132.030667,23.6127932 131.828,23.7061266 131.572,23.7701266 C131.316,23.8341266 131.022667,23.8821266 130.692,23.9141266 C130.361333,23.9461266 130.025333,23.9887932 129.684,24.0421266 C129.342667,24.0954599 129.004,24.1674599 128.668,24.2581266 C128.332,24.3487932 128.033333,24.4847932 127.772,24.6661266 C127.510667,24.8474599 127.297333,25.0901266 127.132,25.3941266 C126.966667,25.6981266 126.884,26.0847932 126.884,26.5541266 C126.884,26.9807932 126.956,27.3487932 127.1,27.6581266 C127.244,27.9674599 127.444,28.2234599 127.7,28.4261266 C127.956,28.6287932 128.254667,28.7781266 128.596,28.8741266 C128.937333,28.9701266 129.305333,29.0181266 129.7,29.0181266 Z M130.548,27.5141266 C130.366667,27.5141266 130.190667,27.4981266 130.02,27.4661266 C129.849333,27.4341266 129.7,27.3781266 129.572,27.2981266 C129.444,27.2181266 129.342667,27.1087932 129.268,26.9701266 C129.193333,26.8314599 129.156,26.6607932 129.156,26.4581266 C129.156,26.2447932 129.193333,26.0687932 129.268,25.9301266 C129.342667,25.7914599 129.441333,25.6767932 129.564,25.5861266 C129.686667,25.4954599 129.830667,25.4234599 129.996,25.3701266 C130.161333,25.3167932 130.329333,25.2741266 130.5,25.2421266 C130.681333,25.2101266 130.862667,25.1834599 131.044,25.1621266 C131.225333,25.1407932 131.398667,25.1141266 131.564,25.0821266 C131.729333,25.0501266 131.884,25.0101266 132.028,24.9621266 C132.172,24.9141266 132.292,24.8474599 132.388,24.7621266 L132.388,24.7621266 L132.388,25.6101266 C132.388,25.7381266 132.374667,25.9087932 132.348,26.1221266 C132.321333,26.3354599 132.249333,26.5461266 132.132,26.7541266 C132.014667,26.9621266 131.833333,27.1407932 131.588,27.2901266 C131.342667,27.4394599 130.996,27.5141266 130.548,27.5141266 Z M138.756,28.8101266 L138.756,17.3861266 L136.484,17.3861266 L136.484,28.8101266 L138.756,28.8101266 Z M149.38,29.0661266 C150.158667,29.0661266 150.844,28.9754599 151.436,28.7941266 C152.028,28.6127932 152.524,28.3594599 152.924,28.0341266 C153.324,27.7087932 153.625333,27.3221266 153.828,26.8741266 C154.030667,26.4261266 154.132,25.9407932 154.132,25.4181266 C154.132,24.7781266 153.996,24.2527932 153.724,23.8421266 C153.452,23.4314599 153.129333,23.1034599 152.756,22.8581266 C152.382667,22.6127932 152.006667,22.4341266 151.628,22.3221266 C151.249333,22.2101266 150.953333,22.1327932 150.74,22.0901266 C150.025333,21.9087932 149.446667,21.7594599 149.004,21.6421266 C148.561333,21.5247932 148.214667,21.4074599 147.964,21.2901266 C147.713333,21.1727932 147.545333,21.0447932 147.46,20.9061266 C147.374667,20.7674599 147.332,20.5861266 147.332,20.3621266 C147.332,20.1167932 147.385333,19.9141266 147.492,19.7541266 C147.598667,19.5941266 147.734667,19.4607932 147.9,19.3541266 C148.065333,19.2474599 148.249333,19.1727932 148.452,19.1301266 C148.654667,19.0874599 148.857333,19.0661266 149.06,19.0661266 C149.369333,19.0661266 149.654667,19.0927932 149.916,19.1461266 C150.177333,19.1994599 150.409333,19.2901266 150.612,19.4181266 C150.814667,19.5461266 150.977333,19.7221266 151.1,19.9461266 C151.222667,20.1701266 151.294667,20.4527932 151.316,20.7941266 L153.748,20.7941266 C153.748,20.1327932 153.622667,19.5701266 153.372,19.1061266 C153.121333,18.6421266 152.782667,18.2607932 152.356,17.9621266 C151.929333,17.6634599 151.441333,17.4474599 150.892,17.3141266 C150.342667,17.1807932 149.769333,17.1141266 149.172,17.1141266 C148.66,17.1141266 148.148,17.1834599 147.636,17.3221266 C147.124,17.4607932 146.665333,17.6741266 146.26,17.9621266 C145.854667,18.2501266 145.526667,18.6101266 145.276,19.0421266 C145.025333,19.4741266 144.9,19.9834599 144.9,20.5701266 C144.9,21.0927932 144.998667,21.5381266 145.196,21.9061266 C145.393333,22.2741266 145.652,22.5807932 145.972,22.8261266 C146.292,23.0714599 146.654667,23.2714599 147.06,23.4261266 C147.465333,23.5807932 147.881333,23.7114599 148.308,23.8181266 C148.724,23.9354599 149.134667,24.0421266 149.54,24.1381266 C149.945333,24.2341266 150.308,24.3461266 150.628,24.4741266 C150.948,24.6021266 151.206667,24.7621266 151.404,24.9541266 C151.601333,25.1461266 151.7,25.3967932 151.7,25.7061266 C151.7,25.9941266 151.625333,26.2314599 151.476,26.4181266 C151.326667,26.6047932 151.14,26.7514599 150.916,26.8581266 C150.692,26.9647932 150.452,27.0367932 150.196,27.0741266 C149.94,27.1114599 149.7,27.1301266 149.476,27.1301266 C149.145333,27.1301266 148.825333,27.0901266 148.516,27.0101266 C148.206667,26.9301266 147.937333,26.8074599 147.708,26.6421266 C147.478667,26.4767932 147.294667,26.2607932 147.156,25.9941266 C147.017333,25.7274599 146.948,25.4021266 146.948,25.0181266 L144.516,25.0181266 C144.505333,25.7221266 144.633333,26.3301266 144.9,26.8421266 C145.166667,27.3541266 145.526667,27.7754599 145.98,28.1061266 C146.433333,28.4367932 146.956,28.6794599 147.548,28.8341266 C148.14,28.9887932 148.750667,29.0661266 149.38,29.0661266 Z M158.596,28.8901266 C158.82,28.8901266 159.049333,28.8847932 159.284,28.8741266 C159.518667,28.8634599 159.732,28.8421266 159.924,28.8101266 L159.924,27.0501266 C159.817333,27.0714599 159.705333,27.0874599 159.588,27.0981266 C159.470667,27.1087932 159.348,27.1141266 159.22,27.1141266 C158.836,27.1141266 158.58,27.0501266 158.452,26.9221266 C158.324,26.7941266 158.26,26.5381266 158.26,26.1541266 L158.26,22.0581266 L159.924,22.0581266 L159.924,20.5381266 L158.26,20.5381266 L158.26,18.0581266 L155.988,18.0581266 L155.988,20.5381266 L154.612,20.5381266 L154.612,22.0581266 L155.988,22.0581266 L155.988,26.9381266 C155.988,27.3541266 156.057333,27.6901266 156.196,27.9461266 C156.334667,28.2021266 156.524,28.3994599 156.764,28.5381266 C157.004,28.6767932 157.281333,28.7701266 157.596,28.8181266 C157.910667,28.8661266 158.244,28.8901266 158.596,28.8901266 Z M163.284,28.8101266 L163.284,25.0821266 C163.284,24.7087932 163.321333,24.3621266 163.396,24.0421266 C163.470667,23.7221266 163.596,23.4421266 163.772,23.2021266 C163.948,22.9621266 164.18,22.7727932 164.468,22.6341266 C164.756,22.4954599 165.108,22.4261266 165.524,22.4261266 C165.662667,22.4261266 165.806667,22.4341266 165.956,22.4501266 C166.105333,22.4661266 166.233333,22.4847932 166.34,22.5061266 L166.34,20.3941266 C166.158667,20.3407932 165.993333,20.3141266 165.844,20.3141266 C165.556,20.3141266 165.278667,20.3567932 165.012,20.4421266 C164.745333,20.5274599 164.494667,20.6474599 164.26,20.8021266 C164.025333,20.9567932 163.817333,21.1434599 163.636,21.3621266 C163.454667,21.5807932 163.310667,21.8181266 163.204,22.0741266 L163.172,22.0741266 L163.172,20.5381266 L161.012,20.5381266 L161.012,28.8101266 L163.284,28.8101266 Z M169.7,29.0181266 C170.212,29.0181266 170.713333,28.9434599 171.204,28.7941266 C171.694667,28.6447932 172.121333,28.3834599 172.484,28.0101266 C172.494667,28.1487932 172.513333,28.2847932 172.54,28.4181266 C172.566667,28.5514599 172.601333,28.6821266 172.644,28.8101266 L172.644,28.8101266 L174.948,28.8101266 C174.841333,28.6394599 174.766667,28.3834599 174.724,28.0421266 C174.681333,27.7007932 174.66,27.3434599 174.66,26.9701266 L174.66,26.9701266 L174.66,22.6661266 C174.66,22.1647932 174.548,21.7621266 174.324,21.4581266 C174.1,21.1541266 173.812,20.9167932 173.46,20.7461266 C173.108,20.5754599 172.718667,20.4607932 172.292,20.4021266 C171.865333,20.3434599 171.444,20.3141266 171.028,20.3141266 C170.569333,20.3141266 170.113333,20.3594599 169.66,20.4501266 C169.206667,20.5407932 168.798667,20.6927932 168.436,20.9061266 C168.073333,21.1194599 167.774667,21.4021266 167.54,21.7541266 C167.305333,22.1061266 167.172,22.5487932 167.14,23.0821266 L167.14,23.0821266 L169.412,23.0821266 C169.454667,22.6341266 169.604,22.3141266 169.86,22.1221266 C170.116,21.9301266 170.468,21.8341266 170.916,21.8341266 C171.118667,21.8341266 171.308,21.8474599 171.484,21.8741266 C171.66,21.9007932 171.814667,21.9541266 171.948,22.0341266 C172.081333,22.1141266 172.188,22.2261266 172.268,22.3701266 C172.348,22.5141266 172.388,22.7087932 172.388,22.9541266 C172.398667,23.1887932 172.329333,23.3674599 172.18,23.4901266 C172.030667,23.6127932 171.828,23.7061266 171.572,23.7701266 C171.316,23.8341266 171.022667,23.8821266 170.692,23.9141266 C170.361333,23.9461266 170.025333,23.9887932 169.684,24.0421266 C169.342667,24.0954599 169.004,24.1674599 168.668,24.2581266 C168.332,24.3487932 168.033333,24.4847932 167.772,24.6661266 C167.510667,24.8474599 167.297333,25.0901266 167.132,25.3941266 C166.966667,25.6981266 166.884,26.0847932 166.884,26.5541266 C166.884,26.9807932 166.956,27.3487932 167.1,27.6581266 C167.244,27.9674599 167.444,28.2234599 167.7,28.4261266 C167.956,28.6287932 168.254667,28.7781266 168.596,28.8741266 C168.937333,28.9701266 169.305333,29.0181266 169.7,29.0181266 Z M170.548,27.5141266 C170.366667,27.5141266 170.190667,27.4981266 170.02,27.4661266 C169.849333,27.4341266 169.7,27.3781266 169.572,27.2981266 C169.444,27.2181266 169.342667,27.1087932 169.268,26.9701266 C169.193333,26.8314599 169.156,26.6607932 169.156,26.4581266 C169.156,26.2447932 169.193333,26.0687932 169.268,25.9301266 C169.342667,25.7914599 169.441333,25.6767932 169.564,25.5861266 C169.686667,25.4954599 169.830667,25.4234599 169.996,25.3701266 C170.161333,25.3167932 170.329333,25.2741266 170.5,25.2421266 C170.681333,25.2101266 170.862667,25.1834599 171.044,25.1621266 C171.225333,25.1407932 171.398667,25.1141266 171.564,25.0821266 C171.729333,25.0501266 171.884,25.0101266 172.028,24.9621266 C172.172,24.9141266 172.292,24.8474599 172.388,24.7621266 L172.388,24.7621266 L172.388,25.6101266 C172.388,25.7381266 172.374667,25.9087932 172.348,26.1221266 C172.321333,26.3354599 172.249333,26.5461266 172.132,26.7541266 C172.014667,26.9621266 171.833333,27.1407932 171.588,27.2901266 C171.342667,27.4394599 170.996,27.5141266 170.548,27.5141266 Z M179.636,28.8901266 C179.86,28.8901266 180.089333,28.8847932 180.324,28.8741266 C180.558667,28.8634599 180.772,28.8421266 180.964,28.8101266 L180.964,27.0501266 C180.857333,27.0714599 180.745333,27.0874599 180.628,27.0981266 C180.510667,27.1087932 180.388,27.1141266 180.26,27.1141266 C179.876,27.1141266 179.62,27.0501266 179.492,26.9221266 C179.364,26.7941266 179.3,26.5381266 179.3,26.1541266 L179.3,22.0581266 L180.964,22.0581266 L180.964,20.5381266 L179.3,20.5381266 L179.3,18.0581266 L177.028,18.0581266 L177.028,20.5381266 L175.652,20.5381266 L175.652,22.0581266 L177.028,22.0581266 L177.028,26.9381266 C177.028,27.3541266 177.097333,27.6901266 177.236,27.9461266 C177.374667,28.2021266 177.564,28.3994599 177.804,28.5381266 C178.044,28.6767932 178.321333,28.7701266 178.636,28.8181266 C178.950667,28.8661266 179.284,28.8901266 179.636,28.8901266 Z M185.876,29.0181266 C186.814667,29.0181266 187.614667,28.8047932 188.276,28.3781266 C188.937333,27.9514599 189.428,27.2421266 189.748,26.2501266 L187.748,26.2501266 C187.673333,26.5061266 187.470667,26.7487932 187.14,26.9781266 C186.809333,27.2074599 186.414667,27.3221266 185.956,27.3221266 C185.316,27.3221266 184.825333,27.1567932 184.484,26.8261266 C184.142667,26.4954599 183.956,25.9621266 183.924,25.2261266 L189.892,25.2261266 C189.934667,24.5861266 189.881333,23.9727932 189.732,23.3861266 C189.582667,22.7994599 189.34,22.2767932 189.004,21.8181266 C188.668,21.3594599 188.238667,20.9941266 187.716,20.7221266 C187.193333,20.4501266 186.58,20.3141266 185.876,20.3141266 C185.246667,20.3141266 184.673333,20.4261266 184.156,20.6501266 C183.638667,20.8741266 183.193333,21.1807932 182.82,21.5701266 C182.446667,21.9594599 182.158667,22.4207932 181.956,22.9541266 C181.753333,23.4874599 181.652,24.0634599 181.652,24.6821266 C181.652,25.3221266 181.750667,25.9087932 181.948,26.4421266 C182.145333,26.9754599 182.425333,27.4341266 182.788,27.8181266 C183.150667,28.2021266 183.593333,28.4981266 184.116,28.7061266 C184.638667,28.9141266 185.225333,29.0181266 185.876,29.0181266 Z M187.62,23.7861266 L183.924,23.7861266 C183.934667,23.6261266 183.969333,23.4447932 184.028,23.2421266 C184.086667,23.0394599 184.188,22.8474599 184.332,22.6661266 C184.476,22.4847932 184.668,22.3327932 184.908,22.2101266 C185.148,22.0874599 185.449333,22.0261266 185.812,22.0261266 C186.366667,22.0261266 186.78,22.1754599 187.052,22.4741266 C187.324,22.7727932 187.513333,23.2101266 187.62,23.7861266 Z M194.9,31.9301266 C195.849333,31.9301266 196.606667,31.8021266 197.172,31.5461266 C197.737333,31.2901266 198.169333,30.9781266 198.468,30.6101266 C198.766667,30.2421266 198.961333,29.8447932 199.052,29.4181266 C199.142667,28.9914599 199.188,28.6127932 199.188,28.2821266 L199.188,20.5381266 L197.028,20.5381266 L197.028,21.6421266 L196.996,21.6421266 C196.718667,21.1621266 196.374667,20.8207932 195.964,20.6181266 C195.553333,20.4154599 195.076,20.3141266 194.532,20.3141266 C193.956,20.3141266 193.446667,20.4261266 193.004,20.6501266 C192.561333,20.8741266 192.190667,21.1754599 191.892,21.5541266 C191.593333,21.9327932 191.366667,22.3701266 191.212,22.8661266 C191.057333,23.3621266 190.98,23.8767932 190.98,24.4101266 C190.98,24.9754599 191.046667,25.5114599 191.18,26.0181266 C191.313333,26.5247932 191.524,26.9674599 191.812,27.3461266 C192.1,27.7247932 192.468,28.0234599 192.916,28.2421266 C193.364,28.4607932 193.897333,28.5701266 194.516,28.5701266 C195.017333,28.5701266 195.494667,28.4661266 195.948,28.2581266 C196.401333,28.0501266 196.750667,27.7274599 196.996,27.2901266 L197.028,27.2901266 L197.028,28.3781266 C197.038667,28.9647932 196.897333,29.4501266 196.604,29.8341266 C196.310667,30.2181266 195.844,30.4101266 195.204,30.4101266 C194.798667,30.4101266 194.441333,30.3274599 194.132,30.1621266 C193.822667,29.9967932 193.614667,29.7007932 193.508,29.2741266 L191.252,29.2741266 C191.284,29.7434599 191.414667,30.1461266 191.644,30.4821266 C191.873333,30.8181266 192.161333,31.0927932 192.508,31.3061266 C192.854667,31.5194599 193.238667,31.6767932 193.66,31.7781266 C194.081333,31.8794599 194.494667,31.9301266 194.9,31.9301266 Z M195.092,26.8581266 C194.74,26.8581266 194.446667,26.7834599 194.212,26.6341266 C193.977333,26.4847932 193.788,26.2927932 193.644,26.0581266 C193.5,25.8234599 193.398667,25.5594599 193.34,25.2661266 C193.281333,24.9727932 193.252,24.6767932 193.252,24.3781266 C193.252,24.0687932 193.286667,23.7727932 193.356,23.4901266 C193.425333,23.2074599 193.537333,22.9567932 193.692,22.7381266 C193.846667,22.5194599 194.038667,22.3461266 194.268,22.2181266 C194.497333,22.0901266 194.772,22.0261266 195.092,22.0261266 C195.465333,22.0261266 195.774667,22.0954599 196.02,22.2341266 C196.265333,22.3727932 196.462667,22.5594599 196.612,22.7941266 C196.761333,23.0287932 196.868,23.2981266 196.932,23.6021266 C196.996,23.9061266 197.028,24.2287932 197.028,24.5701266 C197.028,24.8687932 196.988,25.1541266 196.908,25.4261266 C196.828,25.6981266 196.708,25.9407932 196.548,26.1541266 C196.388,26.3674599 196.185333,26.5381266 195.94,26.6661266 C195.694667,26.7941266 195.412,26.8581266 195.092,26.8581266 Z M202.244,31.7061266 C203.022667,31.7061266 203.630667,31.5621266 204.068,31.2741266 C204.505333,30.9861266 204.846667,30.5061266 205.092,29.8341266 L208.548,20.5381266 L206.196,20.5381266 L204.388,26.2021266 L204.356,26.2021266 L202.484,20.5381266 L200.068,20.5381266 L202.964,28.2981266 C203.028,28.4581266 203.06,28.6287932 203.06,28.8101266 C203.06,29.0554599 202.988,29.2794599 202.844,29.4821266 C202.7,29.6847932 202.478667,29.8021266 202.18,29.8341266 C201.956,29.8447932 201.732,29.8394599 201.508,29.8181266 C201.284,29.7967932 201.065333,29.7754599 200.852,29.7541266 L200.852,31.6261266 C201.086667,31.6474599 201.318667,31.6661266 201.548,31.6821266 C201.777333,31.6981266 202.009333,31.7061266 202.244,31.7061266 Z" id="GlobalStrategy" fill="#FFFFFF" fill-rule="nonzero"></path>
            </g>
            <g id="Equity" transform="translate(1.000000, 112.000000)">
                <path d="M54.2115074,4.15431061 C-38.8549152,11.4630227 -4.31800406,44.1470593 98.7590817,43.0023754 C201.836475,41.8576916 296.183467,52.0612509 298.958804,25.474558 C301.777227,-1.52451569 159.384406,-4.10516811 54.2115074,4.15431061" id="Fill-1" fill="#FFBF00"></path>
                <path d="M135.428,28.8101266 L135.428,26.6981266 L129.268,26.6981266 L129.268,23.8981266 L134.804,23.8981266 L134.804,21.9461266 L129.268,21.9461266 L129.268,19.4981266 L135.3,19.4981266 L135.3,17.3861266 L126.756,17.3861266 L126.756,28.8101266 L135.428,28.8101266 Z M144.948,31.7061266 L144.948,20.5381266 L142.788,20.5381266 L142.788,21.5941266 L142.756,21.5941266 C142.5,21.1354599 142.145333,20.8074599 141.692,20.6101266 C141.238667,20.4127932 140.756,20.3141266 140.244,20.3141266 C139.614667,20.3141266 139.068,20.4367932 138.604,20.6821266 C138.14,20.9274599 137.753333,21.2554599 137.444,21.6661266 C137.134667,22.0767932 136.905333,22.5487932 136.756,23.0821266 C136.606667,23.6154599 136.532,24.1647932 136.532,24.7301266 C136.532,25.5301266 136.644,26.2047932 136.868,26.7541266 C137.092,27.3034599 137.374667,27.7461266 137.716,28.0821266 C138.057333,28.4181266 138.433333,28.6581266 138.844,28.8021266 C139.254667,28.9461266 139.652,29.0181266 140.036,29.0181266 C140.548,29.0181266 141.044,28.9221266 141.524,28.7301266 C142.004,28.5381266 142.377333,28.2181266 142.644,27.7701266 L142.676,27.7701266 L142.676,31.7061266 L144.948,31.7061266 Z M140.772,27.3221266 C140.398667,27.3221266 140.086667,27.2474599 139.836,27.0981266 C139.585333,26.9487932 139.382667,26.7487932 139.228,26.4981266 C139.073333,26.2474599 138.964,25.9647932 138.9,25.6501266 C138.836,25.3354599 138.804,25.0127932 138.804,24.6821266 C138.804,24.3407932 138.838667,24.0127932 138.908,23.6981266 C138.977333,23.3834599 139.092,23.1007932 139.252,22.8501266 C139.412,22.5994599 139.62,22.3994599 139.876,22.2501266 C140.132,22.1007932 140.446667,22.0261266 140.82,22.0261266 C141.172,22.0261266 141.473333,22.1061266 141.724,22.2661266 C141.974667,22.4261266 142.174667,22.6341266 142.324,22.8901266 C142.473333,23.1461266 142.582667,23.4341266 142.652,23.7541266 C142.721333,24.0741266 142.756,24.3941266 142.756,24.7141266 C142.756,25.0554599 142.721333,25.3834599 142.652,25.6981266 C142.582667,26.0127932 142.470667,26.2901266 142.316,26.5301266 C142.161333,26.7701266 141.958667,26.9621266 141.708,27.1061266 C141.457333,27.2501266 141.145333,27.3221266 140.772,27.3221266 Z M149.684,29.0181266 C150.164,29.0181266 150.633333,28.9114599 151.092,28.6981266 C151.550667,28.4847932 151.924,28.1381266 152.212,27.6581266 L152.26,27.6581266 L152.26,28.8101266 L154.42,28.8101266 L154.42,20.5381266 L152.148,20.5381266 L152.148,24.8741266 C152.148,25.7167932 152.009333,26.3221266 151.732,26.6901266 C151.454667,27.0581266 151.006667,27.2421266 150.388,27.2421266 C149.844,27.2421266 149.465333,27.0741266 149.252,26.7381266 C149.038667,26.4021266 148.932,25.8927932 148.932,25.2101266 L148.932,20.5381266 L146.66,20.5381266 L146.66,25.6261266 C146.66,26.1381266 146.705333,26.6047932 146.796,27.0261266 C146.886667,27.4474599 147.044,27.8047932 147.268,28.0981266 C147.492,28.3914599 147.798667,28.6181266 148.188,28.7781266 C148.577333,28.9381266 149.076,29.0181266 149.684,29.0181266 Z M158.484,19.2581266 L158.484,17.3861266 L156.212,17.3861266 L156.212,19.2581266 L158.484,19.2581266 Z M158.484,28.8101266 L158.484,20.5381266 L156.212,20.5381266 L156.212,28.8101266 L158.484,28.8101266 Z M163.492,28.8901266 C163.716,28.8901266 163.945333,28.8847932 164.18,28.8741266 C164.414667,28.8634599 164.628,28.8421266 164.82,28.8101266 L164.82,27.0501266 C164.713333,27.0714599 164.601333,27.0874599 164.484,27.0981266 C164.366667,27.1087932 164.244,27.1141266 164.116,27.1141266 C163.732,27.1141266 163.476,27.0501266 163.348,26.9221266 C163.22,26.7941266 163.156,26.5381266 163.156,26.1541266 L163.156,22.0581266 L164.82,22.0581266 L164.82,20.5381266 L163.156,20.5381266 L163.156,18.0581266 L160.884,18.0581266 L160.884,20.5381266 L159.508,20.5381266 L159.508,22.0581266 L160.884,22.0581266 L160.884,26.9381266 C160.884,27.3541266 160.953333,27.6901266 161.092,27.9461266 C161.230667,28.2021266 161.42,28.3994599 161.66,28.5381266 C161.9,28.6767932 162.177333,28.7701266 162.492,28.8181266 C162.806667,28.8661266 163.14,28.8901266 163.492,28.8901266 Z M167.14,31.7061266 C167.918667,31.7061266 168.526667,31.5621266 168.964,31.2741266 C169.401333,30.9861266 169.742667,30.5061266 169.988,29.8341266 L173.444,20.5381266 L171.092,20.5381266 L169.284,26.2021266 L169.252,26.2021266 L167.38,20.5381266 L164.964,20.5381266 L167.86,28.2981266 C167.924,28.4581266 167.956,28.6287932 167.956,28.8101266 C167.956,29.0554599 167.884,29.2794599 167.74,29.4821266 C167.596,29.6847932 167.374667,29.8021266 167.076,29.8341266 C166.852,29.8447932 166.628,29.8394599 166.404,29.8181266 C166.18,29.7967932 165.961333,29.7754599 165.748,29.7541266 L165.748,31.6261266 C165.982667,31.6474599 166.214667,31.6661266 166.444,31.6821266 C166.673333,31.6981266 166.905333,31.7061266 167.14,31.7061266 Z" fill="#FFFFFF" fill-rule="nonzero"></path>
            </g>
            <g id="Schools" transform="translate(210.000000, 0.000000)">
                <path d="M9.52441918,86.0821206 C27.9304649,100.936738 74.6238633,97.8019692 84.2046245,85.2803688 C93.7853858,72.7587684 90.9058341,11.245836 79.8362732,3.93195935 C68.7667124,-3.38191727 27.0908354,-0.00971544337 15.0342111,10.057781 C2.97758675,20.1252774 -8.88162657,71.2275037 9.52441918,86.0821206 Z" id="Oval-Copy-4" fill="#9966FF"></path>
                <path d="M19.584,54.256 C20.3626667,54.256 21.048,54.1653333 21.64,53.984 C22.232,53.8026667 22.728,53.5493333 23.128,53.224 C23.528,52.8986667 23.8293333,52.512 24.032,52.064 C24.2346667,51.616 24.336,51.1306667 24.336,50.608 C24.336,49.968 24.2,49.4426667 23.928,49.032 C23.656,48.6213333 23.3333333,48.2933333 22.96,48.048 C22.5866667,47.8026667 22.2106667,47.624 21.832,47.512 C21.4533333,47.4 21.1573333,47.3226667 20.944,47.28 C20.2293333,47.0986667 19.6506667,46.9493333 19.208,46.832 C18.7653333,46.7146667 18.4186667,46.5973333 18.168,46.48 C17.9173333,46.3626667 17.7493333,46.2346667 17.664,46.096 C17.5786667,45.9573333 17.536,45.776 17.536,45.552 C17.536,45.3066667 17.5893333,45.104 17.696,44.944 C17.8026667,44.784 17.9386667,44.6506667 18.104,44.544 C18.2693333,44.4373333 18.4533333,44.3626667 18.656,44.32 C18.8586667,44.2773333 19.0613333,44.256 19.264,44.256 C19.5733333,44.256 19.8586667,44.2826667 20.12,44.336 C20.3813333,44.3893333 20.6133333,44.48 20.816,44.608 C21.0186667,44.736 21.1813333,44.912 21.304,45.136 C21.4266667,45.36 21.4986667,45.6426667 21.52,45.984 L23.952,45.984 C23.952,45.3226667 23.8266667,44.76 23.576,44.296 C23.3253333,43.832 22.9866667,43.4506667 22.56,43.152 C22.1333333,42.8533333 21.6453333,42.6373333 21.096,42.504 C20.5466667,42.3706667 19.9733333,42.304 19.376,42.304 C18.864,42.304 18.352,42.3733333 17.84,42.512 C17.328,42.6506667 16.8693333,42.864 16.464,43.152 C16.0586667,43.44 15.7306667,43.8 15.48,44.232 C15.2293333,44.664 15.104,45.1733333 15.104,45.76 C15.104,46.2826667 15.2026667,46.728 15.4,47.096 C15.5973333,47.464 15.856,47.7706667 16.176,48.016 C16.496,48.2613333 16.8586667,48.4613333 17.264,48.616 C17.6693333,48.7706667 18.0853333,48.9013333 18.512,49.008 C18.928,49.1253333 19.3386667,49.232 19.744,49.328 C20.1493333,49.424 20.512,49.536 20.832,49.664 C21.152,49.792 21.4106667,49.952 21.608,50.144 C21.8053333,50.336 21.904,50.5866667 21.904,50.896 C21.904,51.184 21.8293333,51.4213333 21.68,51.608 C21.5306667,51.7946667 21.344,51.9413333 21.12,52.048 C20.896,52.1546667 20.656,52.2266667 20.4,52.264 C20.144,52.3013333 19.904,52.32 19.68,52.32 C19.3493333,52.32 19.0293333,52.28 18.72,52.2 C18.4106667,52.12 18.1413333,51.9973333 17.912,51.832 C17.6826667,51.6666667 17.4986667,51.4506667 17.36,51.184 C17.2213333,50.9173333 17.152,50.592 17.152,50.208 L14.72,50.208 C14.7093333,50.912 14.8373333,51.52 15.104,52.032 C15.3706667,52.544 15.7306667,52.9653333 16.184,53.296 C16.6373333,53.6266667 17.16,53.8693333 17.752,54.024 C18.344,54.1786667 18.9546667,54.256 19.584,54.256 Z M29.504,54.208 C30.6026667,54.208 31.504,53.92 32.208,53.344 C32.912,52.768 33.3386667,51.9306667 33.488,50.832 L31.296,50.832 C31.2213333,51.344 31.0373333,51.752 30.744,52.056 C30.4506667,52.36 30.032,52.512 29.488,52.512 C29.136,52.512 28.8373333,52.432 28.592,52.272 C28.3466667,52.112 28.152,51.9066667 28.008,51.656 C27.864,51.4053333 27.76,51.1253333 27.696,50.816 C27.632,50.5066667 27.6,50.2026667 27.6,49.904 C27.6,49.5946667 27.632,49.2826667 27.696,48.968 C27.76,48.6533333 27.8693333,48.3653333 28.024,48.104 C28.1786667,47.8426667 28.3786667,47.6293333 28.624,47.464 C28.8693333,47.2986667 29.1733333,47.216 29.536,47.216 C30.5066667,47.216 31.0666667,47.6906667 31.216,48.64 L33.44,48.64 C33.408,48.1066667 33.28,47.6453333 33.056,47.256 C32.832,46.8666667 32.5413333,46.5413333 32.184,46.28 C31.8266667,46.0186667 31.4213333,45.824 30.968,45.696 C30.5146667,45.568 30.0426667,45.504 29.552,45.504 C28.88,45.504 28.2826667,45.616 27.76,45.84 C27.2373333,46.064 26.7946667,46.376 26.432,46.776 C26.0693333,47.176 25.7946667,47.6506667 25.608,48.2 C25.4213333,48.7493333 25.328,49.344 25.328,49.984 C25.328,50.6026667 25.4293333,51.1706667 25.632,51.688 C25.8346667,52.2053333 26.1173333,52.6506667 26.48,53.024 C26.8426667,53.3973333 27.2826667,53.688 27.8,53.896 C28.3173333,54.104 28.8853333,54.208 29.504,54.208 Z M37.04,54 L37.04,49.664 C37.04,48.8213333 37.1786667,48.216 37.456,47.848 C37.7333333,47.48 38.1813333,47.296 38.8,47.296 C39.344,47.296 39.7226667,47.464 39.936,47.8 C40.1493333,48.136 40.256,48.6453333 40.256,49.328 L40.256,54 L42.528,54 L42.528,48.912 C42.528,48.4 42.4826667,47.9333333 42.392,47.512 C42.3013333,47.0906667 42.144,46.7333333 41.92,46.44 C41.696,46.1466667 41.3893333,45.9173333 41,45.752 C40.6106667,45.5866667 40.112,45.504 39.504,45.504 C39.0773333,45.504 38.64,45.6133333 38.192,45.832 C37.744,46.0506667 37.376,46.4 37.088,46.88 L37.04,46.88 L37.04,42.576 L34.768,42.576 L34.768,54 L37.04,54 Z M48.272,54.208 C48.9226667,54.208 49.512,54.1066667 50.04,53.904 C50.568,53.7013333 51.0186667,53.4106667 51.392,53.032 C51.7653333,52.6533333 52.0533333,52.1973333 52.256,51.664 C52.4586667,51.1306667 52.56,50.5333333 52.56,49.872 C52.56,49.2106667 52.4586667,48.6106667 52.256,48.072 C52.0533333,47.5333333 51.7653333,47.0746667 51.392,46.696 C51.0186667,46.3173333 50.568,46.024 50.04,45.816 C49.512,45.608 48.9226667,45.504 48.272,45.504 C47.6213333,45.504 47.0346667,45.608 46.512,45.816 C45.9893333,46.024 45.5413333,46.3173333 45.168,46.696 C44.7946667,47.0746667 44.5066667,47.5333333 44.304,48.072 C44.1013333,48.6106667 44,49.2106667 44,49.872 C44,50.5333333 44.1013333,51.1306667 44.304,51.664 C44.5066667,52.1973333 44.7946667,52.6533333 45.168,53.032 C45.5413333,53.4106667 45.9893333,53.7013333 46.512,53.904 C47.0346667,54.1066667 47.6213333,54.208 48.272,54.208 Z M48.272,52.512 C47.888,52.512 47.568,52.4373333 47.312,52.288 C47.056,52.1386667 46.8506667,51.9386667 46.696,51.688 C46.5413333,51.4373333 46.432,51.1546667 46.368,50.84 C46.304,50.5253333 46.272,50.2026667 46.272,49.872 C46.272,49.5413333 46.304,49.216 46.368,48.896 C46.432,48.576 46.5413333,48.2933333 46.696,48.048 C46.8506667,47.8026667 47.056,47.6026667 47.312,47.448 C47.568,47.2933333 47.888,47.216 48.272,47.216 C48.656,47.216 48.9786667,47.2933333 49.24,47.448 C49.5013333,47.6026667 49.7093333,47.8026667 49.864,48.048 C50.0186667,48.2933333 50.128,48.576 50.192,48.896 C50.256,49.216 50.288,49.5413333 50.288,49.872 C50.288,50.2026667 50.256,50.5253333 50.192,50.84 C50.128,51.1546667 50.0186667,51.4373333 49.864,51.688 C49.7093333,51.9386667 49.5013333,52.1386667 49.24,52.288 C48.9786667,52.4373333 48.656,52.512 48.272,52.512 Z M58.048,54.208 C58.6986667,54.208 59.288,54.1066667 59.816,53.904 C60.344,53.7013333 60.7946667,53.4106667 61.168,53.032 C61.5413333,52.6533333 61.8293333,52.1973333 62.032,51.664 C62.2346667,51.1306667 62.336,50.5333333 62.336,49.872 C62.336,49.2106667 62.2346667,48.6106667 62.032,48.072 C61.8293333,47.5333333 61.5413333,47.0746667 61.168,46.696 C60.7946667,46.3173333 60.344,46.024 59.816,45.816 C59.288,45.608 58.6986667,45.504 58.048,45.504 C57.3973333,45.504 56.8106667,45.608 56.288,45.816 C55.7653333,46.024 55.3173333,46.3173333 54.944,46.696 C54.5706667,47.0746667 54.2826667,47.5333333 54.08,48.072 C53.8773333,48.6106667 53.776,49.2106667 53.776,49.872 C53.776,50.5333333 53.8773333,51.1306667 54.08,51.664 C54.2826667,52.1973333 54.5706667,52.6533333 54.944,53.032 C55.3173333,53.4106667 55.7653333,53.7013333 56.288,53.904 C56.8106667,54.1066667 57.3973333,54.208 58.048,54.208 Z M58.048,52.512 C57.664,52.512 57.344,52.4373333 57.088,52.288 C56.832,52.1386667 56.6266667,51.9386667 56.472,51.688 C56.3173333,51.4373333 56.208,51.1546667 56.144,50.84 C56.08,50.5253333 56.048,50.2026667 56.048,49.872 C56.048,49.5413333 56.08,49.216 56.144,48.896 C56.208,48.576 56.3173333,48.2933333 56.472,48.048 C56.6266667,47.8026667 56.832,47.6026667 57.088,47.448 C57.344,47.2933333 57.664,47.216 58.048,47.216 C58.432,47.216 58.7546667,47.2933333 59.016,47.448 C59.2773333,47.6026667 59.4853333,47.8026667 59.64,48.048 C59.7946667,48.2933333 59.904,48.576 59.968,48.896 C60.032,49.216 60.064,49.5413333 60.064,49.872 C60.064,50.2026667 60.032,50.5253333 59.968,50.84 C59.904,51.1546667 59.7946667,51.4373333 59.64,51.688 C59.4853333,51.9386667 59.2773333,52.1386667 59.016,52.288 C58.7546667,52.4373333 58.432,52.512 58.048,52.512 Z M66.144,54 L66.144,42.576 L63.872,42.576 L63.872,54 L66.144,54 Z M71.424,54.208 C71.8933333,54.208 72.3546667,54.1626667 72.808,54.072 C73.2613333,53.9813333 73.664,53.824 74.016,53.6 C74.368,53.376 74.6533333,53.08 74.872,52.712 C75.0906667,52.344 75.2,51.888 75.2,51.344 C75.2,50.96 75.1253333,50.6373333 74.976,50.376 C74.8266667,50.1146667 74.6293333,49.896 74.384,49.72 C74.1386667,49.544 73.8586667,49.4026667 73.544,49.296 C73.2293333,49.1893333 72.9066667,49.0986667 72.576,49.024 C72.256,48.9493333 71.9413333,48.88 71.632,48.816 C71.3226667,48.752 71.048,48.68 70.808,48.6 C70.568,48.52 70.3733333,48.416 70.224,48.288 C70.0746667,48.16 70,47.9946667 70,47.792 C70,47.6213333 70.0426667,47.4853333 70.128,47.384 C70.2133333,47.2826667 70.3173333,47.2053333 70.44,47.152 C70.5626667,47.0986667 70.6986667,47.064 70.848,47.048 C70.9973333,47.032 71.136,47.024 71.264,47.024 C71.6693333,47.024 72.0213333,47.1013333 72.32,47.256 C72.6186667,47.4106667 72.784,47.7066667 72.816,48.144 L74.976,48.144 C74.9333333,47.632 74.8026667,47.208 74.584,46.872 C74.3653333,46.536 74.0906667,46.2666667 73.76,46.064 C73.4293333,45.8613333 73.0533333,45.7173333 72.632,45.632 C72.2106667,45.5466667 71.776,45.504 71.328,45.504 C70.88,45.504 70.4426667,45.544 70.016,45.624 C69.5893333,45.704 69.2053333,45.8426667 68.864,46.04 C68.5226667,46.2373333 68.248,46.5066667 68.04,46.848 C67.832,47.1893333 67.728,47.6266667 67.728,48.16 C67.728,48.5226667 67.8026667,48.8293333 67.952,49.08 C68.1013333,49.3306667 68.2986667,49.5386667 68.544,49.704 C68.7893333,49.8693333 69.0693333,50.0026667 69.384,50.104 C69.6986667,50.2053333 70.0213333,50.2933333 70.352,50.368 C71.1626667,50.5386667 71.7946667,50.7093333 72.248,50.88 C72.7013333,51.0506667 72.928,51.3066667 72.928,51.648 C72.928,51.8506667 72.88,52.0186667 72.784,52.152 C72.688,52.2853333 72.568,52.392 72.424,52.472 C72.28,52.552 72.12,52.6106667 71.944,52.648 C71.768,52.6853333 71.6,52.704 71.44,52.704 C71.216,52.704 71,52.6773333 70.792,52.624 C70.584,52.5706667 70.4,52.488 70.24,52.376 C70.08,52.264 69.9493333,52.12 69.848,51.944 C69.7466667,51.768 69.696,51.5573333 69.696,51.312 L67.536,51.312 C67.5573333,51.8666667 67.6826667,52.328 67.912,52.696 C68.1413333,53.064 68.4346667,53.36 68.792,53.584 C69.1493333,53.808 69.5573333,53.968 70.016,54.064 C70.4746667,54.16 70.944,54.208 71.424,54.208 Z" fill="#FFFFFF" fill-rule="nonzero"></path>
            </g>
            <g id="Community" transform="translate(97.000000, 0.000000)">
                <path d="M92.626176,82.3739325 C108.328889,69.1916327 109.132165,37.5249517 100.583439,16.4186913 C92.0347132,-4.68756908 10.3652127,-4.68756908 4.26369168,12.0802632 C-1.83782937,28.8480956 -2.66748965,77.8870461 10.3652127,89.6563412 C23.3979151,101.425636 76.9234627,95.5562323 92.626176,82.3739325 Z" id="Oval-Copy" fill="#4D97FF"></path>
                <path d="M14.892,54.256 C15.596,54.256 16.2413333,54.1493333 16.828,53.936 C17.4146667,53.7226667 17.9266667,53.4133333 18.364,53.008 C18.8013333,52.6026667 19.1533333,52.112 19.42,51.536 C19.6866667,50.96 19.852,50.3146667 19.916,49.6 L17.484,49.6 C17.388,50.368 17.124,50.9866667 16.692,51.456 C16.26,51.9253333 15.66,52.16 14.892,52.16 C14.3266667,52.16 13.8466667,52.0506667 13.452,51.832 C13.0573333,51.6133333 12.7373333,51.3226667 12.492,50.96 C12.2466667,50.5973333 12.068,50.1893333 11.956,49.736 C11.844,49.2826667 11.788,48.816 11.788,48.336 C11.788,47.8346667 11.844,47.3493333 11.956,46.88 C12.068,46.4106667 12.2466667,45.992 12.492,45.624 C12.7373333,45.256 13.0573333,44.9626667 13.452,44.744 C13.8466667,44.5253333 14.3266667,44.416 14.892,44.416 C15.2013333,44.416 15.4973333,44.4666667 15.78,44.568 C16.0626667,44.6693333 16.316,44.8106667 16.54,44.992 C16.764,45.1733333 16.9506667,45.384 17.1,45.624 C17.2493333,45.864 17.3453333,46.128 17.388,46.416 L19.82,46.416 C19.7453333,45.7546667 19.564,45.168 19.276,44.656 C18.988,44.144 18.6226667,43.7146667 18.18,43.368 C17.7373333,43.0213333 17.236,42.7573333 16.676,42.576 C16.116,42.3946667 15.5213333,42.304 14.892,42.304 C14.0173333,42.304 13.2306667,42.4586667 12.532,42.768 C11.8333333,43.0773333 11.244,43.504 10.764,44.048 C10.284,44.592 9.916,45.2293333 9.66,45.96 C9.404,46.6906667 9.276,47.4826667 9.276,48.336 C9.276,49.168 9.404,49.944 9.66,50.664 C9.916,51.384 10.284,52.0106667 10.764,52.544 C11.244,53.0773333 11.8333333,53.496 12.532,53.8 C13.2306667,54.104 14.0173333,54.256 14.892,54.256 Z M25.404,54.208 C26.0546667,54.208 26.644,54.1066667 27.172,53.904 C27.7,53.7013333 28.1506667,53.4106667 28.524,53.032 C28.8973333,52.6533333 29.1853333,52.1973333 29.388,51.664 C29.5906667,51.1306667 29.692,50.5333333 29.692,49.872 C29.692,49.2106667 29.5906667,48.6106667 29.388,48.072 C29.1853333,47.5333333 28.8973333,47.0746667 28.524,46.696 C28.1506667,46.3173333 27.7,46.024 27.172,45.816 C26.644,45.608 26.0546667,45.504 25.404,45.504 C24.7533333,45.504 24.1666667,45.608 23.644,45.816 C23.1213333,46.024 22.6733333,46.3173333 22.3,46.696 C21.9266667,47.0746667 21.6386667,47.5333333 21.436,48.072 C21.2333333,48.6106667 21.132,49.2106667 21.132,49.872 C21.132,50.5333333 21.2333333,51.1306667 21.436,51.664 C21.6386667,52.1973333 21.9266667,52.6533333 22.3,53.032 C22.6733333,53.4106667 23.1213333,53.7013333 23.644,53.904 C24.1666667,54.1066667 24.7533333,54.208 25.404,54.208 Z M25.404,52.512 C25.02,52.512 24.7,52.4373333 24.444,52.288 C24.188,52.1386667 23.9826667,51.9386667 23.828,51.688 C23.6733333,51.4373333 23.564,51.1546667 23.5,50.84 C23.436,50.5253333 23.404,50.2026667 23.404,49.872 C23.404,49.5413333 23.436,49.216 23.5,48.896 C23.564,48.576 23.6733333,48.2933333 23.828,48.048 C23.9826667,47.8026667 24.188,47.6026667 24.444,47.448 C24.7,47.2933333 25.02,47.216 25.404,47.216 C25.788,47.216 26.1106667,47.2933333 26.372,47.448 C26.6333333,47.6026667 26.8413333,47.8026667 26.996,48.048 C27.1506667,48.2933333 27.26,48.576 27.324,48.896 C27.388,49.216 27.42,49.5413333 27.42,49.872 C27.42,50.2026667 27.388,50.5253333 27.324,50.84 C27.26,51.1546667 27.1506667,51.4373333 26.996,51.688 C26.8413333,51.9386667 26.6333333,52.1386667 26.372,52.288 C26.1106667,52.4373333 25.788,52.512 25.404,52.512 Z M33.5,54 L33.5,49.2 C33.5,48.7946667 33.5586667,48.4666667 33.676,48.216 C33.7933333,47.9653333 33.9346667,47.7733333 34.1,47.64 C34.2653333,47.5066667 34.436,47.416 34.612,47.368 C34.788,47.32 34.9293333,47.296 35.036,47.296 C35.3986667,47.296 35.6733333,47.3573333 35.86,47.48 C36.0466667,47.6026667 36.18,47.7653333 36.26,47.968 C36.34,48.1706667 36.3853333,48.392 36.396,48.632 C36.4066667,48.872 36.412,49.1146667 36.412,49.36 L36.412,54 L38.684,54 L38.684,49.392 C38.684,49.136 38.7026667,48.8826667 38.74,48.632 C38.7773333,48.3813333 38.852,48.1573333 38.964,47.96 C39.076,47.7626667 39.2306667,47.6026667 39.428,47.48 C39.6253333,47.3573333 39.884,47.296 40.204,47.296 C40.524,47.296 40.7773333,47.3493333 40.964,47.456 C41.1506667,47.5626667 41.292,47.7066667 41.388,47.888 C41.484,48.0693333 41.5426667,48.2826667 41.564,48.528 C41.5853333,48.7733333 41.596,49.0346667 41.596,49.312 L41.596,54 L43.868,54 L43.868,48.464 C43.868,47.9306667 43.7933333,47.4746667 43.644,47.096 C43.4946667,46.7173333 43.2866667,46.4106667 43.02,46.176 C42.7533333,45.9413333 42.4333333,45.7706667 42.06,45.664 C41.6866667,45.5573333 41.2813333,45.504 40.844,45.504 C40.268,45.504 39.7693333,45.6426667 39.348,45.92 C38.9266667,46.1973333 38.5933333,46.5173333 38.348,46.88 C38.124,46.368 37.796,46.0106667 37.364,45.808 C36.932,45.6053333 36.4546667,45.504 35.932,45.504 C35.388,45.504 34.9053333,45.6213333 34.484,45.856 C34.0626667,46.0906667 33.7026667,46.4213333 33.404,46.848 L33.372,46.848 L33.372,45.728 L31.228,45.728 L31.228,54 L33.5,54 Z M47.996,54 L47.996,49.2 C47.996,48.7946667 48.0546667,48.4666667 48.172,48.216 C48.2893333,47.9653333 48.4306667,47.7733333 48.596,47.64 C48.7613333,47.5066667 48.932,47.416 49.108,47.368 C49.284,47.32 49.4253333,47.296 49.532,47.296 C49.8946667,47.296 50.1693333,47.3573333 50.356,47.48 C50.5426667,47.6026667 50.676,47.7653333 50.756,47.968 C50.836,48.1706667 50.8813333,48.392 50.892,48.632 C50.9026667,48.872 50.908,49.1146667 50.908,49.36 L50.908,54 L53.18,54 L53.18,49.392 C53.18,49.136 53.1986667,48.8826667 53.236,48.632 C53.2733333,48.3813333 53.348,48.1573333 53.46,47.96 C53.572,47.7626667 53.7266667,47.6026667 53.924,47.48 C54.1213333,47.3573333 54.38,47.296 54.7,47.296 C55.02,47.296 55.2733333,47.3493333 55.46,47.456 C55.6466667,47.5626667 55.788,47.7066667 55.884,47.888 C55.98,48.0693333 56.0386667,48.2826667 56.06,48.528 C56.0813333,48.7733333 56.092,49.0346667 56.092,49.312 L56.092,54 L58.364,54 L58.364,48.464 C58.364,47.9306667 58.2893333,47.4746667 58.14,47.096 C57.9906667,46.7173333 57.7826667,46.4106667 57.516,46.176 C57.2493333,45.9413333 56.9293333,45.7706667 56.556,45.664 C56.1826667,45.5573333 55.7773333,45.504 55.34,45.504 C54.764,45.504 54.2653333,45.6426667 53.844,45.92 C53.4226667,46.1973333 53.0893333,46.5173333 52.844,46.88 C52.62,46.368 52.292,46.0106667 51.86,45.808 C51.428,45.6053333 50.9506667,45.504 50.428,45.504 C49.884,45.504 49.4013333,45.6213333 48.98,45.856 C48.5586667,46.0906667 48.1986667,46.4213333 47.9,46.848 L47.868,46.848 L47.868,45.728 L45.724,45.728 L45.724,54 L47.996,54 Z M63.18,54.208 C63.66,54.208 64.1293333,54.1013333 64.588,53.888 C65.0466667,53.6746667 65.42,53.328 65.708,52.848 L65.756,52.848 L65.756,54 L67.916,54 L67.916,45.728 L65.644,45.728 L65.644,50.064 C65.644,50.9066667 65.5053333,51.512 65.228,51.88 C64.9506667,52.248 64.5026667,52.432 63.884,52.432 C63.34,52.432 62.9613333,52.264 62.748,51.928 C62.5346667,51.592 62.428,51.0826667 62.428,50.4 L62.428,45.728 L60.156,45.728 L60.156,50.816 C60.156,51.328 60.2013333,51.7946667 60.292,52.216 C60.3826667,52.6373333 60.54,52.9946667 60.764,53.288 C60.988,53.5813333 61.2946667,53.808 61.684,53.968 C62.0733333,54.128 62.572,54.208 63.18,54.208 Z M71.916,54 L71.916,49.664 C71.916,48.8213333 72.0546667,48.216 72.332,47.848 C72.6093333,47.48 73.0573333,47.296 73.676,47.296 C74.22,47.296 74.5986667,47.464 74.812,47.8 C75.0253333,48.136 75.132,48.6453333 75.132,49.328 L75.132,54 L77.404,54 L77.404,48.912 C77.404,48.4 77.3586667,47.9333333 77.268,47.512 C77.1773333,47.0906667 77.02,46.7333333 76.796,46.44 C76.572,46.1466667 76.2653333,45.9173333 75.876,45.752 C75.4866667,45.5866667 74.988,45.504 74.38,45.504 C73.9,45.504 73.4306667,45.6133333 72.972,45.832 C72.5133333,46.0506667 72.14,46.4 71.852,46.88 L71.804,46.88 L71.804,45.728 L69.644,45.728 L69.644,54 L71.916,54 Z M81.468,44.448 L81.468,42.576 L79.196,42.576 L79.196,44.448 L81.468,44.448 Z M81.468,54 L81.468,45.728 L79.196,45.728 L79.196,54 L81.468,54 Z M86.476,54.08 C86.7,54.08 86.9293333,54.0746667 87.164,54.064 C87.3986667,54.0533333 87.612,54.032 87.804,54 L87.804,52.24 C87.6973333,52.2613333 87.5853333,52.2773333 87.468,52.288 C87.3506667,52.2986667 87.228,52.304 87.1,52.304 C86.716,52.304 86.46,52.24 86.332,52.112 C86.204,51.984 86.14,51.728 86.14,51.344 L86.14,47.248 L87.804,47.248 L87.804,45.728 L86.14,45.728 L86.14,43.248 L83.868,43.248 L83.868,45.728 L82.492,45.728 L82.492,47.248 L83.868,47.248 L83.868,52.128 C83.868,52.544 83.9373333,52.88 84.076,53.136 C84.2146667,53.392 84.404,53.5893333 84.644,53.728 C84.884,53.8666667 85.1613333,53.96 85.476,54.008 C85.7906667,54.056 86.124,54.08 86.476,54.08 Z M90.124,56.896 C90.9026667,56.896 91.5106667,56.752 91.948,56.464 C92.3853333,56.176 92.7266667,55.696 92.972,55.024 L96.428,45.728 L94.076,45.728 L92.268,51.392 L92.236,51.392 L90.364,45.728 L87.948,45.728 L90.844,53.488 C90.908,53.648 90.94,53.8186667 90.94,54 C90.94,54.2453333 90.868,54.4693333 90.724,54.672 C90.58,54.8746667 90.3586667,54.992 90.06,55.024 C89.836,55.0346667 89.612,55.0293333 89.388,55.008 C89.164,54.9866667 88.9453333,54.9653333 88.732,54.944 L88.732,56.816 C88.9666667,56.8373333 89.1986667,56.856 89.428,56.872 C89.6573333,56.888 89.8893333,56.896 90.124,56.896 Z" fill="#FFFFFF" fill-rule="nonzero"></path>
            </g>
            <g id="Creative-Tools">
                <path d="M70.2390316,93.3745758 C95.1189443,89.2300567 91.6595383,42.8319929 85.7023761,21.764021 C79.7452139,0.696049068 37.3525034,-4.39131978 16.6776464,3.55234177 C-3.99721068,11.4960033 -2.43608966,55.3221603 5.27317908,77.426262 C12.9824478,99.5303637 45.3591189,97.5190948 70.2390316,93.3745758 Z" id="Oval" fill="#0EBD8C"></path>
                <path d="M19.512,45.256 C20.216,45.256 20.8613333,45.1493333 21.448,44.936 C22.0346667,44.7226667 22.5466667,44.4133333 22.984,44.008 C23.4213333,43.6026667 23.7733333,43.112 24.04,42.536 C24.3066667,41.96 24.472,41.3146667 24.536,40.6 L22.104,40.6 C22.008,41.368 21.744,41.9866667 21.312,42.456 C20.88,42.9253333 20.28,43.16 19.512,43.16 C18.9466667,43.16 18.4666667,43.0506667 18.072,42.832 C17.6773333,42.6133333 17.3573333,42.3226667 17.112,41.96 C16.8666667,41.5973333 16.688,41.1893333 16.576,40.736 C16.464,40.2826667 16.408,39.816 16.408,39.336 C16.408,38.8346667 16.464,38.3493333 16.576,37.88 C16.688,37.4106667 16.8666667,36.992 17.112,36.624 C17.3573333,36.256 17.6773333,35.9626667 18.072,35.744 C18.4666667,35.5253333 18.9466667,35.416 19.512,35.416 C19.8213333,35.416 20.1173333,35.4666667 20.4,35.568 C20.6826667,35.6693333 20.936,35.8106667 21.16,35.992 C21.384,36.1733333 21.5706667,36.384 21.72,36.624 C21.8693333,36.864 21.9653333,37.128 22.008,37.416 L24.44,37.416 C24.3653333,36.7546667 24.184,36.168 23.896,35.656 C23.608,35.144 23.2426667,34.7146667 22.8,34.368 C22.3573333,34.0213333 21.856,33.7573333 21.296,33.576 C20.736,33.3946667 20.1413333,33.304 19.512,33.304 C18.6373333,33.304 17.8506667,33.4586667 17.152,33.768 C16.4533333,34.0773333 15.864,34.504 15.384,35.048 C14.904,35.592 14.536,36.2293333 14.28,36.96 C14.024,37.6906667 13.896,38.4826667 13.896,39.336 C13.896,40.168 14.024,40.944 14.28,41.664 C14.536,42.384 14.904,43.0106667 15.384,43.544 C15.864,44.0773333 16.4533333,44.496 17.152,44.8 C17.8506667,45.104 18.6373333,45.256 19.512,45.256 Z M28.28,45 L28.28,41.272 C28.28,40.8986667 28.3173333,40.552 28.392,40.232 C28.4666667,39.912 28.592,39.632 28.768,39.392 C28.944,39.152 29.176,38.9626667 29.464,38.824 C29.752,38.6853333 30.104,38.616 30.52,38.616 C30.6586667,38.616 30.8026667,38.624 30.952,38.64 C31.1013333,38.656 31.2293333,38.6746667 31.336,38.696 L31.336,36.584 C31.1546667,36.5306667 30.9893333,36.504 30.84,36.504 C30.552,36.504 30.2746667,36.5466667 30.008,36.632 C29.7413333,36.7173333 29.4906667,36.8373333 29.256,36.992 C29.0213333,37.1466667 28.8133333,37.3333333 28.632,37.552 C28.4506667,37.7706667 28.3066667,38.008 28.2,38.264 L28.168,38.264 L28.168,36.728 L26.008,36.728 L26.008,45 L28.28,45 Z M35.768,45.208 C36.7066667,45.208 37.5066667,44.9946667 38.168,44.568 C38.8293333,44.1413333 39.32,43.432 39.64,42.44 L37.64,42.44 C37.5653333,42.696 37.3626667,42.9386667 37.032,43.168 C36.7013333,43.3973333 36.3066667,43.512 35.848,43.512 C35.208,43.512 34.7173333,43.3466667 34.376,43.016 C34.0346667,42.6853333 33.848,42.152 33.816,41.416 L39.784,41.416 C39.8266667,40.776 39.7733333,40.1626667 39.624,39.576 C39.4746667,38.9893333 39.232,38.4666667 38.896,38.008 C38.56,37.5493333 38.1306667,37.184 37.608,36.912 C37.0853333,36.64 36.472,36.504 35.768,36.504 C35.1386667,36.504 34.5653333,36.616 34.048,36.84 C33.5306667,37.064 33.0853333,37.3706667 32.712,37.76 C32.3386667,38.1493333 32.0506667,38.6106667 31.848,39.144 C31.6453333,39.6773333 31.544,40.2533333 31.544,40.872 C31.544,41.512 31.6426667,42.0986667 31.84,42.632 C32.0373333,43.1653333 32.3173333,43.624 32.68,44.008 C33.0426667,44.392 33.4853333,44.688 34.008,44.896 C34.5306667,45.104 35.1173333,45.208 35.768,45.208 Z M37.512,39.976 L33.816,39.976 C33.8266667,39.816 33.8613333,39.6346667 33.92,39.432 C33.9786667,39.2293333 34.08,39.0373333 34.224,38.856 C34.368,38.6746667 34.56,38.5226667 34.8,38.4 C35.04,38.2773333 35.3413333,38.216 35.704,38.216 C36.2586667,38.216 36.672,38.3653333 36.944,38.664 C37.216,38.9626667 37.4053333,39.4 37.512,39.976 Z M43.592,45.208 C44.104,45.208 44.6053333,45.1333333 45.096,44.984 C45.5866667,44.8346667 46.0133333,44.5733333 46.376,44.2 C46.3866667,44.3386667 46.4053333,44.4746667 46.432,44.608 C46.4586667,44.7413333 46.4933333,44.872 46.536,45 L46.536,45 L48.84,45 C48.7333333,44.8293333 48.6586667,44.5733333 48.616,44.232 C48.5733333,43.8906667 48.552,43.5333333 48.552,43.16 L48.552,43.16 L48.552,38.856 C48.552,38.3546667 48.44,37.952 48.216,37.648 C47.992,37.344 47.704,37.1066667 47.352,36.936 C47,36.7653333 46.6106667,36.6506667 46.184,36.592 C45.7573333,36.5333333 45.336,36.504 44.92,36.504 C44.4613333,36.504 44.0053333,36.5493333 43.552,36.64 C43.0986667,36.7306667 42.6906667,36.8826667 42.328,37.096 C41.9653333,37.3093333 41.6666667,37.592 41.432,37.944 C41.1973333,38.296 41.064,38.7386667 41.032,39.272 L41.032,39.272 L43.304,39.272 C43.3466667,38.824 43.496,38.504 43.752,38.312 C44.008,38.12 44.36,38.024 44.808,38.024 C45.0106667,38.024 45.2,38.0373333 45.376,38.064 C45.552,38.0906667 45.7066667,38.144 45.84,38.224 C45.9733333,38.304 46.08,38.416 46.16,38.56 C46.24,38.704 46.28,38.8986667 46.28,39.144 C46.2906667,39.3786667 46.2213333,39.5573333 46.072,39.68 C45.9226667,39.8026667 45.72,39.896 45.464,39.96 C45.208,40.024 44.9146667,40.072 44.584,40.104 C44.2533333,40.136 43.9173333,40.1786667 43.576,40.232 C43.2346667,40.2853333 42.896,40.3573333 42.56,40.448 C42.224,40.5386667 41.9253333,40.6746667 41.664,40.856 C41.4026667,41.0373333 41.1893333,41.28 41.024,41.584 C40.8586667,41.888 40.776,42.2746667 40.776,42.744 C40.776,43.1706667 40.848,43.5386667 40.992,43.848 C41.136,44.1573333 41.336,44.4133333 41.592,44.616 C41.848,44.8186667 42.1466667,44.968 42.488,45.064 C42.8293333,45.16 43.1973333,45.208 43.592,45.208 Z M44.44,43.704 C44.2586667,43.704 44.0826667,43.688 43.912,43.656 C43.7413333,43.624 43.592,43.568 43.464,43.488 C43.336,43.408 43.2346667,43.2986667 43.16,43.16 C43.0853333,43.0213333 43.048,42.8506667 43.048,42.648 C43.048,42.4346667 43.0853333,42.2586667 43.16,42.12 C43.2346667,41.9813333 43.3333333,41.8666667 43.456,41.776 C43.5786667,41.6853333 43.7226667,41.6133333 43.888,41.56 C44.0533333,41.5066667 44.2213333,41.464 44.392,41.432 C44.5733333,41.4 44.7546667,41.3733333 44.936,41.352 C45.1173333,41.3306667 45.2906667,41.304 45.456,41.272 C45.6213333,41.24 45.776,41.2 45.92,41.152 C46.064,41.104 46.184,41.0373333 46.28,40.952 L46.28,40.952 L46.28,41.8 C46.28,41.928 46.2666667,42.0986667 46.24,42.312 C46.2133333,42.5253333 46.1413333,42.736 46.024,42.944 C45.9066667,43.152 45.7253333,43.3306667 45.48,43.48 C45.2346667,43.6293333 44.888,43.704 44.44,43.704 Z M53.528,45.08 C53.752,45.08 53.9813333,45.0746667 54.216,45.064 C54.4506667,45.0533333 54.664,45.032 54.856,45 L54.856,43.24 C54.7493333,43.2613333 54.6373333,43.2773333 54.52,43.288 C54.4026667,43.2986667 54.28,43.304 54.152,43.304 C53.768,43.304 53.512,43.24 53.384,43.112 C53.256,42.984 53.192,42.728 53.192,42.344 L53.192,38.248 L54.856,38.248 L54.856,36.728 L53.192,36.728 L53.192,34.248 L50.92,34.248 L50.92,36.728 L49.544,36.728 L49.544,38.248 L50.92,38.248 L50.92,43.128 C50.92,43.544 50.9893333,43.88 51.128,44.136 C51.2666667,44.392 51.456,44.5893333 51.696,44.728 C51.936,44.8666667 52.2133333,44.96 52.528,45.008 C52.8426667,45.056 53.176,45.08 53.528,45.08 Z M58.28,35.448 L58.28,33.576 L56.008,33.576 L56.008,35.448 L58.28,35.448 Z M58.28,45 L58.28,36.728 L56.008,36.728 L56.008,45 L58.28,45 Z M64.648,45 L67.448,36.728 L65.192,36.728 L63.448,42.376 L63.416,42.376 L61.672,36.728 L59.288,36.728 L62.12,45 L64.648,45 Z M72.216,45.208 C73.1546667,45.208 73.9546667,44.9946667 74.616,44.568 C75.2773333,44.1413333 75.768,43.432 76.088,42.44 L74.088,42.44 C74.0133333,42.696 73.8106667,42.9386667 73.48,43.168 C73.1493333,43.3973333 72.7546667,43.512 72.296,43.512 C71.656,43.512 71.1653333,43.3466667 70.824,43.016 C70.4826667,42.6853333 70.296,42.152 70.264,41.416 L76.232,41.416 C76.2746667,40.776 76.2213333,40.1626667 76.072,39.576 C75.9226667,38.9893333 75.68,38.4666667 75.344,38.008 C75.008,37.5493333 74.5786667,37.184 74.056,36.912 C73.5333333,36.64 72.92,36.504 72.216,36.504 C71.5866667,36.504 71.0133333,36.616 70.496,36.84 C69.9786667,37.064 69.5333333,37.3706667 69.16,37.76 C68.7866667,38.1493333 68.4986667,38.6106667 68.296,39.144 C68.0933333,39.6773333 67.992,40.2533333 67.992,40.872 C67.992,41.512 68.0906667,42.0986667 68.288,42.632 C68.4853333,43.1653333 68.7653333,43.624 69.128,44.008 C69.4906667,44.392 69.9333333,44.688 70.456,44.896 C70.9786667,45.104 71.5653333,45.208 72.216,45.208 Z M73.96,39.976 L70.264,39.976 C70.2746667,39.816 70.3093333,39.6346667 70.368,39.432 C70.4266667,39.2293333 70.528,39.0373333 70.672,38.856 C70.816,38.6746667 71.008,38.5226667 71.248,38.4 C71.488,38.2773333 71.7893333,38.216 72.152,38.216 C72.7066667,38.216 73.12,38.3653333 73.392,38.664 C73.664,38.9626667 73.8533333,39.4 73.96,39.976 Z M31.008,64 L31.008,54.688 L34.432,54.688 L34.432,52.576 L25.072,52.576 L25.072,54.688 L28.496,54.688 L28.496,64 L31.008,64 Z M37.744,64.208 C38.3946667,64.208 38.984,64.1066667 39.512,63.904 C40.04,63.7013333 40.4906667,63.4106667 40.864,63.032 C41.2373333,62.6533333 41.5253333,62.1973333 41.728,61.664 C41.9306667,61.1306667 42.032,60.5333333 42.032,59.872 C42.032,59.2106667 41.9306667,58.6106667 41.728,58.072 C41.5253333,57.5333333 41.2373333,57.0746667 40.864,56.696 C40.4906667,56.3173333 40.04,56.024 39.512,55.816 C38.984,55.608 38.3946667,55.504 37.744,55.504 C37.0933333,55.504 36.5066667,55.608 35.984,55.816 C35.4613333,56.024 35.0133333,56.3173333 34.64,56.696 C34.2666667,57.0746667 33.9786667,57.5333333 33.776,58.072 C33.5733333,58.6106667 33.472,59.2106667 33.472,59.872 C33.472,60.5333333 33.5733333,61.1306667 33.776,61.664 C33.9786667,62.1973333 34.2666667,62.6533333 34.64,63.032 C35.0133333,63.4106667 35.4613333,63.7013333 35.984,63.904 C36.5066667,64.1066667 37.0933333,64.208 37.744,64.208 Z M37.744,62.512 C37.36,62.512 37.04,62.4373333 36.784,62.288 C36.528,62.1386667 36.3226667,61.9386667 36.168,61.688 C36.0133333,61.4373333 35.904,61.1546667 35.84,60.84 C35.776,60.5253333 35.744,60.2026667 35.744,59.872 C35.744,59.5413333 35.776,59.216 35.84,58.896 C35.904,58.576 36.0133333,58.2933333 36.168,58.048 C36.3226667,57.8026667 36.528,57.6026667 36.784,57.448 C37.04,57.2933333 37.36,57.216 37.744,57.216 C38.128,57.216 38.4506667,57.2933333 38.712,57.448 C38.9733333,57.6026667 39.1813333,57.8026667 39.336,58.048 C39.4906667,58.2933333 39.6,58.576 39.664,58.896 C39.728,59.216 39.76,59.5413333 39.76,59.872 C39.76,60.2026667 39.728,60.5253333 39.664,60.84 C39.6,61.1546667 39.4906667,61.4373333 39.336,61.688 C39.1813333,61.9386667 38.9733333,62.1386667 38.712,62.288 C38.4506667,62.4373333 38.128,62.512 37.744,62.512 Z M47.52,64.208 C48.1706667,64.208 48.76,64.1066667 49.288,63.904 C49.816,63.7013333 50.2666667,63.4106667 50.64,63.032 C51.0133333,62.6533333 51.3013333,62.1973333 51.504,61.664 C51.7066667,61.1306667 51.808,60.5333333 51.808,59.872 C51.808,59.2106667 51.7066667,58.6106667 51.504,58.072 C51.3013333,57.5333333 51.0133333,57.0746667 50.64,56.696 C50.2666667,56.3173333 49.816,56.024 49.288,55.816 C48.76,55.608 48.1706667,55.504 47.52,55.504 C46.8693333,55.504 46.2826667,55.608 45.76,55.816 C45.2373333,56.024 44.7893333,56.3173333 44.416,56.696 C44.0426667,57.0746667 43.7546667,57.5333333 43.552,58.072 C43.3493333,58.6106667 43.248,59.2106667 43.248,59.872 C43.248,60.5333333 43.3493333,61.1306667 43.552,61.664 C43.7546667,62.1973333 44.0426667,62.6533333 44.416,63.032 C44.7893333,63.4106667 45.2373333,63.7013333 45.76,63.904 C46.2826667,64.1066667 46.8693333,64.208 47.52,64.208 Z M47.52,62.512 C47.136,62.512 46.816,62.4373333 46.56,62.288 C46.304,62.1386667 46.0986667,61.9386667 45.944,61.688 C45.7893333,61.4373333 45.68,61.1546667 45.616,60.84 C45.552,60.5253333 45.52,60.2026667 45.52,59.872 C45.52,59.5413333 45.552,59.216 45.616,58.896 C45.68,58.576 45.7893333,58.2933333 45.944,58.048 C46.0986667,57.8026667 46.304,57.6026667 46.56,57.448 C46.816,57.2933333 47.136,57.216 47.52,57.216 C47.904,57.216 48.2266667,57.2933333 48.488,57.448 C48.7493333,57.6026667 48.9573333,57.8026667 49.112,58.048 C49.2666667,58.2933333 49.376,58.576 49.44,58.896 C49.504,59.216 49.536,59.5413333 49.536,59.872 C49.536,60.2026667 49.504,60.5253333 49.44,60.84 C49.376,61.1546667 49.2666667,61.4373333 49.112,61.688 C48.9573333,61.9386667 48.7493333,62.1386667 48.488,62.288 C48.2266667,62.4373333 47.904,62.512 47.52,62.512 Z M55.616,64 L55.616,52.576 L53.344,52.576 L53.344,64 L55.616,64 Z M60.896,64.208 C61.3653333,64.208 61.8266667,64.1626667 62.28,64.072 C62.7333333,63.9813333 63.136,63.824 63.488,63.6 C63.84,63.376 64.1253333,63.08 64.344,62.712 C64.5626667,62.344 64.672,61.888 64.672,61.344 C64.672,60.96 64.5973333,60.6373333 64.448,60.376 C64.2986667,60.1146667 64.1013333,59.896 63.856,59.72 C63.6106667,59.544 63.3306667,59.4026667 63.016,59.296 C62.7013333,59.1893333 62.3786667,59.0986667 62.048,59.024 C61.728,58.9493333 61.4133333,58.88 61.104,58.816 C60.7946667,58.752 60.52,58.68 60.28,58.6 C60.04,58.52 59.8453333,58.416 59.696,58.288 C59.5466667,58.16 59.472,57.9946667 59.472,57.792 C59.472,57.6213333 59.5146667,57.4853333 59.6,57.384 C59.6853333,57.2826667 59.7893333,57.2053333 59.912,57.152 C60.0346667,57.0986667 60.1706667,57.064 60.32,57.048 C60.4693333,57.032 60.608,57.024 60.736,57.024 C61.1413333,57.024 61.4933333,57.1013333 61.792,57.256 C62.0906667,57.4106667 62.256,57.7066667 62.288,58.144 L64.448,58.144 C64.4053333,57.632 64.2746667,57.208 64.056,56.872 C63.8373333,56.536 63.5626667,56.2666667 63.232,56.064 C62.9013333,55.8613333 62.5253333,55.7173333 62.104,55.632 C61.6826667,55.5466667 61.248,55.504 60.8,55.504 C60.352,55.504 59.9146667,55.544 59.488,55.624 C59.0613333,55.704 58.6773333,55.8426667 58.336,56.04 C57.9946667,56.2373333 57.72,56.5066667 57.512,56.848 C57.304,57.1893333 57.2,57.6266667 57.2,58.16 C57.2,58.5226667 57.2746667,58.8293333 57.424,59.08 C57.5733333,59.3306667 57.7706667,59.5386667 58.016,59.704 C58.2613333,59.8693333 58.5413333,60.0026667 58.856,60.104 C59.1706667,60.2053333 59.4933333,60.2933333 59.824,60.368 C60.6346667,60.5386667 61.2666667,60.7093333 61.72,60.88 C62.1733333,61.0506667 62.4,61.3066667 62.4,61.648 C62.4,61.8506667 62.352,62.0186667 62.256,62.152 C62.16,62.2853333 62.04,62.392 61.896,62.472 C61.752,62.552 61.592,62.6106667 61.416,62.648 C61.24,62.6853333 61.072,62.704 60.912,62.704 C60.688,62.704 60.472,62.6773333 60.264,62.624 C60.056,62.5706667 59.872,62.488 59.712,62.376 C59.552,62.264 59.4213333,62.12 59.32,61.944 C59.2186667,61.768 59.168,61.5573333 59.168,61.312 L57.008,61.312 C57.0293333,61.8666667 57.1546667,62.328 57.384,62.696 C57.6133333,63.064 57.9066667,63.36 58.264,63.584 C58.6213333,63.808 59.0293333,63.968 59.488,64.064 C59.9466667,64.16 60.416,64.208 60.896,64.208 Z" id="CreativeTools" fill="#FFFFFF" fill-rule="nonzero"></path>
            </g>
        </g>
    </g>
</svg>