<?xml version="1.0" encoding="UTF-8"?>
<svg width="780px" height="329px" viewBox="0 0 780 329" version="1.1" xmlns="http://www.w3.org/2000/svg" xmlns:xlink="http://www.w3.org/1999/xlink">
    <title>Pillars-Desktop</title>
    <g id="Pillars-Desktop" stroke="none" stroke-width="1" fill="none" fill-rule="evenodd">
        <g id="Pillars">
            <g id="Equity" transform="translate(0.000000, 181.000000)">
                <path d="M141.421324,6.04263362 C-101.360648,16.6734875 -11.2643584,64.2139044 257.632387,62.5489097 C526.529935,60.8839151 772.652524,75.7254559 779.892533,37.0539025 C787.24494,-2.21747737 415.785408,-5.97115362 141.421324,6.04263362" id="Fill-1" fill="#FFBF00"></path>
                <path d="M368.892,41 L368.892,37.832 L359.652,37.832 L359.652,33.632 L367.956,33.632 L367.956,30.704 L359.652,30.704 L359.652,27.032 L368.7,27.032 L368.7,23.864 L355.884,23.864 L355.884,41 L368.892,41 Z M383.172,45.344 L383.172,28.592 L379.932,28.592 L379.932,30.176 L379.884,30.176 C379.5,29.488 378.968,28.996 378.288,28.7 C377.608,28.404 376.884,28.256 376.116,28.256 C375.172,28.256 374.352,28.44 373.656,28.808 C372.96,29.176 372.38,29.668 371.916,30.284 C371.452,30.9 371.108,31.608 370.884,32.408 C370.66,33.208 370.548,34.032 370.548,34.88 C370.548,36.08 370.716,37.092 371.052,37.916 C371.388,38.74 371.812,39.404 372.324,39.908 C372.836,40.412 373.4,40.772 374.016,40.988 C374.632,41.204 375.228,41.312 375.804,41.312 C376.572,41.312 377.316,41.168 378.036,40.88 C378.756,40.592 379.316,40.112 379.716,39.44 L379.764,39.44 L379.764,45.344 L383.172,45.344 Z M376.908,38.768 C376.348,38.768 375.88,38.656 375.504,38.432 C375.128,38.208 374.824,37.908 374.592,37.532 C374.36,37.156 374.196,36.732 374.1,36.26 C374.004,35.788 373.956,35.304 373.956,34.808 C373.956,34.296 374.008,33.804 374.112,33.332 C374.216,32.86 374.388,32.436 374.628,32.06 C374.868,31.684 375.18,31.384 375.564,31.16 C375.948,30.936 376.42,30.824 376.98,30.824 C377.508,30.824 377.96,30.944 378.336,31.184 C378.712,31.424 379.012,31.736 379.236,32.12 C379.46,32.504 379.624,32.936 379.728,33.416 C379.832,33.896 379.884,34.376 379.884,34.856 C379.884,35.368 379.832,35.86 379.728,36.332 C379.624,36.804 379.456,37.22 379.224,37.58 C378.992,37.94 378.688,38.228 378.312,38.444 C377.936,38.66 377.468,38.768 376.908,38.768 Z M390.276,41.312 C390.996,41.312 391.7,41.152 392.388,40.832 C393.076,40.512 393.636,39.992 394.068,39.272 L394.14,39.272 L394.14,41 L397.38,41 L397.38,28.592 L393.972,28.592 L393.972,35.096 C393.972,36.36 393.764,37.268 393.348,37.82 C392.932,38.372 392.26,38.648 391.332,38.648 C390.516,38.648 389.948,38.396 389.628,37.892 C389.308,37.388 389.148,36.624 389.148,35.6 L389.148,28.592 L385.74,28.592 L385.74,36.224 C385.74,36.992 385.808,37.692 385.944,38.324 C386.08,38.956 386.316,39.492 386.652,39.932 C386.988,40.372 387.448,40.712 388.032,40.952 C388.616,41.192 389.364,41.312 390.276,41.312 Z M403.476,26.672 L403.476,23.864 L400.068,23.864 L400.068,26.672 L403.476,26.672 Z M403.476,41 L403.476,28.592 L400.068,28.592 L400.068,41 L403.476,41 Z M410.988,41.12 C411.324,41.12 411.668,41.112 412.02,41.096 C412.372,41.08 412.692,41.048 412.98,41 L412.98,38.36 C412.82,38.392 412.652,38.416 412.476,38.432 C412.3,38.448 412.116,38.456 411.924,38.456 C411.348,38.456 410.964,38.36 410.772,38.168 C410.58,37.976 410.484,37.592 410.484,37.016 L410.484,30.872 L412.98,30.872 L412.98,28.592 L410.484,28.592 L410.484,24.872 L407.076,24.872 L407.076,28.592 L405.012,28.592 L405.012,30.872 L407.076,30.872 L407.076,38.192 C407.076,38.816 407.18,39.32 407.388,39.704 C407.596,40.088 407.88,40.384 408.24,40.592 C408.6,40.8 409.016,40.94 409.488,41.012 C409.96,41.084 410.46,41.12 410.988,41.12 Z M416.46,45.344 C417.628,45.344 418.54,45.128 419.196,44.696 C419.852,44.264 420.364,43.544 420.732,42.536 L425.916,28.592 L422.388,28.592 L419.676,37.088 L419.628,37.088 L416.82,28.592 L413.196,28.592 L417.54,40.232 C417.636,40.472 417.684,40.728 417.684,41 C417.684,41.368 417.576,41.704 417.36,42.008 C417.144,42.312 416.812,42.488 416.364,42.536 C416.028,42.552 415.692,42.544 415.356,42.512 C415.02,42.48 414.692,42.448 414.372,42.416 L414.372,45.224 C414.724,45.256 415.072,45.284 415.416,45.308 C415.76,45.332 416.108,45.344 416.46,45.344 Z" fill="#FFFFFF" fill-rule="nonzero"></path>
            </g>
            <g id="Equity-Copy" transform="translate(0.000000, 265.000000)">
                <path d="M278.812996,0.86399966 C18.7220961,-8.79420006 -124.791978,65.7441825 144.197426,63.9687642 C413.186026,62.1933458 801.722975,58.0060743 779.051065,24.2179213 C753.987481,-13.1350281 553.445883,11.0615509 278.812996,0.86399966" id="Fill-1" fill="#FF8C1A"></path>
                <path d="M310.908,41.384 C311.74,41.384 312.564,41.212 313.38,40.868 C314.196,40.524 314.94,39.92 315.612,39.056 L315.996,41 L318.396,41 L318.396,31.736 L311.196,31.736 L311.196,34.544 L314.988,34.544 C314.876,35.744 314.48,36.66 313.8,37.292 C313.12,37.924 312.156,38.24 310.908,38.24 C310.06,38.24 309.34,38.076 308.748,37.748 C308.156,37.42 307.676,36.984 307.308,36.44 C306.94,35.896 306.672,35.284 306.504,34.604 C306.336,33.924 306.252,33.224 306.252,32.504 C306.252,31.752 306.336,31.024 306.504,30.32 C306.672,29.616 306.94,28.988 307.308,28.436 C307.676,27.884 308.156,27.444 308.748,27.116 C309.34,26.788 310.06,26.624 310.908,26.624 C311.82,26.624 312.596,26.864 313.236,27.344 C313.876,27.824 314.308,28.544 314.532,29.504 L318.132,29.504 C318.036,28.528 317.772,27.664 317.34,26.912 C316.908,26.16 316.36,25.528 315.696,25.016 C315.032,24.504 314.288,24.116 313.464,23.852 C312.64,23.588 311.788,23.456 310.908,23.456 C309.596,23.456 308.416,23.688 307.368,24.152 C306.32,24.616 305.436,25.256 304.716,26.072 C303.996,26.888 303.444,27.844 303.06,28.94 C302.676,30.036 302.484,31.224 302.484,32.504 C302.484,33.752 302.676,34.916 303.06,35.996 C303.444,37.076 303.996,38.016 304.716,38.816 C305.436,39.616 306.32,40.244 307.368,40.7 C308.416,41.156 309.596,41.384 310.908,41.384 Z M324.588,41 L324.588,23.864 L321.18,23.864 L321.18,41 L324.588,41 Z M333.3,41.312 C334.276,41.312 335.16,41.16 335.952,40.856 C336.744,40.552 337.42,40.116 337.98,39.548 C338.54,38.98 338.972,38.296 339.276,37.496 C339.58,36.696 339.732,35.8 339.732,34.808 C339.732,33.816 339.58,32.916 339.276,32.108 C338.972,31.3 338.54,30.612 337.98,30.044 C337.42,29.476 336.744,29.036 335.952,28.724 C335.16,28.412 334.276,28.256 333.3,28.256 C332.324,28.256 331.444,28.412 330.66,28.724 C329.876,29.036 329.204,29.476 328.644,30.044 C328.084,30.612 327.652,31.3 327.348,32.108 C327.044,32.916 326.892,33.816 326.892,34.808 C326.892,35.8 327.044,36.696 327.348,37.496 C327.652,38.296 328.084,38.98 328.644,39.548 C329.204,40.116 329.876,40.552 330.66,40.856 C331.444,41.16 332.324,41.312 333.3,41.312 Z M333.3,38.768 C332.724,38.768 332.244,38.656 331.86,38.432 C331.476,38.208 331.168,37.908 330.936,37.532 C330.704,37.156 330.54,36.732 330.444,36.26 C330.348,35.788 330.3,35.304 330.3,34.808 C330.3,34.312 330.348,33.824 330.444,33.344 C330.54,32.864 330.704,32.44 330.936,32.072 C331.168,31.704 331.476,31.404 331.86,31.172 C332.244,30.94 332.724,30.824 333.3,30.824 C333.876,30.824 334.36,30.94 334.752,31.172 C335.144,31.404 335.456,31.704 335.688,32.072 C335.92,32.44 336.084,32.864 336.18,33.344 C336.276,33.824 336.324,34.312 336.324,34.808 C336.324,35.304 336.276,35.788 336.18,36.26 C336.084,36.732 335.92,37.156 335.688,37.532 C335.456,37.908 335.144,38.208 334.752,38.432 C334.36,38.656 333.876,38.768 333.3,38.768 Z M349.308,41.312 C349.932,41.312 350.548,41.184 351.156,40.928 C351.764,40.672 352.312,40.28 352.8,39.752 C353.288,39.224 353.684,38.548 353.988,37.724 C354.292,36.9 354.444,35.92 354.444,34.784 C354.444,33.648 354.292,32.668 353.988,31.844 C353.684,31.02 353.288,30.344 352.8,29.816 C352.312,29.288 351.764,28.896 351.156,28.64 C350.548,28.384 349.932,28.256 349.308,28.256 C348.54,28.256 347.8,28.404 347.088,28.7 C346.376,28.996 345.812,29.464 345.396,30.104 L345.348,30.104 L345.348,23.864 L341.94,23.864 L341.94,41 L345.18,41 L345.18,39.416 L345.228,39.416 C345.596,40.104 346.14,40.592 346.86,40.88 C347.58,41.168 348.396,41.312 349.308,41.312 Z M348.132,38.768 C347.636,38.768 347.204,38.66 346.836,38.444 C346.468,38.228 346.164,37.936 345.924,37.568 C345.684,37.2 345.508,36.776 345.396,36.296 C345.284,35.816 345.228,35.32 345.228,34.808 C345.228,34.28 345.284,33.776 345.396,33.296 C345.508,32.816 345.684,32.392 345.924,32.024 C346.164,31.656 346.468,31.364 346.836,31.148 C347.204,30.932 347.636,30.824 348.132,30.824 C348.644,30.824 349.08,30.932 349.44,31.148 C349.8,31.364 350.1,31.656 350.34,32.024 C350.58,32.392 350.756,32.816 350.868,33.296 C350.98,33.776 351.036,34.28 351.036,34.808 C351.036,35.32 350.98,35.816 350.868,36.296 C350.756,36.776 350.58,37.2 350.34,37.568 C350.1,37.936 349.8,38.228 349.44,38.444 C349.08,38.66 348.644,38.768 348.132,38.768 Z M360.3,41.312 C361.068,41.312 361.82,41.2 362.556,40.976 C363.292,40.752 363.932,40.36 364.476,39.8 C364.492,40.008 364.52,40.212 364.56,40.412 C364.6,40.612 364.652,40.808 364.716,41 L364.716,41 L368.172,41 C368.012,40.744 367.9,40.36 367.836,39.848 C367.772,39.336 367.74,38.8 367.74,38.24 L367.74,38.24 L367.74,31.784 C367.74,31.032 367.572,30.428 367.236,29.972 C366.9,29.516 366.468,29.16 365.94,28.904 C365.412,28.648 364.828,28.476 364.188,28.388 C363.548,28.3 362.916,28.256 362.292,28.256 C361.604,28.256 360.92,28.324 360.24,28.46 C359.56,28.596 358.948,28.824 358.404,29.144 C357.86,29.464 357.412,29.888 357.06,30.416 C356.708,30.944 356.508,31.608 356.46,32.408 L356.46,32.408 L359.868,32.408 C359.932,31.736 360.156,31.256 360.54,30.968 C360.924,30.68 361.452,30.536 362.124,30.536 C362.428,30.536 362.712,30.556 362.976,30.596 C363.24,30.636 363.472,30.716 363.672,30.836 C363.872,30.956 364.032,31.124 364.152,31.34 C364.272,31.556 364.332,31.848 364.332,32.216 C364.348,32.568 364.244,32.836 364.02,33.02 C363.796,33.204 363.492,33.344 363.108,33.44 C362.724,33.536 362.284,33.608 361.788,33.656 C361.292,33.704 360.788,33.768 360.276,33.848 C359.764,33.928 359.256,34.036 358.752,34.172 C358.248,34.308 357.8,34.512 357.408,34.784 C357.016,35.056 356.696,35.42 356.448,35.876 C356.2,36.332 356.076,36.912 356.076,37.616 C356.076,38.256 356.184,38.808 356.4,39.272 C356.616,39.736 356.916,40.12 357.3,40.424 C357.684,40.728 358.132,40.952 358.644,41.096 C359.156,41.24 359.708,41.312 360.3,41.312 Z M361.572,39.056 C361.3,39.056 361.036,39.032 360.78,38.984 C360.524,38.936 360.3,38.852 360.108,38.732 C359.916,38.612 359.764,38.448 359.652,38.24 C359.54,38.032 359.484,37.776 359.484,37.472 C359.484,37.152 359.54,36.888 359.652,36.68 C359.764,36.472 359.912,36.3 360.096,36.164 C360.28,36.028 360.496,35.92 360.744,35.84 C360.992,35.76 361.244,35.696 361.5,35.648 C361.772,35.6 362.044,35.56 362.316,35.528 C362.588,35.496 362.848,35.456 363.096,35.408 C363.344,35.36 363.576,35.3 363.792,35.228 C364.008,35.156 364.188,35.056 364.332,34.928 L364.332,34.928 L364.332,36.2 C364.332,36.392 364.312,36.648 364.272,36.968 C364.232,37.288 364.124,37.604 363.948,37.916 C363.772,38.228 363.5,38.496 363.132,38.72 C362.764,38.944 362.244,39.056 361.572,39.056 Z M373.884,41 L373.884,23.864 L370.476,23.864 L370.476,41 L373.884,41 Z M389.82,41.384 C390.988,41.384 392.016,41.248 392.904,40.976 C393.792,40.704 394.536,40.324 395.136,39.836 C395.736,39.348 396.188,38.768 396.492,38.096 C396.796,37.424 396.948,36.696 396.948,35.912 C396.948,34.952 396.744,34.164 396.336,33.548 C395.928,32.932 395.444,32.44 394.884,32.072 C394.324,31.704 393.76,31.436 393.192,31.268 C392.624,31.1 392.18,30.984 391.86,30.92 C390.788,30.648 389.92,30.424 389.256,30.248 C388.592,30.072 388.072,29.896 387.696,29.72 C387.32,29.544 387.068,29.352 386.94,29.144 C386.812,28.936 386.748,28.664 386.748,28.328 C386.748,27.96 386.828,27.656 386.988,27.416 C387.148,27.176 387.352,26.976 387.6,26.816 C387.848,26.656 388.124,26.544 388.428,26.48 C388.732,26.416 389.036,26.384 389.34,26.384 C389.804,26.384 390.232,26.424 390.624,26.504 C391.016,26.584 391.364,26.72 391.668,26.912 C391.972,27.104 392.216,27.368 392.4,27.704 C392.584,28.04 392.692,28.464 392.724,28.976 L396.372,28.976 C396.372,27.984 396.184,27.14 395.808,26.444 C395.432,25.748 394.924,25.176 394.284,24.728 C393.644,24.28 392.912,23.956 392.088,23.756 C391.264,23.556 390.404,23.456 389.508,23.456 C388.74,23.456 387.972,23.56 387.204,23.768 C386.436,23.976 385.748,24.296 385.14,24.728 C384.532,25.16 384.04,25.7 383.664,26.348 C383.288,26.996 383.1,27.76 383.1,28.64 C383.1,29.424 383.248,30.092 383.544,30.644 C383.84,31.196 384.228,31.656 384.708,32.024 C385.188,32.392 385.732,32.692 386.34,32.924 C386.948,33.156 387.572,33.352 388.212,33.512 C388.836,33.688 389.452,33.848 390.06,33.992 C390.668,34.136 391.212,34.304 391.692,34.496 C392.172,34.688 392.56,34.928 392.856,35.216 C393.152,35.504 393.3,35.88 393.3,36.344 C393.3,36.776 393.188,37.132 392.964,37.412 C392.74,37.692 392.46,37.912 392.124,38.072 C391.788,38.232 391.428,38.34 391.044,38.396 C390.66,38.452 390.3,38.48 389.964,38.48 C389.468,38.48 388.988,38.42 388.524,38.3 C388.06,38.18 387.656,37.996 387.312,37.748 C386.968,37.5 386.692,37.176 386.484,36.776 C386.276,36.376 386.172,35.888 386.172,35.312 L382.524,35.312 C382.508,36.368 382.7,37.28 383.1,38.048 C383.5,38.816 384.04,39.448 384.72,39.944 C385.4,40.44 386.184,40.804 387.072,41.036 C387.96,41.268 388.876,41.384 389.82,41.384 Z M403.644,41.12 C403.98,41.12 404.324,41.112 404.676,41.096 C405.028,41.08 405.348,41.048 405.636,41 L405.636,38.36 C405.476,38.392 405.308,38.416 405.132,38.432 C404.956,38.448 404.772,38.456 404.58,38.456 C404.004,38.456 403.62,38.36 403.428,38.168 C403.236,37.976 403.14,37.592 403.14,37.016 L403.14,30.872 L405.636,30.872 L405.636,28.592 L403.14,28.592 L403.14,24.872 L399.732,24.872 L399.732,28.592 L397.668,28.592 L397.668,30.872 L399.732,30.872 L399.732,38.192 C399.732,38.816 399.836,39.32 400.044,39.704 C400.252,40.088 400.536,40.384 400.896,40.592 C401.256,40.8 401.672,40.94 402.144,41.012 C402.616,41.084 403.116,41.12 403.644,41.12 Z M410.676,41 L410.676,35.408 C410.676,34.848 410.732,34.328 410.844,33.848 C410.956,33.368 411.144,32.948 411.408,32.588 C411.672,32.228 412.02,31.944 412.452,31.736 C412.884,31.528 413.412,31.424 414.036,31.424 C414.244,31.424 414.46,31.436 414.684,31.46 C414.908,31.484 415.1,31.512 415.26,31.544 L415.26,28.376 C414.988,28.296 414.74,28.256 414.516,28.256 C414.084,28.256 413.668,28.32 413.268,28.448 C412.868,28.576 412.492,28.756 412.14,28.988 C411.788,29.22 411.476,29.5 411.204,29.828 C410.932,30.156 410.716,30.512 410.556,30.896 L410.508,30.896 L410.508,28.592 L407.268,28.592 L407.268,41 L410.676,41 Z M420.3,41.312 C421.068,41.312 421.82,41.2 422.556,40.976 C423.292,40.752 423.932,40.36 424.476,39.8 C424.492,40.008 424.52,40.212 424.56,40.412 C424.6,40.612 424.652,40.808 424.716,41 L424.716,41 L428.172,41 C428.012,40.744 427.9,40.36 427.836,39.848 C427.772,39.336 427.74,38.8 427.74,38.24 L427.74,38.24 L427.74,31.784 C427.74,31.032 427.572,30.428 427.236,29.972 C426.9,29.516 426.468,29.16 425.94,28.904 C425.412,28.648 424.828,28.476 424.188,28.388 C423.548,28.3 422.916,28.256 422.292,28.256 C421.604,28.256 420.92,28.324 420.24,28.46 C419.56,28.596 418.948,28.824 418.404,29.144 C417.86,29.464 417.412,29.888 417.06,30.416 C416.708,30.944 416.508,31.608 416.46,32.408 L416.46,32.408 L419.868,32.408 C419.932,31.736 420.156,31.256 420.54,30.968 C420.924,30.68 421.452,30.536 422.124,30.536 C422.428,30.536 422.712,30.556 422.976,30.596 C423.24,30.636 423.472,30.716 423.672,30.836 C423.872,30.956 424.032,31.124 424.152,31.34 C424.272,31.556 424.332,31.848 424.332,32.216 C424.348,32.568 424.244,32.836 424.02,33.02 C423.796,33.204 423.492,33.344 423.108,33.44 C422.724,33.536 422.284,33.608 421.788,33.656 C421.292,33.704 420.788,33.768 420.276,33.848 C419.764,33.928 419.256,34.036 418.752,34.172 C418.248,34.308 417.8,34.512 417.408,34.784 C417.016,35.056 416.696,35.42 416.448,35.876 C416.2,36.332 416.076,36.912 416.076,37.616 C416.076,38.256 416.184,38.808 416.4,39.272 C416.616,39.736 416.916,40.12 417.3,40.424 C417.684,40.728 418.132,40.952 418.644,41.096 C419.156,41.24 419.708,41.312 420.3,41.312 Z M421.572,39.056 C421.3,39.056 421.036,39.032 420.78,38.984 C420.524,38.936 420.3,38.852 420.108,38.732 C419.916,38.612 419.764,38.448 419.652,38.24 C419.54,38.032 419.484,37.776 419.484,37.472 C419.484,37.152 419.54,36.888 419.652,36.68 C419.764,36.472 419.912,36.3 420.096,36.164 C420.28,36.028 420.496,35.92 420.744,35.84 C420.992,35.76 421.244,35.696 421.5,35.648 C421.772,35.6 422.044,35.56 422.316,35.528 C422.588,35.496 422.848,35.456 423.096,35.408 C423.344,35.36 423.576,35.3 423.792,35.228 C424.008,35.156 424.188,35.056 424.332,34.928 L424.332,34.928 L424.332,36.2 C424.332,36.392 424.312,36.648 424.272,36.968 C424.232,37.288 424.124,37.604 423.948,37.916 C423.772,38.228 423.5,38.496 423.132,38.72 C422.764,38.944 422.244,39.056 421.572,39.056 Z M435.204,41.12 C435.54,41.12 435.884,41.112 436.236,41.096 C436.588,41.08 436.908,41.048 437.196,41 L437.196,38.36 C437.036,38.392 436.868,38.416 436.692,38.432 C436.516,38.448 436.332,38.456 436.14,38.456 C435.564,38.456 435.18,38.36 434.988,38.168 C434.796,37.976 434.7,37.592 434.7,37.016 L434.7,30.872 L437.196,30.872 L437.196,28.592 L434.7,28.592 L434.7,24.872 L431.292,24.872 L431.292,28.592 L429.228,28.592 L429.228,30.872 L431.292,30.872 L431.292,38.192 C431.292,38.816 431.396,39.32 431.604,39.704 C431.812,40.088 432.096,40.384 432.456,40.592 C432.816,40.8 433.232,40.94 433.704,41.012 C434.176,41.084 434.676,41.12 435.204,41.12 Z M444.564,41.312 C445.972,41.312 447.172,40.992 448.164,40.352 C449.156,39.712 449.892,38.648 450.372,37.16 L447.372,37.16 C447.26,37.544 446.956,37.908 446.46,38.252 C445.964,38.596 445.372,38.768 444.684,38.768 C443.724,38.768 442.988,38.52 442.476,38.024 C441.964,37.528 441.684,36.728 441.636,35.624 L450.588,35.624 C450.652,34.664 450.572,33.744 450.348,32.864 C450.124,31.984 449.76,31.2 449.256,30.512 C448.752,29.824 448.108,29.276 447.324,28.868 C446.54,28.46 445.62,28.256 444.564,28.256 C443.62,28.256 442.76,28.424 441.984,28.76 C441.208,29.096 440.54,29.556 439.98,30.14 C439.42,30.724 438.988,31.416 438.684,32.216 C438.38,33.016 438.228,33.88 438.228,34.808 C438.228,35.768 438.376,36.648 438.672,37.448 C438.968,38.248 439.388,38.936 439.932,39.512 C440.476,40.088 441.14,40.532 441.924,40.844 C442.708,41.156 443.588,41.312 444.564,41.312 Z M447.18,33.464 L441.636,33.464 C441.652,33.224 441.704,32.952 441.792,32.648 C441.88,32.344 442.032,32.056 442.248,31.784 C442.464,31.512 442.752,31.284 443.112,31.1 C443.472,30.916 443.924,30.824 444.468,30.824 C445.3,30.824 445.92,31.048 446.328,31.496 C446.736,31.944 447.02,32.6 447.18,33.464 Z M458.1,45.68 C459.524,45.68 460.66,45.488 461.508,45.104 C462.356,44.72 463.004,44.252 463.452,43.7 C463.9,43.148 464.192,42.552 464.328,41.912 C464.464,41.272 464.532,40.704 464.532,40.208 L464.532,28.592 L461.292,28.592 L461.292,30.248 L461.244,30.248 C460.828,29.528 460.312,29.016 459.696,28.712 C459.08,28.408 458.364,28.256 457.548,28.256 C456.684,28.256 455.92,28.424 455.256,28.76 C454.592,29.096 454.036,29.548 453.588,30.116 C453.14,30.684 452.8,31.34 452.568,32.084 C452.336,32.828 452.22,33.6 452.22,34.4 C452.22,35.248 452.32,36.052 452.52,36.812 C452.72,37.572 453.036,38.236 453.468,38.804 C453.9,39.372 454.452,39.82 455.124,40.148 C455.796,40.476 456.596,40.64 457.524,40.64 C458.276,40.64 458.992,40.484 459.672,40.172 C460.352,39.86 460.876,39.376 461.244,38.72 L461.292,38.72 L461.292,40.352 C461.308,41.232 461.096,41.96 460.656,42.536 C460.216,43.112 459.516,43.4 458.556,43.4 C457.948,43.4 457.412,43.276 456.948,43.028 C456.484,42.78 456.172,42.336 456.012,41.696 L452.628,41.696 C452.676,42.4 452.872,43.004 453.216,43.508 C453.56,44.012 453.992,44.424 454.512,44.744 C455.032,45.064 455.608,45.3 456.24,45.452 C456.872,45.604 457.492,45.68 458.1,45.68 Z M458.388,38.072 C457.86,38.072 457.42,37.96 457.068,37.736 C456.716,37.512 456.432,37.224 456.216,36.872 C456,36.52 455.848,36.124 455.76,35.684 C455.672,35.244 455.628,34.8 455.628,34.352 C455.628,33.888 455.68,33.444 455.784,33.02 C455.888,32.596 456.056,32.22 456.288,31.892 C456.52,31.564 456.808,31.304 457.152,31.112 C457.496,30.92 457.908,30.824 458.388,30.824 C458.948,30.824 459.412,30.928 459.78,31.136 C460.148,31.344 460.444,31.624 460.668,31.976 C460.892,32.328 461.052,32.732 461.148,33.188 C461.244,33.644 461.292,34.128 461.292,34.64 C461.292,35.088 461.232,35.516 461.112,35.924 C460.992,36.332 460.812,36.696 460.572,37.016 C460.332,37.336 460.028,37.592 459.66,37.784 C459.292,37.976 458.868,38.072 458.388,38.072 Z M469.116,45.344 C470.284,45.344 471.196,45.128 471.852,44.696 C472.508,44.264 473.02,43.544 473.388,42.536 L478.572,28.592 L475.044,28.592 L472.332,37.088 L472.284,37.088 L469.476,28.592 L465.852,28.592 L470.196,40.232 C470.292,40.472 470.34,40.728 470.34,41 C470.34,41.368 470.232,41.704 470.016,42.008 C469.8,42.312 469.468,42.488 469.02,42.536 C468.684,42.552 468.348,42.544 468.012,42.512 C467.676,42.48 467.348,42.448 467.028,42.416 L467.028,45.224 C467.38,45.256 467.728,45.284 468.072,45.308 C468.416,45.332 468.764,45.344 469.116,45.344 Z" id="GlobalStrategy" fill="#FFFFFF" fill-rule="nonzero"></path>
            </g>
            <g id="Creative-Tools">
                <path d="M190.425819,156.424293 C257.878027,149.516761 248.499193,72.1866549 232.348664,37.0733683 C216.198136,1.96008178 101.266787,-6.5188663 45.2149524,6.72056962 C-10.8368823,19.9600055 -6.60450973,93.0036005 14.2961744,129.84377 C35.1968585,166.68394 122.973611,163.331825 190.425819,156.424293 Z" id="Oval" fill="#0EBD8C"></path>
                <path d="M49.728,93.384 C50.784,93.384 51.752,93.224 52.632,92.904 C53.512,92.584 54.28,92.12 54.936,91.512 C55.592,90.904 56.12,90.168 56.52,89.304 C56.92,88.44 57.168,87.472 57.264,86.4 L53.616,86.4 C53.472,87.552 53.076,88.48 52.428,89.184 C51.78,89.888 50.88,90.24 49.728,90.24 C48.88,90.24 48.16,90.076 47.568,89.748 C46.976,89.42 46.496,88.984 46.128,88.44 C45.76,87.896 45.492,87.284 45.324,86.604 C45.156,85.924 45.072,85.224 45.072,84.504 C45.072,83.752 45.156,83.024 45.324,82.32 C45.492,81.616 45.76,80.988 46.128,80.436 C46.496,79.884 46.976,79.444 47.568,79.116 C48.16,78.788 48.88,78.624 49.728,78.624 C50.192,78.624 50.636,78.7 51.06,78.852 C51.484,79.004 51.864,79.216 52.2,79.488 C52.536,79.76 52.816,80.076 53.04,80.436 C53.264,80.796 53.408,81.192 53.472,81.624 L57.12,81.624 C57.008,80.632 56.736,79.752 56.304,78.984 C55.872,78.216 55.324,77.572 54.66,77.052 C53.996,76.532 53.244,76.136 52.404,75.864 C51.564,75.592 50.672,75.456 49.728,75.456 C48.416,75.456 47.236,75.688 46.188,76.152 C45.14,76.616 44.256,77.256 43.536,78.072 C42.816,78.888 42.264,79.844 41.88,80.94 C41.496,82.036 41.304,83.224 41.304,84.504 C41.304,85.752 41.496,86.916 41.88,87.996 C42.264,89.076 42.816,90.016 43.536,90.816 C44.256,91.616 45.14,92.244 46.188,92.7 C47.236,93.156 48.416,93.384 49.728,93.384 Z M62.88,93 L62.88,87.408 C62.88,86.848 62.936,86.328 63.048,85.848 C63.16,85.368 63.348,84.948 63.612,84.588 C63.876,84.228 64.224,83.944 64.656,83.736 C65.088,83.528 65.616,83.424 66.24,83.424 C66.448,83.424 66.664,83.436 66.888,83.46 C67.112,83.484 67.304,83.512 67.464,83.544 L67.464,80.376 C67.192,80.296 66.944,80.256 66.72,80.256 C66.288,80.256 65.872,80.32 65.472,80.448 C65.072,80.576 64.696,80.756 64.344,80.988 C63.992,81.22 63.68,81.5 63.408,81.828 C63.136,82.156 62.92,82.512 62.76,82.896 L62.712,82.896 L62.712,80.592 L59.472,80.592 L59.472,93 L62.88,93 Z M74.112,93.312 C75.52,93.312 76.72,92.992 77.712,92.352 C78.704,91.712 79.44,90.648 79.92,89.16 L76.92,89.16 C76.808,89.544 76.504,89.908 76.008,90.252 C75.512,90.596 74.92,90.768 74.232,90.768 C73.272,90.768 72.536,90.52 72.024,90.024 C71.512,89.528 71.232,88.728 71.184,87.624 L80.136,87.624 C80.2,86.664 80.12,85.744 79.896,84.864 C79.672,83.984 79.308,83.2 78.804,82.512 C78.3,81.824 77.656,81.276 76.872,80.868 C76.088,80.46 75.168,80.256 74.112,80.256 C73.168,80.256 72.308,80.424 71.532,80.76 C70.756,81.096 70.088,81.556 69.528,82.14 C68.968,82.724 68.536,83.416 68.232,84.216 C67.928,85.016 67.776,85.88 67.776,86.808 C67.776,87.768 67.924,88.648 68.22,89.448 C68.516,90.248 68.936,90.936 69.48,91.512 C70.024,92.088 70.688,92.532 71.472,92.844 C72.256,93.156 73.136,93.312 74.112,93.312 Z M76.728,85.464 L71.184,85.464 C71.2,85.224 71.252,84.952 71.34,84.648 C71.428,84.344 71.58,84.056 71.796,83.784 C72.012,83.512 72.3,83.284 72.66,83.1 C73.02,82.916 73.472,82.824 74.016,82.824 C74.848,82.824 75.468,83.048 75.876,83.496 C76.284,83.944 76.568,84.6 76.728,85.464 Z M85.848,93.312 C86.616,93.312 87.368,93.2 88.104,92.976 C88.84,92.752 89.48,92.36 90.024,91.8 C90.04,92.008 90.068,92.212 90.108,92.412 C90.148,92.612 90.2,92.808 90.264,93 L90.264,93 L93.72,93 C93.56,92.744 93.448,92.36 93.384,91.848 C93.32,91.336 93.288,90.8 93.288,90.24 L93.288,90.24 L93.288,83.784 C93.288,83.032 93.12,82.428 92.784,81.972 C92.448,81.516 92.016,81.16 91.488,80.904 C90.96,80.648 90.376,80.476 89.736,80.388 C89.096,80.3 88.464,80.256 87.84,80.256 C87.152,80.256 86.468,80.324 85.788,80.46 C85.108,80.596 84.496,80.824 83.952,81.144 C83.408,81.464 82.96,81.888 82.608,82.416 C82.256,82.944 82.056,83.608 82.008,84.408 L82.008,84.408 L85.416,84.408 C85.48,83.736 85.704,83.256 86.088,82.968 C86.472,82.68 87,82.536 87.672,82.536 C87.976,82.536 88.26,82.556 88.524,82.596 C88.788,82.636 89.02,82.716 89.22,82.836 C89.42,82.956 89.58,83.124 89.7,83.34 C89.82,83.556 89.88,83.848 89.88,84.216 C89.896,84.568 89.792,84.836 89.568,85.02 C89.344,85.204 89.04,85.344 88.656,85.44 C88.272,85.536 87.832,85.608 87.336,85.656 C86.84,85.704 86.336,85.768 85.824,85.848 C85.312,85.928 84.804,86.036 84.3,86.172 C83.796,86.308 83.348,86.512 82.956,86.784 C82.564,87.056 82.244,87.42 81.996,87.876 C81.748,88.332 81.624,88.912 81.624,89.616 C81.624,90.256 81.732,90.808 81.948,91.272 C82.164,91.736 82.464,92.12 82.848,92.424 C83.232,92.728 83.68,92.952 84.192,93.096 C84.704,93.24 85.256,93.312 85.848,93.312 Z M87.12,91.056 C86.848,91.056 86.584,91.032 86.328,90.984 C86.072,90.936 85.848,90.852 85.656,90.732 C85.464,90.612 85.312,90.448 85.2,90.24 C85.088,90.032 85.032,89.776 85.032,89.472 C85.032,89.152 85.088,88.888 85.2,88.68 C85.312,88.472 85.46,88.3 85.644,88.164 C85.828,88.028 86.044,87.92 86.292,87.84 C86.54,87.76 86.792,87.696 87.048,87.648 C87.32,87.6 87.592,87.56 87.864,87.528 C88.136,87.496 88.396,87.456 88.644,87.408 C88.892,87.36 89.124,87.3 89.34,87.228 C89.556,87.156 89.736,87.056 89.88,86.928 L89.88,86.928 L89.88,88.2 C89.88,88.392 89.86,88.648 89.82,88.968 C89.78,89.288 89.672,89.604 89.496,89.916 C89.32,90.228 89.048,90.496 88.68,90.72 C88.312,90.944 87.792,91.056 87.12,91.056 Z M100.752,93.12 C101.088,93.12 101.432,93.112 101.784,93.096 C102.136,93.08 102.456,93.048 102.744,93 L102.744,90.36 C102.584,90.392 102.416,90.416 102.24,90.432 C102.064,90.448 101.88,90.456 101.688,90.456 C101.112,90.456 100.728,90.36 100.536,90.168 C100.344,89.976 100.248,89.592 100.248,89.016 L100.248,82.872 L102.744,82.872 L102.744,80.592 L100.248,80.592 L100.248,76.872 L96.84,76.872 L96.84,80.592 L94.776,80.592 L94.776,82.872 L96.84,82.872 L96.84,90.192 C96.84,90.816 96.944,91.32 97.152,91.704 C97.36,92.088 97.644,92.384 98.004,92.592 C98.364,92.8 98.78,92.94 99.252,93.012 C99.724,93.084 100.224,93.12 100.752,93.12 Z M107.88,78.672 L107.88,75.864 L104.472,75.864 L104.472,78.672 L107.88,78.672 Z M107.88,93 L107.88,80.592 L104.472,80.592 L104.472,93 L107.88,93 Z M117.432,93 L121.632,80.592 L118.248,80.592 L115.632,89.064 L115.584,89.064 L112.968,80.592 L109.392,80.592 L113.64,93 L117.432,93 Z M128.784,93.312 C130.192,93.312 131.392,92.992 132.384,92.352 C133.376,91.712 134.112,90.648 134.592,89.16 L131.592,89.16 C131.48,89.544 131.176,89.908 130.68,90.252 C130.184,90.596 129.592,90.768 128.904,90.768 C127.944,90.768 127.208,90.52 126.696,90.024 C126.184,89.528 125.904,88.728 125.856,87.624 L134.808,87.624 C134.872,86.664 134.792,85.744 134.568,84.864 C134.344,83.984 133.98,83.2 133.476,82.512 C132.972,81.824 132.328,81.276 131.544,80.868 C130.76,80.46 129.84,80.256 128.784,80.256 C127.84,80.256 126.98,80.424 126.204,80.76 C125.428,81.096 124.76,81.556 124.2,82.14 C123.64,82.724 123.208,83.416 122.904,84.216 C122.6,85.016 122.448,85.88 122.448,86.808 C122.448,87.768 122.596,88.648 122.892,89.448 C123.188,90.248 123.608,90.936 124.152,91.512 C124.696,92.088 125.36,92.532 126.144,92.844 C126.928,93.156 127.808,93.312 128.784,93.312 Z M131.4,85.464 L125.856,85.464 C125.872,85.224 125.924,84.952 126.012,84.648 C126.1,84.344 126.252,84.056 126.468,83.784 C126.684,83.512 126.972,83.284 127.332,83.1 C127.692,82.916 128.144,82.824 128.688,82.824 C129.52,82.824 130.14,83.048 130.548,83.496 C130.956,83.944 131.24,84.6 131.4,85.464 Z M151.416,93 L151.416,79.032 L156.552,79.032 L156.552,75.864 L142.512,75.864 L142.512,79.032 L147.648,79.032 L147.648,93 L151.416,93 Z M161.52,93.312 C162.496,93.312 163.38,93.16 164.172,92.856 C164.964,92.552 165.64,92.116 166.2,91.548 C166.76,90.98 167.192,90.296 167.496,89.496 C167.8,88.696 167.952,87.8 167.952,86.808 C167.952,85.816 167.8,84.916 167.496,84.108 C167.192,83.3 166.76,82.612 166.2,82.044 C165.64,81.476 164.964,81.036 164.172,80.724 C163.38,80.412 162.496,80.256 161.52,80.256 C160.544,80.256 159.664,80.412 158.88,80.724 C158.096,81.036 157.424,81.476 156.864,82.044 C156.304,82.612 155.872,83.3 155.568,84.108 C155.264,84.916 155.112,85.816 155.112,86.808 C155.112,87.8 155.264,88.696 155.568,89.496 C155.872,90.296 156.304,90.98 156.864,91.548 C157.424,92.116 158.096,92.552 158.88,92.856 C159.664,93.16 160.544,93.312 161.52,93.312 Z M161.52,90.768 C160.944,90.768 160.464,90.656 160.08,90.432 C159.696,90.208 159.388,89.908 159.156,89.532 C158.924,89.156 158.76,88.732 158.664,88.26 C158.568,87.788 158.52,87.304 158.52,86.808 C158.52,86.312 158.568,85.824 158.664,85.344 C158.76,84.864 158.924,84.44 159.156,84.072 C159.388,83.704 159.696,83.404 160.08,83.172 C160.464,82.94 160.944,82.824 161.52,82.824 C162.096,82.824 162.58,82.94 162.972,83.172 C163.364,83.404 163.676,83.704 163.908,84.072 C164.14,84.44 164.304,84.864 164.4,85.344 C164.496,85.824 164.544,86.312 164.544,86.808 C164.544,87.304 164.496,87.788 164.4,88.26 C164.304,88.732 164.14,89.156 163.908,89.532 C163.676,89.908 163.364,90.208 162.972,90.432 C162.58,90.656 162.096,90.768 161.52,90.768 Z M176.184,93.312 C177.16,93.312 178.044,93.16 178.836,92.856 C179.628,92.552 180.304,92.116 180.864,91.548 C181.424,90.98 181.856,90.296 182.16,89.496 C182.464,88.696 182.616,87.8 182.616,86.808 C182.616,85.816 182.464,84.916 182.16,84.108 C181.856,83.3 181.424,82.612 180.864,82.044 C180.304,81.476 179.628,81.036 178.836,80.724 C178.044,80.412 177.16,80.256 176.184,80.256 C175.208,80.256 174.328,80.412 173.544,80.724 C172.76,81.036 172.088,81.476 171.528,82.044 C170.968,82.612 170.536,83.3 170.232,84.108 C169.928,84.916 169.776,85.816 169.776,86.808 C169.776,87.8 169.928,88.696 170.232,89.496 C170.536,90.296 170.968,90.98 171.528,91.548 C172.088,92.116 172.76,92.552 173.544,92.856 C174.328,93.16 175.208,93.312 176.184,93.312 Z M176.184,90.768 C175.608,90.768 175.128,90.656 174.744,90.432 C174.36,90.208 174.052,89.908 173.82,89.532 C173.588,89.156 173.424,88.732 173.328,88.26 C173.232,87.788 173.184,87.304 173.184,86.808 C173.184,86.312 173.232,85.824 173.328,85.344 C173.424,84.864 173.588,84.44 173.82,84.072 C174.052,83.704 174.36,83.404 174.744,83.172 C175.128,82.94 175.608,82.824 176.184,82.824 C176.76,82.824 177.244,82.94 177.636,83.172 C178.028,83.404 178.34,83.704 178.572,84.072 C178.804,84.44 178.968,84.864 179.064,85.344 C179.16,85.824 179.208,86.312 179.208,86.808 C179.208,87.304 179.16,87.788 179.064,88.26 C178.968,88.732 178.804,89.156 178.572,89.532 C178.34,89.908 178.028,90.208 177.636,90.432 C177.244,90.656 176.76,90.768 176.184,90.768 Z M188.328,93 L188.328,75.864 L184.92,75.864 L184.92,93 L188.328,93 Z M196.248,93.312 C196.952,93.312 197.644,93.244 198.324,93.108 C199.004,92.972 199.608,92.736 200.136,92.4 C200.664,92.064 201.092,91.62 201.42,91.068 C201.748,90.516 201.912,89.832 201.912,89.016 C201.912,88.44 201.8,87.956 201.576,87.564 C201.352,87.172 201.056,86.844 200.688,86.58 C200.32,86.316 199.9,86.104 199.428,85.944 C198.956,85.784 198.472,85.648 197.976,85.536 C197.496,85.424 197.024,85.32 196.56,85.224 C196.096,85.128 195.684,85.02 195.324,84.9 C194.964,84.78 194.672,84.624 194.448,84.432 C194.224,84.24 194.112,83.992 194.112,83.688 C194.112,83.432 194.176,83.228 194.304,83.076 C194.432,82.924 194.588,82.808 194.772,82.728 C194.956,82.648 195.16,82.596 195.384,82.572 C195.608,82.548 195.816,82.536 196.008,82.536 C196.616,82.536 197.144,82.652 197.592,82.884 C198.04,83.116 198.288,83.56 198.336,84.216 L201.576,84.216 C201.512,83.448 201.316,82.812 200.988,82.308 C200.66,81.804 200.248,81.4 199.752,81.096 C199.256,80.792 198.692,80.576 198.06,80.448 C197.428,80.32 196.776,80.256 196.104,80.256 C195.432,80.256 194.776,80.316 194.136,80.436 C193.496,80.556 192.92,80.764 192.408,81.06 C191.896,81.356 191.484,81.76 191.172,82.272 C190.86,82.784 190.704,83.44 190.704,84.24 C190.704,84.784 190.816,85.244 191.04,85.62 C191.264,85.996 191.56,86.308 191.928,86.556 C192.296,86.804 192.716,87.004 193.188,87.156 C193.66,87.308 194.144,87.44 194.64,87.552 C195.856,87.808 196.804,88.064 197.484,88.32 C198.164,88.576 198.504,88.96 198.504,89.472 C198.504,89.776 198.432,90.028 198.288,90.228 C198.144,90.428 197.964,90.588 197.748,90.708 C197.532,90.828 197.292,90.916 197.028,90.972 C196.764,91.028 196.512,91.056 196.272,91.056 C195.936,91.056 195.612,91.016 195.3,90.936 C194.988,90.856 194.712,90.732 194.472,90.564 C194.232,90.396 194.036,90.18 193.884,89.916 C193.732,89.652 193.656,89.336 193.656,88.968 L190.416,88.968 C190.448,89.8 190.636,90.492 190.98,91.044 C191.324,91.596 191.764,92.04 192.3,92.376 C192.836,92.712 193.448,92.952 194.136,93.096 C194.824,93.24 195.528,93.312 196.248,93.312 Z" id="CreativeTools" fill="#FFFFFF" fill-rule="nonzero"></path>
            </g>
            <g id="Community" transform="translate(268.000000, 0.000000)">
                <path d="M213.214971,137.289887 C249.36084,115.319388 251.209888,62.5415862 231.53169,27.3644855 C211.853491,-7.81261513 23.8595463,-7.81261513 9.81453556,20.1337721 C-4.23047515,48.0801593 -6.14025919,129.811744 23.8595463,149.427235 C53.8593517,169.042727 177.069103,159.260387 213.214971,137.289887 Z" id="Oval-Copy" fill="#4D97FF"></path>
                <path d="M65.588,92.384 C66.644,92.384 67.612,92.224 68.492,91.904 C69.372,91.584 70.14,91.12 70.796,90.512 C71.452,89.904 71.98,89.168 72.38,88.304 C72.78,87.44 73.028,86.472 73.124,85.4 L69.476,85.4 C69.332,86.552 68.936,87.48 68.288,88.184 C67.64,88.888 66.74,89.24 65.588,89.24 C64.74,89.24 64.02,89.076 63.428,88.748 C62.836,88.42 62.356,87.984 61.988,87.44 C61.62,86.896 61.352,86.284 61.184,85.604 C61.016,84.924 60.932,84.224 60.932,83.504 C60.932,82.752 61.016,82.024 61.184,81.32 C61.352,80.616 61.62,79.988 61.988,79.436 C62.356,78.884 62.836,78.444 63.428,78.116 C64.02,77.788 64.74,77.624 65.588,77.624 C66.052,77.624 66.496,77.7 66.92,77.852 C67.344,78.004 67.724,78.216 68.06,78.488 C68.396,78.76 68.676,79.076 68.9,79.436 C69.124,79.796 69.268,80.192 69.332,80.624 L72.98,80.624 C72.868,79.632 72.596,78.752 72.164,77.984 C71.732,77.216 71.184,76.572 70.52,76.052 C69.856,75.532 69.104,75.136 68.264,74.864 C67.424,74.592 66.532,74.456 65.588,74.456 C64.276,74.456 63.096,74.688 62.048,75.152 C61,75.616 60.116,76.256 59.396,77.072 C58.676,77.888 58.124,78.844 57.74,79.94 C57.356,81.036 57.164,82.224 57.164,83.504 C57.164,84.752 57.356,85.916 57.74,86.996 C58.124,88.076 58.676,89.016 59.396,89.816 C60.116,90.616 61,91.244 62.048,91.7 C63.096,92.156 64.276,92.384 65.588,92.384 Z M81.356,92.312 C82.332,92.312 83.216,92.16 84.008,91.856 C84.8,91.552 85.476,91.116 86.036,90.548 C86.596,89.98 87.028,89.296 87.332,88.496 C87.636,87.696 87.788,86.8 87.788,85.808 C87.788,84.816 87.636,83.916 87.332,83.108 C87.028,82.3 86.596,81.612 86.036,81.044 C85.476,80.476 84.8,80.036 84.008,79.724 C83.216,79.412 82.332,79.256 81.356,79.256 C80.38,79.256 79.5,79.412 78.716,79.724 C77.932,80.036 77.26,80.476 76.7,81.044 C76.14,81.612 75.708,82.3 75.404,83.108 C75.1,83.916 74.948,84.816 74.948,85.808 C74.948,86.8 75.1,87.696 75.404,88.496 C75.708,89.296 76.14,89.98 76.7,90.548 C77.26,91.116 77.932,91.552 78.716,91.856 C79.5,92.16 80.38,92.312 81.356,92.312 Z M81.356,89.768 C80.78,89.768 80.3,89.656 79.916,89.432 C79.532,89.208 79.224,88.908 78.992,88.532 C78.76,88.156 78.596,87.732 78.5,87.26 C78.404,86.788 78.356,86.304 78.356,85.808 C78.356,85.312 78.404,84.824 78.5,84.344 C78.596,83.864 78.76,83.44 78.992,83.072 C79.224,82.704 79.532,82.404 79.916,82.172 C80.3,81.94 80.78,81.824 81.356,81.824 C81.932,81.824 82.416,81.94 82.808,82.172 C83.2,82.404 83.512,82.704 83.744,83.072 C83.976,83.44 84.14,83.864 84.236,84.344 C84.332,84.824 84.38,85.312 84.38,85.808 C84.38,86.304 84.332,86.788 84.236,87.26 C84.14,87.732 83.976,88.156 83.744,88.532 C83.512,88.908 83.2,89.208 82.808,89.432 C82.416,89.656 81.932,89.768 81.356,89.768 Z M93.5,92 L93.5,84.8 C93.5,84.192 93.588,83.7 93.764,83.324 C93.94,82.948 94.152,82.66 94.4,82.46 C94.648,82.26 94.904,82.124 95.168,82.052 C95.432,81.98 95.644,81.944 95.804,81.944 C96.348,81.944 96.76,82.036 97.04,82.22 C97.32,82.404 97.52,82.648 97.64,82.952 C97.76,83.256 97.828,83.588 97.844,83.948 C97.86,84.308 97.868,84.672 97.868,85.04 L97.868,92 L101.276,92 L101.276,85.088 C101.276,84.704 101.304,84.324 101.36,83.948 C101.416,83.572 101.528,83.236 101.696,82.94 C101.864,82.644 102.096,82.404 102.392,82.22 C102.688,82.036 103.076,81.944 103.556,81.944 C104.036,81.944 104.416,82.024 104.696,82.184 C104.976,82.344 105.188,82.56 105.332,82.832 C105.476,83.104 105.564,83.424 105.596,83.792 C105.628,84.16 105.644,84.552 105.644,84.968 L105.644,92 L109.052,92 L109.052,83.696 C109.052,82.896 108.94,82.212 108.716,81.644 C108.492,81.076 108.18,80.616 107.78,80.264 C107.38,79.912 106.9,79.656 106.34,79.496 C105.78,79.336 105.172,79.256 104.516,79.256 C103.652,79.256 102.904,79.464 102.272,79.88 C101.64,80.296 101.14,80.776 100.772,81.32 C100.436,80.552 99.944,80.016 99.296,79.712 C98.648,79.408 97.932,79.256 97.148,79.256 C96.332,79.256 95.608,79.432 94.976,79.784 C94.344,80.136 93.804,80.632 93.356,81.272 L93.308,81.272 L93.308,79.592 L90.092,79.592 L90.092,92 L93.5,92 Z M115.244,92 L115.244,84.8 C115.244,84.192 115.332,83.7 115.508,83.324 C115.684,82.948 115.896,82.66 116.144,82.46 C116.392,82.26 116.648,82.124 116.912,82.052 C117.176,81.98 117.388,81.944 117.548,81.944 C118.092,81.944 118.504,82.036 118.784,82.22 C119.064,82.404 119.264,82.648 119.384,82.952 C119.504,83.256 119.572,83.588 119.588,83.948 C119.604,84.308 119.612,84.672 119.612,85.04 L119.612,92 L123.02,92 L123.02,85.088 C123.02,84.704 123.048,84.324 123.104,83.948 C123.16,83.572 123.272,83.236 123.44,82.94 C123.608,82.644 123.84,82.404 124.136,82.22 C124.432,82.036 124.82,81.944 125.3,81.944 C125.78,81.944 126.16,82.024 126.44,82.184 C126.72,82.344 126.932,82.56 127.076,82.832 C127.22,83.104 127.308,83.424 127.34,83.792 C127.372,84.16 127.388,84.552 127.388,84.968 L127.388,92 L130.796,92 L130.796,83.696 C130.796,82.896 130.684,82.212 130.46,81.644 C130.236,81.076 129.924,80.616 129.524,80.264 C129.124,79.912 128.644,79.656 128.084,79.496 C127.524,79.336 126.916,79.256 126.26,79.256 C125.396,79.256 124.648,79.464 124.016,79.88 C123.384,80.296 122.884,80.776 122.516,81.32 C122.18,80.552 121.688,80.016 121.04,79.712 C120.392,79.408 119.676,79.256 118.892,79.256 C118.076,79.256 117.352,79.432 116.72,79.784 C116.088,80.136 115.548,80.632 115.1,81.272 L115.052,81.272 L115.052,79.592 L111.836,79.592 L111.836,92 L115.244,92 Z M138.02,92.312 C138.74,92.312 139.444,92.152 140.132,91.832 C140.82,91.512 141.38,90.992 141.812,90.272 L141.884,90.272 L141.884,92 L145.124,92 L145.124,79.592 L141.716,79.592 L141.716,86.096 C141.716,87.36 141.508,88.268 141.092,88.82 C140.676,89.372 140.004,89.648 139.076,89.648 C138.26,89.648 137.692,89.396 137.372,88.892 C137.052,88.388 136.892,87.624 136.892,86.6 L136.892,79.592 L133.484,79.592 L133.484,87.224 C133.484,87.992 133.552,88.692 133.688,89.324 C133.824,89.956 134.06,90.492 134.396,90.932 C134.732,91.372 135.192,91.712 135.776,91.952 C136.36,92.192 137.108,92.312 138.02,92.312 Z M151.124,92 L151.124,85.496 C151.124,84.232 151.332,83.324 151.748,82.772 C152.164,82.22 152.836,81.944 153.764,81.944 C154.58,81.944 155.148,82.196 155.468,82.7 C155.788,83.204 155.948,83.968 155.948,84.992 L155.948,92 L159.356,92 L159.356,84.368 C159.356,83.6 159.288,82.9 159.152,82.268 C159.016,81.636 158.78,81.1 158.444,80.66 C158.108,80.22 157.648,79.876 157.064,79.628 C156.48,79.38 155.732,79.256 154.82,79.256 C154.1,79.256 153.396,79.42 152.708,79.748 C152.02,80.076 151.46,80.6 151.028,81.32 L150.956,81.32 L150.956,79.592 L147.716,79.592 L147.716,92 L151.124,92 Z M165.452,77.672 L165.452,74.864 L162.044,74.864 L162.044,77.672 L165.452,77.672 Z M165.452,92 L165.452,79.592 L162.044,79.592 L162.044,92 L165.452,92 Z M172.964,92.12 C173.3,92.12 173.644,92.112 173.996,92.096 C174.348,92.08 174.668,92.048 174.956,92 L174.956,89.36 C174.796,89.392 174.628,89.416 174.452,89.432 C174.276,89.448 174.092,89.456 173.9,89.456 C173.324,89.456 172.94,89.36 172.748,89.168 C172.556,88.976 172.46,88.592 172.46,88.016 L172.46,81.872 L174.956,81.872 L174.956,79.592 L172.46,79.592 L172.46,75.872 L169.052,75.872 L169.052,79.592 L166.988,79.592 L166.988,81.872 L169.052,81.872 L169.052,89.192 C169.052,89.816 169.156,90.32 169.364,90.704 C169.572,91.088 169.856,91.384 170.216,91.592 C170.576,91.8 170.992,91.94 171.464,92.012 C171.936,92.084 172.436,92.12 172.964,92.12 Z M178.436,96.344 C179.604,96.344 180.516,96.128 181.172,95.696 C181.828,95.264 182.34,94.544 182.708,93.536 L187.892,79.592 L184.364,79.592 L181.652,88.088 L181.604,88.088 L178.796,79.592 L175.172,79.592 L179.516,91.232 C179.612,91.472 179.66,91.728 179.66,92 C179.66,92.368 179.552,92.704 179.336,93.008 C179.12,93.312 178.788,93.488 178.34,93.536 C178.004,93.552 177.668,93.544 177.332,93.512 C176.996,93.48 176.668,93.448 176.348,93.416 L176.348,96.224 C176.7,96.256 177.048,96.284 177.392,96.308 C177.736,96.332 178.084,96.344 178.436,96.344 Z" fill="#FFFFFF" fill-rule="nonzero"></path>
            </g>
            <g id="Schools" transform="translate(536.000000, 0.000000)">
                <path d="M25.8217587,143.470201 C75.7225938,168.227896 202.313585,163.003282 228.288093,142.133948 C254.262602,121.264614 246.455817,18.74306 216.445007,6.55326558 C186.434198,-5.63652879 73.4462649,-0.0161924056 40.7594167,16.7629683 C8.07256853,33.542129 -24.0790765,118.712506 25.8217587,143.470201 Z" id="Oval-Copy-4" fill="#9966FF"></path>
                <path d="M83.876,92.384 C85.044,92.384 86.072,92.248 86.96,91.976 C87.848,91.704 88.592,91.324 89.192,90.836 C89.792,90.348 90.244,89.768 90.548,89.096 C90.852,88.424 91.004,87.696 91.004,86.912 C91.004,85.952 90.8,85.164 90.392,84.548 C89.984,83.932 89.5,83.44 88.94,83.072 C88.38,82.704 87.816,82.436 87.248,82.268 C86.68,82.1 86.236,81.984 85.916,81.92 C84.844,81.648 83.976,81.424 83.312,81.248 C82.648,81.072 82.128,80.896 81.752,80.72 C81.376,80.544 81.124,80.352 80.996,80.144 C80.868,79.936 80.804,79.664 80.804,79.328 C80.804,78.96 80.884,78.656 81.044,78.416 C81.204,78.176 81.408,77.976 81.656,77.816 C81.904,77.656 82.18,77.544 82.484,77.48 C82.788,77.416 83.092,77.384 83.396,77.384 C83.86,77.384 84.288,77.424 84.68,77.504 C85.072,77.584 85.42,77.72 85.724,77.912 C86.028,78.104 86.272,78.368 86.456,78.704 C86.64,79.04 86.748,79.464 86.78,79.976 L90.428,79.976 C90.428,78.984 90.24,78.14 89.864,77.444 C89.488,76.748 88.98,76.176 88.34,75.728 C87.7,75.28 86.968,74.956 86.144,74.756 C85.32,74.556 84.46,74.456 83.564,74.456 C82.796,74.456 82.028,74.56 81.26,74.768 C80.492,74.976 79.804,75.296 79.196,75.728 C78.588,76.16 78.096,76.7 77.72,77.348 C77.344,77.996 77.156,78.76 77.156,79.64 C77.156,80.424 77.304,81.092 77.6,81.644 C77.896,82.196 78.284,82.656 78.764,83.024 C79.244,83.392 79.788,83.692 80.396,83.924 C81.004,84.156 81.628,84.352 82.268,84.512 C82.892,84.688 83.508,84.848 84.116,84.992 C84.724,85.136 85.268,85.304 85.748,85.496 C86.228,85.688 86.616,85.928 86.912,86.216 C87.208,86.504 87.356,86.88 87.356,87.344 C87.356,87.776 87.244,88.132 87.02,88.412 C86.796,88.692 86.516,88.912 86.18,89.072 C85.844,89.232 85.484,89.34 85.1,89.396 C84.716,89.452 84.356,89.48 84.02,89.48 C83.524,89.48 83.044,89.42 82.58,89.3 C82.116,89.18 81.712,88.996 81.368,88.748 C81.024,88.5 80.748,88.176 80.54,87.776 C80.332,87.376 80.228,86.888 80.228,86.312 L76.58,86.312 C76.564,87.368 76.756,88.28 77.156,89.048 C77.556,89.816 78.096,90.448 78.776,90.944 C79.456,91.44 80.24,91.804 81.128,92.036 C82.016,92.268 82.932,92.384 83.876,92.384 Z M98.756,92.312 C100.404,92.312 101.756,91.88 102.812,91.016 C103.868,90.152 104.508,88.896 104.732,87.248 L101.444,87.248 C101.332,88.016 101.056,88.628 100.616,89.084 C100.176,89.54 99.548,89.768 98.732,89.768 C98.204,89.768 97.756,89.648 97.388,89.408 C97.02,89.168 96.728,88.86 96.512,88.484 C96.296,88.108 96.14,87.688 96.044,87.224 C95.948,86.76 95.9,86.304 95.9,85.856 C95.9,85.392 95.948,84.924 96.044,84.452 C96.14,83.98 96.304,83.548 96.536,83.156 C96.768,82.764 97.068,82.444 97.436,82.196 C97.804,81.948 98.26,81.824 98.804,81.824 C100.26,81.824 101.1,82.536 101.324,83.96 L104.66,83.96 C104.612,83.16 104.42,82.468 104.084,81.884 C103.748,81.3 103.312,80.812 102.776,80.42 C102.24,80.028 101.632,79.736 100.952,79.544 C100.272,79.352 99.564,79.256 98.828,79.256 C97.82,79.256 96.924,79.424 96.14,79.76 C95.356,80.096 94.692,80.564 94.148,81.164 C93.604,81.764 93.192,82.476 92.912,83.3 C92.632,84.124 92.492,85.016 92.492,85.976 C92.492,86.904 92.644,87.756 92.948,88.532 C93.252,89.308 93.676,89.976 94.22,90.536 C94.764,91.096 95.424,91.532 96.2,91.844 C96.976,92.156 97.828,92.312 98.756,92.312 Z M110.06,92 L110.06,85.496 C110.06,84.232 110.268,83.324 110.684,82.772 C111.1,82.22 111.772,81.944 112.7,81.944 C113.516,81.944 114.084,82.196 114.404,82.7 C114.724,83.204 114.884,83.968 114.884,84.992 L114.884,92 L118.292,92 L118.292,84.368 C118.292,83.6 118.224,82.9 118.088,82.268 C117.952,81.636 117.716,81.1 117.38,80.66 C117.044,80.22 116.584,79.876 116,79.628 C115.416,79.38 114.668,79.256 113.756,79.256 C113.116,79.256 112.46,79.42 111.788,79.748 C111.116,80.076 110.564,80.6 110.132,81.32 L110.06,81.32 L110.06,74.864 L106.652,74.864 L106.652,92 L110.06,92 Z M126.908,92.312 C127.884,92.312 128.768,92.16 129.56,91.856 C130.352,91.552 131.028,91.116 131.588,90.548 C132.148,89.98 132.58,89.296 132.884,88.496 C133.188,87.696 133.34,86.8 133.34,85.808 C133.34,84.816 133.188,83.916 132.884,83.108 C132.58,82.3 132.148,81.612 131.588,81.044 C131.028,80.476 130.352,80.036 129.56,79.724 C128.768,79.412 127.884,79.256 126.908,79.256 C125.932,79.256 125.052,79.412 124.268,79.724 C123.484,80.036 122.812,80.476 122.252,81.044 C121.692,81.612 121.26,82.3 120.956,83.108 C120.652,83.916 120.5,84.816 120.5,85.808 C120.5,86.8 120.652,87.696 120.956,88.496 C121.26,89.296 121.692,89.98 122.252,90.548 C122.812,91.116 123.484,91.552 124.268,91.856 C125.052,92.16 125.932,92.312 126.908,92.312 Z M126.908,89.768 C126.332,89.768 125.852,89.656 125.468,89.432 C125.084,89.208 124.776,88.908 124.544,88.532 C124.312,88.156 124.148,87.732 124.052,87.26 C123.956,86.788 123.908,86.304 123.908,85.808 C123.908,85.312 123.956,84.824 124.052,84.344 C124.148,83.864 124.312,83.44 124.544,83.072 C124.776,82.704 125.084,82.404 125.468,82.172 C125.852,81.94 126.332,81.824 126.908,81.824 C127.484,81.824 127.968,81.94 128.36,82.172 C128.752,82.404 129.064,82.704 129.296,83.072 C129.528,83.44 129.692,83.864 129.788,84.344 C129.884,84.824 129.932,85.312 129.932,85.808 C129.932,86.304 129.884,86.788 129.788,87.26 C129.692,87.732 129.528,88.156 129.296,88.532 C129.064,88.908 128.752,89.208 128.36,89.432 C127.968,89.656 127.484,89.768 126.908,89.768 Z M141.572,92.312 C142.548,92.312 143.432,92.16 144.224,91.856 C145.016,91.552 145.692,91.116 146.252,90.548 C146.812,89.98 147.244,89.296 147.548,88.496 C147.852,87.696 148.004,86.8 148.004,85.808 C148.004,84.816 147.852,83.916 147.548,83.108 C147.244,82.3 146.812,81.612 146.252,81.044 C145.692,80.476 145.016,80.036 144.224,79.724 C143.432,79.412 142.548,79.256 141.572,79.256 C140.596,79.256 139.716,79.412 138.932,79.724 C138.148,80.036 137.476,80.476 136.916,81.044 C136.356,81.612 135.924,82.3 135.62,83.108 C135.316,83.916 135.164,84.816 135.164,85.808 C135.164,86.8 135.316,87.696 135.62,88.496 C135.924,89.296 136.356,89.98 136.916,90.548 C137.476,91.116 138.148,91.552 138.932,91.856 C139.716,92.16 140.596,92.312 141.572,92.312 Z M141.572,89.768 C140.996,89.768 140.516,89.656 140.132,89.432 C139.748,89.208 139.44,88.908 139.208,88.532 C138.976,88.156 138.812,87.732 138.716,87.26 C138.62,86.788 138.572,86.304 138.572,85.808 C138.572,85.312 138.62,84.824 138.716,84.344 C138.812,83.864 138.976,83.44 139.208,83.072 C139.44,82.704 139.748,82.404 140.132,82.172 C140.516,81.94 140.996,81.824 141.572,81.824 C142.148,81.824 142.632,81.94 143.024,82.172 C143.416,82.404 143.728,82.704 143.96,83.072 C144.192,83.44 144.356,83.864 144.452,84.344 C144.548,84.824 144.596,85.312 144.596,85.808 C144.596,86.304 144.548,86.788 144.452,87.26 C144.356,87.732 144.192,88.156 143.96,88.532 C143.728,88.908 143.416,89.208 143.024,89.432 C142.632,89.656 142.148,89.768 141.572,89.768 Z M153.716,92 L153.716,74.864 L150.308,74.864 L150.308,92 L153.716,92 Z M161.636,92.312 C162.34,92.312 163.032,92.244 163.712,92.108 C164.392,91.972 164.996,91.736 165.524,91.4 C166.052,91.064 166.48,90.62 166.808,90.068 C167.136,89.516 167.3,88.832 167.3,88.016 C167.3,87.44 167.188,86.956 166.964,86.564 C166.74,86.172 166.444,85.844 166.076,85.58 C165.708,85.316 165.288,85.104 164.816,84.944 C164.344,84.784 163.86,84.648 163.364,84.536 C162.884,84.424 162.412,84.32 161.948,84.224 C161.484,84.128 161.072,84.02 160.712,83.9 C160.352,83.78 160.06,83.624 159.836,83.432 C159.612,83.24 159.5,82.992 159.5,82.688 C159.5,82.432 159.564,82.228 159.692,82.076 C159.82,81.924 159.976,81.808 160.16,81.728 C160.344,81.648 160.548,81.596 160.772,81.572 C160.996,81.548 161.204,81.536 161.396,81.536 C162.004,81.536 162.532,81.652 162.98,81.884 C163.428,82.116 163.676,82.56 163.724,83.216 L166.964,83.216 C166.9,82.448 166.704,81.812 166.376,81.308 C166.048,80.804 165.636,80.4 165.14,80.096 C164.644,79.792 164.08,79.576 163.448,79.448 C162.816,79.32 162.164,79.256 161.492,79.256 C160.82,79.256 160.164,79.316 159.524,79.436 C158.884,79.556 158.308,79.764 157.796,80.06 C157.284,80.356 156.872,80.76 156.56,81.272 C156.248,81.784 156.092,82.44 156.092,83.24 C156.092,83.784 156.204,84.244 156.428,84.62 C156.652,84.996 156.948,85.308 157.316,85.556 C157.684,85.804 158.104,86.004 158.576,86.156 C159.048,86.308 159.532,86.44 160.028,86.552 C161.244,86.808 162.192,87.064 162.872,87.32 C163.552,87.576 163.892,87.96 163.892,88.472 C163.892,88.776 163.82,89.028 163.676,89.228 C163.532,89.428 163.352,89.588 163.136,89.708 C162.92,89.828 162.68,89.916 162.416,89.972 C162.152,90.028 161.9,90.056 161.66,90.056 C161.324,90.056 161,90.016 160.688,89.936 C160.376,89.856 160.1,89.732 159.86,89.564 C159.62,89.396 159.424,89.18 159.272,88.916 C159.12,88.652 159.044,88.336 159.044,87.968 L155.804,87.968 C155.836,88.8 156.024,89.492 156.368,90.044 C156.712,90.596 157.152,91.04 157.688,91.376 C158.224,91.712 158.836,91.952 159.524,92.096 C160.212,92.24 160.916,92.312 161.636,92.312 Z" fill="#FFFFFF" fill-rule="nonzero"></path>
            </g>
        </g>
    </g>
</svg>