<?xml version="1.0" encoding="UTF-8"?>
<svg width="216px" height="160px" viewBox="0 0 216 160" version="1.1" xmlns="http://www.w3.org/2000/svg" xmlns:xlink="http://www.w3.org/1999/xlink">
    <title>Text-to-Speech Block</title>
    <g id="Text-to-Speech-Block" stroke="none" stroke-width="1" fill="none" fill-rule="evenodd">
        <g transform="translate(14.000000, 32.000000)" id="Speak-Block">
            <g transform="translate(94.500000, 48.000000) rotate(-10.000000) translate(-94.500000, -48.000000) translate(5.000000, 16.000000)">
                <g id="Group" fill="#0EBD8C" stroke="#0A8E69" stroke-linecap="round" stroke-linejoin="round">
                    <g id="Vertical/Block/Command">
                        <path d="M14.3431458,0 C15.4040117,0 16.4214274,0.421427361 17.1715729,1.17157288 L17.1715729,1.17157288 L22.8284271,6.82842712 C23.5785726,7.57857264 24.5959883,8 25.6568542,8 L25.6568542,8 L38.3431458,8 C39.4040117,8 40.4214274,7.57857264 41.1715729,6.82842712 L41.1715729,6.82842712 L46.8284271,1.17157288 C47.5785726,0.421427361 48.5959883,0 49.6568542,0 L49.6568542,0 L175,0 C177.209139,-4.05812251e-16 179,1.790861 179,4 L179,52 C179,54.209139 177.209139,56 175,56 L49.6568542,56 C48.5959883,56 47.5785726,56.4214274 46.8284271,57.1715729 L41.1715729,62.8284271 C40.4214274,63.5785726 39.4040117,64 38.3431458,64 L25.6568542,64 C24.5959883,64 23.5785726,63.5785726 22.8284271,62.8284271 L17.1715729,57.1715729 C16.4214274,56.4214274 15.4040117,56 14.3431458,56 L4,56 C1.790861,56 2.705415e-16,54.209139 0,52 L0,4 C-2.705415e-16,1.790861 1.790861,4.05812251e-16 4,0 Z" id="Command"></path>
                    </g>
                </g>
                <g id="Icon" transform="translate(12.000000, 16.000000)" fill-rule="nonzero" stroke="#000000" stroke-opacity="0.15">
                    <path d="M9.71223471,17.0476659 C10.0703033,16.9758218 10.4380953,17.0037366 10.7688712,17.1119489 C11.1212047,17.2272137 11.4299977,17.4333194 11.647981,17.6993901 C11.8691082,17.9692983 12,18.3000271 12,18.6693435 L12,18.6693435 L12,31.2834255 C12,31.6561144 11.8760761,31.9866754 11.66846,32.2581168 C11.4582008,32.5330139 11.1591305,32.7468477 10.8155426,32.8732114 C10.1788307,33.1073792 9.39672985,33.0376861 8.79868162,32.543741 L8.79868162,32.543741 L6.20478695,30.3863511 C5.22668015,29.5931535 4.03603416,29.211112 2.7,29.211112 C1.59323506,29.211112 1.07158238,28.9720398 0.688690153,28.6375806 C0.255880636,28.2595183 -1.11022302e-16,27.7310531 0,27.1387986 L0,27.1387986 L0,22.904071 C-0,22.3118165 0.255880636,21.7833513 0.688690156,21.405289 C1.09111457,21.0537682 1.65156763,20.8317575 2.3,20.8317575 C3.93664961,20.8317575 5.15835974,20.4146041 6.09999998,19.6604499 L6.09999998,19.6604499 L6.1,19.6604499 L8.78958765,17.5063751 C9.06635671,17.2611088 9.38533992,17.1132552 9.71223471,17.0476659 Z" id="speaker" fill="#4D4D4D"></path>
                    <path d="M24,1.11022302e-15 C26.4852814,1.11022302e-15 28.7352814,1.00735931 30.363961,2.63603897 C31.9926407,4.26471863 33,6.51471863 33,9 C33,11.4852814 31.9926407,13.7352814 30.363961,15.363961 C28.7352814,16.9926407 26.4852814,18 24,18 L24,18 L21.8688723,18 C20.0780243,19.9721756 17.1457853,21.4285714 15.6666667,21.4285714 C15.4510289,21.4285714 15.1760921,21.3846514 14.8861197,21.2396653 C14.6075712,21.100391 14.382335,20.8942746 14.2273786,20.6323706 C14.0844213,20.3907472 14,20.0993666 14,19.7619048 C14.1220813,19.176409 14.5055427,18.5590776 14.7306509,18.2107627 C15.0255578,17.6962718 15.1946647,17.2351884 15.2968509,16.6749345 C14.0208536,15.8924029 12.9731727,14.8132274 12.2318602,13.5474642 C11.4421513,12.1990657 11,10.6389373 11,9 C11,6.51471863 12.0073593,4.26471863 13.636039,2.63603897 C15.2647186,1.00735931 17.5147186,-6.66133815e-16 20,0 L20,0 Z" id="speech" fill="#FFFFFF"></path>
                </g>
                <path d="M64.4375,34.2890625 C65.75,34.2890625 66.7200521,34.0221354 67.3476562,33.4882812 C67.9752604,32.9544271 68.2890625,32.265625 68.2890625,31.421875 C68.2890625,30.78125 68.0703125,30.2473958 67.6328125,29.8203125 C67.1901042,29.3984375 66.5260417,29.0833333 65.640625,28.875 C64.3125,28.5833333 63.5390625,28.3776042 63.3203125,28.2578125 C63.1015625,28.1432292 62.9921875,27.9583333 62.9921875,27.703125 C62.9921875,27.5 63.0950521,27.3229167 63.3007812,27.171875 C63.5065104,27.0208333 63.8515625,26.9453125 64.3359375,26.9453125 C64.9244792,26.9453125 65.3411458,27.0963542 65.5859375,27.3984375 C65.7161458,27.5651042 65.796875,27.7916667 65.828125,28.078125 L65.828125,28.078125 L68.0546875,28.078125 C67.9557292,27.0364583 67.5716146,26.3033854 66.9023438,25.8789062 C66.2330729,25.4544271 65.3671875,25.2421875 64.3046875,25.2421875 C63.1848958,25.2421875 62.3164062,25.5247396 61.6992188,26.0898438 C61.0820312,26.6549479 60.7734375,27.3307292 60.7734375,28.1171875 C60.7734375,28.7838542 60.9713542,29.2942708 61.3671875,29.6484375 C61.7630208,30.0078125 62.4427083,30.3072917 63.40625,30.546875 C64.7447917,30.8645833 65.5182292,31.0885417 65.7265625,31.21875 C65.9348958,31.3489583 66.0390625,31.5390625 66.0390625,31.7890625 C66.0390625,32.0494792 65.9101562,32.2447917 65.6523438,32.375 C65.3945312,32.5052083 65.046875,32.5703125 64.609375,32.5703125 C63.8645833,32.5703125 63.3541667,32.421875 63.078125,32.125 C62.921875,31.9583333 62.8203125,31.6770833 62.7734375,31.28125 L62.7734375,31.28125 L60.515625,31.28125 C60.515625,32.15625 60.8346354,32.8763021 61.4726562,33.4414062 C62.1106771,34.0065104 63.0989583,34.2890625 64.4375,34.2890625 Z M72.078125,37.3515625 L72.078125,32.9140625 C72.3125,33.2734375 72.5520833,33.546875 72.796875,33.734375 C73.2447917,34.0729167 73.8072917,34.2421875 74.484375,34.2421875 C75.546875,34.2421875 76.4153646,33.8489583 77.0898438,33.0625 C77.7643229,32.2760417 78.1015625,31.1328125 78.1015625,29.6328125 C78.1015625,28.2109375 77.7565104,27.1328125 77.0664062,26.3984375 C76.3763021,25.6640625 75.5338542,25.296875 74.5390625,25.296875 C73.8567708,25.296875 73.2682292,25.4869792 72.7734375,25.8671875 C72.5026042,26.0807292 72.2473958,26.3723958 72.0078125,26.7421875 L72.0078125,26.7421875 L72.0078125,25.484375 L69.875,25.484375 L69.875,37.3515625 L72.078125,37.3515625 Z M73.8984375,32.375 C73.4713542,32.375 73.1015625,32.2578125 72.7890625,32.0234375 C72.2630208,31.6223958 72,30.9270833 72,29.9375 C72,29.3125 72.078125,28.796875 72.234375,28.390625 C72.5364583,27.625 73.0911458,27.2421875 73.8984375,27.2421875 C74.5703125,27.2421875 75.0559896,27.4947917 75.3554688,28 C75.6549479,28.5052083 75.8046875,29.0859375 75.8046875,29.7421875 C75.8046875,30.5390625 75.6419271,31.1770833 75.3164062,31.65625 C74.9908854,32.1354167 74.5182292,32.375 73.8984375,32.375 Z M83.1484375,34.28125 C84.4609375,34.28125 85.4817708,33.8671875 86.2109375,33.0390625 C86.6796875,32.5182292 86.9427083,32.0052083 87,31.5 L87,31.5 L84.7265625,31.5 C84.6067708,31.75 84.46875,31.9453125 84.3125,32.0859375 C84.0260417,32.3463542 83.6536458,32.4765625 83.1953125,32.4765625 C82.7630208,32.4765625 82.3932292,32.3697917 82.0859375,32.15625 C81.5807292,31.8125 81.3125,31.2135417 81.28125,30.359375 L81.28125,30.359375 L87.109375,30.359375 C87.1197917,29.625 87.0963542,29.0625 87.0390625,28.671875 C86.9401042,28.0052083 86.7239583,27.4192708 86.390625,26.9140625 C86.0208333,26.3411458 85.5520833,25.921875 84.984375,25.65625 C84.4166667,25.390625 83.7786458,25.2578125 83.0703125,25.2578125 C81.8776042,25.2578125 80.9075521,25.6510417 80.1601562,26.4375 C79.4127604,27.2239583 79.0390625,28.3541667 79.0390625,29.828125 C79.0390625,31.4010417 79.453125,32.5364583 80.28125,33.234375 C81.109375,33.9322917 82.0651042,34.28125 83.1484375,34.28125 Z M84.796875,28.890625 L81.3359375,28.890625 C81.4088542,28.3385417 81.5872396,27.9010417 81.8710938,27.578125 C82.1549479,27.2552083 82.5546875,27.09375 83.0703125,27.09375 C83.5442708,27.09375 83.9414062,27.2460938 84.2617188,27.5507812 C84.5820312,27.8554688 84.7604167,28.3020833 84.796875,28.890625 L84.796875,28.890625 Z M90.6953125,34.265625 C91.2994792,34.265625 91.8411458,34.1276042 92.3203125,33.8515625 C92.7213542,33.6171875 93.0755208,33.3333333 93.3828125,33 C93.3984375,33.1927083 93.4192708,33.3645833 93.4453125,33.515625 C93.4713542,33.6666667 93.5182292,33.828125 93.5859375,34 L93.5859375,34 L96.0078125,34 L96.0078125,33.671875 C95.8619792,33.6041667 95.7526042,33.5182292 95.6796875,33.4140625 C95.6067708,33.3098958 95.5625,33.1119792 95.546875,32.8203125 C95.5364583,32.4348958 95.53125,32.1067708 95.53125,31.8359375 L95.53125,27.9296875 C95.53125,26.9036458 95.1692708,26.2057292 94.4453125,25.8359375 C93.7213542,25.4661458 92.8932292,25.28125 91.9609375,25.28125 C90.5286458,25.28125 89.5182292,25.65625 88.9296875,26.40625 C88.5598958,26.8854167 88.3515625,27.4973958 88.3046875,28.2421875 L88.3046875,28.2421875 L90.453125,28.2421875 C90.5052083,27.9140625 90.609375,27.6536458 90.765625,27.4609375 C90.984375,27.2005208 91.3567708,27.0703125 91.8828125,27.0703125 C92.3515625,27.0703125 92.7070312,27.1367188 92.9492188,27.2695312 C93.1914062,27.4023438 93.3125,27.6432292 93.3125,27.9921875 C93.3125,28.2786458 93.1536458,28.4895833 92.8359375,28.625 C92.6588542,28.703125 92.3645833,28.7682292 91.953125,28.8203125 L91.953125,28.8203125 L91.1953125,28.9140625 C90.3359375,29.0234375 89.6848958,29.2057292 89.2421875,29.4609375 C88.4348958,29.9296875 88.03125,30.6875 88.03125,31.734375 C88.03125,32.5416667 88.2825521,33.1653646 88.7851562,33.6054688 C89.2877604,34.0455729 89.9244792,34.265625 90.6953125,34.265625 Z M91.3515625,32.6484375 C91.0494792,32.6484375 90.7929688,32.5638021 90.5820312,32.3945312 C90.3710938,32.2252604 90.265625,31.9505208 90.265625,31.5703125 C90.265625,31.1432292 90.4375,30.828125 90.78125,30.625 C90.984375,30.5052083 91.3203125,30.4036458 91.7890625,30.3203125 L91.7890625,30.3203125 L92.2890625,30.2265625 C92.5390625,30.1796875 92.7356771,30.1289062 92.8789062,30.0742188 C93.0221354,30.0195312 93.1640625,29.9479167 93.3046875,29.859375 L93.3046875,29.859375 L93.3046875,30.6875 C93.2890625,31.4322917 93.0794271,31.9453125 92.6757812,32.2265625 C92.2721354,32.5078125 91.8307292,32.6484375 91.3515625,32.6484375 Z M99.671875,34 L99.671875,31.3203125 L100.59375,30.359375 L102.632812,34 L105.320312,34 L102.226562,28.78125 L105.203125,25.5234375 L102.445312,25.5234375 L99.671875,28.7265625 L99.671875,22.5234375 L97.484375,22.5234375 L97.484375,34 L99.671875,34 Z" id="speak" fill="#FFFFFF" fill-rule="nonzero"></path>
                <g id="Vertical/Element/Field/Default" transform="translate(110.000000, 13.000000)">
                    <path d="M16,0 L47,0 C55.836556,-3.39960584e-15 63,7.163444 63,16 C63,24.836556 55.836556,32 47,32 L16,32 C7.163444,32 -6.94190838e-16,24.836556 0,16 C-2.85852284e-15,7.163444 7.163444,-1.53107837e-16 16,0 Z" id="input" stroke="#0A8E69" fill="#FFFFFF"></path>
                    <path d="M15.58,22 L15.58,17.072 L20.204,17.072 L20.204,22 L22.716,22 L22.716,10.576 L20.204,10.576 L20.204,14.96 L15.58,14.96 L15.58,10.576 L13.068,10.576 L13.068,22 L15.58,22 Z M28.508,22.208 C29.4466667,22.208 30.2466667,21.9946667 30.908,21.568 C31.5693333,21.1413333 32.06,20.432 32.38,19.44 L30.38,19.44 C30.3053333,19.696 30.1026667,19.9386667 29.772,20.168 C29.4413333,20.3973333 29.0466667,20.512 28.588,20.512 C27.948,20.512 27.4573333,20.3466667 27.116,20.016 C26.7746667,19.6853333 26.588,19.152 26.556,18.416 L32.524,18.416 C32.5666667,17.776 32.5133333,17.1626667 32.364,16.576 C32.2146667,15.9893333 31.972,15.4666667 31.636,15.008 C31.3,14.5493333 30.8706667,14.184 30.348,13.912 C29.8253333,13.64 29.212,13.504 28.508,13.504 C27.8786667,13.504 27.3053333,13.616 26.788,13.84 C26.2706667,14.064 25.8253333,14.3706667 25.452,14.76 C25.0786667,15.1493333 24.7906667,15.6106667 24.588,16.144 C24.3853333,16.6773333 24.284,17.2533333 24.284,17.872 C24.284,18.512 24.3826667,19.0986667 24.58,19.632 C24.7773333,20.1653333 25.0573333,20.624 25.42,21.008 C25.7826667,21.392 26.2253333,21.688 26.748,21.896 C27.2706667,22.104 27.8573333,22.208 28.508,22.208 Z M30.252,16.976 L26.556,16.976 C26.5666667,16.816 26.6013333,16.6346667 26.66,16.432 C26.7186667,16.2293333 26.82,16.0373333 26.964,15.856 C27.108,15.6746667 27.3,15.5226667 27.54,15.4 C27.78,15.2773333 28.0813333,15.216 28.444,15.216 C28.9986667,15.216 29.412,15.3653333 29.684,15.664 C29.956,15.9626667 30.1453333,16.4 30.252,16.976 Z M36.204,22 L36.204,10.576 L33.932,10.576 L33.932,22 L36.204,22 Z M40.332,22 L40.332,10.576 L38.06,10.576 L38.06,22 L40.332,22 Z M46.14,22.208 C46.7906667,22.208 47.38,22.1066667 47.908,21.904 C48.436,21.7013333 48.8866667,21.4106667 49.26,21.032 C49.6333333,20.6533333 49.9213333,20.1973333 50.124,19.664 C50.3266667,19.1306667 50.428,18.5333333 50.428,17.872 C50.428,17.2106667 50.3266667,16.6106667 50.124,16.072 C49.9213333,15.5333333 49.6333333,15.0746667 49.26,14.696 C48.8866667,14.3173333 48.436,14.024 47.908,13.816 C47.38,13.608 46.7906667,13.504 46.14,13.504 C45.4893333,13.504 44.9026667,13.608 44.38,13.816 C43.8573333,14.024 43.4093333,14.3173333 43.036,14.696 C42.6626667,15.0746667 42.3746667,15.5333333 42.172,16.072 C41.9693333,16.6106667 41.868,17.2106667 41.868,17.872 C41.868,18.5333333 41.9693333,19.1306667 42.172,19.664 C42.3746667,20.1973333 42.6626667,20.6533333 43.036,21.032 C43.4093333,21.4106667 43.8573333,21.7013333 44.38,21.904 C44.9026667,22.1066667 45.4893333,22.208 46.14,22.208 Z M46.14,20.512 C45.756,20.512 45.436,20.4373333 45.18,20.288 C44.924,20.1386667 44.7186667,19.9386667 44.564,19.688 C44.4093333,19.4373333 44.3,19.1546667 44.236,18.84 C44.172,18.5253333 44.14,18.2026667 44.14,17.872 C44.14,17.5413333 44.172,17.216 44.236,16.896 C44.3,16.576 44.4093333,16.2933333 44.564,16.048 C44.7186667,15.8026667 44.924,15.6026667 45.18,15.448 C45.436,15.2933333 45.756,15.216 46.14,15.216 C46.524,15.216 46.8466667,15.2933333 47.108,15.448 C47.3693333,15.6026667 47.5773333,15.8026667 47.732,16.048 C47.8866667,16.2933333 47.996,16.576 48.06,16.896 C48.124,17.216 48.156,17.5413333 48.156,17.872 C48.156,18.2026667 48.124,18.5253333 48.06,18.84 C47.996,19.1546667 47.8866667,19.4373333 47.732,19.688 C47.5773333,19.9386667 47.3693333,20.1386667 47.108,20.288 C46.8466667,20.4373333 46.524,20.512 46.14,20.512 Z" id="Hello" fill="#575E75" fill-rule="nonzero"></path>
                </g>
                <line x1="52.5" y1="8.5" x2="52.5" y2="48.5" id="Line-5" stroke="#0A8E69" stroke-linecap="round" stroke-linejoin="round"></line>
            </g>
        </g>
    </g>
</svg>