<svg width="21" height="20" viewBox="0 0 21 20" fill="none" xmlns="http://www.w3.org/2000/svg">
<path d="M5.2531 7.47107C5.2531 8.16594 5.51512 8.80522 5.9491 9.28437C4.50749 10.1253 3.54431 11.8131 3.54431 13.7407C3.54431 14.5562 4.19249 15.1128 5.00253 15.4536C5.82565 15.7998 6.90529 15.9673 7.97081 15.9673C9.03633 15.9673 10.116 15.7998 10.9391 15.4536C11.7491 15.1128 12.3973 14.5562 12.3973 13.7407V13.7342C12.3973 13.6496 12.3973 13.5472 12.3834 13.4418C12.3334 12.4083 12.0039 11.4543 11.4801 10.6824C11.0859 10.1059 10.5795 9.62615 9.99447 9.28522C10.4318 8.80663 10.6887 8.1706 10.6887 7.47107C10.6887 5.96646 9.47307 4.75 7.97416 4.75C6.46912 4.75 5.2531 5.96602 5.2531 7.47107Z" fill="#4C97FF"/>
<path d="M15.0868 5.71516C14.0615 5.71516 13.2332 6.54343 13.2332 7.56872C13.2332 8.00598 13.385 8.40622 13.6373 8.72277C13.1654 9.02039 12.7758 9.45561 12.5108 9.97982C12.4698 10.0609 12.476 10.1578 12.527 10.233C13.0003 10.9304 13.3012 11.7992 13.3451 12.7461C13.3501 12.8539 13.4236 12.9463 13.5274 12.9753C14.3677 13.2105 15.4588 13.2317 16.3459 13.0414C16.7892 12.9463 17.2012 12.7943 17.5086 12.5735C17.8194 12.3501 18.0443 12.0384 18.0443 11.637C18.0443 10.393 17.4408 9.29929 16.5294 8.72307C16.7819 8.40648 16.9338 8.00612 16.9338 7.56872C16.9338 6.5441 16.1062 5.71516 15.0868 5.71516Z" fill="#4C97FF"/>
</svg>
