<svg width="21" height="20" viewBox="0 0 21 20" fill="none" xmlns="http://www.w3.org/2000/svg">
<path d="M6.79431 5C6.79431 4.44772 7.24203 4 7.79431 4H17.7943C18.3466 4 18.7943 4.44772 18.7943 5V12C18.7943 12.5523 18.3466 13 17.7943 13H7.79431C7.24203 13 6.79431 12.5523 6.79431 12V5Z" fill="#4C97FF"/>
<path fill-rule="evenodd" clip-rule="evenodd" d="M5.79431 7H4.79431C4.24203 7 3.79431 7.44772 3.79431 8V14C3.79431 15.1046 4.68974 16 5.79431 16H14.7943C15.3466 16 15.7943 15.5523 15.7943 15V14H7.79431C6.68974 14 5.79431 13.1046 5.79431 12V7ZM6.79431 7H14.7943C15.3466 7 15.7943 7.44772 15.7943 8V13H7.79431C7.24203 13 6.79431 12.5523 6.79431 12V7Z" fill="#4C97FF"/>
</svg>
