<svg width="147" height="177" viewBox="0 0 147 177" fill="none" xmlns="http://www.w3.org/2000/svg">
<mask id="mask0" mask-type="alpha" maskUnits="userSpaceOnUse" x="0" y="0" width="147" height="177">
<rect width="147" height="177" fill="#C4C4C4"/>
</mask>
<g mask="url(#mask0)">
<path opacity="0.3" fill-rule="evenodd" clip-rule="evenodd" d="M33.9398 7.55682C-35.3557 20.2186 -47.9335 60.1599 -31.6109 105.026C-13.5055 154.792 26.3575 162 56.0398 162C112.261 162 147.912 115.074 144.813 75.0489C140.463 18.8722 97.1725 -8.51898 33.9398 7.55682Z" fill="#4C97FF"/>
<path fill-rule="evenodd" clip-rule="evenodd" d="M50.3484 85.0694C47.5164 82.1959 45.7738 78.2819 45.7738 73.9683C45.7738 65.1492 53.0579 58 62.0434 58C71.0288 58 78.3129 65.1492 78.3129 73.9683C78.3129 78.188 76.6453 82.0255 73.9215 84.8804C78.2202 87.4007 81.5395 91.7172 83.3202 98.3465C86.5106 110.224 86.6615 119 62.1493 119C35.4939 119 36.8136 112.094 39.1314 100.445C40.534 93.3955 44.8485 88.1292 50.3484 85.0694Z" fill="#4C97FF"/>
<path d="M88.5631 103.728C90.6639 104.007 93.3097 104.149 96.625 104.149C112.679 104.149 113.209 99.3602 111.12 91.9985C109.895 87.6813 107.34 84.537 104.136 82.6747C106.136 80.7799 107.379 78.1256 107.379 75.1875C107.379 69.4306 102.607 64.7637 96.7188 64.7637C90.831 64.7637 86.0581 69.4306 86.0581 75.1875C86.0581 78.1305 87.3055 80.7887 89.3115 82.6842C86.8981 84.0728 84.8312 86.1225 83.4243 88.6337C85.0253 91.094 86.2901 93.984 87.1832 97.3088C87.7501 99.4192 88.2693 101.593 88.5631 103.728Z" fill="#4C97FF"/>
<path d="M39.0426 90.2273C37.599 86.7062 35.2335 84.0812 32.3783 82.4219C34.4866 80.4247 35.7971 77.6269 35.7971 74.53C35.7971 68.4619 30.7662 63.5427 24.5602 63.5427C18.3542 63.5427 13.3232 68.4619 13.3232 74.53C13.3232 77.6321 14.6381 80.434 16.7526 82.4319C12.8602 84.6715 9.82293 88.5425 8.82444 93.2917L8.75077 93.6414C7.19305 101.03 6.34382 105.057 24.4614 105.057C28.7439 105.057 31.9784 104.734 34.3854 104.125C34.6067 102.687 34.8955 101.236 35.175 99.8319L35.2083 99.6644C35.9121 96.1269 37.2449 92.9667 39.0426 90.2273Z" fill="#4C97FF"/>
<path fill-rule="evenodd" clip-rule="evenodd" d="M97.1271 28.5975L97.4373 33.4696L93.592 36.5021C92.281 37.534 92.721 39.6134 94.3354 40.022L99.0767 41.2173L100.764 45.7967C101.339 47.3557 103.458 47.5748 104.35 46.1676L106.968 42.0329L111.858 41.8327C113.524 41.7635 114.392 39.8194 113.331 38.5415L110.208 34.7909L111.542 30.0879C111.996 28.4847 110.416 27.064 108.866 27.6834L104.316 29.498L100.253 26.7926C98.8684 25.8726 97.0229 26.9382 97.1271 28.5975Z" fill="white"/>
<path fill-rule="evenodd" clip-rule="evenodd" d="M136.101 12.2555L133.655 12.9905L131.662 11.3929C130.983 10.848 129.975 11.3182 129.955 12.1881L129.9 14.7425L127.763 16.1439C127.036 16.621 127.172 17.7255 127.993 18.0124L130.405 18.855L131.077 21.3198C131.306 22.1593 132.398 22.371 132.925 21.6794L134.472 19.6457L137.023 19.7675C137.893 19.809 138.433 18.8362 137.936 18.1212L136.481 16.0206L137.385 13.6326C137.693 12.8188 136.934 12.0059 136.101 12.2555Z" fill="#4C97FF" fill-opacity="0.5"/>
</g>
</svg>
