<?xml version="1.0" encoding="utf-8"?>
<!-- Generator: Adobe Illustrator 24.2.1, SVG Export Plug-In . SVG Version: 6.00 Build 0)  -->
<svg version="1.1" id="Layer_1" xmlns="http://www.w3.org/2000/svg" xmlns:xlink="http://www.w3.org/1999/xlink" x="0px" y="0px"
	 viewBox="0 0 16 16" style="enable-background:new 0 0 16 16;" xml:space="preserve">
<style type="text/css">
	.st0{fill:#FFFFFF;}
</style>
<path class="st0" d="M9.5,12.8c0,0.8-0.6,1.5-1.5,1.5c-0.4,0-0.8-0.2-1.1-0.5c-0.3-0.3-0.5-0.6-0.5-1.1V9.5H3.2
	C2.8,9.5,2.5,9.3,2.2,9S1.7,8.3,1.7,7.9c0-0.8,0.6-1.5,1.5-1.5l3.3,0.1L6.4,3.2C6.5,2.4,7.2,1.7,8,1.6c0.8,0.1,1.5,0.8,1.6,1.6
	L9.5,6.5h3.3c0.8,0,1.5,0.6,1.5,1.5s-0.6,1.5-1.5,1.5l-3.3,0L9.5,12.8z"/>
</svg>
