<svg width="119" height="101" viewBox="0 0 119 101" fill="none" xmlns="http://www.w3.org/2000/svg">
<path d="M30.7745 91.7526C50.5099 98.0145 53.57 98.4372 82.0745 91.0708C89.6509 89.1123 107.48 86.4019 115.459 64.3897C120.661 50.0391 113.329 17.8268 85.1089 13.7824C67.6263 11.2781 56.3024 5.00132 28.5431 13.347C0.783839 21.6905 2.94026 85.8454 30.7745 91.7526Z" fill="#AEDDD2"/>
<path fill-rule="evenodd" clip-rule="evenodd" d="M0 23.7639C0.0085657 23.7405 3.05796 15.2631 17.5704 10.1419C32.085 5.02273 39.8434 9.68943 39.8669 9.70217L67.093 0.101138C68.0117 -0.221728 69.0181 0.254075 69.3458 1.1632L76.4125 20.8793C76.738 21.7884 76.2604 22.7889 75.3418 23.1139L29.8429 39.1595L28.8707 39.5036C28.4296 39.6587 28.0698 39.9815 27.8685 40.4L26.3545 43.5586C26.1532 43.977 25.7935 44.2999 25.3523 44.4549L20.0844 46.3135C19.6433 46.4686 19.1593 46.4452 18.7375 46.2456L15.5532 44.7438C15.1313 44.5442 14.6473 44.5208 14.2062 44.6759L13.234 45.02L9.91052 46.1925C8.99399 46.5153 7.98538 46.0417 7.65988 45.1304L0 23.7639Z" fill="#F9A11B"/>
<path fill-rule="evenodd" clip-rule="evenodd" d="M31.676 23.7594C32.3035 23.205 33.3678 23.1498 34.053 23.6362C34.7361 24.1227 35.8026 24.0674 36.43 23.513L36.6013 26.6928C35.9717 27.2472 34.9074 27.3046 34.2243 26.816C33.5412 26.3296 32.4769 26.3848 31.8473 26.9392L31.676 23.7594Z" fill="#2EAC4D"/>
<path d="M35.3185 27.2897C34.8945 27.2897 34.4727 27.1729 34.1365 26.9329C33.5047 26.4847 32.5218 26.5357 31.9415 27.0476C31.8987 27.0837 31.8387 27.0943 31.7873 27.0731C31.7359 27.0518 31.7017 27.003 31.6974 26.9477L31.5261 23.7679C31.5239 23.7233 31.541 23.6808 31.5753 23.6511C32.2499 23.0542 33.3998 22.9947 34.1343 23.5173C34.766 23.9655 35.7489 23.9145 36.3293 23.4026C36.3721 23.3665 36.4299 23.3558 36.4835 23.3771C36.5349 23.3983 36.5691 23.4472 36.5734 23.5024L36.7447 26.6822C36.7469 26.7268 36.7297 26.7693 36.6955 26.799C36.3293 27.124 35.8218 27.2897 35.3185 27.2897ZM33.1236 26.3424C33.5476 26.3424 33.9694 26.4592 34.3056 26.6992C34.9181 27.1347 35.8624 27.0986 36.4471 26.6291L36.295 23.7934C35.6098 24.2246 34.6226 24.2246 33.9651 23.7552C33.3527 23.3197 32.4083 23.3558 31.8237 23.8253L31.9758 26.661C32.3098 26.4507 32.7188 26.3424 33.1236 26.3424Z" fill="#0A8241"/>
<path d="M31.9179 28.4898C31.8023 28.4898 31.7059 28.4006 31.6995 28.2838L31.4361 23.3813C31.4297 23.2624 31.5218 23.1583 31.6438 23.1519C31.7573 23.1477 31.8687 23.2369 31.8751 23.358L32.1385 28.2604C32.1449 28.3794 32.0528 28.4835 31.9308 28.4898C31.9265 28.4898 31.9222 28.4898 31.9179 28.4898Z" fill="#0A8241"/>
<path fill-rule="evenodd" clip-rule="evenodd" d="M41.1776 22.982L39.8821 24.4094L39.9849 26.3275L41.426 27.6126L43.3598 27.5128L44.6553 26.0854L44.5525 24.1673L43.1114 22.8822L41.1776 22.982Z" fill="#E7555B"/>
<path d="M41.4259 27.757C41.3895 27.757 41.3552 27.7443 41.3274 27.7188L39.8862 26.4337C39.8584 26.4082 39.8391 26.3721 39.8391 26.3339L39.7363 24.4158C39.7363 24.3775 39.747 24.3393 39.7727 24.3117L41.0683 22.8843C41.094 22.8567 41.1304 22.8376 41.1689 22.8354L43.1026 22.7356C43.1412 22.7356 43.1797 22.7462 43.2076 22.7717L44.6488 24.0568C44.6766 24.0823 44.6959 24.1184 44.6959 24.1566L44.7987 26.0747C44.7987 26.113 44.788 26.1512 44.7623 26.1788L43.4667 27.6062C43.441 27.6338 43.4046 27.6529 43.366 27.6551L41.4323 27.7549C41.4323 27.7549 41.4281 27.7549 41.4238 27.7549L41.4259 27.757ZM40.1282 26.2595L41.4794 27.4639L43.2932 27.3704L44.5074 26.0322L44.4111 24.2331L43.0598 23.0287L41.246 23.1243L40.0318 24.4625L40.1282 26.2616V26.2595Z" fill="#961A1D"/>
<path d="M36.0316 29.4648L100.589 26.4953C101.878 26.4358 102.979 27.2982 103.048 28.4197L105.579 70.0717C105.647 71.1932 104.658 72.1512 103.367 72.2107L38.809 75.1802C37.5199 75.2397 36.4192 74.3773 36.3507 73.2557L33.8195 31.6038C33.751 30.4823 34.7403 29.5243 36.0316 29.4648Z" fill="white"/>
<g opacity="0.5">
<path d="M117.507 73.5467C116.312 74.2328 115.065 75.0527 113.271 73.8016C111.474 72.5505 111.234 70.9489 112.076 69.7615C112.915 68.5763 114.018 68.5444 116.312 69.5067C118.607 70.4668 118.704 72.8585 117.507 73.5467Z" fill="#5178BB"/>
</g>
<g opacity="0.5">
<path d="M85.1429 93.7663C86.2414 93.9935 87.4406 94.1677 87.8432 95.8883C88.2458 97.6088 87.5156 98.707 86.3614 98.9725C85.205 99.238 84.524 98.6645 83.661 96.8505C82.798 95.0365 84.0465 93.539 85.1429 93.7663Z" fill="#5178BB"/>
</g>
<g opacity="0.5">
<path d="M87.9653 69.5768C86.9503 70.1609 85.8924 70.8555 84.3677 69.7934C82.843 68.7314 82.6396 67.3698 83.3527 66.363C84.0658 65.3561 85.0016 65.3306 86.9503 66.1463C88.899 66.962 88.9803 68.9926 87.9653 69.5768Z" fill="#5178BB"/>
</g>
<g opacity="0.5">
<path d="M63.521 56.6408C52.4541 48.977 40.0981 54.4339 35.3035 58.1214L36.1301 73.6105C36.1836 74.6173 37.0509 75.3905 38.0659 75.3374L54.1716 74.4835C54.4135 74.4707 54.6512 74.4941 54.8847 74.5578C65.9687 77.5443 87.9633 84.6814 89.9741 90.5525C92.5116 97.9678 115.042 110.292 112.971 89.5265C110.9 68.7611 96.1478 69.3941 100.317 68.3044C102.157 67.8244 112.395 71.2718 107.679 64.653C103.127 58.2658 93.5759 57.4353 89.9741 58.5058C85.7683 61.0781 74.5879 64.3068 63.521 56.643V56.6408Z" fill="#5178BB"/>
</g>
<g opacity="0.25">
<path d="M51.0859 61.1121C42.4367 59.9247 37.5135 67.236 36.1323 71.0382L36.4835 73.6891C36.6099 74.6385 37.4536 75.3289 38.4172 75.2737L54.3066 74.3475C78.5989 80.1889 88.2011 86.8225 89.9635 89.4076C89.9249 91.5763 92.242 96.7549 101.812 100.132C111.382 103.51 113.391 95.8352 113.2 91.5742C111.896 92.1838 107.656 92.3728 101.122 88.2648C92.955 83.1308 103.309 76.8561 99.0517 71.036C94.7967 65.2159 85.8241 70.0101 75.8172 71.036C65.8103 72.062 61.9001 62.5926 51.0859 61.11V61.1121Z" fill="#5178BB"/>
</g>
<g opacity="0.5">
<path d="M75.7872 97.8255C70.5835 97.2286 72.1938 92.6299 67.2493 87.7295C62.3069 82.8313 54.4864 80.5691 56.1032 78.9633C57.7199 77.3595 67.5748 78.6892 72.5193 83.5875C80.0357 91.6209 80.9908 98.4202 75.7872 97.8233V97.8255Z" fill="#5178BB"/>
</g>
<path d="M68.3971 60.3942C68.1166 60.3942 67.8704 60.1945 67.8211 59.912C67.7676 59.5955 67.9817 59.296 68.2986 59.2429C69.1317 59.1027 69.9882 58.0045 70.4765 57.1294L63.3627 52.3331C63.095 52.1526 63.0265 51.7936 63.2085 51.5281C63.3905 51.2626 63.7524 51.1946 64.0201 51.3752L71.5579 56.4582C71.7935 56.6175 71.8791 56.9191 71.7613 57.1761C71.2731 58.2467 70.0353 60.1287 68.4935 60.3878C68.4614 60.3942 68.4271 60.3963 68.395 60.3963L68.3971 60.3942Z" fill="#565E77"/>
<path d="M76.6503 55.0393C75.8258 55.0393 75.0271 54.5061 74.1834 53.9432C73.6437 53.5842 73.087 53.2125 72.5088 52.9661C71.4852 52.5286 70.2431 51.9635 69.4701 51.6046L67.4893 54.2279C67.2965 54.4849 66.9304 54.5359 66.6712 54.3447C66.4121 54.1535 66.3607 53.7903 66.5535 53.5333L68.8212 50.5319L71.0869 47.5305C71.1897 47.3946 71.346 47.3096 71.5173 47.299C71.6886 47.2883 71.8556 47.3521 71.9734 47.4731C72.4424 47.9532 74.0849 49.6461 75.4854 51.2753C77.539 53.665 77.584 54.1684 77.4319 54.5762C77.3355 54.8354 77.1043 55.0053 76.8152 55.0308C76.7595 55.035 76.706 55.0371 76.6503 55.0371V55.0393ZM70.1875 50.6572C70.9562 51.0119 72.0527 51.509 72.9713 51.9019C73.6502 52.1908 74.2797 52.6114 74.8365 52.9831C75.207 53.2295 75.5667 53.4695 75.8944 53.6395C75.1556 52.6156 73.5324 50.7634 71.6115 48.771L70.1875 50.6572Z" fill="#565E77"/>
<path d="M62.0927 56.5028C61.885 56.5028 61.6815 56.3923 61.5766 56.1969C60.4952 54.1939 61.9385 52.0379 62.8529 51.1776C63.0863 50.9567 63.4568 50.9673 63.6795 51.1989C63.9022 51.4304 63.8915 51.7979 63.6581 52.0188C62.9664 52.6688 61.8593 54.264 62.6066 55.6489C62.7587 55.9314 62.6516 56.2819 62.3668 56.4327C62.279 56.4794 62.1848 56.5007 62.0905 56.5007L62.0927 56.5028Z" fill="#565E77"/>
<path d="M45.9014 51.7192C45.6594 51.7192 45.4195 51.6215 45.2461 51.4261C43.6315 49.6206 42.0061 47.5666 40.9011 45.931C38.6484 42.5983 38.7233 41.3641 39.0424 40.6632C39.2073 40.3 39.6527 39.6882 40.7876 39.6882C42.5757 39.6882 44.1947 41.0137 45.6016 43.6263C46.9421 46.1158 47.6081 48.8644 47.7815 49.6482C47.8843 50.1177 47.5845 50.5807 47.1134 50.6827C46.9956 50.7082 46.8779 50.7082 46.7644 50.689C46.8179 50.9801 46.7237 51.2902 46.4838 51.4983C46.3168 51.6449 46.1091 51.7171 45.9014 51.7171V51.7192ZM40.6313 41.4406C40.5649 42.1437 42.0083 45.0622 45.972 49.61C45.6123 48.1295 44.9484 46.1094 44.0533 44.4463C43.3124 43.0698 42.1432 41.4279 40.7876 41.4279C40.717 41.4279 40.6656 41.4321 40.6313 41.4385V41.4406Z" fill="#0275BB"/>
<path d="M50.2851 50.124C49.9039 50.124 49.5634 49.8776 49.4478 49.5144C48.6362 46.9442 47.9167 44.1213 47.5205 41.9653C46.7175 37.5853 47.2914 36.4234 47.8824 35.8988C48.1693 35.6439 48.7946 35.2828 49.7626 35.7055C53.9683 37.5407 51.4393 48.2484 51.1374 49.4634C51.0431 49.8415 50.7069 50.1113 50.3129 50.124C50.3043 50.124 50.2958 50.124 50.2851 50.124ZM49.0109 37.2773C48.8974 37.5598 48.6683 38.59 49.2765 41.8166C49.4863 42.9296 49.784 44.2232 50.133 45.5593C50.8247 40.916 50.2422 37.8126 49.0559 37.2943C49.0388 37.288 49.0259 37.2816 49.0109 37.2773Z" fill="#0275BB"/>
<path d="M53.7925 48.8198C53.7582 48.8198 53.7261 48.8198 53.6918 48.8134C53.21 48.7582 52.8653 48.327 52.9209 47.8512C53.0087 47.1014 53.3728 44.4675 54.4157 42.08C55.8012 38.9065 57.5421 38.2417 58.7606 38.2417C59.2446 38.2417 59.6364 38.6304 59.6364 39.1105C59.6364 39.5905 59.2446 39.9792 58.7606 39.9792C56.5785 39.9792 55.0517 44.699 54.6641 48.0488C54.6127 48.4927 54.2336 48.8198 53.7946 48.8198H53.7925Z" fill="#0275BB"/>
<path d="M56.2995 48.4222C57.2861 47.7035 57.8113 46.75 57.4725 46.2923C57.1337 45.8347 56.0592 46.0462 55.0726 46.7649C54.086 47.4835 53.5608 48.4371 53.8996 48.8947C54.2384 49.3524 55.3129 49.1408 56.2995 48.4222Z" fill="#4172B7"/>
<path fill-rule="evenodd" clip-rule="evenodd" d="M55.8592 47.5708C55.3089 46.8295 55.371 45.7738 56.1205 45.2279L56.718 44.7925C56.7115 43.8685 57.1377 42.9551 57.945 42.3667L63.5769 38.2629C64.9153 37.2879 66.7976 37.5747 67.7806 38.9023C68.7635 40.2298 68.4765 42.097 67.136 43.0719L61.504 47.1757C60.6967 47.7641 59.6903 47.8937 58.8037 47.6112L58.2298 48.0296C57.4696 48.584 56.4203 48.3228 55.8614 47.5687L55.8592 47.5708Z" fill="#4172B7"/>
<path d="M64.335 36.7888C63.941 37.0755 63.8853 37.6406 64.213 38.0038C64.7183 38.5645 65.425 39.3717 65.909 40.0174C66.4422 40.729 67.0696 41.7359 67.4872 42.4304C67.7377 42.8468 68.2967 42.9636 68.6928 42.6768L91.0943 26.3572C92.7325 25.1635 93.0858 22.8779 91.8823 21.2529C90.6788 19.628 88.3747 19.2775 86.7365 20.4713L64.3372 36.7888H64.335Z" fill="white"/>
<path d="M86.6058 20.1038C86.2097 20.3927 86.1561 20.9598 86.4859 21.3209C87.062 21.9539 87.9143 22.9161 88.4839 23.6872C89.0535 24.4561 89.7259 25.55 90.1606 26.2871C90.409 26.7077 90.9722 26.8266 91.3684 26.5378L103.489 17.7078C105.425 16.2974 106.47 13.9821 106.243 11.6115C106.196 11.1166 105.877 10.6854 105.414 10.4921C103.202 9.56814 100.66 9.86339 98.7263 11.2738L86.6058 20.1038Z" fill="#4172B7"/>
<path fill-rule="evenodd" clip-rule="evenodd" d="M98.602 11.3651L97.9381 10.4666L97.7176 10.1671C97.7176 10.1671 94.3341 11.8346 92.4582 13.3087C90.5524 14.8062 88.0854 17.7609 88.0854 17.7609L88.5287 18.3599C88.5287 18.3599 91.0834 15.4498 93.0107 13.9438C94.3298 12.9115 96.3728 11.7432 97.4456 11.1527L97.9531 11.8388L98.6041 11.3651H98.602Z" fill="#4172B7"/>
<g opacity="0.5">
<path d="M74.3933 34.482C74.3162 34.482 74.2369 34.4713 74.1598 34.448C73.7273 34.3205 73.481 33.8681 73.6095 33.439C73.8579 32.6085 74.4511 31.5719 75.3697 31.1513C75.9479 30.8858 76.5797 30.8901 77.2007 31.162C77.5005 31.2937 77.6739 31.3383 77.7639 31.3553C77.8217 31.2406 77.8966 31.0345 77.9523 30.8752C78.0422 30.6246 78.145 30.3399 78.2928 30.0213C78.357 29.8832 78.4191 29.7388 78.4812 29.5922C78.8967 28.6321 79.3656 27.5467 80.4342 27.3577C81.173 27.2281 81.9418 27.5956 82.7855 28.4834C82.7855 28.4834 82.7898 28.4877 82.7919 28.4898C82.9825 27.9503 83.1538 26.6588 83.0767 24.9489C83.0575 24.5007 83.4065 24.1226 83.8584 24.1035C84.3145 24.0801 84.6914 24.4306 84.7106 24.8788C84.8049 27.0008 84.6528 29.6432 83.3894 30.1721C82.9825 30.3421 82.3379 30.3824 81.5927 29.5986C80.9824 28.955 80.719 28.955 80.7169 28.9571C80.5049 29.0251 80.1516 29.8408 79.9824 30.2337C79.9139 30.3909 79.8453 30.5481 79.7768 30.6989C79.659 30.9559 79.5712 31.196 79.4877 31.4275C79.2779 32.0074 79.0616 32.6064 78.4341 32.874C77.8131 33.1374 77.1257 32.9101 76.5347 32.651C76.2948 32.5469 76.1557 32.5809 76.0507 32.6297C75.6738 32.8018 75.3226 33.4029 75.1727 33.9085C75.0678 34.2611 74.7423 34.4883 74.389 34.4883L74.3933 34.482Z" fill="#628EC9"/>
</g>
<path d="M43.2203 68.914L41.2245 68.6166C40.777 68.5487 40.4151 68.2216 40.3037 67.7861C40.0253 66.6752 39.5778 65.6195 38.9718 64.653C38.7341 64.2707 38.7512 63.7843 39.0146 63.4189L40.1902 61.7961L38.0809 59.7336L36.462 60.9209C36.098 61.1865 35.6076 61.212 35.2178 60.9804C34.2349 60.3942 33.1664 59.963 32.0421 59.7017C31.601 59.5997 31.2669 59.2429 31.192 58.7989L30.8665 56.8256L27.9049 56.8448L27.6051 58.8223C27.5365 59.2663 27.2068 59.6274 26.7678 59.7357C25.6478 60.0139 24.5835 60.4579 23.6092 61.0569C23.2237 61.2927 22.7333 61.2757 22.365 61.0144L20.729 59.8483L18.6496 61.9384L19.8467 63.5464C20.1165 63.9075 20.1401 64.3939 19.9066 64.7805C19.3156 65.7555 18.8809 66.8154 18.6175 67.9306C18.5126 68.3681 18.155 68.6995 17.7074 68.7738L15.718 69.0967L15.7373 72.0344L17.731 72.3317C18.1785 72.3976 18.5426 72.7247 18.6518 73.1623C18.9302 74.2753 19.3799 75.3289 19.9837 76.2953C20.2214 76.6777 20.2043 77.1641 19.9409 77.5295L18.7653 79.1523L20.8724 81.2148L22.4913 80.0274C22.8554 79.7619 23.3458 79.7364 23.7355 79.968C24.7184 80.5542 25.787 80.9854 26.9112 81.2467C27.3524 81.3486 27.6864 81.7055 27.7614 82.1473L28.0869 84.1206L31.0485 84.1015L31.3461 82.1239C31.4147 81.68 31.7444 81.3189 32.1834 81.2106C33.3055 80.9323 34.3677 80.4884 35.342 79.8894C35.7275 79.6515 36.2179 79.6685 36.5862 79.9318L38.2223 81.098L40.3037 79.0078L39.1067 77.3999C38.839 77.0388 38.8154 76.5524 39.0467 76.1679C39.6377 75.1929 40.0724 74.133 40.3358 73.0178C40.4408 72.5803 40.8005 72.2489 41.246 72.1767L43.2375 71.8538L43.2182 68.9161L43.2203 68.914ZM29.5259 77.162C25.8084 77.1875 22.7633 74.2073 22.7376 70.5177C22.7119 66.8303 25.7163 63.8098 29.436 63.7843C33.1535 63.7588 36.2008 66.7389 36.2243 70.4285C36.25 74.116 33.2434 77.1365 29.5259 77.162Z" fill="#4172B8"/>
<g opacity="0.1">
<path d="M61.5123 47.1694L67.1443 43.0656C67.3327 42.9275 67.4998 42.7703 67.6454 42.6025C67.9302 42.8659 68.3713 42.9105 68.7011 42.6705L90.6807 26.6589C90.912 26.7183 91.1689 26.6844 91.3788 26.5314L103.499 17.7014C105.343 16.3569 106.377 14.1924 106.275 11.9387L105.718 11.1868C105.621 12.1171 105.114 14.1839 103.846 15.0144C102.262 16.051 60.6472 46.3665 58.9191 46.9209C57.191 47.4753 56.283 47.5496 56.1716 47.3988L56.7841 48.2251C57.2659 48.3865 57.8013 48.3419 58.2402 48.0233L58.8141 47.6048C59.7007 47.8873 60.7072 47.7578 61.5145 47.1694H61.5123Z" fill="black"/>
</g>
</svg>
