<svg width="133" height="101" viewBox="0 0 133 101" fill="none" xmlns="http://www.w3.org/2000/svg">
<path d="M81.5883 99C73.5813 98.6613 70.7914 99.611 47.3318 94.8072C39.6741 93.2376 33.4467 91.2785 28.3489 88.9983C12.2309 81.7838 7.39839 71.3837 4.38967 60.1512C0.419318 45.3723 4.63727 9.57619 43.4676 15.9938C61.0358 18.8982 84.9529 8.74825 113.07 18.668C141.188 28.5877 127.522 97.3065 81.5883 99Z" fill="#FDDDCC"/>
<path d="M103.83 97.9109C103.83 97.9109 78.5883 99.9829 62.3112 90.3886C46.0341 80.7943 19.7471 82.6781 19.7471 82.6781L13.345 81.04L31.9941 14.8847C31.9941 14.8847 56.1213 15.2212 73.1855 22.3472C90.2474 29.4732 116.077 30.1174 116.077 30.1174L103.83 97.9109Z" fill="#8CD0BE"/>
<path d="M102.959 97.1383C102.959 97.1383 77.5936 99.1904 61.2281 89.5784C44.8625 79.9663 18.4473 81.8281 18.4473 81.8281L30.701 14.0059C30.701 14.0059 54.9498 14.3623 72.1023 21.506C89.2549 28.6497 115.212 29.3161 115.212 29.3161L102.961 97.1361L102.959 97.1383Z" fill="#F1F9F7"/>
<path d="M40.9142 18.6371C42.241 15.4689 39.3688 11.2428 34.4992 9.19795C29.6295 7.1531 24.6064 8.0638 23.2797 11.2321C21.953 14.4003 24.8251 18.6264 29.6947 20.6712C34.5644 22.7161 39.5875 21.8054 40.9142 18.6371Z" fill="#8BCFBD"/>
<path d="M41.2434 17.4881L23.0363 78.3879L5.40405 70.9852L23.4961 11.4468L41.2434 17.4881Z" fill="#8BCFBD"/>
<path d="M23.0368 78.3947C24.3635 75.2264 21.4914 71.0004 16.6218 68.9555C11.7521 66.9107 6.72895 67.8214 5.40224 70.9897C4.07552 74.1579 6.94763 78.384 11.8173 80.4288C16.6869 82.4737 21.7101 81.563 23.0368 78.3947Z" fill="#AEDCD1"/>
<path fill-rule="evenodd" clip-rule="evenodd" d="M15.7678 80.5818C13.4002 80.5087 10.7363 79.2712 9.08716 77.5157C7.26336 75.6739 6.95165 73.8741 6.8787 73.1325C6.85881 72.7296 6.83891 72.329 6.93618 71.9061L6.91628 71.5032C6.95165 71.2088 7.34073 71.0848 7.72318 71.1955C8.10562 71.3062 8.36427 71.6693 8.32669 71.9637L8.25816 72.3223C8.22279 72.6167 8.24268 73.0196 8.29353 73.3583C8.31342 73.7612 8.51459 75.3485 10.135 76.9335C11.2912 78.1312 13.4245 79.3421 15.5534 79.455C17.6513 79.6298 19.4508 78.6381 19.9592 77.1638C20.4367 75.7536 19.884 73.9915 18.4338 72.7252C17.1583 71.5453 15.4229 71.0804 14.3264 71.087C12.9934 71.1335 12.2993 71.6538 12.0561 71.9261C12.0251 71.988 11.121 72.7186 11.3 73.9029C11.3774 74.4121 11.6869 75.1138 12.3523 75.7558C13.0752 76.5041 14.2468 77.0066 15.1377 76.9756C16.1149 76.9889 16.8952 76.5107 17.0301 75.7957C17.1649 75.0806 16.7361 74.3966 16.2718 74.0114C15.7192 73.5819 15.1002 73.5111 14.8614 73.5487C14.3861 73.6262 14.2933 73.8166 14.2933 73.8166L14.2004 74.0047C14.227 74.1752 14.2513 74.3435 14.3087 74.4497L14.5718 74.5803C14.9543 74.691 15.2439 74.9899 15.3257 75.2666C15.2903 75.561 14.9896 75.727 14.6647 75.7226C14.0766 75.5876 13.5792 75.2644 13.3471 75.0718C12.7679 74.4718 12.8165 73.7125 12.8475 73.6483L12.9094 73.5222L13.0641 73.2078C13.2498 72.8293 13.7008 72.5813 14.2955 72.4839C15.0095 72.3666 16.1303 72.5282 17.0588 73.3008C18.1067 74.0535 18.6704 75.3507 18.4095 76.3203C18.2061 77.3962 16.9461 78.1821 15.4362 78.1422C14.1032 78.1887 12.3722 77.4914 11.3597 76.4421C10.0842 75.2622 9.9051 74.0778 9.85205 73.7391C9.56466 72.1076 10.8314 71.087 10.8623 71.0251C11.1364 70.6908 12.0406 69.9625 13.9064 69.9425C15.2394 69.8961 17.5076 70.3897 19.3048 72.0611C21.1331 73.6705 21.9687 75.9639 21.3055 77.7526L21.1198 78.1312C20.3129 79.7693 18.1885 80.7566 15.7634 80.5795L15.7678 80.5818Z" fill="#078E69"/>
<path fill-rule="evenodd" clip-rule="evenodd" d="M55.6969 56.9811L56.3358 57.1095L82.3023 62.3494C83.0671 62.5044 83.5601 63.2482 83.4054 64.0141L80.5249 78.182C80.3679 78.948 79.6229 79.4439 78.858 79.2889L52.8916 74.049L52.2549 73.9206C51.7553 73.8188 51.2358 73.9206 50.8113 74.204L48.7267 75.5898C48.3022 75.8709 47.7827 75.9727 47.2831 75.8731L43.1713 75.043C42.6717 74.9433 42.234 74.6467 41.9532 74.2217L40.5737 72.1385C40.293 71.7135 39.8531 71.4191 39.3557 71.3173L38.7168 71.1889L35.8473 70.6089C35.0825 70.4539 34.5895 69.7079 34.7442 68.9441L37.6247 54.7762C37.7795 54.0103 38.5267 53.5144 39.2916 53.6694L42.1588 54.2471L42.7977 54.3755C43.2973 54.4774 43.735 54.7718 44.0158 55.1968L45.3952 57.2822C45.676 57.7072 46.1159 58.0016 46.6133 58.1035L50.7251 58.9336C51.2247 59.0355 51.7442 58.9336 52.1687 58.6503L54.2533 57.2645C54.6778 56.9811 55.1973 56.8793 55.6969 56.9811Z" fill="#F37621"/>
<path fill-rule="evenodd" clip-rule="evenodd" d="M43.4875 34.8969C43.5007 34.8858 48.1056 30.9188 58.2547 32.7297C68.4039 34.5405 71.3595 39.8534 71.3662 39.8689L90.4066 43.2648C91.0477 43.3799 91.4766 43.9931 91.3616 44.6351L88.8857 58.5551C88.7707 59.1971 88.1584 59.6265 87.5173 59.5114L55.6992 53.8376L55.0183 53.7159C54.711 53.6605 54.3927 53.7314 54.1362 53.9107L52.1997 55.2633C51.9433 55.4426 51.6249 55.5134 51.3176 55.4581L47.6325 54.8006C47.3252 54.7452 47.0511 54.5704 46.872 54.3136L45.5213 52.3765C45.3422 52.1198 45.0681 51.9449 44.7608 51.8895L44.0799 51.7678L41.7565 51.3538C41.1154 51.2387 40.6888 50.6255 40.8015 49.9835L43.483 34.9013L43.4875 34.8969Z" fill="#F9A11B"/>
<path fill-rule="evenodd" clip-rule="evenodd" d="M52.1905 4.01086C54.253 3.08774 56.6715 2.78667 59.1629 3.14972C62.2114 3.59247 63.0869 4.75689 65.4987 6.89536C67.4706 8.61322 67.7624 9.512 70.2141 9.86841C72.6679 10.2248 73.4394 9.60054 75.3163 8.44276C75.6633 8.21032 76.174 8.22582 76.6228 8.46933C77.0715 8.71284 77.3567 9.12681 77.37 9.5607L77.8806 25.0015C77.8917 25.3158 77.748 25.5926 77.4827 25.763C75.1748 27.1997 73.8285 27.9347 70.7977 27.4942C67.7469 27.0492 66.8892 25.8737 64.4619 23.7485C62.4878 22.0174 62.1982 21.1164 59.7443 20.76C57.4784 20.4301 54.5758 21.3223 52.794 22.314L52.1794 3.74743" fill="#54B857"/>
<path fill-rule="evenodd" clip-rule="evenodd" d="M55.628 3.08774L56.2205 21.0146C54.9383 21.3178 53.7158 21.8049 52.7918 22.3162L52.186 4.01087C53.2494 3.53491 54.4122 3.22499 55.6258 3.08774H55.628Z" fill="#221F1F" fill-opacity="0.15"/>
<path d="M54.7329 39.1872L52.1531 3.86707" stroke="#CA9468" stroke-width="6.19" stroke-linecap="round" stroke-linejoin="round"/>
<mask id="mask0_2346_575" style="mask-type:luminance" maskUnits="userSpaceOnUse" x="8" y="10" width="121" height="86">
<path d="M98.5571 95.6351C93.183 94.9555 89.6658 94.7231 86.8119 94.6478C78.869 94.4441 76.1189 95.427 52.7809 91.0549C45.1607 89.6271 38.9554 87.7897 33.862 85.6158C17.7573 78.7377 12.79 68.5257 9.61546 57.4615C5.43067 42.9018 9.00089 7.41338 47.6057 13.1337C65.0722 15.7215 88.6091 5.29262 116.654 14.6501C144.698 24.0075 118.924 98.2075 98.5594 95.6351H98.5571Z" fill="white"/>
</mask>
<g mask="url(#mask0_2346_575)">
<path d="M90.0217 31.0915L91.2663 45.3214L96.0767 44.9096L95.2433 35.4968C95.0377 32.8381 92.6922 30.859 90.0217 31.0893V31.0915Z" fill="#939598"/>
<path d="M91.8366 55.4891L91.9516 56.8262C91.7062 56.9966 91.4851 57.1826 91.2862 57.384C89.2789 59.3786 88.9716 62.4623 90.6959 64.7292C93.0083 67.7155 97.2373 67.6845 99.5032 64.9948C101.508 62.5996 101.183 59.0665 98.8157 57.0719C98.4531 56.7664 98.0597 56.5074 97.644 56.3325L97.5291 54.9954C97.4871 54.504 97.0339 54.1365 96.5409 54.1785L92.6745 54.515C92.1594 54.5416 91.7946 54.9954 91.8344 55.4891H91.8366ZM93.2492 59.7394C94.1645 58.6503 95.7915 58.4953 96.8792 59.4118C97.9668 60.3283 98.1215 61.9576 97.2063 63.0468C96.2911 64.1359 94.642 64.2754 93.5543 63.3589C92.4667 62.4424 92.3274 60.791 93.2515 59.7394H93.2492Z" fill="#E96024"/>
<path d="M75.9046 48.166L75.92 48.3431C76.1499 50.9177 78.4026 52.8348 80.9714 52.6046L97.2242 51.1767C97.6774 51.1435 97.9979 50.7583 97.9493 50.3266L97.6619 47.0835C97.6288 46.6297 97.2441 46.3087 96.813 46.3574L75.9023 48.1638L75.9046 48.166ZM93.4948 48.5844C93.7689 48.2679 94.2376 48.2103 94.5537 48.487C94.8698 48.7615 94.9273 49.2308 94.651 49.5474C94.3769 49.864 93.9082 49.9215 93.5921 49.6448C93.276 49.3703 93.2185 48.901 93.4948 48.5844Z" fill="#939598"/>
<path d="M99.249 46.6385L99.585 50.5104C99.627 51.0018 100.08 51.3693 100.573 51.3272L101.908 51.2121C102.165 51.5796 102.496 51.9316 102.859 52.2371C105.251 54.2449 108.779 53.9195 110.771 51.5486C113.021 48.8833 112.314 44.6683 108.98 42.9328C106.471 41.6089 103.48 42.4258 101.866 44.779C101.714 45.0114 101.546 45.266 101.44 45.5272L100.105 45.6424C99.6138 45.6844 99.2623 46.1161 99.2512 46.6385H99.249ZM104.499 46.3176C105.415 45.2284 107.042 45.0734 108.129 45.9899C109.217 46.9064 109.372 48.5357 108.456 49.6249C107.541 50.714 105.892 50.8535 104.804 49.937C103.717 49.0205 103.578 47.3691 104.502 46.3176H104.499Z" fill="#E96024"/>
<path d="M115.044 54.0701C110.897 50.9022 109.814 49.2242 108.987 47.1543C107.601 43.7186 103.051 45.6955 104.037 48.735C104.984 51.6814 103.891 52.7861 102.07 52.682C98.0465 52.4496 96.0326 51.9847 93.0659 52.7175C89.3785 53.6362 90.9392 57.0564 92.5751 56.9413C97.003 56.6092 98.2786 56.7863 99.028 57.612C99.6138 58.2319 99.3287 59.2701 96.2868 58.958C93.046 58.6458 92.4093 62.9383 95.5838 63.8061C97.5756 64.3573 98.8136 63.381 99.3154 65.2384C99.3154 65.2384 98.1636 66.6352 96.0856 66.9252C96.0856 66.9252 95.8579 67.5716 96.6339 68.7139C97.129 69.4732 98.1592 69.6193 98.7185 69.6238C98.9175 69.6238 99.0568 69.8141 99.0346 69.9979C98.7893 71.6294 100.633 73.0108 101.951 72.7186C105.417 71.9836 108.439 72.7828 110.327 72.7341C117.856 72.5237 122.777 60.0051 115.044 54.0745V54.0701Z" fill="#D59D7A"/>
<path d="M115.831 56.3502C119.753 59.1041 143.073 54.5394 143.073 54.5394C143.073 54.5394 148.868 57.1671 148.786 62.987C148.704 69.1058 143.982 70.4406 143.982 70.4406L113.473 70.0621L115.831 56.3502Z" fill="#D59D7A"/>
<path d="M106.551 42.2931C106.551 42.2931 104.654 42.1027 102.872 43.6502C102.872 43.6502 103.069 41.7883 104.511 41.5115C105.607 41.3056 106.549 42.2931 106.549 42.2931H106.551Z" fill="#D59D7A"/>
<g opacity="0.1">
<path d="M143.075 54.5394C143.075 54.5394 149.095 57.3818 148.788 62.987C148.481 68.5921 143.984 70.4406 143.984 70.4406L115.778 70.0886C115.778 70.0886 113.789 72.4595 110.917 72.6898C108.054 72.9598 107.577 72.4773 105.565 72.4108C103.553 72.3444 102.463 72.5902 101.889 72.7075C101.314 72.827 100.206 72.5946 99.5099 71.7356C98.8135 70.8767 98.9351 70.2945 98.9484 69.9713C98.9616 69.6481 98.7936 69.6038 98.6323 69.5972C98.4709 69.5905 97.4031 69.5507 96.8328 69.0083C96.2624 68.466 95.8888 67.5229 95.9994 66.8986C95.9994 66.8986 97.9249 66.7415 99.2291 65.2118C99.2291 65.2118 100.18 70.6177 107.616 70.0466C113.026 69.6326 112.25 66.7304 116.121 66.8942C119.992 67.058 138.716 68.6231 141.884 65.5682C145.114 62.5221 143.075 54.5371 143.075 54.5371V54.5394Z" fill="black"/>
</g>
<g opacity="0.1">
<path d="M98.989 64.5215C98.3368 63.295 96.7737 62.2965 95.1752 62.1061C93.5767 61.9157 93.5237 60.6847 93.5237 60.6847C93.5237 60.6847 92.9732 62.5799 94.837 63.4765C96.8467 64.5038 98.3457 63.5341 98.989 64.5215Z" fill="black"/>
</g>
<g opacity="0.1">
<path d="M99.2302 58.1105C99.2302 58.1105 99.3628 57.3024 98.4542 56.6692C97.2669 55.8522 95.5933 55.6773 93.9904 56.0471C90.7934 56.7268 90.8332 54.4951 90.8332 54.4951C90.6276 54.9578 90.8089 56.9017 92.5511 56.9238C94.616 56.9592 98.5117 56.1755 99.2302 58.1105Z" fill="black"/>
</g>
</g>
</svg>
