<svg width="123" height="101" viewBox="0 0 123 101" fill="none" xmlns="http://www.w3.org/2000/svg">
<path d="M0 50.957C0 78.3772 19.4459 104.531 61.2442 100.608C103.043 96.6843 122.488 78.3795 122.488 50.957C122.488 23.5344 96.3183 9.30529 61.2442 1.30618C26.1701 -6.69063 0 23.5367 0 50.957Z" fill="#EECDE2"/>
<path opacity="0.6" d="M75.862 65.4884C75.9981 66.7709 76.0166 69.5134 74.2634 72.076C73.9497 72.528 73.2831 72.3943 73.1239 71.9053C72.7202 70.4821 71.9105 68.1917 70.4273 66.8424C70.0905 66.5771 69.6638 66.4641 69.2578 66.5495C65.9314 67.396 49.4382 70.8904 44.8247 58.4811C39.6853 44.6788 49.4866 36.4005 61.7493 34.6383C74.1712 32.8485 78.8054 39.5351 81.818 47.6035C85.3243 56.9427 78.584 62.7229 76.4318 64.3006C76.0119 64.5843 75.8182 65.0064 75.8597 65.4861L75.862 65.4884Z" fill="white"/>
<path opacity="0.6" d="M40.3218 39.1707C39.7105 38.0336 38.6564 35.5033 39.3115 32.4679C39.4314 31.9304 40.0981 31.8013 40.4302 32.1957C41.3414 33.3605 42.9584 35.1734 44.8407 35.8631C45.2537 35.9807 45.6919 35.9254 46.0333 35.6924C48.7922 33.6511 62.7411 24.1827 71.7028 33.9256C81.6772 44.7595 75.735 56.1285 65.0502 62.3977C54.2269 68.7522 47.4082 64.3121 41.5698 57.9806C34.7925 50.6596 38.8455 42.7597 40.2434 40.4877C40.5248 40.0656 40.5433 39.602 40.3241 39.173L40.3218 39.1707Z" fill="white"/>
<path opacity="0.6" d="M49.4888 69.5941C48.4023 70.2169 45.9687 71.294 42.9907 70.6413C42.4624 70.5213 42.3171 69.8478 42.6885 69.5088C43.7934 68.5815 45.5097 66.937 46.121 65.0294C46.2224 64.612 46.1532 64.1668 45.9157 63.8208C43.8373 61.0322 34.1651 46.9323 43.3713 37.8168C53.6064 27.6726 64.8748 33.6557 71.3245 44.4619C77.8618 55.4065 73.7558 62.3308 67.7744 68.2678C60.8588 75.1598 53.032 71.0795 50.7714 69.6702C50.3515 69.3865 49.8994 69.3681 49.4888 69.5941Z" fill="white"/>
<path opacity="0.6" d="M75.2504 35.4802C76.4661 35.1734 79.0981 34.7906 81.7924 36.2229C82.2676 36.4813 82.2283 37.1686 81.7785 37.3947C80.4637 37.9897 78.3692 39.1107 77.2665 40.7853C77.0566 41.1589 77.0036 41.6064 77.1397 42.0031C78.3899 45.2485 83.9054 61.4335 72.5838 67.7304C59.9936 74.7423 50.7551 65.9428 47.4541 53.8011C44.107 41.498 49.9269 35.9392 57.2878 31.8313C65.8043 27.0567 72.2424 33.0952 74.0394 35.0604C74.367 35.4479 74.7983 35.5863 75.255 35.4802H75.2504Z" fill="white"/>
<path fill-rule="evenodd" clip-rule="evenodd" d="M66.0812 48.5676C65.0132 53.0285 59.3686 55.8286 58.0699 55.6372C56.7712 55.4457 52.1738 51.1348 52.4414 46.554C52.4506 46.404 52.4622 46.2564 52.4829 46.1088C52.8059 43.9176 54.8612 42.3976 57.0618 42.7228C58.1783 42.8866 59.1263 43.4909 59.7353 44.3466C60.5635 43.7031 61.6476 43.3986 62.7641 43.5624C64.9647 43.8876 66.4918 45.9335 66.1689 48.127C66.1481 48.2747 66.1135 48.42 66.0812 48.5653V48.5676Z" fill="#F06580"/>
<g opacity="0.5">
<path fill-rule="evenodd" clip-rule="evenodd" d="M19.0815 40.3978C19.0562 40.6953 18.8739 40.956 18.6017 41.0851L17.9858 41.3758C17.6952 41.5119 17.7713 41.9455 18.0919 41.9732L18.7701 42.0331C19.0677 42.0585 19.3307 42.243 19.4575 42.5129L19.7482 43.1288C19.8843 43.4217 20.318 43.3433 20.3479 43.0227L20.4079 42.3445C20.4333 42.047 20.6178 41.784 20.89 41.6572L21.5059 41.3689C21.7966 41.2328 21.7205 40.7968 21.3998 40.7692L20.7216 40.7092C20.4218 40.6815 20.1611 40.5016 20.0342 40.2294L19.7459 39.6136C19.6098 39.3229 19.1738 39.3991 19.1461 39.7197L19.0862 40.3978H19.0815ZM12.6249 46.2795C13.3723 45.9312 13.8752 45.2093 13.9467 44.3881L14.1105 42.5221C14.1889 41.6387 15.3838 41.4265 15.7598 42.2292L16.5556 43.9245C16.904 44.6718 17.626 45.1747 18.4449 45.2462L20.311 45.4099C21.1945 45.4884 21.4044 46.6831 20.604 47.0591L18.9085 47.8549C18.1635 48.2032 17.6606 48.9251 17.5891 49.7439L17.4253 51.6099C17.3492 52.4933 16.1543 52.7032 15.776 51.9029L14.9801 50.2076C14.6318 49.4625 13.9098 48.9597 13.0886 48.8882L11.2224 48.7244C10.339 48.646 10.129 47.4512 10.9295 47.0753L12.6249 46.2795ZM10.6434 52.4772C10.9156 52.348 11.0979 52.0874 11.1233 51.7898L11.1832 51.1117C11.2109 50.7911 11.6446 50.715 11.783 51.0056L12.0713 51.6215C12.1982 51.8936 12.4612 52.0759 12.7587 52.1012L13.4392 52.1612C13.7599 52.1889 13.836 52.6225 13.5453 52.7609L12.9271 53.0492C12.6549 53.1761 12.4727 53.439 12.4473 53.7366L12.3897 54.4147C12.3597 54.7376 11.926 54.8137 11.7899 54.5208L11.5016 53.905C11.3747 53.6328 11.1117 53.4506 10.8141 53.4252L10.136 53.3675C9.81533 53.3375 9.7392 52.9039 10.0299 52.7678L10.6458 52.4795L10.6434 52.4772Z" fill="white"/>
</g>
<path fill-rule="evenodd" clip-rule="evenodd" d="M102.293 61.2398C102.999 61.1937 103.624 60.7739 103.935 60.1396L104.646 58.7003C104.983 58.0198 106.002 58.2228 106.053 58.9794L106.161 60.5824C106.207 61.2859 106.627 61.9133 107.259 62.2247L108.699 62.9351C109.379 63.2719 109.176 64.2913 108.42 64.3444L106.816 64.4528C106.113 64.4989 105.488 64.9187 105.174 65.5507L104.461 66.99C104.124 67.6704 103.105 67.4675 103.054 66.7109L102.948 65.1079C102.9 64.4044 102.482 63.7793 101.848 63.4656L100.408 62.7552C99.7277 62.4184 99.9307 61.3989 100.687 61.3459L102.291 61.2398H102.293Z" fill="white" fill-opacity="0.6"/>
<mask id="mask0_2346_613" style="mask-type:luminance" maskUnits="userSpaceOnUse" x="0" y="0" width="123" height="101">
<path d="M0 50.957C0 78.3772 19.409 104.531 61.1289 100.608C102.849 96.6843 122.258 78.3795 122.258 50.957C122.258 23.5344 96.1384 9.30529 61.1289 1.30618C26.1193 -6.69063 0 23.5367 0 50.957Z" fill="white"/>
</mask>
<g mask="url(#mask0_2346_613)">
<path d="M25.476 81.3229C29.8773 79.8975 33.1574 82.6238 35.0536 83.1659C38.3776 84.1369 37.538 78.2898 31.2013 77.0235C27.5705 76.2923 29.5382 73.2961 31.5266 71.6838C34.1447 69.5503 37.4111 66.448 39.4157 64.6212C41.6647 62.5568 38.8736 59.7959 36.8136 61.5858C34.0225 64.0169 29.7204 68.6138 28.9176 67.9057C28.0618 67.1584 34.3177 61.9202 37.568 58.179C39.9208 55.448 37.3465 53.0746 34.5646 55.3996C31.2428 58.1605 27.266 63.5256 26.5671 63.0643C25.8704 62.603 29.8473 57.8492 32.274 55.0075C34.2716 52.6756 31.3466 50.4659 29.5243 52.5626C26.7793 55.7502 22.8878 61.8833 22.2327 61.4981C21.3584 60.9653 24.1265 57.3925 25.4483 55.3673C27.0423 52.9201 24.3733 51.4162 22.9685 53.3491C20.4865 56.7651 14.7703 65.2347 13.2387 67.6128C9.60323 73.2292 17.2293 83.9639 25.4691 81.3206L25.476 81.3229Z" fill="#4C2F1B"/>
<path d="M12.4589 73.4138C12.4589 73.4138 2.76827 89.8272 -1.82677 106.363C-4.39418 115.492 9.96072 128.499 11.2317 120.767C12.768 111.495 16.5419 84.5544 22.7101 80.0751C28.8922 75.6234 12.4589 73.4138 12.4589 73.4138Z" fill="#4C2F1B"/>
<path opacity="0.1" d="M25.1576 52.581C23.7482 53.7712 20.6456 58.5157 19.3239 60.4717C17.9744 62.4438 13.5132 69.1974 13.903 72.1036C14.1614 74.0988 16.4266 76.403 15.9606 76.6637C15.52 76.9082 13.5547 75.3858 13.0057 75.9279C12.3044 76.6222 0.101727 102.748 3.28504 108.48C6.71518 114.655 2.47076 114.837 2.47076 114.837C2.47076 114.837 -2.2304 113.34 -2.08738 107.731C-1.88208 99.9114 12.489 72.6157 12.489 72.6157C12.489 72.6157 11.7485 69.9378 13.068 67.9149C14.3874 65.8921 20.7056 56.5459 21.6929 55.1482C22.6663 53.725 23.5706 51.866 25.1553 52.581H25.1576Z" fill="black"/>
<path d="M26.9684 34.9913C26.2164 33.0768 26.1102 31.3838 22.6916 29.4694C14.9779 25.1792 15.6238 10.5188 29.0191 11.9281C30.966 12.1403 37.6624 11.22 41.2125 9.73684C43.8445 8.60202 44.9056 11.0839 42.3982 12.2764C40.4213 13.1874 35.0166 13.7572 35.3926 13.9624C35.7732 14.1331 41.9922 14.3592 46.811 11.905C49.9367 10.3112 51.5744 13.3743 48.7325 14.9174C44.9887 16.9148 37.734 17.1178 38.163 17.3992C38.6174 17.7198 44.9956 18.2134 51.0508 15.9138C54.6101 14.5691 55.5674 18.5709 51.8374 19.9203C44.8549 22.4298 37.9554 20.6468 38.2461 21.3134C38.4883 21.8693 44.901 23.4977 52.6102 21.3249C55.6712 20.4715 55.9757 24.8701 52.2203 25.975C47.0601 27.4788 42.645 26.72 37.5425 26.1825C34.0155 25.8227 28.8806 26.0326 30.6361 29.5962C34.809 38.1766 28.2601 38.2689 26.966 34.9913H26.9684Z" fill="#FCDAB3"/>
<path d="M25.6697 11.9119C18.6526 11.7481 -9.19219 1.4517 -12.1379 -24.0795L-16.7629 1.70081C-16.7629 1.70081 -0.156654 22.9787 22.6017 23.673" fill="#FCDAB3"/>
<path opacity="0.1" d="M-16.7676 1.73539C-16.7676 1.73539 -2.35046 20.3285 18.0181 23.297C18.0181 23.297 18.634 26.7245 21.0769 28.3599C23.5197 29.9952 25.0976 30.9271 26.1679 32.9661C27.2382 35.0051 26.5531 35.3949 28.4539 36.6243C30.3546 37.8537 31.8633 36.3129 31.8886 35.0166C31.8886 35.0166 29.2958 35.5448 28.3132 32.6316C27.3236 29.753 25.5958 27.5618 23.8865 26.6046C22.1772 25.6474 19.6928 21.9523 19.6259 20.2316C19.5614 18.3056 18.2488 18.7531 17.6675 19.7103C17.047 20.6929 -13.935 9.39083 -15.1252 -7.61536L-16.8022 1.72847L-16.77 1.73539H-16.7676Z" fill="black"/>
<path opacity="0.1" d="M30.3916 27.5342C30.936 26.0234 31.545 24.1505 33.6211 24.2151C35.6971 24.2796 53.1408 27.3381 54.8985 23.071C54.8985 23.071 54.8847 26.3855 49.4061 26.8053C43.9253 27.2251 36.2346 26.0511 33.9648 26.1226C30.9014 26.2241 30.3939 27.5342 30.3939 27.5342H30.3916Z" fill="black"/>
<path opacity="0.1" d="M38.1399 21.3295C38.2991 21.0159 43.2355 21.5256 46.2458 21.1427C49.2238 20.7529 53.429 20.0033 53.9896 18.0173C53.9896 18.0173 49.2861 20.2178 44.8018 20.2339C40.3244 20.2178 38.2806 20.7414 38.1399 21.3319V21.3295Z" fill="black"/>
<path opacity="0.1" d="M50.0934 12.6661C50.1603 13.0536 50.5317 14.4214 47.3899 15.5332C44.2481 16.6449 38.5735 17.2008 38.4282 17.2446C38.2506 17.2815 38.0799 17.2838 38.0684 17.3507C38.0684 17.3507 38.1745 16.7533 38.9841 16.6265C44.2205 15.8561 47.27 14.8643 48.9493 13.8978C49.6736 13.4803 50.0934 12.6661 50.0934 12.6661Z" fill="black"/>
<path opacity="0.1" d="M35.3325 13.9163C35.4894 13.8079 38.3128 13.3212 38.5943 13.2704C38.9103 13.2243 43.3669 12.793 43.7683 10.7448C43.7683 10.7448 43.3785 11.3929 41.4223 11.9995C39.4662 12.6062 35.547 13.0998 35.3325 13.9163Z" fill="black"/>
<path d="M88.5193 45.1055C88.5193 45.1055 87.2552 47.6911 89.1167 48.4269C90.3624 48.9182 91.5826 48.2862 92.2539 47.8133L92.2747 47.7972C92.4223 47.6957 92.5399 47.5988 92.6276 47.525L92.6553 47.502C92.7222 47.442 92.766 47.4028 92.7798 47.3889V47.382C94.1939 47.7764 95.2273 46.7731 95.9147 45.629C96.3853 44.8102 96.7498 43.9337 96.9943 43.0203C96.9943 43.1149 97.0104 44.9255 99.4141 44.1759C99.6124 44.0998 99.7878 43.9752 99.9239 43.8138L99.9585 43.7792C100.662 43.0019 101.495 41.2235 102.346 38.9631L102.369 38.9055C103.146 36.8296 103.935 34.3523 104.643 31.8912C104.759 31.4991 104.867 31.1047 104.976 30.7126L104.989 30.6757C105.61 28.4268 106.15 26.2448 106.537 24.4457L106.553 24.3627C106.899 22.7435 107.116 21.4403 107.156 20.6929C107.188 20.0679 107.213 19.3943 107.232 18.6932C107.264 17.4914 107.275 16.2159 107.278 14.9888C107.269 14.9819 107.259 14.975 107.25 14.9704C106.639 14.5829 106 14.2184 105.335 13.8817C102.512 12.4401 99.4094 11.6282 96.2423 11.4967C94.9759 11.446 93.811 11.4183 92.7429 11.4137C92.7429 11.7458 92.7429 12.0872 92.736 12.4378C92.6853 15.8123 92.5653 18.1811 92.5653 18.1811C92.5653 18.1811 87.6773 19.3159 86.7777 25.2714C86.5955 26.4616 86.2287 27.6149 85.6935 28.692C85.3221 29.4301 84.8954 30.1406 84.4225 30.8187C84.4225 30.8233 84.4202 30.8256 84.4179 30.8302C84.238 31.0932 84.065 31.3377 83.9035 31.5683C82.9416 32.9384 82.4272 33.7572 83.7512 34.3708C83.8343 34.41 83.9242 34.4469 84.0188 34.4838C84.1757 34.5438 84.3371 34.5945 84.5009 34.6337C84.5009 34.6337 84.5055 34.6337 84.5102 34.636C84.983 34.7583 85.4813 34.7606 85.9565 34.6429C86.4363 34.5138 86.8792 34.2716 87.2437 33.9348L87.2529 33.9256C88.0718 33.1921 88.4893 32.1842 88.577 31.9581L88.5954 31.912C88.2632 35.2911 86.4363 37.7245 85.7535 41.0252C85.6405 41.5672 85.562 42.1162 85.5228 42.6674C85.2068 46.8584 88.5262 45.1055 88.5262 45.1055H88.5193Z" fill="#E3B580"/>
<path opacity="0.1" d="M92.2449 43.2441C92.7846 41.8025 93.4974 40.3447 93.7996 39.4083C94.2056 38.1466 94.3394 34.2831 94.3394 34.2831L91.968 34.0155C91.7881 34.8321 91.6612 38.4395 91.2391 39.8442C91.0707 40.4001 90.614 41.3342 90.1226 42.2615C89.3637 43.6915 88.5195 45.1077 88.5195 45.1077C88.4987 44.0929 89.0039 43.0249 89.5321 42.0331C90.005 41.1428 90.4963 40.3147 90.6417 39.6343C90.8746 38.5525 91.103 33.5981 91.103 33.5981C90.9069 33.2751 90.8331 32.8946 90.8954 32.5209C91.0015 31.9074 92.3048 32.7862 92.6232 32.8577C94.9784 33.3697 96.2655 33.4712 99.8802 33.9925C99.8802 33.9925 99.3081 37.36 98.8745 38.4049C98.4039 39.5582 96.946 41.5257 96.9875 43.0157C96.9091 42.8981 96.8514 42.7689 96.8145 42.6328C96.7615 42.499 96.7384 42.3537 96.7476 42.2107C97.0198 39.5328 97.6242 39.0554 98.104 38.0912C98.5654 37.1709 98.3923 34.5045 98.3923 34.5045L95.6035 34.3085C95.6035 34.3085 95.382 38.2227 94.9714 39.4475C94.5977 40.5592 93.5735 42.0585 92.9161 43.6085C92.7339 44.026 92.5863 44.455 92.4755 44.8955C91.9888 46.8746 92.7777 47.3797 92.7777 47.3797V47.3866C92.7362 47.4281 92.6947 47.465 92.6508 47.4996L92.6232 47.5227C92.5032 47.6219 92.351 47.7372 92.2841 47.788L92.2702 47.7972L92.2495 47.8133C92.005 47.5573 91.6843 46.8561 91.6843 46.8561C91.3798 45.9727 91.7351 44.6141 92.2449 43.2441ZM87.3868 32.5717C87.9751 31.1462 88.2934 30.8948 88.2934 30.8948C89.3038 30.7333 90.5886 29.7623 91.7697 28.6551C92.9599 27.5134 94.0718 26.2909 95.096 24.9992C95.1329 26.4362 94.4247 27.8432 93.4374 28.9804C92.5793 29.9722 91.5113 30.761 90.5425 31.1854L88.5725 31.912L88.5333 32.0089C88.2426 32.6939 87.8274 33.319 87.3084 33.8541L87.2323 33.9256L87.2231 33.9348C86.8632 34.2785 86.4203 34.523 85.9359 34.6429L85.8875 34.6545C85.8875 34.6545 86.7986 33.9948 87.3845 32.5693L87.3868 32.5717ZM89.7374 31.5152C89.7374 31.5152 89.7259 31.5222 89.719 31.5245C89.6359 31.5614 89.4998 31.6098 89.3476 31.6629C89.4652 31.619 89.599 31.5683 89.7374 31.5152Z" fill="black"/>
<path opacity="0.1" d="M99.4141 44.1782C99.6078 44.0952 99.7831 43.9729 99.9239 43.8161L99.9585 43.7815C100.724 42.9696 101.548 41.1336 102.346 38.9677L102.369 38.9101C103.19 36.6612 103.977 34.0594 104.623 31.8889L104.971 30.7126L104.985 30.6757C105.691 28.3068 106.187 26.171 106.533 24.4457L106.549 24.3626C106.881 22.6789 107.066 21.3987 107.151 20.6929C107.188 20.3861 107.213 19.655 107.227 18.6931C107.241 17.639 107.245 16.3128 107.245 14.9704C106.634 14.5829 105.995 14.2184 105.331 13.8817C105.278 19.6065 104.265 26.2563 103.223 31.5844C102.24 36.5943 101.229 40.4393 100.95 41.2558C100.249 43.2671 99.4164 44.1828 99.4164 44.1828L99.4141 44.1782Z" fill="black"/>
<path d="M88.0489 76.8505C85.3107 73.762 86.3672 70.1039 86.1112 68.3624C85.689 65.2993 81.2278 68.1064 82.485 73.7251C83.1839 76.9382 80.0444 76.4261 78.0007 75.372C75.311 73.995 71.6086 72.4427 69.4057 71.4947C66.9283 70.3968 65.648 73.679 67.844 74.7031C70.8151 76.117 76.1137 77.9738 75.8323 78.8687C75.5463 79.8398 68.9997 76.6152 64.7899 75.2982C61.7334 74.3548 60.7 77.3118 63.6134 78.7396C67.0782 80.4672 72.8658 81.7842 72.7459 82.4993C72.6075 83.2304 67.3066 81.6966 64.1002 80.744C61.4705 79.9597 60.7093 83.1405 63.0967 83.8532C66.6768 84.9419 73.1103 85.9383 73.0135 86.5957C72.882 87.4998 68.9743 86.5219 66.8683 86.169C64.3124 85.7492 64.0171 88.4455 66.114 88.9138C69.7679 89.7234 78.7642 91.3472 81.2647 91.7439C87.1308 92.7057 93.1675 82.6284 88.0489 76.8528V76.8505Z" fill="#B48454"/>
<path d="M83.304 90.9735C96.3394 96.1448 102.286 101.724 110.196 108.143C116.911 113.58 123.13 100.513 118.853 97.1412C108.143 88.6923 93.2991 82.9767 89.1123 81.2422C85.1678 79.5814 83.304 90.9735 83.304 90.9735Z" fill="#B48454"/>
<path opacity="0.1" d="M64.6883 87.3453C64.6052 88.0995 65.2304 88.7638 66.2984 88.9991C67.3664 89.2344 79.4907 91.5594 80.9024 91.7785C82.3141 91.9976 83.7005 91.6632 84.231 91.3725C84.231 91.3725 93.082 94.4495 103.137 102.442C113.192 110.432 112.858 113.128 117.155 107.996C117.155 107.996 101.193 95.0353 89.3982 90.699C86.7431 89.7234 87.7119 89.0798 87.7512 87.4675C87.7904 85.8576 85.7004 90.2862 82.298 90.3669C78.914 90.4292 66.596 88.1664 65.8393 87.8366C65.0804 87.5068 64.9466 86.5864 65.1635 86.4665C65.2188 86.4896 64.7644 86.7848 64.6929 87.3499L64.6883 87.3453Z" fill="black"/>
<path opacity="0.1" d="M88.5264 77.4294C89.0685 78.5251 89.8781 80.8132 89.2207 82.6146C88.441 84.845 89.6567 83.551 90.3971 82.9329C91.216 82.2409 93.7465 83.1151 94.2264 83.3342L90.1895 81.6481C90.208 81.6689 89.9035 78.8203 88.5264 77.4294Z" fill="black"/>
<path opacity="0.1" d="M61.8373 81.4221C61.6573 82.5131 62.8268 83.2673 63.7334 83.3596C64.6376 83.4887 72.8681 85.1818 72.9927 86.6141C72.9927 86.6141 72.7343 86.162 70.1323 85.5693C66.8729 84.8404 63.941 84.3606 63.0298 84.0216C62.0264 83.6571 61.1983 82.6007 61.8373 81.4244V81.4221Z" fill="black"/>
<path opacity="0.1" d="M61.9687 76.1124C61.6481 76.719 62.144 78.2483 63.3251 78.8134C64.5062 79.3785 67.964 80.6125 70.0354 81.2122C72.1069 81.8119 72.7828 82.2501 72.7274 82.5523C72.7274 82.5523 73.0227 81.7542 69.9639 80.5248C66.9052 79.2955 64.0886 78.7857 63.1313 77.6647C62.174 76.5437 62.2479 75.6188 62.4647 75.4989C62.4647 75.462 62.294 75.5081 61.971 76.1147L61.9687 76.1124Z" fill="black"/>
<path opacity="0.1" d="M67.2257 71.7415C66.7183 72.2997 67.1266 73.6905 68.5198 74.2118C69.9131 74.7331 76.3397 77.3787 75.8322 78.8664C75.8322 78.8664 75.8737 78.5089 74.2152 77.6486C72.3375 76.6614 68.0954 74.9061 67.4749 74.4886C66.8544 74.0711 66.5176 73.3676 66.6467 72.7864C66.7736 72.2443 67.2234 71.7392 67.2234 71.7392L67.2257 71.7415Z" fill="black"/>
</g>
</svg>
