<svg data-name="Layer 1" xmlns="http://www.w3.org/2000/svg" width="219.12" height="117.28" viewBox="0 0 219.12 117.28"><title>flying-2</title><path d="M137.61 29.64s12.77-6.66 16.11-14-5-11.82-7.13-6.33c-1.33 3.41-6.3 12-10.73 15.28s-1.38 6.87 1.75 5.05zM87.08 61.64a53.49 53.49 0 0 1 15.81-14l15.57 7.54s-7.39 11.74-10.68 13.07c0 0-8.44-.88-11.88-2.77" fill="#f9a41e"/><path d="M87.08 61.64s-4.7 5.24-6.16 9.81c-1.88 6 6.19 9.73 9.67 3 1.8-3.49 3.66-7.39 6.11-10" fill="#f9a41e"/><path d="M87.08 61.64a70.29 70.29 0 0 1 15.81-14l15.57 7.54s-7.39 11.74-10.68 13.07c0 0-8.44-.88-11.88-2.77" fill="none" stroke="#231f20" stroke-linecap="round" stroke-linejoin="round" stroke-width=".7"/><path d="M105.74 50.19c-3.13 1.37-8.92 6.46-7.25 10.06s11.31 5.47 15.68-3.59c3.11-6.45-5.3-7.84-8.43-6.47z" fill="#fff"/><path d="M87.08 61.64s-4.7 5.24-6.16 9.81c-1.88 6 6.19 9.73 9.67 3 1.8-3.49 3.66-7.39 6.11-10" fill="none" stroke="#231f20" stroke-linecap="round" stroke-linejoin="round" stroke-width=".7"/><path d="M112.19 71.12c-1.86 4.66-6 7.06-9.26 5.75-2.82-1.14-3.36-5.16-1.35-8.69 2.24-3.95 6-6.19 8.92-5.27 2.68.86 3.28 4.23 1.69 8.21z" fill="#f9a41e"/><path d="M112.19 71.12c-1.86 4.66-6 7.06-9.26 5.75-2.82-1.14-3.36-5.16-1.35-8.69 2.24-3.95 6-6.19 8.92-5.27 2.68.86 3.28 4.23 1.69 8.21z" fill="none" stroke="#231f20" stroke-linecap="round" stroke-linejoin="round" stroke-width=".7"/><path d="M95.1 44.64s-9.15-1.65-12.8 4.85c-4.08 7.27 4.56 9.37 7 4.31 2.78-5.65 9.19-4.9 9.19-4.9z" fill="#f9a41e"/><path d="M137.61 29.64s12.77-6.66 16.11-14-5-11.82-7.13-6.33c-1.33 3.41-6.3 12-10.73 15.28s-1.38 6.87 1.75 5.05zM95.1 44.64s-9.62-1.65-12.8 4.85c-3.66 7.48 4.56 9.37 7 4.31 2.78-5.65 9.19-4.9 9.19-4.9z" fill="none" stroke="#231f20" stroke-linecap="round" stroke-linejoin="round" stroke-width=".7"/><path d="M115.21 7.83a21.59 21.59 0 0 0-8.18 2.17L94.29 1.14l1.71 18s-5.14 3.8-5.71 14.44c-.63 11.84 10.81 21.46 25.77 22.82 19.84 1.8 35.24-6.75 33.76-19.83-.77-6.81-6-7.46-6-7.46a18.58 18.58 0 0 0-2.44-9.96 19.89 19.89 0 0 0-7.73-7.79l-2.46-11-7.87 7.89a46.22 46.22 0 0 0-8.11-.42z" fill="#f9a41e"/><path d="M127.23 33.52c-6.94 1.3-24.26-6.09-27.3 5.28-3.33 12.44 6.78 16.69 16.13 17.54 28.25 2.59 35.2-12.57 33.76-19.83-1.05-5.44-2.92-6.87-6-7.46-7.03-1.35-9.65 3.17-16.59 4.47z" fill="#fff"/><path fill="none" stroke="#231f20" stroke-linecap="round" stroke-linejoin="round" stroke-width=".7" d="M105.4 8.87l3.6 2.64M115.21 7.83a21.59 21.59 0 0 0-8.18 2.17L94.29 1.14l1.71 18s-5.14 3.8-5.71 14.44c-.63 11.84 10.81 21.46 25.77 22.82 19.84 1.8 35.24-6.75 33.76-19.83-.77-6.81-6-7.46-6-7.46a18.58 18.58 0 0 0-2.44-9.96 19.89 19.89 0 0 0-7.73-7.79l-2.46-11-7.87 7.89a46.22 46.22 0 0 0-8.11-.42z"/><path d="M117.62 56.47c-.35.52-.77 1.16-1.26 1.87-.71 0-1.43-.09-2.14-.15-6.71-.61-12-3.5-16.48-6.89.76-.61.7-.56 1.34-1a34.13 34.13 0 0 0 17 6.08z" fill="#231f20" stroke="#231f20" stroke-linecap="round" stroke-linejoin="round" stroke-width=".7" opacity=".1"/><path d="M81.68 37.73a56.36 56.36 0 0 0 5.65.38c1.77-.06 5.21-.44 5.21-.44M92.81 33.96a32.9 32.9 0 0 0-5.72-3.38 34.07 34.07 0 0 0-6-2.32" fill="none" stroke="#231f20" stroke-linecap="round" stroke-linejoin="round" stroke-width=".7"/><path d="M139.25 19.22c2.67 4.3 2.67 9.15 0 10.82s-7-.47-9.7-4.78-2.67-9.15 0-10.82 7.03.47 9.7 4.78z" fill="#fff" stroke="#231f20" stroke-linecap="round" stroke-linejoin="round" stroke-width=".7"/><path d="M137.17 19.84a1.71 1.71 0 1 1-2.11-1.37 1.78 1.78 0 0 1 2.11 1.37" fill="#231f20"/><path d="M116.48 21.79c2.67 4.31 2.27 9.4-.9 11.36s-7.91.08-10.59-4.23-2.27-9.39.9-11.37 7.91-.07 10.59 4.24z" fill="#fff" stroke="#231f20" stroke-linecap="round" stroke-linejoin="round" stroke-width=".7"/><path d="M114.18 22.64a1.71 1.71 0 1 1-1.66-1.89 1.78 1.78 0 0 1 1.66 1.89" fill="#231f20"/><path d="M126.54 31.35c1.64-.16 4.44-1 4.69.86 0 .82-1.62 4-3.45 4.07s-5.28-2.07-5.14-3.55 2.45-1.24 3.9-1.38z" fill="#231f20" stroke="#231f20" stroke-linecap="round" stroke-linejoin="round" stroke-width=".7"/><path d="M97.38 48.91a5.29 5.29 0 0 0-2.31.33 18.92 18.92 0 0 1-3.42-4.77 6.63 6.63 0 0 1 1.8 0 22.21 22.21 0 0 0 3.93 4.44z" fill="#231f20" stroke="#231f20" stroke-linecap="round" stroke-linejoin="round" stroke-width=".7" opacity=".1"/><path d="M138.27 36.48c.21 3.59-23.17 6.2-23.09 1.66" fill="none" stroke="#231f20" stroke-linecap="round" stroke-linejoin="round" stroke-width=".7"/><path d="M99.07 50.27c-.64.48-1.34 1-2.09 1.64M117.62 56.47c-.35.52-.77 1.16-1.26 1.87M89.95 75.49c-3.73 5.26-10.8 1.59-9-4 1.43-4.61 6.13-9.85 6.13-9.85h.23a29 29 0 0 0-4.76 8.14 4.87 4.87 0 0 0 7.4 5.71zM110.5 74.05c-2.1 2.67-5.1 3.82-7.57 2.82-2.82-1.14-3.35-5.16-1.35-8.68a13.13 13.13 0 0 1 3-3.62 13.38 13.38 0 0 0-1.38 2c-2 3.53-1.47 7.56 1.35 8.69a6 6 0 0 0 5.95-1.21z" fill="#231f20" stroke="#231f20" stroke-linecap="round" stroke-linejoin="round" stroke-width=".7" opacity=".1"/><path d="M146.61 47.31c-5.41 6.64-16.94 10.28-30.55 9-15-1.36-26.4-11-25.77-22.82C90.86 22.85 96 19.05 96 19.05L94.29 1.14l3 2.09 1.26 13.28s-5.14 3.8-5.71 14.44c-.63 11.85 10.82 21.46 25.77 22.82 11.77 1.07 21.94-1.49 28-6.46z" fill="#231f20" stroke="#231f20" stroke-linecap="round" stroke-linejoin="round" stroke-width=".7" opacity=".1"/><path d="M145.23 33.76a52.57 52.57 0 0 0 6.53-1.32 14.26 14.26 0 0 0 4.36-2.31M145.54 39.41a21.83 21.83 0 0 0 5.21 1.43 26 26 0 0 0 4.4.2" fill="none" stroke="#231f20" stroke-linecap="round" stroke-linejoin="round" stroke-width=".7"/><path d="M61.38 42.96c3.48-3.87 2.38-10.16.44-13.63a32.42 32.42 0 0 1-7-1 27.17 27.17 0 0 1-3.12-1 16 16 0 0 0-2.17 8.08 17.25 17.25 0 0 0 1.23 6.54c2.62 2.69 7.93 3.95 10.62 1.01zM35.17 26.18c-4.55 2.65-11.11 4.36-17.58 4.85-2.09 4.25-1.92 10.05 2.79 13.27 6.08 4.17 14.32 1.64 18.28-4.09a15.56 15.56 0 0 0-3.49-14.03z"/><path d="M72.68 24.14c-.62-.25-1.09 1.36-2.5.45a19.65 19.65 0 0 0 2.44-9.61c-.12-3.34-1.72-5.93-3.92-6.34-1.89-.33-3.7 1.18-4.79 3.93a18 18 0 0 0-.67 2.1 10.71 10.71 0 0 0-1.22-1.03 8.14 8.14 0 0 0-10 .56 9.51 9.51 0 0 0-1.3 1.44 3.34 3.34 0 0 0-3.74 2.13l-.85-.24a30.24 30.24 0 0 0-8.4-1 32.84 32.84 0 0 0-11.21 2.3 3.5 3.5 0 0 0-4-1.91 13.55 13.55 0 0 0-4-4.24 10.14 10.14 0 0 0-8.41-1.36 8.7 8.7 0 0 0-5.62 4.83 10.19 10.19 0 0 0-.88 3.42c-.2 2.52.56 4.71.35 5.87a1.57 1.57 0 0 1-1.58 1.44c-1-.06-1.61-.82-1.93-.66-.64.32-.81 3.85 1.26 6.3s5.56 3.25 8.85 2.67a20.16 20.16 0 0 0 4.7 19.85c-3.88-.22-7.2 1.69-7.88 5.41-.85 4.76 3.5 6.16 5.81 4.9 1.92-1 2.15-2.76 4.78-4.32a6.63 6.63 0 0 1 3.76-.94 30 30 0 0 0 3.28 1.55 132.09 132.09 0 0 0-11.15 14.15c-2 3-3.49 5.66-3.78 7.8a5 5 0 0 0 1.79 4.83c2.3 1.75 5.29 1 7.32-1.84a35 35 0 0 0 2.27-3.94c.68-1.29 1.42-2.77 2.25-4.45.72-1.45 1.5-3 2.36-4.7l1.31.29c-1.73 3.45-.68 6.79 1.51 8.16a3.8 3.8 0 0 0 1 .45c2.52.66 5.7-1 7.57-4 2.12-3.4 2.77-7.78-.09-9.56a3.55 3.55 0 0 0-1-.41c.67-1.49 1.38-2.94 2.08-4.27h.69c10.43-.34 19.24-4.69 24.24-11.96 3.87-5.69 4.94-12.56 2.85-18.4 6.47-.89 7.39-9.27 6.45-9.65z"/><path d="M18.6 20.87a3.19 3.19 0 0 1 5.68-1.05 29.67 29.67 0 0 0-5.38 3.42 3.18 3.18 0 0 1-.3-2.37zM53.01 16.76a3 3 0 0 1 2.13 3.64 2.93 2.93 0 0 1-.3.73 35.69 35.69 0 0 0-5.38-2.49 3 3 0 0 1 3.55-1.88z" fill="#4789c7"/><path d="M36.61 66.26a46.13 46.13 0 0 0-12.28-2.87l1.31-1.5a33.06 33.06 0 0 0 3.44 1.1 35.28 35.28 0 0 0 8.61 1.13c-.37.7-.73 1.41-1.08 2.14z" fill="#88b2de"/><path d="M17.68 60.43c-2.69 1.56-3 3.4-4.82 4.33s-5.48-.12-4.78-4.18c.63-3.58 4-5.2 7.75-4.93a25.85 25.85 0 0 0 5 3.88 6.75 6.75 0 0 0-3.15.9z" fill="#fcdac6"/><path d="M23.09 77.93c-.82 1.64-1.54 3.09-2.2 4.35a16.52 16.52 0 0 1-8.36-3c.57-1 1.23-2.07 1.93-3.15s1.65-2.46 2.59-3.73a72.94 72.94 0 0 1 8.31 1c-.84 1.67-1.6 3.18-2.27 4.53z" fill="#fff"/><path d="M18.38 86.43c-2 2.69-4.74 2.56-6.13 1.5a4.47 4.47 0 0 1-1.53-4.21 12.49 12.49 0 0 1 1.66-4.08 17.43 17.43 0 0 0 5.53 2.56 15.76 15.76 0 0 0 2.8.46 28.33 28.33 0 0 1-2.33 3.77zM30.07 81.72a3.09 3.09 0 0 1-.86-.37c-2-1.28-2.93-4.56-.92-7.88a12.67 12.67 0 0 1 9 3.77q-.2.38-.45.76c-1.67 2.75-4.53 4.31-6.77 3.72z"/><path d="M62.77 51.8c-4.83 7.09-13.44 11.32-23.63 11.63a34.89 34.89 0 0 1-9.89-1.1c-8.06-2.11-14.16-6.9-17.06-13a15.76 15.76 0 0 0 19.19 1.74 17.27 17.27 0 0 0 7.7-10.35 16.13 16.13 0 0 0-3.43-14.83 21.89 21.89 0 0 0 6.28-5.6 24.27 24.27 0 0 0 9.34 6.85 16.21 16.21 0 0 0-2.29 8 17.63 17.63 0 0 0 2.4 9.3 13.15 13.15 0 0 0 4.93 5 7.36 7.36 0 0 0 8-.23 22.67 22.67 0 0 1-1.54 2.59z" fill="#fcdac6"/><path d="M13.01 81.64l-.3-.2c0 .11-.07.22-.1.33a3.06 3.06 0 0 0 0 1.72 2.63 2.63 0 0 0 1.67 1.65l.31.1a2.75 2.75 0 0 0 2-.23 4.14 4.14 0 0 0 1.4-1.24l.21-.31-.37-.06a13.75 13.75 0 0 1-4.82-1.76z"/><path d="M16.38 84.7a2.41 2.41 0 0 1-2 .12 2.3 2.3 0 0 1-1.47-1.43 2.68 2.68 0 0 1 0-1.42 13.41 13.41 0 0 0 3.6 1.49c.33.09.69.17 1.06.24a3.71 3.71 0 0 1-1.19 1z" fill="#fff"/><path d="M30.12 74.69l-.33-.05c0 .11-.07.22-.09.33a3.14 3.14 0 0 0 0 1.47 2.82 2.82 0 0 0 1.74 2l.4.13a3.4 3.4 0 0 0 2.32-.21 4.46 4.46 0 0 0 1.31-.94l.23-.25-.32-.25a13.87 13.87 0 0 0-5.26-2.23z"/><path d="M34 78a3.07 3.07 0 0 1-2.45.07 2.48 2.48 0 0 1-1.53-1.73 2.81 2.81 0 0 1 0-1.33 13.54 13.54 0 0 1 5.14 2.14A4.09 4.09 0 0 1 34 78z" fill="#fff"/><path d="M26.95 36.24a4.34 4.34 0 0 0 2.31 1.49 4.91 4.91 0 0 0 6-4.06 4.35 4.35 0 0 0-3.22-4.86 4.91 4.91 0 0 0-6 4.06 4.38 4.38 0 0 0 .91 3.37zM56.16 28.76a3.14 3.14 0 0 0-3.78 1.75 4.53 4.53 0 0 0-.3 3 4.1 4.1 0 0 0 2.88 3.13 3.24 3.24 0 0 0 1.58 0 3.52 3.52 0 0 0 2.25-1.71 4.08 4.08 0 0 0 .42-3 4.37 4.37 0 0 0-3.05-3.17z"/><path d="M64.55 12.86c1-2.43 2.48-3.88 4-3.61s3.22 2.44 3.34 5.75c.19 4.24-1.7 10.42-7.17 15.64a22.4 22.4 0 0 0-2.94-4c.36-1.81.64-3.6.92-5.31a43.37 43.37 0 0 1 1.85-8.47z" fill="#fcdac6"/><path d="M52.46 14.73a7.53 7.53 0 0 1 9.16-.51 10.39 10.39 0 0 1 1.43 1.29c-.39 1.68-.69 3.6-1 5.69-.25 1.56-.51 3.17-.82 4.81a29.26 29.26 0 0 0-5.77-4.52 3.63 3.63 0 0 0 .38-.91 3.68 3.68 0 0 0-2.62-4.49 3.64 3.64 0 0 0-2 0 8.91 8.91 0 0 1 1.24-1.36z" fill="#ffd13e"/><path d="M50.3 16.3l-.25.42a3.66 3.66 0 0 0-1.23 1.66l-1.17-.39a2.65 2.65 0 0 1 2.65-1.69z" fill="#4789c7"/><path d="M37.76 17.2a29.54 29.54 0 0 1 8.2 1c5.75 1.53 12.42 4.96 16.64 10.44a29.41 29.41 0 0 1-12.88-3 25.74 25.74 0 0 1-7.81-6.25 25.27 25.27 0 0 1-7.06 6.17c-5.47 3.2-13.88 5-21.47 4.93a25.08 25.08 0 0 1 4.7-5.64 30.67 30.67 0 0 1 19.68-7.65z" fill="#ffd13e"/><path d="M24.08 17.64a2.83 2.83 0 0 1 1.82 1.49l-1 .44a3.86 3.86 0 0 0-1.69-1.41c-.1-.2-.2-.39-.31-.58a2.8 2.8 0 0 1 1.18.06z" fill="#4789c7"/><path d="M3.14 33.06a6.65 6.65 0 0 1-2.45-6.19 3.33 3.33 0 0 0 1.68.61 2.17 2.17 0 0 0 2.15-1.51c.52-1.54-.44-3.54-.2-6.4a9.49 9.49 0 0 1 .82-3.15 8 8 0 0 1 5.18-4.45 9.46 9.46 0 0 1 7.84 1.27 13.18 13.18 0 0 1 4.13 4.6 3.87 3.87 0 0 0-3.91 5.8c-.26.22-.52.43-.77.66a24.22 24.22 0 0 0-6.85 10.14c-2.88.53-5.61.26-7.62-1.38z" fill="#ffd13e"/><path d="M17.44 71.91c.94-1.27 1.94-2.55 2.94-3.82a49.13 49.13 0 0 1 10 2 11.62 11.62 0 0 0-2.6 2.9l-.16.29a73.92 73.92 0 0 0-10.18-1.37z" fill="#88b2de"/><path d="M37.01 69.39c1.7 1.06 2.31 3.89.51 7.45a12.59 12.59 0 0 0-4.81-3 14.63 14.63 0 0 0-4.13-.77c2.24-3.33 5.5-4.53 7.64-4a2.84 2.84 0 0 1 .79.32z" fill="#fff"/><path d="M30.82 69.77a49.8 49.8 0 0 0-10.08-2.13c1.06-1.3 2.14-2.6 3.22-3.85a45.47 45.47 0 0 1 12.42 2.85q-.37.79-.73 1.6a7.15 7.15 0 0 0-4.83 1.53z"/><path d="M65.94 33.14a19.91 19.91 0 0 0-.88-1.91 25.46 25.46 0 0 0 4.77-6c1.46 1 2.33-.41 2.55-.33s-.62 7.66-6.44 8.24z" fill="#ffd13e"/><path d="M45.6 49.78c-2.35-.14-2.45-3.14-2.47-3.89-.52 1-.13 4.31 2.53 4.38s3.13-3.74 2.53-4.47c.01.63-.24 4.08-2.59 3.98z"/><path d="M63.55 44.54c2.55-3.71 2.36-9.39.79-13.18a20.6 20.6 0 0 0-1.23-2h-1.34c1.94 3.48 3 9.76-.44 13.63-2.64 2.94-8 1.65-10.58-1a16.4 16.4 0 0 0 1.09 2.23 14.42 14.42 0 0 0 1.33 1.89c2.4 1.53 7.42 2.74 10.38-1.57z" fill="#88b2de"/><path d="M65.54 34a19.05 19.05 0 0 0-1.16-2.64c1.56 3.79 1.76 9.48-.79 13.18-3 4.31-8 3.08-10.38 1.51a11.68 11.68 0 0 0 3.47 2.9 6.84 6.84 0 0 0 8.08-.65 19.22 19.22 0 0 0 .78-14.3zM17.12 47.04c-5.4-4.61-5-11.26-2.05-15.89h-2.09a20.27 20.27 0 0 0-2.6 10.49 19 19 0 0 0 1.33 6.43 15.58 15.58 0 0 0 7.4 4.39 15.36 15.36 0 0 0 12.02-1.82 16.73 16.73 0 0 0 5.46-5.47c-4.78 5.32-14.67 5.96-19.47 1.87z" fill="#fff"/><path d="M38.63 40.2c-4 5.73-12.2 8.26-18.28 4.09-4.68-3.21-4.85-9-2.76-13.27q-1.26.1-2.52.13c-3 4.62-3.35 11.28 2.05 15.89 4.79 4.09 14.68 3.45 19.47-1.91a16.83 16.83 0 0 0 1.94-4.55c.04-.13.07-.25.1-.38z" fill="#88b2de"/><path d="M28.06 30.02a4.49 4.49 0 0 1 3.92-.87 4 4 0 0 1 3 4.48 4.57 4.57 0 0 1-5.6 3.77 4 4 0 0 1-3-4.48 4.5 4.5 0 0 1 1.68-2.9zM58.49 34.74a3.18 3.18 0 0 1-2 1.55 2.9 2.9 0 0 1-1.42 0 3.75 3.75 0 0 1-2.58-2.81 4.19 4.19 0 0 1 .28-2.8 2.87 2.87 0 0 1 1.92-1.6 2.91 2.91 0 0 1 1.41 0A4 4 0 0 1 58.9 32a3.74 3.74 0 0 1-.41 2.74z" fill="#fff"/><path d="M16.26 73.53a55.31 55.31 0 0 1 8.32 1.42l.8-1.54a72.94 72.94 0 0 0-8.31-1z" fill="#cccbcb"/><path d="M28.38 63.95q1.42.26 3 .66a33.8 33.8 0 0 0 5.83.48l.49-1a35.28 35.28 0 0 1-8.61-1.13 33.06 33.06 0 0 1-3.44-1.1l-.75.86a30.15 30.15 0 0 0 3.48 1.23z" fill="#6a8fbc"/><path d="M14.73 55.64a25.49 25.49 0 0 0 4.65 4.11 7.48 7.48 0 0 1 1.44-.22 25.85 25.85 0 0 1-5-3.88 10.61 10.61 0 0 0-1.09-.01z" fill="#cbaf9e"/><path d="M23.96 19.98a2.86 2.86 0 0 0-4.47 2.81 29.66 29.66 0 0 1 4.47-2.81zM50.25 18.92a35.46 35.46 0 0 1 4.59 2.21 2.93 2.93 0 0 0 .3-.73 3 3 0 0 0 .09-.71 2.86 2.86 0 0 0-4.98-.77z" fill="#3a6f9f"/><path d="M159.93 52.12a21.2 21.2 0 0 1 7-7.46l.77-.49c1.35-2.54 3.81-6.36 5.68-7.59-.11.92-.43 2.54-.53 3a5 5 0 0 1 1.66-1.1c0 .17-.57 2.08-.82 3a32.63 32.63 0 0 1 20.14.52 29.1 29.1 0 0 1 13 9c1.86-4.29 2.65-8.74 4-11.52s3.69-3.28 5.32-2c1.84 1.43 3.2 5.48.74 11.2a25.62 25.62 0 0 1-6.33 8.91l.13.4a10.62 10.62 0 0 0 6.85 1.15 24.89 24.89 0 0 1-1.36 6.21 29.22 29.22 0 0 1-2.83 5.87 25.09 25.09 0 0 1-10.13 9.17l-.59.44a28 28 0 0 1-18.35 4.64c-.84 1.2-1.7 2.51-2.54 3.84a3.26 3.26 0 0 1 1.08.63c2.07 1.84 1.55 5.8-1.16 8.85-2.07 2.33-4.94 3.36-7.15 2.57a4 4 0 0 1-1.32-.78 4.39 4.39 0 0 1-1.37-3.85 7.3 7.3 0 0 1 1.09-3.05l-1-.34c-3.18 4.53-5.1 9.85-7.74 12.16s-7.61.73-7-4.28c.28-2.37 2.23-5.17 6.09-9.79a83.78 83.78 0 0 1 9.09-9.32 31.27 31.27 0 0 1-2.97-1.68c-4.78-1-5.17 3.37-8.56 5.07a3.8 3.8 0 0 1-4.92-1.34 5.72 5.72 0 0 1 .8-6.51 6.76 6.76 0 0 1 5.34-2.22 29.31 29.31 0 0 1-7-9.15 29.93 29.93 0 0 1-2.53-7.45 22.68 22.68 0 0 1-.33-7 13.45 13.45 0 0 0 7.75.29z"/><path d="M162.7 75.97a26.64 26.64 0 0 0 4.48 2.89c.43.33.86.66 1.31 1-4.44-.53-5 3.68-8 5.11a3.18 3.18 0 0 1-4.1-1.15 5.4 5.4 0 0 1 .74-5.73c1.41-1.78 3.71-2.16 5.57-2.12z" fill="#ffdcc7"/><path d="M159.55 52.87a18.73 18.73 0 0 0 .34 17.39 26.07 26.07 0 0 0 5.2 6.81 29.57 29.57 0 0 1-9.5-11.09 26.85 26.85 0 0 1-2.88-13.34 14.45 14.45 0 0 0 6.84.23z"/><path d="M167.17 78.86c.43.33.86.66 1.31 1a5.71 5.71 0 0 0-1.35 0 31.48 31.48 0 0 1-3.08-2.85 26.8 26.8 0 0 0 3.12 1.85z" fill="#ccb09f"/><path d="M168.93 64.12a10 10 0 0 1-1.48-13.76c2-.39 4-.7 6-.89s4-.31 6-.32a38.11 38.11 0 0 1 5.66 4.92 14 14 0 0 1-.15 9v.08a11.75 11.75 0 0 1-16.03.97zM199.82 52.54l.51.18a42.83 42.83 0 0 1 7.69 3.78c2.09 4.9.46 10.58-2.88 12.37-3.82 2.05-8.15-.55-9.79-3.45a25.85 25.85 0 0 1 .77-8.72 44 44 0 0 0 3.7-4.16z"/><path d="M159.52 97.14a13 13 0 0 0 7.17 3.71c1.33-2.29 2.79-5.08 4.61-7.69a29.54 29.54 0 0 0-7.68-1.33 60.52 60.52 0 0 0-4.1 5.31z" fill="#fff"/><path d="M171.63 83.5a32.47 32.47 0 0 1 10.56 3.77q.64-1 1.27-1.88a31.71 31.71 0 0 1-7.43-1.68 32.3 32.3 0 0 1-3.14-1.31z" fill="#88c97a"/><path d="M172.38 96.79a3.77 3.77 0 0 0 1.16 3.3 3.35 3.35 0 0 0 1.11.65c2 .7 4.56-.26 6.45-2.39.16-.18.31-.36.46-.55a9.93 9.93 0 0 0-4-3.44 8 8 0 0 0-3.82-.85 6.88 6.88 0 0 0-1.36 3.28zM157.67 101.27c-.53 4 3.62 5.84 6 3.73a15.89 15.89 0 0 0 2.76-3.77 14.82 14.82 0 0 1-2.19-.59 12.72 12.72 0 0 1-5-3.14 9.75 9.75 0 0 0-1.57 3.77z"/><path d="M202.19 80.28a21.31 21.31 0 0 0 5.11-5.07c-2.62 1.47-7.91 2.37-11-4.21-1.36-2.87-2.27-7.68-.76-13.73a19.15 19.15 0 0 1-2 1.64 13.73 13.73 0 0 1 .19-4 7.7 7.7 0 0 1 .19 3 39.8 39.8 0 0 0 5.42-5.64 58.46 58.46 0 0 0-6-1.72 24.51 24.51 0 0 0-5-6.8 29.08 29.08 0 0 1 .94 6 57.53 57.53 0 0 0-9-.73 43.61 43.61 0 0 1 8.41 8.21 32.13 32.13 0 0 1-.09-3.24c.59.62.74 3.57.35 4.36-.92-1.11-1.94-2.34-3.09-3.6a14.51 14.51 0 0 1-.43 8.31 14.86 14.86 0 0 1-7.11 8.58 14.35 14.35 0 0 1-11.51.4 14.52 14.52 0 0 1-8.26-7.48c1.53 7.86 8.31 15.2 17.7 18.54a31.06 31.06 0 0 0 7.32 1.65 27.48 27.48 0 0 0 18.62-4.47z" fill="#ffdcc7"/><path d="M178.38 50.32a4.11 4.11 0 0 1 1.06.23 4.29 4.29 0 0 1 2.79 4.39 4.58 4.58 0 0 1-1.28 3 4.26 4.26 0 0 1-4.14.77 4.51 4.51 0 0 1-2.91-4.55 4.13 4.13 0 0 1 4.48-3.84zM202 61.44a3.1 3.1 0 0 1-1.65-.13 3.86 3.86 0 0 1-2.43-2.9 4.23 4.23 0 0 1 .64-3.2 2.84 2.84 0 0 1 1.86-1.24 3 3 0 0 1 1.47.15 4.1 4.1 0 0 1 2.49 3.07c.44 2.07-.59 3.9-2.38 4.25zM180.01 97.32l.22.24-.24.22a3.44 3.44 0 0 1-1.29.75 2.82 2.82 0 0 1-3.7-2.46 3.37 3.37 0 0 1 .17-1.29c0-.1.07-.2.11-.3l.31.1a10.87 10.87 0 0 1 4.42 2.74z"/><path d="M175.32 96.05a2.51 2.51 0 0 0 3.29 2.17 3.11 3.11 0 0 0 1.16-.68 10.56 10.56 0 0 0-4.3-2.66 3.06 3.06 0 0 0-.15 1.17z" fill="#fff"/><path d="M159.68 99.38l.26.21a13.61 13.61 0 0 0 4.3 2.36l.33.1-.2.26a3.51 3.51 0 0 1-1.42 1.07 3 3 0 0 1-2 0 2.81 2.81 0 0 1-.67-.34 2.37 2.37 0 0 1-1-2.1 3.4 3.4 0 0 1 .29-1.25c.01-.11.06-.21.11-.31z"/><path d="M159.58 100.93a2.06 2.06 0 0 0 .87 1.83 2.73 2.73 0 0 0 2.38.32 3.13 3.13 0 0 0 1.2-.88l-.23-.07a14.42 14.42 0 0 1-4-2.25 3 3 0 0 0-.22 1.05z" fill="#fff"/><path d="M173.57 39.7a15.32 15.32 0 0 1-1.55 1.18 23.71 23.71 0 0 1 .55-2.86 37.57 37.57 0 0 0-3.9 5.57 26.52 26.52 0 0 1 4.25-1.86c.23-.76.65-2.03.65-2.03zM186.16 40.95a29 29 0 0 0-18.91 4.25 20.87 20.87 0 0 0-6 6 71.81 71.81 0 0 1 12.13-2.38 62.41 62.41 0 0 1 15.2.28 45.26 45.26 0 0 0-1.09-6.54 16.3 16.3 0 0 1 4.17 4.08 28.87 28.87 0 0 1 2.11 3.47 61.31 61.31 0 0 1 6.44 1.9l.33.12a44.36 44.36 0 0 1 8.89 4.51c-2.58-6.09-8.29-11.33-15.85-14a31.48 31.48 0 0 0-7.42-1.69z"/><path d="M216.24 48.39c2.26-5.28 1.12-9.12-.53-10.41s-3.32-.41-4.38 1.81c-1.55 3.24-2.09 7.28-4.1 11.78a22.54 22.54 0 0 1 3 5.35 24.92 24.92 0 0 0 6.01-8.53z" fill="#ffdcc7"/><path d="M212.73 70.85a27.57 27.57 0 0 0 4.1-11 8.79 8.79 0 0 1-2.57 0 11.37 11.37 0 0 1-2.26-.56 11.8 11.8 0 0 1-1.13-.47 18.61 18.61 0 0 1 .64 7 20.52 20.52 0 0 1-5.9 12.47 25.09 25.09 0 0 0 7.12-7.44zM181.96 87.64a31.87 31.87 0 0 0-10.73-3.76c-1.19 1.08-2.4 2.26-3.6 3.5a49.85 49.85 0 0 1 8.87 2.85 7.2 7.2 0 0 1 4.5-1.08q.48-.78.96-1.51z"/><path d="M182.38 90.42a2.62 2.62 0 0 0-.87-.51c-2-.7-5.12.58-7.2 2.91l-.22.27a8.61 8.61 0 0 1 3.67.9 10.44 10.44 0 0 1 4.12 3.45c1.82-2.6 2.08-5.59.5-7.02z" fill="#fff"/><path d="M173.81 92.4a10.88 10.88 0 0 1 2.25-1.92 49.24 49.24 0 0 0-8.77-2.77 78.983 78.983 0 0 0-3.25 3.61 32.05 32.05 0 0 1 9.13 1.9 9.18 9.18 0 0 1 .64-.82z" fill="#88c97a"/><path d="M186.08 68.49a4.76 4.76 0 0 0 1.17 3 2.85 2.85 0 0 0 3 .67c-.41.65-2 .8-3.21-.2a3.27 3.27 0 0 1-.96-3.47z"/><path d="M160.76 51.98c1.09-.32 2.22-.62 3.36-.9a11.3 11.3 0 0 0 1.47 15.22c4.29 3.9 11.66 4.78 16.66 1.55-3.58 4.36-9.22 5.87-15.27 3.71a14 14 0 0 1-8.73-9.19 16.76 16.76 0 0 1 0-2.79 18.7 18.7 0 0 1 2.51-7.6z" fill="#fff"/><path d="M165.6 66.3a11.3 11.3 0 0 1-1.47-15.22c1.1-.27 2.21-.51 3.33-.73a10 10 0 0 0 1.48 13.76 11.75 11.75 0 0 0 16-1 16 16 0 0 1-2.66 4.75c-5.02 3.22-12.4 2.34-16.68-1.56z" fill="#88c97a"/><path d="M205.23 72.37c2.63-.84 4.72-3.27 5.65-6.79v.09a19.77 19.77 0 0 1-2.88 8.49c-2.44 1.8-8 3.44-11.25-3.39a13.84 13.84 0 0 1-.6-1.49 8.48 8.48 0 0 0 9.08 3.09z" fill="#fff"/><path d="M205.13 68.88c3.35-1.8 5-7.48 2.88-12.37.61.38 1.22.76 1.83 1.18a18.2 18.2 0 0 1 1 7.9c-.93 3.52-3 5.94-5.65 6.79a8.48 8.48 0 0 1-9.08-3.08 17.25 17.25 0 0 1-.81-3.87c1.67 2.9 6 5.5 9.83 3.45z" fill="#88c97a"/><path d="M204.09 57.26a3.77 3.77 0 0 0-2.3-2.83 2.66 2.66 0 0 0-1.31-.13 2.52 2.52 0 0 0-1.65 1.1 3.9 3.9 0 0 0-.59 2.95 3.53 3.53 0 0 0 2.22 2.66 2.78 2.78 0 0 0 1.47.12c1.61-.32 2.54-1.99 2.16-3.87zM174.25 54.2a4.19 4.19 0 0 0 2.7 4.22 3.58 3.58 0 0 0 .93.2 3.62 3.62 0 0 0 2.88-.9 4.27 4.27 0 0 0 1.18-2.82 4 4 0 0 0-2.56-4.05 3.87 3.87 0 0 0-3.78.69 3.85 3.85 0 0 0-1.35 2.66z" fill="#fff"/><path d="M172.14 83.05l.74-.64a32.3 32.3 0 0 0 3.14 1.31 31.71 31.71 0 0 0 7.43 1.68l-.57.84a34.19 34.19 0 0 1-4.89-.95 32 32 0 0 0-3.39-1.13q-1.22-.52-2.46-1.11z" fill="#6da162"/><path d="M163.61 91.83a29.54 29.54 0 0 1 7.68 1.33c-.26.38-.52.76-.77 1.14a29.21 29.21 0 0 0-7.54-1.72z" fill="#ccc"/><path d="M218.02 103.54l-.09.09a2.77 2.77 0 0 1-3.55 0c-3.4-2.36-7.46-2.92-10.57-1.51a7.65 7.65 0 0 1 1.56-2.26c2.79-2.79 7.3-3 11.29-1 1.92.97 2.62 3.42 1.36 4.68z" fill="#ffebae" stroke="#231f20" stroke-miterlimit="10" stroke-width=".7"/><path d="M215.65 100.47s1.34-3-.38-3.28c-1.19-.18-1.62.88-2.23.86s-2.33-2-3.24-1.14-.73 1.7-1.68 2-2.06-1.15-2.73.07-.25 1.61-1 2.13-2.33-.11-2.84.86-.22 1.68-.7 2.37-1.71.76-2.25 1.81.76 1.58.34 2.33-1.39 1-.68 2.32 1.13 1.12 1.39 1.91 13.36-9.73 16-12.24z" fill="#37b34a" stroke="#231f20" stroke-linecap="round" stroke-linejoin="round" stroke-width=".7"/><rect x="229.9" y="115.06" width="1.83" height="1.83" rx=".73" ry=".73" transform="rotate(-15 160.869 167.11)" fill="#be1e2d" stroke="#231f20" stroke-linecap="round" stroke-linejoin="round" stroke-width=".7"/><path fill="none" stroke="#fff100" stroke-linecap="round" stroke-linejoin="round" stroke-width=".7" d="M211.38 101.01l-1.03-.56"/><rect x="214.41" y="128.67" width="2.28" height="2.28" rx=".81" ry=".81" transform="rotate(15 269.895 62.335)" fill="#be1e2d" stroke="#231f20" stroke-linecap="round" stroke-linejoin="round" stroke-width=".7"/><path fill="none" stroke="#fff100" stroke-linecap="round" stroke-linejoin="round" stroke-width=".7" d="M212.5 100.09l-.75 1.96M213.2 97.06l-1.39 1.67"/><path d="M215.01 100.58a1.42 1.42 0 0 0 1.37-1.14.89.89 0 0 1 1.24.13.87.87 0 0 1 .19.66.88.88 0 0 1 .61 1.56l-.09.06a.88.88 0 0 1-.21 1.12.92.92 0 0 1-.3.16.88.88 0 0 1-.32.76.87.87 0 0 1-.53.19.88.88 0 0 1-1.56.46.87.87 0 0 1-.11-.92.52.52 0 0 1-.15-.13.87.87 0 0 1-1.1-.22.89.89 0 0 1 .06-1.18.89.89 0 0 1-.3-.24.88.88 0 0 1 .13-1.24.89.89 0 0 1 1.07-.03z" fill="#8a5d3b" stroke="#231f20" stroke-linecap="round" stroke-linejoin="round" stroke-width=".7"/><rect x="226.76" y="117.15" width="2.28" height="2.28" rx=".81" ry=".81" transform="rotate(-75 209.433 120.286)" fill="#be1e2d" stroke="#231f20" stroke-linecap="round" stroke-linejoin="round" stroke-width=".7"/><rect x="221.87" y="116.79" width="2.28" height="2.28" rx=".81" ry=".81" transform="rotate(-48.52 197.074 127.072)" fill="#be1e2d" stroke="#231f20" stroke-linecap="round" stroke-linejoin="round" stroke-width=".7"/><rect x="215.3" y="119.75" width="2.28" height="2.28" rx=".81" ry=".81" transform="rotate(-9.62 111.366 205.466)" fill="#be1e2d" stroke="#231f20" stroke-linecap="round" stroke-linejoin="round" stroke-width=".7"/><path fill="none" stroke="#fff100" stroke-linecap="round" stroke-linejoin="round" stroke-width=".7" d="M209.21 101.65l-.27-2.08M202.74 103.51l-.27-2.09"/><path d="M217.93 103.64l-12.67 12.67c-1.26 1.26-3.71.56-4.69-1.36-2.05-4-1.81-8.5 1-11.29a9.37 9.37 0 0 1 2.31-1.66v.1c3.1-1.42 7.16-.86 10.56 1.51a2.78 2.78 0 0 0 3.49.03z" fill="#ffebae" stroke="#231f20" stroke-linecap="round" stroke-linejoin="round" stroke-width=".7"/><path d="M200.8 112.89a9.28 9.28 0 0 1 .14-6.73" fill="none" stroke="#fff" stroke-linecap="round" stroke-linejoin="round" stroke-width=".7"/><path d="M217.22 104.34l-12 12c-1.17 1.17-3.37.65-4.46-1a2.71 2.71 0 0 0 3.45 0l11.35-11.35c.43.22 1.32 0 1.66.35z" fill="#231f20" stroke="#231f20" stroke-linecap="round" stroke-linejoin="round" stroke-width=".7" opacity=".1"/><circle cx="223.22" cy="123.14" r=".49" transform="rotate(-45 195.655 133.807)" fill="#231f20" opacity=".1"/><circle cx="217.38" cy="126.38" r=".49" transform="rotate(-45 189.828 137.05)" fill="#231f20" opacity=".1"/><circle cx="220.62" cy="126.79" r=".49" transform="rotate(-45 193.067 137.459)" fill="#231f20" opacity=".1"/><circle cx="218.24" cy="129.86" r=".49" transform="rotate(-45 190.69 140.533)" fill="#231f20" opacity=".1"/><circle cx="222.18" cy="120.34" r=".49" transform="rotate(-45 194.619 131.016)" fill="#231f20" opacity=".1"/><circle cx="226.4" cy="121.32" r=".49" transform="rotate(-45 198.841 131.987)" fill="#231f20" opacity=".1"/><circle cx="218.79" cy="122.36" r=".49" transform="rotate(-45 191.229 133.02)" fill="#231f20" opacity=".1"/><path fill="none" stroke="#fff100" stroke-linecap="round" stroke-linejoin="round" stroke-width=".7" d="M210.44 97.52l-.36 1.35M206.6 99.54l-.85 1.07"/></svg>