<svg id="Layer_1" data-name="Layer 1" xmlns="http://www.w3.org/2000/svg" width="434.45" height="128.18" viewBox="0 0 434.45 128.18"><title>make-it-fly-graphic</title><line x1="96" y1="82.06" x2="85.8" y2="82.06" fill="none" stroke="#fff" stroke-linecap="round" stroke-linejoin="round" stroke-width="1.62"/><line x1="77.81" y1="87.77" x2="65.5" y2="87.77" fill="none" stroke="#fff" stroke-linecap="round" stroke-linejoin="round" stroke-width="1.62"/><line x1="84.77" y1="97.34" x2="69.12" y2="97.34" fill="none" stroke="#fff" stroke-linecap="round" stroke-linejoin="round" stroke-width="1.62"/><line x1="74.8" y1="73.28" x2="64.6" y2="73.28" fill="none" stroke="#fff" stroke-linecap="round" stroke-linejoin="round" stroke-width="1.62"/><path d="M87.58,34.4V55.94a2,2,0,0,1-1.7,2.16H43a4.16,4.16,0,0,1-4.16-4.16h0a2.89,2.89,0,0,0-2.89-2.89H32.31a2.89,2.89,0,0,1-2.89-2.89h9.42V40.71a2.26,2.26,0,0,1,.65-1.58,2.23,2.23,0,0,1,1.66-.65,2.19,2.19,0,0,0,2.16-2.23v-4H85.88A2,2,0,0,1,87.58,34.4Z" transform="translate(-12.77 -0.73)" fill="#ffdb27"/><path d="M49.33,49.48V44.23a0.53,0.53,0,0,1,.53-0.53h1.36a0.53,0.53,0,0,1,.37.15l0.74,0.74a0.53,0.53,0,0,0,.37.15h1.67a0.53,0.53,0,0,0,.37-0.15l0.74-.74a0.53,0.53,0,0,1,.37-0.15h14.5a0.53,0.53,0,0,1,.53.53v5.25a0.53,0.53,0,0,1-.53.53H55.85a0.53,0.53,0,0,0-.37.15l-0.74.74a0.53,0.53,0,0,1-.37.15H52.7a0.53,0.53,0,0,1-.37-0.15l-0.74-.74A0.53,0.53,0,0,0,51.21,50H49.85A0.53,0.53,0,0,1,49.33,49.48Z" transform="translate(-12.77 -0.73)" fill="#fff" opacity="0.5"/><rect x="26.99" y="30.9" width="49.13" height="1.64" rx="0.73" ry="0.73" fill="#fff"/><rect x="27.48" y="56.39" width="49.13" height="1.64" rx="0.73" ry="0.73" fill="#fff"/><path d="M102.71,94.06h-0.16c-1.56,0-2.86-1.38-3.2-3.26-0.95-5.25-4.13-9.46-8.25-11a9.85,9.85,0,0,1,3.47-.64c5.07,0,9.41,3.89,11.18,9.39C106.6,91.19,105,94.06,102.71,94.06Z" transform="translate(-12.77 -0.73)" fill="#ffebae" stroke="#231f20" stroke-miterlimit="10" stroke-width="0.55"/><path d="M103.35,89.11s4-1.52,2.64-3.33c-0.92-1.25-2.28-.68-2.82-1.25s-0.3-3.94-1.91-4-2.21.89-3.39,0.34S97,78,95.32,78.47s-1.69,1.24-2.82,1.05-2-2.22-3.38-1.8-1.74,1.33-2.79,1.53-2.24-.87-3.7-0.39S81.89,81,80.82,81.29s-2.19-.34-2.73,1.49,0,2-.47,3S98.67,89,103.35,89.11Z" transform="translate(-12.77 -0.73)" fill="#37b34a" stroke="#231f20" stroke-linecap="round" stroke-linejoin="round" stroke-width="0.55"/><rect x="102.53" y="86.74" width="2.36" height="2.36" rx="0.73" ry="0.73" transform="translate(45.08 -40.81) rotate(30)" fill="#be1e2d" stroke="#231f20" stroke-linecap="round" stroke-linejoin="round" stroke-width="0.55"/><line x1="86.19" y1="84.97" x2="85.77" y2="83.53" fill="none" stroke="#fff100" stroke-linecap="round" stroke-linejoin="round" stroke-width="0.55"/><rect x="75.74" y="85.15" width="2.93" height="2.93" rx="0.81" ry="0.81" transform="translate(100.84 -24.29) rotate(60)" fill="#be1e2d" stroke="#231f20" stroke-linecap="round" stroke-linejoin="round" stroke-width="0.55"/><line x1="88.05" y1="85.15" x2="85.58" y2="86.26" fill="none" stroke="#fff100" stroke-linecap="round" stroke-linejoin="round" stroke-width="0.55"/><line x1="91.44" y1="83.04" x2="88.65" y2="83.3" fill="none" stroke="#fff100" stroke-linecap="round" stroke-linejoin="round" stroke-width="0.55"/><path d="M102.66,88.63a1.14,1.14,0,0,1,1.41.53,1.13,1.13,0,0,1,.9-0.3,1.14,1.14,0,0,1,1,1.25,1.12,1.12,0,0,1-.43.78,1.14,1.14,0,0,1-.87,2l-0.14,0a1.14,1.14,0,0,1-1.21.83,1.18,1.18,0,0,1-.42-0.13,1.14,1.14,0,0,1-1,.4,1.12,1.12,0,0,1-.66-0.3,1.14,1.14,0,0,1-1.84-1,1.12,1.12,0,0,1,.74-0.95,0.67,0.67,0,0,1,0-.25,1.12,1.12,0,0,1-.8-1.2,1.14,1.14,0,0,1,1.13-1,1.15,1.15,0,0,1-.06-0.49,1.13,1.13,0,0,1,1.24-1A1.14,1.14,0,0,1,102.66,88.63Z" transform="translate(-12.77 -0.73)" fill="#8a5d3b" stroke="#231f20" stroke-linecap="round" stroke-linejoin="round" stroke-width="0.55"/><rect x="97.48" y="85.91" width="2.93" height="2.93" rx="0.81" ry="0.81" transform="translate(-43.2 60.45) rotate(-30)" fill="#be1e2d" stroke="#231f20" stroke-linecap="round" stroke-linejoin="round" stroke-width="0.55"/><rect x="93.36" y="81.12" width="2.93" height="2.93" rx="0.81" ry="0.81" transform="translate(-17.67 5.25) rotate(-3.52)" fill="#be1e2d" stroke="#231f20" stroke-linecap="round" stroke-linejoin="round" stroke-width="0.55"/><rect x="84.68" y="77.83" width="2.93" height="2.93" rx="0.81" ry="0.81" transform="translate(49.05 -35.97) rotate(35.38)" fill="#be1e2d" stroke="#231f20" stroke-linecap="round" stroke-linejoin="round" stroke-width="0.55"/><line x1="83.63" y1="83.59" x2="85.27" y2="81.45" fill="none" stroke="#fff100" stroke-linecap="round" stroke-linejoin="round" stroke-width="0.55"/><line x1="76.05" y1="79.38" x2="77.7" y2="77.24" fill="none" stroke="#fff100" stroke-linecap="round" stroke-linejoin="round" stroke-width="0.55"/><path d="M102.55,94.06H79.48c-2.29,0-3.89-2.87-3-5.5,1.76-5.5,6.1-9.39,11.17-9.39a12.07,12.07,0,0,1,3.62.59l-0.13,0c4.12,1.54,7.3,5.74,8.25,11C99.69,92.68,101,94.06,102.55,94.06Z" transform="translate(-12.77 -0.73)" fill="#ffebae" stroke="#231f20" stroke-linecap="round" stroke-linejoin="round" stroke-width="0.55"/><path d="M78.51,86.9a12,12,0,0,1,6.25-6" transform="translate(-12.77 -0.73)" fill="none" stroke="#fff" stroke-linecap="round" stroke-linejoin="round" stroke-width="0.55"/><path d="M101.26,94.06H79.48c-2.13,0-3.66-2.48-3.17-4.95a3.49,3.49,0,0,0,3.17,3.1h20.67C100.25,92.82,101.26,93.43,101.26,94.06Z" transform="translate(-12.77 -0.73)" fill="#231f20" stroke="#231f20" stroke-linecap="round" stroke-linejoin="round" stroke-width="0.55" opacity="0.1"/><circle cx="77.5" cy="86.79" r="0.62" fill="#231f20" opacity="0.1"/><circle cx="69.23" cy="84.43" r="0.62" fill="#231f20" opacity="0.1"/><circle cx="71.81" cy="87.76" r="0.62" fill="#231f20" opacity="0.1"/><circle cx="66.85" cy="88.38" r="0.62" fill="#231f20" opacity="0.1"/><circle cx="79.1" cy="83.3" r="0.62" fill="#231f20" opacity="0.1"/><circle cx="82.05" cy="88.04" r="0.62" fill="#231f20" opacity="0.1"/><circle cx="74.18" cy="82.05" r="0.62" fill="#231f20" opacity="0.1"/><line x1="88.51" y1="80.95" x2="86.96" y2="81.85" fill="none" stroke="#fff100" stroke-linecap="round" stroke-linejoin="round" stroke-width="0.55"/><line x1="83.18" y1="79.29" x2="81.43" y2="79.48" fill="none" stroke="#fff100" stroke-linecap="round" stroke-linejoin="round" stroke-width="0.55"/><path d="M124.84,60.36s13.39,6.72,21.66,5.08,7-11.39,1-9.87c-3.7.95-14,2-19.43,0.22S121.4,58.82,124.84,60.36Z" transform="translate(-12.77 -0.73)" fill="#f9a41e"/><path d="M124.84,60.36s13.39,6.72,21.66,5.08,7-11.39,1-9.87c-3.7.95-14,2-19.43,0.22S121.4,58.82,124.84,60.36Z" transform="translate(-12.77 -0.73)" fill="none" stroke="#231f20" stroke-linecap="round" stroke-linejoin="round" stroke-width="0.7"/><path d="M141.49,56.49a15.85,15.85,0,0,1-8.15,7.28l-3-1s8.81-4,10-6.3h1.07Z" transform="translate(-12.77 -0.73)" fill="#231f20" stroke="#231f20" stroke-linecap="round" stroke-linejoin="round" stroke-width="0.7" opacity="0.1"/><path d="M86.07,46.43a19.31,19.31,0,0,0-4.15-4,18.09,18.09,0,0,1-.14-8.65,43.43,43.43,0,0,1,6.39,8.63C89.85,44.84,88.37,49.35,86.07,46.43Z" transform="translate(-12.77 -0.73)" fill="#231f20" stroke="#231f20" stroke-linecap="round" stroke-linejoin="round" stroke-width="0.7" opacity="0.1"/><path d="M88.17,42.38s-5.32-9.7-10.77-11.69c-7.94-2.89-9.79,3.88-6.74,7,3.81,3.87,8.78.32,15.41,8.76C88.37,49.35,89.85,44.84,88.17,42.38Z" transform="translate(-12.77 -0.73)" fill="#f9a41e"/><path d="M88.17,42.38s-5.32-9.7-10.77-11.69c-7.94-2.89-9.79,3.88-6.74,7,3.81,3.87,8.78.32,15.41,8.76C88.37,49.35,89.85,44.84,88.17,42.38Z" transform="translate(-12.77 -0.73)" fill="none" stroke="#231f20" stroke-linecap="round" stroke-linejoin="round" stroke-width="0.7"/><path d="M86.86,47.21A19.2,19.2,0,0,0,83,43.15c-0.73-2.81-.39-5,0.28-7.93A32.39,32.39,0,0,1,89,43.16C90.64,45.62,89.16,50.13,86.86,47.21Z" transform="translate(-12.77 -0.73)" fill="#231f20" stroke="#231f20" stroke-linecap="round" stroke-linejoin="round" stroke-width="0.7" opacity="0.1"/><g id="Layer_3" data-name="Layer 3"><path d="M68.29,45.35a13.25,13.25,0,0,1-4.61-5.63C61.36,33.88,63.1,27,59.35,27.15s-8.66,10.2-.88,17.9a26.65,26.65,0,0,0,8,5.22c0.63,0.29,6.17,2.43,9.28.7s2.17-3,1.73-3.67S70.67,47.13,68.29,45.35Z" transform="translate(-12.77 -0.73)" fill="#f9a41e"/><path d="M59.62,27.16c-1.76-.28-4.5,3-5.05,6a14.37,14.37,0,0,0,.58,6.91c0.78,1.38,1.16-1.48,3.42-2a8.66,8.66,0,0,1,4.68.45s-0.8-4.48-1.16-7S61.44,27.58,59.62,27.16Z" transform="translate(-12.77 -0.73)" fill="#fff"/><path d="M68.29,45.35a13.25,13.25,0,0,1-4.61-5.63C61.36,33.88,63.1,27,59.35,27.15s-8.66,10.2-.88,17.9a26.65,26.65,0,0,0,8,5.22c0.63,0.29,6.17,2.43,9.28.7s2.17-3,1.73-3.67S70.67,47.13,68.29,45.35Z" transform="translate(-12.77 -0.73)" fill="none" stroke="#231f20" stroke-linecap="round" stroke-linejoin="round" stroke-width="0.7"/></g><path d="M102,58.42s-9,3.94-24.63,4.35c-15.18.4-22.7-2.77-21.7-7.22,1.21-5.41,6.08-3.05,9.35-2.49a16.73,16.73,0,0,0,8.94-1.26l-0.05-4.13S102.89,43.49,102,58.42Z" transform="translate(-12.77 -0.73)" fill="#f9a41e"/><path d="M93,51.45s-11.1-.43-14.46,3c-2.21,2.23-.2,4.38,2.36,4.79,5.84,0.94,16-1.93,16.63-3.44Z" transform="translate(-12.77 -0.73)" fill="#fff"/><g opacity="0.1"><path d="M83.62,47.13a20.48,20.48,0,0,0,13.26,13l3.53-3.49L88.89,47.05Z" transform="translate(-12.77 -0.73)" fill="#231f20" stroke="#231f20" stroke-linecap="round" stroke-linejoin="round" stroke-width="0.7"/><path d="M102,58.42s-9,3.94-24.63,4.35c-15.18.4-22.69-2-21.7-7.22,0.34-1.87,1.18-2.81,2.27-3.21-0.57,5,6.94,7.25,21.75,6.85a79.53,79.53,0,0,0,22.12-3.44A9.78,9.78,0,0,1,102,58.42Z" transform="translate(-12.77 -0.73)" fill="#231f20" stroke="#231f20" stroke-linecap="round" stroke-linejoin="round" stroke-width="0.7"/></g><path d="M102,58.42s-9,3.94-24.63,4.35c-15.18.4-22.69-2-21.7-7.22,1-5.42,6.07-3,9.35-2.49a53,53,0,0,0,8.55.59l0.34-6S102.89,43.49,102,58.42Z" transform="translate(-12.77 -0.73)" fill="none" stroke="#231f20" stroke-linecap="round" stroke-linejoin="round" stroke-width="0.7"/><path d="M114.37,12.09a22.48,22.48,0,0,0-8.79.58L94.33,1.08,92.5,19.77s-6,2.86-8.71,13.62c-3,12,6.78,24.08,21.79,28.44,19.91,5.79,37.36.12,38.45-13.54,0.57-7.11-4.6-8.81-4.6-8.81a19.35,19.35,0,0,0-.62-10.63,20.7,20.7,0,0,0-6.35-9.5L132.14,7.62l-9.61,6.49A48.12,48.12,0,0,0,114.37,12.09Z" transform="translate(-12.77 -0.73)" fill="#f9a41e"/><path d="M121.54,40.73c-7.35-.05-23.58-11-28.95,0-5.87,12,3.58,18.5,13,21.14C133.2,69.57,144.05,56,144,48.29c0-5.77-1.61-7.61-4.6-8.81C132.47,36.68,128.89,40.79,121.54,40.73Z" transform="translate(-12.77 -0.73)" fill="#fff"/><path d="M142,45a54.72,54.72,0,0,0,6.93,0,14.85,14.85,0,0,0,4.91-1.5" transform="translate(-12.77 -0.73)" fill="none" stroke="#231f20" stroke-linecap="round" stroke-linejoin="round" stroke-width="0.7"/><path d="M141,50a22.72,22.72,0,0,0,5.27,2,27,27,0,0,0,4.54.61" transform="translate(-12.77 -0.73)" fill="none" stroke="#231f20" stroke-linecap="round" stroke-linejoin="round" stroke-width="0.7"/><path d="M114.37,12.09a22.48,22.48,0,0,0-8.79.58L94.33,1.08,92.5,19.77s-6,2.86-8.71,13.62c-3,12,6.78,24.08,21.79,28.44,19.91,5.79,37.36.12,38.45-13.54,0.57-7.11-4.6-8.81-4.6-8.81a19.35,19.35,0,0,0-.62-10.63,20.7,20.7,0,0,0-6.35-9.5L132.14,7.62l-9.61,6.49A48.12,48.12,0,0,0,114.37,12.09Z" transform="translate(-12.77 -0.73)" fill="none" stroke="#231f20" stroke-linecap="round" stroke-linejoin="round" stroke-width="0.7"/><path d="M74.16,36a58.67,58.67,0,0,0,5.7,1.52c1.82,0.29,5.41.59,5.41,0.59" transform="translate(-12.77 -0.73)" fill="none" stroke="#231f20" stroke-linecap="round" stroke-linejoin="round" stroke-width="0.7"/><path d="M86.29,34.33a34.25,34.25,0,0,0-5.17-4.59,35.47,35.47,0,0,0-5.69-3.57" transform="translate(-12.77 -0.73)" fill="none" stroke="#231f20" stroke-linecap="round" stroke-linejoin="round" stroke-width="0.7"/><path d="M136.67,28.51c1.87,4.93.9,9.88-2.17,11s-7.08-1.88-9-6.82-0.91-9.88,2.17-11S134.8,23.58,136.67,28.51Z" transform="translate(-12.77 -0.73)" fill="#fff" stroke="#231f20" stroke-linecap="round" stroke-linejoin="round" stroke-width="0.7"/><path d="M135.11,31.22a1.78,1.78,0,1,1-1.88-1.82,1.85,1.85,0,0,1,1.88,1.82" transform="translate(-12.77 -0.73)" fill="#231f20"/><path d="M112.89,26.6c1.88,4.93.45,10.05-3.18,11.43s-8.1-1.5-10-6.43-0.45-10.05,3.18-11.43S111,21.67,112.89,26.6Z" transform="translate(-12.77 -0.73)" fill="#fff" stroke="#231f20" stroke-linecap="round" stroke-linejoin="round" stroke-width="0.7"/><path d="M111.07,29.49a1.78,1.78,0,1,1-1.32-2.26,1.86,1.86,0,0,1,1.32,2.26" transform="translate(-12.77 -0.73)" fill="#231f20"/><path d="M121.26,38.38c1.7,0.16,4.73-.13,4.62,1.81-0.14.84-2.45,3.76-4.34,3.47s-5-3.17-4.55-4.65S119.76,38.23,121.26,38.38Z" transform="translate(-12.77 -0.73)" fill="#231f20" stroke="#231f20" stroke-linecap="round" stroke-linejoin="round" stroke-width="0.7"/><path d="M127.16,49.19c-0.27,2-13.33.92-12.8-1.55" transform="translate(-12.77 -0.73)" fill="none" stroke="#231f20" stroke-linecap="round" stroke-linejoin="round" stroke-width="0.7"/><path d="M138.6,58.68c-6.85,5.71-19.36,7.13-33,3.15-15-4.37-24.79-16.46-21.79-28.45,2.7-10.76,8.71-13.62,8.71-13.62L94.33,1.08,97,3.82,95.64,17.65s-6,2.86-8.71,13.62c-3,12,6.78,24.08,21.79,28.45C120.5,63.14,131.42,62.55,138.6,58.68Z" transform="translate(-12.77 -0.73)" fill="#231f20" stroke="#231f20" stroke-linecap="round" stroke-linejoin="round" stroke-width="0.7" opacity="0.1"/><path d="M80,49.95c-0.68,2.87-4.43,4.94-8.37,4.63S65,51.69,65.69,48.83s4.43-4.94,8.37-4.63S80.64,47.08,80,49.95Z" transform="translate(-12.77 -0.73)" fill="#f9a41e"/><path d="M80,49.95c-0.68,2.87-4.43,4.94-8.37,4.63S65,51.69,65.69,48.83s4.43-4.94,8.37-4.63S80.64,47.08,80,49.95Z" transform="translate(-12.77 -0.73)" fill="none" stroke="#231f20" stroke-linecap="round" stroke-linejoin="round" stroke-width="0.7"/><path d="M79.88,50.18c-0.82,2.74-4.47,4.7-8.3,4.41S65,51.7,65.7,48.83a4.79,4.79,0,0,1,1.44-2.38,1.65,1.65,0,0,0-.07.23C66.38,49.54,69,52.12,73,52.43A9.11,9.11,0,0,0,79.88,50.18Z" transform="translate(-12.77 -0.73)" fill="#231f20" stroke="#231f20" stroke-linecap="round" stroke-linejoin="round" stroke-width="0.7" opacity="0.1"/><line x1="92.81" y1="11.94" x2="93.79" y2="13.02" fill="none" stroke="#231f20" stroke-linecap="round" stroke-linejoin="round" stroke-width="0.7"/><polygon points="263.29 95.04 278.18 103.51 264.37 110.66 270.81 114.03 255.54 120.5 308.58 120.5 308.58 95.04 263.29 95.04" fill="#fff"/><polygon points="258.15 119.39 308.58 119.39 308.58 96.14 265.23 96.14 278.18 103.51 264.37 110.66 270.81 114.03 258.15 119.39" fill="#96ca4f"/><polygon points="260.37 109.23 263.15 113.53 256.29 115.24 260.37 109.23" fill="#6ebe4a"/><polygon points="270.31 103.72 248.13 107.23 262.23 99.08 270.31 103.72" fill="#6ebe4a"/><polygon points="253.57 111.59 251.71 116.53 244.48 113.31 253.57 111.59" fill="#6ebe4a"/><polygon points="271.38 111.17 280.4 114.31 286.89 104.57 271.38 111.17" fill="#6ebe4a"/><polygon points="294.06 104.94 288.57 100.94 289.34 108.02 294.06 104.94" fill="#6ebe4a"/><path d="M332.73,121.58l-8-9.36-12.36.1v0.55h0.15a19.64,19.64,0,0,0,.48,2c-1.77-.1-9.48-0.53-13-0.08a4.1,4.1,0,0,0-3.69,3.81c0,0.82.39,3.55,5.54,4.24a70.16,70.16,0,0,0,9.08.51c3.23,0,6.74-.15,10.35-0.44h0l0.24,0h0c3.54-.29,7.16-0.72,10.69-1.28Z" transform="translate(-12.77 -0.73)"/><path d="M315.84,112.84h0c0.09,3,2.91,7.82,4.83,9.61h0c-1.1.08-2.19,0.16-3.27,0.22a22.67,22.67,0,0,1-4.5-9.8Z" transform="translate(-12.77 -0.73)" fill="#88c97a"/><path d="M303.33,121.52c-2.29-.16-3.51-1.11-3.5-2,0-.61.64-1.23,2-1.33A10.58,10.58,0,0,0,303.33,121.52Z" transform="translate(-12.77 -0.73)" fill="#fff"/><path d="M313.17,115.48l-1.25-.07a23.22,23.22,0,0,0,3.35,7.35l1.65-.07A22.78,22.78,0,0,1,313.17,115.48Z" transform="translate(-12.77 -0.73)" fill="#ccc"/><path d="M303.47,115.2a8.68,8.68,0,0,0,.47,3.59,7.24,7.24,0,0,0,2.77,4c2.61,0.13,5.5.13,8.56,0a23.22,23.22,0,0,1-3.35-7.35C310,115.31,306.45,115.16,303.47,115.2Z" transform="translate(-12.77 -0.73)" fill="#fff"/><path d="M322.05,112.79l-1.84,0c0.69,3.1,3.91,8,6,9.12q1.49-.17,3-0.37A22.18,22.18,0,0,1,322.05,112.79Z" transform="translate(-12.77 -0.73)" fill="#88c97a"/><path d="M324.46,112.77l-2.41,0a22.18,22.18,0,0,0,7.09,8.76l2.52-.36Z" transform="translate(-12.77 -0.73)" fill="#6aa562"/><ellipse cx="298.51" cy="112.68" rx="6.8" ry="4.85"/><path d="M310.5,115.91c-1.74,0-3.08-.94-3.19-1.89-0.08-.75.65-1.3,2-1.53A10.46,10.46,0,0,0,310.5,115.91Z" transform="translate(-12.77 -0.73)" fill="#fff"/><path d="M313.91,117.31c-1.24-.72-2.36-2.71-2.83-5.08a11,11,0,0,1-.19-3.09h0.39c3.45,0,6.25,1.93,6.25,4.3C317.53,115.14,316,116.62,313.91,117.31Z" transform="translate(-12.77 -0.73)" fill="#fff"/><path d="M371.1,128.92l-0.39,0c-1.37-.19-2.77-1.33-4.29-3.5-2.34-3.32-6.32-3.52-9.51-3.69h-0.26v-3.28l0.2-.06c0.45-.14,11-3.31,16.08,1.87a5.81,5.81,0,0,1,1.73,4.47,4.9,4.9,0,0,1-1.49,3.41A3.24,3.24,0,0,1,371.1,128.92Z" transform="translate(-12.77 -0.73)"/><path d="M372.53,120.61a8.54,8.54,0,0,0-3.68-2.15,24.88,24.88,0,0,1-4.86,4.12,7.89,7.89,0,0,1,2.89,2.5c1.41,2,2.73,3.1,3.92,3.27a2.56,2.56,0,0,0,2-.67,4.36,4.36,0,0,0,1.29-3A5.26,5.26,0,0,0,372.53,120.61Z" transform="translate(-12.77 -0.73)" fill="#ffdcc7"/><path d="M368.85,118.46c-4.66-1.43-10.51.05-11.65,0.37v2.34a16.56,16.56,0,0,1,6.79,1.41A24.88,24.88,0,0,0,368.85,118.46Z" transform="translate(-12.77 -0.73)" fill="#ccb09f"/><path d="M321.34,112.27l-0.52-.43c-4.82-4-7.3-4.5-9.92-5a20.58,20.58,0,0,1-3.85-1.06,3.79,3.79,0,0,1-2.57-2.66,3.61,3.61,0,0,1,.94-3.18,6.33,6.33,0,0,1,5.48-1.81c3.68,0.4,7.48,3.09,9.7,6.84l0,0.11Z" transform="translate(-12.77 -0.73)"/><path d="M310.84,98.64a7.81,7.81,0,0,0-.85,0,5.56,5.56,0,0,0-4.17,1.68A3.05,3.05,0,0,0,305,103a3.33,3.33,0,0,0,2.24,2.27,20.14,20.14,0,0,0,3.76,1,17.19,17.19,0,0,1,5.51,1.88,18.38,18.38,0,0,1-2.08-8.36A10.39,10.39,0,0,0,310.84,98.64Z" transform="translate(-12.77 -0.73)" fill="#ffdcc7"/><path d="M320.09,105.17a14.42,14.42,0,0,0-5.64-5.39,18.38,18.38,0,0,0,2.08,8.36,28.29,28.29,0,0,1,4.14,2.85Z" transform="translate(-12.77 -0.73)" fill="#ccb09f"/><path d="M377.71,97.45a11.9,11.9,0,0,1-5.85-.53h0a18,18,0,0,0-.8-1.79A19.35,19.35,0,0,0,370,93.24c-4.41-6.81-12.92-11.44-22.67-11.44a29.84,29.84,0,0,0-7.41.92h0a13,13,0,0,0-6.21-1.57h-0.52L334,82.38a17.54,17.54,0,0,0-5.24-.12l-1.13.17,1.08,0.36a26,26,0,0,1,5,2.33h0a24.92,24.92,0,0,0-7.18,5.66c-0.39.44-.75,0.9-1.09,1.37a22.26,22.26,0,0,0-1.47,2.28,21.25,21.25,0,0,1-9,.73l-0.29,0,0,0.29c0,0.17-1.25,16.82,16.43,25.63h0a29.25,29.25,0,0,0,33.77-.88h0C377.84,113,378,97.88,378,97.72V97.41Z" transform="translate(-12.77 -0.73)"/><path d="M364.24,117.85a6.49,6.49,0,0,1-.8,0c-2.38-.3-4.45-2-5.81-4.65a16.53,16.53,0,0,1-1.39-9.46c0-.08,0-0.17,0-0.25l-0.46.47-0.62.63a19.8,19.8,0,0,0,.44-5.12,6.25,6.25,0,0,1,.39,3.48l0.41-.43,0.74-.77h0c2.18-2.29,4.44-4.75,5.79-6.22-0.75-.2-1.5-0.4-2.26-0.57l-0.62-.14c-1.13-.25-2.27-0.46-3.43-0.64l-0.12,0-0.07-.1a36.46,36.46,0,0,0-5-6.06,21.8,21.8,0,0,1,.16,5.37l0,0.25-0.26,0a64.41,64.41,0,0,0-7.29,0l-0.72,0-0.55,0c0.57,0.44,1.2,1,1.9,1.59,0.47,0.43,1,.9,1.52,1.42a66.21,66.21,0,0,1,5.48,6.09,21.67,21.67,0,0,0,.59-3.37A10.83,10.83,0,0,1,352,104l-0.35-.45a69.69,69.69,0,0,0-4.74-5.43,14,14,0,0,1-6.65,17.43,14.2,14.2,0,0,1-6.53,1.6,14.45,14.45,0,0,1-8.58-2.84,22.92,22.92,0,0,0,6.18,6.32c0.6,0.42,1.23.82,1.88,1.19a28.38,28.38,0,0,0,14.14,3.68,27.83,27.83,0,0,0,17-5.61l0.18-.14h0a23.81,23.81,0,0,0,2.79-2.6A6.83,6.83,0,0,1,364.24,117.85Zm-15.7-.09c-1.25-1.3-1.12-4-.39-4.52-0.48,2.77.65,5.72,3.83,4.45C351.89,118.41,349.77,119,348.54,117.76Z" transform="translate(-12.77 -0.73)" fill="#ffdcc7"/><path d="M323.11,103a11.29,11.29,0,0,1,4.34-6.64c-1.71.49-3.2,1-4.41,1.4A18.37,18.37,0,0,0,322,103.9a18.81,18.81,0,0,0,2.27,8.92,13.6,13.6,0,0,0,5.32,3.1l0.11,0A11.65,11.65,0,0,1,323.11,103Z" transform="translate(-12.77 -0.73)" fill="#fff"/><path d="M346.62,107.06A13.32,13.32,0,0,0,345.75,97h0a38,38,0,0,0-3.83-3.28c-1.67.14-3.29,0.33-4.83,0.56l0.19,0A11.8,11.8,0,0,1,346.62,107.06Z" transform="translate(-12.77 -0.73)" fill="#fff"/><path d="M340,115a13.37,13.37,0,0,0,6.66-7.94v0a11.8,11.8,0,0,0-9.34-12.79l-0.19,0a77.66,77.66,0,0,0-9.64,2.09,11.29,11.29,0,0,0-4.34,6.64,11.65,11.65,0,0,0,6.56,13A13.6,13.6,0,0,0,340,115Zm-14.34-10.66a9.56,9.56,0,1,1,7.94,10.9A9.54,9.54,0,0,1,325.62,104.35Z" transform="translate(-12.77 -0.73)" fill="#88c97a"/><path d="M344.51,107.36a9.56,9.56,0,1,0-10.94,7.88A9.54,9.54,0,0,0,344.51,107.36Zm-12.74-.31a3.16,3.16,0,1,1,3.16,3.16A3.16,3.16,0,0,1,331.77,107.05Z" transform="translate(-12.77 -0.73)"/><circle cx="322.15" cy="106.32" r="3.16" fill="#fff"/><path d="M371.95,98.9a51.47,51.47,0,0,0-8.4-3.25h0l-0.4.44a6,6,0,0,1,1,.13c4.44,1,7.11,5.6,6.36,11.25s-4.63,9.57-8.79,9.22a5.77,5.77,0,0,0,1.79.55,6.63,6.63,0,0,0,5.06-1.64,19.22,19.22,0,0,0,4.07-11.71A18.32,18.32,0,0,0,371.95,98.9Z" transform="translate(-12.77 -0.73)" fill="#fff"/><path d="M370.51,107.48c0.75-5.65-1.93-10.23-6.36-11.25a6,6,0,0,0-1-.13l-1.63,1.77a5.56,5.56,0,0,1,.89,0c3.87,0.29,6.71,4.52,6.34,9.46s-3.8,8.7-7.67,8.41a5.56,5.56,0,0,1-1-.18,6.7,6.7,0,0,0,1.65,1.15C365.87,117.05,369.78,113,370.51,107.48Z" transform="translate(-12.77 -0.73)" fill="#88c97a"/><path d="M356.78,103.76a19.15,19.15,0,0,0-.15,2.37,15.15,15.15,0,0,0,1.49,6.77,9.43,9.43,0,0,0,1.94,2.65,5.56,5.56,0,0,0,1,.18c3.87,0.29,7.3-3.48,7.67-8.41s-2.47-9.17-6.34-9.46a5.56,5.56,0,0,0-.89,0c-1.36,1.48-3,3.25-4.57,4.87C356.88,103.08,356.83,103.42,356.78,103.76Zm0.83,2.63A2.66,2.66,0,1,1,359.5,110,2.94,2.94,0,0,1,357.61,106.39Z" transform="translate(-12.77 -0.73)"/><ellipse cx="360.17" cy="106.94" rx="3.18" ry="2.61" transform="translate(167.55 436.07) rotate(-77.94)" fill="#fff"/><path d="M253.17,49.34h-29a2.86,2.86,0,1,0,0,5.71h5.38a6.12,6.12,0,0,0-1.13,6.23H216a4.6,4.6,0,0,0-4.64,4.19,4.49,4.49,0,0,0,4.48,4.79H269.5V49.34H253.17Z" transform="translate(-12.77 -0.73)" fill="#65cbe6"/><path d="M224.15,49.34H269.5v-1H225.39a3.84,3.84,0,0,0-3.29,1.86A2.85,2.85,0,0,1,224.15,49.34Z" transform="translate(-12.77 -0.73)" fill="#fff"/><path d="M268.26,70.27H215.87a4.48,4.48,0,0,1-3.38-1.54,5.46,5.46,0,0,0,4.62,2.53H269.5v-1h-1.24Z" transform="translate(-12.77 -0.73)" fill="#fff"/><path d="M247.67,64.22H232.84a3,3,0,0,1,0-6.07h14.83A3,3,0,1,1,247.67,64.22Z" transform="translate(-12.77 -0.73)" fill="#98d8e5"/><path d="M247.36,59.57h-5.29a1.7,1.7,0,0,1,0-3.41h5.29A1.7,1.7,0,0,1,247.36,59.57Z" transform="translate(-12.77 -0.73)" fill="#4bb6e8"/><path d="M247.36,59.57h-5.29a1.7,1.7,0,0,1,0-3.41h5.29A1.7,1.7,0,0,1,247.36,59.57Z" transform="translate(-12.77 -0.73)" fill="#4bb6e8"/><path d="M247.36,59.57h-5.29a1.7,1.7,0,0,1,0-3.41h5.29A1.7,1.7,0,0,1,247.36,59.57Z" transform="translate(-12.77 -0.73)" fill="#4bb6e8"/><path d="M256.44,55.28h-5.29a1.7,1.7,0,1,1,0-3.41h5.29A1.7,1.7,0,1,1,256.44,55.28Z" transform="translate(-12.77 -0.73)" fill="#4bb6e8"/><path d="M237.29,55.28H232a1.7,1.7,0,0,1,0-3.41h5.29A1.7,1.7,0,0,1,237.29,55.28Z" transform="translate(-12.77 -0.73)" fill="#4bb6e8"/><path d="M207.89,64.57h-5.29a2.41,2.41,0,1,1,0-4.82h5.29A2.41,2.41,0,1,1,207.89,64.57Z" transform="translate(-12.77 -0.73)" fill="#4bb6e8"/><path d="M224.9,59.52h-5.29a1.73,1.73,0,1,1,0-3.47h5.29A1.73,1.73,0,1,1,224.9,59.52Z" transform="translate(-12.77 -0.73)" fill="#4bb6e8"/><path d="M216.07,56H205.49a2.41,2.41,0,1,1,0-4.82h10.57A2.41,2.41,0,1,1,216.07,56Z" transform="translate(-12.77 -0.73)" fill="#4bb6e8"/><path d="M216.07,56H205.49a2.41,2.41,0,1,1,0-4.82h10.57A2.41,2.41,0,1,1,216.07,56Z" transform="translate(-12.77 -0.73)" fill="#4bb6e8"/><path d="M278.13,72.19l-7.19-8.4-11.09.09v0.5H260a17.62,17.62,0,0,0,.43,1.84,88.67,88.67,0,0,0-11.63-.07,3.68,3.68,0,0,0-3.31,3.42c0,0.74.35,3.18,5,3.8a63,63,0,0,0,8.15.46c2.9,0,6-.13,9.28-0.4h0l0.22,0h0c3.17-.26,6.42-0.65,9.58-1.15Z" transform="translate(-12.77 -0.73)"/><path d="M250.42,69.15a9.5,9.5,0,0,0,1.33,3c-2.05-.15-3.15-1-3.14-1.8C248.61,69.8,249.18,69.25,250.42,69.15Z" transform="translate(-12.77 -0.73)" fill="#fff"/><path d="M264.38,73.17a20.34,20.34,0,0,1-4-8.8l2.63,0h0c0.08,2.71,2.63,7,4.34,8.62C266.33,73.06,265.35,73.12,264.38,73.17Z" transform="translate(-12.77 -0.73)" fill="#85b4ec"/><path d="M251.88,66.47a7.79,7.79,0,0,0,.42,3.23,6.5,6.5,0,0,0,2.49,3.55c2.34,0.11,4.95.11,7.7,0a20.8,20.8,0,0,1-3-6.6C257.72,66.57,254.54,66.43,251.88,66.47Z" transform="translate(-12.77 -0.73)" fill="#fff"/><path d="M260.58,66.72l-1.13-.06a20.8,20.8,0,0,0,3,6.6l1.47-.06A20.44,20.44,0,0,1,260.58,66.72Z" transform="translate(-12.77 -0.73)" fill="#ccc"/><path d="M267.68,64.31H266.9c0.62,2.78,3.51,7.15,5.35,8.18l2.25-.28A20.28,20.28,0,0,1,267.68,64.31Z" transform="translate(-12.77 -0.73)" fill="#85b4ec"/><path d="M270.72,64.29l-3,0a20.28,20.28,0,0,0,6.83,7.91q1.34-.18,2.68-0.38Z" transform="translate(-12.77 -0.73)" fill="#488ac7"/><ellipse cx="246.11" cy="64.14" rx="6.1" ry="4.35"/><path d="M258.19,67.11c-1.57,0-2.77-.85-2.86-1.69-0.07-.67.58-1.17,1.76-1.38A9.38,9.38,0,0,0,258.19,67.11Z" transform="translate(-12.77 -0.73)" fill="#fff"/><path d="M261.25,68.36c-1.12-.65-2.12-2.43-2.54-4.56a9.9,9.9,0,0,1-.17-2.78h0.35c3.09,0,5.61,1.73,5.61,3.86C264.5,66.42,263.16,67.75,261.25,68.36Z" transform="translate(-12.77 -0.73)" fill="#fff"/><path d="M312.17,77.94H312c-1.24-.06-2.58-1-4.1-2.8-2.34-2.79-5.91-2.67-8.78-2.58h-0.24l-0.25-2.93,0.17-.07c0.39-.16,9.62-3.79,14.52.46a5.21,5.21,0,0,1,1.89,3.87A4.4,4.4,0,0,1,314.17,77,2.84,2.84,0,0,1,312.17,77.94Z" transform="translate(-12.77 -0.73)"/><path d="M313,70.39h0a7.62,7.62,0,0,0-3.38-1.63,22.22,22.22,0,0,1-4.51,3.88,7.16,7.16,0,0,1,3.16,2.17c1.41,1.69,2.67,2.57,3.75,2.63a2.29,2.29,0,0,0,1.77-.75,3.91,3.91,0,0,0,.92-2.79A4.73,4.73,0,0,0,313,70.39Z" transform="translate(-12.77 -0.73)" fill="#ffdcc7"/><path d="M309.66,68.76c-4.29-1-9.47.82-10.47,1.19L299.36,72l1.42,0a13,13,0,0,1,4.37.62A22.22,22.22,0,0,0,309.66,68.76Z" transform="translate(-12.77 -0.73)" fill="#ccb09f"/><path d="M268.43,62.37L268,61.68c-3-4.56-5.45-5-8-5.44a12.56,12.56,0,0,1-3.74-1.08,3.19,3.19,0,0,1-2-2.41,3.45,3.45,0,0,1,1.22-2.92,6,6,0,0,1,5.32-1.27A11.45,11.45,0,0,1,268.4,55l0,0.11v7.22Z" transform="translate(-12.77 -0.73)"/><path d="M266.66,53.11a10.27,10.27,0,0,0-6-4.07,6.82,6.82,0,0,0-1.35-.14,5.21,5.21,0,0,0-3.54,1.3,3,3,0,0,0-1.05,2.48,2.77,2.77,0,0,0,1.69,2,12,12,0,0,0,3.6,1,10,10,0,0,1,6.14,2.87c0-.43-0.06-0.86-0.06-1.3A16.19,16.19,0,0,1,266.66,53.11Z" transform="translate(-12.77 -0.73)" fill="#ffdcc7"/><path d="M267.93,60.75V55.21a12.69,12.69,0,0,0-1.27-2.1,16.19,16.19,0,0,0-.56,4.22c0,0.44,0,.87.06,1.3A15.93,15.93,0,0,1,267.93,60.75Z" transform="translate(-12.77 -0.73)" fill="#ccb09f"/><circle cx="296.3" cy="44.26" r="3.01"/><circle cx="296.3" cy="44.26" r="2.52" fill="#488ac7"/><path d="M306.07,44.46a13.61,13.61,0,0,1-3.11-.38c-8.64-2-10.47-7.26-10.86-9.41-0.5-2.76.35-5.57,2-6.68h0a0.72,0.72,0,0,1,.92.08,0.73,0.73,0,0,1,.11.93,1.5,1.5,0,0,0-.21,1.59c0.43,0.65,1.72.89,3.27,0.63,0.54-.09,1.21-0.28,1.92-0.49a15.9,15.9,0,0,1,5.7-.87c3.69,0.34,6.46,2.15,7.6,5a6.85,6.85,0,0,1-1.11,7.06A8,8,0,0,1,306.07,44.46Z" transform="translate(-12.77 -0.73)"/><path d="M294.38,28.41c-1.29.86-2.33,3.26-1.8,6.18,0.37,2.05,2.13,7,10.48,9,3.77,0.89,7,.15,8.87-2A6.36,6.36,0,0,0,313,35c-1.07-2.63-3.69-4.33-7.18-4.65a15.49,15.49,0,0,0-5.52.85,20.23,20.23,0,0,1-2,.5c-1.77.31-3.22,0-3.77-.84a1.85,1.85,0,0,1,.2-2.13,0.24,0.24,0,0,0,0-.31,0.23,0.23,0,0,0-.3,0h0Z" transform="translate(-12.77 -0.73)" fill="#ffd13e"/><circle cx="294.84" cy="43.08" r="3.21"/><circle cx="294.84" cy="43.08" r="2.72" fill="#488ac7"/><circle cx="294.97" cy="43.41" r="2.38" fill="#3a6e9f"/><circle cx="266.21" cy="38.81" r="3.31"/><circle cx="266.21" cy="38.81" r="2.82" fill="#488ac7"/><path d="M309.47,45.57c-0.2-.22-0.4-0.44-0.61-0.66a25.84,25.84,0,0,0-18.67-7.45c-8.58,0-16.1,3.74-20.27,9.32a17.83,17.83,0,0,0-2.13,3.7,16,16,0,0,0,.05,12.78c3.25,7.51,12,12.9,22.34,12.9,8.84,0,16.57-4,20.63-9.85A17.47,17.47,0,0,0,312.18,64a16.18,16.18,0,0,0,1.71-7.22A17,17,0,0,0,309.47,45.57Z" transform="translate(-12.77 -0.73)"/><path d="M290.2,38a25.54,25.54,0,0,1,17.9,6.87l0.54,0.54a18.42,18.42,0,0,1,2.91,4.06,16.71,16.71,0,0,1-8.61-1.6l-0.46-.22a21.57,21.57,0,0,1-7.21-6L295,41.29l-0.17.41c-0.91,2.15-3.78,4.25-7.51,5.51l-0.52.17-0.62.19c-5.46,1.55-10.91,1-14.72-1.45L271.23,46c0.22-.26.45-0.51,0.69-0.75A25.42,25.42,0,0,1,290.2,38Z" transform="translate(-12.77 -0.73)" fill="#ffd13e"/><path d="M290.2,75.67c-9,0-16.86-4.21-20.7-10.33a11.62,11.62,0,0,0,4.86,3,11.82,11.82,0,0,0,3.51.54,12.09,12.09,0,0,0,5.89-1.55,13.24,13.24,0,0,0,3.91-19.67c3.59-1.25,6.34-3.22,7.44-5.35a22.64,22.64,0,0,0,7,5.73,13.2,13.2,0,0,0-1.84,3.13,16.61,16.61,0,0,0-1.16,4.36c-0.82,6.43,2.08,12.11,6.47,12.67a4.87,4.87,0,0,0,.71,0,6.28,6.28,0,0,0,3.14-.9C305.29,72.35,298.21,75.67,290.2,75.67Z" transform="translate(-12.77 -0.73)" fill="#ffdcc7"/><path d="M302.61,48.23a12.36,12.36,0,0,0-1.48,2.31,5.84,5.84,0,0,1,3-1.67C303.6,48.68,303.09,48.47,302.61,48.23Z" transform="translate(-12.77 -0.73)" fill="#fff"/><path d="M311.79,49.92c-0.55,0-1.09.07-1.63,0.07s-1.08,0-1.61-.08c2.58,1.73,4,5.2,3.44,9.3-0.59,4.46-3.4,7.88-6.62,8.42l0.3,0.06A6.06,6.06,0,0,0,310.44,66h0a16.12,16.12,0,0,0,3-9.2A15.73,15.73,0,0,0,311.79,49.92Z" transform="translate(-12.77 -0.73)" fill="#fff"/><path d="M312,59.2c0.54-4.09-.85-7.56-3.44-9.3a17.28,17.28,0,0,1-4.43-1,5.84,5.84,0,0,0-3,1.67,14.66,14.66,0,0,0-.82,2,5.74,5.74,0,0,1,4.41-1.71c3.51,0.26,6.09,4,5.77,8.29s-3.43,7.61-6.94,7.35a5.23,5.23,0,0,1-.72-0.11,5.51,5.51,0,0,0,2.53,1.24C308.59,67.08,311.4,63.66,312,59.2Z" transform="translate(-12.77 -0.73)" fill="#85b4ec"/><path d="M299.51,57.34a2.34,2.34,0,0,1,2.36-1.07,2.91,2.91,0,0,1-1.19,5.58,2,2,0,0,1-.67-0.3,9.53,9.53,0,0,0,2.83,4.83,5.23,5.23,0,0,0,.72.11c3.51,0.26,6.62-3,6.94-7.35s-2.26-8-5.77-8.29a5.74,5.74,0,0,0-4.41,1.71,16.6,16.6,0,0,0-.67,3A16,16,0,0,0,299.51,57.34Z" transform="translate(-12.77 -0.73)"/><path d="M303.56,59.55a2.64,2.64,0,0,0-1.7-3.28,2.34,2.34,0,0,0-2.36,1.07c0,0.11,0,.23,0,0.34a14.83,14.83,0,0,0,.5,3.87,2,2,0,0,0,.67.3A2.64,2.64,0,0,0,303.56,59.55Z" transform="translate(-12.77 -0.73)" fill="#fff"/><path d="M293.92,71.3c-1.21-.19-1.21-2.35-1.1-3.24-0.6.65-.46,3.47,1,3.63s2.1-2.49,1.6-3.47C295.43,69.33,294.8,71.43,293.92,71.3Z" transform="translate(-12.77 -0.73)" fill="#010101"/><path d="M289.93,57a12.37,12.37,0,0,0-2.76-9.2l-0.84.26q-1.09.31-2.17,0.51A10.6,10.6,0,0,1,289.93,57Z" transform="translate(-12.77 -0.73)" fill="#fff"/><path d="M269.24,55.94a10.81,10.81,0,0,1,6.2-7.58,14.47,14.47,0,0,1-4.39-1.91l-0.15-.1c-0.2.25-.4,0.5-0.59,0.76A16.19,16.19,0,0,0,267,56.81a15.61,15.61,0,0,0,1.29,6.2,11.34,11.34,0,0,0,6.22,4.81L275,68A10.69,10.69,0,0,1,269.24,55.94Z" transform="translate(-12.77 -0.73)" fill="#fff"/><path d="M283.51,66.85a12.61,12.61,0,0,0,5.9-7.32,13,13,0,0,0,.52-2.54,10.6,10.6,0,0,0-5.77-8.44,20.24,20.24,0,0,1-8.71-.2,10.81,10.81,0,0,0-6.2,7.58A10.69,10.69,0,0,0,275,68,11.4,11.4,0,0,0,283.51,66.85ZM271,57a8.66,8.66,0,1,1,7.19,9.87A8.64,8.64,0,0,1,271,57Z" transform="translate(-12.77 -0.73)" fill="#85b4ec"/><path d="M288.12,59.78a8.66,8.66,0,1,0-9.91,7.14A8.64,8.64,0,0,0,288.12,59.78Zm-11.54-.1a3,3,0,1,1,3,3A3,3,0,0,1,276.58,59.68Z" transform="translate(-12.77 -0.73)"/><circle cx="266.85" cy="58.95" r="3.04" fill="#fff"/><path d="M266.19,48.6c-4,0-8.39-1.38-10.61-5.56a8.5,8.5,0,0,1,1-9.83h0a0.72,0.72,0,0,1,.9-0.2,0.73,0.73,0,0,1,.39.86,1.27,1.27,0,0,0,.31,1.49c0.56,0.37,1.81.2,3.11-.84,2.56-2,9.34-7.48,14.73-1.91a8.17,8.17,0,0,1,2.18,7.85,10.59,10.59,0,0,1-6.48,7.28A17.9,17.9,0,0,1,266.19,48.6Z" transform="translate(-12.77 -0.73)"/><path d="M257,33.52a8,8,0,0,0-1,9.28c3.2,6,11.05,6,15.55,4.46a10.07,10.07,0,0,0,6.15-6.92A7.69,7.69,0,0,0,275.67,33c-4.54-4.7-10.2-1.14-14.06,2-1.35,1.08-2.83,1.43-3.69.87a1.67,1.67,0,0,1-.52-2,0.24,0.24,0,0,0-.13-0.29,0.23,0.23,0,0,0-.29.06h0Z" transform="translate(-12.77 -0.73)" fill="#ffd13e"/><circle cx="265.39" cy="39.89" r="3.31"/><circle cx="265.39" cy="39.89" r="2.82" fill="#488ac7"/><circle cx="265.61" cy="40.17" r="2.47" fill="#3a6e9f"/><path d="M387.44,70.22" transform="translate(-12.77 -0.73)" fill="none" stroke="#ed1f24" stroke-miterlimit="10"/><path d="M12.77,48.24V40.15a0.81,0.81,0,0,1,.81-0.81h2.09a0.81,0.81,0,0,1,.57.24l1.14,1.14A0.81,0.81,0,0,0,18,41h2.57a0.81,0.81,0,0,0,.57-0.24l1.14-1.14a0.81,0.81,0,0,1,.57-0.24H45.15a0.81,0.81,0,0,1,.81.81v8.09a0.81,0.81,0,0,1-.81.81H22.82a0.81,0.81,0,0,0-.57.24L21.1,50.43a0.81,0.81,0,0,1-.57.24H18a0.81,0.81,0,0,1-.57-0.24l-1.14-1.14A0.81,0.81,0,0,0,15.68,49H13.58A0.81,0.81,0,0,1,12.77,48.24Z" transform="translate(-12.77 -0.73)" fill="#f7bf21"/><rect x="12" y="41.09" width="9.34" height="4.88" rx="1.92" ry="1.92" fill="#fff" opacity="0.5"/><rect x="16.98" y="31.46" width="8.18" height="4.28" rx="1.92" ry="1.92" fill="#f7bf21"/><rect x="10.54" y="54.25" width="8.18" height="4.28" rx="1.92" ry="1.92" fill="#f7bf21"/><rect x="64.79" y="80.69" width="2.93" height="2.93" rx="0.81" ry="0.81" transform="translate(91.5 -17.03) rotate(60)" fill="#be1e2d" stroke="#231f20" stroke-linecap="round" stroke-linejoin="round" stroke-width="0.55"/><rect x="51.64" y="90.19" width="1.91" height="1.91" rx="0.81" ry="0.81" transform="translate(142.31 66.54) rotate(106.88)" fill="#be1e2d" stroke="#231f20" stroke-linecap="round" stroke-linejoin="round" stroke-width="0.55"/><line x1="58.94" y1="88.31" x2="60.59" y2="86.16" fill="none" stroke="#fff100" stroke-linecap="round" stroke-linejoin="round" stroke-width="0.55"/><line x1="42.28" y1="82.2" x2="44.2" y2="84.11" fill="none" stroke="#fff100" stroke-linecap="round" stroke-linejoin="round" stroke-width="0.55"/><rect x="60.6" y="86.79" width="3.48" height="1.25" transform="translate(33.17 -19.42) rotate(26.71)" fill="#37b34a" stroke="#231f20" stroke-linecap="round" stroke-linejoin="round" stroke-width="0.55"/><line x1="66.85" y1="91.39" x2="59.02" y2="91.39" fill="none" stroke="#fff" stroke-linecap="round" stroke-linejoin="round" stroke-width="1.62"/><polygon points="333.47 69.39 333.47 62.23 345.1 62.23 345.1 57.5 356.36 57.5 356.36 55.09 339.33 55.09 339.33 48.94 392.8 48.94 392.8 69.39 333.47 69.39" fill="#eca1c0"/><polygon points="343.76 48.94 377.12 48.94 385.98 48.94 385.98 47.95 339.33 47.95 339.33 48.94 343.76 48.94" fill="#fff"/><polygon points="385.86 69.39 338.38 69.39 333.47 69.39 333.47 70.39 395.68 70.39 395.68 69.39 385.86 69.39" fill="#fff"/><rect x="316.58" y="63.44" width="5.96" height="5.4" fill="#ec83af"/><rect x="326.16" y="60.1" width="13.68" height="6" fill="#ec83af"/><rect x="325.23" y="49.08" width="8.89" height="5.44" fill="#ec83af"/><rect x="347.15" y="62.15" width="13.63" height="5.3" fill="#ec83af"/><path d="M391.73,56.76h-0.54c-8.13,0-18.42-2-19.32-4.62-0.19-.54.09-1.08,0.83-1.66a0.58,0.58,0,0,0-.35-1h-0.11c-3.29,0-6,2.73-6.42,6.4-0.5,4.87,3.17,10.87,15,13.1a44.27,44.27,0,0,0,8.21.82c6.86,0,10.06-2,10.24-2.09l0.22-.14Z" transform="translate(-12.77 -0.73)"/><path d="M380.9,68.46c-7-1.32-11-4-13-6.88a16.75,16.75,0,0,0,3.08-.5,13.43,13.43,0,0,0-3.37,0,8.35,8.35,0,0,1-1.24-5.23c0-.2,0-0.39.08-0.58a11.32,11.32,0,0,0,2.79.49,18.91,18.91,0,0,0-2.68-1,6.1,6.1,0,0,1,5.73-4.88h0.1a0.09,0.09,0,0,1,.05.15c-0.92.72-1.26,1.46-1,2.22,1.06,3.07,12.31,5,19.83,5h0.24l7.28,10.12C397.58,68,391.86,70.53,380.9,68.46Z" transform="translate(-12.77 -0.73)" fill="#ff952f"/><path d="M404.39,40.41l-2.43,0c-8.14-.14-16.79-1-17.79-2.75a0.82,0.82,0,0,1,.27-1.1c7.81-7,16.09-11.29,24-12.46,6.42-1,12.35.24,16.26,3.28,3.66,2.84,4.81,6.76,3,10.23l0,0.09-0.09,0C422.52,39.43,414,40.41,404.39,40.41Z" transform="translate(-12.77 -0.73)"/><path d="M412.71,24.2c-7.84,0-17.73,3.59-27.93,12.71-0.3.27-.22,0.41-0.18,0.48,1.46,2.5,29.72,4.26,42.68-.12,1.62-3.22.51-6.86-2.92-9.52A18.84,18.84,0,0,0,412.71,24.2Z" transform="translate(-12.77 -0.73)" fill="#f45941"/><path d="M417.4,35.32h-8.56V31.7l0.13-.07a6.41,6.41,0,0,1,5.85-.24A4.67,4.67,0,0,1,417.36,35Z" transform="translate(-12.77 -0.73)"/><path d="M409.34,34.83h7.48a4.16,4.16,0,0,0-2.23-3,5.88,5.88,0,0,0-5.26.17v2.83Z" transform="translate(-12.77 -0.73)" fill="#f45941"/><path d="M384.79,40.65c-6.45,0-11.85-.68-14-2.15a2,2,0,0,1-1-1.6c0-4.54,7.75-9.46,17.63-11.21s21.89,0.1,25.7,10.55l0.08,0.23-0.23.09C406,39.18,394.27,40.65,384.79,40.65Z" transform="translate(-12.77 -0.73)"/><path d="M411.44,33.8c-17.2,4.11-35.77,5.18-41.08,2.86a1.1,1.1,0,0,1,0-.21,3.61,3.61,0,0,0,0,.45,1.52,1.52,0,0,0,.8,1.2c5.13,3.55,29.78,2.39,41.48-1.92A15.62,15.62,0,0,0,411.44,33.8Z" transform="translate(-12.77 -0.73)" fill="#c34734"/><path d="M411.44,33.8c-3.54-6-10.49-8.2-17.51-8.2a37.05,37.05,0,0,0-6.4.57c-9.16,1.62-16.68,6.15-17.19,10.27a1.1,1.1,0,0,0,0,.21C375.67,39,394.24,37.91,411.44,33.8Z" transform="translate(-12.77 -0.73)" fill="#f45941"/><path d="M438.58,69.88a18.61,18.61,0,0,1-10.73-3.38l-0.25-.17L431,63.12h0.1a44.91,44.91,0,0,0,7.38-.72c1.36-.21,2.64-0.42,3.72-0.48,3.43-.2,4.86,1.4,5,2.84,0.23,1.86-1.48,4.12-5.19,4.81A18.66,18.66,0,0,1,438.58,69.88Z" transform="translate(-12.77 -0.73)"/><path d="M446.71,64.82c-0.15-1.22-1.42-2.58-4.52-2.4-1.06.06-2.33,0.26-3.68,0.47-0.88.14-1.8,0.28-2.75,0.4A21.16,21.16,0,0,1,431.59,68a18.28,18.28,0,0,0,10.34,1.08C445.33,68.44,446.91,66.45,446.71,64.82Z" transform="translate(-12.77 -0.73)" fill="#ffdcc7"/><path d="M435.77,63.29a35,35,0,0,1-4.61.32l-2.77,2.66A17.72,17.72,0,0,0,431.59,68,21.16,21.16,0,0,0,435.77,63.29Z" transform="translate(-12.77 -0.73)" fill="#ccb09f"/><path d="M391.72,59.06l-0.46-.69c-3-4.6-5.5-5-8.12-5.49a12.67,12.67,0,0,1-3.77-1.09,3.21,3.21,0,0,1-2-2.44,3.47,3.47,0,0,1,1.23-2.94A6,6,0,0,1,384,45.12a11.55,11.55,0,0,1,7.7,6.55l0,0.11v7.28Z" transform="translate(-12.77 -0.73)"/><path d="M389.53,49.19a10.16,10.16,0,0,0-5.63-3.58,6.9,6.9,0,0,0-1.37-.14A5.26,5.26,0,0,0,379,46.78a3,3,0,0,0-1.06,2.51,2.8,2.8,0,0,0,1.7,2.06,12.11,12.11,0,0,0,3.63,1,10.28,10.28,0,0,1,5.65,2.39c0-.3,0-0.6,0-0.9A16.77,16.77,0,0,1,389.53,49.19Z" transform="translate(-12.77 -0.73)" fill="#ffdcc7"/><path d="M391.22,57.43V51.83a12.74,12.74,0,0,0-1.69-2.64,16.77,16.77,0,0,0-.67,4.68c0,0.3,0,.6,0,0.9A14.9,14.9,0,0,1,391.22,57.43Z" transform="translate(-12.77 -0.73)" fill="#ccb09f"/><path d="M387.68,70.28" transform="translate(-12.77 -0.73)" fill="none" stroke="#ed1f24" stroke-miterlimit="10" stroke-width="0.51"/><path d="M401.51,69l-7.25-8.47-11.19.09v0.5h0.14a17.77,17.77,0,0,0,.44,1.86c-1.6-.09-8.58-0.48-11.73-0.07a3.71,3.71,0,0,0-3.34,3.45c0,0.74.35,3.21,5,3.84a63.53,63.53,0,0,0,8.22.46c3,0,6.21-.14,9.53-0.42h0c3.21-.27,6.49-0.65,9.69-1.16Z" transform="translate(-12.77 -0.73)"/><path d="M386.22,61.06h0c0.08,2.74,2.65,7.1,4.38,8.7-1,.08-2,0.14-3,0.2a20.52,20.52,0,0,1-4.07-8.88Z" transform="translate(-12.77 -0.73)" fill="#f27ca5"/><path d="M374.89,68.92c-2.07-.15-3.18-1-3.17-1.81,0-.56.58-1.11,1.83-1.21A9.57,9.57,0,0,0,374.89,68.92Z" transform="translate(-12.77 -0.73)" fill="#fff"/><path d="M383.8,63.45l-1.12-.06A20.85,20.85,0,0,0,385.74,70l1.47-.06A20.61,20.61,0,0,1,383.8,63.45Z" transform="translate(-12.77 -0.73)" fill="#ccc"/><path d="M375,63.19a7.86,7.86,0,0,0,.42,3.26A6.56,6.56,0,0,0,378,70c2.37,0.11,5,.11,7.78,0a20.85,20.85,0,0,1-3.06-6.66C380.95,63.3,377.72,63.16,375,63.19Z" transform="translate(-12.77 -0.73)" fill="#fff"/><path d="M390.44,61h-0.27c0.62,2.81,3.55,7.22,5.4,8.26l1.67-.21A20.86,20.86,0,0,1,390.44,61Z" transform="translate(-12.77 -0.73)" fill="#f27ca5"/><path d="M394,61l-3.59,0a20.86,20.86,0,0,0,6.8,8.05c1.11-.14,2.21-0.29,3.31-0.46Z" transform="translate(-12.77 -0.73)" fill="#c26384"/><ellipse cx="369.32" cy="60.85" rx="6.16" ry="4.39"/><path d="M381.39,63.84c-1.58,0-2.8-.85-2.89-1.71-0.07-.68.59-1.18,1.78-1.39A9.46,9.46,0,0,0,381.39,63.84Z" transform="translate(-12.77 -0.73)" fill="#fff"/><path d="M384.47,65.11c-1.13-.65-2.14-2.45-2.57-4.61a10,10,0,0,1-.17-2.8h0.36c3.12,0,5.66,1.75,5.66,3.89C387.75,63.14,386.41,64.49,384.47,65.11Z" transform="translate(-12.77 -0.73)" fill="#fff"/><path d="M434,63.87a17.41,17.41,0,0,0,3.57-10.45c0-11-10.84-20-24.17-20-13.08,0-23.76,8.64-24.16,19.38h0a14.17,14.17,0,0,0,2.17,8.88c3.81,6.91,12.24,11.73,22,11.73,8.57,0,16.11-3.71,20.41-9.3Z" transform="translate(-12.77 -0.73)"/><path d="M413.41,33.92c9.83,0,18.28,5,21.86,12-0.93-.31-1.95-0.59-3-0.83a44.66,44.66,0,0,0-3.69-4.32l-0.71-.71,0.3,1a22.05,22.05,0,0,1,.7,3.44,68.4,68.4,0,0,0-6.84-.63,33.18,33.18,0,0,0-4.82-7.19l-0.44-.46v0.64a48.07,48.07,0,0,1-.54,6.95c-1.46,0-2.93.09-4.39,0.19h0c-2.74.17-5.46,0.46-8,.85a43.67,43.67,0,0,1,1.56-4.7l0.37-.9-0.75.61a29.35,29.35,0,0,0-5.25,5.71,47.53,47.53,0,0,0-9.06,2.67C393.4,40,402.56,33.92,413.41,33.92Z" transform="translate(-12.77 -0.73)" fill="#ff952f"/><path d="M413.41,72.92c-8.41,0-15.8-3.63-20-9.09a11,11,0,0,0,7.05,2.23H401c6.9-.2,13.09-6,13.5-12.69a14,14,0,0,0-2.31-8.93c1.43-.09,2.85-0.15,4.27-0.17h0.21l0-.21a50.47,50.47,0,0,0,.58-6.58,34,34,0,0,1,4.37,6.72l0.06,0.13h0.15q1.87,0.08,3.63.24a14,14,0,0,0-3.39,8.6,14.38,14.38,0,0,0,1.9,8.38,7.33,7.33,0,0,0,5.69,3.82H430a6.33,6.33,0,0,0,2.6-.57C428.31,69.72,421.31,72.92,413.41,72.92Z" transform="translate(-12.77 -0.73)" fill="#ffdcc7"/><path d="M417.39,68.07c-1.25-.36-1-2.5-0.72-3.37-0.72.56-1,3.37,0.57,3.74s2.55-2.17,2.15-3.21C419.23,66.34,418.29,68.33,417.39,68.07Z" transform="translate(-12.77 -0.73)" fill="#010101"/><path d="M403.48,43.93c0.36-1.26.75-2.37,1-3.09a31.42,31.42,0,0,0-3,3.11,10.9,10.9,0,0,1,1.1-.06C402.88,43.89,403.18,43.9,403.48,43.93Z" transform="translate(-12.77 -0.73)" fill="#fff"/><path d="M391.8,54.66a10.73,10.73,0,0,1,3-7.43,35.91,35.91,0,0,0-4.33,1.56l0-.06a16.23,16.23,0,0,0-.7,4.69,16.55,16.55,0,0,0,2.09,8,9.5,9.5,0,0,0,1,1.23,10.36,10.36,0,0,0,8.11,2.92,12.44,12.44,0,0,0,1.43-.13A10.77,10.77,0,0,1,391.8,54.66Z" transform="translate(-12.77 -0.73)" fill="#fff"/><path d="M411.56,44.46c-1.51.1-3,.24-4.5,0.41a10.77,10.77,0,0,1,6,12.22,11.71,11.71,0,0,0,.89-3.76A13.35,13.35,0,0,0,411.56,44.46Z" transform="translate(-12.77 -0.73)" fill="#fff"/><path d="M407.07,44.87c-1.22.14-2.44,0.3-3.61,0.48l-0.37.06,0.09-.36c0.1-.38.2-0.75,0.3-1.11-0.3,0-.6,0-0.9,0a10.9,10.9,0,0,0-1.1.06A19.93,19.93,0,0,0,400,45.87L400,46l-0.1,0q-2.76.56-5.09,1.25a10.77,10.77,0,0,0,7.59,18.2,14.06,14.06,0,0,0,10.7-8.34A10.77,10.77,0,0,0,407.07,44.87Z" transform="translate(-12.77 -0.73)" fill="#f27ca5"/><circle cx="390.05" cy="54.17" r="8.71"/><path d="M435.57,46.55a31,31,0,0,0-3.54-1l-0.09,0-0.06-.07a45.17,45.17,0,0,0-3-3.64,22.34,22.34,0,0,1,.5,2.91l0,0.32-0.32,0c-1-.15-2-0.27-3-0.38a10.64,10.64,0,0,0-1.58,2.06,5.83,5.83,0,0,1,4.57-.85c4.32,1,6.95,5.25,6.25,10.5-0.57,4.29-3.29,7.61-6.53,8.39a5.57,5.57,0,0,0,.9.14,6.07,6.07,0,0,0,3.81-1.13,17,17,0,0,0,3.61-10.33A16.4,16.4,0,0,0,435.57,46.55Z" transform="translate(-12.77 -0.73)" fill="#fff"/><path d="M435.3,56.35c0.7-5.25-1.93-9.53-6.25-10.5a5.83,5.83,0,0,0-4.57.85,13,13,0,0,0-1.13,2.44,6.14,6.14,0,0,1,4.49-1.32c3.71,0.43,6.31,4.35,5.79,8.74-0.48,4.14-3.55,7.22-7,7.21a6,6,0,0,0,2.14,1C432,64,434.73,60.63,435.3,56.35Z" transform="translate(-12.77 -0.73)" fill="#f27ca5"/><path d="M422.67,56.35a2.5,2.5,0,0,1,2.63-1.8,2.91,2.91,0,0,1-1,5.64,2,2,0,0,1-.65-0.23,11.27,11.27,0,0,0,.69,1.33,8.39,8.39,0,0,0,2.26,2.48c3.46,0,6.52-3.07,7-7.21,0.51-4.39-2.08-8.31-5.79-8.74a6.14,6.14,0,0,0-4.49,1.32,15.43,15.43,0,0,0-.81,4.07A15.75,15.75,0,0,0,422.67,56.35Z" transform="translate(-12.77 -0.73)"/><path d="M427.13,57.77a2.64,2.64,0,0,0-1.84-3.21,2.5,2.5,0,0,0-2.63,1.8,13.41,13.41,0,0,0,1,3.61,2,2,0,0,0,.65.23A2.64,2.64,0,0,0,427.13,57.77Z" transform="translate(-12.77 -0.73)" fill="#fff"/><circle cx="389.87" cy="55.64" r="2.94" fill="#fff"/></svg>