<?xml version="1.0" encoding="utf-8"?>
<!-- Generator: Adobe Illustrator 19.1.0, SVG Export Plug-In . SVG Version: 6.00 Build 0)  -->
<svg version="1.1" id="Layer_1" xmlns="http://www.w3.org/2000/svg" xmlns:xlink="http://www.w3.org/1999/xlink" x="0px" y="0px"
	 viewBox="0 0 20 20" style="enable-background:new 0 0 20 20;" xml:space="preserve">
<g>
	<g>
		<path style="fill:#FFFFFF;" d="M17,4h-5.1l-1.2-1.9c-0.2-0.2-0.4-0.4-0.7-0.4H4.8c-0.3,0-0.5,0.1-0.7,0.3l-1.5,2
			C1.2,4.3,0.1,5.5,0.1,6.9v8.5c0,1.6,1.3,2.8,2.9,2.8h14c1.6,0,2.8-1.3,2.8-2.8V6.9C19.9,5.3,18.6,4,17,4z M1.9,6.9
			c0-0.6,0.5-1.2,1.2-1.2c0.3,0,0.5-0.1,0.7-0.3l1.5-1.9h4.4l1.2,1.8c0.2,0.2,0.4,0.4,0.7,0.4H17c0.6,0,1.1,0.5,1.1,1.2V7
			c-0.3-0.1-0.7-0.2-1.1-0.2H3C2.6,6.8,2.2,6.9,1.9,7V6.9z M18.1,15.3c0,0.6-0.5,1.1-1.1,1.1H3c-0.6,0-1.2-0.5-1.2-1.1V9.7
			C1.9,9,2.4,8.5,3,8.5h14c0.6,0,1.1,0.5,1.1,1.2V15.3z"/>
	</g>
</g>
</svg>
