<?xml version="1.0" encoding="utf-8"?>
<!-- Generator: Adobe Illustrator 19.2.1, SVG Export Plug-In . SVG Version: 6.00 Build 0)  -->
<svg version="1.1" id="Layer_1" xmlns="http://www.w3.org/2000/svg" xmlns:xlink="http://www.w3.org/1999/xlink" x="0px" y="0px"
	 width="20px" height="20px" viewBox="0 0 20 20" style="enable-background:new 0 0 20 20;" xml:space="preserve">
<g>
	<g>
		<path style="fill:#41ABE1;" d="M11.8,2.2L16.6,7v0L11.8,2.2z"/>
		<path style="fill:#41ABE1;" d="M16.8,7.3c0-0.1-0.1-0.2-0.1-0.3c0,0,0,0,0,0l-4.8-4.8C11.7,2.1,11.6,2,11.4,2H7.1
			C5.9,2,4.8,3.1,4.8,4.4v4.4c0,0.4,0.3,0.6,0.6,0.6C5.8,9.4,6,9.2,6,8.8V4.4c0-0.6,0.5-1.1,1.1-1.1h3.6v2.4C10.8,7,11.8,8,13.1,8
			h2.4v7.6c0,0.6-0.5,1.1-1.1,1.1H7.1c-0.5,0-0.8-0.3-1-0.7c-0.1-0.2-0.3-0.4-0.5-0.4H5.5c-0.4,0-0.7,0.4-0.6,0.8
			C5.3,17.4,6.2,18,7.1,18h7.3c1.3,0,2.4-1.1,2.4-2.4V7.4C16.8,7.4,16.8,7.3,16.8,7.3z M13.1,6.8c-0.6,0-1.1-0.5-1.1-1.1V4.1
			l2.6,2.6H13.1z"/>
	</g>
	<g>
		<path style="fill:#41ABE1;" d="M3.2,10.9h1.5c0.9,0,1.4,0.5,1.4,1.2v0c0,0.8-0.6,1.2-1.5,1.2H4.2v1h-1V10.9z M4.6,12.6
			c0.3,0,0.6-0.2,0.6-0.5v0c0-0.3-0.2-0.5-0.6-0.5H4.2v0.9H4.6z"/>
		<path style="fill:#41ABE1;" d="M7,10.9h1.3c1.2,0,2,0.7,2,1.7v0c0,1-0.7,1.7-2,1.7H7V10.9z M8.4,13.5c0.6,0,1-0.3,1-0.9v0
			c0-0.6-0.4-0.9-1-0.9H8v1.8H8.4z"/>
		<path style="fill:#41ABE1;" d="M11.3,10.9h2.8v0.8h-1.8v0.6h1.6v0.8h-1.6v1.2h-1V10.9z"/>
	</g>
</g>
</svg>
