<svg xmlns="http://www.w3.org/2000/svg" xmlns:xlink="http://www.w3.org/1999/xlink" width="24" height="24" xmlns:v="https://vecta.io/nano"><defs><path d="M22.642 10.244c.203.888-.583 1.674-1.484 1.484l-6.835-1.509c-.964-.203-1.319-1.395-.621-2.092l1.522-1.522c-2.701-2.118-6.607-1.94-9.08.534-2.674 2.674-2.676 7.038 0 9.713s7.039 2.674 9.713 0a1.56 1.56 0 0 1 2.206 0c.621.621.623 1.609.013 2.219-3.906 3.906-10.246 3.906-14.151 0-3.893-3.893-3.906-10.246 0-14.151 3.703-3.703 9.613-3.881 13.531-.547l1.598-1.598c.697-.697 1.889-.342 2.092.621l1.496 6.847z" id="A"/></defs><use fill="#fff" xlink:href="#A" fill-rule="evenodd"/></svg>