<?xml version="1.0" encoding="utf-8"?>
<!-- Generator: Adobe Illustrator 19.1.0, SVG Export Plug-In . SVG Version: 6.00 Build 0)  -->
<svg version="1.1" id="Layer_1" xmlns="http://www.w3.org/2000/svg" xmlns:xlink="http://www.w3.org/1999/xlink" x="0px" y="0px"
	 width="50px" height="54px" viewBox="0 0 50 54" enable-background="new 0 0 50 54" xml:space="preserve">
<g>
	<g opacity="0.4">
		
			<path fill="#BCBEC0" stroke="#BCBEC0" stroke-width="1.4" stroke-linecap="round" stroke-linejoin="round" stroke-miterlimit="10" d="
			M28.3,6.3H12.5l0.8-2.6C13.7,2.6,14.8,2,16,2.4L28.3,6.3z"/>
	</g>
	<g opacity="0.4">
		
			<path fill="#BCBEC0" stroke="#BCBEC0" stroke-width="1.4" stroke-linecap="round" stroke-linejoin="round" stroke-miterlimit="10" d="
			M48.4,15l-5,15.7v16.4c0,1.2-1,2.1-2.1,2.1h-3.8l-0.8,2.6c-0.4,1.1-1.6,1.7-2.7,1.4l-12.4-3.9h-13c-1.2,0-2.1-1-2.1-2.1v-2.7
			l-3.6-1.1c-1.1-0.4-1.7-1.6-1.4-2.7l5-15.7V8.4c0-1.2,1-2.1,2.1-2.1h19.7l15.1,4.8l3.6,1.2C48.2,12.7,48.8,13.8,48.4,15z"/>
		
			<path fill="#BCBEC0" stroke="#BCBEC0" stroke-width="1.4" stroke-linecap="round" stroke-linejoin="round" stroke-miterlimit="10" d="
			M43.4,8.4v2.7L28.3,6.3h13C42.5,6.3,43.4,7.3,43.4,8.4z"/>
	</g>
	<g>
		
			<path fill="#B6ECFF" stroke="#2398C1" stroke-width="1.4" stroke-linecap="round" stroke-linejoin="round" stroke-miterlimit="10" d="
			M34,51.6L2.9,41.7c-1.1-0.4-1.7-1.5-1.4-2.7L13.3,2.2c0.4-1.1,1.5-1.7,2.7-1.4l31.1,9.9c1.1,0.4,1.7,1.5,1.4,2.7L36.7,50.2
			C36.4,51.4,35.2,52,34,51.6z"/>
	</g>
	<g>
		
			<path fill="#FFFFFF" stroke="#2398C1" stroke-width="1.4" stroke-linecap="round" stroke-linejoin="round" stroke-miterlimit="10" d="
			M41.3,47.7H8.7c-1.2,0-2.1-1-2.1-2.1V6.9c0-1.2,1-2.1,2.1-2.1h32.6c1.2,0,2.1,1,2.1,2.1v38.6C43.4,46.7,42.5,47.7,41.3,47.7z"/>
	</g>
	
		<path fill="#FFFFFF" stroke="#2398C1" stroke-width="1.4" stroke-linecap="round" stroke-linejoin="round" stroke-miterlimit="10" d="
		M35.4,41.2H14.6c-1.7,0-3-1.3-3-3V16.4h26.8v21.8C38.4,39.8,37,41.2,35.4,41.2z"/>
	
		<path fill="#2398C1" stroke="#2398C1" stroke-width="1.4" stroke-linecap="round" stroke-linejoin="round" stroke-miterlimit="10" d="
		M38.4,16.4H11.6v-2.2c0-1.5,1.2-2.8,2.8-2.8h21.2c1.5,0,2.8,1.2,2.8,2.8V16.4z"/>
	<g>
		
			<polygon fill="#FFFFFF" stroke="#2398C1" stroke-width="1.4" stroke-linecap="round" stroke-linejoin="round" stroke-miterlimit="10" points="
			29.1,30.4 25,34.5 20.9,30.4 22.7,30.4 22.7,26.5 27.3,26.5 27.3,30.4 		"/>
		
			<line fill="#FFFFFF" stroke="#2398C1" stroke-width="1.4" stroke-linecap="round" stroke-linejoin="round" stroke-miterlimit="10" x1="23.2" y1="23.9" x2="26.8" y2="23.9"/>
		
			<line fill="#FFFFFF" stroke="#2398C1" stroke-width="1.4" stroke-linecap="round" stroke-linejoin="round" stroke-miterlimit="10" x1="24" y1="21.6" x2="26" y2="21.6"/>
	</g>
</g>
</svg>
