<svg width="476" height="436" viewBox="0 0 476 436" fill="none" xmlns="http://www.w3.org/2000/svg">
<path fill-rule="evenodd" clip-rule="evenodd" d="M305.738 35.8184H353.322C362.838 35.8184 370.597 44.8386 370.597 55.9325C370.597 67.0264 362.838 76.0467 353.322 76.0467H331.288C331.288 76.0467 331.288 76.0467 331.288 76.1504C321.875 92.4283 307.806 93.6725 309.151 86.3111C310.082 81.2307 310.806 78.9498 310.082 76.1504H305.841C296.324 76.1504 288.566 67.1301 288.566 56.0362C288.463 44.8386 296.117 35.8184 305.738 35.8184Z" fill="#D9E3F2"/>
<path fill-rule="evenodd" clip-rule="evenodd" d="M61.9098 266.536H28.3854C21.6805 266.536 16.2146 272.891 16.2146 280.707C16.2146 288.523 21.6805 294.878 28.3854 294.878H43.9086C43.9086 294.878 43.9086 294.878 43.9086 294.951C50.5406 306.42 60.4522 307.296 59.5048 302.11C58.8489 298.531 58.3387 296.923 58.8488 294.951H61.8369C68.5418 294.951 74.0077 288.596 74.0077 280.78C74.0806 272.891 68.6875 266.536 61.9098 266.536Z" fill="#D9E3F2"/>
<path fill-rule="evenodd" clip-rule="evenodd" d="M120.262 297.076C120.825 296.176 121.722 295.537 122.756 295.298L125.039 294.771L194.218 278.795C196.37 278.298 198.517 279.64 199.012 281.793L206.853 315.903C207.348 318.056 206.004 320.205 203.852 320.702L134.672 336.678L132.389 337.205C131.356 337.444 130.459 338.083 129.896 338.983L125.651 345.769C125.089 346.669 124.192 347.309 123.158 347.547L110.797 350.402C109.763 350.641 108.678 350.459 107.779 349.897L101 345.657C100.101 345.094 99.0149 344.912 97.9812 345.151L95.6982 345.678L87.9033 347.479C85.7508 347.976 83.6047 346.633 83.1098 344.48L75.2685 310.37C74.7735 308.217 76.1172 306.069 78.2697 305.572L86.0646 303.771L88.3476 303.244C89.3813 303.006 90.467 303.187 91.366 303.75L98.1451 307.99C99.0441 308.552 100.13 308.734 101.163 308.495L113.524 305.641C114.558 305.402 115.455 304.762 116.018 303.862L120.262 297.076Z" fill="#0FBD8C"/>
<path d="M122.756 295.298L122.98 296.273L122.756 295.298ZM120.262 297.076L121.11 297.606L121.11 297.606L120.262 297.076ZM125.039 294.771L124.815 293.796L125.039 294.771ZM129.896 338.983L130.743 339.513L129.896 338.983ZM125.651 345.769L124.804 345.239L125.651 345.769ZM107.779 349.897L107.248 350.745L107.248 350.745L107.779 349.897ZM101 345.657L101.53 344.808L101 345.657ZM78.2697 305.572L78.0457 304.597L78.2697 305.572ZM86.0646 303.771L86.2886 304.746L86.0646 303.771ZM88.3476 303.244L88.1236 302.27L88.3476 303.244ZM91.366 303.75L90.8354 304.598L90.8354 304.598L91.366 303.75ZM98.1451 307.99L97.6146 308.838L97.6146 308.838L98.1451 307.99ZM101.163 308.495L101.388 309.47L101.163 308.495ZM113.524 305.641L113.3 304.666L113.524 305.641ZM116.018 303.862L115.17 303.332L115.17 303.332L116.018 303.862ZM122.532 294.324C121.24 294.622 120.118 295.421 119.415 296.546L121.11 297.606C121.532 296.931 122.205 296.452 122.98 296.273L122.532 294.324ZM124.815 293.796L122.532 294.324L122.98 296.273L125.263 295.745L124.815 293.796ZM193.994 277.82L124.815 293.796L125.263 295.745L194.442 279.769L193.994 277.82ZM199.986 281.568C199.367 278.877 196.685 277.199 193.994 277.82L194.442 279.769C196.056 279.396 197.666 280.403 198.037 282.018L199.986 281.568ZM207.827 315.678L199.986 281.568L198.037 282.018L205.879 316.128L207.827 315.678ZM204.076 321.676C206.766 321.055 208.446 318.37 207.827 315.678L205.879 316.128C206.25 317.743 205.242 319.354 203.628 319.727L204.076 321.676ZM134.896 337.652L204.076 321.676L203.628 319.727L134.448 335.703L134.896 337.652ZM132.613 338.18L134.896 337.652L134.448 335.703L132.165 336.23L132.613 338.18ZM130.743 339.513C131.165 338.838 131.838 338.359 132.613 338.18L132.165 336.23C130.873 336.529 129.752 337.328 129.049 338.453L130.743 339.513ZM126.499 346.299L130.743 339.513L129.049 338.453L124.804 345.239L126.499 346.299ZM123.382 348.522C124.674 348.224 125.795 347.424 126.499 346.299L124.804 345.239C124.382 345.914 123.709 346.394 122.934 346.573L123.382 348.522ZM111.021 351.377L123.382 348.522L122.934 346.573L110.573 349.428L111.021 351.377ZM107.248 350.745C108.372 351.448 109.729 351.675 111.021 351.377L110.573 349.428C109.798 349.607 108.984 349.47 108.309 349.048L107.248 350.745ZM100.469 346.505L107.248 350.745L108.309 349.048L101.53 344.808L100.469 346.505ZM98.2053 346.126C98.9805 345.947 99.7948 346.083 100.469 346.505L101.53 344.808C100.406 344.105 99.0493 343.878 97.7572 344.177L98.2053 346.126ZM95.9222 346.653L98.2053 346.126L97.7572 344.177L95.4741 344.704L95.9222 346.653ZM88.1274 348.453L95.9222 346.653L95.4741 344.704L87.6793 346.504L88.1274 348.453ZM82.1354 344.705C82.7541 347.397 85.4368 349.075 88.1274 348.453L87.6793 346.504C86.0649 346.877 84.4553 345.87 84.0841 344.255L82.1354 344.705ZM74.2941 310.595L82.1354 344.705L84.0841 344.255L76.2428 310.145L74.2941 310.595ZM78.0457 304.597C75.3551 305.218 73.6754 307.904 74.2941 310.595L76.2428 310.145C75.8716 308.53 76.8794 306.919 78.4938 306.546L78.0457 304.597ZM85.8405 302.797L78.0457 304.597L78.4938 306.546L86.2886 304.746L85.8405 302.797ZM88.1236 302.27L85.8405 302.797L86.2886 304.746L88.5717 304.219L88.1236 302.27ZM91.8966 302.901C90.7728 302.198 89.4157 301.971 88.1236 302.27L88.5717 304.219C89.3469 304.04 90.1612 304.176 90.8354 304.598L91.8966 302.901ZM98.6757 307.142L91.8966 302.901L90.8354 304.598L97.6146 308.838L98.6757 307.142ZM100.939 307.521C100.164 307.7 99.3499 307.563 98.6757 307.142L97.6146 308.838C98.7383 309.541 100.095 309.768 101.388 309.47L100.939 307.521ZM113.3 304.666L100.939 307.521L101.388 309.47L113.748 306.615L113.3 304.666ZM115.17 303.332C114.748 304.007 114.076 304.487 113.3 304.666L113.748 306.615C115.041 306.317 116.162 305.517 116.865 304.392L115.17 303.332ZM119.415 296.546L115.17 303.332L116.865 304.392L121.11 297.606L119.415 296.546Z" fill="#0DA57A"/>
<path fill-rule="evenodd" clip-rule="evenodd" d="M135.663 351.957C136.226 351.057 137.123 350.418 138.157 350.179L140.44 349.652L156.029 346.051C158.182 345.554 160.328 346.897 160.823 349.05L168.664 383.16C169.159 385.313 167.815 387.461 165.663 387.958L150.073 391.559L147.79 392.086C146.757 392.325 145.86 392.964 145.297 393.864L141.052 400.65C140.489 401.55 139.593 402.19 138.559 402.428L126.198 405.283C125.164 405.522 124.079 405.34 123.18 404.778L116.4 400.537C115.501 399.975 114.416 399.793 113.382 400.032L111.099 400.559L103.304 402.359C101.152 402.857 99.0056 401.514 98.5106 399.361L90.6693 365.251C90.1744 363.098 91.5181 360.95 93.6706 360.452L101.465 358.652L103.749 358.125C104.782 357.886 105.868 358.068 106.767 358.63L113.546 362.871C114.445 363.433 115.531 363.615 116.564 363.376L128.925 360.521C129.959 360.283 130.856 359.643 131.419 358.743L135.663 351.957Z" fill="#9966FF"/>
<path d="M135.663 351.957L136.511 352.487L136.511 352.487L135.663 351.957ZM165.663 387.958L165.439 386.984L165.663 387.958ZM150.073 391.559L150.297 392.533L150.073 391.559ZM147.79 392.086L147.566 391.111L147.79 392.086ZM145.297 393.864L146.144 394.394L145.297 393.864ZM141.052 400.65L140.205 400.12L141.052 400.65ZM123.18 404.778L122.649 405.626L122.649 405.626L123.18 404.778ZM116.4 400.537L116.931 399.689L116.4 400.537ZM98.5106 399.361L97.5363 399.586L98.5106 399.361ZM90.6693 365.251L91.6437 365.026L90.6693 365.251ZM106.767 358.63L106.236 359.479L106.236 359.479L106.767 358.63ZM113.546 362.871L113.015 363.719L113.015 363.719L113.546 362.871ZM131.419 358.743L130.571 358.213L130.571 358.213L131.419 358.743ZM137.933 349.204C136.64 349.503 135.519 350.302 134.816 351.427L136.511 352.487C136.933 351.812 137.605 351.333 138.381 351.154L137.933 349.204ZM140.216 348.677L137.933 349.204L138.381 351.154L140.664 350.626L140.216 348.677ZM155.805 345.077L140.216 348.677L140.664 350.626L156.253 347.026L155.805 345.077ZM161.797 348.825C161.179 346.133 158.496 344.456 155.805 345.077L156.253 347.026C157.868 346.653 159.477 347.66 159.849 349.275L161.797 348.825ZM169.639 382.935L161.797 348.825L159.849 349.275L167.69 383.385L169.639 382.935ZM165.887 388.933C168.578 388.312 170.257 385.626 169.639 382.935L167.69 383.385C168.061 385 167.053 386.611 165.439 386.984L165.887 388.933ZM150.297 392.533L165.887 388.933L165.439 386.984L149.849 390.584L150.297 392.533ZM148.014 393.06L150.297 392.533L149.849 390.584L147.566 391.111L148.014 393.06ZM146.144 394.394C146.566 393.719 147.239 393.24 148.014 393.06L147.566 391.111C146.274 391.41 145.153 392.209 144.449 393.334L146.144 394.394ZM141.9 401.18L146.144 394.394L144.449 393.334L140.205 400.12L141.9 401.18ZM138.783 403.403C140.075 403.105 141.196 402.305 141.9 401.18L140.205 400.12C139.783 400.795 139.11 401.275 138.335 401.454L138.783 403.403ZM126.422 406.258L138.783 403.403L138.335 401.454L125.974 404.308L126.422 406.258ZM122.649 405.626C123.773 406.329 125.13 406.556 126.422 406.258L125.974 404.308C125.199 404.487 124.384 404.351 123.71 403.929L122.649 405.626ZM115.87 401.386L122.649 405.626L123.71 403.929L116.931 399.689L115.87 401.386ZM113.606 401.007C114.381 400.828 115.196 400.964 115.87 401.386L116.931 399.689C115.807 398.986 114.45 398.759 113.158 399.057L113.606 401.007ZM111.323 401.534L113.606 401.007L113.158 399.057L110.875 399.585L111.323 401.534ZM103.528 403.334L111.323 401.534L110.875 399.585L103.08 401.385L103.528 403.334ZM97.5363 399.586C98.1549 402.277 100.838 403.955 103.528 403.334L103.08 401.385C101.466 401.758 99.8562 400.751 99.485 399.136L97.5363 399.586ZM89.695 365.476L97.5363 399.586L99.485 399.136L91.6437 365.026L89.695 365.476ZM93.4466 359.478C90.756 360.099 89.0763 362.785 89.695 365.476L91.6437 365.026C91.2725 363.411 92.2803 361.8 93.8947 361.427L93.4466 359.478ZM101.241 357.678L93.4466 359.478L93.8947 361.427L101.689 359.627L101.241 357.678ZM103.524 357.151L101.241 357.678L101.689 359.627L103.973 359.1L103.524 357.151ZM107.297 357.782C106.174 357.079 104.817 356.852 103.524 357.151L103.973 359.1C104.748 358.921 105.562 359.057 106.236 359.479L107.297 357.782ZM114.077 362.022L107.297 357.782L106.236 359.479L113.015 363.719L114.077 362.022ZM116.34 362.401C115.565 362.58 114.751 362.444 114.077 362.022L113.015 363.719C114.139 364.422 115.496 364.649 116.788 364.351L116.34 362.401ZM128.701 359.547L116.34 362.401L116.788 364.351L129.149 361.496L128.701 359.547ZM130.571 358.213C130.149 358.888 129.477 359.368 128.701 359.547L129.149 361.496C130.441 361.198 131.563 360.398 132.266 359.273L130.571 358.213ZM134.816 351.427L130.571 358.213L132.266 359.273L136.511 352.487L134.816 351.427Z" fill="#855CD6"/>
<path fill-rule="evenodd" clip-rule="evenodd" d="M430.139 94.4863C431.082 94.0002 432.178 93.9088 433.189 94.2322L435.42 94.9465L464.945 104.397C467.049 105.07 468.211 107.322 467.54 109.427L461.469 128.483C460.798 130.588 458.549 131.749 456.445 131.075L426.92 121.625L424.689 120.911C423.678 120.587 422.581 120.679 421.639 121.165L414.534 124.83C413.592 125.316 412.495 125.408 411.485 125.084L399.403 121.217C398.392 120.894 397.551 120.182 397.064 119.239L393.394 112.124C392.907 111.181 392.066 110.469 391.056 110.146L388.824 109.431L381.205 106.993C379.101 106.319 377.939 104.067 378.61 101.962L384.681 82.906C385.352 80.8011 387.601 79.6407 389.705 80.3141L397.324 82.7528L399.556 83.4671C400.566 83.7905 401.407 84.5022 401.894 85.4456L405.564 92.56C406.051 93.5034 406.892 94.2151 407.903 94.5385L419.985 98.4058C420.995 98.7292 422.092 98.6378 423.035 98.1517L430.139 94.4863Z" fill="#FF6680"/>
<path d="M430.139 94.4863L430.598 95.3756L430.598 95.3756L430.139 94.4863ZM421.639 121.165L422.098 122.054L422.098 122.054L421.639 121.165ZM411.485 125.084L411.181 126.037L411.485 125.084ZM399.403 121.217L399.706 120.264L399.403 121.217ZM397.064 119.239L396.176 119.697L396.176 119.697L397.064 119.239ZM393.394 112.124L392.506 112.582L393.394 112.124ZM401.894 85.4456L401.006 85.9038L401.006 85.9038L401.894 85.4456ZM405.564 92.56L404.676 93.0181L404.676 93.0181L405.564 92.56ZM407.903 94.5385L408.206 93.5857L407.903 94.5385ZM419.985 98.4058L419.681 99.3586L419.985 98.4058ZM423.035 98.1517L422.576 97.2624L422.576 97.2624L423.035 98.1517ZM433.492 93.2794C432.229 92.8751 430.858 92.9894 429.681 93.597L430.598 95.3756C431.305 95.011 432.127 94.9425 432.885 95.185L433.492 93.2794ZM435.724 93.9937L433.492 93.2794L432.885 95.185L435.117 95.8993L435.724 93.9937ZM465.249 103.444L435.724 93.9937L435.117 95.8993L464.641 105.349L465.249 103.444ZM468.493 109.732C469.331 107.101 467.879 104.286 465.249 103.444L464.641 105.349C466.219 105.854 467.091 107.544 466.588 109.122L468.493 109.732ZM462.421 128.788L468.493 109.732L466.588 109.122L460.516 128.178L462.421 128.788ZM456.141 132.028C458.771 132.87 461.583 131.419 462.421 128.788L460.516 128.178C460.013 129.757 458.326 130.627 456.748 130.122L456.141 132.028ZM426.617 122.578L456.141 132.028L456.748 130.122L427.224 120.672L426.617 122.578ZM424.385 121.864L426.617 122.578L427.224 120.672L424.992 119.958L424.385 121.864ZM422.098 122.054C422.805 121.69 423.627 121.621 424.385 121.864L424.992 119.958C423.729 119.554 422.358 119.668 421.181 120.276L422.098 122.054ZM414.993 125.72L422.098 122.054L421.181 120.276L414.076 123.941L414.993 125.72ZM411.181 126.037C412.444 126.441 413.816 126.327 414.993 125.72L414.076 123.941C413.369 124.306 412.546 124.374 411.789 124.132L411.181 126.037ZM399.099 122.17L411.181 126.037L411.789 124.132L399.706 120.264L399.099 122.17ZM396.176 119.697C396.785 120.876 397.836 121.766 399.099 122.17L399.706 120.264C398.948 120.022 398.318 119.488 397.952 118.78L396.176 119.697ZM392.506 112.582L396.176 119.697L397.952 118.78L394.282 111.666L392.506 112.582ZM390.752 111.099C391.51 111.341 392.141 111.875 392.506 112.582L394.282 111.666C393.674 110.487 392.622 109.597 391.359 109.193L390.752 111.099ZM388.521 110.384L390.752 111.099L391.359 109.193L389.128 108.479L388.521 110.384ZM380.901 107.946L388.521 110.384L389.128 108.479L381.509 106.04L380.901 107.946ZM377.657 101.657C376.819 104.288 378.271 107.104 380.901 107.946L381.509 106.04C379.931 105.535 379.059 103.846 379.562 102.267L377.657 101.657ZM383.729 82.6011L377.657 101.657L379.562 102.267L385.634 83.2108L383.729 82.6011ZM390.009 79.3613C387.379 78.5195 384.567 79.97 383.729 82.6011L385.634 83.2108C386.137 81.6321 387.824 80.7618 389.402 81.2669L390.009 79.3613ZM397.628 81.8L390.009 79.3613L389.402 81.2669L397.021 83.7056L397.628 81.8ZM399.86 82.5143L397.628 81.8L397.021 83.7056L399.252 84.4199L399.86 82.5143ZM402.782 84.9874C402.174 83.8082 401.123 82.9186 399.86 82.5143L399.252 84.4199C400.01 84.6625 400.641 85.1962 401.006 85.9038L402.782 84.9874ZM406.453 92.1018L402.782 84.9874L401.006 85.9038L404.676 93.0181L406.453 92.1018ZM408.206 93.5857C407.448 93.3431 406.818 92.8093 406.453 92.1018L404.676 93.0181C405.285 94.1974 406.336 95.087 407.599 95.4913L408.206 93.5857ZM420.289 97.453L408.206 93.5857L407.599 95.4913L419.681 99.3586L420.289 97.453ZM422.576 97.2624C421.869 97.627 421.046 97.6955 420.289 97.453L419.681 99.3586C420.944 99.7628 422.316 99.6486 423.493 99.041L422.576 97.2624ZM429.681 93.597L422.576 97.2624L423.493 99.041L430.598 95.3756L429.681 93.597Z" fill="#FF4D6A"/>
<path d="M204.4 62.957H36.8521C30.6734 62.957 25.6646 67.9757 25.6646 74.1666V220.994C25.6646 227.185 30.6734 232.204 36.8521 232.204H204.4C210.578 232.204 215.587 227.185 215.587 220.994V74.1666C215.587 67.9757 210.578 62.957 204.4 62.957Z" fill="#47A8D1"/>
<path d="M204.411 64.6284C206.936 64.6284 209.357 65.6333 211.143 67.4221C212.928 69.211 213.931 71.6372 213.931 74.167V221.006C213.931 223.536 212.928 225.962 211.143 227.751C209.357 229.54 206.936 230.545 204.411 230.545H36.8523C34.3264 230.545 31.9038 229.54 30.1166 227.751C28.3294 225.963 27.3239 223.537 27.3208 221.006V74.1786C27.3239 71.6477 28.3294 69.2216 30.1166 67.433C31.9038 65.6445 34.3264 64.64 36.8523 64.64H204.411V64.6284ZM204.411 61.3096H36.8523C33.4468 61.3126 30.1818 62.6695 27.7738 65.0822C25.3658 67.4949 24.0116 70.7664 24.0085 74.1786V221.006C24.0116 224.418 25.3658 227.69 27.7738 230.102C30.1818 232.515 33.4468 233.872 36.8523 233.875H204.411C207.816 233.869 211.079 232.511 213.486 230.099C215.894 227.687 217.249 224.417 217.255 221.006V74.1786C217.252 70.7664 215.898 67.4949 213.49 65.0822C211.082 62.6695 207.817 61.3126 204.411 61.3096Z" fill="#D9E3F2"/>
<path d="M220.393 64.6166C231.312 64.6166 240.163 55.7481 240.163 44.8083C240.163 33.8685 231.312 25 220.393 25C209.475 25 200.624 33.8685 200.624 44.8083C200.624 55.7481 209.475 64.6166 220.393 64.6166Z" fill="black"/>
<path d="M233.909 105.44C233.909 105.44 247.98 99.7308 242.78 118.39C237.58 137.05 228.5 127.674 228.5 127.674C228.5 127.674 227.609 119.365 228.373 116.371C229.045 113.737 233.909 105.44 233.909 105.44Z" fill="#A8794C"/>
<path d="M161.699 149.454C161.699 149.454 141.849 135.842 111.575 142.341C78.4175 149.454 65.7012 159.944 65.7012 159.944L83.1311 200.768L91.238 202.578C91.703 202.683 92.1424 202.88 92.5304 203.157C92.9184 203.434 93.2473 203.787 93.4975 204.193C93.7478 204.6 93.9145 205.052 93.9879 205.524C94.0613 205.996 94.0399 206.478 93.9249 206.941L87.9605 230.544H193.965C193.965 230.544 212.228 233.364 213.896 223.024V162.683C213.896 162.683 212.831 158.552 200.114 159.062C187.398 159.573 161.699 149.454 161.699 149.454Z" fill="#FF4D6A"/>
<path d="M171.601 133.719C171.601 133.719 170.918 141.447 161.699 149.454C161.699 149.454 168.335 165.503 177.82 169.309C187.306 173.115 195.482 166.118 195.482 166.118C201.134 160.687 204.666 151.45 204.666 151.45L171.601 133.719Z" fill="#A8794C"/>
<path d="M243.255 96.8755C243.255 68.1204 222.003 44.8076 195.772 44.8076C169.54 44.8076 155.967 68.1204 155.967 96.8755C155.967 115.941 167.374 131.502 179.129 140.553C181.77 142.584 184.769 145.392 187.236 147.145C192.297 150.719 199.13 155.987 209.994 157.113C225.883 158.749 238.067 136.225 238.345 125.781C238.515 122.755 238.973 119.751 239.711 116.811C242.001 110.413 243.2 103.673 243.255 96.8755Z" fill="#B68554"/>
<path d="M198.493 113.47C198.556 111.651 197.406 110.134 195.923 110.082C194.44 110.03 193.186 111.463 193.123 113.282C193.059 115.101 194.21 116.617 195.693 116.669C197.176 116.721 198.43 115.289 198.493 113.47Z" fill="black"/>
<path d="M229.765 114.559C229.828 112.74 228.677 111.224 227.194 111.172C225.711 111.12 224.458 112.552 224.394 114.371C224.331 116.19 225.482 117.707 226.965 117.759C228.448 117.811 229.701 116.378 229.765 114.559Z" fill="black"/>
<path d="M215.251 112.739C215.251 112.739 214.093 116 215.448 118.367C216.803 120.735 227.087 136.052 211.047 130.714" stroke="#603813" stroke-miterlimit="10" stroke-linecap="round"/>
<path d="M198.69 136.84C202.165 139.671 213.086 147.133 221.482 138C221.542 137.939 221.581 137.861 221.595 137.777C221.609 137.693 221.597 137.606 221.56 137.529C221.524 137.452 221.465 137.388 221.39 137.346C221.316 137.303 221.231 137.285 221.146 137.292L215.448 137.757C212.526 137.987 209.586 137.862 206.693 137.385L199.014 136.109C198.926 136.098 198.835 136.115 198.757 136.159C198.679 136.203 198.617 136.272 198.581 136.354C198.545 136.436 198.536 136.527 198.555 136.615C198.575 136.702 198.622 136.781 198.69 136.84Z" fill="white"/>
<path d="M162.822 69.5609C173.741 69.5609 182.592 60.6924 182.592 49.7526C182.592 38.8128 173.741 29.9443 162.822 29.9443C151.904 29.9443 143.053 38.8128 143.053 49.7526C143.053 60.6924 151.904 69.5609 162.822 69.5609Z" fill="black"/>
<path d="M160.634 70.245C156.964 80.6306 155.389 91.6433 156.001 102.644C156.001 102.644 160.634 100.16 164.745 106.984C164.745 106.984 179.72 72.9371 204.666 71.9972C204.666 71.9972 204.828 50.5179 190.769 45.1104C183.899 45.8198 177.421 48.6594 172.238 53.2333C167.147 57.9611 163.181 63.7749 160.634 70.245Z" fill="black"/>
<path d="M207.723 71.6136C207.723 71.6136 240.151 71.7064 243.209 94.8219C243.209 94.8219 243.209 62.7132 215.193 49.3684C215.193 49.3684 206.716 43.6824 192.031 45.0053L189.714 45.2489L207.723 71.6136Z" fill="black"/>
<path d="M167.872 100.949C167.872 100.949 169.296 112.553 169.192 118.355C169.192 118.355 166.621 109.002 164.745 106.972L165.44 101.495L167.872 100.949Z" fill="black"/>
<path d="M207.168 101.75C207.527 102.041 207.168 102.586 206.704 102.528C202.952 102.157 192.807 101.368 185.731 103.41C180.588 104.86 198.563 94.7996 207.168 101.75Z" fill="black"/>
<path d="M217.382 102.563C217.303 102.625 217.247 102.712 217.223 102.81C217.199 102.908 217.209 103.011 217.25 103.103C217.291 103.195 217.362 103.271 217.451 103.318C217.54 103.365 217.642 103.381 217.741 103.363C221.1 103.178 230.18 102.934 236.364 105.29C240.846 106.995 225.524 96.0759 217.382 102.563Z" fill="black"/>
<path d="M162.452 103.467C162.452 103.467 148.381 97.7695 153.592 116.417C158.804 135.065 167.872 125.701 167.872 125.701C167.872 125.701 168.752 117.392 167.988 114.398C167.293 111.764 162.452 103.467 162.452 103.467Z" fill="#A8794C"/>
<path d="M165.255 129.564C166.598 129.564 167.687 128.473 167.687 127.127C167.687 125.781 166.598 124.69 165.255 124.69C163.911 124.69 162.823 125.781 162.823 127.127C162.823 128.473 163.911 129.564 165.255 129.564Z" fill="#FFBF00"/>
<path d="M65.7014 159.945C65.7014 159.945 9.04542 178.906 7.47036 195.036C5.8953 211.166 4.32025 221.296 73.3914 230.545L114.714 224.592C114.714 224.592 63.5241 203.937 54.8033 199.655L81.1509 196.173L65.7014 159.945Z" fill="#B68554"/>
<path opacity="0.1" d="M54.8149 199.654C47.6805 195.035 39.4813 192.33 31.0037 191.798" stroke="black" stroke-miterlimit="10" stroke-linecap="round"/>
<path d="M122.566 222.816C131.541 221.481 153.187 220.437 158.85 221.423C164.514 222.41 170.767 243.727 170.86 246.337C170.86 247.997 167.004 247.834 165.73 245.177C164.456 242.52 156.962 229.593 155.121 229.163C153.28 228.734 147.466 230.579 147.466 230.579H73.4031C73.4031 230.579 113.776 224.139 122.566 222.816Z" fill="#B68554"/>
<path d="M156.939 238.075C155.492 238.737 153.106 236.776 152.55 235.546L147.767 225.102C147.64 224.768 147.581 224.412 147.593 224.054C147.606 223.697 147.69 223.346 147.84 223.022C147.99 222.697 148.203 222.406 148.467 222.166C148.731 221.925 149.04 221.74 149.377 221.621C149.993 221.273 150.721 221.185 151.403 221.374C152.084 221.563 152.663 222.015 153.013 222.63L157.796 233.074C158.364 234.316 158.398 237.402 156.939 238.075Z" fill="#B68554"/>
<path d="M144.234 244.469C142.59 244.979 140.181 242.751 139.683 241.127L135.05 226.192C134.933 225.801 134.894 225.391 134.935 224.985C134.976 224.579 135.097 224.185 135.291 223.826C135.485 223.467 135.748 223.15 136.064 222.893C136.38 222.636 136.744 222.444 137.135 222.328C137.917 222.08 138.765 222.151 139.494 222.528C140.223 222.904 140.774 223.554 141.026 224.336L145.659 239.282C146.157 240.895 145.891 243.958 144.234 244.469Z" fill="#B68554"/>
<path d="M150.245 238.564C148.797 239.226 146.377 237.183 145.798 235.918L140.876 225.15C140.631 224.478 140.658 223.737 140.953 223.086C141.247 222.435 141.785 221.926 142.451 221.668C143.899 220.995 147.558 221.39 148.137 222.655L151.079 233.505C151.635 234.77 151.704 237.903 150.245 238.564Z" fill="#B68554"/>
<path d="M156.615 249.529C155.028 249.657 153.465 247.208 153.36 245.967L152.48 235.384C152.516 234.697 152.819 234.052 153.323 233.586C153.827 233.12 154.493 232.87 155.179 232.889C155.85 232.757 156.547 232.893 157.12 233.268C157.693 233.643 158.098 234.227 158.248 234.896L159.128 245.479C159.186 246.721 158.213 249.401 156.615 249.529Z" fill="#B68554"/>
<path d="M149.585 247.231C147.987 247.37 146.458 245.27 146.365 244.191L145.613 235.07C145.52 234.002 146.771 233.016 148.323 232.888C149.921 232.749 151.287 233.515 151.368 234.583L152.133 243.715C152.237 244.759 151.172 247.08 149.585 247.231Z" fill="#B68554"/>
<path d="M431.325 163.113H263.777C257.598 163.113 252.59 168.132 252.59 174.323V321.15C252.59 327.341 257.598 332.36 263.777 332.36H431.325C437.503 332.36 442.512 327.341 442.512 321.15V174.323C442.512 168.132 437.503 163.113 431.325 163.113Z" fill="#CF63CF"/>
<path d="M431.348 164.773C433.873 164.773 436.294 165.778 438.079 167.567C439.865 169.355 440.868 171.782 440.868 174.311V321.15C440.869 322.404 440.624 323.646 440.146 324.804C439.669 325.963 438.968 327.016 438.083 327.903C437.199 328.79 436.149 329.493 434.993 329.973C433.838 330.453 432.599 330.701 431.348 330.701H263.766C262.514 330.701 261.276 330.453 260.12 329.973C258.964 329.493 257.914 328.79 257.03 327.903C256.146 327.016 255.445 325.963 254.967 324.804C254.489 323.646 254.244 322.404 254.246 321.15V174.311C254.246 171.782 255.249 169.355 257.034 167.567C258.819 165.778 261.241 164.773 263.766 164.773H431.348ZM431.348 161.442H263.766C260.361 161.449 257.098 162.806 254.69 165.218C252.283 167.63 250.928 170.9 250.922 174.311V321.15C250.925 324.562 252.279 327.834 254.687 330.247C257.095 332.659 260.36 334.016 263.766 334.019H431.348C434.753 334.016 438.018 332.659 440.426 330.247C442.834 327.834 444.188 324.562 444.191 321.15V174.311C444.185 170.9 442.83 167.63 440.423 165.218C438.016 162.806 434.752 161.449 431.348 161.442Z" fill="#D9E3F2"/>
<path d="M368.727 184.302C360.62 211.908 333.52 236.126 308.863 229.384C284.207 222.642 270.367 194.688 277.93 166.931C285.492 139.173 311.006 124.935 336.242 128.881C365.82 133.511 375.19 162.37 368.727 184.302Z" fill="#E4B681"/>
<path d="M280.975 159.434C280.975 159.434 278.659 168.276 267.078 170.017C255.497 171.757 268.028 179.857 268.028 179.857C268.028 179.857 264.368 181.632 264.125 184.243C263.881 186.854 269.522 188.525 269.985 188.653C273.795 189.709 277.964 188.804 272.301 193.515C269.348 195.952 269.799 194.49 266.661 195.836C261.391 198.075 265.26 201.058 265.26 201.058C265.26 201.058 264.657 212.871 267.483 216.642C270.309 220.413 316.067 230.834 316.067 230.834L280.975 159.434Z" fill="#E4B681"/>
<path d="M284.891 167.79C285.727 166.175 285.562 164.427 284.523 163.887C283.484 163.347 281.964 164.219 281.128 165.835C280.291 167.451 280.456 169.198 281.495 169.738C282.534 170.278 284.054 169.406 284.891 167.79Z" fill="black"/>
<path d="M239.005 285.815L208.743 306.761C208.743 306.761 166.98 280.93 147.234 271.136C127.488 261.342 127.546 278.481 138.826 288.948C150.106 299.415 199.049 335.771 209.692 338.045C227.713 341.863 267.599 324.387 267.599 324.387L239.005 285.815Z" fill="#E4B681"/>
<path d="M136.718 286.767L117.702 284.214C114.937 284.214 112.286 283.113 110.331 281.155C108.377 279.196 107.279 276.54 107.279 273.77C107.279 271 108.377 268.344 110.331 266.385C112.286 264.426 114.937 263.326 117.702 263.326H131.391C134.155 263.326 136.807 264.426 138.761 266.385C140.716 268.344 141.814 271 141.814 273.77C141.884 279.572 142.497 286.767 136.718 286.767Z" fill="#E4B681"/>
<path d="M139.278 267.109C139.278 267.109 132.572 257.582 127.986 253.567C123.4 249.552 121.593 245.803 117.482 245.513C113.37 245.223 115.374 251.664 119.416 256.305L123.11 267.109H139.278Z" fill="#E4B681"/>
<path d="M118.651 264.939L105.31 257.976C105.31 257.976 105.147 247.985 101.835 245.073C98.5229 242.16 97.8049 254.182 99.8085 260.344C101.812 266.505 116.937 271.809 116.937 271.809L118.651 264.939Z" fill="#E4B681"/>
<path d="M116.196 275.835C116.196 275.835 98.9977 279.955 91.632 253.95C91.632 253.95 87.6943 240.605 94.8516 245.827C98.6271 248.589 103.352 261.446 103.352 261.446L118.408 272.319L116.196 275.835Z" fill="#E4B681"/>
<path d="M115.767 274.71C115.767 274.71 95.4883 262.363 90.6242 248.902C90.6242 248.902 87.7984 243.634 86.5591 249.598C85.3199 255.563 93.1721 269.72 93.1721 269.72L107.278 277.425L115.767 274.71Z" fill="#E4B681"/>
<path d="M117.702 284.213C117.702 284.213 98.4883 282.739 93.821 277.749C89.1537 272.76 85.3203 260.343 85.3203 260.343C85.3203 260.343 89.4433 255.226 94.099 265.623C99.5885 277.912 115.768 274.64 115.768 274.64L117.702 284.213Z" fill="#E4B681"/>
<path opacity="0.1" d="M106.051 274.641C103.827 272.819 97.0983 272.32 97.0983 272.32C94.6315 266.042 88.9219 259.323 88.9219 259.323C88.9219 259.323 95.9865 263.965 97.6542 270.672L106.051 274.641Z" fill="#231F20"/>
<path opacity="0.1" d="M90.6243 248.902C90.6243 248.902 96.1949 257.397 97.492 264.301C100.513 266.235 103.375 268.408 106.051 270.799C106.051 270.799 103.642 264.696 98.627 263.28C98.627 263.326 94.1218 250.028 90.6243 248.902Z" fill="#231F20"/>
<path opacity="0.1" d="M98.6504 250.968C98.6504 250.968 102.461 256.712 103.352 261.411C103.352 261.411 104.754 261.551 108.286 264.974C108.286 264.974 106.132 261.272 104.464 260.332C104.464 260.344 101.777 251.722 98.6504 250.968Z" fill="#231F20"/>
<path opacity="0.1" d="M115.767 263.466C115.767 263.466 110.753 265.45 107.66 275.07C107.649 275.024 107.139 264.278 115.767 263.466Z" fill="#231F20"/>
<path d="M345.136 239.562L370.673 254.438L345.136 256.376V239.562Z" fill="#EC9C13"/>
<path d="M236.075 339.171L231.095 335.353C223.771 329.75 217.998 322.364 214.325 313.897L208.986 301.619C208.598 300.719 208.525 299.714 208.777 298.767C209.029 297.82 209.592 296.985 210.376 296.398C210.376 296.398 243.961 276.984 254.257 269.139C260.499 264.11 266.453 258.732 272.093 253.033C282.516 245.235 308.69 236.381 316.472 246.871L320.757 252.673C328.54 263.117 329.177 296.897 318.707 304.695L244.124 339.229C242.957 340.095 241.541 340.558 240.089 340.547C238.638 340.537 237.228 340.054 236.075 339.171Z" fill="#EC9C13"/>
<path d="M286.268 223.396C286.268 223.396 298.764 236.241 299.529 251.245C300.119 262.745 308.249 265.298 320.908 263.035C329.988 261.399 338.396 256.351 343.109 253.485C347.823 250.619 349.085 245.362 345.993 240.86L335.744 225.774L286.268 223.396Z" fill="#E4B681"/>
<path d="M283.732 160.896C285.272 161.476 288.283 160.095 289.14 164.667C289.997 169.239 292.082 160.814 289.14 158.61C284.925 155.407 280.999 159.863 283.732 160.896Z" fill="#3C2415"/>
<path d="M276.285 170.668C276.522 170.668 276.714 170.476 276.714 170.238C276.714 170.001 276.522 169.809 276.285 169.809C276.048 169.809 275.856 170.001 275.856 170.238C275.856 170.476 276.048 170.668 276.285 170.668Z" fill="#B68554"/>
<path d="M275.348 176.018C275.636 176.018 275.869 175.784 275.869 175.495C275.869 175.207 275.636 174.973 275.348 174.973C275.059 174.973 274.826 175.207 274.826 175.495C274.826 175.784 275.059 176.018 275.348 176.018Z" fill="#B68554"/>
<path d="M272.614 170.761C272.902 170.761 273.136 170.527 273.136 170.238C273.136 169.95 272.902 169.716 272.614 169.716C272.326 169.716 272.093 169.95 272.093 170.238C272.093 170.527 272.326 170.761 272.614 170.761Z" fill="#B68554"/>
<path d="M280.883 173.906C281.171 173.906 281.405 173.672 281.405 173.383C281.405 173.094 281.171 172.86 280.883 172.86C280.595 172.86 280.362 173.094 280.362 173.383C280.362 173.672 280.595 173.906 280.883 173.906Z" fill="#B68554"/>
<path d="M287.299 178.523C287.804 178.523 288.214 178.112 288.214 177.606C288.214 177.1 287.804 176.689 287.299 176.689C286.794 176.689 286.384 177.1 286.384 177.606C286.384 178.112 286.794 178.523 287.299 178.523Z" fill="#B68554"/>
<path d="M280.455 177.537C280.691 177.537 280.883 177.345 280.883 177.107C280.883 176.87 280.691 176.678 280.455 176.678C280.218 176.678 280.026 176.87 280.026 177.107C280.026 177.345 280.218 177.537 280.455 177.537Z" fill="#B68554"/>
<path d="M277.501 173.277C277.616 173.277 277.71 173.184 277.71 173.069C277.71 172.954 277.616 172.86 277.501 172.86C277.386 172.86 277.293 172.954 277.293 173.069C277.293 173.184 277.386 173.277 277.501 173.277Z" fill="#B68554"/>
<path d="M279.517 182.19C279.805 182.19 280.038 181.956 280.038 181.667C280.038 181.379 279.805 181.145 279.517 181.145C279.229 181.145 278.995 181.379 278.995 181.667C278.995 181.956 279.229 182.19 279.517 182.19Z" fill="#B68554"/>
<path d="M285.932 182.606C286.047 182.606 286.141 182.513 286.141 182.398C286.141 182.283 286.047 182.189 285.932 182.189C285.817 182.189 285.724 182.283 285.724 182.398C285.724 182.513 285.817 182.606 285.932 182.606Z" fill="#B68554"/>
<path d="M282.281 168.435C284.609 162.403 285.219 157.019 283.644 156.409C282.069 155.799 278.905 160.194 276.578 166.225C274.25 172.256 273.64 177.64 275.215 178.25C276.79 178.861 279.954 174.466 282.281 168.435Z" stroke="#754C29" stroke-width="1.61" stroke-miterlimit="10"/>
<path opacity="0.3" d="M281.418 168.416C283.746 162.385 284.356 157.001 282.781 156.391C281.206 155.78 278.042 160.175 275.715 166.206C273.387 172.238 272.777 177.622 274.352 178.232C275.927 178.842 279.091 174.447 281.418 168.416Z" fill="#E9F1FC"/>
<path d="M284.241 163.786L307.867 174.973" stroke="#754C29" stroke-width="2.2" stroke-miterlimit="10"/>
<path d="M323.27 125.329C323.27 125.329 311.816 113.725 306.014 120.49C300.212 127.255 284.01 149.651 302.852 168.636C311.237 177.107 302.991 178.488 302.32 189.999C301.648 201.51 313.264 172.163 320.248 179.381C323.595 182.863 323.838 189.256 321.012 192.622C317.955 196.289 311.678 196.892 312.43 200.478C313.125 203.773 317.283 212.349 322.726 217.652C326.47 221.217 330.899 223.981 335.744 225.775C335.744 225.775 357.667 219.16 361.883 209.134C366.098 199.108 364.326 198.354 365.994 205.421C368.183 214.623 387.176 177.838 376.105 155.465C365.033 133.092 347.614 119.84 323.27 125.329Z" fill="#3C2415"/>
<path d="M431.348 330.699H358.953L346.537 289.597C342.947 275.394 347.568 252.905 353.127 244.179L372.561 251.42C396.523 261.585 400.842 274.048 403.124 276.821L431.348 330.699Z" fill="#EC9C13"/>
<path d="M299.5 255.028C299.5 255.028 306.962 282.894 349.5 245.506C349.5 245.506 365.837 251.382 387 263.297C408.163 275.211 375.173 330.699 375.173 330.699H278.5L274.5 293.616L299.5 255.028Z" fill="#EC9C13"/>
<path d="M299.32 249.238C299.32 249.238 299.529 257.245 305.655 258.29C311.782 259.334 301.382 247.974 301.382 247.974L299.32 249.238Z" fill="#E4B681"/>
<path d="M366.979 330.699L363.284 317.064L362.96 330.734L366.979 330.699Z" fill="#CF8B17"/>
<path d="M347.684 243.007C347.684 243.007 348.715 245.745 344.024 250.631C339.334 255.516 350.174 244.829 350.174 244.829L347.684 243.007Z" fill="#EC9C13"/>
<path d="M299.32 249.239C299.32 249.239 300.062 265.693 316.936 263.558C331.227 261.748 347.522 247.138 347.58 244.992C347.649 242.589 345.368 239.979 345.368 239.979C345.368 239.979 350.313 244.725 347.105 248.357C343.897 251.989 325.957 269.383 314.052 267.492C312.066 267.288 310.094 266.97 308.145 266.54C301.278 264.486 300.189 259.427 299.32 249.239Z" fill="#CF8B17"/>
<path d="M277.86 322.728C277.86 322.728 276.366 306.389 276.702 299.519C277.038 292.65 270.703 319.339 271.572 326.534L278.057 323.54L277.86 322.728Z" fill="#CF8B17"/>
<path fill-rule="evenodd" clip-rule="evenodd" d="M137.097 226.941C138.013 226.407 139.104 226.259 140.129 226.53L142.395 227.128L149.163 228.915C151.299 229.479 152.575 231.668 152.014 233.805L147.438 251.214C146.877 253.35 144.69 254.625 142.554 254.061L135.786 252.274L133.521 251.676C132.495 251.405 131.404 251.553 130.488 252.087L123.581 256.114C122.665 256.648 121.574 256.796 120.548 256.525L108.282 253.287C107.257 253.016 106.38 252.348 105.845 251.431L101.814 244.516C101.279 243.599 100.403 242.932 99.3769 242.661L97.1114 242.063L89.3765 240.021C87.2405 239.457 85.9642 237.267 86.5258 235.131L91.1012 217.722C91.6627 215.586 93.8494 214.311 95.9854 214.875L103.72 216.917L105.986 217.515C107.012 217.786 107.888 218.453 108.423 219.37L112.454 226.285C112.989 227.202 113.865 227.87 114.891 228.141L127.157 231.379C128.183 231.65 129.274 231.502 130.19 230.968L137.097 226.941Z" fill="#FFBF00"/>
<path d="M140.129 226.53L140.384 225.563L140.129 226.53ZM137.097 226.941L137.601 227.806L137.601 227.806L137.097 226.941ZM142.395 227.128L142.141 228.095L142.395 227.128ZM130.488 252.087L130.992 252.952L130.992 252.952L130.488 252.087ZM120.548 256.525L120.802 255.558L120.548 256.525ZM108.282 253.287L108.028 254.254L108.282 253.287ZM105.845 251.431L104.982 251.935L104.982 251.935L105.845 251.431ZM95.9854 214.875L95.7312 215.842L95.9854 214.875ZM103.72 216.917L103.975 215.95L103.72 216.917ZM108.423 219.37L107.559 219.874L107.559 219.874L108.423 219.37ZM112.454 226.285L111.591 226.789L111.591 226.789L112.454 226.285ZM130.19 230.968L129.686 230.104L129.686 230.104L130.19 230.968ZM140.384 225.563C139.102 225.224 137.738 225.409 136.593 226.077L137.601 227.806C138.288 227.405 139.106 227.294 139.875 227.497L140.384 225.563ZM142.649 226.161L140.384 225.563L139.875 227.497L142.141 228.095L142.649 226.161ZM149.417 227.948L142.649 226.161L142.141 228.095L148.909 229.882L149.417 227.948ZM152.981 234.06C153.683 231.39 152.087 228.653 149.417 227.948L148.909 229.882C150.511 230.305 151.468 231.947 151.047 233.55L152.981 234.06ZM148.405 251.469L152.981 234.06L151.047 233.55L146.471 250.958L148.405 251.469ZM142.3 255.028C144.97 255.733 147.703 254.14 148.405 251.469L146.471 250.958C146.05 252.561 144.41 253.517 142.808 253.094L142.3 255.028ZM135.532 253.241L142.3 255.028L142.808 253.094L136.04 251.307L135.532 253.241ZM133.266 252.643L135.532 253.241L136.04 251.307L133.775 250.709L133.266 252.643ZM130.992 252.952C131.679 252.551 132.497 252.44 133.266 252.643L133.775 250.709C132.493 250.37 131.129 250.555 129.984 251.223L130.992 252.952ZM124.085 256.978L130.992 252.952L129.984 251.223L123.077 255.25L124.085 256.978ZM120.294 257.492C121.576 257.831 122.94 257.646 124.085 256.978L123.077 255.25C122.39 255.65 121.572 255.761 120.802 255.558L120.294 257.492ZM108.028 254.254L120.294 257.492L120.802 255.558L108.536 252.319L108.028 254.254ZM104.982 251.935C105.65 253.081 106.746 253.915 108.028 254.254L108.536 252.319C107.767 252.116 107.11 251.616 106.709 250.928L104.982 251.935ZM100.95 245.02L104.982 251.935L106.709 250.928L102.677 244.013L100.95 245.02ZM99.1227 243.628C99.892 243.831 100.549 244.332 100.95 245.02L102.677 244.013C102.009 242.867 100.913 242.032 99.6311 241.694L99.1227 243.628ZM96.8572 243.03L99.1227 243.628L99.6311 241.694L97.3656 241.096L96.8572 243.03ZM89.1223 240.988L96.8572 243.03L97.3656 241.096L89.6306 239.054L89.1223 240.988ZM85.5589 234.876C84.857 237.546 86.4523 240.283 89.1223 240.988L89.6306 239.054C88.0287 238.631 87.0715 236.989 87.4926 235.386L85.5589 234.876ZM90.1343 217.467L85.5589 234.876L87.4926 235.386L92.068 217.977L90.1343 217.467ZM96.2396 213.907C93.5696 213.203 90.8362 214.796 90.1343 217.467L92.068 217.977C92.4892 216.375 94.1292 215.419 95.7312 215.842L96.2396 213.907ZM103.975 215.95L96.2396 213.907L95.7312 215.842L103.466 217.884L103.975 215.95ZM106.24 216.548L103.975 215.95L103.466 217.884L105.732 218.482L106.24 216.548ZM109.286 218.867C108.618 217.721 107.522 216.886 106.24 216.548L105.732 218.482C106.501 218.685 107.158 219.186 107.559 219.874L109.286 218.867ZM113.318 225.782L109.286 218.867L107.559 219.874L111.591 226.789L113.318 225.782ZM115.145 227.173C114.376 226.97 113.719 226.47 113.318 225.782L111.591 226.789C112.259 227.935 113.355 228.769 114.637 229.108L115.145 227.173ZM127.411 230.412L115.145 227.173L114.637 229.108L126.903 232.346L127.411 230.412ZM129.686 230.104C128.999 230.504 128.181 230.615 127.411 230.412L126.903 232.346C128.185 232.685 129.549 232.5 130.694 231.832L129.686 230.104ZM136.593 226.077L129.686 230.104L130.694 231.832L137.601 227.806L136.593 226.077Z" fill="#E6AC00"/>
</svg>
