<svg width="1020" height="500" viewBox="0 0 1020 500" fill="none" xmlns="http://www.w3.org/2000/svg">
<path opacity="0.3" fill-rule="evenodd" clip-rule="evenodd" d="M7.47369 178.846C13.5341 269.511 79.0963 299.237 36.8286 326.807C-70.7794 396.998 74.9443 535.486 248.094 484.139C353.129 452.992 492.993 460.604 587.379 484.139C733.029 520.457 861.681 494.151 958.796 407.833C1055.91 321.515 1034.94 187.698 913.712 107.33C785.92 22.6142 506.584 -31.1179 248.094 19.8178C107.088 47.6032 3.29736 116.366 7.47369 178.846ZM986.992 6.96484C959.878 3.16931 936.17 20.6422 934.218 37.2736C932.266 53.9051 943.417 78.9368 968.077 83.2485C992.737 87.5602 1010.86 72.4258 1014.49 60.5979C1018.12 48.77 1014.11 10.7604 986.992 6.96484Z" fill="#0FBD8C"/>
</svg>
