<?xml version="1.0" encoding="utf-8"?>
<!-- Generator: Adobe Illustrator 19.1.0, SVG Export Plug-In . SVG Version: 6.00 Build 0)  -->
<svg version="1.1" id="Layer_1" xmlns="http://www.w3.org/2000/svg" xmlns:xlink="http://www.w3.org/1999/xlink" x="0px" y="0px"
	 width="22px" height="22px" viewBox="0 0 22 22" style="enable-background:new 0 0 22 22;" xml:space="preserve">
<g>
	<path style="fill:#6B6B6B;" d="M11,18.9c-0.7,0-1.4-0.3-1.9-0.8l-5.5-5.5c-2.2-2.2-2.2-5.7,0-7.9c1.1-1.1,2.5-1.6,4-1.6
		c1.2,0,2.4,0.4,3.4,1.1c1-0.7,2.1-1.1,3.4-1.1c1.5,0,2.9,0.6,4,1.6c1.1,1.1,1.6,2.5,1.6,4c0,1.5-0.6,2.9-1.6,4l-5.5,5.5
		C12.4,18.6,11.7,18.9,11,18.9L11,18.9z M7.6,4.8c-1,0-2,0.4-2.8,1.1c-1.5,1.5-1.5,4,0,5.5l5.5,5.5c0.4,0.4,1,0.4,1.3,0l5.5-5.5
		c0,0,0,0,0,0c0.7-0.7,1.1-1.7,1.1-2.8c0-1-0.4-2-1.1-2.8c-1.5-1.5-4-1.5-5.5,0c-0.3,0.3-0.9,0.3-1.2,0C9.7,5.2,8.7,4.8,7.6,4.8z"/>
</g>
</svg>
