<svg data-name="Layer 1" xmlns="http://www.w3.org/2000/svg" width="20" height="20"><g fill-rule="evenodd"><path d="M10 0a10 10 0 1 0 10 10A10 10 0 0 0 10 0" fill="#9a9eac"/><path d="M10 13.39a1.33 1.33 0 1 1-1.33 1.33A1.33 1.33 0 0 1 10 13.39zm2.68-8.77a3 3 0 0 1 1.42 2.31 3.15 3.15 0 0 1-.95 2.56 8.37 8.37 0 0 1-1.59 1.1c-.7.39-.7.41-.7.77 0 .55 0 1-1 1s-1-.45-1-1a2.65 2.65 0 0 1 1.72-2.52A6.61 6.61 0 0 0 11.79 8a1.22 1.22 0 0 0 .3-.91 1 1 0 0 0-.5-.79 2.8 2.8 0 0 0-2.87.2c-.98.64-.81 1.55-1.72 1.3s-.92-1-.53-1.7a3.94 3.94 0 0 1 1.9-1.66 4.67 4.67 0 0 1 4.3.18z" fill="#fff"/></g></svg>