<svg data-name="Layer 1" xmlns="http://www.w3.org/2000/svg" width="40" height="40"><g fill-rule="evenodd"><path d="M20 10a10 10 0 1 0 10 10 10 10 0 0 0-10-10" fill="#9a9eac"/><path d="M20 23.39a1.33 1.33 0 1 1-1.33 1.33A1.34 1.34 0 0 1 20 23.39zm2.68-8.77a3 3 0 0 1 1.42 2.31 3.14 3.14 0 0 1-1 2.56 8.2 8.2 0 0 1-1.59 1.1c-.7.39-.7.41-.7.77 0 .55 0 1-1 1s-1-.45-1-1a2.64 2.64 0 0 1 1.72-2.52 6.71 6.71 0 0 0 1.26-.84 1.22 1.22 0 0 0 .3-.91 1 1 0 0 0-.5-.79 2.8 2.8 0 0 0-2.87.2c-1 .64-.81 1.55-1.72 1.3s-.92-1-.53-1.7a3.9 3.9 0 0 1 1.9-1.66 4.67 4.67 0 0 1 4.3.18z" fill="#fff"/></g></svg>