<svg width="20" height="20" xmlns="http://www.w3.org/2000/svg"><g fill="none" fill-rule="evenodd"><path d="M10 0C4.477 0 0 4.477 0 10s4.477 10 10 10 10-4.477 10-10S15.523 0 10 0" fill="#4794FF"/><path d="M9.988 13.388a1.33 1.33 0 1 1-.001 2.662 1.33 1.33 0 0 1 .001-2.662zm2.68-8.768c.83.53 1.335 1.347 1.418 2.305.084.97-.28 1.95-.949 2.56-.596.543-1.148.852-1.59 1.101-.698.39-.698.41-.698.772 0 .553-.014 1.002-1.002 1.002-.918 0-1.002-.449-1.002-1.002 0-1.559.956-2.092 1.722-2.52.391-.22.795-.445 1.22-.833.176-.16.335-.523.302-.906-.029-.332-.196-.597-.496-.788-.845-.537-2.063-.325-2.869.195-.985.637-.819 1.547-1.755 1.291-1.062-.29-.915-1-.529-1.697.418-.756 1.117-1.317 1.898-1.662 1.471-.65 3.13-.58 4.33.182z" fill="#FFF"/></g></svg>