<svg width="114" height="94" viewBox="0 0 114 94" fill="none" xmlns="http://www.w3.org/2000/svg">
<path opacity="0.15" d="M33.6175 94C40.2449 94 45.6175 88.6274 45.6175 82V58.5384C45.6175 52.6872 40.8742 47.9439 35.023 47.9439V47.9439C29.1719 47.9439 24.1999 43.1174 25.6342 37.4448C26.3823 34.4858 27.4787 31.8048 28.9232 29.4019C30.9382 25.916 34.1146 23.0161 38.4524 20.7022C42.5321 18.5261 45.6175 14.5989 45.6175 9.97511V9.97511C45.6175 3.60619 39.9829 -1.42053 33.9696 0.677915C31.58 1.51182 29.2557 2.51326 26.9969 3.68224C21.4322 6.47352 16.6165 10.0623 12.5499 14.4486C8.48336 18.8349 5.27291 23.919 2.91859 29.7009C0.778289 35.4829 -0.184844 41.6635 0.0291858 48.243V82C0.0291858 88.6274 5.40177 94 12.0292 94H33.6175ZM102 94C108.627 94 114 88.6274 114 82V58.5384C114 52.6872 109.257 47.9439 103.406 47.9439V47.9439C97.5544 47.9439 92.5824 43.1174 94.0167 37.4448C94.7648 34.4858 95.8611 31.8048 97.3057 29.4019C99.3207 25.916 102.497 23.0161 106.835 20.7022C110.915 18.5261 114 14.5989 114 9.97511V9.97511C114 3.60619 108.365 -1.42053 102.352 0.677916C99.9624 1.51182 97.6382 2.51326 95.3794 3.68224C89.8146 6.47352 84.999 10.0623 80.9324 14.4486C76.8658 18.8349 73.6554 23.919 71.3011 29.7009C69.1608 35.4829 68.1976 41.6635 68.4117 48.243V82C68.4117 88.6274 73.7843 94 80.4117 94H102Z" fill="#4C97FF"/>
</svg>
