<svg width="700" height="373" viewBox="0 0 700 373" fill="none" xmlns="http://www.w3.org/2000/svg">
<g opacity="0.5" clip-path="url(#clip0_533_17533)">
<path opacity="0.45" fill-rule="evenodd" clip-rule="evenodd" d="M630.764 72.9943C645.882 93.7722 600.302 112.863 557.481 132.945C519.397 150.804 472.366 147.379 466.409 123.302C460.696 100.2 488.813 63.3151 535.445 55.2138C584.782 46.6427 615.964 52.6567 630.762 72.9904L630.764 72.9943Z" fill="#4C97FF"/>
</g>
<g opacity="0.5" clip-path="url(#clip1_533_17533)">
<path opacity="0.45" fill-rule="evenodd" clip-rule="evenodd" d="M425.318 112.119C425.999 119.784 435.387 118.503 444.508 117.873C452.619 117.312 459.07 109.815 456.578 102.551C454.186 95.581 444.881 89.6655 436.875 94.0287C428.406 98.6452 424.653 104.616 425.318 112.118L425.318 112.119Z" fill="#4C97FF"/>
</g>
<path d="M215.114 149.036C205.984 149.531 200.083 150.087 195.336 150.659C182.118 152.265 177.909 153.974 137.772 154.565C124.668 154.755 113.759 154.174 104.577 152.968C75.5393 149.149 63.7715 139.117 54.6765 127.74C42.6917 112.77 36.2784 73.1094 102.147 70.4798C131.949 69.2909 167.278 52.4548 216.936 56.2386C266.594 60.0224 249.706 147.162 215.114 149.036Z" fill="#47A8D1"/>
<path d="M195.336 150.659C182.118 152.265 177.909 153.975 137.772 154.565C124.668 154.756 113.759 154.174 104.577 152.968C94.3107 143.118 101.765 125.779 102.737 115.33C104.117 100.472 147.014 88.9997 147.014 88.9997C147.014 88.9997 158.374 88.7393 171.218 89.0083C184.062 89.2774 192.558 91.5702 195.336 112.511C196.108 118.343 200.907 141.391 195.336 150.659Z" fill="#FF6680"/>
<path d="M139.803 100.785C139.803 100.785 141.573 112.813 155.858 112.275C170.142 111.737 170.134 97.1921 170.134 97.1921L139.803 100.794V100.785Z" fill="#955D31"/>
<path d="M179.489 72.5105C179.489 72.5105 188.523 67.477 186.57 80.4946C184.618 93.5208 177.701 87.958 177.701 87.958C177.701 87.958 176.399 82.4298 176.668 80.347C176.903 78.5159 179.489 72.5018 179.489 72.5018V72.5105Z" fill="#BF8C5C"/>
<path d="M136.331 101.505C138.831 103.414 140.375 104.3 141.426 104.768C144.602 106.183 150.894 108.76 158.617 107.736C169.396 106.313 180.964 91.2559 180.287 84.2264C180.079 82.0482 180.296 79.462 180.452 78.0561C181.424 73.5954 181.684 68.9004 181.112 64.2835C178.69 44.8874 164.961 30.759 147.257 32.972C129.554 35.185 119.721 52.2553 122.142 71.6515C123.748 84.5041 127.427 94.7186 136.323 101.514L136.331 101.505Z" fill="#BF8C5C"/>
<path d="M144.5 85.2846C145.508 85.1943 146.235 84.1227 146.124 82.8911C146.014 81.6594 145.108 80.7341 144.101 80.8244C143.093 80.9146 142.366 81.9862 142.477 83.2179C142.587 84.4495 143.493 85.3748 144.5 85.2846Z" fill="black"/>
<path d="M165.725 83.3805C166.732 83.2902 167.459 82.2186 167.349 80.987C167.239 79.7554 166.333 78.8301 165.325 78.9203C164.318 79.0106 163.591 80.0822 163.701 81.3138C163.812 82.5455 164.718 83.4707 165.725 83.3805Z" fill="black"/>
<path d="M157.342 80.6335C157.342 80.6335 156.864 82.9246 157.949 84.4173C159.034 85.91 161.412 89.6157 158.097 92.0109" stroke="#6B3D1F" stroke-width="0.87" stroke-miterlimit="10" stroke-linecap="round"/>
<path d="M146.598 74.7323C146.806 74.8885 146.797 75.2617 146.581 75.279C145.001 75.4005 140.792 75.9039 138.388 77.8825C136.644 79.3145 141.677 71.096 146.598 74.7323Z" fill="black"/>
<path d="M161.837 73.2656C161.672 73.4652 161.776 73.8297 161.985 73.795C163.547 73.5259 167.747 72.9705 170.568 74.2983C172.607 75.2616 165.708 68.5272 161.837 73.2656Z" fill="black"/>
<path d="M157.185 96.0029C155.762 96.1678 152.647 95.9769 150.963 98.1898C150.243 99.1358 153.818 101.219 157.333 100.863C160.856 100.507 164.31 97.7039 163.33 96.6017C161.924 95.0222 158.869 95.812 157.185 96.0116V96.0029Z" fill="white"/>
<path d="M151.293 97.7906C151.293 97.7906 159.017 98.5369 162.818 96.1677C162.818 96.1677 163.469 96.4888 163.486 97.0356C163.503 97.5823 162.887 98.9014 160.153 100.082C157.42 101.262 155.806 100.932 155.042 100.785C154.278 100.637 151.51 100.177 150.868 98.563C150.868 98.563 150.703 98.3026 151.284 97.7993L151.293 97.7906Z" fill="#482D18"/>
<path d="M124.112 75.9127C124.112 75.9127 114.123 73.2571 119.209 85.3982C124.303 97.5392 129.64 90.449 129.64 90.449C129.64 90.449 129.536 84.7733 128.772 82.8207C128.096 81.1024 124.112 75.9127 124.112 75.9127Z" fill="#BF8C5C"/>
<path d="M173.666 84.5474L173.518 84.5647L173.371 84.5821L173.518 84.5647L173.666 84.5474Z" fill="#BF8C5C"/>
<path d="M150.868 32.0347C150.868 32.0347 139.091 31.0541 132.513 39.5155C132.513 39.5155 113.264 50.1725 122.732 75.6609C124.19 76.711 126.586 80.3385 126.586 80.3385C126.655 77.7003 126.421 73.6215 126.316 72.0767C127.679 70.4278 129.311 68.1367 130.994 65.0646V67.104C134.682 62.6867 138.015 46.5102 138.015 46.5102C138.015 46.5102 148.021 58.9637 168.945 62.2007C168.945 62.2007 165.838 60.656 165.109 59.7274C165.109 59.7274 168.164 61.3242 170.923 62.5826C172.26 63.1988 174.75 65.3857 176.955 67.4685C176.477 70.263 180.114 75.8865 180.114 75.8865C179.793 73.7343 181.311 71.7817 181.311 71.7817C181.311 71.7817 186.596 34.5341 150.85 32.0174L150.868 32.0347Z" fill="black"/>
<path d="M111.945 103.735C111.945 103.735 71.0786 133.433 61.9143 144.541C52.7499 155.649 63.6934 176.156 88.4094 159.624C113.125 143.092 128.772 143.604 128.772 143.604L111.945 103.735Z" fill="#FF6680"/>
<path d="M190.858 93.0438C190.858 93.0438 227.359 113.542 241.383 129.719C253.324 143.491 243.605 164.484 195.457 131.246L183.036 90.8564L190.858 93.0438Z" fill="#FF6680"/>
<path d="M110.878 130.604L116.302 128.599L122.42 141.929L116.458 145.661L108.743 142.276L110.878 130.604Z" fill="#BF8C5C"/>
<path d="M192.446 126.23L179.176 121.448L184.583 142.485L194.962 138.848L192.446 126.23Z" fill="#BF8C5C"/>
<path d="M201.324 140.732L194.962 138.848L192.446 126.23L203.571 128.573L201.324 140.732Z" fill="#BF8C5C"/>
<path d="M195.579 126.889L192.446 116.145L184.904 134.3L196.282 134.786L195.579 126.889Z" fill="#BF8C5C"/>
<path d="M68.6227 145.661L110.218 127.584C111.164 127.167 112.205 127.931 112.093 128.964C111.667 132.877 111.607 140.775 117.013 145.661C124.416 152.36 76.9452 165.1 76.9452 165.1L68.6227 145.661Z" fill="#FF6680"/>
<path d="M191.656 149.314L143.586 155.233C141.582 155.476 139.751 154.053 139.508 152.048L132.166 116.163C131.923 114.158 133.346 112.327 135.351 112.084L188.697 105.515C190.701 105.272 192.532 106.695 192.775 108.7L194.85 145.227C195.093 147.231 193.669 149.063 191.665 149.306L191.656 149.314Z" fill="#575E75"/>
<path opacity="0.2" d="M166.108 135.715C169.258 135.433 171.663 133.536 171.479 131.478C171.294 129.421 168.591 127.982 165.44 128.264C162.289 128.546 159.885 130.443 160.069 132.501C160.253 134.558 162.957 135.997 166.108 135.715Z" fill="black"/>
<path d="M135.29 136.028C133.424 137.824 122.42 141.92 122.42 141.92L116.302 128.599C116.302 128.599 130.881 107.389 133.823 107.962C136.765 108.535 142.693 106.148 142.397 109.455C142.102 112.761 134.813 112.284 134.813 112.284L133.207 115.677C133.207 115.677 137.225 112.579 139.291 113.612C141.356 114.644 139.811 117.855 139.811 117.855C139.811 117.855 141.686 116.97 142.771 118.567C143.855 120.164 141.686 122.411 141.686 122.411C141.686 122.411 143.864 120.962 145.018 122.776C146.173 124.59 142.128 129.432 135.299 136.019L135.29 136.028Z" fill="#BF8C5C"/>
<path d="M141.677 122.42C141.677 122.42 147.336 119.391 149.219 118.723C150.954 118.115 155.363 114.245 155.563 117.317C155.632 118.376 149.878 122.42 149.878 122.42L143.777 126.75L141.677 122.42Z" fill="#BF8C5C"/>
<path d="M136.652 113.75C136.652 113.75 145.704 107.545 147.717 107.771C149.731 107.997 150.182 109.871 148.386 110.782C146.589 111.694 139.794 117.873 139.794 117.873L136.652 113.75Z" fill="#BF8C5C"/>
<path d="M139.803 117.864C139.803 117.864 146.225 111.624 150.868 111.303C155.511 110.982 156.396 111.06 156.378 112.188C156.344 113.733 148.342 115.668 148.342 115.668L141.677 122.42L139.803 117.864Z" fill="#BF8C5C"/>
<path d="M229.389 126.646L200.916 125.049C199.545 124.971 198.547 126.342 199.059 127.618C200.178 130.404 201.489 135.125 200.786 140.87C200.664 141.868 201.324 142.788 202.313 142.961L232.01 148.776L240.784 133.702L229.389 126.655V126.646Z" fill="#FF6680"/>
<path d="M186.727 112.492C186.093 112.492 185.581 112.067 185.52 111.502C185.46 110.886 185.963 110.331 186.64 110.261C186.692 110.261 186.735 110.261 186.787 110.261C187.421 110.261 187.933 110.687 187.994 111.251C188.028 111.546 187.924 111.832 187.725 112.067C187.508 112.31 187.213 112.457 186.874 112.492C186.822 112.492 186.779 112.492 186.727 112.492Z" fill="#E5F0FF"/>
<path d="M186.787 110.583C187.247 110.583 187.629 110.887 187.673 111.286C187.716 111.72 187.343 112.119 186.839 112.171C186.805 112.171 186.761 112.171 186.727 112.171C186.267 112.171 185.885 111.867 185.841 111.468C185.798 111.034 186.171 110.635 186.675 110.583C186.709 110.583 186.753 110.583 186.787 110.583ZM186.787 109.932C186.727 109.932 186.666 109.932 186.605 109.941C185.746 110.027 185.112 110.748 185.191 111.537C185.269 112.275 185.937 112.822 186.727 112.822C186.787 112.822 186.848 112.822 186.909 112.813C187.768 112.726 188.402 112.006 188.323 111.216C188.245 110.479 187.577 109.932 186.787 109.932Z" fill="#4D4D4D"/>
<path d="M187.074 99.8042L190.858 84.0876" stroke="#FFBF00" stroke-width="3" stroke-miterlimit="10" stroke-linecap="round"/>
<path d="M194.867 102.069L203.571 90.2666" stroke="#FFBF00" stroke-width="3" stroke-miterlimit="10" stroke-linecap="round"/>
<path d="M198.008 107.97L211.095 103.735" stroke="#FFBF00" stroke-width="3" stroke-miterlimit="10" stroke-linecap="round"/>
<path fill-rule="evenodd" clip-rule="evenodd" d="M77.5 42.2809C77.5 50.1628 85.3233 56.5424 95 56.5424C96.2486 56.5424 97.4777 56.4448 98.6483 56.2302L105.404 59.8873C106.629 60.5504 107.441 59.984 107.216 58.6192L106.315 53.1477C110.1 50.553 112.5 46.6511 112.5 42.2809C112.5 34.3991 104.657 28 95 28C85.3233 28 77.5 34.3991 77.5 42.2809Z" fill="#FFBF00"/>
<path d="M431.868 185.078C446.972 208.501 419.968 241.491 362.3 235.222C304.631 228.954 302.801 212.129 292.731 185.078C282.662 158.026 317.904 145.82 362.3 134.933C406.695 124.046 416.765 161.655 431.868 185.078Z" fill="#E5F0FF"/>
<path fill-rule="evenodd" clip-rule="evenodd" d="M305.692 150.026C305.692 150.026 314.634 137.607 340.571 136.094C366.508 134.581 376.833 145.876 376.833 145.876L305.692 150.026ZM305.692 150.026L416.109 143.585C417.746 143.489 419.151 144.739 419.246 146.376L419.419 149.34L419.419 149.34L420.975 176.018L307.594 182.632L306.038 155.954L305.692 150.026ZM307.594 182.632L344.647 180.471L420.975 176.018C421.071 177.655 419.821 179.06 418.184 179.155L344.82 183.435L344.565 183.45C343.779 183.496 343.043 183.852 342.52 184.44L338.572 188.877C338.049 189.465 337.313 189.822 336.527 189.867L327.126 190.416C326.34 190.462 325.567 190.193 324.979 189.67L320.542 185.722C319.954 185.199 319.182 184.931 318.396 184.976L310.731 185.424C309.094 185.519 307.689 184.269 307.594 182.632Z" fill="#FFBF00"/>
<path fill-rule="evenodd" clip-rule="evenodd" d="M306.163 193.909C306.198 192.31 307.522 191.042 309.12 191.077L316.604 191.239L419.106 193.464C420.704 193.499 421.972 194.823 421.937 196.421L421.309 225.365C421.274 226.963 419.95 228.231 418.352 228.196L341.651 226.532L341.641 227.001L341.393 226.996C340.625 226.979 339.883 227.268 339.328 227.799L335.146 231.803C334.591 232.334 333.849 232.623 333.081 232.607L323.901 232.407C323.134 232.391 322.404 232.07 321.873 231.515L317.869 227.333C317.338 226.779 316.608 226.458 315.84 226.441L308.356 226.279L308.366 225.809C306.768 225.775 305.5 224.451 305.535 222.852L306.163 193.909ZM316.612 191.24L342.151 191.794C341.385 191.779 340.645 192.068 340.092 192.597L335.91 196.602C335.355 197.133 334.613 197.422 333.845 197.405L324.665 197.206C323.898 197.189 323.168 196.868 322.637 196.314L318.633 192.132C318.103 191.579 317.377 191.258 316.612 191.24Z" fill="#4C97FF"/>
<path d="M543.64 344.701L659.793 344.791C686.336 344.814 693.43 307.747 668.583 298.422C663.494 296.514 657.675 295.195 651.018 294.713C603.096 291.215 599.176 246.293 546.663 259.696C510.975 268.803 514.526 304.799 520.466 326.925C523.278 337.411 532.784 344.701 543.64 344.708V344.701Z" fill="#FFBF00"/>
<path d="M507.033 203.014C507.033 203.014 499.261 199.441 499.751 202.464C499.751 202.464 499.931 203.934 501.047 205.299L500.535 205.593L505.548 208.42C505.548 208.42 505.314 211.495 503.422 211.148C502.336 210.952 502.329 212.008 502.517 212.943C500.075 213.757 500.761 218.951 500.761 218.951L509.272 213.772L511.375 204.59L507.033 203.014Z" fill="#BF8C5C"/>
<path d="M460 186.008L465.488 190.35C467.75 192.144 470.335 193.486 473.102 194.307L519.29 208.028L519.449 191.556L460 186V186.008Z" fill="#D9E3F2"/>
<path d="M460 186.007L514.119 186.874L519.449 191.556L460 186.007Z" fill="#E9F1FC"/>
<path d="M496.064 228.638C496.064 228.638 499.2 219.893 511.367 219.524V232.415L498.778 233.53L496.064 228.63V228.638Z" fill="#C94FC9"/>
<path d="M499.751 229.527L497.067 222.087C497.067 222.087 496.313 214.194 498.409 211.97C500.504 209.746 496.765 202.102 499.751 202.457C505.329 203.128 501.876 212.573 504.628 214.194C507.38 215.815 509.204 205.088 509.204 205.088C509.204 205.088 500.776 197.602 503.067 195.981C505.359 194.36 512.249 200.987 513.305 204.077C514.443 207.417 513.048 213.561 511.224 218.024C509.4 222.486 510.267 224.575 510.267 224.575L507.184 231.804L499.751 229.527Z" fill="#E0B585"/>
<path d="M603.096 291.215C603.096 291.215 631.667 310.121 641.761 336.469L645.274 345.01L569.829 345.537L556.636 310.091V289.896L603.096 291.215Z" fill="#CF63CF"/>
<path d="M568.193 288.403L537.624 272.919C534.081 271.125 531.299 268.117 529.792 264.438L511.367 219.524C511.367 219.524 511.729 224.989 504.447 228.268C497.165 231.548 496.064 228.63 496.064 228.63C496.064 228.63 505.337 275.113 513.192 285.478C522.155 297.314 560.677 317.713 560.677 317.713L568.193 288.395V288.403Z" fill="#CF63CF"/>
<path d="M558.604 263.994L559.086 256.327L563.489 247.59L567.884 244.288L570.025 243.617L570.665 246.172L558.604 263.994Z" fill="#47A8D1"/>
<path d="M584.001 292.466C581.8 293.409 580.458 293.627 579.636 293.914C577.02 294.818 570.567 294.555 565.057 292.353C557.375 289.285 555.453 276.975 557.277 271.916C557.842 270.348 558.159 268.404 558.31 267.341C558.43 263.873 559.116 260.36 560.405 257.058C565.826 243.21 580.465 235.995 593.107 240.941C605.75 245.886 607.928 259.681 602.508 273.53C598.92 282.712 591.833 289.112 584.001 292.459V292.466Z" fill="#E0B585"/>
<path d="M576.771 272.088C577.008 271.191 576.701 270.331 576.086 270.168C575.47 270.006 574.778 270.601 574.541 271.499C574.303 272.396 574.61 273.256 575.226 273.419C575.842 273.582 576.534 272.986 576.771 272.088Z" fill="black"/>
<path d="M564.283 267.103C564.52 266.206 564.213 265.346 563.598 265.183C562.982 265.021 562.29 265.616 562.053 266.514C561.815 267.411 562.122 268.271 562.738 268.434C563.354 268.597 564.046 268.001 564.283 267.103Z" fill="black"/>
<path d="M568.193 267.793C568.193 267.793 567.793 271.132 566.866 272.037C565.939 272.942 564.446 272.7 565.69 275.98" stroke="#6B3D1F" stroke-width="0.87" stroke-miterlimit="10" stroke-linecap="round"/>
<path d="M575.746 265.305C575.588 265.38 575.528 265.659 575.656 265.705C576.591 266.059 579.041 267.137 580.141 268.999C580.94 270.341 579.372 263.481 575.746 265.305Z" fill="#955D31"/>
<path d="M566.798 261.641C566.858 261.815 566.738 262.063 566.61 262.003C565.712 261.543 563.278 260.428 561.333 260.918C559.923 261.272 565.305 257.525 566.798 261.641Z" fill="#955D31"/>
<path d="M560.971 279.131C560.971 279.131 562.923 283.187 569.829 282.44" stroke="#6B3D1F" stroke-linecap="round" stroke-linejoin="round"/>
<path d="M566.813 247.175C566.813 247.175 578.822 241.476 587.823 255.731C596.831 269.994 587.823 290.536 587.823 290.536C587.823 290.536 604.724 283.352 605.282 259.696C605.84 236.041 577.194 234.028 566.813 247.175Z" fill="#2E8EB8"/>
<path d="M564.506 299.357C564.506 299.357 555.008 321.573 563.006 345.545C568.909 363.23 569.874 346.585 574.163 347.754C578.453 348.922 572.399 314.886 576.583 305.395L564.514 299.357H564.506Z" fill="#5CB1D6"/>
<path d="M558.604 263.993C558.604 263.993 559.109 243.436 574.638 243.602C590.167 243.767 590.605 261.573 588.954 271.886C587.303 282.199 579.636 293.914 579.636 293.914L594.766 291.109C594.766 291.109 610.687 280.261 609.082 276.862C607.581 273.688 612.218 273.816 611.064 266.911C609.911 260.005 610.529 245.26 591.886 240.074C573.243 234.887 566.444 242.441 562.117 248.886C559.953 252.105 557.375 257.322 558.611 263.986L558.604 263.993Z" fill="#5CB1D6"/>
<path d="M563.481 294.713C563.481 294.713 562.124 294.931 562.916 297.065C563.157 297.721 561.898 298.738 563.127 300.721C564.612 303.118 567.831 304.98 572.007 305.304C580.352 305.953 589.806 303.887 589.806 303.887L587.235 298.98L563.481 294.72V294.713Z" fill="#47A8D1"/>
<path d="M602.87 289.896C602.87 289.896 587.823 324.113 597.721 343.072C597.721 343.072 600.427 354.335 592.7 353.159C584.973 351.983 587.898 349.292 581.43 349.126C574.962 348.96 584.581 301.724 584.581 301.724L602.87 289.896Z" fill="#5CB1D6"/>
<path d="M605.606 282.531C605.606 282.531 604.136 289.066 603.096 291.215C602.056 293.363 588.908 313.755 569.829 300.239C558.966 292.542 564.665 295.112 564.28 293.424C563.896 291.735 565.057 292.353 565.057 292.353C565.057 292.353 568.027 293.635 571.811 294.11C575.595 294.585 581.709 293.333 584.001 292.459C586.293 291.584 605.606 282.523 605.606 282.523V282.531Z" fill="#5CB1D6"/>
<path d="M584.838 304.46C584.838 304.46 588.441 305.131 594.781 301.015C594.781 301.015 593.19 307.166 584.838 304.46Z" fill="#47A8D1"/>
<path d="M565.223 293.914C565.223 293.914 561.204 294.464 572.007 299.357C582.81 304.249 596.047 294.404 596.047 294.404C596.047 294.404 575.505 305.207 565.223 293.914Z" fill="#47A8D1"/>
<path d="M587.831 290.537C587.831 290.537 606.262 279.809 607.687 275.98C609.104 272.158 589.18 289.685 587.831 290.537Z" fill="#47A8D1"/>
<path d="M627.181 344.203C623.48 336.943 610.197 339.167 606.843 339.755C603.488 340.343 599.787 352.933 599.734 354.478C599.704 355.458 602.01 355.368 602.764 353.769C603.518 352.171 607.958 344.565 609.051 344.309C610.144 344.052 613.582 345.145 613.582 345.145H620.125C620.125 345.145 628.357 346.525 627.181 344.211V344.203Z" fill="#E0B585"/>
<path d="M607.973 349.593C608.833 349.985 610.242 348.824 610.582 348.101L613.416 341.927C613.748 341.203 613.318 340.291 612.459 339.899C611.599 339.507 610.634 339.77 610.303 340.502L607.468 346.676C607.137 347.399 607.114 349.201 607.973 349.601V349.593Z" fill="#E0B585"/>
<path d="M615.497 353.37C616.477 353.672 617.902 352.352 618.196 351.395L620.917 342.567C621.211 341.61 620.661 340.592 619.681 340.291C618.701 339.989 617.668 340.517 617.374 341.474L614.652 350.302C614.358 351.259 614.517 353.069 615.497 353.37Z" fill="#E0B585"/>
<path d="M611.931 349.88C612.79 350.272 614.223 349.065 614.57 348.319L617.487 341.957C617.826 341.21 617.412 340.283 616.552 339.891C615.693 339.499 613.529 339.725 613.182 340.479L611.456 346.902C611.117 347.648 611.072 349.495 611.931 349.895V349.88Z" fill="#E0B585"/>
<path d="M608.162 356.363C609.104 356.438 610.031 354.991 610.092 354.26L610.612 348.003C610.672 347.264 609.956 346.608 609.014 346.525C608.071 346.45 607.257 346.977 607.197 347.716L606.677 353.973C606.616 354.712 607.22 356.287 608.162 356.363Z" fill="#E0B585"/>
<path d="M612.331 355.006C613.273 355.081 614.178 353.845 614.23 353.212L614.683 347.814C614.735 347.181 614.012 346.6 613.069 346.525C612.127 346.45 611.32 346.894 611.268 347.528L610.815 352.925C610.763 353.558 611.381 354.93 612.323 355.006H612.331Z" fill="#E0B585"/>
<path d="M460 186.007L525.412 202.75L519.886 194.285L460 186.007Z" fill="#E5F0FF"/>
<path d="M526.595 206.799C526.595 206.799 537.579 205.728 540.006 217.677C542.434 229.625 529.105 220.602 533.425 215.77C537.745 210.937 556.048 225.683 556.048 225.683" stroke="#FFBF00" stroke-width="3" stroke-miterlimit="10" stroke-linecap="round"/>
<path fill-rule="evenodd" clip-rule="evenodd" d="M628.637 223.32L635.98 225.603L642.028 220.849C644.086 219.228 647.108 220.672 647.143 223.292L647.239 230.985L653.631 235.265C655.807 236.722 655.367 240.043 652.888 240.884L645.602 243.353L643.507 250.755C642.792 253.276 639.499 253.882 637.932 251.785L633.333 245.618L625.647 245.912C623.027 246.012 621.431 243.068 622.945 240.929L627.386 234.646L624.731 227.43C623.83 224.971 626.135 222.545 628.637 223.32Z" fill="#FFBF00"/>
<path fill-rule="evenodd" clip-rule="evenodd" d="M619.359 175.232L622.067 179.296L626.951 179.372C628.615 179.396 629.527 181.317 628.496 182.623L625.465 186.455L626.904 191.123C627.394 192.713 625.848 194.175 624.289 193.597L619.708 191.899L615.713 194.711C614.352 195.668 612.486 194.649 612.552 192.988L612.752 188.107L608.844 185.176C607.512 184.177 607.903 182.086 609.505 181.638L614.21 180.316L615.788 175.696C616.327 174.122 618.435 173.848 619.359 175.232Z" fill="#FFBF00"/>
<g opacity="0.8">
<path opacity="0.5" d="M371 245C373.774 259.246 389.75 287.242 431.467 285.255C483.613 282.77 427.584 224.624 420.372 259.909C414.603 288.137 470.5 321.5 522 303.5" stroke="#FFBF00" stroke-width="6" stroke-linecap="round" stroke-dasharray="4 12"/>
<path opacity="0.5" d="M253.303 64.9079C269.285 56.6088 302.011 49.7676 305.066 88.7951C325.393 80.4018 365.59 75.5083 363.767 123.08" stroke="#FFBF00" stroke-width="6" stroke-linecap="round" stroke-linejoin="round" stroke-dasharray="4 12"/>
</g>
<g clip-path="url(#clip2_533_17533)">
<path d="M561.387 150.3C592.756 145.393 614.207 115.986 609.3 84.6172C604.394 53.2487 574.987 31.7972 543.618 36.704C512.249 41.6109 490.798 71.0179 495.705 102.386C500.612 133.755 530.019 155.206 561.387 150.3Z" fill="#575E75"/>
<path d="M560.595 145.236C589.167 140.767 608.706 113.981 604.237 85.4092C599.768 56.837 572.982 37.2979 544.41 41.7673C515.838 46.2367 496.299 73.0222 500.768 101.594C505.238 130.166 532.023 149.706 560.595 145.236Z" fill="#E5F0FF"/>
<path d="M557.475 125.288C575.03 122.542 587.034 106.085 584.288 88.5299C581.542 70.975 565.085 58.9701 547.531 61.7161C529.976 64.4621 517.971 80.9192 520.717 98.4741C523.463 116.029 539.92 128.034 557.475 125.288Z" fill="#5CB1D6"/>
<path fill-rule="evenodd" clip-rule="evenodd" d="M572.849 125.908L570.762 138.454L561.57 130.165L572.849 125.908Z" fill="#5CB1D6"/>
<path fill-rule="evenodd" clip-rule="evenodd" d="M519.122 113.125L506.48 111.681L514.289 102.075L519.122 113.125Z" fill="#5CB1D6"/>
<path fill-rule="evenodd" clip-rule="evenodd" d="M590.563 84.4582L598.823 74.7818L586.561 73.0833L590.563 84.4582Z" fill="#5CB1D6"/>
<path d="M550.552 97.5356L532.465 84.2251L554.24 89.0543L550.552 97.5356Z" fill="#E5F0FF"/>
<path d="M550.552 97.5357L572.621 101.685L554.24 89.0544L550.552 97.5357Z" fill="#E5F0FF"/>
<path d="M554.241 97.2569L527.005 103.843L550.849 88.6527L554.241 97.2569Z" fill="#E5F0FF"/>
<path d="M554.241 97.2567L578.774 82.6252L550.849 88.6525L554.241 97.2567Z" fill="#E5F0FF"/>
<path d="M548.241 94.6534L563.435 120.608L556.845 91.2615L548.241 94.6534Z" fill="#E5F0FF"/>
<path d="M548.241 94.6533L542.175 66.6318L556.845 91.2614L548.241 94.6533Z" fill="#E5F0FF"/>
<path d="M557.124 94.9463L561.273 72.8817L548.643 91.2627L557.124 94.9463Z" fill="#E5F0FF"/>
<path d="M557.124 94.9462L543.813 113.033L548.643 91.2626L557.124 94.9462Z" fill="#E5F0FF"/>
<path d="M547.843 92.11L555.236 52.4572C555.296 52.1262 555.786 52.1614 555.797 52.4999L557.194 92.9263L547.843 92.11Z" fill="#E64D00"/>
<path d="M557.19 93.1695L552.932 133.278C552.896 133.615 552.407 133.617 552.368 133.283L547.806 93.0902L557.19 93.1695Z" fill="#3373CC"/>
<path d="M553.484 99.4165C557.036 98.8608 559.466 95.5303 558.91 91.9776C558.354 88.4249 555.024 85.9954 551.471 86.5511C547.919 87.1069 545.489 90.4374 546.045 93.9901C546.601 97.5427 549.931 99.9722 553.484 99.4165Z" fill="#FFBF00"/>
<path fill-rule="evenodd" clip-rule="evenodd" d="M533.267 60.3306L535.354 47.7839L544.546 56.0728L533.267 60.3306Z" fill="#5CB1D6"/>
</g>
<path d="M621.5 116C619 140.333 596.1 184.7 524.5 167.5" stroke="#FFE599" stroke-width="6" stroke-linecap="round" stroke-linejoin="round" stroke-dasharray="4 12"/>
<path d="M517.5 172.5L512 163L523 160" stroke="#FFE599" stroke-width="6" stroke-linecap="round" stroke-linejoin="round"/>
<path d="M148.602 249.249C126.019 234.437 114.344 258.63 112.933 272.208C106.888 272.208 95.2802 275.763 97.2148 289.982C99.1494 304.202 113.739 305.782 120.793 304.794C118.173 308.744 122.996 325.061 134.093 329.234C152.083 335.999 164.523 328.494 169.157 321.828C170.367 326.766 176.775 337.085 192.735 338.862C208.696 340.64 215.91 324.791 217.522 316.644C225.986 323.309 241.705 318.866 242.914 304.794C243.881 293.537 236.465 285.292 232.636 282.576C236.264 279.12 240.281 263.591 232.636 254.433C224.189 244.314 208.454 248.509 201.804 254.433C202.207 250.73 198.566 236.93 180.644 234.437C161.952 231.838 151.827 241.35 148.602 249.249Z" fill="#4C97FF" fill-opacity="0.25"/>
<path fill-rule="evenodd" clip-rule="evenodd" d="M177.359 273.232L180.067 277.296L184.951 277.372C186.615 277.396 187.527 279.317 186.496 280.623L183.465 284.455L184.904 289.123C185.394 290.713 183.848 292.175 182.289 291.597L177.708 289.899L173.713 292.711C172.352 293.668 170.486 292.649 170.552 290.988L170.752 286.107L166.844 283.176C165.512 282.177 165.903 280.086 167.505 279.638L172.21 278.316L173.788 273.696C174.327 272.122 176.435 271.848 177.359 273.232Z" fill="#FFBF00"/>
<path d="M284 281C284 289.284 276.389 296 267 296C257.611 296 250 289.284 250 281C250 272.716 255.5 269.594 267 266C278.5 262.406 284 272.716 284 281Z" fill="#4C97FF" fill-opacity="0.25"/>
<path d="M306 257.785C306 252.933 301.075 249 295 249C288.925 249 284 252.933 284 257.785C284 262.636 287.559 264.465 295 266.569C302.441 268.674 306 262.636 306 257.785Z" fill="#4C97FF" fill-opacity="0.15"/>
<path d="M163 209.5C146.5 207.5 113.8 209.6 115 234C116.5 264.5 214.5 249 213 291.5C211.5 334 177.5 289.5 163 307" stroke="#FFE599" stroke-width="6" stroke-linecap="round" stroke-dasharray="6 12"/>
<path fill-rule="evenodd" clip-rule="evenodd" d="M174.509 185.387C180.882 180.725 190.871 181.157 196.819 186.351C202.766 191.544 212.758 191.976 219.132 187.314L217.832 217.403C211.459 222.068 201.467 221.636 195.519 216.44C189.572 211.246 179.583 210.814 173.209 215.476L174.509 185.387Z" fill="#59C059" stroke="#59C059" stroke-width="2.74184" stroke-linecap="round" stroke-linejoin="round"/>
<path d="M172.664 228.098L174.668 181.691" stroke="#59C059" stroke-width="4.11276" stroke-linecap="round" stroke-linejoin="round"/>
<path d="M137.294 298.515L133.397 290.721L122.485 300.074L128.721 306.309L137.294 298.515Z" fill="#CECECE"/>
<path fill-rule="evenodd" clip-rule="evenodd" d="M106.037 278.468C108.534 283.558 112.236 289.427 115.729 293.778C118.654 297.441 121 299.59 123.242 300.638C123.503 300.801 123.758 300.853 124.076 300.853C124.285 300.853 124.493 300.801 124.754 300.69C125.223 300.538 125.64 300.172 125.849 299.7C126.475 298.28 127.361 297.079 128.555 296.131C129.759 295.24 131.115 294.558 132.674 294.192C133.148 294.087 133.617 293.778 133.878 293.301C134.139 292.881 134.238 292.357 134.139 291.838C133.513 289.427 131.897 286.597 129.081 283.086C123.55 276.058 112.496 265.633 107.131 265.051C105.672 264.842 104.837 265.314 104.316 265.733C102.955 266.886 101.6 269.407 106.037 278.468Z" fill="#CC9900"/>
<path fill-rule="evenodd" clip-rule="evenodd" d="M128.017 306.506C127.699 309.179 128.387 311.798 130.033 313.884C131.456 315.749 133.467 317.038 135.742 317.572C135.848 317.626 136.007 317.679 136.113 317.679L136.647 317.733C137.647 317.893 138.6 318 139.558 318C147.172 318 152.522 312.862 154.634 309.5C155.433 308.163 156.644 305.704 155.586 304.153C155.321 303.779 154.586 302.977 152.998 303.298C147.971 304.367 146.172 302.122 145.849 301.694C142.463 297.257 136.166 296.455 131.832 299.77C129.71 301.427 128.339 303.833 128.017 306.506Z" fill="#FFBF00"/>
<path d="M147.426 303.191C149.297 303.815 152.363 303.451 153.662 303.191C159.274 304.438 153.662 312 148.5 315.5C147.461 315.76 144.247 316.747 143 315.5C141.441 313.941 145.5 308.5 143.5 307C141.629 305.597 145.088 302.412 147.426 303.191Z" fill="#FFE599"/>
<defs>
<clipPath id="clip0_533_17533">
<rect width="172.852" height="82.7807" fill="white" transform="translate(453 79.5913) rotate(-17.0188)"/>
</clipPath>
<clipPath id="clip1_533_17533">
<rect width="32.8757" height="25.6552" fill="white" transform="matrix(-0.956209 0.292686 0.292686 0.956209 452.436 89)"/>
</clipPath>
<clipPath id="clip2_533_17533">
<rect width="115" height="115" fill="white" transform="translate(486.804 45.5771) rotate(-8.89045)"/>
</clipPath>
</defs>
</svg>
