<svg width="700" height="373" viewBox="0 0 700 373" fill="none" xmlns="http://www.w3.org/2000/svg">
<rect width="700" height="373" fill="#C4C4C4"/>
<path d="M317.768 181.048V176.856H320.744C321.608 176.856 322.237 177.037 322.632 177.4C323.037 177.752 323.24 178.269 323.24 178.952C323.24 179.635 323.037 180.157 322.632 180.52C322.237 180.883 321.608 181.059 320.744 181.048H317.768ZM316.248 175.576V187H317.768V182.328H321.256C322.408 182.339 323.277 182.045 323.864 181.448C324.461 180.851 324.76 180.019 324.76 178.952C324.76 177.885 324.461 177.059 323.864 176.472C323.277 175.875 322.408 175.576 321.256 175.576H316.248ZM326.623 175.576V187H334.191V185.72H328.143V175.576H326.623ZM337.482 182.28L339.418 176.952H339.45L341.354 182.28H337.482ZM338.618 175.576L334.17 187H335.722L337.002 183.56H341.834L343.082 187H344.762L340.298 175.576H338.618ZM353.921 179.016H355.441C355.355 178.408 355.174 177.875 354.897 177.416C354.619 176.947 354.273 176.557 353.857 176.248C353.441 175.939 352.966 175.704 352.433 175.544C351.899 175.384 351.334 175.304 350.737 175.304C349.862 175.304 349.083 175.464 348.401 175.784C347.729 176.093 347.163 176.52 346.705 177.064C346.257 177.608 345.915 178.248 345.681 178.984C345.446 179.709 345.329 180.488 345.329 181.32C345.329 182.152 345.435 182.931 345.649 183.656C345.873 184.381 346.203 185.011 346.641 185.544C347.078 186.077 347.627 186.499 348.289 186.808C348.95 187.107 349.723 187.256 350.609 187.256C352.07 187.256 353.222 186.856 354.065 186.056C354.907 185.256 355.403 184.136 355.553 182.696H354.033C354.001 183.165 353.905 183.603 353.745 184.008C353.585 184.413 353.361 184.765 353.073 185.064C352.795 185.352 352.459 185.581 352.065 185.752C351.681 185.912 351.238 185.992 350.737 185.992C350.054 185.992 349.467 185.864 348.977 185.608C348.486 185.352 348.081 185.011 347.761 184.584C347.451 184.147 347.222 183.64 347.073 183.064C346.923 182.477 346.849 181.859 346.849 181.208C346.849 180.611 346.923 180.035 347.073 179.48C347.222 178.925 347.451 178.435 347.761 178.008C348.081 177.571 348.481 177.224 348.961 176.968C349.451 176.712 350.038 176.584 350.721 176.584C351.521 176.584 352.209 176.787 352.785 177.192C353.371 177.597 353.75 178.205 353.921 179.016ZM357.436 175.576V187H365.372V185.72H358.956V181.768H364.892V180.488H358.956V176.856H365.324V175.576H357.436ZM367.217 175.576V187H368.737V181.768H374.753V187H376.273V175.576H374.753V180.488H368.737V175.576H367.217ZM379.644 181.288C379.644 180.712 379.718 180.147 379.868 179.592C380.017 179.027 380.252 178.52 380.572 178.072C380.892 177.624 381.302 177.267 381.804 177C382.305 176.723 382.902 176.584 383.596 176.584C384.289 176.584 384.886 176.723 385.388 177C385.889 177.267 386.3 177.624 386.62 178.072C386.94 178.52 387.174 179.027 387.324 179.592C387.473 180.147 387.548 180.712 387.548 181.288C387.548 181.864 387.473 182.435 387.324 183C387.174 183.555 386.94 184.056 386.62 184.504C386.3 184.952 385.889 185.315 385.388 185.592C384.886 185.859 384.289 185.992 383.596 185.992C382.902 185.992 382.305 185.859 381.804 185.592C381.302 185.315 380.892 184.952 380.572 184.504C380.252 184.056 380.017 183.555 379.868 183C379.718 182.435 379.644 181.864 379.644 181.288ZM378.124 181.288C378.124 182.067 378.236 182.819 378.46 183.544C378.694 184.259 379.041 184.893 379.5 185.448C379.958 186.003 380.529 186.445 381.212 186.776C381.894 187.096 382.689 187.256 383.596 187.256C384.502 187.256 385.297 187.096 385.98 186.776C386.662 186.445 387.233 186.003 387.692 185.448C388.15 184.893 388.492 184.259 388.716 183.544C388.95 182.819 389.068 182.067 389.068 181.288C389.068 180.509 388.95 179.763 388.716 179.048C388.492 178.323 388.15 177.683 387.692 177.128C387.233 176.573 386.662 176.131 385.98 175.8C385.297 175.469 384.502 175.304 383.596 175.304C382.689 175.304 381.894 175.469 381.212 175.8C380.529 176.131 379.958 176.573 379.5 177.128C379.041 177.683 378.694 178.323 378.46 179.048C378.236 179.763 378.124 180.509 378.124 181.288ZM390.92 175.576V187H398.488V185.72H392.44V175.576H390.92ZM401.331 185.72V176.856H403.891C404.595 176.856 405.187 176.957 405.667 177.16C406.147 177.352 406.536 177.64 406.835 178.024C407.144 178.397 407.363 178.856 407.491 179.4C407.629 179.933 407.699 180.541 407.699 181.224C407.699 181.928 407.624 182.531 407.475 183.032C407.336 183.523 407.155 183.933 406.931 184.264C406.707 184.595 406.451 184.856 406.163 185.048C405.885 185.24 405.603 185.389 405.315 185.496C405.027 185.592 404.755 185.656 404.499 185.688C404.243 185.709 404.029 185.72 403.859 185.72H401.331ZM399.811 175.576V187H403.731C404.68 187 405.501 186.867 406.195 186.6C406.888 186.333 407.459 185.949 407.907 185.448C408.355 184.936 408.685 184.312 408.899 183.576C409.112 182.829 409.219 181.976 409.219 181.016C409.219 179.181 408.744 177.816 407.795 176.92C406.845 176.024 405.491 175.576 403.731 175.576H399.811ZM411.076 175.576V187H419.012V185.72H412.596V181.768H418.532V180.488H412.596V176.856H418.964V175.576H411.076ZM420.857 175.576V187H422.377V182.12H426.089C426.463 182.12 426.761 182.179 426.985 182.296C427.209 182.403 427.391 182.552 427.529 182.744C427.668 182.925 427.769 183.144 427.833 183.4C427.897 183.645 427.951 183.907 427.993 184.184C428.047 184.461 428.079 184.744 428.089 185.032C428.1 185.32 428.111 185.592 428.121 185.848C428.132 186.093 428.153 186.317 428.185 186.52C428.228 186.723 428.303 186.883 428.409 187H430.105C429.945 186.808 429.823 186.589 429.737 186.344C429.663 186.088 429.604 185.821 429.561 185.544C429.519 185.267 429.492 184.984 429.481 184.696C429.471 184.408 429.455 184.125 429.433 183.848C429.401 183.571 429.353 183.304 429.289 183.048C429.236 182.792 429.145 182.563 429.017 182.36C428.9 182.147 428.735 181.965 428.521 181.816C428.319 181.667 428.052 181.56 427.721 181.496V181.464C428.415 181.272 428.916 180.915 429.225 180.392C429.545 179.869 429.705 179.261 429.705 178.568C429.705 177.64 429.396 176.909 428.777 176.376C428.169 175.843 427.321 175.576 426.233 175.576H420.857ZM425.545 180.84H422.377V176.856H426.153C426.868 176.856 427.385 177.037 427.705 177.4C428.025 177.763 428.185 178.232 428.185 178.808C428.185 179.224 428.111 179.565 427.961 179.832C427.823 180.088 427.631 180.296 427.385 180.456C427.151 180.605 426.873 180.707 426.553 180.76C426.233 180.813 425.897 180.84 425.545 180.84Z" fill="black"/>
</svg>
