<svg id="Layer_2" data-name="Layer 2" xmlns="http://www.w3.org/2000/svg" width="8" height="12" viewBox="0 0 8 12"><title>info</title><g id="_Group_" data-name="&lt;Group&gt;"><circle id="_Path_" data-name="&lt;Path&gt;" cx="4.71" cy="2.23" r="1.23" fill="#fff"/><path id="_Path_2" data-name="&lt;Path&gt;" d="M5.88,10.21l-1.63.7A1.14,1.14,0,0,1,2.69,9.65L3.28,6.5A0.43,0.43,0,0,0,2.83,6L2.17,6a0.34,0.34,0,0,1-.36-0.25h0A0.34,0.34,0,0,1,2,5.41l1.63-.86A1.14,1.14,0,0,1,5.26,5.78l-0.6,3a0.43,0.43,0,0,0,.46.51l0.51,0a0.52,0.52,0,0,1,.55.39h0A0.52,0.52,0,0,1,5.88,10.21Z" fill="#fff"/></g></svg>