<svg width="31" height="31" viewBox="0 0 31 31" fill="none" xmlns="http://www.w3.org/2000/svg">
<path fill-rule="evenodd" clip-rule="evenodd" d="M24.1754 9.37696V18.5866C24.1534 19.3213 23.7179 19.9475 23.0638 20.2056C22.4112 20.4652 21.6956 20.3127 21.1926 19.8097L19.446 18.063L12.1472 23.5815C11.0385 24.435 9.43856 24.3279 8.434 23.3234C8.34748 23.2369 8.26536 23.143 8.1891 23.0462C7.42505 21.9977 7.43238 20.5913 8.19203 19.6117L13.6797 12.2968L12.0093 10.6264C11.5005 10.1175 11.3465 9.36523 11.6163 8.71117C11.8891 8.05418 12.5079 7.64355 13.2324 7.64355L22.442 7.64355C22.8981 7.64502 23.3322 7.82687 23.6622 8.15683C23.9921 8.48679 24.174 8.92088 24.1754 9.37696Z" fill="white"/>
</svg>
