<svg width="88" height="82" viewBox="0 0 88 82" fill="none" xmlns="http://www.w3.org/2000/svg">
<path fill-rule="evenodd" clip-rule="evenodd" d="M0 14.9995C0 10.5812 3.58172 6.99951 8 6.99951H79.9932C84.4115 6.99951 87.9932 10.579 87.9932 14.9973C87.9932 29.4202 87.9932 58.694 87.9932 62.9897C87.9932 65.2697 85.7967 66.6861 83.1501 67.5652C78.5399 69.0966 75.1054 73.7603 72.5477 77.8903C71.135 80.1714 68.5857 81.9949 64.0449 81.9949C54.8887 81.9949 23.034 81.9949 7.98773 81.9949C3.56945 81.9949 0 78.4132 0 73.9949V14.9995Z" fill="white"/>
<path d="M15.1128 51.6536H18.3768C18.3768 51.2056 18.4168 50.7576 18.4968 50.3096C18.5928 49.8456 18.7448 49.4296 18.9528 49.0616C19.1608 48.6776 19.4328 48.3736 19.7688 48.1496C20.1208 47.9096 20.5448 47.7896 21.0408 47.7896C21.7768 47.7896 22.3768 48.0216 22.8408 48.4856C23.3208 48.9336 23.5608 49.5656 23.5608 50.3816C23.5608 50.8936 23.4408 51.3496 23.2008 51.7496C22.9768 52.1496 22.6888 52.5096 22.3368 52.8296C22.0008 53.1496 21.6248 53.4456 21.2088 53.7176C20.7928 53.9736 20.4008 54.2296 20.0328 54.4856C19.3128 54.9816 18.6248 55.4696 17.9688 55.9496C17.3288 56.4296 16.7688 56.9576 16.2888 57.5336C15.8088 58.0936 15.4248 58.7336 15.1368 59.4536C14.8648 60.1736 14.7288 61.0216 14.7288 61.9976H27.0648V59.0696H19.1208C19.5368 58.4936 20.0168 57.9896 20.5608 57.5576C21.1048 57.1256 21.6648 56.7256 22.2408 56.3576C22.8168 55.9736 23.3848 55.5896 23.9448 55.2056C24.5208 54.8216 25.0328 54.3976 25.4808 53.9336C25.9288 53.4536 26.2888 52.9096 26.5608 52.3016C26.8328 51.6936 26.9688 50.9656 26.9688 50.1176C26.9688 49.3016 26.8088 48.5656 26.4888 47.9096C26.1848 47.2536 25.7688 46.7016 25.2408 46.2536C24.7128 45.8056 24.0968 45.4616 23.3928 45.2216C22.7048 44.9816 21.9768 44.8616 21.2088 44.8616C20.2008 44.8616 19.3048 45.0376 18.5208 45.3896C17.7528 45.7256 17.1128 46.2056 16.6008 46.8296C16.0888 47.4376 15.7048 48.1576 15.4488 48.9896C15.1928 49.8056 15.0808 50.6936 15.1128 51.6536ZM33.8727 53.5256C33.8727 53.2376 33.8727 52.8936 33.8727 52.4936C33.8887 52.0776 33.9207 51.6536 33.9687 51.2216C34.0167 50.7896 34.0967 50.3656 34.2087 49.9496C34.3207 49.5176 34.4727 49.1336 34.6647 48.7976C34.8727 48.4616 35.1287 48.1896 35.4327 47.9816C35.7527 47.7736 36.1447 47.6696 36.6087 47.6696C37.0727 47.6696 37.4647 47.7736 37.7847 47.9816C38.1047 48.1896 38.3687 48.4616 38.5767 48.7976C38.7847 49.1336 38.9367 49.5176 39.0327 49.9496C39.1447 50.3656 39.2247 50.7896 39.2727 51.2216C39.3367 51.6536 39.3687 52.0776 39.3687 52.4936C39.3847 52.8936 39.3927 53.2376 39.3927 53.5256C39.3927 54.0056 39.3767 54.5896 39.3447 55.2776C39.3127 55.9496 39.2087 56.6056 39.0327 57.2456C38.8727 57.8696 38.6007 58.4056 38.2167 58.8536C37.8487 59.3016 37.3127 59.5256 36.6087 59.5256C35.9207 59.5256 35.3927 59.3016 35.0247 58.8536C34.6567 58.4056 34.3847 57.8696 34.2087 57.2456C34.0487 56.6056 33.9527 55.9496 33.9207 55.2776C33.8887 54.5896 33.8727 54.0056 33.8727 53.5256ZM30.4647 53.5256C30.4647 55.2056 30.6247 56.6136 30.9447 57.7496C31.2807 58.8696 31.7287 59.7656 32.2887 60.4376C32.8487 61.1096 33.4967 61.5896 34.2327 61.8776C34.9847 62.1656 35.7767 62.3096 36.6087 62.3096C37.4567 62.3096 38.2487 62.1656 38.9847 61.8776C39.7367 61.5896 40.3927 61.1096 40.9527 60.4376C41.5287 59.7656 41.9767 58.8696 42.2967 57.7496C42.6327 56.6136 42.8007 55.2056 42.8007 53.5256C42.8007 51.8936 42.6327 50.5256 42.2967 49.4216C41.9767 48.3016 41.5287 47.4056 40.9527 46.7336C40.3927 46.0616 39.7367 45.5816 38.9847 45.2936C38.2487 45.0056 37.4567 44.8616 36.6087 44.8616C35.7767 44.8616 34.9847 45.0056 34.2327 45.2936C33.4967 45.5816 32.8487 46.0616 32.2887 46.7336C31.7287 47.4056 31.2807 48.3016 30.9447 49.4216C30.6247 50.5256 30.4647 51.8936 30.4647 53.5256ZM46.5847 51.6536H49.8487C49.8487 51.2056 49.8887 50.7576 49.9687 50.3096C50.0647 49.8456 50.2167 49.4296 50.4247 49.0616C50.6327 48.6776 50.9047 48.3736 51.2407 48.1496C51.5927 47.9096 52.0167 47.7896 52.5127 47.7896C53.2487 47.7896 53.8487 48.0216 54.3127 48.4856C54.7927 48.9336 55.0327 49.5656 55.0327 50.3816C55.0327 50.8936 54.9127 51.3496 54.6727 51.7496C54.4487 52.1496 54.1607 52.5096 53.8087 52.8296C53.4727 53.1496 53.0967 53.4456 52.6807 53.7176C52.2647 53.9736 51.8727 54.2296 51.5047 54.4856C50.7847 54.9816 50.0967 55.4696 49.4407 55.9496C48.8007 56.4296 48.2407 56.9576 47.7607 57.5336C47.2807 58.0936 46.8967 58.7336 46.6087 59.4536C46.3367 60.1736 46.2007 61.0216 46.2007 61.9976H58.5367V59.0696H50.5927C51.0087 58.4936 51.4887 57.9896 52.0327 57.5576C52.5767 57.1256 53.1367 56.7256 53.7127 56.3576C54.2887 55.9736 54.8567 55.5896 55.4167 55.2056C55.9927 54.8216 56.5047 54.3976 56.9527 53.9336C57.4007 53.4536 57.7607 52.9096 58.0327 52.3016C58.3047 51.6936 58.4407 50.9656 58.4407 50.1176C58.4407 49.3016 58.2807 48.5656 57.9607 47.9096C57.6567 47.2536 57.2407 46.7016 56.7127 46.2536C56.1847 45.8056 55.5687 45.4616 54.8647 45.2216C54.1767 44.9816 53.4487 44.8616 52.6807 44.8616C51.6727 44.8616 50.7767 45.0376 49.9927 45.3896C49.2247 45.7256 48.5847 46.2056 48.0727 46.8296C47.5607 47.4376 47.1767 48.1576 46.9207 48.9896C46.6647 49.8056 46.5527 50.6936 46.5847 51.6536ZM70.8406 61.9976V45.1976H68.1286C68.0326 45.8376 67.8326 46.3736 67.5286 46.8056C67.2246 47.2376 66.8486 47.5896 66.4006 47.8616C65.9686 48.1176 65.4726 48.3016 64.9126 48.4136C64.3686 48.5096 63.8006 48.5496 63.2086 48.5336V51.1016H67.4326V61.9976H70.8406Z" fill="#575E75"/>
<path fill-rule="evenodd" clip-rule="evenodd" d="M87.9933 62.9897C87.9933 65.7603 83.5852 65.7143 78.7201 66.572C75.4013 67.1572 72.461 71.1034 71.8837 74.4236C71.0659 79.127 69.9994 81.9949 64.0449 81.9949C64.0449 81.9949 72.4212 82.1955 80.3246 74.4236C88.2279 66.6517 87.9933 62.9897 87.9933 62.9897Z" fill="#E6E6E6"/>
<path fill-rule="evenodd" clip-rule="evenodd" d="M0 26.9983H87.9932V30.9983H44.1953H0V26.9983Z" fill="black" fill-opacity="0.1"/>
<path d="M0 14.9995C0 10.5812 3.58172 6.99951 8 6.99951H79.9932C84.4115 6.99951 87.9932 10.5812 87.9932 14.9995V26.9983H0V14.9995Z" fill="#0DA57A"/>
<circle cx="18.999" cy="15.9993" r="6" fill="black" fill-opacity="0.15"/>
<circle cx="68.9951" cy="15.9993" r="6" fill="black" fill-opacity="0.15"/>
<rect x="14.9988" width="8" height="19.9988" rx="4" fill="white"/>
<rect x="64.9951" width="8" height="19.9988" rx="4" fill="white"/>
</svg>
