<svg width="233" height="373" viewBox="0 0 233 373" fill="none" xmlns="http://www.w3.org/2000/svg">
<g clip-path="url(#clip0_570_11435)">
<path d="M13.5726 208.726H15.6126C15.5966 208.214 15.6446 207.71 15.7566 207.214C15.8846 206.702 16.0846 206.246 16.3566 205.846C16.6286 205.446 16.9726 205.126 17.3886 204.886C17.8206 204.63 18.3326 204.502 18.9246 204.502C19.3726 204.502 19.7966 204.574 20.1966 204.718C20.5966 204.862 20.9406 205.07 21.2286 205.342C21.5326 205.614 21.7726 205.942 21.9486 206.326C22.1246 206.694 22.2126 207.11 22.2126 207.574C22.2126 208.166 22.1166 208.686 21.9246 209.134C21.7486 209.582 21.4766 209.998 21.1086 210.382C20.7566 210.766 20.3086 211.15 19.7646 211.534C19.2206 211.902 18.5886 212.31 17.8686 212.758C17.2766 213.11 16.7086 213.486 16.1646 213.886C15.6206 214.286 15.1326 214.75 14.7006 215.278C14.2686 215.806 13.9086 216.43 13.6206 217.15C13.3486 217.854 13.1726 218.71 13.0926 219.718H24.2046V217.918H15.4686C15.5646 217.39 15.7646 216.926 16.0686 216.526C16.3886 216.11 16.7646 215.726 17.1966 215.374C17.6446 215.022 18.1326 214.694 18.6606 214.39C19.1886 214.07 19.7166 213.75 20.2446 213.43C20.7726 213.094 21.2846 212.742 21.7806 212.374C22.2766 212.006 22.7166 211.598 23.1006 211.15C23.4846 210.686 23.7886 210.166 24.0126 209.59C24.2526 209.014 24.3726 208.35 24.3726 207.598C24.3726 206.798 24.2286 206.094 23.9406 205.486C23.6686 204.878 23.2926 204.374 22.8126 203.974C22.3326 203.558 21.7646 203.246 21.1086 203.038C20.4686 202.814 19.7806 202.702 19.0446 202.702C18.1486 202.702 17.3486 202.854 16.6446 203.158C15.9406 203.462 15.3486 203.886 14.8686 204.43C14.4046 204.958 14.0606 205.59 13.8366 206.326C13.6126 207.062 13.5246 207.862 13.5726 208.726ZM35.7885 207.046H37.8285C37.7005 205.638 37.2205 204.566 36.3885 203.83C35.5565 203.078 34.4365 202.702 33.0285 202.702C31.8125 202.702 30.8045 202.958 30.0045 203.47C29.2045 203.982 28.5645 204.662 28.0845 205.51C27.6045 206.358 27.2605 207.334 27.0525 208.438C26.8605 209.526 26.7645 210.654 26.7645 211.822C26.7645 212.718 26.8285 213.646 26.9565 214.606C27.1005 215.566 27.3805 216.446 27.7965 217.246C28.2125 218.046 28.8045 218.702 29.5725 219.214C30.3405 219.726 31.3565 219.982 32.6205 219.982C33.6925 219.982 34.5885 219.806 35.3085 219.454C36.0445 219.086 36.6285 218.63 37.0605 218.086C37.5085 217.526 37.8285 216.91 38.0205 216.238C38.2125 215.566 38.3085 214.918 38.3085 214.294C38.3085 213.51 38.1885 212.782 37.9485 212.11C37.7085 211.438 37.3645 210.854 36.9165 210.358C36.4845 209.862 35.9405 209.478 35.2845 209.206C34.6445 208.918 33.9165 208.774 33.1005 208.774C32.1725 208.774 31.3485 208.95 30.6285 209.302C29.9245 209.654 29.3325 210.222 28.8525 211.006L28.8045 210.958C28.8205 210.302 28.8845 209.598 28.9965 208.846C29.1085 208.094 29.3085 207.398 29.5965 206.758C29.9005 206.102 30.3165 205.566 30.8445 205.15C31.3725 204.718 32.0685 204.502 32.9325 204.502C33.7485 204.502 34.4045 204.734 34.9005 205.198C35.3965 205.662 35.6925 206.278 35.7885 207.046ZM32.7165 210.574C33.2925 210.574 33.7965 210.678 34.2285 210.886C34.6605 211.094 35.0205 211.374 35.3085 211.726C35.5965 212.062 35.8045 212.47 35.9325 212.95C36.0765 213.414 36.1485 213.91 36.1485 214.438C36.1485 214.934 36.0685 215.414 35.9085 215.878C35.7645 216.326 35.5485 216.726 35.2605 217.078C34.9725 217.43 34.6125 217.71 34.1805 217.918C33.7645 218.11 33.2765 218.206 32.7165 218.206C32.1565 218.206 31.6525 218.11 31.2045 217.918C30.7725 217.71 30.4045 217.438 30.1005 217.102C29.8125 216.766 29.5885 216.366 29.4285 215.902C29.2685 215.438 29.1885 214.942 29.1885 214.414C29.1885 213.886 29.2605 213.39 29.4045 212.926C29.5645 212.446 29.7965 212.038 30.1005 211.702C30.4045 211.35 30.7725 211.078 31.2045 210.886C31.6365 210.678 32.1405 210.574 32.7165 210.574ZM42.3565 211.342C42.3565 210.926 42.3565 210.47 42.3565 209.974C42.3725 209.462 42.4125 208.958 42.4765 208.462C42.5565 207.95 42.6605 207.454 42.7885 206.974C42.9325 206.494 43.1325 206.078 43.3885 205.726C43.6605 205.358 43.9965 205.062 44.3965 204.838C44.7965 204.614 45.2845 204.502 45.8605 204.502C46.4365 204.502 46.9245 204.614 47.3245 204.838C47.7245 205.062 48.0525 205.358 48.3085 205.726C48.5805 206.078 48.7805 206.494 48.9085 206.974C49.0525 207.454 49.1565 207.95 49.2205 208.462C49.3005 208.958 49.3405 209.462 49.3405 209.974C49.3565 210.47 49.3645 210.926 49.3645 211.342C49.3645 211.982 49.3405 212.702 49.2925 213.502C49.2605 214.286 49.1325 215.03 48.9085 215.734C48.7005 216.422 48.3565 217.006 47.8765 217.486C47.3965 217.966 46.7245 218.206 45.8605 218.206C44.9965 218.206 44.3245 217.966 43.8445 217.486C43.3645 217.006 43.0125 216.422 42.7885 215.734C42.5805 215.03 42.4525 214.286 42.4045 213.502C42.3725 212.702 42.3565 211.982 42.3565 211.342ZM40.1965 211.366C40.1965 211.99 40.2125 212.638 40.2445 213.31C40.2765 213.982 40.3565 214.638 40.4845 215.278C40.6125 215.918 40.7965 216.526 41.0365 217.102C41.2765 217.662 41.6045 218.158 42.0205 218.59C42.4365 219.022 42.9565 219.366 43.5805 219.622C44.2205 219.862 44.9805 219.982 45.8605 219.982C46.7565 219.982 47.5165 219.862 48.1405 219.622C48.7645 219.366 49.2845 219.022 49.7005 218.59C50.1165 218.158 50.4445 217.662 50.6845 217.102C50.9245 216.526 51.1085 215.918 51.2365 215.278C51.3645 214.638 51.4445 213.982 51.4765 213.31C51.5085 212.638 51.5245 211.99 51.5245 211.366C51.5245 210.742 51.5085 210.094 51.4765 209.422C51.4445 208.75 51.3645 208.094 51.2365 207.454C51.1085 206.814 50.9245 206.206 50.6845 205.63C50.4445 205.054 50.1165 204.55 49.7005 204.118C49.2845 203.686 48.7565 203.342 48.1165 203.086C47.4925 202.83 46.7405 202.702 45.8605 202.702C44.9805 202.702 44.2205 202.83 43.5805 203.086C42.9565 203.342 42.4365 203.686 42.0205 204.118C41.6045 204.55 41.2765 205.054 41.0365 205.63C40.7965 206.206 40.6125 206.814 40.4845 207.454C40.3565 208.094 40.2765 208.75 40.2445 209.422C40.2125 210.094 40.1965 210.742 40.1965 211.366ZM54.5164 217.054V219.718H55.9324C55.9484 219.91 55.9324 220.118 55.8844 220.342C55.8524 220.566 55.7804 220.782 55.6684 220.99C55.5564 221.214 55.4044 221.414 55.2124 221.59C55.0364 221.782 54.8124 221.926 54.5404 222.022V223.222C55.4684 222.95 56.1404 222.486 56.5564 221.83C56.9724 221.174 57.1804 220.39 57.1804 219.478V217.054H54.5164ZM62.3721 211.342C62.3721 210.926 62.3721 210.47 62.3721 209.974C62.3881 209.462 62.4281 208.958 62.4921 208.462C62.5721 207.95 62.6761 207.454 62.8041 206.974C62.9481 206.494 63.1481 206.078 63.4041 205.726C63.6761 205.358 64.0121 205.062 64.4121 204.838C64.8121 204.614 65.3001 204.502 65.8761 204.502C66.4521 204.502 66.9401 204.614 67.3401 204.838C67.7401 205.062 68.0681 205.358 68.3241 205.726C68.5961 206.078 68.7961 206.494 68.9241 206.974C69.0681 207.454 69.1721 207.95 69.2361 208.462C69.3161 208.958 69.3561 209.462 69.3561 209.974C69.3721 210.47 69.3801 210.926 69.3801 211.342C69.3801 211.982 69.3561 212.702 69.3081 213.502C69.2761 214.286 69.1481 215.03 68.9241 215.734C68.7161 216.422 68.3721 217.006 67.8921 217.486C67.4121 217.966 66.7401 218.206 65.8761 218.206C65.0121 218.206 64.3401 217.966 63.8601 217.486C63.3801 217.006 63.0281 216.422 62.8041 215.734C62.5961 215.03 62.4681 214.286 62.4201 213.502C62.3881 212.702 62.3721 211.982 62.3721 211.342ZM60.2121 211.366C60.2121 211.99 60.2281 212.638 60.2601 213.31C60.2921 213.982 60.3721 214.638 60.5001 215.278C60.6281 215.918 60.8121 216.526 61.0521 217.102C61.2921 217.662 61.6201 218.158 62.0361 218.59C62.4521 219.022 62.9721 219.366 63.5961 219.622C64.2361 219.862 64.9961 219.982 65.8761 219.982C66.7721 219.982 67.5321 219.862 68.1561 219.622C68.7801 219.366 69.3001 219.022 69.7161 218.59C70.1321 218.158 70.4601 217.662 70.7001 217.102C70.9401 216.526 71.1241 215.918 71.2521 215.278C71.3801 214.638 71.4601 213.982 71.4921 213.31C71.5241 212.638 71.5401 211.99 71.5401 211.366C71.5401 210.742 71.5241 210.094 71.4921 209.422C71.4601 208.75 71.3801 208.094 71.2521 207.454C71.1241 206.814 70.9401 206.206 70.7001 205.63C70.4601 205.054 70.1321 204.55 69.7161 204.118C69.3001 203.686 68.7721 203.342 68.1321 203.086C67.5081 202.83 66.7561 202.702 65.8761 202.702C64.9961 202.702 64.2361 202.83 63.5961 203.086C62.9721 203.342 62.4521 203.686 62.0361 204.118C61.6201 204.55 61.2921 205.054 61.0521 205.63C60.8121 206.206 60.6281 206.814 60.5001 207.454C60.3721 208.094 60.2921 208.75 60.2601 209.422C60.2281 210.094 60.2121 210.742 60.2121 211.366ZM75.708 211.342C75.708 210.926 75.708 210.47 75.708 209.974C75.724 209.462 75.764 208.958 75.828 208.462C75.908 207.95 76.012 207.454 76.14 206.974C76.284 206.494 76.484 206.078 76.74 205.726C77.012 205.358 77.348 205.062 77.748 204.838C78.148 204.614 78.636 204.502 79.212 204.502C79.788 204.502 80.276 204.614 80.676 204.838C81.076 205.062 81.404 205.358 81.66 205.726C81.932 206.078 82.132 206.494 82.26 206.974C82.404 207.454 82.508 207.95 82.572 208.462C82.652 208.958 82.692 209.462 82.692 209.974C82.708 210.47 82.716 210.926 82.716 211.342C82.716 211.982 82.692 212.702 82.644 213.502C82.612 214.286 82.484 215.03 82.26 215.734C82.052 216.422 81.708 217.006 81.228 217.486C80.748 217.966 80.076 218.206 79.212 218.206C78.348 218.206 77.676 217.966 77.196 217.486C76.716 217.006 76.364 216.422 76.14 215.734C75.932 215.03 75.804 214.286 75.756 213.502C75.724 212.702 75.708 211.982 75.708 211.342ZM73.548 211.366C73.548 211.99 73.564 212.638 73.596 213.31C73.628 213.982 73.708 214.638 73.836 215.278C73.964 215.918 74.148 216.526 74.388 217.102C74.628 217.662 74.956 218.158 75.372 218.59C75.788 219.022 76.308 219.366 76.932 219.622C77.572 219.862 78.332 219.982 79.212 219.982C80.108 219.982 80.868 219.862 81.492 219.622C82.116 219.366 82.636 219.022 83.052 218.59C83.468 218.158 83.796 217.662 84.036 217.102C84.276 216.526 84.46 215.918 84.588 215.278C84.716 214.638 84.796 213.982 84.828 213.31C84.86 212.638 84.876 211.99 84.876 211.366C84.876 210.742 84.86 210.094 84.828 209.422C84.796 208.75 84.716 208.094 84.588 207.454C84.46 206.814 84.276 206.206 84.036 205.63C83.796 205.054 83.468 204.55 83.052 204.118C82.636 203.686 82.108 203.342 81.468 203.086C80.844 202.83 80.092 202.702 79.212 202.702C78.332 202.702 77.572 202.83 76.932 203.086C76.308 203.342 75.788 203.686 75.372 204.118C74.956 204.55 74.628 205.054 74.388 205.63C74.148 206.206 73.964 206.814 73.836 207.454C73.708 208.094 73.628 208.75 73.596 209.422C73.564 210.094 73.548 210.742 73.548 211.366ZM89.044 211.342C89.044 210.926 89.044 210.47 89.044 209.974C89.06 209.462 89.1 208.958 89.164 208.462C89.244 207.95 89.348 207.454 89.476 206.974C89.62 206.494 89.82 206.078 90.076 205.726C90.348 205.358 90.684 205.062 91.084 204.838C91.484 204.614 91.972 204.502 92.548 204.502C93.124 204.502 93.612 204.614 94.012 204.838C94.412 205.062 94.74 205.358 94.996 205.726C95.268 206.078 95.468 206.494 95.596 206.974C95.74 207.454 95.844 207.95 95.908 208.462C95.988 208.958 96.028 209.462 96.028 209.974C96.044 210.47 96.052 210.926 96.052 211.342C96.052 211.982 96.028 212.702 95.98 213.502C95.948 214.286 95.82 215.03 95.596 215.734C95.388 216.422 95.044 217.006 94.564 217.486C94.084 217.966 93.412 218.206 92.548 218.206C91.684 218.206 91.012 217.966 90.532 217.486C90.052 217.006 89.7 216.422 89.476 215.734C89.268 215.03 89.14 214.286 89.092 213.502C89.06 212.702 89.044 211.982 89.044 211.342ZM86.884 211.366C86.884 211.99 86.9 212.638 86.932 213.31C86.964 213.982 87.044 214.638 87.172 215.278C87.3 215.918 87.484 216.526 87.724 217.102C87.964 217.662 88.292 218.158 88.708 218.59C89.124 219.022 89.644 219.366 90.268 219.622C90.908 219.862 91.668 219.982 92.548 219.982C93.444 219.982 94.204 219.862 94.828 219.622C95.452 219.366 95.972 219.022 96.388 218.59C96.804 218.158 97.132 217.662 97.372 217.102C97.612 216.526 97.796 215.918 97.924 215.278C98.052 214.638 98.132 213.982 98.164 213.31C98.196 212.638 98.212 211.99 98.212 211.366C98.212 210.742 98.196 210.094 98.164 209.422C98.132 208.75 98.052 208.094 97.924 207.454C97.796 206.814 97.612 206.206 97.372 205.63C97.132 205.054 96.804 204.55 96.388 204.118C95.972 203.686 95.444 203.342 94.804 203.086C94.18 202.83 93.428 202.702 92.548 202.702C91.668 202.702 90.908 202.83 90.268 203.086C89.644 203.342 89.124 203.686 88.708 204.118C88.292 204.55 87.964 205.054 87.724 205.63C87.484 206.206 87.3 206.814 87.172 207.454C87.044 208.094 86.964 208.75 86.932 209.422C86.9 210.094 86.884 210.742 86.884 211.366Z" fill="white"/>
<rect x="14.3643" y="229.718" width="83" height="110" rx="8" fill="white" fill-opacity="0.5"/>
<path d="M30.0804 357.374H33.3444C33.3444 356.926 33.3844 356.478 33.4644 356.03C33.5604 355.566 33.7124 355.15 33.9204 354.782C34.1284 354.398 34.4004 354.094 34.7364 353.87C35.0884 353.63 35.5124 353.51 36.0084 353.51C36.7444 353.51 37.3444 353.742 37.8084 354.206C38.2884 354.654 38.5284 355.286 38.5284 356.102C38.5284 356.614 38.4084 357.07 38.1684 357.47C37.9444 357.87 37.6564 358.23 37.3044 358.55C36.9684 358.87 36.5924 359.166 36.1764 359.438C35.7604 359.694 35.3684 359.95 35.0004 360.206C34.2804 360.702 33.5924 361.19 32.9364 361.67C32.2964 362.15 31.7364 362.678 31.2564 363.254C30.7764 363.814 30.3924 364.454 30.1044 365.174C29.8324 365.894 29.6964 366.742 29.6964 367.718H42.0324V364.79H34.0884C34.5044 364.214 34.9844 363.71 35.5284 363.278C36.0724 362.846 36.6324 362.446 37.2084 362.078C37.7844 361.694 38.3524 361.31 38.9124 360.926C39.4884 360.542 40.0004 360.118 40.4484 359.654C40.8964 359.174 41.2564 358.63 41.5284 358.022C41.8004 357.414 41.9364 356.686 41.9364 355.838C41.9364 355.022 41.7764 354.286 41.4564 353.63C41.1524 352.974 40.7364 352.422 40.2084 351.974C39.6804 351.526 39.0644 351.182 38.3604 350.942C37.6724 350.702 36.9444 350.582 36.1764 350.582C35.1684 350.582 34.2724 350.758 33.4884 351.11C32.7204 351.446 32.0804 351.926 31.5684 352.55C31.0564 353.158 30.6724 353.878 30.4164 354.71C30.1604 355.526 30.0484 356.414 30.0804 357.374ZM46.4403 359.246C46.4403 358.958 46.4403 358.614 46.4403 358.214C46.4563 357.798 46.4883 357.374 46.5363 356.942C46.5843 356.51 46.6643 356.086 46.7763 355.67C46.8883 355.238 47.0403 354.854 47.2323 354.518C47.4403 354.182 47.6963 353.91 48.0003 353.702C48.3203 353.494 48.7123 353.39 49.1763 353.39C49.6403 353.39 50.0323 353.494 50.3523 353.702C50.6723 353.91 50.9363 354.182 51.1443 354.518C51.3523 354.854 51.5043 355.238 51.6003 355.67C51.7123 356.086 51.7923 356.51 51.8403 356.942C51.9043 357.374 51.9363 357.798 51.9363 358.214C51.9523 358.614 51.9603 358.958 51.9603 359.246C51.9603 359.726 51.9443 360.31 51.9123 360.998C51.8803 361.67 51.7763 362.326 51.6003 362.966C51.4403 363.59 51.1683 364.126 50.7843 364.574C50.4163 365.022 49.8803 365.246 49.1763 365.246C48.4883 365.246 47.9603 365.022 47.5923 364.574C47.2243 364.126 46.9523 363.59 46.7763 362.966C46.6163 362.326 46.5203 361.67 46.4883 360.998C46.4563 360.31 46.4403 359.726 46.4403 359.246ZM43.0323 359.246C43.0323 360.926 43.1923 362.334 43.5123 363.47C43.8483 364.59 44.2963 365.486 44.8563 366.158C45.4163 366.83 46.0643 367.31 46.8003 367.598C47.5523 367.886 48.3443 368.03 49.1763 368.03C50.0243 368.03 50.8163 367.886 51.5523 367.598C52.3043 367.31 52.9603 366.83 53.5203 366.158C54.0963 365.486 54.5443 364.59 54.8643 363.47C55.2003 362.334 55.3683 360.926 55.3683 359.246C55.3683 357.614 55.2003 356.246 54.8643 355.142C54.5443 354.022 54.0963 353.126 53.5203 352.454C52.9603 351.782 52.3043 351.302 51.5523 351.014C50.8163 350.726 50.0243 350.582 49.1763 350.582C48.3443 350.582 47.5523 350.726 46.8003 351.014C46.0643 351.302 45.4163 351.782 44.8563 352.454C44.2963 353.126 43.8483 354.022 43.5123 355.142C43.1923 356.246 43.0323 357.614 43.0323 359.246ZM56.7523 357.374H60.0163C60.0163 356.926 60.0563 356.478 60.1363 356.03C60.2323 355.566 60.3843 355.15 60.5923 354.782C60.8003 354.398 61.0723 354.094 61.4083 353.87C61.7603 353.63 62.1843 353.51 62.6803 353.51C63.4163 353.51 64.0163 353.742 64.4803 354.206C64.9603 354.654 65.2003 355.286 65.2003 356.102C65.2003 356.614 65.0803 357.07 64.8403 357.47C64.6163 357.87 64.3283 358.23 63.9763 358.55C63.6403 358.87 63.2643 359.166 62.8483 359.438C62.4323 359.694 62.0403 359.95 61.6723 360.206C60.9523 360.702 60.2643 361.19 59.6083 361.67C58.9683 362.15 58.4083 362.678 57.9283 363.254C57.4483 363.814 57.0643 364.454 56.7763 365.174C56.5043 365.894 56.3683 366.742 56.3683 367.718H68.7043V364.79H60.7603C61.1763 364.214 61.6563 363.71 62.2003 363.278C62.7443 362.846 63.3043 362.446 63.8803 362.078C64.4563 361.694 65.0243 361.31 65.5843 360.926C66.1603 360.542 66.6723 360.118 67.1203 359.654C67.5683 359.174 67.9283 358.63 68.2003 358.022C68.4723 357.414 68.6083 356.686 68.6083 355.838C68.6083 355.022 68.4483 354.286 68.1283 353.63C67.8243 352.974 67.4083 352.422 66.8803 351.974C66.3523 351.526 65.7363 351.182 65.0323 350.942C64.3443 350.702 63.6163 350.582 62.8483 350.582C61.8403 350.582 60.9443 350.758 60.1603 351.11C59.3923 351.446 58.7523 351.926 58.2403 352.55C57.7283 353.158 57.3443 353.878 57.0883 354.71C56.8323 355.526 56.7203 356.414 56.7523 357.374ZM73.1122 359.246C73.1122 358.958 73.1122 358.614 73.1122 358.214C73.1282 357.798 73.1602 357.374 73.2082 356.942C73.2562 356.51 73.3362 356.086 73.4482 355.67C73.5602 355.238 73.7122 354.854 73.9042 354.518C74.1122 354.182 74.3682 353.91 74.6722 353.702C74.9922 353.494 75.3842 353.39 75.8482 353.39C76.3122 353.39 76.7042 353.494 77.0242 353.702C77.3442 353.91 77.6082 354.182 77.8162 354.518C78.0242 354.854 78.1762 355.238 78.2722 355.67C78.3842 356.086 78.4642 356.51 78.5122 356.942C78.5762 357.374 78.6082 357.798 78.6082 358.214C78.6242 358.614 78.6322 358.958 78.6322 359.246C78.6322 359.726 78.6162 360.31 78.5842 360.998C78.5522 361.67 78.4482 362.326 78.2722 362.966C78.1122 363.59 77.8402 364.126 77.4562 364.574C77.0882 365.022 76.5522 365.246 75.8482 365.246C75.1602 365.246 74.6322 365.022 74.2642 364.574C73.8962 364.126 73.6242 363.59 73.4482 362.966C73.2882 362.326 73.1922 361.67 73.1602 360.998C73.1282 360.31 73.1122 359.726 73.1122 359.246ZM69.7042 359.246C69.7042 360.926 69.8642 362.334 70.1842 363.47C70.5202 364.59 70.9682 365.486 71.5282 366.158C72.0882 366.83 72.7362 367.31 73.4722 367.598C74.2242 367.886 75.0162 368.03 75.8482 368.03C76.6962 368.03 77.4882 367.886 78.2242 367.598C78.9762 367.31 79.6322 366.83 80.1922 366.158C80.7682 365.486 81.2162 364.59 81.5362 363.47C81.8722 362.334 82.0402 360.926 82.0402 359.246C82.0402 357.614 81.8722 356.246 81.5362 355.142C81.2162 354.022 80.7682 353.126 80.1922 352.454C79.6322 351.782 78.9762 351.302 78.2242 351.014C77.4882 350.726 76.6962 350.582 75.8482 350.582C75.0162 350.582 74.2242 350.726 73.4722 351.014C72.7362 351.302 72.0882 351.782 71.5282 352.454C70.9682 353.126 70.5202 354.022 70.1842 355.142C69.8642 356.246 69.7042 357.614 69.7042 359.246Z" fill="white"/>
<path d="M138.453 64.046H140.493C140.365 62.638 139.885 61.566 139.053 60.83C138.221 60.078 137.101 59.702 135.693 59.702C134.477 59.702 133.469 59.958 132.669 60.47C131.869 60.982 131.229 61.662 130.749 62.51C130.269 63.358 129.925 64.334 129.717 65.438C129.525 66.526 129.429 67.654 129.429 68.822C129.429 69.718 129.493 70.646 129.621 71.606C129.765 72.566 130.045 73.446 130.461 74.246C130.877 75.046 131.469 75.702 132.237 76.214C133.005 76.726 134.021 76.982 135.285 76.982C136.357 76.982 137.253 76.806 137.973 76.454C138.709 76.086 139.293 75.63 139.725 75.086C140.173 74.526 140.493 73.91 140.685 73.238C140.877 72.566 140.973 71.918 140.973 71.294C140.973 70.51 140.853 69.782 140.613 69.11C140.373 68.438 140.029 67.854 139.581 67.358C139.149 66.862 138.605 66.478 137.949 66.206C137.309 65.918 136.581 65.774 135.765 65.774C134.837 65.774 134.013 65.95 133.293 66.302C132.589 66.654 131.997 67.222 131.517 68.006L131.469 67.958C131.485 67.302 131.549 66.598 131.661 65.846C131.773 65.094 131.973 64.398 132.261 63.758C132.565 63.102 132.981 62.566 133.509 62.15C134.037 61.718 134.733 61.502 135.597 61.502C136.413 61.502 137.069 61.734 137.565 62.198C138.061 62.662 138.357 63.278 138.453 64.046ZM135.381 67.574C135.957 67.574 136.461 67.678 136.893 67.886C137.325 68.094 137.685 68.374 137.973 68.726C138.261 69.062 138.469 69.47 138.597 69.95C138.741 70.414 138.813 70.91 138.813 71.438C138.813 71.934 138.733 72.414 138.573 72.878C138.429 73.326 138.213 73.726 137.925 74.078C137.637 74.43 137.277 74.71 136.845 74.918C136.429 75.11 135.941 75.206 135.381 75.206C134.821 75.206 134.317 75.11 133.869 74.918C133.437 74.71 133.069 74.438 132.765 74.102C132.477 73.766 132.253 73.366 132.093 72.902C131.933 72.438 131.853 71.942 131.853 71.414C131.853 70.886 131.925 70.39 132.069 69.926C132.229 69.446 132.461 69.038 132.765 68.702C133.069 68.35 133.437 68.078 133.869 67.886C134.301 67.678 134.805 67.574 135.381 67.574ZM145.021 68.342C145.021 67.926 145.021 67.47 145.021 66.974C145.037 66.462 145.077 65.958 145.141 65.462C145.221 64.95 145.325 64.454 145.453 63.974C145.597 63.494 145.797 63.078 146.053 62.726C146.325 62.358 146.661 62.062 147.061 61.838C147.461 61.614 147.949 61.502 148.525 61.502C149.101 61.502 149.589 61.614 149.989 61.838C150.389 62.062 150.717 62.358 150.973 62.726C151.245 63.078 151.445 63.494 151.573 63.974C151.717 64.454 151.821 64.95 151.885 65.462C151.965 65.958 152.005 66.462 152.005 66.974C152.021 67.47 152.029 67.926 152.029 68.342C152.029 68.982 152.005 69.702 151.957 70.502C151.925 71.286 151.797 72.03 151.573 72.734C151.365 73.422 151.021 74.006 150.541 74.486C150.061 74.966 149.389 75.206 148.525 75.206C147.661 75.206 146.989 74.966 146.509 74.486C146.029 74.006 145.677 73.422 145.453 72.734C145.245 72.03 145.117 71.286 145.069 70.502C145.037 69.702 145.021 68.982 145.021 68.342ZM142.861 68.366C142.861 68.99 142.877 69.638 142.909 70.31C142.941 70.982 143.021 71.638 143.149 72.278C143.277 72.918 143.461 73.526 143.701 74.102C143.941 74.662 144.269 75.158 144.685 75.59C145.101 76.022 145.621 76.366 146.245 76.622C146.885 76.862 147.645 76.982 148.525 76.982C149.421 76.982 150.181 76.862 150.805 76.622C151.429 76.366 151.949 76.022 152.365 75.59C152.781 75.158 153.109 74.662 153.349 74.102C153.589 73.526 153.773 72.918 153.901 72.278C154.029 71.638 154.109 70.982 154.141 70.31C154.173 69.638 154.189 68.99 154.189 68.366C154.189 67.742 154.173 67.094 154.141 66.422C154.109 65.75 154.029 65.094 153.901 64.454C153.773 63.814 153.589 63.206 153.349 62.63C153.109 62.054 152.781 61.55 152.365 61.118C151.949 60.686 151.421 60.342 150.781 60.086C150.157 59.83 149.405 59.702 148.525 59.702C147.645 59.702 146.885 59.83 146.245 60.086C145.621 60.342 145.101 60.686 144.685 61.118C144.269 61.55 143.941 62.054 143.701 62.63C143.461 63.206 143.277 63.814 143.149 64.454C143.021 65.094 142.941 65.75 142.909 66.422C142.877 67.094 142.861 67.742 142.861 68.366ZM158.356 68.342C158.356 67.926 158.356 67.47 158.356 66.974C158.372 66.462 158.412 65.958 158.476 65.462C158.556 64.95 158.66 64.454 158.788 63.974C158.932 63.494 159.132 63.078 159.388 62.726C159.66 62.358 159.996 62.062 160.396 61.838C160.796 61.614 161.284 61.502 161.86 61.502C162.436 61.502 162.924 61.614 163.324 61.838C163.724 62.062 164.052 62.358 164.308 62.726C164.58 63.078 164.78 63.494 164.908 63.974C165.052 64.454 165.156 64.95 165.22 65.462C165.3 65.958 165.34 66.462 165.34 66.974C165.356 67.47 165.364 67.926 165.364 68.342C165.364 68.982 165.34 69.702 165.292 70.502C165.26 71.286 165.132 72.03 164.908 72.734C164.7 73.422 164.356 74.006 163.876 74.486C163.396 74.966 162.724 75.206 161.86 75.206C160.996 75.206 160.324 74.966 159.844 74.486C159.364 74.006 159.012 73.422 158.788 72.734C158.58 72.03 158.452 71.286 158.404 70.502C158.372 69.702 158.356 68.982 158.356 68.342ZM156.196 68.366C156.196 68.99 156.212 69.638 156.244 70.31C156.276 70.982 156.356 71.638 156.484 72.278C156.612 72.918 156.796 73.526 157.036 74.102C157.276 74.662 157.604 75.158 158.02 75.59C158.436 76.022 158.956 76.366 159.58 76.622C160.22 76.862 160.98 76.982 161.86 76.982C162.756 76.982 163.516 76.862 164.14 76.622C164.764 76.366 165.284 76.022 165.7 75.59C166.116 75.158 166.444 74.662 166.684 74.102C166.924 73.526 167.108 72.918 167.236 72.278C167.364 71.638 167.444 70.982 167.476 70.31C167.508 69.638 167.524 68.99 167.524 68.366C167.524 67.742 167.508 67.094 167.476 66.422C167.444 65.75 167.364 65.094 167.236 64.454C167.108 63.814 166.924 63.206 166.684 62.63C166.444 62.054 166.116 61.55 165.7 61.118C165.284 60.686 164.756 60.342 164.116 60.086C163.492 59.83 162.74 59.702 161.86 59.702C160.98 59.702 160.22 59.83 159.58 60.086C158.956 60.342 158.436 60.686 158.02 61.118C157.604 61.55 157.276 62.054 157.036 62.63C156.796 63.206 156.612 63.814 156.484 64.454C156.356 65.094 156.276 65.75 156.244 66.422C156.212 67.094 156.196 67.742 156.196 68.366ZM170.516 74.054V76.718H171.932C171.948 76.91 171.932 77.118 171.884 77.342C171.852 77.566 171.78 77.782 171.668 77.99C171.556 78.214 171.404 78.414 171.212 78.59C171.036 78.782 170.812 78.926 170.54 79.022V80.222C171.468 79.95 172.14 79.486 172.556 78.83C172.972 78.174 173.18 77.39 173.18 76.478V74.054H170.516ZM178.372 68.342C178.372 67.926 178.372 67.47 178.372 66.974C178.388 66.462 178.428 65.958 178.492 65.462C178.572 64.95 178.676 64.454 178.804 63.974C178.948 63.494 179.148 63.078 179.404 62.726C179.676 62.358 180.012 62.062 180.412 61.838C180.812 61.614 181.3 61.502 181.876 61.502C182.452 61.502 182.94 61.614 183.34 61.838C183.74 62.062 184.068 62.358 184.324 62.726C184.596 63.078 184.796 63.494 184.924 63.974C185.068 64.454 185.172 64.95 185.236 65.462C185.316 65.958 185.356 66.462 185.356 66.974C185.372 67.47 185.38 67.926 185.38 68.342C185.38 68.982 185.356 69.702 185.308 70.502C185.276 71.286 185.148 72.03 184.924 72.734C184.716 73.422 184.372 74.006 183.892 74.486C183.412 74.966 182.74 75.206 181.876 75.206C181.012 75.206 180.34 74.966 179.86 74.486C179.38 74.006 179.028 73.422 178.804 72.734C178.596 72.03 178.468 71.286 178.42 70.502C178.388 69.702 178.372 68.982 178.372 68.342ZM176.212 68.366C176.212 68.99 176.228 69.638 176.26 70.31C176.292 70.982 176.372 71.638 176.5 72.278C176.628 72.918 176.812 73.526 177.052 74.102C177.292 74.662 177.62 75.158 178.036 75.59C178.452 76.022 178.972 76.366 179.596 76.622C180.236 76.862 180.996 76.982 181.876 76.982C182.772 76.982 183.532 76.862 184.156 76.622C184.78 76.366 185.3 76.022 185.716 75.59C186.132 75.158 186.46 74.662 186.7 74.102C186.94 73.526 187.124 72.918 187.252 72.278C187.38 71.638 187.46 70.982 187.492 70.31C187.524 69.638 187.54 68.99 187.54 68.366C187.54 67.742 187.524 67.094 187.492 66.422C187.46 65.75 187.38 65.094 187.252 64.454C187.124 63.814 186.94 63.206 186.7 62.63C186.46 62.054 186.132 61.55 185.716 61.118C185.3 60.686 184.772 60.342 184.132 60.086C183.508 59.83 182.756 59.702 181.876 59.702C180.996 59.702 180.236 59.83 179.596 60.086C178.972 60.342 178.452 60.686 178.036 61.118C177.62 61.55 177.292 62.054 177.052 62.63C176.812 63.206 176.628 63.814 176.5 64.454C176.372 65.094 176.292 65.75 176.26 66.422C176.228 67.094 176.212 67.742 176.212 68.366ZM191.708 68.342C191.708 67.926 191.708 67.47 191.708 66.974C191.724 66.462 191.764 65.958 191.828 65.462C191.908 64.95 192.012 64.454 192.14 63.974C192.284 63.494 192.484 63.078 192.74 62.726C193.012 62.358 193.348 62.062 193.748 61.838C194.148 61.614 194.636 61.502 195.212 61.502C195.788 61.502 196.276 61.614 196.676 61.838C197.076 62.062 197.404 62.358 197.66 62.726C197.932 63.078 198.132 63.494 198.26 63.974C198.404 64.454 198.508 64.95 198.572 65.462C198.652 65.958 198.692 66.462 198.692 66.974C198.708 67.47 198.716 67.926 198.716 68.342C198.716 68.982 198.692 69.702 198.644 70.502C198.612 71.286 198.484 72.03 198.26 72.734C198.052 73.422 197.708 74.006 197.228 74.486C196.748 74.966 196.076 75.206 195.212 75.206C194.348 75.206 193.676 74.966 193.196 74.486C192.716 74.006 192.364 73.422 192.14 72.734C191.932 72.03 191.804 71.286 191.756 70.502C191.724 69.702 191.708 68.982 191.708 68.342ZM189.548 68.366C189.548 68.99 189.564 69.638 189.596 70.31C189.628 70.982 189.708 71.638 189.836 72.278C189.964 72.918 190.148 73.526 190.388 74.102C190.628 74.662 190.956 75.158 191.372 75.59C191.788 76.022 192.308 76.366 192.932 76.622C193.572 76.862 194.332 76.982 195.212 76.982C196.108 76.982 196.868 76.862 197.492 76.622C198.116 76.366 198.636 76.022 199.052 75.59C199.468 75.158 199.796 74.662 200.036 74.102C200.276 73.526 200.46 72.918 200.588 72.278C200.716 71.638 200.796 70.982 200.828 70.31C200.86 69.638 200.876 68.99 200.876 68.366C200.876 67.742 200.86 67.094 200.828 66.422C200.796 65.75 200.716 65.094 200.588 64.454C200.46 63.814 200.276 63.206 200.036 62.63C199.796 62.054 199.468 61.55 199.052 61.118C198.636 60.686 198.108 60.342 197.468 60.086C196.844 59.83 196.092 59.702 195.212 59.702C194.332 59.702 193.572 59.83 192.932 60.086C192.308 60.342 191.788 60.686 191.372 61.118C190.956 61.55 190.628 62.054 190.388 62.63C190.148 63.206 189.964 63.814 189.836 64.454C189.708 65.094 189.628 65.75 189.596 66.422C189.564 67.094 189.548 67.742 189.548 68.366ZM205.044 68.342C205.044 67.926 205.044 67.47 205.044 66.974C205.06 66.462 205.1 65.958 205.164 65.462C205.244 64.95 205.348 64.454 205.476 63.974C205.62 63.494 205.82 63.078 206.076 62.726C206.348 62.358 206.684 62.062 207.084 61.838C207.484 61.614 207.972 61.502 208.548 61.502C209.124 61.502 209.612 61.614 210.012 61.838C210.412 62.062 210.74 62.358 210.996 62.726C211.268 63.078 211.468 63.494 211.596 63.974C211.74 64.454 211.844 64.95 211.908 65.462C211.988 65.958 212.028 66.462 212.028 66.974C212.044 67.47 212.052 67.926 212.052 68.342C212.052 68.982 212.028 69.702 211.98 70.502C211.948 71.286 211.82 72.03 211.596 72.734C211.388 73.422 211.044 74.006 210.564 74.486C210.084 74.966 209.412 75.206 208.548 75.206C207.684 75.206 207.012 74.966 206.532 74.486C206.052 74.006 205.7 73.422 205.476 72.734C205.268 72.03 205.14 71.286 205.092 70.502C205.06 69.702 205.044 68.982 205.044 68.342ZM202.884 68.366C202.884 68.99 202.9 69.638 202.932 70.31C202.964 70.982 203.044 71.638 203.172 72.278C203.3 72.918 203.484 73.526 203.724 74.102C203.964 74.662 204.292 75.158 204.708 75.59C205.124 76.022 205.644 76.366 206.268 76.622C206.908 76.862 207.668 76.982 208.548 76.982C209.444 76.982 210.204 76.862 210.828 76.622C211.452 76.366 211.972 76.022 212.388 75.59C212.804 75.158 213.132 74.662 213.372 74.102C213.612 73.526 213.796 72.918 213.924 72.278C214.052 71.638 214.132 70.982 214.164 70.31C214.196 69.638 214.212 68.99 214.212 68.366C214.212 67.742 214.196 67.094 214.164 66.422C214.132 65.75 214.052 65.094 213.924 64.454C213.796 63.814 213.612 63.206 213.372 62.63C213.132 62.054 212.804 61.55 212.388 61.118C211.972 60.686 211.444 60.342 210.804 60.086C210.18 59.83 209.428 59.702 208.548 59.702C207.668 59.702 206.908 59.83 206.268 60.086C205.644 60.342 205.124 60.686 204.708 61.118C204.292 61.55 203.964 62.054 203.724 62.63C203.484 63.206 203.3 63.814 203.172 64.454C203.044 65.094 202.964 65.75 202.932 66.422C202.9 67.094 202.884 67.742 202.884 68.366Z" fill="white"/>
<rect x="130.364" y="86.718" width="83" height="253" rx="8" fill="#FFBF00"/>
<path d="M146.08 357.374H149.344C149.344 356.926 149.384 356.478 149.464 356.03C149.56 355.566 149.712 355.15 149.92 354.782C150.128 354.398 150.4 354.094 150.736 353.87C151.088 353.63 151.512 353.51 152.008 353.51C152.744 353.51 153.344 353.742 153.808 354.206C154.288 354.654 154.528 355.286 154.528 356.102C154.528 356.614 154.408 357.07 154.168 357.47C153.944 357.87 153.656 358.23 153.304 358.55C152.968 358.87 152.592 359.166 152.176 359.438C151.76 359.694 151.368 359.95 151 360.206C150.28 360.702 149.592 361.19 148.936 361.67C148.296 362.15 147.736 362.678 147.256 363.254C146.776 363.814 146.392 364.454 146.104 365.174C145.832 365.894 145.696 366.742 145.696 367.718H158.032V364.79H150.088C150.504 364.214 150.984 363.71 151.528 363.278C152.072 362.846 152.632 362.446 153.208 362.078C153.784 361.694 154.352 361.31 154.912 360.926C155.488 360.542 156 360.118 156.448 359.654C156.896 359.174 157.256 358.63 157.528 358.022C157.8 357.414 157.936 356.686 157.936 355.838C157.936 355.022 157.776 354.286 157.456 353.63C157.152 352.974 156.736 352.422 156.208 351.974C155.68 351.526 155.064 351.182 154.36 350.942C153.672 350.702 152.944 350.582 152.176 350.582C151.168 350.582 150.272 350.758 149.488 351.11C148.72 351.446 148.08 351.926 147.568 352.55C147.056 353.158 146.672 353.878 146.416 354.71C146.16 355.526 146.048 356.414 146.08 357.374ZM162.44 359.246C162.44 358.958 162.44 358.614 162.44 358.214C162.456 357.798 162.488 357.374 162.536 356.942C162.584 356.51 162.664 356.086 162.776 355.67C162.888 355.238 163.04 354.854 163.232 354.518C163.44 354.182 163.696 353.91 164 353.702C164.32 353.494 164.712 353.39 165.176 353.39C165.64 353.39 166.032 353.494 166.352 353.702C166.672 353.91 166.936 354.182 167.144 354.518C167.352 354.854 167.504 355.238 167.6 355.67C167.712 356.086 167.792 356.51 167.84 356.942C167.904 357.374 167.936 357.798 167.936 358.214C167.952 358.614 167.96 358.958 167.96 359.246C167.96 359.726 167.944 360.31 167.912 360.998C167.88 361.67 167.776 362.326 167.6 362.966C167.44 363.59 167.168 364.126 166.784 364.574C166.416 365.022 165.88 365.246 165.176 365.246C164.488 365.246 163.96 365.022 163.592 364.574C163.224 364.126 162.952 363.59 162.776 362.966C162.616 362.326 162.52 361.67 162.488 360.998C162.456 360.31 162.44 359.726 162.44 359.246ZM159.032 359.246C159.032 360.926 159.192 362.334 159.512 363.47C159.848 364.59 160.296 365.486 160.856 366.158C161.416 366.83 162.064 367.31 162.8 367.598C163.552 367.886 164.344 368.03 165.176 368.03C166.024 368.03 166.816 367.886 167.552 367.598C168.304 367.31 168.96 366.83 169.52 366.158C170.096 365.486 170.544 364.59 170.864 363.47C171.2 362.334 171.368 360.926 171.368 359.246C171.368 357.614 171.2 356.246 170.864 355.142C170.544 354.022 170.096 353.126 169.52 352.454C168.96 351.782 168.304 351.302 167.552 351.014C166.816 350.726 166.024 350.582 165.176 350.582C164.344 350.582 163.552 350.726 162.8 351.014C162.064 351.302 161.416 351.782 160.856 352.454C160.296 353.126 159.848 354.022 159.512 355.142C159.192 356.246 159.032 357.614 159.032 359.246ZM172.752 357.374H176.016C176.016 356.926 176.056 356.478 176.136 356.03C176.232 355.566 176.384 355.15 176.592 354.782C176.8 354.398 177.072 354.094 177.408 353.87C177.76 353.63 178.184 353.51 178.68 353.51C179.416 353.51 180.016 353.742 180.48 354.206C180.96 354.654 181.2 355.286 181.2 356.102C181.2 356.614 181.08 357.07 180.84 357.47C180.616 357.87 180.328 358.23 179.976 358.55C179.64 358.87 179.264 359.166 178.848 359.438C178.432 359.694 178.04 359.95 177.672 360.206C176.952 360.702 176.264 361.19 175.608 361.67C174.968 362.15 174.408 362.678 173.928 363.254C173.448 363.814 173.064 364.454 172.776 365.174C172.504 365.894 172.368 366.742 172.368 367.718H184.704V364.79H176.76C177.176 364.214 177.656 363.71 178.2 363.278C178.744 362.846 179.304 362.446 179.88 362.078C180.456 361.694 181.024 361.31 181.584 360.926C182.16 360.542 182.672 360.118 183.12 359.654C183.568 359.174 183.928 358.63 184.2 358.022C184.472 357.414 184.608 356.686 184.608 355.838C184.608 355.022 184.448 354.286 184.128 353.63C183.824 352.974 183.408 352.422 182.88 351.974C182.352 351.526 181.736 351.182 181.032 350.942C180.344 350.702 179.616 350.582 178.848 350.582C177.84 350.582 176.944 350.758 176.16 351.11C175.392 351.446 174.752 351.926 174.24 352.55C173.728 353.158 173.344 353.878 173.088 354.71C172.832 355.526 172.72 356.414 172.752 357.374ZM194.608 367.718V350.918H191.896C191.8 351.558 191.6 352.094 191.296 352.526C190.992 352.958 190.616 353.31 190.168 353.582C189.736 353.838 189.24 354.022 188.68 354.134C188.136 354.23 187.568 354.27 186.976 354.254V356.822H191.2V367.718H194.608Z" fill="white"/>
<rect x="123.691" y="5.86523" width="99" height="45" rx="22.5" fill="black" fill-opacity="0.2"/>
<path d="M142.187 30.5212V25.7452H139.619V30.5212H134.843V33.0892H139.619V37.8652H142.187V33.0892H146.963V30.5212H142.187ZM157.49 37.8652V21.0652H154.778C154.682 21.7052 154.482 22.2412 154.178 22.6732C153.874 23.1052 153.498 23.4572 153.05 23.7292C152.618 23.9852 152.122 24.1692 151.562 24.2812C151.018 24.3772 150.45 24.4172 149.858 24.4012V26.9692H154.082V37.8652H157.49ZM166.889 27.8572V30.2572C167.305 30.2572 167.737 30.2732 168.185 30.3052C168.649 30.3212 169.073 30.4092 169.457 30.5692C169.841 30.7132 170.153 30.9532 170.393 31.2892C170.649 31.6252 170.777 32.1132 170.777 32.7532C170.777 33.5692 170.513 34.2172 169.985 34.6972C169.457 35.1612 168.809 35.3932 168.041 35.3932C167.545 35.3932 167.113 35.3052 166.745 35.1292C166.393 34.9532 166.097 34.7212 165.857 34.4332C165.617 34.1292 165.433 33.7772 165.305 33.3772C165.177 32.9612 165.105 32.5292 165.089 32.0812H161.849C161.833 33.0572 161.969 33.9212 162.257 34.6732C162.561 35.4252 162.985 36.0652 163.529 36.5932C164.073 37.1052 164.729 37.4972 165.497 37.7692C166.281 38.0412 167.145 38.1772 168.089 38.1772C168.905 38.1772 169.689 38.0572 170.441 37.8172C171.193 37.5772 171.857 37.2252 172.433 36.7612C173.009 36.2972 173.465 35.7212 173.801 35.0332C174.153 34.3452 174.329 33.5612 174.329 32.6812C174.329 31.7212 174.065 30.8972 173.537 30.2092C173.009 29.5212 172.281 29.0732 171.353 28.8652V28.8172C172.137 28.5932 172.721 28.1692 173.105 27.5452C173.505 26.9212 173.705 26.2012 173.705 25.3852C173.705 24.6332 173.537 23.9692 173.201 23.3932C172.865 22.8172 172.425 22.3292 171.881 21.9292C171.353 21.5292 170.753 21.2332 170.081 21.0412C169.409 20.8332 168.737 20.7292 168.065 20.7292C167.201 20.7292 166.417 20.8732 165.713 21.1612C165.009 21.4332 164.401 21.8252 163.889 22.3372C163.393 22.8492 163.001 23.4652 162.713 24.1852C162.441 24.8892 162.289 25.6732 162.257 26.5372H165.497C165.481 25.6732 165.689 24.9612 166.121 24.4012C166.569 23.8252 167.225 23.5372 168.089 23.5372C168.713 23.5372 169.265 23.7292 169.745 24.1132C170.225 24.4972 170.465 25.0492 170.465 25.7692C170.465 26.2492 170.345 26.6332 170.105 26.9212C169.881 27.2092 169.585 27.4332 169.217 27.5932C168.865 27.7372 168.481 27.8252 168.065 27.8572C167.649 27.8892 167.257 27.8892 166.889 27.8572ZM178.665 29.3932C178.665 29.1052 178.665 28.7612 178.665 28.3612C178.681 27.9452 178.713 27.5212 178.761 27.0892C178.809 26.6572 178.889 26.2332 179.001 25.8172C179.113 25.3852 179.265 25.0012 179.457 24.6652C179.665 24.3292 179.921 24.0572 180.225 23.8492C180.545 23.6412 180.937 23.5372 181.401 23.5372C181.865 23.5372 182.257 23.6412 182.577 23.8492C182.897 24.0572 183.161 24.3292 183.369 24.6652C183.577 25.0012 183.729 25.3852 183.825 25.8172C183.937 26.2332 184.017 26.6572 184.065 27.0892C184.129 27.5212 184.161 27.9452 184.161 28.3612C184.177 28.7612 184.185 29.1052 184.185 29.3932C184.185 29.8732 184.169 30.4572 184.137 31.1452C184.105 31.8172 184.001 32.4732 183.825 33.1132C183.665 33.7372 183.393 34.2732 183.009 34.7212C182.641 35.1692 182.105 35.3932 181.401 35.3932C180.713 35.3932 180.185 35.1692 179.817 34.7212C179.449 34.2732 179.177 33.7372 179.001 33.1132C178.841 32.4732 178.745 31.8172 178.713 31.1452C178.681 30.4572 178.665 29.8732 178.665 29.3932ZM175.257 29.3932C175.257 31.0732 175.417 32.4812 175.737 33.6172C176.073 34.7372 176.521 35.6332 177.081 36.3052C177.641 36.9772 178.289 37.4572 179.025 37.7452C179.777 38.0332 180.569 38.1772 181.401 38.1772C182.249 38.1772 183.041 38.0332 183.777 37.7452C184.529 37.4572 185.185 36.9772 185.745 36.3052C186.321 35.6332 186.769 34.7372 187.089 33.6172C187.425 32.4812 187.593 31.0732 187.593 29.3932C187.593 27.7612 187.425 26.3932 187.089 25.2892C186.769 24.1692 186.321 23.2732 185.745 22.6012C185.185 21.9292 184.529 21.4492 183.777 21.1612C183.041 20.8732 182.249 20.7292 181.401 20.7292C180.569 20.7292 179.777 20.8732 179.025 21.1612C178.289 21.4492 177.641 21.9292 177.081 22.6012C176.521 23.2732 176.073 24.1692 175.737 25.2892C175.417 26.3932 175.257 27.7612 175.257 29.3932ZM204.721 33.4972C204.721 33.2252 204.729 32.9212 204.745 32.5852C204.777 32.2492 204.849 31.9372 204.961 31.6492C205.073 31.3612 205.233 31.1212 205.441 30.9292C205.665 30.7372 205.969 30.6412 206.353 30.6412C206.705 30.6412 206.977 30.7532 207.169 30.9772C207.377 31.1852 207.529 31.4412 207.625 31.7452C207.721 32.0332 207.777 32.3452 207.793 32.6812C207.825 33.0012 207.841 33.2812 207.841 33.5212C207.841 33.7772 207.825 34.0732 207.793 34.4092C207.777 34.7292 207.713 35.0412 207.601 35.3452C207.505 35.6332 207.345 35.8812 207.121 36.0892C206.913 36.2972 206.625 36.4012 206.257 36.4012C205.873 36.4012 205.577 36.2972 205.369 36.0892C205.161 35.8812 205.009 35.6332 204.913 35.3452C204.817 35.0412 204.761 34.7212 204.745 34.3852C204.729 34.0492 204.721 33.7532 204.721 33.4972ZM202.273 33.4732C202.273 34.1292 202.337 34.7452 202.465 35.3212C202.609 35.8972 202.833 36.4012 203.137 36.8332C203.457 37.2492 203.865 37.5772 204.361 37.8172C204.873 38.0572 205.497 38.1772 206.233 38.1772C206.937 38.1772 207.545 38.0652 208.057 37.8412C208.569 37.6012 208.985 37.2732 209.305 36.8572C209.641 36.4412 209.889 35.9532 210.049 35.3932C210.209 34.8332 210.289 34.2252 210.289 33.5692C210.289 32.9132 210.225 32.2972 210.097 31.7212C209.969 31.1452 209.745 30.6492 209.425 30.2332C209.121 29.8012 208.721 29.4652 208.225 29.2252C207.729 28.9692 207.105 28.8412 206.353 28.8412C205.649 28.8412 205.041 28.9612 204.529 29.2012C204.017 29.4412 203.593 29.7692 203.257 30.1852C202.921 30.6012 202.673 31.0892 202.513 31.6492C202.353 32.2092 202.273 32.8172 202.273 33.4732ZM204.121 20.5372L194.185 38.3692H196.273L206.161 20.5372H204.121ZM192.337 25.5292C192.337 25.2572 192.345 24.9452 192.361 24.5932C192.393 24.2412 192.465 23.9132 192.577 23.6092C192.689 23.3052 192.849 23.0492 193.057 22.8412C193.281 22.6332 193.585 22.5292 193.969 22.5292C194.321 22.5292 194.593 22.6412 194.785 22.8652C194.993 23.0892 195.145 23.3612 195.241 23.6812C195.337 24.0012 195.393 24.3372 195.409 24.6892C195.441 25.0252 195.457 25.3132 195.457 25.5532C195.457 25.8092 195.441 26.0972 195.409 26.4172C195.393 26.7212 195.329 27.0172 195.217 27.3052C195.121 27.5772 194.961 27.8092 194.737 28.0012C194.529 28.1932 194.241 28.2892 193.873 28.2892C193.489 28.2892 193.193 28.1932 192.985 28.0012C192.777 27.8092 192.625 27.5772 192.529 27.3052C192.433 27.0172 192.377 26.7132 192.361 26.3932C192.345 26.0732 192.337 25.7852 192.337 25.5292ZM189.889 25.4812C189.889 26.1372 189.953 26.7532 190.081 27.3292C190.225 27.8892 190.449 28.3772 190.753 28.7932C191.073 29.1932 191.481 29.5132 191.977 29.7532C192.489 29.9772 193.113 30.0892 193.849 30.0892C194.553 30.0892 195.161 29.9772 195.673 29.7532C196.185 29.5292 196.601 29.2172 196.921 28.8172C197.257 28.4172 197.505 27.9452 197.665 27.4012C197.825 26.8412 197.905 26.2332 197.905 25.5772C197.905 24.9212 197.841 24.2972 197.713 23.7052C197.585 23.1132 197.361 22.6012 197.041 22.1692C196.737 21.7212 196.337 21.3692 195.841 21.1132C195.345 20.8572 194.721 20.7292 193.969 20.7292C193.265 20.7292 192.657 20.8572 192.145 21.1132C191.633 21.3532 191.209 21.6892 190.873 22.1212C190.537 22.5532 190.289 23.0572 190.129 23.6332C189.969 24.2092 189.889 24.8252 189.889 25.4812Z" fill="white"/>
<path d="M92.6131 34.9893L112.824 29.7181L114.071 49.6792" stroke="white" stroke-width="6" stroke-linecap="round" stroke-linejoin="round"/>
<path d="M110.865 31.718C100.531 46.8847 88.0001 55.8655 82.0001 107.365C76.2914 156.365 31.8646 180.218 16.8645 188.218" stroke="white" stroke-width="6" stroke-linecap="round" stroke-linejoin="round"/>
</g>
<defs>
<clipPath id="clip0_570_11435">
<rect width="233" height="373" fill="white"/>
</clipPath>
</defs>
</svg>
