<svg width="144" height="120" viewBox="0 0 144 120" fill="none" xmlns="http://www.w3.org/2000/svg">
<path fill-rule="evenodd" clip-rule="evenodd" d="M6.14129 38.3063C4.00743 38.878 2.7411 41.0714 3.31286 43.2053L8.48924 62.5238L9.0957 64.7871C9.37027 65.8118 10.0407 66.6855 10.9594 67.2159L17.8876 71.2159C18.8063 71.7463 19.4767 72.62 19.7513 73.6447L23.0348 85.8987C23.3093 86.9235 23.1656 88.0153 22.6352 88.934L18.6352 95.8622C18.1047 96.781 17.961 97.8728 18.2356 98.8975L18.842 101.161L20.9126 108.888C21.4843 111.022 23.6777 112.288 25.8115 111.717L41.2664 107.576C43.4002 107.004 44.6665 104.81 44.0948 102.677L42.0242 94.9491L41.4178 92.6858C41.1432 91.6611 41.2869 90.5693 41.8174 89.6506L45.8174 82.7224C46.3478 81.8036 46.4916 80.7118 46.217 79.6871L42.9335 67.4331C42.659 66.4084 41.9886 65.5347 41.0698 65.0042L34.1416 61.0042C33.2229 60.4738 32.5525 59.6001 32.2779 58.5754L31.6715 56.3121L29.6009 48.5847C29.0291 46.4508 30.2955 44.2575 32.4293 43.6857L36.293 42.6505L44.0204 40.5799L45.9523 40.0623L55.6116 37.4741L59.4753 36.4388C61.6091 35.867 63.8025 37.1334 64.3742 39.2672L66.4448 46.9946L67.0512 49.2579C67.3258 50.2827 67.9962 51.1563 68.9149 51.6868L75.8432 55.6868C76.7619 56.2172 77.4323 57.0909 77.7069 58.1156L80.9903 70.3696C81.2649 71.3943 81.1211 72.4861 80.5907 73.4049L76.5907 80.3331C76.0603 81.2518 75.9165 82.3436 76.1911 83.3684L76.7976 85.6317L78.8681 93.3591C79.4399 95.4929 81.6332 96.7593 83.7671 96.1875L137.859 81.6936C139.993 81.1219 141.259 78.9285 140.687 76.7946L123.088 11.1117C122.516 8.97783 120.323 7.7115 118.189 8.28327L52.5057 25.883L42.8465 28.4712L40.9146 28.9888L33.1872 31.0593L6.14129 38.3063Z" fill="#FFAB19"/>
</svg>
