<svg width="212" height="58" viewBox="0 0 212 58" fill="none" xmlns="http://www.w3.org/2000/svg">
<mask id="mask0_365_11823" style="mask-type:alpha" maskUnits="userSpaceOnUse" x="0" y="1" width="211" height="57">
<path fill-rule="evenodd" clip-rule="evenodd" d="M0.5 1H210.516V57.5801H0.5V1Z" fill="white"/>
</mask>
<g mask="url(#mask0_365_11823)">
<path fill-rule="evenodd" clip-rule="evenodd" d="M182.213 0.999023C175.692 0.999023 169.692 3.20907 164.906 6.91248C163.432 5.44211 160.995 3.44297 158.54 3.32602C157.682 3.28504 156.229 3.26505 154.223 3.26505C150.844 3.26505 146.972 3.32202 146.934 3.32402L146.655 3.32802L146.389 3.40799C145.719 3.6089 142.641 4.59148 140.745 6.19179H133.413C131.525 6.19179 128.883 7.85507 124.67 10.9247C124.51 11.0417 124.346 11.1606 124.187 11.2756C123.963 11.0337 123.721 10.7568 123.516 10.5199C122.159 8.96659 120.47 7.03442 118.412 6.51964L118.172 6.45967H92.0978C90.6648 5.13824 87.4208 2.4564 84.6848 2.4564C84.3908 2.4564 84.0038 2.4374 83.5408 2.41441C82.7758 2.37943 81.8218 2.33345 80.7328 2.33345C74.1138 2.33345 69.1318 4.18265 65.9218 7.83008C65.6938 8.011 65.6068 8.011 65.4898 8.011C65.1828 8.011 64.6618 7.89805 64.0588 7.76911C62.7118 7.48023 60.6778 7.04342 57.5288 7.04342L47.1738 7.10639L46.7168 7.37028C45.4698 8.08597 39.2338 11.7374 37.2238 14.3093C37.0998 14.3393 36.6448 14.3583 36.2338 14.3003C35.5998 10.1691 32.7568 4.2906 25.0748 4.2906C21.7248 4.2906 19.3428 5.55106 18.1508 6.36971C17.7738 6.32273 17.3088 6.28575 16.7728 6.28575C13.7768 6.28575 6.42379 7.5562 2.83379 19.3191L2.74579 19.606V29.2439C1.93979 30.3254 0.628788 32.6104 0.544788 36.1699C0.472788 39.2225 0.503788 41.6925 0.526788 43.4947C0.534788 44.1994 0.544788 44.8081 0.544788 45.3259C0.544788 51.1144 6.87479 57.2348 12.8588 57.2348H13.1138L13.3608 57.1718C13.5508 57.1218 18.0478 55.9413 21.0668 53.6173C21.7398 53.0976 22.5178 52.8337 23.3728 52.8337C24.1798 52.8337 24.7788 53.0666 24.7788 53.0666L25.7808 53.4994L26.7428 52.8597C28.9538 54.341 33.8888 57.2348 38.6928 57.2348C43.0198 57.2348 46.2008 55.4985 48.1018 54.46C48.5458 54.2181 49.0898 53.9212 49.3358 53.8313C51.4678 53.8283 57.6488 53.7183 60.4268 52.6398C60.6078 52.7367 60.8688 52.9047 61.0768 53.0356C62.4838 53.9272 64.8318 55.4166 69.3518 55.4346C69.4568 55.4406 69.6308 55.4496 69.8658 55.4496C71.7598 55.4496 77.9608 54.8758 81.9148 47.8758C83.8788 48.6365 85.9878 48.8044 86.2638 48.8244L89.9548 48.8284C91.0288 50.6086 93.4788 53.6823 97.5838 53.6823H112.214L112.606 53.5064C113.627 53.0486 114.369 52.6118 114.908 52.213C116.334 53.2835 118.619 54.9338 121.147 54.9338H129.783L130.091 54.8308C130.726 54.6189 132.121 54.1301 133.065 53.6223C133.344 53.6034 133.877 53.5834 134.855 53.5834C136.262 53.5834 137.936 53.6243 138.932 53.6543C140.113 54.9388 142.601 57.2348 145.277 57.2348C148.408 57.2348 151.724 57.0938 154.753 56.0613C155.366 55.8524 156.197 55.7914 157.078 55.7254C159.46 55.5505 162.646 55.3066 165.359 52.018C170.068 55.5105 175.898 57.5796 182.213 57.5796C197.844 57.5796 210.516 44.9141 210.516 29.2898C210.516 13.6656 197.844 0.999023 182.213 0.999023Z" fill="#2BA4D9"/>
</g>
<path fill-rule="evenodd" clip-rule="evenodd" d="M182.188 4.60742C175.342 4.60742 169.148 7.39322 164.675 11.8913L160.831 8.63868L160.717 8.54872L160.63 8.66867C159.796 8.02395 158.96 7.54016 158.349 7.51017C157.553 7.47319 156.165 7.45419 154.222 7.45419C151.407 7.45419 148.242 7.49518 147.283 7.50817C145.878 7.96397 143.738 8.89657 143.089 9.66724L142.49 10.3819H133.413C132.287 10.5149 128.329 13.3986 127.028 14.3452C126.062 15.0499 125.583 15.3978 125.232 15.5887C124.888 15.7786 124.496 15.8776 124.101 15.8776C122.716 15.8776 121.785 14.814 120.498 13.3387C119.723 12.452 118.462 11.0077 117.615 10.6498H90.4624L89.8764 10.0621C88.2214 8.41278 85.7384 6.64554 84.6844 6.64554C84.3434 6.64554 83.8914 6.62455 83.3514 6.59856C82.6284 6.56558 81.7264 6.5236 80.7324 6.5236C75.1794 6.5236 71.2934 7.907 68.8474 10.7508L68.6404 10.9597C67.6664 11.8053 66.6644 12.2001 65.4904 12.2001C64.7564 12.2001 64.0434 12.0462 63.2164 11.8683C61.9644 11.6004 60.2514 11.2336 57.5414 11.2336L48.2584 11.2905C45.5704 12.8679 41.4024 15.5817 40.3794 16.9571C39.8824 17.6588 38.8364 18.5364 36.8284 18.5364C35.3084 18.5364 33.8534 18.0256 33.6914 17.9667L32.4044 17.5009L32.3714 16.1335C32.3454 15.3588 31.9214 8.48075 25.0754 8.48075C21.8924 8.48075 20.1094 10.0741 20.0354 10.142L19.2144 10.8917L18.1254 10.6068C18.1244 10.6068 17.5914 10.4759 16.7724 10.4759C14.1874 10.4759 9.47438 11.7723 6.75138 20.3936V31L6.14538 31.5918C6.10538 31.6338 4.62638 33.2041 4.54838 36.4507C4.47838 39.4304 4.50938 41.8574 4.53138 43.6296C4.54238 44.3533 4.54838 44.981 4.54838 45.5118C4.54838 49.0533 8.85838 53.2315 12.6094 53.4114C13.5054 53.1525 16.6084 52.1819 18.6214 50.6316C19.9934 49.574 21.6354 49.0163 23.3734 49.0163C24.1014 49.0163 24.7444 49.1142 25.2484 49.2302L26.8654 48.1516L28.0034 49.0323C28.0594 49.0743 33.7524 53.4184 38.6934 53.4184C41.9984 53.4184 44.4164 52.0989 46.1814 51.1334C47.3714 50.4836 48.2304 50.0158 49.2054 50.0158C53.1254 50.0158 58.0174 49.632 59.0544 49.0613L59.2594 48.9493L59.4834 48.8873C59.7824 48.8044 60.0864 48.7624 60.3924 48.7624C61.5224 48.7624 62.3864 49.3111 63.2224 49.8409C64.4704 50.6326 66.0234 51.6162 69.4314 51.6162L69.6254 51.6262C69.6384 51.6262 69.7284 51.6322 69.8664 51.6322C71.2774 51.6322 76.1054 51.1544 78.9844 45.014C79.3734 44.1864 80.2484 43.6936 81.3234 43.6936C81.6824 43.6936 82.2164 43.7525 82.7144 44.0294C83.8714 44.6781 85.7634 44.951 86.4804 45.011H92.4904L93.0054 46.2385C93.0174 46.2655 94.6054 49.8649 97.5844 49.8649H111.334C111.902 49.582 112.468 49.2422 112.709 49.0393C113.072 48.3186 113.804 47.8568 114.63 47.8568C115.529 47.8568 116.178 48.3446 117.161 49.0842C118.171 49.8439 119.863 51.1164 121.146 51.1164H129.125C130.055 50.7915 131.003 50.4017 131.251 50.2338L131.587 50.0098L132.027 49.9019C132.374 49.8339 132.98 49.766 134.854 49.766C137.074 49.766 139.826 49.8629 139.942 49.8659L140.858 49.8989L141.432 50.6136C142.382 51.7871 144.25 53.4184 145.277 53.4184C147.153 53.4184 150.641 53.4184 153.459 52.4578C154.56 52.083 155.69 52.001 156.783 51.919C158.942 51.7611 160.685 51.6262 162.322 49.597C162.319 49.594 162.317 49.591 162.314 49.588L162.542 49.3261L164.507 46.5134C168.993 51.1124 175.254 53.9731 182.188 53.9731C184.546 53.9731 186.826 53.6423 188.986 53.0246C197.403 50.6206 203.982 43.8635 206.13 35.3442C206.621 33.407 206.88 31.3789 206.88 29.2898C206.88 15.6587 195.826 4.60742 182.188 4.60742Z" fill="#FEFEFE"/>
<path fill-rule="evenodd" clip-rule="evenodd" d="M179.324 20.1937L179.332 20.1477L179.303 20.0408C178.964 18.7793 178.687 18.4385 177.39 18.4385H173.592C173.065 18.4385 172.472 18.4955 172.064 18.9193C171.777 19.2181 171.641 19.645 171.662 20.1907C171.692 20.9724 172.052 21.904 173.592 21.904H176.38C176.683 23.9691 177.024 27.7954 177.107 31.3769C177.169 34.0218 176.666 37.4313 175.07 39.0636C174.44 39.7083 173.707 40.0212 172.83 40.0212C171.383 40.0212 171.063 39.0296 170.933 37.9571C170.922 37.8601 170.912 37.7811 170.901 37.7252C170.659 36.4737 170.023 35.866 169.065 35.9329C168.553 35.9639 168.123 36.1658 167.824 36.5177C167.487 36.9135 167.344 37.4673 167.41 38.119L167.425 38.2849C167.527 39.4814 167.84 43.1238 172.783 43.1238C174.54 43.1238 176.07 42.4671 177.332 41.1697C179.668 38.7687 180.412 34.8634 180.34 32.2495C180.219 27.8254 179.8 22.1159 179.324 20.1937Z" fill="#F9A738"/>
<path fill-rule="evenodd" clip-rule="evenodd" d="M174.297 17.8461C174.514 17.8931 174.741 17.9171 174.975 17.9171C175.457 17.9171 175.963 17.8161 176.45 17.6172C177.172 17.3234 177.776 16.8466 178.15 16.2758C178.562 15.6461 178.655 14.9754 178.414 14.3856C177.938 13.2181 176.328 12.8063 174.748 13.45C174.027 13.7439 173.425 14.2217 173.051 14.7924C172.645 15.4132 172.549 16.1019 172.786 16.6816C173.023 17.2624 173.573 17.6872 174.297 17.8461Z" fill="#F9A738"/>
<path fill-rule="evenodd" clip-rule="evenodd" d="M199.464 23.1056C199.388 22.7388 198.783 20.5637 195.192 20.5637C193.178 20.5637 191.769 21.2144 190.943 21.7282C190.682 21.0115 189.985 20.5187 189.17 20.5667L184.572 20.8526C183.602 20.9135 182.86 21.7532 182.918 22.7268C182.98 23.6983 183.808 24.431 184.792 24.3811L187.466 24.2141L187.696 34.4877L186.776 34.5157C186.309 34.5317 185.875 34.7276 185.556 35.0684C185.235 35.4093 185.068 35.8541 185.082 36.3189C185.096 36.7877 185.291 37.2215 185.632 37.5414C185.959 37.8492 186.382 38.0162 186.826 38.0162C186.847 38.0162 186.866 38.0152 186.887 38.0152L193.092 37.8223C193.56 37.8073 193.994 37.6113 194.315 37.2695C194.635 36.9286 194.803 36.4828 194.788 36.016C194.759 35.0515 193.943 34.3188 192.983 34.3218L191.609 34.3647L191.246 26.5651C191.886 24.7509 193.817 23.8893 195.004 23.8573C195.576 23.8013 195.833 24.1871 196.186 24.7999C196.531 25.4036 197.046 26.3162 198.335 25.9484C198.811 25.8124 199.176 25.5256 199.39 25.1177C199.807 24.3241 199.534 23.3305 199.464 23.1056Z" fill="#F9A738"/>
<path fill-rule="evenodd" clip-rule="evenodd" d="M19.4824 28.6557C19.3104 28.6197 19.1834 28.5937 19.1124 28.5737C17.1284 28.0309 16.7464 27.2613 16.6354 26.6535C16.5584 26.2187 16.6544 22.1954 16.7554 21.6467C16.8094 21.3558 17.0404 20.3762 17.7394 20.0304C18.2314 19.7865 18.9044 19.8764 19.7434 20.3013C22.3174 21.6027 22.3494 24.2865 22.3644 25.576C22.3664 25.7319 22.3684 25.8689 22.3734 25.9818C22.4394 27.4632 23.3514 28.3118 24.8754 28.3118C26.3024 28.3118 26.7854 27.2303 26.8434 26.6335L27.3804 15.1035L27.3724 15.0505C27.2774 14.4968 26.6764 13.4492 25.0754 13.4492C23.4444 13.4492 22.9224 14.5238 22.8734 15.1345V16.9277C22.0304 16.1581 20.5164 15.3514 17.8654 15.3514C15.6184 15.3514 12.8594 16.379 12.4734 21.2728L12.4614 21.4128C12.3624 22.5533 12.3254 26.9264 12.5024 28.6277C12.8144 31.6244 15.6044 32.3081 16.7954 32.6C18.4464 33.0068 20.2874 33.5086 21.5324 33.8484L22.6444 34.1503C23.5694 34.3932 24.5254 34.6441 24.5254 36.6182C24.5254 39.0052 22.8184 40.3736 19.8434 40.3736C16.5194 40.3736 15.1124 38.0086 15.1124 37.069L15.1134 36.8431C15.1204 35.4048 15.1364 32.411 13.1454 32.2661C12.4824 32.2201 11.9274 32.3921 11.5074 32.7829C10.7814 33.4566 10.7584 34.5001 10.7574 34.6181V45.9762C10.7574 47.0267 11.9534 47.6765 13.0604 47.6765C14.1814 47.6765 14.9624 46.8778 14.9624 46.1621C14.9624 45.8942 14.9474 44.3039 14.9374 43.2744C16.2444 43.9271 18.6374 44.7757 20.3694 44.7757C24.3184 44.7757 28.9294 42.5347 28.9294 36.2184C28.9294 32.528 25.7514 29.9831 19.4824 28.6557Z" fill="#F9A738"/>
<path fill-rule="evenodd" clip-rule="evenodd" d="M45.8017 34.8173C44.3237 34.8173 43.9337 36.2137 43.9337 36.9534V40.086C43.9317 40.2319 43.8447 43.6595 39.1267 43.6595C37.0847 43.6595 35.6857 43.0527 34.9687 41.8572C34.3857 40.8827 34.3857 39.7651 34.3867 39.1884L34.3847 30.6061C34.3957 30.4801 34.6807 27.5434 37.6577 27.5434C40.5267 27.5434 41.5267 29.2327 42.2577 30.4672L42.5337 30.93C42.7657 31.3368 43.2497 32.1814 44.4997 32.1814C45.4587 32.1814 46.6027 31.7706 46.6027 29.8134L46.5977 22.8065C46.5087 22.1487 45.9547 20.9053 44.4997 20.9053C43.0417 20.9053 42.4897 22.2407 42.3987 23.0084V24.7346C41.5327 23.964 39.9817 23.1083 37.3577 23.1083C32.4737 23.1083 30.2487 26.7917 30.2487 30.2143V40.055C30.2487 42.6919 31.9997 47.6767 38.6257 47.6767C45.6427 47.6767 48.0037 42.8328 48.0037 40.6228V37.0523C48.0037 35.6319 47.2007 34.8173 45.8017 34.8173Z" fill="#F9A738"/>
<path fill-rule="evenodd" clip-rule="evenodd" d="M64.125 22.4575C64.125 25.2253 58.922 26.5517 56.314 26.9306V20.6893C58.3 20.5463 62.454 20.5103 63.764 21.6978C64.01 21.9217 64.125 22.1626 64.125 22.4575ZM72.285 38.3187L72.159 38.3167C71.741 38.3127 71.034 38.2927 70.54 38.7745C70.237 39.0713 70.083 39.4912 70.083 40.0219C70.083 40.6327 69.96 41.0505 69.719 41.2624C69.51 41.4473 69.161 41.5093 68.698 41.4533C67.015 41.2264 67.022 36.2536 67.028 32.963V32.3652C67.028 30.7459 66.508 29.4915 65.436 28.6009C65.793 28.4079 66.166 28.1141 66.535 27.7282C67.67 26.5407 68.844 24.3807 68.73 21.8838C68.526 17.4826 63.361 16.5071 60.67 16.604H49.999C49.205 16.618 47.704 17.0718 47.704 18.6881C47.704 20.2844 49.175 20.8022 49.986 20.8542H51.86V27.3864C50.523 27.5243 49.957 28.208 49.73 28.6328C49.357 29.3335 49.42 30.2362 49.889 30.9329C50.349 31.6146 51.101 31.9734 51.857 31.8904C51.934 31.8904 52.001 31.8894 52.076 31.8874V40.0029L49.814 40.2558C48.619 40.3868 48.141 41.1994 48.309 42.8087C48.39 43.5904 48.752 44.0032 49.041 44.2121C49.706 44.6929 50.523 44.534 50.549 44.523C50.869 44.497 58.391 43.8723 59.686 43.5314C60.639 43.2805 60.946 42.11 60.757 41.0835C60.538 39.889 59.763 39.1573 58.827 39.2543L56.314 39.5301V31.2777L56.574 31.2277C58.308 30.8959 60.103 30.55 61.171 30.591C61.87 30.615 62.109 30.9578 62.252 31.2907C62.937 32.874 62.985 36.6184 63.011 38.6295L63.024 39.4822C63.059 41.0535 63.591 46.1763 68.98 46.1763C74.126 46.1763 74.387 41.3414 74.387 40.3718C74.387 38.8654 73.13 38.3187 72.285 38.3187Z" fill="#F9A738"/>
<path fill-rule="evenodd" clip-rule="evenodd" d="M133.58 35.5513C133.58 34.1309 132.777 33.3173 131.378 33.3173C129.9 33.3173 129.51 34.7137 129.51 35.4513V38.584C129.508 38.7309 129.421 42.1574 124.701 42.1574C122.66 42.1574 121.261 41.5517 120.545 40.3562C119.961 39.3826 119.962 38.2641 119.963 37.6874L119.961 29.1061C119.972 28.9801 120.257 26.0414 123.233 26.0414C126.103 26.0414 127.103 27.7337 127.834 28.9681L128.109 29.4289C128.341 29.8348 128.824 30.6804 130.076 30.6804C131.035 30.6804 132.178 30.2696 132.178 28.3124L132.173 21.3054C132.083 20.6477 131.529 19.4062 130.076 19.4062C128.618 19.4062 128.066 20.7397 127.975 21.5063V23.2326C127.109 22.4609 125.558 21.6063 122.934 21.6063C118.05 21.6063 115.825 25.2897 115.825 28.7122V38.554C115.825 41.1909 117.576 46.1757 124.201 46.1757C131.218 46.1757 133.58 41.3308 133.58 39.1208V35.5513Z" fill="#F9A738"/>
<path fill-rule="evenodd" clip-rule="evenodd" d="M85.3237 28.03L81.3817 28.3709L82.7967 22.6344L85.3237 28.03ZM97.7327 32.5861C97.1067 31.2437 96.1197 30.8458 95.4637 31.1507L92.5647 32.5021L84.3057 14.0561C84.2827 12.4997 83.5877 11.79 82.9407 11.79C82.5337 11.792 73.9917 11.819 73.9087 11.827C73.8497 11.837 72.4527 12.0989 72.4607 14.16C72.4657 16.1652 73.5077 16.453 73.6267 16.479L73.6807 16.491L79.1387 16.473L75.8207 33.7006L70.5117 33.7056C69.9657 33.7846 68.9317 34.3563 68.9317 35.9596C68.9317 37.9428 70.1357 38.2007 70.2827 38.2196H80.6467C81.2767 38.2196 81.9477 37.427 81.9477 35.9596C81.9477 34.4763 81.2177 33.7006 80.4957 33.7006H80.0657L80.3497 32.5511L86.9077 31.4156L88.3397 34.4723L86.4157 35.3739C85.9537 35.6757 85.2597 36.6313 85.9377 38.0837C86.5487 39.3931 87.3497 39.6021 87.7947 39.6021C87.9607 39.6021 88.0767 39.5731 88.1157 39.5611L97.5117 35.182C98.0807 34.9151 98.3517 33.9145 97.7327 32.5861Z" fill="#F9A738"/>
<path fill-rule="evenodd" clip-rule="evenodd" d="M116.424 23.9522L116.435 23.5993C116.464 22.7507 116.541 20.4947 116.541 18.2027C116.541 17.1391 116.266 16.3515 115.724 15.8607C115.159 15.3509 114.516 15.3589 114.365 15.3689L93.4358 15.7647C92.6308 15.7797 92.1818 16.1336 91.9478 16.4284C91.3128 17.2261 91.5358 18.3986 91.5568 18.4945C91.5968 18.7844 92.5218 25.6095 92.7408 26.5721C93.0328 27.8485 93.8618 28.3253 95.5148 28.1584C96.2698 28.0834 96.6538 27.7356 96.8428 27.4577C97.2718 26.8249 97.0718 26.0593 97.0638 26.0593L96.4668 20.0858L101.974 19.9029V40.1222H99.3108C98.0828 40.1222 97.0838 41.1208 97.0838 42.3473C97.0838 43.5757 98.0828 44.5743 99.3108 44.5743H109.006C110.235 44.5743 111.235 43.5757 111.235 42.3473C111.235 41.1208 110.235 40.1222 109.006 40.1222H106.763L106.55 19.75L111.938 19.5711C111.943 20.6516 111.953 23.1125 111.953 23.7323C111.953 24.1181 112.099 24.467 112.373 24.7398C112.774 25.1377 113.446 25.3646 114.221 25.3646H114.244C115.53 25.3556 116.409 24.6269 116.424 23.9522Z" fill="#F9A738"/>
<path fill-rule="evenodd" clip-rule="evenodd" d="M157.603 42.7013C157.205 42.3964 156.721 42.2655 156.244 42.3255L154.819 42.5114L154.51 16.9004H156.576C157.624 16.9004 158.476 15.9588 158.476 14.8003C158.476 13.6418 157.624 12.6992 156.576 12.6992H148.031C146.982 12.6992 146.128 13.6418 146.128 14.8003C146.128 15.9588 146.982 16.9004 148.031 16.9004H150.186L150.213 27.081L141.51 28.7813L141.608 19.7042H143.892C144.941 19.7042 145.793 18.8516 145.793 17.803C145.793 16.7545 144.941 15.9008 143.892 15.9008H135.348C134.299 15.9008 133.447 16.7545 133.447 17.803C133.447 18.8516 134.299 19.7042 135.348 19.7042H137.368V40.4922L135.091 40.5192C134.032 40.5332 133.18 41.4848 133.193 42.6433C133.2 43.2311 133.433 43.7948 133.835 44.1856C134.19 44.5325 134.645 44.7214 135.121 44.7214H135.143L143.827 44.6175C144.888 44.6035 145.741 43.6519 145.728 42.4934C145.712 41.3439 144.849 40.4163 143.799 40.4163H143.777L141.386 40.4453L141.462 33.3143L150.226 31.6241L150.256 43.1071L147.631 43.45C146.58 43.5869 145.845 44.6335 145.994 45.784C146.135 46.8475 146.986 47.6322 147.947 47.6322C148.022 47.6322 148.099 47.6272 148.175 47.6172L156.789 46.4927C157.84 46.3537 158.574 45.3072 158.424 44.1587C158.348 43.5749 158.048 43.0441 157.603 42.7013Z" fill="#F9A738"/>
<path fill-rule="evenodd" clip-rule="evenodd" d="M193.74 41.7244L189.192 42.0403C188.976 42.0403 188.721 42.0403 188.44 42.0383C187.031 42.0253 184.883 41.9133 182.783 41.0667C182.574 40.9827 181.851 41.1567 181.699 41.3316C176.359 47.431 171.345 46.8622 171.345 46.8622C168.474 46.8622 162.867 43.4247 162.967 38.121C163.068 32.8163 166.205 32.0156 168.875 31.9156C170.545 31.8537 171.456 32.4684 171.906 32.9382C172.176 33.2201 172.426 33.496 172.488 32.7633C172.535 32.2345 172.538 31.2989 172.412 29.6476C172.112 25.7103 171.078 24.7767 171.078 24.7767C169.976 24.109 166.605 23.7752 167.273 17.3029C168.021 10.0531 174.281 9.2974 174.281 9.2974C181.496 8.71865 182.213 14.1133 182.213 16.0195C182.213 16.6352 182.842 16.6462 182.842 16.6462L195.926 16.1694C198.428 16.1694 202.785 18.9382 202.785 23.6422C202.785 29.2478 197.482 29.6686 195.177 29.5907C194.477 29.5677 194.529 29.6856 194.926 29.9735C195.889 30.6762 197.432 32.1725 197.979 34.4126C198.105 34.9303 198.178 35.4891 198.178 36.0859C198.178 40.324 193.74 41.7244 193.74 41.7244ZM182.188 4.60742C168.551 4.60742 157.495 15.6587 157.495 29.2908C157.495 42.9229 168.551 53.9731 182.188 53.9731C184.547 53.9731 186.826 53.6423 188.986 53.0256C197.403 50.6206 203.982 43.8645 206.131 35.3442C206.621 33.408 206.881 31.3789 206.881 29.2908C206.881 15.6587 195.826 4.60742 182.188 4.60742Z" fill="#F9A738"/>
<path fill-rule="evenodd" clip-rule="evenodd" d="M193.74 41.7244L189.192 42.0403C188.976 42.0403 188.721 42.0403 188.44 42.0383C187.031 42.0253 184.883 41.9133 182.783 41.0667C182.574 40.9827 181.851 41.1567 181.699 41.3316C176.359 47.431 171.345 46.8622 171.345 46.8622C168.474 46.8622 162.867 43.4247 162.967 38.121C163.068 32.8163 166.205 32.0156 168.875 31.9156C170.545 31.8537 171.456 32.4684 171.906 32.9382C172.176 33.2201 172.426 33.496 172.488 32.7633C172.535 32.2345 172.538 31.2989 172.412 29.6476C172.112 25.7103 171.078 24.7767 171.078 24.7767C169.976 24.109 166.605 23.7752 167.273 17.3029C168.021 10.0531 174.281 9.2974 174.281 9.2974C181.496 8.71865 182.213 14.1133 182.213 16.0195C182.213 16.6352 182.842 16.6462 182.842 16.6462L195.926 16.1694C198.428 16.1694 202.785 18.9382 202.785 23.6422C202.785 29.2478 197.482 29.6686 195.177 29.5907C194.477 29.5677 194.529 29.6856 194.926 29.9735C195.889 30.6762 197.432 32.1725 197.979 34.4126C198.105 34.9303 198.178 35.4891 198.178 36.0859C198.178 40.324 193.74 41.7244 193.74 41.7244ZM182.188 4.60742C168.551 4.60742 157.495 15.6587 157.495 29.2908C157.495 42.9229 168.551 53.9731 182.188 53.9731C184.547 53.9731 186.826 53.6423 188.986 53.0256C197.403 50.6206 203.982 43.8645 206.131 35.3442C206.621 33.408 206.881 31.3789 206.881 29.2908C206.881 15.6587 195.826 4.60742 182.188 4.60742Z" fill="#F9A738"/>
</svg>
