<svg width="88" height="88" viewBox="0 0 88 88" fill="none" xmlns="http://www.w3.org/2000/svg">
<path fill-rule="evenodd" clip-rule="evenodd" d="M15.8431 8.12264C16.3775 5.97912 18.5485 4.6747 20.692 5.20914L75.0285 18.7568C77.1721 19.2912 78.4765 21.4621 77.942 23.6056L76.0067 31.368L75.4398 33.6415C75.1831 34.6709 75.3459 35.76 75.8923 36.6694L80.0126 43.5267C80.559 44.4361 80.7218 45.5252 80.4651 46.5546L77.396 58.864C77.1394 59.8934 76.4843 60.7786 75.575 61.325L68.7177 65.4453C67.8083 65.9917 67.1533 66.8769 66.8966 67.9063L66.3298 70.1798L64.3944 77.9422C63.86 80.0857 61.6891 81.3901 59.5455 80.8557L5.20897 67.3081C3.06545 66.7736 1.76104 64.6027 2.29548 62.4592L4.23085 54.6968L4.79771 52.4233C5.05436 51.3939 5.7094 50.5087 6.61874 49.9623L13.4761 45.842C14.3854 45.2956 15.0405 44.4104 15.2971 43.381L18.3662 31.0716C18.6228 30.0422 18.4601 28.9531 17.9137 28.0437L13.7934 21.1864C13.247 20.277 13.0842 19.1879 13.3409 18.1585L13.9077 15.885L15.8431 8.12264Z" fill="#FFBF00"/>
</svg>
