<svg width="227" height="227" viewBox="0 0 227 227" fill="none" xmlns="http://www.w3.org/2000/svg">
<g clip-path="url(#clip0_476_14141)">
<path d="M220.798 150.413C214.148 169.756 202.782 186.149 188.444 198.722L188.424 198.742C183.977 202.651 179.241 206.18 174.286 209.321C151.244 223.929 123.117 230.151 95.0396 225.474C93.7534 225.265 92.4572 225.036 91.171 224.766H91.161C86.2854 223.789 81.4297 222.463 76.604 220.808C54.0505 213.05 35.5252 198.902 22.3342 181.073C20.6392 178.78 19.0239 176.427 17.5084 174.014C-0.16943 145.946 -5.42392 110.409 6.20176 76.6072C10.6387 63.6947 17.1794 52.1084 25.3054 42.0776C25.435 41.8881 25.5846 41.7087 25.7441 41.5292C25.8438 41.4195 25.9335 41.3198 26.0133 41.2201C28.3364 38.3883 30.8091 35.6662 33.4015 33.1037H33.4115C42.5944 23.9603 53.233 16.5119 64.8088 11.0279C76.265 5.56375 88.6385 2.02404 101.401 0.648043C106.625 0.0896664 111.94 -0.109754 117.264 0.0597534C123.107 0.259174 128.989 0.907289 134.872 2.04398C140.057 3.05106 145.241 4.42706 150.396 6.19192C209.661 26.5826 241.178 91.1449 220.798 150.403V150.413Z" fill="#E5F0FF"/>
<path d="M204.227 144.709C198.604 161.062 188.992 174.921 176.868 185.56L176.848 185.58C173.089 188.881 169.091 191.872 164.893 194.524C145.411 206.878 121.631 212.133 97.891 208.185C96.8042 208.005 95.7074 207.816 94.6206 207.586C90.5028 206.759 86.3949 205.632 82.307 204.236C63.2432 197.675 47.5695 185.71 36.4224 170.634C34.9866 168.689 33.6207 166.705 32.3444 164.661C17.3986 140.93 12.9517 110.888 22.7827 82.3007C26.5316 71.3824 32.0653 61.5809 38.935 53.1055C39.0447 52.946 39.1643 52.7964 39.3039 52.6369C39.3837 52.5472 39.4634 52.4574 39.5233 52.3777C41.4875 49.9846 43.5813 47.6813 45.7748 45.5076C53.5319 37.7701 62.5353 31.4784 72.3165 26.8419C81.9979 22.2353 92.467 19.244 103.255 18.0774C107.672 17.5988 112.159 17.4293 116.666 17.5788C121.611 17.7483 126.576 18.2967 131.552 19.254C135.939 20.1015 140.316 21.2681 144.673 22.7638C194.785 40.0036 221.426 94.5849 204.197 144.699L204.227 144.709Z" fill="#47A8D1"/>
<path d="M116.686 17.5888C114.811 19.9719 112.707 21.9163 110.484 23.4717C94.7901 34.4498 72.3364 26.8519 72.3364 26.8519C82.0179 22.2453 92.4869 19.254 103.275 18.0874C107.692 17.6088 112.179 17.4393 116.686 17.5888Z" fill="#0B8E69"/>
<path d="M92.6066 159.716C94.6007 162.916 90.5526 164.94 90.5526 164.94C90.5526 164.94 86.4747 164.641 80.2929 163.345C69.7042 161.131 52.9437 155.996 39.9919 144.43C19.4824 126.113 45.1267 98.9921 39.9919 90.2076C34.867 81.4132 22.7727 82.3106 22.7727 82.3106C26.5216 71.3923 32.0553 61.5908 38.925 53.1155C34.2488 60.0254 66.045 65.4596 83.9621 72.6287C102.268 79.9475 99.3467 108.534 83.2243 118.057C67.1019 127.579 84.6899 153.224 90.5526 157.622C91.5298 158.369 92.1878 159.067 92.5966 159.716H92.6066Z" fill="#0B8E69"/>
<path d="M164.893 194.524C145.411 206.878 121.631 212.133 97.891 208.185C92.0981 202.042 85.6371 195.691 80.3029 191.693C67.1118 181.801 80.3029 163.355 80.3029 163.355L90.5626 157.632C90.6224 157.721 91.1808 158.549 92.6066 159.726C96.3455 162.856 105.997 168.51 127.912 170.075C158.682 172.279 125.709 184.733 145.49 183.995C157.216 183.566 162.5 189.559 164.873 194.524H164.893Z" fill="#0B8E69"/>
<path d="M204.227 144.709C188.394 140.841 191.246 99.3412 188.623 116.621C186.001 133.911 152.48 128.147 156 113.51C159.519 98.8626 167.675 88.8517 176.05 74.1943C184.436 59.517 170.297 61.1024 164.534 64.7617C158.771 68.4311 153.008 78.3821 156 87.8147C158.991 97.2473 156.149 93.0594 144.623 98.2942C133.107 103.539 135.729 68.9595 130.485 54.8206C125.24 40.6718 110.494 23.4917 110.494 23.4917L103.285 18.0974C107.702 17.6188 112.189 17.4493 116.696 17.5989C121.641 17.7684 126.606 18.3168 131.582 19.274C135.969 20.1215 140.346 21.2881 144.703 22.7838C194.815 40.0237 221.456 94.605 204.227 144.719V144.709Z" fill="#0B8E69"/>
<path d="M86.9133 60.3145C86.9133 60.3145 102.896 68.2115 103.275 74.5331C103.654 80.8548 116.297 63.4753 101.131 58.7391C85.9661 54.0028 86.9133 60.3145 86.9133 60.3145Z" fill="#0B8E69"/>
<path d="M105.867 147.202C105.867 147.202 111.391 153.833 116.685 152.885C121.98 151.938 115.659 144.669 105.867 147.202Z" fill="#0B8E69"/>
<path fill-rule="evenodd" clip-rule="evenodd" d="M137.515 106.958C136.087 123.099 117.805 135.794 113.168 135.794C108.53 135.794 90.2449 123.099 88.8203 106.958C88.7792 106.431 88.738 105.904 88.738 105.378C88.738 97.5513 95.1295 91.1848 102.99 91.1848C106.979 91.1848 110.603 92.8056 113.168 95.4827C115.732 92.8056 119.356 91.1848 123.345 91.1848C131.202 91.1848 137.594 97.5513 137.594 105.378C137.594 105.904 137.553 106.431 137.515 106.958Z" fill="#EC5858"/>
</g>
<defs>
<clipPath id="clip0_476_14141">
<rect width="227" height="227" fill="white"/>
</clipPath>
</defs>
</svg>
