<svg id="Layer_1" data-name="Layer 1" xmlns="http://www.w3.org/2000/svg" viewBox="0 0 380 180"><defs><style>.cls-1{fill:#0eb989;opacity:0.25;}.cls-2{fill:#fff;}.cls-3{fill:#ffc709;}.cls-4{fill:none;stroke:#5c6671;stroke-linecap:round;}.cls-18,.cls-4{stroke-miterlimit:10;}.cls-18,.cls-5{fill:#5c6671;}.cls-6{fill:#6e7b8a;opacity:0.5;}.cls-7{fill:#ed5f87;}.cls-10,.cls-11,.cls-7,.cls-9{fill-rule:evenodd;}.cls-8{fill:#96f;}.cls-12,.cls-13,.cls-9{fill:#575e75;}.cls-10{fill:#c2c5c6;}.cls-11,.cls-14{fill:#eef3f8;}.cls-13{opacity:0.3;}.cls-15{fill:#ffbf00;}.cls-16{fill:#b5875c;}.cls-17{fill:#ccaa93;}.cls-18{stroke:#ffbf00;stroke-width:0.55px;}.cls-19{fill:#ff8c1a;}</style></defs><path class="cls-1" d="M378.76,84.34c-8.38,82.67-54.07,99.17-159.09,94.92-139-5.63-216,3.85-220.18-88.43C-4,13.21,42.23-1.76,178.32,0,309.43,1.7,386.65,6.5,378.76,84.34Z"/><path class="cls-2" d="M293.84,34.56l-155.61-.24H121.41a2.27,2.27,0,0,0-1.72,3.89L130,47.85a2.2,2.2,0,0,1,.71,1.61v22c0,6,5.18,10.85,11.57,10.85H291.41c6.39,0,11.57-4.86,11.57-10.85V43.13A8.86,8.86,0,0,0,293.84,34.56Z"/><circle class="cls-3" cx="161.98" cy="57.3" r="11.91"/><path class="cls-4" d="M156.36,59.23a11.31,11.31,0,0,0,11.1.32"/><circle class="cls-5" cx="154.35" cy="55.52" r="1.41"/><circle class="cls-5" cx="169.62" cy="55.52" r="1.41"/><rect class="cls-6" x="185.5" y="46.29" width="92" height="8" rx="4"/><rect class="cls-6" x="185.5" y="60.79" width="92" height="8" rx="4"/><path class="cls-2" d="M86.71,100.78l152.22-.24h16.46a2.27,2.27,0,0,1,1.68,3.89L247,114.08a2.22,2.22,0,0,0-.69,1.61v22A11.1,11.1,0,0,1,235,148.54H89.09a11.1,11.1,0,0,1-11.32-10.85V109.35A8.76,8.76,0,0,1,86.71,100.78Z"/><rect class="cls-6" x="93.91" y="112.41" width="84" height="8" rx="3.67"/><rect class="cls-6" x="93.91" y="127.41" width="84" height="8" rx="3.67"/><path class="cls-3" d="M208.28,116.63l2.33,4.73a1.18,1.18,0,0,0,.87.63l5.22.76a1.15,1.15,0,0,1,.64,2l-3.78,3.69a1.16,1.16,0,0,0-.33,1l.89,5.2a1.15,1.15,0,0,1-1.67,1.21l-4.67-2.45a1.13,1.13,0,0,0-1.07,0L202,135.83a1.15,1.15,0,0,1-1.67-1.21l.89-5.2a1.16,1.16,0,0,0-.33-1l-3.78-3.69a1.15,1.15,0,0,1,.64-2L203,122a1.18,1.18,0,0,0,.87-.63l2.33-4.73A1.15,1.15,0,0,1,208.28,116.63Z"/><path class="cls-7" d="M227,114.12c-.24,2.7-3.3,4.82-4.07,4.82s-3.83-2.12-4.07-4.82a2.46,2.46,0,0,1,0-.26,2.39,2.39,0,0,1,2.39-2.38,2.35,2.35,0,0,1,1.7.72,2.33,2.33,0,0,1,1.7-.72,2.39,2.39,0,0,1,2.38,2.38C227,113.94,227,114,227,114.12Z"/><rect class="cls-8" x="268.21" y="99.62" width="44" height="44" rx="6.29"/><path class="cls-9" d="M295,112c-3.94-2-9.44-3.69-12,2.63-1.88,4.67,20.35,21.83,29.2,23.28q0-.3,0-.6v-8.59C306.44,120.14,303.38,116.24,295,112Z"/><path class="cls-10" d="M282.67,115.42c.55,2,2.1,1,3.11.42.57-.33,1.64-.6,1.94-1s-.17-.76-.64-1.57c-1.08-1.83-3.51-4.12-4.53-3.53S282.11,113.34,282.67,115.42Z"/><path class="cls-11" d="M309.92,131.89c-5.9-8.8-8.93-12.73-17.44-17a9.19,9.19,0,0,0-12.85,5c-2.33,5.8-5.88,10.66-1.56,12.54,1.21.52,6.82-1.07,8.51-1.31a10.74,10.74,0,0,0,2.51-.67c1.14,4.79,2.75,10.81,3.53,13.16h13.3a6.28,6.28,0,0,0,6.29-6.29v-1.52A40.43,40.43,0,0,0,309.92,131.89Z"/><path class="cls-12" d="M288.92,111.72c.23,2.12-2.63,4.11-5.67,5.23-1.41.52-2.1-.38-2.39-2.26-.22-1.46.53-2.31,2.43-2.94C285,111.19,288.75,110.13,288.92,111.72Z"/><path class="cls-13" d="M291.8,114c-.23,1.31-.86,1.69-1.6,1.09-.93-.76-1.77-1.39-1.77-1.39.47-1,1-2,1.48-3C291,111.68,292,112.91,291.8,114Z"/><circle class="cls-12" cx="285.01" cy="122.37" r="1.05"/><path class="cls-12" d="M277.28,126.74c-.22,0-.43,0-.64.05-.94,2.59-1,4.59,1.43,5.65.64.27,2.5,0,4.36-.43a.41.41,0,0,0,0-.11A5.16,5.16,0,0,0,277.28,126.74Z"/><circle class="cls-14" cx="278.97" cy="130.21" r="0.41"/><path class="cls-12" d="M305.94,126.1c-3.22,3.17-7.14,7.57-6.45,8.38s5.48-1.92,9.19-4.44C307.71,128.61,306.81,127.3,305.94,126.1Z"/><path class="cls-12" d="M301.49,120.68c-2.82,2.93-6.07,6.7-5.49,7.38s4.86-1.9,8.3-4.14C303.38,122.76,302.46,121.69,301.49,120.68Z"/><path class="cls-12" d="M298.81,118.74a33.6,33.6,0,0,0-3.35-2.24c-1.78,3-3.16,5.86-2.52,6.35S296.23,121.24,298.81,118.74Z"/><path class="cls-13" d="M291.71,130.78c.21-1.3-.25-1.69-.9-1.27-.82.51-1.72,1-1.72,1,.22.94.46,1.92.71,2.91A4.4,4.4,0,0,0,291.71,130.78Z"/><path class="cls-11" d="M285.93,115.08c0,2.12,1.79,1.5,2.92,1.18.63-.19,1.73-.18,2.13-.54s0-.78-.24-1.67c-.58-2-2.38-4.87-3.51-4.54S285.91,112.93,285.93,115.08Z"/><path class="cls-12" d="M302.84,141.26c.66.77,5.72-2,9.37-4.47v-1a39,39,0,0,0-2.12-3.66C306.71,135.34,302.07,140.36,302.84,141.26Z"/><path class="cls-12" d="M301.33,120.86c-2.79,2.89-5.89,6.53-5.33,7.2s4.8-1.86,8.22-4.09A36.11,36.11,0,0,0,301.33,120.86Z"/><rect class="cls-15" x="66.51" y="33.87" width="44" height="44" rx="6.29"/><path class="cls-5" d="M81.89,45.68c-.82,1.78-3.55,3.42-5.12,3.23s-.75-1.17-1-3c-.39-2.42,0-3,1.46-2.78S82.47,44.45,81.89,45.68Z"/><path class="cls-5" d="M92,45.68c.83,1.78,3.56,3.42,5.13,3.23s.75-1.17,1-3c.39-2.42,0-3-1.47-2.78S91.38,44.45,92,45.68Z"/><path class="cls-16" d="M87,43.74C78.36,44,74.6,48.64,74.62,55c0,3.1,1.2,5.62,1.41,7.52a29,29,0,0,0-8.2,12.73.89.89,0,0,0,0,.11,6.28,6.28,0,0,0,5,2.47H96.15a12.41,12.41,0,0,0-.84-13,10.47,10.47,0,0,0,5.94-9.9C101.16,47.54,95.88,43.45,87,43.74Z"/><circle class="cls-17" cx="84.12" cy="54.58" r="4.99"/><ellipse class="cls-17" cx="95.9" cy="54.6" rx="3.96" ry="4.99"/><circle class="cls-18" cx="85.15" cy="54.88" r="1.87"/><circle class="cls-18" cx="95.71" cy="54.9" r="1.87"/><path class="cls-19" d="M93.5,58.27a2.79,2.79,0,0,1-2.32,1.24c-1,0-2-.88-1.8-1.8a1.77,1.77,0,0,1,2.32-1.4C92.62,56.59,94.06,57.43,93.5,58.27Z"/><path class="cls-17" d="M88.24,65.11c-5,0-7.89,4.34-7.89,9.24a12.85,12.85,0,0,0,.43,3.52H93.06a14.23,14.23,0,0,0,1.65-4C95.93,69.13,93.47,65.11,88.24,65.11Z"/></svg>