<svg id="Layer_1" data-name="Layer 1" xmlns="http://www.w3.org/2000/svg" xmlns:xlink="http://www.w3.org/1999/xlink" viewBox="0 0 128 220"><defs><style>.cls-1{fill:none;}.cls-2{clip-path:url(#clip-path);}.cls-3{fill:#0eb989;opacity:0.25;}.cls-4{fill:#fff;}.cls-5{opacity:0.6;}.cls-6,.cls-8{fill:#3cb98a;}.cls-7{fill:#2f9b73;}.cls-8{stroke:#2f9b73;stroke-miterlimit:10;}.cls-10,.cls-9{fill:#dcddde;}.cls-10{fill-rule:evenodd;}</style><clipPath id="clip-path"><rect class="cls-1" width="128" height="220"/></clipPath></defs><g class="cls-2"><path class="cls-3" d="M123.4,109.8c14.35,88.42-34.69,101.39-87.48,102.82S-65.85,215.36-68.56,115C-70.83,30.53-52.74,6.79,15.54,5,68.32,3.53,111.08,33.91,123.4,109.8Z"/><path class="cls-4" d="M99.18,105.58H74.86c-3.9,0-7.06,3.48-7.06,7.77s3.16,7.78,7.06,7.78H88.67a2.29,2.29,0,0,1,.16.23c3.81,6.2,9.51,7.54,9,4.73-.4-2.09-.71-3.92-.29-5h1.66c3.9,0,7.07-3.48,7.07-7.78S103.08,105.58,99.18,105.58Z"/><path class="cls-4" d="M72.9,164.69c8.54,0,15.47-7.39,15.47-16.51h0c0-9.12-6.93-16.52-15.47-16.52H28.73c-8.54,0-15.47,7.4-15.47,16.52h0c0,9.12,6.93,16.51,15.47,16.51h3.66c.92,2.21.24,6.1-.64,10.54-1.17,6,11.33,3.12,19.67-10,.11-.18.23-.33.35-.49Z"/><g class="cls-5"><circle class="cls-6" cx="41.13" cy="148.13" r="2.84"/><circle class="cls-6" cx="51.64" cy="148.13" r="2.84"/><circle class="cls-6" cx="62.16" cy="148.13" r="2.84"/></g><ellipse class="cls-7" cx="17.3" cy="74.5" rx="40.97" ry="41.23"/><ellipse class="cls-8" cx="14.24" cy="71.96" rx="40.97" ry="41.23"/><ellipse class="cls-4" cx="14.24" cy="71.96" rx="34.01" ry="34.22"/><path class="cls-9" d="M13.83,102.29a1,1,0,0,1,0-2h.29a1,1,0,0,1,1,1,1,1,0,0,1-1,1Zm14.62-3.77A1,1,0,0,1,28,96.68l.28-.16a1,1,0,0,1,.49-.13,1,1,0,0,1,.49,1.83l-.29.17A1,1,0,0,1,28.45,98.52ZM-.39,98.39a1,1,0,0,1-.48-.13l-.3-.17a1,1,0,0,1-.35-1.35,1,1,0,0,1,.85-.48,1,1,0,0,1,.49.13l.27.16a1,1,0,0,1,.37,1.34A1,1,0,0,1-.39,98.39Zm39.6-10.48a1,1,0,0,1-.49-.14,1,1,0,0,1-.35-1.34l.16-.28a1,1,0,0,1,.85-.49,1,1,0,0,1,.49.13,1,1,0,0,1,.36,1.35l-.17.28A1,1,0,0,1,39.21,87.91Zm-50.28-.23a1,1,0,0,1-.85-.49l-.16-.29a1,1,0,0,1,.37-1.34.89.89,0,0,1,.48-.13,1,1,0,0,1,.85.5l.16.28a1,1,0,0,1-.36,1.34A1.05,1.05,0,0,1-11.07,87.68ZM43.26,73.3a1,1,0,0,1-1-1V72a1,1,0,0,1,1-1,.93.93,0,0,1,1,.92v.46a1,1,0,0,1-1,1ZM-15,73a1,1,0,0,1-1-.78h0v-.52a1,1,0,0,1,1-1,.94.94,0,0,1,.71.29,1,1,0,0,1,.28.7V72A1,1,0,0,1-15,73ZM39.48,58.5a1,1,0,0,1-.85-.5l-.16-.27a1,1,0,0,1,.35-1.34,1,1,0,0,1,.49-.14,1,1,0,0,1,.85.48l.17.3A1,1,0,0,1,40,58.37.91.91,0,0,1,39.48,58.5Zm-50.61-.12a1,1,0,0,1-.48-.13A1,1,0,0,1-12,56.91l.17-.3a1,1,0,0,1,.85-.48,1.05,1.05,0,0,1,.49.13,1,1,0,0,1,.35,1.35l-.16.27A1,1,0,0,1-11.13,58.38Zm40-10.68a1,1,0,0,1-.5-.14l-.27-.16a1,1,0,0,1,.49-1.84,1,1,0,0,1,.48.13l.3.18a1,1,0,0,1-.5,1.83ZM-.5,47.63a1,1,0,0,1-.84-.49A1,1,0,0,1-1,45.8l.3-.18a1,1,0,0,1,.48-.12,1,1,0,0,1,.86.5,1,1,0,0,1-.37,1.33L0,47.49A1,1,0,0,1-.5,47.63Zm14.64-4a1,1,0,0,1-1-1,.94.94,0,0,1,.93-1h.34a1,1,0,0,1,0,2Z"/><path class="cls-9" d="M14.05,41.89h.34a.79.79,0,0,1,0,1.58h-.23a.83.83,0,0,1-.83-.79.74.74,0,0,1,.74-.79M-.22,45.69a.79.79,0,0,1,.69.4.8.8,0,0,1-.3,1.08l-.27.15a.71.71,0,0,1-.4.11A.76.76,0,0,1-1.17,47,.78.78,0,0,1-.9,46l.3-.17a.75.75,0,0,1,.38-.1m28.84.07a.75.75,0,0,1,.38.1l.3.17a.81.81,0,0,1,.28,1.09.78.78,0,0,1-.68.38.73.73,0,0,1-.4-.11l-.27-.15a.8.8,0,0,1-.3-1.08.79.79,0,0,1,.69-.4M-11,56.32a.79.79,0,0,1,.39.11.79.79,0,0,1,.28,1.08l-.16.27a.77.77,0,0,1-.68.4.81.81,0,0,1-.39-.1A.78.78,0,0,1-11.81,57l.17-.3a.78.78,0,0,1,.68-.39m50.27.12a.78.78,0,0,1,.68.39l.17.3a.8.8,0,0,1-.29,1.08.81.81,0,0,1-.39.1.79.79,0,0,1-.68-.4l-.16-.27a.79.79,0,0,1,.67-1.2M-15,70.94a.77.77,0,0,1,.77.8V72a.81.81,0,0,1-.78.82.76.76,0,0,1-.79-.75H-15l-.79,0v-.33a.81.81,0,0,1,.8-.77m58.25.2a.74.74,0,0,1,.79.73v.46a.8.8,0,0,1-.79.78h0a.78.78,0,0,1-.77-.8V72a.84.84,0,0,1,.78-.85m-54.5,14.48a.79.79,0,0,1,.68.4l.16.28a.79.79,0,0,1-.29,1.08.79.79,0,0,1-.39.11.8.8,0,0,1-.68-.4l-.16-.29a.8.8,0,0,1,.29-1.08.81.81,0,0,1,.39-.1m50.61.23A.8.8,0,0,1,40.06,87l-.17.29a.79.79,0,0,1-.68.39.86.86,0,0,1-.4-.11.8.8,0,0,1-.27-1.09l.16-.27a.78.78,0,0,1,.68-.4M-.67,96.45a.79.79,0,0,1,.39.11l.27.16a.79.79,0,0,1,.3,1.07.77.77,0,0,1-.68.4.78.78,0,0,1-.39-.1l-.29-.17a.79.79,0,0,1-.28-1.08.79.79,0,0,1,.68-.39m29.4.13a.78.78,0,0,1,.68.4.81.81,0,0,1-.29,1.08l-.29.16a.75.75,0,0,1-.38.1.79.79,0,0,1-.39-1.47l.28-.16a.77.77,0,0,1,.39-.11m-14.87,3.93h.28a.8.8,0,0,1,.8.79.77.77,0,0,1-.77.79h-.34a.78.78,0,0,1-.77-.8.8.8,0,0,1,.79-.78h0m.19-59a1.15,1.15,0,0,0-1.13,1.18,1.22,1.22,0,0,0,1.22,1.17h.21a1.18,1.18,0,0,0,.05-2.36h-.35ZM-.22,45.3a1.14,1.14,0,0,0-.57.16l-.3.17a1.18,1.18,0,0,0-.42,1.61,1.18,1.18,0,0,0,1,.58,1.16,1.16,0,0,0,.6-.17l.26-.15A1.17,1.17,0,0,0,.8,45.9a1.17,1.17,0,0,0-1-.6Zm28.84.07h0a1.18,1.18,0,0,0-.58,2.2l.27.16a1.18,1.18,0,0,0,1.19-2l-.3-.17a1.21,1.21,0,0,0-.58-.16ZM-11,55.94h0a1.16,1.16,0,0,0-1,.57l-.18.3a1.19,1.19,0,0,0,.44,1.61,1.19,1.19,0,0,0,.58.15,1.18,1.18,0,0,0,1-.6l.15-.27a1.16,1.16,0,0,0-.41-1.6,1.14,1.14,0,0,0-.59-.16Zm50.27.12h0a1.21,1.21,0,0,0-.59.16,1.18,1.18,0,0,0-.41,1.61l.15.27a1.18,1.18,0,0,0,1.6.44,1.17,1.17,0,0,0,.44-1.6l-.17-.3a1.19,1.19,0,0,0-1-.58ZM-15,70.55h0a1.2,1.2,0,0,0-1.13,1.12h0v.74h.05A1.16,1.16,0,0,0-15,73.2,1.21,1.21,0,0,0-13.82,72v-.25A1.17,1.17,0,0,0-15,70.55Zm58.27.2A1.23,1.23,0,0,0,42.1,72v.32a1.17,1.17,0,1,0,2.34,0v-.47a1.12,1.12,0,0,0-1.17-1.12Zm-54.5,14.49a1.19,1.19,0,0,0-.58.15,1.17,1.17,0,0,0-.44,1.6l.16.29a1.17,1.17,0,0,0,1,.59,1.19,1.19,0,0,0,.58-.15A1.19,1.19,0,0,0-10,86.11l-.16-.28a1.17,1.17,0,0,0-1-.59Zm50.61.22h0a1.16,1.16,0,0,0-1,.59l-.17.28a1.19,1.19,0,0,0,.42,1.61,1.21,1.21,0,0,0,.59.16,1.16,1.16,0,0,0,1-.58l.17-.29a1.16,1.16,0,0,0-.42-1.6,1.15,1.15,0,0,0-.59-.17ZM-.67,96.06h0a1.18,1.18,0,0,0-1,.58,1.17,1.17,0,0,0,.41,1.61l.3.18a1.19,1.19,0,0,0,.58.15,1.18,1.18,0,0,0,1-.6,1.19,1.19,0,0,0-.45-1.6l-.26-.15a1.12,1.12,0,0,0-.59-.17Zm29.4.14a1.2,1.2,0,0,0-.59.15l-.27.16a1.18,1.18,0,0,0,.58,2.2,1.13,1.13,0,0,0,.57-.15l.29-.17a1.17,1.17,0,0,0-.58-2.19Zm-14.87,3.93h0a1.18,1.18,0,0,0,0,2.35h.34a1.16,1.16,0,0,0,1.16-1.17,1.19,1.19,0,0,0-1.19-1.18Z"/><path class="cls-10" d="M14,47.5a.7.7,0,0,1,.58.39l3,5a2,2,0,0,1,.17,1.47c-.13.49-.42.8-.75.8H15.88L15.3,73c-.09,1.06-.65,1.87-1.32,1.87l-.17,0A2,2,0,0,1,12.68,73l-.61-17.86H11c-.34,0-.64-.33-.76-.82a1.93,1.93,0,0,1,.18-1.45l3-5A.7.7,0,0,1,14,47.5"/><path class="cls-10" d="M35,66.8a.57.57,0,0,1-.18.57L31.29,71.3a2.06,2.06,0,0,1-1.25.58c-.46.05-.81-.08-.9-.35l-.31-.91L15.09,74.75c-1,.25-1.82,0-2-.47l0-.14c0-.52.51-1.12,1.32-1.47L27.79,67.6l-.31-.87c-.09-.27.11-.6.52-.85a1.93,1.93,0,0,1,1.31-.3l5.19.88a.59.59,0,0,1,.49.34"/><path class="cls-9" d="M-17.71,73.5a34.11,34.11,0,0,1,34-34.21,33.6,33.6,0,0,1,19.32,6.07,33.71,33.71,0,0,0-21.38-7.62A34.25,34.25,0,0,0-5.08,100.1,34.21,34.21,0,0,1-17.71,73.5Z"/></g></svg>