<svg id="Layer_1" data-name="Layer 1" xmlns="http://www.w3.org/2000/svg" viewBox="0 0 380 180"><defs><style>.cls-1,.cls-2{fill:#ff8c1a;}.cls-1{opacity:0.25;}.cls-3{fill:#fff;}.cls-4{fill:#6e7b8a;opacity:0.5;}</style></defs><path class="cls-1" d="M2.88,80.43c6.16,83.18,50.8,100.79,154.47,99C294.6,177,370.23,188.26,376.72,95.74c5.46-77.83-39.79-93.93-174-95.31C73.35-.9-2.91,2.13,2.88,80.43Z"/><path class="cls-2" d="M214.05,91.28l-118.4-.2H82.85a1.91,1.91,0,0,0-1.31,3.24l7.83,8a1.92,1.92,0,0,1,.54,1.34V122a8.93,8.93,0,0,0,8.81,9H212.2a8.92,8.92,0,0,0,8.8-9V98.42A7,7,0,0,0,214.05,91.28Z"/><path class="cls-3" d="M128.11,50.82l159-.28h17.18A2.69,2.69,0,0,1,306,55.08L295.53,66.33a2.73,2.73,0,0,0-.73,1.88V93.89c0,7-5.29,12.65-11.82,12.65H130.59c-6.53,0-11.82-5.66-11.82-12.65V60.82C118.77,55.3,123,50.82,128.11,50.82Z"/><path class="cls-4" d="M139.57,65.56H264.19a4.32,4.32,0,0,1,4.32,4.32v.69a4.32,4.32,0,0,1-4.32,4.32H138.88a4.32,4.32,0,0,1-4.32-4.32v0A5,5,0,0,1,139.57,65.56Z"/><path class="cls-4" d="M139.57,81.89h82.08a3.61,3.61,0,0,1,3.61,3.61v2.12a3.61,3.61,0,0,1-3.61,3.61H138.17a3.61,3.61,0,0,1-3.61-3.61V86.9a5,5,0,0,1,5-5Z"/></svg>