<svg width="24" height="24" viewBox="0 0 24 24" fill="none" xmlns="http://www.w3.org/2000/svg">
<path d="M7.70008 9.60002C8.42098 7.95136 9.87058 6.64641 11.7481 6.17829C14.9634 5.37663 18.2197 7.33326 19.0214 10.5485C19.8231 13.7638 17.8664 17.0202 14.6512 17.8218C11.9437 18.4969 9.20407 17.2157 7.92938 14.8716C7.61277 14.2893 6.88413 14.074 6.3019 14.3906C5.71967 14.7072 5.50434 15.4359 5.82094 16.0181C7.60517 19.2993 11.4374 21.0966 15.2318 20.1506C19.7332 19.0282 22.4724 14.4693 21.3501 9.96792C20.2278 5.46653 15.6689 2.72726 11.1675 3.84958C8.91622 4.41089 7.10663 5.8319 5.99998 7.67313V6.00002C5.99998 5.33728 5.46272 4.80002 4.79998 4.80002C4.13723 4.80002 3.59998 5.33728 3.59998 6.00002V10.8C3.59998 11.4628 4.13723 12 4.79998 12H9.59998C10.2627 12 10.8 11.4628 10.8 10.8C10.8 10.1373 10.2627 9.60002 9.59998 9.60002H7.70008Z" fill="white"/>
<path d="M13.2 7.80002C13.5313 7.80002 13.8 8.06865 13.8 8.40002V11.5938L16.4228 12.6429C16.7305 12.766 16.8801 13.1152 16.7571 13.4229C16.634 13.7305 16.2848 13.8802 15.9771 13.7571L12.9771 12.5571C12.7493 12.466 12.6 12.2454 12.6 12V8.40002C12.6 8.06865 12.8686 7.80002 13.2 7.80002Z" fill="white"/>
</svg>
