<svg width="22" height="22" viewBox="0 0 22 22" fill="none" xmlns="http://www.w3.org/2000/svg">
<path fill-rule="evenodd" clip-rule="evenodd" d="M10.0592 15.9579C9.96446 16.0526 9.85758 16.1134 9.72976 16.1711L7.56659 17.0795C7.48799 16.8115 7.29336 16.4709 6.93361 16.1111C6.58592 15.7635 6.25738 15.5809 5.99914 15.4903L6.89672 13.338C6.94337 13.1992 7.0271 13.0936 7.1208 12.9999C7.14262 13 7.16333 12.9793 7.17418 12.9684L7.20476 12.9378C7.35075 12.7919 7.55585 12.703 7.79617 12.6711C8.40705 12.5955 9.11521 12.8854 9.64935 13.4195C10.1835 13.9537 10.4734 14.6618 10.3857 15.2606C10.3505 15.4582 10.2854 15.6615 10.1833 15.8118C10.1529 15.8642 10.1114 15.9057 10.069 15.9481L10.0592 15.9579ZM13.6054 6.53721C13.9427 6.19986 14.4603 6.12759 14.9902 6.28654C15.2973 6.37865 15.4255 6.75936 15.2154 6.96946L10.177 12.0079C10.0566 12.1282 9.86135 12.148 9.70333 12.0472C9.54003 11.9451 9.37127 11.8572 9.20119 11.7838C8.92376 11.6642 8.82736 11.3152 9.02168 11.1209L13.6054 6.53721ZM16.5317 9.46348L11.9489 14.0462C11.7586 14.2366 11.4084 14.1547 11.2923 13.8847C11.2173 13.7052 11.1239 13.5309 11.0163 13.3622C10.9099 13.1966 10.9364 12.9902 11.0616 12.865L16.0882 7.83835C16.2964 7.63022 16.677 7.75634 16.7711 8.06359C16.9356 8.59891 16.871 9.12417 16.5317 9.46348ZM18.5347 4.5342C17.2459 3.24545 15.3869 3.01396 14.3838 4.01711L6.29247 12.1084C6.09421 12.3067 5.91898 12.528 5.81284 12.7986L4.10642 16.8961C3.89183 17.4134 4.05796 18.0589 4.53397 18.5349C5.00998 19.0109 5.65549 19.177 6.1728 18.9625L10.2703 17.256C10.5398 17.1488 10.7611 16.9736 10.9594 16.7753L19.0507 8.68402C20.0538 7.68087 19.8234 5.82294 18.5347 4.5342Z" fill="#4C97FF"/>
</svg>
