<svg width="20" height="20" viewBox="0 0 20 20" fill="none" xmlns="http://www.w3.org/2000/svg">
<path fill-rule="evenodd" clip-rule="evenodd" d="M13 6C13 7.65685 11.6569 9 10 9C8.34315 9 7 7.65685 7 6C7 4.34315 8.34315 3 10 3C11.6569 3 13 4.34315 13 6ZM3.66 9C4.76457 9 5.66 8.10457 5.66 7C5.66 5.89543 4.76457 5 3.66 5C2.55543 5 1.66 5.89543 1.66 7C1.66 8.10457 2.55543 9 3.66 9ZM5.27807 14.6538C4.75697 14.8738 4.14912 15 3.5 15C1.567 15 0 13.8807 0 12.5C0 11.1193 1.567 10 3.5 10C4.69639 10 5.75257 10.4288 6.3838 11.0829C7.29425 10.4157 8.57778 10 10 10C11.4222 10 12.7058 10.4157 13.6162 11.0829C14.2474 10.4288 15.3036 10 16.5 10C18.433 10 20 11.1193 20 12.5C20 13.8807 18.433 15 16.5 15C15.8509 15 15.243 14.8738 14.7219 14.6538C14.0407 16.0199 12.1839 17 10 17C7.81612 17 5.95925 16.0199 5.27807 14.6538ZM16.66 9C17.7646 9 18.66 8.10457 18.66 7C18.66 5.89543 17.7646 5 16.66 5C15.5554 5 14.66 5.89543 14.66 7C14.66 8.10457 15.5554 9 16.66 9Z" fill="#575E75"/>
</svg>
