<svg width="20" height="20" viewBox="0 0 20 20" fill="none" xmlns="http://www.w3.org/2000/svg">
<path fill-rule="evenodd" clip-rule="evenodd" d="M5 2C5 1.44772 5.44772 1 6 1C6.55228 1 7 1.44772 7 2V3C7 3.55228 6.55228 4 6 4C5.44772 4 5 3.55228 5 3V2ZM12 2H8V3C8 4.10457 7.10457 5 6 5C4.89543 5 4 4.10457 4 3V2C2.34315 2 1 3.34315 1 5V16C1 17.6569 2.34315 19 4 19H16C17.6569 19 19 17.6569 19 16V5C19 3.34315 17.6569 2 16 2V3C16 4.10457 15.1046 5 14 5C12.8954 5 12 4.10457 12 3V2ZM3 15.6V8H17V15.6C17 16.4284 16.3284 17.1 15.5 17.1H4.5C3.67157 17.1 3 16.4284 3 15.6ZM14 1C13.4477 1 13 1.44772 13 2V3C13 3.55228 13.4477 4 14 4C14.5523 4 15 3.55228 15 3V2C15 1.44772 14.5523 1 14 1Z" fill="#575E75"/>
</svg>
