<svg width="24" height="24" viewBox="0 0 24 24" fill="none" xmlns="http://www.w3.org/2000/svg">
<path fill-rule="evenodd" clip-rule="evenodd" d="M19.8 10.812C20.1312 10.812 20.4 10.5432 20.4 10.212V6.6C20.4 6.2688 20.1312 6 19.8 6H11.0484C10.8888 6 10.7364 6.0636 10.6248 6.1752L9.77518 7.0248C9.66358 7.1364 9.51118 7.2 9.35158 7.2H7.44838C7.28878 7.2 7.13638 7.1364 7.02478 7.0248L6.17518 6.1752C6.06358 6.0636 5.91118 6 5.75158 6H4.19998C3.86878 6 3.59998 6.2688 3.59998 6.6V10.212C3.59998 10.5432 3.86878 10.812 4.19998 10.812H5.76358C5.92318 10.812 6.07438 10.8744 6.18718 10.9872L7.02478 11.8248C7.13638 11.9364 7.28878 12 7.44838 12H9.35158C9.51118 12 9.66358 11.9364 9.77518 11.8248L10.6128 10.9872C10.7244 10.8744 10.8768 10.812 11.0364 10.812H19.8ZM17.4 16.812C17.7312 16.812 18 16.5432 18 16.212V12.6C18 12.2688 17.7312 12 17.4 12H11.0484C10.8888 12 10.7364 12.0636 10.6248 12.1752L9.77518 13.0248C9.66358 13.1364 9.51118 13.2 9.35158 13.2H7.44838C7.28878 13.2 7.13638 13.1364 7.02478 13.0248L6.17518 12.1752C6.06358 12.0636 5.91118 12 5.75158 12H4.19998C3.86878 12 3.59998 12.2688 3.59998 12.6V16.212C3.59998 16.5432 3.86878 16.812 4.19998 16.812H5.76358C5.92318 16.812 6.07438 16.8744 6.18718 16.9872L7.02478 17.8248C7.13638 17.9364 7.28878 18 7.44838 18H9.35158C9.51118 18 9.66358 17.9364 9.77518 17.8248L10.6128 16.9872C10.7244 16.8744 10.8768 16.812 11.0364 16.812H17.4Z" fill="white"/>
</svg>
