<svg width="20" height="20" viewBox="0 0 20 20" fill="none" xmlns="http://www.w3.org/2000/svg">
<path fill-rule="evenodd" clip-rule="evenodd" d="M10.4057 11.5091C9.50472 11.5091 8.77527 12.2386 8.77527 13.1396C8.77527 14.0405 9.50472 14.77 10.4057 14.77C11.3067 14.77 12.0362 14.0405 12.0362 13.1396C12.0362 12.2386 11.3067 11.5091 10.4057 11.5091ZM11.3417 10.0236C10.927 10.9523 9.88444 10.9523 9.46975 10.0236L8.14574 7.07519C7.73106 6.15289 8.25066 5 9.08171 5H11.7297C12.5608 5 13.0804 6.15289 12.6657 7.07519L11.3417 10.0236Z" fill="white"/>
<mask id="mask0" mask-type="alpha" maskUnits="userSpaceOnUse" x="8" y="5" width="5" height="10">
<path fill-rule="evenodd" clip-rule="evenodd" d="M10.4057 11.5091C9.50472 11.5091 8.77527 12.2386 8.77527 13.1396C8.77527 14.0405 9.50472 14.77 10.4057 14.77C11.3067 14.77 12.0362 14.0405 12.0362 13.1396C12.0362 12.2386 11.3067 11.5091 10.4057 11.5091ZM11.3417 10.0236C10.927 10.9523 9.88444 10.9523 9.46975 10.0236L8.14574 7.07519C7.73106 6.15289 8.25066 5 9.08171 5H11.7297C12.5608 5 13.0804 6.15289 12.6657 7.07519L11.3417 10.0236Z" fill="white"/>
</mask>
<g mask="url(#mask0)">
<rect width="20" height="20" fill="white"/>
</g>
</svg>
