<svg width="352" height="454" viewBox="0 0 352 454" fill="none" xmlns="http://www.w3.org/2000/svg">
<path d="M109.769 114.769C101.006 114.769 92.3286 116.495 84.2325 119.849C76.1363 123.202 68.78 128.117 62.5835 134.314C56.3869 140.51 51.4716 147.867 48.118 155.963C44.7645 164.059 43.0385 172.736 43.0385 181.5C43.0385 190.263 44.7645 198.94 48.118 207.036C51.4716 215.133 56.3869 222.489 62.5835 228.685C68.78 234.882 76.1363 239.797 84.2325 243.151C92.3286 246.504 101.006 248.23 109.769 248.23L109.769 181.5L109.769 114.769Z" fill="#FFBF00"/>
<path d="M176.5 8C222.515 8 266.645 26.2794 299.183 58.817C331.721 91.3545 350 135.485 350 181.5C350 227.515 331.721 271.645 299.183 304.183C266.645 336.721 222.515 355 176.5 355L176.5 181.5L176.5 8Z" fill="#CF63CF"/>
<path d="M61.5134 416.38H64.2334C64.2334 416.007 64.2668 415.633 64.3334 415.26C64.4134 414.873 64.5401 414.527 64.7134 414.22C64.8868 413.9 65.1134 413.647 65.3934 413.46C65.6868 413.26 66.0401 413.16 66.4534 413.16C67.0668 413.16 67.5668 413.353 67.9534 413.74C68.3534 414.113 68.5534 414.64 68.5534 415.32C68.5534 415.747 68.4534 416.127 68.2534 416.46C68.0668 416.793 67.8268 417.093 67.5334 417.36C67.2534 417.627 66.9401 417.873 66.5934 418.1C66.2468 418.313 65.9201 418.527 65.6134 418.74C65.0134 419.153 64.4401 419.56 63.8934 419.96C63.3601 420.36 62.8934 420.8 62.4934 421.28C62.0934 421.747 61.7734 422.28 61.5334 422.88C61.3068 423.48 61.1934 424.187 61.1934 425H71.4734V422.56H64.8534C65.2001 422.08 65.6001 421.66 66.0534 421.3C66.5068 420.94 66.9734 420.607 67.4534 420.3C67.9334 419.98 68.4068 419.66 68.8734 419.34C69.3534 419.02 69.7801 418.667 70.1534 418.28C70.5268 417.88 70.8268 417.427 71.0534 416.92C71.2801 416.413 71.3934 415.807 71.3934 415.1C71.3934 414.42 71.2601 413.807 70.9934 413.26C70.7401 412.713 70.3934 412.253 69.9534 411.88C69.5134 411.507 69.0001 411.22 68.4134 411.02C67.8401 410.82 67.2334 410.72 66.5934 410.72C65.7534 410.72 65.0068 410.867 64.3534 411.16C63.7134 411.44 63.1801 411.84 62.7534 412.36C62.3268 412.867 62.0068 413.467 61.7934 414.16C61.5801 414.84 61.4868 415.58 61.5134 416.38ZM75.1467 417.94C75.1467 417.7 75.1467 417.413 75.1467 417.08C75.1601 416.733 75.1867 416.38 75.2267 416.02C75.2667 415.66 75.3334 415.307 75.4267 414.96C75.5201 414.6 75.6467 414.28 75.8067 414C75.9801 413.72 76.1934 413.493 76.4467 413.32C76.7134 413.147 77.0401 413.06 77.4267 413.06C77.8134 413.06 78.1401 413.147 78.4067 413.32C78.6734 413.493 78.8934 413.72 79.0667 414C79.2401 414.28 79.3667 414.6 79.4467 414.96C79.5401 415.307 79.6067 415.66 79.6467 416.02C79.7001 416.38 79.7267 416.733 79.7267 417.08C79.7401 417.413 79.7467 417.7 79.7467 417.94C79.7467 418.34 79.7334 418.827 79.7067 419.4C79.6801 419.96 79.5934 420.507 79.4467 421.04C79.3134 421.56 79.0867 422.007 78.7667 422.38C78.4601 422.753 78.0134 422.94 77.4267 422.94C76.8534 422.94 76.4134 422.753 76.1067 422.38C75.8001 422.007 75.5734 421.56 75.4267 421.04C75.2934 420.507 75.2134 419.96 75.1867 419.4C75.1601 418.827 75.1467 418.34 75.1467 417.94ZM72.3067 417.94C72.3067 419.34 72.4401 420.513 72.7067 421.46C72.9867 422.393 73.3601 423.14 73.8267 423.7C74.2934 424.26 74.8334 424.66 75.4467 424.9C76.0734 425.14 76.7334 425.26 77.4267 425.26C78.1334 425.26 78.7934 425.14 79.4067 424.9C80.0334 424.66 80.5801 424.26 81.0467 423.7C81.5267 423.14 81.9001 422.393 82.1667 421.46C82.4467 420.513 82.5867 419.34 82.5867 417.94C82.5867 416.58 82.4467 415.44 82.1667 414.52C81.9001 413.587 81.5267 412.84 81.0467 412.28C80.5801 411.72 80.0334 411.32 79.4067 411.08C78.7934 410.84 78.1334 410.72 77.4267 410.72C76.7334 410.72 76.0734 410.84 75.4467 411.08C74.8334 411.32 74.2934 411.72 73.8267 412.28C73.3601 412.84 72.9867 413.587 72.7067 414.52C72.4401 415.44 72.3067 416.58 72.3067 417.94ZM90.84 425V411H88.58C88.5 411.533 88.3333 411.98 88.08 412.34C87.8267 412.7 87.5133 412.993 87.14 413.22C86.78 413.433 86.3667 413.587 85.9 413.68C85.4467 413.76 84.9733 413.793 84.48 413.78V415.92H88V425H90.84ZM99.5133 418.26C99.1533 418.26 98.8333 418.187 98.5533 418.04C98.2866 417.88 98.0666 417.68 97.8933 417.44C97.7199 417.187 97.5866 416.907 97.4933 416.6C97.4133 416.28 97.3733 415.953 97.3733 415.62C97.3733 415.3 97.4199 414.987 97.5133 414.68C97.6066 414.373 97.7466 414.1 97.9333 413.86C98.1199 413.62 98.3466 413.427 98.6133 413.28C98.8799 413.133 99.1799 413.06 99.5133 413.06C99.8733 413.06 100.193 413.133 100.473 413.28C100.753 413.427 100.987 413.627 101.173 413.88C101.373 414.12 101.52 414.4 101.613 414.72C101.72 415.027 101.773 415.34 101.773 415.66C101.773 416.007 101.727 416.34 101.633 416.66C101.54 416.967 101.4 417.24 101.213 417.48C101.027 417.72 100.793 417.913 100.513 418.06C100.233 418.193 99.8999 418.26 99.5133 418.26ZM97.4733 421.4H94.7733C94.8533 422.013 95.0199 422.56 95.2733 423.04C95.5266 423.52 95.8533 423.927 96.2533 424.26C96.6533 424.593 97.1133 424.84 97.6333 425C98.1533 425.173 98.7133 425.26 99.3133 425.26C100.313 425.26 101.16 425.047 101.853 424.62C102.547 424.18 103.113 423.613 103.553 422.92C103.993 422.213 104.313 421.427 104.513 420.56C104.713 419.693 104.813 418.827 104.813 417.96C104.813 417.08 104.733 416.207 104.573 415.34C104.413 414.473 104.127 413.7 103.713 413.02C103.3 412.327 102.747 411.773 102.053 411.36C101.373 410.933 100.5 410.72 99.4333 410.72C98.6999 410.72 98.0333 410.853 97.4333 411.12C96.8333 411.387 96.3133 411.753 95.8733 412.22C95.4466 412.673 95.1133 413.213 94.8733 413.84C94.6466 414.453 94.5333 415.12 94.5333 415.84C94.5333 416.4 94.6199 416.953 94.7933 417.5C94.9666 418.047 95.2399 418.533 95.6133 418.96C96.0133 419.4 96.4999 419.753 97.0733 420.02C97.6466 420.273 98.2333 420.4 98.8333 420.4C99.5133 420.4 100.113 420.28 100.633 420.04C101.153 419.8 101.607 419.4 101.993 418.84L102.033 418.88C102.007 419.267 101.947 419.707 101.853 420.2C101.773 420.693 101.633 421.16 101.433 421.6C101.233 422.027 100.967 422.393 100.633 422.7C100.3 422.993 99.8733 423.14 99.3533 423.14C98.8599 423.14 98.4466 422.967 98.1133 422.62C97.7799 422.273 97.5666 421.867 97.4733 421.4Z" fill="#575E75"/>
<path d="M187.545 416.428H190.265C190.265 416.055 190.298 415.681 190.365 415.308C190.445 414.921 190.571 414.575 190.745 414.268C190.918 413.948 191.145 413.695 191.425 413.508C191.718 413.308 192.071 413.208 192.485 413.208C193.098 413.208 193.598 413.401 193.985 413.788C194.385 414.161 194.585 414.688 194.585 415.368C194.585 415.795 194.485 416.175 194.285 416.508C194.098 416.841 193.858 417.141 193.565 417.408C193.285 417.675 192.971 417.921 192.625 418.148C192.278 418.361 191.951 418.575 191.645 418.788C191.045 419.201 190.471 419.608 189.925 420.008C189.391 420.408 188.925 420.848 188.525 421.328C188.125 421.795 187.805 422.328 187.565 422.928C187.338 423.528 187.225 424.235 187.225 425.048H197.505V422.608H190.885C191.231 422.128 191.631 421.708 192.085 421.348C192.538 420.988 193.005 420.655 193.485 420.348C193.965 420.028 194.438 419.708 194.905 419.388C195.385 419.068 195.811 418.715 196.185 418.328C196.558 417.928 196.858 417.475 197.085 416.968C197.311 416.461 197.425 415.855 197.425 415.148C197.425 414.468 197.291 413.855 197.025 413.308C196.771 412.761 196.425 412.301 195.985 411.928C195.545 411.555 195.031 411.268 194.445 411.068C193.871 410.868 193.265 410.768 192.625 410.768C191.785 410.768 191.038 410.915 190.385 411.208C189.745 411.488 189.211 411.888 188.785 412.408C188.358 412.915 188.038 413.515 187.825 414.208C187.611 414.888 187.518 415.628 187.545 416.428ZM201.178 417.988C201.178 417.748 201.178 417.461 201.178 417.128C201.191 416.781 201.218 416.428 201.258 416.068C201.298 415.708 201.365 415.355 201.458 415.008C201.551 414.648 201.678 414.328 201.838 414.048C202.011 413.768 202.225 413.541 202.478 413.368C202.745 413.195 203.071 413.108 203.458 413.108C203.845 413.108 204.171 413.195 204.438 413.368C204.705 413.541 204.925 413.768 205.098 414.048C205.271 414.328 205.398 414.648 205.478 415.008C205.571 415.355 205.638 415.708 205.678 416.068C205.731 416.428 205.758 416.781 205.758 417.128C205.771 417.461 205.778 417.748 205.778 417.988C205.778 418.388 205.765 418.875 205.738 419.448C205.711 420.008 205.625 420.555 205.478 421.088C205.345 421.608 205.118 422.055 204.798 422.428C204.491 422.801 204.045 422.988 203.458 422.988C202.885 422.988 202.445 422.801 202.138 422.428C201.831 422.055 201.605 421.608 201.458 421.088C201.325 420.555 201.245 420.008 201.218 419.448C201.191 418.875 201.178 418.388 201.178 417.988ZM198.338 417.988C198.338 419.388 198.471 420.561 198.738 421.508C199.018 422.441 199.391 423.188 199.858 423.748C200.325 424.308 200.865 424.708 201.478 424.948C202.105 425.188 202.765 425.308 203.458 425.308C204.165 425.308 204.825 425.188 205.438 424.948C206.065 424.708 206.611 424.308 207.078 423.748C207.558 423.188 207.931 422.441 208.198 421.508C208.478 420.561 208.618 419.388 208.618 417.988C208.618 416.628 208.478 415.488 208.198 414.568C207.931 413.635 207.558 412.888 207.078 412.328C206.611 411.768 206.065 411.368 205.438 411.128C204.825 410.888 204.165 410.768 203.458 410.768C202.765 410.768 202.105 410.888 201.478 411.128C200.865 411.368 200.325 411.768 199.858 412.328C199.391 412.888 199.018 413.635 198.738 414.568C198.471 415.488 198.338 416.628 198.338 417.988ZM209.771 416.428H212.491C212.491 416.055 212.525 415.681 212.591 415.308C212.671 414.921 212.798 414.575 212.971 414.268C213.145 413.948 213.371 413.695 213.651 413.508C213.945 413.308 214.298 413.208 214.711 413.208C215.325 413.208 215.825 413.401 216.211 413.788C216.611 414.161 216.811 414.688 216.811 415.368C216.811 415.795 216.711 416.175 216.511 416.508C216.325 416.841 216.085 417.141 215.791 417.408C215.511 417.675 215.198 417.921 214.851 418.148C214.505 418.361 214.178 418.575 213.871 418.788C213.271 419.201 212.698 419.608 212.151 420.008C211.618 420.408 211.151 420.848 210.751 421.328C210.351 421.795 210.031 422.328 209.791 422.928C209.565 423.528 209.451 424.235 209.451 425.048H219.731V422.608H213.111C213.458 422.128 213.858 421.708 214.311 421.348C214.765 420.988 215.231 420.655 215.711 420.348C216.191 420.028 216.665 419.708 217.131 419.388C217.611 419.068 218.038 418.715 218.411 418.328C218.785 417.928 219.085 417.475 219.311 416.968C219.538 416.461 219.651 415.855 219.651 415.148C219.651 414.468 219.518 413.855 219.251 413.308C218.998 412.761 218.651 412.301 218.211 411.928C217.771 411.555 217.258 411.268 216.671 411.068C216.098 410.868 215.491 410.768 214.851 410.768C214.011 410.768 213.265 410.915 212.611 411.208C211.971 411.488 211.438 411.888 211.011 412.408C210.585 412.915 210.265 413.515 210.051 414.208C209.838 414.888 209.745 415.628 209.771 416.428ZM223.404 417.988C223.404 417.748 223.404 417.461 223.404 417.128C223.418 416.781 223.444 416.428 223.484 416.068C223.524 415.708 223.591 415.355 223.684 415.008C223.778 414.648 223.904 414.328 224.064 414.048C224.238 413.768 224.451 413.541 224.704 413.368C224.971 413.195 225.298 413.108 225.684 413.108C226.071 413.108 226.398 413.195 226.664 413.368C226.931 413.541 227.151 413.768 227.324 414.048C227.498 414.328 227.624 414.648 227.704 415.008C227.798 415.355 227.864 415.708 227.904 416.068C227.958 416.428 227.984 416.781 227.984 417.128C227.998 417.461 228.004 417.748 228.004 417.988C228.004 418.388 227.991 418.875 227.964 419.448C227.938 420.008 227.851 420.555 227.704 421.088C227.571 421.608 227.344 422.055 227.024 422.428C226.718 422.801 226.271 422.988 225.684 422.988C225.111 422.988 224.671 422.801 224.364 422.428C224.058 422.055 223.831 421.608 223.684 421.088C223.551 420.555 223.471 420.008 223.444 419.448C223.418 418.875 223.404 418.388 223.404 417.988ZM220.564 417.988C220.564 419.388 220.698 420.561 220.964 421.508C221.244 422.441 221.618 423.188 222.084 423.748C222.551 424.308 223.091 424.708 223.704 424.948C224.331 425.188 224.991 425.308 225.684 425.308C226.391 425.308 227.051 425.188 227.664 424.948C228.291 424.708 228.838 424.308 229.304 423.748C229.784 423.188 230.158 422.441 230.424 421.508C230.704 420.561 230.844 419.388 230.844 417.988C230.844 416.628 230.704 415.488 230.424 414.568C230.158 413.635 229.784 412.888 229.304 412.328C228.838 411.768 228.291 411.368 227.664 411.128C227.051 410.888 226.391 410.768 225.684 410.768C224.991 410.768 224.331 410.888 223.704 411.128C223.091 411.368 222.551 411.768 222.084 412.328C221.618 412.888 221.244 413.635 220.964 414.568C220.698 415.488 220.564 416.628 220.564 417.988Z" fill="#575E75"/>
</svg>
