<svg width="241" height="205" viewBox="0 0 241 205" fill="none" xmlns="http://www.w3.org/2000/svg">
<path d="M80.8777 62.875C68.4045 62.875 58.4517 73.3263 58.4517 86.1046C58.4517 92.132 60.682 97.681 64.3793 101.801C52.3245 108.969 44.2749 123.534 44.2749 140.159C44.2749 147.005 49.5195 151.758 56.257 154.704C63.0699 157.682 72.0152 159.125 80.8499 159.125C89.6846 159.125 98.6299 157.682 105.443 154.704C112.18 151.758 117.425 147.005 117.425 140.159V140.109C117.425 139.372 117.425 138.502 117.31 137.609C116.9 128.75 114.183 120.57 109.86 113.949C106.551 108.919 102.28 104.745 97.3351 101.807C101.063 97.6922 103.249 92.1738 103.249 86.1046C103.249 73.3297 93.2997 62.875 80.8777 62.875Z" fill="black" fill-opacity="0.15"/>
<path d="M143.662 38.4375C127.058 38.4375 113.809 52.35 113.809 69.36C113.809 77.3836 116.778 84.7701 121.7 90.254C105.653 99.7959 94.9375 119.184 94.9375 141.316C94.9375 150.428 101.919 156.756 110.888 160.677C119.957 164.642 131.865 166.562 143.625 166.562C155.385 166.562 167.293 164.642 176.362 160.677C185.331 156.756 192.312 150.428 192.312 141.316V141.249C192.313 140.268 192.313 139.109 192.16 137.921C191.614 126.128 187.997 115.239 182.242 106.426C177.837 99.7301 172.152 94.173 165.57 90.2629C170.532 84.785 173.442 77.4392 173.442 69.36C173.442 52.3545 160.198 38.4375 143.662 38.4375Z" fill="#9966FF"/>
</svg>
