<?xml version="1.0" encoding="UTF-8"?>
<svg width="20px" height="20px" viewBox="0 0 20 20" version="1.1" xmlns="http://www.w3.org/2000/svg" xmlns:xlink="http://www.w3.org/1999/xlink">
    <!-- Generator: Sketch 52.5 (67469) - http://www.bohemiancoding.com/sketch -->
    <title>Moderation/Block Count</title>
    <desc>Created with Sketch.</desc>
    <defs>
        <path d="M13.6964,7.83442 L13.6964,11.44342 C13.6964,11.69182 13.4948,11.89342 13.2464,11.89342 L8.4773,11.89342 C8.3576,11.89342 8.2433,11.94022 8.1596,12.02482 L7.5314,12.65302 C7.4477,12.73672 7.3334,12.78442 7.2137,12.78442 L4.8863,12.78442 C4.7675,12.78442 4.6532,12.73672 4.5677,12.65302 L3.9413,12.02482 C3.8567,11.94022 3.7415,11.89342 3.6227,11.89342 L2.45,11.89342 C2.2016,11.89342 2,11.69182 2,11.44342 L2,7.83442 C2,7.58602 2.2016,7.38442 2.45,7.38442 L3.6137,7.38442 C3.7334,7.38442 3.8477,7.43212 3.9314,7.51582 L4.5677,8.15302 C4.6532,8.23672 4.7675,8.28442 4.8863,8.28442 L7.2137,8.28442 C7.3334,8.28442 7.4477,8.23672 7.5314,8.15302 L8.1677,7.51582 C8.2532,7.43212 8.3675,7.38442 8.4863,7.38442 L13.2464,7.38442 C13.4948,7.38442 13.6964,7.58602 13.6964,7.83442 M16.0373,14.05 L16.0373,17.659 C16.0373,17.9074 15.8357,18.109 15.5873,18.109 L8.4773,18.109 C8.3576,18.109 8.2433,18.1558 8.1596,18.2404 L7.5314,18.8686 C7.4477,18.9523 7.3334,19 7.2137,19 L4.8863,19 C4.7675,19 4.6532,18.9523 4.5677,18.8686 L3.9413,18.2404 C3.8567,18.1558 3.7415,18.109 3.6227,18.109 L2.45,18.109 C2.2016,18.109 2,17.9074 2,17.659 L2,14.05 C2,13.8016 2.2016,13.6 2.45,13.6 L3.6137,13.6 C3.7334,13.6 3.8477,13.6477 3.9314,13.7314 L4.5677,14.3686 C4.6532,14.4523 4.7675,14.5 4.8863,14.5 L7.2137,14.5 C7.3334,14.5 7.4477,14.4523 7.5314,14.3686 L8.1677,13.7314 C8.2532,13.6477 8.3675,13.6 8.4863,13.6 L15.5873,13.6 C15.8357,13.6 16.0373,13.8016 16.0373,14.05 Z M18.00036,5.059 C18.00036,5.3074 17.79786,5.509 17.55036,5.509 L8.47766,5.509 C8.35796,5.509 8.24366,5.5558 8.15906,5.6404 L7.53176,6.2686 C7.44716,6.3523 7.33286,6.4 7.21316,6.4 L4.88666,6.4 C4.76696,6.4 4.65266,6.3523 4.56806,6.2686 L3.94076,5.6404 C3.85616,5.5558 3.74186,5.509 3.62306,5.509 L2.45036,5.509 C2.20196,5.509 2.00036,5.3074 2.00036,5.059 L2.00036,1.45 C2.00036,1.2016 2.20196,1 2.45036,1 L3.61316,1 C3.73286,1 3.84716,1.0477 3.93176,1.1314 L4.56806,1.7686 C4.65266,1.8523 4.76696,1.9 4.88666,1.9 L7.21316,1.9 C7.33286,1.9 7.44716,1.8523 7.53176,1.7686 L8.16806,1.1314 C8.25266,1.0477 8.36696,1 8.48666,1 L17.55036,1 C17.79786,1 18.00036,1.2016 18.00036,1.45 L18.00036,5.059 Z" id="path-1"></path>
    </defs>
    <g id="Moderation/Block-Count" stroke="none" stroke-width="1" fill="none" fill-rule="evenodd">
        <mask id="mask-2" fill="white">
            <use xlink:href="#path-1"></use>
        </mask>
        <use id="Script-Count" fill="#575E75" xlink:href="#path-1"></use>
        <g id="Color/Gray" mask="url(#mask-2)" fill="#575E75">
            <rect id="Color" x="0" y="0" width="20" height="20"></rect>
        </g>
    </g>
</svg>