<svg width="20" height="20" xmlns="http://www.w3.org/2000/svg" xmlns:xlink="http://www.w3.org/1999/xlink"><defs><path d="M10.049 6.474a7.627 7.627 0 0 1 3.35 1.485 7.743 7.743 0 0 1 .89.826c.244.27.504.614.717.941a6.65 6.65 0 0 1 .872 2.11 6.32 6.32 0 0 1 .11 1.911c-.056.554-.165.98-.271 1.313-.05.163-.091.238-.118.314l-.042.106a.81.81 0 0 1-.834.492c-.443-.043-.765-.423-.72-.848l.013-.111c.003-.066.027-.196.024-.3a4.307 4.307 0 0 0-.51-2.145 4.2 4.2 0 0 0-.886-1.107 5.127 5.127 0 0 0-.581-.427c-.138-.092-.166-.089-.283-.151-.098-.052-.2-.092-.296-.134a3.93 3.93 0 0 0-1.095-.257 4.049 4.049 0 0 0-.34-.011v1.307c0 .522-.325.99-.828 1.19a1.38 1.38 0 0 1-1.463-.279L4.383 9.457a1.253 1.253 0 0 1 0-1.821l3.375-3.242c.385-.37.96-.48 1.463-.279.503.2.828.668.828 1.19v1.17z" id="a"/></defs><g transform="matrix(-1 0 0 1 20 0)" fill="none" fill-rule="evenodd"><mask id="b" fill="#fff"><use xlink:href="#a"/></mask><use fill="#4C97FF" xlink:href="#a"/><g mask="url(#b)" fill="#FFF"><path d="M0 0h20v20H0z"/></g></g></svg>