<svg width="40" height="40" viewBox="0 0 40 40" fill="none" xmlns="http://www.w3.org/2000/svg">
<path d="M35 4C35.5128 4 35.9355 4.38604 35.9933 4.88338L36 5V11C36 11.5523 35.5523 12 35 12C34.4872 12 34.0645 11.614 34.0067 11.1166L34 11V6H29C28.4872 6 28.0645 5.61396 28.0067 5.11662L28 5C28 4.48716 28.386 4.06449 28.8834 4.00673L29 4H35Z" fill="black" fill-opacity="0.25"/>
<path d="M5 36C4.48716 36 4.06449 35.614 4.00673 35.1166L4 35V29C4 28.4477 4.44772 28 5 28C5.51284 28 5.93551 28.386 5.99327 28.8834L6 29V34H11C11.5128 34 11.9355 34.386 11.9933 34.8834L12 35C12 35.5128 11.614 35.9355 11.1166 35.9933L11 36H5Z" fill="black" fill-opacity="0.25"/>
<path d="M15.5 19C16.3284 19 17 18.3284 17 17.5C17 16.6716 16.3284 16 15.5 16C14.6716 16 14 16.6716 14 17.5C14 18.3284 14.6716 19 15.5 19Z" fill="#4D4D4D"/>
<path d="M24.5 19C25.3284 19 26 18.3284 26 17.5C26 16.6716 25.3284 16 24.5 16C23.6716 16 23 16.6716 23 17.5C23 18.3284 23.6716 19 24.5 19Z" fill="#4D4D4D"/>
<path d="M23.5547 21.6679C23.0952 21.3616 22.4743 21.4858 22.1679 21.9453C21.6928 22.658 21.0088 23 20 23C18.9912 23 18.3072 22.658 17.8321 21.9453C17.5257 21.4858 16.9048 21.3616 16.4453 21.6679C15.9858 21.9743 15.8616 22.5952 16.1679 23.0547C17.0261 24.342 18.3422 25 20 25C21.6578 25 22.9739 24.342 23.8321 23.0547C24.1384 22.5952 24.0142 21.9743 23.5547 21.6679Z" fill="#4D4D4D"/>
<path fill-rule="evenodd" clip-rule="evenodd" d="M9 20C9 13.9249 13.9249 9 20 9C26.0751 9 31 13.9249 31 20C31 26.0751 26.0751 31 20 31C13.9249 31 9 26.0751 9 20ZM29 20C29 15.0294 24.9706 11 20 11C15.0294 11 11 15.0294 11 20C11 24.9706 15.0294 29 20 29C24.9706 29 29 24.9706 29 20Z" fill="#4D4D4D"/>
<path d="M29.7195 24.0281C30.6036 23.7881 31.2917 23.1039 31.5278 22.2197L32.0718 20.2112C32.3239 19.2629 33.6721 19.2629 33.9282 20.2112L34.4682 22.2197C34.7043 23.1039 35.3964 23.7881 36.2805 24.0281L38.2889 24.5723C39.237 24.8243 39.237 26.1727 38.2889 26.4287L36.2805 26.9689C35.3964 27.2049 34.7043 27.8971 34.4682 28.7773L33.9282 30.7858C33.6721 31.7381 32.3239 31.7381 32.0718 30.7858L31.5278 28.7773C31.2917 27.8971 30.6036 27.2049 29.7195 26.9689L27.7111 26.4287C26.763 26.1727 26.763 24.8243 27.7111 24.5723L29.7195 24.0281Z" fill="#FFBF00" stroke="black" stroke-opacity="0.25"/>
<path d="M5.03959 6.3961C5.7027 6.21605 6.21879 5.70293 6.39582 5.03976L6.80388 3.53338C6.99292 2.82221 8.00408 2.82221 8.19612 3.53338L8.60118 5.03976C8.77821 5.70293 9.2973 6.21605 9.96041 6.3961L11.4667 6.8042C12.1778 6.99325 12.1778 8.0045 11.4667 8.19655L9.96041 8.60165C9.2973 8.77869 8.77821 9.29782 8.60118 9.95799L8.19612 11.4644C8.00408 12.1785 6.99292 12.1785 6.80388 11.4644L6.39582 9.95799C6.21879 9.29782 5.7027 8.77869 5.03959 8.60165L3.53334 8.19655C2.82222 8.0045 2.82222 6.99325 3.53334 6.8042L5.03959 6.3961Z" fill="#FFBF00" stroke="black" stroke-opacity="0.25"/>
</svg>
