<?xml version="1.0" encoding="UTF-8"?>
<svg width="40px" height="40px" viewBox="0 0 40 40" version="1.1" xmlns="http://www.w3.org/2000/svg" xmlns:xlink="http://www.w3.org/1999/xlink">
    <!-- Generator: Sketch 50.2 (55047) - http://www.bohemiancoding.com/sketch -->
    <title>videomotion-block-icon</title>
    <desc>Created with Sketch.</desc>
    <defs></defs>
    <g id="videomotion-block-icon" stroke="none" stroke-width="1" fill="none" fill-rule="evenodd">
        <g id="video" transform="translate(4.000000, 4.000000)">
            <rect id="Rectangle-path" fill="#FFFFFF" fill-rule="nonzero" x="0" y="0" width="32" height="32" rx="3.05"></rect>
            <g id="Group" opacity="0.1" transform="translate(5.000000, 5.000000)" fill="#414757" fill-rule="nonzero">
                <path d="M11,1.56090652 C16.2130674,1.56090652 20.4390935,5.78693262 20.4390935,11 C20.4390935,16.2130674 16.2130674,20.4390935 11,20.4390935 C5.78693262,20.4390935 1.56090652,16.2130674 1.56090652,11 C1.56090652,5.78693262 5.78693262,1.56090652 11,1.56090652 Z M11,0.5 C5.20101013,0.5 0.5,5.20101013 0.5,11 C0.5,16.7989899 5.20101013,21.5 11,21.5 C16.7989899,21.5 21.5,16.7989899 21.5,11 C21.494534,5.20327574 16.7967243,0.505466033 11,0.5 Z" id="Shape"></path>
            </g>
            <circle id="Oval" fill="#414757" fill-rule="nonzero" cx="16" cy="16" r="10"></circle>
            <circle id="Oval" stroke="#FFFFFF" stroke-width="1.5" opacity="0.1" cx="16" cy="16" r="8"></circle>
            <circle id="Oval" stroke="#FFFFFF" stroke-width="0.5" opacity="0.1" cx="16" cy="16" r="6.75"></circle>
            <circle id="Oval" fill="#E6E7E8" fill-rule="nonzero" opacity="0.2" cx="16" cy="16" r="6"></circle>
            <path d="M21.9886164,15.9943081 C22.0037945,16.2505067 22.0037945,16.5073791 21.9886164,16.7635776 C21.5676878,13.8095327 19.0381351,11.6148707 16.0542513,11.6148707 C13.0703675,11.6148707 10.5408148,13.8095327 10.1198862,16.7635776 C10.0645983,16.5097785 10.0245646,16.2528952 10,15.9943081 C10.0000001,12.6837431 12.6837433,10 15.9943082,10 C19.3048732,10 21.9886164,12.6837431 21.9886164,15.9943081 Z" id="Shape" fill="#E6E7E8" fill-rule="nonzero" opacity="0.2"></path>
            <circle id="Oval" fill="#414757" fill-rule="nonzero" cx="16" cy="16" r="3"></circle>
            <circle id="Oval" fill="#E6E7E8" fill-rule="nonzero" opacity="0.2" cx="16" cy="16" r="2"></circle>
            <circle id="Oval" fill="#414757" fill-rule="nonzero" cx="16" cy="16" r="1"></circle>
            <path d="M14.6084924,16.39 C14.4383483,16.1563806 14.3632869,15.8668582 14.3984924,15.58 C14.4617702,14.9563903 14.9548827,14.4632779 15.5784924,14.4 C15.8653505,14.3647946 16.154873,14.4398559 16.3884924,14.61 C16.4736591,14.6957849 16.4736591,14.8342151 16.3884924,14.92 C16.3519423,14.9613974 16.302714,14.9895279 16.2484924,15 C15.5681475,15.0107161 15.0192084,15.5596551 15.0084924,16.24 C14.9928881,16.3577302 14.8866619,16.441826 14.7684924,16.43 C14.7123527,16.4330323 14.6566004,16.4190942 14.6084924,16.39 Z" id="Shape" fill="#FFFFFF" fill-rule="nonzero" opacity="0.5"></path>
            <path d="M17.13,16.25 C17.238165,16.5018964 17.1819645,16.7942753 16.9881199,16.9881199 C16.7942753,17.1819645 16.5018964,17.238165 16.25,17.13 C16.2288562,17.1129132 16.2165685,17.0871849 16.2165685,17.06 C16.2165685,17.0328151 16.2288562,17.0070868 16.25,16.99 C16.25,16.99 16.25,16.99 16.31,16.94 C16.6197545,16.8616201 16.8616201,16.6197545 16.94,16.31 C16.9586027,16.2556575 17.0131051,16.2221176 17.07,16.23 C17.091637,16.23 17.1126904,16.2370178 17.13,16.25 Z" id="Shape" fill="#FFFFFF" fill-rule="nonzero" opacity="0.5"></path>
            <path d="M25.41,15.89 C25.4072923,16.4125891 25.3638271,16.9341709 25.28,17.45 C24.5137287,12.860866 20.5426683,9.49789668 15.89,9.49789668 C11.2373317,9.49789668 7.26627135,12.860866 6.5,17.45 C6.41617288,16.9341709 6.37270773,16.4125891 6.37,15.89 C6.69511761,10.8822361 10.8516935,6.98676576 15.87,6.98676576 C20.8883065,6.98676576 25.0448824,10.8822361 25.37,15.89 L25.41,15.89 Z" id="Shape" fill="#414757" fill-rule="nonzero" opacity="0.75"></path>
            <path d="M11.511852,19.9821248 C11.1581427,19.58376 10.8566633,19.1379766 10.6181504,18.6555112 L18.6555112,10.6181504 C19.069995,10.8230557 19.4574058,11.0744331 19.8109361,11.3654751 L19.9697189,11.5242579 L11.511852,19.9821248 Z" id="Combined-Shape" fill="#FFFFFF" fill-rule="nonzero" opacity="0.1"></path>
            <path d="M11.8063413,20.291067 L20.2775364,11.8198719 L20.5719033,12.1142388 C20.6530913,12.2096696 20.7313445,12.3076744 20.8065233,12.4081138 L12.4081138,20.8065233 C12.1962546,20.6479469 11.9952272,20.4756916 11.8063413,20.291067 Z" id="Combined-Shape" fill="#FFFFFF" fill-rule="nonzero" opacity="0.1"></path>
            <rect id="Rectangle-path" stroke="#414757" stroke-width="2" opacity="0.1" x="0" y="0" width="32" height="32" rx="3.05"></rect>
            <circle id="Oval" fill="#FF661A" fill-rule="nonzero" cx="4" cy="4" r="2"></circle>
            <circle id="Oval" stroke="#231F20" stroke-width="0.71" opacity="0.1" stroke-linecap="round" stroke-linejoin="round" cx="4" cy="4" r="2"></circle>
        </g>
    </g>
</svg>