<?xml version="1.0" encoding="UTF-8"?>
<svg width="40px" height="40px" viewBox="0 0 40 40" version="1.1" xmlns="http://www.w3.org/2000/svg" xmlns:xlink="http://www.w3.org/1999/xlink">
    <!-- Generator: Sketch 50.2 (55047) - http://www.bohemiancoding.com/sketch -->
    <title>music-block-icon</title>
    <desc>Created with Sketch.</desc>
    <defs></defs>
    <g id="music-block-icon" stroke="none" stroke-width="1" fill="none" fill-rule="evenodd">
        <path d="M32.179206,25.8739208 C32.6367303,28.1567449 30.5131455,29.9998773 27.4339971,29.9998773 C24.3647303,29.9998773 21.5108854,28.1567449 21.0622546,25.8739208 C20.6037421,23.5891115 22.7273269,21.7380389 25.8054872,21.7380389 C26.4517526,21.7380389 27.0881363,21.8224042 27.695863,21.9722765 C28.0328302,22.0576343 28.3322467,22.1519249 28.6326515,22.2740063 C29.5022441,22.2541557 28.5288932,19.9802643 26.7976133,10.0450167 C24.6641469,-2.25841293 29.8579865,8.17508593 35.5656764,7.29173224 C41.2743545,6.40738602 35.6417658,12.1124613 31.9163518,11.1358096 C28.1919261,10.1492325 27.2660076,3.98262977 32.179206,25.8739208 Z M15.1819287,31.8640908 C15.6303634,34.1479226 13.5067189,36 10.4387935,36 C7.37086801,36 4.51827022,34.1479226 4.05995811,31.8640908 C3.61152342,29.580259 5.73418015,27.7291742 8.81099529,27.7291742 C9.81256529,27.7291742 10.784503,27.9256968 11.6645808,28.2730854 C12.4873696,28.2175032 11.5154318,25.895955 9.80268788,16.0450074 C7.67015372,3.74248891 12.8617237,14.1740717 18.5669193,13.2917047 C24.2731026,12.3984198 18.6429754,18.1134582 14.9191895,17.1258821 C11.1963913,16.1392986 10.2708774,9.97364751 15.1819287,31.8640908 Z" id="music" fill="#575E75"></path>
    </g>
</svg>