<svg width="40" height="40" xmlns="http://www.w3.org/2000/svg" xmlns:xlink="http://www.w3.org/1999/xlink"><defs><path id="a" d="M0 18.9h31V.4H0z"/></defs><g transform="translate(4 10)" fill="none" fill-rule="evenodd"><path d="M19.5 1.2h-.7c-.3 0-.6.2-.6.4v1.1h1.9v-1c0-.3-.3-.5-.6-.5" fill="#7C87A5"/><path d="M21 1.2h-.8c-.3 0-.6.2-.6.4v1.1h1.9v-1c0-.3-.3-.5-.6-.5z"/><path d="M5.5 1.2h-.7c-.3 0-.6.2-.6.4v1.1h2v-1c0-.3-.3-.5-.7-.5" fill="#7C87A5"/><path d="M7 1.2h-.8c-.3 0-.6.2-.6.4v1.1h2v-1c0-.3-.3-.5-.7-.5z"/><path d="M22.3 1.2h-.7c-.3 0-.6.2-.6.4v1.1h1.9v-1c0-.3-.3-.5-.6-.5" fill="#7C87A5"/><path d="M23.7 1.2H23c-.3 0-.6.2-.6.4v1.1h1.9v-1c0-.3-.3-.5-.6-.5z"/><path d="M25.1 1.2h-.7c-.3 0-.6.2-.6.4v1.1h1.9v-1c0-.3-.3-.5-.6-.5" fill="#7C87A5"/><path d="M26.5 1.2h-.7c-.4 0-.6.2-.6.4v1.1H27v-1c0-.3-.3-.5-.6-.5z"/><path d="M14 1.2h-.8c-.3 0-.6.2-.6.4v1.1h1.9v-1c0-.3-.3-.5-.6-.5" fill="#7C87A5"/><path d="M15.3 1.2h-.7c-.3 0-.6.2-.6.4v1.1H16v-1c0-.3-.3-.5-.6-.5z"/><path d="M16.7 1.2H16c-.3 0-.6.2-.6.4v1.1h1.9v-1c0-.3-.3-.5-.6-.5" fill="#7C87A5"/><path d="M18.1 1.2h-.7c-.3 0-.6.2-.6.4v1.1h1.9v-1c0-.3-.3-.5-.6-.5z"/><path d="M11.1 1.2h-.7c-.3 0-.6.2-.6.4v1.1h2v-1c0-.3-.4-.5-.7-.5" fill="#7C87A5"/><path d="M12.5 1.2h-.7c-.3 0-.6.2-.6.4v1.1h1.9v-1c0-.3-.3-.5-.6-.5z"/><path d="M8.3 1.2h-.7c-.3 0-.6.2-.6.4v1.1h2v-1c0-.3-.3-.5-.7-.5" fill="#7C87A5"/><path d="M9.7 1.2H9c-.3 0-.6.2-.6.4v1.1h2v-1c0-.3-.4-.5-.7-.5z"/><path d="M27.9 1.2h-.7c-.4 0-.6.2-.6.4v1.1h1.9v-1c0-.3-.3-.5-.6-.5" fill="#7C87A5"/><path d="M29.3 1.2h-.7c-.4 0-.6.2-.6.4v1.1h1.9v-1c0-.3-.3-.5-.6-.5z"/><path d="M29.6 18.4H11.8V2.5h17.8c.6 0 1 .5 1 1v14c0 .5-.4 1-1 1" fill="#FFF"/><path d="M29.6 18.4H11.8V2.5h17.8c.6 0 1 .5 1 1v14c0 .5-.4 1-1 1z" stroke="#7C87A5" stroke-width=".9" stroke-linecap="round" stroke-linejoin="round"/><path d="M11.8 18.4H1.4a1 1 0 0 1-1-1V6.5c0-2.2 1.8-4 3.8-4h15-3.7c-2 0-3.7 1.8-3.7 4v12z" fill="#FFF"/><path d="M11.8 18.4H1.4a1 1 0 0 1-1-1V6.5c0-2.2 1.8-4 3.8-4h15-3.7c-2 0-3.7 1.8-3.7 4v12z" stroke="#7C87A5" stroke-width=".9" stroke-linecap="round" stroke-linejoin="round"/><path d="M9 2.5H7a2.9 2.9 0 0 0-2.8 3v2c0 .5.5 1 1 1H8c.5 0 1-.5 1-1v-2c0-1.6 1.2-3 2.8-3h1-3.9z" fill="#4C97FF"/><path d="M9 2.5H7a2.9 2.9 0 0 0-2.8 3v2c0 .5.5 1 1 1H8c.5 0 1-.5 1-1v-2c0-1.6 1.2-3 2.8-3h1-3.9z" stroke="#3D79CC" stroke-width=".9" stroke-linecap="round" stroke-linejoin="round"/><path stroke="#7C87A5" stroke-width=".9" stroke-linecap="round" stroke-linejoin="round" d="M.5 10.5h28l2 3"/><path d="M11.8 18.4H1.4a1 1 0 0 1-1-1V6.5c0-2.2 1.8-4 3.8-4h15-3.7c-2 0-3.7 1.8-3.7 4v12z" stroke="#7C87A5" stroke-width=".9" stroke-linecap="round" stroke-linejoin="round"/><path d="M17.3 9h-.7c-.3 0-.6.2-.6.4v1.1h1.9v-1c0-.3-.3-.5-.6-.5" fill="#7C87A5"/><path d="M17.3 9h-.7c-.3 0-.6.2-.6.4v1.1h1.9v-1c0-.3-.3-.5-.6-.5z"/><path d="M20.2 9h-.8c-.3 0-.5.2-.5.4v1.1h1.9v-1c0-.3-.3-.5-.6-.5" fill="#7C87A5"/><path d="M20.2 9h-.8c-.3 0-.5.2-.5.4v1.1h1.9v-1c0-.3-.3-.5-.6-.5z"/><path d="M23 9h-.7c-.3 0-.6.2-.6.4v1.1h2v-1c0-.3-.3-.5-.6-.5" fill="#7C87A5"/><path d="M23 9h-.7c-.3 0-.6.2-.6.4v1.1h2v-1c0-.3-.3-.5-.6-.5z"/><path d="M26 9h-.8c-.3 0-.6.2-.6.4v1.1h1.9v-1c0-.3-.3-.5-.6-.5" fill="#7C87A5"/><path d="M26 9h-.8c-.3 0-.6.2-.6.4v1.1h1.9v-1c0-.3-.3-.5-.6-.5z"/><path d="M29.6 18.4H11.8v-8h16.6l2.2 3v4c0 .6-.4 1-1 1" fill="#E6E7E8"/><path d="M29.6 18.4H11.8v-8h16.6l2.2 3v4c0 .6-.4 1-1 1z" stroke="#7C87A5" stroke-width=".9" stroke-linecap="round" stroke-linejoin="round"/><path d="M11.8 18.4H1.4a1 1 0 0 1-1-1v-7h11.4v8z" fill="#E6E7E8"/><path d="M11.8 18.4H1.4a1 1 0 0 1-1-1v-7h11.4v8z" stroke="#7C87A5" stroke-width=".9" stroke-linecap="round" stroke-linejoin="round"/><mask id="b" fill="#fff"><use xlink:href="#a"/></mask><path fill="#E6E7E8" mask="url(#b)" d="M15.5 14.4h11.3v-4H15.5z"/><path stroke="#7C87A5" stroke-width=".9" stroke-linecap="round" stroke-linejoin="round" mask="url(#b)" d="M15.5 14.4h11.3v-4H15.5zM28.4 10.5l2.2-2.8"/></g></svg>