<?xml version="1.0" encoding="UTF-8"?>
<svg width="40px" height="40px" viewBox="0 0 40 40" version="1.1" xmlns="http://www.w3.org/2000/svg" xmlns:xlink="http://www.w3.org/1999/xlink">
    <!-- Generator: Sketch 50.2 (55047) - http://www.bohemiancoding.com/sketch -->
    <title>translation-block-icon</title>
    <desc>Created with Sketch.</desc>
    <defs></defs>
    <g id="translation-block-icon" stroke="none" stroke-width="1" fill="none" fill-rule="evenodd">
        <g id="Group" transform="translate(4.000000, 4.000000)">
            <path d="M29.8647,32 C31.0357,32 31.9937,31.058 31.9937,29.904 L31.9937,8.52 C31.9937,7.366 31.0357,6.424 29.8647,6.424 L9.0907,6.424 L17.4277,32 L29.8647,32 Z" id="Fill-1" fill="#D9D9D9"></path>
            <polygon id="Fill-3" fill="#4352B8" points="22.8998 25.9575 17.4658 31.9995 15.4888 25.9575"></polygon>
            <path d="M29.9741,15.2837 L29.9741,14.0337 L23.9481,14.0337 L23.9481,12.0137 L21.9931,12.0137 L21.9931,14.0337 L18.1461,14.0337 L18.1461,15.2837 L25.8001,15.2837 C25.3901,16.7257 24.4871,18.0887 23.6051,19.1457 C22.0401,17.2967 22.0351,16.6937 22.0351,16.6937 L20.4091,16.6937 C20.4091,16.6937 20.4761,17.5947 22.6691,20.1657 C21.9571,20.8927 21.4151,21.3257 21.4151,21.3257 L21.9151,22.8867 C21.9151,22.8867 22.6691,22.2397 23.6151,21.2367 C24.5601,22.2617 25.7821,23.4957 27.3621,24.9677 L28.3871,23.9417 C26.6951,22.4067 25.4541,21.1877 24.5441,20.2107 C25.7651,18.7647 27.0061,16.9477 27.2691,15.2807 L29.9741,15.2807 L29.9741,15.2837 Z" id="Fill-5" fill="#617D8B"></path>
            <path d="M2.1284,0 C0.9584,0 0.0004,0.958 0.0004,2.132 L0.0004,23.833 C0.0004,25.002 0.9584,25.961 2.1284,25.961 L22.9024,25.961 L14.5664,0 L2.1284,0 Z" id="Fill-7" fill="#4F8BF5"></path>
            <path d="M13.5268,12.0942 L12.9718,12.0942 L11.1518,12.0942 L8.9788,12.0942 L8.9788,13.9792 L11.5968,13.9792 C11.3538,15.1772 10.3318,15.8642 8.9788,15.8642 C7.3818,15.8642 6.0928,14.5752 6.0928,12.9792 C6.0928,11.3822 7.3818,10.0942 8.9788,10.0942 C9.6678,10.0942 10.2868,10.3372 10.7768,10.7382 L12.1968,9.3182 C11.3318,8.5652 10.2218,8.0972 8.9788,8.0972 C6.2698,8.0972 4.0958,10.2702 4.0958,12.9792 C4.0958,15.6872 6.2728,17.8642 8.9788,17.8642 C11.4218,17.8642 13.6388,16.0882 13.6388,12.9822 C13.6388,12.6932 13.5938,12.3832 13.5268,12.0942" id="Fill-9" fill="#FFFFFF"></path>
            <path d="M17.1264,6.4238 L29.8644,6.4238 C31.0354,6.4238 31.9934,7.3658 31.9934,8.5198 L31.9934,21.3478 L17.1264,6.4238 Z" id="Fill-11" fill="#FFFFFF" opacity="0.2"></path>
        </g>
    </g>
</svg>