<?xml version="1.0" encoding="UTF-8"?>
<svg width="40px" height="40px" viewBox="0 0 40 40" version="1.1" xmlns="http://www.w3.org/2000/svg" xmlns:xlink="http://www.w3.org/1999/xlink">
    <!-- Generator: Sketch 50.2 (55047) - http://www.bohemiancoding.com/sketch -->
    <title>microbit-block-icon</title>
    <desc>Created with Sketch.</desc>
    <defs></defs>
    <g id="microbit-block-icon" stroke="none" stroke-width="1" fill="none" fill-rule="evenodd">
        <g id="microbit" transform="translate(3.500000, 6.000000)">
            <polygon id="Shape" stroke="#7C87A5" stroke-width="0.22" fill="#E6E7E8" fill-rule="nonzero" stroke-linecap="round" stroke-linejoin="round" points="19.11 0.11 19.11 1 13.78 1 13.78 0.11 14.22 0.11 14.22 0.33 14.67 0.33 14.67 0.11 18.22 0.11 18.22 0.33 18.67 0.33 18.67 0.11"></polygon>
            <path d="M30.66,1 L2.22,1 C1.24082518,0.999984548 0.445500982,1.79084064 0.44,2.77 L0.44,25 C0.441253651,25.7700944 0.93758836,26.4520502 1.67,26.69 C1.84871651,26.7421345 2.03383687,26.7690611 2.22,26.77 L30.66,26.77 C30.8461631,26.7690611 31.0312835,26.7421345 31.21,26.69 C31.9424116,26.4520502 32.4387463,25.7700944 32.44,25 L32.44,2.77 C32.434499,1.79084064 31.6391748,0.999984548 30.66,1 Z M3.11,23.54 C2.71343518,23.54 2.34699416,23.3284352 2.14871175,22.985 C1.95042933,22.6415648 1.95042933,22.2184352 2.14871175,21.875 C2.34699416,21.5315648 2.71343518,21.32 3.11,21.32 C3.50656482,21.32 3.87300584,21.5315648 4.07128825,21.875 C4.26957067,22.2184352 4.26957067,22.6415648 4.07128825,22.985 C3.87300584,23.3284352 3.50656482,23.54 3.11,23.54 Z M9.38,23.54 C8.93014083,23.5399817 8.52477626,23.2684441 8.35357179,22.8524366 C8.18236732,22.436429 8.27918149,21.9582239 8.59871605,21.641568 C8.91825061,21.3249121 9.39731226,21.2324295 9.81175347,21.4073917 C10.2261947,21.5823538 10.4940528,21.9901591 10.49,22.44 C10.4845121,23.0491272 9.98915197,23.5400247 9.38,23.54 Z M16.44,23.54 C15.9901408,23.5399817 15.5847763,23.2684441 15.4135718,22.8524366 C15.2423673,22.436429 15.3391815,21.9582239 15.658716,21.641568 C15.9782506,21.3249121 16.4573123,21.2324295 16.8717535,21.4073917 C17.2861947,21.5823538 17.5540528,21.9901591 17.55,22.44 C17.5445121,23.0491272 17.049152,23.5400247 16.44,23.54 Z M23.5,23.54 C23.1034352,23.54 22.7369942,23.3284352 22.5387117,22.985 C22.3404293,22.6415648 22.3404293,22.2184352 22.5387117,21.875 C22.7369942,21.5315648 23.1034352,21.32 23.5,21.32 C23.8965648,21.32 24.2630058,21.5315648 24.4612883,21.875 C24.6595707,22.2184352 24.6595707,22.6415648 24.4612883,22.985 C24.2630058,23.3284352 23.8965648,23.54 23.5,23.54 Z M29.77,23.54 C29.3201408,23.5399817 28.9147763,23.2684441 28.7435718,22.8524366 C28.5723673,22.436429 28.6691815,21.9582239 28.988716,21.641568 C29.3082506,21.3249121 29.7873123,21.2324295 30.2017535,21.4073917 C30.6161947,21.5823538 30.8840528,21.9901591 30.88,22.44 C30.8745121,23.0491272 30.379152,23.5400247 29.77,23.54 Z" id="Shape" stroke="#231F20" stroke-width="0.89" fill="#231F20" fill-rule="nonzero" opacity="0.1"></path>
            <path d="M30.66,1 L2.22,1 C1.24082518,0.999984548 0.445500982,1.79084064 0.44,2.77 L0.44,25 C0.441253651,25.7700944 0.93758836,26.4520502 1.67,26.69 C1.84871651,26.7421345 2.03383687,26.7690611 2.22,26.77 L30.66,26.77 C30.8461631,26.7690611 31.0312835,26.7421345 31.21,26.69 C31.9424116,26.4520502 32.4387463,25.7700944 32.44,25 L32.44,2.77 C32.434499,1.79084064 31.6391748,0.999984548 30.66,1 Z M3.11,23.54 C2.71343518,23.54 2.34699416,23.3284352 2.14871175,22.985 C1.95042933,22.6415648 1.95042933,22.2184352 2.14871175,21.875 C2.34699416,21.5315648 2.71343518,21.32 3.11,21.32 C3.50656482,21.32 3.87300584,21.5315648 4.07128825,21.875 C4.26957067,22.2184352 4.26957067,22.6415648 4.07128825,22.985 C3.87300584,23.3284352 3.50656482,23.54 3.11,23.54 Z M9.38,23.54 C8.93014083,23.5399817 8.52477626,23.2684441 8.35357179,22.8524366 C8.18236732,22.436429 8.27918149,21.9582239 8.59871605,21.641568 C8.91825061,21.3249121 9.39731226,21.2324295 9.81175347,21.4073917 C10.2261947,21.5823538 10.4940528,21.9901591 10.49,22.44 C10.4845121,23.0491272 9.98915197,23.5400247 9.38,23.54 Z M16.44,23.54 C15.9901408,23.5399817 15.5847763,23.2684441 15.4135718,22.8524366 C15.2423673,22.436429 15.3391815,21.9582239 15.658716,21.641568 C15.9782506,21.3249121 16.4573123,21.2324295 16.8717535,21.4073917 C17.2861947,21.5823538 17.5540528,21.9901591 17.55,22.44 C17.5445121,23.0491272 17.049152,23.5400247 16.44,23.54 Z M23.5,23.54 C23.1034352,23.54 22.7369942,23.3284352 22.5387117,22.985 C22.3404293,22.6415648 22.3404293,22.2184352 22.5387117,21.875 C22.7369942,21.5315648 23.1034352,21.32 23.5,21.32 C23.8965648,21.32 24.2630058,21.5315648 24.4612883,21.875 C24.6595707,22.2184352 24.6595707,22.6415648 24.4612883,22.985 C24.2630058,23.3284352 23.8965648,23.54 23.5,23.54 Z M29.77,23.54 C29.3201408,23.5399817 28.9147763,23.2684441 28.7435718,22.8524366 C28.5723673,22.436429 28.6691815,21.9582239 28.988716,21.641568 C29.3082506,21.3249121 29.7873123,21.2324295 30.2017535,21.4073917 C30.6161947,21.5823538 30.8840528,21.9901591 30.88,22.44 C30.8745121,23.0491272 30.379152,23.5400247 29.77,23.54 Z" id="Shape" fill="#414757" fill-rule="nonzero"></path>
            <path d="M0.44,9 L0.44,2.77 C0.445500982,1.79084064 1.24082518,0.999984548 2.22,1 L8.44,1 L0.44,9 Z" id="Shape" fill="#4C97FF" fill-rule="nonzero"></path>
            <polygon id="Shape" fill="#4C97FF" fill-rule="nonzero" points="8.44 4.56 8.44 1 12 1"></polygon>
            <polygon id="Shape" fill="#4C97FF" fill-rule="nonzero" points="12 3.67 12 1 14.67 1"></polygon>
            <polygon id="Shape" stroke="#4C97FF" stroke-width="0.22" fill="#4C97FF" fill-rule="nonzero" stroke-linecap="round" stroke-linejoin="round" points="28.44 9.89 28.44 7.22 31.11 7.22"></polygon>
            <polygon id="Shape" stroke="#4C97FF" stroke-width="0.22" fill="#4C97FF" fill-rule="nonzero" stroke-linecap="round" stroke-linejoin="round" points="4.45 16.11 4.45 18.78 1.78 18.78"></polygon>
            <rect id="Rectangle-path" fill="#FFFFFF" fill-rule="nonzero" x="0.89" y="12.56" width="1" height="1" rx="0.44"></rect>
            <rect id="Rectangle-path" fill="#FFFFFF" fill-rule="nonzero" x="31.11" y="12.56" width="1" height="1" rx="0.44"></rect>
            <path d="M17.56,5.56 C17.7312083,5.55999999 17.87,5.42120826 17.87,5.25 C17.87,5.07879174 17.7312083,4.94000001 17.56,4.94 C17.3887917,4.94 17.25,5.07879173 17.25,5.25 C17.25,5.42120827 17.3887917,5.56 17.56,5.56" id="Shape" fill="#4C97FF" fill-rule="nonzero"></path>
            <path d="M15.3,4.94 C15.1892477,4.93999999 15.0869083,4.99908565 15.0315321,5.09499999 C14.9761559,5.19091433 14.9761559,5.30908567 15.0315321,5.40500001 C15.0869083,5.50091435 15.1892477,5.56000001 15.3,5.56 C15.4712083,5.55999999 15.61,5.42120826 15.61,5.25 C15.61,5.07879174 15.4712083,4.94000001 15.3,4.94" id="Shape" fill="#4C97FF" fill-rule="nonzero"></path>
            <path d="M15.3,4.33 C14.950262,4.29338789 14.6102464,4.45934112 14.4239421,4.75758228 C14.2376377,5.05582345 14.2376377,5.43417655 14.4239421,5.73241772 C14.6102464,6.03065888 14.950262,6.19661211 15.3,6.16 L17.58,6.16 C17.929738,6.19661211 18.2697536,6.03065888 18.4560579,5.73241772 C18.6423623,5.43417655 18.6423623,5.05582345 18.4560579,4.75758228 C18.2697536,4.45934112 17.929738,4.29338789 17.58,4.33 L15.3,4.33 M17.58,6.77 L15.3,6.77 C14.7056435,6.867381 14.1098479,6.60464376 13.7809267,6.10011072 C13.4520056,5.59557768 13.4520056,4.94442232 13.7809267,4.43988928 C14.1098479,3.93535624 14.7056435,3.672619 15.3,3.77 L17.58,3.77 C18.1743565,3.672619 18.7701521,3.93535624 19.0990733,4.43988928 C19.4279944,4.94442232 19.4279944,5.59557768 19.0990733,6.10011072 C18.7701521,6.60464376 18.1743565,6.867381 17.58,6.77" id="Shape" fill="#4C97FF" fill-rule="nonzero"></path>
            <rect id="Rectangle-path" stroke="#231F20" stroke-width="0.89" fill="#231F20" fill-rule="nonzero" opacity="0.25" stroke-linecap="round" stroke-linejoin="round" x="2.22" y="10.78" width="4.44" height="4.44" rx="0.44"></rect>
            <rect id="Rectangle-path" stroke="#7C87A5" stroke-width="0.22" fill="#E6E7E8" fill-rule="nonzero" stroke-linecap="round" stroke-linejoin="round" x="2.22" y="10.78" width="4.44" height="4.44" rx="0.44"></rect>
            <circle id="Oval" stroke="#231F20" stroke-width="0.67" fill="#231F20" fill-rule="nonzero" opacity="0.1" cx="4.44" cy="13" r="1"></circle>
            <circle id="Oval" stroke="#414757" stroke-width="0.22" fill="#414757" fill-rule="nonzero" cx="4.44" cy="13" r="1"></circle>
            <rect id="Rectangle-path" stroke="#231F20" stroke-width="0.89" fill="#231F20" fill-rule="nonzero" opacity="0.25" stroke-linecap="round" stroke-linejoin="round" x="26.22" y="10.78" width="4.44" height="4.44" rx="0.44"></rect>
            <rect id="Rectangle-path" stroke="#7C87A5" stroke-width="0.22" fill="#E6E7E8" fill-rule="nonzero" stroke-linecap="round" stroke-linejoin="round" x="26.22" y="10.78" width="4.44" height="4.44" rx="0.44"></rect>
            <circle id="Oval" stroke="#231F20" stroke-width="0.67" fill="#231F20" fill-rule="nonzero" opacity="0.1" cx="28.44" cy="13" r="1"></circle>
            <circle id="Oval" stroke="#414757" stroke-width="0.22" fill="#414757" fill-rule="nonzero" cx="28.44" cy="13" r="1"></circle>
            <g id="Group" opacity="0.5" transform="translate(11.000000, 8.000000)" fill="#E6E7E8" fill-rule="nonzero">
                <rect id="Rectangle-path" x="0.11" y="0.78" width="1" height="1" rx="0.04"></rect>
            </g>
            <g id="Group" opacity="0.25" transform="translate(11.000000, 9.000000)" fill="#231F20" fill-rule="nonzero">
                <rect id="Rectangle-path" x="0.11" y="0.44" width="1" height="1" rx="0.04"></rect>
            </g>
            <rect id="Rectangle-path" fill="#E6E7E8" fill-rule="nonzero" x="11.11" y="9" width="1" height="1" rx="0.04"></rect>
            <g id="Group" opacity="0.5" transform="translate(13.000000, 8.000000)" fill="#E6E7E8" fill-rule="nonzero">
                <rect id="Rectangle-path" x="0.67" y="0.78" width="1" height="1" rx="0.04"></rect>
            </g>
            <g id="Group" opacity="0.25" transform="translate(13.000000, 9.000000)" fill="#231F20" fill-rule="nonzero">
                <rect id="Rectangle-path" x="0.67" y="0.44" width="1" height="1" rx="0.04"></rect>
            </g>
            <rect id="Rectangle-path" fill="#E6E7E8" fill-rule="nonzero" x="13.67" y="9" width="1" height="1" rx="0.04"></rect>
            <g id="Group" opacity="0.5" transform="translate(16.000000, 8.000000)" fill="#E6E7E8" fill-rule="nonzero">
                <rect id="Rectangle-path" x="0.22" y="0.78" width="1" height="1" rx="0.04"></rect>
            </g>
            <g id="Group" opacity="0.25" transform="translate(16.000000, 9.000000)" fill="#231F20" fill-rule="nonzero">
                <rect id="Rectangle-path" x="0.22" y="0.44" width="1" height="1" rx="0.04"></rect>
            </g>
            <rect id="Rectangle-path" fill="#E6E7E8" fill-rule="nonzero" x="16.22" y="9" width="1" height="1" rx="0.04"></rect>
            <g id="Group" opacity="0.5" transform="translate(18.000000, 8.000000)" fill="#E6E7E8" fill-rule="nonzero">
                <rect id="Rectangle-path" x="0.78" y="0.78" width="1" height="1" rx="0.04"></rect>
            </g>
            <g id="Group" opacity="0.25" transform="translate(18.000000, 9.000000)" fill="#231F20" fill-rule="nonzero">
                <rect id="Rectangle-path" x="0.78" y="0.44" width="1" height="1" rx="0.04"></rect>
            </g>
            <rect id="Rectangle-path" fill="#E6E7E8" fill-rule="nonzero" x="18.78" y="9" width="1" height="1" rx="0.04"></rect>
            <g id="Group" opacity="0.5" transform="translate(21.000000, 8.000000)" fill="#E6E7E8" fill-rule="nonzero">
                <rect id="Rectangle-path" x="0.33" y="0.78" width="1" height="1" rx="0.04"></rect>
            </g>
            <g id="Group" opacity="0.25" transform="translate(21.000000, 9.000000)" fill="#231F20" fill-rule="nonzero">
                <rect id="Rectangle-path" x="0.33" y="0.44" width="1" height="1" rx="0.04"></rect>
            </g>
            <rect id="Rectangle-path" fill="#E6E7E8" fill-rule="nonzero" x="21.33" y="9" width="1" height="1" rx="0.04"></rect>
            <g id="Group" opacity="0.5" transform="translate(11.000000, 11.000000)" fill="#E6E7E8" fill-rule="nonzero">
                <rect id="Rectangle-path" x="0.11" y="0.28" width="1" height="1" rx="0.04"></rect>
            </g>
            <g id="Group" opacity="0.25" transform="translate(11.000000, 11.000000)" fill="#231F20" fill-rule="nonzero">
                <rect id="Rectangle-path" x="0.11" y="0.94" width="1" height="1" rx="0.04"></rect>
            </g>
            <rect id="Rectangle-path" fill="#E6E7E8" fill-rule="nonzero" x="11.11" y="11.5" width="1" height="1" rx="0.04"></rect>
            <g id="Group" opacity="0.5" transform="translate(13.000000, 11.000000)" fill="#E6E7E8" fill-rule="nonzero">
                <rect id="Rectangle-path" x="0.67" y="0.28" width="1" height="1" rx="0.04"></rect>
            </g>
            <g id="Group" opacity="0.25" transform="translate(13.000000, 11.000000)" fill="#231F20" fill-rule="nonzero">
                <rect id="Rectangle-path" x="0.67" y="0.94" width="1" height="1" rx="0.04"></rect>
            </g>
            <rect id="Rectangle-path" fill="#E6E7E8" fill-rule="nonzero" x="13.67" y="11.5" width="1" height="1" rx="0.04"></rect>
            <g id="Group" opacity="0.5" transform="translate(16.000000, 11.000000)" fill="#E6E7E8" fill-rule="nonzero">
                <rect id="Rectangle-path" x="0.22" y="0.28" width="1" height="1" rx="0.04"></rect>
            </g>
            <g id="Group" opacity="0.25" transform="translate(16.000000, 11.000000)" fill="#231F20" fill-rule="nonzero">
                <rect id="Rectangle-path" x="0.22" y="0.94" width="1" height="1" rx="0.04"></rect>
            </g>
            <rect id="Rectangle-path" fill="#E6E7E8" fill-rule="nonzero" x="16.22" y="11.5" width="1" height="1" rx="0.04"></rect>
            <g id="Group" opacity="0.5" transform="translate(18.000000, 11.000000)" fill="#E6E7E8" fill-rule="nonzero">
                <rect id="Rectangle-path" x="0.78" y="0.28" width="1" height="1" rx="0.04"></rect>
            </g>
            <g id="Group" opacity="0.25" transform="translate(18.000000, 11.000000)" fill="#231F20" fill-rule="nonzero">
                <rect id="Rectangle-path" x="0.78" y="0.94" width="1" height="1" rx="0.04"></rect>
            </g>
            <rect id="Rectangle-path" fill="#E6E7E8" fill-rule="nonzero" x="18.78" y="11.5" width="1" height="1" rx="0.04"></rect>
            <g id="Group" opacity="0.5" transform="translate(21.000000, 11.000000)" fill="#E6E7E8" fill-rule="nonzero">
                <rect id="Rectangle-path" x="0.33" y="0.28" width="1" height="1" rx="0.04"></rect>
            </g>
            <g id="Group" opacity="0.25" transform="translate(21.000000, 11.000000)" fill="#231F20" fill-rule="nonzero">
                <rect id="Rectangle-path" x="0.33" y="0.94" width="1" height="1" rx="0.04"></rect>
            </g>
            <rect id="Rectangle-path" fill="#E6E7E8" fill-rule="nonzero" x="21.33" y="11.5" width="1" height="1" rx="0.04"></rect>
            <g id="Group" opacity="0.5" transform="translate(11.000000, 13.000000)" fill="#E6E7E8" fill-rule="nonzero">
                <rect id="Rectangle-path" x="0.11" y="0.78" width="1" height="1" rx="0.04"></rect>
            </g>
            <g id="Group" opacity="0.25" transform="translate(11.000000, 14.000000)" fill="#231F20" fill-rule="nonzero">
                <rect id="Rectangle-path" x="0.11" y="0.44" width="1" height="1" rx="0.04"></rect>
            </g>
            <rect id="Rectangle-path" fill="#E6E7E8" fill-rule="nonzero" x="11.11" y="14" width="1" height="1" rx="0.04"></rect>
            <g id="Group" opacity="0.5" transform="translate(13.000000, 13.000000)" fill="#E6E7E8" fill-rule="nonzero">
                <rect id="Rectangle-path" x="0.67" y="0.78" width="1" height="1" rx="0.04"></rect>
            </g>
            <g id="Group" opacity="0.25" transform="translate(13.000000, 14.000000)" fill="#231F20" fill-rule="nonzero">
                <rect id="Rectangle-path" x="0.67" y="0.44" width="1" height="1" rx="0.04"></rect>
            </g>
            <rect id="Rectangle-path" fill="#E6E7E8" fill-rule="nonzero" x="13.67" y="14" width="1" height="1" rx="0.04"></rect>
            <g id="Group" opacity="0.5" transform="translate(16.000000, 13.000000)" fill="#E6E7E8" fill-rule="nonzero">
                <rect id="Rectangle-path" x="0.22" y="0.78" width="1" height="1" rx="0.04"></rect>
            </g>
            <g id="Group" opacity="0.25" transform="translate(16.000000, 14.000000)" fill="#231F20" fill-rule="nonzero">
                <rect id="Rectangle-path" x="0.22" y="0.44" width="1" height="1" rx="0.04"></rect>
            </g>
            <rect id="Rectangle-path" fill="#E6E7E8" fill-rule="nonzero" x="16.22" y="14" width="1" height="1" rx="0.04"></rect>
            <g id="Group" opacity="0.5" transform="translate(18.000000, 13.000000)" fill="#E6E7E8" fill-rule="nonzero">
                <rect id="Rectangle-path" x="0.78" y="0.78" width="1" height="1" rx="0.04"></rect>
            </g>
            <g id="Group" opacity="0.25" transform="translate(18.000000, 14.000000)" fill="#231F20" fill-rule="nonzero">
                <rect id="Rectangle-path" x="0.78" y="0.44" width="1" height="1" rx="0.04"></rect>
            </g>
            <rect id="Rectangle-path" fill="#E6E7E8" fill-rule="nonzero" x="18.78" y="14" width="1" height="1" rx="0.04"></rect>
            <g id="Group" opacity="0.5" transform="translate(21.000000, 13.000000)" fill="#E6E7E8" fill-rule="nonzero">
                <rect id="Rectangle-path" x="0.33" y="0.78" width="1" height="1" rx="0.04"></rect>
            </g>
            <g id="Group" opacity="0.25" transform="translate(21.000000, 14.000000)" fill="#231F20" fill-rule="nonzero">
                <rect id="Rectangle-path" x="0.33" y="0.44" width="1" height="1" rx="0.04"></rect>
            </g>
            <rect id="Rectangle-path" fill="#E6E7E8" fill-rule="nonzero" x="21.33" y="14" width="1" height="1" rx="0.04"></rect>
            <g id="Group" opacity="0.5" transform="translate(11.000000, 16.000000)" fill="#E6E7E8" fill-rule="nonzero">
                <rect id="Rectangle-path" x="0.11" y="0.28" width="1" height="1" rx="0.04"></rect>
            </g>
            <g id="Group" opacity="0.25" transform="translate(11.000000, 16.000000)" fill="#231F20" fill-rule="nonzero">
                <rect id="Rectangle-path" x="0.11" y="0.94" width="1" height="1" rx="0.04"></rect>
            </g>
            <rect id="Rectangle-path" fill="#E6E7E8" fill-rule="nonzero" x="11.11" y="16.5" width="1" height="1" rx="0.04"></rect>
            <g id="Group" opacity="0.5" transform="translate(13.000000, 16.000000)" fill="#E6E7E8" fill-rule="nonzero">
                <rect id="Rectangle-path" x="0.67" y="0.28" width="1" height="1" rx="0.04"></rect>
            </g>
            <g id="Group" opacity="0.25" transform="translate(13.000000, 16.000000)" fill="#231F20" fill-rule="nonzero">
                <rect id="Rectangle-path" x="0.67" y="0.94" width="1" height="1" rx="0.04"></rect>
            </g>
            <rect id="Rectangle-path" fill="#E6E7E8" fill-rule="nonzero" x="13.67" y="16.5" width="1" height="1" rx="0.04"></rect>
            <g id="Group" opacity="0.5" transform="translate(16.000000, 16.000000)" fill="#E6E7E8" fill-rule="nonzero">
                <rect id="Rectangle-path" x="0.22" y="0.28" width="1" height="1" rx="0.04"></rect>
            </g>
            <g id="Group" opacity="0.25" transform="translate(16.000000, 16.000000)" fill="#231F20" fill-rule="nonzero">
                <rect id="Rectangle-path" x="0.22" y="0.94" width="1" height="1" rx="0.04"></rect>
            </g>
            <rect id="Rectangle-path" fill="#E6E7E8" fill-rule="nonzero" x="16.22" y="16.5" width="1" height="1" rx="0.04"></rect>
            <g id="Group" opacity="0.5" transform="translate(18.000000, 16.000000)" fill="#E6E7E8" fill-rule="nonzero">
                <rect id="Rectangle-path" x="0.78" y="0.28" width="1" height="1" rx="0.04"></rect>
            </g>
            <g id="Group" opacity="0.25" transform="translate(18.000000, 16.000000)" fill="#231F20" fill-rule="nonzero">
                <rect id="Rectangle-path" x="0.78" y="0.94" width="1" height="1" rx="0.04"></rect>
            </g>
            <rect id="Rectangle-path" fill="#E6E7E8" fill-rule="nonzero" x="18.78" y="16.5" width="1" height="1" rx="0.04"></rect>
            <g id="Group" opacity="0.5" transform="translate(21.000000, 16.000000)" fill="#E6E7E8" fill-rule="nonzero">
                <rect id="Rectangle-path" x="0.33" y="0.28" width="1" height="1" rx="0.04"></rect>
            </g>
            <g id="Group" opacity="0.25" transform="translate(21.000000, 16.000000)" fill="#231F20" fill-rule="nonzero">
                <rect id="Rectangle-path" x="0.33" y="0.94" width="1" height="1" rx="0.04"></rect>
            </g>
            <rect id="Rectangle-path" fill="#E6E7E8" fill-rule="nonzero" x="21.33" y="16.5" width="1" height="1" rx="0.04"></rect>
            <g id="Group" opacity="0.5" transform="translate(11.000000, 18.000000)" fill="#E6E7E8" fill-rule="nonzero">
                <rect id="Rectangle-path" x="0.11" y="0.78" width="1" height="1" rx="0.04"></rect>
            </g>
            <g id="Group" opacity="0.25" transform="translate(11.000000, 19.000000)" fill="#231F20" fill-rule="nonzero">
                <rect id="Rectangle-path" x="0.11" y="0.44" width="1" height="1" rx="0.04"></rect>
            </g>
            <rect id="Rectangle-path" fill="#E6E7E8" fill-rule="nonzero" x="11.11" y="19" width="1" height="1" rx="0.04"></rect>
            <g id="Group" opacity="0.5" transform="translate(13.000000, 18.000000)" fill="#E6E7E8" fill-rule="nonzero">
                <rect id="Rectangle-path" x="0.67" y="0.78" width="1" height="1" rx="0.04"></rect>
            </g>
            <g id="Group" opacity="0.25" transform="translate(13.000000, 19.000000)" fill="#231F20" fill-rule="nonzero">
                <rect id="Rectangle-path" x="0.67" y="0.44" width="1" height="1" rx="0.04"></rect>
            </g>
            <rect id="Rectangle-path" fill="#E6E7E8" fill-rule="nonzero" x="13.67" y="19" width="1" height="1" rx="0.04"></rect>
            <g id="Group" opacity="0.5" transform="translate(16.000000, 18.000000)" fill="#E6E7E8" fill-rule="nonzero">
                <rect id="Rectangle-path" x="0.22" y="0.78" width="1" height="1" rx="0.04"></rect>
            </g>
            <g id="Group" opacity="0.25" transform="translate(16.000000, 19.000000)" fill="#231F20" fill-rule="nonzero">
                <rect id="Rectangle-path" x="0.22" y="0.44" width="1" height="1" rx="0.04"></rect>
            </g>
            <rect id="Rectangle-path" fill="#E6E7E8" fill-rule="nonzero" x="16.22" y="19" width="1" height="1" rx="0.04"></rect>
            <g id="Group" opacity="0.5" transform="translate(18.000000, 18.000000)" fill="#E6E7E8" fill-rule="nonzero">
                <rect id="Rectangle-path" x="0.78" y="0.78" width="1" height="1" rx="0.04"></rect>
            </g>
            <g id="Group" opacity="0.25" transform="translate(18.000000, 19.000000)" fill="#231F20" fill-rule="nonzero">
                <rect id="Rectangle-path" x="0.78" y="0.44" width="1" height="1" rx="0.04"></rect>
            </g>
            <rect id="Rectangle-path" fill="#E6E7E8" fill-rule="nonzero" x="18.78" y="19" width="1" height="1" rx="0.04"></rect>
            <g id="Group" opacity="0.5" transform="translate(21.000000, 18.000000)" fill="#E6E7E8" fill-rule="nonzero">
                <rect id="Rectangle-path" x="0.33" y="0.78" width="1" height="1" rx="0.04"></rect>
            </g>
            <g id="Group" opacity="0.25" transform="translate(21.000000, 19.000000)" fill="#231F20" fill-rule="nonzero">
                <rect id="Rectangle-path" x="0.33" y="0.44" width="1" height="1" rx="0.04"></rect>
            </g>
            <rect id="Rectangle-path" fill="#E6E7E8" fill-rule="nonzero" x="21.33" y="19" width="1" height="1" rx="0.04"></rect>
            <path d="M1.44,23.67 L1.44,26.58 C1.23870729,26.4785354 1.05878028,26.3393466 0.91,26.17 L0.91,23.67 L1.44,23.67 Z" id="Shape" fill="#FFBF00" fill-rule="nonzero"></path>
            <polygon id="Shape" fill="#FFBF00" fill-rule="nonzero" points="2.08 26.77 2.2 26.77 2.2 23.67 1.67 23.67 1.67 26.69"></polygon>
            <rect id="Rectangle-path" fill="#FFBF00" fill-rule="nonzero" x="2.46" y="23.67" width="1" height="3.1"></rect>
            <rect id="Rectangle-path" fill="#FFBF00" fill-rule="nonzero" x="3.24" y="23.67" width="1" height="3.1"></rect>
            <rect id="Rectangle-path" fill="#FFBF00" fill-rule="nonzero" x="4.03" y="23.67" width="1" height="3.1"></rect>
            <rect id="Rectangle-path" fill="#FFBF00" fill-rule="nonzero" x="4.81" y="23.67" width="1" height="3.1"></rect>
            <rect id="Rectangle-path" fill="#FFBF00" fill-rule="nonzero" x="5.59" y="23.67" width="1" height="3.1"></rect>
            <rect id="Rectangle-path" fill="#FFBF00" fill-rule="nonzero" x="6.38" y="23.67" width="1" height="3.1"></rect>
            <rect id="Rectangle-path" fill="#FFBF00" fill-rule="nonzero" x="7.16" y="23.67" width="1" height="3.1"></rect>
            <rect id="Rectangle-path" fill="#FFBF00" fill-rule="nonzero" x="7.95" y="23.67" width="1" height="3.1"></rect>
            <rect id="Rectangle-path" fill="#FFBF00" fill-rule="nonzero" x="8.73" y="23.67" width="1" height="3.1"></rect>
            <rect id="Rectangle-path" fill="#FFBF00" fill-rule="nonzero" x="9.52" y="23.67" width="1" height="3.1"></rect>
            <rect id="Rectangle-path" fill="#FFBF00" fill-rule="nonzero" x="10.3" y="23.67" width="1" height="3.1"></rect>
            <rect id="Rectangle-path" fill="#FFBF00" fill-rule="nonzero" x="11.08" y="23.67" width="1" height="3.1"></rect>
            <rect id="Rectangle-path" fill="#FFBF00" fill-rule="nonzero" x="11.87" y="23.67" width="1" height="3.1"></rect>
            <rect id="Rectangle-path" fill="#FFBF00" fill-rule="nonzero" x="12.65" y="23.67" width="1" height="3.1"></rect>
            <rect id="Rectangle-path" fill="#FFBF00" fill-rule="nonzero" x="13.44" y="23.67" width="1" height="3.1"></rect>
            <rect id="Rectangle-path" fill="#FFBF00" fill-rule="nonzero" x="14.22" y="23.67" width="1" height="3.1"></rect>
            <rect id="Rectangle-path" fill="#FFBF00" fill-rule="nonzero" x="15.01" y="23.67" width="1" height="3.1"></rect>
            <rect id="Rectangle-path" fill="#FFBF00" fill-rule="nonzero" x="15.79" y="23.67" width="1" height="3.1"></rect>
            <rect id="Rectangle-path" fill="#FFBF00" fill-rule="nonzero" x="16.58" y="23.67" width="1" height="3.1"></rect>
            <rect id="Rectangle-path" fill="#FFBF00" fill-rule="nonzero" x="17.36" y="23.67" width="1" height="3.1"></rect>
            <rect id="Rectangle-path" fill="#FFBF00" fill-rule="nonzero" x="18.14" y="23.67" width="1" height="3.1"></rect>
            <rect id="Rectangle-path" fill="#FFBF00" fill-rule="nonzero" x="18.93" y="23.67" width="1" height="3.1"></rect>
            <rect id="Rectangle-path" fill="#FFBF00" fill-rule="nonzero" x="19.71" y="23.67" width="1" height="3.1"></rect>
            <rect id="Rectangle-path" fill="#FFBF00" fill-rule="nonzero" x="20.5" y="23.67" width="1" height="3.1"></rect>
            <rect id="Rectangle-path" fill="#FFBF00" fill-rule="nonzero" x="21.28" y="23.67" width="1" height="3.1"></rect>
            <rect id="Rectangle-path" fill="#FFBF00" fill-rule="nonzero" x="22.06" y="23.67" width="1" height="3.1"></rect>
            <rect id="Rectangle-path" fill="#FFBF00" fill-rule="nonzero" x="22.85" y="23.67" width="1" height="3.1"></rect>
            <rect id="Rectangle-path" fill="#FFBF00" fill-rule="nonzero" x="23.63" y="23.67" width="1" height="3.1"></rect>
            <rect id="Rectangle-path" fill="#FFBF00" fill-rule="nonzero" x="24.42" y="23.67" width="1" height="3.1"></rect>
            <rect id="Rectangle-path" fill="#FFBF00" fill-rule="nonzero" x="25.2" y="23.67" width="1" height="3.1"></rect>
            <rect id="Rectangle-path" fill="#FFBF00" fill-rule="nonzero" x="25.99" y="23.67" width="1" height="3.1"></rect>
            <rect id="Rectangle-path" fill="#FFBF00" fill-rule="nonzero" x="26.77" y="23.67" width="1" height="3.1"></rect>
            <rect id="Rectangle-path" fill="#FFBF00" fill-rule="nonzero" x="27.56" y="23.67" width="1" height="3.1"></rect>
            <rect id="Rectangle-path" fill="#FFBF00" fill-rule="nonzero" x="28.34" y="23.67" width="1" height="3.1"></rect>
            <rect id="Rectangle-path" fill="#FFBF00" fill-rule="nonzero" x="29.12" y="23.67" width="1" height="3.1"></rect>
            <rect id="Rectangle-path" fill="#FFBF00" fill-rule="nonzero" x="29.91" y="23.67" width="1" height="3.1"></rect>
            <polygon id="Shape" fill="#FFBF00" fill-rule="nonzero" points="30.81 26.77 30.69 26.77 30.69 23.67 31.22 23.67 31.22 26.69"></polygon>
            <path d="M32,23.67 L32,26.17 C31.8512197,26.3393466 31.6712927,26.4785354 31.47,26.58 L31.47,23.67 L32,23.67 Z" id="Shape" fill="#FFBF00" fill-rule="nonzero"></path>
            <path d="M3.11,23.54 C2.71343518,23.54 2.34699416,23.3284352 2.14871175,22.985 C1.95042933,22.6415648 1.95042933,22.2184352 2.14871175,21.875 C2.34699416,21.5315648 2.71343518,21.32 3.11,21.32 C3.50656482,21.32 3.87300584,21.5315648 4.07128825,21.875 C4.26957067,22.2184352 4.26957067,22.6415648 4.07128825,22.985 C3.87300584,23.3284352 3.50656482,23.54 3.11,23.54 Z M2.22,26.77 L4.54,26.77 L4.54,22.44 C4.47765352,21.693792 3.85380806,21.1198958 3.105,21.1198958 C2.35619194,21.1198958 1.73234648,21.693792 1.67,22.44 L1.67,26.7 L2.22,26.77 Z" id="Shape" fill="#FFBF00" fill-rule="nonzero"></path>
            <path d="M10.44,21.44 C10.0306806,21.0291817 9.41486744,20.9039895 8.87763309,21.1223774 C8.34039875,21.3407654 7.98659306,21.8601116 7.98,22.44 L7.98,26.78 L10.86,26.78 L10.86,22.44 C10.8567492,22.0644466 10.7058854,21.7052469 10.44,21.44 Z M9.44,23.56 C8.98730492,23.5844809 8.56521866,23.3312015 8.37382614,22.9202257 C8.18243363,22.50925 8.26020534,22.0231853 8.57027452,21.6924449 C8.88034371,21.3617044 9.36038552,21.252768 9.78284191,21.4172756 C10.2052983,21.5817832 10.4852542,21.9866683 10.49,22.44 C10.4845121,23.0491272 9.98915197,23.5400247 9.38,23.54 L9.44,23.56 Z" id="Shape" fill="#FFBF00" fill-rule="nonzero"></path>
            <path d="M17.44,21.44 C17.0306806,21.0291817 16.4148674,20.9039895 15.8776331,21.1223774 C15.3403987,21.3407654 14.9865931,21.8601116 14.98,22.44 L14.98,26.78 L17.86,26.78 L17.86,22.44 C17.8567492,22.0644466 17.7058854,21.7052469 17.44,21.44 Z M16.44,23.54 C15.9901408,23.5399817 15.5847763,23.2684441 15.4135718,22.8524366 C15.2423673,22.436429 15.3391815,21.9582239 15.658716,21.641568 C15.9782506,21.3249121 16.4573123,21.2324295 16.8717535,21.4073917 C17.2861947,21.5823538 17.5540528,21.9901591 17.55,22.44 C17.5445121,23.0491272 17.049152,23.5400247 16.44,23.54 Z" id="Shape" fill="#FFBF00" fill-rule="nonzero"></path>
            <path d="M24.52,21.44 C24.1106806,21.0291817 23.4948674,20.9039895 22.9576331,21.1223774 C22.4203987,21.3407654 22.0665931,21.8601116 22.06,22.44 L22.06,26.78 L24.94,26.78 L24.94,22.44 C24.9367492,22.0644466 24.7858854,21.7052469 24.52,21.44 Z M23.52,23.56 C22.9069639,23.56 22.41,23.0630361 22.41,22.45 C22.41,21.8369639 22.9069639,21.34 23.52,21.34 C24.1330361,21.34 24.63,21.8369639 24.63,22.45 C24.63,23.0630361 24.1330361,23.56 23.52,23.56 Z" id="Shape" fill="#FFBF00" fill-rule="nonzero"></path>
            <path d="M30.79,21.44 C30.3798042,21.0361719 29.7685264,20.915422 29.2355905,21.1329468 C28.7026547,21.3504717 28.3504601,21.8644757 28.34,22.44 L28.34,26.78 L30.66,26.78 L31.21,26.7 L31.21,22.44 C31.2067492,22.0644466 31.0558854,21.7052469 30.79,21.44 Z M29.79,23.56 C29.3402299,23.5680864 28.9300507,23.3039154 28.7513688,22.8910822 C28.5726868,22.478249 28.6608368,21.9983918 28.9745768,21.6760167 C29.2883169,21.3536417 29.7656044,21.2524988 30.1831357,21.4199088 C30.6006671,21.5873188 30.8758747,21.9901761 30.88,22.44 C30.8745121,23.0491272 30.379152,23.5400247 29.77,23.54 L29.79,23.56 Z" id="Shape" fill="#FFBF00" fill-rule="nonzero"></path>
            <text id="0" fill="#414757" font-family="HelveticaNeue-CondensedBlack, Helvetica Neue" font-size="1.11" font-style="condensed" font-weight="700">
                <tspan x="2.8" y="25.22">0</tspan>
            </text>
            <text id="A" fill="#414757" font-family="HelveticaNeue-CondensedBlack, Helvetica Neue" font-size="1.11" font-style="condensed" font-weight="700">
                <tspan x="3.46" y="18.54">A</tspan>
            </text>
            <text id="B" fill="#414757" font-family="HelveticaNeue-CondensedBlack, Helvetica Neue" font-size="1.11" font-style="condensed" font-weight="700">
                <tspan x="28.57" y="8.27">B</tspan>
            </text>
            <text id="1" fill="#414757" font-family="HelveticaNeue-CondensedBlack, Helvetica Neue" font-size="1.11" font-style="condensed" font-weight="700">
                <tspan x="9.02" y="25.22">1</tspan>
            </text>
            <text id="2" fill="#414757" font-family="HelveticaNeue-CondensedBlack, Helvetica Neue" font-size="1.11" font-style="condensed" font-weight="700">
                <tspan x="16.14" y="25.22">2</tspan>
            </text>
            <text id="3v" fill="#414757" font-family="HelveticaNeue-CondensedBlack, Helvetica Neue" font-size="1.11" font-style="condensed" font-weight="700">
                <tspan x="22.96" y="25.22">3v</tspan>
            </text>
            <text id="GND" fill="#414757" font-family="HelveticaNeue-CondensedBlack, Helvetica Neue" font-size="1.11" font-style="condensed" font-weight="700">
                <tspan x="28.53" y="25.22">GND</tspan>
            </text>
            <g id="Group" opacity="0.5" transform="translate(11.000000, 9.000000)" fill="#FF4E00" fill-rule="nonzero" stroke="#FF4E00" stroke-width="1.78">
                <rect id="Rectangle-path" x="2.67" y="0" width="1" height="1" rx="0.04"></rect>
                <rect id="Rectangle-path" x="7.78" y="0" width="1" height="1" rx="0.04"></rect>
                <rect id="Rectangle-path" x="0.11" y="5" width="1" height="1" rx="0.04"></rect>
                <rect id="Rectangle-path" x="10.33" y="5" width="1" height="1" rx="0.04"></rect>
                <rect id="Rectangle-path" x="2.67" y="7.5" width="1" height="1" rx="0.04"></rect>
                <rect id="Rectangle-path" x="5.22" y="7.5" width="1" height="1" rx="0.04"></rect>
                <rect id="Rectangle-path" x="5.22" y="10" width="1" height="1" rx="0.04"></rect>
                <rect id="Rectangle-path" x="7.78" y="7.5" width="1" height="1" rx="0.04"></rect>
                <rect id="Rectangle-path" x="2.67" y="5" width="1" height="1" rx="0.04"></rect>
                <rect id="Rectangle-path" x="5.22" y="5" width="1" height="1" rx="0.04"></rect>
                <rect id="Rectangle-path" x="7.78" y="5" width="1" height="1" rx="0.04"></rect>
                <rect id="Rectangle-path" x="0.11" y="2.5" width="1" height="1" rx="0.04"></rect>
                <rect id="Rectangle-path" x="10.33" y="2.5" width="1" height="1" rx="0.04"></rect>
                <rect id="Rectangle-path" x="2.67" y="2.5" width="1" height="1" rx="0.04"></rect>
                <rect id="Rectangle-path" x="5.22" y="2.5" width="1" height="1" rx="0.04"></rect>
                <rect id="Rectangle-path" x="7.78" y="2.5" width="1" height="1" rx="0.04"></rect>
            </g>
            <rect id="Rectangle-path" stroke="#FF4E00" stroke-width="0.44" fill="#FF4E00" fill-rule="nonzero" x="13.67" y="9" width="1" height="1" rx="0.04"></rect>
            <rect id="Rectangle-path" stroke="#FF4E00" stroke-width="0.44" fill="#FF4E00" fill-rule="nonzero" x="18.78" y="9" width="1" height="1" rx="0.04"></rect>
            <rect id="Rectangle-path" stroke="#FF4E00" stroke-width="0.44" fill="#FF4E00" fill-rule="nonzero" x="11.11" y="14" width="1" height="1" rx="0.04"></rect>
            <rect id="Rectangle-path" stroke="#FF4E00" stroke-width="0.44" fill="#FF4E00" fill-rule="nonzero" x="21.33" y="14" width="1" height="1" rx="0.04"></rect>
            <rect id="Rectangle-path" stroke="#FF4E00" stroke-width="0.44" fill="#FF4E00" fill-rule="nonzero" x="13.67" y="16.5" width="1" height="1" rx="0.04"></rect>
            <rect id="Rectangle-path" stroke="#FF4E00" stroke-width="0.44" fill="#FF4E00" fill-rule="nonzero" x="16.22" y="16.5" width="1" height="1" rx="0.04"></rect>
            <rect id="Rectangle-path" stroke="#FF4E00" stroke-width="0.44" fill="#FF4E00" fill-rule="nonzero" x="16.22" y="19" width="1" height="1" rx="0.04"></rect>
            <rect id="Rectangle-path" stroke="#FF4E00" stroke-width="0.44" fill="#FF4E00" fill-rule="nonzero" x="18.78" y="16.5" width="1" height="1" rx="0.04"></rect>
            <rect id="Rectangle-path" stroke="#FF4E00" stroke-width="0.44" fill="#FF4E00" fill-rule="nonzero" x="13.67" y="14" width="1" height="1" rx="0.04"></rect>
            <rect id="Rectangle-path" stroke="#FF4E00" stroke-width="0.44" fill="#FF4E00" fill-rule="nonzero" x="16.22" y="14" width="1" height="1" rx="0.04"></rect>
            <rect id="Rectangle-path" stroke="#FF4E00" stroke-width="0.44" fill="#FF4E00" fill-rule="nonzero" x="18.78" y="14" width="1" height="1" rx="0.04"></rect>
            <rect id="Rectangle-path" stroke="#FF4E00" stroke-width="0.44" fill="#FF4E00" fill-rule="nonzero" x="11.11" y="11.5" width="1" height="1" rx="0.04"></rect>
            <rect id="Rectangle-path" stroke="#FF4E00" stroke-width="0.44" fill="#FF4E00" fill-rule="nonzero" x="21.33" y="11.5" width="1" height="1" rx="0.04"></rect>
            <rect id="Rectangle-path" stroke="#FF4E00" stroke-width="0.44" fill="#FF4E00" fill-rule="nonzero" x="13.67" y="11.5" width="1" height="1" rx="0.04"></rect>
            <rect id="Rectangle-path" stroke="#FF4E00" stroke-width="0.44" fill="#FF4E00" fill-rule="nonzero" x="16.22" y="11.5" width="1" height="1" rx="0.04"></rect>
            <rect id="Rectangle-path" stroke="#FF4E00" stroke-width="0.44" fill="#FF4E00" fill-rule="nonzero" x="18.78" y="11.5" width="1" height="1" rx="0.04"></rect>
        </g>
    </g>
</svg>