<svg width="30" height="30" viewBox="0 0 30 30" fill="none" xmlns="http://www.w3.org/2000/svg">
<path fill-rule="evenodd" clip-rule="evenodd" d="M17.1 4.8002L19.5 9.7502L25.05 10.5002C27 10.8002 27.75 13.0502 26.25 14.4002L22.2 18.3002L23.1 23.8502C23.4 25.6502 21.45 27.1502 19.8 26.2502L15 23.7002L10.05 26.2502C8.4 27.1502 6.45001 25.6502 6.75001 23.8502L7.65001 18.3002L3.75001 14.5502C2.40001 13.2002 3.15 10.8002 4.95001 10.5002L10.5 9.7502L12.9 4.8002C13.8 3.0002 16.2 3.0002 17.1 4.8002Z" fill="#E2E3E9"/>
<path d="M17.1 4.8002L19.5 9.7502L25.05 10.5002C27 10.8002 27.75 13.0502 26.25 14.4002L22.2 18.3002L23.1 23.8502C23.4 25.6502 21.45 27.1502 19.8 26.2502L15 23.7002L10.05 26.2502C8.4 27.1502 6.45001 25.6502 6.75001 23.8502L7.65001 18.3002L3.75001 14.5502C2.40001 13.2002 3.15 10.8002 4.95 10.5002L10.5 9.7502L12.9 4.8002C13.8 3.0002 16.2 3.0002 17.1 4.8002Z" stroke="#A7ACBE" stroke-miterlimit="10" stroke-linejoin="round"/>
</svg>
