<svg width="20px" height="20px" xmlns="http://www.w3.org/2000/svg" viewBox="0 0 20 20"><path d="M11.4 3.2L13 6.5l3.7.5c1.3.2 1.8 1.7.8 2.6l-2.7 2.6.6 3.7c.2 1.2-1.1 2.2-2.2 1.6L10 15.8l-3.3 1.7c-1.1.6-2.4-.4-2.2-1.6l.6-3.7-2.6-2.5c-.9-.9-.4-2.5.8-2.7L7 6.5l1.6-3.3c.6-1.2 2.2-1.2 2.8 0" fill-rule="evenodd" clip-rule="evenodd" opacity=".15"/><path d="M11.4 3.2L13 6.5l3.7.5c1.3.2 1.8 1.7.8 2.6l-2.7 2.6.6 3.7c.2 1.2-1.1 2.2-2.2 1.6L10 15.8l-3.3 1.7c-1.1.6-2.4-.4-2.2-1.6l.6-3.7-2.6-2.5c-.9-.9-.4-2.5.8-2.7L7 6.5l1.6-3.3c.6-1.2 2.2-1.2 2.8 0" fill="none" stroke="#575757" stroke-linejoin="round" stroke-miterlimit="10"/></svg>