<?xml version="1.0" encoding="UTF-8"?>
<svg width="20px" height="20px" viewBox="0 0 20 20" version="1.1" xmlns="http://www.w3.org/2000/svg" xmlns:xlink="http://www.w3.org/1999/xlink">
    <!-- Generator: Sketch 52.5 (67469) - http://www.bohemiancoding.com/sketch -->
    <title>Moderation/Last Revised</title>
    <desc>Created with Sketch.</desc>
    <defs>
        <path d="M4.03537756,1.10307692 L4.03537756,0.768923077 C4.03537756,0.344088654 4.37977391,-0.000307692308 4.80460833,-0.000307692308 C5.22944276,-0.000307692308 5.5738391,0.344088654 5.5738391,0.768923077 L5.5738391,1.10307692 L9.67600256,1.10307692 L9.67600256,0.768923077 C9.67600256,0.344088654 10.0203989,-0.000307692308 10.4452333,-0.000307692308 C10.8700678,-0.000307692308 11.2144641,0.344088654 11.2144641,0.768923077 L11.2144641,1.10307692 L12.375,1.10307692 C13.6693961,1.10307692 14.7275641,2.13054632 14.7275641,3.41076923 L14.7275641,6.49076923 C14.7275641,6.91560365 14.3831678,7.26 13.9583333,7.26 L2.06089744,7.26 L2.06089744,12.6461538 C2.06089744,13.0664069 2.42030185,13.4153846 2.875,13.4153846 L4.40925,13.4153846 C4.83408442,13.4153846 5.17848077,13.759781 5.17848077,14.1846154 C5.17848077,14.6094498 4.83408442,14.9538462 4.40925,14.9538462 L2.875,14.9538462 C1.58060393,14.9538462 0.522435897,13.9263768 0.522435897,12.6461538 L0.522435897,6.49076923 L0.522435897,3.41076923 C0.522435897,2.13054632 1.58060393,1.10307692 2.875,1.10307692 L4.03537756,1.10307692 Z M4.03537756,2.64153846 L2.875,2.64153846 C2.42030185,2.64153846 2.06089744,2.99051616 2.06089744,3.41076923 L2.06089744,5.72153846 L13.1891026,5.72153846 L13.1891026,3.41076923 C13.1891026,2.99051616 12.8296981,2.64153846 12.375,2.64153846 L11.2144641,2.64153846 L11.2144641,2.97507692 C11.2144641,3.39991135 10.8700678,3.74430769 10.4452333,3.74430769 C10.0203989,3.74430769 9.67600256,3.39991135 9.67600256,2.97507692 L9.67600256,2.64153846 L5.5738391,2.64153846 L5.5738391,2.97507692 C5.5738391,3.39991135 5.22944276,3.74430769 4.80460833,3.74430769 C4.37977391,3.74430769 4.03537756,3.39991135 4.03537756,2.97507692 L4.03537756,2.64153846 Z M11.76035,19.4624615 L6.93118333,14.7547692 C6.64618333,14.4947692 6.64618333,14.0470769 6.93118333,13.7716923 L11.76035,9.06246154 C12.2195167,8.63169231 12.99535,8.93938462 12.99535,9.57015385 L12.99535,12.0332308 C13.8661833,11.9393846 14.7370167,11.5870769 15.4495167,10.924 C16.4786833,10.0163077 17.08035,8.51015385 16.89035,6.93938462 L16.8745167,6.91015385 C16.8111833,6.38553846 17.1911833,5.90861538 17.7295167,5.84707692 C18.1886833,5.80092308 18.60035,6.04707692 18.7745167,6.44707692 C19.5820167,8.43169231 19.40785,10.9086154 18.1095167,12.9086154 C17.03285,14.6178462 15.1645167,15.9393846 12.99535,16.4024615 L12.99535,18.9716923 C12.99535,19.5855385 12.2195167,19.9086154 11.76035,19.4624615 Z" id="path-1"></path>
    </defs>
    <g id="Moderation/Last-Revised" stroke="none" stroke-width="1" fill="none" fill-rule="evenodd">
        <mask id="mask-2" fill="white">
            <use xlink:href="#path-1"></use>
        </mask>
        <use id="Last-Revised" fill="#575E75" fill-rule="nonzero" xlink:href="#path-1"></use>
        <g id="Color/Gray" mask="url(#mask-2)" fill="#575E75">
            <rect id="Color" x="0" y="0" width="20" height="20"></rect>
        </g>
    </g>
</svg>