<svg width="20px" height="20px" xmlns="http://www.w3.org/2000/svg" viewBox="0 0 20 20"><path d="M18 8.2c-.5 5.3-6.5 9.4-8 9.4s-7.5-4.2-8-9.4v-.6C2 5.1 4.1 3 6.7 3 8 3 9.2 3.5 10 4.4c.8-.9 2-1.4 3.3-1.4C15.9 3 18 5.1 18 7.6v.6z" fill-rule="evenodd" clip-rule="evenodd" opacity=".15"/><path d="M18 8.2c-.5 5.3-6.5 9.4-8 9.4s-7.5-4.2-8-9.4v-.6C2 5.1 4.1 3 6.7 3 8 3 9.2 3.5 10 4.4c.8-.9 2-1.4 3.3-1.4C15.9 3 18 5.1 18 7.6v.6z" fill-rule="evenodd" clip-rule="evenodd" fill="#d8dadf"/><path d="M18 8.2c-.5 5.3-6.5 9.4-8 9.4s-7.5-4.2-8-9.4v-.6C2 5.1 4.1 3 6.7 3 8 3 9.2 3.5 10 4.4c.8-.9 2-1.4 3.3-1.4C15.9 3 18 5.1 18 7.6v.6z" fill="none" stroke="#575757" stroke-linejoin="round" stroke-miterlimit="10"/></svg>