<svg width="30" height="30" viewBox="0 0 30 30" fill="none" xmlns="http://www.w3.org/2000/svg">
<path fill-rule="evenodd" clip-rule="evenodd" d="M27 12.3C26.25 20.25 17.25 26.4 15 26.4C12.75 26.4 3.75 20.1 3 12.3V11.4C3 7.65 6.15 4.5 10.05 4.5C12 4.5 13.8 5.25 15 6.6C16.2 5.25 18 4.5 19.95 4.5C23.85 4.5 27 7.65 27 11.4V12.3Z" fill="#E2E3E9"/>
<path d="M27 12.3C26.25 20.25 17.25 26.4 15 26.4C12.75 26.4 3.75 20.1 3 12.3V11.4C3 7.65 6.15 4.5 10.05 4.5C12 4.5 13.8 5.25 15 6.6C16.2 5.25 18 4.5 19.95 4.5C23.85 4.5 27 7.65 27 11.4V12.3Z" stroke="#A7ACBE" stroke-miterlimit="10" stroke-linejoin="round"/>
</svg>
