<svg width="20" height="20" xmlns="http://www.w3.org/2000/svg"><path d="M3.797 14.239c-1.355-2.223-1.466-5.189-.271-7.54a8.498 8.498 0 0 1 4.156-4.012 8.279 8.279 0 0 1 1.604-.55l.56-.12a.77.77 0 0 1 .91.577.755.755 0 0 1-.585.898l-.545.117a6.73 6.73 0 0 0-1.31.453A7.06 7.06 0 0 0 4.9 7.366c-.797 1.566-1.034 4.056.22 6.11 1.135 1.98 3.46 3.193 5.666 2.989 2.087-.15 4-1.539 4.672-3.378.681-1.73.229-3.502-.52-4.5-.9-1.231-2.021-1.61-2.461-1.715-.066-.02-1.607-.483-2.968.199-.585.28-1.343.912-1.75 1.86-.437.98-.324 2.24.27 3.077.598.897 1.724 1.406 2.694 1.233.964-.152 1.617-.87 1.772-1.5.181-.678-.098-1.251-.315-1.457-.37-.365-.69-.371-.703-.372a1.316 1.316 0 0 0-.271.014c-.173.063-.418.202-.49.347-.012.024-.045.09.017.254a.753.753 0 0 1-.447.973.768.768 0 0 1-.985-.441c-.246-.647-.11-1.154.047-1.464.412-.81 1.366-1.103 1.474-1.134a.749.749 0 0 1 .153-.028c.106-.016.291-.041.542-.032.575.008 1.23.308 1.733.804.593.56 1.057 1.685.728 2.907-.322 1.309-1.556 2.39-2.997 2.617-1.55.276-3.295-.488-4.216-1.872-.889-1.249-1.059-3.075-.409-4.524a5.263 5.263 0 0 1 2.474-2.615c1.921-.96 3.975-.326 4.061-.3.553.131 2.09.645 3.283 2.277.918 1.228 1.663 3.52.717 5.921-.864 2.366-3.324 4.163-5.976 4.354-.208.02-.418.03-.628.03-2.574 0-5.181-1.484-6.489-3.761z" fill="#575E75" fill-rule="evenodd"/></svg>