<?xml version="1.0" encoding="UTF-8"?>
<svg width="20px" height="20px" viewBox="0 0 20 20" version="1.1" xmlns="http://www.w3.org/2000/svg" xmlns:xlink="http://www.w3.org/1999/xlink">
    <!-- Generator: Sketch 50.2 (55047) - http://www.bohemiancoding.com/sketch -->
    <title>restore-gray</title>
    <desc>Created with Sketch.</desc>
    <defs></defs>
    <g id="restore-gray" stroke="none" stroke-width="1" fill="none" fill-rule="evenodd">
        <path d="M6.28386991,15.293449 C6.28386991,15.709633 5.94481309,16.0470795 5.52664301,16.0470795 C5.10847293,16.0470795 4.75811422,15.709633 4.75811422,15.293449 C4.75811422,14.8660168 5.10847293,14.5274455 5.52664301,14.5274455 C5.94481309,14.5274455 6.28386991,14.8660168 6.28386991,15.293449 Z M9.38081491,17.0256743 C9.38081491,17.4980994 8.99655052,17.8805388 8.52187097,17.8805388 C8.04719142,17.8805388 7.67422891,17.4980994 7.67422891,17.0256743 C7.67422891,16.5532492 8.04719142,16.1820581 8.52187097,16.1820581 C8.99655052,16.1820581 9.38081491,16.5532492 9.38081491,17.0256743 Z M16.0493845,15.394458 C16.0493845,15.9568688 15.5860068,16.4180457 15.0096102,16.4180457 C14.4320834,16.4180457 13.969836,15.9568688 13.969836,15.394458 C13.969836,14.820799 14.4320834,14.3596221 15.0096102,14.3596221 C15.5860068,14.3596221 16.0493845,14.820799 16.0493845,15.394458 Z M17.9477636,12.4473128 C17.9477636,13.077213 17.4391784,13.5721345 16.8175742,13.5721345 C16.19597,13.5721345 15.6873848,13.077213 15.6873848,12.4473128 C15.6873848,11.828661 16.19597,11.3224912 16.8175742,11.3224912 C17.4391784,11.3224912 17.9477636,11.828661 17.9477636,12.4473128 Z M12.9302878,17.0586316 C12.9302878,17.5760495 12.4996856,18.0034818 11.9797985,18.0034818 C11.4599113,18.0034818 11.0417413,17.5760495 11.0417413,17.0586316 C11.0417413,16.5412136 11.4599113,16.1137814 11.9797985,16.1137814 C12.4996856,16.1137814 12.9302878,16.5412136 12.9302878,17.0586316 Z M11.5738344,5.58635083 C10.0469485,5.32764186 8.52232304,5.82256338 7.48254879,6.77866176 L8.80487039,8.09357825 C9.31345562,8.6109962 8.95179502,9.48948189 8.21604171,9.48948189 L2.82616845,9.48948189 C2.3729625,9.48948189 2,9.11829075 2,8.66723728 L2,3.30296293 C2,2.57070405 2.88267792,2.21188595 3.40256505,2.71693086 L4.53275445,3.84175249 C5.56122681,3.04312913 6.75809738,2.4694701 8.01373781,2.19951291 C9.47168214,1.88568767 10.9850058,1.94192876 12.3762689,2.36936097 C15.1780084,3.2129772 17.3479721,5.55260619 17.9695763,8.22968166 C18.1176311,8.87082999 17.7107629,9.52322654 17.0654247,9.66945335 C16.4664244,9.81568016 15.8798561,9.47823367 15.6651201,8.92707107 L15.6651201,8.91582286 C14.9757045,7.12623165 13.3143261,5.84393499 11.5738344,5.58635083 Z" id="restore" fill="#575E75" transform="translate(10.000000, 10.001741) scale(-1, 1) translate(-10.000000, -10.001741) "></path>
    </g>
</svg>