<?xml version="1.0" encoding="UTF-8"?>
<svg width="20px" height="20px" viewBox="0 0 20 20" version="1.1" xmlns="http://www.w3.org/2000/svg" xmlns:xlink="http://www.w3.org/1999/xlink">
    <!-- Generator: Sketch 50.2 (55047) - http://www.bohemiancoding.com/sketch -->
    <title>revised-date-gray</title>
    <desc>Created with Sketch.</desc>
    <defs></defs>
    <g id="revised-date-gray" stroke="none" stroke-width="1" fill="none" fill-rule="evenodd">
        <g id="Group" transform="translate(2.000000, 1.500000)" fill="#575E75">
            <path d="M9.4784,16.8662667 L5.41173333,12.7862667 C5.17173333,12.5609333 5.17173333,12.1729333 5.41173333,11.9342667 L9.4784,7.85293333 C9.86506667,7.4796 10.5184,7.74626667 10.5184,8.29293333 L10.5184,10.4276 C11.2517333,10.3462667 11.9850667,10.0409333 12.5850667,9.46626667 C13.4517333,8.6796 13.9584,7.37426667 13.7984,6.01293333 L13.7850667,5.9876 C13.7317333,5.53293333 14.0517333,5.1196 14.5050667,5.06626667 C14.8917333,5.02626667 15.2384,5.2396 15.3850667,5.58626667 C16.0650667,7.30626667 15.9184,9.45293333 14.8250667,11.1862667 C13.9184,12.6676 12.3450667,13.8129333 10.5184,14.2142667 L10.5184,16.4409333 C10.5184,16.9729333 9.86506667,17.2529333 9.4784,16.8662667" id="Fill-1"></path>
            <path d="M10.6665333,4.96 L1.3332,4.96 L1.3332,2.96 C1.3332,2.58666667 1.62653333,2.29333333 1.99986667,2.29333333 L2.95986667,2.29333333 L2.95986667,2.57333333 C2.95986667,2.94666667 3.2532,3.24 3.62653333,3.24 C3.98653333,3.24 4.2932,2.94666667 4.2932,2.57333333 L4.2932,2.29333333 L7.70653333,2.29333333 L7.70653333,2.57333333 C7.70653333,2.94666667 7.99986667,3.24 8.3732,3.24 C8.7332,3.24 9.03986667,2.94666667 9.03986667,2.57333333 L9.03986667,2.29333333 L9.99986667,2.29333333 C10.3598667,2.29333333 10.6665333,2.58666667 10.6665333,2.96 L10.6665333,4.96 Z M9.99986667,0.96 L9.03986667,0.96 L9.03986667,0.666666667 C9.03986667,0.293333333 8.7332,0 8.3732,0 C7.99986667,0 7.70653333,0.293333333 7.70653333,0.666666667 L7.70653333,0.96 L4.2932,0.96 L4.2932,0.666666667 C4.2932,0.293333333 3.98653333,0 3.62653333,0 C3.2532,0 2.95986667,0.293333333 2.95986667,0.666666667 L2.95986667,0.96 L1.99986667,0.96 C0.8932,0.96 -0.000133333333,1.85333333 -0.000133333333,2.96 L-0.000133333333,10.96 C-0.000133333333,12.0666667 0.8932,12.96 1.99986667,12.96 L3.2932,12.96 C3.6532,12.96 3.95986667,12.6666667 3.95986667,12.2933333 C3.95986667,11.92 3.6532,11.6266667 3.2932,11.6266667 L1.99986667,11.6266667 C1.62653333,11.6266667 1.3332,11.32 1.3332,10.96 L1.3332,6.29333333 L11.3332,6.29333333 C11.6932,6.29333333 11.9998667,5.98666667 11.9998667,5.62666667 L11.9998667,2.96 C11.9998667,1.85333333 11.0932,0.96 9.99986667,0.96 Z" id="Fill-4"></path>
        </g>
    </g>
</svg>