<?xml version="1.0" encoding="UTF-8"?>
<svg width="20px" height="20px" viewBox="0 0 20 20" version="1.1" xmlns="http://www.w3.org/2000/svg" xmlns:xlink="http://www.w3.org/1999/xlink">
    <!-- Generator: Sketch 50.2 (55047) - http://www.bohemiancoding.com/sketch -->
    <title>scripts-gray</title>
    <desc>Created with Sketch.</desc>
    <defs></defs>
    <g id="scripts-gray" stroke="none" stroke-width="1" fill="none" fill-rule="evenodd">
        <path d="M13.1968,8.07504 L13.1968,11.28304 C13.1968,11.50384 13.0176,11.68304 12.7968,11.68304 L8.55759995,11.68304 C8.45119995,11.68304 8.34959995,11.72464 8.27519995,11.79984 L7.71679995,12.35824 C7.64239995,12.43264 7.54079995,12.47504 7.43439995,12.47504 L5.36559995,12.47504 C5.25999995,12.47504 5.15839995,12.43264 5.08239995,12.35824 L4.52559995,11.79984 C4.45039995,11.72464 4.34799995,11.68304 4.24239995,11.68304 L3.19999995,11.68304 C2.97919995,11.68304 2.79999995,11.50384 2.79999995,11.28304 L2.79999995,8.07504 C2.79999995,7.85424 2.97919995,7.67504 3.19999995,7.67504 L4.23439995,7.67504 C4.34079995,7.67504 4.44239995,7.71744 4.51679995,7.79184 L5.08239995,8.35824 C5.15839995,8.43264 5.25999995,8.47504 5.36559995,8.47504 L7.43439995,8.47504 C7.54079995,8.47504 7.64239995,8.43264 7.71679995,8.35824 L8.28239995,7.79184 C8.35839995,7.71744 8.45999995,7.67504 8.56559995,7.67504 L12.7968,7.67504 C13.0176,7.67504 13.1968,7.85424 13.1968,8.07504 M15.2776,13.6 L15.2776,16.808 C15.2776,17.0288 15.0984,17.208 14.8776,17.208 L8.55759995,17.208 C8.45119995,17.208 8.34959995,17.2496 8.27519995,17.3248 L7.71679995,17.8832 C7.64239995,17.9576 7.54079995,18 7.43439995,18 L5.36559995,18 C5.25999995,18 5.15839995,17.9576 5.08239995,17.8832 L4.52559995,17.3248 C4.45039995,17.2496 4.34799995,17.208 4.24239995,17.208 L3.19999995,17.208 C2.97919995,17.208 2.79999995,17.0288 2.79999995,16.808 L2.79999995,13.6 C2.79999995,13.3792 2.97919995,13.2 3.19999995,13.2 L4.23439995,13.2 C4.34079995,13.2 4.44239995,13.2424 4.51679995,13.3168 L5.08239995,13.8832 C5.15839995,13.9576 5.25999995,14 5.36559995,14 L7.43439995,14 C7.54079995,14 7.64239995,13.9576 7.71679995,13.8832 L8.28239995,13.3168 C8.35839995,13.2424 8.45999995,13.2 8.56559995,13.2 L14.8776,13.2 C15.0984,13.2 15.2776,13.3792 15.2776,13.6 Z M17.20032,2.4 L17.20032,5.608 C17.20032,5.8288 17.02032,6.008 16.80032,6.008 L8.55791995,6.008 C8.45151995,6.008 8.34991995,6.0496 8.27471995,6.1248 L7.71711995,6.6832 C7.64191995,6.7576 7.54031995,6.8 7.43391995,6.8 L5.36591995,6.8 C5.25951995,6.8 5.15791995,6.7576 5.08271995,6.6832 L4.52511995,6.1248 C4.44991995,6.0496 4.34831995,6.008 4.24271995,6.008 L3.20031995,6.008 C2.97951995,6.008 2.80031995,5.8288 2.80031995,5.608 L2.80031995,2.4 C2.80031995,2.1792 2.97951995,2 3.20031995,2 L4.23391995,2 C4.34031995,2 4.44191995,2.0424 4.51711995,2.1168 L5.08271995,2.6832 C5.15791995,2.7576 5.25951995,2.8 5.36591995,2.8 L7.43391995,2.8 C7.54031995,2.8 7.64191995,2.7576 7.71711995,2.6832 L8.28271995,2.1168 C8.35791995,2.0424 8.45951995,2 8.56591995,2 L16.80032,2 C17.02032,2 17.20032,2.1792 17.20032,2.4 Z" id="Scripts" fill="#575E75"></path>
    </g>
</svg>