<?xml version="1.0" encoding="UTF-8"?>
<svg width="20px" height="20px" viewBox="0 0 20 20" version="1.1" xmlns="http://www.w3.org/2000/svg" xmlns:xlink="http://www.w3.org/1999/xlink">
    <!-- Generator: Sketch 50.2 (55047) - http://www.bohemiancoding.com/sketch -->
    <title>see-inside-white</title>
    <desc>Created with Sketch.</desc>
    <defs></defs>
    <g id="see-inside-white" stroke="none" stroke-width="1" fill="none" fill-rule="evenodd">
        <path d="M11.3762804,5.25869898 C10.040244,5.0236191 8.70618543,5.47333712 7.7963753,6.34211057 L8.95341644,7.53692958 C9.39843226,8.00708932 9.08197657,8.80533881 8.43917593,8.80533881 L3.72200821,8.80533881 C3.32643859,8.80533881 3.00009366,8.46805029 3.00009366,8.05819364 L3.00009366,3.18386357 C3.00009366,2.51848532 3.77145442,2.19243975 4.22635948,2.65135655 L5.21528353,3.67344296 C6.11520442,2.94776161 7.16346391,2.42649754 8.26116961,2.1811968 C9.53688163,1.8960347 10.8610509,1.94713902 12.0784164,2.33553185 C14.5309481,3.10209666 16.4296823,5.22803638 16.9735905,7.66060203 C17.1021506,8.24319128 16.746138,8.8360014 16.1824513,8.96887263 C15.6583215,9.10174387 15.144081,8.79511794 14.9561854,8.2942956 L14.9561854,8.28407474 C14.3529418,6.65793527 12.8992234,5.49275676 11.3762804,5.25869898 Z M8.62371963,14.7412181 C9.9587671,14.9752824 11.2938146,14.526574 12.2036247,13.6577763 L11.0465836,12.4619018 C10.6015677,11.991729 10.9170345,11.1944793 11.5608241,11.1944793 L16.2770029,11.1944793 C16.6735614,11.1944793 16.9999063,11.5317772 16.9999063,11.9406232 L16.9999063,16.8161114 C16.9999063,17.4804861 16.2275567,17.8075629 15.7726516,17.3476112 L14.7837275,16.3254963 C13.8838067,17.0511979 12.8365361,17.5724765 11.7378415,17.817784 C10.4621294,18.1039762 9.13796014,18.0528705 7.92158356,17.6644668 C5.46905191,16.8978806 3.57031774,14.7718816 3.02640951,12.339248 C2.89784938,11.7566425 3.25287312,11.1638159 3.81754875,11.0309409 C4.3416785,10.898066 4.85493008,11.2047005 5.04381457,11.7055368 L5.04381457,11.7157579 C5.64606932,13.3409207 7.1007766,14.5061317 8.62371963,14.7412181 Z" id="Combined-Shape" fill="#FFFFFF" transform="translate(10.000000, 9.999906) rotate(90.000000) translate(-10.000000, -9.999906) "></path>
    </g>
</svg>