<?xml version="1.0" encoding="UTF-8"?>
<svg width="20px" height="20px" viewBox="0 0 20 20" version="1.1" xmlns="http://www.w3.org/2000/svg" xmlns:xlink="http://www.w3.org/1999/xlink">
    <!-- Generator: Sketch 52.5 (67469) - http://www.bohemiancoding.com/sketch -->
    <title>Moderation/Sprite Count</title>
    <desc>Created with Sketch.</desc>
    <defs>
        <path d="M19,12.278912 C19,17.2463833 14.9561385,19.3221441 9.98866737,19.3221441 C5.02308499,19.3221441 1,17.2463833 1,12.278912 C1,11.05121 1.20587618,10.0123852 1.60440714,9.14354991 L1.45330535,1.96621498 C1.43441763,1.17293059 2.32214061,0.719625225 2.96432319,1.19181831 L6.79853095,4.08164001 C7.68625393,3.60944692 8.78174187,3.40168196 9.98866737,3.40168196 C11.1993704,3.40168196 12.3137461,3.60944692 13.201469,4.08164001 L17.0356768,1.19181831 C17.6589717,0.719625225 18.5466946,1.17293059 18.5466946,1.96621498 L18.3955929,9.14354991 C18.792235,10.0123852 19,11.05121 19,12.278912 Z M13.7854774,15.375932 C14.0517943,15.094505 14.0121301,14.6393108 13.7118153,14.3748827 C13.4284995,14.1293423 12.9733054,14.1671177 12.710766,14.4712101 C12.5011123,14.7148617 12.1989087,14.8470758 11.8778174,14.8470758 C11.2734103,14.8470758 10.7634418,14.355995 10.7634418,13.7327001 L10.7634418,12.6938753 C11.8589297,12.3916717 12.6899895,11.468062 12.6899895,10.8617661 C12.6899895,10.1062572 11.500063,10.1062572 10.064596,10.1062572 C8.61213012,10.1062572 7.44109129,10.1062572 7.44109129,10.8617661 C7.44109129,11.468062 8.23437566,12.3916717 9.34686254,12.6749876 L9.34686254,13.7327001 C9.34686254,14.355995 8.85767051,14.8470758 8.25137461,14.8470758 C7.91328437,14.8470758 7.60919203,14.7148617 7.40142707,14.4712101 C7.15588667,14.1671177 6.70258132,14.1293423 6.40037775,14.3748827 C6.10006296,14.6393108 6.07928646,15.094505 6.32671563,15.375932 C6.79890871,15.9425637 7.49586569,16.263655 8.25137461,16.263655 C8.95022036,16.263655 9.59240294,15.9633402 10.064596,15.4911471 C10.5197901,15.9633402 11.1600839,16.263655 11.8778174,16.263655 C12.6163274,16.263655 13.3132844,15.9425637 13.7854774,15.375932 Z" id="path-1"></path>
    </defs>
    <g id="Moderation/Sprite-Count" stroke="none" stroke-width="1" fill="none" fill-rule="evenodd">
        <mask id="mask-2" fill="white">
            <use xlink:href="#path-1"></use>
        </mask>
        <use id="Sprite-Count" fill="#575E75" xlink:href="#path-1"></use>
        <g id="Color/Gray" mask="url(#mask-2)" fill="#575E75">
            <rect id="Color" x="0" y="0" width="20" height="20"></rect>
        </g>
    </g>
</svg>