<svg width="14" height="14" viewBox="0 0 14 14" fill="none" xmlns="http://www.w3.org/2000/svg">
<path fill-rule="evenodd" clip-rule="evenodd" d="M7 0.875C7.84569 0.875 8.53125 1.56056 8.53125 2.40625V5.46875H11.5938C12.4394 5.46875 13.125 6.15431 13.125 7C13.125 7.84569 12.4394 8.53125 11.5938 8.53125H8.53125V11.5938C8.53125 12.4394 7.84569 13.125 7 13.125C6.15431 13.125 5.46875 12.4394 5.46875 11.5938V8.53125H2.40625C1.56056 8.53125 0.875 7.84569 0.875 7C0.875 6.15431 1.56056 5.46875 2.40625 5.46875H5.46875V2.40625C5.46875 1.56056 6.15431 0.875 7 0.875Z" fill="#A7ACBE"/>
</svg>
