<?xml version="1.0" encoding="UTF-8"?>
<svg width="20px" height="20px" viewBox="0 0 20 20" version="1.1" xmlns="http://www.w3.org/2000/svg" xmlns:xlink="http://www.w3.org/1999/xlink">
    <!-- Generator: Sketch 50.2 (55047) - http://www.bohemiancoding.com/sketch -->
    <title>views-gray</title>
    <desc>Created with Sketch.</desc>
    <defs></defs>
    <g id="views-gray" stroke="none" stroke-width="1" fill="none" fill-rule="evenodd">
        <g id="views" transform="translate(2.000000, 3.800000)" fill="#575E75" fill-rule="nonzero">
            <path d="M15.4390052,4.41681127 C16.1720223,5.4489779 16.2018258,7.14653628 15.4390052,8.15461725 C15.4390052,8.15461725 13.1136459,12.5714286 7.99999999,12.5714286 C2.88635412,12.5714286 0.560994788,8.15461725 0.560994788,8.15461725 C-0.172022306,7.12245063 -0.201825795,5.42489224 0.560994788,4.41681127 C0.560994788,4.41681127 2.88635412,4.49037158e-16 7.99999999,0 C13.1136459,0 15.4390052,4.41681127 15.4390052,4.41681127 Z M7.99873614,10.855879 C10.5231174,10.855879 12.5695328,8.80946363 12.5695328,6.28508235 C12.5695328,3.76070107 10.5231174,1.71428571 7.99873614,1.71428571 C5.47435486,1.71428571 3.4279395,3.76070107 3.4279395,6.28508235 C3.4279395,8.80946363 5.47435486,10.855879 7.99873614,10.855879 Z" id="Combined-Shape"></path>
            <circle id="Oval" cx="7.88571429" cy="6.28571429" r="2.28571429"></circle>
        </g>
    </g>
</svg>