<svg width="20px" height="20px" id="Layer_1" xmlns="http://www.w3.org/2000/svg" viewBox="0 0 20 20"><style>.st0{fill:#575757}</style><g id="views-gray_00000142863366358815447650000010738254069274213278_"><g id="views_00000127742387757798344080000005698693185098196616_" transform="translate(2 3.8)"><path id="Combined-Shape_00000103235703839151643790000017400590354981511084_" class="st0" d="M15.4 4.4c.7 1 .8 2.7 0 3.7 0 0-2.3 4.4-7.4 4.4S.6 8.2.6 8.2c-.7-1-.8-2.7 0-3.7C.6 4.4 2.9 0 8 0s7.4 4.4 7.4 4.4zM8 10.9c2.5 0 4.6-2 4.6-4.6s-2-4.6-4.6-4.6-4.6 2-4.6 4.6 2.1 4.6 4.6 4.6z"/><circle id="Oval_00000090263241961712918110000010337424226369138089_" class="st0" cx="7.9" cy="6.3" r="2.3"/></g></g></svg>