<svg version="1.2" xmlns="http://www.w3.org/2000/svg" viewBox="0 0 201 354" width="201" height="354">
	<title>header_sprinkles-svg</title>
	<defs>
		<clipPath clipPathUnits="userSpaceOnUse" id="cp1">
			<path d="m0 0h1280v354h-1280z"/>
		</clipPath>
	</defs>
	<style>
		.s0 { opacity: .1;fill: #000000 } 
		.s1 { opacity: .1;fill: none;stroke: #000000;stroke-miterlimit:10;stroke-width: 2 } 
		.s2 { opacity: .3;fill: #ffffff } 
	</style>
	<g id="Clip-Path" clip-path="url(#cp1)">
		<g>
			<path class="s0" d="m1270.5 132.8c27 0 48.6-23.3 48.6-52.1 0-28.8-21.9-52.1-48.6-52.1h-17.7c-27 0-48.6 23.3-48.6 52.1 0 28.8 21.8 52.1 48.6 52.1l-15.7-3.8c2.9 6.9 3.5 11.1 2 25.3-1.8 17.7 13.3 19.5 39.6-22 0.4-0.6 3.3-5 3.7-5.5z"/>
			<path class="s0" d="m1260.3 113.3c19.1 0 34.5-15.5 34.5-34.6 0-19.1-15.4-34.6-34.5-34.6-19 0-34.5 15.5-34.5 34.6 0 19.1 15.5 34.6 34.5 34.6z"/>
			<path fill-rule="evenodd" class="s1" d="m1244 84.3c0 0 15.4 10.2 32 0.8"/>
			<path class="s0" d="m1238.2 77.6c2.3 0 4.2-1.9 4.2-4.2 0-1.1-0.4-2.2-1.2-3-0.8-0.8-1.9-1.2-3-1.2-1.1 0-2.2 0.4-3 1.2-0.8 0.8-1.2 1.9-1.2 3 0 2.3 1.9 4.2 4.2 4.2zm44.2 0c2.3 0 4.2-1.9 4.2-4.2q0-0.8-0.3-1.6-0.3-0.8-0.9-1.4-0.6-0.6-1.4-0.9-0.7-0.3-1.6-0.3c-2.3 0-4.2 1.9-4.2 4.2 0 2.3 1.9 4.2 4.2 4.2z"/>
			<path class="s0" d="m1225.1 280.9h-81c-13 0-23.5 11.6-23.5 26 0 14.3 10.5 25.9 23.5 25.9h46c0.1 0.3 0.4 0.4 0.6 0.7 12.7 20.8 31.6 25.2 29.9 15.8-1.3-6.9-2.3-13-1-16.5h5.5c13 0 23.5-11.6 23.5-25.9-0.1-14.4-10.5-26-23.5-26z"/>
			<path fill-rule="evenodd" class="s0" d="m1220.8 302.5c-0.8 8.4-10.3 15.1-12.8 15.1-2.4 0-12-6.7-12.7-15.1v-0.8c0-4.1 3.3-7.4 7.4-7.4 2 0 3.9 0.8 5.3 2.1 1.3-1.4 3.2-2.1 5.4-2.1 4 0 7.4 3.3 7.4 7.4z"/>
			<path class="s0" d="m1163.5 318.2l3-6.3c0.3-0.4 0.6-0.7 1.2-0.8l6.8-1c1.3-0.2 1.7-1.8 0.9-2.6l-5-4.8c-0.3-0.3-0.5-0.9-0.4-1.3l1.2-6.8c0.1-1.2-1.1-2.2-2.2-1.6l-6.1 3.2c-0.4 0.2-1 0.2-1.4 0l-6.1-3.2c-1.2-0.6-2.5 0.3-2.2 1.6l1.2 6.8c0.1 0.4-0.2 1-0.4 1.3l-5 4.8c-0.8 0.8-0.4 2.3 0.9 2.6l6.8 1c0.4 0 0.9 0.4 1.2 0.8l3 6.3c0.4 1.1 2 1.1 2.6 0z"/>
			<path class="s2" d="m18.2 15.8c2.4-0.6 4.2-2.6 4.9-4.9l1.5-5.6c0.6-2.7 4.4-2.7 5.1 0l1.4 5.6c0.7 2.4 2.7 4.3 5 4.9l5.6 1.5c2.6 0.7 2.6 4.5 0 5.1l-5.6 1.5c-2.5 0.7-4.3 2.6-5 4.9l-1.4 5.6c-0.7 2.7-4.5 2.7-5.1 0l-1.5-5.6c-0.7-2.4-2.6-4.2-4.9-4.9l-5.6-1.5c-2.7-0.6-2.7-4.4 0-5.1zm1162.3 3.1c1.2-0.3 2-1.2 2.3-2.3l0.7-2.6c0.3-1.3 2.1-1.3 2.4 0l0.7 2.6c0.3 1.2 1.3 2 2.4 2.3l2.6 0.7c1.2 0.3 1.2 2.1 0 2.4l-2.6 0.7c-1.2 0.3-2.1 1.3-2.4 2.3l-0.7 2.7c-0.3 1.2-2.1 1.2-2.4 0l-0.7-2.7c-0.3-1.1-1.2-2-2.3-2.3l-2.6-0.7c-1.3-0.3-1.3-2.1 0-2.4zm-31.1 181.2c1.1-0.3 2-1.2 2.3-2.3l0.7-2.7c0.3-1.2 2.1-1.2 2.4 0l0.7 2.7c0.3 1.1 1.2 2 2.3 2.3l2.6 0.7c1.3 0.3 1.3 2.1 0 2.4l-2.6 0.7c-1.1 0.3-2 1.3-2.3 2.3l-0.7 2.7c-0.3 1.2-2.1 1.2-2.4 0l-0.7-2.7c-0.3-1.1-1.2-2-2.3-2.3l-2.7-0.7c-1.2-0.3-1.2-2.1 0-2.4zm-29-26.5c2.5-0.6 4.3-2.6 4.9-4.9l1.5-5.6c0.7-2.7 4.5-2.7 5.1 0l1.5 5.6c0.6 2.4 2.6 4.3 4.9 4.9l5.6 1.5c2.6 0.7 2.6 4.4 0 5.1l-5.6 1.5c-2.4 0.7-4.3 2.6-4.9 4.9l-1.5 5.6c-0.6 2.7-4.4 2.7-5.1 0l-1.5-5.6c-0.6-2.4-2.6-4.2-4.9-4.9l-5.6-1.5c-2.6-0.7-2.6-4.4 0-5.1zm-1027.8 119.7c2.3-0.6 4-2.4 4.7-4.5l1.3-5.1c0.7-2.4 4.2-2.4 4.8 0l1.4 5.1c0.7 2.2 2.5 3.9 4.7 4.5l5.2 1.3c2.5 0.6 2.5 4.1 0 4.7l-5.2 1.4c-2.3 0.6-4 2.4-4.7 4.5l-1.4 5.1c-0.6 2.4-4.1 2.4-4.8 0l-1.3-5.1c-0.7-2.3-2.5-3.9-4.7-4.5l-5.2-1.4c-2.5-0.6-2.5-4.1 0-4.7zm28.2-16.6c1.1-0.3 1.9-1.1 2.2-2.1l0.7-2.5c0.3-1.2 1.9-1.2 2.2 0l0.7 2.5c0.3 1 1.1 1.8 2.2 2.1l2.4 0.7c1.2 0.3 1.2 2 0 2.2l-2.4 0.7c-1.1 0.3-1.9 1.2-2.2 2.2l-0.7 2.5c-0.3 1.1-1.9 1.1-2.2 0l-0.7-2.5c-0.3-1.1-1.1-1.9-2.2-2.2l-2.4-0.7c-1.2-0.2-1.2-1.9 0-2.2z"/>
			<path class="s0" d="m116.9 220.6c28.4 0 51.4-24.7 51.4-55.1 0-30.4-23.1-55-51.4-55h-147c-28.5-0.2-51.6 24.4-51.6 54.9 0 30.4 23.1 55 51.4 55h12.3c3 7.4 0.7 20.3-2.2 35.2-3.9 20 37.8 10.5 65.5-33.4 0.5-0.6 0.7-1.2 1.2-1.6z"/>
			<path fill-rule="evenodd" class="s0" d="m39 156.7c-2.1 22.7-27.7 40.5-34.2 40.5-6.5 0-32-17.8-34.1-40.5 0-0.7-0.1-1.5-0.1-2.2 0-11 8.9-19.8 19.9-19.8q2-0.1 4 0.3 2 0.4 3.8 1.2 1.9 0.8 3.5 2 1.7 1.1 3 2.5 1.4-1.4 3.1-2.5 1.6-1.2 3.5-2 1.8-0.8 3.8-1.2 1.9-0.4 4-0.3c10.9 0 19.9 8.9 19.9 19.8 0 0.7-0.1 1.5-0.1 2.2zm78.2 2.7c-1.5 16-19.4 28.4-24 28.4-4.7 0-22.6-12.4-24-28.4 0-0.5-0.2-1-0.2-1.6 0-7.6 6.4-14 14-14 4 0 7.6 1.6 10 4.2 2.5-2.6 6.1-4.2 10-4.2 7.8 0 14 6.2 14 14 0.3 0.6 0.2 1.2 0.2 1.6z"/>
		</g>
	</g>
</svg>