<svg width="400" height="400" fill="none" xmlns="http://www.w3.org/2000/svg"><path fill-rule="evenodd" clip-rule="evenodd" d="M248.878 59.822c-1.545 17.237-21.101 30.85-26.035 30.85-4.933 0-24.489-13.553-26.034-30.85-.06-.535-.06-1.13-.06-1.665 0-8.38 6.836-15.157 15.217-15.157 4.28 0 8.143 1.724 10.877 4.577 2.735-2.853 6.598-4.577 10.878-4.577 8.381 0 15.217 6.836 15.217 15.157.059.535 0 1.07-.06 1.665z" fill="#FF6680"/><path opacity=".3" d="M134.278 139.31c6.372-7.959 2.657-21.522-8.299-30.294-10.955-8.772-25.003-9.43-31.375-1.472-6.372 7.959-2.657 21.522 8.299 30.294 10.955 8.772 25.002 9.431 31.375 1.472z" fill="#4D97FF"/><path opacity=".3" fill-rule="evenodd" clip-rule="evenodd" d="M170.582 338.122c-17.639 12.333-50.675 10.539-79.6-4.11-23.395-11.884-44.023-32.14-51.348-60.168-1.121-4.111-2.093-8.072-3.065-11.734a709.629 709.629 0 0 1-5.232-21.078c-8.82-38.043-5.456-45.891 10.016-73.247 9.417-16.518 37.147-27.206 60.018-13.154 5.007 3.064 9.791 7.324 14.051 12.93.748.972 1.495 1.943 2.168 2.99 5.755 8.446 10.464 19.507 13.603 33.783a177.558 177.558 0 0 0 4.858 17.564c.598 1.794 1.196 3.588 1.869 5.382 3.587 9.866 7.773 19.059 12.183 27.654a464.847 464.847 0 0 0 8.072 15.173c2.765 4.933 5.381 9.642 7.922 14.201 2.018 3.588 3.887 7.026 5.531 10.314.075.075.15.225.15.374 9.641 18.835 13.154 33.036-1.196 43.126zM339.8 286.774c-2.765 4.634-5.979 9.268-9.492 13.753-18.984 24.291-47.162 44.92-71.379 52.768-2.765.897-5.456 1.644-8.146 2.167h-.075c-10.987 2.243-20.704 1.42-27.804-3.513-11.062-7.773-22.348-26.907-26.16-48.731-1.271-7.101-1.719-14.5-1.121-21.825.523-6.129 1.719-12.183 3.812-18.088 6.129-17.414 19.806-33.334 44.77-43.425 10.389-4.185 18.835-10.389 26.085-17.639 8.894-8.894 15.995-19.208 22.273-29 19.134-29.822 31.392-54.711 68.464-18.536 23.095 22.423 12.856 74.967-21.227 132.069z" fill="#4D97FF"/><path d="M330.305 300.527c-18.984 24.291-47.162 44.92-71.379 52.768-2.765.897-5.456 1.644-8.147 2.167-11.585-16.667-35.726-48.433-54.038-52.244-.822-.15-1.719-.299-2.541-.374h-.598c-.374 0-.748 0-1.121-.075-6.802-.523-14.052-3.737-20.853-8.072-1.719-1.121-3.438-2.242-5.158-3.513a146.224 146.224 0 0 1-6.427-5.008c-10.016-8.371-17.191-16.667-17.191-16.667l7.175-14.425 20.106-40.361 13.08-26.309 6.428-12.856 6.203-12.556 22.647-45.518 51.796 84.682 26.683 43.724 33.335 54.637z" fill="#E4B681"/><path opacity=".1" d="M296.372 246.937s0 .075 0 0c-.225.299-2.243 3.289-5.457 7.399-6.652 8.297-18.311 21.003-29.373 23.694-16.817 4.036-33.559 19.881-28.925 33.26 3.363 9.567 18.162 30.719 26.309 41.93-2.766.897-5.456 1.645-8.147 2.168h-.075c-11.66-16.593-36.025-48.284-53.964-52.245-.822-.224-1.719-.299-2.541-.374h-.598c-.373 0-.747 0-1.121-.074-7.399-.524-14.425-3.663-20.629-7.774-1.868-1.195-3.587-2.466-5.306-3.811-2.093-1.72-4.111-3.439-5.905-5.158-7.698-7.25-12.482-14.126-12.482-14.126l10.09-1.719 41.183-6.876 96.941-16.294z" fill="#000"/><path d="M308.184 213.378c.449 9.118-6.278 22.871-11.211 32.513-.224.373-.374.747-.598 1.121a121.19 121.19 0 0 1-1.719 3.288c-.673 1.346-1.943 2.691-3.737 4.036-14.425 10.913-61.588 22.124-95.296 26.982-10.165 1.42-19.059 2.317-25.487 2.467-1.271 0-2.541.224-4.036.523a37.775 37.775 0 0 0-5.531 1.644c-.15.075-.299.15-.449.15-21.002 7.997-53.664 34.68-69.136 47.835-23.394-11.884-44.023-32.139-51.348-60.168-1.12-4.111-2.093-8.072-3.064-11.734a710.122 710.122 0 0 1-5.232-21.077l47.087-41.109 2.915-2.541 2.84-2.466c7.4-6.428 14.5-12.706 21.078-18.387.822-.673 1.569-1.42 2.391-2.093 2.766-2.391 5.382-4.708 7.848-6.876 4.036-3.513 7.624-6.652 10.763-9.417 1.121-.972 2.093-1.869 3.065-2.691 3.064-2.691 5.456-4.784 6.876-5.979 3.363-2.99 7.773-6.055 13.229-9.194.972-.598 2.018-1.121 3.065-1.719 7.773-4.26 17.34-8.446 28.476-12.332 1.346-.449 2.766-.972 4.186-1.42a170.686 170.686 0 0 1 7.997-2.392c7.923-2.168 16.518-4.111 25.487-6.503 5.98-1.644 12.183-3.438 18.536-5.755.449-.149.897-.373 1.42-.523 38.792-14.575 40.81 15.322 40.361 25.562v.075c-.075 2.018-.224 3.213-.224 3.213s3.438 1.869 6.727 5.681c4.634 5.307 9.118 14.425 3.737 27.206h.075c.224.075 1.345.523 2.84 1.42h.074c.225.075.374.224.598.374 5.307 3.288 14.052 11.435 7.998 27.43l.075.075c.149.149.523.448 1.046.897.075 0 .075.074.149.149 1.869 2.093 5.905 6.652 6.129 11.735z" fill="#B68554"/><path opacity=".1" d="M195.921 162.852c-.523 9.941-3.886 22.647-14.499 38.717-3.513 5.306-7.325 9.641-11.287 13.079-10.164 8.82-21.376 12.109-32.288 12.707-20.18 1.121-38.791-7.176-45.966-6.503-7.923.747-35.951 24.216-55.459 41.258a709.317 709.317 0 0 1-5.232-21.078l47.088-41.108 2.914-2.541 2.84-2.466 21.9-15.92 2.616-1.869 8.969-6.503 10.389-7.549 3.364-2.391 20.031-14.575 2.84-2.093 22.348-16.219 5.755-1.644 28.252-8.072c.972 3.812-6.876 8.147-15.471 14.873-5.457 4.186 1.793 13.155.896 29.897z" fill="#000"/><path d="M218.491 115.84s-7.175-8.82-20.33-8.82c-7.474 0-24.664 4.634-24.664 4.634s-8.073-.972-16.593 2.242c-6.503 2.467-9.717 7.474-9.717 7.474s-8.67-2.391-16.667 3.663c-8.072 6.054-7.549 13.005-7.549 13.005s-11.884 1.121-17.938 8.969c-6.054 7.848-3.139 12.706-3.139 12.706s-36.4 13.304-10.987 46.639c25.188 33.036 30.121 2.018 26.533-6.353 0 0 9.716 26.459 23.021 23.394 11.585-2.69 5.007-28.925 5.007-28.925s15.322 20.853 23.619 11.809c8.147-8.819-.374-23.244-.374-23.244s3.139 5.605 7.624 7.1c5.306 1.869 12.183-.897 13.154-9.716 1.719-14.351-7.324-54.263-7.324-54.263l36.324-10.314z" fill="#E4B681"/><path opacity=".1" d="M278.585 138.411l-28.701 10.464s-.598-7.848 4.484-9.342c5.158-1.495 24.441-4.41 24.441-4.41l-.224 3.288zM300.558 200.597l-8.595 22.945s4.26.075 5.381-2.989c1.121-2.99 4.485-18.835 4.485-18.835l-1.271-1.121zM289.046 171.298l-16.144 15.098s4.186 3.662 7.474.598c3.214-3.064 11.66-14.201 11.66-14.201l-2.99-1.495zM101.894 159.638l15.547 40.361s-1.42-1.495-2.766-2.84c-3.812-3.737-13.827-32.962-14.35-36.848l1.569-.673zM145.467 194.393s-19.732-45.891-22.498-56.505l-3.662.673c.075 0 18.76 56.206 26.16 55.832zM168.712 182.958c-4.859-8.82-21.451-61.662-21.451-61.662l-3.812-.299s16.069 56.281 25.263 61.961c0 0 1.794 3.961 1.345 2.691-.523-1.271-1.345-2.691-1.345-2.691zM182.837 123.164c6.129-.672 13.08-.971 13.08-.971l-13.827 3.886s-8.521.449-11.585-.598c-1.794-.597-5.082-1.121-6.129-4.783.075 0 5.232 3.887 18.461 2.466z" fill="#000"/></svg>