<svg width="400" height="400" fill="none" xmlns="http://www.w3.org/2000/svg"><path opacity=".34" fill-rule="evenodd" clip-rule="evenodd" d="M332.93 195.85c-4.736 5.589-9.094 11.178-13.073 16.578a252.996 252.996 0 0 0-9.378 13.642c-44.998 69.628-29.936 116.236-84.501 125.141h-.095c-.947.189-1.895.284-2.842.379-5.021.663-10.515 1.042-16.673 1.137-3.505 0-7.01-.095-10.515-.284-83.081-5.874-142.194-91.417-149.772-159.909-1.421-13.168-1.8-24.535-1.137-34.388.853-13.736 3.695-24.535 8.147-33.251 9.568-18.662 26.62-27.472 48.029-34.577 8.431-2.842 17.621-5.4 27.188-8.242l6.537-1.99 3.695-1.136 5.399-1.705c.474-.19 1.042-.284 1.516-.474 12.221-3.978 25.104-8.904 38.082-15.441 42.82-21.694 97.101-17.43 134.331 3.884 0 0 .095 0 .095.095.379.19.758.379 1.042.663 9.568 5.589 17.999 12.41 24.725 20.178 23.304 26.714 26.62 65.46-10.8 109.7z" fill="#59C059"/><path opacity=".15" fill-rule="evenodd" clip-rule="evenodd" d="M100.552 248.426c-20.462-33.535-22.073-78.249-4.074-113.679 18.663-38.082 50.019-54.945 62.619-60.439 7.578-3.505 15.536-6.252 24.156-8.336l8.431-1.8c6.158-1.232 12.41 2.557 13.737 8.715a11.37 11.37 0 0 1-8.81 13.547l-8.242 1.8a103.197 103.197 0 0 0-19.705 6.82c-8.336 3.6-35.714 17.431-51.534 49.83-12.031 23.588-15.631 61.102 3.316 92.08 17.146 29.84 52.197 48.124 85.448 45.092 31.451-2.273 60.345-23.209 70.386-50.871 10.232-26.052 3.411-52.766-7.862-67.829-13.547-18.567-30.504-24.251-37.135-25.861-.948-.285-24.252-7.295-44.714 3.031-8.81 4.263-20.273 13.736-26.336 28.041-6.631 14.778-4.926 33.724 4.074 46.419 8.999 13.546 25.956 21.22 40.64 18.567 14.589-2.273 24.346-13.073 26.715-22.641 2.747-10.231-1.421-18.852-4.737-21.978-5.589-5.494-10.421-5.589-10.61-5.589-2.274-.095-3.41.095-4.074.189-2.557.948-6.252 3.032-7.389 5.211-.189.379-.663 1.326.284 3.789 2.274 5.873-.757 12.41-6.726 14.684-5.968 2.178-12.599-.758-14.873-6.632-3.694-9.757-1.61-17.336.758-22.072 6.158-12.221 20.557-16.579 22.262-17.052.758-.19 1.516-.379 2.274-.474 1.61-.284 4.358-.663 8.147-.474 8.715.095 18.568 4.642 26.146 12.126 8.905 8.431 15.915 25.389 10.989 43.861-4.831 19.705-23.494 35.999-45.187 39.409-23.399 4.168-49.64-7.389-63.566-28.23-13.357-18.852-15.915-46.324-6.157-68.208 10.704-25.104 31.261-36.566 37.324-39.408 28.988-14.494 59.966-4.926 61.197-4.547 8.337 1.989 31.452 9.757 49.451 34.293 13.831 18.473 25.104 53.05 10.799 89.238-12.978 35.619-50.113 62.712-90.09 65.649-3.126.284-6.347.474-9.474.474-38.84 0-78.154-22.357-97.858-56.745z" fill="#0DA57A"/><path fill-rule="evenodd" clip-rule="evenodd" d="M251.366 258.847l-4.074 25.862c-.284 1.8-1.989 3.031-3.694 2.747l-50.871-8.147a3.815 3.815 0 0 0-2.464.568l-5.21 3.79c-.663.473-1.61.758-2.463.568l-16.673-2.652a2.812 2.812 0 0 1-2.084-1.327l-3.789-5.21c-.474-.663-1.326-1.137-2.084-1.326l-8.431-1.326c-1.8-.285-3.032-1.99-2.748-3.695l4.074-25.862c.284-1.8 1.989-3.031 3.694-2.747l8.337 1.326c.852.095 1.61.569 2.084 1.326l3.789 5.305c.474.664 1.326 1.137 2.084 1.327l16.673 2.652a3.812 3.812 0 0 0 2.463-.568l5.305-3.79c.663-.473 1.611-.757 2.463-.568l50.777 8.052c1.895.19 3.126 1.895 2.842 3.695z" fill="#4D97FF"/><path fill-rule="evenodd" clip-rule="evenodd" d="M171.506 105.665l-17.62 19.325c-1.231 1.326-3.315 1.421-4.642.189l-25.577-23.209a3.643 3.643 0 0 0-2.369-.853l-6.442.285a3.64 3.64 0 0 1-2.368-.853L99.984 89.181a3.026 3.026 0 0 1-1.043-2.273l-.284-6.442c0-.853-.473-1.705-1.042-2.274l-6.252-5.684c-1.326-1.231-1.421-3.315-.19-4.642l17.621-19.23c1.231-1.327 3.315-1.421 4.642-.19l6.252 5.684a3.026 3.026 0 0 1 1.042 2.274l.284 6.536c.095.853.474 1.706 1.042 2.274l12.505 11.368a3.638 3.638 0 0 0 2.368.852l6.537-.284c.852 0 1.705.284 2.368.853l25.483 23.209c1.232 1.042 1.326 3.126.189 4.453z" fill="#FFBF00"/><path fill-rule="evenodd" clip-rule="evenodd" d="M110.783 47.593s30.22 1.516 34.956 30.22l-11.273 1.421-16.483-12.694-9.189-17.904 1.989-1.043z" fill="#FFBF00"/><path opacity=".1" fill-rule="evenodd" clip-rule="evenodd" d="M281.68 110.97s.663 3.316-7.768 11.084-15.346 13.546-15.346 13.546-5.4 3.6-3.6 7.768c0 0 .663-4.263 4.736-6.726 4.169-2.368 22.262-21.504 22.357-23.493 0-1.895-.379-2.179-.379-2.179z" fill="#000"/><path opacity=".34" d="M50.817 261.31c10.516 22.925 27.662 37.609 19.042 41.588-8.621 3.979-38.367-6.442-48.882-29.462-10.516-22.925 2.178-49.829 10.894-53.713 8.62-3.979 8.431 18.567 18.946 41.587zM380.77 163.357c-5.115 17.999-16.104 30.693-24.441 28.325-8.336-2.369 4.169-14.589 9.284-32.588 5.116-17.999.853-34.957 9.284-32.588 8.431 2.368 10.989 18.852 5.873 36.851z" fill="#59C059"/><path fill-rule="evenodd" clip-rule="evenodd" d="M287.08 141.284c.663 1.705-.189 3.6-1.895 4.168l-61.386 23.304c-.853.285-1.421.948-1.8 1.706l-2.653 5.873c-.379.758-1.042 1.421-1.8 1.705l-15.725 5.968c-.853.285-1.705.285-2.463-.094l-5.874-2.653c-.757-.379-1.705-.379-2.463-.095l-7.957 3.032c-1.705.663-3.6-.19-4.168-1.895l-9.284-24.441c-.663-1.705.189-3.6 1.894-4.168l7.863-3.031c.853-.285 1.705-.285 2.463.094l5.968 2.653c.758.379 1.706.379 2.463.095l15.726-5.969c.853-.284 1.421-.947 1.8-1.705l2.652-5.968c.379-.758 1.043-1.421 1.8-1.705l61.387-23.304c1.705-.663 3.6.189 4.168 1.894l9.284 24.536z" fill="#FFAB1A"/><path fill-rule="evenodd" clip-rule="evenodd" d="M343.73 85.96c-8.621 9.095-14.968 15.821-18.947 21.694-.284.663-.663 1.232-1.136 1.895-3.411 4.547-.19 17.715-12.694 28.041-4.927 4.073-8.905-.853-9.853-.19-5.968 3.884-8.62-3.694-9.283-3.505-5.874 1.8-8.147-2.084-9.095-3.789-.284-.474-.473-.853-.663-.758-3.41 1.989-5.873 3.884-8.242 5.873-3.126 2.558-5.873 5.211-10.041 8.337-4.168 3.126-7.768 2.273-8.905-.095 0-.095-.095-.095-.095-.189 0-.095-.095-.19-.095-.285-.094-.189-.094-.284-.094-.473-.095-.569-.095-1.137 0-1.8.094-.663.379-1.326.852-1.99.095-.094.095-.189.19-.284.189-.284.379-.473.568-.663l.095-.095c.284-.284.568-.663.947-.947l1.327-1.137s.189-.189.663-.568c.189-.095.379-.284.568-.474l.284-.284c1.705-1.516 3.884-3.41 6.063-5.4 1.989-1.8 3.979-3.6 5.779-5.21.379-.284.758-.663 1.137-1.042 1.231-1.137 2.368-2.179 3.22-3.031.664-.664 1.137-1.137 1.421-1.516.095-.19.285-.284.379-.474.379-.379.664-.852 1.042-1.326.474-.663.853-1.232 1.137-1.705.095-.095.19-.19.19-.379.568-.948.947-1.8 1.136-2.653.095-.568.095-.758.095-.758-.189-1.894-2.463-2.842-8.999-1.326-9.947 2.274-15.063-1.137-15.063-4.452 0 0 0-.284.095-.663.189-1.232 1.231-2.463 2.937-3.316.094 0 .189-.095.189-.095.284-.094.663-.284 1.042-.379.569-.189 1.137-.284 1.705-.473 3.6-.853 8.242-1.421 13.168-2.653.19-.095.379-.095.663-.19a46.567 46.567 0 0 0 4.832-1.42c.094 0 .094 0 .189-.095a31.976 31.976 0 0 0 4.926-2.084l.284-.19a389.96 389.96 0 0 1 4.453-2.368h.095c3.315-1.8 7.389-3.694 9.757-3.979h.095l1.421-1.894c4.642-6.347 9.757-13.452 14.588-20.178 0 0 .095 0 .095.094l.095-.094 1.042.663c9.378 5.778 17.715 12.6 24.441 20.272z" fill="#B68554"/><path opacity=".1" fill-rule="evenodd" clip-rule="evenodd" d="M319.1 65.877l-15.347 23.4s-13.263 3.504-21.789 8.62c-8.525 5.21-20.935 2.084-24.251 7.199 0 0 0-.284.095-.663.094-.284.189-.663.379-.947 0 0 .568-1.326 2.557-2.274.095 0 .19-.094.19-.094.758-.285 1.61-.663 2.747-.853.095 0 .284-.095.379-.095 2.463-.379 7.484-1.136 12.694-2.557.19-.095.379-.095.663-.19l4.832-1.42c.094 0 .094 0 .189-.096 3.126-1.042 6.063-2.273 8.337-3.789.473-.284.852-.568 1.326-.852h.095c5.873-3.506 9.094-3.98 9.757-3.98h.095l1.421-1.894 14.683-20.178.095-.095.853.758z" fill="#000"/><path fill-rule="evenodd" clip-rule="evenodd" d="M253.26 275.52c-41.208-18.757-63.565-48.314-66.596-75.123-2.463-21.978 1.421-39.788 8.81-39.977 7.389-.19 1.042 13.926 8.999 13.547 7.958-.379.948-29.083 11.937-28.42 10.799.663.094 22.641 8.052 23.209 4.547.285-.095 18.094 5.4 20.463 3.789 1.61-.569 3.789 12.315 21.409 3.41 4.642 9.094 9.473 17.62 15.252l-6.537 49.64z" fill="#59C059"/><path fill-rule="evenodd" clip-rule="evenodd" d="M242.745 269.173c-4.357-3.41-1.61-10.231 1.137-14.115 2.274-3.126-3.031-9.947 2.368-14.305 4.358-3.505 1.895-7.01 2.274-12.22.474-6.916.568-10.516 3.6-8.337l6.442 3.979-5.021 31.83-.19 19.515c-.094 0-7.389-3.789-10.61-6.347z" fill="#389438"/><path fill-rule="evenodd" clip-rule="evenodd" d="M286.89 243.216l-4.736 40.924c-24.157-4.073-36.188-10.041-36.188-17.999.095-11.936 4.642-4.831 2.747-14.683-1.894-9.853 5.211-6.253 4.169-11.747-1.042-5.495.757-23.115 7.01-13.831 6.536 9.663 15.536 15.441 26.998 17.336z" fill="#fff"/><path fill-rule="evenodd" clip-rule="evenodd" d="M333.309 272.867c-.284 1.705 1.232 3.505 3.411 3.884 2.179.379 4.263-.663 4.547-2.368.284-1.705-1.232-3.505-3.41-3.884-2.179-.474-4.263.663-4.548 2.368zm-46.324-8.621l3.79-20.272c.568.094 2.273.379 5.02.947 7.579 1.421 3.127 16.199 13.452 17.999 10.326 1.895 12.789-2.084 22.262-.379 5.4.948 14.968 4.358 13.452 12.221-1.421 7.862-11.557 7.673-16.957 6.631-9.568-1.705-10.42-6.347-20.746-8.242-10.326-1.894-12.031 13.168-19.515 11.842-2.747-.474-4.452-.853-5.021-.948l4.263-19.799z" fill="#CC8B2A"/><path fill-rule="evenodd" clip-rule="evenodd" d="M294.09 244.448l-7.484 40.45-7.105-1.326 7.484-40.451 7.105 1.327z" fill="#E3AB23"/><path fill-rule="evenodd" clip-rule="evenodd" d="M259.892 225.88c3.221 4.737 6.347 7.768 8.526 9.378-5.021 4.642-1.611 9.568-1.516 13.737.189 7.01-2.368 7.105-4.358 14.588-1.705 6.632 5.021 15.442 6.632 18-17.621-4.074-23.305-10.042-23.305-15.442.095-11.936 4.642-4.831 2.748-14.683-1.895-9.853 5.21-6.253 4.168-11.747-.947-5.495.947-23.115 7.105-13.831z" fill="#59C059"/><path fill-rule="evenodd" clip-rule="evenodd" d="M240.566 262.447c.758-4.453-20.083-22.831-12.694-28.704 3.6-2.937 12.979 20.367 13.642 13.262l5.399 7.389-6.347 8.053z" fill="#389438"/><path fill-rule="evenodd" clip-rule="evenodd" d="M241.514 246.91c-.095-3.505-11.842-17.525-5.305-20.746 3.315-1.61 7.957 13.736 10.704 9.947 1.327-1.8 1.611-4.642 1.516-7.579 0-2.936 2.084.664 1.705 5.4-.189 3.6-3.599 14.494-5.968 16.957-.568.758-2.652-3.979-2.652-3.979z" fill="#389438"/><path fill-rule="evenodd" clip-rule="evenodd" d="M194.432 131.337c-6.632-.758-6.916 13.168-1.895 13.452 7.484.474 9.947-12.505 1.895-13.452z" fill="#59C059"/><path fill-rule="evenodd" clip-rule="evenodd" d="M225.978 194.618v26.146c0 1.8-1.421 3.221-3.221 3.221h-34.578c-.852 0-1.705.379-2.273.948l-4.547 4.547a3.31 3.31 0 0 1-2.274.947h-16.862a3.309 3.309 0 0 1-2.274-.947l-4.547-4.547a3.305 3.305 0 0 0-2.274-.948h-8.526a3.194 3.194 0 0 1-3.22-3.221v-26.146c0-1.8 1.421-3.221 3.22-3.221h8.432c.852 0 1.705.379 2.273.948l4.642 4.642c.663.568 1.421.947 2.274.947h16.862a3.31 3.31 0 0 0 2.274-.947l4.641-4.642c.664-.569 1.421-.948 2.274-.948h34.483c1.8 0 3.221 1.421 3.221 3.221z" fill="#CF63CF"/><path d="M91.931 175.009c1.895 11.936 5.4 9.094 7.768 33.346.853 8.715 10.137 8.62 8.905-8.526-.663-9.568-3.505-11.842 3.411-2.274 5.115 7.2 12.694 17.431 18.378 21.694 7.01 5.21 13.831-.474 8.904-5.495-7.862-7.862-18.472-19.609-16.388-21.409 2.273-1.895 13.262 16.294 21.693 26.051 6.063 7.105 13.642 1.137 8.337-6.631-7.01-10.231-18.094-21.883-16.578-23.494 1.515-1.61 14.494 7.863 20.841 15.347 5.21 6.063 12.126-.663 7.294-6.158-7.105-8.336-23.683-18.188-22.451-19.704 1.705-1.989 14.967 1.326 20.557 4.263 7.01 3.789 12.031-3.789 6.157-5.589-10.515-3.126-33.44-19.326-38.935-24.252-13.357-11.746-41.493.569-37.893 22.831z" fill="#4C2F19"/><path d="M115.046 149.905l-6.442 21.409-1.516 5.116c-3.978-2.369-9.283-4.547-15.44-6.632-1.896-.663-3.885-1.326-5.97-1.894-12.504-3.79-27.377-7.2-40.734-9.852.853-13.737 3.694-24.536 8.147-33.251l40.356 16.388 17.62 7.2 3.789 1.516h.19z" fill="#4C2F19"/><path d="M163.454 205.323s-1.61.474-3.6-.663c-.757-.379-1.515-1.042-2.368-1.99-3.031-3.505-19.42-18.851-21.504-14.494 0 0 3.41-1.705 18.852 13.168 1.61 1.611 2.557 3.032 3.694 3.695 3.221 1.705 4.926.284 4.926.284zM122.719 192.25s.095-3.789 15.821 18.662c0 0 6.726 11.652 12.031 10.516 0 0-3.316-.569-5.211-3.506-1.8-2.936-20.462-29.556-22.641-25.672zM169.233 182.019s-3.221 2.368-9.189-1.326c-5.968-3.695-18.757-4.453-18.189-3.221 0 0 4.263-3.505 18.378 2.084 0 .095 4.832 2.747 9 2.463z" fill="#000" fill-opacity=".2"/></svg>