<svg width="400" height="400" fill="none" xmlns="http://www.w3.org/2000/svg"><path opacity=".5" d="M359.648 196.729c-3.008 25.803-22.433 83.548-56.02 121.877-1.754 2.004-3.634 4.008-5.514 6.012-8.647 9.019-18.297 16.535-28.574 22.046-17.044 9.019-36.344 12.275-57.774 6.138-43.237-12.401-59.529-22.547-74.944-43.716-1.127-1.628-2.381-3.257-3.509-5.01-5.263-7.641-10.527-16.66-17.044-27.557-11.78-19.666-27.195-45.219-52.385-79.79-2.381-3.132-4.261-6.389-5.765-9.52-1.253-2.505-2.256-5.01-3.133-7.516-3.885-12.024-2.883-24.049 1.755-35.573C75.287 97.9 151.61 58.317 201.99 43.286c1.253-.376 2.506-.751 3.634-1.127 2.131-.627 4.136-1.128 6.141-1.629 10.653-2.63 21.305-2.88 31.707-1.002 41.733 7.516 79.205 47.85 99.758 89.185.501 1.002 1.002 2.129 1.504 3.131 5.89 12.276 10.151 24.551 12.783 36.075 2.381 10.522 3.133 20.292 2.13 28.81z" fill="#F35"/><path opacity=".4" d="M210.307 314.183l33.337-51.571c2.357-3.589 6.508-6.002 10.793-6.273l61.794-2.611c10.714-.677 16.818-13.106 9.37-22.099l-38.688-47.453c-3.242-3.666-3.511-7.95-2.467-11.887l16.97-58.71c2.783-10.499-7.29-20.186-18.218-16.055l-57.128 22.103c-4.634 1.583-8.571.541-12.161-1.813l-51.221-34.618c-8.974-5.885-21.91.524-20.756 12.064l3.414 61.294c.269 4.285-1.605 8.704-5.274 11.947l-48.795 38.352c-8.998 7.45-5.567 20.998 4.934 23.776l59.895 15.144c3.938 1.042 8.01 4.226 9.109 8.028l21.253 57.586c3.297 11.405 17.118 12.253 23.839 2.796z" fill="#FF6680"/><path opacity=".5" d="M87.474 303.84c9.59-5.534 7.938-26.339-3.69-46.468-11.628-20.129-28.829-31.961-38.42-26.427-9.59 5.535-7.938 26.339 3.69 46.469 11.628 20.129 28.83 31.96 38.42 26.426z" fill="#F35"/><path d="M244.097 143.995c2.381-.501 4.01-2.881 3.634-5.261-1.629-10.773-3.76-22.547-5.138-29.687-3.635-18.037-34.966-25.678-46.119-4.76-6.016 11.149-2.382 8.017-15.917 29.687-4.887 7.766 2.883 13.653 12.909-1.503 5.514-8.393 5.765-9.019 5.389 3.382-.251 9.269-5.515 24.05-8.773 31.064-3.634 7.516 7.645 8.017 10.903 1.002 4.261-9.144 7.394-29.436 10.277-29.561 3.133-.125 3.133 20.417 7.895 32.943 3.76 9.77 12.533 9.52 11.154-.25-1.755-12.902-7.519-27.307-5.264-27.683 0 0 7.018 8.017 12.157-1.252 0 0 3.133 2.63 6.893 1.879 0 .125 0 .125 0 0z" fill="#E4B681"/><path d="M243.472 39.654L231.19 95.018l-21.18-1.378-1.629-.125-6.391-50.229c1.253-.376 2.506-.752 3.634-1.127 2.131-.627 4.136-1.128 6.141-1.629 10.778-2.63 21.43-2.755 31.707-.876z" fill="#E4B681"/><path opacity=".1" d="M193.968 172.804s5.013.125 7.144-5.01c2.255-5.011 4.135-11.9 6.642-21.921 0 0 1.253-4.76 2.757-7.14 0 0-4.637 5.888-7.269 17.537-2.632 11.649-6.266 15.281-9.274 16.534zM198.23 126.458s-.501-.501-4.136 5.387c-3.76 5.887-8.272 10.397-11.906 10.271 0 0 9.525-6.764 11.655-10.772-.125-.126 2.883-5.888 4.387-4.886zM210.136 93.014v.752c-.126.876-.251 1.252-.501 1.377-2.632 1.002-5.264 1.253-8.147 2.756.251-.25 2.758-2.88 6.768-4.259l-6.392-50.229c1.254-.375 2.507-.751 3.635-1.127 2.005 15.282 5.013 42.839 4.637 50.73z" fill="#000"/><path d="M263.272 170.299c-8.272 4.134-23.686 6.639-31.456 7.14-8.397.501-3.384 10.522 4.261 10.146 10.151-.626 29.325-7.641 30.829-5.136 1.629 2.631-16.417 12.526-25.19 22.672-6.893 8.017-2.381 15.532 5.64 9.645 10.527-7.766 20.428-19.666 21.806-17.912 0 0-3.76 10.021 6.893 10.021 0 0-.877 4.008 1.629 6.889l.125.125c1.63 1.879 4.387 2.13 6.392.627 8.773-6.514 18.047-14.029 23.561-18.664 14.161-11.774 5.765-42.964-17.921-42.839 0 0-17.045-1.252-18.799 1.128-1.755 2.38-7.77 16.158-7.77 16.158z" fill="#B68554"/><path d="M357.514 167.919l-43.487 16.66-.877.375-13.786-28.433-.877-1.879 44.74-25.804c.502 1.002 1.003 2.13 1.504 3.132 6.016 12.275 10.277 24.551 12.783 35.949z" fill="#B68554"/><path opacity=".1" d="M274.678 160.654c-3.384 1.628-9.275 7.516-10.904 9.269 0 0-.125 0 0 0l7.269-9.77c.125-.125.251-.251.501-.125l3.259.501c0-.251 0 0-.125.125zM228.305 183.577s2.256 4.384 7.77 4.008c5.515-.376 12.407-2.13 22.433-4.635 0 0 4.763-1.252 7.52-1.002 0 0-7.394-1.378-18.924 2.004-11.405 3.132-16.167 1.629-18.799-.375zM344.857 131.97c-13.535 7.891-34.589 20.041-43.613 23.799-.626.25-1.253.501-1.754.626-1.128.376-1.88.501-2.256.501-4.136-1.252-3.008-2.505-9.399-4.008 0 0 2.005 0 4.637.25h.125c1.379.126 3.008.376 4.512.877h.125c.251.126.627.126.877.251.126.125.376.125.502.25l44.74-25.803c.501 1.127 1.003 2.129 1.504 3.257z" fill="#000"/><path d="M117.394 153.264l-8.272 34.196-.751 2.881-50.255-3.257c-1.254-2.505-2.256-5.01-3.133-7.516-3.886-12.024-2.883-24.049 1.754-35.573l60.156 9.019.501.25z" fill="#825331"/><path d="M158.627 152.512c-.251-2.505-2.507-4.258-5.013-4.133-10.903.626-22.809 1.753-29.953 2.505-18.297 2.004-28.699 32.567-8.772 45.469 10.652 6.889 7.77 3.132 28.198 18.413 7.394 5.512 13.911-1.753-.376-13.027-7.896-6.263-8.522-6.513 3.759-5.135 9.149 1.127 23.436 7.515 30.203 11.524 7.269 4.258 8.648-6.89 2.006-10.773-8.773-5.135-28.7-9.895-28.574-12.776.125-3.132 20.553-1.253 33.587-5.011 10.151-2.881 10.652-11.649.752-11.148-13.034.627-27.822 5.011-28.073 2.756 0 0 8.647-6.263-.251-12.15 0 .25 3.008-2.631 2.507-6.514 0 .126 0 .126 0 0z" fill="#825331"/><path opacity=".1" d="M182.814 203.493c-.25-1.629-1.128-4.259-4.261-6.013-4.887-2.63-11.529-5.135-21.305-8.517 0 0-4.637-1.629-6.767-3.257 0 0 5.389 5.136 16.793 8.768 9.4 3.006 13.159 6.138 14.788 8.894l.752.125zM136.948 196.604s-.502.375 5.013 4.634c5.514 4.259 9.65 9.27 9.149 12.777 0 0-6.016-10.021-9.776-12.526 0 0-5.514-3.382-4.386-4.885zM116.643 197.606c-4.637-2.38-7.268-5.887-8.02-6.889 0 0 0-.126-.126-.126 0-.125-.125-.125-.125-.125l-50.255-3.257c-1.253-2.505-2.256-5.01-3.133-7.515 27.32 5.511 44.74 6.388 51.007 6.513h2.632c.125.376.25.877.501 1.253 2.13 4.76 7.143 9.77 7.519 10.146z" fill="#000"/><path d="M149.23 221.405c-2.256-1.002-4.888-.125-6.141 2.129-5.138 9.645-10.402 20.292-13.41 26.931-7.77 16.659 12.909 41.461 34.339 31.189 11.405-5.511 6.768-5.01 30.454-14.53 8.522-3.382 5.765-12.776-11.279-6.513-9.525 3.507-10.026 3.883-2.382-5.887 5.765-7.265 18.674-16.033 25.441-19.791 7.394-4.009-1.378-11.023-8.146-7.265-8.898 4.885-23.435 19.29-25.817 17.787-2.631-1.754 9.65-18.288 13.285-31.19 2.882-10.146-4.387-15.031-9.149-6.388-6.266 11.398-10.151 26.429-12.282 25.427 0 0-.877-10.647-10.527-6.137 0-.126-.877-4.134-4.386-5.762 0 0 0 .125 0 0z" fill="#4C2F19"/><path d="M153.614 284.034l-16.793 25.052c-1.128-1.628-2.381-3.256-3.509-5.01-5.264-7.641-10.527-16.66-17.044-27.557l12.407-12.651 21.18 17.16 3.759 3.006z" fill="#4C2F19"/><path opacity=".1" d="M206.625 228.169s-3.885-3.006-8.772-.251c-4.763 2.756-10.402 7.14-18.297 13.779 0 0-3.886 3.131-6.392 4.133 0 0 7.269-1.879 16.292-9.77 8.898-8.016 13.911-8.643 17.169-7.891zM175.547 262.991s.125.626 6.517-1.879c6.516-2.505 12.908-3.507 15.665-1.253 0 0-11.655-.125-15.791 1.879.126 0-5.639 3.007-6.391 1.253zM172.037 277.396c-11.53 7.891-18.422 6.638-18.422 6.638l-16.794 25.052c-1.128-1.628-2.381-3.256-3.509-5.01 8.272-10.898 12.909-17.536 15.039-20.668 1.128-1.628 1.504-2.38 1.504-2.38 6.391 1.002 21.43-3.382 22.182-3.632z" fill="#000"/><path d="M213.896 268.126c-1.754 1.754-1.629 4.635 0 6.514 7.52 8.017 15.916 16.409 21.18 21.419 13.284 12.777 43.362 1.128 40.605-22.421-1.504-12.526 9.399-9.645-8.146-28.183-7.018-7.516-17.044-4.009-4.888 6.137 6.893 5.637-.25 7.892-7.018-2.505-5.013-7.766-9.274-22.797-10.527-30.438-1.379-8.267-10.903-2.255-9.525 5.386 1.755 10.021 10.778 28.309 8.522 30.062-2.506 1.879-14.161-14.905-25.315-22.546-8.647-5.887-15.666-.627-9.023 6.639 8.772 9.519 21.806 18.162 20.177 19.79 0 0-10.402-2.63-9.274 8.017 0-.376-4.136-.751-6.768 2.129 0-.125.126-.125 0 0z" fill="#FDDBB4"/><path d="M303.63 318.606c-1.754 2.004-3.634 4.008-5.514 6.012-8.647 9.019-18.297 16.535-28.574 22.046l-29.326-47.223 32.835-24.049 2.507-1.879 28.072 45.093z" fill="#FDDBB4"/><path opacity=".1" d="M265.405 255.727s1.253-1.128-2.883-4.635c-4.136-3.382-5.765-6.514-5.389-8.017 0 0 1.629 3.257 6.141 6.764 4.512 3.508 2.131 5.888 2.131 5.888zM238.208 216.019s-4.511 2.881-1.88 11.273c2.758 8.392 6.267 18.288 6.267 18.288s2.256 6.138 1.629 8.017c0 0 1.504-5.637-2.883-18.288-4.261-12.526-3.133-19.29-3.133-19.29zM303.627 318.606c-1.755 2.004-.752 1.002-2.632 2.881-12.783-21.92-19.926-32.943-24.313-40.709-1.378-2.38-3.133-3.758-3.509-5.387-1.504-5.386-.25-6.889.878-8.267 2.631-3.632 2.882-9.77 2.882-9.77.125.251.501.877.752 2.004v.251c.125.877.125 2.004-.251 3.382v.125c-.125.376-.25.752-.376 1.002 0 .125-.125.251-.125.501v.125c-.251.501-.376 1.128-.501 1.629v.25a16.89 16.89 0 0 0-.627 4.635v2.38l27.822 44.968z" fill="#000"/><path d="M212.017 183.576l3.509 6.764c.25.501.752.877 1.253.877l7.519 1.002c1.379.126 1.88 1.879 1.003 2.881l-5.389 5.386c-.376.376-.501 1.002-.501 1.504l1.378 7.515c.251 1.378-1.128 2.38-2.381 1.754l-6.767-3.382c-.502-.251-1.128-.251-1.504 0l-6.642 3.632c-1.254.626-2.632-.376-2.507-1.753l1.128-7.516c.125-.501-.125-1.127-.501-1.503l-5.514-5.261c-1.003-1.002-.502-2.63.877-2.881l7.519-1.253c.501-.125 1.003-.375 1.253-.876l3.259-6.89a1.674 1.674 0 0 1 3.008 0z" fill="#FFBF00"/></svg>