<svg width="200" height="205" viewBox="0 0 200 205" fill="none" xmlns="http://www.w3.org/2000/svg">
<path d="M117.763 203.327C163.466 195.363 183.205 171.115 186.096 106.154C188.987 41.1932 134.626 29.8571 88.9225 37.8212C43.2193 45.7854 25.306 83.4193 20.5899 134.995C15.8738 186.57 72.06 211.291 117.763 203.327Z" fill="#4C97FF" fill-opacity="0.15"/>
<path d="M72.3557 151.333H30.311C28.4824 151.333 27 152.816 27 154.644V196.689C27 198.518 28.4824 200 30.311 200H72.3557C74.1843 200 75.6667 198.518 75.6667 196.689V154.644C75.6667 152.816 74.1843 151.333 72.3557 151.333Z" fill="#CF63CF"/>
<path d="M121.138 102.667H78.8619C77.0972 102.667 75.6667 104.097 75.6667 105.862V148.138C75.6667 149.903 77.0972 151.333 78.8619 151.333H121.138C122.903 151.333 124.333 149.903 124.333 148.138V105.862C124.333 104.097 122.903 102.667 121.138 102.667Z" fill="#9966FF"/>
<path d="M170.094 54H127.239C125.634 54 124.333 55.3011 124.333 56.9061V99.7605C124.333 101.366 125.634 102.667 127.239 102.667H170.094C171.699 102.667 173 101.366 173 99.7605V56.9061C173 55.3011 171.699 54 170.094 54Z" fill="#4D97FF"/>
<path d="M169.834 102.667H127.5C125.751 102.667 124.333 104.084 124.333 105.833V148.167C124.333 149.916 125.751 151.333 127.5 151.333H169.834C171.582 151.333 173 149.916 173 148.167V105.833C173 104.084 171.582 102.667 169.834 102.667Z" fill="#FFAB1A"/>
<path d="M169.935 151.333H127.398C125.706 151.333 124.333 152.706 124.333 154.398V196.935C124.333 198.628 125.706 200 127.398 200H169.935C171.628 200 173 198.628 173 196.935V154.398C173 152.706 171.628 151.333 169.935 151.333Z" fill="#FF6680"/>
<path d="M121.181 151.333H78.8186C77.0778 151.333 75.6667 152.744 75.6667 154.485V196.848C75.6667 198.589 77.0778 200 78.8186 200H121.181C122.922 200 124.333 198.589 124.333 196.848V154.485C124.333 152.744 122.922 151.333 121.181 151.333Z" fill="#59C059"/>
<path fill-rule="evenodd" clip-rule="evenodd" d="M94.4938 72.1533C95.3036 71.936 95.936 71.3036 96.1533 70.4938L96.6482 68.6527C96.8834 67.7824 98.118 67.7824 98.3518 68.6527L98.8481 70.4938C99.0653 71.3036 99.6978 71.936 100.506 72.1533L102.347 72.6482C103.218 72.8834 103.218 74.118 102.347 74.3531L100.506 74.8481C99.6978 75.0653 99.0653 75.6978 98.8481 76.5062L98.3518 78.3473C98.118 79.2176 96.8834 79.2176 96.6482 78.3473L96.1533 76.5062C95.936 75.6978 95.3036 75.0653 94.4938 74.8481L92.6527 74.3531C91.7824 74.118 91.7824 72.8834 92.6527 72.6482L94.4938 72.1533Z" fill="white"/>
<path fill-rule="evenodd" clip-rule="evenodd" d="M85.8136 84.0206C86.4026 83.8626 86.8626 83.4026 87.0206 82.8136L87.3805 81.4747C87.5515 80.8418 88.4495 80.8418 88.6195 81.4747L88.9804 82.8136C89.1384 83.4026 89.5984 83.8626 90.1864 84.0206L91.5253 84.3805C92.1582 84.5515 92.1582 85.4495 91.5253 85.6205L90.1864 85.9804C89.5984 86.1384 89.1384 86.5984 88.9804 87.1864L88.6195 88.5253C88.4495 89.1582 87.5515 89.1582 87.3805 88.5253L87.0206 87.1864C86.8626 86.5984 86.4026 86.1384 85.8136 85.9804L84.4747 85.6205C83.8418 85.4495 83.8418 84.5515 84.4747 84.3805L85.8136 84.0206Z" fill="white"/>
<path d="M157.084 23.6076C152.173 24.7516 148.522 27.7436 146.945 31.3956C150.64 33.8156 155.642 34.8276 160.554 33.6836C166.052 32.4076 170.873 31.3076 172 26.8636C168.26 23.7396 162.627 22.3316 157.084 23.6076Z" fill="#2F9B73"/>
<path d="M138.879 20.5715C134.418 18.5475 129.281 18.5475 125 20.1755C125.496 24.0475 128.199 27.6556 132.661 29.6796C137.663 31.9676 141.989 33.9916 146.63 31.5276C146.675 27.1275 143.881 22.8595 138.879 20.5715Z" fill="#2F9B73"/>
<path d="M145.098 30.5595C144.692 36.2355 144.422 41.9996 144.647 47.7196C144.692 49.3476 144.782 51.0196 145.188 52.6036C145.413 53.5716 146.585 54.2316 147.576 53.9236C148.613 53.6156 149.199 52.6036 148.928 51.5916C148.883 51.3276 148.838 51.1076 148.793 50.8436C148.748 50.6676 148.748 50.0956 148.793 50.7996C148.793 50.6236 148.748 50.4476 148.748 50.2716C148.658 49.5676 148.613 48.8196 148.613 48.1156C148.523 46.3116 148.523 44.5076 148.568 42.7476C148.613 39.4035 148.748 36.0155 148.928 32.6715C148.973 31.9675 149.018 31.2195 149.063 30.5155C149.153 29.5035 148.117 28.5795 147.126 28.6235C145.954 28.6675 145.188 29.4595 145.098 30.5595Z" fill="#CB722A"/>
<path d="M50.1159 25.1916C44.0542 24.1935 35.5529 23.2863 28.4736 30.9678C21.3943 38.6493 19.6061 48.5174 24.4795 53.0088C29.3529 57.5001 36.6298 55.0094 46.1219 47.2325C55.6139 39.4556 56.1777 26.1896 50.1159 25.1916Z" fill="#4C97FF" fill-opacity="0.15"/>
</svg>
