<svg width="200" height="200" viewBox="0 0 200 200" fill="none" xmlns="http://www.w3.org/2000/svg">
<rect width="200" height="200" fill="#C4C4C4"/>
<path d="M50.501 99.56V94.32H54.221C55.301 94.32 56.0877 94.5467 56.581 95C57.0877 95.44 57.341 96.0867 57.341 96.94C57.341 97.7933 57.0877 98.4467 56.581 98.9C56.0877 99.3533 55.301 99.5733 54.221 99.56H50.501ZM48.601 92.72V107H50.501V101.16H54.861C56.301 101.173 57.3877 100.807 58.121 100.06C58.8677 99.3133 59.241 98.2733 59.241 96.94C59.241 95.6067 58.8677 94.5733 58.121 93.84C57.3877 93.0933 56.301 92.72 54.861 92.72H48.601ZM61.3898 92.72V107H63.0898V92.72H61.3898ZM74.8834 106.96C74.59 107.133 74.1834 107.22 73.6634 107.22C73.2234 107.22 72.87 107.1 72.6034 106.86C72.35 106.607 72.2234 106.2 72.2234 105.64C71.7567 106.2 71.21 106.607 70.5834 106.86C69.97 107.1 69.3034 107.22 68.5834 107.22C68.1167 107.22 67.67 107.167 67.2434 107.06C66.83 106.953 66.47 106.787 66.1634 106.56C65.8567 106.333 65.61 106.04 65.4234 105.68C65.25 105.307 65.1634 104.86 65.1634 104.34C65.1634 103.753 65.2634 103.273 65.4634 102.9C65.6634 102.527 65.9234 102.227 66.2434 102C66.5767 101.76 66.95 101.58 67.3634 101.46C67.79 101.34 68.2234 101.24 68.6634 101.16C69.13 101.067 69.57 101 69.9834 100.96C70.41 100.907 70.7834 100.84 71.1034 100.76C71.4234 100.667 71.6767 100.54 71.8634 100.38C72.05 100.207 72.1434 99.96 72.1434 99.64C72.1434 99.2667 72.07 98.9667 71.9234 98.74C71.79 98.5133 71.61 98.34 71.3834 98.22C71.17 98.1 70.9234 98.02 70.6434 97.98C70.3767 97.94 70.11 97.92 69.8434 97.92C69.1234 97.92 68.5234 98.06 68.0434 98.34C67.5634 98.6067 67.3034 99.12 67.2634 99.88H65.5634C65.59 99.24 65.7234 98.7 65.9634 98.26C66.2034 97.82 66.5234 97.4667 66.9234 97.2C67.3234 96.92 67.7767 96.72 68.2834 96.6C68.8034 96.48 69.3567 96.42 69.9434 96.42C70.41 96.42 70.87 96.4533 71.3234 96.52C71.79 96.5867 72.21 96.7267 72.5834 96.94C72.9567 97.14 73.2567 97.4267 73.4834 97.8C73.71 98.1733 73.8234 98.66 73.8234 99.26V104.58C73.8234 104.98 73.8434 105.273 73.8834 105.46C73.9367 105.647 74.0967 105.74 74.3634 105.74C74.51 105.74 74.6834 105.707 74.8834 105.64V106.96ZM72.1234 101.66C71.91 101.82 71.63 101.94 71.2834 102.02C70.9367 102.087 70.57 102.147 70.1834 102.2C69.81 102.24 69.43 102.293 69.0434 102.36C68.6567 102.413 68.31 102.507 68.0034 102.64C67.6967 102.773 67.4434 102.967 67.2434 103.22C67.0567 103.46 66.9634 103.793 66.9634 104.22C66.9634 104.5 67.0167 104.74 67.1234 104.94C67.2434 105.127 67.39 105.28 67.5634 105.4C67.75 105.52 67.9634 105.607 68.2034 105.66C68.4434 105.713 68.6967 105.74 68.9634 105.74C69.5234 105.74 70.0034 105.667 70.4034 105.52C70.8034 105.36 71.13 105.167 71.3834 104.94C71.6367 104.7 71.8234 104.447 71.9434 104.18C72.0634 103.9 72.1234 103.64 72.1234 103.4V101.66ZM83.4855 99.98H85.2455C85.1789 99.3667 85.0189 98.84 84.7655 98.4C84.5122 97.9467 84.1855 97.5733 83.7855 97.28C83.3989 96.9867 82.9455 96.7733 82.4255 96.64C81.9189 96.4933 81.3722 96.42 80.7855 96.42C79.9722 96.42 79.2589 96.5667 78.6455 96.86C78.0322 97.14 77.5189 97.5333 77.1055 98.04C76.7055 98.5333 76.4055 99.12 76.2055 99.8C76.0055 100.467 75.9055 101.187 75.9055 101.96C75.9055 102.733 76.0055 103.447 76.2055 104.1C76.4189 104.74 76.7255 105.293 77.1255 105.76C77.5389 106.227 78.0455 106.587 78.6455 106.84C79.2589 107.093 79.9589 107.22 80.7455 107.22C82.0655 107.22 83.1055 106.873 83.8655 106.18C84.6389 105.487 85.1189 104.5 85.3055 103.22H83.5655C83.4589 104.02 83.1655 104.64 82.6855 105.08C82.2189 105.52 81.5655 105.74 80.7255 105.74C80.1922 105.74 79.7322 105.633 79.3455 105.42C78.9589 105.207 78.6455 104.927 78.4055 104.58C78.1655 104.22 77.9855 103.813 77.8655 103.36C77.7589 102.907 77.7055 102.44 77.7055 101.96C77.7055 101.44 77.7589 100.94 77.8655 100.46C77.9722 99.9667 78.1455 99.5333 78.3855 99.16C78.6389 98.7867 78.9722 98.4867 79.3855 98.26C79.7989 98.0333 80.3122 97.92 80.9255 97.92C81.6455 97.92 82.2189 98.1 82.6455 98.46C83.0722 98.82 83.3522 99.3267 83.4855 99.98ZM94.3877 100.84H88.4477C88.4744 100.44 88.5611 100.067 88.7077 99.72C88.8544 99.36 89.0544 99.0467 89.3077 98.78C89.5611 98.5133 89.8611 98.3067 90.2077 98.16C90.5677 98 90.9677 97.92 91.4077 97.92C91.8344 97.92 92.2211 98 92.5677 98.16C92.9277 98.3067 93.2344 98.5133 93.4877 98.78C93.7544 99.0333 93.9611 99.34 94.1077 99.7C94.2677 100.06 94.3611 100.44 94.3877 100.84ZM96.0277 103.72H94.3477C94.2011 104.4 93.8944 104.907 93.4277 105.24C92.9744 105.573 92.3877 105.74 91.6677 105.74C91.1077 105.74 90.6211 105.647 90.2077 105.46C89.7944 105.273 89.4544 105.027 89.1877 104.72C88.9211 104.4 88.7277 104.04 88.6077 103.64C88.4877 103.227 88.4344 102.793 88.4477 102.34H96.1877C96.2144 101.713 96.1544 101.053 96.0077 100.36C95.8744 99.6667 95.6211 99.0267 95.2477 98.44C94.8877 97.8533 94.4011 97.3733 93.7877 97C93.1877 96.6133 92.4277 96.42 91.5077 96.42C90.8011 96.42 90.1477 96.5533 89.5477 96.82C88.9611 97.0867 88.4477 97.46 88.0077 97.94C87.5811 98.42 87.2477 98.9867 87.0077 99.64C86.7677 100.293 86.6477 101.013 86.6477 101.8C86.6744 102.587 86.7877 103.313 86.9877 103.98C87.2011 104.647 87.5144 105.22 87.9277 105.7C88.3411 106.18 88.8477 106.553 89.4477 106.82C90.0611 107.087 90.7811 107.22 91.6077 107.22C92.7811 107.22 93.7544 106.927 94.5277 106.34C95.3011 105.753 95.8011 104.88 96.0277 103.72ZM97.9499 92.72V107H99.6499V101.16C99.6499 100.693 99.7099 100.267 99.8299 99.88C99.9633 99.48 100.157 99.1333 100.41 98.84C100.663 98.5467 100.977 98.32 101.35 98.16C101.737 98 102.19 97.92 102.71 97.92C103.363 97.92 103.877 98.1067 104.25 98.48C104.623 98.8533 104.81 99.36 104.81 100V107H106.51V100.2C106.51 99.64 106.45 99.1333 106.33 98.68C106.223 98.2133 106.03 97.8133 105.75 97.48C105.47 97.1467 105.103 96.8867 104.65 96.7C104.197 96.5133 103.63 96.42 102.95 96.42C102.643 96.42 102.323 96.4533 101.99 96.52C101.67 96.5867 101.357 96.6933 101.05 96.84C100.757 96.9733 100.49 97.1533 100.25 97.38C100.01 97.5933 99.8233 97.86 99.6899 98.18H99.6499V92.72H97.9499ZM110.303 101.84C110.303 101.213 110.383 100.66 110.543 100.18C110.717 99.6867 110.95 99.2733 111.243 98.94C111.537 98.6067 111.877 98.3533 112.263 98.18C112.663 98.0067 113.083 97.92 113.523 97.92C113.963 97.92 114.377 98.0067 114.763 98.18C115.163 98.3533 115.51 98.6067 115.803 98.94C116.097 99.2733 116.323 99.6867 116.483 100.18C116.657 100.66 116.743 101.213 116.743 101.84C116.743 102.467 116.657 103.027 116.483 103.52C116.323 104 116.097 104.407 115.803 104.74C115.51 105.06 115.163 105.307 114.763 105.48C114.377 105.653 113.963 105.74 113.523 105.74C113.083 105.74 112.663 105.653 112.263 105.48C111.877 105.307 111.537 105.06 111.243 104.74C110.95 104.407 110.717 104 110.543 103.52C110.383 103.027 110.303 102.467 110.303 101.84ZM108.503 101.84C108.503 102.6 108.61 103.307 108.823 103.96C109.037 104.613 109.357 105.187 109.783 105.68C110.21 106.16 110.737 106.54 111.363 106.82C111.99 107.087 112.71 107.22 113.523 107.22C114.35 107.22 115.07 107.087 115.683 106.82C116.31 106.54 116.837 106.16 117.263 105.68C117.69 105.187 118.01 104.613 118.223 103.96C118.437 103.307 118.543 102.6 118.543 101.84C118.543 101.08 118.437 100.373 118.223 99.72C118.01 99.0533 117.69 98.48 117.263 98C116.837 97.5067 116.31 97.12 115.683 96.84C115.07 96.56 114.35 96.42 113.523 96.42C112.71 96.42 111.99 96.56 111.363 96.84C110.737 97.12 110.21 97.5067 109.783 98C109.357 98.48 109.037 99.0533 108.823 99.72C108.61 100.373 108.503 101.08 108.503 101.84ZM120.648 92.72V107H122.348V92.72H120.648ZM126.221 101.92C126.221 101.413 126.275 100.92 126.381 100.44C126.488 99.96 126.661 99.5333 126.901 99.16C127.141 98.7867 127.461 98.4867 127.861 98.26C128.261 98.0333 128.748 97.92 129.321 97.92C129.908 97.92 130.408 98.0333 130.821 98.26C131.235 98.4733 131.568 98.76 131.821 99.12C132.088 99.48 132.281 99.9 132.401 100.38C132.521 100.847 132.581 101.333 132.581 101.84C132.581 102.32 132.521 102.793 132.401 103.26C132.295 103.727 132.115 104.147 131.861 104.52C131.608 104.88 131.281 105.173 130.881 105.4C130.481 105.627 129.995 105.74 129.421 105.74C128.875 105.74 128.395 105.633 127.981 105.42C127.581 105.207 127.248 104.92 126.981 104.56C126.728 104.2 126.535 103.793 126.401 103.34C126.281 102.873 126.221 102.4 126.221 101.92ZM134.221 107V92.72H132.521V98.04H132.481C132.295 97.7333 132.061 97.48 131.781 97.28C131.515 97.0667 131.228 96.9 130.921 96.78C130.615 96.6467 130.308 96.5533 130.001 96.5C129.695 96.4467 129.408 96.42 129.141 96.42C128.355 96.42 127.661 96.5667 127.061 96.86C126.475 97.14 125.981 97.5267 125.581 98.02C125.195 98.5 124.901 99.0667 124.701 99.72C124.515 100.373 124.421 101.067 124.421 101.8C124.421 102.533 124.521 103.227 124.721 103.88C124.921 104.533 125.215 105.107 125.601 105.6C126.001 106.093 126.495 106.487 127.081 106.78C127.681 107.073 128.381 107.22 129.181 107.22C129.901 107.22 130.561 107.093 131.161 106.84C131.761 106.587 132.201 106.173 132.481 105.6H132.521V107H134.221ZM144.017 100.84H138.077C138.103 100.44 138.19 100.067 138.337 99.72C138.483 99.36 138.683 99.0467 138.937 98.78C139.19 98.5133 139.49 98.3067 139.837 98.16C140.197 98 140.597 97.92 141.037 97.92C141.463 97.92 141.85 98 142.197 98.16C142.557 98.3067 142.863 98.5133 143.117 98.78C143.383 99.0333 143.59 99.34 143.737 99.7C143.897 100.06 143.99 100.44 144.017 100.84ZM145.657 103.72H143.977C143.83 104.4 143.523 104.907 143.057 105.24C142.603 105.573 142.017 105.74 141.297 105.74C140.737 105.74 140.25 105.647 139.837 105.46C139.423 105.273 139.083 105.027 138.817 104.72C138.55 104.4 138.357 104.04 138.237 103.64C138.117 103.227 138.063 102.793 138.077 102.34H145.817C145.843 101.713 145.783 101.053 145.637 100.36C145.503 99.6667 145.25 99.0267 144.877 98.44C144.517 97.8533 144.03 97.3733 143.417 97C142.817 96.6133 142.057 96.42 141.137 96.42C140.43 96.42 139.777 96.5533 139.177 96.82C138.59 97.0867 138.077 97.46 137.637 97.94C137.21 98.42 136.877 98.9867 136.637 99.64C136.397 100.293 136.277 101.013 136.277 101.8C136.303 102.587 136.417 103.313 136.617 103.98C136.83 104.647 137.143 105.22 137.557 105.7C137.97 106.18 138.477 106.553 139.077 106.82C139.69 107.087 140.41 107.22 141.237 107.22C142.41 107.22 143.383 106.927 144.157 106.34C144.93 105.753 145.43 104.88 145.657 103.72ZM147.519 96.66V107H149.219V102.4C149.219 101.733 149.285 101.147 149.419 100.64C149.552 100.12 149.765 99.68 150.059 99.32C150.352 98.96 150.739 98.6867 151.219 98.5C151.699 98.3133 152.279 98.22 152.959 98.22V96.42C152.039 96.3933 151.279 96.58 150.679 96.98C150.079 97.38 149.572 98 149.159 98.84H149.119V96.66H147.519Z" fill="black"/>
</svg>
