<svg width="200" height="200" viewBox="0 0 200 200" fill="none" xmlns="http://www.w3.org/2000/svg">
<g clip-path="url(#clip0_559_11418)">
<path d="M10 114.251C10 67.8586 31.5 26.3833 94 30.2506C156.5 34.1178 178 67.8586 178 114.251C178 160.642 154 186.118 94 198.251C34 210.383 10 160.642 10 114.251Z" fill="#4C97FF" fill-opacity="0.15"/>
<path d="M147.827 15.1371C152.057 8.4539 161.354 5.96945 177.033 16.6732C192.713 27.3769 195.151 35.728 190.922 42.4111C186.692 49.0943 178.213 48.8679 161.716 40.875C145.219 32.8821 143.598 21.8202 147.827 15.1371Z" fill="#4C97FF" fill-opacity="0.15"/>
<path d="M91.75 18.4745C93.4517 17.492 95.5483 17.492 97.25 18.4745L132.984 39.1057C134.686 40.0881 135.734 41.9038 135.734 43.8688V85.1312C135.734 87.0962 134.686 88.9119 132.984 89.8943L97.25 110.526C95.5483 111.508 93.4517 111.508 91.75 110.526L56.0157 89.8943C54.314 88.9119 53.2657 87.0962 53.2657 85.1312V43.8688C53.2657 41.9038 54.314 40.0881 56.0157 39.1057L91.75 18.4745Z" fill="#0DA57A" stroke="#0B8E69" stroke-width="5"/>
<path d="M48.5414 94.4223C50.2431 93.4399 52.3397 93.4399 54.0414 94.4223L89.7757 115.054C91.4774 116.036 92.5257 117.852 92.5257 119.817V161.079C92.5257 163.044 91.4774 164.86 89.7757 165.842L54.0414 186.473C52.3397 187.456 50.2431 187.456 48.5414 186.473L12.8071 165.842C11.1054 164.86 10.0571 163.044 10.0571 161.079V119.817C10.0571 117.852 11.1054 116.036 12.8071 115.054L48.5414 94.4223Z" fill="#FFAB19" stroke="#EC9C13" stroke-width="5"/>
<path d="M134.75 94.4745C136.452 93.492 138.548 93.492 140.25 94.4745L175.984 115.106C177.686 116.088 178.734 117.904 178.734 119.869V161.131C178.734 163.096 177.686 164.912 175.984 165.894L140.25 186.526C138.548 187.508 136.452 187.508 134.75 186.526L99.0157 165.894C97.314 164.912 96.2657 163.096 96.2657 161.131V119.869C96.2657 117.904 97.314 116.088 99.0157 115.106L134.75 94.4745Z" fill="#FF6680" stroke="#FF4D6A" stroke-width="5"/>
<g opacity="0.7">
<path fill-rule="evenodd" clip-rule="evenodd" d="M155.94 135.795C154.859 148.019 141.013 157.633 137.501 157.633C133.989 157.633 120.141 148.019 119.062 135.795C119.031 135.396 119 134.997 119 134.598C119 128.671 123.84 123.85 129.793 123.85C132.814 123.85 135.559 125.077 137.501 127.105C139.443 125.077 142.188 123.85 145.209 123.85C151.16 123.85 156 128.671 156 134.598C156 134.997 155.969 135.396 155.94 135.795Z" fill="white"/>
</g>
<g opacity="0.7">
<path fill-rule="evenodd" clip-rule="evenodd" d="M54.4577 121.915L58.2606 129.618L66.7635 130.856C69.6608 131.276 70.8164 134.834 68.7219 136.879L62.5662 142.876L64.019 151.346C64.5135 154.229 61.4856 156.429 58.8967 155.068L51.291 151.068L43.6853 155.068C41.0936 156.429 38.0685 154.229 38.5602 151.346L40.0158 142.876L33.8629 136.879C31.7656 134.834 32.9212 131.276 35.8185 130.856L44.3242 129.618L48.1243 121.915C49.4215 119.292 53.1605 119.292 54.4577 121.915Z" fill="white"/>
</g>
<g opacity="0.7">
<path fill-rule="evenodd" clip-rule="evenodd" d="M82.0319 73.0074C79.1518 68.2843 78.9166 61.9812 81.4543 56.9844C84.0839 51.6139 88.5092 49.2335 90.2877 48.4595C91.3567 47.963 92.4831 47.576 93.6956 47.291L94.8851 47.0343C95.7591 46.8549 96.6292 47.3967 96.8185 48.2613C97.0098 49.1277 96.4533 49.981 95.5755 50.1698L94.4185 50.4189C93.4565 50.6455 92.5348 50.9626 91.6359 51.3817C90.4675 51.8876 86.6025 53.8452 84.3727 58.4021C82.6802 61.7302 82.1753 67.0214 84.8393 71.3877C87.2527 75.5936 92.1944 78.1722 96.8816 77.738C101.315 77.419 105.382 74.4685 106.809 70.5609C108.257 66.8855 107.295 63.1176 105.705 60.9958C103.791 58.3813 101.408 57.5772 100.473 57.3525C100.334 57.311 97.0595 56.3275 94.1679 57.7754C92.923 58.3719 91.3127 59.7141 90.4502 61.7302C89.5189 63.8123 89.7599 66.4891 91.0221 68.2673C92.2919 70.1739 94.6862 71.2537 96.7459 70.8875C98.7959 70.5647 100.182 69.0394 100.511 67.6991C100.898 66.2588 100.305 65.0412 99.842 64.6033C99.056 63.8274 98.3771 63.8142 98.3484 63.8123C98.0272 63.8029 97.8684 63.8274 97.7728 63.8425C97.4056 63.9765 96.8855 64.271 96.7325 64.5806C96.7057 64.6316 96.6368 64.7713 96.7688 65.1205C97.0843 65.9492 96.6579 66.8761 95.8183 67.1876C94.9826 67.5009 94.0417 67.08 93.7243 66.2494C93.2022 64.8751 93.491 63.7991 93.8256 63.1384C94.6996 61.4187 96.7286 60.7957 96.9581 60.7297C97.0633 60.6976 97.1742 60.6787 97.2832 60.6693C97.507 60.6353 97.9009 60.5824 98.4345 60.6032C99.6565 60.6183 101.049 61.2563 102.116 62.3116C103.376 63.5008 104.363 65.8907 103.663 68.4882C102.98 71.2688 100.356 73.568 97.2947 74.0494C94.0016 74.6365 90.2934 73.0131 88.3351 70.0701C86.4476 67.4179 86.0862 63.5367 87.4669 60.4578C88.9815 56.9127 91.875 55.3081 92.7241 54.9004C96.807 52.8616 101.171 54.2076 101.355 54.2642C102.529 54.5417 105.793 55.6347 108.331 59.1025C110.282 61.7113 111.863 66.5835 109.853 71.6841C108.018 76.7111 102.791 80.53 97.1551 80.9358C96.7133 80.9773 96.2658 81 95.8203 81C90.3508 81 84.8106 77.8475 82.0319 73.0074Z" fill="white"/>
</g>
</g>
<defs>
<clipPath id="clip0_559_11418">
<rect width="200" height="200" fill="white"/>
</clipPath>
</defs>
</svg>
