<svg width="200" height="201" viewBox="0 0 200 201" fill="none" xmlns="http://www.w3.org/2000/svg">
<path d="M184 97C184 143.392 163.5 167 100 181C36.5 195 16 143.392 16 97C16 50.608 50 26.5 100 12.9999C150 -0.500111 184 50.608 184 97Z" fill="#4C97FF" fill-opacity="0.15"/>
<path d="M103.143 29H93.6243C90.4716 29 87.9158 31.5558 87.9158 34.7085V192.955C87.9158 196.107 90.4716 198.663 93.6243 198.663H103.143C106.296 198.663 108.851 196.107 108.851 192.955V34.7085C108.851 31.5558 106.296 29 103.143 29Z" fill="#CC9900"/>
<path d="M137.611 32.5933L66.4324 36.416C62.6097 36.6199 59.7809 40.5317 60.0613 45.1699L61.9599 81.5491C62.2147 86.1745 65.4767 89.7678 69.2612 89.564L140.172 85.7413C141.704 85.6439 143.158 85.0335 144.3 84.0083L166.217 64.7548C170.231 61.2252 169.836 53.7327 165.465 50.6618L141.395 33.7274C140.299 32.9303 138.964 32.5303 137.611 32.5933Z" fill="#E6AC00"/>
<path d="M61.7304 93.9855L131.189 97.8082C134.871 98.0248 137.662 101.937 137.407 106.575L135.368 142.98C135.113 147.605 131.902 151.198 128.22 150.994L59.0291 147.121C57.5266 147.017 56.1052 146.401 55.0025 145.375L33.6847 126.096C29.7856 122.566 30.2061 115.074 34.4747 112.003L58.0352 95.0559C59.1083 94.287 60.4125 93.9093 61.7304 93.9855Z" fill="#E6AC00"/>
<path d="M81.3269 197.677C81.2267 192.315 79.7677 187.022 77.035 182.106C77.0026 182.065 76.9922 182.016 77.0059 181.969C77.0196 181.923 77.0564 181.882 77.1081 181.857C77.1599 181.832 77.2223 181.824 77.2818 181.834C77.3412 181.845 77.3928 181.874 77.4251 181.914C80.1239 184.539 86.2042 191.203 86.0579 197.906L84.1557 185.419C84.1493 185.395 84.1489 185.371 84.1544 185.347C84.1599 185.324 84.1713 185.301 84.1879 185.281C84.2045 185.261 84.226 185.244 84.2512 185.23C84.2763 185.217 84.3047 185.207 84.3346 185.202C84.3645 185.197 84.3953 185.197 84.4254 185.201C84.4554 185.205 84.4841 185.214 84.5098 185.227C84.5355 185.24 84.5576 185.257 84.575 185.277C84.5923 185.296 84.6045 185.319 84.6109 185.342L89.4882 196.976C89.502 197.017 89.5325 197.053 89.5752 197.078C89.6178 197.104 89.6701 197.118 89.7239 197.118C89.7777 197.118 89.83 197.104 89.8727 197.078C89.9153 197.053 89.9459 197.017 89.9597 196.976C90.3818 191.673 91.1906 186.393 92.382 181.163C92.382 180.933 92.886 180.959 92.8535 181.163C92.3495 186.527 91.9431 196.772 96.105 197.855C96.1359 197.863 96.1686 197.866 96.201 197.864C96.2334 197.861 96.2649 197.854 96.2937 197.842C96.3225 197.83 96.3479 197.814 96.3686 197.794C96.3892 197.775 96.4046 197.752 96.4139 197.728L99.1614 191.509C99.1791 191.473 99.2103 191.442 99.2509 191.42C99.2916 191.399 99.3397 191.387 99.389 191.387C99.4383 191.387 99.4864 191.399 99.527 191.42C99.5677 191.442 99.5989 191.473 99.6166 191.509L101.405 197.651C101.411 197.681 101.427 197.709 101.452 197.733C101.476 197.756 101.507 197.775 101.543 197.786C101.579 197.798 101.618 197.802 101.656 197.798C101.695 197.795 101.731 197.784 101.763 197.766C102.64 197.333 105.209 195.561 105.209 189.267C105.912 191.797 106.126 194.396 105.843 196.976C105.836 197.016 105.846 197.057 105.872 197.093C105.897 197.128 105.936 197.157 105.983 197.174C106.03 197.191 106.083 197.196 106.134 197.188C106.185 197.18 106.231 197.159 106.266 197.129C108.986 193.719 110.365 189.757 110.233 185.737C110.233 185.737 110.932 194.555 108.607 197.88L115.744 186.718C115.775 186.685 115.82 186.661 115.87 186.649C115.921 186.637 115.975 186.639 116.024 186.653C116.074 186.667 116.116 186.694 116.145 186.729C116.173 186.763 116.187 186.804 116.183 186.846L112.801 197.74C112.793 197.782 112.765 197.82 112.723 197.846C112.681 197.872 112.627 197.884 112.574 197.88H81.5708C81.5374 197.881 81.5043 197.875 81.4736 197.865C81.4429 197.854 81.4152 197.839 81.3924 197.82C81.3695 197.801 81.3519 197.778 81.3406 197.754C81.3294 197.729 81.3247 197.703 81.3269 197.677Z" fill="#59C059"/>
<path d="M81.3269 197.498L80.6929 200.047H115.207C114.08 199.416 113.233 198.525 112.785 197.498" fill="#59C059"/>
<path d="M68.5093 199.746C68.6828 196.687 67.9563 193.644 66.4196 190.992C66.4196 190.992 71.3509 195.796 71.3509 199.746L72.4467 192.738L73.7209 199.746H68.5093Z" fill="#59C059"/>
<path fill-rule="evenodd" clip-rule="evenodd" d="M92.0319 70.0074C89.1518 65.2843 88.9166 58.9812 91.4543 53.9844C94.0839 48.6139 98.5092 46.2335 100.288 45.4595C101.357 44.963 102.483 44.576 103.696 44.291L104.885 44.0343C105.759 43.8549 106.629 44.3967 106.819 45.2613C107.01 46.1277 106.453 46.981 105.575 47.1698L104.418 47.4189C103.457 47.6455 102.535 47.9626 101.636 48.3817C100.467 48.8876 96.6025 50.8452 94.3727 55.4021C92.6802 58.7302 92.1753 64.0214 94.8393 68.3877C97.2527 72.5936 102.194 75.1722 106.882 74.738C111.315 74.419 115.382 71.4685 116.809 67.5609C118.257 63.8855 117.295 60.1176 115.705 57.9958C113.791 55.3813 111.408 54.5772 110.473 54.3525C110.334 54.311 107.059 53.3275 104.168 54.7754C102.923 55.3719 101.313 56.7141 100.45 58.7302C99.5189 60.8123 99.7599 63.4891 101.022 65.2673C102.292 67.1739 104.686 68.2537 106.746 67.8875C108.796 67.5647 110.182 66.0394 110.511 64.6991C110.898 63.2588 110.305 62.0412 109.842 61.6033C109.056 60.8274 108.377 60.8142 108.348 60.8123C108.027 60.8029 107.868 60.8274 107.773 60.8425C107.406 60.9765 106.885 61.271 106.732 61.5806C106.706 61.6316 106.637 61.7713 106.769 62.1205C107.084 62.9492 106.658 63.8761 105.818 64.1876C104.983 64.5009 104.042 64.08 103.724 63.2494C103.202 61.8751 103.491 60.7991 103.826 60.1384C104.7 58.4187 106.729 57.7957 106.958 57.7297C107.063 57.6976 107.174 57.6787 107.283 57.6693C107.507 57.6353 107.901 57.5824 108.434 57.6032C109.657 57.6183 111.049 58.2563 112.116 59.3116C113.376 60.5008 114.363 62.8907 113.663 65.4882C112.98 68.2688 110.356 70.568 107.295 71.0494C104.002 71.6365 100.293 70.0131 98.3351 67.0701C96.4476 64.4179 96.0862 60.5367 97.4669 57.4578C98.9815 53.9127 101.875 52.3081 102.724 51.9004C106.807 49.8616 111.171 51.2076 111.355 51.2642C112.529 51.5417 115.793 52.6347 118.331 56.1025C120.282 58.7113 121.863 63.5835 119.853 68.6841C118.018 73.7111 112.791 77.53 107.155 77.9358C106.713 77.9773 106.266 78 105.82 78C100.351 78 94.8106 74.8475 92.0319 70.0074Z" fill="#0DA57A"/>
<path fill-rule="evenodd" clip-rule="evenodd" d="M107.375 119.793C105.039 129.806 92.4215 136.15 89.5081 135.737C86.5947 135.323 76.2399 125.717 76.7846 115.45C76.8057 115.116 76.8268 114.781 76.8738 114.45C77.5718 109.534 82.1549 106.105 87.093 106.806C89.5988 107.162 91.7313 108.503 93.1034 110.413C94.9531 108.96 97.3747 108.266 99.8805 108.621C104.817 109.322 108.264 113.892 107.566 118.808C107.519 119.139 107.446 119.466 107.375 119.793Z" fill="#FF6680"/>
<path d="M174.428 171.791C174.428 177.5 174.041 185.324 167.088 188.706C160.135 192.088 152.148 189.999 149.249 184.039C146.35 178.08 149.249 172.596 156.59 167.124C163.93 161.652 174.428 166.082 174.428 171.791Z" fill="#4C97FF" fill-opacity="0.15"/>
</svg>
