<svg width="262" height="206" viewBox="0 0 262 206" fill="none" xmlns="http://www.w3.org/2000/svg">
<path d="M139 29.9978C109.269 73 101.757 61.1639 61.7119 57.8485C21.6668 54.5331 -19.4883 104.011 10.0394 145.722C35.5293 181.728 69.5702 135.799 109.269 187.977C135.986 223.094 156.826 200.462 175.574 174.532C194.323 148.603 262 178.854 262 130.836C262 82.8182 191.579 107.787 205.755 57.8485C219.93 7.90994 162.242 -3.61795 139 29.9978Z" fill="#9966FF" fill-opacity="0.3"/>
<path d="M112 23.2258C112 35.7472 109.404 47.206 89.5 45.8978C69.5962 44.5896 67 35.7472 67 23.2258C67 10.7043 76.0865 -2.93397 89.5 0.553719C102.913 4.04141 112 10.7043 112 23.2258Z" fill="#9966FF" fill-opacity="0.3"/>
</svg>
