<svg width="300" height="300" viewBox="0 0 300 300" fill="none" xmlns="http://www.w3.org/2000/svg">
<g id="Donate Illustration">
<g id="Donate">
<g id="Group 3">
<mask id="mask0_2_7122" style="mask-type:alpha" maskUnits="userSpaceOnUse" x="12" y="24" width="276" height="252">
<path id="Clip 2" fill-rule="evenodd" clip-rule="evenodd" d="M12 24H288V275.999H12V24Z" fill="white"/>
</mask>
<g mask="url(#mask0_2_7122)">
<path id="Fill 1" fill-rule="evenodd" clip-rule="evenodd" d="M287.553 113.1C279.488 204.285 176.208 275.999 150.009 275.999C123.81 275.999 20.5129 204.285 12.4649 113.1C12.2329 110.125 11.9999 107.151 11.9999 104.176C11.9999 59.9644 48.1079 23.9994 92.5129 23.9994C112.404 23.9994 130.692 31.1344 144.671 43.2094C147.733 45.8534 152.285 45.8534 155.347 43.2094C169.326 31.1344 187.615 23.9994 207.505 23.9994C251.893 23.9994 288 59.9644 288 104.176C288 107.151 287.768 110.125 287.553 113.1Z" fill="#0DA57A"/>
</g>
</g>
<path id="Fill 4" fill-rule="evenodd" clip-rule="evenodd" d="M158.114 176.005C144.837 182.109 149.718 164.979 163.039 160.724C172.852 157.589 184.781 152.322 187.449 137.41C188.558 131.218 186.985 124.104 180.544 120.16C173.961 116.129 166.767 118.403 160.996 122.916C152.774 129.345 145.553 121.152 154.752 113.796C175.284 97.3785 191.893 112.796 195.431 118.794C193.339 110.651 186.197 95.1355 185.114 80.2925C184.455 71.2515 196.461 64.6425 196.474 76.8415C196.478 81.8345 197.217 84.0263 197.217 84.0263C197.217 84.0263 205.376 80.2673 209.617 92.6113C213.456 92.6533 218.359 97.2363 218.238 102.155C217.358 137.839 237.122 154.005 236.046 173.798C234.872 195.391 202.626 194.113 192.747 176.47C185.947 164.327 166.978 171.93 158.114 176.005Z" fill="#ECC293"/>
<path id="Fill 6" fill-rule="evenodd" clip-rule="evenodd" d="M192.747 176.47C201.4 192.965 225.779 226.43 227.49 226.864C227.49 226.864 244.885 209.544 258.33 189.852C258.33 189.852 239.361 172.214 233.185 158.598L192.747 176.47Z" fill="#ECC293"/>
<g id="Group 12">
<path id="Fill 8" opacity="0.1" fill-rule="evenodd" clip-rule="evenodd" d="M231.17 223.363L227.64 226.723C227.54 226.813 227.49 226.863 227.49 226.863L227.27 226.733C224.27 224.353 201.13 192.443 192.75 176.473C185.95 164.324 166.98 171.933 158.11 176.004C153.38 178.183 150.96 177.403 150.4 175.313V175.293C153.81 179.254 176.99 161.403 189.25 166.763C192.4 168.134 195.06 170.733 197.69 174.293C200.33 177.863 202.95 182.403 206 187.664C211.76 197.563 219.11 210.023 231.17 223.363Z" fill="#231F20"/>
<path id="Fill 10" fill-rule="evenodd" clip-rule="evenodd" d="M227.49 226.863C227.44 226.853 227.36 226.803 227.27 226.733L227.49 226.863Z" fill="#231F20"/>
</g>
<path id="Fill 13" opacity="0.1" fill-rule="evenodd" clip-rule="evenodd" d="M187.78 133.643C187.74 128.523 185.7 123.324 180.54 120.164C173.96 116.133 166.77 118.403 161 122.914C156.24 126.633 151.82 125.463 150.72 122.383V122.372C153.61 123.813 156.33 123.542 159.13 121.153C161.92 118.773 168.87 113.933 177.79 116.324C186.2 118.563 187.82 128.613 187.78 133.643Z" fill="#231F20"/>
<path id="Fill 15" opacity="0.1" fill-rule="evenodd" clip-rule="evenodd" d="M195.43 118.795L200.197 125.089L190.707 104.522L195.43 118.795Z" fill="#231F20"/>
<path id="Fill 17" fill-rule="evenodd" clip-rule="evenodd" d="M141.892 176.005C155.169 182.109 150.288 164.979 136.967 160.724C127.154 157.589 115.225 152.322 112.557 137.41C111.448 131.218 113.021 124.104 119.461 120.16C126.045 116.129 133.239 118.403 139.01 122.916C147.231 129.345 154.453 121.152 145.253 113.796C124.722 97.3785 108.113 112.796 104.575 118.794C106.667 110.651 113.809 95.1355 114.892 80.2925C115.551 71.2515 103.545 64.6425 103.532 76.8415C103.527 81.8345 102.776 83.1352 102.776 83.1352C102.776 83.1352 94.6169 79.3762 90.3759 91.7202C86.5369 91.7622 81.6329 96.3452 81.7549 101.264C82.6349 136.948 62.8839 154.005 63.9599 173.798C65.1339 195.391 97.3789 194.113 107.259 176.47C114.059 164.327 133.028 171.93 141.892 176.005Z" fill="#755135"/>
<path id="Fill 19" fill-rule="evenodd" clip-rule="evenodd" d="M107.259 176.47C98.6059 192.965 74.2269 226.43 72.5159 226.864C72.5159 226.864 55.9059 210.696 42.4619 191.003C42.4619 191.003 60.6449 172.214 66.8209 158.598L107.259 176.47Z" fill="#755135"/>
<g id="Group 25">
<path id="Fill 21" opacity="0.1" fill-rule="evenodd" clip-rule="evenodd" d="M68.8356 223.363L72.3656 226.723C72.4656 226.813 72.5156 226.863 72.5156 226.863L72.7356 226.733C75.7356 224.353 98.8756 192.443 107.256 176.473C114.056 164.324 133.026 171.933 141.896 176.004C146.626 178.183 149.046 177.403 149.606 175.313V175.294C146.196 179.254 123.016 161.403 110.756 166.763C107.606 168.134 104.946 170.733 102.316 174.294C99.6756 177.863 97.0556 182.403 94.0056 187.663C88.2456 197.563 80.8956 210.023 68.8356 223.363Z" fill="#231F20"/>
<path id="Fill 23" fill-rule="evenodd" clip-rule="evenodd" d="M72.5157 226.863C72.5657 226.853 72.6457 226.803 72.7357 226.733L72.5157 226.863Z" fill="#231F20"/>
</g>
<path id="Fill 26" opacity="0.1" fill-rule="evenodd" clip-rule="evenodd" d="M112.226 133.643C112.266 128.523 114.306 123.324 119.466 120.164C126.046 116.133 133.236 118.403 139.006 122.914C143.766 126.633 148.186 125.463 149.286 122.383V122.373C146.396 123.813 143.676 123.543 140.876 121.153C138.086 118.773 131.136 113.933 122.216 116.324C113.806 118.563 112.186 128.613 112.226 133.643Z" fill="#231F20"/>
<path id="Fill 28" opacity="0.1" fill-rule="evenodd" clip-rule="evenodd" d="M104.575 118.795L99.8083 125.089L109.298 104.522L104.575 118.795Z" fill="#231F20"/>
<g id="Group 32">
<mask id="mask1_2_7122" style="mask-type:alpha" maskUnits="userSpaceOnUse" x="12" y="24" width="276" height="90">
<path id="Clip 31" fill-rule="evenodd" clip-rule="evenodd" d="M12.0001 24.0036H288V113.344H12.0001V24.0036Z" fill="white"/>
</mask>
<g mask="url(#mask1_2_7122)">
<path id="Fill 30" fill-rule="evenodd" clip-rule="evenodd" d="M288 104.174C288 107.153 287.77 110.123 287.55 113.104C287.506 113.104 287.526 113.104 287.482 113.105C282.947 73.1476 248.813 42.0036 207.51 42.0036C187.79 42.0036 169.646 49.0076 155.718 60.8926C152.426 63.7006 147.592 63.7016 144.3 60.8936C130.367 49.0076 112.23 42.0036 92.5101 42.0036C51.1101 42.0036 16.9101 73.2736 12.4901 113.344H12.4891C12.2431 110.283 12.0001 107.234 12.0001 104.174C12.0001 59.9636 48.1101 24.0036 92.5101 24.0036C112.23 24.0036 130.367 31.0076 144.3 42.8936C147.592 45.7016 152.426 45.7006 155.718 42.8926C169.646 31.0076 187.79 24.0036 207.51 24.0036C251.89 24.0036 288 59.9636 288 104.174Z" fill="#231F20" fill-opacity="0.1"/>
</g>
</g>
</g>
</g>
</svg>
