<svg width="781" height="168" viewBox="0 0 781 168" fill="none" xmlns="http://www.w3.org/2000/svg">
<path d="M780 76.6963C786.5 135.196 753.5 177.196 656 165.696C558.5 154.196 534.5 110.879 534.5 66.6963C534.5 22.5135 567.621 1.19629 635 1.19629C702.379 1.19629 773.5 18.1963 780 76.6963Z" fill="#774DCB"/>
<path d="M512.08 77.496C494.452 127.296 454.08 166.696 390.08 157.496C326.08 148.296 268.58 137.879 268.58 93.696C268.58 49.5132 290.106 14.7016 356.58 3.69598C432.08 -8.80402 529.709 27.696 512.08 77.496Z" fill="#2B732B"/>
<path d="M244.5 76.6961C230 136.696 190.5 170.696 122.5 156.696C54.5 142.696 0.5 120.879 0.5 76.6961C0.5 32.5133 49.5 14.1961 122.5 2.69606C195.5 -8.80394 259 16.6961 244.5 76.6961Z" fill="#3373CC"/>
</svg>
