<svg width="259" height="185" viewBox="0 0 259 185" fill="none" xmlns="http://www.w3.org/2000/svg">
<path d="M124.489 17.0272C93.0033 58.9867 75.7742 39.47 55.1233 32.6398C34.4724 25.8095 52.0987 67.8023 39.7675 84.3541C27.2563 101.148 21.2347 103.87 5.87889 120.458C-16.7272 144.877 36.8748 119.509 74.7151 173.148C88.4824 192.663 107.974 164.337 124.489 163.91C145.804 163.358 178.133 188.986 186.442 173.148C201.797 143.876 254.258 140.948 257.396 125.336C260.044 112.164 211.143 96.4908 226.155 47.7631C233.708 23.2483 182.957 48.5657 166.32 43.8601C149.888 39.2124 142.794 -7.36708 124.489 17.0272Z" fill="#0FBD8C" fill-opacity="0.3"/>
<path d="M96.6555 10.5C103.194 18 90.8004 21 83.5778 21C76.3551 21 70.5 16.299 70.5 10.5C70.5 4.70101 76.3551 0 83.5778 0C90.8004 0 90.1166 3 96.6555 10.5Z" fill="#0FBD8C" fill-opacity="0.3"/>
<path d="M251.534 153.091C261.5 153.091 251.637 165.053 244.344 171.884C237.05 178.716 228.443 181.378 225.12 177.83C221.798 174.282 225.017 165.868 232.311 159.037C239.605 152.206 241.568 153.091 251.534 153.091Z" fill="#0FBD8C" fill-opacity="0.3"/>
</svg>
