<svg width="124" height="113" viewBox="0 0 124 113" fill="none" xmlns="http://www.w3.org/2000/svg">
<g clip-path="url(#clip0_444_14717)">
<path opacity="0.4" d="M123.25 17.5378C123.25 20.8506 121.167 23.7496 118.25 25.3216C113.051 28.1245 108.897 31.8643 105.787 36.541C103.238 40.6292 101.545 45.2544 100.708 50.4166C100 54.7778 103.674 58.3849 108.092 58.3849H115.25C119.668 58.3849 123.25 61.9667 123.25 66.3849V104.002C123.25 108.42 119.668 112.002 115.25 112.002H83.7962C79.3779 112.002 75.7962 108.42 75.7962 104.002V58.3849C75.7962 50.9712 77.0616 44.0871 79.5925 37.7325C82.1233 31.3778 85.54 25.8176 89.8425 21.0516C94.145 16.0209 99.0801 11.7845 104.648 8.3424C107.356 6.74109 110.146 5.28303 113.019 3.96823C117.952 1.70997 123.25 5.55569 123.25 10.9815V17.5378ZM47.7036 17.5378C47.7036 20.8506 45.6202 23.7496 42.7042 25.3216C37.5049 28.1245 33.3504 31.8643 30.2406 36.541C27.6921 40.6292 25.999 45.2544 25.1614 50.4166C24.4537 54.7778 28.1279 58.3849 32.5462 58.3849H39.7036C44.1219 58.3849 47.7036 61.9667 47.7036 66.3849V104.002C47.7036 108.42 44.1219 112.002 39.7036 112.002H8.24987C3.83159 112.002 0.249878 108.42 0.249878 104.002V58.3849C0.249878 50.9712 1.51531 44.0871 4.04617 37.7325C6.57704 31.3778 9.99371 25.8176 14.2962 21.0516C18.5986 16.0209 23.5338 11.7845 29.1017 8.3424C31.8098 6.74109 34.5999 5.28303 37.4723 3.96823C42.4058 1.70997 47.7036 5.55569 47.7036 10.9815V17.5378Z" fill="white" fill-opacity="0.25"/>
</g>
<defs>
<clipPath id="clip0_444_14717">
<rect width="123" height="112" fill="white" transform="translate(0.249878 0.00195312)"/>
</clipPath>
</defs>
</svg>
