<svg width="141" height="141" viewBox="0 0 141 141" fill="none" xmlns="http://www.w3.org/2000/svg">
<path fill-rule="evenodd" clip-rule="evenodd" d="M10.5299 59.118C4.09587 49.539 23.4809 46.307 33.9619 65.077C39.9529 75.806 47.4989 66.568 50.5959 58.6C54.6719 48.113 61.2059 34.629 64.9679 26.454C69.2169 17.223 80.8339 23.259 77.2779 31.589C72.4369 42.927 62.2769 61.184 65.2849 62.993C68.5279 64.944 78.7549 39.745 87.3249 25.737C93.5709 15.526 103.693 21.27 99.1699 32.423C93.7549 45.776 80.8319 63.782 83.0039 65.519C85.1899 67.266 96.2049 49.848 102.776 39.196C108.129 30.52 118.156 37.52 113.285 45.446C105.951 57.378 90.4799 75.999 92.4289 77.674C94.9919 79.875 103.488 67.459 108.532 61.259C114.638 53.752 122.122 60.594 117.444 67.03C109.198 78.374 88.1299 105.083 82.1219 112.407C67.9449 129.685 26.1389 116.422 26.1459 87.615C26.1509 72.198 14.1899 64.57 10.5299 59.118Z" fill="#825331"/>
<path fill-rule="evenodd" clip-rule="evenodd" d="M39.2769 29.084C35.4959 31.686 33.4309 36.139 33.8879 40.705Z" fill="#825331"/>
<path d="M39.2769 29.084C35.4959 31.686 33.4309 36.139 33.8879 40.705" stroke="#FEFEFE" stroke-width="6" stroke-linecap="round" stroke-linejoin="round"/>
<path fill-rule="evenodd" clip-rule="evenodd" d="M32.0345 20.0059C25.1905 24.7149 21.4535 32.7759 22.2805 41.0419Z" fill="#825331"/>
<path d="M32.0345 20.0059C25.1905 24.7149 21.4535 32.7759 22.2805 41.0419" stroke="#FEFEFE" stroke-width="6" stroke-linecap="round" stroke-linejoin="round"/>
<path fill-rule="evenodd" clip-rule="evenodd" d="M111.028 102.443C115.432 100.804 118.594 96.898 119.281 92.25Z" fill="#825331"/>
<path d="M111.028 102.443C115.432 100.804 118.594 96.898 119.281 92.25" stroke="#FEFEFE" stroke-width="6" stroke-linecap="round" stroke-linejoin="round"/>
<path fill-rule="evenodd" clip-rule="evenodd" d="M115.952 113.264C123.924 110.297 129.648 103.226 130.89 94.8125Z" fill="#825331"/>
<path d="M115.952 113.264C123.924 110.297 129.648 103.226 130.89 94.8125" stroke="#FEFEFE" stroke-width="6" stroke-linecap="round" stroke-linejoin="round"/>
</svg>
