<svg width="141" height="141" viewBox="0 0 141 141" fill="none" xmlns="http://www.w3.org/2000/svg">
<path fill-rule="evenodd" clip-rule="evenodd" d="M10.53 59.2137C4.09596 49.6347 23.481 46.4027 33.962 65.1727C39.953 75.9017 47.499 66.6637 50.596 58.6957C54.672 48.2087 61.206 34.7247 64.968 26.5497C69.217 17.3187 80.834 23.3547 77.278 31.6847C72.437 43.0227 62.277 61.2797 65.285 63.0887C68.528 65.0397 78.755 39.8407 87.325 25.8327C93.571 15.6217 103.693 21.3657 99.17 32.5187C93.755 45.8717 80.832 63.8777 83.004 65.6147C85.19 67.3617 96.205 49.9437 102.776 39.2917C108.129 30.6157 118.156 37.6157 113.285 45.5417C105.951 57.4737 90.48 76.0947 92.429 77.7697C94.992 79.9707 103.488 67.5547 108.532 61.3547C114.638 53.8477 122.122 60.6897 117.444 67.1257C109.198 78.4697 88.13 105.179 82.122 112.503C67.945 129.781 26.139 116.518 26.146 87.7107C26.151 72.2937 14.19 64.6657 10.53 59.2137Z" fill="#4C2E19"/>
<path fill-rule="evenodd" clip-rule="evenodd" d="M39.2768 29.1797C35.4958 31.7817 33.4308 36.2347 33.8878 40.8007Z" fill="#4C2E19"/>
<path d="M39.2768 29.1797C35.4958 31.7817 33.4308 36.2347 33.8878 40.8007" stroke="#FEFEFE" stroke-width="6" stroke-linecap="round" stroke-linejoin="round"/>
<path fill-rule="evenodd" clip-rule="evenodd" d="M32.0346 20.1016C25.1906 24.8106 21.4536 32.8716 22.2806 41.1376Z" fill="#4C2E19"/>
<path d="M32.0346 20.1016C25.1906 24.8106 21.4536 32.8716 22.2806 41.1376" stroke="#FEFEFE" stroke-width="6" stroke-linecap="round" stroke-linejoin="round"/>
<path fill-rule="evenodd" clip-rule="evenodd" d="M111.028 102.539C115.432 100.9 118.594 96.9937 119.281 92.3457Z" fill="#4C2E19"/>
<path d="M111.028 102.539C115.432 100.9 118.594 96.9937 119.281 92.3457" stroke="#FEFEFE" stroke-width="6" stroke-linecap="round" stroke-linejoin="round"/>
<path fill-rule="evenodd" clip-rule="evenodd" d="M115.952 113.36C123.924 110.393 129.648 103.322 130.89 94.9082Z" fill="#4C2E19"/>
<path d="M115.952 113.36C123.924 110.393 129.648 103.322 130.89 94.9082" stroke="#FEFEFE" stroke-width="6" stroke-linecap="round" stroke-linejoin="round"/>
</svg>
