<svg width="36" height="36" viewBox="0 0 36 36" fill="none" xmlns="http://www.w3.org/2000/svg">
<path fill-rule="evenodd" clip-rule="evenodd" d="M2.66463 34.3035C3.16405 34.7261 3.91148 34.6638 4.33407 34.1643L30.3944 3.36576C30.817 2.86634 30.7547 2.11891 30.2553 1.69632C29.7559 1.27374 29.0084 1.33602 28.5859 1.83544L25.5707 5.39883H7.19999C4.21765 5.39883 1.79999 7.81649 1.79999 10.7988V25.1988C1.79999 27.2974 2.99711 29.1164 4.74571 30.0102L2.52551 32.634C2.10293 33.1335 2.16521 33.8809 2.66463 34.3035ZM6.59065 27.8298L18.6752 13.548H4.49999V25.1988C4.49999 26.4804 5.39295 27.5535 6.59065 27.8298ZM28.8 30.5988H10.4308L12.7154 27.8988H28.8C30.2912 27.8988 31.5 26.69 31.5 25.1988V13.548H24.8584L31.2553 5.98803C33.0033 6.88198 34.2 8.70066 34.2 10.7988V25.1988C34.2 28.1812 31.7823 30.5988 28.8 30.5988Z" fill="white"/>
</svg>
