<?xml version="1.0" encoding="UTF-8"?>
<svg width="300px" height="300px" viewBox="0 0 300 300" version="1.1" xmlns="http://www.w3.org/2000/svg" xmlns:xlink="http://www.w3.org/1999/xlink">
    <title>Donate Illustration</title>
    <defs>
        <polygon id="path-1" points="0 0 275.9999 0 275.9999 251.9994 0 251.9994"></polygon>
        <polygon id="path-3" points="0.0001 0.0036 276 0.0036 276 89.3436 0.0001 89.3436"></polygon>
    </defs>
    <g id="Donate-Illustration" stroke="none" stroke-width="1" fill="none" fill-rule="evenodd">
        <g id="Donate" transform="translate(12.000000, 24.000000)">
            <g id="Group-3">
                <mask id="mask-2" fill="white">
                    <use xlink:href="#path-1"></use>
                </mask>
                <g id="Clip-2"></g>
                <path d="M275.5529,89.1004 C267.4879,180.2854 164.2079,251.9994 138.0089,251.9994 C111.8099,251.9994 8.5129,180.2854 0.4649,89.1004 C0.2329,86.1254 -0.0001,83.1514 -0.0001,80.1764 C-0.0001,35.9644 36.1079,-0.0006 80.5129,-0.0006 C100.4039,-0.0006 118.6919,7.1344 132.6709,19.2094 C135.7329,21.8534 140.2849,21.8534 143.3469,19.2094 C157.3259,7.1344 175.6149,-0.0006 195.5049,-0.0006 C239.8929,-0.0006 275.9999,35.9644 275.9999,80.1764 C275.9999,83.1514 275.7679,86.1254 275.5529,89.1004" id="Fill-1" fill="#0DA57A" mask="url(#mask-2)"></path>
            </g>
            <path d="M180.7467,152.4705 C173.9467,140.3275 154.9777,147.9305 146.1137,152.0055 C132.8367,158.1095 137.7177,140.9795 151.0387,136.7245 C160.8517,133.5895 172.7807,128.3225 175.4487,113.4105 C176.5577,107.2185 174.9847,100.1045 168.5437,96.1605 C161.9607,92.1295 154.7667,94.4035 148.9957,98.9165 C140.7737,105.3455 133.5527,97.1525 142.7517,89.7965 C163.2837,73.3785 179.8927,88.7965 183.4307,94.7945 C181.3387,86.6515 174.1967,71.1355 173.1137,56.2925 C172.4547,47.2515 184.4607,40.6425 184.4737,52.8415 C184.4777,57.8345 186.2927,65.3995 186.2927,65.3995 C186.2927,65.3995 194.4517,61.6405 198.6927,73.9845 C202.5317,74.0265 207.4347,78.6095 207.3137,83.5285 C206.4337,119.2125 225.1217,130.0055 224.0457,149.7985 C222.8717,171.3915 190.6257,170.1135 180.7467,152.4705" id="Fill-4" fill="#ECC293"></path>
            <path d="M180.7467,152.4705 C189.3997,168.9655 213.7787,202.4305 215.4897,202.8645 C215.4897,202.8645 232.8847,185.5445 246.3297,165.8525 C246.3297,165.8525 227.3607,148.2145 221.1847,134.5985 L180.7467,152.4705 Z" id="Fill-6" fill="#ECC293"></path>
            <g id="Group-12" transform="translate(138.000000, 141.000000)" fill="#231F20">
                <path d="M81.17,58.3631 L77.64,61.7231 C77.54,61.8131 77.49,61.8631 77.49,61.8631 L77.27,61.7331 C74.27,59.3531 51.13,27.4431 42.75,11.4731 C35.95,-0.6759 16.98,6.9331 8.11,11.0041 C3.38,13.1831 0.96,12.4031 0.4,10.3131 L0.4,10.2931 C3.81,14.2541 26.99,-3.5969 39.25,1.7631 C42.4,3.1341 45.06,5.7331 47.69,9.2931 C50.33,12.8631 52.95,17.4031 56,22.6641 C61.76,32.5631 69.11,45.0231 81.17,58.3631" id="Fill-8" opacity="0.1"></path>
                <path d="M77.4899,61.8631 C77.4399,61.8531 77.3599,61.8031 77.2699,61.7331 L77.4899,61.8631 Z" id="Fill-10"></path>
            </g>
            <path d="M175.7799,109.6433 C175.7399,104.5233 173.6999,99.3243 168.5399,96.1643 C161.9599,92.1333 154.7699,94.4033 148.9999,98.9143 C144.2399,102.6333 139.8199,101.4633 138.7199,98.3833 L138.7199,98.3723 C141.6099,99.8133 144.3299,99.5423 147.1299,97.1533 C149.9199,94.7733 156.8699,89.9333 165.7899,92.3243 C174.1999,94.5633 175.8199,104.6133 175.7799,109.6433" id="Fill-13" fill="#231F20" opacity="0.1"></path>
            <polygon id="Fill-15" fill="#231F20" opacity="0.1" points="183.4303 94.7947 188.1973 101.0887 178.7073 80.5217"></polygon>
            <path d="M95.2589,152.4705 C102.0589,140.3275 121.0279,147.9305 129.8919,152.0055 C143.1689,158.1095 138.2879,140.9795 124.9669,136.7245 C115.1539,133.5895 103.2249,128.3225 100.5569,113.4105 C99.4479,107.2185 101.0209,100.1045 107.4609,96.1605 C114.0449,92.1295 121.2389,94.4035 127.0099,98.9165 C135.2309,105.3455 142.4529,97.1525 133.2529,89.7965 C112.7219,73.3785 96.1129,88.7965 92.5749,94.7945 C94.6669,86.6515 101.8089,71.1355 102.8919,56.2925 C103.5509,47.2515 91.5449,40.6425 91.5319,52.8415 C91.5269,57.8345 89.7129,65.3995 89.7129,65.3995 C89.7129,65.3995 81.5539,61.6405 77.3129,73.9845 C73.4739,74.0265 68.5699,78.6095 68.6919,83.5285 C69.5719,119.2125 50.8839,130.0055 51.9599,149.7985 C53.1339,171.3915 85.3789,170.1135 95.2589,152.4705" id="Fill-17" fill="#755135"></path>
            <path d="M95.2589,152.4705 C86.6059,168.9655 62.2269,202.4305 60.5159,202.8645 C60.5159,202.8645 43.9059,186.6965 30.4619,167.0035 C30.4619,167.0035 48.6449,148.2145 54.8209,134.5985 L95.2589,152.4705 Z" id="Fill-19" fill="#755135"></path>
            <g id="Group-25" transform="translate(56.000000, 141.000000)" fill="#231F20">
                <path d="M0.8356,58.3631 L4.3656,61.7231 C4.4656,61.8131 4.5156,61.8631 4.5156,61.8631 L4.7356,61.7331 C7.7356,59.3531 30.8756,27.4431 39.2556,11.4731 C46.0556,-0.6759 65.0256,6.9331 73.8956,11.0041 C78.6256,13.1831 81.0456,12.4031 81.6056,10.3131 L81.6056,10.2941 C78.1956,14.2541 55.0156,-3.5969 42.7556,1.7631 C39.6056,3.1341 36.9456,5.7331 34.3156,9.2941 C31.6756,12.8631 29.0556,17.4031 26.0056,22.6631 C20.2456,32.5631 12.8956,45.0231 0.8356,58.3631" id="Fill-21" opacity="0.1"></path>
                <path d="M4.5157,61.8631 C4.5657,61.8531 4.6457,61.8031 4.7357,61.7331 L4.5157,61.8631 Z" id="Fill-23"></path>
            </g>
            <path d="M100.2257,109.6433 C100.2657,104.5233 102.3057,99.3243 107.4657,96.1643 C114.0457,92.1333 121.2357,94.4033 127.0057,98.9143 C131.7657,102.6333 136.1857,101.4633 137.2857,98.3833 L137.2857,98.3733 C134.3957,99.8133 131.6757,99.5433 128.8757,97.1533 C126.0857,94.7733 119.1357,89.9333 110.2157,92.3243 C101.8057,94.5633 100.1857,104.6133 100.2257,109.6433" id="Fill-26" fill="#231F20" opacity="0.1"></path>
            <polygon id="Fill-28" fill="#231F20" opacity="0.1" points="92.5753 94.7947 87.8083 101.0887 97.2983 80.5217"></polygon>
            <g id="Group-32">
                <mask id="mask-4" fill="white">
                    <use xlink:href="#path-3"></use>
                </mask>
                <g id="Clip-31"></g>
                <path d="M276.0001,80.1736 C276.0001,83.1526 275.7701,86.1226 275.5501,89.1036 C275.5061,89.1036 275.5261,89.1036 275.4821,89.1046 C270.9471,49.1476 236.8131,18.0036 195.5101,18.0036 C175.7901,18.0036 157.6461,25.0076 143.7181,36.8926 C140.4261,39.7006 135.5921,39.7016 132.3001,36.8936 C118.3671,25.0076 100.2301,18.0036 80.5101,18.0036 C39.1101,18.0036 4.9101,49.2736 0.4901,89.3436 L0.4891,89.3436 C0.2431,86.2826 0.0001,83.2336 0.0001,80.1736 C0.0001,35.9636 36.1101,0.0036 80.5101,0.0036 C100.2301,0.0036 118.3671,7.0076 132.3001,18.8936 C135.5921,21.7016 140.4261,21.7006 143.7181,18.8926 C157.6461,7.0076 175.7901,0.0036 195.5101,0.0036 C239.8901,0.0036 276.0001,35.9636 276.0001,80.1736" id="Fill-30" fill-opacity="0.1" fill="#231F20" mask="url(#mask-4)"></path>
            </g>
        </g>
    </g>
</svg>