<?xml version="1.0" encoding="UTF-8"?>
<svg width="144px" height="120px" viewBox="0 0 144 120" version="1.1" xmlns="http://www.w3.org/2000/svg" xmlns:xlink="http://www.w3.org/1999/xlink">
    <title>ScratchJr Loop</title>
    <defs>
        <filter id="filter-1">
            <feColorMatrix in="SourceGraphic" type="matrix" values="0 0 0 0 1.000000 0 0 0 0 0.670588 0 0 0 0 0.098039 0 0 0 1.000000 0"></feColorMatrix>
        </filter>
    </defs>
    <g id="ScratchJr-Loop" stroke="none" stroke-width="1" fill="none" fill-rule="evenodd" stroke-linecap="round" stroke-linejoin="round">
        <g id="Horizontal/Block/Forever-Loop" transform="translate(10.000000, 22.000000)" filter="url(#filter-1)">
            <g transform="translate(62.000000, 38.000000) rotate(-15.000000) translate(-62.000000, -38.000000) ">
                <path d="M120,0 C122.209139,-4.05812251e-16 124,1.790861 124,4 L124,72 C124,74.209139 122.209139,76 120,76 L64,76 C61.790861,76 60,74.209139 60,72 L60,61.6568542 C60,60.5959883 60.4214274,59.5785726 61.1715729,58.8284271 L61.1715729,58.8284271 L66.8284271,53.1715729 C67.5785726,52.4214274 68,51.4040117 68,50.3431458 L68,50.3431458 L68,37.6568542 C68,36.5959883 67.5785726,35.5785726 66.8284271,34.8284271 L66.8284271,34.8284271 L61.1715729,29.1715729 C60.4214274,28.4214274 60,27.4040117 60,26.3431458 L60,26.3431458 L60,16 C60,13.790861 58.209139,12 56,12 L28,12 C25.790861,12 24,13.790861 24,16 L24,26.3431458 C24,27.4040117 24.4214274,28.4214274 25.1715729,29.1715729 L30.8284271,34.8284271 C31.5785726,35.5785726 32,36.5959883 32,37.6568542 L32,50.3431458 C32,51.4040117 31.5785726,52.4214274 30.8284271,53.1715729 L25.1715729,58.8284271 C24.4214274,59.5785726 24,60.5959883 24,61.6568542 L24,72 C24,74.209139 22.209139,76 20,76 L4,76 C1.790861,76 -4.86779581e-14,74.209139 -4.89484996e-14,72 L-4.89484996e-14,61.6568542 C-4.89484996e-14,60.5959883 0.421427361,59.5785726 1.17157288,58.8284271 L1.17157288,58.8284271 L6.82842712,53.1715729 C7.57857264,52.4214274 8,51.4040117 8,50.3431458 L8,50.3431458 L8,37.6568542 C8,36.5959883 7.57857264,35.5785726 6.82842712,34.8284271 L6.82842712,34.8284271 L1.17157288,29.1715729 C0.421427361,28.4214274 -4.89484996e-14,27.4040117 -4.89484996e-14,26.3431458 L-4.89484996e-14,26.3431458 L-4.89484996e-14,4 C-4.92190411e-14,1.790861 1.790861,4.05812251e-16 4,0 L120,0 Z" id="Forever-Loop" stroke="#CF8B17" fill="#FFAB19"></path>
            </g>
        </g>
    </g>
</svg>