<svg width="25" height="24" viewBox="0 0 25 24" fill="none" xmlns="http://www.w3.org/2000/svg">
<path fill-rule="evenodd" clip-rule="evenodd" d="M12.915 17.3999C10.9332 17.3999 9.31504 15.7817 9.31504 13.7999C9.31504 11.8037 10.9332 10.1999 12.915 10.1999C14.9112 10.1999 16.515 11.8037 16.515 13.7999C16.515 15.7817 14.9112 17.3999 12.915 17.3999ZM20.115 7.4999H18.855C18.5112 7.4999 18.225 7.3199 18.0612 7.0319L16.8552 4.8377C16.533 4.2599 15.939 3.8999 15.273 3.8999H10.575C9.90904 3.8999 9.31504 4.2599 8.98924 4.8377L7.76704 7.0319C7.60504 7.3199 7.31704 7.4999 6.99304 7.4999H5.71504C4.72504 7.4999 3.91504 8.3099 3.91504 9.2999V18.2999C3.91504 19.2917 4.72504 20.0999 5.71504 20.0999H20.115C21.105 20.0999 21.915 19.2917 21.915 18.2999V9.2999C21.915 8.3099 21.105 7.4999 20.115 7.4999Z" fill="white"/>
</svg>
