<svg width="24" height="25" viewBox="0 0 24 25" fill="none" xmlns="http://www.w3.org/2000/svg">
<path fill-rule="evenodd" clip-rule="evenodd" d="M11.1846 1.45411V2.68935C11.1846 3.14524 11.532 3.51429 11.9879 3.51429C12.4437 3.51429 12.8128 3.14524 12.8128 2.68935V1.45411C12.8128 0.998223 12.4437 0.650879 11.9879 0.650879C11.532 0.650879 11.1846 0.998223 11.1846 1.45411ZM4.34738 3.79868C4.04128 4.12214 4.04128 4.64316 4.34738 4.94709L5.23528 5.83715C5.38724 5.98912 5.60433 6.07812 5.82359 6.07812C6.01897 6.07812 6.23606 5.98912 6.38585 5.83715C6.71366 5.51369 6.71366 4.99267 6.38585 4.68658L5.51966 3.79868C5.19403 3.47088 4.67084 3.47088 4.34738 3.79868ZM19.6307 4.94643C19.9346 4.64468 19.9346 4.12149 19.6307 3.79803C19.3051 3.47239 18.7819 3.47239 18.4801 3.79803L17.5901 4.68593C17.2861 4.99202 17.2861 5.51304 17.5901 5.8365C17.7637 5.99064 17.957 6.07747 18.1762 6.07747C18.3716 6.07747 18.5887 5.99064 18.7407 5.8365L19.6307 4.94643ZM22.8 11.4387C22.8 11.8946 22.4288 12.242 21.9751 12.242H20.7377C20.2818 12.242 19.9127 11.8946 19.9127 11.4387C19.9127 10.9828 20.2818 10.6138 20.7377 10.6138H21.9751C22.4288 10.6138 22.8 10.9828 22.8 11.4387ZM6.38694 17.0399C6.71257 17.3655 6.71257 17.8648 6.38694 18.1904L5.52075 19.0805C5.34708 19.2325 5.1517 19.3193 4.93244 19.3193C4.71535 19.3193 4.51997 19.2325 4.34847 19.0805C4.04237 18.7549 4.04237 18.2339 4.34847 17.9299L5.23636 17.0399C5.562 16.7142 6.08301 16.7142 6.38694 17.0399ZM14.8966 20.86C15.1159 22.2515 14.3105 23.4238 11.9876 23.4238C9.66695 23.4238 8.86155 22.2515 9.07863 20.86C9.1328 20.5567 9.30643 20.6107 9.74169 20.746C10.1787 20.8819 10.8794 21.0998 11.9876 21.1205C13.1419 21.1205 13.8565 20.8891 14.2897 20.7488C14.6958 20.6174 14.8546 20.5659 14.8966 20.86ZM4.0656 11.4387C4.0656 11.8946 3.69654 12.242 3.26237 12.242H2.00324C1.56906 12.242 1.20001 11.8946 1.20001 11.4387C1.20001 10.9828 1.56906 10.6138 2.00324 10.6138H3.26237C3.69654 10.6138 4.0656 10.9828 4.0656 11.4387ZM18.0025 10.614C18.1523 12.2422 17.6769 13.7618 16.7651 14.9102C16.5697 15.1656 16.3905 15.3749 16.2302 15.5621C15.694 16.1882 15.3686 16.5682 15.3519 17.6043C15.3519 18.299 15.0045 18.8634 14.4401 19.1239H14.4206C12.8792 19.8837 11.0969 19.862 9.55558 19.1239C9.01286 18.8634 8.66551 18.299 8.66551 17.6911C8.66551 16.6102 8.33433 16.2299 7.78906 15.6038C7.62248 15.4125 7.43592 15.1982 7.23272 14.9341C6.43166 13.9138 5.95189 12.6112 5.95189 11.2218C5.95189 7.63987 9.05845 4.8177 12.7056 5.23017C15.4843 5.55581 17.742 7.83525 18.0025 10.614ZM19.6307 19.0807C19.9346 18.7551 19.9346 18.2341 19.6307 17.9301L18.7407 17.0401C18.4346 16.7123 17.9157 16.7123 17.5901 17.0401C17.2861 17.3657 17.2861 17.865 17.5901 18.1906L18.4801 19.0807C18.6299 19.2327 18.8492 19.3195 19.0424 19.3195C19.2617 19.3195 19.4788 19.2327 19.6307 19.0807Z" fill="white"/>
</svg>
