<svg width="77" height="60" viewBox="0 0 77 60" fill="none" xmlns="http://www.w3.org/2000/svg">
<path fill-rule="evenodd" clip-rule="evenodd" d="M54.0484 1.58101L69.5715 3.51246C71.7962 3.78927 73.5748 5.49451 73.945 7.70554L75.5035 17.0135C76.9484 25.6431 76.9484 34.4528 75.5035 43.0824L73.945 52.3904C73.5748 54.6014 71.7962 56.3067 69.5715 56.5835L54.0484 58.5149C43.6572 59.8078 33.1458 59.8078 22.7546 58.5149L7.23151 56.5835C5.00685 56.3067 3.22821 54.6014 2.858 52.3904L1.29951 43.0824C-0.145411 34.4528 -0.145411 25.6431 1.29951 17.0135L2.858 7.70554C3.22821 5.49451 5.00685 3.78927 7.23151 3.51246L22.7546 1.58101C33.1458 0.2881 43.6572 0.2881 54.0484 1.58101ZM33.9195 19.91C31.4957 19.91 29.5308 21.8662 29.5308 24.2793V37.0833C29.5308 37.906 29.7641 38.7119 30.2038 39.4084C31.4936 41.4514 34.2028 42.0666 36.2549 40.7825L46.4857 34.3805C47.0435 34.0314 47.5152 33.5618 47.8658 33.0064C49.1557 30.9634 48.5378 28.2662 46.4857 26.9821L36.2549 20.58C35.5553 20.1423 34.7458 19.91 33.9195 19.91Z" fill="white"/>
</svg>
