<svg version="1.1" id="svg2" xmlns="http://www.w3.org/2000/svg" x="0" y="0" viewBox="0 0 300 175" xml:space="preserve"><style>.st1{fill:#010101}.st2{fill:#fefefe}</style><path id="path1984" d="M145.9 0h145.9v145.8H145.9V0z" fill="#fff"/><path id="path6" class="st1" d="M0 0h145.9v145.8H0V0z"/><path id="path8" class="st2" d="M61.5 9.8c17.9-4.6 37.7-.8 52.8 9.8 7.9 5.5 14.5 12.8 19.3 21.1-10.3 5.8-20.4 11.7-30.7 17.5-1.8 1-3.7 2-5.5 3.2-2.8-4.8-7.4-8.7-12.7-10.5-3.6-1.3-7.5-1.5-11.2-1-10.9 1.4-20 11.5-19.8 22.6-.5 9.7 6 19.1 15.1 22.4 6.7 2.6 14.7 1.8 20.8-2.1 3.3-2 5.9-5 7.9-8.3 6.9 4.1 13.9 8 20.8 12 5.1 2.9 10.2 5.9 15.3 8.7-8.6 14.9-23.2 26.3-39.9 30.6-2.1.7-4.3.9-6.4 1.4-4.9.6-9.8 1.1-14.7.6-14.8-.8-29.1-7.1-39.9-17.2C21.6 110.4 14.2 96 12.4 80.8c-2-15.1 1.9-30.9 10.3-43.6 8.9-13.6 23-23.7 38.8-27.4z"/><path id="path10" class="st1" d="M156.3 10.5H198c14 17.3 27.8 34.8 41.8 52.1V10.5h41.7v125h-41.7c-13.6-17-27.3-34-40.9-51.1-.3-.3-.5-.6-.8-.9.1 17.3 0 34.6 0 52h-41.7c-.1-41.7-.1-83.4-.1-125z"/><path id="path12" class="st1" d="M4.8 165.2c-.2-4.1 2.8-8 6.8-9 4-1.3 8.6.7 10.6 4.3-1.5 1.1-3.3 1.8-4.8 2.9-.7-.8-1.5-1.7-2.7-1.9-1.9-.4-3.9 1-4.2 2.9-.3 1 .2 1.9.4 2.8 1.6 2.1 5.1 2 6.4-.3 1.6 1 3.2 1.9 4.8 2.8-1.7 2.8-4.9 4.9-8.3 4.5-4.7.5-9.2-4.1-9-9z"/><path id="path14" class="st1" d="M89.3 156.1c3.4-.7 7.1.8 9.2 3.5 3 3.9 2.2 10.1-1.8 13-2.3 1.9-5.4 2-8.2 1.6-2.3-.6-4.3-2.2-5.5-4.2-1.4-2.4-1.5-5.3-.7-7.9 1-3.1 3.8-5.5 7-6z"/><path id="path16" class="st1" d="M108.6 156.3c4.8-1.6 10.6 1.8 11.5 6.7 1.1 4.1-1.1 8.8-5 10.6-1.8 1-4 .8-6 .7-3.1-.6-5.7-2.9-6.8-5.8-1.9-4.9 1.1-11 6.3-12.2z"/><path id="path18" class="st1" d="M237.4 156.3c5.3-1.8 11.7 2.5 11.8 8.1.4 3.4-1.3 6.8-4.2 8.6-2.1 1.5-4.8 1.5-7.3 1.2-3.1-.7-5.7-3.2-6.7-6.3-.5-1.9-.5-3.9.1-5.8 1-2.7 3.3-5.1 6.3-5.8z"/><path id="path20" class="st1" d="M269.9 156.3h6v5.7c1.5-1.8 2.9-3.8 4.4-5.7h7.7c-2.4 2.8-4.6 5.8-7 8.6 2.4 3 4.7 6.2 7.1 9.3h-7.7c-1.4-2.2-2.9-4.5-4.4-6.7v6.7h-6c-.1-6-.1-11.9-.1-17.9z"/><path id="path22" class="st1" d="M28 156.3c3-.1 6 0 9 0 1.3 3.6 2.3 7.3 3.5 10.9.9 2.3 1.3 4.8 2.3 7h-6.5c-.3-1-.5-2.1-.9-3.1h-5.5c-.4 1-.7 2-1 3h-6.3c1.7-5.9 3.8-11.8 5.4-17.8z"/><path id="path24" class="st1" d="M44.3 156.3c3.7 0 7.5-.1 11.2 0 3.8 0 6.9 4.2 5.7 7.9-.4 1.8-1.8 3.2-3.3 4.1 1.3 1.9 2.4 4 3.6 5.9h-6.7c-1-1.7-1.8-3.6-2.8-5.3-.6 0-1.2 0-1.8.1v5.2h-6c.1-6 .1-11.9.1-17.9z"/><path id="path26" class="st1" d="M63 161.5v-5.2h17.9v5.2h-5.6v12.7h-6.7v-12.7H63z"/><path id="path28" class="st1" d="M122.1 174.2v-17.9c2 0 3.9-.1 5.9 0 2.2 2.3 4 4.9 6 7.3 0-2.4 0-4.9-.1-7.3h6v17.9h-5.8l-6-7.5v7.5h-6z"/><path id="path30" class="st1" d="M151.9 156.3h6.1c2 2.4 3.9 4.9 5.9 7.3v-7.3h5.9v17.9h-5.9c-2.1-2.4-3.9-4.9-5.9-7.3-.1 2.4 0 4.9 0 7.3h-6.1v-17.9z"/><path id="path32" class="st1" d="M172.3 156.3h15.6v5.2h-9.6v1.5h8.2v4.5h-8.2v1.8h9.6v4.9h-15.6v-17.9z"/><path id="path34" class="st1" d="M189.9 161.5v-5.2h17.9v5.2h-5.6v12.7h-6.7v-12.7h-5.6z"/><path id="path36" class="st1" d="M209.2 156.3h6c.6 2.5.8 5.1 1.5 7.7 1-2.4 2-4.7 2.9-7.1 1.1 2.4 1.9 4.9 3.1 7.2.2-2.6 1.1-5.1 1.3-7.7h6c-1 6-2.3 11.9-3.3 17.9h-4.9c-.9-1.5-1.4-3.2-2.2-4.8-.7 1.6-1.4 3.2-2 4.8h-4.9c-1.3-6-2.2-12-3.5-18z"/><path id="path38" class="st1" d="M251 174.2v-17.9h8.2c1.6 0 3.2-.1 4.7.3 2.3.9 4.2 3.2 4.1 5.8.2 2.4-1.4 4.6-3.4 5.7 1.1 2.1 2.4 4 3.5 6h-6.7c-.9-1.8-1.8-3.5-2.7-5.3h-1.9v5.3c-1.8.1-3.8.1-5.8.1z"/><path id="path40" class="st2" d="M32.7 161.3c.2 1.9 1 3.6 1.4 5.4H31c.8-1.8.9-3.7 1.7-5.4z"/><path id="path42" class="st2" d="M50.3 161.5c1.5 0 3-.1 4.4.1 1.1.7 1 2.4-.3 2.9-1.4.1-2.8 0-4.1 0v-3z"/><path id="path44" class="st2" d="M256.9 161.5c1.4 0 2.9-.1 4.3.1 1.1.4.9 1.7.5 2.6-1.5.5-3.2.2-4.8.3v-3z"/><path id="path46" class="st2" d="M89.5 162.3c1.7-1.1 4.1 0 4.6 1.9.4 1 0 2.1-.4 3.1-1.2 1.3-3.3 1.8-4.7.6-1.9-1.3-1.7-4.7.5-5.6z"/><path id="path48" class="st2" d="M108.8 162.8c1.6-1.7 4.9-.9 5.4 1.4.5 1.1-.1 2.1-.5 3.1-.9.7-1.8 1.4-3 1.2-2.7 0-4-3.9-1.9-5.7z"/><path id="path50" class="st2" d="M238.6 162.2c2-1.1 4.8.7 4.6 3 .2 2.5-3.1 4.4-5.1 2.8-2.2-1.2-1.9-4.9.5-5.8z"/><path id="path52" class="st1" d="M290.8 169.4c1.3 0 2.6-.1 3.9 0 .1.2.3.6.3.8-.6 0-1.1.1-1.7.1v4c-.3 0-.8 0-1.1.1v-4h-1.4v-1z"/><path id="path54" class="st1" d="M295.3 169.3c.5 0 1 0 1.5.1l.9 3.6c.3-1.2.5-2.5.9-3.7h1.4v4.9h-.9v-3.9c-.2 1.3-.5 2.6-.9 3.9h-1.1c-.2-1.3-.4-2.6-.8-3.8-.1 1.3-.1 2.6 0 3.9h-1v-5z"/></svg>