<?xml version="1.0" encoding="utf-8"?>
<!-- Generator: Adobe Illustrator 22.1.0, SVG Export Plug-In . SVG Version: 6.00 Build 0)  -->
<svg version="1.1" id="Layer_1" xmlns="http://www.w3.org/2000/svg" xmlns:xlink="http://www.w3.org/1999/xlink" x="0px" y="0px"
	 viewBox="0 0 300 116.6" style="enable-background:new 0 0 300 116.6;" xml:space="preserve">
<style type="text/css">
	.st0{fill:#D52F2F;}
</style>
<path class="st0" d="M204.2,11.9v78.3h23.5v-12h-7.8V0l-15.7,0L204.2,11.9L204.2,11.9z M0,78.2h8V40.5H0V30.1l8-1.3V18.3
	C8,5.5,10.8,0,27,0c3.5,0,7.7,0.5,11.3,1.2L36.2,14c-2.5-0.4-3.7-0.5-5.2-0.5c-5.7,0-7.2,0.6-7.2,6.2v9.1h11.9v11.7H23.7v37.8h7.9
	v12L0,90.2V78.2L0,78.2z M196.2,74.5c-2.5,0.5-4.6,0.5-6.2,0.5c-6.5,0.2-5.9-2-5.9-8.1V40.5h12.3V28.8h-12.3V0h-15.7v70.1
	c0,13.8,3.4,20.1,18.2,20.1c3.5,0,8.3-0.9,12-1.7L196.2,74.5L196.2,74.5z M148.7,40.5v-2.1c-4.8-0.9-9.5-0.9-12.1-0.9
	c-7.3,0-8.2,3.9-8.2,6c0,3,1,4.6,9,6.3c11.6,2.6,23.3,5.3,23.3,19.7c0,13.6-7,20.7-21.8,20.7c-9.9,0-19.5-2.1-26.8-4V74.5h11.9
	l0,2.1c5.1,1,10.5,0.9,13.3,0.9c7.8,0,9.1-4.2,9.1-6.4c0-3.1-2.2-4.6-9.6-6.1c-13.8-2.4-24.8-7.1-24.8-21.1
	c0-13.3,8.9-18.5,23.7-18.5c10,0,17.6,1.6,25,3.4v11.7L148.7,40.5L148.7,40.5z M68.9,74.4v-1.9H67v1.8c-8.4-0.5-15.2-7.3-15.7-15.7
	h1.9v-1.9h-1.9c0.5-8.4,7.2-15.1,15.6-15.6V43h1.9v-1.9c8.3,0.4,15,6.9,15.7,15.2v0.5h-1.9v1.9h1.9v0.5C83.9,67.5,77.2,74,68.9,74.4
	L68.9,74.4z M100.3,74.5l0-49H84.6v4.6c-3.3-2-6.9-3.4-10.7-4H74v-5.4h1.9v-4H60v4H62V26h0.1C47,28.8,35.6,42,35.6,57.8
	c0,17.9,14.5,32.4,32.4,32.4c5.9,0,11.6-1.6,16.7-4.6l2.8,4.6h16.6V74.5L100.3,74.5L100.3,74.5z M267.5,28.8H300v11.7h-7.8l-19.9,49
	c-5.7,13.8-15.1,26.7-29.4,26.7c-3.5,0-8.2-0.4-11.4-1.2l1.4-14.3c2.1,0.4,4.8,0.6,6.2,0.6c6.6,0,14.1-4.1,16.4-11.2l-20.2-49.7
	h-7.8V28.8h32.5v11.7h-7.8l11.4,28.1l11.4-28.1h-7.7L267.5,28.8L267.5,28.8z M76.2,50.8L75,49.6l-6.1,5.3c-0.3-0.1-0.6-0.2-1-0.2
	c-1.6,0-3,1.4-3,3.1c0,1.7,1.3,3.1,3,3.1s3-1.4,3-3.1c0-0.3,0-0.6-0.1-0.9L76.2,50.8"/>
</svg>
