<svg version="1.1" id="Layer_1" xmlns="http://www.w3.org/2000/svg" x="0" y="0" viewBox="0 0 300 99" xml:space="preserve"><style>.st0{fill:#ea4335}.st2{fill:#4285f4}</style><path class="st0" d="M128.4 52.1c0 14.2-11.1 24.7-24.8 24.7S78.9 66.3 78.9 52.1c0-14.3 11.1-24.7 24.8-24.7s24.7 10.4 24.7 24.7zm-10.9 0c0-8.9-6.4-15-13.9-15s-13.9 6.1-13.9 15c0 8.8 6.4 15 13.9 15s13.9-6.2 13.9-15z"/><path d="M181.8 52.1c0 14.2-11.1 24.7-24.8 24.7-13.6 0-24.8-10.5-24.8-24.7 0-14.3 11.1-24.7 24.8-24.7 13.7 0 24.8 10.4 24.8 24.7zm-10.8 0c0-8.9-6.4-15-13.9-15s-13.9 6.1-13.9 15c0 8.8 6.4 15 13.9 15s13.9-6.2 13.9-15z" fill="#fbbc05"/><path class="st2" d="M233 28.9v44.4c0 18.3-10.7 25.7-23.5 25.7-12 0-19.2-8-21.9-14.6l9.4-3.9c1.7 4 5.8 8.8 12.4 8.8 8.1 0 13.2-5 13.2-14.5v-3.6h-.4c-2.4 3-7.1 5.6-13 5.6-12.3 0-23.6-10.8-23.6-24.6 0-14 11.3-24.8 23.6-24.8 5.9 0 10.6 2.6 13 5.5h.4v-4H233zm-9.6 23.3c0-8.7-5.8-15.1-13.2-15.1-7.5 0-13.7 6.4-13.7 15.1 0 8.6 6.3 14.9 13.7 14.9 7.4 0 13.2-6.3 13.2-14.9z"/><path d="M249.9 2.8v72.5h-10.6V2.8h10.6z" fill="#34a853"/><path class="st0" d="M291.1 60.2l8.4 5.6c-2.7 4-9.3 11-20.6 11-14 0-24.5-10.9-24.5-24.7 0-14.7 10.6-24.7 23.3-24.7 12.8 0 19.1 10.2 21.1 15.7l1.1 2.8-33 13.7c2.5 5 6.5 7.5 12 7.5 5.6 0 9.4-2.7 12.2-6.9zm-25.9-8.9l22.1-9.2c-1.2-3.1-4.9-5.2-9.2-5.2-5.5 0-13.1 4.9-12.9 14.4z"/><path class="st2" d="M38.9 45.7V35.2h35.3c.3 1.8.5 4 .5 6.3 0 7.9-2.1 17.6-9.1 24.5-6.7 7-15.3 10.8-26.7 10.8C17.8 76.8 0 59.6 0 38.4S17.8 0 38.9 0c11.7 0 20 4.6 26.3 10.6L57.7 18c-4.5-4.2-10.6-7.5-18.9-7.5-15.4 0-27.5 12.5-27.5 27.9s12.1 27.9 27.5 27.9c10 0 15.7-4 19.3-7.7 3-3 4.9-7.2 5.7-13l-24.9.1z"/></svg>