<svg id="Artwork" xmlns="http://www.w3.org/2000/svg" xmlns:xlink="http://www.w3.org/1999/xlink" viewBox="0 0 400 400"><defs><style>.cls-1{fill:none;}.cls-2{clip-path:url(#clip-path);}.cls-3{fill:#4d97ff;opacity:0.3;}.cls-4,.cls-7{fill:#fff;}.cls-5{fill:#0fbd8c;}.cls-13,.cls-5,.cls-7,.cls-8{fill-rule:evenodd;}.cls-6{fill:#3bb98a;}.cls-12,.cls-8{fill:#ffc709;}.cls-9{fill:#2f9b73;}.cls-10{fill:#cb722a;}.cls-11{fill:#e7b50c;}.cls-13{fill:#ed5f87;}</style><clipPath id="clip-path"><rect class="cls-1" x="0.1" width="400" height="400"/></clipPath></defs><g class="cls-2"><path class="cls-3" d="M258.3,357.9c0,7.75-17.92,14-40,14s-40-3-40-14c0-7.75,17.92-14,40-14S258.26,345.36,258.3,357.9Z"/><rect class="cls-4" x="55.94" y="168.75" width="111.82" height="78.79" rx="4.7"/><g id="V3-Ideas-Page"><g id="V2-Masthead"><g id="Illustrations"><path id="Remixes" class="cls-5" d="M285.89,173.65a10.61,10.61,0,0,1,9.55-3.45,11.51,11.51,0,0,1,6.85,3.7,11.14,11.14,0,0,1,1.37,1.84l.38.67a1,1,0,0,1-.36,1.41,1,1,0,0,1-1.4-.39l-.37-.65a9,9,0,0,0-1.12-1.5,9.51,9.51,0,0,0-5.64-3,8.73,8.73,0,0,0-7.74,2.79,8.24,8.24,0,0,0-1.51,8.51,7.36,7.36,0,0,0,6.25,4.62,6.44,6.44,0,0,0,5.56-2.51,6.08,6.08,0,0,0-.29-7.6,5,5,0,0,0-3.1-1.49,4.37,4.37,0,0,0-3.84,1.61,3.8,3.8,0,0,0-.47,4,2.94,2.94,0,0,0,2.65,1.66,2.07,2.07,0,0,0,1.74-1,1.53,1.53,0,0,0,.19-1.06,1.84,1.84,0,0,0-.13-.34,1.33,1.33,0,0,0-.65-.49s-.13,0-.31.13a1,1,0,0,1-1.44-.18,1,1,0,0,1,.17-1.45,2.32,2.32,0,0,1,1.89-.53,3.36,3.36,0,0,1,2.06,1.43,1,1,0,0,1,.1.18,4.28,4.28,0,0,1,.26.68,3.56,3.56,0,0,1-.32,2.56,4,4,0,0,1-3.42,2.13,5,5,0,0,1-4.59-2.78,5.85,5.85,0,0,1,.67-6.19,6.35,6.35,0,0,1,5.63-2.38,7.11,7.11,0,0,1,4.37,2.11,8.18,8.18,0,0,1,.48,10.25,8.4,8.4,0,0,1-7.29,3.35,9.45,9.45,0,0,1-8-5.9c-.11-.26-.21-.52-.3-.79A10.35,10.35,0,0,1,285.89,173.65Z"/></g></g></g><rect class="cls-6" x="143.98" y="47.49" width="136.07" height="96.36" rx="5.73"/><path class="cls-7" d="M227.68,100.57c0,9-7.43,12.72-16.56,12.72s-16.53-3.75-16.53-12.72a13.33,13.33,0,0,1,1.11-5.67l-.27-13a1.73,1.73,0,0,1,2.77-1.4l7.05,5.22a12.73,12.73,0,0,1,5.87-1.23,12.86,12.86,0,0,1,5.9,1.23l7-5.22a1.74,1.74,0,0,1,2.78,1.4l-.28,13a13.33,13.33,0,0,1,1.11,5.67"/><path class="cls-8" d="M160.53,122.84l1.48,3,3.33.48a1.38,1.38,0,0,1,.76,2.35L163.7,131l.56,3.31a1.38,1.38,0,0,1-2,1.45l-3-1.56-3,1.56a1.38,1.38,0,0,1-2-1.45l.57-3.31-2.41-2.35a1.38,1.38,0,0,1,.77-2.35l3.32-.48,1.48-3a1.38,1.38,0,0,1,2.48,0"/><path class="cls-8" d="M321.33,193.51l1.64,3.33,3.68.54a1.53,1.53,0,0,1,.85,2.6l-2.67,2.6.63,3.66a1.52,1.52,0,0,1-2.21,1.61L320,206.12l-3.29,1.73a1.53,1.53,0,0,1-2.22-1.61l.63-3.66-2.66-2.6a1.52,1.52,0,0,1,.85-2.6l3.68-.54,1.64-3.33a1.53,1.53,0,0,1,2.74,0"/><ellipse class="cls-9" cx="237.17" cy="237.67" rx="45.34" ry="39.08"/><ellipse class="cls-9" cx="225.06" cy="293.66" rx="51.93" ry="38.51" transform="translate(-97.01 111.58) rotate(-23.05)"/><ellipse class="cls-9" cx="185.34" cy="265.58" rx="45.34" ry="39.08"/><path class="cls-6" d="M246.58,213.29c0,17.66-19.54,32-43.65,32s-43.64-14.31-43.64-32,19.54-38.16,43.64-38.16C246.58,175.13,246.58,195.63,246.58,213.29Z"/><path class="cls-10" d="M201.53,220c.06,0-.09-.33-.43-.52v0A2.13,2.13,0,0,1,201.53,220Z"/><path class="cls-10" d="M199,215.8c.11.12.12,0-.26-.53l0,.06A3.45,3.45,0,0,1,199,215.8Z"/><path class="cls-10" d="M210.53,286.66h0C208.89,286.33,210,286.6,210.53,286.66Z"/><path class="cls-10" d="M193.44,273.85c-.2-.59-.23-.6-.18-.45s.08.23.13.35A.93.93,0,0,1,193.44,273.85Z"/><path class="cls-10" d="M196.5,279.07c-.43-.65-.43-.61-.31-.41s.17.23.26.35Z"/><path class="cls-10" d="M200.13,282.63c-.54-.57-.64-.58-.52-.43a5,5,0,0,1,.43.37Z"/><path class="cls-10" d="M246.58,279.43a5.09,5.09,0,0,0-5,5c0,.34,0,.68,0,1v.07c-.19.65-.26,1.34-.47,2-.09.29-.2.57-.3.85a18.39,18.39,0,0,1-1.06,1.95c-.31.5-.68,1-1,1.47a1.34,1.34,0,0,1-.11.14c-.24.29-.49.57-.74.85a33.74,33.74,0,0,1-3.11,3l-.78.64-.1.08c-.53.39-1.06.78-1.6,1.15-1.1.76-2.24,1.48-3.4,2.16a63.28,63.28,0,0,1-5.84,3l-.21.09q0-5.79,0-11.58.08-10.19.22-20.38a4,4,0,0,0,.94-.22c9.25-3.4,18.77-9.14,24.29-17.47a21.6,21.6,0,0,0,3.61-11.6,5.33,5.33,0,1,0-10.66,0c0,.34,0,.68,0,1v.05c-.16.63-.26,1.29-.45,1.92-.09.28-.19.54-.29.81a18.48,18.48,0,0,1-1,1.91c-.31.5-.66,1-1,1.45l-.08.1c-.24.29-.49.57-.75.85a31.38,31.38,0,0,1-3.11,3c-.25.21-.51.43-.78.64l-.05,0c-.52.38-1,.77-1.57,1.14-1.11.76-2.24,1.48-3.4,2.16-1.76,1-3.58,2-5.43,2.82.06-3.32.11-6.65.18-10q.35-16.84.84-33.68c.15-5.2.48-10.42.49-15.63a1.48,1.48,0,0,1,0-.21,5,5,0,0,0-5-5,5.1,5.1,0,0,0-5,5q-.22,6.39-.41,12.79t-.37,13l-.81,0-1.22-.1-.54-.09a23.27,23.27,0,0,1-3.28-.86l-.75-.27c-.56-.27-1.12-.54-1.65-.85s-1.11-.69-1.65-1.06l-.05,0c-.27-.23-.54-.45-.8-.69a20.59,20.59,0,0,1-1.53-1.57,1.72,1.72,0,0,1-.2-.27s-.1-.05-.23-.24l-.19-.26-.07-.06.06,0-.31-.44a23.16,23.16,0,0,1-1.48-2.55c-.12-.22-.21-.47-.32-.71a1.52,1.52,0,0,1-.19-.35l-.05-.12a1.17,1.17,0,0,0-.05-.11l0,.05-.26-.68a38.35,38.35,0,0,1-1.81-7.54c-.38-2.6-3.81-4.25-6.15-3.49-2.84.91-3.9,3.36-3.5,6.15,1.26,8.64,5.14,16.91,12.57,21.86a27,27,0,0,0,14.18,4.25c-.07,3-.15,6-.21,9q-.47,20.64-.66,41.28v.68l-.74,0c-.53,0-1.06-.08-1.59-.13l.21,0c-.38-.08-.77-.11-1.14-.18a28.87,28.87,0,0,1-4-1c-.35-.11-.71-.24-1.06-.37l-.13-.05c-.69-.35-1.41-.65-2.09-1a21.8,21.8,0,0,1-1.95-1.21l-.3-.21.09.09-.18-.15a.71.71,0,0,0-.14-.1,1.57,1.57,0,0,1-.29-.27l-.41-.33a25.53,25.53,0,0,1-1.89-1.86c-.28-.31-.54-.62-.81-.94l.12.17-.17-.23h0c-.08-.09-.18-.24-.25-.34l-.17-.24a27.57,27.57,0,0,1-1.79-2.95c-.28-.53-.53-1.08-.79-1.62,0,.07.05.13.07.22a3,3,0,0,0-.12-.32l0-.07a1.9,1.9,0,0,1-.1-.28c-.07-.15-.13-.3-.19-.45a44,44,0,0,1-2.23-8.9c-.39-2.59-3.79-4.25-6.15-3.49-2.83.92-3.91,3.37-3.49,6.15,1.51,10,6.15,19.64,14.89,25.23a32.83,32.83,0,0,0,16.73,4.86c0,10.12,0,20.25.19,30.36s.4,20.56,1.47,30.77c.1.86.19,1.72.31,2.58.33,2.58,2.06,5.13,5,5,2.42-.11,5.36-2.22,5-5-1.24-9.55-1.46-19.26-1.69-28.87q-.21-9.11-.26-18.22a4.17,4.17,0,0,0,1.08-.23,63.43,63.43,0,0,0,9.5-4.49c5.64-3.23,11-7.37,14.59-12.83a21.22,21.22,0,0,0,3.57-11.44A5.06,5.06,0,0,0,246.58,279.43Z"/><rect class="cls-11" x="249.88" y="114.91" width="71.84" height="47.39" rx="2.92"/><rect class="cls-12" x="247.99" y="112.12" width="71.84" height="47.39" rx="2.92"/><path class="cls-13" d="M127.31,181c-.44,5-6.13,9-7.57,9s-7.14-3.95-7.58-9c0-.17,0-.33,0-.5a4.43,4.43,0,0,1,4.44-4.41,4.38,4.38,0,0,1,3.17,1.33,4.34,4.34,0,0,1,3.16-1.33,4.43,4.43,0,0,1,4.44,4.41A4.19,4.19,0,0,1,127.31,181Z"/><path class="cls-13" d="M112.09,145c-.69,7.87-9.61,14.07-11.88,14.07S89,152.85,88.34,145c0-.26,0-.52,0-.77a6.94,6.94,0,0,1,7-6.93,6.81,6.81,0,0,1,5,2.1,6.85,6.85,0,0,1,5-2.1,7,7,0,0,1,6.95,6.93C112.13,144.46,112.11,144.72,112.09,145Z"/></g></svg>