<svg id="Artwork" xmlns="http://www.w3.org/2000/svg" xmlns:xlink="http://www.w3.org/1999/xlink" viewBox="0 0 400 400"><defs><style>.cls-1{fill:none;}.cls-2{clip-path:url(#clip-path);}.cls-3{fill:#fff;fill-rule:evenodd;}.cls-4{fill:#4d97ff;opacity:0.3;}.cls-5{fill:#2f9b73;}.cls-6{fill:#cb722a;}.cls-7{fill:#5c6671;}</style><clipPath id="clip-path"><rect class="cls-1" x="0.29" width="400" height="400"/></clipPath></defs><g class="cls-2"><path class="cls-3" d="M286,198.6H240c-9.23,0-16.71,8.71-16.71,19.44s7.48,19.44,16.71,19.44h21.27l0,.06c9.1,15.66,22.74,16.87,21.45,9.76-.89-5-1.6-7.13-.86-9.82H286c9.23,0,16.71-8.7,16.71-19.44S295.26,198.6,286,198.6Z"/><path class="cls-3" d="M249.19,47.46H198.85A46.54,46.54,0,0,0,152.31,94v26.1a46.54,46.54,0,0,0,46.54,46.53h1.54c.38,2.68-.29,5.26-1.12,10.34-1.33,8.12,12.49,6.91,22.1-10.34h27.82a46.53,46.53,0,0,0,46.53-46.53V94A46.53,46.53,0,0,0,249.19,47.46Z"/><path class="cls-4" d="M176.55,335.87c0,8.4-22.19,15.21-49.56,15.21s-49.57-3.24-49.57-15.21c0-8.4,22.19-15.2,49.57-15.2S176.51,322.28,176.55,335.87Z"/><path class="cls-4" d="M313,341.2c0,6.72-16.87,12.17-37.69,12.17s-37.68-2.59-37.68-12.17c0-6.72,16.87-12.17,37.68-12.17S312.94,330.33,313,341.2Z"/><ellipse class="cls-5" cx="119.79" cy="223.02" rx="55.64" ry="48.15"/><ellipse class="cls-5" cx="119.79" cy="223.02" rx="55.64" ry="48.15"/><ellipse class="cls-5" cx="119.79" cy="223.02" rx="55.64" ry="48.15"/><path class="cls-6" d="M131.15,323.66a.62.62,0,0,0,0-.13.45.45,0,0,1,0,.11Z"/><path class="cls-6" d="M130.56,249.39q.56-12.46,1.32-24.91c.24-3.87.65-7.75.78-11.62,0-.05,0-.11,0-.16.24-3.12-2.91-6.1-6-6a6.13,6.13,0,0,0-6,6c-.23,3.19-.44,6.38-.65,9.58q-.75,11.85-1.31,23.71l0,.81-.66,0c-.52,0-1-.08-1.56-.14l-.76-.12a28.15,28.15,0,0,1-4-1.07l-.82-.31a21.76,21.76,0,0,1-2.09-1.08c-.71-.41-1.38-.86-2-1.33-.38-.32-.76-.65-1.13-1a25.27,25.27,0,0,1-1.76-1.82c-.1-.11-.2-.23-.29-.35l.06.12-.09-.15-.14-.16a1.21,1.21,0,0,1-.24-.4c-.19-.24-.39-.48-.55-.73a29.17,29.17,0,0,1-1.74-3c-.17-.33-.32-.67-.47-1a2.5,2.5,0,0,1-.18-.37l0,0-.06-.14a.79.79,0,0,0,0,.09q-.21-.52-.39-1a46,46,0,0,1-2.17-9.1c-.4-2.77-4.06-4.53-6.57-3.72-3,1-4.15,3.59-3.72,6.56,1.47,10.27,6,20.2,14.87,26.07a31.54,31.54,0,0,0,16.07,4.93c-.24,6.44-.44,12.88-.55,19.33-.19,10.1-.22,20.22.19,30.33.32,8.07.77,16.32,2.52,24.23.15.67.31,1.34.5,2a6,6,0,1,0,11.51-3.18c-.38-1.37-.68-2.77-.93-4.17-.14-.78-.27-1.56-.38-2.34v0l-.09-.64c-.13-.89.06,0,.09.55,0-.39-.12-.82-.16-1.18-.49-4.07-.78-8.17-1-12.26-.5-9.94-.52-19.91-.38-29.86C129.76,270,130.1,259.67,130.56,249.39Z"/><path class="cls-6" d="M100.42,234.22c.16.28.26.4-.22-.46l0,.05C100.29,233.94,100.36,234.08,100.42,234.22Z"/><path class="cls-6" d="M103.59,239.57c-.34-.65-.46-.73-.41-.59a5,5,0,0,1,.38.56Z"/><path class="cls-5" d="M297.44,274.2c-10.87,2.59-19,9.4-22.49,17.73a38.48,38.48,0,0,0,30.18,5.19c12.23-2.92,22.86-5.45,25.41-15.52C322.22,274.47,309.66,271.29,297.44,274.2Z"/><path class="cls-5" d="M257,267.25a39.12,39.12,0,0,0-30.78-.86c1.13,8.79,7.13,17,17,21.65,11.09,5.22,20.73,9.76,31,4.17C274.31,282.21,268.11,272.47,257,267.25Z"/><path class="cls-6" d="M270.85,290a373.11,373.11,0,0,0-1,39A56.27,56.27,0,0,0,271,340.08a4.39,4.39,0,0,0,5.33,3,4.43,4.43,0,0,0,3-5.33c-.14-.55-.25-1.1-.34-1.66s-.14-1.75,0-.09c0-.39-.1-.77-.14-1.16-.17-1.64-.27-3.29-.34-4.93-.18-4.08-.19-8.16-.14-12.23.1-7.63.41-15.26.84-22.88.09-1.62.18-3.25.29-4.88a4.35,4.35,0,0,0-4.33-4.33,4.44,4.44,0,0,0-4.32,4.33Z"/><path class="cls-7" d="M237.87,68.13a38.76,38.76,0,0,0-5.44-1.57.85.85,0,0,0-.35-.15,40.66,40.66,0,0,0-43,60.83,40.6,40.6,0,0,0,74.83-14.63,42.65,42.65,0,0,0,.51-6.38A41,41,0,0,0,237.87,68.13Zm-22.54,66.92,6.41.8a1.28,1.28,0,0,0,1.21-.92l1.46-3.63a1.25,1.25,0,0,0-.32-1.22,12.35,12.35,0,0,0-2.39-2.45,8.24,8.24,0,0,0-2.8-.42l-6.41-.74-.51-1.36c-.21-.59-.43-1.17-.64-1.75a5.18,5.18,0,0,0-.3-.89c.16-.51.26-1,.39-1.55l.48-1.93a24.33,24.33,0,0,0,3.35-1.67c.86-.57,1-2.08,1.08-3.25l2.76-.47,3.84,3.29c.63.54,1.1,1.07,2,1,.75-.08,1.51-.26,2.25-.38l3.64-.62a6.62,6.62,0,0,0,2-.42,8.55,8.55,0,0,0,1.69-1.81,16.78,16.78,0,0,0,2-2.25h0a16.16,16.16,0,0,0,1.67-.28l2.39-.41,7.13,5.06c1.08.76,2.18.36,3.42.15s3.43-.11,4.05-1.5c.53-1.21,1-2.46,1.45-3.7l4.68-.12a38.41,38.41,0,0,1-31.57,31.91,35.3,35.3,0,0,1-12.09.07l1.4-1.33a1.27,1.27,0,0,0-.55-2.09l-2.07-.67-1.84-3C214.91,136,215.12,135.52,215.33,135.05Zm20.92-22.61.14,0C236.32,112.47,236.27,112.49,236.25,112.44Zm22.61-9.63c-.73-.17-1.45-.35-2.18-.5a3.1,3.1,0,0,0-2.15.34l-5,2.2-2.11-1.49,2.45-10.62c.29-1.24,1-2.67,0-3.72-1.14-1.23-2.35-2.41-3.53-3.61.17-.75.34-1.49.52-2.24l4.61-2.75a38.63,38.63,0,0,1,9.57,19.65ZM224.58,83.93a1.24,1.24,0,0,0,0,1.26l2.26,4.51a8.43,8.43,0,0,0,.39.8,8.89,8.89,0,0,0,0,1.79l-2.71,1.36-7.91-7.91c-.43-.43-.84-.92-1.31-1.31-.8-.66-1.66-.27-2.56,0s-1.77.28-2.33,1-.89,1.4-1.33,2.09l-3.29,5.16L202,93.77l-7.22-6.56a1.24,1.24,0,0,0-1.21-.32l-2.47.83A38.51,38.51,0,0,1,216,69.06h.08a38.89,38.89,0,0,1,10.8-.8c1.23.1,2.47.26,3.7.48l.18,3.17-1.47,1a1.17,1.17,0,0,0-.55.85,1.21,1.21,0,0,0,.1.86c.35.69.7,1.38,1,2.08Zm-30.09,46.58a38.4,38.4,0,0,1-5.56-39.43l4.61-1.56c2.33,2.15,4.62,4.43,7.08,6.42.82.66,1.45.4,2.35.14l3.37-1c1.51-.43,2.08-1.94,2.88-3.2l3.09-4.85,1.66-.42,9.39,9.4a1.3,1.3,0,0,0,1.52.19l4.24-2.12a1.23,1.23,0,0,0,.62-1.08c0-.86,0-1.73,0-2.59a4.14,4.14,0,0,0-.62-1.75l-2-4,5.29-7.26a1.3,1.3,0,0,0,0-1.27l-.87-1.73c.89-.54,1.75-1.17,1.72-2.24s-.08-1.92-.15-2.88a38,38,0,0,1,16.74,9.21l-4,2.4a2.28,2.28,0,0,0-1.31,1.57c-.25,1-.46,2-.69,3a1.55,1.55,0,0,0,0,.29,1.2,1.2,0,0,0,.36.93l3.74,3.82q-1.5,6.52-3,13a1.31,1.31,0,0,0,.58,1.42l2.72,1.91a2,2,0,0,0,2.37.26l5.49-2.44,3,.7a1.25,1.25,0,0,0,1.22-.33l1.6-2q.12,1.56.12,3.12c0,1-.05,1.89-.12,2.83l-5.93.15a1.32,1.32,0,0,0-1.21.92c-.51,1.3-1,2.6-1.52,3.91l-3.9.66-4.65-3.3c-.87-.62-1.73-1.27-2.62-1.86a2.36,2.36,0,0,0-1.94-.27l-3.68.62a2.62,2.62,0,0,0-1.75.91l-2.5,2.81c-.08.09-.4.37-.59.59l-.22,0L225,115.33c-1.44-1.24-2.88-2.49-4.35-3.72a2.5,2.5,0,0,0-2.42-.37l-3.29.56a1.2,1.2,0,0,0-.88.87l-.45,2.7a32,32,0,0,0-3.21,1.6c-1.08.67-1.17,2.62-1.45,3.76a15.35,15.35,0,0,0-.38,1.52,3.44,3.44,0,0,0,.41,1.77l1.44,3.92a1.34,1.34,0,0,0,1.21.92l8.89,1,1.28,1.36-.8,2-6.38-.79a1.19,1.19,0,0,0-1.08.62c-.41.92-.88,1.83-1.24,2.78-.44,1.15.41,2,1,3,.49.8,1,2.22,1.85,2.74a3.22,3.22,0,0,0,.75.35,12.07,12.07,0,0,0-1,1.22A38.38,38.38,0,0,1,194.49,130.51Z"/><path class="cls-7" d="M210.39,100.39l1.21.8a1.24,1.24,0,0,0,1.26,0l2.83-1.41a1,1,0,0,0,.41-.41l0,0,2.12-2.83a1.24,1.24,0,0,0,.12-1,1.46,1.46,0,0,0-.57-.75L215,92.67a1.26,1.26,0,0,0-1.26,0l-4.24,2.12a1.23,1.23,0,0,0-.62,1.08c0,.94,0,1.89,0,2.83S209.75,100,210.39,100.39Zm5.05-4.27-1.19,1.59-1.93,1-1-.64V96.64l2.86-1.43Z"/><path class="cls-7" d="M204.38,121.65c-.59-.43-1.17-.87-1.75-1.31a6,6,0,0,0-1.5-1c-1.35-.47-2.7-.9-4-1.35a1.1,1.1,0,0,0-1,.1l-3.54,2.12a1.26,1.26,0,0,0-.57,1.41l1.41,4.24a1.25,1.25,0,0,0,.87.88c2.61.43,5.19.89,7.78,1.41a1.29,1.29,0,0,0,1.54-.87l1.41-4.24A1.3,1.3,0,0,0,204.38,121.65Zm-3,.88.87.66c-.26.78-.53,1.57-.79,2.36q-3-.58-6-1.09l-.87-2.58,2.19-1.31c1.16.39,2.32.8,3.49,1.16l.14.09C200.77,122.07,201.09,122.3,201.41,122.53Z"/></g></svg>