<svg id="Artwork" xmlns="http://www.w3.org/2000/svg" xmlns:xlink="http://www.w3.org/1999/xlink" viewBox="0 0 460 460"><defs><style>.cls-1{fill:none;}.cls-2{clip-path:url(#clip-path);}.cls-13,.cls-3{fill:#4d97ff;}.cls-3{opacity:0.3;}.cls-4,.cls-5,.cls-6{fill:#fff;}.cls-4{opacity:0.4;}.cls-5{opacity:0.5;}.cls-7{fill:#ffc709;}.cls-8{fill:#0fbd8c;}.cls-9{fill:#2f9b73;}.cls-10{fill:#3bb98a;}.cls-11{fill:#cb722a;}.cls-12{fill:#cf63cf;}</style><clipPath id="clip-path"><rect class="cls-1" x="-0.12" width="460" height="460"/></clipPath></defs><g class="cls-2"><path class="cls-3" d="M344.4,432.29c0,11.43-26.44,20.7-59.06,20.7s-59-4.4-59-20.7c0-11.44,26.44-20.71,59-20.71S344.34,413.78,344.4,432.29Z"/><path class="cls-4" d="M432.42,260.86c-1.34,117.58-58.71,133.92-143.23,133.92S136.72,348.21,136.72,267.94,186.42,87.24,291.15,92C431.93,98.43,433.35,179.6,432.42,260.86Z"/><path class="cls-5" d="M236,118.3c0,50.41-47.65,91.27-106.43,91.27S23.12,168.71,23.12,118.3C23.12,49.44,70.78,8.36,129.56,8.36,236,8.36,236,67.9,236,118.3Z"/><path class="cls-6" d="M216.78,118.18c0,38.52-40.82,68-85,68s-83.68-26-83.68-70.84c0-59.4,39.5-87.64,83.68-87.64C211.77,27.72,216.78,79.67,216.78,118.18Z"/><path class="cls-7" d="M73.36,93.16l-.15-25.38s8.58-9.29,25.84-9.41,26,9.06,26,9.06l29.41-.2a2.23,2.23,0,0,1,2.17,2.29l.13,23.08a2.24,2.24,0,0,1-2.14,2.32l-54.41.37a2.09,2.09,0,0,0-1.52.68l-3,3.29a2.1,2.1,0,0,1-1.52.69l-6.85,0a2.07,2.07,0,0,1-1.53-.66l-3.07-3.25a2.07,2.07,0,0,0-1.53-.66l-5.58,0A2.23,2.23,0,0,1,73.36,93.16Z"/><path class="cls-8" d="M100.64,72.39A4.91,4.91,0,0,1,95.09,72a4.87,4.87,0,0,0-5.31-.54A1,1,0,0,0,89,71a1,1,0,0,0-1,1V87.48a1,1,0,0,0,2,0V80.19a4.87,4.87,0,0,1,5.13.62,4.89,4.89,0,0,0,5.72.31,1,1,0,0,0,.42-.82V72.75A.39.39,0,0,0,100.64,72.39Z"/><path class="cls-6" d="M177.5,198.78a2.36,2.36,0,0,0,1.65-1.71l.5-1.89a.87.87,0,0,1,1.7,0l.49,1.89a2.37,2.37,0,0,0,1.66,1.71l1.84.51a.92.92,0,0,1,0,1.76l-1.84.51a2.38,2.38,0,0,0-1.66,1.7l-.49,1.9a.87.87,0,0,1-1.7,0l-.5-1.9a2.36,2.36,0,0,0-1.65-1.7l-1.84-.51a.92.92,0,0,1,0-1.76Z"/><ellipse class="cls-9" cx="224.42" cy="291.34" rx="47.21" ry="48.83"/><path class="cls-10" d="M266.55,222.09c0,19.62-17.94,35.53-40.06,35.53s-40.07-15.91-40.07-35.53,17.94-42.42,40.07-42.42C266.55,179.67,266.55,202.47,266.55,222.09Z"/><ellipse class="cls-9" cx="343.86" cy="233.12" rx="46.33" ry="43.86" transform="translate(-67.9 288.25) rotate(-41.76)"/><path class="cls-10" d="M318.21,160.35c0,20.81-19,37.68-42.47,37.68s-42.46-16.87-42.46-37.68,19-45,42.46-45C318.21,115.36,318.21,139.53,318.21,160.35Z"/><path class="cls-10" d="M386.86,329.53c0,20.11-19,36.41-42.46,36.41s-42.47-16.3-42.47-36.41,19-43.46,42.47-43.46C386.86,286.07,386.86,309.42,386.86,329.53Z"/><path class="cls-10" d="M268.76,360.39c0,5.71-6,10.34-13.46,10.34s-13.46-4.63-13.46-10.34,6-12.34,13.46-12.34C268.76,348.05,268.76,354.68,268.76,360.39Z"/><path class="cls-10" d="M359,165.35c0,7.08-6.77,12.83-15.11,12.83s-15.12-5.75-15.12-12.83S335.51,150,343.86,150C359,150,359,158.26,359,165.35Z"/><path class="cls-11" d="M297,289a104,104,0,0,0,26.61-6.35,69.14,69.14,0,0,0,14.13-7.39,71.58,71.58,0,0,0,11.63-10.22A104.68,104.68,0,0,0,364.65,243a103.24,103.24,0,0,0,6.12-13.77c1.08-3.09-1.22-7-4.36-7.69a6.41,6.41,0,0,0-7.69,4.37c-.32.91-.68,1.81-1.05,2.71,0,.1-.07.19-.11.29l-.69,1.57c-.59,1.31-1.21,2.61-1.84,3.9q-2.46,5-5.4,9.7l-.46.72c-.22-.14-.44-.28-.65-.43l-.39-.28L348,244a30.59,30.59,0,0,1-3.78-3.77l-.24-.3c-.28-.38-.56-.77-.82-1.17a30.18,30.18,0,0,1-1.85-3.15c-.16-.3-.31-.61-.45-.91l-.29-.64c0-.09-.07-.17-.08-.22-.14-.35-.26-.69-.38-1a38.36,38.36,0,0,1-1.35-5.05c-.64-3.22-4.64-5.36-7.69-4.37a6.4,6.4,0,0,0-4.36,7.69,38.23,38.23,0,0,0,15,23.78,75.38,75.38,0,0,1-8.75,8.48l.22-.15-.39.3h0l-.16.12-.16.12-1.35,1c-1,.71-2.06,1.37-3.12,2a64.24,64.24,0,0,1-6.54,3.39c-.44.2-.9.38-1.33.59,1.81-.89-.07,0-.53.19-1.12.44-2.24.85-3.38,1.24-2.15.73-4.33,1.38-6.52,1.95a111.1,111.1,0,0,1-11.84,2.34l.47-.06-.56.07-.13,0-.49.06-.94.11q-1.35.15-2.7.27c-1.42.13-2.85.23-4.28.3q.06-9.6.14-19.19.15-16.75.4-33.52.22-14.8.51-29.61c.09-5,.21-10,.31-15a4.93,4.93,0,0,0,.19-1.63,6,6,0,0,0-.13-1.05q.07-3.18.13-6.36.19-8.36.41-16.71c.07-2.58.19-5.15.21-7.73,0-.11,0-.22,0-.33a6.3,6.3,0,0,0-6.25-6.25,6.38,6.38,0,0,0-6.25,6.25l-.15,5.27q-.19,7.33-.36,14.66l-.09,4-.12-.06c-.51-.29-1-.61-1.49-.94l-.52-.37a25.34,25.34,0,0,1-3-2.89l-.54-.66c-.54-.74-1-1.51-1.51-2.29s-1-1.74-1.4-2.64c-.23-.49-.83-2.21-.15-.25-.18-.53-.41-1-.6-1.56a48.7,48.7,0,0,1-2-7.6c-.61-3.22-4.65-5.34-7.69-4.36a6.41,6.41,0,0,0-4.36,7.69c1.59,8.4,5.2,17,11.69,22.77a30.42,30.42,0,0,0,11.41,6.57c0,1.67-.08,3.33-.11,5q-.3,14.21-.52,28.4-.26,16.35-.44,32.72c0,1.48,0,3,0,4.45l-.46-.07a116.8,116.8,0,0,1-14.61-3.75c-1.48-.48-2.95-1-4.4-1.54l-2.27-.88-.82-.34-.18-.08a88.54,88.54,0,0,1-9.23-4.65q-2.31-1.35-4.52-2.86c-.74-.5-1.47-1-2.2-1.56l-.18-.14.27.22c-.38-.32-.78-.61-1.17-.93-1-.84-2-1.73-3-2.65a33.69,33.69,0,0,0,10.2-10.82,29,29,0,0,0,3.5-9.5,6.78,6.78,0,0,0-.63-4.82,6.37,6.37,0,0,0-3.74-2.87,6.27,6.27,0,0,0-4.81.63,6.11,6.11,0,0,0-2.88,3.73,24.77,24.77,0,0,1-1.23,4.56,25.9,25.9,0,0,1-2.37,4,29.63,29.63,0,0,1-4.21,4.17c-.6.44-1.22.87-1.85,1.27a48.87,48.87,0,0,1-2.79-5.19l-.21-.47c-.2-.52-.41-1-.6-1.56-.38-1-.73-2.12-1-3.19a53.12,53.12,0,0,1-1.5-7.15,6.26,6.26,0,0,0-2.87-3.74,6.44,6.44,0,0,0-4.82-.63,6.33,6.33,0,0,0-3.73,2.87,7.35,7.35,0,0,0-.63,4.82,53.16,53.16,0,0,0,9.66,23.93,68.08,68.08,0,0,0,18.37,17c10.76,6.88,23.23,11.33,35.72,13.86,1.7.34,3.41.65,5.13.91q-.07,9.15-.11,18.29-.08,18.15,0,36.3c0,2,0,3.95,0,5.93l-2.88-.22c-1.14-.1-2.28-.22-3.42-.34l-1.84-.22c.77.1.26,0-.27,0l-.78-.1.65.08-.36,0c-3.09-.45-6.17-1-9.23-1.65-3.43-.74-6.83-1.62-10.17-2.67q-2.58-.81-5.1-1.75c-.79-.3-1.56-.61-2.34-.92l.44.19-.6-.26h0a3.78,3.78,0,0,1-.56-.26l-.88-.39a67.89,67.89,0,0,1-8.54-4.66,41.41,41.41,0,0,0,5.64-7.44,66.61,66.61,0,0,0,4.59-9.37,6.26,6.26,0,0,0-.63-4.82,6.37,6.37,0,0,0-3.74-2.87,6.27,6.27,0,0,0-4.81.63l-1.27,1a6.42,6.42,0,0,0-1.5,2.45,49.76,49.76,0,0,1-5.56,9.82,26.87,26.87,0,0,1-2.22,2.43c-.33-.38-.66-.75-1-1.13l.24.34-.34-.47-.07-.07a4.57,4.57,0,0,1-.37-.53c-.23-.33-.47-.66-.7-1a43.35,43.35,0,0,1-3.07-5.54c0,.12.09.24.14.38-.07-.19-.16-.39-.24-.58v0a4.42,4.42,0,0,1-.22-.6c-.14-.36-.27-.71-.4-1.06q-.57-1.65-1-3.36c-.27-1.07-.49-2.16-.67-3.26.06.38,0,.08-.05-.28h0c0-.26-.08-.52-.12-.79,0,.15,0,.28.06.4V288c-.07-.64-.12-1.27-.17-1.91-.23-3.26-2.71-6.41-6.25-6.25-3.18.14-6.5,2.76-6.25,6.25A46.14,46.14,0,0,0,211,312.69a57.15,57.15,0,0,0,19,15.1,100.15,100.15,0,0,0,22.4,8.16A146,146,0,0,0,272,339.19c1.63.17,3.27.33,4.92.44q.09,8.55.24,17.09.28,16.54.86,33.1c.35,9.66.8,19.32,1.45,29,.14,2.09.29,4.19.45,6.28.25,3.25,2.69,6.41,6.25,6.25,3.17-.14,6.52-2.76,6.25-6.25-.72-9.22-1.21-18.46-1.6-27.7-.43-10.19-.73-20.39-1-30.59,1.69-.09,3.37-.22,5-.38a122.53,122.53,0,0,0,22.89-4.12,74.88,74.88,0,0,0,24.93-12.22,85.12,85.12,0,0,0,8.1-7l.12-.06a6.62,6.62,0,0,0,2.43-2.57,73,73,0,0,0,7.7-9.83,49.37,49.37,0,0,0,5.72-11.41,6.29,6.29,0,0,0-4.36-7.68,6.39,6.39,0,0,0-7.69,4.36c-.06.19-.13.38-.2.56s-.09.23-.14.35a52.91,52.91,0,0,1-3,5.68c-.77,1.29-1.6,2.55-2.46,3.78-.43.6-.87,1.2-1.32,1.79-.05.08-.11.15-.17.23l-.79,1c-.57-.57-1.11-1.17-1.63-1.79a30.73,30.73,0,0,1-3.12-5.39,40.09,40.09,0,0,1-1.32-3.92,6.26,6.26,0,0,0-12.06,3.33,38.12,38.12,0,0,0,9.29,16.65l-.24.22-1.45,1.18-.32.25-.11.08c-1.07.79-2.15,1.57-3.26,2.31a57.34,57.34,0,0,1-5.44,3.24c-.87.45-1.75.88-2.64,1.3-.44.2-.89.41-1.34.6l-.67.29.13-.06c-1.91.77-3.85,1.46-5.8,2.08a99.86,99.86,0,0,1-11.42,2.87q-2.64.51-5.29.9l-1.18.17.33-.05H299c-.82.11-1.64.2-2.46.29-2.3.24-4.62.43-6.94.55q-.19-12.14-.31-24.27-.14-18.13-.09-36.27c0-1.35,0-2.7,0-4C291.83,289.58,294.45,289.34,297,289Zm57.12,28.29c-.07.18-.12.29,0,0Zm-18.57,22.57-.12.09Z"/><path class="cls-11" d="M333,263.34c-.83.57-.61.47-.34.28l.17-.13Z"/><path class="cls-11" d="M297.81,276.43h.09l-.71.09.37-.05Z"/><path class="cls-11" d="M322.48,347.47h0C322.87,347.31,323.92,346.75,322.48,347.47Z"/><path class="cls-11" d="M299.12,353.44c.55-.07,1.58-.23,0,0Z"/><path class="cls-11" d="M216,297l.1.2a4.22,4.22,0,0,0-.33-.83c.06.18.13.36.2.54Z"/><path class="cls-11" d="M213.68,288.73c0-.13-.05-.35-.11-.68,0,.12,0,.26.06.4A2.33,2.33,0,0,0,213.68,288.73Z"/><path class="cls-11" d="M268.59,326.31h.06l-.4-.06.13,0Z"/><path class="cls-11" d="M220.28,304.38a1.47,1.47,0,0,1,.1.13,6.15,6.15,0,0,0-.54-.73l.23.33Z"/><path class="cls-11" d="M240.89,319.16l.16.07-.77-.34.58.26Z"/><path class="cls-11" d="M238.08,238.1c-1.18-1-.48-.38,0,0Z"/><path class="cls-12" d="M112.66,113.22l-3.17-23.7a2.37,2.37,0,0,1,1.9-2.71l5.73-.87a2.13,2.13,0,0,1,1.66.45l3.58,2.87a2.14,2.14,0,0,0,1.66.46l7-1.08a2.18,2.18,0,0,0,1.47-.93l2.69-3.83a2.22,2.22,0,0,1,1.47-.93l55.6-8a2.27,2.27,0,0,1,2.54,2l3.17,23.7a2.38,2.38,0,0,1-1.9,2.71l-55.6,8a2.22,2.22,0,0,0-1.48.93l-2.68,3.83a2.23,2.23,0,0,1-1.48.94l-7,1.07a2.1,2.1,0,0,1-1.66-.46l-3.58-2.87a2.13,2.13,0,0,0-1.66-.45l-5.73.88A2.28,2.28,0,0,1,112.66,113.22Z"/><path class="cls-13" d="M86,150.45l2.36-23.81a2.27,2.27,0,0,1,2.46-2.12l5.76.65a2.17,2.17,0,0,1,1.5.87l2.82,3.73a2.17,2.17,0,0,0,1.5.87l7.06.81a2.17,2.17,0,0,0,1.65-.52l3.48-3a2.12,2.12,0,0,1,1.64-.52l47.34,5.77a2.36,2.36,0,0,1,2,2.63l-2.36,23.81a2.28,2.28,0,0,1-2.46,2.13L113.44,156a2.15,2.15,0,0,0-1.65.52l-3.48,3a2.15,2.15,0,0,1-1.64.52l-7.06-.81a2.21,2.21,0,0,1-1.51-.87l-2.81-3.73a2.19,2.19,0,0,0-1.51-.87L88,153.09A2.36,2.36,0,0,1,86,150.45Z"/><path class="cls-6" d="M52.94,227.23a10.24,10.24,0,0,0,7.1-7.32l2.12-8.12a3.74,3.74,0,0,1,7.28,0l2.12,8.12a10.22,10.22,0,0,0,7.1,7.32l7.88,2.19a3.92,3.92,0,0,1,0,7.51l-7.88,2.19a10.22,10.22,0,0,0-7.1,7.32l-2.12,8.12a3.74,3.74,0,0,1-7.28,0L60,246.44a10.24,10.24,0,0,0-7.1-7.32l-7.88-2.19a3.92,3.92,0,0,1,0-7.51Z"/><path class="cls-6" d="M247.21,36.4a7,7,0,0,0,4.88-5l1.45-5.58a2.57,2.57,0,0,1,5,0L260,31.38a7,7,0,0,0,4.88,5l5.4,1.5a2.69,2.69,0,0,1,0,5.16l-5.4,1.51a7,7,0,0,0-4.88,5l-1.45,5.58a2.57,2.57,0,0,1-5,0l-1.45-5.58a7,7,0,0,0-4.88-5l-5.41-1.51a2.7,2.7,0,0,1,0-5.16Z"/><path class="cls-6" d="M399.17,121.7a11.82,11.82,0,0,0,8.19-8.45l2.44-9.37a4.32,4.32,0,0,1,8.41,0l2.45,9.37a11.78,11.78,0,0,0,8.19,8.45l9.09,2.52a4.53,4.53,0,0,1,0,8.67l-9.09,2.53a11.77,11.77,0,0,0-8.19,8.44l-2.45,9.38a4.32,4.32,0,0,1-8.41,0l-2.44-9.38a11.8,11.8,0,0,0-8.19-8.44l-9.09-2.53a4.53,4.53,0,0,1,0-8.67Z"/><path class="cls-6" d="M278.38,68.62a5,5,0,0,0,3.45-3.55l1-3.95a1.82,1.82,0,0,1,3.54,0l1,3.95a4.94,4.94,0,0,0,3.45,3.55l3.82,1.07a1.91,1.91,0,0,1,0,3.65l-3.82,1.06A5,5,0,0,0,287.43,78l-1,3.94a1.82,1.82,0,0,1-3.54,0l-1-3.94a5,5,0,0,0-3.45-3.56l-3.83-1.06a1.91,1.91,0,0,1,0-3.65Z"/></g></svg>