<svg id="Artwork" xmlns="http://www.w3.org/2000/svg" xmlns:xlink="http://www.w3.org/1999/xlink" viewBox="0 0 400 400"><defs><style>.cls-1{fill:none;}.cls-2{fill:#fff;opacity:0.8;}.cls-3{clip-path:url(#clip-path);}.cls-4{fill:#4d97ff;opacity:0.3;}.cls-5{fill:#ffbf00;}.cls-6{fill:#cf8b17;}.cls-7{fill:#5c6671;}.cls-8{fill:#36a97e;}.cls-9{fill:#ed5f87;}.cls-10{fill:#f9d5b7;}.cls-11{fill:#3bb98a;}</style><clipPath id="clip-path"><rect class="cls-1" width="400" height="400"/></clipPath></defs><path class="cls-2" d="M279.35,60.13a6.67,6.67,0,0,0,4.7-4.71l1.4-5.22a2.5,2.5,0,0,1,4.83,0l1.41,5.22a6.67,6.67,0,0,0,4.7,4.71l5.22,1.4a2.5,2.5,0,0,1,0,4.83l-5.22,1.41a6.66,6.66,0,0,0-4.7,4.7l-1.41,5.22a2.5,2.5,0,0,1-4.83,0l-1.4-5.22a6.66,6.66,0,0,0-4.7-4.7l-5.22-1.41a2.5,2.5,0,0,1,0-4.83Z"/><g class="cls-3"><path class="cls-4" d="M343.3,125.13l-16.1-19.59-89.38,73.27-.08.07L236.56,183l-4.07,14.17a2.51,2.51,0,0,0,1,2.34,2,2,0,0,0,1.39.55l6.88-.57h0l9.65-.8,2.45-.21,0-.16.07.08Z"/><path class="cls-4" d="M361.19,185.23l-3.25-6.18c-2.36-4.5-8.84-5.74-13-3.54l-1.65.87h0L240.9,230.07l-.09.05-2,3.79L232,247a2.51,2.51,0,0,0,.49,2.49,2,2,0,0,0,1.26.82l6.85.83h0l9.62,1.17,2.43.29.07-.16,0,.1,88.14-46.24h0l4.53-2.38h0l1.67-.88h0l4.54-2.38h0l2.9-1.52,0,0,2.17-1.14C360.91,195.78,363.56,189.73,361.19,185.23Z"/><polygon class="cls-5" points="250.04 247.61 349.25 188.35 336.22 166.6 237 225.86 250.04 247.61"/><path class="cls-6" d="M247.51,234.76l-5.85-1.68,1.53-5.51L237,225.86l-.1,0-1.78,3.9L229,243.22a2.64,2.64,0,0,0,1.91,3.21l16.56,1.08,2.45.16,1.89-5.73L246,240.59Z"/><path class="cls-7" d="M231.88,237,229,243.23a2.62,2.62,0,0,0,1.91,3.2l6.89.46Z"/><polygon class="cls-8" points="338.37 194.86 325.33 173.11 335.72 166.9 348.76 188.65 338.37 194.86"/><path class="cls-9" d="M348.75,188.69,335.7,166.91l2.12-1.27c4.07-2.43,10.61-1.54,13.22,2.81l3.59,6c2.61,4.36.3,10.55-3.78,13Z"/><polygon class="cls-8" points="253.56 192.97 337.57 113.64 320.14 95.22 236.11 174.56 253.56 192.97"/><path class="cls-10" d="M248.31,181l-6.08-.38.3-5.71-6.42-.33-.08.08-.89,4.19-3.07,14.42a2.63,2.63,0,0,0,2.57,2.71l16.4-2.53,2.42-.37.6-6-6-.05Z"/><path class="cls-11" d="M233.52,186.51l-1.44,6.74a2.63,2.63,0,0,0,2.57,2.71l6.82-1.05Z"/><path class="cls-2" d="M227.06,106.11a10.38,10.38,0,0,0,7.33-7.34l2.19-8.14a3.9,3.9,0,0,1,7.53,0l2.19,8.14a10.41,10.41,0,0,0,7.34,7.34l8.14,2.19a3.9,3.9,0,0,1,0,7.53L253.64,118a10.41,10.41,0,0,0-7.34,7.34l-2.19,8.13a3.9,3.9,0,0,1-7.53,0l-2.19-8.13a10.38,10.38,0,0,0-7.33-7.34l-8.14-2.19a3.9,3.9,0,0,1,0-7.53Z"/><path class="cls-2" d="M320,243.85a6.68,6.68,0,0,0,4.7-4.7l1.4-5.22a2.5,2.5,0,0,1,4.83,0l1.41,5.22a6.68,6.68,0,0,0,4.7,4.7l5.22,1.41a2.49,2.49,0,0,1,0,4.82L337,251.49a6.68,6.68,0,0,0-4.7,4.7l-1.41,5.22a2.5,2.5,0,0,1-4.83,0l-1.4-5.22a6.68,6.68,0,0,0-4.7-4.7l-5.22-1.41a2.49,2.49,0,0,1,0-4.82Z"/><path class="cls-11" d="M163,242.4c3.52,0,7,.11,10.57.1a5.91,5.91,0,0,0,6-6.08c0-2.63,0-5.25,0-7.87l-.06-22.76c0-.61,0-1.24,0-1.85a5.86,5.86,0,0,0-5.76-5.41c-.83,0-1.67,0-2.51,0L156,198.37l-23.65-.23-25.95-.24L84,197.69l-12.76-.12a7.08,7.08,0,0,0-5.41,2c-1.31,1.3-2.6,2.62-3.9,3.92-.33.33-.49.56-1,.62a13.53,13.53,0,0,1-1.56,0l-6.17,0c-.89,0-2.36.29-3.11-.27-3-2.29-4.63-6.17-8.93-6.2-1.85,0-3.71,0-5.56,0s-3.79-.17-5.46.83c-3.1,1.86-2.79,5.17-2.79,8.23l.06,23.68c0,1.83,0,3.66,0,5.5a2.5,2.5,0,0,0,.1.69,5.83,5.83,0,0,0,5.84,5.05c1.78,0,3.57,0,5.35,0,.94,0,2.64-.35,3.43.24a41.14,41.14,0,0,1,3.74,3.73,7.14,7.14,0,0,0,5.16,2.5c1.71,0,3.42,0,5.13,0s3.21.05,4.8,0c2.35-.09,3.8-1.33,5.35-2.89L68.55,243a8.86,8.86,0,0,1,1.22-1.23,1.33,1.33,0,0,1,.89-.19c1.26,0,2.54,0,3.81,0l17,.16,24.34.23,25.89.24Zm-59.87-5.56L82,236.64l-11.19-.11h-.57c-2.45.09-3.9,1.52-5.49,3.12l-2.12,2.13a7.22,7.22,0,0,1-1.1,1.11,2.12,2.12,0,0,1-1.18.16H57.89l-5.85,0a8.55,8.55,0,0,1-1.24,0c-.51-.08-.75-.42-1.1-.77-1.28-1.28-2.54-2.57-3.83-3.82a7,7,0,0,0-5.28-1.88H35c-.55,0-1.13.06-1.67,0s-.81-.22-.84-.74l0-17.61,0-11.24v-3.11c0-.71,0-1.16.74-1.27a33,33,0,0,1,4.56,0H40.5a3.34,3.34,0,0,1,1.41.09,5.23,5.23,0,0,1,.94.94L45,205.83c1.66,1.65,3.13,3.18,5.67,3.27,3.19.12,6.4,0,9.58,0a6.78,6.78,0,0,0,5-1.94c1.31-1.29,2.59-2.61,3.89-3.91.75-.75,1.2-.67,2.2-.66l4.83.05,18,.17,24.36.23,25.22.23,20.17.19c3.18,0,6.41-.1,9.59.09.56,0,.85.18.93.74a12.82,12.82,0,0,1,0,1.64l0,9.79c0,6.85-.15,13.72,0,20.57,0,1-.38,1.23-1.35,1.22l-4,0-16.87-.16-23.91-.23Z"/><path class="cls-11" d="M249.71,300.16c-.68-.13-1.39-.2-2.08-.3l-13.65-2-40.39-5.81-12.84-1.85a11.65,11.65,0,0,0-4.07-.21,10.48,10.48,0,0,0-3.83,2.25c-1.1.81-2.18,1.64-3.29,2.44-.51.36-.24.14-.8.3.21-.06.4.06.11,0-.53-.06-1.06-.16-1.59-.24l-5-.75c-1.11-.16-2.27-.25-3.36-.5a2.58,2.58,0,0,1-.78-.27h0c-.38-.53-.77-1-1.16-1.57q-1.28-1.74-2.56-3.46a6.45,6.45,0,0,0-4.49-2.59l-4.64-.69a31,31,0,0,0-3.83-.54,5.81,5.81,0,0,0-5.77,4.61c-.07.4-.12.82-.18,1.22-.37,2.48-.74,4.95-1.1,7.43q-1.47,9.81-2.93,19.63l-.57,3.83c0,.09,0,.18,0,.27s-.05.26-.07.39a5.76,5.76,0,0,0,4.58,6.1c1.17.23,2.36.36,3.54.53l4.33.64a2.91,2.91,0,0,1,1.22.42c-.2-.13-.19-.26,0,0l.58.78c1.8,2.44,3.68,6.12,6.93,6.66,2.88.48,5.78.86,8.67,1.29,1.72.26,3.38.52,5-.29a23.5,23.5,0,0,0,3.34-2.37c1-.71,1.9-1.44,2.88-2.1a1.05,1.05,0,0,1,.36-.08l.2,0c3.49.48,7,1,10.45,1.51l40,5.75,15.62,2.24,3.68.53a11.83,11.83,0,0,0,1.44.19,5.81,5.81,0,0,0,5.77-4.61c.88-4.52,1.36-9.16,2-13.71q1.31-8.73,2.6-17.46c.08-.53.18-1.07.23-1.61A5.77,5.77,0,0,0,249.71,300.16Zm-1.56,13.66q-1.46,9.69-2.89,19.38c-.22,1.49-.37,3-.67,4.48-.07.39-.1.65-.39.85-.09.06-.53.1-.5.14l-.59-.09L232.05,337l-39.27-5.65-15.17-2.18-3.71-.54-.53-.07a6.8,6.8,0,0,0-5.28,1.54l-3.78,2.8c-.3.23-.6.46-.92.66a2.09,2.09,0,0,1-.34,0l-.44-.07-8.76-1.3c-.24,0-.48-.06-.71-.11s-.8-.39-.74-.25c-.08-.11-.15-.22-.23-.32l-2.79-3.77c-1.16-1.56-2.32-3-4.37-3.43-1-.21-2-.31-3.07-.46l-4.4-.65c-.28-.05-.56-.07-.84-.13-.82-.16-1-.4-.9-1.15q2.23-15,4.46-30c.08-.5.14-1,.23-1.5s.07-.65.4-.89a.7.7,0,0,1,.35-.08c-.13,0-.08-.07.19,0,2.63.37,5.28.73,7.9,1.17l.52.1a2.76,2.76,0,0,1,.35.24c.36.42.66.9,1,1.34q1.31,1.77,2.62,3.53a6.18,6.18,0,0,0,4.1,2.63c1.36.23,2.74.41,4.11.62l4.64.69c1.76.26,3.46.47,5.1-.5,2.09-1.23,3.86-3,5.9-4.3a1.59,1.59,0,0,1,.39-.08l.13,0,1.32.19,5,.73L222,301.19l17.7,2.55c2.84.41,5.74.68,8.57,1.23l.11,0c.35.07.61.08.83.39,0,.06.09.59.13.45,0,.3-.1.61-.14.9Z"/><path class="cls-11" d="M141.44,289.43l-.2,0A.79.79,0,0,0,141.44,289.43Z"/><path class="cls-11" d="M27.36,172.5a2.62,2.62,0,0,0,.06.57c.43,3.24,3,5.06,6.29,5.06l6.5,0a2.2,2.2,0,0,1,1.33.19A14.9,14.9,0,0,1,43.22,180c1.63,1.64,3.29,3.85,5.69,4.28a31.34,31.34,0,0,0,5.48.12c1.81,0,3.63.08,5.43,0,2.74-.1,4.28-1.91,6.06-3.68.72-.72,1.41-1.5,2.18-2.18a1.2,1.2,0,0,1,.69-.39,25.44,25.44,0,0,1,4,0l9.26,0,27.57.05,27.57,0c4.41,0,8.85.19,13.26,0a5.76,5.76,0,0,0,5.67-5.65c0-.84,0-1.69,0-2.53q0-6.42,0-12.85l0-13c0-.92,0-1.86,0-2.78a5.75,5.75,0,0,0-5.65-5.7c-6.51-.27-13.08,0-19.59,0l-24.42-.05H106c-4.21-3.87-9.82-6.56-15.06-8.53a69.62,69.62,0,0,0-40.88-2c-7.66,2-15.46,5.35-21.43,10.65a3,3,0,0,0-1.22,2.26c0,.69,0,1.4,0,2.1,0,3.54,0,7.08,0,10.62,0,7.07-.15,14.16,0,21.24C27.37,172.22,27.36,172.36,27.36,172.5Zm5.69-33.85.33-.26.27-.2.54-.4,1.32-.9c1.1-.72,2.22-1.39,3.37-2a57,57,0,0,1,21.81-6.45,65.43,65.43,0,0,1,28.08,3.25,49.54,49.54,0,0,1,8.39,3.9c1,.59,2,1.23,3,1.9.39.27.76.54,1.14.82.15.11.73.57.08.05.15.13.31.25.47.37,1,.8,1.85,1.9,3.2,2,.81.05,1.64,0,2.45,0l14.46,0,18,0c3.43,0,6.94-.2,10.37,0,.88.05.84.58.84,1.35,0,1.89,0,3.77,0,5.65l0,17.62c0,2,0,4.08,0,6.13,0,.79.21,1.66-.68,1.81a10.94,10.94,0,0,1-1.81,0H144.5l-31.06-.06-33.91-.07H70.11c-.46,0-.93,0-1.39,0-3.28.12-5.38,3-7.52,5.17-.45.45-.81,1-1.45,1.08a28.44,28.44,0,0,1-2.92,0H52.28a12.3,12.3,0,0,1-2.35,0c-.7-.14-1.31-1-1.81-1.55-.93-.94-1.86-1.89-2.8-2.82-2.22-2.18-4.83-1.9-7.67-1.91H33.79c-.62,0-1.39.12-1.43-.63l.06-30.09v-3.23l.32-.27Z"/><path class="cls-11" d="M56.78,164.74v-8.11a7,7,0,0,1,1.25-.37l.19,0h.2c.26,0,.53,0,.8,0a4,4,0,0,1,1.42.26,2.9,2.9,0,0,1,1.07.49c.45.28.85.64,1.3.91a10.1,10.1,0,0,0,4.06,1.34c2.33.29,5.48-.18,7.23-1.92,1.13-1.11,1.14-2.51,1.14-3.95v-8.11c0-1.28.11-2.58-.87-3.59a3.15,3.15,0,0,0-2.32-.94,3.51,3.51,0,0,0-1.46.41s-.76.35-.38.2a5.2,5.2,0,0,1-2.82.38h-.21l-.2-.07c-.32-.09-.64-.16-.94-.27l-.48-.23a9.08,9.08,0,0,1-.88-.6,9.41,9.41,0,0,0-3.68-1.64,11,11,0,0,0-5.47.26,2.51,2.51,0,0,0-3.95,2v23.62C51.78,168,56.78,168,56.78,164.74Zm16-19c.4-.18.3-.08,0,0ZM70.44,144v.35C70.3,143.88,70.47,143.51,70.44,144Zm-11.36-.39c.21,0,.41,0,.62,0l.17,0A9.35,9.35,0,0,1,61,144l0,0,.07,0a5.18,5.18,0,0,1,.57.31c.34.21.64.46,1,.69a10,10,0,0,0,5.19,1.64,10.64,10.64,0,0,0,2.58-.23v7.32a1.8,1.8,0,0,1-.38.21,5.36,5.36,0,0,1-3.4.06,4.19,4.19,0,0,1-1.46-.74,12,12,0,0,0-1.77-1.11,11,11,0,0,0-6.65-.8v-7.36A5,5,0,0,1,59.08,143.62Z"/><path class="cls-7" d="M307.33,334.37q-6-1.32-11.8-3.17c-3.3-1-6.89-2-9.85-3.84a5.47,5.47,0,0,1-2.3-2.32,2.39,2.39,0,0,1,.31-2.2c1.54-2.12,4.56-2.75,6.86-3.65,2.8-1.1,5.87-2.71,7.33-5.5a7.14,7.14,0,0,0-1.46-8.59c-2.19-2-5.21-2.87-8.08-3.35-4.14-.68-8.29-1.32-12.43-2-2-.32-4-.6-5.94-.95-1-.18-2.54-.38-3.3-1.15-1.34-1.36,1.82-4.75,2.84-5.71,4.11-3.84,9.65-5.78,13.9-9.48a10.42,10.42,0,0,0,3.07-3.82,5,5,0,0,0-1.11-5.37,10.65,10.65,0,0,0-4.3-2.47,51.27,51.27,0,0,0-5.59-1.66C268,267.38,260.32,267,252.69,267s-15.51.25-23.25-.39a30,30,0,0,1-5.17-.68,4.07,4.07,0,0,1-2.66-1.91,6.34,6.34,0,0,1-.69-2.91,16.71,16.71,0,0,1,.41-3.93,34.47,34.47,0,0,1,1.16-4,2.52,2.52,0,0,0-1.74-3.08,2.56,2.56,0,0,0-3.08,1.75c-1.81,5.09-3.36,12.6,1.27,16.73,2.91,2.6,7,2.71,10.73,3,3.93.32,7.89.4,11.83.4,7.87,0,15.77-.26,23.61.47a63.52,63.52,0,0,1,11.21,2,19.42,19.42,0,0,1,4.82,1.74,2.11,2.11,0,0,1,.69.56c-.05,0-.13.28-.21.37a10.47,10.47,0,0,1-.78.85c-4.09,4.05-9.78,6-14.15,9.74a15,15,0,0,0-5.07,7.49c-1,4,1.67,6.92,5.36,8a44.72,44.72,0,0,0,5.41,1l6.33,1c3.7.59,7.58.9,11.18,2a7.87,7.87,0,0,1,3.09,1.53,2.05,2.05,0,0,1,.66,2.21c-.71,2-3.77,3.2-5.84,3.92-2.85,1-5.91,2.25-7.84,4.68a7.37,7.37,0,0,0-.25,9.07c2,2.76,5.24,4.14,8.36,5.3q5.85,2.18,11.87,3.79c2,.54,4,1,6.05,1.49C309.14,339.89,310.48,335.07,307.33,334.37Z"/></g></svg>