<?xml version="1.0" encoding="UTF-8"?>
<svg width="216px" height="216px" viewBox="0 0 216 216" version="1.1" xmlns="http://www.w3.org/2000/svg" xmlns:xlink="http://www.w3.org/1999/xlink">
    <title>Vertical Loop Block</title>
    <defs>
        <filter id="filter-1">
            <feColorMatrix in="SourceGraphic" type="matrix" values="0 0 0 0 1.000000 0 0 0 0 0.670588 0 0 0 0 0.098039 0 0 0 1.000000 0"></feColorMatrix>
        </filter>
    </defs>
    <g id="Vertical-Loop-Block" stroke="none" stroke-width="1" fill="none" fill-rule="evenodd" stroke-linecap="round" stroke-linejoin="round">
        <g id="Vertical/Block/Loop" transform="translate(27.000000, 40.000000)" filter="url(#filter-1)">
            <g transform="translate(84.000000, 68.000000) rotate(-25.000000) translate(-84.000000, -68.000000) ">
                <path d="M16,92 C16,94.209139 17.790861,96 20,96 L30.3431458,96 C31.4040117,96 32.4214274,96.4214274 33.1715729,97.1715729 L33.1715729,97.1715729 L38.8284271,102.828427 C39.5785726,103.578573 40.5959883,104 41.6568542,104 L41.6568542,104 L54.3431458,104 C55.4040117,104 56.4214274,103.578573 57.1715729,102.828427 L57.1715729,102.828427 L62.8284271,97.1715729 C63.5785726,96.4214274 64.5959883,96 65.6568542,96 L65.6568542,96 L164,96 C166.209139,96 168,97.790861 168,100 L168,124 C168,126.209139 166.209139,128 164,128 L49.6568542,128 C48.5959883,128 47.5785726,128.421427 46.8284271,129.171573 L41.1715729,134.828427 C40.4214274,135.578573 39.4040117,136 38.3431458,136 L25.6568542,136 C24.5959883,136 23.5785726,135.578573 22.8284271,134.828427 L17.1715729,129.171573 C16.4214274,128.421427 15.4040117,128 14.3431458,128 L4,128 C1.790861,128 3.22449646e-14,126.209139 3.19744231e-14,124 L3.19744231e-14,4 C3.17038816e-14,1.790861 1.790861,-1.84335299e-13 4,-1.84741111e-13 L14.3431458,-1.37667655e-14 C15.4040117,-1.37667655e-14 16.4214274,0.421427361 17.1715729,1.17157288 L17.1715729,1.17157288 L22.8284271,6.82842712 C23.5785726,7.57857264 24.5959883,8 25.6568542,8 L25.6568542,8 L38.3431458,8 C39.4040117,8 40.4214274,7.57857264 41.1715729,6.82842712 L41.1715729,6.82842712 L46.8284271,1.17157288 C47.5785726,0.421427361 48.5959883,-1.37667655e-14 49.6568542,-1.37667655e-14 L49.6568542,-1.37667655e-14 L164,-1.84741111e-13 C166.209139,-1.85146924e-13 168,1.790861 168,4 L168,44 C168,46.209139 166.209139,48 164,48 L65.6568542,48 C64.5959883,48 63.5785726,48.4214274 62.8284271,49.1715729 L57.1715729,54.8284271 C56.4214274,55.5785726 55.4040117,56 54.3431458,56 L41.6568542,56 C40.5959883,56 39.5785726,55.5785726 38.8284271,54.8284271 L33.1715729,49.1715729 C32.4214274,48.4214274 31.4040117,48 30.3431458,48 L20,48 C17.790861,48 16,49.790861 16,52 L16,92 Z" id="Loop-C-Block" stroke="#CF8B17" fill="#FFAB19"></path>
            </g>
        </g>
    </g>
</svg>