<svg width="1020" height="500" viewBox="0 0 1020 500" fill="none" xmlns="http://www.w3.org/2000/svg">
<path opacity="0.3" fill-rule="evenodd" clip-rule="evenodd" d="M61.6772 70.3664C234.157 -35.4025 677.179 4.68477 750.953 22.1909C858.406 47.6891 1006.11 97.9507 901.513 165.834C860.428 192.498 991.213 227.253 997.104 314.938C1008.61 486.136 650.277 525.115 446.777 486.136C222.451 443.168 26.8853 474.387 19.1859 410.891C11.4865 347.396 164.325 351.218 61.6772 281.991C-38.1378 214.675 -0.898449 108.739 61.6772 70.3664ZM973.642 139.135C996.208 132.302 1020 153.082 1020 176.599C1020 200.116 994.546 221.092 966.091 198.377C937.637 175.662 951.076 145.968 973.642 139.135Z" fill="#9966FF"/>
</svg>
