<svg width="196" height="216" viewBox="0 0 196 216" fill="none" xmlns="http://www.w3.org/2000/svg">
<ellipse cx="93.6311" cy="107.442" rx="93.6311" ry="104.702" fill="#0EBD8C" fill-opacity="0.25"/>
<path fill-rule="evenodd" clip-rule="evenodd" d="M170.396 142.567H114.14C111.92 142.567 110.124 140.759 110.14 138.539L110.376 104.549C110.386 103.301 110.978 102.127 111.976 101.377L139.996 80.3654C141.418 79.2994 143.374 79.2994 144.796 80.3674L172.796 101.367C173.804 102.121 174.396 103.307 174.396 104.567V138.567C174.396 140.775 172.604 142.567 170.396 142.567Z" fill="#4D97FF"/>
<path d="M170.396 142.567H114.14C111.92 142.567 110.124 140.759 110.14 138.539L110.376 104.549C110.386 103.301 110.978 102.127 111.976 101.377L139.996 80.3654C141.418 79.2994 143.374 79.2994 144.796 80.3674L172.796 101.367C173.804 102.121 174.396 103.307 174.396 104.567V138.567C174.396 140.775 172.604 142.567 170.396 142.567" stroke="#3D73CC" stroke-width="2" stroke-linecap="round" stroke-linejoin="round"/>
<path fill-rule="evenodd" clip-rule="evenodd" d="M162.39 86.5606H122.39C120.182 86.5606 118.39 88.3526 118.39 90.5606V122.561C118.39 124.769 120.182 126.561 122.39 126.561H162.39C164.598 126.561 166.39 124.769 166.39 122.561V90.5606C166.39 88.3526 164.598 86.5606 162.39 86.5606Z" fill="#F9F8FF"/>
<path d="M162.39 86.5606H122.39C120.182 86.5606 118.39 88.3526 118.39 90.5606V122.561C118.39 124.769 120.182 126.561 122.39 126.561H162.39C164.598 126.561 166.39 124.769 166.39 122.561V90.5606C166.39 88.3526 164.598 86.5606 162.39 86.5606" stroke="#3D73CC" stroke-width="2" stroke-linecap="round" stroke-linejoin="round"/>
<path d="M149.442 95.9321C150.281 95.0234 151.698 94.9673 152.607 95.8068C153.516 96.6464 153.572 98.0635 152.732 98.9722L141.35 111.292C140.463 112.252 138.946 112.252 138.06 111.292L131.522 104.216C130.682 103.307 130.738 101.89 131.647 101.05C132.556 100.211 133.973 100.267 134.812 101.176L139.705 106.471L149.442 95.9321Z" fill="#0EBD8C"/>
<mask id="mask0_0_11736" style="mask-type:alpha" maskUnits="userSpaceOnUse" x="130" y="95" width="24" height="18">
<path d="M149.442 95.9321C150.281 95.0234 151.698 94.9673 152.607 95.8068C153.516 96.6464 153.572 98.0635 152.732 98.9722L141.35 111.292C140.463 112.252 138.946 112.252 138.06 111.292L131.522 104.216C130.682 103.307 130.738 101.89 131.647 101.05C132.556 100.211 133.973 100.267 134.812 101.176L139.705 106.471L149.442 95.9321Z" fill="white"/>
</mask>
<g mask="url(#mask0_0_11736)">
<rect x="128.127" y="89.6121" width="28" height="28" fill="#0EBD8C"/>
</g>
<g opacity="0.1">
<path fill-rule="evenodd" clip-rule="evenodd" d="M174.39 104.561V106.561L154.15 119.221L148.25 122.901L144.51 125.241C143.21 126.041 141.57 126.041 140.27 125.241L136.49 122.881L130.57 119.181L110.39 106.561V104.081C110.53 103.021 111.09 102.021 111.97 101.381L113.31 100.381L136.51 114.861L139.99 112.341C141.41 111.281 143.37 111.281 144.77 112.341L148.25 114.881L171.47 100.381L172.79 101.361C173.79 102.121 174.39 103.301 174.39 104.561Z" fill="black"/>
<path d="M174.39 104.561V106.561L154.15 119.221L148.25 122.901L144.51 125.241C143.21 126.041 141.57 126.041 140.27 125.241L136.49 122.881L130.57 119.181L110.39 106.561V104.081C110.53 103.021 111.09 102.021 111.97 101.381L113.31 100.381L136.51 114.861L139.99 112.341C141.41 111.281 143.37 111.281 144.77 112.341L148.25 114.881L171.47 100.381L172.79 101.361C173.79 102.121 174.39 103.301 174.39 104.561" stroke="black" stroke-width="2" stroke-linecap="round" stroke-linejoin="round"/>
</g>
<path fill-rule="evenodd" clip-rule="evenodd" d="M174.39 106.558L144.51 125.236C143.214 126.046 141.566 126.046 140.27 125.236L110.39 106.558V138.56C110.39 140.77 112.182 142.56 114.39 142.56H170.39C172.598 142.56 174.39 140.77 174.39 138.56V106.558Z" fill="#4D97FF" stroke="#3D73CC" stroke-width="2" stroke-linejoin="round"/>
<path fill-rule="evenodd" clip-rule="evenodd" d="M112.113 140.565L139.993 120.343C141.415 119.285 143.363 119.289 144.779 120.353L172.395 140.565" fill="#4D97FF"/>
<path d="M112.113 140.565L139.993 120.343C141.415 119.285 143.363 119.289 144.779 120.353L172.395 140.565" stroke="#3D73CC" stroke-width="2" stroke-linecap="round"/>
<path d="M126.03 78.832L122.7 72.5" stroke="#4D97FF" stroke-width="3" stroke-linecap="round" stroke-linejoin="round"/>
<path d="M113.003 92.6338L106.501 87.7298" stroke="#4D97FF" stroke-width="3" stroke-linecap="round" stroke-linejoin="round"/>
<path d="M158.738 78.832L162.068 72.5" stroke="#4D97FF" stroke-width="3" stroke-linecap="round" stroke-linejoin="round"/>
<path d="M171.764 92.6338L178.268 87.7298" stroke="#4D97FF" stroke-width="3" stroke-linecap="round" stroke-linejoin="round"/>
<path fill-rule="evenodd" clip-rule="evenodd" d="M153.854 174.406C146.574 174.406 140.686 170.266 138.11 163.33C137.474 161.61 137.582 159.938 138.41 158.746C139.058 157.818 140.054 157.282 141.15 157.282C142.27 157.282 143.298 157.846 144.03 158.818C142.882 155.57 139.454 141.074 142.202 137.046C142.798 136.178 143.67 135.698 144.662 135.698C148.662 135.718 149.778 141.322 150.506 146.954C150.986 146.454 151.842 145.866 153.222 145.866C155.738 145.866 156.802 147.374 157.258 149.07C157.738 148.062 158.542 147.306 159.938 147.306C160.442 147.306 160.954 147.422 161.514 147.658C164.086 148.77 164.346 150.914 164.086 152.774C164.514 152.378 165.066 152.122 165.794 152.122C166.442 152.122 167.106 152.366 167.762 152.858C170.662 155.034 169.382 158.282 168.03 161.718C167.394 163.33 166.678 165.154 166.15 167.242C165.102 171.394 159.93 174.406 153.854 174.406Z" fill="white"/>
<mask id="mask1_0_11736" style="mask-type:alpha" maskUnits="userSpaceOnUse" x="136" y="134" width="36" height="43">
<path fill-rule="evenodd" clip-rule="evenodd" d="M136 134H171.204V176.104H136V134Z" fill="white"/>
</mask>
<g mask="url(#mask1_0_11736)">
<path fill-rule="evenodd" clip-rule="evenodd" d="M144.678 134H144.67H144.662C143.114 134 141.706 134.76 140.798 136.092C138.174 139.936 139.986 149.884 141.39 155.588C141.31 155.584 141.23 155.584 141.15 155.584C139.514 155.584 137.97 156.404 137.014 157.776C135.862 159.428 135.682 161.672 136.518 163.92C139.35 171.552 145.834 176.104 153.854 176.104C160.694 176.104 166.562 172.556 167.798 167.656C168.298 165.68 168.998 163.912 169.61 162.344C170.994 158.828 172.718 154.448 168.778 151.5C167.822 150.78 166.818 150.416 165.79 150.416H165.742C165.458 148.752 164.514 147.1 162.182 146.096C161.422 145.768 160.666 145.604 159.938 145.604C159.038 145.604 158.298 145.8 157.69 146.132C156.798 144.984 155.402 144.168 153.222 144.168C152.714 144.168 152.258 144.224 151.842 144.32C150.974 139 149.346 134.024 144.686 134H144.678ZM144.662 137.4H144.67C149.574 137.42 148.574 155.32 150.594 155.32C150.634 155.32 150.678 155.312 150.726 155.296C152.066 154.808 149.266 147.568 153.222 147.568C157.79 147.568 154.526 155.536 156.878 155.776C156.906 155.78 156.938 155.78 156.966 155.78C158.882 155.78 157.37 149.004 159.938 149.004C160.194 149.004 160.494 149.076 160.838 149.224C165.046 151.036 159.458 157.04 162.522 157.916C162.618 157.944 162.71 157.96 162.794 157.96C164.318 157.96 164.242 153.82 165.79 153.82C166.054 153.82 166.366 153.936 166.742 154.22C169.542 156.32 166.154 160.288 164.502 166.824C163.63 170.264 158.994 172.708 153.854 172.708C148.402 172.708 142.386 169.956 139.706 162.74C138.846 160.42 139.926 158.98 141.15 158.98C141.882 158.98 142.666 159.496 143.118 160.64C143.598 161.84 144.302 162.388 144.91 162.388C145.918 162.388 146.67 160.9 145.706 158.44C144.178 154.536 140.758 137.4 144.662 137.4Z" fill="#575E75"/>
</g>
</svg>
