<?xml version="1.0" encoding="UTF-8" standalone="no"?>
<svg width="20px" height="20px" viewBox="0 0 20 20" version="1.1" xmlns="http://www.w3.org/2000/svg" xmlns:xlink="http://www.w3.org/1999/xlink">
    <!-- Generator: Sketch 43.2 (39069) - http://www.bohemiancoding.com/sketch -->
    <title>open-blue</title>
    <desc>Created with Sketch.</desc>
    <defs></defs>
    <g id="Page-1" stroke="none" stroke-width="1" fill="none" fill-rule="evenodd">
        <g id="open-blue" fill="#4C97FF">
            <path d="M16.904265,9.16353035 L15.4298099,7.69520276 L10.2383662,11.6050888 C9.64794591,12.057779 8.79050666,11.9379804 8.33625534,11.3315664 C7.9692373,10.844951 7.97668404,10.1706865 8.33625534,9.70951497 L12.2606889,4.53591307 L10.8213398,3.10151073 C10.4107052,2.6922873 10.7011281,2.00848131 11.2670806,2.00848131 L17.3585163,2 C17.709577,2.00848131 18,2.29896634 18,2.64033925 L18,8.71932149 C18,9.28332892 17.3063891,9.56427246 16.904265,9.16353035 Z M15.3807332,18 L3.03722491,18 C2.46488952,18 2,17.5367082 2,16.9652796 L2,4.66419295 C2,4.09382454 2.46488952,3.62947257 3.03722491,3.62947257 L7.82335296,3.62947257 C8.39781598,3.62947257 8.86164168,4.09382454 8.86164168,4.66419295 C8.86164168,5.23562152 8.39781598,5.69891333 7.82335296,5.69891333 L4.07657745,5.69891333 L4.07657745,15.9305592 L14.3424445,15.9305592 L14.3424445,13.2101776 C14.3424445,12.638749 14.807334,12.1754572 15.3807332,12.1754572 C15.9541324,12.1754572 16.4200857,12.638749 16.4200857,13.2101776 L16.4200857,16.9652796 C16.4200857,17.5367082 15.9541324,18 15.3807332,18 Z" id="open-white"></path>
        </g>
    </g>
</svg>