<svg width="20" height="20" xmlns="http://www.w3.org/2000/svg"><path d="M16.904 9.164L15.43 7.695l-5.192 3.91a1.353 1.353 0 0 1-1.902-.273 1.343 1.343 0 0 1 0-1.622l3.925-5.174-1.44-1.434a.637.637 0 0 1 .446-1.094L17.36 2a.657.657 0 0 1 .641.64v6.08c0 .563-.694.844-1.096.444zM15.381 18H3.037A1.036 1.036 0 0 1 2 16.965v-12.3c0-.571.465-1.036 1.037-1.036h4.786a1.036 1.036 0 0 1 0 2.07H4.077V15.93h10.265v-2.72c0-.572.465-1.036 1.039-1.036.573 0 1.04.464 1.04 1.035v3.755c0 .572-.467 1.035-1.04 1.035z" fill="#FFF" fill-rule="evenodd"/></svg>