<svg width="19" height="19" viewBox="0 0 19 19" fill="none" xmlns="http://www.w3.org/2000/svg">
<path fill-rule="evenodd" clip-rule="evenodd" d="M16.1453 10.1207L12.021 14.2451C11.6821 14.5643 11.2066 14.6497 10.7981 14.4724C10.3896 14.2964 10.1374 13.9076 10.1374 13.457V11.8927L4.3974 11.0954C3.51867 10.9811 2.8501 10.2166 2.8501 9.31688C2.8501 9.23939 2.85535 9.16058 2.86455 9.08308C2.99196 8.27134 3.62506 7.6448 4.40397 7.54629L10.1374 6.72797V5.2319C10.1374 4.77612 10.4053 4.37024 10.8191 4.19818C11.2355 4.02611 11.6965 4.11937 12.021 4.4438L16.1453 8.56819C16.3489 8.77309 16.4619 9.04893 16.4619 9.34447C16.4619 9.64 16.3489 9.91584 16.1453 10.1207Z" fill="#9966ff"/>
</svg>
