<svg width="30" height="30" viewBox="0 0 30 30" fill="none" xmlns="http://www.w3.org/2000/svg">
<path fill-rule="evenodd" clip-rule="evenodd" d="M23.5412 8.33393V17.4913C23.5193 18.2219 23.0863 18.8445 22.4359 19.1012C21.787 19.3593 21.0754 19.2076 20.5753 18.7075L18.8386 16.9708L11.5812 22.4579C10.4788 23.3066 8.88792 23.2001 7.88907 22.2013C7.80303 22.1152 7.72138 22.0219 7.64555 21.9257C6.88584 20.8831 6.89313 19.4847 7.64847 18.5106L13.105 11.2372L11.4441 9.5763C10.9381 9.07031 10.785 8.32226 11.0533 7.67191C11.3246 7.01864 11.9399 6.61035 12.6602 6.61035L21.8176 6.61035C22.2711 6.61181 22.7028 6.79262 23.0309 7.12072C23.3589 7.44881 23.5398 7.88043 23.5412 8.33393Z" fill="white"/>
</svg>
