<svg width="24" height="24" viewBox="0 0 24 24" fill="none" xmlns="http://www.w3.org/2000/svg">
<path fill-rule="evenodd" clip-rule="evenodd" d="M12 17.4C10.0182 17.4 8.4 15.7818 8.4 13.8C8.4 11.8038 10.0182 10.2 12 10.2C13.9962 10.2 15.6 11.8038 15.6 13.8C15.6 15.7818 13.9962 17.4 12 17.4ZM19.2 7.5H17.94C17.5962 7.5 17.31 7.32 17.1462 7.032L15.9402 4.8378C15.618 4.26 15.024 3.9 14.358 3.9H9.66C8.994 3.9 8.4 4.26 8.0742 4.8378L6.852 7.032C6.69 7.32 6.402 7.5 6.078 7.5H4.8C3.81 7.5 3 8.31 3 9.3V18.3C3 19.2918 3.81 20.1 4.8 20.1H19.2C20.19 20.1 21 19.2918 21 18.3V9.3C21 8.31 20.19 7.5 19.2 7.5Z" fill="white"/>
</svg>
