<svg width="24" height="25" viewBox="0 0 24 25" fill="none" xmlns="http://www.w3.org/2000/svg">
<path fill-rule="evenodd" clip-rule="evenodd" d="M12.4992 15.2466L16.965 10.7807C17.3903 10.3554 17.0795 9.65365 16.4906 9.65365H14.315L12.9899 4.40263C12.9081 4.07383 12.6464 3.79574 12.2865 3.71558C11.7794 3.58471 11.256 3.89389 11.1251 4.40263L9.80006 9.65365H7.57533C6.98643 9.65365 6.67562 10.3554 7.10094 10.7807L11.5668 15.2466C11.8285 15.5099 12.2375 15.5099 12.4992 15.2466ZM20.4001 16.7068V14.0076C20.4001 13.3206 19.8603 12.7808 19.1732 12.7808C18.5025 12.7808 17.9464 13.3206 17.9464 14.0076V16.7068C17.9464 17.4265 17.3574 18.0318 16.6377 18.0318H7.37887C6.64275 18.0318 6.05385 17.4265 6.05385 16.7068V14.0076C6.05385 13.3206 5.49766 12.7808 4.82697 12.7808C4.15628 12.7808 3.6001 13.3206 3.6001 14.0076V16.7068C3.6001 18.7843 5.28501 20.4855 7.37887 20.4855H16.6377C18.7152 20.4855 20.4001 18.7843 20.4001 16.7068Z" fill="white"/>
<mask id="mask0" style="mask-type:alpha" maskUnits="userSpaceOnUse" x="3" y="3" width="18" height="18">
<path fill-rule="evenodd" clip-rule="evenodd" d="M12.4992 15.2466L16.965 10.7807C17.3903 10.3554 17.0795 9.65365 16.4906 9.65365H14.315L12.9899 4.40263C12.9081 4.07383 12.6464 3.79574 12.2865 3.71558C11.7794 3.58471 11.256 3.89389 11.1251 4.40263L9.80006 9.65365H7.57533C6.98643 9.65365 6.67562 10.3554 7.10094 10.7807L11.5668 15.2466C11.8285 15.5099 12.2375 15.5099 12.4992 15.2466ZM20.4001 16.7068V14.0076C20.4001 13.3206 19.8603 12.7808 19.1732 12.7808C18.5025 12.7808 17.9464 13.3206 17.9464 14.0076V16.7068C17.9464 17.4265 17.3574 18.0318 16.6377 18.0318H7.37887C6.64275 18.0318 6.05385 17.4265 6.05385 16.7068V14.0076C6.05385 13.3206 5.49766 12.7808 4.82697 12.7808C4.15628 12.7808 3.6001 13.3206 3.6001 14.0076V16.7068C3.6001 18.7843 5.28501 20.4855 7.37887 20.4855H16.6377C18.7152 20.4855 20.4001 18.7843 20.4001 16.7068Z" fill="white"/>
</mask>
<g mask="url(#mask0)">
<rect y="0.0859375" width="24" height="24" fill="white"/>
</g>
</svg>
