<svg width="32" height="33" viewBox="0 0 32 33" fill="none" xmlns="http://www.w3.org/2000/svg">
<path fill-rule="evenodd" clip-rule="evenodd" d="M27.7562 3.72852H19.3354C18.5334 3.72852 18.1648 4.68319 18.72 5.23841L20.7713 7.28964L17.0698 13.4896C16.8369 13.8767 16.8215 14.3857 17.0852 14.8005C17.44 15.402 18.225 15.6041 18.828 15.2478L25.028 11.5463L27.1255 13.6438C27.6807 14.199 28.6353 13.8304 28.6353 13.0285V4.60762C28.6369 4.11255 28.2513 3.72698 27.7562 3.72852ZM17.6 6.48584C17.6 5.60219 16.8837 4.88584 16 4.88584H9.60005L9.31801 4.89399C6.79832 5.03998 4.80005 7.12955 4.80005 9.68584V22.4858L4.8082 22.7679C4.95419 25.2876 7.04376 27.2858 9.60005 27.2858H22.4001L22.6821 27.2777C25.2018 27.1317 27.2001 25.0421 27.2001 22.4858V16.0858L27.1893 15.8992C27.0969 15.1035 26.4206 14.4858 25.6 14.4858C24.7164 14.4858 24 15.2022 24 16.0858V22.4858L23.9893 22.6724C23.8969 23.4682 23.2206 24.0858 22.4001 24.0858H9.60005L9.41346 24.0751C8.61771 23.9827 8.00005 23.3064 8.00005 22.4858V9.68584L8.01081 9.49925C8.10324 8.70351 8.77951 8.08584 9.60005 8.08584H16L16.1866 8.07508C16.9824 7.98265 17.6 7.30638 17.6 6.48584Z" fill="#3373CC"/>
</svg>
