<?xml version="1.0" encoding="UTF-8"?>
<svg width="689px" height="325px" viewBox="0 0 689 325" version="1.1" xmlns="http://www.w3.org/2000/svg" xmlns:xlink="http://www.w3.org/1999/xlink">
    <!-- Generator: Sketch 52.5 (67469) - http://www.bohemiancoding.com/sketch -->
    <title>Video Illustration</title>
    <desc>Created with Sketch.</desc>
    <defs>
        <path d="M14.5241774,3.20760789 L55.4279804,0.408844227 C55.7934597,24.6663719 52.0706428,37.4964514 44.2595295,38.8990826 C32.5428596,41.0030294 38.750069,35.2465596 29.4537632,38.8990826 C20.1574574,42.5516055 22.4253297,34.9448108 17.2161787,36.9416571 C12.0070276,38.9385034 -5.50698389,40.3280372 2.40338083,32.6024943 C10.6906189,24.5088835 14.7308844,14.710588 14.5241774,3.20760789 Z" id="path-1"></path>
        <path d="M20.9123655,58.6008461 L0.431741793,58.6008461 C0.431741793,58.0180672 0.431741793,56.3303192 0.431741793,53.537602 C0.431741793,45.9143265 15.6791033,47.605026 15.6791033,37.2133454 C15.6791033,26.8216647 11.3430974,25.1507095 11.3430974,15.5485612 C11.3430974,10.1221762 12.9645554,0.208160149 20.9035733,0.200846078 C28.8425902,0.208160149 30.4640481,10.1221762 30.4640481,15.5485612 C30.4640481,25.1507095 26.1280422,26.8216647 26.1280422,37.2133454 C26.1280422,47.605026 41.3754038,45.9143265 41.3754038,53.537602 C41.3754038,56.3303192 41.3754038,58.0180672 41.3754038,58.6008461 L20.9123655,58.6008461 Z M21.2088857,14.1126327 C22.9606064,14.1126327 24.3806566,12.32816 24.3806566,10.1269013 C24.3806566,7.92564269 22.9606064,6.14116998 21.2088857,6.14116998 C19.457165,6.14116998 18.0371148,7.92564269 18.0371148,10.1269013 C18.0371148,12.32816 19.457165,14.1126327 21.2088857,14.1126327 Z" id="path-3"></path>
    </defs>
    <g id="Video-Illustration" stroke="none" stroke-width="1" fill="none" fill-rule="evenodd">
        <g transform="translate(-1.000000, -11.000000)" id="background">
            <g>
                <path d="M472.338333,104.593072 C488.221485,134.757488 441.56795,149.119847 506.083023,150.747079 C570.598096,152.374311 586.479005,169.861791 576.058279,195.998966 C565.637554,222.136141 438.09288,190.61679 444.5445,223.477341 C450.996119,256.337892 549.755524,228.405167 541.31879,281.381754 C532.882057,334.358342 419.729458,275.003211 341.264381,314.764768 C262.799305,354.526325 115,334.476673 115,287.474026 C115,240.47138 192.435065,260.35028 192.435065,236.286617 C192.435065,212.222955 115,234.059895 115,191.218902 C115,148.377909 245.040577,189.232437 245.040577,157.875632 C245.040577,126.518828 147.770008,154.333498 147.770008,115.857707 C147.770008,77.3819163 227.670833,101.019115 232.137338,82.4510747 C236.603844,63.8830341 205.834583,72.8985963 212.78248,46.3674663 C224.480741,1.69667929 482.757938,-6.38135329 422.70825,55.6975767 C387.454346,92.1428049 456.455182,74.4286554 472.338333,104.593072 Z M74.1292601,251.250509 C107.272104,259.63376 74.1292601,320.63497 46.5102238,299.621867 C18.8911875,278.608763 40.9864166,242.867258 74.1292601,251.250509 Z M89.6037252,206.726385 C111.816812,212.466923 109.852371,246.729593 84.6274561,238.821226 C59.4025409,230.912859 67.3906385,200.985846 89.6037252,206.726385 Z M580.603725,260.726385 C602.816812,266.466923 600.852371,300.729593 575.627456,292.821226 C550.402541,284.912859 558.390639,254.985846 580.603725,260.726385 Z M467.154629,32.325099 C501.495856,-1.39185926 623.432095,15.3005855 618.875621,50.9645059 C614.319147,86.6284264 568.187513,53.4138894 565.699018,75.4606194 C563.210524,97.5073495 595.063255,78.1763147 595.063255,102.086796 C595.063255,125.997278 504.482049,135.252415 504.482049,104.370381 C504.482049,87.2942566 521.901512,88.8587119 527.3762,85.118075 C532.850889,81.377438 539.767464,65.9219018 513.363447,66.2760944 C473.624716,66.8091635 446.373848,52.7281196 467.154629,32.325099 Z" id="Combined-Shape" fill-opacity="0.15" fill="#000000"></path>
                <g id="Command-Block-Copy" transform="translate(33.886639, 269.719246) rotate(10.000000) translate(-33.886639, -269.719246) translate(2.386639, 253.219246)">
                    <path d="M62.3054187,6.06828287 L62.3054187,25.5353343 C62.3054187,26.8752112 61.231518,27.9626475 59.9083189,27.9626475 L34.5038549,27.9626475 C33.8662264,27.9626475 33.257363,28.2150881 32.8115024,28.6714229 L29.4651511,32.0599521 C29.0192905,32.5114323 28.4104272,32.7687275 27.7727986,32.7687275 L15.3749983,32.7687275 C14.7421639,32.7687275 14.1333006,32.5114323 13.6778516,32.0599521 L10.3410887,28.6714229 C9.89043389,28.2150881 9.27677633,27.9626475 8.64394198,27.9626475 L2.39709983,27.9626475 C1.07390072,27.9626475 0,26.8752112 0,25.5353343 L0,6.06828287 C0,4.72840602 1.07390072,3.64096972 2.39709983,3.64096972 L8.59599998,3.64096972 C9.23362854,3.64096972 9.84249189,3.89826492 10.2883525,4.34974516 L13.6778516,7.78682058 C14.1333006,8.23830083 14.7421639,8.49559602 15.3749983,8.49559602 L27.7727986,8.49559602 C28.4104272,8.49559602 29.0192905,8.23830083 29.4651511,7.78682058 L32.8546502,4.34974516 C33.3100992,3.89826492 33.9189626,3.64096972 34.5517969,3.64096972 L59.9083189,3.64096972 C61.231518,3.64096972 62.3054187,4.72840602 62.3054187,6.06828287" id="Fill-6-Copy" fill="#855CD6"></path>
                    <path d="M62.3054187,21.8943646 C62.3054187,23.2342415 61.231518,24.3216778 59.9083189,24.3216778 L34.5038549,24.3216778 C33.8662264,24.3216778 33.257363,24.5741183 32.8115024,25.0304532 L29.4651511,28.4189824 C29.0192905,28.8704626 28.4104272,29.1277578 27.7727986,29.1277578 L15.3749983,29.1277578 C14.7421639,29.1277578 14.1333006,28.8704626 13.6778516,28.4189824 L10.3410887,25.0304532 C9.89043389,24.5741183 9.27677633,24.3216778 8.64394198,24.3216778 L2.39709983,24.3216778 C1.07390072,24.3216778 0,23.2342415 0,21.8943646 L0,2.42731315 C0,1.08743629 1.07390072,0 2.39709983,0 L8.59599998,0 C9.23362854,0 9.84249189,0.257295194 10.2883525,0.70877544 L13.6778516,4.14585086 C14.1333006,4.59733111 14.7421639,4.8546263 15.3749983,4.8546263 L27.7727986,4.8546263 C28.4104272,4.8546263 29.0192905,4.59733111 29.4651511,4.14585086 L32.8546502,0.70877544 C33.3100992,0.257295194 33.9189626,0 34.5517969,0 L59.9083189,0 C61.231518,0 62.3054187,1.08743629 62.3054187,2.42731315 L62.3054187,21.8943646 Z" id="Fill-6" fill="#9966FF"></path>
                </g>
                <g id="Piano" transform="translate(609.946690, 219.221859) rotate(5.000000) translate(-609.946690, -219.221859) translate(531.446690, 187.721859)" stroke-linecap="round" stroke-linejoin="round">
                    <rect id="Rectangle" stroke="#4D4D4D" stroke-width="0.687022901" fill="#4D4D4D" x="5.7267269" y="51.8209115" width="143.704433" height="9.03782646"></rect>
                    <rect id="Rectangle" stroke="#000000" stroke-width="0.687022901" fill="#000000" opacity="0.1" x="5.7267269" y="51.8209115" width="143.704433" height="9.03782646"></rect>
                    <rect id="Rectangle" stroke="#4D4D4D" stroke-width="0.687022901" fill="#4D4D4D" x="5.55222331" y="50.8319646" width="143.704433" height="9.03782646"></rect>
                    <g id="Group" transform="translate(5.554639, 18.433690)">
                        <g opacity="0.15" transform="translate(0.000000, 2.954367)" fill="#000000" id="Path" stroke="#000000" stroke-width="3.4351145">
                            <path d="M59.5042802,36.1036995 L64.8266667,36.1036995 C65.9975917,36.1036995 66.9556212,35.1510638 66.9556212,33.9867312 L66.9556212,0.00938897022 L57.3753257,0.00938897022 L57.3753257,33.9867312 C57.3753257,35.1510638 58.3333552,36.1036995 59.5042802,36.1036995 Z"></path>
                            <path d="M50.0304324,36.1036995 L55.3528188,36.1036995 C56.5237438,36.1036995 57.4817734,35.1510638 57.4817734,33.9867312 L57.4817734,0.00938897022 L47.9014778,0.00938897022 L47.9014778,33.9867312 C47.9014778,35.1510638 48.8595074,36.1036995 50.0304324,36.1036995 Z"></path>
                            <path d="M40.4501368,36.1036995 L45.7725233,36.1036995 C46.9434483,36.1036995 47.9014778,35.1510638 47.9014778,33.9867312 L47.9014778,0.00938897022 L38.3211823,0.00938897022 L38.3211823,33.9867312 C38.3211823,35.1510638 39.2792118,36.1036995 40.4501368,36.1036995 Z"></path>
                            <path d="M30.8698413,36.1036995 L36.1922277,36.1036995 C37.3631527,36.1036995 38.3211823,35.1510638 38.3211823,33.9867312 L38.3211823,0.00938897022 L28.7408867,0.00938897022 L28.7408867,33.9867312 C28.7408867,35.1510638 29.6989163,36.1036995 30.8698413,36.1036995 Z"></path>
                            <path d="M11.8156979,36.1036995 L17.1380843,36.1036995 C18.3090093,36.1036995 19.2670389,35.1510638 19.2670389,33.9867312 L19.2670389,0.00938897022 L9.6867433,0.00938897022 L9.6867433,33.9867312 C9.6867433,35.1510638 10.6447729,36.1036995 11.8156979,36.1036995 Z"></path>
                            <path d="M2.2354023,36.1036995 L7.55778872,36.1036995 C8.72871374,36.1036995 9.6867433,35.1510638 9.6867433,33.9867312 L9.6867433,0.00938897022 L0.106447729,0.00938897022 L0.106447729,33.9867312 C0.106447729,35.1510638 1.06447729,36.1036995 2.2354023,36.1036995 Z"></path>
                            <path d="M21.3959934,36.1036995 L26.7183799,36.1036995 C27.8893049,36.1036995 28.8473344,35.1510638 28.8473344,33.9867312 L28.8473344,0.00938897022 L19.2670389,0.00938897022 L19.2670389,33.9867312 C19.2670389,35.1510638 20.2250684,36.1036995 21.3959934,36.1036995 Z"></path>
                            <path d="M126.459901,36.1036995 L131.782288,36.1036995 C132.953213,36.1036995 133.911242,35.1510638 133.911242,33.9867312 L133.911242,0.00938897022 L124.330947,0.00938897022 L124.330947,33.9867312 C124.330947,35.1510638 125.288976,36.1036995 126.459901,36.1036995 Z"></path>
                            <path d="M136.040197,36.1036995 L141.362583,36.1036995 C142.533508,36.1036995 143.491538,35.1510638 143.491538,33.9867312 L143.491538,0.00938897022 L133.911242,0.00938897022 L133.911242,33.9867312 C133.911242,35.1510638 134.869272,36.1036995 136.040197,36.1036995 Z"></path>
                            <path d="M116.879606,36.1036995 L122.201992,36.1036995 C123.372917,36.1036995 124.330947,35.1510638 124.330947,33.9867312 L124.330947,0.00938897022 L114.750651,0.00938897022 L114.750651,33.9867312 C114.750651,35.1510638 115.708681,36.1036995 116.879606,36.1036995 Z"></path>
                            <path d="M107.29931,36.1036995 L112.621697,36.1036995 C113.792622,36.1036995 114.750651,35.1510638 114.750651,33.9867312 L114.750651,0.00938897022 L105.170356,0.00938897022 L105.170356,33.9867312 C105.170356,35.1510638 106.128385,36.1036995 107.29931,36.1036995 Z"></path>
                            <path d="M97.7190148,36.1036995 L103.041401,36.1036995 C104.212326,36.1036995 105.170356,35.1510638 105.170356,33.9867312 L105.170356,0.00938897022 L95.5900602,0.00938897022 L95.5900602,33.9867312 C95.5900602,35.1510638 96.5480898,36.1036995 97.7190148,36.1036995 Z"></path>
                            <path d="M78.6648714,36.1036995 L83.9872578,36.1036995 C85.1581828,36.1036995 86.1162124,35.1510638 86.1162124,33.9867312 L86.1162124,0.00938897022 L76.5359168,0.00938897022 L76.5359168,33.9867312 C76.5359168,35.1510638 77.4939464,36.1036995 78.6648714,36.1036995 Z"></path>
                            <path d="M69.0845758,36.1036995 L74.4069622,36.1036995 C75.5778872,36.1036995 76.5359168,35.1510638 76.5359168,33.9867312 L76.5359168,0.00938897022 L66.9556212,0.00938897022 L66.9556212,33.9867312 C66.9556212,35.1510638 67.9136508,36.1036995 69.0845758,36.1036995 Z"></path>
                            <path d="M88.2451669,36.1036995 L93.5675534,36.1036995 C94.7384784,36.1036995 95.6965079,35.1510638 95.6965079,33.9867312 L95.6965079,0.00938897022 L86.1162124,0.00938897022 L86.1162124,33.9867312 C86.1162124,35.1510638 87.0742419,36.1036995 88.2451669,36.1036995 Z"></path>
                        </g>
                        <path d="M59.5042802,39.0580663 L64.8266667,39.0580663 C65.9975917,39.0580663 66.9556212,38.1054305 66.9556212,36.9410979 L66.9556212,2.9637557 L57.3753257,2.9637557 L57.3753257,36.9410979 C57.3753257,38.1054305 58.3333552,39.0580663 59.5042802,39.0580663 Z" id="Path" stroke="#4D4D4D" stroke-width="0.687022901" fill="#BFBFBF"></path>
                        <path d="M50.0304324,39.0580663 L55.3528188,39.0580663 C56.5237438,39.0580663 57.4817734,38.1054305 57.4817734,36.9410979 L57.4817734,2.9637557 L47.9014778,2.9637557 L47.9014778,36.9410979 C47.9014778,38.1054305 48.8595074,39.0580663 50.0304324,39.0580663 Z" id="Path" stroke="#4D4D4D" stroke-width="0.687022901" fill="#BFBFBF"></path>
                        <path d="M40.4501368,39.0580663 L45.7725233,39.0580663 C46.9434483,39.0580663 47.9014778,38.1054305 47.9014778,36.9410979 L47.9014778,2.9637557 L38.3211823,2.9637557 L38.3211823,36.9410979 C38.3211823,38.1054305 39.2792118,39.0580663 40.4501368,39.0580663 Z" id="Path" stroke="#4D4D4D" stroke-width="0.687022901" fill="#BFBFBF"></path>
                        <path d="M30.8698413,39.0580663 L36.1922277,39.0580663 C37.3631527,39.0580663 38.3211823,38.1054305 38.3211823,36.9410979 L38.3211823,2.9637557 L28.7408867,2.9637557 L28.7408867,36.9410979 C28.7408867,38.1054305 29.6989163,39.0580663 30.8698413,39.0580663 Z" id="Path" stroke="#4D4D4D" stroke-width="0.687022901" fill="#BFBFBF"></path>
                        <path d="M59.5042802,36.0943105 L64.8266667,36.0943105 C65.9975917,36.0943105 66.9556212,35.1416748 66.9556212,33.9773422 L66.9556212,0 L57.3753257,0 L57.3753257,33.9773422 C57.3753257,35.1416748 58.3333552,36.0943105 59.5042802,36.0943105 Z" id="Path" stroke="#4D4D4D" stroke-width="0.687022901" fill="#FFFFFF"></path>
                        <path d="M50.0304324,36.0943105 L55.3528188,36.0943105 C56.5237438,36.0943105 57.4817734,35.1416748 57.4817734,33.9773422 L57.4817734,0 L47.9014778,0 L47.9014778,33.9773422 C47.9014778,35.1416748 48.8595074,36.0943105 50.0304324,36.0943105 Z" id="Path" stroke="#4D4D4D" stroke-width="0.687022901" fill="#FFFFFF"></path>
                        <path d="M11.8156979,39.0580663 L17.1380843,39.0580663 C18.3090093,39.0580663 19.2670389,38.1054305 19.2670389,36.9410979 L19.2670389,2.9637557 L9.6867433,2.9637557 L9.6867433,36.9410979 C9.6867433,38.1054305 10.6447729,39.0580663 11.8156979,39.0580663 Z" id="Path" stroke="#4D4D4D" stroke-width="0.687022901" fill="#BFBFBF"></path>
                        <path d="M2.2354023,39.0580663 L7.55778872,39.0580663 C8.72871374,39.0580663 9.6867433,38.1054305 9.6867433,36.9410979 L9.6867433,2.9637557 L0.106447729,2.9637557 L0.106447729,36.9410979 C0.106447729,38.1054305 1.06447729,39.0580663 2.2354023,39.0580663 Z" id="Path" stroke="#4D4D4D" stroke-width="0.687022901" fill="#BFBFBF"></path>
                        <path d="M11.8156979,36.0943105 L17.1380843,36.0943105 C18.3090093,36.0943105 19.2670389,35.1416748 19.2670389,33.9773422 L19.2670389,0 L9.6867433,0 L9.6867433,33.9773422 C9.6867433,35.1416748 10.6447729,36.0943105 11.8156979,36.0943105 Z" id="Path" stroke="#4D4D4D" stroke-width="0.687022901" fill="#FFFFFF"></path>
                        <path d="M2.2354023,38.9522178 L7.55778872,38.9522178 C8.72871374,38.9522178 9.6867433,37.9995821 9.6867433,36.8352495 L9.6867433,0 L0.106447729,0 L0.106447729,36.8352495 C0.106447729,37.9995821 1.06447729,38.9522178 2.2354023,38.9522178 Z" id="Path" stroke="#4D4D4D" stroke-width="0.687022901" fill="#CCE6FF"></path>
                        <path d="M135.933749,39.0580663 L141.256136,39.0580663 C142.427061,39.0580663 143.38509,38.1054305 143.38509,36.9410979 L143.38509,2.9637557 L133.804795,2.9637557 L133.804795,36.9410979 C133.804795,38.1054305 134.762824,39.0580663 135.933749,39.0580663 Z" id="Path" stroke="#4D4D4D" stroke-width="0.687022901" fill="#BFBFBF"></path>
                        <path d="M135.933749,36.0943105 L141.256136,36.0943105 C142.427061,36.0943105 143.38509,35.1416748 143.38509,33.9773422 L143.38509,0 L133.804795,0 L133.804795,33.9773422 C133.804795,35.1416748 134.762824,36.0943105 135.933749,36.0943105 Z" id="Path" stroke="#4D4D4D" stroke-width="0.687022901" fill="#FFFFFF"></path>
                        <path d="M40.4501368,38.9522178 L45.7725233,38.9522178 C46.9434483,38.9522178 47.9014778,37.9995821 47.9014778,36.8352495 L47.9014778,0 L38.3211823,0 L38.3211823,36.8352495 C38.3211823,37.9995821 39.2792118,38.9522178 40.4501368,38.9522178 Z" id="Path" stroke="#4D4D4D" stroke-width="0.687022901" fill="#CCE6FF"></path>
                        <path d="M30.8698413,36.0943105 L36.1922277,36.0943105 C37.3631527,36.0943105 38.3211823,35.1416748 38.3211823,33.9773422 L38.3211823,0 L28.7408867,0 L28.7408867,33.9773422 C28.7408867,35.1416748 29.6989163,36.0943105 30.8698413,36.0943105 Z" id="Path" stroke="#4D4D4D" stroke-width="0.687022901" fill="#FFFFFF"></path>
                        <path d="M21.3959934,39.0580663 L26.7183799,39.0580663 C27.8893049,39.0580663 28.8473344,38.1054305 28.8473344,36.9410979 L28.8473344,2.9637557 L19.2670389,2.9637557 L19.2670389,36.9410979 C19.2670389,38.1054305 20.2250684,39.0580663 21.3959934,39.0580663 Z" id="Path" stroke="#4D4D4D" stroke-width="0.687022901" fill="#BFBFBF"></path>
                        <path d="M21.3959934,38.9522178 L26.7183799,38.9522178 C27.8893049,38.9522178 28.8473344,37.9995821 28.8473344,36.8352495 L28.8473344,0 L19.2670389,0 L19.2670389,36.8352495 C19.2670389,37.9995821 20.2250684,38.9522178 21.3959934,38.9522178 Z" id="Path" stroke="#4D4D4D" stroke-width="0.687022901" fill="#CCE6FF"></path>
                        <path d="M126.459901,39.0580663 L131.782288,39.0580663 C132.953213,39.0580663 133.911242,38.1054305 133.911242,36.9410979 L133.911242,2.9637557 L124.330947,2.9637557 L124.330947,36.9410979 C124.330947,38.1054305 125.288976,39.0580663 126.459901,39.0580663 Z" id="Path" stroke="#4D4D4D" stroke-width="0.687022901" fill="#BFBFBF"></path>
                        <path d="M116.879606,39.0580663 L122.201992,39.0580663 C123.372917,39.0580663 124.330947,38.1054305 124.330947,36.9410979 L124.330947,2.9637557 L114.750651,2.9637557 L114.750651,36.9410979 C114.750651,38.1054305 115.708681,39.0580663 116.879606,39.0580663 Z" id="Path" stroke="#4D4D4D" stroke-width="0.687022901" fill="#BFBFBF"></path>
                        <path d="M107.29931,39.0580663 L112.621697,39.0580663 C113.792622,39.0580663 114.750651,38.1054305 114.750651,36.9410979 L114.750651,2.9637557 L105.170356,2.9637557 L105.170356,36.9410979 C105.170356,38.1054305 106.128385,39.0580663 107.29931,39.0580663 Z" id="Path" stroke="#4D4D4D" stroke-width="0.687022901" fill="#BFBFBF"></path>
                        <path d="M97.7190148,39.0580663 L103.041401,39.0580663 C104.212326,39.0580663 105.170356,38.1054305 105.170356,36.9410979 L105.170356,2.9637557 L95.5900602,2.9637557 L95.5900602,36.9410979 C95.5900602,38.1054305 96.5480898,39.0580663 97.7190148,39.0580663 Z" id="Path" stroke="#4D4D4D" stroke-width="0.687022901" fill="#BFBFBF"></path>
                        <path d="M126.459901,36.0943105 L131.782288,36.0943105 C132.953213,36.0943105 133.911242,35.1416748 133.911242,33.9773422 L133.911242,0 L124.330947,0 L124.330947,33.9773422 C124.330947,35.1416748 125.288976,36.0943105 126.459901,36.0943105 Z" id="Path" stroke="#4D4D4D" stroke-width="0.687022901" fill="#FFFFFF"></path>
                        <path d="M116.879606,36.0943105 L122.201992,36.0943105 C123.372917,36.0943105 124.330947,35.1416748 124.330947,33.9773422 L124.330947,0 L114.750651,0 L114.750651,33.9773422 C114.750651,35.1416748 115.708681,36.0943105 116.879606,36.0943105 Z" id="Path" stroke="#4D4D4D" stroke-width="0.687022901" fill="#FFFFFF"></path>
                        <path d="M78.6648714,39.0580663 L83.9872578,39.0580663 C85.1581828,39.0580663 86.1162124,38.1054305 86.1162124,36.9410979 L86.1162124,2.9637557 L76.5359168,2.9637557 L76.5359168,36.9410979 C76.5359168,38.1054305 77.4939464,39.0580663 78.6648714,39.0580663 Z" id="Path" stroke="#4D4D4D" stroke-width="0.687022901" fill="#BFBFBF"></path>
                        <path d="M69.0845758,39.0580663 L74.4069622,39.0580663 C75.5778872,39.0580663 76.5359168,38.1054305 76.5359168,36.9410979 L76.5359168,2.9637557 L66.9556212,2.9637557 L66.9556212,36.9410979 C66.9556212,38.1054305 67.9136508,39.0580663 69.0845758,39.0580663 Z" id="Path" stroke="#4D4D4D" stroke-width="0.687022901" fill="#BFBFBF"></path>
                        <path d="M78.6648714,36.0943105 L83.9872578,36.0943105 C85.1581828,36.0943105 86.1162124,35.1416748 86.1162124,33.9773422 L86.1162124,0 L76.5359168,0 L76.5359168,33.9773422 C76.5359168,35.1416748 77.4939464,36.0943105 78.6648714,36.0943105 Z" id="Path" stroke="#4D4D4D" stroke-width="0.687022901" fill="#FFFFFF"></path>
                        <path d="M69.0845758,36.0943105 L74.4069622,36.0943105 C75.5778872,36.0943105 76.5359168,35.1416748 76.5359168,33.9773422 L76.5359168,0 L66.9556212,0 L66.9556212,33.9773422 C66.9556212,35.1416748 67.9136508,36.0943105 69.0845758,36.0943105 Z" id="Path" stroke="#4D4D4D" stroke-width="0.687022901" fill="#FFFFFF"></path>
                        <path d="M107.29931,36.0943105 L112.621697,36.0943105 C113.792622,36.0943105 114.750651,35.1416748 114.750651,33.9773422 L114.750651,0 L105.170356,0 L105.170356,33.9773422 C105.170356,35.1416748 106.128385,36.0943105 107.29931,36.0943105 Z" id="Path" stroke="#4D4D4D" stroke-width="0.687022901" fill="#FFFFFF"></path>
                        <path d="M97.7190148,36.0943105 L103.041401,36.0943105 C104.212326,36.0943105 105.170356,35.1416748 105.170356,33.9773422 L105.170356,0 L95.5900602,0 L95.5900602,33.9773422 C95.5900602,35.1416748 96.5480898,36.0943105 97.7190148,36.0943105 Z" id="Path" stroke="#4D4D4D" stroke-width="0.687022901" fill="#FFFFFF"></path>
                        <path d="M88.2451669,39.0580663 L93.5675534,39.0580663 C94.7384784,39.0580663 95.6965079,38.1054305 95.6965079,36.9410979 L95.6965079,2.9637557 L86.1162124,2.9637557 L86.1162124,36.9410979 C86.1162124,38.1054305 87.0742419,39.0580663 88.2451669,39.0580663 Z" id="Path" stroke="#4D4D4D" stroke-width="0.687022901" fill="#BFBFBF"></path>
                        <path d="M88.2451669,36.0943105 L93.5675534,36.0943105 C94.7384784,36.0943105 95.6965079,35.1416748 95.6965079,33.9773422 L95.6965079,0 L86.1162124,0 L86.1162124,33.9773422 C86.1162124,35.1416748 87.0742419,36.0943105 88.2451669,36.0943105 Z" id="Path" stroke="#4D4D4D" stroke-width="0.687022901" fill="#FFFFFF"></path>
                    </g>
                    <g id="Group" transform="translate(0.370127, 0.108446)" stroke-width="0.687022901">
                        <rect id="Rectangle" stroke="#4D4D4D" fill="#4D4D4D" x="6.08117957" y="0" width="144.027937" height="18.8892275"></rect>
                        <path d="M150.215804,61.416371 L150.215804,10.8692203 L150.962616,10.8692203 C153.6298,10.8692203 155.763547,12.9797485 155.763547,15.6179088 L155.763547,56.5621561 C155.763547,59.2003164 153.6298,61.3108446 150.962616,61.3108446 L150.215804,61.3108446 L150.215804,61.416371 Z" id="Path" stroke="#4D4D4D" fill="#4D4D4D"></path>
                        <path d="M150.215804,61.416371 L150.215804,10.8692203 L150.962616,10.8692203 C153.6298,10.8692203 155.763547,12.9797485 155.763547,15.6179088 L155.763547,56.5621561 C155.763547,59.2003164 153.6298,61.3108446 150.962616,61.3108446 L150.215804,61.3108446 L150.215804,61.416371 Z" id="Path" stroke="#000000" fill="#000000" opacity="0.1"></path>
                        <rect id="Rectangle" stroke="#000000" fill="#000000" opacity="0.1" x="6.08117957" y="16.1455408" width="144.027937" height="8.33658644"></rect>
                        <path d="M150.215804,54.8737335 L150.215804,0 L150.962616,0 C153.6298,0 155.763547,2.11052821 155.763547,4.74868848 L155.763547,50.1250451 C155.763547,52.7632053 153.6298,54.8737335 150.962616,54.8737335 L150.215804,54.8737335 Z" id="Path" stroke="#4D4D4D" fill="#4D4D4D"></path>
                        <path d="M6.08117957,61.416371 L6.08117957,10.8692203 L5.33436804,10.8692203 C2.66718402,10.8692203 0.533436804,12.9797485 0.533436804,15.6179088 L0.533436804,56.5621561 C0.533436804,59.2003164 2.66718402,61.3108446 5.33436804,61.3108446 L6.08117957,61.3108446 L6.08117957,61.416371 Z" id="Path" stroke="#4D4D4D" fill="#4D4D4D"></path>
                        <path d="M6.08117957,61.416371 L6.08117957,10.8692203 L5.33436804,10.8692203 C2.66718402,10.8692203 0.533436804,12.9797485 0.533436804,15.6179088 L0.533436804,56.5621561 C0.533436804,59.2003164 2.66718402,61.3108446 5.33436804,61.3108446 L6.08117957,61.3108446 L6.08117957,61.416371 Z" id="Path" stroke="#000000" fill="#000000" opacity="0.1"></path>
                        <path d="M6.08117957,54.8737335 L6.08117957,0 L5.33436804,0 C2.66718402,0 0.533436804,2.11052821 0.533436804,4.74868848 L0.533436804,50.1250451 C0.533436804,52.7632053 2.66718402,54.8737335 5.33436804,54.8737335 L6.08117957,54.8737335 Z" id="Path" stroke="#4D4D4D" fill="#4D4D4D"></path>
                    </g>
                    <g id="Group" transform="translate(12.191798, 18.052815)" fill="#4D4D4D" stroke="#4D4D4D">
                        <path d="M2.11034483,22.151804 L4.01970443,22.151804 C5.12512315,22.151804 6.02955665,21.2069403 6.02955665,20.0521069 L6.02955665,0.944863676 L0.100492611,0.944863676 L0.100492611,20.0521069 C0.100492611,21.2069403 1.00492611,22.151804 2.11034483,22.151804 Z" id="Path" stroke-width="3.4351145" opacity="0.1"></path>
                        <path d="M2.11034483,21.3119251 L4.01970443,21.3119251 C5.12512315,21.3119251 6.02955665,20.3670615 6.02955665,19.2122281 L6.02955665,0 L0.100492611,0 L0.100492611,19.1072432 C0.100492611,20.3670615 1.00492611,21.3119251 2.11034483,21.3119251 Z" id="Path" stroke-width="0.687022901"></path>
                    </g>
                    <g id="Group" transform="translate(146.040483, 19.118398)" fill="#4D4D4D" stroke="#4D4D4D">
                        <path d="M2.00985222,22.151804 L2.21083744,22.151804 L2.21083744,0.944863676 L0.602955665,0.944863676 L0.602955665,20.7870009 C0.703448276,21.5218948 1.30640394,22.151804 2.00985222,22.151804 Z" id="Path" stroke-width="3.4351145" opacity="0.1"></path>
                        <path d="M2.71330049,21.3119251 L3.81871921,21.3119251 L3.81871921,0 L0.703448276,0 L0.703448276,19.1072432 C0.703448276,20.3670615 1.60788177,21.3119251 2.71330049,21.3119251 Z" id="Path" stroke-width="0.687022901"></path>
                    </g>
                    <g id="Group" transform="translate(22.429762, 18.199740)" fill="#4D4D4D" stroke="#4D4D4D">
                        <path d="M2.46206897,22.151804 L4.68965517,22.151804 C5.97931034,22.151804 7.03448276,21.2069403 7.03448276,20.0521069 L7.03448276,0.944863676 L0.117241379,0.944863676 L0.117241379,20.0521069 C0.117241379,21.2069403 1.17241379,22.151804 2.46206897,22.151804 Z" id="Path" stroke-width="3.4351145" opacity="0.1"></path>
                        <path d="M2.46206897,21.3119251 L4.68965517,21.3119251 C5.97931034,21.3119251 7.03448276,20.3670615 7.03448276,19.2122281 L7.03448276,0 L0.117241379,0 L0.117241379,19.1072432 C0.117241379,20.3670615 1.17241379,21.3119251 2.46206897,21.3119251 Z" id="Path" stroke-width="0.687022901"></path>
                    </g>
                    <g id="Group" transform="translate(40.767135, 18.027776)" fill="#4D4D4D" stroke="#4D4D4D">
                        <path d="M2.34482759,22.151804 L4.68965517,22.151804 C5.97931034,22.151804 7.03448276,21.2069403 7.03448276,20.0521069 L7.03448276,0.944863676 L0,0.944863676 L0,20.0521069 C0,21.2069403 1.05517241,22.151804 2.34482759,22.151804 Z" id="Path" stroke-width="3.4351145" opacity="0.1"></path>
                        <path d="M2.34482759,21.3119251 L4.68965517,21.3119251 C5.97931034,21.3119251 7.03448276,20.3670615 7.03448276,19.2122281 L7.03448276,0 L0,0 L0,19.1072432 C0,20.3670615 1.05517241,21.3119251 2.34482759,21.3119251 Z" id="Path" stroke-width="0.687022901"></path>
                    </g>
                    <g id="Group" transform="translate(51.020366, 18.349079)" fill="#4D4D4D" stroke="#4D4D4D">
                        <path d="M2.00985222,22.151804 L3.91921182,22.151804 C5.02463054,22.151804 5.92906404,21.2069403 5.92906404,20.0521069 L5.92906404,0.944863676 L0,0.944863676 L0,20.0521069 C0,21.2069403 0.904433498,22.151804 2.00985222,22.151804 Z" id="Path" stroke-width="3.4351145" opacity="0.1"></path>
                        <path d="M2.00985222,21.3119251 L3.91921182,21.3119251 C5.02463054,21.3119251 5.92906404,20.3670615 5.92906404,19.2122281 L5.92906404,0 L0,0 L0,19.1072432 C0,20.3670615 0.904433498,21.3119251 2.00985222,21.3119251 Z" id="Path" stroke-width="0.687022901"></path>
                    </g>
                    <g id="Group" transform="translate(61.083826, 17.507057)" fill="#4D4D4D" stroke="#4D4D4D">
                        <path d="M2.34482759,22.151804 L4.57241379,22.151804 C5.86206897,22.151804 6.91724138,21.2069403 6.91724138,20.0521069 L6.91724138,0.944863676 L0,0.944863676 L0,20.0521069 C0,21.2069403 1.05517241,22.151804 2.34482759,22.151804 Z" id="Path" stroke-width="3.4351145" opacity="0.1"></path>
                        <path d="M2.34482759,21.3119251 L4.57241379,21.3119251 C5.86206897,21.3119251 6.91724138,20.3670615 6.91724138,19.2122281 L6.91724138,0 L0,0 L0,19.1072432 C0,20.3670615 1.05517241,21.3119251 2.34482759,21.3119251 Z" id="Path" stroke-width="0.687022901"></path>
                    </g>
                    <g id="Group" transform="translate(79.603336, 18.411229)" fill="#4D4D4D" stroke="#4D4D4D">
                        <path d="M2.32568614,22.151804 L4.5078114,22.151804 C5.77114708,22.151804 6.80478536,21.2069403 6.80478536,20.0521069 L6.80478536,0.944863676 L0.0287121745,0.944863676 L0.0287121745,20.0521069 C0.0287121745,21.2069403 1.06235046,22.151804 2.32568614,22.151804 Z" id="Path" stroke-width="3.4351145" opacity="0.1"></path>
                        <path d="M2.32568614,21.3119251 L4.5078114,21.3119251 C5.77114708,21.3119251 6.80478536,20.3670615 6.80478536,19.2122281 L6.80478536,0 L0.0287121745,0 L0.0287121745,19.1072432 C0.0287121745,20.3670615 1.06235046,21.3119251 2.32568614,21.3119251 Z" id="Path" stroke-width="0.687022901"></path>
                    </g>
                    <g id="Group" transform="translate(89.680931, 18.645342)" fill="#4D4D4D" stroke="#4D4D4D">
                        <path d="M2.37884047,22.151804 L4.56096573,22.151804 C5.82430141,22.151804 6.8579397,21.2069403 6.8579397,20.0521069 L6.8579397,0.944863676 L0.0818665079,0.944863676 L0.0818665079,20.0521069 C0.0818665079,21.2069403 1.11550479,22.151804 2.37884047,22.151804 Z" id="Path" stroke-width="3.4351145" opacity="0.1"></path>
                        <path d="M2.37884047,21.3119251 L4.56096573,21.3119251 C5.82430141,21.3119251 6.8579397,20.3670615 6.8579397,19.2122281 L6.8579397,1.13686838e-13 L0.0818665079,1.13686838e-13 L0.0818665079,19.1072432 C0.0818665079,20.3670615 1.11550479,21.3119251 2.37884047,21.3119251 Z" id="Path" stroke-width="0.687022901"></path>
                    </g>
                    <g id="Group" transform="translate(108.018304, 18.473379)" fill="#4D4D4D" stroke="#4D4D4D">
                        <path d="M2.37884047,22.151804 L4.56096573,22.151804 C5.82430141,22.151804 6.8579397,21.2069403 6.8579397,20.0521069 L6.8579397,0.944863676 L0.0818665079,0.944863676 L0.0818665079,20.0521069 C0.0818665079,21.2069403 1.11550479,22.151804 2.37884047,22.151804 Z" id="Path" stroke-width="3.4351145" opacity="0.1"></path>
                        <path d="M2.37884047,21.3119251 L4.56096573,21.3119251 C5.82430141,21.3119251 6.8579397,20.3670615 6.8579397,19.2122281 L6.8579397,0.104984853 L0.0818665079,0.104984853 L0.0818665079,19.2122281 C0.0818665079,20.3670615 1.11550479,21.3119251 2.37884047,21.3119251 Z" id="Path" stroke-width="0.687022901"></path>
                    </g>
                    <g id="Group" transform="translate(117.252475, 17.718545)" fill="#4D4D4D" stroke="#4D4D4D">
                        <path d="M3.10091485,22.151804 L5.28304011,22.151804 C6.54637579,22.151804 7.58001407,21.2069403 7.58001407,20.0521069 L7.58001407,0.944863676 L0.803940887,0.944863676 L0.803940887,20.0521069 C0.803940887,21.2069403 1.83757917,22.151804 3.10091485,22.151804 Z" id="Path" stroke-width="3.4351145" opacity="0.1"></path>
                        <path d="M3.10091485,21.3119251 L5.28304011,21.3119251 C6.54637579,21.3119251 7.58001407,20.3670615 7.58001407,19.2122281 L7.58001407,0 L0.803940887,0 L0.803940887,19.1072432 C0.803940887,20.3670615 1.83757917,21.3119251 3.10091485,21.3119251 Z" id="Path" stroke-width="0.687022901"></path>
                    </g>
                    <g id="Group" transform="translate(127.498072, 17.952659)" fill="#4D4D4D" stroke="#4D4D4D">
                        <path d="M3.10091485,22.151804 L5.28304011,22.151804 C6.54637579,22.151804 7.58001407,21.2069403 7.58001407,20.0521069 L7.58001407,0.944863676 L0.803940887,0.944863676 L0.803940887,20.0521069 C0.803940887,21.2069403 1.83757917,22.151804 3.10091485,22.151804 Z" id="Path" stroke-width="3.4351145" opacity="0.1"></path>
                        <path d="M3.10091485,21.3119251 L5.28304011,21.3119251 C6.54637579,21.3119251 7.58001407,20.3670615 7.58001407,19.2122281 L7.58001407,0 L0.803940887,0 L0.803940887,19.1072432 C0.803940887,20.3670615 1.83757917,21.3119251 3.10091485,21.3119251 Z" id="Path" stroke-width="0.687022901"></path>
                    </g>
                    <path d="M33.6502555,12.7717235 L7.59661566,12.7717235 C6.97132831,12.7717235 6.55447007,12.3561912 6.55447007,11.7328929 L6.55447007,4.77272765 C6.55447007,4.14942927 6.97132831,3.73389702 7.59661566,3.73389702 L33.6502555,3.73389702 C34.2755429,3.73389702 34.6924011,4.14942927 34.6924011,4.77272765 L34.6924011,11.7328929 C34.6924011,12.2523082 34.2755429,12.7717235 33.6502555,12.7717235 Z" id="Path" stroke="#3D79CC" stroke-width="0.687022901" fill="#4C97FF"></path>
                    <g id="Group" transform="translate(39.969018, 3.432625)" stroke-width="0.687022901">
                        <path d="M4.29605911,8.86989672 C2.14802956,8.86989672 0.339162562,7.08464704 0.339162562,4.96466306 L0.339162562,3.96046012 C0.339162562,1.84047613 2.14802956,0.0552264618 4.29605911,0.0552264618 C6.44408867,0.0552264618 8.25295567,1.84047613 8.25295567,3.96046012 L8.25295567,4.96466306 C8.13990148,7.19622515 6.44408867,8.86989672 4.29605911,8.86989672 Z" id="Path" stroke="#000000" fill="#000000" opacity="0.1"></path>
                        <g transform="translate(0.000000, 0.166805)">
                            <ellipse id="Oval" stroke="#000000" fill="#000000" opacity="0.2" cx="4.29605911" cy="3.90523366" rx="3.95689655" ry="3.90523366"></ellipse>
                            <path d="M4.29605911,3.90523366 L8.13990148,3.90523366" id="Path" stroke="#FFFFFF" fill="#FFFFFF" opacity="0.1"></path>
                        </g>
                    </g>
                    <g id="Group" transform="translate(52.019430, 2.329035)" stroke-width="0.687022901">
                        <path d="M4.63522167,8.86989672 C2.48719212,8.86989672 0.678325123,7.08464704 0.678325123,4.96466306 L0.678325123,3.96046012 C0.678325123,1.84047613 2.48719212,0.0552264618 4.63522167,0.0552264618 C6.78325123,0.0552264618 8.59211823,1.84047613 8.59211823,3.96046012 L8.59211823,4.96466306 C8.59211823,7.19622515 6.78325123,8.86989672 4.63522167,8.86989672 Z" id="Path" stroke="#000000" fill="#000000" opacity="0.1"></path>
                        <g transform="translate(0.000000, 0.166805)">
                            <ellipse id="Oval" stroke="#000000" fill="#000000" opacity="0.2" cx="4.63522167" cy="3.90523366" rx="3.95689655" ry="3.90523366"></ellipse>
                            <path d="M4.63522167,3.90523366 L1.92192118,6.69468627" id="Path" stroke="#FFFFFF" fill="#FFFFFF" opacity="0.1"></path>
                        </g>
                    </g>
                    <g id="Group" transform="translate(64.259612, 2.388771)" stroke-width="0.687022901">
                        <path d="M3.96945813,8.86989672 C1.82142857,8.86989672 0.0125615764,7.08464704 0.0125615764,4.96466306 L0.0125615764,3.96046012 C0.0125615764,1.84047613 1.82142857,0.0552264618 3.96945813,0.0552264618 C6.11748768,0.0552264618 7.92635468,1.84047613 7.92635468,3.96046012 L7.92635468,4.96466306 C7.92635468,7.19622515 6.23054187,8.86989672 3.96945813,8.86989672 Z" id="Path" stroke="#000000" fill="#000000" opacity="0.1"></path>
                        <g transform="translate(0.000000, 0.166805)">
                            <ellipse id="Oval" stroke="#000000" fill="#000000" opacity="0.2" cx="3.96945813" cy="3.90523366" rx="3.95689655" ry="3.90523366"></ellipse>
                            <path d="M3.96945813,3.90523366 L1.25615764,1.22735915" id="Path" stroke="#FFFFFF" fill="#FFFFFF" opacity="0.1"></path>
                        </g>
                    </g>
                    <g id="Group" transform="translate(129.846718, 4.027621)" fill="#000000" opacity="0.1" stroke="#000000" stroke-width="0.687022901">
                        <ellipse id="Oval" cx="0.888566243" cy="0.937256078" rx="1" ry="1"></ellipse>
                        <ellipse id="Oval" cx="5.6646098" cy="0.937256078" rx="1" ry="1"></ellipse>
                        <ellipse id="Oval" cx="10.4406534" cy="0.937256078" rx="1" ry="1"></ellipse>
                        <g transform="translate(14.306911, 0.000000)" id="Oval">
                            <ellipse cx="0.909786001" cy="0.937256078" rx="1" ry="1"></ellipse>
                            <ellipse cx="5.57475878" cy="0.937256078" rx="1" ry="1"></ellipse>
                        </g>
                        <ellipse id="Oval" cx="0.888566243" cy="5.74069348" rx="1" ry="1"></ellipse>
                        <ellipse id="Oval" cx="5.6646098" cy="5.74069348" rx="1" ry="1"></ellipse>
                        <ellipse id="Oval" cx="10.4406534" cy="5.74069348" rx="1" ry="1"></ellipse>
                        <ellipse id="Oval" cx="15.2166969" cy="5.74069348" rx="1" ry="1"></ellipse>
                        <ellipse id="Oval" cx="19.8816697" cy="5.74069348" rx="1" ry="1"></ellipse>
                    </g>
                </g>
                <g id="Brush" transform="translate(133.665334, 57.505104) rotate(32.000000) translate(-133.665334, -57.505104) translate(105.165334, 7.505104)">
                    <g transform="translate(0.198739, 59.266148)">
                        <mask id="mask-2" fill="white">
                            <use xlink:href="#path-1"></use>
                        </mask>
                        <use id="Rectangle" fill="#D9E3F2" xlink:href="#path-1"></use>
                        <path d="M9.1931763,20.1536099 C8.1753615,28.0189044 -3.82263747,37.5601931 -2.75644256,38.8990826 C-1.69024765,40.2379721 24.2859438,42.9357798 33.2597204,42.9357798 C42.233497,42.9357798 64.0143184,46.7070403 61.1501184,36.9578538 C58.2859184,27.2086673 58.7728959,25.7164202 58.7728959,22.2206833 C58.7728959,18.7249464 58.7728959,15.4320715 52.6895165,20.1536099 C46.6061371,24.8751483 38.7545168,25.5859224 33.2597204,22.2206833 C27.7649241,18.8554442 10.2109911,12.2883154 9.1931763,20.1536099 Z" id="Path-13" fill="#FF6680" mask="url(#mask-2)"></path>
                    </g>
                    <g id="Handle" transform="translate(14.450704, 0.000000)">
                        <mask id="mask-4" fill="white">
                            <use xlink:href="#path-3"></use>
                        </mask>
                        <use id="Combined-Shape-Copy" fill="#FFAB19" xlink:href="#path-3"></use>
                    </g>
                    <rect id="Rectangle-Copy" fill="#CF8B17" x="14.686599" y="55.2158408" width="40.943662" height="7.2"></rect>
                </g>
                <g id="Hat-Block" transform="translate(602.901108, 40.272764) rotate(-4.000000) translate(-602.901108, -40.272764) translate(562.401108, 18.772764)">
                    <path d="M80.3940887,35.4800823 C80.3940887,36.753597 79.3891626,37.7871742 78.1609195,37.7871742 L32.1442365,37.7871742 C31.5502135,37.7871742 30.9829885,38.0271117 30.5631527,38.460845 L27.4501149,41.6815453 C27.0302791,42.1106644 26.4630542,42.3552161 25.8690312,42.3552161 L14.3235468,42.3552161 C13.7295238,42.3552161 13.1622989,42.1106644 12.7424631,41.6815453 L9.62942529,38.460845 C9.20958949,38.0271117 8.64236453,37.7871742 8.05280788,37.7871742 L2.23316913,37.7871742 C1.00045977,37.7871742 0,36.753597 0,35.4800823 L0,14.6701135 C5.46582178,7.19712971 13.6130679,3.46063782 24.4417384,3.46063782 C35.2704089,3.46063782 43.417655,7.19712971 48.8834768,14.6701135 L78.1609195,14.6701135 C79.3891626,14.6701135 80.3940887,15.7036907 80.3940887,16.9772054 L80.3940887,35.4800823 Z" id="Fill-3-Copy" fill="#E6AC00"></path>
                    <path d="M80.3940887,32.0194445 C80.3940887,33.2929592 79.3891626,34.3265363 78.1609195,34.3265363 L32.1442365,34.3265363 C31.5502135,34.3265363 30.9829885,34.5664739 30.5631527,35.0002072 L27.4501149,38.2209074 C27.0302791,38.6500265 26.4630542,38.8945783 25.8690312,38.8945783 L14.3235468,38.8945783 C13.7295238,38.8945783 13.1622989,38.6500265 12.7424631,38.2209074 L9.62942529,35.0002072 C9.20958949,34.5664739 8.64236453,34.3265363 8.05280788,34.3265363 L2.23316913,34.3265363 C1.00045977,34.3265363 0,33.2929592 0,32.0194445 L0,11.2094757 C5.46582178,3.73649189 13.6130679,6.41580182e-16 24.4417384,0 C35.2704089,0 43.417655,3.73649189 48.8834768,11.2094757 L78.1609195,11.2094757 C79.3891626,11.2094757 80.3940887,12.2430528 80.3940887,13.5165676 L80.3940887,32.0194445 Z" id="Fill-3" fill="#FFBF00"></path>
                </g>
            </g>
        </g>
    </g>
</svg>