<svg xmlns="http://www.w3.org/2000/svg" xmlns:xlink="http://www.w3.org/1999/xlink" viewBox="0 0 624 325"><defs/><defs><path id="a" d="M14.52 3.2L55.42.4c.37 24.27-3.35 37.1-11.16 38.5-11.72 2.1-5.51-3.65-14.8 0-9.3 3.65-7.03-3.96-12.24-1.96S-5.51 40.33 2.4 32.6c8.3-8.1 12.33-17.89 12.12-29.4z"/><path id="c" d="M20.91 58.6H.43v-5.06c0-7.63 15.25-5.93 15.25-16.33 0-10.39-4.34-12.06-4.34-21.66C11.34 10.12 12.96.2 20.9.2c7.94 0 9.56 9.92 9.56 15.35 0 9.6-4.33 11.27-4.33 21.66 0 10.4 15.25 8.7 15.25 16.33v5.06H20.9zm.3-44.49c1.75 0 3.17-1.78 3.17-3.98s-1.42-3.99-3.17-3.99-3.17 1.79-3.17 3.99 1.42 3.98 3.17 3.98z"/></defs><g fill="none" fill-rule="evenodd"><path fill="#000" fill-opacity=".15" d="M471.34 93.6c15.88 30.16-30.77 44.52 33.74 46.15 64.52 1.62 80.4 19.11 69.98 45.25-10.42 26.14-137.97-5.38-131.52 27.48 6.46 32.86 105.22 4.93 96.78 57.9-8.44 52.98-121.6-6.38-200.06 33.38C261.8 343.53 114 323.48 114 276.47c0-47 77.44-27.12 77.44-51.18 0-24.07-77.44-2.23-77.44-45.07s130.04-1.99 130.04-33.34c0-31.36-97.27-3.55-97.27-42.02 0-38.48 79.9-14.84 84.37-33.4 4.46-18.58-26.3-9.56-19.36-36.1 11.7-44.66 269.98-52.74 209.93 9.34-35.26 36.44 33.75 18.73 49.63 48.9zM73.13 240.24c33.14 8.38 0 69.38-27.62 48.37-27.62-21.01-5.52-56.75 27.62-48.37zm15.47-44.52c22.22 5.74 20.25 40-4.97 32.1-25.23-7.92-17.24-37.84 4.97-32.1zm491 54c22.22 5.74 20.25 40-4.97 32.1-25.23-7.92-17.24-37.84 4.97-32.1zM466.15 21.33C500.5-12.4 622.43 4.3 617.88 39.96c-4.56 35.67-50.7 2.45-53.18 24.5-2.49 22.05 29.36 2.72 29.36 26.63 0 23.9-90.58 33.16-90.58 2.28 0-17.08 17.42-15.51 22.9-19.25 5.47-3.74 12.39-19.2-14.02-18.84-39.74.53-66.99-13.55-46.2-33.95z"/><path fill="#855CD6" d="M65.04 253.8l-3.38 19.17a2.41 2.41 0 01-2.79 1.97l-25.02-4.41a2.36 2.36 0 00-1.79.4l-3.88 2.76c-.52.37-1.16.51-1.79.4l-12.2-2.15a2.42 2.42 0 01-1.56-1l-2.7-3.9a2.39 2.39 0 00-1.54-1l-6.15-1.09a2.41 2.41 0 01-1.94-2.8l3.38-19.17A2.41 2.41 0 016.46 241l6.1 1.08c.63.1 1.19.47 1.55.99l2.74 3.97c.37.53.92.89 1.55 1l12.2 2.15c.63.11 1.28-.04 1.8-.4l3.93-2.8a2.42 2.42 0 011.8-.4l24.97 4.4a2.41 2.41 0 011.94 2.8"/><path fill="#96F" d="M62.29 269.38a2.41 2.41 0 01-2.78 1.98l-25.02-4.42a2.36 2.36 0 00-1.8.4l-3.88 2.76c-.51.37-1.16.52-1.79.4l-12.2-2.14a2.42 2.42 0 01-1.55-1l-2.7-3.91a2.39 2.39 0 00-1.55-1l-6.15-1.08a2.41 2.41 0 01-1.94-2.8l3.38-19.18a2.41 2.41 0 012.78-1.97l6.1 1.07c.63.11 1.19.47 1.55 1l2.74 3.97c.37.52.93.88 1.55 1l12.2 2.14c.64.11 1.28-.03 1.8-.4l3.93-2.8a2.42 2.42 0 011.8-.4l24.97 4.4a2.41 2.41 0 011.94 2.81l-3.38 19.17z"/><g stroke-linecap="round" stroke-linejoin="round"><path fill="#4D4D4D" stroke="#4D4D4D" stroke-width=".69" d="M534.68 222.12l143.16 12.53-.8 9-143.15-12.52z"/><path fill="#000" stroke="#000" stroke-width=".69" d="M534.68 222.12l143.16 12.53-.8 9-143.15-12.52z" opacity=".1"/><path fill="#4D4D4D" stroke="#4D4D4D" stroke-width=".69" d="M534.59 221.12l143.15 12.52-.79 9.01-143.15-12.52z"/><g fill="#000" stroke="#000" stroke-width="3.44" opacity=".15"><path d="M593.3 232.94l5.3.47c1.16.1 2.2-.77 2.3-1.93l2.96-33.84-9.54-.84-2.96 33.85c-.1 1.16.76 2.2 1.93 2.3z"/><path d="M583.85 232.12l5.3.46c1.17.1 2.21-.76 2.31-1.92l2.96-33.85-9.54-.83-2.96 33.84c-.1 1.16.77 2.2 1.93 2.3zM574.31 231.28l5.3.47c1.17.1 2.2-.77 2.3-1.93l2.97-33.84-9.55-.84-2.96 33.85c-.1 1.16.77 2.2 1.94 2.3z"/><path d="M564.77 230.45l5.3.46c1.16.1 2.2-.76 2.3-1.92l2.96-33.85-9.54-.83-2.96 33.84c-.1 1.16.77 2.2 1.94 2.3zM545.78 228.79l5.3.46c1.17.1 2.21-.76 2.31-1.92l2.96-33.85-9.54-.84-2.96 33.85c-.1 1.16.77 2.2 1.93 2.3zM536.24 227.95l5.3.47c1.17.1 2.2-.77 2.3-1.93l2.97-33.85-9.54-.83-2.97 33.85c-.1 1.16.77 2.19 1.94 2.3z"/><path d="M555.33 229.62l5.3.47c1.17.1 2.2-.77 2.3-1.93l2.97-33.85-9.55-.83-2.96 33.85c-.1 1.16.77 2.19 1.94 2.3zM612.38 234.61l5.3.47c1.17.1 2.2-.77 2.3-1.93l2.97-33.84-9.55-.84-2.96 33.85c-.1 1.16.77 2.2 1.94 2.3z"/><path d="M602.84 233.78l5.3.46c1.16.1 2.2-.76 2.3-1.92l2.96-33.85-9.54-.83-2.96 33.84c-.1 1.16.77 2.2 1.94 2.3zM621.92 235.45l5.3.46c1.17.1 2.2-.76 2.31-1.92l2.96-33.85-9.54-.83-2.96 33.84c-.1 1.16.77 2.2 1.93 2.3z"/></g><path fill="#BFBFBF" stroke="#4D4D4D" stroke-width=".69" d="M593.3 232.94l5.3.47c1.16.1 2.2-.77 2.3-1.93l2.96-33.84-9.54-.84-2.96 33.85c-.1 1.16.76 2.2 1.93 2.3z"/><path fill="#BFBFBF" stroke="#4D4D4D" stroke-width=".69" d="M583.85 232.12l5.3.46c1.17.1 2.21-.76 2.31-1.92l2.96-33.85-9.54-.83-2.96 33.84c-.1 1.16.77 2.2 1.93 2.3zM574.31 231.28l5.3.47c1.17.1 2.2-.77 2.3-1.93l2.97-33.84-9.55-.84-2.96 33.85c-.1 1.16.77 2.2 1.94 2.3z"/><path fill="#BFBFBF" stroke="#4D4D4D" stroke-width=".69" d="M564.77 230.45l5.3.46c1.16.1 2.2-.76 2.3-1.92l2.96-33.85-9.54-.83-2.96 33.84c-.1 1.16.77 2.2 1.94 2.3z"/><path fill="#FFF" stroke="#4D4D4D" stroke-width=".69" d="M593.55 230l5.3.45c1.17.1 2.2-.76 2.3-1.92l2.97-33.85-9.55-.83-2.96 33.85c-.1 1.16.77 2.19 1.94 2.3z"/><path fill="#FFF" stroke="#4D4D4D" stroke-width=".69" d="M584.11 229.17l5.3.46c1.17.1 2.2-.76 2.3-1.92l2.97-33.85-9.54-.84-2.96 33.85c-.1 1.16.77 2.2 1.93 2.3z"/><path fill="#BFBFBF" stroke="#4D4D4D" stroke-width=".69" d="M545.78 228.79l5.3.46c1.17.1 2.21-.76 2.31-1.92l2.96-33.85-9.54-.84-2.96 33.85c-.1 1.16.77 2.2 1.93 2.3zM536.24 227.95l5.3.47c1.17.1 2.2-.77 2.3-1.93l2.97-33.85-9.54-.83-2.97 33.85c-.1 1.16.77 2.19 1.94 2.3z"/><path fill="#FFF" stroke="#4D4D4D" stroke-width=".69" d="M546.04 225.83l5.3.47c1.17.1 2.2-.77 2.31-1.93l2.96-33.84-9.54-.84-2.96 33.85c-.1 1.16.77 2.2 1.93 2.3z"/><path fill="#CCE6FF" stroke="#4D4D4D" stroke-width=".69" d="M536.25 227.85l5.3.46c1.17.1 2.2-.76 2.3-1.92l3.22-36.7-9.55-.83-3.2 36.7c-.1 1.15.76 2.18 1.93 2.29zM574.32 231.18l5.3.46c1.17.1 2.2-.76 2.3-1.92l3.22-36.7-9.55-.83-3.2 36.7c-.1 1.15.76 2.19 1.93 2.29z"/><path fill="#FFF" stroke="#4D4D4D" stroke-width=".69" d="M565.02 227.5l5.3.46c1.17.1 2.21-.76 2.31-1.92l2.96-33.85-9.54-.84-2.96 33.85c-.1 1.16.77 2.2 1.93 2.3z"/><path fill="#BFBFBF" stroke="#4D4D4D" stroke-width=".69" d="M555.33 229.62l5.3.47c1.17.1 2.2-.77 2.3-1.93l2.97-33.85-9.55-.83-2.96 33.85c-.1 1.16.77 2.19 1.94 2.3z"/><path fill="#CCE6FF" stroke="#4D4D4D" stroke-width=".69" d="M555.34 229.52l5.3.46c1.17.1 2.2-.76 2.3-1.92l3.22-36.7-9.55-.83-3.2 36.7c-.11 1.15.76 2.18 1.93 2.29z"/><path fill="#BFBFBF" stroke="#4D4D4D" stroke-width=".69" d="M612.38 234.61l5.3.47c1.17.1 2.2-.77 2.3-1.93l2.97-33.84-9.55-.84-2.96 33.85c-.1 1.16.77 2.2 1.94 2.3z"/><path fill="#BFBFBF" stroke="#4D4D4D" stroke-width=".69" d="M602.84 233.78l5.3.46c1.16.1 2.2-.76 2.3-1.92l2.96-33.85-9.54-.83-2.96 33.84c-.1 1.16.77 2.2 1.94 2.3z"/><path fill="#FFF" stroke="#4D4D4D" stroke-width=".69" d="M612.64 231.66l5.3.46c1.17.1 2.2-.76 2.3-1.92l2.97-33.85-9.55-.83-2.96 33.85c-.1 1.16.77 2.19 1.94 2.3z"/><path fill="#FFF" stroke="#4D4D4D" stroke-width=".69" d="M603.1 230.83l5.3.46c1.16.1 2.2-.76 2.3-1.92l2.96-33.85-9.54-.84-2.96 33.85c-.1 1.16.77 2.2 1.93 2.3z"/><path fill="#BFBFBF" stroke="#4D4D4D" stroke-width=".69" d="M621.92 235.45l5.3.46c1.17.1 2.2-.76 2.31-1.92l2.96-33.85-9.54-.83-2.96 33.84c-.1 1.16.77 2.2 1.93 2.3z"/><path fill="#FFF" stroke="#4D4D4D" stroke-width=".69" d="M622.18 232.5l5.3.46c1.17.1 2.2-.76 2.3-1.92l2.97-33.85-9.54-.84-2.97 33.85c-.1 1.16.77 2.2 1.94 2.3z"/><g stroke-width=".69"><path fill="#4D4D4D" stroke="#4D4D4D" d="M539.9 170.67l143.49 12.55-1.65 18.82-143.48-12.55z"/><path fill="#000" stroke="#000" d="M538.5 186.76l143.48 12.55-.73 8.31-143.48-12.55z" opacity=".1"/><path fill="#4D4D4D" stroke="#4D4D4D" d="M534.56 231.85l4.4-50.35-.74-.07a4.76 4.76 0 00-5.2 4.32l-3.57 40.78a4.76 4.76 0 004.37 5.15l.74.07v.1z"/><path fill="#000" stroke="#000" d="M534.56 231.85l4.4-50.35-.74-.07a4.76 4.76 0 00-5.2 4.32l-3.57 40.78a4.76 4.76 0 004.37 5.15l.74.07v.1z" opacity=".1"/><path fill="#4D4D4D" stroke="#4D4D4D" d="M535.13 225.34l4.78-54.67-.75-.06a4.76 4.76 0 00-5.2 4.3l-3.95 45.21a4.76 4.76 0 004.37 5.15l.75.07z"/></g><g fill="#4D4D4D" stroke="#4D4D4D"><path stroke-width="3.44" d="M544.23 211.3l1.9.16c1.1.1 2.1-.76 2.2-1.91l1.66-19.04-5.9-.51-1.67 19.03a2.06 2.06 0 001.81 2.27z" opacity=".1"/><path stroke-width=".69" d="M544.3 210.46l1.91.17c1.1.1 2.08-.77 2.18-1.92l1.68-19.14-5.9-.51-1.67 19.03c-.11 1.26.7 2.28 1.8 2.37z"/></g><g fill="#4D4D4D" stroke="#4D4D4D"><path stroke-width="3.44" d="M554.77 212.37l2.22.2c1.28.1 2.42-.75 2.52-1.9l1.66-19.03-6.89-.6-1.66 19.03c-.1 1.15.87 2.19 2.15 2.3z" opacity=".1"/><path stroke-width=".69" d="M554.84 211.53l2.22.2c1.29.1 2.42-.74 2.52-1.9l1.68-19.13-6.9-.6-1.66 19.03c-.1 1.26.86 2.29 2.14 2.4z"/></g><g fill="#4D4D4D" stroke="#4D4D4D"><path stroke-width="3.44" d="M572.94 213.78l2.33.2c1.29.12 2.42-.73 2.52-1.88l1.67-19.03-7.01-.62-1.67 19.04c-.1 1.15.87 2.18 2.16 2.3z" opacity=".1"/><path stroke-width=".69" d="M573.01 212.95l2.34.2c1.28.11 2.41-.74 2.51-1.89l1.68-19.13-7-.62-1.67 19.04c-.11 1.25.86 2.29 2.14 2.4z"/></g><g fill="#4D4D4D" stroke="#4D4D4D"><path stroke-width="3.44" d="M582.79 214.97l1.9.17c1.1.1 2.09-.77 2.19-1.92l1.66-19.04-5.9-.51-1.67 19.03a2.06 2.06 0 001.82 2.27z" opacity=".1"/><path stroke-width=".69" d="M582.86 214.13l1.9.17c1.1.1 2.09-.77 2.19-1.92l1.67-19.14-5.9-.51-1.67 19.03c-.1 1.26.71 2.28 1.81 2.37z"/></g><g fill="#4D4D4D" stroke="#4D4D4D"><path stroke-width="3.44" d="M593.22 215.04l2.22.19c1.29.11 2.42-.74 2.52-1.89l1.66-19.03-6.89-.6-1.66 19.03c-.1 1.15.87 2.18 2.15 2.3z" opacity=".1"/><path stroke-width=".69" d="M593.3 214.2l2.21.2c1.29.1 2.42-.74 2.52-1.9l1.68-19.13-6.9-.6-1.66 19.03c-.1 1.25.86 2.29 2.14 2.4z"/></g><g fill="#4D4D4D" stroke="#4D4D4D"><path stroke-width="3.44" d="M611.57 217.55l2.18.19c1.26.11 2.37-.74 2.47-1.9l1.66-19.03-6.75-.59-1.66 19.04c-.1 1.15.84 2.18 2.1 2.29z" opacity=".1"/><path stroke-width=".69" d="M611.65 216.71l2.17.2c1.26.1 2.37-.75 2.47-1.9l1.68-19.14-6.75-.59-1.67 19.04a2.23 2.23 0 002.1 2.4z"/></g><g fill="#4D4D4D" stroke="#4D4D4D"><path stroke-width="3.44" d="M621.64 218.67l2.18.19c1.26.1 2.37-.75 2.47-1.9l1.66-19.03-6.75-.6-1.66 19.04c-.1 1.15.85 2.19 2.1 2.3z" opacity=".1"/><path stroke-width=".69" d="M621.72 217.83l2.17.19c1.26.1 2.37-.74 2.47-1.9l1.68-19.13-6.75-.6-1.67 19.04a2.23 2.23 0 002.1 2.4z"/></g><path fill="#4C97FF" stroke="#3D79CC" stroke-width=".69" d="M565.9 185.66l-25.95-2.27c-.63-.06-1-.51-.95-1.13l.6-6.93c.06-.63.51-1 1.13-.95l25.96 2.27c.62.06 1 .5.95 1.13l-.61 6.93c-.05.52-.5 1-1.13.95z"/><g stroke-width=".69"><path fill="#000" stroke="#000" d="M576.52 186.11a3.98 3.98 0 01-3.6-4.23l.08-1a3.98 3.98 0 014.28-3.55 3.98 3.98 0 013.6 4.24l-.08 1a3.98 3.98 0 01-4.28 3.54z" opacity=".1"/><g transform="rotate(5 -1741.28 6650.4)"><ellipse cx="4.3" cy="3.91" fill="#000" stroke="#000" opacity=".2" rx="3.96" ry="3.91"/><path fill="#FFF" stroke="#FFF" d="M4.3 3.9h3.84" opacity=".1"/></g></g><g stroke-width=".69"><path fill="#000" stroke="#000" d="M588.95 186.1a3.98 3.98 0 01-3.6-4.24l.09-1a3.98 3.98 0 014.28-3.55 3.98 3.98 0 013.6 4.24l-.08 1a3.9 3.9 0 01-4.29 3.54z" opacity=".1"/><g transform="rotate(5 -1734.67 6788.95)"><ellipse cx="4.64" cy="3.91" fill="#000" stroke="#000" opacity=".2" rx="3.96" ry="3.91"/><path fill="#FFF" stroke="#FFF" d="M4.64 3.9L1.92 6.7" opacity=".1"/></g></g><g stroke-width=".69"><path fill="#000" stroke="#000" d="M600.48 187.16a3.98 3.98 0 01-3.6-4.23l.09-1a3.98 3.98 0 014.28-3.55 3.98 3.98 0 013.6 4.24l-.09 1a3.84 3.84 0 01-4.28 3.54z" opacity=".1"/><g transform="rotate(5 -1741.47 6929.09)"><ellipse cx="3.97" cy="3.91" fill="#000" stroke="#000" opacity=".2" rx="3.96" ry="3.91"/><path fill="#FFF" stroke="#FFF" d="M3.97 3.9L1.26 1.24" opacity=".1"/></g></g></g><g transform="rotate(32 -16.77 200.6)"><mask id="b" fill="#fff"><use xlink:href="#a"/></mask><use fill="#D9E3F2" xlink:href="#a"/><path fill="#FF6680" d="M9.2 20.15C8.17 28.02-3.83 37.56-2.77 38.9c1.07 1.34 27.05 4.04 36.02 4.04 8.97 0 30.75 3.77 27.89-5.98-2.86-9.75-2.38-11.24-2.38-14.74s0-6.79-6.08-2.07c-6.08 4.73-13.94 5.44-19.43 2.07-5.5-3.36-23.05-9.93-24.07-2.07z" mask="url(#b)"/><path fill="#FF6680" d="M9.12 20.16C8.11 28.03-3.89 37.56-2.83 38.91c1.07 1.34 27.05 4.03 36.02 4.03 8.97 0 30.75 3.77 27.89-5.97-2.86-9.75-2.38-11.25-2.38-14.74 0-3.5 0-6.79-6.08-2.07-6.08 4.72-13.94 5.43-19.43 2.07-5.5-3.37-23.05-9.93-24.07-2.07z" mask="url(#b)"/></g><use fill="#FFAB19" transform="rotate(32 79.45 255.08)" xlink:href="#c"/><path fill="#CF8B17" d="M118.19 43.61l34.72 21.7-3.82 6.1-34.72-21.69z"/><g><path fill="#E6AC00" d="M642.67 40.44a2.27 2.27 0 01-2.06 2.45l-45.9 3.21a2.2 2.2 0 00-1.54.79l-2.88 3.43c-.39.45-.94.74-1.53.78l-11.52.8c-.59.04-1.17-.16-1.62-.56l-3.33-3a2.2 2.2 0 00-1.62-.56l-5.8.41a2.27 2.27 0 01-2.4-2.15l-1.45-20.76c4.93-7.83 12.8-12.13 23.6-12.88 10.8-.76 19.2 2.4 25.17 9.47l29.2-2.04c1.23-.08 2.3.88 2.4 2.15l1.28 18.46z"/><path fill="#FFBF00" d="M642.43 36.98a2.27 2.27 0 01-2.06 2.46l-45.91 3.21a2.2 2.2 0 00-1.53.78l-2.88 3.43c-.39.46-.94.74-1.53.79l-11.52.8c-.6.04-1.17-.16-1.62-.56l-3.33-3a2.2 2.2 0 00-1.62-.56l-5.8.4a2.27 2.27 0 01-2.4-2.14l-1.45-20.76c4.93-7.83 12.8-12.13 23.6-12.88 10.8-.76 19.2 2.4 25.17 9.47l29.2-2.04c1.23-.09 2.3.88 2.4 2.15l1.28 18.45z"/></g></g></svg>