<?xml version="1.0" encoding="UTF-8"?>
<svg width="122px" height="81px" viewBox="0 0 122 81" version="1.1" xmlns="http://www.w3.org/2000/svg" xmlns:xlink="http://www.w3.org/1999/xlink">
    <!-- Generator: Sketch 52.5 (67469) - http://www.bohemiancoding.com/sketch -->
    <title>Hat Block Tap</title>
    <desc>Created with Sketch.</desc>
    <defs>
        <path d="M39.8884411,39.9863208 C40.5832165,32.1028273 47.0547731,28.7414197 49.1765471,26.1194211 C52.9045908,21.5111724 43.1208996,18.9838202 36.9035097,28.1093829 C33.349691,33.3252778 29.9021071,28.2604991 28.6753611,24.0462129 C27.0611238,18.4999833 23.5960111,9.02022543 22.0380782,4.6701998 C20.2785648,-0.241606927 14.0545352,2.32047545 15.5001249,6.74022662 C17.0110489,11.3606707 19.6387659,20.3162939 20.6615412,23.1654971 C20.8272674,23.6267992 20.9871508,24.2718267 20.6105485,24.3919243 C20.0384743,24.5740591 19.852829,23.8463153 19.4682591,22.8113019 C17.3252382,17.0370724 10.1939637,20.0893545 12.7428014,25.6196772 C12.9528807,26.075677 13.636767,27.2999833 13.3467461,27.543625 C12.9993584,27.8355179 12.6501116,27.6992482 12.4118801,27.2398019 C9.81417437,22.2344092 4.23977038,25.2501053 6.74637979,29.9614842 C7.13785492,30.6971815 7.30225322,31.127465 6.96389548,31.3480416 C6.67573367,31.5362741 6.46193619,31.5193067 5.98998822,30.7928884 C4.0342061,27.7803737 -0.565493875,30.9294232 1.5395481,34.4313423 C5.25085981,40.6043065 7.34713741,46.1221688 10.0943686,50.1384132 C16.5752207,59.6128687 38.5902522,54.7169689 39.8884411,39.9863208" id="path-1"></path>
    </defs>
    <g id="Sketches" stroke="none" stroke-width="1" fill="none" fill-rule="evenodd">
        <g id="V4_Logged-out-(Video-Button)" transform="translate(-1034.000000, -389.000000)">
            <g id="Masthead" transform="translate(0.000000, 48.000000)">
                <g id="Hat-Block-Tap" transform="translate(1031.000000, 327.000000)">
                    <g id="Hat-Block" transform="translate(62.501943, 40.600635) rotate(-10.000000) translate(-62.501943, -40.600635) translate(4.501943, 9.600635)">
                        <path d="M115.32408,51.3751501 C115.32408,53.1760003 113.88658,54.6375599 112.129635,54.6375599 L46.3049131,54.6375599 C45.4551909,54.6375599 44.643802,54.9768505 44.0432464,55.5901836 L39.5901909,60.1445076 C38.9896353,60.7513159 38.1782464,61.0971313 37.3285242,61.0971313 L20.8132464,61.0971313 C19.9635242,61.0971313 19.1521353,60.7513159 18.5515798,60.1445076 L14.0985242,55.5901836 C13.4979687,54.9768505 12.6865798,54.6375599 11.8432464,54.6375599 L3.51852421,54.6375599 C1.75519088,54.6375599 0.324079764,53.1760003 0.324079764,51.3751501 L0.324079764,21.9482136 C8.14268328,11.3808254 19.7969395,6.09713131 35.2868483,6.09713131 C50.7767572,6.09713131 62.4310134,11.3808254 70.2496169,21.9482136 L112.129635,21.9482136 C113.88658,21.9482136 115.32408,23.4097732 115.32408,25.2106234 L115.32408,51.3751501 Z" id="Fill-3-Copy" fill="#E6AC00"></path>
                        <path d="M115.207513,46.2774631 C115.207513,48.0783134 113.770013,49.5398729 112.013068,49.5398729 L46.1883462,49.5398729 C45.338624,49.5398729 44.5272351,49.8791636 43.9266796,50.4924966 L39.473624,55.0468207 C38.8730685,55.6536289 38.0616796,55.9994444 37.2119573,55.9994444 L20.6966796,55.9994444 C19.8469573,55.9994444 19.0355685,55.6536289 18.4350129,55.0468207 L13.9819573,50.4924966 C13.3814018,49.8791636 12.5700129,49.5398729 11.7266796,49.5398729 L3.40195734,49.5398729 C1.63862401,49.5398729 0.2075129,48.0783134 0.2075129,46.2774631 L0.2075129,16.8505267 C8.02611642,6.28313847 19.6803726,0.999444365 35.1702815,0.999444365 C50.6601903,0.999444365 62.3144465,6.28313847 70.13305,16.8505267 L112.013068,16.8505267 C113.770013,16.8505267 115.207513,18.3120863 115.207513,20.1129365 L115.207513,46.2774631 Z" id="Fill-3" fill="#FFBF00"></path>
                    </g>
                    <g id="Tap" transform="translate(75.000000, 29.000000)">
                        <path d="M25.895567,13.4202475 C25.1815426,10.0217326 22.1667001,7.47005432 18.5558813,7.47005432 C14.4137457,7.47005432 11.0558813,10.8279187 11.0558813,14.9700543 C11.0558813,18.5731364 13.5966366,21.5827933 16.9842407,22.3051186" id="Path" stroke="#FFFFFF" stroke-width="2.5" opacity="0.75" stroke-linecap="round" stroke-linejoin="round" transform="translate(18.475724, 14.887586) rotate(32.000000) translate(-18.475724, -14.887586) "></path>
                        <path d="M29.0723292,23.2937242 C30.8556116,21.0055414 31.9179225,18.1279033 31.9179225,15.0021493 C31.9179225,7.54630515 25.8737666,1.50214928 18.4179225,1.50214928 C10.9620784,1.50214928 4.91792248,7.54630515 4.91792248,15.0021493 C4.91792248,18.8140893 6.497839,22.2570201 9.03857301,24.7118426" id="Path" stroke="#FFFFFF" stroke-width="2.5" opacity="0.5" stroke-linecap="round" stroke-linejoin="round" transform="translate(18.417922, 13.106996) rotate(-3.000000) translate(-18.417922, -13.106996) "></path>
                        <g id="Group-2" transform="translate(0.000000, 11.000000)">
                            <mask id="mask-2" fill="white">
                                <use xlink:href="#path-1"></use>
                            </mask>
                            <use id="Fill-1" fill="#3D79CC" xlink:href="#path-1"></use>
                            <path d="M38.8884411,37.9863208 C39.5832165,30.1028273 46.0547731,26.7414197 48.1765471,24.1194211 C51.9045908,19.5111724 42.1208996,16.9838202 35.9035097,26.1093829 C32.349691,31.3252778 28.9021071,26.2604991 27.6753611,22.0462129 C26.0611238,16.4999833 22.5960111,7.02022543 21.0380782,2.6701998 C19.2785648,-2.24160693 13.0545352,0.320475452 14.5001249,4.74022662 C16.0110489,9.36067071 18.6387659,18.3162939 19.6615412,21.1654971 C19.8272674,21.6267992 19.9871508,22.2718267 19.6105485,22.3919243 C19.0384743,22.5740591 18.852829,21.8463153 18.4682591,20.8113019 C16.3252382,15.0370724 9.19396368,18.0893545 11.7428014,23.6196772 C11.9528807,24.075677 12.636767,25.2999833 12.3467461,25.543625 C11.9993584,25.8355179 11.6501116,25.6992482 11.4118801,25.2398019 C8.81417437,20.2344092 3.23977038,23.2501053 5.74637979,27.9614842 C6.13785492,28.6971815 6.30225322,29.127465 5.96389548,29.3480416 C5.67573367,29.5362741 5.46193619,29.5193067 4.98998822,28.7928884 C3.0342061,25.7803737 -1.56549387,28.9294232 0.539548101,32.4313423 C4.25085981,38.6043065 6.34713741,44.1221688 9.09436858,48.1384132 C15.5752207,57.6128687 37.5902522,52.7169689 38.8884411,37.9863208" id="Fill-1" fill="#4C97FF" mask="url(#mask-2)"></path>
                        </g>
                    </g>
                </g>
            </g>
        </g>
    </g>
</svg>