<?xml version="1.0" encoding="UTF-8" standalone="no"?>
<svg width="27px" height="28px" viewBox="0 0 27 28" version="1.1" xmlns="http://www.w3.org/2000/svg" xmlns:xlink="http://www.w3.org/1999/xlink">
    <!-- Generator: Sketch 43.2 (39069) - http://www.bohemiancoding.com/sketch -->
    <title>blocks icon</title>
    <desc>Created with Sketch.</desc>
    <defs></defs>
    <g id="Page-1" stroke="none" stroke-width="1" fill="none" fill-rule="evenodd">
        <g id="12-col" transform="translate(-496.000000, -285.000000)" fill="#FFFFFF">
            <g id="Band---Masthead" transform="translate(0.000000, 52.000000)">
                <g id="buttons-v1" transform="translate(474.000000, 214.000000)">
                    <g id="guide-tutorial">
                        <g id="blocks-icon" transform="translate(22.000000, 19.000000)">
                            <path d="M0.850455083,0.114928725 L2.97546016,0.114928725 C3.19321976,0.114928725 3.40235116,0.203530037 3.55642635,0.360996823 L4.71835875,1.54850635 C4.87243394,1.70597313 5.08156534,1.79457444 5.29973581,1.79457444 L7.90545549,1.79457444 C8.12362597,1.79457444 8.33275736,1.70597313 8.48683256,1.54850635 L9.64876495,0.360996823 C9.80284014,0.203530037 10.0119715,0.114928725 10.230142,0.114928725 L25.5024861,0.114928725 C25.9560835,0.114928725 26.3242205,0.491169366 26.3242205,0.954751584 L26.3242205,5.99368874 C26.3242205,6.45727096 25.9560835,6.8335116 25.5024861,6.8335116 L10.230142,6.8335116 C10.0119715,6.8335116 9.80284014,6.92211291 9.64876495,7.0795797 L8.48683256,8.26708922 C8.33275736,8.42455601 8.12362597,8.51315732 7.90545549,8.51315732 L5.29973581,8.51315732 C5.08156534,8.51315732 4.87243394,8.42455601 4.71835875,8.26708922 L3.55642635,7.0795797 C3.40235116,6.92211291 3.19321976,6.8335116 2.97546016,6.8335116 L0.850455083,6.8335116 C0.396857712,6.8335116 0.028720716,6.45727096 0.028720716,5.99368874 L0.028720716,0.954751584 C0.028720716,0.491169366 0.396857712,0.114928725 0.850455083,0.114928725 Z" id="Stroke-1"></path>
                            <path d="M0.850455083,9.8008857 L2.97546016,9.8008857 C3.19321976,9.8008857 3.40235116,9.88948701 3.55642635,10.0469538 L4.71835875,11.2344633 C4.87243394,11.3919301 5.08156534,11.4805314 5.29973581,11.4805314 L7.90545549,11.4805314 C8.12362597,11.4805314 8.33275736,11.3919301 8.48683256,11.2344633 L9.64876495,10.0469538 C9.80284014,9.88948701 10.0119715,9.8008857 10.230142,9.8008857 L19.7503455,9.8008857 C20.2039429,9.8008857 20.5720799,10.1771263 20.5720799,10.6407086 L20.5720799,15.6796457 C20.5720799,16.1432279 20.2039429,16.5194686 19.7503455,16.5194686 L10.230142,16.5194686 C10.0119715,16.5194686 9.80284014,16.6080699 9.64876495,16.7655367 L8.48683256,17.9530462 C8.33275736,18.110513 8.12362597,18.1991143 7.90545549,18.1991143 L5.29973581,18.1991143 C5.08156534,18.1991143 4.87243394,18.110513 4.71835875,17.9530462 L3.55642635,16.7655367 C3.40235116,16.6080699 3.19321976,16.5194686 2.97546016,16.5194686 L0.850455083,16.5194686 C0.396857712,16.5194686 0.028720716,16.1432279 0.028720716,15.6796457 L0.028720716,10.6407086 C0.028720716,10.1771263 0.396857712,9.8008857 0.850455083,9.8008857 Z" id="Stroke-3"></path>
                            <path d="M0.850455083,19.4868427 L2.97546016,19.4868427 C3.19321976,19.4868427 3.40235116,19.575444 3.55642635,19.7329108 L4.71835875,20.9204203 C4.87243394,21.0778871 5.08156534,21.1664884 5.29973581,21.1664884 L7.90545549,21.1664884 C8.12362597,21.1664884 8.33275736,21.0778871 8.48683256,20.9204203 L9.64876495,19.7329108 C9.80284014,19.575444 10.0119715,19.4868427 10.230142,19.4868427 L23.037283,19.4868427 C23.4908804,19.4868427 23.8590174,19.8630833 23.8590174,20.3266655 L23.8590174,25.3656027 C23.8590174,25.8291849 23.4908804,26.2054256 23.037283,26.2054256 L10.230142,26.2054256 C10.0119715,26.2054256 9.80284014,26.2940269 9.64876495,26.4514937 L8.48683256,27.6390032 C8.33275736,27.79647 8.12362597,27.8850713 7.90545549,27.8850713 L5.29973581,27.8850713 C5.08156534,27.8850713 4.87243394,27.79647 4.71835875,27.6390032 L3.55642635,26.4514937 C3.40235116,26.2940269 3.19321976,26.2054256 2.97546016,26.2054256 L0.850455083,26.2054256 C0.396857712,26.2054256 0.028720716,25.8291849 0.028720716,25.3656027 L0.028720716,20.3266655 C0.028720716,19.8630833 0.396857712,19.4868427 0.850455083,19.4868427 Z" id="Stroke-5"></path>
                        </g>
                    </g>
                </g>
            </g>
        </g>
    </g>
</svg>