<?xml version="1.0" encoding="UTF-8" standalone="no"?>
<svg width="460px" height="386px" viewBox="0 0 460 386" version="1.1" xmlns="http://www.w3.org/2000/svg" xmlns:xlink="http://www.w3.org/1999/xlink">
    <!-- Generator: Sketch 43.2 (39069) - http://www.bohemiancoding.com/sketch -->
    <title>illustration</title>
    <desc>Created with Sketch.</desc>
    <defs>
        <rect id="path-1" x="0" y="0" width="340.022688" height="218.406926" rx="8"></rect>
        <filter x="-9.1%" y="-14.2%" width="118.2%" height="128.4%" filterUnits="objectBoundingBox" id="filter-2">
            <feMorphology radius="3" operator="dilate" in="SourceAlpha" result="shadowSpreadOuter1"></feMorphology>
            <feOffset dx="0" dy="0" in="shadowSpreadOuter1" result="shadowOffsetOuter1"></feOffset>
            <feGaussianBlur stdDeviation="8" in="shadowOffsetOuter1" result="shadowBlurOuter1"></feGaussianBlur>
            <feComposite in="shadowBlurOuter1" in2="SourceAlpha" operator="out" result="shadowBlurOuter1"></feComposite>
            <feColorMatrix values="0 0 0 0 0   0 0 0 0 0   0 0 0 0 0  0 0 0 0.2 0" type="matrix" in="shadowBlurOuter1"></feColorMatrix>
        </filter>
        <path d="M245.693506,98.6762213 L248.880112,98.6762213 C249.234179,98.6762213 249.588247,98.8535256 249.76528,99.03083 L251.535617,100.803874 C251.712651,100.981178 252.066718,101.158483 252.420785,101.158483 L256.49256,101.158483 C256.846627,101.158483 257.200695,100.981178 257.377728,100.803874 L259.148065,99.03083 C259.325099,98.8535256 259.679166,98.6762213 260.033234,98.6762213 L305.575494,98.6762213 C306.283628,98.6762213 306.814729,99.2081344 306.814729,99.9173519 L306.814729,107.54144 C306.814729,108.250658 306.283628,108.782571 305.575494,108.782571 L260.033234,108.782571 C259.679166,108.782571 259.325099,108.959875 259.148065,109.13718 L257.377728,110.910224 C257.200695,111.087528 256.846627,111.264832 256.49256,111.264832 L252.420785,111.264832 C252.066718,111.264832 251.712651,111.087528 251.535617,110.910224 L249.76528,109.13718 C249.588247,108.959875 249.234179,108.782571 248.880112,108.782571 L245.693506,108.782571 C244.985371,108.782571 244.45427,108.250658 244.45427,107.54144 L244.45427,99.9173519 C244.45427,99.2081344 244.985371,98.6762213 245.693506,98.6762213 Z" id="path-3"></path>
        <path d="M289.641853,83.7167652 C290.349988,83.7167652 290.881089,84.2486186 290.881089,84.9577565 L290.881089,92.5809888 C290.881089,93.2901267 290.349988,93.8219801 289.641853,93.8219801 L259.723161,93.8219801 C259.369094,93.8219801 259.015026,93.9992646 258.837993,94.1765491 L257.067656,95.9493938 C256.890622,96.1266783 256.536555,96.3039627 256.182487,96.3039627 L252.110713,96.3039627 C251.756645,96.3039627 251.402578,96.1266783 251.225544,95.9493938 L249.455208,94.1765491 C249.278174,93.9992646 248.924107,93.8219801 248.570039,93.8219801 L245.383433,93.8219801 C244.675298,93.8219801 244.144197,93.2901267 244.144197,92.5809888 L244.144197,83.9694899 C244.144197,83.9694899 248.032082,78.4895334 257.243053,78.4383694 C266.454023,78.3872055 270.341908,83.8463211 270.341908,83.8463211 L289.641853,83.7167652 Z" id="path-4"></path>
        <ellipse id="path-5" cx="21.4985275" cy="21.4947992" rx="21.4985275" ry="21.4947992"></ellipse>
        <rect id="path-6" x="0" y="0" width="340.022688" height="218.406926" rx="8"></rect>
        <filter x="-0.9%" y="-1.4%" width="101.8%" height="102.7%" filterUnits="objectBoundingBox" id="filter-7">
            <feOffset dx="0" dy="-4" in="SourceAlpha" result="shadowOffsetInner1"></feOffset>
            <feComposite in="shadowOffsetInner1" in2="SourceAlpha" operator="arithmetic" k2="-1" k3="1" result="shadowInnerInner1"></feComposite>
            <feColorMatrix values="0 0 0 0 0   0 0 0 0 0   0 0 0 0 0  0 0 0 0.1 0" type="matrix" in="shadowInnerInner1"></feColorMatrix>
        </filter>
    </defs>
    <g id="Page-1" stroke="none" stroke-width="1" fill="none" fill-rule="evenodd">
        <g id="12-col" transform="translate(-170.000000, -2644.000000)">
            <g id="Addtional-Resources" transform="translate(0.000000, 2187.000000)">
                <g id="Starter-Projects" transform="translate(170.000000, 451.000000)">
                    <g id="illustration">
                        <g id="bg">
                            <path d="M44.459035,146.41389 C74.2478719,119.368813 50.1550153,201.14492 23.3203535,237.615762 C-3.51430818,274.086603 -13.7940662,323.760107 28.847197,313.249498 C71.4884603,302.738889 91.2928404,320.434003 78.8723915,357.767463 C66.4519426,395.100923 117.442413,375.955909 146.624488,347.767592 C175.806563,319.579276 200.149776,319.577892 212.127144,338.924468 C224.104512,358.271044 272.932082,303.420443 278.645147,324.458094 C284.358211,345.495745 350.219051,297.824848 387.258299,242.029637 C424.297547,186.234426 407.896404,119.751281 389.986697,157.981523 C372.076991,196.211765 388.316948,0.182061657 327.177154,58.2388717 C266.03736,116.295682 282.904318,6.4236641 246.857681,36.7536841 C210.811044,67.083704 168.619104,89.6788688 175.888569,67.2712769 C183.158034,44.863685 145.997486,59.4547545 112.682664,84.7832934 C79.3678427,110.111832 124.412394,26.6363247 44.459035,111.208793 C4.84002402,153.116695 14.0058711,174.062105 44.459035,146.41389 Z" id="Path-4" fill-opacity="0.5" fill="#0FBD8C"></path>
                            <path d="M44.459035,155.30829 C74.2478719,128.263213 50.1550153,210.03932 23.3203535,246.510161 C-3.51430818,282.981002 -13.7940662,332.654506 28.847197,322.143898 C71.4884603,311.633289 91.2928404,329.328402 78.8723915,366.661862 C66.4519426,403.995322 117.442413,384.850309 146.624488,356.661992 C175.806563,328.473676 200.149776,328.472292 212.127144,347.818868 C224.104512,367.165444 272.932082,312.314843 278.645147,333.352494 C284.358211,354.390144 350.219051,306.719248 387.258299,250.924037 C424.297547,195.128825 407.896404,128.645681 389.986697,166.875923 C372.076991,205.106165 388.316948,9.07646134 327.177154,67.1332713 C266.03736,125.190081 282.904318,15.3180638 246.857681,45.6480837 C210.811044,75.9781037 168.619104,98.5732685 175.888569,76.1656766 C183.158034,53.7580847 145.997486,68.3491542 112.682664,93.6776931 C79.3678427,119.006232 124.412394,35.5307244 44.459035,120.103192 C4.84002402,162.011095 14.0058711,182.956505 44.459035,155.30829 Z" id="Path-4-Copy" fill-opacity="0.1" fill="#0FBD8C"></path>
                            <path d="M408.721098,136.146651 C412.475011,134.872439 414.311396,130.5316 414.311396,126.041773 C414.311396,121.551945 408.721098,116.874194 405.432325,118.325049 C402.143553,119.775904 398.224894,125.291536 400.042837,129.869867 C401.86078,134.448198 404.967184,137.420863 408.721098,136.146651 Z" id="Oval-3" fill-opacity="0.5" fill="#0FBD8C"></path>
                            <path d="M407.726142,139.760607 C411.480055,138.486395 413.31644,134.145556 413.31644,129.655728 C413.31644,125.1659 407.726142,120.488149 404.43737,121.939005 C401.148598,123.38986 397.229939,128.905491 399.047882,133.483822 C400.865825,138.062153 403.972229,141.034819 407.726142,139.760607 Z" id="Oval-3-Copy" fill-opacity="0.1" fill="#0FBD8C"></path>
                            <path d="M441.850176,227.594151 L441.819069,227.421203 C443.14753,229.723283 442.578189,228.572243 448.840933,216.678163 C455.103676,204.784084 452.636535,217.061843 458.140158,220.131283 C463.643781,223.200723 455.103676,224.351763 452.446755,220.898643 C450.004428,217.670165 453.141553,211.809681 443.262902,233.094715 C443.19094,233.392563 443.089616,233.677168 442.95775,233.943763 C441.819069,236.245843 438.782587,236.437683 436.125666,234.327443 C433.468744,232.217203 432.330064,228.764083 433.468744,226.462003 C434.607425,224.159923 437.643907,223.968083 440.300828,226.078323 C440.89642,226.508364 441.41572,227.025165 441.850176,227.594151 Z M423.655996,221.673942 C424.344176,221.655297 425.251257,218.722148 429.862922,209.963764 C436.125666,197.877844 433.658524,210.347444 439.162148,213.416884 C444.665771,216.486323 436.125666,217.637363 433.468744,214.184244 C431.048724,210.985252 434.106703,205.202113 424.552323,225.803878 C424.485477,226.239314 424.359043,226.654362 424.169519,227.037523 C423.030839,229.339603 419.994357,229.531443 417.337435,227.421203 C414.680514,225.310963 413.541833,221.857843 414.680514,219.555763 C415.819195,217.253683 418.855676,217.061843 421.512598,219.172083 C422.410031,219.884863 423.134248,220.750851 423.655996,221.673942 Z" id="Combined-Shape" fill-opacity="0.5" fill="#0FBD8C" fill-rule="nonzero"></path>
                            <path d="M156.02291,7.01325186 C156.02291,7.40174288 156.02291,7.7902339 155.834788,8.17872492 C155.834788,8.17872492 154.706055,10.509671 153.012956,14.0060902 C151.131736,17.8910004 148.686149,22.3586472 146.428684,26.8262939 C145.111829,29.15724 143.983097,31.2939407 142.666242,33.4306413 L142.101876,34.5961143 C141.161265,36.3443239 140.220655,37.898288 139.468167,39.2580066 C137.398824,42.3659347 135.517603,43.9198988 135.517603,43.9198988 C135.517603,43.9198988 135.517603,43.9198988 135.329481,43.9198988 C135.329481,43.3371623 135.141359,42.9486713 134.953237,42.3659347 C133.44826,38.4810245 130.062063,36.3443239 127.616476,35.9558329 C126.863987,35.7615874 126.111499,35.7615874 125.170889,35.9558329 C125.547133,35.1788509 126.299621,33.2363958 127.99272,30.9054496 C128.93333,29.5457311 130.250185,27.991767 131.567039,26.4378029 L132.131406,25.6608209 C133.636382,23.7183658 135.329481,21.7759106 137.02258,19.8334555 C140.596899,15.7542998 143.983097,12.0636351 146.616806,9.14995247 C149.250515,6.23626982 151.131736,4.48806022 151.131736,4.48806022 C152.260468,3.32258716 154.141689,3.32258716 155.270421,4.48806022 C155.646666,5.45928778 156.02291,6.23626982 156.02291,7.01325186 Z M133.636382,46.0565994 C133.636382,48.1933001 132.883894,50.7184917 131.378917,52.8551923 C131.002673,53.2436833 130.814551,53.6321744 130.438307,54.0206654 C130.438307,53.8264199 130.250185,53.6321744 130.250185,53.4379288 C129.873941,52.4667013 129.497696,51.4954737 128.368964,50.7184917 C127.428354,50.1357552 126.299621,49.9415097 125.359011,49.9415097 C123.665912,49.7472641 122.349057,49.5530186 121.408447,47.804809 C121.220325,47.416318 121.032203,47.027827 121.032203,46.8335815 C120.844081,46.4450905 120.655959,46.0565994 120.279715,45.8623539 C120.091592,45.6681084 119.90347,45.4738629 119.90347,45.4738629 C119.715348,45.2796174 119.715348,45.2796174 119.527226,45.0853719 C119.339104,44.8911264 118.96286,44.6968809 118.774738,44.6968809 C118.586616,44.6968809 118.398494,44.5026354 118.210372,44.5026354 C118.210372,44.5026354 118.210372,44.5026354 118.02225,44.5026354 L118.586616,42.7544258 C119.150982,41.0062162 120.844081,39.6464976 122.913424,38.8695156 C123.665912,38.4810245 124.4184,38.4810245 125.170889,38.286779 L127.240232,38.286779 C129.121452,38.6752701 131.755161,40.2292341 133.072016,43.5314078 L133.072016,43.7256533 C133.44826,44.3083899 133.636382,45.2796174 133.636382,46.0565994 Z M128.93333,55.5746295 C126.299621,57.7113301 123.289668,58.8768031 119.90347,58.6825576 C115.576663,58.2940666 111.626099,55.768875 109.180512,51.8839648 C108.99239,51.4954737 108.804268,50.7184917 109.180512,50.3300007 C109.556756,49.9415097 109.933,49.5530186 110.497366,49.5530186 L110.873611,49.5530186 C111.626099,49.7472641 112.190465,49.7472641 112.754831,49.9415097 C115.388541,50.1357552 116.329151,48.5817911 117.269761,46.250845 L117.646005,46.250845 C117.834128,46.250845 118.02225,46.4450905 118.210372,46.639336 C118.210372,46.639336 118.398494,46.8335815 118.586616,46.8335815 L118.774738,47.027827 C118.774738,47.027827 118.774738,47.2220725 118.96286,47.2220725 C119.150982,47.416318 119.339104,47.6105635 119.339104,47.9990545 C119.339104,48.1933001 119.527226,48.3875456 119.527226,48.5817911 C120.844081,51.4954737 123.101546,51.8839648 124.982767,51.8839648 C125.923377,52.0782103 126.675865,52.0782103 127.240232,52.4667013 C127.804598,52.8551923 128.180842,53.4379288 128.557086,54.4091564 C128.557086,54.7976474 128.745208,55.1861384 128.93333,55.5746295 Z M104.665582,44.3083899 C104.665582,44.3083899 104.47746,40.8119707 101.091262,38.8695156 C97.5169429,36.9270605 97.5169429,42.3659347 104.665582,44.3083899 Z M105.606192,47.6105635 C105.606192,47.6105635 104.101216,46.0565994 101.467507,46.639336 C98.8337975,47.2220725 101.467507,49.9415097 105.606192,47.6105635 Z M108.616146,44.8911264 C108.616146,44.8911264 110.121122,43.1429168 109.368634,40.6177252 C108.428024,38.0925335 105.982437,40.6177252 108.616146,44.8911264 Z" id="Combined-Shape" fill-opacity="0.5" fill="#0FBD8C" fill-rule="nonzero" transform="translate(127.383183, 31.158734) rotate(7.000000) translate(-127.383183, -31.158734) "></path>
                            <path d="M251.395738,371.204506 C251.395738,371.204506 251.58444,371.781861 251.773142,372.744121 C251.961844,373.706381 252.339247,375.053544 253.094054,376.785611 C254.414967,380.057294 257.434196,384.483688 262.529145,386.985563 C267.624094,389.67989 274.794762,390.064794 280.644518,386.600659 C286.494275,383.328977 290.268311,376.400707 289.890907,369.66489 C289.513503,362.929073 284.98466,357.347967 279.889711,355.230996 C274.794762,353.114025 269.32241,354.268736 266.114479,356.578159 C262.717847,358.887582 261.208232,362.159265 260.642127,364.276236 C260.642127,364.276236 258.94381,369.087534 261.208232,373.513929 C262.151741,375.438448 264.038759,377.940323 267.057988,379.287486 C270.077217,380.63465 274.228657,380.63465 277.059184,378.517679 C280.078413,376.593159 281.776729,372.744121 281.210624,369.279986 C280.83322,366.008304 278.191395,363.506429 275.926973,362.929073 C273.47385,362.159265 271.209428,363.121525 270.077217,364.276236 C268.945006,365.430948 268.567603,366.778111 268.567603,367.547919 L268.567603,368.702631 C268.567603,368.702631 269.699814,372.551669 272.719043,371.396957" id="Shape" stroke-opacity="0.5" stroke="#0FBD8C" stroke-width="4.11525" stroke-linecap="round" stroke-linejoin="round"></path>
                            <path d="M41.8932726,358.345021 C41.1039547,358.176006 40.2734874,358.102731 39.4257853,358.144008 C35.4548429,358.337364 32.807548,360.850999 33.563918,363.751347 C34.320288,366.651695 37.9130454,368.971973 41.8839878,368.778616 C45.8549302,368.58526 48.5022251,366.071625 47.7458551,363.171277 C47.7456884,363.170638 47.7455216,363.169999 47.7453546,363.16936 C40.3713163,334.941585 41.8840948,342.86887 46.6113002,344.028982 C51.5277051,344.995765 58.3350349,337.454861 51.1495201,338.808356 C43.9640052,340.355209 36.7784904,327.013609 40.1821553,342.868843 C42.742304,355.496264 44.1030687,358.55753 43.1181939,358.694563 C42.7302583,358.554929 42.3274496,358.438939 41.913233,358.349317 C41.9035342,358.345357 41.8937858,358.341372 41.8839878,358.337364 L41.8932726,358.345021 Z M20.9542772,367.146845 C19.8319331,366.769466 18.5867427,366.589135 17.3019634,366.651695 C13.3310209,366.845051 10.683726,369.358686 11.440096,372.259034 C12.196466,375.159381 15.7892234,377.479659 19.7601658,377.286303 C23.7311082,377.092946 26.3784031,374.579312 25.6220332,371.678964 C25.5050907,371.200646 25.3203463,370.745438 25.0768853,370.318343 C18.102744,343.713523 19.4626608,351.585752 24.2983857,352.536669 C29.2147906,353.503452 36.0221204,345.769191 28.8366056,347.316043 C21.6510908,348.862895 14.4655759,335.521296 17.8692408,351.37653 C20.279615,363.265218 21.6268337,366.674294 20.9542772,367.146845 Z" id="Combined-Shape" fill-opacity="0.5" fill="#0FBD8C" fill-rule="nonzero"></path>
                        </g>
                        <g id="editor" transform="translate(43.491274, 92.622545)">
                            <g id="chrome">
                                <use fill="black" fill-opacity="1" filter="url(#filter-2)" xlink:href="#path-1"></use>
                                <use stroke="#F0F1F1" stroke-width="2" fill="#F0F1F1" fill-rule="evenodd" xlink:href="#path-1"></use>
                            </g>
                            <path d="M0,7.99419721 C0,3.579124 3.58854903,0 8.00755388,0 L332.015134,0 C336.437584,0 340.022688,3.59130806 340.022688,7.99419721 L340.022688,20.7535993 L0,20.7535993 L0,7.99419721 Z" id="chrome" stroke="#C7C7C7" stroke-width="2" fill="#C7C7C7"></path>
                            <path d="M0,7.41199974 C0,3.31846532 3.31059004,0 7.41807694,0 L332.604611,0 C336.701501,0 340.022688,3.32679484 340.022688,7.41199974 L340.022688,14.8239995 L0,14.8239995 L0,7.41199974 Z" id="chrome" stroke="#C7C7C7" stroke-width="2" fill-opacity="0.1" fill="#FFFFFF"></path>
                            <path d="M8.02552682,119.233238 L8.02552682,37.8596648 C8.02552682,33.9594064 11.1973392,30.7682859 15.0739987,30.7682859 L127.497125,30.7682859 C131.373784,30.7682859 134.545597,33.9594064 134.545597,37.8596648 L134.545597,119.055953 C134.545597,122.956211 131.373784,126.147332 127.497125,126.147332 L15.0739987,126.147332 C11.1973392,126.324616 8.02552682,123.133496 8.02552682,119.233238 Z" id="Shape" stroke="#D0D2D3" stroke-width="2" fill="#FFFFFF" fill-rule="nonzero" stroke-linecap="round" stroke-linejoin="round"></path>
                            <g id="Group" opacity="0.2" transform="translate(11.566200, 9.241425)" stroke="#231F20" fill-rule="nonzero" stroke-width="2" fill="#231F20" stroke-linecap="round" stroke-linejoin="round">
                                <ellipse id="Oval" cx="1.59330312" cy="1.59556025" rx="1.59330312" ry="1.59556025"></ellipse>
                                <ellipse id="Oval-Copy" cx="10.4892455" cy="1.59556025" rx="1.59330312" ry="1.59556025"></ellipse>
                                <ellipse id="Oval-Copy-2" cx="19.3851879" cy="1.59556025" rx="1.59330312" ry="1.59556025"></ellipse>
                            </g>
                            <path d="M8.02552682,40.5189319 L135.135709,40.5189319" id="Shape" stroke="#D0D2D3" stroke-width="2" fill="#FFFFFF" fill-rule="nonzero" stroke-linecap="round" stroke-linejoin="round"></path>
                            <path d="M211.525742,40.5189319 L340.022688,40.5189319 L340.022688,210.403324 C340.022688,214.823591 336.434931,218.406926 332.021052,218.406926 L211.525742,218.406926 L211.525742,40.5189319 Z" id="Rectangle-3" stroke="#C7C7C7" stroke-width="2" fill="#C7C7C7"></path>
                            <path d="M8.02552682,218.512542 L8.02552682,142.280219 C8.02552682,138.379961 11.2121331,135.18884 15.106874,135.18884 L128.054362,135.18884 C131.949103,135.18884 135.135709,138.379961 135.135709,142.280219 L135.135709,218.512542 L8.02552682,218.512542 Z" id="Shape" stroke="#D0D2D3" stroke-width="2" fill="#F0F1F1" fill-rule="nonzero" stroke-linecap="round" stroke-linejoin="round"></path>
                            <path d="M8.02552682,40.5189319 L8.02552682,37.8596648 C8.02552682,33.9594064 11.1973392,30.7682859 15.0739987,30.7682859 L127.497125,30.7682859 C131.373784,30.7682859 134.545597,33.9594064 134.545597,37.8596648 L134.545597,40.5189319 L8.02552682,40.5189319 Z" id="Shape" stroke="#231F20" stroke-width="2" fill="#231F20" fill-rule="nonzero" opacity="0.15"></path>
                            <path d="M135.135709,144.762202 L8.02552682,144.762202" id="Shape" stroke="#D0D2D3" stroke-width="2" stroke-linecap="round" stroke-linejoin="round"></path>
                            <path d="M31.3939725,218.512542 L31.3939725,135.011556" id="Shape" stroke="#D0D2D3" stroke-width="2" stroke-linecap="round" stroke-linejoin="round"></path>
                            <g id="Group" opacity="0.15" transform="translate(8.025527, 134.125133)" stroke-width="2">
                                <g id="Shape">
                                    <path d="M0,10.6370683 L127.110182,10.6370683" stroke="#D0D2D3" stroke-linecap="round" stroke-linejoin="round"></path>
                                    <path d="M0,10.6370683 L0,7.97780124 C0,4.07754286 3.18660624,0.886422361 7.08134719,0.886422361 L120.028835,0.886422361 C123.923576,0.886422361 127.110182,4.07754286 127.110182,7.97780124 L127.110182,10.6370683 L0,10.6370683 Z" stroke="#231F20" fill="#231F20" fill-rule="nonzero"></path>
                                </g>
                                <rect id="Rectangle-path" stroke="#231F20" fill="#231F20" fill-rule="nonzero" x="0" y="10.6370683" width="23.191412" height="73.7503404"></rect>
                            </g>
                            <rect id="Rectangle-path" stroke="#0DAB7E" stroke-width="2" fill="#0FBD8C" fill-rule="nonzero" opacity="0.649999976" x="7.90750436" y="151.204795" width="23.191412" height="15.5331374"></rect>
                            <rect id="chrome" stroke-opacity="0.1" stroke="#000000" stroke-width="2" x="0" y="0" width="340.022688" height="218.406926" rx="8"></rect>
                            <path d="M211.968326,40.5189319 L211.968326,218.512542 L144.34146,218.512542 L144.34146,35.2003977 C144.34146,32.7184151 146.288831,30.7682859 148.767302,30.7682859 L162.398896,30.7682859 C164.877367,30.7682859 166.824738,32.7184151 166.824738,35.2003977 L166.824738,40.5189319 L211.968326,40.5189319 Z" id="Shape" stroke="#D0D2D3" stroke-width="2" fill="#FFFFFF" fill-rule="nonzero" stroke-linecap="round" stroke-linejoin="round"></path>
                            <path d="M144.518494,81.2943605 L211.968326,81.2943605" id="Shape" stroke="#D0D2D3" stroke-width="2" stroke-linecap="round" stroke-linejoin="round"></path>
                            <path d="M167.001771,40.5189319 L167.001771,37.8596648 C167.001771,33.9594064 170.188377,30.7682859 174.083118,30.7682859 L182.403701,30.7682859 C186.298442,30.7682859 189.485049,33.9594064 189.485049,37.8596648 L189.485049,40.5189319 L167.001771,40.5189319 Z" id="Shape" stroke="#D0D2D3" stroke-width="2" stroke-linecap="round" stroke-linejoin="round" fill-rule="nonzero"></path>
                            <path d="M189.485049,40.5189319 L189.485049,37.8596648 C189.485049,33.9594064 192.671655,30.7682859 196.566396,30.7682859 L204.886979,30.7682859 C208.78172,30.7682859 211.968326,33.9594064 211.968326,37.8596648 L211.968326,40.5189319 L189.485049,40.5189319 Z" id="Shape" stroke="#D0D2D3" stroke-width="2" stroke-linecap="round" stroke-linejoin="round" fill-rule="nonzero"></path>
                            <g id="Group" transform="translate(153.193144, 47.255742)" stroke="#D0D2D3" stroke-width="2" stroke-linecap="round" stroke-linejoin="round">
                                <path d="M0.17703368,0.354568944 L19.8277721,0.354568944" id="Shape"></path>
                                <path d="M0.17703368,7.09137888 L19.8277721,7.09137888" id="Shape"></path>
                                <path d="M0.17703368,13.8281888 L19.8277721,13.8281888" id="Shape"></path>
                                <path d="M0.17703368,20.5649988 L19.8277721,20.5649988" id="Shape"></path>
                                <path d="M0.17703368,27.4790932 L19.8277721,27.4790932" id="Shape"></path>
                            </g>
                            <g id="Group" transform="translate(183.288870, 47.255742)" stroke="#D0D2D3" stroke-width="2" stroke-linecap="round" stroke-linejoin="round">
                                <path d="M0.17703368,0.354568944 L19.8277721,0.354568944" id="Shape"></path>
                                <path d="M0.17703368,7.09137888 L19.8277721,7.09137888" id="Shape"></path>
                                <path d="M19.8277721,13.8281888 L0.17703368,13.8281888" id="Shape"></path>
                                <path d="M0.17703368,20.5649988 L19.8277721,20.5649988" id="Shape"></path>
                                <path d="M0.17703368,27.4790932 L19.8277721,27.4790932" id="Shape"></path>
                            </g>
                            <path d="M211.968326,40.5189319 L211.968326,218.512542 L144.34146,218.512542 L144.34146,35.2003977 C144.34146,32.7184151 146.288831,30.7682859 148.767302,30.7682859 L162.398896,30.7682859 C164.877367,30.7682859 166.824738,32.7184151 166.824738,35.2003977 L166.824738,40.5189319 L211.968326,40.5189319 Z" id="Shape" stroke="#231F20" stroke-width="2" fill="#231F20" fill-rule="nonzero" opacity="0.15"></path>
                            <path d="M54.9099463,172.124362 L41.1013193,172.124362 C39.1539488,172.124362 37.5606457,170.528802 37.5606457,168.578673 L37.5606457,154.750484 C37.5606457,152.800355 39.1539488,151.204795 41.1013193,151.204795 L54.9099463,151.204795 C56.8573168,151.204795 58.4506199,152.800355 58.4506199,154.750484 L58.4506199,168.578673 C58.4506199,170.528802 56.8573168,172.124362 54.9099463,172.124362 Z" id="Shape" stroke="#4C95FF" stroke-width="2" fill="#FFFFFF" fill-rule="nonzero" stroke-linecap="round" stroke-linejoin="round"></path>
                            <path d="M153.458695,90.9205301 L156.645301,90.9205301 C156.999368,90.9205301 157.353436,91.0978146 157.530469,91.2750991 L159.300806,93.0479438 C159.47784,93.2252283 159.831907,93.4025127 160.185975,93.4025127 L164.257749,93.4025127 C164.611817,93.4025127 164.965884,93.2252283 165.142918,93.0479438 L166.913254,91.2750991 C167.090288,91.0978146 167.444355,90.9205301 167.798423,90.9205301 L197.717115,90.9205301 C198.425249,90.9205301 198.95635,91.4523835 198.95635,92.1615214 L198.95635,99.7847537 C198.95635,100.493892 198.425249,101.025745 197.717115,101.025745 L167.798423,101.025745 C167.444355,101.025745 167.090288,101.20303 166.913254,101.380314 L165.142918,103.153159 C164.965884,103.330443 164.611817,103.507728 164.257749,103.507728 L160.185975,103.507728 C159.831907,103.507728 159.47784,103.330443 159.300806,103.153159 L157.530469,101.380314 C157.353436,101.20303 156.999368,101.025745 156.645301,101.025745 L153.458695,101.025745 C152.75056,101.025745 152.219459,100.493892 152.219459,99.7847537 L152.219459,92.1615214 C152.219459,91.4523835 152.927594,90.9205301 153.458695,90.9205301 Z" id="Shape" stroke="#4C95FF" stroke-width="2" fill="#4C95FF" fill-rule="nonzero" opacity="0.5"></path>
                            <g id="block-copy" transform="translate(255.017016, 83.014397)"></g>
                            <g id="Shape" fill-rule="nonzero">
                                <use fill="#4C97FF" fill-rule="evenodd" xlink:href="#path-3"></use>
                                <path stroke="#FFFFFF" stroke-width="3" d="M256.401669,99.6584826 L256.316258,99.7440243 C256.393897,99.6662672 256.412033,99.6584826 256.49256,99.6584826 L256.401669,99.6584826 Z M248.789221,110.282571 L250.474147,111.970073 C250.950111,112.446765 251.691135,112.764832 252.420785,112.764832 L256.49256,112.764832 C257.222211,112.764832 257.963234,112.446765 258.439199,111.970073 L260.124124,110.282571 L305.575494,110.282571 C307.112569,110.282571 308.314729,109.078572 308.314729,107.54144 L308.314729,99.9173519 C308.314729,98.3802199 307.112569,97.1762213 305.575494,97.1762213 L260.033234,97.1762213 C259.303583,97.1762213 258.562559,97.4942885 258.086595,97.9709805 L256.401669,99.6584826 L252.511676,99.6584826 L250.82675,97.9709805 C250.350786,97.4942885 249.609762,97.1762213 248.880112,97.1762213 L245.693506,97.1762213 C244.15643,97.1762213 242.95427,98.3802199 242.95427,99.9173519 L242.95427,107.54144 C242.95427,109.078572 244.15643,110.282571 245.693506,110.282571 L248.789221,110.282571 Z"></path>
                                <use stroke="#4C97FF" stroke-width="2" xlink:href="#path-3"></use>
                            </g>
                            <g id="Shape-Copy" fill-rule="nonzero">
                                <use fill="#FFBF00" fill-rule="evenodd" xlink:href="#path-4"></use>
                                <path stroke="#FFFFFF" stroke-width="3" d="M271.053351,82.3415115 C270.403647,81.6113105 269.423294,80.7394052 268.087498,79.8804829 C265.190752,78.0178653 261.57851,76.9142643 257.234721,76.9383926 C252.928215,76.9623138 249.341,78.0828045 246.456463,79.9431822 C244.6747,81.0923271 243.515212,82.2637413 242.920819,83.1015352 L242.644197,83.4914322 L242.644197,83.9694899 L242.644197,92.5809888 C242.644197,94.1180789 243.846395,95.3219801 245.383433,95.3219801 L248.479198,95.3219801 L250.164134,97.009303 C250.640097,97.4859409 251.381099,97.8039627 252.110713,97.8039627 L256.182487,97.8039627 C256.912102,97.8039627 257.653103,97.4859409 258.129066,97.009303 L259.814002,95.3219801 L289.641853,95.3219801 C291.17889,95.3219801 292.381089,94.1180789 292.381089,92.5809888 L292.381089,84.9577565 C292.381089,83.4206665 291.17889,82.2167652 289.641853,82.2167652 L289.631784,82.216799 L271.053351,82.3415115 Z"></path>
                                <use stroke="#FFBF00" stroke-width="2" xlink:href="#path-4"></use>
                            </g>
                            <path d="M153.547212,177.027975 L156.733818,177.027975 C157.087885,177.027975 157.441953,177.20526 157.618986,177.382544 L159.389323,179.155389 C159.566357,179.332674 159.920424,179.509958 160.274491,179.509958 L164.346266,179.509958 C164.700333,179.509958 165.054401,179.332674 165.231434,179.155389 L167.001771,177.382544 C167.178805,177.20526 167.532872,177.027975 167.88694,177.027975 L197.805632,177.027975 C198.513766,177.027975 199.044867,177.559829 199.044867,178.268967 L199.044867,185.892199 C199.044867,186.601337 198.513766,187.13319 197.805632,187.13319 L167.88694,187.13319 C167.532872,187.13319 167.178805,187.310475 167.001771,187.487759 L165.231434,189.260604 C165.054401,189.437888 164.700333,189.615173 164.346266,189.615173 L160.274491,189.615173 C159.920424,189.615173 159.566357,189.437888 159.389323,189.260604 L157.618986,187.487759 C157.441953,187.310475 157.087885,187.13319 156.733818,187.13319 L153.547212,187.13319 C152.839077,187.13319 152.307976,186.601337 152.307976,185.892199 L152.307976,178.268967 C152.307976,177.559829 153.016111,177.027975 153.547212,177.027975 Z" id="Shape" stroke="#4C95FF" stroke-width="2" fill="#4C95FF" fill-rule="nonzero" opacity="0.5"></path>
                            <path d="M153.547212,112.141859 L156.733818,112.141859 C157.087885,112.141859 157.441953,112.319143 157.618986,112.496428 L159.389323,114.269272 C159.566357,114.446557 159.920424,114.623841 160.274491,114.623841 L164.346266,114.623841 C164.700333,114.623841 165.054401,114.446557 165.231434,114.269272 L167.001771,112.496428 C167.178805,112.319143 167.532872,112.141859 167.88694,112.141859 L191.255385,112.141859 C191.96352,112.141859 192.494621,112.673712 192.494621,113.38285 L192.494621,121.006082 C192.494621,121.71522 191.96352,122.247074 191.255385,122.247074 L167.88694,122.247074 C167.532872,122.247074 167.178805,122.424358 167.001771,122.601642 L165.231434,124.374487 C165.054401,124.551772 164.700333,124.729056 164.346266,124.729056 L160.274491,124.729056 C159.920424,124.729056 159.566357,124.551772 159.389323,124.374487 L157.618986,122.601642 C157.441953,122.424358 157.087885,122.247074 156.733818,122.247074 L153.547212,122.247074 C152.839077,122.247074 152.307976,121.71522 152.307976,121.006082 L152.307976,113.38285 C152.307976,112.673712 153.016111,112.141859 153.547212,112.141859 Z" id="Shape" stroke="#4C95FF" stroke-width="2" fill="#4C95FF" fill-rule="nonzero" opacity="0.5"></path>
                            <path d="M153.547212,198.656681 L156.733818,198.656681 C157.087885,198.656681 157.441953,198.833965 157.618986,199.01125 L159.389323,200.784095 C159.566357,200.961379 159.920424,201.138664 160.274491,201.138664 L164.346266,201.138664 C164.700333,201.138664 165.054401,200.961379 165.231434,200.784095 L167.001771,199.01125 C167.178805,198.833965 167.532872,198.656681 167.88694,198.656681 L191.255385,198.656681 C191.96352,198.656681 192.494621,199.188534 192.494621,199.897672 L192.494621,207.520905 C192.494621,208.230043 191.96352,208.761896 191.255385,208.761896 L167.88694,208.761896 C167.532872,208.761896 167.178805,208.93918 167.001771,209.116465 L165.231434,210.88931 C165.054401,211.066594 164.700333,211.243879 164.346266,211.243879 L160.274491,211.243879 C159.920424,211.243879 159.566357,211.066594 159.389323,210.88931 L157.618986,209.116465 C157.441953,208.93918 157.087885,208.761896 156.733818,208.761896 L153.547212,208.761896 C152.839077,208.761896 152.307976,208.230043 152.307976,207.520905 L152.307976,199.897672 C152.307976,199.188534 153.016111,198.656681 153.547212,198.656681 Z" id="Shape" stroke="#4C95FF" stroke-width="2" fill="#4C95FF" fill-rule="nonzero" opacity="0.5"></path>
                            <path d="M153.547212,133.770564 L156.733818,133.770564 C157.087885,133.770564 157.441953,133.947849 157.618986,134.125133 L159.389323,135.897978 C159.566357,136.075262 159.920424,136.252547 160.274491,136.252547 L164.346266,136.252547 C164.700333,136.252547 165.054401,136.075262 165.231434,135.897978 L167.001771,134.125133 C167.178805,133.947849 167.532872,133.770564 167.88694,133.770564 L201.700372,133.770564 C202.408507,133.770564 202.939608,134.302418 202.939608,135.011556 L202.939608,142.634788 C202.939608,143.343926 202.408507,143.875779 201.700372,143.875779 L167.88694,143.875779 C167.532872,143.875779 167.178805,144.053064 167.001771,144.230348 L165.231434,146.003193 C165.054401,146.180477 164.700333,146.357762 164.346266,146.357762 L160.274491,146.357762 C159.920424,146.357762 159.566357,146.180477 159.389323,146.003193 L157.618986,144.230348 C157.441953,144.053064 157.087885,143.875779 156.733818,143.875779 L153.547212,143.875779 C152.839077,143.875779 152.307976,143.343926 152.307976,142.634788 L152.307976,135.011556 C152.307976,134.302418 153.016111,133.770564 153.547212,133.770564 Z" id="Shape" stroke="#4C95FF" stroke-width="2" fill="#4C95FF" fill-rule="nonzero" opacity="0.5"></path>
                            <g id="block" transform="translate(211.525742, 128.474662)">
                                <path d="M21.5981089,13.1190509 L11.6842229,22.515128" id="Shape" stroke="#FFFFFF" stroke-width="2" stroke-linecap="round" stroke-linejoin="round"></path>
                                <path d="M10.7990545,8.86422361 L2.12440416,17.1965938" id="Shape" stroke="#FFFFFF" stroke-width="2" stroke-linecap="round" stroke-linejoin="round"></path>
                                <path d="M16.2870985,10.8143528 L0.35406736,26.2381019" id="Shape" stroke="#FFFFFF" stroke-width="2" stroke-linecap="round" stroke-linejoin="round"></path>
                                <path d="M6.55024615,27.3018087 L7.96651559,25.8835329" id="Shape" stroke="#FFFFFF" stroke-width="2" stroke-linecap="round" stroke-linejoin="round"></path>
                                <path d="M9.55981871,0.531853416 L12.7464249,0.531853416 C13.1004923,0.531853416 13.4545597,0.709137888 13.6315933,0.886422361 L15.4019301,2.65926708 C15.5789638,2.83655155 15.9330312,3.01383603 16.2870985,3.01383603 L20.3588732,3.01383603 C20.7129405,3.01383603 21.0670079,2.83655155 21.2440416,2.65926708 L23.0143784,0.886422361 C23.191412,0.709137888 23.5454794,0.531853416 23.8995468,0.531853416 L51.1627335,0.531853416 C51.8708682,0.531853416 52.4019692,1.06370683 52.4019692,1.77284472 L52.4019692,9.39607702 C52.4019692,10.1052149 51.8708682,10.6370683 51.1627335,10.6370683 L23.8995468,10.6370683 C23.5454794,10.6370683 23.191412,10.8143528 23.0143784,10.9916373 L21.2440416,12.764482 C21.0670079,12.9417665 20.7129405,13.1190509 20.3588732,13.1190509 L16.2870985,13.1190509 C15.9330312,13.1190509 15.5789638,12.9417665 15.4019301,12.764482 L13.6315933,10.9916373 C13.4545597,10.8143528 13.1004923,10.6370683 12.7464249,10.6370683 L9.55981871,10.6370683 C8.85168399,10.6370683 8.32058295,10.1052149 8.32058295,9.39607702 L8.32058295,1.77284472 C8.32058295,1.06370683 8.85168399,0.531853416 9.55981871,0.531853416 Z" id="Shape" stroke="#FFFFFF" stroke-width="6" fill="#FFFFFF" fill-rule="nonzero"></path>
                                <path d="M9.55981871,0.531853416 L12.7464249,0.531853416 C13.1004923,0.531853416 13.4545597,0.709137888 13.6315933,0.886422361 L15.4019301,2.65926708 C15.5789638,2.83655155 15.9330312,3.01383603 16.2870985,3.01383603 L20.3588732,3.01383603 C20.7129405,3.01383603 21.0670079,2.83655155 21.2440416,2.65926708 L23.0143784,0.886422361 C23.191412,0.709137888 23.5454794,0.531853416 23.8995468,0.531853416 L51.1627335,0.531853416 C51.8708682,0.531853416 52.4019692,1.06370683 52.4019692,1.77284472 L52.4019692,9.39607702 C52.4019692,10.1052149 51.8708682,10.6370683 51.1627335,10.6370683 L23.8995468,10.6370683 C23.5454794,10.6370683 23.191412,10.8143528 23.0143784,10.9916373 L21.2440416,12.764482 C21.0670079,12.9417665 20.7129405,13.1190509 20.3588732,13.1190509 L16.2870985,13.1190509 C15.9330312,13.1190509 15.5789638,12.9417665 15.4019301,12.764482 L13.6315933,10.9916373 C13.4545597,10.8143528 13.1004923,10.6370683 12.7464249,10.6370683 L9.55981871,10.6370683 C8.85168399,10.6370683 8.32058295,10.1052149 8.32058295,9.39607702 L8.32058295,1.77284472 C8.32058295,1.06370683 8.85168399,0.531853416 9.55981871,0.531853416 Z" id="Shape" stroke="#4C95FF" stroke-width="2" fill="#4C95FF" fill-rule="nonzero"></path>
                            </g>
                            <path d="M153.547212,155.39927 L156.733818,155.39927 C157.087885,155.39927 157.441953,155.576554 157.618986,155.753839 L159.389323,157.526683 C159.566357,157.703968 159.920424,157.881252 160.274491,157.881252 L164.346266,157.881252 C164.700333,157.881252 165.054401,157.703968 165.231434,157.526683 L167.001771,155.753839 C167.178805,155.576554 167.532872,155.39927 167.88694,155.39927 L187.360644,155.39927 C188.068779,155.39927 188.59988,155.931123 188.59988,156.640261 L188.59988,164.263493 C188.59988,164.972631 188.068779,165.504485 187.360644,165.504485 L167.88694,165.504485 C167.532872,165.504485 167.178805,165.681769 167.001771,165.859054 L165.231434,167.631898 C165.054401,167.809183 164.700333,167.986467 164.346266,167.986467 L160.274491,167.986467 C159.920424,167.986467 159.566357,167.809183 159.389323,167.631898 L157.618986,165.859054 C157.441953,165.681769 157.087885,165.504485 156.733818,165.504485 L153.547212,165.504485 C152.839077,165.504485 152.307976,164.972631 152.307976,164.263493 L152.307976,156.640261 C152.307976,155.931123 153.016111,155.39927 153.547212,155.39927 Z" id="Shape" stroke="#4C95FF" stroke-width="2" fill="#4C95FF" fill-rule="nonzero" opacity="0.5"></path>
                            <g id="Group" transform="translate(250.163541, 138.049613)" stroke="#575E75" fill-rule="nonzero" stroke-width="3" fill="#575E75" stroke-linecap="round" stroke-linejoin="round">
                                <g id="cursor">
                                    <polygon id="Shape" points="8.99471436 8.40021233 3.53724722 8.40021233 0 12.9545443 0 0"></polygon>
                                    <path d="M3.70664267,8.64733303 L5.93005521,13.7077019" id="Shape"></path>
                                </g>
                            </g>
                            <path d="M8.42931937,40.9581615 L134.949389,40.9581615 L134.949389,122.934328 C134.949389,125.145141 133.160862,126.937358 130.953932,126.937358 L12.4247769,126.937358 C10.2181466,126.937358 8.42931937,125.141561 8.42931937,122.934328 L8.42931937,40.9581615 Z" id="Rectangle-14" stroke="#0DAB7E" stroke-width="2" fill="#0FBD8C" opacity="0.600000024"></path>
                            <g id="Green-Flag" transform="translate(49.371728, 62.641894)">
                                <g id="Oval-2">
                                    <use fill="#FFFFFF" fill-rule="evenodd" xlink:href="#path-5"></use>
                                    <ellipse stroke-opacity="0.3" stroke="#FFFFFF" stroke-width="4" cx="21.4985275" cy="21.4947992" rx="23.4985275" ry="23.4947992"></ellipse>
                                </g>
                                <g id="Group-4" transform="translate(13.343914, 12.600400)" stroke="#389438" stroke-width="2" stroke-linecap="round" stroke-linejoin="round">
                                    <path d="M0.109018902,1.55365979 C2.51720284,-0.372326547 6.42199827,-0.372326547 8.83018221,1.55365979 C11.2383661,3.47964612 15.1442954,3.47964612 17.5524793,1.55365979 L17.5524793,13.3136258 C15.1442954,15.2407457 11.2383661,15.2407457 8.83018221,13.3136258 C6.42199827,11.3876394 2.51720284,11.3876394 0.109018902,13.3136258 L0.109018902,1.55365979 Z" id="Fill-1" fill="#59C059"></path>
                                    <path d="M0,18.2465994 L0,0.108999996" id="Stroke-7"></path>
                                </g>
                            </g>
                            <g id="chrome">
                                <use fill="black" fill-opacity="1" filter="url(#filter-7)" xlink:href="#path-6"></use>
                                <use stroke="#818181" stroke-width="2" xlink:href="#path-6"></use>
                            </g>
                        </g>
                    </g>
                </g>
            </g>
        </g>
    </g>
</svg>