<?xml version="1.0" encoding="UTF-8" standalone="no"?>
<svg width="30px" height="28px" viewBox="0 0 30 28" version="1.1" xmlns="http://www.w3.org/2000/svg" xmlns:xlink="http://www.w3.org/1999/xlink">
    <!-- Generator: Sketch 43.2 (39069) - http://www.bohemiancoding.com/sketch -->
    <title>question icon</title>
    <desc>Created with Sketch.</desc>
    <defs></defs>
    <g id="Page-1" stroke="none" stroke-width="1" fill="none" fill-rule="evenodd" fill-opacity="0.2">
        <g id="12-col" transform="translate(-650.000000, -3154.000000)" fill="#000000">
            <g id="Offline-/-Questions-" transform="translate(0.000000, 3087.000000)">
                <g id="questions" transform="translate(650.000000, 67.000000)">
                    <g id="question-icon">
                        <path d="M30,12.2408027 C30,18.9966555 23.2943144,24.4648829 15,24.4648829 C13.9297659,24.4648829 12.8762542,24.3812709 11.8729097,24.1973244 L6.81709594,26.9340584 C5.36100055,27.7222492 4.3992864,27.0327779 4.66876708,25.3957833 L5.30100334,21.5551839 C2.05685619,19.3311037 0,15.9866221 0,12.2408027 C0,5.48494983 6.72240803,0 15,0 C23.2943144,0 30,5.48494983 30,12.2408027 Z M11.9899764,6.84215514 C11.9612871,6.86562822 11.9306417,6.89301347 11.9039084,6.91909467 C11.3020849,7.50070533 11.2857841,8.46049334 11.8680468,9.06231693 C12.4496575,9.66414052 13.4094455,9.68044127 14.0112691,9.0988306 L14.0210495,9.08905015 L14.1312426,8.98276928 C14.1384149,8.97429289 14.1566717,8.95603606 14.184709,8.93321501 C14.2329592,8.8914851 14.2851216,8.8523633 14.3392401,8.81780572 C14.446173,8.74673446 14.5622343,8.68935583 14.685468,8.64762592 C14.8080496,8.60393991 14.9384556,8.57981481 15.0734258,8.56742624 L15.0858143,8.56677421 L15.0890745,8.56612218 C15.1549295,8.56742624 15.0023545,8.56416609 15.0193073,8.56416609 L15.0219154,8.56416609 L15.0336519,8.56481812 L15.0805981,8.56547015 L15.1757944,8.56677421 C15.2273048,8.56807827 15.3270654,8.56612218 15.3388019,8.57133842 C15.3805318,8.58372699 15.3981366,8.56742624 15.4763802,8.58894323 C16.0058285,8.67044696 16.5131078,9.06427302 16.7308857,9.59763347 C16.7889164,9.72934351 16.8247781,9.870834 16.8482511,10.0162367 L16.8606397,10.1270817 L16.8645519,10.154467 L16.8658559,10.1616393 L16.866508,10.1648995 L16.866508,10.1668556 C16.8645519,10.2327106 16.8684641,10.0781795 16.8684641,10.0957843 L16.867812,10.1192574 L16.8658559,10.2138017 L16.8612917,10.4022384 C16.8593356,10.4622251 16.8508592,10.4537487 16.8489032,10.482438 C16.8528153,10.5509012 16.7986969,10.7341216 16.7550109,10.851487 C16.6976322,10.9818929 16.6285171,11.1116469 16.5320166,11.2322724 C16.1623157,11.7291192 15.448995,12.0825194 14.750671,12.118381 L14.5739709,12.138594 C14.0445226,12.1998848 13.6454803,12.6602179 13.6683013,13.2007507 L13.7315482,14.037957 C13.7556733,14.559581 14.1755806,14.9905727 14.707637,15.0133938 C15.2696868,15.0368668 15.7456686,14.6000068 15.7697937,14.037957 C15.7697937,14.037957 16.0625551,14.1735793 16.6741591,13.928416 C16.9793091,13.8038783 17.2753307,13.6480432 17.5537475,13.4569984 C17.8315122,13.2653016 18.0968884,13.0442635 18.3303151,12.7814954 C18.567654,12.5245957 18.7710873,12.226618 18.939311,11.9064713 C19.1003624,11.5661117 19.2262041,11.2720462 19.3018396,10.8404024 C19.3187924,10.7452061 19.3422655,10.6141481 19.3481337,10.5482931 L19.3663906,10.3598564 L19.374867,10.2653121 L19.3768231,10.241839 L19.3787791,10.1355581 L19.3774751,10.0690511 L19.3709548,9.80237086 C19.3481337,9.44701457 19.2861909,9.09035421 19.1740418,8.74803852 C18.7450061,7.36834327 17.5759165,6.23576734 16.1381906,5.86019812 C15.9751831,5.80673167 15.7391483,5.77282612 15.5331068,5.74218071 C15.4203057,5.72653199 15.3935724,5.72848808 15.319241,5.72066373 L15.2253487,5.71218734 L15.1784026,5.70827516 L15.0447364,5.70436298 C14.6756875,5.7004508 14.3020744,5.7376165 13.9382417,5.82629257 C13.574409,5.91301254 13.2203568,6.04537461 12.8878216,6.22142268 C12.7215539,6.30879469 12.5605025,6.4072512 12.4066235,6.51483614 C12.3329441,6.56569447 12.2520924,6.62502919 12.1634163,6.69805654 L11.9899764,6.84215514 Z M14.7388692,19.0294415 C15.4567541,19.0294415 16.0390168,18.4471788 16.0390168,17.7292939 C16.0390168,17.0107569 15.4567541,16.4291463 14.7388692,16.4291463 C14.0203323,16.4291463 13.4387216,17.0107569 13.4387216,17.7292939 C13.4387216,18.4471788 14.0203323,19.0294415 14.7388692,19.0294415 Z" id="Combined-Shape"></path>
                    </g>
                </g>
            </g>
        </g>
    </g>
</svg>