<?xml version="1.0" encoding="UTF-8"?>
<svg width="460px" height="410px" viewBox="0 0 460 410" version="1.1" xmlns="http://www.w3.org/2000/svg" xmlns:xlink="http://www.w3.org/1999/xlink">
    <title>Passion Splash</title>
    <g id="Passion-Splash" stroke="none" stroke-width="1" fill="none" fill-rule="evenodd" opacity="0.15">
        <path d="M255.457593,26.2734659 C373.056554,26.2734659 488.038906,165.174477 453.896557,259.682708 C419.754208,354.19094 355.430046,410 237.831085,410 C120.232124,410 21.0556203,296.475435 1.65174233,174.749684 C-17.7521356,53.0239332 137.858632,26.2734659 255.457593,26.2734659 Z M378.308782,3.28984536 C395.227681,-9.41204003 421.898325,17.46529 438.198925,36.2663444 C454.499526,55.0673988 448.490777,75.2414981 434.041506,75.2414981 C424.138073,75.2414981 413.502013,67.2203987 403.698464,59.6814719 L402.73692,58.9417928 C398.582344,55.7458523 394.588334,52.6881582 390.876085,50.427151 C378.16877,42.6875495 361.389882,15.9917308 378.308782,3.28984536 Z" fill="#4D97FF"></path>
    </g>
</svg>