<?xml version="1.0" encoding="UTF-8"?>
<svg width="300px" height="200px" viewBox="0 0 300 200" version="1.1" xmlns="http://www.w3.org/2000/svg" xmlns:xlink="http://www.w3.org/1999/xlink">
    <title>Passion Illustration</title>
    <defs>
        <polygon id="path-1" points="0 0.593096162 104.075927 0.593096162 104.075927 49.0980055 0 49.0980055"></polygon>
        <polygon id="path-3" points="0.180852691 0.048672 63.1832448 0.048672 63.1832448 48.1225056 0.180852691 48.1225056"></polygon>
        <polygon id="path-5" points="0.180852691 0.048672 63.1832448 0.048672 63.1832448 48.1225056 0.180852691 48.1225056"></polygon>
        <polygon id="path-7" points="0.0459264 0.440488602 46.65336 0.440488602 46.65336 45.7599168 0.0459264 45.7599168"></polygon>
        <polygon id="path-9" points="0.0459264 0.440488602 46.65336 0.440488602 46.65336 45.7599168 0.0459264 45.7599168"></polygon>
    </defs>
    <g id="Passion-Illustration" stroke="none" stroke-width="1" fill="none" fill-rule="evenodd" opacity="0.5">
        <g transform="translate(25.000000, 12.000000)">
            <g id="Group-72">
                <path d="M118.75525,88.4144352 C121.479634,105.478339 142.278178,116.343427 165.210178,112.681795 C188.142178,109.019539 204.52405,92.2183392 201.799042,75.1544352 L197.187682,46.2757152 L114.14389,59.5357152 C115.40125,67.4124672 116.938786,77.0389152 118.75525,88.4144352" id="Fill-1" fill="#F26B25"></path>
                <line x1="160.438325" y1="82.793568" x2="165.458405" y2="114.231936" id="Stroke-3" stroke="#DB6121" stroke-width="2.669472" stroke-linecap="round" stroke-linejoin="round"></line>
                <line x1="186.860232" y1="70.4847936" x2="191.880312" y2="101.923162" id="Stroke-5" stroke="#DB6121" stroke-width="2.669472" stroke-linecap="round" stroke-linejoin="round"></line>
                <line x1="131.497267" y1="79.3250016" x2="136.517347" y2="110.76337" id="Stroke-7" stroke="#DB6121" stroke-width="2.669472" stroke-linecap="round" stroke-linejoin="round"></line>
                <line x1="112.769342" y1="59.3947536" x2="117.789422" y2="90.8324976" id="Stroke-9" stroke="#DB6121" stroke-width="2.669472" stroke-linecap="round" stroke-linejoin="round"></line>
                <line x1="198.449909" y1="45.7136784" x2="203.469989" y2="77.1520464" id="Stroke-11" stroke="#DB6121" stroke-width="2.669472" stroke-linecap="round" stroke-linejoin="round"></line>
                <path d="M132.948192,88.4120016 L132.948192,88.4120016 C134.7684,88.1212176 136.479408,89.3611056 136.769568,91.1813136 L137.396688,95.1087696 C137.687472,96.9283536 136.447584,98.6399856 134.627376,98.9301456 C132.807168,99.2209296 131.096784,97.9810416 130.806,96.1614576 L130.179504,92.2340016 C129.88872,90.4137936 131.127984,88.7027856 132.948192,88.4120016" id="Fill-13" fill="#DBDCDD"></path>
                <path d="M132.948192,88.4120016 L132.948192,88.4120016 C134.7684,88.1212176 136.479408,89.3611056 136.769568,91.1813136 L137.396688,95.1087696 C137.687472,96.9283536 136.447584,98.6399856 134.627376,98.9301456 C132.807168,99.2209296 131.096784,97.9810416 130.806,96.1614576 L130.179504,92.2340016 C129.88872,90.4137936 131.127984,88.7027856 132.948192,88.4120016" id="Fill-15" fill="#DBDCDD"></path>
                <path d="M188.311157,79.5724176 L188.311157,79.5724176 C190.131365,79.2816336 191.841749,80.5215216 192.132533,82.3411056 L192.759653,86.2685616 C193.050437,88.0887696 191.810549,89.7997776 189.990341,90.0899376 C188.170133,90.3807216 186.459749,89.1414576 186.168965,87.3212496 L185.542469,83.3937936 C185.251685,81.5735856 186.490949,79.8632016 188.311157,79.5724176" id="Fill-17" fill="#DBDCDD"></path>
                <path d="M188.311157,79.5724176 L188.311157,79.5724176 C190.131365,79.2816336 191.841749,80.5215216 192.132533,82.3411056 L192.759653,86.2685616 C193.050437,88.0887696 191.810549,89.7997776 189.990341,90.0899376 C188.170133,90.3807216 186.459749,89.1414576 186.168965,87.3212496 L185.542469,83.3937936 C185.251685,81.5735856 186.490949,79.8632016 188.311157,79.5724176" id="Fill-19" fill="#DBDCDD"></path>
                <path d="M161.88925,91.880568 L161.88925,91.880568 C163.709458,91.590408 165.419842,92.829672 165.710626,94.64988 L166.337746,98.577336 C166.62853,100.39692 165.388642,102.108552 163.568434,102.398712 C161.748226,102.689496 160.037842,101.449608 159.747058,99.630024 L159.120562,95.702568 C158.829778,93.88236 160.069042,92.171352 161.88925,91.880568" id="Fill-21" fill="#DBDCDD"></path>
                <path d="M161.88925,91.880568 L161.88925,91.880568 C163.709458,91.590408 165.419842,92.829672 165.710626,94.64988 L166.337746,98.577336 C166.62853,100.39692 165.388642,102.108552 163.568434,102.398712 C161.748226,102.689496 160.037842,101.449608 159.747058,99.630024 L159.120562,95.702568 C158.829778,93.88236 160.069042,92.171352 161.88925,91.880568" id="Fill-23" fill="#DBDCDD"></path>
                <path d="M113.322082,71.3214528 L114.63997,71.1111648 C115.368178,70.9951008 116.052706,71.4905568 116.16877,72.2187648 L117.427378,80.1005088 C117.544066,80.8287168 117.047986,81.5132448 116.319778,81.6293088 L115.001266,81.8395968 C113.545474,82.0723488 112.177042,81.0808128 111.94429,79.6243968 L111.106882,74.3784288 C110.87413,72.9226368 111.86629,71.5542048 113.322082,71.3214528" id="Fill-25" fill="#DBDCDD"></path>
                <path d="M113.322082,71.3214528 L114.63997,71.1111648 C115.368178,70.9951008 116.052706,71.4905568 116.16877,72.2187648 L117.427378,80.1005088 C117.544066,80.8287168 117.047986,81.5132448 116.319778,81.6293088 L115.001266,81.8395968 C113.545474,82.0723488 112.177042,81.0808128 111.94429,79.6243968 L111.106882,74.3784288 C110.87413,72.9226368 111.86629,71.5542048 113.322082,71.3214528" id="Fill-27" fill="#DBDCDD"></path>
                <path d="M200.320723,57.430152 L201.639235,57.219864 C203.095027,56.987112 204.464083,57.979272 204.696835,59.435064 L205.533619,64.680408 C205.766995,66.136824 204.774835,67.505256 203.319043,67.738008 L201.999907,67.948296 C201.272323,68.06436 200.588419,67.568904 200.471731,66.840696 L199.213747,58.958952 C199.097059,58.230744 199.593139,57.54684 200.320723,57.430152" id="Fill-29" fill="#DBDCDD"></path>
                <path d="M200.320723,57.430152 L201.639235,57.219864 C203.095027,56.987112 204.464083,57.979272 204.696835,59.435064 L205.533619,64.680408 C205.766995,66.136824 204.774835,67.505256 203.319043,67.738008 L201.999907,67.948296 C201.272323,68.06436 200.588419,67.568904 200.471731,66.840696 L199.213747,58.958952 C199.097059,58.230744 199.593139,57.54684 200.320723,57.430152" id="Fill-31" fill="#DBDCDD"></path>
                <path d="M150.973493,23.5166256 C173.177285,19.9710576 193.291301,30.3400656 195.900245,46.6757616 C198.508565,63.0114576 182.623397,79.1287536 160.419605,82.6743216 C138.215189,86.2192656 118.100549,75.8508816 115.492229,59.5145616 C112.883909,43.1788656 128.769077,27.0621936 150.973493,23.5166256" id="Fill-33" fill="#FEFEFE"></path>
                <path d="M150.973493,23.5166256 C173.177285,19.9710576 193.291301,30.3400656 195.900245,46.6757616 C198.508565,63.0114576 182.623397,79.1287536 160.419605,82.6743216 C138.215189,86.2192656 118.100549,75.8508816 115.492229,59.5145616 C112.883909,43.1788656 128.769077,27.0621936 150.973493,23.5166256 Z" id="Stroke-35" stroke="#DB6121" stroke-width="2.669472"></path>
                <path d="M152.154475,30.9156432 C168.804667,28.2574032 183.887371,36.0318192 185.842363,48.2815632 C187.798603,60.5306832 175.887067,72.6163152 159.238123,75.2745552 C142.587931,77.9334192 127.505227,70.1583792 125.549611,57.9092592 C123.593371,45.6595152 135.504907,33.5745072 152.154475,30.9156432 Z" id="Stroke-37" stroke="#DBDCDD" stroke-width="1.206192"></path>
                <path d="M133.750781,64.1058912 C125.047229,71.7411552 91.5284448,106.536019 81.4046688,115.416787 C74.6561088,121.337923 70.1601888,123.028339 67.9175328,120.488659 C65.6917248,117.934627 67.9531008,113.697043 74.7016608,107.775907 C84.8254368,98.8951392 123.068525,69.4860192 131.772077,61.8507552 C140.476253,54.2142432 147.798269,41.7329952 151.790621,46.2838272 C155.783597,50.8352832 142.454957,56.4700032 133.750781,64.1058912" id="Fill-39" fill="#E6B50C"></path>
                <g id="Group-43" transform="translate(0.000000, 83.567328)">
                    <mask id="mask-2" fill="white">
                        <use xlink:href="#path-1"></use>
                    </mask>
                    <g id="Clip-42"></g>
                    <path d="M76.607232,37.4894832 C73.879728,37.2417552 64.58712,34.7987952 70.096416,31.1234352 C77.245584,26.3548272 85.735728,17.7960432 85.735728,17.7960432 C88.513152,15.3886512 92.866176,16.6878192 99.189792,11.1398352 C107.534544,3.8196912 103.341264,-1.1317488 100.140768,1.1564592 C96.291312,3.9095472 91.299312,4.9965552 85.903584,5.4289872 C75.077184,6.2982192 62.5092,17.6500272 60.266544,27.1354512 C60.266544,27.1354512 56.769648,29.8242672 53.246544,29.7331632 C43.150224,29.4742032 27.010464,21.7272432 17.712864,10.1039952 C6.77664,-3.5697168 -10.46448,16.5580272 8.426496,30.6460752 C21.372624,40.3006032 52.942656,62.7714672 76.607232,37.4894832" id="Fill-41" fill="#3BB889" mask="url(#mask-2)"></path>
                </g>
                <path d="M95.2443648,110.088701 C88.2331008,111.282413 85.0026528,110.914877 83.9243808,107.389277 C82.6963488,103.372589 86.9251968,102.192605 92.5387008,101.240381 C99.6697728,100.031693 104.005949,108.596093 95.2443648,110.088701" id="Fill-44" fill="#3BB889"></path>
                <path d="M100.242418,100.754909 C94.9689936,101.652845 92.5391376,101.376413 91.7279376,98.7244128 C90.8044176,95.7036288 93.9855696,94.8163008 98.2069296,94.1005728 C103.57021,93.1914048 106.831858,99.6323328 100.242418,100.754909" id="Fill-46" fill="#3BB889"></path>
                <path d="M86.8977408,115.849094 C81.6243168,116.74703 79.1944608,116.470598 78.3832608,113.818598 C77.4597408,110.797814 80.6408928,109.909862 84.8622528,109.194758 C90.2255328,108.28559 93.4871808,114.726518 86.8977408,115.849094" id="Fill-48" fill="#3BB889"></path>
                <path d="M81.3048912,120.955661 C76.0314672,121.853597 73.6016112,121.577165 72.7904112,118.925165 C71.8668912,115.904381 75.0480432,115.016429 79.2700272,114.301325 C84.6333072,113.391533 87.8943312,119.833085 81.3048912,120.955661" id="Fill-50" fill="#3BB889"></path>
                <g id="Group-54" transform="translate(74.256000, 0.575328)">
                    <mask id="mask-4" fill="white">
                        <use xlink:href="#path-3"></use>
                    </mask>
                    <g id="Clip-53"></g>
                    <path d="M35.5481568,48.1225056 C21.5699328,43.4231616 7.5673728,40.5265536 10.2062688,33.1221696 C12.3010368,27.2422176 20.5072608,28.1326656 7.8469248,20.6115936 C-4.8134112,13.0898976 -0.0210912,3.7879296 9.4549728,7.7465856 C18.9304128,11.7052416 25.4505888,21.9020256 28.8270528,18.4344576 C32.2028928,14.9656416 20.9446848,4.9754016 25.8749088,0.6217536 C30.8057568,-3.7331424 43.3406688,18.1561536 47.2993248,18.3021696 C51.2579808,18.4488096 45.0211008,9.9898656 51.0832608,9.9898656 C57.1460448,9.9898656 63.1832448,20.8094016 63.1832448,20.8094016 C63.1832448,20.8094016 37.4688288,24.8054976 35.5481568,48.1225056" id="Fill-52" fill="#72538F" mask="url(#mask-4)"></path>
                </g>
                <g id="Group-57" transform="translate(74.256000, 0.575328)">
                    <mask id="mask-6" fill="white">
                        <use xlink:href="#path-5"></use>
                    </mask>
                    <g id="Clip-56"></g>
                    <path d="M35.5481568,48.1225056 C21.5699328,43.4231616 7.5673728,40.5265536 10.2062688,33.1221696 C12.3010368,27.2422176 20.5072608,28.1326656 7.8469248,20.6115936 C-4.8134112,13.0898976 -0.0210912,3.7879296 9.4549728,7.7465856 C18.9304128,11.7052416 25.4505888,21.9020256 28.8270528,18.4344576 C32.2028928,14.9656416 20.9446848,4.9754016 25.8749088,0.6217536 C30.8057568,-3.7331424 43.3406688,18.1561536 47.2993248,18.3021696 C51.2579808,18.4488096 45.0211008,9.9898656 51.0832608,9.9898656 C57.1460448,9.9898656 63.1832448,20.8094016 63.1832448,20.8094016 C63.1832448,20.8094016 37.4688288,24.8054976 35.5481568,48.1225056" id="Fill-55" fill="#EC5F86" mask="url(#mask-6)"></path>
                </g>
                <path d="M141.479458,120.443794 C141.479458,120.443794 171.563122,127.920562 190.296226,113.391346 C190.296226,113.391346 213.137122,145.360738 206.616946,151.187026 C201.30109,155.936914 200.23405,144.967618 192.14701,144.967618 C184.059346,144.967618 196.651666,167.032882 190.296226,169.088338 C179.282002,172.650754 181.063522,141.891922 172.618306,142.196434 C164.174338,142.500946 182.413858,176.543266 167.407282,176.543266 C152.400706,176.543266 159.357058,135.640066 154.112962,132.736594 C148.868242,129.83437 153.222514,149.36245 143.458786,147.51541 C133.694434,145.667746 141.479458,120.443794 141.479458,120.443794" id="Fill-58" fill="#72538F"></path>
                <path d="M141.479458,120.443794 C141.479458,120.443794 171.563122,127.920562 190.296226,113.391346 C190.296226,113.391346 213.137122,145.360738 206.616946,151.187026 C201.30109,155.936914 200.23405,144.967618 192.14701,144.967618 C184.059346,144.967618 196.651666,167.032882 190.296226,169.088338 C179.282002,172.650754 181.063522,141.891922 172.618306,142.196434 C164.174338,142.500946 182.413858,176.543266 167.407282,176.543266 C152.400706,176.543266 159.357058,135.640066 154.112962,132.736594 C148.868242,129.83437 153.222514,149.36245 143.458786,147.51541 C133.694434,145.667746 141.479458,120.443794 141.479458,120.443794" id="Fill-60" fill="#EC5F86"></path>
                <g id="Group-64" transform="translate(203.424000, 29.903328)">
                    <mask id="mask-8" fill="white">
                        <use xlink:href="#path-7"></use>
                    </mask>
                    <g id="Clip-63"></g>
                    <path d="M0.0459264,6.4997088 C0.0459264,6.4997088 12.7031424,24.2300448 9.1401024,45.7599168 C9.1401024,45.7599168 40.6770624,44.4245568 39.3903744,36.6070848 C38.2784064,29.8466688 26.8554624,35.7091488 26.4598464,31.5289728 C26.0636064,27.3494208 47.0431104,24.8652768 46.6481184,17.6967648 C46.2518784,10.5282528 24.9585024,18.6670848 23.4253344,14.1761568 C21.8029344,9.4262688 28.5708384,8.2381728 28.1752224,3.0926688 C27.6753984,-3.4019232 5.5308864,3.7291488 0.0459264,6.4997088" id="Fill-62" fill="#72538F" mask="url(#mask-8)"></path>
                </g>
                <g id="Group-67" transform="translate(203.424000, 29.903328)">
                    <mask id="mask-10" fill="white">
                        <use xlink:href="#path-9"></use>
                    </mask>
                    <g id="Clip-66"></g>
                    <path d="M0.0459264,6.4997088 C0.0459264,6.4997088 12.7031424,24.2300448 9.1401024,45.7599168 C9.1401024,45.7599168 40.6770624,44.4245568 39.3903744,36.6070848 C38.2784064,29.8466688 26.8554624,35.7091488 26.4598464,31.5289728 C26.0636064,27.3494208 47.0431104,24.8652768 46.6481184,17.6967648 C46.2518784,10.5282528 24.9585024,18.6670848 23.4253344,14.1761568 C21.8029344,9.4262688 28.5708384,8.2381728 28.1752224,3.0926688 C27.6753984,-3.4019232 5.5308864,3.7291488 0.0459264,6.4997088" id="Fill-65" fill="#EC5F86" mask="url(#mask-10)"></path>
                </g>
                <path d="M239.743608,23.9577936 C236.249832,23.9577936 232.920168,28.1910096 236.279784,31.6766736 C239.713656,35.2390896 243.87012,33.7084176 245.552424,30.3438096 C247.234728,26.9792016 244.180248,23.9577936 239.743608,23.9577936" id="Fill-68" fill="#72538F"></path>
                <path d="M239.743608,23.9577936 C236.249832,23.9577936 232.920168,28.1910096 236.279784,31.6766736 C239.713656,35.2390896 243.87012,33.7084176 245.552424,30.3438096 C247.234728,26.9792016 244.180248,23.9577936 239.743608,23.9577936" id="Fill-70" fill="#EC5F86"></path>
            </g>
            <text id="PLACEHOLDER" transform="translate(125.500000, 88.500000) rotate(-45.000000) translate(-125.500000, -88.500000) " font-family="HelveticaNeue-Bold, Helvetica Neue" font-size="16" font-weight="bold" letter-spacing="2" fill="#575E75">
                <tspan x="54" y="95">PLACEHOLDER</tspan>
            </text>
        </g>
    </g>
</svg>