<?xml version="1.0" encoding="UTF-8"?>
<svg width="300px" height="200px" viewBox="0 0 300 200" version="1.1" xmlns="http://www.w3.org/2000/svg" xmlns:xlink="http://www.w3.org/1999/xlink">
    <title>Peers Illustration</title>
    <defs>
        <polygon id="path-1" points="0.234697453 0.293957346 19.7799571 0.293957346 19.7799571 12.7076964 0.234697453 12.7076964"></polygon>
        <polygon id="path-3" points="0 122.691825 299.80628 122.691825 299.80628 0.355450237 0 0.355450237"></polygon>
        <path d="M13.0415724,4.80379893 C18.1429998,5.29898991 22.7199235,8.09423519 27.5660137,9.3668048 C38.3511047,12.1989393 54.5456777,16.3760595 59.9351162,17.1179113 C65.3245546,17.859763 67.4200852,23.1186826 66.1504757,27.763007 C64.8808661,32.4073314 63.3197419,33.9212321 55.3374534,33.9365324 C47.3551649,33.9517633 38.7742126,28.9271568 34.1704202,28.9359612 C29.455266,28.9449786 13.1461674,22.857185 8.44390962,21.6223854 C3.74165183,20.3875858 0.809109059,14.4866396 2.3218594,10.3024779 C3.83460974,6.11831615 7.94014501,4.30860796 13.0415724,4.80379893 Z" id="path-5"></path>
        <path d="M13.0415724,4.80379893 C18.1429998,5.29898991 22.7199235,8.09423519 27.5660137,9.3668048 C38.3511047,12.1989393 54.5456777,16.3760595 59.9351162,17.1179113 C65.3245546,17.859763 67.4200852,23.1186826 66.1504757,27.763007 C64.8808661,32.4073314 63.3197419,33.9212321 55.3374534,33.9365324 C47.3551649,33.9517633 38.7742126,28.9271568 34.1704202,28.9359612 C29.455266,28.9449786 13.1461674,22.857185 8.44390962,21.6223854 C3.74165183,20.3875858 0.809109059,14.4866396 2.3218594,10.3024779 C3.83460974,6.11831615 7.94014501,4.30860796 13.0415724,4.80379893 Z" id="path-7"></path>
        <path d="M58.0462178,36.2567107 C61.3548606,35.3611153 62.6998439,33.5040004 63.4967242,29.5089888 C64.2936044,25.5139773 60.3200153,21.6022692 57.8335446,22.2754435 C55.3470739,22.9486177 51.2921685,26.1268233 52.6772358,29.5742083 C54.0623031,33.0215934 54.7375749,37.152306 58.0462178,36.2567107 Z" id="path-9"></path>
        <filter x="-8.9%" y="-7.1%" width="117.9%" height="114.1%" filterUnits="objectBoundingBox" id="filter-10">
            <feOffset dx="2" dy="2" in="SourceAlpha" result="shadowOffsetInner1"></feOffset>
            <feComposite in="shadowOffsetInner1" in2="SourceAlpha" operator="arithmetic" k2="-1" k3="1" result="shadowInnerInner1"></feComposite>
            <feColorMatrix values="0 0 0 0 0   0 0 0 0 0   0 0 0 0 0  0 0 0 0.15 0" type="matrix" in="shadowInnerInner1"></feColorMatrix>
        </filter>
        <path d="M13.1913138,5.81918246 C17.6776861,7.70498586 22.8846394,7.71277235 27.7184283,9.02660628 C38.4761428,11.9505755 54.5923837,17.7578644 59.9658239,18.532592 C65.339264,19.3073196 67.4456825,24.6750885 66.1964291,29.4048089 C64.9471757,34.1345292 63.396636,35.6723201 55.441877,35.6604929 C47.487118,35.6485289 37.3004969,32.117572 34.330494,30.4904334 C29.5862352,27.8912554 13.3576886,24.2218542 8.66736698,22.947015 C3.97704531,21.6721758 1.03428597,15.6470924 2.52742715,11.3872649 C4.02056833,7.12743731 8.70494154,3.93337907 13.1913138,5.81918246 Z" id="path-11"></path>
        <path d="M13.1913138,5.81918246 C17.6776861,7.70498586 22.8846394,7.71277235 27.7184283,9.02660628 C38.4761428,11.9505755 54.5923837,17.7578644 59.9658239,18.532592 C65.339264,19.3073196 67.4456825,24.6750885 66.1964291,29.4048089 C64.9471757,34.1345292 63.396636,35.6723201 55.441877,35.6604929 C47.487118,35.6485289 37.3004969,32.117572 34.330494,30.4904334 C29.5862352,27.8912554 13.3576886,24.2218542 8.66736698,22.947015 C3.97704531,21.6721758 1.03428597,15.6470924 2.52742715,11.3872649 C4.02056833,7.12743731 8.70494154,3.93337907 13.1913138,5.81918246 Z" id="path-13"></path>
        <path d="M11.4013927,37.9099941 C14.7078261,37.0364436 17.2208941,34.6628338 16.2316869,31.1263445 C15.2424798,27.5898553 13.224385,24.0309135 10.7395761,24.6875226 C8.25476714,25.3441318 5.47199918,26.7080712 5.2861448,31.3317415 C5.10029043,35.9554118 8.09495935,38.7835447 11.4013927,37.9099941 Z" id="path-15"></path>
        <filter x="-9.0%" y="-7.4%" width="117.9%" height="114.9%" filterUnits="objectBoundingBox" id="filter-16">
            <feOffset dx="2" dy="2" in="SourceAlpha" result="shadowOffsetInner1"></feOffset>
            <feComposite in="shadowOffsetInner1" in2="SourceAlpha" operator="arithmetic" k2="-1" k3="1" result="shadowInnerInner1"></feComposite>
            <feColorMatrix values="0 0 0 0 0   0 0 0 0 0   0 0 0 0 0  0 0 0 0.15 0" type="matrix" in="shadowInnerInner1"></feColorMatrix>
        </filter>
        <polygon id="path-17" points="0.941747573 0 54.9417476 0 54.9417476 74 0.941747573 74"></polygon>
    </defs>
    <g id="Peers-Illustration" stroke="none" stroke-width="1" fill="none" fill-rule="evenodd">
        <g id="Group-269" transform="translate(0.000000, 50.000000)">
            <path d="M99.0979265,24.5409597 C102.76795,24.8054147 114.646031,35.7994905 116.134656,39.9607464 C117.622927,44.1220024 104.923756,38.2883531 101.878614,34.6051777 C98.8334716,30.9223578 95.4279028,24.2765047 99.0979265,24.5409597" id="Fill-1" fill="#755135"></path>
            <path d="M97.7370498,24.3611374 C97.7370498,24.3611374 102.658969,24.4180095 106.87923,27.9046209 C111.099491,31.3905213 105.195462,37.0069905 104.564538,37.3944313 C103.933614,37.781872 101.803045,35.3125592 101.803045,35.3125592 L97.7370498,24.3611374 Z" id="Fill-3" fill="#3D79CC"></path>
            <path d="M118.12109,43.2697749 C112.469076,39.8347038 105.91955,55.7816232 100.784716,56.7065047 C98.460782,56.8216706 93.5164692,56.8234479 93.5164692,56.8234479 C88.6432464,61.3465521 91.2810427,71.8611256 97.8949052,72.0413389 C105.768128,72.2563863 116.910782,55.7951303 117.159597,53.2110071 L118.12109,43.2697749 Z" id="Fill-5" fill="#BF9F75"></path>
            <path d="M109.852891,43.2284716 C102.660711,39.4155569 94.813436,53.0335664 91.6922275,57.625628 C88.7419905,57.7429265 82.4633175,57.7226659 82.4633175,57.7226659 C74.0977962,62.7654384 79.6911611,74.2951777 88.0904502,74.5233768 C98.0885545,74.7949408 109.338199,58.9496801 109.643175,56.1011019 L109.852891,43.2284716 Z" id="Fill-7" fill="#CEAE7C"></path>
            <path d="M89.2315521,24.9852725 C88.5657938,26.8837322 97.0336848,32.439064 95.8539455,24.6113389 C98.85359,23.5823104 104.850391,25.6307701 103.964609,31.5802962 C103.082382,37.5077844 102.275509,39.1620498 103.2075,43.8749645 C96.693519,49.531955 91.6919787,57.6255569 91.6919787,57.6255569 C84.9270498,66.0426185 77.5660308,62.2346801 78.3309597,60.7744905 C80.5866469,56.4675 81.2950592,46.735628 80.8375948,32.5528081 C79.4840403,28.4605095 86.207737,25.7836137 89.2315521,24.9852725" id="Fill-9" fill="#4D97FF"></path>
            <path d="M104.382618,54.8409953 C104.044585,65.6058057 101.670889,64.3976303 104.821244,74.1291469 C105.351931,75.768128 112.207855,74.756872 112.379182,72.386019 C113.429538,57.8402844 112.91769,44.9367299 109.852998,43.228436 L104.382618,54.8409953 Z" id="Fill-11" fill="#CEAE7C"></path>
            <path d="M122.113649,39.4181517 C114.921469,35.605237 106.674668,53.1612796 100.158199,54.1583175 C100.158199,54.1583175 114.066256,56.1993128 116.82064,54.5187441 C119.575024,52.8385308 122.779052,42.6392417 122.779052,42.6392417 L122.113649,39.4181517 Z" id="Fill-13" fill="#CEAE7C"></path>
            <path d="M122.113649,39.4181517 C127.232844,42.8852133 125.728934,53.8458768 124.678578,68.3916114 C124.507607,70.7624645 118.651564,71.5917299 118.121232,69.9523934 C114.970877,60.2208768 116.344336,61.6113981 116.682014,50.8462322 L122.113649,39.4181517 Z" id="Fill-15" fill="#CEAE7C"></path>
            <path d="M84.2236848,9.85954976 C84.2236848,9.85954976 83.0645616,8.05244076 81.7003436,9.9128673 C80.3361256,11.7732938 82.5630213,15.4408294 84.9271209,15.3608531" id="Fill-17" fill="#60412C"></path>
            <path d="M101.586256,13.0259716 C101.586256,13.0259716 103.00628,11.6397156 104.515166,13.5548815 C106.024052,15.4704028 103.359242,18.6719431 100.841588,18.8855687" id="Fill-19" fill="#60412C"></path>
            <path d="M94.1405332,29.4238863 C96.2440877,29.4238863 96.6375711,27.5627488 96.6304621,26.1469905 C96.6229976,24.5982938 95.0298697,25.9418957 95.1222867,20.0933175 C95.1688507,17.1384597 90.6134005,17.8155924 90.6279739,20.4626303 C90.6588981,26.0033886 88.7575948,23.9979384 88.7195616,25.993436 C88.6925474,27.4088389 92.2626896,29.4238863 94.1405332,29.4238863" id="Fill-21" fill="#60412C"></path>
            <path d="M91.245391,1.68587302 C91.245391,1.68587302 83.4141114,1.86757109 83.4141114,12.3028791 C83.4141114,21.3867654 89.6149408,25.8960071 92.3021445,25.8960071 C94.9040403,25.8960071 102.232002,21.9963626 102.688045,14.7529976 C103.521931,1.50714455 97.6865047,1.68587302 91.245391,1.68587302" id="Fill-23" fill="#755135"></path>
            <path d="M91.1644905,16.1809479 C89.414609,18.3811848 92.4675711,19.3174408 92.4675711,19.3174408" id="Stroke-25" stroke="#60412C" stroke-width="0.5" stroke-linecap="round" stroke-linejoin="round"></path>
            <g id="Group-29" transform="translate(83.175355, 0.061493)">
                <mask id="mask-2" fill="white">
                    <use xlink:href="#path-1"></use>
                </mask>
                <g id="Clip-28"></g>
                <path d="M0.26242891,12.5198104 C0.26242891,12.5198104 -0.782950237,-0.411113744 9.96302133,0.323957346 C21.9914573,1.14718009 19.5751066,11.9390047 19.5925237,12.5560664 L18.9029502,12.6996682 C18.6733294,12.747654 18.4550829,12.5745498 18.4501066,12.3399526 C18.3836374,9.08438389 16.9081635,11.1619905 16.9102962,9.63781991 C16.9152725,6.23296209 2.45377962,5.46127962 2.01728673,8.84943128 C1.80508294,10.4997867 0.874514218,9.28841232 0.657334123,12.6463507 L0.26242891,12.5198104 Z" id="Fill-27" fill="#231F20" mask="url(#mask-2)"></path>
            </g>
            <path d="M95.85391,16.1809479 C95.85391,16.5897156 95.6033175,16.9213507 95.2944313,16.9213507 C94.9851896,16.9213507 94.7345972,16.5897156 94.7345972,16.1809479 C94.7345972,15.7721801 94.9851896,15.4409005 95.2944313,15.4409005 C95.6033175,15.4409005 95.85391,15.7721801 95.85391,16.1809479" id="Fill-30" fill="#231F20"></path>
            <path d="M88.3387678,15.8223697 C88.3387678,16.2311374 88.0881754,16.5624171 87.7792891,16.5624171 C87.4700474,16.5624171 87.2198104,16.2311374 87.2198104,15.8223697 C87.2198104,15.4136019 87.4700474,15.0819668 87.7792891,15.0819668 C88.0881754,15.0819668 88.3387678,15.4136019 88.3387678,15.8223697" id="Fill-32" fill="#231F20"></path>
            <path d="M86.9784242,12.427891 C87.1902725,12.6934123 87.565628,12.7797867 87.8652725,12.6198341 C88.7716706,12.1346445 90.0758175,12.2217299 89.8586374,11.6569194 C89.6126659,11.017109 87.0665758,10.988673 86.8326896,11.7145024 C86.7388507,12.0059716 86.8326896,12.2451896 86.9784242,12.427891" id="Fill-34" fill="#231F20"></path>
            <path d="M98.6168246,12.427891 C98.4049763,12.6934123 98.0296209,12.7797867 97.7299763,12.6198341 C96.8232227,12.1346445 95.5194313,12.2217299 95.7366114,11.6569194 C95.9825829,11.017109 98.528673,10.988673 98.7625592,11.7145024 C98.8563981,12.0059716 98.7625592,12.2451896 98.6168246,12.427891" id="Fill-36" fill="#231F20"></path>
            <path d="M91.407654,22.2343365 C92.2977014,22.7085071 94.7332464,22.2350474 95.6712796,21.452346 C96.8549289,20.4641943 96.6782701,24.0670379 93.9953318,24.5003318 C91.3123934,24.9336256 90.5176066,21.7605213 91.407654,22.2343365" id="Fill-38" fill="#231F20"></path>
            <path d="M95.6713152,21.4522749 C95.6713152,21.4522749 96.040628,22.9135308 93.793827,23.3326066 C91.81859,23.7012085 91.5363626,22.2914929 91.5363626,22.2914929 C91.5363626,22.2914929 92.6084005,22.53 93.6040166,22.2986019 C94.5786611,22.0718246 95.6713152,21.4522749 95.6713152,21.4522749" id="Fill-40" fill="#FFFFFF"></path>
            <polyline id="Stroke-42" stroke="#E5F0FF" stroke-width="0.5" points="92.0385427 22.9431754 93.1383057 22.9364218 94.1406754 22.8294313 94.9244431 22.5937678 95.5493246 22.0751659"></polyline>
            <path d="M93.2894076,23.1496919 L93.0359716,23.1767062 C92.9805213,23.1827488 92.9311137,23.1425829 92.9250711,23.0874882 L92.8980569,22.8336967 C92.8920142,22.7786019 92.9321801,22.7291943 92.9872749,22.7235071 L93.2410664,22.6961374 C93.2961611,22.6900948 93.3455687,22.7299052 93.3516114,22.7853555 L93.3786256,23.0387915 C93.3846682,23.0942417 93.3445024,23.1436493 93.2894076,23.1496919" id="Fill-44" fill="#CF63CF"></path>
            <path d="M94.3027962,23.0340995 L94.050782,23.0746209 C93.9960427,23.0835071 93.9445024,23.0461848 93.9356161,22.9914455 L93.8950948,22.7397867 C93.8862085,22.6850474 93.9235308,22.6331517 93.9782701,22.6246209 L94.2302844,22.5837441 C94.2850237,22.5748578 94.336564,22.6121801 94.3454502,22.6672749 L94.3859716,22.9189336 C94.3948578,22.973673 94.3575355,23.0255687 94.3027962,23.0340995" id="Fill-46" fill="#CF63CF"></path>
            <path d="M95.0536137,22.717891 L94.9334716,22.7726303 C94.8829976,22.7957346 94.823282,22.7733412 94.8001777,22.7228673 L94.7454384,22.6027251 C94.7223341,22.5518957 94.7447275,22.4925355 94.7952014,22.4694313 L94.9153436,22.4143365 C94.9658175,22.3915877 95.0255332,22.413981 95.0486374,22.464455 L95.1033768,22.5845972 C95.126481,22.6354265 95.1040877,22.6951422 95.0536137,22.717891" id="Fill-48" fill="#CF63CF"></path>
            <path d="M92.0540047,23.1087441 L91.9224882,23.0955924 C91.8673934,23.0902607 91.826872,23.0412085 91.8325592,22.9857583 L91.8457109,22.8542417 C91.8510427,22.7991469 91.9000948,22.758981 91.955545,22.7639573 L92.0870616,22.777109 C92.1425118,22.7827962 92.1826777,22.8322038 92.1769905,22.8872986 L92.1641943,23.0188152 C92.1585071,23.07391 92.1090995,23.1144313 92.0540047,23.1087441" id="Fill-50" fill="#CF63CF"></path>
            <path d="M95.6557109,22.1906161 L95.5494313,22.2695261 C95.505,22.3022275 95.4417299,22.2929858 95.4090284,22.2481991 L95.3301185,22.1419194 C95.2970616,22.0974882 95.3066588,22.0349289 95.35109,22.0015166 L95.4573697,21.9229621 C95.5018009,21.8899052 95.5650711,21.8995024 95.5977725,21.9439336 L95.6766825,22.0498578 C95.7097393,22.0942891 95.7001422,22.1575592 95.6557109,22.1906161" id="Fill-52" fill="#CF63CF"></path>
            <path d="M69.1390877,15.6973934 C69.1042536,14.5279621 69.4913389,14.4277251 69.9552014,14.3591232 C70.4460782,14.2866114 71.0613626,14.1188389 71.4605332,14.1778436 C71.7694194,14.2233412 71.783282,14.4682464 71.783282,14.4682464 C71.783282,14.4682464 71.7975,14.4582938 72.1525948,14.3530806 C72.5307938,14.2411137 73.5708412,13.9670616 74.0044905,13.9162322 C74.2589929,13.8863744 74.5429976,14.032109 74.6176422,14.3075829 C74.7139692,14.2819905 74.7843483,14.268128 74.8362441,14.2620853 C74.9858886,14.2439573 75.1230924,14.1838863 75.2382583,14.0868483 C75.7838744,13.6268957 77.0219076,12.3970379 77.3272393,10.4978673 C77.5817417,8.91540284 79.2647986,9.7485782 78.9008175,11.0303318 C78.2954858,13.1626777 77.4875474,14.7298578 76.7883768,15.785545 C76.690628,15.9330569 76.6710782,16.1143365 76.7272393,16.282109 C76.8704858,16.7129147 77.0467891,17.732346 76.4044905,19.4043839 C75.9203673,20.6651659 74.5675237,23.0975118 72.6139692,23.2037915 C70.6607701,23.3104265 68.908045,25.0876777 69.3946564,22.6517773 C69.9434716,19.9048578 69.1739218,16.8671801 69.1390877,15.6973934" id="Fill-54" fill="#755135"></path>
            <path d="M84.9269431,37.0070616 C83.692109,38.4597867 73.9620142,45.0445024 70.3790758,43.5921327 C66.7961374,42.1394076 68.1717299,31.632654 69.3944787,22.6518483 C69.3944787,22.6518483 74.7368957,16.8750711 73.5749289,22.0749526 C72.4126066,27.2748341 75.5604739,25.4353791 74.2552607,34.1183175 C74.2552607,34.1183175 82.2635545,28.4126303 83.1113033,27.7109716" id="Fill-56" fill="#755135"></path>
            <path d="M83.1111611,27.7108649 C79.2516825,29.7802962 77.3720616,30.789064 75.6890047,32.6011493 C74.6606872,33.7080213 78.9239573,32.0320735 79.8922038,41.6071919 C82.9007346,40.7594431 85.776327,39.1375237 86.5991943,36.1357464 C88.7603318,28.2543483 85.2662559,27.2047038 83.1111611,27.7108649" id="Fill-58" fill="#3D79CC"></path>
            <path d="M113.689941,37.1525118 C119.981765,35.1186256 124.2166,37.222891 124.655936,39.4181517 C125.095273,41.6130569 120.759135,41.8490758 119.815059,40.2818957 C119.088519,38.5323697 116.352974,39.7430332 114.582832,41.3980095" id="Fill-60" fill="#755135"></path>
            <path d="M106.032654,74.0623934 C109.719739,77.7121564 108.205521,70.8963981 110.961327,73.2061137 C112.95718,74.8788626 116.755877,80.3211611 120.29936,81.4703318 C120.799123,81.6320616 121.523531,82.7972275 121.070687,83.8657109 C120.32282,84.7500711 115.79545,88.5238863 110.592725,84.0498341 C106.94154,80.9097867 104.658483,81.633128 104.622583,79.7631043 C104.609076,79.0465166 104.723175,72.7664218 106.032654,74.0623934" id="Fill-62" fill="#9966FF"></path>
            <path d="M109.5509,76.9861848 C108.529692,74.8954265 109.073886,72.4413981 110.643199,71.7066825 C111.535024,71.2893839 112.794028,71.9409242 113.345687,74.5474408 C113.756232,76.4878436 114.035616,77.7212559 118.34936,80.4631991 C119.448057,81.1613033 116.481825,82.7949526 115.515711,82.4220853 C112.829218,81.3859479 109.5509,76.9861848 109.5509,76.9861848" id="Fill-64" fill="#774DCB"></path>
            <path d="M120.518318,81.5948815 C120.518318,81.5948815 118.331943,84.7761611 115.759194,84.7324408 C111.711327,84.6634834 111.097109,81.705782 108.704573,80.7041232 C106.312038,79.7028199 106.391659,77.0156161 104.688697,77.716564 C104.688697,77.716564 104.460142,79.941327 104.623294,80.5964218 C104.786445,81.2522275 107.356351,81.6325592 109.530284,83.5029384 C111.704218,85.3733175 113.402915,87.1772275 116.955284,86.2683412 C120.507654,85.359455 121.056469,84.352109 121.412275,83.6330332 C121.731469,82.9886019 120.961919,81.3695261 120.518318,81.5948815" id="Fill-66" fill="#F1F2F2"></path>
            <path d="M117.578211,79.9339336 C118.311505,80.0796682 116.824301,78.8192417 116.461742,78.7470853 C115.449775,78.5459005 113.671457,79.1366588 113.206173,80.331327 C112.880936,81.1662796 114.576434,81.7769431 114.871102,81.1961374 C115.283069,80.3842891 116.907476,79.8006398 117.578211,79.9339336" id="Fill-68" fill="#F1F2F2"></path>
            <path d="M115.204585,77.2045379 C115.937879,77.3499171 115.189301,76.075628 114.883258,75.8684005 C114.021291,75.2854621 111.146765,75.8438744 110.681481,77.0385427 C110.356244,77.8734953 112.202808,79.0475474 112.497476,78.4663863 C112.909088,77.6548934 114.533495,77.0712441 115.204585,77.2045379" id="Fill-70" fill="#F1F2F2"></path>
            <path d="M119.246979,69.9941588 C122.934064,73.6439218 121.419846,66.8281635 124.175652,69.1378791 C126.171505,70.810628 129.970201,76.2529265 133.513685,77.4020972 C134.013448,77.563827 134.7375,78.7289929 134.285012,79.7974763 C133.537145,80.6818365 129.009775,84.4556517 123.80705,79.9815995 C120.155865,76.8415521 117.872453,77.5648934 117.836908,75.6948697 C117.8234,74.978282 117.9375,68.6981872 119.246979,69.9941588" id="Fill-72" fill="#9966FF"></path>
            <path d="M123.927192,72.3073578 C122.905983,70.2165995 125.174111,66.1189692 126.820557,66.6592536 C127.888329,67.0097275 127.059775,68.2122156 127.721979,69.8686137 C128.458116,71.7102014 127.354443,73.723827 131.667832,76.4654147 C132.766884,77.1638744 130.858116,78.1161256 129.892002,77.7432583 C127.205509,76.7071209 123.927192,72.3073578 123.927192,72.3073578" id="Fill-74" fill="#774DCB"></path>
            <path d="M134.308507,78.3975711 C134.308507,78.3975711 131.545948,80.7079976 128.973555,80.6642773 C124.925687,80.5953199 124.311469,77.637263 121.918934,76.6359597 C119.526398,75.6350118 119.606019,72.9474526 117.903057,73.6484005 C117.903057,73.6484005 117.674502,75.8728081 117.837654,76.5282583 C118.000806,77.184064 120.570711,77.5643957 122.744645,79.4347749 C124.918578,81.305154 126.617275,83.109064 130.169645,82.2001777 C133.722014,81.2916469 134.270829,80.2839455 134.626635,79.5648697 C134.945474,78.9204384 134.751754,78.1722156 134.308507,78.3975711" id="Fill-76" fill="#F1F2F2"></path>
            <path d="M130.792536,75.8656991 C131.525829,76.0114336 130.038626,74.7510071 129.676066,74.6788507 C128.6641,74.4776659 126.885782,75.0684242 126.420142,76.2630924 C126.094905,77.098045 127.790758,77.7087085 128.085427,77.1279028 C128.497038,76.3160545 130.121445,75.7324052 130.792536,75.8656991" id="Fill-78" fill="#F1F2F2"></path>
            <path d="M128.41891,73.1362678 C129.152204,73.2820024 128.403626,72.0073578 128.097583,71.8001303 C127.235616,71.2171919 124.36109,71.7756043 123.895806,72.9702725 C123.570569,73.8052251 125.417133,74.9792773 125.711801,74.3981161 C126.123412,73.5866232 127.74782,73.0029739 128.41891,73.1362678" id="Fill-80" fill="#F1F2F2"></path>
            <path d="M121.706481,38.7551659 C121.230533,39.1219905 120.354704,39.2680806 119.608258,40.6742417 C119.178874,41.4839573 119.190249,42.5140521 118.580652,42.7856161 C117.360036,43.3298104 118.833021,44.3862085 119.95731,43.6205687 C120.502216,43.2498341 121.061694,41.6655924 121.635391,42.5908294 C122.02141,43.2135782 122.005415,43.8270853 122.056244,44.4843128 C122.146884,45.6608531 122.41987,46.4972275 122.225438,48.1415403 C122.025675,49.8345498 123.11513,49.8466351 123.374254,48.2808768 C123.562642,47.1427251 123.388472,45.9850237 123.470581,45.4177251 C124.035036,46.9777962 124.392974,47.8052844 124.495344,49.9312322 C124.5284,50.6200948 125.567026,50.6282701 125.536102,49.7979384 C125.458614,47.7167773 124.857192,46.3945024 124.926149,45.5790995 C125.099254,46.1606161 125.837524,47.7437915 125.997121,49.0749526 C126.153519,50.3790995 127.121765,49.9312322 126.831363,48.3093128 C126.468092,46.2796919 125.89404,44.8109716 125.89404,44.8109716 C125.89404,44.8109716 126.72686,46.379218 127.119633,47.1896445 C127.616197,48.2140521 128.375438,47.3847867 127.789301,46.2427251 C125.962998,42.6832464 126.336931,41.3090758 125.113116,39.664763 C124.226623,38.4740047 124.031126,36.9622749 121.706481,38.7551659" id="Fill-82" fill="#755135"></path>
            <path d="M73.6837322,94.0599526 C72.9902488,87.6522512 38.3345616,93.4898104 34.1118128,96.7716825 C29.8894194,100.053199 27.8633531,106.143839 33.3205806,110.24609 C37.93859,113.717773 61.8152488,102.04372 67.7167891,94.57109 C70.2031635,91.4235782 73.6837322,94.0599526 73.6837322,94.0599526" id="Fill-84" fill="#231F20"></path>
            <path d="M40.0756635,49.844218 C40.0756635,49.844218 40.0187915,50.3759716 39.7920142,50.5721801 C39.565237,50.7683886 38.0961611,50.5145972 37.807891,50.6688626 C37.5196209,50.8238389 37.5747156,49.8022749 38.1782701,49.7628199 C38.7814692,49.7230095 40.0756635,49.844218 40.0756635,49.844218" id="Fill-86" fill="#FFFFFF"></path>
            <path d="M19.6089455,59.8322275 C19.6089455,59.8322275 30.5973341,55.5995261 39.5091825,61.7864929 C48.4213863,67.9738152 49.5815758,69.6202607 52.369372,70.6240521 C52.6029028,65.3417062 57.3360782,53.0218009 57.3360782,53.0218009 C57.3360782,53.0218009 64.5737559,51.3771327 61.7013626,55.7761848 C59.2018365,59.6033175 60.9325237,78.592891 53.2046801,78.8335308 C45.1615521,79.0841232 34.2367891,66.8015403 30.7867891,68.0306872 C27.3371445,69.2598341 17.3781398,66.3973934 19.6089455,59.8322275" id="Fill-88" fill="#60412C"></path>
            <path d="M74.1592891,109.986469 C74.1592891,109.986469 73.4000474,112.29263 74.1145024,114.518815 C74.6380806,116.151398 74.5719668,116.514313 77.5392654,116.887536 C80.335237,117.23872 85.5525355,119.337299 87.5576303,119.489787 C94.592346,120.02545 96.6109479,116.921303 96.0066825,114.581374 C96.6777725,117.180782 81.3791943,109.198081 74.1592891,109.986469" id="Fill-90" fill="#F1F2F2"></path>
            <path d="M47.6265284,115.102322 C55.1915758,110.803863 64.3792536,87.6711611 72.5588744,92.4153555 C81.9967891,97.8896445 56.1676422,109.508246 56.5515284,115.409787 C56.9890877,122.133483 40.5306754,119.134194 47.6265284,115.102322" id="Fill-92" fill="#231F20"></path>
            <path d="M17.1437204,97.3589573 C13.2014218,108.913578 16.8209716,116.729573 28.5131517,114.977204 C40.5408768,113.175071 54.8239336,92.4466351 54.4691943,88.8946209 C55.207109,91.2206872 58.3617299,95.8667773 70.996564,107.06346 C72.6703791,108.547109 77.3875592,105.696043 75.9550948,103.021991 C65.5656398,83.6268483 62.0271327,72.5858531 53.350237,74.3403555 C46.8380332,75.6572986 37.378436,91.751019 28.6883886,94.9056398 C24.6629147,95.9275592 17.1437204,97.3589573 17.1437204,97.3589573" id="Fill-94" fill="#231F20"></path>
            <path d="M24.9317062,66.3529009 C27.8179621,66.3575118 30.4767299,64.742346 30.4703433,62.8001659 C30.4632227,60.6749289 29.4825355,62.0697156 28.4136967,54.4908057 C27.8478199,50.4759953 15.9690284,48.0390284 19.6344313,51.0130806 C24.0014929,54.5569194 19.6728199,59.8339336 19.6163033,62.5716114 C19.5761374,64.513436 22.3554028,66.3486256 24.9317062,66.3529009" id="Fill-96" fill="#60412C"></path>
            <path d="M25.8604265,25.3910545 C16.4665877,27.5632109 14.4106635,35.8544431 14.403538,40.4002962 C14.3911137,48.1899882 21.4208531,52.1752962 25.8604265,53.4467417 C28.6556872,54.2475711 31.3859005,56.6916469 34.9055687,56.05859 C36.3380332,55.8012441 37.6798578,55.2129739 38.7899289,52.855628 C39.1738152,52.7209123 39.8214455,52.2268365 39.0941943,52.0462678 C38.1238152,51.805628 37.3279621,50.4058649 38.1156398,49.99141 C38.4302133,49.8257701 39.813981,50.0639218 40.1218009,49.9469787 C40.5842417,49.7710308 40.8167062,49.048045 40.1374408,49.1187796 C40.4058057,47.4289692 40.2952607,45.7423578 39.6668246,43.340936 C42.5445498,30.1117891 31.8095972,24.0151066 25.8604265,25.3910545" id="Fill-98" fill="#755135"></path>
            <path d="M40.1113863,48.4519194 C41.5943246,47.7548815 42.3180213,45.5343839 41.4325948,45.5720616 C40.0278555,45.6317773 39.7804621,43.9099763 39.6670735,43.3409005" id="Fill-100" fill="#755135"></path>
            <path d="M39.3041612,43.2607464 C39.3034479,43.8212915 38.9590166,44.2755569 38.534609,44.2752016 C38.1109123,44.2744905 37.7679028,43.8188033 37.7686126,43.2582583 C37.7696801,42.6973578 38.1141114,42.2430924 38.5381635,42.2438025 C38.9622156,42.2445142 39.3052251,42.699846 39.3041612,43.2607464" id="Fill-102" fill="#231F20"></path>
            <path d="M39.6565166,39.9360427 C39.6074645,40.2715877 39.3273697,40.5356872 38.9882701,40.5484834 C37.9613744,40.586872 36.8808057,41.3198104 36.7834123,40.7233649 C36.6732227,40.0472986 38.8549763,38.7388863 39.4222749,39.2471801 C39.6501185,39.4508531 39.6902844,39.705 39.6565166,39.9360427" id="Fill-104" fill="#231F20"></path>
            <path d="M33.96391,37.6290995 C39.2945972,38.0087204 38.8829858,37.3404739 40.8411611,35.2738863 C40.8411611,35.2738863 37.5973223,25.1719905 29.5222038,25.0724645 C18.5754028,24.9373934 14.8222038,32.0318246 14.6124882,37.6852607 C14.1209005,50.9414218 22.4626066,52.8320616 28.41391,54.4909479 C28.41391,54.4909479 25.7387915,42.3352607 28.899455,41.3503081 C30.6777725,40.7961611 30.7733886,40.5064692 30.9969668,39.1735308 C31.2404502,37.721872 32.7059716,37.5395261 33.96391,37.6290995" id="Fill-106" fill="#231F20"></path>
            <g id="Group-111" transform="translate(26.658768, 41.293720)">
                <path d="M4.14600711,1.24990521 C4.14600711,1.24990521 3.05370853,-0.938246445 0.925983412,0.748364929 C-0.088471564,1.55274882 0.228234597,3.2592654 0.99742891,4.59469194 C1.84091232,6.05985782 3.22930095,7.0778673 4.00169431,5.96779621" id="Fill-108" fill="#755135"></path>
                <path d="M4.14600711,1.24990521 C4.14600711,1.24990521 3.05370853,-0.938246445 0.925983412,0.748364929 C-0.088471564,1.55274882 0.228234597,3.2592654 0.99742891,4.59469194 C1.84091232,6.05985782 3.22930095,7.0778673 4.00169431,5.96779621" id="Stroke-110" stroke="#60412C" stroke-width="0.5" stroke-linecap="round" stroke-linejoin="round"></path>
            </g>
            <path d="M20.7865521,58.6784005 C24.819846,57.5473578 31.598282,66.9010308 29.0529028,58.1310071 C37.0292062,57.7062441 39.2649882,69.0778081 39.6954384,75.4741351 C40.1529028,82.2667891 37.3455569,82.0915521 38.5366706,87.4176185 C34.2179502,94.6904858 26.3390403,98.142263 24.3275474,99.8253199 C21.8905806,101.864538 18.569609,103.391552 16.3515995,101.59795 C13.0459123,98.9238981 11.8789692,100.673424 12.7068128,98.9932109 C15.1473341,94.0393009 17.6593009,90.7801777 15.2262441,74.0228318 C13.8783768,64.7402488 13.8431872,64.4608649 20.7865521,58.6784005" id="Fill-112" fill="#FFBF00"></path>
            <path d="M30.3028445,47.6653436 C30.3021327,48.1999408 29.868128,48.6325237 29.3335308,48.6318137 C28.7992891,48.6307464 28.3667062,48.1967417 28.3677705,47.6625 C28.3684834,47.1279028 28.8024882,46.6953199 29.3367299,46.6963843 C29.871327,46.6970972 30.3035545,47.1311019 30.3028445,47.6653436" id="Fill-114" fill="#FF661A"></path>
            <path d="M75.3160664,101.652832 C75.3160664,101.652832 78.3448578,108.78814 81.3533886,109.563732 C84.3722275,110.341813 78.2264929,113.324396 77.3563507,113.030794 C76.4474645,112.72404 72.5886967,108.703187 71.1885782,107.353898 C70.4567062,106.648329 69.9416588,106.125462 69.9416588,106.125462 C71.5614455,107.112192 77.0350237,104.472618 75.3160664,101.652832" id="Fill-116" fill="#755135"></path>
            <path d="M58.9329028,110.885509 C58.9329028,110.885509 56.4671445,113.459325 56.2094431,115.876742 C55.9510308,118.301979 49.7022156,114.541315 49.8301777,113.83468 C49.9641825,113.096055 52.3257938,110.499135 53.3320735,109.35814 C54.5875237,107.935273 59.521173,108.558732 58.9329028,110.885509" id="Fill-118" fill="#755135"></path>
            <path d="M89.8759834,111.816149 C87.3778791,111.407737 83.1050118,108.268756 81.3665047,106.888898 C79.4165047,105.340912 78.6949408,108.001102 79.4499171,110.56923 C79.7531161,111.600391 82.4037085,111.956197 86.9694668,114.143637 C89.8212441,115.509988 92.7547749,113.749799 93.9625948,114.204775 C96.8705332,115.299562 92.70359,112.278945 89.8759834,111.816149" id="Fill-120" fill="#E64D00"></path>
            <path d="M95.71141,113.764514 C95.4149645,113.463803 89.8759834,111.816291 89.8759834,111.816291 C92.0307227,112.903614 90.1244431,114.80705 88.1225474,114.158353 C82.6866469,112.396742 83.1195853,111.122808 79.3656754,109.295438 C77.689372,108.479325 79.0852251,114.210249 75.3131872,110.97423 C75.3131872,110.97423 72.7315521,108.993661 73.0631872,110.058235 C74.4121209,114.383709 73.3528791,116.242002 77.2496801,116.185841 C80.2258649,116.143187 85.0379502,117.001244 86.9175711,117.448756 C94.1189929,119.164159 97.2928081,115.366528 95.71141,113.764514" id="Fill-122" fill="#FF5500"></path>
            <path d="M43.5510071,116.731706 C44.1805095,115.3259 48.4707938,113.073412 49.2691351,112.523175 C51.6936611,110.852915 50.5281398,112.996991 51.7757701,114.237156 C52.8350118,115.290711 56.6447275,112.859076 56.8743483,113.90872 C57.176481,115.289289 60.9705569,116.840474 63.055628,117.255995 C65.1808649,117.678981 67.4518365,120.098886 65.830628,121.509668 L43.5510071,116.731706 Z" id="Fill-124" fill="#FF5500"></path>
            <path d="M14.6024645,69.2179976 C14.6024645,69.2179976 14.7037678,70.4275948 15.0393128,72.9711967 C15.8870616,79.3956043 38.8658531,76.8633768 39.6890758,74.9382583 L39.398673,73.1467891 L14.6024645,69.2179976 Z" id="Fill-126" fill="#E6AC00"></path>
            <path d="M43.4034953,119.035877 C42.7185427,116.347607 44.7350118,114.133152 48.5440166,115.599028 C53.8327607,117.634692 57.0687796,116.072133 61.3206754,117.422488 C67.2922393,119.318815 68.2789692,122.791564 61.3452014,122.68955 C52.8289692,122.564431 52.5350118,121.406019 49.4912915,121.540735 C46.1660545,121.687891 44.0123815,121.425924 43.4034953,119.035877" id="Fill-128" fill="#F1F2F2"></path>
            <path d="M9.78184834,27.324846 C6.97130332,26.2449882 4.38540284,27.3575474 4.38149289,29.8389455 C4.38149289,29.8389455 0.617274882,30.2878791 1.10637441,34.7967654 C1.10637441,34.7967654 -2.04575829,40.3872867 2.29180095,43.6350355 C2.29180095,43.6350355 3.35921801,48.4908412 8.36609005,47.0509123 C8.36609005,47.0509123 13.4884834,50.9466469 15.8529384,46.5063626 C15.8529384,46.5063626 20.8996209,45.8715284 20.3948815,40.328282 C20.3948815,40.328282 22.7795972,34.0869313 19.9278199,32.717737 C19.9278199,32.717737 18.8191706,27.835628 15.5515166,27.9127607 C15.5515166,27.9127607 12.2255687,25.260391 9.78184834,27.324846" id="Fill-130" fill="#231F20"></path>
            <path d="M14.5759123,65.3146564 C16.2710545,60.5146564 19.692263,63.4065995 25.3730687,64.592737 C28.1740166,65.1774526 35.4355095,65.9985427 38.2233057,67.0023341 C39.092737,61.6680924 49.2340877,50.2197512 49.2340877,50.2197512 C49.2340877,50.2197512 56.9029265,45.4289929 53.4401303,50.6850355 C50.4383531,55.2419076 45.7488981,67.6943957 43.1914336,72.4688033 C41.3740166,75.8615758 26.0985427,74.7930924 20.8542299,73.4374052 C17.3082583,72.5203436 12.8804147,70.1150118 14.5759123,65.3146564" id="Fill-132" fill="#755135"></path>
            <path d="M37.929064,51.049763 C37.929064,51.049763 38.8621209,51.0604265 38.8944668,51.9796209 C38.8944668,51.9796209 38.311173,51.7787915 37.929064,51.049763" id="Fill-134" fill="#ED5F87"></path>
            <path d="M56.5874289,53.1981043 C56.6880213,52.4146919 56.2721445,51.3245261 57.3719076,49.5447867 C58.004609,48.5203791 59.1807938,47.8492891 59.0844668,46.9780806 C58.8914573,45.232109 61.0671682,46.2017773 60.9452488,47.9850711 C60.8858886,48.8498815 59.4601777,50.5350711 60.8905095,50.5716825 C61.8530687,50.596564 62.5383768,50.17109 63.3175237,49.7925355 C64.7123104,49.1150474 65.4470261,47.9939573 67.5783057,47.5574645 C69.7053199,47.121327 70.3924052,48.3767773 68.4985664,48.7677725 C67.0138507,49.0741706 65.9037796,50.3075829 65.3147986,50.7771327 C67.2089929,49.7129147 68.4196564,49.0656398 71.2099408,49.2614929 C72.7988033,49.3731043 72.6537796,50.5837678 71.5124289,50.5958531 C68.7566232,50.625 67.3433531,51.7020142 66.4643246,52.3208531 C67.2388507,52.1317536 69.4884953,51.9614929 71.2461967,52.082346 C73.1183531,52.2117299 72.6018839,53.9804502 70.9312678,53.5372038 C68.3130213,52.8419431 66.2354147,53.92891 66.2354147,53.92891 C66.2354147,53.92891 68.6922867,53.8517773 69.579846,54.6344787 C70.7037796,55.6258294 70.168827,56.4760664 68.9503436,56.0225118 C64.022737,54.1890995 62.5568602,56.7554502 59.8799645,56.4582938 C57.9413389,56.2432464 56.0965521,57.0245261 56.5874289,53.1981043" id="Fill-136" fill="#60412C"></path>
            <path d="M67.2609953,53.5316588 L60.1608768,52.4535782 C59.9127725,52.415545 59.7670379,51.8112796 60.0446445,51.6161374 L63.6979621,49.4215877 C63.7559005,49.3814218 63.827346,49.3647156 63.8973697,49.3757346 L70.9974882,50.1193365 C71.4019905,50.1502607 71.320237,50.8135308 71.1137204,50.9564218 L67.4607583,53.4854502 C67.4024645,53.5256161 67.331019,53.5423223 67.2609953,53.5316588" id="Fill-138" fill="#BA9B72"></path>
            <path d="M67.2609953,53.1973934 L60.1608768,52.1189573 C59.9127725,52.0812796 59.838128,51.7592417 60.0446445,51.6163507 L63.6979621,49.0873223 C63.7559005,49.0468009 63.827346,49.0304502 63.8973697,49.0411137 L70.9974882,50.1195498 C71.2455924,50.1572275 71.320237,50.4792654 71.1137204,50.6221564 L67.4607583,53.1511848 C67.4024645,53.1913507 67.331019,53.2077014 67.2609953,53.1973934" id="Fill-140" fill="#CEAE7C"></path>
            <path d="M63.0011374,45.5854265 L55.8498341,46.1925355 C55.5995972,46.2138626 55.3173697,45.6600711 55.5416588,45.4059242 L58.5800474,42.4219194 C58.6273223,42.3689573 58.6930806,42.3362559 58.7634597,42.3302133 L65.8369194,41.3982227 C66.2375118,41.3338863 66.3125118,41.9971564 66.1450948,42.1844787 L63.1845498,45.4937204 C63.1372749,45.5466825 63.071872,45.5790284 63.0011374,45.5854265" id="Fill-142" fill="#BA9B72"></path>
            <path d="M62.9232227,45.260154 L55.7719194,45.867263 C55.5216825,45.88859 55.3741706,45.5932109 55.5415877,45.4058886 L58.5021327,42.0966469 C58.5494076,42.0436848 58.6148104,42.0109834 58.685545,42.0052962 L65.8368483,41.3981872 C66.0870853,41.3768602 66.2345972,41.6722393 66.0671801,41.8595616 L63.1066351,45.1688033 C63.0593602,45.2217654 62.9936019,45.2541114 62.9232227,45.260154" id="Fill-144" fill="#CEAE7C"></path>
            <path d="M62.2065995,44.1990284 C62.2169076,44.2573223 62.1266232,44.3223697 62.0050592,44.3436967 C61.8831398,44.3657346 61.7761493,44.3362322 61.7658412,44.2779384 C61.7551777,44.2196445 61.8454621,44.1545972 61.9673815,44.1329147 C62.0889455,44.1112322 62.1962915,44.1407346 62.2065995,44.1990284" id="Fill-146" fill="#BA9B72"></path>
            <path d="M63.2010782,43.1163626 C63.2113863,43.1746564 63.1211019,43.2397038 62.9995379,43.2610308 C62.8776185,43.2830687 62.770628,43.2535664 62.7599645,43.1952725 C62.7496564,43.1369787 62.8399408,43.0719313 62.9618602,43.0502488 C63.0834242,43.0285664 63.1907701,43.0580687 63.2010782,43.1163626" id="Fill-148" fill="#BA9B72"></path>
            <path d="M64.0437085,42.0621682 C64.0540166,42.1204621 63.9637322,42.1855095 63.8421682,42.2068365 C63.7202488,42.2288744 63.6132583,42.199372 63.6029502,42.1410782 C63.5922867,42.0827844 63.6825711,42.017737 63.8044905,41.9956991 C63.9260545,41.974372 64.0334005,42.0038744 64.0437085,42.0621682" id="Fill-150" fill="#BA9B72"></path>
            <path d="M59.7399526,44.5145616 C59.7502607,44.5728555 59.6599763,44.6379028 59.5384123,44.6592299 C59.4164929,44.6812678 59.3095024,44.6517654 59.2991943,44.5934716 C59.2885308,44.5351777 59.3788152,44.4701303 59.5007346,44.4484479 C59.6222986,44.4267654 59.7296445,44.4562678 59.7399526,44.5145616" id="Fill-152" fill="#BA9B72"></path>
            <path d="M60.7344668,43.4318957 C60.7447749,43.4901896 60.6544905,43.555237 60.5329265,43.576564 C60.4110071,43.5986019 60.3040166,43.5690995 60.2933531,43.5108057 C60.283045,43.4525118 60.3733294,43.3874645 60.4952488,43.365782 C60.6168128,43.3440995 60.7241588,43.3736019 60.7344668,43.4318957" id="Fill-154" fill="#BA9B72"></path>
            <path d="M61.5770972,42.3777014 C61.5874052,42.4359953 61.4971209,42.5010427 61.3755569,42.5223697 C61.2536374,42.5444076 61.1466469,42.5149052 61.1363389,42.4566114 C61.1256754,42.3983175 61.2159597,42.3332701 61.3378791,42.3112322 C61.4594431,42.2899052 61.5667891,42.3194076 61.5770972,42.3777014" id="Fill-156" fill="#BA9B72"></path>
            <path d="M57.5933531,44.7322038 C57.6036611,44.7904976 57.5133768,44.855545 57.3918128,44.8772275 C57.2698934,44.89891 57.1629028,44.8694076 57.1525948,44.8111137 C57.1419313,44.7528199 57.2322156,44.6877725 57.3541351,44.66609 C57.4756991,44.6444076 57.583045,44.67391 57.5933531,44.7322038" id="Fill-158" fill="#BA9B72"></path>
            <path d="M58.5878673,43.6495379 C58.5981754,43.7078318 58.507891,43.7728791 58.386327,43.7945616 C58.2644076,43.8162441 58.1574171,43.7867417 58.1467536,43.7284479 C58.1364455,43.670154 58.2267299,43.6051066 58.3486493,43.5834242 C58.4702133,43.5617417 58.5775592,43.5912441 58.5878673,43.6495379" id="Fill-160" fill="#BA9B72"></path>
            <path d="M59.4304976,42.5953436 C59.4408057,42.6536374 59.3505213,42.7186848 59.2289573,42.7400118 C59.1070379,42.7620498 59.0000474,42.7325474 58.9897393,42.6742536 C58.9790758,42.6159597 59.0693602,42.5509123 59.1912796,42.5292299 C59.3128436,42.5075474 59.4201896,42.5370498 59.4304976,42.5953436" id="Fill-162" fill="#BA9B72"></path>
            <path d="M51.6704858,53.5347867 C52.5480924,51.4984123 57.0640877,47.7405924 57.8485664,46.8036256 C59.3066232,45.0619194 57.7725,44.7484123 57.0356517,45.1713981 C55.9348223,45.8030332 55.536718,46.8942654 55.0408649,47.0567062 C54.0711967,47.3748341 53.3290166,45.7418957 53.6439455,45.0135782 C54.0146801,44.1562322 54.6683531,43.222109 55.008519,43.1097867 C55.4638507,42.9587204 55.9454858,43.4712796 56.6720261,44.0325355 C57.3025948,44.5195024 58.5093483,44.0190284 57.6779502,43.2043365 C56.5270024,42.0761374 55.3863626,41.3264929 54.7803199,41.4636967 C54.3008175,41.572109 53.8010545,41.8674882 53.2497512,42.54391 C52.5409834,43.4136967 52.2985664,43.868673 52.1357701,43.9369194 C51.7703673,44.0904739 51.5531872,40.8818246 51.7973815,38.8696209 C51.9665758,37.4737678 50.4157464,37.332654 50.2550829,38.8522038 C49.9525948,41.7089573 50.7146801,44.9549289 50.4694194,45.0071801 C50.3005806,45.0430806 49.4084005,42.4529147 49.1016469,40.0056398 C48.9630213,38.9012559 47.4022393,39.0125118 47.6929976,40.5338389 C48.0783057,42.5495972 49.1158649,45.7472275 48.836481,45.8993602 C48.6424052,46.0045735 47.5163389,43.0273223 47.0809123,42.23609 C46.3973815,40.9941469 45.3694194,41.8770853 45.8283057,42.7408294 C47.6219076,46.1168957 48.0879028,47.2731754 48.5826896,49.3788626 C49.2843483,52.3664218 50.3908649,56.5049289 51.6704858,53.5347867" id="Fill-164" fill="#755135"></path>
            <path d="M66.7597393,52.5462085 L61.7450474,51.7844787 C61.5698104,51.7581754 61.4670853,51.3312796 61.6629384,51.1933649 L64.2431517,49.6436019 C64.2843839,49.6151659 64.3345024,49.603436 64.38391,49.6109005 L69.3986019,50.1362559 C69.6847393,50.1582938 69.6268009,50.6267773 69.4807109,50.7273697 L66.9008531,52.5135071 C66.8596209,52.5419431 66.8091469,52.553673 66.7597393,52.5462085" id="Fill-166" fill="#755135"></path>
            <path d="M66.7597393,52.310154 L61.7450474,51.5484242 C61.5698104,51.5217654 61.5172038,51.2946327 61.6629384,51.1933294 L64.2431517,49.4071919 C64.2843839,49.3787559 64.3345024,49.3673815 64.38391,49.3744905 L69.3986019,50.1362204 C69.5741943,50.1628791 69.6268009,50.3903673 69.4807109,50.4913152 L66.9008531,52.2774526 C66.8596209,52.3058886 66.8091469,52.3176185 66.7597393,52.310154" id="Fill-168" fill="#755135"></path>
            <path d="M67.6488981,50.7529976 C67.6488981,51.1400829 66.7769787,51.4539455 65.7013863,51.4539455 C64.6254384,51.4539455 63.753519,51.1400829 63.753519,50.7529976 C63.753519,50.3662678 64.6254384,50.0524052 65.7013863,50.0524052 C66.7769787,50.0524052 67.6488981,50.3662678 67.6488981,50.7529976" id="Fill-170" fill="#FFF0CA"></path>
            <mask id="mask-4" fill="white">
                <use xlink:href="#path-3"></use>
            </mask>
            <g id="Clip-173"></g>
            <polygon id="Fill-172" fill="#FFF0CA" mask="url(#mask-4)" points="63.7531991 50.7529621 67.6485782 50.7529621 67.6485782 47.5212085 63.7531991 47.5212085"></polygon>
            <path d="M67.6488981,47.5213152 C67.6488981,47.9084005 66.7769787,48.2219076 65.7013863,48.2219076 C64.6254384,48.2219076 63.753519,47.9084005 63.753519,47.5213152 C63.753519,47.1345853 64.6254384,46.8207227 65.7013863,46.8207227 C66.7769787,46.8207227 67.6488981,47.1345853 67.6488981,47.5213152" id="Fill-174" fill="#FFF0CA" mask="url(#mask-4)"></path>
            <path d="M13.2756043,97.8602133 C13.2756043,97.8602133 16.1391114,101.725024 22.0804621,100.003223 C29.9892299,97.7112796 37.0260782,89.35109 38.5363863,87.4174408 C38.5363863,87.4174408 35.506173,91.4781043 34.2702725,94.6906635 C32.9469313,98.1310664 25.7607938,99.0349763 23.920628,101.55263 C22.0804621,104.07064 16.9534479,103.973602 15.6112678,102.650261 C14.2690877,101.326564 11.7510782,102.650261 11.6543957,101.294218 C11.5577133,99.9388863 13.2756043,97.8602133 13.2756043,97.8602133" id="Fill-175" fill="#E6AC00" mask="url(#mask-4)"></path>
            <path d="M286.205154,80.6743365 C286.205154,80.6743365 287.732524,91.7089336 283.225415,97.5269431 C279.461908,102.384882 246.889514,97.7160427 243.805273,96.7485071 C240.721742,95.7809716 237.682642,91.3090521 243.805273,91.2987441 C249.928258,91.2880806 268.392476,88.7419905 268.392476,88.7419905 L286.205154,80.6743365 Z" id="Fill-176" fill="#231F20" mask="url(#mask-4)"></path>
            <path d="M266.925462,78.4402607 C266.925462,78.4402607 238.715509,75.1932227 237.654135,83.4556635 C236.45769,92.7688152 258.333874,101.707678 266.587429,104.114076 C272.763732,105.914787 273.196315,99.780782 270.613258,98.1265166 C265.81077,95.0500948 266.734941,93.5177488 264.916102,90.738128 C263.097618,87.9581517 271.779846,94.0331517 280.781979,88.577346 C289.784111,83.1211848 286.205083,80.6742654 286.205083,80.6742654" id="Fill-177" fill="#231F20" mask="url(#mask-4)"></path>
            <path d="M242.045652,22.8442536 C242.045652,22.8442536 243.727287,32.0152251 246.396007,41.701955 C251.161173,45.2848934 251.71141,46.2765995 254.99577,47.4040877 C263.055604,50.1702014 260.217334,58.2143957 252.325983,55.2748223 C249.510818,54.2258886 240.963306,49.7678318 240.018519,44.6347749 C238.03013,33.8333531 236.54186,25.0096564 236.54186,25.0096564" id="Fill-178" fill="#A57955" mask="url(#mask-4)"></path>
            <path d="M268.222109,47.2862915 C273.710616,48.2684005 284.777915,57.928827 284.815948,58.1150829 C285.318199,60.5669787 285.491659,76.146718 286.003863,80.7060782 C286.298175,83.3243246 272.973768,89.4231398 265.408009,78.6096327 C266.681588,71.2958886 263.023649,69.1660308 262.131825,61.2931635 C261.955521,59.7370024 260.520924,59.5820261 259.001374,59.2031161 C256.954692,58.6937559 249.90718,55.179064 247.983839,54.7624763 C247.679929,54.696718 247.438934,54.4727844 247.352204,54.1742062 C246.84391,52.4204147 245.690474,47.2265758 251.215592,44.5262204 C251.37519,44.4487322 255.388934,47.9225474 261.071161,48.3547749 C266.753744,48.7870024 268.222109,47.2862915 268.222109,47.2862915" id="Fill-179" fill="#0FBD8C" mask="url(#mask-4)"></path>
            <path d="M265.458341,45.962737 C265.458341,45.962737 265.028957,48.5795616 264.92872,53.4197275 C264.828128,58.2595379 271.878128,54.7309834 272.437962,51.1978081 C272.997796,47.6642773 268.46545,48.9520735 269.942701,42.7192536" id="Fill-180" fill="#A57955" mask="url(#mask-4)"></path>
            <path d="M268.908555,83.4953673 C268.800498,84.1817417 269.308436,84.8834005 270.241493,85.3483294 L298.871588,100.013851 C299.930829,100.542405 300.119218,101.455557 299.284621,102.022145 C298.450735,102.589088 296.931896,102.579491 295.94481,102.001884 L268.396706,86.6012915 C267.528341,86.0926422 266.31981,85.8665758 265.206896,86.0098223 C262.870166,86.3105332 259.879052,85.7610071 257.440308,84.4429976 C253.947299,82.554846 252.91045,79.8057938 255.123483,78.3025948 C257.336872,76.7990403 261.962701,77.1104147 265.455711,78.9985664 C267.8941,80.3165758 269.135687,82.054372 268.908555,83.4953673" id="Fill-181" fill="#CEAE7C" mask="url(#mask-4)"></path>
            <path d="M264.617275,79.5680687 C267.379479,81.0609597 268.199858,83.2352488 266.449621,84.4242299 C264.699028,85.6132109 261.040735,85.3665284 258.278531,83.8736374 C255.515972,82.3807464 254.695592,80.2068128 256.446185,79.0174763 C258.196777,77.8284953 261.855071,78.0751777 264.617275,79.5680687" id="Fill-182" fill="#AF916B" mask="url(#mask-4)"></path>
            <path d="M265.477607,53.8131754 C264.549171,56.2106872 265.911611,65.1374645 267.748934,67.9046445 C271.032938,72.85109 270.045142,80.5032227 269.129147,82.398128 C269.129147,82.398128 270.474171,83.2465877 270.917062,83.4527488 C271.360308,83.6585545 272.486374,73.5317773 269.400711,67.7496682 C265.438863,60.3264455 267.413389,54.1227725 267.413389,54.1227725 L265.477607,53.8131754 Z" id="Fill-183" fill="#0B8E69" mask="url(#mask-4)"></path>
            <path d="M274.733566,63.055237 L278.504893,64.5715877 L285.48878,70.9341469 C285.48878,70.9341469 286.209277,77.8572512 286.004182,80.7058294 C285.866268,82.6153081 283.053235,83.647891 281.542927,84.001564 C281.117808,84.1007346 284.380486,79.1994313 283.749917,74.6923223 C282.700273,67.1859242 278.992927,65.0034597 274.733566,63.055237" id="Fill-184" fill="#0DA57A" mask="url(#mask-4)"></path>
            <path d="M264.927618,49.0718957 C264.927618,49.0718957 262.082595,53.0444076 264.436031,55.9679858 L266.263045,53.916327 C266.263045,53.916327 264.367784,51.5301896 265.4775,49.252109 L264.927618,49.0718957 Z" id="Fill-185" fill="#0DA57A" mask="url(#mask-4)"></path>
            <path d="M267.529443,56.9101777 L266.262974,53.9162204 C268.198756,53.5810308 272.779443,49.6799645 271.257761,48.3701303 C271.257761,48.3701303 272.409419,48.7931161 273.065225,50.0062678 C273.721386,51.2194194 272.723993,53.5717891 271.013566,55.0131398 C269.317002,56.4434716 267.529443,56.9101777 267.529443,56.9101777" id="Fill-186" fill="#0DA57A" mask="url(#mask-4)"></path>
            <path d="M294.91436,97.8754621 C293.549787,101.540154 292.431185,102.850699 291.125972,102.454727 C289.820403,102.059111 290.289953,100.970723 290.289953,100.970723 C290.289953,100.970723 289.652986,101.357453 288.777156,100.741457 C287.901682,100.125818 288.364479,99.4166943 288.364479,99.4166943 C288.364479,99.4166943 287.654289,99.8709597 286.690664,99.3086374 C285.726682,98.7459597 286.100972,97.8978555 286.100972,97.8978555 C286.100972,97.8978555 285.25109,98.2842299 284.520284,97.7386137 C283.41981,96.9171682 285.544336,94.951173 286.383555,93.9260545 C287.625853,92.408282 284.07846,94.2360071 282.704645,92.9965521 C281.331185,91.7574526 282.092915,90.4924052 282.654171,90.6552014 C283.215071,90.8179976 284.548365,91.4574526 286.111991,91.1578081 C288.687938,90.6637322 288.975853,89.7207227 291.59481,90.0466706 C295.45109,90.5265284 296.190427,94.4485664 294.91436,97.8754621" id="Fill-187" fill="#B5875C" mask="url(#mask-4)"></path>
            <path d="M259.116825,33.4768365 C259.32263,34.4113152 259.479739,37.0128555 259.107227,39.2027844 C258.807227,40.9647512 258.950118,42.7775474 259.589218,44.4463863 C261.090995,48.3687796 263.154739,50.0720972 264.895379,50.2960308 C266.867062,50.5498223 274.652488,46.7070498 275.818009,41.1463863 C275.818009,41.1463863 280.306991,37.8908175 280.772986,33.3748223 C281.085782,30.3453199 279.604621,25.565936 273.716232,23.8981635 C264.310664,21.2347749 258.06327,28.6875 259.116825,33.4768365" id="Fill-188" fill="#B5875C" mask="url(#mask-4)"></path>
            <path d="M278.717595,39.7964929 C284.422216,36.1406872 279.254325,27.3973223 279.959538,25.6044313 C280.664751,23.8115403 275.920912,20.3462559 273.943543,21.4751659 C271.966173,22.6037204 268.058709,21.9148578 263.888211,24.4840521 C258.778614,27.6312085 259.782761,29.3633175 259.782761,29.3633175 C259.782761,29.3633175 271.402429,31.5052607 275.53205,36.4772986 C279.662026,41.4496919 278.717595,39.7964929 278.717595,39.7964929" id="Fill-189" fill="#FFBF00" mask="url(#mask-4)"></path>
            <path d="M258.598578,32.7721919 C258.598578,32.7721919 263.854265,31.232737 270.203673,34.7019313 C276.018128,37.8789455 275.818009,41.1465995 276.476303,41.5617654 C277.181872,42.0067891 279.850592,40.6749171 279.665403,39.8218365 C279.480569,38.9687559 277.35,32.9744431 271.392299,30.2726659 C264.65936,27.2193483 259.728555,27.6654384 258.282227,29.0257464 C257.149763,30.0910308 257.659834,33.0832109 258.598578,32.7721919" id="Fill-190" fill="#E6AC00" mask="url(#mask-4)"></path>
            <path d="M258.254573,32.5406872 C258.254573,32.5406872 257.514171,32.8346445 257.061327,32.3274171 C256.422583,31.6129621 256.755995,34.5159242 258.409194,34.0417536 C260.062393,33.5672275 260.433483,32.9665166 260.433483,32.9665166 C260.433483,32.9665166 259.936209,33.6596445 259.257654,34.1114218 C258.701374,34.4814455 261.681469,34.5553791 262.917014,32.4816825 C262.917014,32.4816825 260.286327,32.0263507 258.254573,32.5406872" id="Fill-191" fill="#473425" mask="url(#mask-4)"></path>
            <path d="M274.666386,39.4497512 C274.666386,39.4497512 274.59032,39.9523578 275.229775,41.1175237 C275.86923,42.2826896 277.158803,42.5425237 276.893637,42.2787796 C276.628472,42.015391 276.445059,41.8902725 276.125154,41.0460782 C275.805249,40.2022393 275.20987,38.758045 274.694822,38.3638507 C274.179419,37.9700118 274.666386,39.4497512 274.666386,39.4497512" id="Fill-192" fill="#473425" mask="url(#mask-4)"></path>
            <path d="M259.318685,29.1083531 C258.206836,29.3354858 258.67923,32.0511256 259.360273,31.9018365 C260.041315,31.7521919 259.820936,29.005628 259.318685,29.1083531" id="Fill-193" fill="#FFBF00" mask="url(#mask-4)"></path>
            <path d="M261.168661,28.930628 C260.056813,29.1581161 260.529206,31.8737559 261.210249,31.7241114 C261.891291,31.5744668 261.671268,28.8282583 261.168661,28.930628" id="Fill-194" fill="#FFBF00" mask="url(#mask-4)"></path>
            <path d="M263.216303,28.8855213 C262.090592,29.0284123 262.357536,31.7721327 263.04782,31.6743839 C263.73846,31.5762796 263.724953,28.8208294 263.216303,28.8855213" id="Fill-195" fill="#FFBF00" mask="url(#mask-4)"></path>
            <path d="M265.41686,29.1548616 C264.282263,29.1737204 264.247429,31.9305924 264.944467,31.9085545 C265.641505,31.8865166 265.929419,29.1463507 265.41686,29.1548616" id="Fill-196" fill="#FFBF00" mask="url(#mask-4)"></path>
            <path d="M274.363863,33.2206635 C273.369668,32.6736256 271.970261,35.0490995 272.586256,35.3761137 C273.201896,35.703128 274.813152,33.4677014 274.363863,33.2206635" id="Fill-197" fill="#FFBF00" mask="url(#mask-4)"></path>
            <path d="M276.105889,34.9469076 C275.150794,34.3334005 273.593922,36.608282 274.186102,36.9765284 C274.778282,37.3447749 276.537405,35.2238033 276.105889,34.9469076" id="Fill-198" fill="#FFBF00" mask="url(#mask-4)"></path>
            <path d="M277.681102,36.9369313 C276.853969,36.1595616 274.907879,38.1120498 275.422927,38.5823104 C275.937974,39.0522156 278.05468,37.2881161 277.681102,36.9369313" id="Fill-199" fill="#FFBF00" mask="url(#mask-4)"></path>
            <path d="M278.877974,39.0928791 C278.213637,38.172263 275.932002,39.7198934 276.34859,40.279372 C276.764822,40.8384953 279.177974,39.5084005 278.877974,39.0928791" id="Fill-200" fill="#FFBF00" mask="url(#mask-4)"></path>
            <path d="M267.8684,29.6835427 C266.737358,29.5886374 266.426694,32.3280924 267.12231,32.3760782 C267.818282,32.424064 268.379182,29.7265521 267.8684,29.6835427" id="Fill-201" fill="#FFBF00" mask="url(#mask-4)"></path>
            <path d="M269.970711,30.5631398 C268.850687,30.3804384 268.327109,33.0871919 269.017038,33.1895616 C269.706967,33.2915758 270.476872,30.6456043 269.970711,30.5631398" id="Fill-202" fill="#FFBF00" mask="url(#mask-4)"></path>
            <path d="M272.295889,31.7103555 C271.21923,31.3513507 270.270889,33.9397393 270.935581,34.1505213 C271.600273,34.3616588 272.7825,31.8724408 272.295889,31.7103555" id="Fill-203" fill="#FFBF00" mask="url(#mask-4)"></path>
            <path d="M274.594372,41.8070261 C275.184064,41.9051303 275.778377,41.0591588 276.445201,40.1687559 C277.458235,38.8166232 276.754799,36.9835664 275.498993,36.1095142 C274.022453,35.0815521 272.660012,36.8552488 272.909893,37.821718 C273.081931,38.48641 273.54295,38.0947038 273.522334,39.9554858 C273.509893,41.0947038 273.972334,41.7032346 274.594372,41.8070261" id="Fill-204" fill="#A57955" mask="url(#mask-4)"></path>
            <path d="M262.24436,35.4668957 C261.193294,34.8153555 259.195664,35.4356161 259.410355,35.7540995 C259.653839,36.1145261 262.466517,36.5065877 262.759763,36.1475829 C262.877417,36.003981 262.536896,35.6481754 262.24436,35.4668957" id="Fill-205" fill="#473425" mask="url(#mask-4)"></path>
            <path d="M266.702773,36.0420498 C267.8459,35.8966706 269.994597,36.9456043 269.624573,37.1819787 C269.205853,37.4499882 265.997559,37.0316232 265.852891,36.522263 C265.794597,36.3175237 266.312488,36.0918128 266.702773,36.0420498" id="Fill-206" fill="#473425" mask="url(#mask-4)"></path>
            <path d="M266.069111,45.2264929 C266.163661,45.1959242 266.262476,45.265237 266.262845,45.364763 C266.264609,45.7497156 266.085462,46.5629858 264.565557,46.6589573 C263.136647,46.7492417 262.729301,45.9352607 262.613424,45.4635782 C262.583566,45.3416588 262.708685,45.2414218 262.821718,45.2954502 C263.088661,45.4234123 263.573495,45.5776777 264.31141,45.5357346 C265.161291,45.4873934 265.782974,45.31891 266.069111,45.2264929" id="Fill-207" fill="#FFFFFF" mask="url(#mask-4)"></path>
            <path d="M264.115521,38.2973104 C264.115521,38.2973104 264.029147,40.4019313 263.056635,41.3097512 C262.084123,42.2172156 262.926896,43.146718 263.834716,43.168045" id="Stroke-208" stroke="#A57955" stroke-width="0.5" stroke-linecap="round" stroke-linejoin="round" mask="url(#mask-4)"></path>
            <path d="M267.645036,39.3775237 C267.645036,39.882263 267.335438,40.2917417 266.95404,40.2917417 C266.572287,40.2917417 266.263045,39.882263 266.263045,39.3775237 C266.263045,38.8724289 266.572287,38.4633057 266.95404,38.4633057 C267.335438,38.4633057 267.645036,38.8724289 267.645036,39.3775237" id="Fill-209" fill="#231F20" mask="url(#mask-4)"></path>
            <path d="M261.762227,38.6353791 C261.762227,39.1401185 261.422773,39.6014929 261.041374,39.6014929 C260.659621,39.6014929 260.380237,39.1401185 260.380237,38.6353791 C260.380237,38.1302844 260.689479,37.7211611 261.071232,37.7211611 C261.45263,37.7211611 261.762227,38.1302844 261.762227,38.6353791" id="Fill-210" fill="#231F20" mask="url(#mask-4)"></path>
            <path d="M288.554787,95.0693602 C288.486185,91.7267062 289.332512,78.0504028 289.951351,75.2327488 C288.240569,72.8583412 281.178128,67.6243365 279.996967,65.8922275 C277.227654,61.8304976 282.24519,56.1927014 284.815806,58.1149763 C290.275877,62.1976777 295.474692,68.9622512 295.973389,73.4370142 C296.735474,80.2719668 294.544123,91.902654 294.544123,91.902654" id="Fill-211" fill="#B5875C" mask="url(#mask-4)"></path>
            <path d="M232.15987,22.5686374 C233.248258,22.4872393 234.609277,22.3479028 235.352879,24.0849882 C236.572429,26.9339218 243.081434,27.6668602 242.957737,21.0483768 C242.939609,20.0907938 243.553827,17.1856991 244.510344,15.0885427 C245.105367,13.7836848 244.015201,13.2522867 243.353709,14.4697038 C242.835818,15.4226659 242.33641,18.0867654 242.263543,17.8951777 C242.190675,17.7032346 242.347429,14.6481398 243.718756,12.3149645 C244.606315,10.8057227 243.207974,9.94873223 242.362002,11.3268128 C241.249088,13.139609 240.863424,16.7029976 240.73795,16.4950592 C240.601457,16.268282 240.630249,13.1289455 241.973851,10.1765758 C242.761528,8.44588863 240.884396,7.90809242 240.087476,9.73475118 C238.606315,13.1296564 239.171126,16.5458886 238.85904,16.4015758 C238.597073,16.2800118 238.091268,13.093045 239.449799,9.32776066 C239.990794,7.82811611 237.897903,7.61200237 237.214017,9.44292654 C236.276694,11.9524052 236.401813,14.1561967 236.501694,16.6656754 C236.593756,18.9657938 236.441623,20.32859 234.588661,20.0147275 C230.732382,19.3621209 230.440557,22.696955 232.15987,22.5686374" id="Fill-212" fill="#A57955" mask="url(#mask-4)"></path>
            <path d="M266.587358,104.113898 L274.871836,108.191979 L279.491623,104.242927 C279.491623,104.242927 273.019941,99.8271682 272.535818,99.328827 C270.665083,97.4037085 264.918519,100.948258 266.587358,104.113898" id="Fill-213" fill="#FFBF00" mask="url(#mask-4)"></path>
            <path d="M280.774479,105.311126 C280.103389,103.812192 277.582891,103.227476 276.974005,102.391813 C275.783602,100.758874 273.039171,100.65686 271.709431,101.979135 C270.580166,103.102002 269.506351,102.518353 268.689882,103.32096 C267.14154,104.844064 266.378744,107.201055 264.231825,107.927239 C263.175782,108.284467 258.221161,111.156505 258.890829,113.821315 L280.774479,105.311126 Z" id="Fill-214" fill="#B5875C" mask="url(#mask-4)"></path>
            <path d="M280.93173,106.09109 C280.710995,103.141919 279.228412,103.281256 275.167749,104.843815 C274.399976,105.139194 274.291564,103.981848 273.642512,104.257322 C269.525332,106.00436 267.176517,108.070237 263.261232,109.313602 C257.367512,111.185403 257.344052,116.174502 263.244171,116.087773 C272.323081,115.954123 271.29654,111.132441 274.441919,110.437891 C275.563365,111.820592 281.191919,109.574858 280.93173,106.09109" id="Fill-215" fill="#F1F2F2" mask="url(#mask-4)"></path>
            <path d="M274.827441,104.880711 C274.827441,104.880711 275.279573,110.906659 275.786445,110.845521 C275.786445,110.845521 275.057773,110.930829 274.441777,110.43782 L273.642725,104.257251 C273.642725,104.257251 273.903626,104.069929 274.251611,104.443863 C274.599953,104.817796 274.659313,104.875024 274.827441,104.880711" id="Fill-216" fill-opacity="0.2" fill="#231F20" mask="url(#mask-4)"></path>
            <path d="M249.840391,55.6418246 C250.433993,55.2447867 247.515036,53.0648104 249.656979,48.7805687 C251.798922,44.496327 253.906742,46.6659953 254.22487,46.1221564 C254.355675,45.8996445 252.831505,44.1348341 251.850818,43.825237 C250.869775,43.5156398 246.177121,45.7350711 246.17285,51 C246.167524,57.4005924 249.840391,55.6418246 249.840391,55.6418246" id="Fill-217" fill="#0DA57A" mask="url(#mask-4)"></path>
            <path d="M282.061919,68.4133649 C282.655521,68.0159716 281.039289,66.3414455 283.183365,62.0582701 C284.994739,58.4401422 286.227796,59.8196445 286.545924,59.2758057 C286.676374,59.0532938 285.388578,57.0034123 284.360972,57.0393128 C283.333009,57.0748578 279.664408,57.7111137 279.187393,61.8570853 C278.455877,68.2153791 282.061919,68.4133649 282.061919,68.4133649" id="Fill-218" fill="#0DA57A" mask="url(#mask-4)"></path>
            <path d="M177.28013,76.113519 C176.271007,76.3541588 175.207855,76.9502488 173.122073,76.4003673 C171.241386,75.9038033 170.333922,75.9887559 168.976102,75.6663626 C167.824443,75.3930213 167.063424,75.1232346 165.366505,74.6604384 C165.366505,75.6165995 168.407382,78.1271445 170.20987,78.2597275 C173.534396,78.8732346 174.155012,79.0665995 175.50359,80.2932583 C176.252168,80.9743009 177.71769,81.4367417 177.152524,80.3270261 C176.533329,79.1113863 176.717808,76.24859 179.414609,76.4764336 C179.744822,75.2426659 177.28013,76.113519 177.28013,76.113519" id="Fill-219" fill="#F1F2F2" mask="url(#mask-4)"></path>
            <path d="M179.11987,75.0496209 C177.855889,74.095237 174.271528,75.5156161 172.250794,74.4140758 C170.527571,73.4746209 167.517974,73.8581517 166.103637,74.145 L166.103637,74.0269905 L165.336576,74.0269905 L165.336576,74.5562559 L165.337287,74.5562559 C165.334443,75.105782 167.999254,75.8088626 167.999254,75.8088626 C167.999254,75.8088626 171.74641,77.1243839 174.29641,77.0835071 C176.59013,77.0465403 178.881007,75.9666825 179.404941,75.7043602 L179.517618,75.7043602 L179.517618,75.0496209 L179.11987,75.0496209 Z" id="Fill-220" fill="#F1F2F2" mask="url(#mask-4)"></path>
            <path d="M166.102536,73.6267536 C167.516161,73.3395498 170.52718,72.9553081 172.250758,73.8951185 C174.571493,75.1601659 178.955972,73.0981991 179.517583,75.1281754 C179.517583,75.1281754 176.907867,76.5226066 174.296374,76.5649052 C171.746374,76.6054265 167.999218,75.2902607 167.999218,75.2902607 C167.999218,75.2902607 163.609763,74.1329147 166.102536,73.6267536" id="Fill-221" fill="#C49A6C" mask="url(#mask-4)"></path>
            <path d="M210.27263,58.097346 C214.345379,57.9988863 223.013389,61.578981 226.750592,63.5026777 C230.868483,65.6222275 226.750592,79.8999526 227.733057,82.9106161 C230.345616,90.9192654 220.937915,90.401019 220.349645,88.5540995 C219.097393,84.626019 216.441469,79.676019 218.575237,70.8665403 C218.575237,70.8665403 208.589573,70.7691469 204.082464,66.7088389 C201.826066,77.4875118 204.308886,82.8555213 200.207701,87.4930806 C196.719668,91.4371564 179.487441,83.1238863 177.681043,81.4131043 C175.206754,79.0703318 176.800237,74.8187915 180.482701,76.6191469 C182.487441,77.5994787 187.645024,78.3462796 189.459597,78.7980569 C190.802488,79.1325355 191.077251,80.0517299 191.170379,78.4859716 C191.304028,76.2370379 192.909242,74.8788626 191.822275,69.7628673 C190.403673,63.0868009 191.357701,56.2390521 192.957583,53.8131043" id="Fill-222" fill="#B5875C" mask="url(#mask-4)"></path>
            <path d="M189.407453,33.9295024 C189.407453,33.9295024 188.999751,31.9912322 192.270604,31.5234597 C196.245249,30.9561611 200.85686,26.2208531 215.474751,31.2028436 C220.600699,32.9498815 214.569419,41.5030806 212.917642,41.2969194 C212.917642,41.2969194 208.516457,57.37109 210.305794,60.3302133 C212.09513,63.2900474 197.380201,66.3991706 193.794775,65.360545 C190.209348,64.3222749 191.187547,39.2491706 191.187547,39.2491706 L189.407453,33.9295024 Z" id="Fill-223" fill="#414042" mask="url(#mask-4)"></path>
            <path d="M232.15987,22.5686374 C232.15987,22.5686374 225.561291,31.1868839 223.599917,32.3769313 C221.566386,32.7295379 215.47468,31.2028791 215.47468,31.2028791 C215.47468,31.2028791 210.589727,38.1757464 212.917571,41.2965995 C219.82859,40.0688744 224.675154,40.3926896 226.885344,39.296481 C229.190794,38.1526422 237.704893,27.568045 237.606789,22.8441114 C237.50904,18.1198223 232.15987,22.5686374 232.15987,22.5686374" id="Fill-224" fill="#414042" mask="url(#mask-4)"></path>
            <polygon id="Fill-225" fill="#535354" mask="url(#mask-4)" points="186.89378 77.7564455 187.870557 78.5363033 214.498045 45.1797867 213.521623 44.3999289"></polygon>
            <path d="M214.498116,45.1796445 C218.279396,48.1977725 215.383898,58.1119905 208.030699,67.323128 C200.6775,76.5346209 191.651552,81.5546445 187.870273,78.5365166 C184.089348,75.5180332 186.984846,65.6038152 194.338045,56.3926777 C201.690889,47.1815403 210.716836,42.1611611 214.498116,45.1796445" id="Fill-226" fill="#535354" mask="url(#mask-4)"></path>
            <path d="M213.521481,44.4 C217.302761,47.418128 214.406908,57.332346 207.054064,66.5434834 C199.700865,75.7546209 190.674917,80.775 186.893637,77.7565166 C183.112713,74.7383886 186.008211,64.8241706 193.361055,55.6130332 C200.714254,46.4018957 209.740201,41.3815166 213.521481,44.4" id="Fill-227" fill="#404041" mask="url(#mask-4)"></path>
            <path d="M212.692393,45.43859 C216.11218,48.1688033 213.295237,57.3838507 206.399858,66.0212915 C199.504834,74.6590877 191.142867,79.4480687 187.722725,76.7178555 C184.302938,73.9876422 187.120237,64.7725948 194.015261,56.135154 C200.910284,47.4973578 209.272251,42.7083768 212.692393,45.43859" id="Fill-228" fill="#535354" mask="url(#mask-4)"></path>
            <path d="M196.332654,65.9325 L195.13763,64.9784716 C194.237986,64.2604621 194.090829,62.9488507 194.809194,62.0492062 L199.958602,55.5988507 C200.676611,54.6988507 201.988223,54.5516943 202.887867,55.2700592 L204.082536,56.2240877" id="Stroke-229" stroke="#404041" stroke-width="1.06635071" stroke-linecap="round" stroke-linejoin="round" mask="url(#mask-4)"></path>
            <path d="M227.133235,19.7399645 C229.152903,20.1974289 229.429088,20.7707701 231.405391,22.9308412 C234.768306,26.6069076 239.09378,24.9135427 239.286434,17.4345142 C239.290344,17.2884242 239.284301,17.1458886 239.269017,17.007263 C239.648282,15.2580924 239.977784,12.8776422 239.76096,11.3712441 C239.562263,9.98925355 238.28904,10.0631872 238.259538,11.1963626 C238.232168,12.2424526 238.394254,14.9168602 238.217239,14.7796564 C238.063329,14.6605806 238.147927,10.0774052 237.539751,8.4768128 C236.982405,7.00880332 235.637382,7.34861374 235.887618,8.59055687 C236.172334,9.99956161 236.730391,13.4868839 236.510012,13.3326185 C236.270083,13.1644905 235.938092,9.33984597 234.880983,6.96579384 C234.110367,5.23297393 231.893424,5.77219194 232.697097,7.46911137 C234.486078,11.2461256 235.010367,13.9479028 234.620083,13.907737 C234.292713,13.8736137 234.364159,11.6136611 232.286197,7.92728673 C231.250415,6.08996445 229.422334,6.7546564 230.355391,8.53617299 C231.53122,10.7811967 232.327429,13.2067891 232.456813,15.6085664 C232.546386,17.2866469 232.432642,19.4982583 230.736789,18.2808412 C227.211789,15.7489692 225.271031,19.318045 227.133235,19.7399645" id="Fill-230" fill="#ECC293" mask="url(#mask-4)"></path>
            <path d="M230.182855,7.23220379 C230.419941,6.72675355 231.566979,7.37118483 232.146007,8.41834123 C233.604064,11.0543602 233.886291,13.9153791 234.619941,13.9075592 C234.619941,13.9075592 234.525746,13.9587441 234.389609,13.4006872 C234.253827,12.8426303 233.791031,11.1609953 233.509514,10.4831517 C233.227998,9.80601896 232.449206,7.46182464 231.328116,6.95175355 C230.477879,6.5650237 230.182855,7.23220379 230.182855,7.23220379" id="Fill-231" fill="#ECC293" mask="url(#mask-4)"></path>
            <path d="M233.452536,5.90271327 C233.907512,6.17854265 234.362488,6.50520142 235.03891,8.72143365 C235.715332,10.9376659 235.886659,13.3376659 236.510118,13.332343 C236.510118,13.332343 236.42481,13.2751066 236.266635,12.4092299 C236.108104,11.5426422 235.740213,9.49418246 235.44981,8.58067536 C235.159763,7.6668128 234.922322,6.07332938 233.452536,5.90271327" id="Fill-232" fill="#ECC293" mask="url(#mask-4)"></path>
            <path d="M236.067405,7.75148104 C236.067405,7.75148104 236.246908,7.64875592 236.52096,7.8346564 C236.856505,8.0625 237.037429,8.54733412 236.990509,9.03216825 C236.887429,10.0906991 236.702595,12.5386848 236.870367,15.230154 C237.115273,19.1656991 236.803187,21.1771919 235.191931,20.8931872 C235.191931,20.8931872 236.660296,21.6375 237.161836,20.912737 C237.663377,20.1879739 237.639917,15.5305095 237.639917,15.5305095 L237.640273,8.93975118 C237.640273,8.93975118 237.270604,7.51119668 236.510296,7.51119668 C236.222737,7.51119668 236.067405,7.75148104 236.067405,7.75148104" id="Fill-233" fill="#ECC293" mask="url(#mask-4)"></path>
            <path d="M239.107464,10.370154 C239.107464,10.370154 239.593365,10.5759597 239.724882,11.1844905 C239.856398,11.7930213 239.844668,13.423827 239.697156,14.4724052 L239.248223,14.2502488 L239.107464,10.370154 Z" id="Fill-234" fill="#ECC293" mask="url(#mask-4)"></path>
            <path d="M192.788566,58.2295735 C192.788566,58.2295735 177.381576,54.7621564 176.821742,50.0051659 C176.009182,43.1023223 188.778021,32.722109 190.760367,31.9337204 C193.48205,30.8517299 195.334656,39.1134597 192.184656,41.7956872 C191.125059,42.6978199 185.910604,47.7633412 185.988448,48.0580095 C188.35077,48.4618009 193.580509,52.5334834 195.50705,53.7213981 C197.326955,54.8442654 192.788566,58.2295735 192.788566,58.2295735" id="Fill-235" fill="#414042" mask="url(#mask-4)"></path>
            <path d="M193.391517,60.0044076 C195.014147,62.4538152 196.055616,63.2222986 196.943531,62.7100948 C197.83109,62.1982464 197.262014,61.4805924 197.262014,61.4805924 C197.262014,61.4805924 197.966517,61.576564 198.50218,60.976564 C199.038199,60.3769194 198.340095,59.80891 198.340095,59.80891 C198.340095,59.80891 199.175047,60.0001422 199.784289,59.4243128 C200.393886,58.8488389 199.87564,58.4134123 199.87564,58.4134123 C199.87564,58.4134123 200.532156,58.658673 200.974336,58.1347393 C201.639739,57.3459953 199.750166,56.2693365 198.961066,55.661872 C197.794123,54.7629384 200.700995,55.4962322 201.495071,54.3555924 C202.289502,53.2149526 201.516398,52.4187441 201.133578,52.633436 C200.750758,52.848128 199.884171,53.5433886 198.688791,53.5899526 C196.719597,53.6670853 196.348507,53.0262085 194.48737,53.7104502 C191.747559,54.7185071 191.8741,57.7142417 193.391517,60.0044076" id="Fill-236" fill="#ECC293" mask="url(#mask-4)"></path>
            <path d="M188.753993,41.6334597 C189.732192,40.974455 190.089775,40.8934123 190.185391,42.3361848 C190.281007,43.7786019 191.634206,39.3152133 191.634206,39.3152133 L188.922476,39.3152133 L188.753993,41.6334597 Z" id="Fill-237" fill="#414042" mask="url(#mask-4)"></path>
            <path d="M197.225261,26.6608294 C197.225261,26.6608294 197.964597,30.1172275 197.225261,30.845545 C196.48628,31.5738626 198.963768,33.5697156 201.751209,33.2945972 C204.538294,33.0194787 205.425853,31.1206635 204.366256,30.2259953 C203.307014,29.3320379 202.920995,27.6990995 202.920995,26.83891 C202.920995,25.9787204 197.051801,25.6733886 197.225261,26.6608294" id="Fill-238" fill="#E8B182" mask="url(#mask-4)"></path>
            <path d="M199.619182,4.85338863 C199.619182,4.85338863 191.52878,4.47270142 190.771315,15.2357346 C190.11231,24.6050474 199.683519,30.0263744 202.45532,30.2215166 C205.138969,30.4102607 212.54904,26.1228199 209.991931,20.5109716 C211.813258,6.9093128 206.262903,5.32080569 199.619182,4.85338863" id="Fill-239" fill="#ECC293" mask="url(#mask-4)"></path>
            <path d="M206.062216,22.464846 C207.799656,22.5046564 208.819443,20.3829739 207.525249,20.1860545 C206.109846,19.9702962 205.692903,18.8293009 205.902618,16.5718365" id="Stroke-240" stroke="#E8B182" stroke-width="0.5" stroke-linecap="round" stroke-linejoin="round" mask="url(#mask-4)"></path>
            <path d="M203.284941,19.2772393 C203.255438,19.6991588 202.972855,20.0226185 202.654017,20.0002251 C202.335178,19.9778318 202.100936,19.6177607 202.130438,19.1958412 C202.160296,18.7742773 202.442524,18.4508175 202.761363,18.4728555 C203.080201,18.4956043 203.314443,18.8553199 203.284941,19.2772393" id="Fill-241" fill="#231F20" mask="url(#mask-4)"></path>
            <path d="M209.55096,18.1869313 C209.521457,18.6084953 209.238874,18.9323104 208.920036,18.9095616 C208.601197,18.8871682 208.366955,18.5270972 208.396457,18.1055332 C208.426315,17.6839692 208.708543,17.360154 209.027382,17.3825474 C209.34622,17.4052962 209.580462,17.7650118 209.55096,18.1869313" id="Fill-242" fill="#231F20" mask="url(#mask-4)"></path>
            <path d="M199.260604,16.0865047 C199.460012,16.3754858 199.841055,16.4924289 200.161315,16.3484716 C201.131694,15.9137559 202.47032,16.0982346 202.287263,15.5003673 C202.080036,14.8225237 199.455746,14.6081872 199.162145,15.3397038 C199.044135,15.6336611 199.1234,15.8874526 199.260604,16.0865047" id="Fill-243" fill="#A57955" mask="url(#mask-4)"></path>
            <path d="M209.559633,15.155545 C209.43878,15.3929858 209.164017,15.5191706 208.908448,15.4438152 C208.134633,15.2149052 207.146481,15.4889573 207.223614,15.0208294 C207.311055,14.4901422 209.263187,14.0632464 209.558211,14.583981 C209.676576,14.7926303 209.642453,14.9916825 209.559633,15.155545" id="Fill-244" fill="#A57955" mask="url(#mask-4)"></path>
            <path d="M203.401564,25.2921327 C204.285213,25.8459242 206.831659,25.5341943 207.855711,24.7948578 C209.148483,23.8618009 207.90263,27.6981754 205.103815,27.9501896 C202.305355,28.2022038 202.517915,24.7386967 203.401564,25.2921327" id="Fill-245" fill="#231F20" mask="url(#mask-4)"></path>
            <path d="M207.855782,24.7947156 C207.855782,24.7947156 207.104716,26.2108294 205.389313,26.495545 C203.673555,26.7802607 203.530308,25.3605924 203.530308,25.3605924 C203.530308,25.3605924 204.618697,25.6844076 205.661943,25.5177014 C206.683863,25.3549052 207.855782,24.7947156 207.855782,24.7947156" id="Fill-246" fill="#FFFFFF" mask="url(#mask-4)"></path>
            <path d="M194.2291,6.02594787 C194.2291,6.02594787 193.180521,5.46966825 191.499953,6.83033175 C189.693199,8.29336493 188.427085,13.20391 190.267962,17.0409953 C192.108839,20.8780806 191.058483,22.6901659 193.338697,21.8331754 C194.421398,21.4261848 191.024005,16.3293839 195.795213,15.9451422 C198.803033,15.7030806 195.702085,10.0922986 200.360616,13.3112559 C203.507062,15.4844787 212.817014,14.2080569 212.648531,11.4227488 C212.480403,8.63779621 211.168436,10.2248815 209.443436,6.34443128 C207.718081,2.46362559 198.622109,-2.12168246 194.2291,6.02594787" id="Fill-247" fill="#A57955" mask="url(#mask-4)"></path>
            <path d="M196.227476,17.1535664 C196.435415,16.8350829 196.35686,16.4042773 196.033756,16.2030924 C195.479609,15.8590166 194.540865,15.6443246 193.396671,16.8421919 C192.000107,18.3038033 193.181623,21.298827 194.997618,21.709372 C195.479609,21.8184953 195.897974,21.3592536 195.783164,20.8783294 C195.685059,20.4688507 195.590154,19.9097275 195.569893,19.231173 C195.544301,18.3756043 195.92641,17.6152962 196.227476,17.1535664" id="Fill-248" fill="#E8B182" mask="url(#mask-4)"></path>
            <path d="M242.29436,111.342654 C242.29436,115.911611 234.576114,119.615758 225.054668,119.615758 C215.533223,119.615758 207.814976,115.911611 207.814976,111.342654 C207.814976,106.773697 215.533223,103.06955 225.054668,103.06955 C234.576114,103.06955 242.29436,106.773697 242.29436,111.342654" id="Fill-249" fill="#404041" mask="url(#mask-4)"></path>
            <polygon id="Fill-250" fill="#404041" mask="url(#mask-4)" points="203.968756 95.0891588 207.847073 111.837263 242.200273 112.210486 246.275865 94.5890403"></polygon>
            <path d="M246.395261,93.6604265 C246.395261,98.4984597 236.840758,102.420853 225.054739,102.420853 C213.268365,102.420853 203.713863,98.4984597 203.713863,93.6604265 C203.713863,88.8223934 213.268365,84.9 225.054739,84.9 C236.840758,84.9 246.395261,88.8223934 246.395261,93.6604265" id="Fill-251" fill="#535354" mask="url(#mask-4)"></path>
            <path d="M245.398507,93.6604265 C245.398507,98.0438389 236.290095,101.597275 225.054668,101.597275 C213.818886,101.597275 204.710829,98.0438389 204.710829,93.6604265 C204.710829,89.2770142 213.818886,85.7235782 225.054668,85.7235782 C236.290095,85.7235782 245.398507,89.2770142 245.398507,93.6604265" id="Fill-252" fill="#404041" mask="url(#mask-4)"></path>
            <path d="M203.713969,93.6604265 C203.713969,93.6604265 198.729491,112.651777 225.054846,112.651777 C251.379846,112.651777 246.395367,93.6604265 246.395367,93.6604265" id="Stroke-253" stroke="#535354" stroke-width="0.710900474" stroke-linecap="round" stroke-linejoin="round" mask="url(#mask-4)"></path>
            <path d="M205.651777,96.0520735 C205.651777,96.0520735 208.595616,93.7380924 212.461137,94.0444905 C215.766825,94.3061019 218.71173,91.6423578 221.513389,91.2225711 C224.266351,90.8098934 228.506872,92.4119076 231.109834,92.0404621 C233.712796,91.6686611 236.86955,92.58359 238.530924,93.7604858 C240.192654,94.9366706 243.99846,94.412737 244.98519,95.2597749 C244.98519,95.2597749 241.506398,101.597453 225.054739,101.597453 C209.159716,101.597453 205.651777,96.0520735 205.651777,96.0520735" id="Fill-254" fill="#CCCEA5" mask="url(#mask-4)"></path>
            <path d="M206.309538,96.7497867 C206.309538,96.7497867 208.595794,94.5690995 212.461315,94.8427962 C215.766647,95.0770379 218.711908,92.6951659 221.513211,92.319455 C224.266528,91.9504976 228.506694,93.3829621 231.109656,93.0509716 C233.712618,92.7186256 236.869727,93.536872 238.531102,94.5890047 C240.192476,95.6411374 243.480391,95.2824882 244.467121,96.0406635 C244.467121,96.0406635 240.26641,101.597417 225.054562,101.597417 C209.842713,101.597417 206.309538,96.7497867 206.309538,96.7497867" id="Fill-255" fill="#D9DDAF" mask="url(#mask-4)"></path>
            <path d="M215.078495,98.3545024 C214.54532,98.0104265 213.97731,98.6296209 213.426718,98.3545024 C212.876126,98.0793839 212.962145,97.3396919 213.97731,96.874763 C214.992476,96.4101896 216.024704,96.9952607 215.646505,97.3738152 C215.26795,97.7523697 216.575296,97.80391 216.351718,98.3026066 C216.12814,98.8020142 215.078495,98.3545024 215.078495,98.3545024" id="Fill-256" fill="#B5875C" mask="url(#mask-4)"></path>
            <path d="M234.081363,97.1090403 C234.614538,96.7649645 235.182547,97.3841588 235.73314,97.1090403 C236.283732,96.8339218 236.043803,95.7050118 235.028637,95.2404384 C234.013472,94.7758649 232.7566,95.3712441 233.135154,95.7497986 C233.513709,96.1283531 232.017618,96.6512204 232.241197,97.1499171 C232.464775,97.6493246 234.081363,97.1090403 234.081363,97.1090403" id="Fill-257" fill="#B5875C" mask="url(#mask-4)"></path>
            <path d="M227.985604,100.367808 C227.985604,100.367808 229.706339,98.1995616 232.218306,99.129064 C232.218306,99.129064 232.080746,101.090083 227.985604,100.367808" id="Fill-258" fill="#59C059" mask="url(#mask-4)"></path>
            <path d="M209.455166,96.8695379 C209.455166,96.8695379 210.219739,95.9059123 211.336209,96.3189455 C211.336209,96.3189455 211.275071,97.1905095 209.455166,96.8695379" id="Fill-259" fill="#59C059" mask="url(#mask-4)"></path>
            <path d="M235.524171,99.513519 L234.947275,99.3745379 C234.68282,99.3109123 234.581517,99.106173 234.720853,98.9177844 L235.025118,98.5068839 C235.16481,98.3184953 235.492536,98.2175474 235.756991,98.2808175 L236.333531,98.420154 C236.598341,98.4841351 236.699645,98.688519 236.559953,98.8769076 L236.256043,99.2878081 C236.116351,99.4765521 235.788626,99.5775 235.524171,99.513519" id="Fill-260" fill="#FFFAE6" mask="url(#mask-4)"></path>
            <path d="M217.895545,100.1491 L218.472441,100.009763 C218.736896,99.9464929 218.838199,99.7417536 218.698863,99.5533649 L218.394597,99.1424645 C218.254905,98.9537204 217.92718,98.8527725 217.662725,98.9163981 L217.086185,99.0553791 C216.82173,99.1193602 216.720071,99.3237441 216.859763,99.5121327 L217.164028,99.9230332 C217.303365,100.111777 217.63109,100.213081 217.895545,100.1491" id="Fill-261" fill="#FFFAE6" mask="url(#mask-4)"></path>
            <path d="M221.433555,94.5490521 L220.847062,94.4591232 C220.577986,94.417891 220.459976,94.2227488 220.582962,94.0233412 L220.851327,93.5879147 C220.974313,93.3881517 221.292441,93.2598341 221.561517,93.3010664 L222.148009,93.3906398 C222.417085,93.431872 222.535095,93.6273697 222.411754,93.8271327 L222.143744,94.2618483 C222.020403,94.4616114 221.70263,94.5899289 221.433555,94.5490521" id="Fill-262" fill="#FFFAE6" mask="url(#mask-4)"></path>
            <path d="M226.018649,95.5324408 C223.773981,95.1673934 221.082512,96.2255687 221.130498,97.277346 C221.178483,98.3291232 225.347559,98.7041232 227.551706,98.1243839 C229.756209,97.5446445 227.696374,95.8054265 226.018649,95.5324408" id="Fill-263" fill="#CCCEA5" mask="url(#mask-4)"></path>
            <path d="M225.717014,95.8836967 C224.037512,95.6103555 222.023531,96.402654 222.059431,97.1892654 C222.095332,97.9762322 225.214763,98.2570379 226.864408,97.8230332 C228.513697,97.3893839 226.972464,96.0877251 225.717014,95.8836967" id="Fill-264" fill="#D9DDAF" mask="url(#mask-4)"></path>
            <path d="M217.811517,94.8579739 C216.955948,94.7186374 215.930474,95.1220735 215.948602,95.5230213 C215.96673,95.9236137 217.555592,96.0665047 218.395877,95.8457701 C219.235806,95.6246801 218.450972,94.9621209 217.811517,94.8579739" id="Fill-265" fill="#CCCEA5" mask="url(#mask-4)"></path>
            <path d="M217.696635,94.9919431 C217.056469,94.8877962 216.289052,95.1895735 216.302559,95.489218 C216.316422,95.789218 217.505047,95.8962085 218.133839,95.7309242 C218.76263,95.5656398 218.175071,95.0697867 217.696635,94.9919431" id="Fill-266" fill="#D9DDAF" mask="url(#mask-4)"></path>
            <path d="M224.745427,100.071363 C223.889858,99.9320261 222.864384,100.335462 222.882512,100.73641 C222.90064,101.137002 224.489502,101.279893 225.329787,101.059159 C226.169716,100.838069 225.384882,100.175154 224.745427,100.071363" id="Fill-267" fill="#CCCEA5" mask="url(#mask-4)"></path>
            <path d="M224.46128,100.402145 C224.13782,100.349538 223.750379,100.501671 223.757133,100.653448 C223.764242,100.80487 224.364597,100.858898 224.68237,100.775367 C224.999787,100.691836 224.702986,100.441244 224.46128,100.402145" id="Fill-268" fill="#D9DDAF" mask="url(#mask-4)"></path>
        </g>
        <g id="Group-3" transform="translate(114.000000, 91.000000)">
            <g id="Group" transform="translate(3.912782, 42.000000)">
                <mask id="mask-6" fill="white">
                    <use xlink:href="#path-5"></use>
                </mask>
                <use id="Rectangle" fill="#B5875C" transform="translate(34.215830, 19.330313) rotate(8.000000) translate(-34.215830, -19.330313) " xlink:href="#path-5"></use>
                <mask id="mask-8" fill="white">
                    <use xlink:href="#path-7"></use>
                </mask>
                <use id="Rectangle" fill-opacity="0.15" fill="#000000" transform="translate(34.215830, 19.330313) rotate(8.000000) translate(-34.215830, -19.330313) " xlink:href="#path-7"></use>
                <path d="M14.5853449,2.71140169 C19.4486544,3.20704805 23.8117297,6.0027023 28.4315477,7.27570464 C38.7130647,10.1088022 54.1514925,14.2873685 59.2893499,15.0297014 C64.4272072,15.7720342 66.424468,21.0311418 65.2136885,25.6753537 C64.0029089,30.3195656 62.5145021,31.8333272 54.9047292,31.847912 C47.2949562,31.8624336 39.1149138,26.8370603 34.7259701,26.8454539 C30.2308616,26.8540505 14.6834256,20.7648003 10.2007242,19.5295807 C5.71802278,18.2943612 2.92286951,12.3931523 4.36540139,8.20912483 C5.80793328,4.02509741 9.72203538,2.21575533 14.5853449,2.71140169 Z" id="Rectangle-Copy" fill="#B5875C" mask="url(#mask-8)" transform="translate(34.770169, 17.239733) rotate(8.000000) translate(-34.770169, -17.239733) "></path>
                <g id="Oval" mask="url(#mask-8)" transform="translate(57.998345, 29.290102) rotate(30.000000) translate(-57.998345, -29.290102) ">
                    <use fill="#ECC293" fill-rule="evenodd" xlink:href="#path-9"></use>
                    <use fill="black" fill-opacity="1" filter="url(#filter-10)" xlink:href="#path-9"></use>
                </g>
            </g>
            <g id="Group-2" transform="translate(0.112782, 40.800000)">
                <mask id="mask-12" fill="white">
                    <use xlink:href="#path-11"></use>
                </mask>
                <use id="Rectangle" fill="#B5875C" transform="translate(34.341189, 20.462814) scale(-1, 1) rotate(9.000000) translate(-34.341189, -20.462814) " xlink:href="#path-11"></use>
                <mask id="mask-14" fill="white">
                    <use xlink:href="#path-13"></use>
                </mask>
                <use id="Rectangle" fill-opacity="0.15" fill="#000000" transform="translate(34.341189, 20.462814) scale(-1, 1) rotate(9.000000) translate(-34.341189, -20.462814) " xlink:href="#path-13"></use>
                <path d="M13.4667296,4.94763298 C17.6497143,6.83298269 22.5043324,6.84024229 27.0111679,8.1535873 C37.0412395,11.0764684 52.0675344,16.8821274 57.0774507,17.6563114 C62.0873671,18.4304953 64.05179,23.7980519 62.8875433,28.5278994 C61.7232966,33.2577469 60.2778306,34.7956949 52.8613405,34.7846637 C45.4448504,34.7735136 35.9471674,31.2435869 33.1779709,29.6167486 C28.7544784,27.0180502 13.6236916,23.3502906 9.25061942,22.0759258 C4.87754721,20.801561 2.13330975,14.7767746 3.5249883,10.5167953 C4.91666684,6.256816 9.28374503,3.06228327 13.4667296,4.94763298 Z" id="Rectangle-Copy-2" fill="#B5875C" mask="url(#mask-14)" transform="translate(33.186916, 19.589262) scale(-1, 1) rotate(9.000000) translate(-33.186916, -19.589262) "></path>
                <g id="Oval" mask="url(#mask-14)" transform="translate(10.863748, 31.338288) scale(-1, 1) rotate(31.000000) translate(-10.863748, -31.338288) ">
                    <use fill="#ECC293" fill-rule="evenodd" xlink:href="#path-15"></use>
                    <use fill="black" fill-opacity="1" filter="url(#filter-16)" xlink:href="#path-15"></use>
                </g>
            </g>
            <path d="M35.712782,64.6275884 C44.0643445,63.6518087 50.712782,62.2485217 50.712782,59.3137942 C50.712782,56.3790667 43.9970532,54 35.712782,54 C27.4285107,54 20.712782,56.3790667 20.712782,59.3137942 C20.712782,62.2485217 27.3612195,65.6033681 35.712782,64.6275884 Z" id="Oval" fill-opacity="0.15" fill="#000000"></path>
            <path d="M34.512782,63.3664458 C41.6991101,62.2831747 47.112782,61.5383247 47.112782,59.2832229 C47.112782,57.0281212 41.4715698,55.2 34.512782,55.2 C27.5539941,55.2 21.912782,57.0281212 21.912782,59.2832229 C21.912782,61.5383247 27.3264538,64.449717 34.512782,63.3664458 Z" id="Oval" fill-opacity="0.5" fill="#FFBF00"></path>
            <path d="M37.0866459,61.1988656 C47.6517486,61.1148194 60.1636147,51.3325802 53.7752212,36.0086344 C47.3868276,20.6846886 38.0354061,12.2698143 38.7254606,2.82099429 C39.4155151,-6.62782573 28.2990132,10.0129677 32.1138724,18.2022635 C35.9287317,26.3915594 25.0292083,23.5609472 25.0292083,17.1953873 C25.0292083,10.8298273 17.2675293,19.2781403 21.7009862,28.1080791 C26.1344431,36.9380178 18.312782,39.0727866 18.312782,47.8841483 C18.312782,56.69551 26.5215432,61.2829118 37.0866459,61.1988656 Z" id="Path" fill="#FFBF00"></path>
            <path d="M31.591338,54.4079312 C32.9272724,51.1798326 38.9570371,51.1798326 40.3870555,54.4079312 C41.8170738,57.6360297 38.8196669,58.7598698 39.6032969,58.5692175 C45.5905644,57.1125525 48.2541648,52.1598033 46.6577289,45.4592542 C44.7444351,37.4287915 38.702371,35.0167415 38.702371,31.1823981 C38.702371,27.3480547 34.184114,33.7111032 35.6527961,37.863375 C37.1214782,42.0156468 30.4465582,41.8482122 30.4465582,39.3404256 C30.4465582,36.832639 27.0238038,38.9780824 24.8682337,45.4592542 C22.9366885,51.2668484 26.1304066,57.5466774 33.0837948,58.7892538 C33.8902642,58.9333705 30.2554035,57.6360297 31.591338,54.4079312 Z" id="Path-2" fill="#FF661A"></path>
        </g>
        <g id="Group-3" transform="translate(122.058252, 15.000000)">
            <mask id="mask-18" fill="white">
                <use xlink:href="#path-17"></use>
            </mask>
            <g id="Clip-2"></g>
            <path d="M24.0250145,73.3755008 C24.0503349,74.2499718 25.5040843,74.1719775 25.8166097,73.3542949 C31.3375296,58.915638 6.4881448,43.5338607 7.54472655,29.8970719 C8.85017111,13.058921 23.2961503,7.1421339 30.8097813,7.47747361 C44.1619217,8.07339348 49.2126068,14.8100196 48.0717445,24.0823603 C46.8433461,34.0631196 41.048243,43.1226832 28.7563015,39.455871 C17.2304813,36.0172911 18.8111941,24.0884705 26.5679004,24.2250504 C28.3432182,24.2559606 25.5738961,30.8506155 33.0922294,29.1742764 C40.6112862,27.4979373 34.9952341,9.49094956 22.0919872,16.6675069 C16.406485,19.8293327 7.42427407,34.9217762 23.8662198,42.2679802 C50.6345249,54.2287893 60.125313,20.6078384 52.2763683,9.3180681 C44.2281164,-2.25816064 8.94855873,-7.11249948 2.11604497,19.325784 C-5.10350832,47.2628526 23.2961503,48.4079677 24.0250145,73.3755008" id="Fill-1" fill-opacity="0.5" fill="#575E75" mask="url(#mask-18)"></path>
        </g>
    </g>
</svg>