<?xml version="1.0" encoding="UTF-8"?>
<svg width="300px" height="200px" viewBox="0 0 300 200" version="1.1" xmlns="http://www.w3.org/2000/svg" xmlns:xlink="http://www.w3.org/1999/xlink">
    <title>Peers Illustration</title>
    <defs>
        <polygon id="path-1" points="0 0.500776092 67.206866 0.500776092 67.206866 36.3410584 0 36.3410584"></polygon>
    </defs>
    <g id="Peers-Illustration" stroke="none" stroke-width="1" fill="none" fill-rule="evenodd" opacity="0.5">
        <g transform="translate(42.000000, 18.000000)">
            <g id="Group-40">
                <g id="Group-6" transform="translate(0.000000, 28.175904)">
                    <path d="M131.96209,39.72888 C131.96209,39.72888 165.395434,44.818704 165.670186,38.317104 C165.944074,31.816368 154.982506,35.859024 154.982506,31.782672 C154.982506,27.705456 185.401354,30.994704 185.675242,24.691824 C185.948266,18.38808 156.899722,23.487408 156.899722,19.0188 C156.899722,14.551056 171.973066,20.243088 171.424426,12.464496 C170.87665,4.685904 146.258698,9.901872 137.656714,8.796816 C137.656714,8.796816 129.221482,20.511792 131.96209,39.72888" id="Fill-1" fill="#F58934"></path>
                    <g id="Group-5">
                        <mask id="mask-2" fill="white">
                            <use xlink:href="#path-1"></use>
                        </mask>
                        <g id="Clip-4"></g>
                        <path d="M14.7989376,5.150304 C15.1644096,11.727072 33.2513856,7.52544 33.4336896,12.823488 C33.6168576,18.121536 0.1835136,12.274848 0.0003456,19.400256 C-0.1819584,26.5248 32.8859136,19.58256 32.8859136,23.785056 C32.8859136,27.987552 19.0143936,28.236384 18.2704896,32.977152 C17.5257216,37.717056 41.7099456,36.060768 41.7099456,36.060768 C41.7099456,36.060768 35.3163456,14.98176 60.5287296,20.018016 C72.2990016,22.369824 65.4854976,3.27024 62.7638976,0.900288 C62.7638976,0.900288 14.4334656,-1.426464 14.7989376,5.150304" id="Fill-3" fill="#F58934" mask="url(#mask-2)"></path>
                    </g>
                </g>
                <g id="Group-39" transform="translate(4.752000, 0.527904)">
                    <path d="M44.1597312,64.659168 C53.3319552,66.737088 54.5882112,69.342048 63.5634432,79.151904 C78.8398272,95.851296 98.4863232,88.15824 99.3615552,54.187488 C99.3788352,53.522208 99.3511872,52.875936 99.2829312,52.24608 C101.005747,44.3016 102.502195,33.490368 101.517235,26.646624 C100.613491,20.370528 94.8298752,20.706624 94.6968192,25.851744 C94.5724032,30.604608 95.3085312,42.751584 94.5050112,42.12864 C93.8060352,41.586912 94.1905152,20.77056 91.4274432,13.499136 C88.8959232,6.830784 82.7865792,8.373888 83.9227392,14.016672 C85.2170112,20.415456 87.7511232,36.25776 86.7506112,35.555328 C85.6611072,34.791552 84.1534272,17.420832 79.3513152,6.63552 C75.8512512,-1.232928 65.7796032,1.214784 69.4308672,8.921664 C77.5567872,26.07984 79.9379712,38.350368 78.1659072,38.168928 C76.6780992,38.012544 77.0029632,27.74736 67.5654912,11.00304 C62.8592832,2.6568 54.5571072,5.67648 58.7950272,13.770432 C64.1354112,23.966496 67.7521152,34.985088 68.3396352,45.893088 C68.7465792,53.515296 68.2307712,63.561024 60.5264832,58.03056 C44.5165632,46.531584 35.7003072,62.742816 44.1597312,64.659168" id="Fill-7" fill="#FFC709"></path>
                    <path d="M15.2095968,155.904998 C5.0698656,155.904998 1.53477231e-14,150.704662 1.53477231e-14,140.303991 C1.53477231e-14,129.903319 5.0698656,124.236551 15.2095968,123.303686 C36.6843168,122.931302 73.6609248,89.6768064 63.5633568,79.1524224 C53.4657888,68.6289024 97.9471008,66.9432384 97.9471008,66.9432384 C96.4428768,78.7031424 90.6566688,155.904998 15.2095968,155.904998 Z" id="Fill-9" fill="#FFC709"></path>
                    <path d="M15.209856,158.015923 C21.422016,158.015923 45.648576,156.893587 68.209344,136.410739 C90.769248,115.927891 94.778208,86.4594432 98.399232,64.5751872 C102.02112,42.6909312 91.989216,69.8179392 91.989216,69.8179392 C91.989216,69.8179392 80.162784,111.664051 50.874912,131.415091 C33.780672,142.944307 0.984445312,145.580592 0.984445312,145.580592 C2.42866406,153.870813 7.17046762,158.015923 15.209856,158.015923 Z" id="Fill-11" fill="#E6B50C"></path>
                    <path d="M58.0116384,7.8469344 C59.0873184,5.5512864 64.2981024,8.4776544 66.9289824,13.2331104 C73.5515424,25.2072864 74.8337184,38.2027104 78.1661664,38.1690144 C78.1661664,38.1690144 77.7384864,38.3997024 77.1198624,35.8655904 C76.5021024,33.3306144 74.4008544,25.6911264 73.1212704,22.6144224 C71.8434144,19.5377184 68.3061984,8.8889184 63.2137824,6.5716704 C59.3517024,4.8151584 58.0116384,7.8469344 58.0116384,7.8469344" id="Fill-13" fill="#E6B50C"></path>
                    <path d="M72.86328,1.8082656 C74.929104,3.0610656 76.994928,4.5445536 80.068176,14.6110176 C83.141424,24.6774816 83.919024,35.5802976 86.750352,35.5561458 C86.750352,35.5561458 86.36328,35.2951776 85.644432,31.3605216 C84.925584,27.4258656 83.25288,18.1231776 81.934416,13.9716576 C80.616816,9.8210016 79.538544,2.5841376 72.86328,1.8082656" id="Fill-15" fill="#E6B50C"></path>
                    <path d="M84.7399104,9.9605376 C84.7399104,9.9605376 85.5555264,9.5985216 86.8005504,10.2542976 C88.3237824,11.0586816 89.1471744,12.7676736 88.9329024,14.4775296 C88.4646144,18.2100096 87.6256704,26.8422336 88.3868544,36.3332736 C89.4996864,50.2125696 88.0809984,57.3068736 80.7629184,56.3037696 C80.7629184,56.3037696 87.4329984,58.9294656 89.7113664,56.3737536 C91.9897344,53.8180416 91.8834624,37.3934016 91.8834624,37.3934016 L91.8843264,14.1518016 C91.8843264,14.1518016 90.2047104,9.1146816 86.7504384,9.1146816 C85.4457984,9.1146816 84.7399104,9.9605376 84.7399104,9.9605376" id="Fill-17" fill="#E6B50C"></path>
                    <path d="M98.548704,22.0995648 C98.548704,22.0995648 100.756224,23.0344128 101.352384,25.7983488 C101.950272,28.5622848 101.897568,35.9702208 101.227104,40.7334528 L99.1872,39.7243008 L98.548704,22.0995648 Z" id="Fill-19" fill="#E6B50C"></path>
                    <path d="M64.9286496,65.8345536 C65.4980256,67.8580416 67.7064096,69.5177856 70.3191456,69.4478016 C72.9336096,69.3769536 79.0610976,70.4543616 80.7571296,75.4690176 C82.2881376,79.9989696 87.9991776,82.8639936 84.7220256,89.6342976 L88.1745696,88.8921216 L90.8590176,77.7335616 L84.0774816,68.3349696 L76.3066656,65.4379776 L64.9286496,65.8345536 Z" id="Fill-21" fill="#E6B50C"></path>
                    <path d="M69.31872,68.3345376 C74.448288,67.9509216 80.859168,67.2951456 84.362688,75.4789536 C90.108288,88.9020576 120.776832,92.3554656 120.192768,61.1711136 C120.108096,56.6610336 123.001632,42.9735456 127.508256,33.0928416 C130.311936,26.9454816 125.175456,24.4416096 122.059008,30.1768416 C119.618208,34.6670496 117.2664,47.2183776 116.924256,46.3163616 C116.578656,45.4108896 117.31824,31.0166496 123.779232,20.0265696 C127.960128,12.9132576 121.372128,8.8766496 117.386496,15.3696096 C112.142016,23.9102496 110.326752,40.6994976 109.735776,39.7197216 C109.092096,38.6526816 109.22688,23.8601376 115.558272,9.9506016 C119.269152,1.7953056 110.425248,-0.7388064 106.66944,7.8674976 C99.690912,23.8627296 102.352032,39.9581856 100.881504,39.2790816 C99.648576,38.7053856 97.2648,23.6899296 103.666176,5.9511456 C106.214976,-1.1146464 96.35328,-2.1333024 93.131424,6.4937376 C88.71552,18.3158496 89.304768,28.7002656 89.777376,40.5232416 C90.21024,51.3603936 89.493984,57.7816416 80.763264,56.3033376 C62.595072,53.2274976 61.21872,68.9410656 69.31872,68.3345376" id="Fill-23" fill="#74BF43"></path>
                    <g id="Group-27" transform="translate(89.424000, 56.160000)" fill="#74BF43">
                        <path d="M101.137334,105.407741 C101.137334,105.407741 116.697164,104.233678 118.8,92.0921155 C121.906938,74.1529674 107.852342,74.1775968 107.852342,74.1775968 C88.0892064,74.1793248 31.5317664,38.7173088 30.7688544,5.0109408 C30.3532704,-13.3551072 0.1590624,25.4652768 0.1590624,25.4652768 C14.0115744,33.4892448 48.5482464,103.793789 101.137334,105.407741 Z" id="Fill-25"></path>
                    </g>
                    <g id="Group-30" transform="translate(64.368000, 63.936000)" fill="#69AE3D">
                        <path d="M7.5585312,2.0672064 C11.9390112,1.5021504 18.2263392,2.1380544 21.4049952,8.7079104 C24.5836512,15.2777664 28.4967072,14.6418624 32.0857632,19.5156864 C35.6739552,24.3903744 55.3437792,44.9414784 59.9601312,50.0961024 C69.1962912,60.4096704 114.727104,89.6407737 142.56,88.5443577 C142.56,88.5443577 136.60998,97.6325184 126.193507,97.6325184 C120.699489,97.6325184 103.807267,99.0123264 68.5059552,70.5962304 C45.8501472,52.3580544 39.4893792,36.2937024 33.0257952,26.8622784 C26.5613472,17.4317184 23.6185632,19.9321344 20.0977632,13.6007424 C16.3955232,6.9418944 15.1366752,4.3792704 11.0050272,4.3282944 C5.7354912,4.2643584 0.5609952,6.1470144 0.2223072,0.0912384 C1.9252512,1.8019584 3.1789152,2.6322624 7.5585312,2.0672064 Z" id="Fill-28"></path>
                    </g>
                    <path d="M99.0313344,0.5241024 C102.536582,0.7712064 102.489062,3.4262784 101.767622,5.7452544 C100.377446,10.2121344 94.2326784,38.5513344 100.882022,39.2788224 C100.882022,39.2788224 98.9544384,33.3025344 99.3095424,27.3668544 C99.7683264,19.7273664 102.115814,9.4915584 103.426502,6.4243584 C104.864198,3.0616704 104.107334,-0.3295296 99.0313344,0.5241024" id="Fill-31" fill="#69AE3D"></path>
                    <path d="M114.524323,7.7937984 C114.052579,9.4768704 111.086467,16.4882304 109.314403,25.3131264 C107.640835,33.6429504 108.479779,39.5025984 109.736035,39.7194624 C109.736035,39.7194624 109.149379,32.8999104 111.191011,23.1678144 C113.110819,14.0102784 115.619875,11.7500544 116.431171,6.8071104 C116.928835,3.7753344 115.336483,2.5095744 113.103907,2.5095744 C114.912259,3.2733504 115.513603,4.2617664 114.524323,7.7937984" id="Fill-33" fill="#69AE3D"></path>
                    <path d="M122.426035,12.135744 C124.520371,12.491712 125.405971,14.729472 125.094931,16.26912 C124.783891,17.807904 124.467667,18.720288 123.553555,20.41632 C122.638579,22.113216 119.038291,28.933632 117.717235,37.401696 C116.396179,45.870624 116.924083,46.316448 116.924083,46.316448 C116.924083,46.316448 115.566739,46.002816 116.360755,38.735712 C116.900755,33.79536 118.798099,26.125632 121.305427,21.886848 C122.813107,19.339776 124.087507,15.501024 123.566515,13.904352 C123.046387,12.308544 122.426035,12.135744 122.426035,12.135744" id="Fill-35" fill="#69AE3D"></path>
                    <path d="M56.8033344,71.7272928 C56.8033344,71.7272928 67.4054784,80.0355168 74.1870144,76.8335328 C80.9694144,73.6324128 74.5697664,79.4609568 71.3591424,80.2031328 C68.1476544,80.9444448 65.0121984,86.7367008 65.0121984,86.7367008 C65.0121984,86.7367008 66.1172544,83.0042208 64.5897024,80.5971168 C63.0612864,78.1891488 56.8033344,71.7272928 56.8033344,71.7272928" id="Fill-37" fill="#E6B50C"></path>
                </g>
            </g>
            <text id="PLACEHOLDER" transform="translate(107.500000, 82.500000) rotate(-45.000000) translate(-107.500000, -82.500000) " font-family="HelveticaNeue-Bold, Helvetica Neue" font-size="16" font-weight="bold" letter-spacing="2" fill="#575E75">
                <tspan x="36" y="89">PLACEHOLDER</tspan>
            </text>
        </g>
    </g>
</svg>