<?xml version="1.0" encoding="UTF-8"?>
<svg width="300px" height="200px" viewBox="0 0 300 200" version="1.1" xmlns="http://www.w3.org/2000/svg" xmlns:xlink="http://www.w3.org/1999/xlink">
    <title>Play Illustration</title>
    <defs>
        <polygon id="path-1" points="0.365809249 0.149263006 106.618353 0.149263006 106.618353 30.2286188 0.365809249 30.2286188"></polygon>
    </defs>
    <g id="Play-Illustration" stroke="none" stroke-width="1" fill="none" fill-rule="evenodd">
        <g id="Group-398" transform="translate(0.000000, 1.000000)">
            <path d="M181.282803,121.548035 C180.200289,121.922168 179.059682,122.850347 176.821387,121.993699 C174.803324,121.22159 173.829191,121.353815 172.372543,120.852659 C171.136994,120.426503 170.320231,120.00685 168.499422,119.287197 C168.499422,120.774624 170.951879,123.078382 172.886272,123.28474 C175.661705,126.710029 176.905925,126.550925 178.352601,128.45974 C179.155925,129.519711 179.91763,128.897601 179.311127,127.171301 C178.646965,125.279393 180.679769,121.757428 183.573121,122.112052 C183.927746,120.192832 181.282803,121.548035 181.282803,121.548035" id="Fill-1" fill="#FF5E75"></path>
            <path d="M183.256951,119.892659 C181.900882,118.407832 178.054639,120.617514 175.886575,118.903353 C174.037587,117.441936 170.807818,118.038902 169.290477,118.485 L169.290477,118.301618 L168.467211,118.301618 L168.467211,119.124884 L168.468078,119.124884 C168.465043,119.980231 171.324581,121.074017 171.324581,121.074017 C171.324581,121.074017 175.345101,123.12026 178.081517,123.056965 C180.542211,122.99974 183.000737,121.319827 183.56302,120.911445 L183.683974,120.911445 L183.683974,119.892659 L183.256951,119.892659 Z" id="Fill-3" fill="#F1F2F2"></path>
            <path d="M169.289263,117.678468 C170.806171,117.231936 174.036806,116.634538 175.886228,118.096387 C178.376402,120.065029 183.081026,116.856503 183.684061,120.01474 C183.684061,120.01474 180.883483,122.184971 178.081171,122.25 C175.345188,122.313295 171.324234,120.266618 171.324234,120.266618 C171.324234,120.266618 166.614408,118.465751 169.289263,117.678468" id="Fill-5" fill="#C49A6C"></path>
            <path d="M170.502659,117.977384 C171.663642,117.653107 173.988208,117.684754 175.404104,118.745592 C176.773613,119.772616 179.625347,118.781142 181.293988,118.991402 C182.081705,119.090679 182.23474,120.179697 181.517254,120.520882 C180.508873,121.000361 178.93604,121.632876 177.610751,121.661922 C175.516387,121.707876 172.438353,120.222616 172.438353,120.222616 C172.438353,120.222616 168.455116,118.548772 170.502659,117.977384" id="Fill-7" fill="#B58D66"></path>
            <path d="M205.531647,82.9985116 C205.531647,82.9985116 205.885838,79.213396 196.112428,81.9155636 C192.053324,83.038396 189.546243,85.3014017 189.084971,86.6596387 C188.475867,88.4527023 187.194364,91.780448 190.70896,93.3623844 C190.531647,99.7993786 205.531647,82.9985116 205.531647,82.9985116" id="Fill-9" fill="#0DA57A"></path>
            <path d="M47.2875,38.8817341 C49.4620665,52.8872254 43.3220376,55.4762428 44.4171243,59.0259538 C45.1649566,61.4476301 38.1882225,71.9497977 39.3231936,77.3914162 C41.6529624,88.555578 23.4570087,92.604711 14.8081647,80.6012428 C11.4609104,75.9564451 25.0311416,55.4606358 25.0311416,55.4606358 L28.346315,42.0880925 L33.1554191,35.5067341 L42.1059971,40.8096243 L47.2875,38.8817341 Z" id="Fill-11" fill="#FFAB1A"></path>
            <path d="M2.90631503,86.5276734 C0.383627168,93.9275289 26.6249566,100.706142 24.2843497,85.9519509 C23.9141185,83.621315 31.7687428,77.6733382 34.5762572,73.9224711 C35.8698988,72.1944364 38.8677312,73.2418353 38.8677312,73.2418353 C38.8677312,73.2418353 48.9736561,81.0327312 53.4948988,80.5237717 C60.5592052,79.728685 62.8568931,79.9866329 65.6089162,79.6480491 C66.8032803,79.5010838 67.9044364,82.3437139 69.6966329,81.836922 C75.413974,80.220737 74.1190318,69.4853324 70.1488006,69.8854769 C67.7028468,70.1321532 59.038396,71.0200145 52.9209104,72.1610549 C50.6535694,72.5841763 36.1659971,56.4322977 25.872789,55.3805636 C21.4135405,54.9253613 17.8308815,59.571026 15.5674422,65.1023844 C15.5674422,65.1023844 5.4558815,79.0476156 2.90631503,86.5276734" id="Fill-13" fill="#4D97FF"></path>
            <path d="M7.28284682,78.3914306 C7.28284682,78.3914306 -2.45501445,90.3424422 0.589638728,103.682471 C1.15539017,106.160506 3.63385838,116.969176 4.21044798,122.339263 C1.19874277,133.827269 4.58458092,145.910072 5.49021676,148.646488 C5.49021676,148.646488 7.77099711,151.064697 11.6740318,148.76224 C11.6740318,148.76224 12.3377601,134.806171 15.3386272,123.124812 C17.4065462,115.075101 14.6007659,103.447066 15.5788006,103.138396 C16.5477312,102.83276 21.7912283,108.699668 22.8091474,116.539552 C20.3718642,127.973367 21.3910838,142.668598 21.3910838,142.668598 C21.3910838,142.668598 25.0808237,145.325679 29.0449855,141.430448 C29.0449855,141.430448 29.3202746,127.039552 32.4377601,115.164841 C31.9218642,105.977124 25.3084249,91.7314595 23.7637717,85.4761127 C23.7637717,85.4761127 18.2996098,87.8427312 14.3779335,86.3574711 C4.71767341,82.6993786 7.28284682,78.3914306 7.28284682,78.3914306" id="Fill-15" fill="#231F20"></path>
            <path d="M23.9941474,66.8517919 C22.6090318,74.1549711 23.404552,83.211763 24.6717486,84.6007803 C29.5558526,89.9543931 33.6153902,95.2078613 35.2085983,97.7257803 C36.4007948,99.6098844 34.920737,107.648757 30.3262283,105.81841 C27.8503613,104.831272 25.2938584,98.9821387 22.9398121,96.9046821 C20.5809971,94.8228902 18.5208815,89.2360405 16.2934249,86.5993353 C8.90093931,77.8486127 12.6652457,57.6246243 25.8726156,55.3806936 C25.8726156,55.3806936 24.5638006,55.9568497 24.6322977,58.661185 C24.7007948,61.3663873 23.9941474,66.8517919 23.9941474,66.8517919" id="Fill-17" fill="#4D97FF"></path>
            <path d="M66.7229046,77.6552168 C63.7038295,76.3182225 63.311922,76.7556503 61.6120665,76.5068064 C58.4538295,76.0442341 59.3494942,74.2320954 60.4276734,73.9767486 C62.0395231,73.5943786 63.5984827,74.3799277 64.1863439,74.0773266 C65.3360549,73.4846965 64.0935694,71.0218353 63.0123555,70.5453902 C61.7403902,69.983974 60.1510838,69.6120087 59.746604,69.8183671 C59.2051301,70.0953902 59.3924133,71.1072399 59.4353324,72.4069509 C59.4726156,73.5354191 57.9231936,74.1596965 57.678685,72.4875867 C57.3396676,70.1721243 57.4211705,68.2724133 58.070159,67.8362861 C58.5830202,67.4911994 59.3247832,67.3268931 60.5390896,67.5206792 C62.1006503,67.7703902 62.8125,68.0244364 63.0227601,67.9411994 C63.4940029,67.7539162 61.0190029,65.3942341 58.5435694,63.4741474 C56.8263728,62.1423555 57.9296965,60.4988584 59.7804191,61.9715462 C63.2590318,64.7404769 65.3325867,67.6641763 65.5914017,67.484263 C65.7691474,67.3607081 64.5440029,65.0135983 62.0252168,62.0972688 C60.888078,60.7810838 62.2857659,59.3994364 63.770159,61.3082514 C65.7370665,63.8370087 67.5314306,66.9748699 67.9307081,66.8690896 C68.2085983,66.7953902 66.7354769,63.8088295 66.1948699,62.5420665 C65.3464595,60.5547832 67.1828757,60.5114306 67.7863439,61.8779046 C70.1447254,67.2189451 70.0953035,67.6208237 72.0747832,70.3511705 C74.8831647,74.2255925 71.1257948,79.6052168 66.7229046,77.6552168" id="Fill-19" fill="#F6DDC3"></path>
            <path d="M21.6234971,141.638844 C25.8339017,145.136965 23.6172832,138.111243 26.7260983,140.286676 C28.9773988,141.86211 33.4700289,147.234364 37.3002312,148.11659 C37.8404046,148.241012 38.7083237,149.399393 38.3307225,150.564277 C37.6258092,151.562688 33.212948,155.944335 27.3334682,151.718757 C23.2071676,148.753439 20.8734971,149.723237 20.6645376,147.760665 C20.5843353,147.008931 20.1282659,140.396792 21.6234971,141.638844" id="Fill-21" fill="#9966FF"></path>
            <path d="M26.7555347,143.64091 C25.4900723,141.537009 27.4985983,137.020968 29.2786561,137.43802 C30.4331358,137.70854 29.6727312,139.048569 30.5207081,140.728916 C31.4631936,142.597847 30.4881936,144.815766 35.2738873,147.301604 C36.4929624,147.934986 34.5741763,149.111142 33.5241763,148.808107 C30.6052457,147.965332 26.7555347,143.64091 26.7555347,143.64091" id="Fill-23" fill="#774DCB"></path>
            <path d="M38.2270231,149.090462 C38.2270231,149.090462 35.5352601,151.772688 32.8265896,151.962572 C28.5654624,152.261272 27.6485549,149.208382 25.0413295,148.375578 C22.4349711,147.542775 22.2719653,144.710116 20.5460983,145.603179 C20.5460983,145.603179 20.5096821,147.962861 20.7416185,148.636994 C20.9731214,149.311127 23.7095376,149.475434 26.1663295,151.241618 C28.6231214,153.008237 30.574422,154.748844 34.2251445,153.467341 C37.8758671,152.186272 38.3601156,151.076879 38.6683526,150.288295 C38.9445087,149.581647 38.6722543,148.812572 38.2270231,149.090462" id="Fill-25" fill="#F1F2F2"></path>
            <path d="M34.2988439,146.751373 C35.0830925,146.837211 33.4040462,145.648916 33.016474,145.606431 C31.9339595,145.487645 30.1187861,146.272327 29.7390173,147.570737 C29.4741329,148.477673 31.3122832,148.96409 31.5689306,148.326806 C31.9274566,147.435043 33.5813584,146.672905 34.2988439,146.751373" id="Fill-27" fill="#F1F2F2"></path>
            <path d="M31.5531069,144.100275 C32.3373555,144.186113 31.4334538,142.915014 31.0927023,142.72513 C30.1333092,142.19146 27.162789,143.042471 26.7834538,144.340882 C26.5181358,145.248251 28.5665462,146.312991 28.8231936,145.675275 C29.1817197,144.783945 30.8356214,144.021373 31.5531069,144.100275" id="Fill-29" fill="#F1F2F2"></path>
            <path d="M139.537066,73.5019942 C139.355419,74.0295954 140.395014,74.2736705 141.138078,74.1592197 C141.881142,74.0447688 142.038512,73.2587861 141.138078,73.2301734 C140.237645,73.2019942 139.68013,73.0875434 139.537066,73.5019942" id="Fill-33" fill="#231F20"></path>
            <path d="M118.198613,112.728902 C116.211763,114.529769 115.693699,116.427312 114.558295,118.672977 C113.958728,119.857803 112.694133,122.942775 115.199046,125.003324 C118.144855,127.427601 121.258006,131.948844 124.544566,133.509538 C127.212486,134.776301 130.533295,132.725289 130.132283,131.035838 C130.132283,131.035838 124.101936,122.656214 121.503382,122.049711 C121.503382,122.049711 125.734595,116.803179 126.571734,115.031792 C127.408873,113.260405 118.198613,112.728902 118.198613,112.728902" id="Fill-35" fill="#4C392B"></path>
            <path d="M131.061069,89.4493353 C131.061069,89.4493353 130.083035,87.8088728 128.515838,89.2720231 C126.948642,90.7351734 128.61685,96.5210116 131.195029,94.1934104" id="Fill-37" fill="#35271E"></path>
            <path d="M149.271503,89.1787717 C149.271503,89.1787717 150.519624,87.8487139 152.278873,89.3118642 C154.037688,90.7750145 152.165289,96.5608526 149.271503,94.2332514" id="Fill-39" fill="#35271E"></path>
            <path d="M113.579653,150.086402 C116.572283,144.444494 122.881387,141.343916 126.805665,136.183656 C126.805665,136.183656 135.197428,137.924263 141.389046,137.673685 C146.922139,137.449986 151.481098,135.51646 151.481098,135.51646 C154.863902,140.185101 152.810289,143.613425 152.810289,150.401575 C152.810289,155.283512 149.352486,182.678454 147.131965,184.973107 C144.911445,187.267327 140.461734,187.370506 138.807399,183.905332 C137.786445,181.767182 139.91159,160.9575 140.023439,152.2575 C140.101908,146.115737 136.098295,148.46935 126.924451,152.248829 C133.038902,150.989003 154.472428,155.614725 160.172861,154.043194 C165.873295,152.471662 164.510289,161.783801 159.549451,162.413714 C159.549451,162.413714 127.128642,160.588569 117.004942,161.133945 C113.067659,161.345939 110.793382,155.337702 113.579653,150.086402 Z" id="Fill-41" fill="#231F20"></path>
            <path d="M128.647283,112.860564 C132.152775,113.555939 126.334422,129.131662 125.407543,133.303483 C125.198584,134.243801 124.866936,136.123569 125.828497,136.183829 C129.360867,136.403627 134.907399,141.551749 142.622861,140.609697 C149.192948,139.806806 148.963613,136.35724 153.338757,136.735275 C154.240491,136.813309 152.930809,133.881373 152.810289,132.984408 C152.212457,128.542934 150.050462,114.922413 151.010289,113.477038 L156.168815,119.404205 C156.168815,119.404205 156.431098,117.781517 158.10711,116.124147 C160.705231,113.555939 164.405809,114.69698 164.405809,114.69698 C161.456098,110.971257 156.192225,100.041199 147.181821,101.385997 C139.504509,102.53224 132.152775,100.518078 132.152775,100.518078 C123.693815,100.333396 117.157977,112.671113 114.840347,114.620246 C114.840347,114.620246 118.835723,114.185419 121.335434,115.95724 C123.835145,117.728627 124.622861,119.136286 124.622861,119.136286 L128.647283,112.860564 Z" id="Fill-43" fill="#FFFFFF"></path>
            <path d="M139.922775,107.437673 C142.673931,107.437673 145.206156,105.893887 145.197076,104.042731 C145.187081,102.016864 143.103121,103.774379 143.224075,96.1248121 C143.285202,92.2603613 137.327254,93.1456214 137.346329,96.6081936 C137.386647,103.854581 134.899942,101.231749 134.850087,103.841142 C134.814971,105.692731 137.46685,107.437673 139.922775,107.437673" id="Fill-45" fill="#35271E"></path>
            <path d="M140.47461,76.7056214 C135.391951,76.7056214 130.132413,78.7332225 130.132413,89.8787428 C130.132413,99.5810549 136.754523,104.397095 139.624899,104.397095 C142.404234,104.397095 150.230679,100.231777 150.717962,92.4955058 C151.608858,78.3482514 144.415361,76.7056214 140.47461,76.7056214" id="Fill-47" fill="#4C392B"></path>
            <path d="M139.299581,95.2388584 C138.444234,96.6538873 142.202905,97.457211 141.40435,95.1664595" id="Stroke-49" stroke="#35271E" stroke-width="0.5" stroke-linecap="round" stroke-linejoin="round"></path>
            <path d="M152.189566,132.698627 C152.372514,133.518425 153.56341,133.135188 153.650983,133.639379 C153.738988,134.143569 152.788699,134.392847 152.810376,134.868858 C152.831618,135.34487 153.48711,135.326662 153.656618,136.094003 C153.826561,136.861344 152.788266,136.93461 152.189566,136.79935 C151.590867,136.663656 151.010376,136.663656 151.010376,136.663656 L152.189566,132.698627 Z" id="Fill-51" fill="#FFAB1A"></path>
            <path d="M145.013107,94.0631358 C145.013107,94.5001301 144.745621,94.8538873 144.415275,94.8538873 C144.085361,94.8538873 143.817876,94.5001301 143.817876,94.0631358 C143.817876,93.6265751 144.085361,93.2728179 144.415275,93.2728179 C144.745621,93.2728179 145.013107,93.6265751 145.013107,94.0631358" id="Fill-53" fill="#231F20"></path>
            <path d="M156.168772,119.404118 C156.168772,119.404118 156.594928,120.297616 157.313714,120.762355 C153.927876,121.909465 151.973107,128.351228 147.39854,130.328107 C143.028165,132.216546 146.57354,135.187934 150.587558,133.902962 C161.229754,130.497182 165.96646,123.961344 167.555766,122.734465 C168.815159,121.761633 164.898251,115.957153 162.837269,114.133743 C162.837269,114.133743 159.671662,114.500072 158.107066,116.124494 C156.542038,117.748483 156.168772,119.404118 156.168772,119.404118" id="Fill-55" fill="#4C392B"></path>
            <path d="M136.626416,94.0631358 C136.626416,94.5001301 136.358931,94.8538873 136.029017,94.8538873 C135.698671,94.8538873 135.431185,94.5001301 135.431185,94.0631358 C135.431185,93.6265751 135.698671,93.2728179 136.029017,93.2728179 C136.358931,93.2728179 136.626416,93.6265751 136.626416,94.0631358" id="Fill-57" fill="#231F20"></path>
            <path d="M137.686561,90.5073121 C137.615896,90.6221965 136.468786,90.3490751 135.430925,90.5515318 C134.083092,90.8142486 132.781214,91.521763 132.840607,91.2421387 C132.903035,90.9469075 133.829913,89.4807225 135.041618,89.1568786 C136.126734,88.8668497 137.501012,89.6857803 137.686561,89.9185838 C137.844798,90.1154046 137.79841,90.3256647 137.686561,90.5073121" id="Fill-59" fill="#231F20"></path>
            <path d="M142.350564,88.7876012 C142.41776,88.9046532 143.53409,88.5782081 144.565014,88.8140462 C145.903743,89.1205491 147.220795,89.959422 147.170939,89.6780636 C147.117616,89.3802312 146.237991,87.8854335 145.037558,87.5225723 C143.962413,87.1978613 142.562558,87.9725723 142.369205,88.1988728 C142.205332,88.3904913 142.244783,88.6024855 142.350564,88.7876012" id="Fill-61" fill="#231F20"></path>
            <path d="M138.025231,99.6629913 C139.065694,99.2697832 141.182601,99.323974 142.14763,99.623974 C143.030723,99.8988295 141.861069,101.777731 140.298642,102.044783 C138.736214,102.312269 137.278699,99.9447832 138.025231,99.6629913" id="Fill-63" fill="#231F20"></path>
            <path d="M150.488064,133.114379 C150.664075,133.808887 150.70526,134.585332 149.757572,136.228396 C149.212197,137.173916 149.689075,138.371749 149.800491,139.159032 C150.023324,140.735766 147.669711,139.781142 147.730838,138.161922 C147.760751,137.376373 147.715231,135.406864 146.540376,135.393858 C145.666821,135.384321 144.87,135.575506 144.32159,136.138656 C143.433295,137.050795 142.273179,137.634754 140.88763,139.038945 C139.653382,140.290535 138.103092,139.209321 139.259306,137.890968 C140.056127,136.982298 142.127948,135.628829 142.648613,135.187066 C140.960896,136.203251 139.807717,135.850795 137.426358,137.44487 C135.999191,138.399928 135.274335,136.923338 136.139653,136.279552 C138.145145,134.788223 139.561474,134.47565 140.889364,134.059899 C140.192688,134.252384 138.032428,133.925939 136.56841,134.565824 C134.940087,135.276806 134.506127,133.746893 136.02,133.146893 C138.303815,132.241691 141.603815,132.497905 141.603815,132.497905 C141.603815,132.497905 138.234884,131.974205 137.426358,131.960332 C135.68185,131.930419 136.689364,130.760766 137.426358,130.776806 C142.192543,130.879986 142.428815,129.35354 144.863064,129.549061 C146.626214,129.691257 149.705983,130.02854 150.488064,133.114379" id="Fill-65" fill="#4C392B"></path>
            <path d="M125.828497,136.183786 C124.31159,136.031618 123.914046,135.482341 123.96737,134.897514 C124.048439,134.006618 125.081532,134.431474 125.101908,133.783353 C125.12185,133.135231 124.336301,133.241879 124.453786,132.305029 C124.554798,131.494769 125.767803,131.593613 125.911734,130.835376" id="Fill-67" fill="#FFAB1A"></path>
            <path d="M130.439566,85.6327023 C130.439566,85.4944075 129.781474,73.5867486 140.344335,73.5867486 C150.793613,73.5867486 150.793613,85.6327023 150.793613,85.6327023" id="Fill-71" fill="#4280D7"></path>
            <polygon id="Fill-73" fill="#FF661A" points="144.354754 130.676185 154.800997 129.981243 144.301864 131.87922"></polygon>
            <polygon id="Fill-75" fill="#FF5500" points="145.078483 133.424263 154.801171 129.981633 144.302038 131.87961"></polygon>
            <polygon id="Fill-77" fill="#FF661A" points="144.302038 131.879393 145.669812 133.866676 143.309263 142.241098 138.163309 132.161618 139.007818 130.577081"></polygon>
            <polygon id="Fill-79" fill="#FF661A" points="144.302038 131.879393 144.416922 129.251358 140.590621 120.52578 137.800014 126.984884 139.007818 130.577081"></polygon>
            <polygon id="Fill-81" fill="#FF5500" points="139.724003 130.753266 143.235997 129.226387 144.302038 131.879566"></polygon>
            <polygon id="Fill-83" fill="#E64D00" points="143.23578 129.226171 138.766127 129.859552 139.723786 130.753049"></polygon>
            <polygon id="Fill-85" fill="#FF5500" points="141.65896 131.229538 143.309393 142.241098 142.012717 131.316243"></polygon>
            <polygon id="Fill-87" fill="#FF5500" points="141.478006 129.475101 140.591012 120.52539 141.833497 129.424812"></polygon>
            <polygon id="Fill-89" fill="#FF5500" points="139.724003 130.753266 137.022269 122.892572 136.314754 122.734335 132.152905 123.968584 136.74828 124.696908 138.281228 131.940694 139.007818 130.577254"></polygon>
            <polygon id="Fill-91" fill="#E64D00" points="136.314624 122.734292 136.314624 122.734292 132.152775 123.96854 136.292948 124.032269 136.825751 125.003367"></polygon>
            <path d="M134.883208,85.6327023 C134.883208,85.4944075 134.512543,73.5867486 140.461387,73.5867486 C146.346503,73.5867486 146.346503,85.6327023 146.346503,85.6327023" id="Fill-93" fill="#231F20" opacity="0.1"></path>
            <path d="M130.875217,131.210506 C131.93302,128.884205 132.194003,127.793454 133.169436,126.776835 C135.123772,124.738396 133.439957,123.902124 132.65354,124.484783 C131.31828,125.474957 131.375072,127.623512 130.774205,127.645188 C129.598916,127.688107 129.92276,127.424957 129.901951,126.510217 C129.876373,125.403425 130.244003,124.304003 130.56698,124.046922 C131.545014,123.267876 132.184032,124.069465 133.178974,123.774668 C134.509032,123.380159 134.890535,121.682038 132.798338,122.213107 C132.083454,122.394321 130.583887,122.012384 129.712066,122.800968 C128.752673,123.668887 127.80065,124.682038 127.778107,124.884494 C127.733887,125.28724 126.84646,126.314263 125.943425,126.726546 C125.225506,127.054292 124.568714,126.822355 124.283887,127.135361 C123.572471,127.917442 124.570448,129.892153 124.019003,131.256026 C122.694147,134.535217 128.901806,135.549668 130.875217,131.210506" id="Fill-95" fill="#4C392B"></path>
            <path d="M126.981763,124.60474 C127.215434,124.334653 127.997081,124.069769 128.477428,124.428728 C128.850694,124.707486 129.864711,126.74289 130.588699,127.638988 C131.635231,128.934364 129.35185,129.018035 128.803006,127.795491 C128.49,127.099249 128.056474,125.959075 127.468179,125.990289 C126.879884,126.021503 126.420347,125.253295 126.981763,124.60474" id="Fill-97" fill="#35271E"></path>
            <path d="M124.284061,127.135188 C124.483049,126.904986 125.147645,126.13591 125.556893,126.44198 C125.875101,126.679986 127.42539,128.663367 127.503858,129.661777 C127.557616,130.353251 126.710506,130.533165 126.091431,130.800217 C125.288974,131.146171 124.883194,130.427818 125.935795,129.5625 C125.254292,128.688512 125.200535,128.290101 124.698945,128.31698 C124.197355,128.343425 123.805448,127.688367 124.284061,127.135188" id="Fill-99" fill="#35271E"></path>
            <path d="M125.458483,125.78211 C125.657471,125.552341 126.317731,124.91289 126.727413,125.21896 C127.045621,125.457399 129.259639,128.102775 129.337673,129.100751 C129.391864,129.792225 128.544754,129.972139 127.925679,130.239191 C127.122789,130.585578 126.717009,129.866792 127.770043,129.001474 C127.088107,128.127486 126.374957,126.937457 125.873367,126.964335 C125.371777,126.990347 124.97987,126.335289 125.458483,125.78211" id="Fill-101" fill="#35271E"></path>
            <path d="M129.551792,86.6881214 C127.590087,89.6014162 131.069133,86.2754046 140.235607,86.4123988 C148.587052,86.5372543 152.770578,89.3022832 151.976358,87.6622543 C150.770289,85.172948 148.285318,83.1609538 140.462775,83.1843642 C131.878526,83.2099422 130.651647,85.0545954 129.551792,86.6881214" id="Fill-103" fill="#4D97FF"></path>
            <path d="M30.049552,60.5313728 C31.2868353,62.8464017 31.9102457,61.351604 32.7335116,59.3465462 C33.4674711,57.558685 31.4801879,56.9859971 35.9403035,52.6455347 C38.583078,50.0734249 31.1988295,46.2120087 29.8414595,49.2232803 C27.0001301,55.526315 25.1090896,53.825159 25.6128468,56.0161994 C26.0082225,57.7381647 29.1291763,58.8094075 30.049552,60.5313728" id="Fill-107" fill="#F6DDC3"></path>
            <path d="M37.6271532,31.2863443 C32.1942052,31.2475578 27.0655925,36.1602746 26.4911705,41.0114306 C26.0320665,44.8910549 29.0281647,45.7199566 30.7349566,48.8929335 C28.8339451,53.8953902 35.7851012,57.309841 38.7790318,57.309841 C39.3781647,57.309841 45.3595231,53.8455347 44.6364017,48.1316618 C45.991604,44.7423555 47.282211,43.159552 46.624552,41.2862861 C44.6433382,35.6391763 43.0605347,31.3255925 37.6271532,31.2863443" id="Fill-109" fill="#F6DDC3"></path>
            <path d="M40.0955636,51.3041185 C41.3553902,51.7532514 42.7795231,50.6690029 41.9931069,50.3334538 C40.9361705,49.8825867 41.1295231,48.7376445 42.1053902,45.9808526" id="Stroke-111" stroke="#E8C5AC" stroke-width="0.5" stroke-linecap="round" stroke-linejoin="round"></path>
            <path d="M38.7088439,46.4718208 C38.6247399,46.958237 38.2579769,47.3007225 37.8903468,47.2374277 C37.5227168,47.1732659 37.2925145,46.7276012 37.377052,46.241185 C37.4611561,45.7543353 37.8279191,45.4118497 38.1955491,45.4751445 C38.5631792,45.5393064 38.792948,45.9849711 38.7088439,46.4718208" id="Fill-113" fill="#231F20"></path>
            <path d="M43.9320954,48.0280925 C43.8479913,48.5145087 43.4812283,48.8569942 43.1135983,48.7936994 C42.7459682,48.7295376 42.5157659,48.2838728 42.6003035,47.7974566 C42.684841,47.3110405 43.0511705,46.9681214 43.4188006,47.0318497 C43.7868642,47.095578 44.0161994,47.5416763 43.9320954,48.0280925" id="Fill-115" fill="#231F20"></path>
            <path d="M51.9565751,140.162558 C69.5590318,137.841893 86.1765173,143.62513 86.1578914,154.231344 C86.1496387,158.871373 78.1996387,160.121662 66.7779624,162.358223 C53.0473266,165.046517 36.4888006,160.70302 31.5322977,154.194061 C23.6651012,143.864003 34.7386561,142.431633 51.9565751,140.162558" id="Fill-117" fill="#575E75"></path>
            <path d="M80.258974,144.686618 C80.258974,144.686618 67.0173555,151.197746 56.5650434,147.385318 C46.1127312,143.57289 41.6096965,141.644133 41.6096965,141.644133 C41.6096965,141.644133 55.7916329,139.682428 61.6268931,139.682428 C73.2982803,139.681994 80.258974,144.686618 80.258974,144.686618" id="Fill-119" fill-opacity="0.1" fill="#231F20"></path>
            <path d="M69.4489595,131.369263 C83.9911561,132.617818 84.8863873,137.938483 77.8628324,142.811315 C71.1236705,147.486893 44.8962139,144.880968 36.790578,138.265361 C28.6849422,131.649321 55.224104,130.148454 69.4489595,131.369263" id="Fill-121" fill="#666F87"></path>
            <path d="M72.2145954,131.677457 C72.2145954,131.677457 70.167052,138.028613 60.3459538,137.44552 C50.525289,136.861994 42.8024566,132.189451 42.8024566,132.189451 C42.8024566,132.189451 52.6604046,130.937861 60.6130058,130.982081 C68.5656069,131.026301 72.2145954,131.677457 72.2145954,131.677457" id="Fill-123" fill-opacity="0.1" fill="#231F20"></path>
            <path d="M85.0050867,149.620101 C85.7737283,151.503772 82.2829769,154.718367 80.7348555,154.076315 C79.1871676,153.434263 76.5183815,159.386142 70.4871676,159.269957 C64.4559538,159.152905 53.2471387,163.00435 47.375896,160.144812 C41.5046532,157.285708 29.5969942,152.575014 29.0928035,149.620101 C28.5881792,146.665621 29.0928035,149.620101 29.0928035,149.620101 C29.0928035,149.620101 31.1667919,162.381373 57.2052312,163.159118 C64.2248844,163.369379 68.8371676,161.840332 73.1204046,161.117645 C84.7250289,159.158974 88.385289,156.721691 85.0050867,149.620101" id="Fill-125" fill-opacity="0.1" fill="#231F20"></path>
            <path d="M58.7047977,114.170896 C73.2469942,115.419451 77.5870231,127.494017 70.5630347,132.367283 C63.8238728,137.042861 51.7310983,136.554277 43.6254624,129.938237 C35.5193931,123.322197 44.4799422,112.950087 58.7047977,114.170896" id="Fill-127" fill="#B3BFA6"></path>
            <path d="M69.6727023,118.170434 C67.4664884,121.730983 47.0612861,119.349624 46.5167775,116.327081 C46.1456792,114.268699 46.5167775,116.327081 46.5167775,116.327081 C46.5167775,116.327081 52.8024711,113.384306 59.0296387,114.356705 C65.2563728,115.329104 68.9322399,117.076214 70.5735694,119.067399" id="Fill-129" fill-opacity="0.1" fill="#231F20"></path>
            <path d="M58.168396,106.320867 C68.7212861,110.008006 78.9577023,106.009595 75.1088584,114.072312 C72.2159393,120.131705 47.8066908,118.90396 39.7006214,112.288353 C31.5949855,105.672746 44.576922,101.572023 58.168396,106.320867" id="Fill-131" fill="#666F87"></path>
            <path d="M67.7298988,108.144711 C66.4041763,109.347746 57.5970954,110.982139 54.341315,109.698035 C51.0855347,108.414364 47.1621243,107.00237 46.548685,104.26552 C46.548685,104.26552 54.1726734,104.50396 57.1392919,105.977514 C60.1059104,107.451503 67.7298988,108.144711 67.7298988,108.144711" id="Fill-133" fill-opacity="0.1" fill="#231F20"></path>
            <path d="M57.8747688,95.9403468 C67.2523699,96.7449711 73.6087283,103.569971 69.0796821,106.712601 C64.7335838,109.727341 54.1880636,110.428353 48.9606069,106.162023 C43.7335838,101.895694 48.7017919,95.1530636 57.8747688,95.9403468" id="Fill-135" fill="#D0E2D6"></path>
            <path d="M80.6782803,134.503873 C81.9988006,136.329451 77.5711994,142.405751 72.214552,142.638988 C66.8579046,142.872659 56.3964884,139.721358 53.8343497,140.829884 C51.272211,141.93841 43.3529913,139.721358 42.8024133,137.795636 C42.2518353,135.869913 34.5961994,136.488121 35.755448,134.837254 C36.9146965,133.18552 35.755448,134.837254 35.755448,134.837254 C35.755448,134.837254 31.3824711,138.820058 49.9798699,143.519046 C68.5772688,148.217601 78.2899855,144.386532 81.214552,139.682341 C83.4038584,136.161676 80.6782803,134.503873 80.6782803,134.503873" id="Fill-137" fill-opacity="0.1" fill="#231F20"></path>
            <path d="M72.2145954,121.058627 C73.8498555,123.032038 71.0210983,131.435072 58.1575145,130.151402 C45.2943642,128.867731 41.2413295,121.461806 42.6537572,119.270766 C44.0666185,117.079725 42.6537572,119.270766 42.6537572,119.270766 C42.6537572,119.270766 39.7929191,122.40776 40.7822254,125.900246 C41.7715318,129.392731 48.9238439,135.279581 58.1041908,135.458194 C67.2845376,135.636373 73.4492775,132.003425 73.8541908,126.877413 C74.116474,123.557471 72.2145954,121.058627 72.2145954,121.058627" id="Fill-139" fill-opacity="0.1" fill="#231F20"></path>
            <path d="M68.0590318,124.216908 C68.6781069,124.252023 68.4955925,125.422977 67.7126445,125.306358 C66.9301301,125.189306 67.3736272,124.17789 68.0590318,124.216908" id="Fill-141" fill-opacity="0.1" fill="#231F20"></path>
            <path d="M66.5463728,122.862139 C67.0193497,123.580925 65.7781647,124.33396 65.2475289,123.365896 C64.7168931,122.398266 66.0226734,122.066185 66.5463728,122.862139" id="Fill-143" fill-opacity="0.1" fill="#231F20"></path>
            <path d="M53.6801012,124.097948 C54.153078,124.816301 52.9123266,125.569769 52.3812572,124.601272 C51.8506214,123.633642 53.1564017,123.301994 53.6801012,124.097948" id="Fill-145" fill-opacity="0.1" fill="#231F20"></path>
            <path d="M68.3877746,121.670376 C69.3974566,122.185838 69.7043931,123.459971 68.9569942,123.459971 C68.2095954,123.459971 67.3915318,123.654191 67.4981792,122.565173 C67.6048266,121.476156 67.9989017,121.471821 68.3877746,121.670376" id="Fill-147" fill-opacity="0.1" fill="#231F20"></path>
            <path d="M64.8567052,102.686272 C65.4757803,102.721387 65.2928324,103.891908 64.5103179,103.775723 C63.7273699,103.658671 64.1708671,102.647254 64.8567052,102.686272" id="Fill-149" fill="#FFFFFF"></path>
            <path d="M58.4956647,103.235376 C59.1147399,103.270491 58.9322254,104.441445 58.1492775,104.324827 C57.366763,104.207775 57.8102601,103.196358 58.4956647,103.235376" id="Fill-151" fill="#FFFFFF"></path>
            <path d="M68.3732081,101.213801 C68.7872254,101.238078 68.6649711,102.041835 68.1417052,101.962066 C67.6180058,101.881864 67.9145376,101.186922 68.3732081,101.213801" id="Fill-153" fill="#FFFFFF"></path>
            <path d="M51.2724277,98.7485549 C51.8915029,98.7836705 51.7089884,99.9546243 50.9260405,99.8380058 C50.1430925,99.7209538 50.5865896,98.7095376 51.2724277,98.7485549" id="Fill-155" fill="#FFFFFF"></path>
            <path d="M63.3438295,101.331503 C63.8168064,102.050289 62.5756214,102.803324 62.0449855,101.83526 C61.5143497,100.86763 62.8201301,100.535549 63.3438295,101.331503" id="Fill-157" fill="#FFFFFF"></path>
            <path d="M50.9313728,123.84815 C51.9410549,124.363613 52.1122977,125.168237 51.5005925,125.637746 C50.8425,126.143671 50.6816618,125.854942 50.0417775,124.742948 C49.5081069,123.815636 50.5429335,123.649595 50.9313728,123.84815" id="Fill-159" fill-opacity="0.1" fill="#231F20"></path>
            <path d="M75.8405202,110.539249 C75.5045376,111.438815 74.9223121,111.361214 73.8792486,111.905723 C72.8357514,112.450665 73.369422,115.09604 72.0528035,115.173642 C70.736185,115.251243 60.9866185,116.885636 59.4922543,115.523931 C57.9974566,114.162225 54.1902312,113.462081 52.4821387,113.773353 C50.7740462,114.084624 44.3691329,113.276965 43.4795376,111.132746 C42.5899422,108.988092 36.3632081,108.876676 37.6087283,107.08448 C38.853815,105.292283 37.6087283,107.08448 37.6087283,107.08448 C37.6087283,107.08448 35.6478902,109.518295 40.2575723,112.715549 C44.8676879,115.913237 54.3679769,118.259046 61.235896,118.000231 C68.102948,117.740983 72.8322832,117.153988 74.5772254,114.860636 C76.3226012,112.567283 75.8405202,110.539249 75.8405202,110.539249" id="Fill-161" fill-opacity="0.1" fill="#231F20"></path>
            <path d="M69.8945376,101.960202 C70.6471387,103.425087 69.7133237,105.730145 67.017659,106.751532 C64.3224277,107.772486 57.8910694,105.821185 55.6224277,106.288092 C53.3537861,106.755 46.602052,101.615983 47.4192486,100.039249 C45.8104335,101.684046 47.4192486,100.039249 47.4192486,100.039249 C47.4192486,100.039249 43.8946821,105.910925 54.5949711,108.69026 C62.2943931,110.690549 69.6864451,107.216272 70.3003179,105.343873 C70.8803757,103.574653 69.8945376,101.960202 69.8945376,101.960202" id="Fill-163" fill-opacity="0.1" fill="#231F20"></path>
            <path d="M65.663237,98.2604046 C65.663237,98.2604046 62.5630925,100.505202 57.5580347,100.039595 C52.5534104,99.5735549 50.6719075,97.1124277 50.6719075,97.1124277 C50.6719075,97.1124277 53.1265318,95.574711 57.8749422,95.9401734 C62.6233526,96.3060694 66.5393931,98.7472543 66.5393931,98.7472543" id="Fill-165" fill-opacity="0.1" fill="#231F20"></path>
            <path d="M54.6970231,90.4751445 C61.1678324,89.7797688 68.2659538,90.4751445 67.6980347,95.7169075 C67.2662428,99.700578 54.4169653,99.7599711 49.6594509,95.8768786 C44.9019364,91.9942197 48.1078613,91.183526 54.6970231,90.4751445" id="Fill-167" fill="#666F87"></path>
            <path d="M63.6854913,90.8261272 C63.6854913,90.8261272 59.9367919,92.7466474 56.4677168,92.4158671 C52.9982081,92.0850867 52.1263873,90.8261272 52.1263873,90.8261272 C52.1263873,90.8261272 56.0406936,90.2430347 58.5937283,90.2499711 C61.146763,90.2569075 63.6854913,90.8261272 63.6854913,90.8261272" id="Fill-169" fill-opacity="0.1" fill="#231F20"></path>
            <path d="M55.5066763,86.0509682 C60.1575434,85.5511127 67.5925145,87.4937428 64.8500289,89.8178757 C63.6656358,90.8223555 57.4180925,92.6683092 53.360289,91.2268353 C49.4615896,89.8421532 50.7712717,86.5603613 55.5066763,86.0509682" id="Fill-171" fill="#D0E2D6"></path>
            <path d="M67.5560983,93.920896 C67.7234393,95.3745087 66.4575434,96.5103468 65.042948,96.4808671 C63.6283526,96.4518208 61.9740173,95.8986416 61.3332659,96.4813006 C60.692948,97.0643931 60.5863006,97.8521098 59.1183815,97.5313006 C57.6504624,97.2104913 55.1152023,95.4304335 52.8201156,95.5184393 C50.5250289,95.6060116 47.5636127,92.7417052 47.7231503,92.1603468 C47.8831214,91.579422 47.7231503,92.1603468 47.7231503,92.1603468 C47.7231503,92.1603468 47.2254624,92.6454624 47.4114451,93.1587572 C47.5974277,93.6724855 48.8897688,97.1116474 55.9701156,98.3814451 C63.0504624,99.6516763 66.6513295,97.7281214 67.3146243,96.6668497 C67.9787861,95.6060116 67.7711272,94.464104 67.5560983,93.920896" id="Fill-173" fill-opacity="0.1" fill="#231F20"></path>
            <path d="M61.693526,86.5154046 C61.693526,86.5154046 60.4059538,87.5337572 58.6055202,87.2419942 C56.8055202,86.9497977 54.9838439,86.120896 54.9838439,86.120896 C54.9838439,86.120896 56.7942486,85.8954624 58.6055202,86.0337572 C60.4172254,86.172052 61.693526,86.5154046 61.693526,86.5154046" id="Fill-175" fill-opacity="0.1" fill="#231F20"></path>
            <path d="M65.4225434,88.6385983 C64.4202312,89.459263 62.8677746,90.6891763 60.5193642,90.8790607 C58.1709538,91.0685116 55.3291908,90.8326734 53.8612717,90.3393208 C51.9927746,89.7120087 51.6281792,87.9874422 51.2102601,88.2774711 C50.3028902,90.1398988 53.4073699,92.1722688 57.8510116,91.7569509 C63.4929191,91.2293497 65.6926301,89.8385983 65.4225434,88.6385983" id="Fill-177" fill-opacity="0.1" fill="#231F20"></path>
            <path d="M57.2052312,83.2931792 C61.8560983,82.7933237 65.1920809,83.2446243 62.4495954,85.5687572 C61.2652023,86.5728035 59.5644798,87.4923121 55.5066763,86.0508382 C51.6079769,84.6665896 52.4698266,83.8021387 57.2052312,83.2931792" id="Fill-179" fill="#B3BFA6"></path>
            <path d="M60.5758526,83.141185 C60.5758526,83.141185 62.1218064,83.0770231 61.8729624,83.8742775 C61.623685,84.6715318 58.6700723,85.508237 56.7664595,84.7105491 C54.8628468,83.9132948 55.149841,83.5322254 55.691315,83.4598266 C56.232789,83.3874277 59.3554769,83.0145954 60.5758526,83.141185" id="Fill-181" fill-opacity="0.1" fill="#231F20"></path>
            <path d="M63.4325289,84.074263 C62.4675,84.9417486 60.8131647,86.4092341 58.7846965,85.9887139 C56.7566618,85.5686272 53.7141763,85.2968064 53.2338295,84.9148699 C52.7534827,84.5333671 53.2338295,84.9148699 53.2338295,84.9148699 C53.2338295,84.9148699 55.7682225,86.7950723 59.0781936,86.7959393 C62.0539162,86.7963728 63.6852746,84.5624133 63.4325289,84.074263" id="Fill-183" fill-opacity="0.1" fill="#231F20"></path>
            <path d="M120.322023,86.4362428 C120.128671,87.5898555 119.036618,88.3684682 117.883006,88.1755491 C116.72896,87.981763 115.950347,86.889711 116.143699,85.7360983 C116.337052,84.5824855 117.429104,83.8034393 118.58315,83.9967919 C119.736763,84.1901445 120.515376,85.2821965 120.322023,86.4362428" id="Fill-185" fill="#FFFFFF"></path>
            <path d="M112.898714,77.653526 C112.479494,80.1549711 110.112442,81.8422543 107.611431,81.4234682 C105.110419,81.0042486 103.422702,78.6371965 103.841488,76.136185 C104.260708,73.6347399 106.628194,71.9474566 109.129205,72.3666763 C111.629783,72.7854624 113.3175,75.1525145 112.898714,77.653526" id="Fill-187" fill="#FFFFFF"></path>
            <path d="M111.423295,60.0173844 C110.914769,63.0525 108.042225,65.1009104 105.00711,64.5923844 C101.971994,64.0838584 99.9235838,61.2108815 100.43211,58.1757659 C100.940636,55.1406503 103.813613,53.0922399 106.848728,53.6011994 C109.883844,54.1097254 111.931821,56.9822688 111.423295,60.0173844" id="Fill-189" fill="#FFFFFF"></path>
            <path d="M175.436749,21.8607659 C176.080968,15.3955925 171.362471,9.63186416 164.896864,8.98764451 C163.35091,8.83330925 161.847442,8.99371387 160.442384,9.40382948 C159.437038,4.48807803 155.335882,0.582442197 150.081113,0.0587427746 C146.501488,-0.298049133 143.141662,0.993858382 140.742095,3.31105491 C138.939928,1.67449422 136.625332,0.572471098 134.016806,0.312355491 C128.538338,-0.233887283 123.576199,3.07825145 121.79354,8.03345376 C121.041373,7.79804913 120.254523,7.63504335 119.439494,7.55354046 C112.973887,6.90932081 107.210592,11.6282514 106.566373,18.0938584 C106.178367,21.9847543 107.742095,25.6120665 110.450766,28.0320087 C108.495997,29.9035405 107.16854,32.4492052 106.878945,35.3529624 C106.234725,41.8185694 110.953656,47.5818642 117.418829,48.2260838 C117.568396,48.2412572 117.715361,48.2390896 117.864061,48.2481936 C118.752355,53.3152457 122.905968,57.3847543 128.275621,57.920159 C131.952355,58.2864884 135.398454,56.9152457 137.808858,54.478396 C139.587182,56.0338873 141.842818,57.0773844 144.373309,57.3296965 C150.492962,57.9401012 155.976633,53.7418353 157.092529,47.8085983 C157.839061,48.0405347 158.619408,48.2009393 159.4275,48.2811416 C165.892673,48.9257948 171.656402,44.2068642 172.300621,37.7416908 C172.572009,35.0200145 171.884003,32.4288295 170.524465,30.2854769 C173.204957,28.3853324 175.085159,25.3870665 175.436749,21.8607659" id="Fill-191" fill="#FFFFFF"></path>
            <path d="M100.921517,56.6465462 C101.568338,59.1991474 102.675997,60.8695231 105.682934,61.9190896 C108.681199,62.9651879 110.704899,61.7755925 111.379899,60.2452457 C111.379899,60.2452457 110.373685,65.4913439 104.743049,64.5414884 C99.5398699,63.6635983 100.016315,57.8608526 100.921517,56.6465462" id="Fill-193" fill="#4D97FF" opacity="0.1"></path>
            <path d="M104.245968,74.909263 C104.216488,76.9390318 104.25854,77.6907659 106.275303,79.2150434 C108.387876,80.8112861 112.330361,79.0637428 112.865766,77.8490029 C112.865766,77.8490029 111.544812,82.5085405 107.171835,81.3271821 C103.129205,80.2346965 103.527616,75.8729913 104.245968,74.909263" id="Fill-195" fill="#4D97FF" opacity="0.1"></path>
            <path d="M116.332847,85.3198266 C116.326777,86.2055202 116.348887,86.5336994 117.2775,87.2065318 C118.250332,87.9110116 120.048165,87.1627457 120.288772,86.6342775 C120.288772,86.6342775 119.701344,88.6627457 117.695419,88.1312428 C115.841228,87.6400578 116.007702,85.7377457 116.332847,85.3198266" id="Fill-197" fill="#4D97FF" opacity="0.1"></path>
            <path d="M170.526763,30.2853035 C171.883699,32.426922 172.573006,35.0194075 172.299884,37.7419509 C171.658266,44.2058237 165.89237,48.926922 159.428497,48.2809682 C158.617803,48.2029335 157.837457,48.0425289 157.091792,47.8084249 C155.97763,53.743396 150.493526,57.9399277 144.372139,57.3286561 C141.844682,57.077211 139.586012,56.0324133 137.808555,54.4808237 C135.39815,56.9168064 131.951618,58.2867486 128.275318,57.9182514 C122.903931,57.3850145 118.750751,53.3142052 117.866358,48.2462861 C117.714624,48.2376156 117.567225,48.2419509 117.419827,48.2246098 C110.951618,47.5829913 106.234855,41.8170954 106.880809,35.3532225 C107.166936,32.4485983 108.497861,29.9038006 110.453064,28.0309682 C107.743526,25.6118931 106.178497,21.9832803 106.564335,18.094552 C106.685723,16.8893497 106.98052,15.7491763 107.431387,14.6874711 C107.435723,14.9215751 107.478642,22.9014884 111.461012,25.3288006 C114.001908,26.877789 105.536445,28.9894942 108.115491,38.219263 C110.619538,47.1819798 118.234422,40.9157948 119.591358,46.2308237 C120.948728,51.5458526 128.90263,57.3529335 134.610867,52.3136272 C137.292225,49.9465751 138.655231,50.2318353 139.948006,51.7196965 C142.931965,55.1536561 152.54237,54.6455636 154.670116,49.4788006 C157.563468,42.4509104 159.536012,44.9298121 163.055809,44.636315 C169.650607,44.085737 173.019104,34.4025 171.21737,31.5355925 C165.831243,22.9630491 176.106676,27.8254769 175.152486,17.877789 C175.46896,19.143685 175.573006,20.4876156 175.438613,21.8618931 C175.087457,25.3864595 173.205954,28.3864595 170.526763,30.2853035" id="Fill-199" fill="#4D97FF" opacity="0.1"></path>
            <path d="M37.5361127,94.2206358 C36.7280202,94.757341 36.2429046,95.4006936 34.391315,95.2242486 C30.248974,94.8306069 26.5731069,100.723092 32.174263,103.749104 C32.9845231,104.186965 35.3576445,106.336387 36.3313439,107.858064 C37.0609682,108.998237 38.1304769,108.314566 37.4650145,107.189133 C36.9439162,106.307775 34.982211,104.633931 35.1811994,104.66341 C35.3806214,104.693324 37.8521532,106.268324 39.0720954,108.511387 C39.8619798,109.962832 41.3238295,109.205462 40.6219509,107.85026 C39.698974,106.068468 36.923974,104.062977 37.1650145,104.056908 C37.4268642,104.050838 40.0375578,105.559075 41.7903035,108.071792 C42.8186272,109.545347 44.2683382,108.239133 43.165448,106.712688 C41.1153035,103.876127 37.9575,102.730751 38.2440607,102.539133 C38.4855347,102.379162 41.4205058,103.465578 43.8452168,106.374971 C44.8111127,107.53422 46.1073555,105.896358 44.9403035,104.462254 C43.341026,102.496647 41.4040318,101.609653 39.2793208,100.455173 C37.8109682,99.6574855 35.8635694,98.1926012 37.4975289,97.2813295 C41.4456503,95.0785838 38.9190607,93.3019942 37.5361127,94.2206358" id="Fill-201" fill="#F6DDC3"></path>
            <path d="M293.192645,145.50078 C279.65146,139.052081 263.005795,136.753526 257.285853,132.941098 C242.350882,122.98604 206.496546,129.917688 213.716922,140.251647 C221.684697,151.655116 167.643078,144.453382 193.718367,161.300202 C196.822413,163.305694 226.179928,160.705405 237.594234,164.080405 C249.008974,167.455405 274.651604,164.268121 285.525303,161.506994 C296.399003,158.745867 306.452038,151.814653 293.192645,145.50078" id="Fill-203" fill="#ECC293"></path>
            <g id="Group-207" transform="translate(193.352601, 151.321387)">
                <mask id="mask-2" fill="white">
                    <use xlink:href="#path-1"></use>
                </mask>
                <g id="Clip-206"></g>
                <path d="M106.601792,0.149263006 C106.893121,3.8307659 103.36552,14.7205058 99.4936994,16.848685 C94.8415318,19.4051879 86.4601734,15.5511416 82.5649422,20.2557659 C78.6701445,24.9599566 74.3262139,30.523396 67.8345954,30.2164595 C61.3429769,29.9095231 57.5556936,19.683078 51.3887861,19.0692052 C45.2214451,18.4557659 43.9230347,21.5238295 40.352948,21.0122688 C36.7824277,20.5007081 32.2382081,16.6145809 27.0445665,16.6145809 C21.8513584,16.6145809 20.3799711,20.899552 15.8357514,19.5703613 C11.2915318,18.240737 4.93430636,14.2228179 0.365809249,9.97903179 L106.601792,0.149263006 Z" id="Fill-205" fill="#47A8D1" mask="url(#mask-2)"></path>
            </g>
            <path d="M293.192645,145.50078 C279.077471,139.931705 258.322847,139.427081 252.354928,136.016965 C236.715477,127.08026 219.892066,139.159162 222.434697,142.035173 C231.557384,152.356127 189.476749,150.962775 191.099436,157.641243 C193.953338,169.385462 228.221402,161.148035 239.635708,164.523035 C251.050448,167.897601 265.115766,168.511474 275.989465,165.749913 C286.863165,162.988786 311.856373,152.863786 293.192645,145.50078" id="Fill-208" fill="#5CB1D6"></path>
            <path d="M243.606806,165.544162 C238.195535,163.205723 259.293512,158.143873 252.558251,154.768873 C245.823425,151.393873 216.285564,161.825376 211.741777,155.53578 C207.197558,149.246185 196.109697,158.408757 197.683829,153.219884 C197.683829,153.219884 190.801604,154.611069 191.099436,157.641416 C191.422847,160.931445 207.143367,152.268295 206.981228,156.788671 C206.818656,161.308613 216.331951,162.718873 222.507962,160.828266 C229.638598,158.645029 240.778916,156.072486 245.52646,157.184913 C250.206806,158.281301 237.654494,161.589538 236.707673,163.931879 C236.707673,163.931879 239.412876,164.356734 240.873425,164.778121 C242.333974,165.200376 243.606806,165.544162 243.606806,165.544162" id="Fill-210" fill="#FFFFFF" opacity="0.2"></path>
            <path d="M296.374639,147.015564 C298.873049,149.606749 286.854408,153.187673 275.279697,151.659928 C263.684176,150.129581 265.576084,152.865997 272.34646,155.324523 C275.648627,156.523656 287.466113,162.075824 280.871315,164.304581 C274.276951,166.533338 280.871315,164.304581 280.871315,164.304581 C280.871315,164.304581 287.951662,161.855159 290.610477,160.336084 C293.268858,158.816142 284.826373,158.24302 284.54198,155.45328 C284.257153,152.663107 296.439668,157.518165 298.727384,154.701546 C301.07146,151.814697 299.738367,148.45487 296.374639,147.015564" id="Fill-212" fill="#FFFFFF" opacity="0.2"></path>
            <path d="M276.335072,140.949581 C270.260072,139.351604 264.742153,143.859841 266.689552,147.243512 C268.637384,150.626749 258.412673,153.027616 253.138396,150.600303 C247.863685,148.172558 223.722789,154.460853 218.813107,151.588309 C216.32987,150.13513 215.262962,149.833829 211.109783,150.381806 C206.786662,150.951893 211.109783,150.381806 211.109783,150.381806 C211.109783,150.381806 216.051546,149.393367 218.247789,148.54539 C220.136228,147.816633 217.315708,150.239176 223.807327,149.93224 C230.299379,149.625303 242.102124,146.510419 255.924234,148.709263 C257.982616,149.036575 262.960795,148.790332 262.794754,147.243512 C262.578425,145.232384 262.842009,143.240332 264.296055,142.042934 C267.198078,139.654205 271.513829,140.343945 271.513829,140.343945 L276.335072,140.949581" id="Fill-214" fill="#FFFFFF" opacity="0.2"></path>
            <path d="M185.519393,111.904205 C184.360578,114.533107 184.888179,119.07776 186.050896,121.32776 C186.050896,121.32776 182.256243,119.690766 179.990636,122.269379 C179.990636,122.269379 176.877052,125.686431 181.376618,129.981373 C191.088468,139.25276 207.074306,140.388165 210.264191,136.268367 C213.410723,132.204494 214.606821,126.797124 200.069393,112.072847 L185.519393,111.904205 Z" id="Fill-216" fill="#231F20"></path>
            <path d="M204.24039,109.631575 C203.188656,114.294147 205.518425,121.903396 208.917269,124.297327 C208.917269,124.297327 206.331286,110.848049 202.05065,112.526228 C202.05065,112.526228 195.896315,120.987789 201.057442,124.197182 C206.218136,127.406142 223.051951,132.356575 224.37724,122.238945 C225.020592,117.326662 219.765824,111.904118 206.269725,109.218425 L204.24039,109.631575 Z" id="Fill-218" fill="#231F20"></path>
            <path d="M185.519393,111.904205 C194.222861,118.076749 206.472572,113.398136 209.104509,109.572702 C208.986156,104.949147 210.872428,100.363309 210.872428,100.363309 C210.872428,100.363309 212.894827,101.327471 217.527052,106.17039 C218.168671,106.841055 218.810723,107.438887 219.445838,107.977327 C221.813324,109.984118 225.850751,102.874725 223.71737,101.128483 C221.882688,99.6267486 220.535289,98.6240029 220.535289,98.6240029 C220.535289,98.6240029 216.754509,91.0234249 212.583555,86.2750145 C209.155231,82.3715462 205.254364,82.2479913 196.439046,83.6313728 C194.303497,83.966922 190.445549,84.6536272 187.849162,89.734552 C185.802919,93.7377312 187.785867,103.37198 185.519393,111.904205" id="Fill-220" fill="#0FBD8C"></path>
            <path d="M195.59276,93.1685983 C195.466171,95.2837717 195.927442,98.0865173 198.515592,103.310939 C199.585101,105.469465 200.28091,106.17828 201.555477,108.013396 C204.498685,112.253714 197.95591,117.940275 194.577009,112.151402 C189.199986,102.938974 187.338425,88.0009682 190.973974,85.9820376 C195.466171,83.4870954 195.89276,88.1600723 195.59276,93.1685983" id="Fill-222" fill="#0DA57A"></path>
            <path d="M233.938223,106.23789 C233.164379,106.716503 232.690101,107.303931 230.960766,107.082399 C227.09198,106.587312 223.467702,111.995549 228.623194,115.002486 C229.368858,115.437312 231.526517,117.523873 232.392269,118.97922 C233.041257,120.069538 234.064379,119.461734 233.475217,118.38659 C233.013945,117.545116 231.226951,115.916358 231.4125,115.950607 C231.598483,115.984855 233.865824,117.536445 234.940968,119.675029 C235.636344,121.059277 237.028829,120.394249 236.412789,119.103208 C235.602529,117.40552 233.063801,115.441214 233.289668,115.442948 C233.535477,115.445116 235.935043,116.938613 237.500939,119.345983 C238.419147,120.757977 239.817702,119.578353 238.830564,118.114769 C236.996315,115.394393 234.072616,114.224306 234.347471,114.053931 C234.57854,113.911301 237.295014,115.01896 239.478251,117.819538 C240.347471,118.934566 241.612066,117.439769 240.5625,116.060289 C239.124061,114.169682 237.336199,113.279653 235.380997,112.132977 C234.029263,111.340925 232.249639,109.908555 233.808165,109.104364 C237.575072,107.161734 235.262211,105.419393 233.938223,106.23789" id="Fill-224" fill="#B5875C"></path>
            <path d="M196.437355,104.949147 C196.437355,104.949147 195.787066,113.132818 200.949494,112.614321 C206.112355,112.09539 208.079263,110.417645 207.864234,108.421257 C207.569003,105.675303 208.395737,106.354205 206.949061,104.021402 C205.750361,102.08961 197.057298,105.227038 196.437355,104.949147" id="Fill-226" fill="#0DA57A"></path>
            <path d="M196.693699,92.4209393 C196.56711,94.5361127 197.027948,97.3384249 199.616532,102.562847 C200.68604,104.721373 201.950636,106.770217 203.224769,108.605766 C206.16841,112.84565 200.582861,118.220939 197.021012,112.543483 C194.608006,108.69724 192.62159,104.913425 191.899769,102.939147 C188.508295,93.6603902 187.338208,88.0011416 190.973757,85.9817775 C195.466387,83.4872688 196.993699,87.4119798 196.693699,92.4209393" id="Fill-228" fill="#0FBD8C"></path>
            <path d="M191.160303,85.6474855 C193.751488,84.2649711 194.555246,85.4281214 195.669408,86.7482081 C196.784003,88.0682948 198.583136,89.4846243 200.384003,89.514104 C201.47172,89.5318786 202.337038,91.0180058 202.851633,92.1924277 C203.00987,92.5531214 203.534436,92.4937283 203.605968,92.1061561 C203.836604,90.8580347 204.236749,89.2535549 204.793396,89.0810116 C206.820997,88.4510983 207.431402,86.6203179 207.185159,85.5668497 C206.85091,84.1362139 207.110159,83.1456069 205.110303,82.5850578 C203.110448,82.0240751 196.702066,83.5904046 196.702066,83.5904046 C196.702066,83.5904046 192.497298,84.0447399 191.160303,85.6474855" id="Fill-230" fill="#0DA57A"></path>
            <path d="M200.330202,87.6805058 C202.560694,88.067211 204.830202,87.1711127 205.082948,85.6685116 C205.359538,84.0250145 203.42341,85.1573844 204.595665,78.9727023 C205.187861,75.8482803 200.233092,75.7290607 199.762283,78.5387428 C198.777312,84.4195231 197.226156,82.4326734 196.819509,84.5413439 C196.53078,86.0374422 198.339017,87.3354191 200.330202,87.6805058" id="Fill-232" fill="#A57955"></path>
            <path d="M196.439263,83.6314162 C196.439263,83.6314162 194.222645,86.8958671 198.65198,88.1656647 C203.080882,89.4354624 205.942587,87.5305491 206.291142,86.1874855 C206.717298,84.5413873 205.110217,83.3231792 205.110217,83.3231792 L204.602124,83.487052 C204.602124,83.487052 206.09302,86.1874855 203.228714,87.102659 C200.413396,88.0022254 197.657905,86.7506358 197.116431,85.8133526 C196.309205,84.4156647 197.588974,83.3231792 197.588974,83.3231792 L196.439263,83.6314162 Z" id="Fill-234" fill="#0DA57A"></path>
            <path d="M280.779147,154.015058 C281.10646,154.108699 282.749523,155.493382 281.71513,157.541792 C280.612673,159.725029 277.658627,159.249884 276.951113,158.349884 C276.123078,157.295549 275.813107,156.432399 276.36672,156.574595 C277.044321,156.74974 277.628714,159.99815 280.741864,157.773295 C281.964841,156.899306 281.440275,155.157399 280.336951,154.475462 C280.089408,154.322428 280.451835,153.920983 280.779147,154.015058" id="Fill-236" fill="#FFFFFF" opacity="0.2"></path>
            <path d="M251.336402,103.115983 L251.022095,103.114681 C250.830043,103.114681 250.67354,103.269451 250.672673,103.461936 L250.51617,147.941272 C250.515737,148.133757 250.670939,148.29026 250.863425,148.290694 L251.177731,148.291998 C251.369783,148.292861 251.526286,148.137659 251.52672,147.945173 L251.683226,103.465405 C251.68409,103.272919 251.528454,103.11685 251.336402,103.115983" id="Fill-238" fill="#E8B182"></path>
            <path d="M230.048974,133.895462 L230.165159,134.187659 C230.236257,134.366272 230.43828,134.45341 230.617327,134.382746 L271.955766,117.963382 C272.134379,117.892283 272.221517,117.689827 272.150853,117.511214 L272.034668,117.219017 C271.963569,117.040405 271.761113,116.953266 271.5825,117.023931 L230.244061,133.443295 C230.065448,133.514393 229.977876,133.71685 230.048974,133.895462" id="Fill-240" fill="#E8B182"></path>
            <path d="M245.480202,142.181575 C245.480202,142.181575 269.236561,151.945882 265.969942,155.371604 C262.703324,158.797327 236.46026,148.814957 235.95,147.079986 C235.440173,145.345014 241.826445,140.443136 245.480202,142.181575" id="Fill-242" fill-opacity="0.2" fill="#000000"></path>
            <path d="M227.55724,140.233266 C222.99091,137.921272 231.312009,138.125896 232.328627,137.350751 C233.351315,136.570838 232.091488,135.090347 233.493512,134.138324 C234.925014,133.167225 237.310275,134.419682 238.860564,133.448584 C240.281662,132.558121 238.897413,129.204364 244.08065,131.25841 C249.139465,133.262601 267.322413,141.614913 273.787587,144.106821 C277.264465,145.446416 278.267211,145.577341 278.210853,149.785145 C278.191344,151.225751 277.705361,153.282399 280.779061,154.015058 C282.245679,154.750318 282.638454,157.178931 280.982384,158.415347 C279.649725,159.410723 277.087587,159.64396 276.080072,156.983844 C271.98065,155.509422 263.570246,161.759133 257.384263,159.571561 C250.186431,157.026329 239.078627,152.108844 233.30276,149.409277 C227.449725,146.673728 226.871402,141.762312 226.228483,139.210578" id="Fill-244" fill="#FFFFFF" opacity="0.5"></path>
            <path d="M232.767182,135.660477 C232.852153,136.401373 234.327009,140.085477 232.886402,139.671893 C232.001575,139.417847 231.286257,137.690679 230.01039,137.874494 C230.01039,137.874494 231.792182,137.769581 232.328454,137.350361 C232.879465,136.91987 232.767182,135.660477 232.767182,135.660477" id="Fill-246" fill="#FFFFFF" opacity="0.25"></path>
            <path d="M239.987688,131.371387 C239.43104,132.727457 240.963121,135.08974 239.575405,136.178324 C238.615145,136.931358 237.654017,133.692052 235.314711,133.746676 C235.314711,133.746676 236.718468,133.789595 237.19448,133.842919 C237.670491,133.896243 238.913844,133.772254 239.345202,132.803324 C239.803439,131.772399 239.987688,131.371387 239.987688,131.371387" id="Fill-248" fill="#FFFFFF"></path>
            <path d="M228.091127,140.450419 C228.091127,140.450419 251.782023,154.263425 262.482746,155.330766 C272.110058,156.291026 275.255289,156.695939 276.079855,156.983801 C271.209624,155.682789 262.545173,162.252442 255.371185,158.866171 C245.588237,154.249118 233.302977,149.409234 233.302977,149.409234 C233.302977,149.409234 227.652399,146.421373 226.802254,141.518194 C225.95211,136.614581 226.334046,140.091893 228.091127,140.450419" id="Fill-250" fill="#FFFFFF" opacity="0.5"></path>
            <path d="M279.117442,153.285607 C276.882616,152.262486 278.541286,146.194422 275.123801,144.734306 C272.542587,143.632283 275.123801,144.734306 275.123801,144.734306 C275.123801,144.734306 276.267442,145.462197 276.05328,149.54211 C275.892876,152.600202 276.928569,152.049624 279.117442,153.285607" id="Fill-252" fill="#FFFFFF" opacity="0.25"></path>
            <path d="M265.236763,102.293367 C261.479393,106.637298 251.553815,115.249725 234.232717,111.344957 C232.912197,111.047124 231.752081,112.263598 232.135318,113.561575 C233.923613,119.613598 237.170289,133.316055 232.703671,141.117789 C232.084162,142.199436 232.695867,143.560708 233.924913,143.768801 C240.189364,144.829639 255.757283,146.080795 265.35815,134.85724 C265.461329,134.73672 265.546734,134.605361 265.616098,134.462298 C266.575058,132.472847 273.576069,117.109986 268.231127,102.826171 C267.763786,101.577616 266.109017,101.284986 265.236763,102.293367" id="Fill-254" fill="#FF8C1A"></path>
            <path d="M269.848483,119.909176 C268.747327,127.424783 266.183454,133.286055 265.616402,134.462645 C265.545737,134.603974 265.461633,134.738367 265.358454,134.855419 C255.756286,146.079841 240.189668,144.826951 233.922616,143.767847 C232.694436,143.561922 232.084465,142.202384 232.704408,141.118136 C233.324783,140.034321 233.79646,138.835621 234.139812,137.559321 C233.020882,142.653251 265.539668,149.320014 269.848483,119.909176" id="Fill-256" fill="#FF8000"></path>
            <path d="M212.744133,116.316503 C211.970289,116.795116 211.496012,117.382543 209.766676,117.161012 C205.89789,116.665925 202.273613,122.074162 207.429104,125.081098 C208.174769,125.515925 210.332861,127.602486 211.198613,129.057832 C211.847601,130.14815 212.870289,129.540347 212.281127,128.465202 C211.819855,127.623728 210.032861,125.994971 210.21841,126.02922 C210.404393,126.063468 212.671734,127.615058 213.746879,129.753642 C214.442254,131.13789 215.83474,130.472861 215.218699,129.181821 C214.408439,127.484133 211.869711,125.519827 212.095578,125.521561 C212.341387,125.523728 214.740954,127.017225 216.30685,129.424595 C217.225058,130.83659 218.623613,129.656965 217.636474,128.193382 C215.802659,125.473006 212.878526,124.302919 213.153382,124.132543 C213.384451,123.989913 216.100925,125.097572 218.284162,127.89815 C219.153815,129.013179 220.417977,127.518382 219.36841,126.138902 C217.929971,124.248295 216.142543,123.358266 214.186908,122.21159 C212.835173,121.419538 211.055549,119.987168 212.614075,119.182977 C216.380983,117.240347 214.068121,115.498006 212.744133,116.316503" id="Fill-258" fill="#B5875C"></path>
            <path d="M205.640896,58.1740751 C205.640896,58.1740751 197.234393,56.9177168 195.301301,68.0749422 C193.618786,77.7872254 203.036272,84.463526 205.909249,84.9612139 C208.691618,85.4428613 217.529046,80.3953179 215.455058,74.2648266 C218.800145,60.2571676 212.52789,59.3671387 205.640896,58.1740751" id="Fill-260" fill="#B5875C"></path>
            <path d="M211.808887,76.5197688 C212.961199,78.4806069 215.279697,74.2693353 212.048194,75.3089306" id="Stroke-262" stroke="#A57955" stroke-width="0.5" stroke-linecap="round" stroke-linejoin="round"></path>
            <path d="M207.93724,73.6226445 C207.861373,74.0596387 207.532327,74.3678757 207.20198,74.3106503 C206.871633,74.2529913 206.664841,73.8524133 206.740708,73.4149855 C206.816575,72.9784249 207.145621,72.6706214 207.475968,72.7278468 C207.806315,72.7846387 208.013107,73.1856503 207.93724,73.6226445" id="Fill-264" fill="#231F20"></path>
            <path d="M214.595072,73.1493208 C214.519639,73.586315 214.190159,73.894552 213.859812,73.8368931 C213.529465,73.7796676 213.322673,73.3790896 213.39854,72.9416618 C213.474408,72.5051012 213.803454,72.1968642 214.134234,72.2545231 C214.464581,72.311315 214.670939,72.7118931 214.595072,73.1493208" id="Fill-266" fill="#231F20"></path>
            <path d="M204.07422,69.8640173 C204.251532,70.1869942 204.636936,70.3491329 204.986792,70.2333815 C206.046329,69.882659 207.424509,70.2169075 207.296618,69.5731214 C207.152254,68.8434971 204.434913,68.341474 204.050376,69.0741329 C203.896474,69.3680636 203.951965,69.6416185 204.07422,69.8640173" id="Fill-268" fill="#594A42"></path>
            <path d="M214.925939,69.9851012 C214.774639,70.2205058 214.474639,70.3228179 214.215824,70.2170376 C213.432009,69.8962283 212.371171,70.0774422 212.501228,69.5966618 C212.649061,69.0521532 214.732587,68.8132803 214.985332,69.3881358 C215.086777,69.6187717 215.029986,69.823396 214.925939,69.9851012" id="Fill-270" fill="#594A42"></path>
            <path d="M207.42052,79.9151445 C208.284538,80.5871098 210.976301,80.532052 212.124277,79.8687572 C213.572688,79.0316185 211.864595,82.9047399 208.915751,82.8704913 C205.966908,82.8366763 206.556503,79.2436127 207.42052,79.9151445" id="Fill-272" fill="#231F20"></path>
            <path d="M212.124104,79.8685838 C212.124104,79.8685838 211.189422,81.2675723 209.368179,81.3824566 C207.546503,81.4977746 207.547803,80.0003757 207.547803,80.0003757 C207.547803,80.0003757 208.649827,80.4538439 209.757052,80.3905491 C210.840867,80.3289884 212.124104,79.8685838 212.124104,79.8685838" id="Fill-274" fill="#FFFFFF"></path>
            <path d="M199.888829,58.8260549 C199.888829,58.8260549 198.853136,58.1337139 196.953858,59.3766329 C194.912384,60.7118931 193.069465,65.7048121 194.584205,69.9065462 C196.098945,74.1078468 194.809639,75.8879046 197.281604,75.2358815 C198.454725,74.9259104 195.44909,69.243685 200.471055,69.3485983 C203.637095,69.4153613 200.994754,63.228078 205.517298,67.0834249 C208.571488,69.6867486 218.427702,69.3416618 218.547355,66.4157948 C218.667442,63.4903613 217.129292,65.0085694 215.739841,60.7734538 C214.35039,56.5387717 205.340419,50.785448 199.888829,58.8260549" id="Fill-276" fill="#594A42"></path>
            <path d="M200.794205,70.6565462 C201.045217,70.3457081 201.008801,69.8874711 200.69276,69.643396 C200.150853,69.2250434 199.193627,68.9011994 197.871806,70.0309682 C196.258656,71.4087139 197.173829,74.661026 199.026286,75.2827023 C199.518338,75.4474422 200.003887,75.0121821 199.934957,74.4980202 C199.875564,74.060159 199.836113,73.4662283 199.886835,72.7556792 C199.950997,71.8591474 200.43091,71.1065462 200.794205,70.6565462" id="Fill-278" fill="#A57955"></path>
            <polygon id="Fill-280" fill="#FF6680" points="175.894422 185.238685 165.719133 175.086373 174.862197 186.530592"></polygon>
            <polygon id="Fill-282" fill="#FF4D6A" points="172.664133 187.427038 165.719046 175.086286 174.86211 186.530939"></polygon>
            <polygon id="Fill-284" fill="#FF6680" points="174.862023 186.530766 171.653064 187.350564 166.530087 198.141893 180.954798 192.366893 181.512746 189.965592"></polygon>
            <polygon id="Fill-286" fill="#FF6680" points="174.862023 186.530766 177.116792 183.708945 188.953353 178.141604 186.005809 187.34146 181.512746 189.965592"></polygon>
            <polygon id="Fill-288" fill="#FF4D6A" points="180.613006 189.501113 178.360838 184.749668 174.86185 186.530592"></polygon>
            <polygon id="Fill-290" fill="#FF3355" points="178.360925 184.749668 182.410491 189.441286 180.613092 189.501113"></polygon>
            <polygon id="Fill-292" fill="#FF4D6A" points="178.182269 188.245405 166.53039 198.141936 177.737471 188.016069"></polygon>
            <polygon id="Fill-294" fill="#FF4D6A" points="179.953829 186.595145 188.953396 178.141821 179.63172 186.221879"></polygon>
            <polygon id="Fill-296" fill="#FF4D6A" points="180.613006 189.501113 190.506069 183.811951 191.380491 184.287962 194.569942 189.322066 189.159538 185.925824 181.032659 192.032038 181.513006 189.965419"></polygon>
            <polygon id="Fill-298" fill="#FF3355" points="191.380665 184.287789 191.380665 184.287789 194.570116 189.321893 190.230954 185.649494 188.802919 186.17276"></polygon>
            <g id="Group" transform="translate(74.355645, 135.628322) rotate(20.000000) translate(-74.355645, -135.628322) translate(65.355645, 127.628322)">
                <polygon id="Fill-300" fill="#FF661A" points="7.47138728 6.84372832 8.2600593e-14 4.93491329 7.34739884 7.72205202"></polygon>
                <polygon id="Fill-302" fill="#FF5500" points="6.57723988 8.73619942 0.000216763006 4.93460983 7.34761561 7.72218208"></polygon>
                <polygon id="Fill-304" fill="#FF661A" points="7.34757225 7.72222543 6.08947977 8.97728324 6.6717052 15.3592197 11.7547977 8.75315029 11.3568208 7.49202312"></polygon>
                <polygon id="Fill-306" fill="#FF661A" points="7.34757225 7.72222543 7.61809249 5.80343931 11.5631792 0.000260115607 12.7146243 5.05300578 11.3568208 7.49202312"></polygon>
                <polygon id="Fill-308" fill="#FF5500" points="10.814263 7.52280347 8.47669075 5.94390173 7.34735549 7.72222543"></polygon>
                <polygon id="Fill-310" fill="#E64D00" points="8.47669075 5.94407514 11.6279913 7.00447977 10.814263 7.52297688"></polygon>
                <polygon id="Fill-312" fill="#FF5500" points="9.34903179 7.60708092 6.67157514 15.3593931 9.08067919 7.62268786"></polygon>
                <polygon id="Fill-314" fill="#FF5500" points="9.71605491 6.36112717 11.5628757 -2.84217094e-14 9.46547688 6.27702312"></polygon>
                <polygon id="Fill-316" fill="#FF5500" points="10.814263 7.52280347 13.8285694 2.19390173 14.3622399 2.17482659 17.2100723 3.62843931 13.7843497 3.53783237 11.6990896 8.57713873 11.356604 7.49202312"></polygon>
                <polygon id="Fill-318" fill="#E64D00" points="14.3622832 2.17486994 14.3622832 2.17486994 17.2101156 3.62848266 14.2031792 3.11778902 13.6868497 3.74943642"></polygon>
            </g>
            <polygon id="Fill-320" fill="#0FBD8C" points="109.022818 172.860303 116.433945 165.46565 109.774552 173.801488"></polygon>
            <polygon id="Fill-322" fill="#0DA57A" points="111.37565 174.454292 116.434032 165.465997 109.774639 173.801402"></polygon>
            <polygon id="Fill-324" fill="#0FBD8C" points="109.774725 173.801445 112.112298 174.39841 115.843223 182.259104 105.337153 178.052601 104.930506 176.303324"></polygon>
            <polygon id="Fill-326" fill="#0FBD8C" points="109.774725 173.801445 108.132529 171.746532 99.5109971 167.690896 101.657818 174.391908 104.930506 176.303324"></polygon>
            <polygon id="Fill-328" fill="#0DA57A" points="105.585737 175.96487 107.226199 172.504465 109.774899 173.801575"></polygon>
            <polygon id="Fill-330" fill="#0B8E69" points="107.226069 172.504249 104.276358 175.921734 105.585607 175.964653"></polygon>
            <polygon id="Fill-332" fill="#0DA57A" points="107.356257 175.05039 115.843396 182.259061 107.680535 174.883049"></polygon>
            <polygon id="Fill-334" fill="#0DA57A" points="106.06604 173.848439 99.5106936 167.691069 106.300578 173.576618"></polygon>
            <polygon id="Fill-336" fill="#0DA57A" points="105.585737 175.96487 98.3801012 171.821228 97.7428179 172.167616 95.4199855 175.834812 99.360737 173.360679 105.280101 177.808223 104.930246 176.303454"></polygon>
            <polygon id="Fill-338" fill="#0B8E69" points="97.7429046 172.167702 97.7429046 172.167702 95.4200723 175.834899 98.5804769 173.15961 99.6209393 173.540679"></polygon>
            <path d="M29.9790607,50.9755925 C31.6186561,47.9742919 29.3630202,44.783974 31.3594075,44.6222688 C31.6372977,44.5992919 32.7952457,44.1397543 33.4524711,42.1021821 C35.5121532,44.118078 39.5036272,37.2683671 44.1107081,41.0725578 C48.0241474,44.3044942 55.668078,35.0274711 40.0372977,28.7279046 C33.1875867,27.1520376 26.4518931,32.2199566 25.0312283,38.3829624 C21.6146098,53.201315 11.8312283,51.7823844 13.7270376,67.7170665 C13.7270376,67.7170665 16.2189451,57.309841 25.8727023,55.3806503 C28.8488584,54.7858526 28.4695231,53.7393208 29.9790607,50.9755925" id="Fill-340" fill="#FFAB1A"></path>
            <path d="M32.0973555,44.8681214 C32.3492341,44.5845954 32.3349277,44.1480347 32.0457659,43.902659 C31.5502457,43.4821387 30.656315,43.1327168 29.3522688,44.1454335 C27.7607948,45.3822832 28.4856503,48.5080058 30.2162861,49.1795376 C30.6753902,49.3577168 31.1553035,48.9662428 31.1123844,48.4754913 C31.0759682,48.0567052 31.0646965,47.4922543 31.1440318,46.820289 C31.2446098,45.9723121 31.7327601,45.279104 32.0973555,44.8681214" id="Fill-342" fill="#F6DDC3"></path>
            <path d="M37.1889451,39.7178757 C31.2223266,45.6116618 36.4333092,54.3849277 29.7162572,58.4245231" id="Stroke-344" stroke="#FFAB1A" stroke-width="0.5" stroke-linecap="round" stroke-linejoin="round"></path>
            <path d="M40.6622254,43.3659971 C40.9813006,43.4713439 40.8091908,43.9365173 40.505289,43.9217775 C40.3245087,43.9135405 38.9710405,43.2836272 37.8911272,43.0581936 C37.1532659,42.9042919 36.7279769,43.2446098 36.130578,43.3178757 C36.0295665,43.2428757 36.770896,42.6428757 37.8477746,42.6116618 C38.6367919,42.5891185 39.9950289,43.1457659 40.6622254,43.3659971" id="Fill-346" fill="#FF9B0B"></path>
            <path d="M45.3368497,45.2135983 C45.9333815,45.2703902 46.1419075,45.709552 46.5628613,45.942789 C46.6612717,45.8994364 46.2992775,45.1268931 45.5093931,44.8021821 C44.9306358,44.5641763 43.7466763,44.7193786 43.1817919,44.7453902" id="Fill-348" fill="#FF9B0B"></path>
            <path d="M40.5470809,53.9908092 C39.9917341,53.3621965 37.5093642,53.5330058 37.7022832,52.887052" id="Stroke-350" stroke="#FF661A" stroke-width="0.5" opacity="0.4" stroke-linecap="round" stroke-linejoin="round"></path>
            <path d="M159.798251,163.471344 C158.662847,162.812818 160.836113,158.413396 159.401142,154.962095 C159.166171,154.396344 159.49565,153.741286 160.05013,153.701835 C161.232355,153.618165 163.076575,153.456026 165.047818,153.159494 C167.56487,152.780159 169.073107,151.051257 170.039003,151.733194 C172.104321,153.190708 177.313569,161.08435 179.005621,165.139986 C179.585246,166.529436 179.131777,172.366864 178.199263,172.878425 C176.918627,173.582038 174.72802,174.168165 173.626864,172.309205 C172.813569,170.936662 168.412413,165.153858 166.03409,163.574523 C163.670072,162.004725 161.068483,164.207905 159.798251,163.471344" id="Fill-352" fill="#4D97FF"></path>
            <path d="M171.526777,169.516171 C168.520708,165.036546 160.411171,163.787124 157.432847,164.407934 C155.530968,164.80461 155.153367,159.544205 157.328801,159.219494 C165.259292,158.034668 172.145419,161.195506 174.392384,164.905188 C176.715217,168.739725 172.23776,170.575275 171.526777,169.516171" id="Fill-354" fill="#4280D7"></path>
            <path d="M171.792832,170.820954 C172.402803,172.227312 174.667977,174.740462 175.649913,173.61026 C176.63185,172.479624 177.15078,169.105925 176.533006,167.218353 C175.727948,164.759393 173.951792,164.263873 172.354682,165.639884 C171.07578,166.741908 171.242254,169.551156 171.792832,170.820954" id="Fill-356" fill="#F1F2F2"></path>
            <path d="M176.897775,173.282428 C177.068584,172.892254 178.276821,169.553671 177.583613,165.953671 C176.728699,161.516098 169.037081,152.185751 168.839827,151.945578 C168.33737,151.334306 170.022919,151.218988 170.479422,151.743555 C171.427543,152.832572 178.41815,162.054538 179.146908,165.670578 C180.04604,170.132428 178.74026,172.841098 178.366994,173.362197 C177.991561,173.886329 176.564827,174.043266 176.897775,173.282428" id="Fill-358" fill="#F1F2F2"></path>
            <path d="M164.664451,154.194147 C165.964595,154.022905 167.100434,154.672327 167.201445,155.642991 C167.302023,156.61409 166.330058,157.539668 165.029913,157.710043 C163.729335,157.880853 162.593931,157.232298 162.492919,156.261199 C162.391908,155.290101 163.364306,154.364957 164.664451,154.194147" id="Fill-360" fill="#F1F2F2"></path>
            <path d="M197.470795,114.710679 C196.171517,113.529321 194.960679,111.374263 194.960679,109.986546 C194.960679,108.598396 194.994061,105.98987 199.348829,105.025708 C202.165882,104.402298 204.297529,107.789436 204.297529,107.789436" id="Fill-362" fill="#0B8E69"></path>
            <path d="M219.055014,107.742529 C217.864986,106.64354 216.733916,104.872587 216.733916,103.581113 C216.733916,102.290072 216.763829,99.8623266 220.752702,98.9657948 C223.332616,98.3853035 225.206315,101.515361 225.206315,101.515361" id="Fill-364" fill="#0B8E69"></path>
            <path d="M200.561358,106.030838 C198.072919,106.15526 195.44315,108.804971 196.466705,113.056994 C197.490694,117.309017 205.651387,114.842688 205.527399,111.705694 C205.403844,108.568699 203.710925,105.873468 200.561358,106.030838" id="Fill-366" fill="#0DA57A"></path>
            <path d="M221.908092,99.7773121 C219.701879,99.9017341 216.289162,103.513439 218.582948,107.12211 C220.914884,110.79104 226.420665,108.589162 226.310983,105.452168 C226.201301,102.315173 224.700434,99.6199422 221.908092,99.7773121" id="Fill-368" fill="#0DA57A"></path>
            <path d="M198.586561,113.559147 C198.586561,113.559147 205.99422,122.34802 206.34841,122.742095 C206.703035,123.135737 211.925723,117.040795 209.766763,117.161315 C205.529046,117.397587 204.804191,110.547442 202.933092,108.771286 C200.03974,106.024465 196.799566,111.090217 198.586561,113.559147" id="Fill-370" fill="#B5875C"></path>
            <path d="M220.277688,106.908468 C220.277688,106.908468 225.958179,110.537514 226.31237,110.931156 C226.666561,111.324798 233.119595,106.962225 230.960636,107.082312 C226.722919,107.319017 225.916127,104.380578 224.045029,102.604422 C221.151676,99.8576012 218.490694,104.439104 220.277688,106.908468" id="Fill-372" fill="#B5875C"></path>
            <path d="M200.645419,91.6131503 C200.645419,92.0124277 200.321575,92.3362717 199.921864,92.3362717 C199.522587,92.3362717 199.198743,92.0124277 199.198743,91.6131503 C199.198743,91.2134393 199.522587,90.8895954 199.921864,90.8895954 C200.321575,90.8895954 200.645419,91.2134393 200.645419,91.6131503" id="Fill-374" fill="#0B8E69"></path>
            <path d="M206.557066,90.8895954 C206.557066,91.2893064 206.233223,91.6131503 205.833945,91.6131503 C205.434234,91.6131503 205.11039,91.2893064 205.11039,90.8895954 C205.11039,90.4898844 205.434234,90.1660405 205.833945,90.1660405 C206.233223,90.1660405 206.557066,90.4898844 206.557066,90.8895954" id="Fill-376" fill="#0B8E69"></path>
            <path d="M199.921864,91.6131503 C199.921864,91.6131503 199.694263,94.8684971 199.921864,96.8171965" id="Stroke-378" stroke="#FFFFFF" stroke-width="0.5" stroke-linecap="round"></path>
            <path d="M205.833728,90.8895954 C205.833728,90.8895954 206.131994,93.3723988 206.269855,96.2067919" id="Stroke-380" stroke="#FFFFFF" stroke-width="0.5" stroke-linecap="round"></path>
            <path d="M209.712399,104.173526 L210.872514,100.363266 C210.872514,100.363266 208.573092,98.057341 208.307341,96.5512717 C208.307341,96.5512717 209.198237,103.084509 209.712399,104.173526" id="Fill-382" fill="#0DA57A"></path>
            <path d="M13.2743064,70.3932225 C13.2743064,70.3932225 9.26419075,76.7977023 12.2880347,85.4699566 C12.2880347,85.4699566 14.2839884,86.5945231 16.4728613,86.8108526 C16.4728613,86.8108526 10.6887572,80.383396 13.2743064,70.3932225" id="Fill-384" fill="#4280D7"></path>
            <path d="M24.6719653,84.6009538 C24.6719653,84.6009538 21.3693642,80.7646821 21.0407514,78.6022543 C20.7121387,76.4398266 23.7637283,85.4762428 31.8546243,76.9336127 C31.8546243,76.9336127 26.6926301,81.3919942 24.6719653,84.6009538" id="Fill-386" fill="#4280D7"></path>
            <path d="M5.00111272,147.691691 C9.49764451,152.143136 7.65125723,143.830275 11.0123844,146.647327 C13.4466329,148.6875 18.0797254,155.325217 22.4015462,156.726806 C23.0110838,156.924061 23.8941763,158.345159 23.3422977,159.648338 C22.4297254,160.726951 16.9083382,165.329697 10.5628179,159.872905 C6.10963873,156.043136 3.32466763,156.925361 3.28131503,154.644581 C3.26440751,153.770592 3.40400289,146.111055 5.00111272,147.691691" id="Fill-388" fill="#9966FF"></path>
            <path d="M10.7093497,150.512991 C9.46339595,147.962991 12.230159,142.965303 14.2378179,143.624263 C15.5405636,144.05172 14.5300145,145.518338 15.3372399,147.538569 C16.2355058,149.784668 14.8894075,152.240592 20.1502457,155.584379 C21.4907081,156.436257 19.1622399,157.597673 17.9843497,157.142905 C14.7077601,155.879176 10.7093497,150.512991 10.7093497,150.512991" id="Fill-390" fill="#774DCB"></path>
            <path d="M23.3709538,157.940939 C23.3709538,157.940939 20.0015896,160.758858 16.8637283,160.705535 C11.9271676,160.621431 11.1780347,157.013627 8.2599711,155.792384 C5.34190751,154.571575 5.43901734,151.293685 3.36199422,152.148598 C3.36199422,152.148598 3.08323699,154.861604 3.28222543,155.661026 C3.48121387,156.460882 6.61517341,156.924754 9.2666185,159.205968 C11.9184971,161.487182 13.9903179,163.687327 18.3225434,162.578801 C22.6552023,161.470275 23.325,160.241662 23.7589595,159.364639 C24.1478324,158.578656 23.9115607,157.666084 23.3709538,157.940939" id="Fill-392" fill="#F1F2F2"></path>
            <path d="M19.0826879,154.85289 C19.977052,155.030636 18.1631792,153.493353 17.7209827,153.405347 C16.4867341,153.159971 14.3173699,153.880491 13.7498844,155.337572 C13.3532081,156.355925 15.4215607,157.100723 15.7809538,156.392341 C16.2829769,155.402168 18.2641908,154.690318 19.0826879,154.85289" id="Fill-394" fill="#F1F2F2"></path>
            <path d="M16.1875145,151.523974 C17.0818786,151.70172 16.1693064,150.147095 15.7956069,149.89435 C14.7447399,149.183367 11.2383815,149.864436 10.670896,151.321517 C10.2742197,152.33987 12.5263873,153.771806 12.8857803,153.062991 C13.388237,152.073251 15.3694509,151.361402 16.1875145,151.523974" id="Fill-396" fill="#F1F2F2"></path>
            <polygon id="Path" fill="#231F20" points="139.998962 152.818115 152.640686 154.166752 151.750854 162.014404 139.575378 161.466309"></polygon>
            <path d="M143.030029,161.862572 C145.448671,158.348844 152.370347,160.334827 152.784798,167.630636 C153.237399,175.599711 147.461532,185.90896 146.935231,186.870954 C144.696503,190.959971 136.29,187.346965 139.133931,182.215751 C144.507486,172.52211 139.316879,167.257803 143.030029,161.862572" id="Fill-69" fill="#C49A6C"></path>
            <path d="M144.064335,164.227066 C145.913757,161.149032 150.903208,162.680679 151.021561,168.933858 C151.151618,175.764494 146.687601,184.761026 146.280087,185.599899 C144.547717,189.166517 138.517803,186.275766 140.717081,181.798743 C144.872428,173.341517 141.225607,168.952066 144.064335,164.227066" id="Fill-105" fill="#B58D66"></path>
        </g>
        <g id="Group-11" transform="translate(49.000000, 69.000000)">
            <polygon id="Fill-1" fill="#FF6680" points="6.27516 7.76112 6.98356 6.88472 -4e-05 0.00032"></polygon>
            <polygon id="Fill-2" fill="#FF4D6A" points="4.76676 8.36844 6.27516 7.76124 -4e-05 4e-05"></polygon>
            <polygon id="Fill-3" fill="#FF6680" points="4.07232 8.3166 0.55672 15.6346 10.45712 11.7186 10.83992 10.0898 6.27512 7.761"></polygon>
            <polygon id="Fill-4" fill="#FF6680" points="6.2752 7.761 7.8228 5.8474 15.9472 2.0718 13.924 8.3106 10.84 10.0898"></polygon>
            <polygon id="Fill-5" fill="#FF4D6A" points="10.22248 9.77468 8.67688 6.55308 6.27528 7.76108"></polygon>
            <polygon id="Fill-6" fill="#FF3355" points="8.67676 6.5532 11.45636 9.7344 10.22236 9.7748"></polygon>
            <polygon id="Fill-7" fill="#FF4D6A" points="0.55656 15.63468 8.55376 8.92348 8.24856 8.76788"></polygon>
            <polygon id="Fill-8" fill="#FF4D6A" points="9.76996 7.80436 15.94716 2.07196 9.54876 7.55116"></polygon>
            <polygon id="Fill-9" fill="#FF4D6A" points="10.22256 9.7746 10.84016 10.0898 10.51016 11.491 16.08856 7.3502 19.80176 9.6538 17.61296 6.2398 17.01296 5.9174"></polygon>
            <polygon id="Fill-10" fill="#FF3355" points="15.8436 7.51812 16.824 7.16292 19.802 9.65372 17.6132 6.23972"></polygon>
        </g>
    </g>
</svg>