<?xml version="1.0" encoding="UTF-8"?>
<svg width="300px" height="200px" viewBox="0 0 300 200" version="1.1" xmlns="http://www.w3.org/2000/svg" xmlns:xlink="http://www.w3.org/1999/xlink">
    <title>Play Illustration</title>
    <defs>
        <polygon id="path-1" points="0 0.24525 10.7945423 0.24525 10.7945423 21.749925 0 21.749925"></polygon>
        <polygon id="path-3" points="0.0847258351 0.3798 10.49826 0.3798 10.49826 17.0009864 0.0847258351 17.0009864"></polygon>
        <polygon id="path-5" points="0.0941299623 0.6585 11.03175 0.6585 11.03175 21.389925 0.0941299623 21.389925"></polygon>
        <polygon id="path-7" points="0.281086054 0.134242246 112.602 0.134242246 112.602 86.25 0.281086054 86.25"></polygon>
        <polygon id="path-9" points="7.5e-05 0.19575 97.056825 0.19575 97.056825 92.2050744 7.5e-05 92.2050744"></polygon>
        <polygon id="path-11" points="0 0.061875 119.894404 0.061875 119.894404 80.3763029 0 80.3763029"></polygon>
    </defs>
    <g id="Play-Illustration" stroke="none" stroke-width="1" fill="none" fill-rule="evenodd" opacity="0.5">
        <g id="Play-Illustrations" transform="translate(13.000000, 9.000000)">
            <g id="Group-8">
                <g id="Group-6" transform="translate(226.916000, 85.776485) rotate(-35.000000) translate(-226.916000, -85.776485) translate(221.416000, 74.276485)">
                    <path d="M2.897475,21.680325 C2.504475,21.680325 2.142975,21.481575 1.930725,21.149325 L0.755475,19.308075 C0.548475,18.984075 0.516975,18.580575 0.671475,18.228075 C0.825975,17.876325 1.144725,17.625825 1.524225,17.559075 L3.092475,17.283075 L6.075975,9.576825 L5.943975,8.747325 C5.877975,8.339325 6.037725,7.925325 6.360975,7.667325 L6.878475,7.255575 L6.773475,6.602325 C6.708975,6.195075 6.868725,5.781825 7.191225,5.523825 L7.707975,5.110575 L7.575975,4.282575 C7.542225,4.082325 7.565475,3.872325 7.641975,3.678825 L8.429475,1.688325 C8.516475,1.467825 8.728725,1.324575 8.963475,1.324575 C8.975475,1.324575 8.986725,1.324575 8.998725,1.325325 C9.246225,1.341075 9.456225,1.513575 9.519225,1.754325 L10.182975,4.299075 C10.243725,4.531575 10.230225,4.774575 10.143225,5.002575 L3.969975,20.946075 C3.797475,21.392325 3.376725,21.680325 2.897475,21.680325" id="Fill-1" fill="#DBDCDD"></path>
                    <g id="Group-5" transform="translate(0.000000, 0.504750)">
                        <mask id="mask-2" fill="white">
                            <use xlink:href="#path-1"></use>
                        </mask>
                        <g id="Clip-4"></g>
                        <path d="M8.963325,0.245175 C8.494575,0.245175 8.070075,0.530925 7.895325,0.971925 L7.107075,2.963175 C6.993825,3.251175 6.959325,3.564675 7.008825,3.869175 L7.087575,4.366425 L6.833325,4.569675 C6.348825,4.955925 6.108075,5.576175 6.206325,6.188925 L6.258075,6.510675 L6.003075,6.713925 C5.517825,7.100925 5.278575,7.721175 5.376075,8.332425 L5.484075,9.009675 L2.673825,16.268175 L1.425075,16.487925 C0.856575,16.588425 0.378825,16.963425 0.146325,17.491425 C-0.086175,18.020175 -0.039675,18.626175 0.270825,19.112175 L1.446825,20.953425 C1.764075,21.452175 2.307075,21.749925 2.897325,21.749925 C3.615825,21.749925 4.246575,21.317925 4.506075,20.648925 L10.677825,4.706175 C10.809075,4.367175 10.830075,4.001925 10.738575,3.649425 L10.074825,1.104675 C9.949575,0.623175 9.529575,0.277425 9.033825,0.247425 C9.009825,0.245925 8.986575,0.245175 8.963325,0.245175 M8.963325,1.393425 L9.627075,3.939675 C9.657825,4.055925 9.650325,4.178925 9.606075,4.292175 L3.434325,20.234175 C3.341325,20.474925 3.120075,20.601675 2.897325,20.601675 C2.713575,20.601675 2.529075,20.514675 2.415075,20.335425 L1.239075,18.494175 C1.018575,18.149175 1.221075,17.690925 1.624575,17.619675 L3.192075,17.344425 C3.390075,17.309175 3.555825,17.172675 3.628575,16.985175 L6.611325,9.279675 C6.648075,9.185175 6.659325,9.081675 6.642825,8.981175 L6.510075,8.151675 C6.477825,7.947675 6.557325,7.740675 6.719325,7.611675 L7.236075,7.199175 C7.398075,7.070925 7.478325,6.863925 7.445325,6.659925 L7.340325,6.007425 C7.308075,5.802675 7.387575,5.596425 7.549575,5.467425 L8.066325,5.054925 C8.228325,4.925925 8.307825,4.720425 8.274825,4.515675 L8.142825,3.687675 C8.126325,3.585675 8.137575,3.481425 8.175825,3.385425 L8.963325,1.393425" id="Fill-3" fill="#DBDCDD" mask="url(#mask-2)"></path>
                    </g>
                </g>
                <g id="Group-16" transform="translate(180.000000, 3.000000)">
                    <path d="M4.43322,54.76632 C4.43322,54.76632 1.89822,58.20912 2.02002,60.32472 C2.02002,60.32472 0.79602,59.26632 0.24402,58.29072 C-0.49758,56.98092 0.55062,54.99612 2.06082,54.76572 C3.16902,54.59652 4.43322,54.76632 4.43322,54.76632" id="Fill-1" fill="#5B6671"></path>
                    <path d="M1.90782,57.03444 C5.00322,47.87364 38.19342,66.50304 64.13382,45.91944 C77.74722,35.11644 82.31022,25.05144 81.86622,16.36704 C81.85122,16.08084 81.75942,15.80544 81.60702,15.56424 L76.24722,7.07484 C75.03522,5.15484 75.85962,2.60544 77.96682,1.75884 L80.18922,0.86604 C82.54662,-0.08196 85.12482,1.61904 85.18122,4.16004 L85.41102,14.50884 C85.42182,15.02664 85.67742,15.50004 86.09802,15.80304 C87.85482,17.06964 92.89422,21.10824 94.50522,29.61084 C96.92862,42.40104 90.34602,71.82024 57.45942,79.14864 C26.34522,86.08284 -1.38918,66.79224 1.90782,57.03444" id="Fill-3" fill="#FFC709"></path>
                    <g id="Group-7" transform="translate(75.600000, 0.220200)">
                        <mask id="mask-4" fill="white">
                            <use xlink:href="#path-3"></use>
                        </mask>
                        <g id="Clip-6"></g>
                        <path d="M10.49826,15.58302 C10.07766,15.28002 9.82206,14.80662 9.81066,14.28882 L9.58146,3.94002 C9.52506,1.39842 6.94686,-0.30258 4.58886,0.64542 L2.36646,1.53882 C0.25986,2.38542 -0.56454,4.93482 0.64746,6.85482 L6.00726,15.34422 C6.15966,15.58542 6.25146,15.86082 6.26586,16.14642 C6.26586,16.14642 7.23786,17.26782 8.63526,16.94142 C10.03146,16.61442 10.49826,15.58302 10.49826,15.58302" id="Fill-5" fill="#E6B50C" mask="url(#mask-4)"></path>
                    </g>
                    <path d="M57.45114,79.1448 C27.77814,85.755 1.21014,68.535 1.65714,58.458 C11.73534,65.8404 29.78454,71.6844 49.15134,67.3632 C82.03854,60.0312 88.61094,30.6156 86.18394,17.8248 C84.58494,9.3174 80.18934,0.8736 80.18934,0.8736 C82.54014,-0.0804 85.12734,1.6116 85.18614,4.1556 L85.40334,14.514 C85.42854,15.0186 85.67094,15.5046 86.10114,15.807 C87.85914,17.061 92.90214,21.1146 94.49994,29.6046 C96.92694,42.396 90.33774,71.8128 57.45114,79.1448" id="Fill-8" fill="#D1A50A"></path>
                    <path d="M77.53302,40.93932 C74.52702,44.39232 74.80662,47.23812 77.51862,47.57772 C80.23002,47.91852 84.59082,46.00332 85.57362,42.53232 C86.55702,39.06132 80.93022,37.03632 77.53302,40.93932" id="Fill-10" fill="#CD8C13"></path>
                    <path d="M77.17908,51.59874 C75.20328,52.78434 76.04148,56.35374 78.38268,56.47734 C80.72268,56.60154 82.13508,54.47154 81.97848,52.57854 C81.82128,50.68494 80.25228,49.75554 77.17908,51.59874" id="Fill-12" fill="#CD8C13"></path>
                    <path d="M74.2998,50.50422 C75.396,47.79222 71.7654,44.61822 69.2802,46.20882 C66.7938,47.79822 67.0074,51.09882 68.6388,52.99422 C70.2708,54.89022 72.5946,54.72222 74.2998,50.50422" id="Fill-14" fill="#CD8C13"></path>
                </g>
                <g id="Group-12" transform="translate(212.114364, 120.319818) rotate(-35.000000) translate(-212.114364, -120.319818) translate(177.614364, 85.819818)">
                    <path d="M51.5049,46.347525 C39.4704,76.095525 16.80015,72.965025 23.2764,56.588775 C30.11415,39.302025 0.2229,27.181275 0.2229,27.181275" id="Stroke-1" stroke="#3BB889" stroke-width="3.44625" stroke-linecap="round" stroke-linejoin="round"></path>
                    <path d="M58.0638,20.9076 C57.6873,20.9076 57.33405,20.71935 57.1188,20.4051 C56.90505,20.09385 56.86005,19.69635 56.99655,19.3431 L63.16905,3.40035 C63.25755,3.1731 63.4113,2.98485 63.61305,2.85285 L65.8173,1.41735 C65.9133,1.3551 66.0213,1.32435 66.1308,1.32435 C66.25905,1.32435 66.38655,1.36635 66.4908,1.4511 C66.6843,1.6071 66.7563,1.86885 66.6678,2.1021 L65.9088,4.10535 C65.83755,4.2966 65.71305,4.4676 65.5488,4.59735 L64.89555,5.1186 L65.00055,5.7711 C65.0658,6.1806 64.90455,6.59385 64.58205,6.8511 L64.06605,7.2636 L64.1703,7.91685 C64.23555,8.3226 64.07655,8.73585 63.7533,8.9946 L63.09555,9.5196 L60.1113,17.22585 L61.08555,18.48585 C61.32105,18.79035 61.38855,19.18935 61.26555,19.55385 C61.1418,19.9191 60.8478,20.1966 60.47655,20.2971 L58.36755,20.86635 C58.2678,20.89335 58.1658,20.9076 58.0638,20.9076" id="Fill-3" fill="#DBDCDD"></path>
                    <g id="Group-7" transform="translate(56.250000, 0.091800)">
                        <mask id="mask-6" fill="white">
                            <use xlink:href="#path-5"></use>
                        </mask>
                        <g id="Clip-6"></g>
                        <path d="M9.88065,0.658425 L9.85515,0.658425 C9.6279,0.662925 9.4164,0.734175 9.24015,0.852675 L7.05015,2.279925 C6.74415,2.477925 6.51465,2.762175 6.38265,3.101175 L0.21015,19.043925 C0.0054,19.574175 0.0744,20.170425 0.3954,20.638425 C0.71715,21.108675 1.2474,21.389925 1.81365,21.389925 C1.9659,21.389925 2.11815,21.369675 2.2674,21.329175 L4.37565,20.759175 C4.9329,20.609175 5.3754,20.192175 5.5599,19.645425 C5.74365,19.097925 5.64315,18.499425 5.2899,18.041925 L4.51515,17.038425 L7.3254,9.779925 L7.8609,9.352425 C8.3454,8.966175 8.5854,8.345925 8.4879,7.733175 L8.43615,7.411425 L8.69115,7.208175 C9.17565,6.821175 9.41565,6.200925 9.3174,5.589675 L9.2664,5.267175 L9.6594,4.952925 C9.9009,4.760175 10.0869,4.505925 10.1964,4.217175 L10.9329,2.272425 C10.9959,2.129925 11.0319,1.972425 11.0319,1.806675 C11.0319,1.172175 10.51965,0.658425 9.88515,0.658425 L9.8829,0.658425 L9.88065,0.658425 Z M9.88065,1.806675 L9.12165,3.809925 C9.0849,3.906675 9.0234,3.991425 8.94315,4.055175 L8.28765,4.577925 C8.12565,4.707675 8.0469,4.913175 8.07915,5.117925 L8.1834,5.770425 C8.21565,5.974425 8.13615,6.181425 7.97415,6.310425 L7.45815,6.722175 C7.29615,6.851175 7.2159,7.058175 7.2489,7.262175 L7.35315,7.914675 C7.38615,8.119425 7.3059,8.324925 7.14465,8.454675 L6.48765,8.978925 C6.4074,9.041925 6.34665,9.125925 6.30915,9.220425 L3.3264,16.926675 C3.25365,17.114175 3.2844,17.325675 3.4074,17.484675 L4.3809,18.744675 C4.6314,19.068675 4.47165,19.543425 4.0764,19.650675 L1.9674,20.220675 C1.91565,20.234175 1.8639,20.240925 1.81365,20.240925 C1.42815,20.240925 1.13115,19.846425 1.2819,19.458675 L7.4544,3.515925 C7.49715,3.403425 7.5759,3.308175 7.67715,3.242175 L9.88065,1.806675 L9.88065,1.806675 Z" id="Fill-5" fill="#DBDCDD" mask="url(#mask-6)"></path>
                    </g>
                    <path d="M52.403625,51.366075 L47.461875,49.452825 C46.415625,49.047825 45.814875,47.946075 46.041375,46.847325 L46.084125,46.637325 C47.651625,39.023325 49.246875,31.262325 52.930125,24.416325 L55.671375,19.321575 C55.946625,18.811575 56.557875,18.585825 57.097875,18.794325 L65.920125,22.210575 C66.460875,22.419825 66.761625,22.998825 66.620625,23.560575 L65.219625,29.165325 C63.332625,36.713325 59.284875,43.530075 55.313625,50.219325 L55.207875,50.396325 C54.635625,51.360825 53.449875,51.771075 52.403625,51.366075" id="Fill-8" fill="#3BB889"></path>
                    <path d="M52.403625,51.366075 L47.461875,49.452825 C46.415625,49.047825 45.814875,47.946075 46.041375,46.847325 L46.084125,46.637325 C47.651625,39.023325 49.246875,31.262325 52.930125,24.416325 L55.671375,19.321575 C55.946625,18.811575 56.557875,18.585825 57.097875,18.794325 L65.920125,22.210575 C66.460875,22.419825 66.761625,22.998825 66.620625,23.560575 L65.219625,29.165325 C63.332625,36.713325 59.284875,43.530075 55.313625,50.219325 L55.207875,50.396325 C54.635625,51.360825 53.449875,51.771075 52.403625,51.366075 Z" id="Stroke-10" stroke="#3BB889" stroke-width="1.149"></path>
                </g>
                <g id="Group-40">
                    <g id="Group-3" transform="translate(76.500000, 95.804250)">
                        <mask id="mask-8" fill="white">
                            <use xlink:href="#path-7"></use>
                        </mask>
                        <g id="Clip-2"></g>
                        <path d="M0.44085,43.1595 L10.17135,82.93875 C10.70685,84.897 12.4881,86.253 14.5191,86.250005 L82.4571,83.88675 C83.8716,83.8845 85.20285,83.217 86.05035,82.086 L111.7026,42.615 C112.5366,41.5035 112.8096,40.068 112.4421,38.727 L104.96235,3.44475 C104.42535,1.48725 102.64485,0.1305 100.6146,0.134242246 L32.6691,0.24675 C31.2546,0.249 29.92335,0.9165 29.0751,2.049 L1.1796,39.2715 C0.34635,40.3845 0.0741,41.81925 0.44085,43.1595" id="Fill-1" fill="#E29A16" mask="url(#mask-8)"></path>
                    </g>
                    <path d="M96.9447,126.164625 C103.7862,135.623625 114.4152,137.600625 133.7577,132.974625 C151.3812,128.758875 161.41845,119.976375 161.9607,108.354375 C162.5817,95.079375 142.66845,95.575875 124.2477,98.257125 C106.79745,100.797375 90.12645,116.737875 96.9447,126.164625" id="Fill-4" fill="#CD8C13"></path>
                    <path d="M108.16395,122.430075 C112.60995,128.577075 119.5167,129.861825 132.08595,126.855075 C143.53845,124.116075 150.0612,118.409325 150.4137,110.856075 C150.81645,102.229575 137.8767,102.552075 125.90595,104.294325 C114.5667,105.945825 103.7337,116.304075 108.16395,122.430075" id="Fill-6" fill="#5B6671"></path>
                    <path d="M109.557,120.458325 C113.5515,125.981325 119.75775,127.135575 131.0505,124.434825 C141.33975,121.974075 147.20025,116.845575 147.51675,110.060325 C147.87975,102.309825 136.25325,102.599325 125.49825,104.164575 C115.3095,105.647325 105.576,114.954075 109.557,120.458325" id="Fill-8" fill="#CD8C13"></path>
                    <polygon id="Fill-10" fill="#CD8C13" points="103.054575 97.89315 141.458325 87.37365 147.146325 108.13665 108.742575 118.6569"></polygon>
                    <path d="M86.204475,101.210325 C93.736725,111.625575 105.438975,113.801325 126.735975,108.708075 C146.138475,104.067075 157.189725,94.396575 157.787475,81.600825 C158.469975,66.984825 136.545975,67.532325 116.264475,70.483575 C97.052475,73.280325 78.697725,90.830325 86.204475,101.210325" id="Fill-12" fill="#CA722A"></path>
                    <polygon id="Fill-14" fill="#CA722A" points="157.591425 78.566775 156.603675 74.957775 83.867175 94.883025 84.794925 98.267025"></polygon>
                    <path d="M157.047975,78.183675 C157.032975,78.848175 157.927725,82.016175 157.564725,83.884425 C157.202475,85.751925 155.805225,85.805925 154.698225,87.746925 C153.591975,89.687925 154.949475,91.772175 153.716475,93.378675 C152.482725,94.985175 149.781975,94.427175 148.656975,95.373675 C147.531975,96.320175 147.610725,99.691425 146.235225,100.601175 C144.858975,101.510925 141.921975,100.080675 140.824725,100.631925 C139.727475,101.182425 139.377975,104.483175 138.313725,104.930925 C137.250225,105.379425 135.601725,103.016925 134.259975,103.490175 C132.918225,103.962675 133.544475,106.977675 132.014475,107.258175 C130.484475,107.537925 129.671475,105.014175 128.133975,105.410175 C126.595725,105.804675 126.581475,108.756675 125.344725,109.033425 C124.107975,109.310175 122.925975,106.665675 121.605225,106.925925 C120.283725,107.186175 119.544225,110.030925 118.251225,110.431425 C116.958225,110.831925 114.926475,107.884425 112.734975,108.304425 C110.543475,108.725175 110.644725,111.100425 109.254975,111.327675 C107.865975,111.554925 105.784725,108.650175 104.028975,108.470175 C102.273225,108.290175 99.778725,110.606925 97.932975,109.927425 C96.086475,109.247925 94.719975,106.355925 93.345225,105.548175 C91.971225,104.740425 90.048225,105.584175 89.097975,104.597175 C88.149225,103.610175 87.831225,101.708175 86.367225,99.656925 C84.903225,97.605675 157.047975,78.183675 157.047975,78.183675" id="Fill-16" fill="#CD8C13"></path>
                    <path d="M85.450125,98.45715 C92.983125,108.8724 104.684625,111.04815 125.981625,105.9549 C145.384125,101.3139 156.435375,91.6434 157.033125,78.84765 C157.715625,64.23165 135.792375,64.77915 115.510875,67.7304 C96.298125,70.52715 77.943375,88.07715 85.450125,98.45715" id="Fill-18" fill="#E29A16"></path>
                    <path d="M135.141975,180.51915 L130.525725,156.44415 C130.425975,155.8164 129.638475,155.5899 129.219975,156.0684 L128.560725,156.8229 C128.295975,157.1259 127.839225,157.16565 127.525725,156.91365 L126.615225,156.18165 C126.309975,155.9364 125.867475,155.96715 125.598975,156.25215 L125.138475,156.7404 C124.844475,157.05315 124.346475,157.0554 124.050225,156.74415 L121.394475,153.9624 C121.035225,153.58665 120.411975,153.68115 120.180975,154.14615 L118.704225,157.1079 C118.484475,157.54815 117.907725,157.6614 117.537225,157.33665 L116.472975,156.40065 C116.168475,156.13215 115.706475,156.1554 115.429725,156.45165 L114.200475,157.76865 C113.919225,158.0694 113.448975,158.08815 113.145225,157.81065 L111.207975,156.0354 C110.793225,155.65665 110.124975,155.8509 109.977225,156.39315 L109.568475,157.9044 C109.437225,158.39265 108.868725,158.61315 108.441975,158.34165 L106.813725,157.30365 C106.460475,157.07865 105.991725,157.1859 105.771975,157.5414 L105.242475,158.40015 C105.044475,158.7204 104.640225,158.84415 104.296725,158.6904 L103.219725,158.20665 C102.651225,157.95165 102.037725,158.4609 102.183975,159.06615 L107.428725,181.4829 L135.141975,180.51915 Z" id="Fill-20" fill="#F26B25"></path>
                    <path d="M150.662025,139.197375 L161.058525,179.158875 C161.638275,178.861125 162.148275,178.425375 162.553275,177.886875 L188.203275,138.418125 C189.032775,137.305125 189.310275,135.874875 188.942025,134.529375 L181.463025,99.252375 C181.193775,98.269125 180.617775,97.446375 179.852025,96.863625 L151.524525,134.661375 C150.552525,135.959625 150.233775,137.633625 150.662025,139.197375" id="Fill-22" fill="#CD8C13"></path>
                    <path d="M108.93225,114.898575 C106.49775,111.022575 105.6585,107.316825 97.35525,104.483325 C78.78225,98.145075 74.4,65.682075 104.3535,63.528825 C108.68475,63.216825 123.05625,58.575825 130.19325,53.922075 C135.5415,50.434575 138.81525,55.446825 133.7715,58.996575 C129.82275,61.775325 118.14,65.170575 119.0535,65.427825 C119.97,65.685825 133.65075,63.705075 143.24625,56.427075 C149.4555,51.717075 154.27275,57.807075 148.62825,62.272575 C141.20325,68.145825 125.38425,71.388075 126.408,71.880825 C127.5225,72.416325 141.67125,70.992825 154.08225,63.586575 C161.358,59.245575 165.06075,67.672575 157.35825,72.096075 C143.043,80.318325 127.2435,79.122075 128.106,80.501325 C128.8335,81.657075 143.55975,82.676325 159.62775,74.866575 C166.0275,71.756325 168.4245,81.312075 160.62675,85.215825 C149.93925,90.567075 139.89075,90.624825 128.5155,91.469325 C120.65475,92.052825 109.44225,94.575825 114.69975,101.661825 C127.40775,118.788075 113.0985,121.530075 108.93225,114.898575" id="Fill-24" fill="#5FC8DE"></path>
                    <g id="Group-28" transform="translate(0.000000, 0.554250)">
                        <mask id="mask-10" fill="white">
                            <use xlink:href="#path-9"></use>
                        </mask>
                        <g id="Clip-27"></g>
                        <path d="M97.056825,64.262775 C81.594825,66.662775 16.493325,55.067775 7.5e-05,0.195525 L7.5e-05,58.581525 C7.5e-05,58.581525 44.810325,98.709525 94.959825,91.289775" id="Fill-26" fill="#5FC8DE" mask="url(#mask-10)"></path>
                    </g>
                    <g id="Group-31" transform="translate(0.000000, 38.054250)">
                        <mask id="mask-12" fill="white">
                            <use xlink:href="#path-11"></use>
                        </mask>
                        <g id="Clip-30"></g>
                        <path d="M-7.5e-05,21.081375 C-7.5e-05,21.081375 38.930175,56.146125 84.785925,54.704625 C84.785925,54.704625 87.497925,62.005125 93.485175,64.621125 C99.473175,67.236375 103.343925,68.704125 106.475175,72.721875 C109.606425,76.740375 108.244425,77.896875 112.929675,79.855875 C117.614925,81.815625 120.308175,77.809125 119.842425,74.998875 C119.842425,74.998875 114.363675,77.136375 111.033675,71.189625 C107.702925,65.242875 103.104675,61.119375 98.981175,59.691375 C94.857675,58.264125 87.929925,51.133125 87.166425,47.427375 C86.294175,43.198125 83.593425,44.704875 82.643925,47.083875 C81.694425,49.462875 9.299175,36.904125 -7.5e-05,0.061875 L-7.5e-05,21.081375 Z" id="Fill-29" fill="#57B7CB" mask="url(#mask-12)"></path>
                    </g>
                    <path d="M113.523825,97.2003 C114.126075,93.7023 114.760575,89.34105 119.280825,88.62705 C123.800325,87.91305 163.340325,87.83805 165.495825,77.76555 C165.495825,77.76555 166.751325,85.0113 154.883325,88.1118 C143.016075,91.2123 125.675325,91.60755 120.729075,92.6748 C114.137325,94.0968 113.523825,97.2003 113.523825,97.2003" id="Fill-32" fill="#57B7CB"></path>
                    <path d="M128.106375,80.5011 C128.344875,79.72485 139.378125,78.96285 145.782375,76.9356 C152.187375,74.9091 161.053875,71.59935 161.536875,67.0101 C161.536875,67.0101 152.121375,73.7196 142.236375,75.50385 C132.463875,77.26785 128.130375,79.19385 128.106375,80.5011" id="Fill-34" fill="#57B7CB"></path>
                    <path d="M150.886125,56.808 C151.173375,57.61575 152.523375,60.504 146.101875,64.15425 C139.681125,67.8045 127.456875,71.295 127.094625,71.43825 C126.733875,71.58075 126.370875,71.6925 126.361853,71.823 C126.361853,71.823 126.335625,70.47525 128.106375,69.87825 C139.286625,66.10575 145.546875,62.71725 148.876875,59.96175 C150.261375,58.81725 150.886125,56.808 150.886125,56.808" id="Fill-36" fill="#57B7CB"></path>
                    <path d="M119.0199,65.3517 C119.2974,65.04495 125.2839,62.90145 125.94765,62.64645 C126.61215,62.3907 136.2444,59.72295 136.27665,55.10445 C136.27665,55.10445 135.6939,56.71095 131.5914,58.7727 C127.4874,60.83445 119.17665,63.48945 119.0199,65.3517" id="Fill-38" fill="#57B7CB"></path>
                </g>
            </g>
            <text id="PLACEHOLDER" transform="translate(136.500000, 91.500000) rotate(-45.000000) translate(-136.500000, -91.500000) " font-family="HelveticaNeue-Bold, Helvetica Neue" font-size="16" font-weight="bold" letter-spacing="2" fill="#575E75">
                <tspan x="65" y="98">PLACEHOLDER</tspan>
            </text>
        </g>
    </g>
</svg>