<svg width="460" height="460" viewBox="0 0 460 460" fill="none" xmlns="http://www.w3.org/2000/svg">
<path d="M382.464 401.318C424.015 401.318 457.698 367.634 457.698 326.084C457.698 284.533 424.015 250.85 382.464 250.85C340.913 250.85 307.23 284.533 307.23 326.084C307.23 367.634 340.913 401.318 382.464 401.318Z" fill="#CF63CF" stroke="#BD42BD" stroke-width="2"/>
<path fill-rule="evenodd" clip-rule="evenodd" d="M243.425 278.609L244.684 278.106L244.684 278.105L295.907 257.613C297.416 257.009 299.126 257.744 299.726 259.254L310.841 287.196C311.442 288.706 310.705 290.419 309.197 291.023L257.973 311.515L257.973 311.517L256.715 312.02C255.73 312.414 254.941 313.184 254.522 314.16L252.465 318.948C252.045 319.923 251.256 320.693 250.271 321.087L242.161 324.332C241.176 324.726 240.076 324.712 239.102 324.294L234.323 322.24C233.349 321.822 232.249 321.808 231.264 322.202L230.005 322.706L230.005 322.704L224.347 324.968C222.838 325.571 221.128 324.836 220.528 323.327L209.413 295.384C208.812 293.874 209.548 292.161 211.057 291.558L216.716 289.294L216.716 289.295L217.974 288.791C218.959 288.397 220.06 288.411 221.034 288.829L225.812 290.883C226.786 291.301 227.886 291.315 228.871 290.921L236.982 287.676C237.967 287.282 238.756 286.513 239.175 285.537L241.232 280.749C241.652 279.773 242.441 279.004 243.425 278.609Z" fill="#FF8C1A"/>
<path d="M244.684 278.106L244.869 278.571C245.125 278.468 245.25 278.177 245.148 277.92L244.684 278.106ZM243.425 278.609L243.241 278.145L243.425 278.609ZM244.684 278.105L244.499 277.641C244.242 277.743 244.117 278.034 244.219 278.291L244.684 278.105ZM257.973 311.515L257.788 311.051C257.532 311.153 257.407 311.444 257.509 311.701L257.973 311.515ZM257.973 311.517L258.158 311.981C258.415 311.879 258.54 311.588 258.438 311.331L257.973 311.517ZM254.522 314.16L254.981 314.357L254.981 314.357L254.522 314.16ZM252.465 318.948L252.006 318.751L252.006 318.751L252.465 318.948ZM250.271 321.087L250.456 321.552L250.456 321.552L250.271 321.087ZM242.161 324.332L241.976 323.867L241.976 323.867L242.161 324.332ZM239.102 324.294L238.904 324.753L238.904 324.753L239.102 324.294ZM234.323 322.24L234.521 321.78L234.521 321.78L234.323 322.24ZM230.005 322.706L229.541 322.891C229.643 323.148 229.934 323.273 230.19 323.17L230.005 322.706ZM230.005 322.704L230.469 322.518C230.42 322.395 230.324 322.296 230.202 322.244C230.081 322.192 229.943 322.19 229.82 322.239L230.005 322.704ZM224.347 324.968L224.531 325.432L224.347 324.968ZM220.528 323.327L220.992 323.141L220.528 323.327ZM209.413 295.384L208.949 295.57L209.413 295.384ZM211.057 291.558L211.242 292.022L211.057 291.558ZM216.716 289.294L217.18 289.108C217.131 288.985 217.035 288.886 216.913 288.834C216.791 288.782 216.654 288.78 216.531 288.829L216.716 289.294ZM216.716 289.295L216.252 289.48C216.301 289.604 216.397 289.702 216.518 289.755C216.64 289.807 216.778 289.809 216.901 289.759L216.716 289.295ZM217.974 288.791L217.79 288.327L217.974 288.791ZM221.034 288.829L220.836 289.289L220.836 289.289L221.034 288.829ZM225.812 290.883L226.01 290.423L226.01 290.423L225.812 290.883ZM228.871 290.921L229.056 291.385L229.056 291.385L228.871 290.921ZM236.982 287.676L236.797 287.211L236.797 287.211L236.982 287.676ZM239.175 285.537L238.716 285.34L238.716 285.34L239.175 285.537ZM241.232 280.749L241.691 280.946L241.691 280.946L241.232 280.749ZM244.499 277.641L243.241 278.145L243.61 279.074L244.869 278.571L244.499 277.641ZM244.219 278.291L244.22 278.292L245.148 277.92L245.148 277.92L244.219 278.291ZM295.722 257.148L244.499 277.641L244.868 278.57L296.092 258.078L295.722 257.148ZM300.19 259.068C299.488 257.302 297.487 256.442 295.722 257.148L296.092 258.078C297.344 257.577 298.763 258.186 299.262 259.44L300.19 259.068ZM311.305 287.011L300.19 259.068L299.262 259.44L310.377 287.382L311.305 287.011ZM309.382 291.487C311.147 290.781 312.008 288.777 311.305 287.011L310.377 287.382C310.875 288.635 310.264 290.057 309.012 290.558L309.382 291.487ZM258.158 311.98L309.382 291.487L309.012 290.558L257.788 311.051L258.158 311.98ZM258.438 311.331L258.437 311.33L257.509 311.701L257.509 311.703L258.438 311.331ZM256.9 312.485L258.158 311.981L257.789 311.052L256.53 311.556L256.9 312.485ZM254.981 314.357C255.348 313.503 256.038 312.83 256.9 312.485L256.53 311.556C255.422 311.999 254.535 312.865 254.063 313.962L254.981 314.357ZM252.923 319.145L254.981 314.357L254.063 313.962L252.006 318.751L252.923 319.145ZM250.456 321.552C251.564 321.108 252.452 320.243 252.923 319.145L252.006 318.751C251.639 319.604 250.949 320.278 250.087 320.622L250.456 321.552ZM242.346 324.796L250.456 321.552L250.087 320.622L241.976 323.867L242.346 324.796ZM238.904 324.753C240 325.224 241.238 325.239 242.346 324.796L241.976 323.867C241.114 324.212 240.151 324.2 239.299 323.834L238.904 324.753ZM234.125 322.7L238.904 324.753L239.299 323.834L234.521 321.78L234.125 322.7ZM231.449 322.667C232.311 322.322 233.273 322.334 234.125 322.7L234.521 321.78C233.425 321.31 232.187 321.294 231.079 321.738L231.449 322.667ZM230.19 323.17L231.449 322.667L231.079 321.738L229.821 322.241L230.19 323.17ZM229.541 322.89L229.541 322.891L230.47 322.52L230.469 322.518L229.541 322.89ZM224.531 325.432L230.19 323.169L229.82 322.239L224.162 324.503L224.531 325.432ZM220.064 323.512C220.766 325.279 222.766 326.138 224.531 325.432L224.162 324.503C222.91 325.004 221.49 324.394 220.992 323.141L220.064 323.512ZM208.949 295.57L220.064 323.512L220.992 323.141L209.877 295.198L208.949 295.57ZM210.872 291.093C209.107 291.799 208.246 293.804 208.949 295.57L209.877 295.198C209.379 293.945 209.99 292.523 211.242 292.022L210.872 291.093ZM216.531 288.829L210.872 291.093L211.242 292.022L216.9 289.759L216.531 288.829ZM217.18 289.109L217.18 289.108L216.251 289.48L216.252 289.48L217.18 289.109ZM217.79 288.327L216.531 288.83L216.901 289.759L218.159 289.256L217.79 288.327ZM221.231 288.37C220.136 287.899 218.898 287.883 217.79 288.327L218.159 289.256C219.021 288.911 219.984 288.923 220.836 289.289L221.231 288.37ZM226.01 290.423L221.231 288.37L220.836 289.289L225.615 291.343L226.01 290.423ZM228.687 290.456C227.825 290.801 226.862 290.789 226.01 290.423L225.615 291.343C226.71 291.813 227.948 291.829 229.056 291.385L228.687 290.456ZM236.797 287.211L228.687 290.456L229.056 291.385L237.167 288.141L236.797 287.211ZM238.716 285.34C238.349 286.193 237.659 286.867 236.797 287.211L237.167 288.141C238.275 287.697 239.162 286.832 239.634 285.734L238.716 285.34ZM240.773 280.551L238.716 285.34L239.634 285.734L241.691 280.946L240.773 280.551ZM243.241 278.145C242.133 278.588 241.245 279.454 240.773 280.551L241.691 280.946C242.058 280.092 242.748 279.419 243.61 279.074L243.241 278.145Z" fill="#FF8000"/>
<path d="M267.018 323.822C267.018 323.822 262.812 322.66 257.124 311.332C251.436 300.003 248.287 295.954 250.668 295.734C253.049 295.514 258.723 304.732 258.723 304.732C258.723 304.732 248.534 286.633 251.107 285.059C252.788 284.028 253.851 285.905 253.851 285.905C253.851 285.905 252.932 282.241 255.381 283.004C257.831 283.767 268.754 299.591 268.754 299.591C268.754 299.591 261.09 282.199 263.512 281.031C265.646 279.979 273.844 296.724 273.844 296.724C273.844 296.724 278.935 306.967 280.259 317.161L267.018 323.822Z" fill="#6B3D1F"/>
<path d="M337.308 270.49C337.331 268.186 337.892 265.918 338.948 263.871C340.107 261.77 341.608 259.876 343.387 258.268C344.876 257.347 343.95 255.739 345.583 253.828C347.216 251.917 350.221 251.078 350.221 251.078C350.704 250.206 351.472 249.526 352.396 249.153C354.001 248.466 354.927 249.085 354.927 249.085C354.927 249.085 356.382 247.806 357.713 247.957C359.044 248.109 360.457 246.122 363.373 246.926C367.435 248.054 366.577 246.28 372.018 247.126C377.459 247.971 379.037 250.721 379.037 250.721C379.037 250.721 381.562 250.803 382.941 251.766C383.667 252.326 384.33 252.964 384.917 253.67C384.917 253.67 384.587 253.237 387.942 255.216C391.297 257.196 391.661 259.788 391.661 259.788C391.661 259.788 393.959 260.544 394.405 262.537C394.851 264.531 396.464 263.864 398.659 268.655C399.241 269.927 399.6 271.289 399.723 272.683C399.723 272.683 400.642 273.556 401.932 276.416C403.222 279.275 401.095 282.767 401.095 282.767C401.095 282.767 401.781 287.098 401.541 289.552C401.15 293.621 396.738 298.983 396.738 298.983C396.773 299.649 396.64 300.313 396.351 300.914C396.062 301.515 395.626 302.033 395.085 302.42C393.857 303.417 394.941 305.087 393.157 306.6C391.373 308.112 388.141 309.191 388.141 309.191C388.026 309.768 387.762 310.304 387.376 310.746C386.989 311.189 386.494 311.523 385.939 311.714C383.277 312.669 381.37 315.22 380.231 313.859C379.092 312.498 337.308 270.49 337.308 270.49Z" fill="#231F20"/>
<path d="M346.42 321.78L363.572 348.369C363.572 348.369 382.687 343.88 396.505 330.771L373.555 307.07L346.42 321.78Z" fill="#6B3D1F"/>
<path d="M364.889 314.369C381.778 314.369 395.469 300.653 395.469 283.732C395.469 266.811 381.778 253.094 364.889 253.094C348.001 253.094 334.31 266.811 334.31 283.732C334.31 300.653 348.001 314.369 364.889 314.369Z" fill="#6B3D1F"/>
<path d="M335.538 275.123L331.463 289.084C331.463 289.084 328.465 291.517 327.634 297.25C325.672 310.895 327.634 317.632 334.228 321.55C340.821 325.468 363.819 324.987 373.232 319.447C386.268 311.761 394.241 292.329 394.241 292.329" fill="#6B3D1F"/>
<path d="M353.67 293.707C354.089 292.271 353.698 290.893 352.796 290.629C351.894 290.364 350.823 291.314 350.404 292.75C349.985 294.185 350.377 295.563 351.279 295.828C352.181 296.092 353.251 295.142 353.67 293.707Z" fill="#231F20"/>
<path d="M344.396 289.509C343.023 291.812 340.279 295.455 339.154 295.194C336.41 294.569 334.701 299.69 339.744 301.168" stroke="#482D18" stroke-width="1.1" stroke-miterlimit="10" stroke-linecap="round"/>
<path d="M351.888 288.603C354.288 289.15 356.48 290.379 358.2 292.143C358.53 292.473 359.174 292.431 359.017 292.088C358.022 289.874 355.758 286.52 351.511 288.011C351.202 288.121 351.449 288.506 351.888 288.603Z" fill="#482D18"/>
<path d="M341.837 284.11C339.742 282.816 337.319 282.157 334.859 282.213C334.393 282.213 333.967 281.738 334.317 281.601C336.574 280.721 340.533 279.917 342.55 283.952C342.667 284.247 342.221 284.385 341.837 284.11Z" fill="#482D18"/>
<path d="M336.595 306.169C335.724 305.674 334.008 303.172 332.931 304.45C331.854 305.729 333.37 309.716 335.82 311.194C338.269 312.672 349.446 311.709 345.775 309.489C342.104 307.269 338.688 307.358 336.595 306.169Z" fill="white"/>
<path d="M339.232 288.511C339.651 287.075 339.259 285.697 338.357 285.433C337.455 285.168 336.385 286.118 335.965 287.554C335.546 288.989 335.938 290.367 336.84 290.632C337.742 290.896 338.813 289.946 339.232 288.511Z" fill="#231F20"/>
<path d="M341.5 262.936L350.303 260.915C351.764 260.577 353.297 260.767 354.632 261.452C358.063 263.239 365.129 267.157 370.762 272.093C378.961 279.283 369.225 279.18 369.129 282.465C369.033 285.751 380.512 288.941 371.346 303.198C371.346 303.198 374.906 305.129 376.725 299.761C379.044 292.887 384.313 298.956 382.995 302.936C381.205 308.36 375.771 312.759 375.771 312.759C375.771 312.759 378.255 314.732 380.182 313.935C382.11 313.137 408.745 289.505 389.061 264.985C368.045 238.781 343.991 260.73 341.5 262.936Z" fill="#231F20"/>
<path d="M390.364 323.79C391.16 323.79 391.805 323.143 391.805 322.346C391.805 321.549 391.16 320.903 390.364 320.903C389.569 320.903 388.924 321.549 388.924 322.346C388.924 323.143 389.569 323.79 390.364 323.79Z" fill="#FF6680"/>
<path d="M384.553 325.03C385.349 325.03 385.994 324.384 385.994 323.587C385.994 322.789 385.349 322.143 384.553 322.143C383.757 322.143 383.112 322.789 383.112 323.587C383.112 324.384 383.757 325.03 384.553 325.03Z" fill="#FF6680"/>
<path d="M353.802 338.377C354.598 338.377 355.243 337.731 355.243 336.933C355.243 336.136 354.598 335.49 353.802 335.49C353.007 335.49 352.362 336.136 352.362 336.933C352.362 337.731 353.007 338.377 353.802 338.377Z" fill="#FF6680"/>
<path d="M358.022 335.121C358.817 335.121 359.462 334.474 359.462 333.677C359.462 332.88 358.817 332.234 358.022 332.234C357.226 332.234 356.581 332.88 356.581 333.677C356.581 334.474 357.226 335.121 358.022 335.121Z" fill="#FF6680"/>
<path d="M363.03 331.821C363.826 331.821 364.471 331.175 364.471 330.378C364.471 329.581 363.826 328.934 363.03 328.934C362.235 328.934 361.59 329.581 361.59 330.378C361.59 331.175 362.235 331.821 363.03 331.821Z" fill="#FF6680"/>
<path d="M369.404 328.268C370.2 328.268 370.845 327.622 370.845 326.824C370.845 326.027 370.2 325.381 369.404 325.381C368.608 325.381 367.963 326.027 367.963 326.824C367.963 327.622 368.608 328.268 369.404 328.268Z" fill="#FF6680"/>
<path d="M377.569 326.523C378.364 326.523 379.01 325.877 379.01 325.079C379.01 324.282 378.364 323.636 377.569 323.636C376.773 323.636 376.128 324.282 376.128 325.079C376.128 325.877 376.773 326.523 377.569 326.523Z" fill="#FF6680"/>
<mask id="mask0" style="mask-type:alpha" maskUnits="userSpaceOnUse" x="308" y="251" width="149" height="150">
<ellipse cx="382.464" cy="326.088" rx="74.234" ry="74.234" fill="#C4C4C4"/>
</mask>
<g mask="url(#mask0)">
<path d="M389.26 323.297C389.26 323.297 403.915 323.985 433.307 361.166C462.7 398.348 374.303 405.449 374.303 405.449C374.303 405.449 368.471 399.475 366.365 392.91C364.087 385.775 352.43 382.682 351.12 375.959C348.821 364.163 355.538 341.17 356.108 336.818C357.5 326.191 389.26 323.297 389.26 323.297Z" fill="#4D97FF"/>
</g>
<path d="M360.039 331.371L325.693 356.344C324.239 356.913 322.654 357.056 321.122 356.757C319.59 356.457 318.175 355.728 317.041 354.654C307.587 345.717 289.137 330.196 279.992 316.517L266.75 323.212C266.75 323.212 283.902 382.046 310.66 389.003C337.418 395.959 389.157 365.095 389.157 365.095L360.039 331.371Z" fill="#4D97FF"/>
<mask id="path-26-outside-1" maskUnits="userSpaceOnUse" x="182.254" y="190.185" width="145.271" height="91.0344" fill="black">
<rect fill="white" x="182.254" y="190.185" width="145.271" height="91.0344"/>
<path fill-rule="evenodd" clip-rule="evenodd" d="M221.159 209.776C193.648 215.24 185.928 229.846 185.928 229.846L261.386 214.859C261.386 214.859 248.67 204.312 221.159 209.776ZM194.024 270.611L185.928 229.846L312.918 204.624C314.655 204.28 316.342 205.408 316.687 207.144L324.159 244.765C324.504 246.502 323.376 248.189 321.639 248.534L235.522 265.638L233.68 266.003C232.846 266.169 232.112 266.659 231.64 267.366L228.076 272.695C227.604 273.402 226.87 273.892 226.036 274.058L216.064 276.038C215.23 276.204 214.365 276.031 213.658 275.559L208.329 271.996C207.622 271.523 206.756 271.351 205.923 271.516L204.081 271.882L197.793 273.131C196.056 273.476 194.369 272.348 194.024 270.611Z"/>
</mask>
<path fill-rule="evenodd" clip-rule="evenodd" d="M221.159 209.776C193.648 215.24 185.928 229.846 185.928 229.846L261.386 214.859C261.386 214.859 248.67 204.312 221.159 209.776ZM194.024 270.611L185.928 229.846L312.918 204.624C314.655 204.28 316.342 205.408 316.687 207.144L324.159 244.765C324.504 246.502 323.376 248.189 321.639 248.534L235.522 265.638L233.68 266.003C232.846 266.169 232.112 266.659 231.64 267.366L228.076 272.695C227.604 273.402 226.87 273.892 226.036 274.058L216.064 276.038C215.23 276.204 214.365 276.031 213.658 275.559L208.329 271.996C207.622 271.523 206.756 271.351 205.923 271.516L204.081 271.882L197.793 273.131C196.056 273.476 194.369 272.348 194.024 270.611Z" fill="#FFBF00"/>
<path d="M185.928 229.846L185.219 229.472C185.075 229.745 185.1 230.077 185.285 230.325C185.47 230.573 185.78 230.692 186.084 230.632L185.928 229.846ZM261.386 214.859L261.542 215.645C261.846 215.585 262.087 215.356 262.163 215.056C262.239 214.756 262.136 214.44 261.898 214.242L261.386 214.859ZM185.928 229.846L185.771 229.06C185.563 229.102 185.379 229.224 185.261 229.401C185.143 229.578 185.1 229.794 185.142 230.002L185.928 229.846ZM194.024 270.611L194.81 270.455L194.024 270.611ZM321.639 248.534L321.795 249.32L321.639 248.534ZM235.522 265.638L235.366 264.851L235.522 265.638ZM233.68 266.003L233.836 266.789L233.68 266.003ZM231.64 267.366L230.974 266.92L231.64 267.366ZM228.076 272.695L228.743 273.141L228.743 273.141L228.076 272.695ZM213.658 275.559L213.213 276.225L213.213 276.225L213.658 275.559ZM208.329 271.996L208.774 271.329L208.774 271.329L208.329 271.996ZM205.923 271.516L205.766 270.73L205.923 271.516ZM204.081 271.882L204.237 272.668L204.081 271.882ZM197.793 273.131L197.636 272.345L197.793 273.131ZM185.928 229.846C186.636 230.221 186.636 230.221 186.636 230.221C186.636 230.222 186.635 230.222 186.635 230.222C186.635 230.222 186.635 230.222 186.635 230.222C186.636 230.221 186.637 230.22 186.638 230.217C186.64 230.213 186.645 230.205 186.651 230.193C186.664 230.171 186.684 230.134 186.713 230.085C186.77 229.987 186.86 229.837 186.986 229.643C187.238 229.253 187.632 228.683 188.192 227.977C189.311 226.565 191.095 224.611 193.73 222.484C198.996 218.232 207.685 213.27 221.315 210.562L221.003 208.99C207.122 211.747 198.195 216.819 192.723 221.237C189.989 223.444 188.123 225.483 186.936 226.981C186.342 227.729 185.918 228.342 185.64 228.773C185.501 228.989 185.398 229.158 185.329 229.277C185.294 229.336 185.268 229.382 185.25 229.415C185.241 229.431 185.234 229.444 185.229 229.454C185.226 229.459 185.224 229.462 185.222 229.465C185.222 229.467 185.221 229.468 185.22 229.469C185.22 229.47 185.22 229.47 185.22 229.471C185.219 229.471 185.219 229.472 185.928 229.846ZM261.23 214.073L185.771 229.06L186.084 230.632L261.542 215.645L261.23 214.073ZM221.315 210.562C234.946 207.855 244.871 209.121 251.362 211.037C254.61 211.996 257.005 213.12 258.579 213.997C259.367 214.435 259.949 214.812 260.33 215.076C260.521 215.208 260.661 215.311 260.752 215.38C260.797 215.415 260.83 215.44 260.85 215.457C260.861 215.465 260.868 215.47 260.872 215.474C260.874 215.475 260.875 215.476 260.875 215.477C260.876 215.477 260.876 215.477 260.876 215.477C260.876 215.477 260.875 215.477 260.875 215.477C260.875 215.476 260.875 215.476 261.386 214.859C261.898 214.242 261.897 214.242 261.897 214.242C261.897 214.242 261.896 214.241 261.896 214.241C261.895 214.24 261.894 214.239 261.892 214.238C261.89 214.236 261.886 214.233 261.882 214.23C261.874 214.223 261.862 214.213 261.847 214.202C261.818 214.179 261.776 214.146 261.722 214.104C261.613 214.021 261.453 213.904 261.242 213.758C260.82 213.466 260.194 213.062 259.359 212.597C257.69 211.667 255.186 210.495 251.816 209.5C245.072 207.509 234.883 206.233 221.003 208.99L221.315 210.562ZM185.142 230.002L193.238 270.767L194.81 270.455L186.714 229.69L185.142 230.002ZM312.762 203.838L185.771 229.06L186.084 230.632L313.075 205.41L312.762 203.838ZM317.473 206.988C317.042 204.817 314.933 203.407 312.762 203.838L313.075 205.41C314.377 205.152 315.642 205.998 315.901 207.3L317.473 206.988ZM324.945 244.609L317.473 206.988L315.901 207.3L323.373 244.921L324.945 244.609ZM321.795 249.32C323.966 248.889 325.376 246.78 324.945 244.609L323.373 244.921C323.632 246.224 322.786 247.489 321.483 247.748L321.795 249.32ZM235.678 266.424L321.795 249.32L321.483 247.748L235.366 264.851L235.678 266.424ZM233.836 266.789L235.678 266.424L235.366 264.851L233.524 265.217L233.836 266.789ZM232.306 267.811C232.66 267.281 233.211 266.914 233.836 266.789L233.524 265.217C232.482 265.424 231.564 266.037 230.974 266.92L232.306 267.811ZM228.743 273.141L232.306 267.811L230.974 266.92L227.41 272.25L228.743 273.141ZM226.192 274.844C227.235 274.637 228.152 274.024 228.743 273.141L227.41 272.25C227.056 272.78 226.505 273.148 225.88 273.272L226.192 274.844ZM216.22 276.824L226.192 274.844L225.88 273.272L215.908 275.252L216.22 276.824ZM213.213 276.225C214.096 276.816 215.178 277.031 216.22 276.824L215.908 275.252C215.283 275.376 214.634 275.247 214.104 274.893L213.213 276.225ZM207.883 272.662L213.213 276.225L214.104 274.893L208.774 271.329L207.883 272.662ZM206.079 272.302C206.704 272.178 207.353 272.307 207.883 272.662L208.774 271.329C207.891 270.739 206.809 270.523 205.766 270.73L206.079 272.302ZM204.237 272.668L206.079 272.302L205.766 270.73L203.925 271.096L204.237 272.668ZM197.949 273.917L204.237 272.668L203.925 271.096L197.636 272.345L197.949 273.917ZM193.238 270.767C193.669 272.938 195.778 274.348 197.949 273.917L197.636 272.345C196.334 272.604 195.069 271.758 194.81 270.455L193.238 270.767Z" fill="#E6AC00" mask="url(#path-26-outside-1)"/>
<rect x="173.097" y="17.4" width="171.97" height="142.277" rx="10" fill="#4C97FF" stroke="#3373CC" stroke-width="2"/>
<path d="M245.256 218.851C245.256 218.851 254.487 225.605 255.061 239.151C255.402 247.22 254.922 251.445 254.184 252.918C254.019 253.247 253.281 253.74 253.047 252.697C252.472 250.104 251.488 238.575 251.488 238.575C251.488 238.575 252.517 251.426 251.488 255.302C251.248 256.213 250.957 256.2 250.654 255.587C249.657 253.582 248.489 245.171 248.129 241.314C248.129 241.314 251.285 252.95 250.187 257.453C250.054 257.977 249.436 257.971 248.968 257.206C247.074 254.095 243.242 240.485 243.242 240.485C243.242 240.485 247.466 252.956 246.689 255.302C246.632 255.479 246.418 255.644 246.102 255.302C244.296 253.5 239.106 242.275 238.494 239.967C237.774 237.254 234.8 226.471 234.8 226.471L245.256 218.851Z" fill="#E0B585"/>
<path d="M274.179 221.115C274.179 221.115 264.948 227.869 264.374 241.408C264.033 249.484 264.513 253.709 265.251 255.176C265.416 255.505 266.154 256.004 266.388 254.954C266.962 252.362 267.947 240.833 267.947 240.833C267.947 240.833 266.918 253.69 267.947 257.566C268.187 258.477 268.478 258.464 268.781 257.851C269.778 255.846 270.946 247.429 271.306 243.571C271.306 243.571 268.149 255.214 269.248 259.71C269.381 260.241 269.999 260.235 270.467 259.463C272.361 256.358 276.193 242.749 276.193 242.749C276.193 242.749 271.969 255.214 272.746 257.566C272.803 257.737 273.017 257.901 273.333 257.566C275.139 255.77 280.329 244.545 280.941 242.237C281.661 239.518 284.635 228.735 284.635 228.735L274.179 221.115Z" fill="#E0B585"/>
<path d="M209.716 117.782C209.716 117.782 193.767 128.773 194.607 182.64C194.655 185.48 195.512 188.246 197.075 190.615C202.335 198.627 210.751 215.234 233.619 226.491C235.318 227.326 236.082 225.719 238.172 224.853L247.011 219.794L226.46 183.747C225.332 181.772 224.998 179.44 225.525 177.227L229.585 160.228H287.533L293.158 173.401C293.595 174.418 293.776 175.527 293.683 176.63C293.591 177.733 293.228 178.796 292.628 179.725C288.423 186.277 278.554 202.928 274.173 221.153L282.279 227.509C283.681 228.742 285.493 229.482 286.87 228.141C296.29 219.092 323.584 190.394 325.421 181.553C327.593 171.112 312.226 118.806 299.074 110.87" fill="#0FBD8C"/>
<path d="M257.782 89.1138C257.782 89.1138 230.267 97.5311 209.716 117.78C189.164 138.03 302.559 135.93 304.075 120.942C305.59 105.955 273.535 101.42 257.782 89.1138Z" fill="#0FBD8C"/>
<path d="M257.782 89.1138C257.782 89.1138 230.267 97.5311 209.716 117.78C189.164 138.03 302.559 135.93 304.075 120.942C305.59 105.955 273.535 101.42 257.782 89.1138Z" fill="#0B8E69"/>
<path d="M284.123 89.2512C284.123 89.2512 290.955 90.2757 295.229 90.048C299.503 89.8204 297.546 100.255 290.936 101.33C284.325 102.405 283.896 96.1886 283.896 96.1886C283.896 96.1886 282.74 101.166 285.929 102.905C289.117 104.644 275.947 101.994 281.856 91.3444L284.123 89.2512Z" fill="#231F20"/>
<path d="M229.932 91.8112C226.721 90.764 223.575 89.5244 220.512 88.099C215.461 85.5694 212.254 95.7637 218.656 99.8743C224.294 103.498 227.211 98.1984 227.211 98.1984C227.211 98.1984 226.415 101.62 223.132 102.315C219.584 103.068 231.972 106.824 231.1 94.676L229.932 91.8112Z" fill="#231F20"/>
<path d="M255.964 98.2827C273.221 98.2827 287.211 84.2704 287.211 66.9854C287.211 49.7003 273.221 35.688 255.964 35.688C238.707 35.688 224.717 49.7003 224.717 66.9854C224.717 84.2704 238.707 98.2827 255.964 98.2827Z" fill="#E0B585"/>
<path d="M225.026 67.3518C225.026 67.3518 223.094 95.0951 239.434 106.605C243.09 109.179 247.465 112.423 256.273 112.606C265.081 112.79 272.316 107.155 275.921 102.956C282.267 95.5694 287.918 84.1799 287.52 67.3518H225.026Z" fill="#E0B585"/>
<path d="M237.648 94.1416C237.648 94.1416 243.204 98.4862 247.017 94.1416" stroke="#231F20" stroke-width="1.68" stroke-linecap="round" stroke-linejoin="round"/>
<path d="M271.085 93.7069C271.085 93.7069 265.529 98.0578 261.709 93.7069" stroke="#231F20" stroke-width="1.68" stroke-linecap="round" stroke-linejoin="round"/>
<path d="M246.114 91.541C244.353 90.9086 240.369 89.5426 237.117 89.53C237.058 89.5327 236.999 89.5138 236.953 89.4767C236.906 89.4397 236.874 89.3869 236.864 89.3283C236.853 89.2697 236.864 89.2091 236.894 89.1578C236.924 89.1066 236.972 89.068 237.029 89.0494C239.018 88.3031 243.052 87.4747 246.386 91.1363C246.422 91.1783 246.443 91.2309 246.446 91.2862C246.449 91.3414 246.435 91.3962 246.404 91.4421C246.373 91.488 246.328 91.5226 246.276 91.5404C246.223 91.5583 246.167 91.5585 246.114 91.541V91.541Z" fill="#231F20"/>
<path d="M261.943 91.541C263.704 90.9086 267.688 89.5426 270.934 89.53C270.994 89.5347 271.054 89.5171 271.102 89.4806C271.15 89.4441 271.183 89.3911 271.194 89.3319C271.206 89.2726 271.196 89.2111 271.165 89.159C271.134 89.1069 271.086 89.0679 271.028 89.0494C269.04 88.3031 265.005 87.4747 261.665 91.1363C261.628 91.1785 261.605 91.2322 261.602 91.2886C261.598 91.345 261.614 91.401 261.646 91.4476C261.678 91.4942 261.724 91.5287 261.778 91.5456C261.832 91.5626 261.89 91.5609 261.943 91.541V91.541Z" fill="#231F20"/>
<path d="M250.786 103.67C250.786 103.67 255.092 106.643 258.729 103.67" stroke="#BF8C5C" stroke-width="1.68" stroke-miterlimit="10" stroke-linecap="round"/>
<path d="M246.455 106.978C246.455 106.978 254.934 113.523 263.969 106.213" stroke="#BF8C5C" stroke-width="1.68" stroke-miterlimit="10" stroke-linecap="round"/>
<path d="M225.809 78.3366C225.809 78.3366 220.518 77.0718 223.233 84.9958C225.948 92.9197 229.591 93.0588 229.591 93.0588L225.809 78.3366Z" fill="#E0B585"/>
<path d="M284.407 80.0119C284.407 80.0119 289.698 78.747 286.983 86.671C284.268 94.5949 280.625 94.7341 280.625 94.7341L284.407 80.0119Z" fill="#E0B585"/>
<path d="M244.523 66.9859C245.248 73.4947 247.134 79.8201 250.092 85.6607C250.092 85.6607 248.091 77.762 247.87 73.291C247.87 73.291 252.7 78.6411 255.213 80.8481C259.291 84.4275 269.317 91.3143 276.862 85.6607C284.407 80.007 280.651 89.9799 280.651 89.9799C280.651 89.9799 285.569 79.7541 286.213 80.1145C286.857 80.475 295.084 48.3239 267.196 37.7439C259.985 34.9398 251.987 34.9398 244.776 37.7439C244.776 37.7439 242.648 49.633 244.523 66.9859Z" fill="#231F20"/>
<path d="M228.354 91.5627L228.947 90.2979C228.947 90.2979 243.393 75.2468 243.582 65.4383C243.772 55.6299 242.105 51.6964 244.751 37.7836C244.751 37.7836 229.825 40.9835 225.475 56.8504C221.124 72.7173 228.354 91.5627 228.354 91.5627Z" fill="#231F20"/>
<path d="M242.774 67.3518C242.774 67.3518 239.106 87.9364 228.802 89.979" stroke="#231F20" stroke-miterlimit="10"/>
<rect x="257.64" y="322.17" width="51.2746" height="24.3205" rx="12.1602" transform="rotate(-13.9662 257.64 322.17)" fill="#59C059" stroke="#46B946"/>
<path d="M173.804 427.004L96.088 310.429C92.5256 305.086 84.6734 305.086 81.111 310.429L3.39494 427.004C-0.592375 432.985 3.69513 440.996 10.8834 440.996H166.316C173.504 440.996 177.791 432.985 173.804 427.004Z" fill="#0FBD8C" stroke="#0B8E69" stroke-width="2"/>
<path d="M165.146 352.778C165.146 352.778 151.268 371.715 139.856 381.432C133.727 386.645 128.004 379.059 119.148 377.473C112.793 376.328 107.75 373.067 104.452 371.06C101.154 369.053 110.25 363.557 112.415 360.357L117.746 350.854L165.146 352.778Z" fill="#FADBBD"/>
<path d="M143.937 285.89C143.937 285.89 158.77 283.732 159.615 293.414C160.46 303.096 154.119 303.882 154.119 303.882L143.937 285.89Z" fill="#6B3D1F"/>
<path d="M103.016 327.962C108.684 347.271 127.647 364.284 144.892 359.56C162.137 354.836 171.824 335.237 166.534 315.79C161.244 296.343 143.401 286.357 125.737 289.122C105.049 292.364 98.5017 312.569 103.016 327.962Z" fill="#FADBBD"/>
<path d="M164.397 310.545C164.397 310.545 166.582 314.931 174.703 316.152C177.231 316.538 179.375 320.089 179.396 321.034C179.396 322.344 175.926 323.875 174.71 324.393C174.573 324.451 174.452 324.54 174.356 324.654C174.259 324.767 174.191 324.902 174.156 325.047C174.122 325.192 174.121 325.343 174.155 325.488C174.19 325.633 174.257 325.768 174.353 325.882C175.17 326.875 176.263 328.392 176.373 329.523C176.551 331.351 172.12 331.634 171.797 331.723C169.131 332.468 167.07 329.351 170.656 331.868C172.855 333.406 172.408 332.558 174.607 333.496C178.29 335.068 175.589 337.151 175.589 337.151C175.589 337.151 175.823 347.992 173.851 350.626C171.879 353.26 139.876 360.577 139.876 360.577L164.397 310.545Z" fill="#FADBBD"/>
<path d="M164.048 317.364C164.519 317.151 164.461 315.999 163.919 314.791C163.377 313.582 162.556 312.775 162.085 312.988C161.615 313.2 161.673 314.352 162.215 315.561C162.757 316.769 163.578 317.577 164.048 317.364Z" fill="#231F20"/>
<path d="M134.819 327.696C133.164 326.854 130.189 328.62 131.027 334.102C131.865 339.585 141.209 343.757 143.524 340.578C145.84 337.399 137.746 336.275 137.272 334.102C136.798 331.93 136.345 328.468 134.819 327.696Z" fill="#E0C3AA"/>
<path d="M165.153 314.369L141.175 324.514" stroke="#482D18" stroke-width="1.94" stroke-miterlimit="10"/>
<path d="M148.898 290.999C147.541 289.028 145.864 287.301 143.937 285.889C143.937 285.889 147.207 277.275 134.82 275.586C122.432 273.896 121.381 284.392 121.381 284.392C114.036 279.13 106.039 288.668 106.039 288.668C101.133 290.737 101.607 292.481 100.666 293.778C99.292 295.716 95.1079 294.654 90.484 300.984C85.8601 307.315 92.023 312.66 92.023 312.66C92.023 312.66 88.5877 313.439 90.2641 321.914C91.6382 328.811 94.2422 332.776 96.6331 331.466C96.0422 332.362 96.4476 330.466 96.372 336.293C96.2278 346.844 101.559 342.341 102.398 344.568C103.236 346.796 101.154 349.499 104.637 351.83C110.23 355.568 112.415 352.713 112.415 352.713C115.988 359.699 120.9 357.933 126.087 356.975C131.275 356.016 127.908 351.996 127.908 351.996C135.301 343.941 130.079 339.072 130.079 339.072C137.506 336.431 137.307 333.983 136.805 332.121C138.866 333.555 142.48 338.155 145.394 339.61C147.269 340.555 145.991 334.21 146.204 333.307C146.891 330.404 146.5 327.79 143.937 326.266C145.593 326.114 143.937 326.335 143.937 326.266C146.974 328.204 148.492 327.004 148.492 327.004C148.492 327.004 137.458 321.487 145.366 314.446C146.462 313.537 147.429 312.481 148.238 311.308C148.733 311.633 149.15 312.062 149.463 312.566C149.775 313.07 149.973 313.636 150.045 314.225C150.677 318.094 143.174 318.79 143.174 318.79C143.174 318.79 148.527 321.783 152.553 313.522C155.486 307.501 150.89 306.522 148.183 306.439C147.846 305.136 147.833 303.495 149.557 300.729C150.132 299.809 150.518 298.781 150.691 297.709C152.347 297.75 154.202 298.233 154.202 300.157C154.202 303.605 150.766 303.846 150.766 303.846C150.766 303.846 155.576 308.467 157.802 298.247C159.306 291.55 153.24 290.757 148.898 290.999Z" fill="#6B3D1F"/>
<path d="M161.697 307.818C161.697 307.818 157.424 310.101 156.29 311.735C155.157 313.37 156.867 313.728 157.204 313.397C161.828 308.832 163.388 310.604 163.133 309.335C162.879 308.066 163.023 307.57 161.697 307.818Z" fill="#6B3D1F"/>
<path d="M170.194 322.532C171.019 322.212 170.563 319.033 169.175 315.43C167.787 311.828 165.994 309.168 165.169 309.488C164.345 309.808 164.801 312.987 166.189 316.589C167.576 320.192 169.37 322.852 170.194 322.532Z" stroke="#482D18" stroke-width="1.52" stroke-miterlimit="10"/>
<path opacity="0.3" d="M170.656 322.546C171.481 322.226 171.024 319.047 169.637 315.445C168.249 311.843 166.456 309.182 165.631 309.502C164.806 309.822 165.263 313.002 166.65 316.604C168.038 320.206 169.832 322.866 170.656 322.546Z" fill="#E9F1FC"/>
<path d="M99.1065 370.27C99.1065 370.27 84.2935 369.539 46.1069 439.866H141.843L153.157 395.11L146.06 380.628L119.162 370.235L99.1065 370.27Z" fill="#CF63CF"/>
<path d="M112.414 357.963C112.414 357.963 146.238 374.121 149.9 382.196C153.562 390.272 153.157 395.168 153.157 395.168C153.157 395.168 138.907 374.479 99.1062 370.3C99.1062 370.273 108.127 358.142 112.414 357.963Z" fill="#C94FC9"/>
<path d="M126.142 376.581L190.897 383.078C197.898 383.602 200.75 382.588 205.875 377.761L242.337 344.169L260.159 357.569L220.571 406.601C217.65 410.034 214.084 412.855 210.075 414.904C206.067 416.952 201.696 418.187 197.211 418.538L134.854 423.724L126.142 376.581Z" fill="#CF63CF"/>
<path d="M241.018 345.37L247.03 339.24L263.862 352.687L259.266 358.666L241.018 345.37Z" fill="#C94FC9"/>
<path d="M248.843 342.889C248.843 342.889 250.304 335.811 261.772 333.665C273.239 331.519 277.269 330.651 275.998 333.665C274.727 336.678 267.92 339.254 267.92 339.254C267.92 339.254 277.485 343.722 284.274 342.889C291.063 342.057 294.47 335.005 296.805 336.451C299.14 337.896 297.67 340.621 295.456 342.995C292.291 346.332 278.16 351.334 272.219 351.615C266.277 351.895 262.922 354.243 262.922 354.243L248.843 342.889Z" fill="#FADBBD"/>
<path d="M276.488 351.169C276.488 351.169 289.878 350.279 291.259 349.869C292.641 349.46 295.943 342.978 295.943 342.978L276.488 351.169Z" fill="#FADBBD"/>
<path fill-rule="evenodd" clip-rule="evenodd" d="M105.531 167.798L106.758 168.375L106.759 168.373L156.68 191.86C158.15 192.552 158.779 194.304 158.084 195.772L145.228 222.958C144.533 224.427 142.778 225.057 141.308 224.365L91.3875 200.877L91.3865 200.88L90.16 200.302C89.2001 199.851 88.0993 199.799 87.0998 200.157L82.1948 201.918C81.1953 202.277 80.0946 202.225 79.1346 201.773L71.2303 198.054C70.2704 197.603 69.5299 196.788 69.1719 195.791L67.4146 190.896C67.0565 189.898 66.316 189.084 65.3561 188.632L64.1296 188.055L64.1307 188.053L58.6155 185.458C57.1453 184.766 56.5165 183.015 57.2111 181.546L70.0672 154.361C70.7619 152.892 72.5168 152.262 73.987 152.953L79.5022 155.548L79.5011 155.551L80.7276 156.128C81.6875 156.579 82.428 157.393 82.7861 158.391L84.5434 163.286C84.9014 164.284 85.6419 165.098 86.6018 165.55L94.5061 169.269C95.4661 169.72 96.5668 169.772 97.5663 169.414L102.471 167.653C103.471 167.294 104.572 167.346 105.531 167.798Z" fill="#FF6680"/>
<path d="M106.758 168.375L106.544 168.827C106.794 168.945 107.092 168.837 107.21 168.588L106.758 168.375ZM105.531 167.798L105.318 168.25L105.531 167.798ZM106.759 168.373L106.973 167.921C106.723 167.803 106.425 167.91 106.307 168.16L106.759 168.373ZM156.68 191.86L156.466 192.312L156.68 191.86ZM91.3875 200.877L91.6012 200.425C91.4813 200.369 91.3437 200.362 91.2187 200.407C91.0938 200.452 90.9918 200.545 90.9351 200.664L91.3875 200.877ZM91.3865 200.88L91.1727 201.332C91.2927 201.388 91.4303 201.394 91.5552 201.35C91.6802 201.305 91.7822 201.212 91.8389 201.092L91.3865 200.88ZM90.16 200.302L89.9462 200.754L90.16 200.302ZM87.0998 200.157L87.2686 200.628L87.2686 200.628L87.0998 200.157ZM82.1948 201.918L82.026 201.448L82.026 201.448L82.1948 201.918ZM79.1346 201.773L78.9209 202.225L79.1346 201.773ZM71.2303 198.054L71.4441 197.602L71.2303 198.054ZM69.1719 195.791L68.7008 195.96L68.7008 195.96L69.1719 195.791ZM67.4146 190.896L67.8856 190.726L67.8856 190.726L67.4146 190.896ZM65.3561 188.632L65.5699 188.18L65.5699 188.18L65.3561 188.632ZM64.1296 188.055L63.6772 187.842C63.6205 187.962 63.6138 188.1 63.6586 188.224C63.7033 188.349 63.7959 188.451 63.9159 188.507L64.1296 188.055ZM64.1307 188.053L64.5831 188.266C64.6398 188.146 64.6465 188.009 64.6017 187.884C64.557 187.759 64.4644 187.657 64.3444 187.601L64.1307 188.053ZM58.6155 185.458L58.8292 185.006L58.6155 185.458ZM79.5022 155.548L79.9546 155.761C80.0727 155.512 79.9658 155.214 79.716 155.096L79.5022 155.548ZM79.5011 155.551L79.0487 155.338C78.992 155.458 78.9853 155.595 79.0301 155.72C79.0748 155.844 79.1674 155.946 79.2874 156.003L79.5011 155.551ZM80.7276 156.128L80.9414 155.676L80.7276 156.128ZM82.7861 158.391L83.2571 158.222L83.2571 158.222L82.7861 158.391ZM84.5434 163.286L85.0144 163.117L85.0144 163.117L84.5434 163.286ZM86.6018 165.55L86.3881 166.002L86.3881 166.002L86.6018 165.55ZM94.5061 169.269L94.7199 168.817L94.7199 168.817L94.5061 169.269ZM97.5663 169.414L97.3975 168.943L97.3975 168.943L97.5663 169.414ZM102.471 167.653L102.64 168.123L102.64 168.123L102.471 167.653ZM106.972 167.923L105.745 167.346L105.318 168.25L106.544 168.827L106.972 167.923ZM106.307 168.16L106.306 168.162L107.21 168.588L107.211 168.586L106.307 168.16ZM156.893 191.408L106.973 167.921L106.545 168.825L156.466 192.312L156.893 191.408ZM158.536 195.985C159.349 194.267 158.613 192.218 156.893 191.408L156.466 192.312C157.686 192.886 158.208 194.34 157.632 195.559L158.536 195.985ZM145.68 223.171L158.536 195.985L157.632 195.559L144.775 222.745L145.68 223.171ZM141.094 224.817C142.814 225.626 144.868 224.889 145.68 223.171L144.775 222.745C144.199 223.964 142.742 224.487 141.522 223.913L141.094 224.817ZM91.1737 201.329L141.094 224.817L141.522 223.913L91.6012 200.425L91.1737 201.329ZM91.8389 201.092L91.8399 201.09L90.9351 200.664L90.934 200.667L91.8389 201.092ZM89.9462 200.754L91.1727 201.332L91.6002 200.427L90.3737 199.85L89.9462 200.754ZM87.2686 200.628C88.1431 200.314 89.1063 200.359 89.9462 200.754L90.3737 199.85C89.2938 199.342 88.0555 199.284 86.9311 199.687L87.2686 200.628ZM82.3636 202.388L87.2686 200.628L86.9311 199.687L82.026 201.448L82.3636 202.388ZM78.9209 202.225C80.0008 202.733 81.2392 202.792 82.3636 202.388L82.026 201.448C81.1515 201.762 80.1883 201.716 79.3484 201.321L78.9209 202.225ZM71.0166 198.506L78.9209 202.225L79.3484 201.321L71.4441 197.602L71.0166 198.506ZM68.7008 195.96C69.1036 197.082 69.9366 197.998 71.0166 198.506L71.4441 197.602C70.6041 197.207 69.9562 196.495 69.6429 195.622L68.7008 195.96ZM66.9435 191.065L68.7008 195.96L69.6429 195.622L67.8856 190.726L66.9435 191.065ZM65.1424 189.084C65.9823 189.479 66.6302 190.192 66.9435 191.065L67.8856 190.726C67.4828 189.604 66.6498 188.688 65.5699 188.18L65.1424 189.084ZM63.9159 188.507L65.1424 189.084L65.5699 188.18L64.3434 187.603L63.9159 188.507ZM63.6782 187.84L63.6772 187.842L64.5821 188.268L64.5831 188.266L63.6782 187.84ZM58.4017 185.91L63.9169 188.505L64.3444 187.601L58.8292 185.006L58.4017 185.91ZM56.7587 181.333C55.9461 183.052 56.6816 185.101 58.4017 185.91L58.8292 185.006C57.6089 184.432 57.087 182.978 57.6636 181.759L56.7587 181.333ZM69.6148 154.148L56.7587 181.333L57.6636 181.759L70.5197 154.573L69.6148 154.148ZM74.2007 152.501C72.4807 151.692 70.4275 152.429 69.6148 154.148L70.5197 154.573C71.0962 153.354 72.5529 152.831 73.7732 153.405L74.2007 152.501ZM79.716 155.096L74.2007 152.501L73.7732 153.405L79.2884 156L79.716 155.096ZM79.9536 155.764L79.9546 155.761L79.0498 155.336L79.0487 155.338L79.9536 155.764ZM80.9414 155.676L79.7149 155.099L79.2874 156.003L80.5139 156.58L80.9414 155.676ZM83.2571 158.222C82.8543 157.1 82.0213 156.184 80.9414 155.676L80.5139 156.58C81.3538 156.975 82.0017 157.687 82.315 158.56L83.2571 158.222ZM85.0144 163.117L83.2571 158.222L82.315 158.56L84.0723 163.455L85.0144 163.117ZM86.8156 165.098C85.9756 164.702 85.3277 163.99 85.0144 163.117L84.0723 163.455C84.4751 164.578 85.3081 165.494 86.3881 166.002L86.8156 165.098ZM94.7199 168.817L86.8156 165.098L86.3881 166.002L94.2924 169.721L94.7199 168.817ZM97.3975 168.943C96.523 169.257 95.5598 169.212 94.7199 168.817L94.2924 169.721C95.3723 170.229 96.6107 170.287 97.7351 169.884L97.3975 168.943ZM102.303 167.183L97.3975 168.943L97.7351 169.884L102.64 168.123L102.303 167.183ZM105.745 167.346C104.665 166.838 103.427 166.779 102.303 167.183L102.64 168.123C103.515 167.809 104.478 167.855 105.318 168.25L105.745 167.346Z" fill="#FF4D6A"/>
<path fill-rule="evenodd" clip-rule="evenodd" d="M64.3148 266.052C64.3148 273.954 72.1585 280.35 81.8604 280.35C83.1123 280.35 84.3446 280.253 85.5182 280.037L92.2918 283.704C93.5201 284.369 94.3337 283.801 94.1085 282.433L93.2054 276.947C97.0001 274.345 99.406 270.433 99.406 266.052C99.406 258.149 91.5428 251.734 81.8604 251.734C72.1585 251.734 64.3148 258.149 64.3148 266.052Z" fill="#E5F0FF"/>
<path fill-rule="evenodd" clip-rule="evenodd" d="M381.585 181.323H429.169C438.686 181.323 446.444 190.323 446.444 201.394C446.444 212.464 438.686 221.465 429.169 221.465H407.136C407.136 221.465 407.136 221.465 407.136 221.568C397.722 237.811 383.654 239.053 384.999 231.707C385.93 226.638 386.654 224.362 385.93 221.568H381.689C372.172 221.568 364.414 212.567 364.414 201.497C364.31 190.323 371.965 181.323 381.585 181.323Z" fill="#D9E3F2"/>
<path d="M323.971 29.5088C322.125 29.5088 320.652 31.0552 320.652 32.946C320.652 33.8378 320.982 34.6589 321.529 35.2684C319.746 36.329 318.555 38.4841 318.555 40.9441C318.555 41.957 319.331 42.6604 320.328 43.0962C321.336 43.5368 322.659 43.7504 323.966 43.7504C325.274 43.7504 326.597 43.5368 327.605 43.0962C328.602 42.6604 329.378 41.957 329.378 40.9441V40.9367C329.378 40.8277 329.378 40.6988 329.361 40.5667C329.301 39.2559 328.899 38.0456 328.259 37.066C327.769 36.3217 327.137 35.704 326.406 35.2694C326.957 34.6605 327.281 33.844 327.281 32.946C327.281 31.0557 325.809 29.5088 323.971 29.5088Z" fill="white" fill-opacity="0.25"/>
<path d="M27.7467 416.879C25.9011 416.879 24.4285 418.425 24.4285 420.316C24.4285 421.208 24.7585 422.029 25.3055 422.639C23.5219 423.699 22.3308 425.854 22.3308 428.314C22.3308 429.327 23.1068 430.031 24.1037 430.466C25.1118 430.907 26.4354 431.121 27.7426 431.121C29.0498 431.121 30.3734 430.907 31.3815 430.466C32.3784 430.031 33.1544 429.327 33.1544 428.314V428.307C33.1544 428.198 33.1544 428.069 33.1374 427.937C33.0767 426.626 32.6747 425.416 32.0351 424.436C31.5454 423.692 30.9134 423.074 30.1818 422.64C30.7334 422.031 31.0569 421.214 31.0569 420.316C31.0569 418.426 29.5847 416.879 27.7467 416.879Z" fill="white" fill-opacity="0.25"/>
<path d="M445.878 313.2C444.033 313.2 442.56 314.746 442.56 316.637C442.56 317.529 442.89 318.35 443.437 318.959C441.653 320.02 440.462 322.175 440.462 324.635C440.462 325.648 441.238 326.351 442.235 326.787C443.243 327.228 444.567 327.441 445.874 327.441C447.181 327.441 448.505 327.228 449.513 326.787C450.51 326.351 451.286 325.648 451.286 324.635V324.627C451.286 324.518 451.286 324.39 451.269 324.257C451.208 322.947 450.806 321.736 450.167 320.757C449.677 320.012 449.045 319.395 448.313 318.96C448.865 318.351 449.188 317.535 449.188 316.637C449.188 314.747 447.716 313.2 445.878 313.2Z" fill="white" fill-opacity="0.25"/>
</svg>
