<svg width="400" height="400" viewBox="0 0 400 400" fill="none" xmlns="http://www.w3.org/2000/svg">
<path d="M400 201.262C400 309.748 292.262 417.193 200 397.693C107.738 378.192 0 309.748 0 201.262C0 92.7763 83.3333 -25.5171 200 4.83125C316.667 35.1796 400 92.7763 400 201.262Z" fill="white" fill-opacity="0.25"/>
<path d="M74.5518 219.35C73.4184 219.35 72.4518 219.117 71.6518 218.65C70.8518 218.183 70.2018 217.583 69.7018 216.85C69.2351 216.083 68.8851 215.2 68.6518 214.2C68.4518 213.2 68.3518 212.183 68.3518 211.15C68.3518 210.083 68.4518 209.05 68.6518 208.05C68.8518 207.05 69.1851 206.167 69.6518 205.4C70.1518 204.633 70.7851 204.017 71.5518 203.55C72.3518 203.05 73.3351 202.8 74.5018 202.8C75.6351 202.8 76.5851 203.05 77.3518 203.55C78.1518 204.017 78.8018 204.65 79.3018 205.45C79.8018 206.217 80.1518 207.1 80.3518 208.1C80.5851 209.1 80.7018 210.117 80.7018 211.15C80.7018 212.183 80.6018 213.2 80.4018 214.2C80.2018 215.2 79.8518 216.083 79.3518 216.85C78.8851 217.583 78.2518 218.183 77.4518 218.65C76.6851 219.117 75.7184 219.35 74.5518 219.35ZM61.5018 198.15V233.05H68.6018V220.8H68.7018C69.5684 222.067 70.6684 223.033 72.0018 223.7C73.3684 224.333 74.8518 224.65 76.4518 224.65C78.3518 224.65 80.0018 224.283 81.4018 223.55C82.8351 222.817 84.0184 221.833 84.9518 220.6C85.9184 219.367 86.6351 217.95 87.1018 216.35C87.5684 214.75 87.8018 213.083 87.8018 211.35C87.8018 209.517 87.5684 207.767 87.1018 206.1C86.6351 204.4 85.9184 202.917 84.9518 201.65C83.9851 200.383 82.7684 199.367 81.3018 198.6C79.8351 197.833 78.0851 197.45 76.0518 197.45C74.4518 197.45 72.9851 197.767 71.6518 198.4C70.3184 199.033 69.2184 200.05 68.3518 201.45H68.2518V198.15H61.5018ZM92.2682 188.3V224H99.3682V188.3H92.2682ZM104.659 206.1C104.759 204.433 105.175 203.05 105.909 201.95C106.642 200.85 107.575 199.967 108.709 199.3C109.842 198.633 111.109 198.167 112.509 197.9C113.942 197.6 115.375 197.45 116.809 197.45C118.109 197.45 119.425 197.55 120.759 197.75C122.092 197.917 123.309 198.267 124.409 198.8C125.509 199.333 126.409 200.083 127.109 201.05C127.809 201.983 128.159 203.233 128.159 204.8V218.25C128.159 219.417 128.225 220.533 128.359 221.6C128.492 222.667 128.725 223.467 129.059 224H121.859C121.725 223.6 121.609 223.2 121.509 222.8C121.442 222.367 121.392 221.933 121.359 221.5C120.225 222.667 118.892 223.483 117.359 223.95C115.825 224.417 114.259 224.65 112.659 224.65C111.425 224.65 110.275 224.5 109.209 224.2C108.142 223.9 107.209 223.433 106.409 222.8C105.609 222.167 104.975 221.367 104.509 220.4C104.075 219.433 103.859 218.283 103.859 216.95C103.859 215.483 104.109 214.283 104.609 213.35C105.142 212.383 105.809 211.617 106.609 211.05C107.442 210.483 108.375 210.067 109.409 209.8C110.475 209.5 111.542 209.267 112.609 209.1C113.675 208.933 114.725 208.8 115.759 208.7C116.792 208.6 117.709 208.45 118.509 208.25C119.309 208.05 119.942 207.767 120.409 207.4C120.875 207 121.092 206.433 121.059 205.7C121.059 204.933 120.925 204.333 120.659 203.9C120.425 203.433 120.092 203.083 119.659 202.85C119.259 202.583 118.775 202.417 118.209 202.35C117.675 202.25 117.092 202.2 116.459 202.2C115.059 202.2 113.959 202.5 113.159 203.1C112.359 203.7 111.892 204.7 111.759 206.1H104.659ZM121.059 211.35C120.759 211.617 120.375 211.833 119.909 212C119.475 212.133 118.992 212.25 118.459 212.35C117.959 212.45 117.425 212.533 116.859 212.6C116.292 212.667 115.725 212.75 115.159 212.85C114.625 212.95 114.092 213.083 113.559 213.25C113.059 213.417 112.609 213.65 112.209 213.95C111.842 214.217 111.542 214.567 111.309 215C111.075 215.433 110.959 215.983 110.959 216.65C110.959 217.283 111.075 217.817 111.309 218.25C111.542 218.683 111.859 219.033 112.259 219.3C112.659 219.533 113.125 219.7 113.659 219.8C114.192 219.9 114.742 219.95 115.309 219.95C116.709 219.95 117.792 219.717 118.559 219.25C119.325 218.783 119.892 218.233 120.259 217.6C120.625 216.933 120.842 216.267 120.909 215.6C121.009 214.933 121.059 214.4 121.059 214V211.35ZM151.27 207.25H158.22C158.12 205.583 157.72 204.15 157.02 202.95C156.32 201.717 155.403 200.7 154.27 199.9C153.17 199.067 151.903 198.45 150.47 198.05C149.07 197.65 147.603 197.45 146.07 197.45C143.97 197.45 142.103 197.8 140.47 198.5C138.836 199.2 137.453 200.183 136.32 201.45C135.186 202.683 134.32 204.167 133.72 205.9C133.153 207.6 132.87 209.45 132.87 211.45C132.87 213.383 133.186 215.167 133.82 216.8C134.453 218.4 135.336 219.783 136.47 220.95C137.603 222.117 138.97 223.033 140.57 223.7C142.203 224.333 143.986 224.65 145.92 224.65C149.353 224.65 152.17 223.75 154.37 221.95C156.57 220.15 157.903 217.533 158.37 214.1H151.52C151.286 215.7 150.703 216.983 149.77 217.95C148.87 218.883 147.57 219.35 145.87 219.35C144.77 219.35 143.836 219.1 143.07 218.6C142.303 218.1 141.686 217.467 141.22 216.7C140.786 215.9 140.47 215.017 140.27 214.05C140.07 213.083 139.97 212.133 139.97 211.2C139.97 210.233 140.07 209.267 140.27 208.3C140.47 207.3 140.803 206.4 141.27 205.6C141.77 204.767 142.403 204.1 143.17 203.6C143.936 203.067 144.886 202.8 146.02 202.8C149.053 202.8 150.803 204.283 151.27 207.25ZM179.781 208.3H168.231C168.264 207.8 168.364 207.233 168.531 206.6C168.731 205.967 169.047 205.367 169.481 204.8C169.947 204.233 170.547 203.767 171.281 203.4C172.047 203 172.997 202.8 174.131 202.8C175.864 202.8 177.147 203.267 177.981 204.2C178.847 205.133 179.447 206.5 179.781 208.3ZM168.231 212.8H186.881C187.014 210.8 186.847 208.883 186.381 207.05C185.914 205.217 185.147 203.583 184.081 202.15C183.047 200.717 181.714 199.583 180.081 198.75C178.447 197.883 176.531 197.45 174.331 197.45C172.364 197.45 170.564 197.8 168.931 198.5C167.331 199.2 165.947 200.167 164.781 201.4C163.614 202.6 162.714 204.033 162.081 205.7C161.447 207.367 161.131 209.167 161.131 211.1C161.131 213.1 161.431 214.933 162.031 216.6C162.664 218.267 163.547 219.7 164.681 220.9C165.814 222.1 167.197 223.033 168.831 223.7C170.464 224.333 172.297 224.65 174.331 224.65C177.264 224.65 179.764 223.983 181.831 222.65C183.897 221.317 185.431 219.1 186.431 216H180.181C179.947 216.8 179.314 217.567 178.281 218.3C177.247 219 176.014 219.35 174.581 219.35C172.581 219.35 171.047 218.833 169.981 217.8C168.914 216.767 168.331 215.1 168.231 212.8ZM191.092 188.3V224H198.192V210.45C198.192 207.817 198.625 205.933 199.492 204.8C200.358 203.633 201.758 203.05 203.692 203.05C205.392 203.05 206.575 203.583 207.242 204.65C207.908 205.683 208.242 207.267 208.242 209.4V224H215.342V208.1C215.342 206.5 215.192 205.05 214.892 203.75C214.625 202.417 214.142 201.3 213.442 200.4C212.742 199.467 211.775 198.75 210.542 198.25C209.342 197.717 207.792 197.45 205.892 197.45C204.558 197.45 203.192 197.8 201.792 198.5C200.392 199.167 199.242 200.25 198.342 201.75H198.192V188.3H191.092ZM227.03 211.1C227.03 210.067 227.13 209.05 227.33 208.05C227.53 207.05 227.864 206.167 228.33 205.4C228.83 204.633 229.48 204.017 230.28 203.55C231.08 203.05 232.08 202.8 233.28 202.8C234.48 202.8 235.48 203.05 236.28 203.55C237.114 204.017 237.764 204.633 238.23 205.4C238.73 206.167 239.08 207.05 239.28 208.05C239.48 209.05 239.58 210.067 239.58 211.1C239.58 212.133 239.48 213.15 239.28 214.15C239.08 215.117 238.73 216 238.23 216.8C237.764 217.567 237.114 218.183 236.28 218.65C235.48 219.117 234.48 219.35 233.28 219.35C232.08 219.35 231.08 219.117 230.28 218.65C229.48 218.183 228.83 217.567 228.33 216.8C227.864 216 227.53 215.117 227.33 214.15C227.13 213.15 227.03 212.133 227.03 211.1ZM219.93 211.1C219.93 213.167 220.247 215.033 220.88 216.7C221.514 218.367 222.414 219.8 223.58 221C224.747 222.167 226.147 223.067 227.78 223.7C229.414 224.333 231.247 224.65 233.28 224.65C235.314 224.65 237.147 224.333 238.78 223.7C240.447 223.067 241.864 222.167 243.03 221C244.197 219.8 245.097 218.367 245.73 216.7C246.364 215.033 246.68 213.167 246.68 211.1C246.68 209.033 246.364 207.167 245.73 205.5C245.097 203.8 244.197 202.367 243.03 201.2C241.864 200 240.447 199.083 238.78 198.45C237.147 197.783 235.314 197.45 233.28 197.45C231.247 197.45 229.414 197.783 227.78 198.45C226.147 199.083 224.747 200 223.58 201.2C222.414 202.367 221.514 203.8 220.88 205.5C220.247 207.167 219.93 209.033 219.93 211.1ZM251.497 188.3V224H258.597V188.3H251.497ZM282.537 211C282.537 212.067 282.437 213.1 282.237 214.1C282.037 215.1 281.704 216 281.237 216.8C280.771 217.567 280.137 218.183 279.337 218.65C278.571 219.117 277.604 219.35 276.437 219.35C275.337 219.35 274.387 219.117 273.587 218.65C272.821 218.15 272.171 217.517 271.637 216.75C271.137 215.95 270.771 215.05 270.537 214.05C270.304 213.05 270.187 212.05 270.187 211.05C270.187 209.983 270.287 208.967 270.487 208C270.721 207 271.071 206.117 271.537 205.35C272.037 204.583 272.687 203.967 273.487 203.5C274.287 203.033 275.271 202.8 276.437 202.8C277.604 202.8 278.571 203.033 279.337 203.5C280.104 203.967 280.721 204.583 281.187 205.35C281.687 206.083 282.037 206.95 282.237 207.95C282.437 208.917 282.537 209.933 282.537 211ZM282.637 220.7V224H289.387V188.3H282.287V201.3H282.187C281.387 200.033 280.287 199.083 278.887 198.45C277.521 197.783 276.071 197.45 274.537 197.45C272.637 197.45 270.971 197.833 269.537 198.6C268.104 199.333 266.904 200.317 265.937 201.55C265.004 202.783 264.287 204.217 263.787 205.85C263.321 207.45 263.087 209.117 263.087 210.85C263.087 212.65 263.321 214.383 263.787 216.05C264.287 217.717 265.004 219.2 265.937 220.5C266.904 221.767 268.121 222.783 269.587 223.55C271.054 224.283 272.754 224.65 274.687 224.65C276.387 224.65 277.904 224.35 279.237 223.75C280.604 223.117 281.704 222.1 282.537 220.7H282.637ZM312.154 208.3H300.604C300.637 207.8 300.737 207.233 300.904 206.6C301.104 205.967 301.42 205.367 301.854 204.8C302.32 204.233 302.92 203.767 303.654 203.4C304.42 203 305.37 202.8 306.504 202.8C308.237 202.8 309.52 203.267 310.354 204.2C311.22 205.133 311.82 206.5 312.154 208.3ZM300.604 212.8H319.254C319.387 210.8 319.22 208.883 318.754 207.05C318.287 205.217 317.52 203.583 316.454 202.15C315.42 200.717 314.087 199.583 312.454 198.75C310.82 197.883 308.904 197.45 306.704 197.45C304.737 197.45 302.937 197.8 301.304 198.5C299.704 199.2 298.32 200.167 297.154 201.4C295.987 202.6 295.087 204.033 294.454 205.7C293.82 207.367 293.504 209.167 293.504 211.1C293.504 213.1 293.804 214.933 294.404 216.6C295.037 218.267 295.92 219.7 297.054 220.9C298.187 222.1 299.57 223.033 301.204 223.7C302.837 224.333 304.67 224.65 306.704 224.65C309.637 224.65 312.137 223.983 314.204 222.65C316.27 221.317 317.804 219.1 318.804 216H312.554C312.32 216.8 311.687 217.567 310.654 218.3C309.62 219 308.387 219.35 306.954 219.35C304.954 219.35 303.42 218.833 302.354 217.8C301.287 216.767 300.704 215.1 300.604 212.8ZM323.465 198.15V224H330.565V212.35C330.565 211.183 330.681 210.1 330.915 209.1C331.148 208.1 331.531 207.233 332.065 206.5C332.631 205.733 333.365 205.133 334.265 204.7C335.165 204.267 336.265 204.05 337.565 204.05C337.998 204.05 338.448 204.083 338.915 204.15C339.381 204.183 339.781 204.233 340.115 204.3V197.7C339.548 197.533 339.031 197.45 338.565 197.45C337.665 197.45 336.798 197.583 335.965 197.85C335.131 198.117 334.348 198.5 333.615 199C332.881 199.467 332.231 200.05 331.665 200.75C331.098 201.417 330.648 202.15 330.315 202.95H330.215V198.15H323.465Z" fill="white"/>
</svg>
