<svg width="140" height="140" viewBox="0 0 140 140" fill="none" xmlns="http://www.w3.org/2000/svg">
<path fill-rule="evenodd" clip-rule="evenodd" d="M10.2801 59.1114C3.84612 49.5324 23.2311 46.3004 33.7121 65.0704C39.7031 75.7994 47.2491 66.5614 50.3461 58.5934C54.4221 48.1064 60.9561 34.6224 64.7181 26.4474C68.9671 17.2164 80.5841 23.2524 77.0281 31.5824C72.1871 42.9204 62.0271 61.1774 65.0351 62.9864C68.2781 64.9374 78.5051 39.7384 87.0751 25.7304C93.3211 15.5194 103.443 21.2634 98.9201 32.4164C93.5051 45.7694 80.5821 63.7754 82.7541 65.5124C84.9401 67.2594 95.9551 49.8414 102.526 39.1894C107.879 30.5134 117.906 37.5134 113.035 45.4394C105.701 57.3714 90.2301 75.9924 92.1791 77.6674C94.7421 79.8684 103.238 67.4524 108.282 61.2524C114.388 53.7454 121.872 60.5874 117.194 67.0234C108.948 78.3674 87.8801 105.076 81.8721 112.4C67.6951 129.678 25.8891 116.415 25.8961 87.6084C25.9011 72.1914 13.9401 64.5634 10.2801 59.1114Z" fill="#ECC293"/>
<path d="M39.0269 29.0771C35.2459 31.6791 33.1809 36.1321 33.6379 40.6981" stroke="#FEFEFE" stroke-width="6" stroke-linecap="round" stroke-linejoin="round"/>
<path d="M31.7847 19.9995C24.9407 24.7085 21.2037 32.7695 22.0307 41.0355" stroke="#FEFEFE" stroke-width="6" stroke-linecap="round" stroke-linejoin="round"/>
<path d="M110.778 102.436C115.182 100.797 118.344 96.891 119.031 92.243" stroke="#FEFEFE" stroke-width="6" stroke-linecap="round" stroke-linejoin="round"/>
<path d="M115.702 113.258C123.674 110.291 129.398 103.22 130.64 94.8063" stroke="#FEFEFE" stroke-width="6" stroke-linecap="round" stroke-linejoin="round"/>
</svg>
