<svg width="88" height="82" viewBox="0 0 88 82" fill="none" xmlns="http://www.w3.org/2000/svg">
<g id="Calendar">
<g id="Calendar_2">
<g id="Bottom">
<path id="Rectangle" fill-rule="evenodd" clip-rule="evenodd" d="M0 15C0 10.5817 3.58172 7 8 7H80C84.4183 7 88 10.5795 88 14.9978C88 29.4214 88 58.6976 88 62.9937C88 65.274 85.8029 66.6905 83.1558 67.5697C78.5455 69.1008 75.111 73.7646 72.5536 77.8947C71.1408 80.1761 68.5913 82 64.0498 82C54.8928 82 23.0348 82 7.98771 82C3.56943 82 0 78.4183 0 74V15Z" fill="white"/>
<path id="2020" fill-rule="evenodd" clip-rule="evenodd" d="M25.952 58.708V61.636H13.616C13.616 60.66 13.756 59.812 14.036 59.092C14.316 58.372 14.696 57.728 15.176 57.16C15.656 56.592 16.22 56.068 16.868 55.588C17.516 55.108 18.2 54.62 18.92 54.124C19.288 53.868 19.68 53.608 20.096 53.344C20.512 53.08 20.892 52.788 21.236 52.468C21.58 52.148 21.868 51.788 22.1 51.388C22.332 50.988 22.448 50.532 22.448 50.02C22.448 49.204 22.212 48.568 21.74 48.112C21.268 47.656 20.664 47.428 19.928 47.428C19.432 47.428 19.012 47.544 18.668 47.776C18.324 48.008 18.048 48.312 17.84 48.688C17.632 49.064 17.484 49.48 17.396 49.936C17.308 50.392 17.264 50.844 17.264 51.292H14C13.968 50.332 14.08 49.44 14.336 48.616C14.592 47.792 14.976 47.072 15.488 46.456C16 45.84 16.644 45.36 17.42 45.016C18.196 44.672 19.088 44.5 20.096 44.5C20.864 44.5 21.596 44.62 22.292 44.86C22.988 45.1 23.6 45.444 24.128 45.892C24.656 46.34 25.076 46.892 25.388 47.548C25.7 48.204 25.856 48.94 25.856 49.756C25.856 50.604 25.72 51.332 25.448 51.94C25.176 52.548 24.816 53.088 24.368 53.56C23.92 54.032 23.412 54.46 22.844 54.844C22.276 55.228 21.704 55.608 21.128 55.984C20.552 56.36 19.992 56.764 19.448 57.196C18.904 57.628 18.424 58.132 18.008 58.708H25.952ZM58.2401 58.708V61.636H45.9041C45.9041 60.66 46.0441 59.812 46.3241 59.092C46.6041 58.372 46.9841 57.728 47.4641 57.16C47.9441 56.592 48.5081 56.068 49.1561 55.588C49.8041 55.108 50.4881 54.62 51.2081 54.124C51.5761 53.868 51.9681 53.608 52.3841 53.344C52.8001 53.08 53.1801 52.788 53.5241 52.468C53.8681 52.148 54.1561 51.788 54.3881 51.388C54.6201 50.988 54.7361 50.532 54.7361 50.02C54.7361 49.204 54.5001 48.568 54.0281 48.112C53.5561 47.656 52.9521 47.428 52.2161 47.428C51.7201 47.428 51.3001 47.544 50.9561 47.776C50.6121 48.008 50.3361 48.312 50.1281 48.688C49.9201 49.064 49.7721 49.48 49.6841 49.936C49.5961 50.392 49.5521 50.844 49.5521 51.292H46.2881C46.2561 50.332 46.3681 49.44 46.6241 48.616C46.8801 47.792 47.2641 47.072 47.7761 46.456C48.2881 45.84 48.9321 45.36 49.7081 45.016C50.4841 44.672 51.3761 44.5 52.3841 44.5C53.1521 44.5 53.8841 44.62 54.5801 44.86C55.2761 45.1 55.8881 45.444 56.4161 45.892C56.9441 46.34 57.3641 46.892 57.6761 47.548C57.9881 48.204 58.1441 48.94 58.1441 49.756C58.1441 50.604 58.0081 51.332 57.7361 51.94C57.4641 52.548 57.1041 53.088 56.6561 53.56C56.2081 54.032 55.7001 54.46 55.1321 54.844C54.5641 55.228 53.9921 55.608 53.4161 55.984C52.8401 56.36 52.2801 56.764 51.7361 57.196C51.1921 57.628 50.7121 58.132 50.2961 58.708H58.2401ZM35.904 61.948C36.752 61.948 37.548 61.804 38.292 61.516C39.036 61.228 39.692 60.748 40.26 60.076C40.828 59.404 41.276 58.504 41.604 57.376C41.932 56.248 42.096 54.844 42.096 53.164C42.096 51.532 41.932 50.16 41.604 49.048C41.276 47.936 40.828 47.044 40.26 46.372C39.692 45.7 39.036 45.22 38.292 44.932C37.548 44.644 36.752 44.5 35.904 44.5C35.072 44.5 34.284 44.644 33.54 44.932C32.796 45.22 32.144 45.7 31.584 46.372C31.024 47.044 30.58 47.936 30.252 49.048C29.924 50.16 29.76 51.532 29.76 53.164C29.76 54.844 29.924 56.248 30.252 57.376C30.58 58.504 31.024 59.404 31.584 60.076C32.144 60.748 32.796 61.228 33.54 61.516C34.284 61.804 35.072 61.948 35.904 61.948ZM70.5801 61.516C69.8361 61.804 69.0401 61.948 68.1921 61.948C67.3601 61.948 66.5721 61.804 65.8281 61.516C65.0841 61.228 64.4321 60.748 63.8721 60.076C63.3121 59.404 62.8681 58.504 62.5401 57.376C62.2121 56.248 62.0481 54.844 62.0481 53.164C62.0481 51.532 62.2121 50.16 62.5401 49.048C62.8681 47.936 63.3121 47.044 63.8721 46.372C64.4321 45.7 65.0841 45.22 65.8281 44.932C66.5721 44.644 67.3601 44.5 68.1921 44.5C69.0401 44.5 69.8361 44.644 70.5801 44.932C71.3241 45.22 71.9801 45.7 72.5481 46.372C73.1161 47.044 73.5641 47.936 73.8921 49.048C74.2201 50.16 74.3841 51.532 74.3841 53.164C74.3841 54.844 74.2201 56.248 73.8921 57.376C73.5641 58.504 73.1161 59.404 72.5481 60.076C71.9801 60.748 71.3241 61.228 70.5801 61.516ZM35.904 59.1641C35.216 59.1641 34.688 58.9401 34.32 58.4921C33.952 58.0441 33.684 57.5041 33.516 56.8721C33.348 56.2401 33.248 55.5841 33.216 54.9041C33.184 54.2241 33.168 53.6441 33.168 53.1641C33.168 52.8761 33.172 52.5281 33.18 52.1201C33.188 51.7121 33.216 51.2921 33.264 50.8601C33.312 50.4281 33.392 50.0001 33.504 49.5761C33.616 49.1521 33.772 48.7721 33.972 48.4361C34.172 48.1001 34.428 47.8281 34.74 47.6201C35.052 47.4121 35.44 47.3081 35.904 47.3081C36.368 47.3081 36.76 47.4121 37.08 47.6201C37.4 47.8281 37.664 48.1001 37.872 48.4361C38.08 48.7721 38.236 49.1521 38.34 49.5761C38.444 50.0001 38.524 50.4281 38.58 50.8601C38.636 51.2921 38.668 51.7121 38.676 52.1201C38.684 52.5281 38.688 52.8761 38.688 53.1641C38.688 53.6441 38.672 54.2241 38.64 54.9041C38.608 55.5841 38.508 56.2401 38.34 56.8721C38.172 57.5041 37.9 58.0441 37.524 58.4921C37.148 58.9401 36.608 59.1641 35.904 59.1641ZM66.6081 58.4921C66.9761 58.9401 67.5041 59.1641 68.1921 59.1641C68.8961 59.1641 69.4361 58.9401 69.8121 58.4921C70.1881 58.0441 70.4601 57.5041 70.6281 56.8721C70.7961 56.2401 70.8961 55.5841 70.9281 54.9041C70.9601 54.2241 70.9761 53.6441 70.9761 53.1641C70.9761 52.8761 70.9721 52.5281 70.9641 52.1201C70.9561 51.7121 70.9241 51.2921 70.8681 50.8601C70.8121 50.4281 70.7321 50.0001 70.6281 49.5761C70.5241 49.1521 70.3681 48.7721 70.1601 48.4361C69.9521 48.1001 69.6881 47.8281 69.3681 47.6201C69.0481 47.4121 68.6561 47.3081 68.1921 47.3081C67.7281 47.3081 67.3401 47.4121 67.0281 47.6201C66.7161 47.8281 66.4601 48.1001 66.2601 48.4361C66.0601 48.7721 65.9041 49.1521 65.7921 49.5761C65.6801 50.0001 65.6001 50.4281 65.5521 50.8601C65.5041 51.2921 65.4761 51.7121 65.4681 52.1201C65.4601 52.5281 65.4561 52.8761 65.4561 53.1641C65.4561 53.6441 65.4721 54.2241 65.5041 54.9041C65.5361 55.5841 65.6361 56.2401 65.8041 56.8721C65.9721 57.5041 66.2401 58.0441 66.6081 58.4921Z" fill="#575E75"/>
<path id="Path" fill-rule="evenodd" clip-rule="evenodd" d="M88 62.9937C88 65.7644 83.5916 65.7184 78.7261 66.5762C75.407 67.1613 72.4665 71.1078 71.8892 74.4282C71.0713 79.1319 70.0047 82 64.0498 82C64.0498 82 72.4268 82.2006 80.3307 74.4282C88.2346 66.6558 88 62.9937 88 62.9937Z" fill="#E6E6E6"/>
</g>
<g id="Top">
<path id="Rectangle Copy 2" fill-rule="evenodd" clip-rule="evenodd" d="M0 27H88V31H44.1987H0V27Z" fill="black" fill-opacity="0.1"/>
<path id="Rectangle_2" d="M0 15C0 10.5817 3.58172 7 8 7H80C84.4183 7 88 10.5817 88 15V27H0V15Z" fill="#47A8D1"/>
<circle id="Oval" cx="19" cy="16" r="6" fill="black" fill-opacity="0.15"/>
<circle id="Oval Copy" cx="69" cy="16" r="6" fill="black" fill-opacity="0.15"/>
<rect id="Rectangle_3" x="15" width="8" height="20" rx="4" fill="white"/>
<rect id="Rectangle Copy" x="65" width="8" height="20" rx="4" fill="white"/>
</g>
</g>
</g>
</svg>
