<svg width="460" height="375" viewBox="0 0 460 375" fill="none" xmlns="http://www.w3.org/2000/svg">
<path fill-rule="evenodd" clip-rule="evenodd" d="M381.105 302.5C410.325 276.083 429.306 236.298 434.802 193.312C445.085 112.88 370.072 63.2842 292.218 51.6271C220.491 40.8874 155.287 81.0833 142.004 169.874C130.426 247.274 183.059 330.658 292.218 334.996C308.583 335.646 323.874 333.261 337.921 328.377C347.003 336.705 361.625 344.554 383.832 345.996C390.721 346.443 394.879 337.231 391.587 331.164C387.055 322.811 382.702 312.318 381.105 302.5Z" fill="white" fill-opacity="0.25"/>
<path fill-rule="evenodd" clip-rule="evenodd" d="M55.0187 286.185C38.6073 271.338 27.9465 248.977 24.8598 224.818C19.0842 179.613 61.2155 151.738 104.942 145.187C145.227 139.151 181.85 161.742 189.31 211.645C195.813 255.146 166.251 302.01 104.942 304.448C95.7509 304.814 87.1625 303.473 79.2731 300.728C74.1461 305.433 65.8758 309.865 53.2959 310.643C49.4925 310.878 47.1993 305.829 49.0217 302.496C51.6064 297.77 54.1089 291.782 55.0187 286.185Z" fill="black" fill-opacity="0.25"/>
<path d="M57.0602 76.81H59.5082C59.5082 76.474 59.5382 76.138 59.5982 75.802C59.6702 75.454 59.7842 75.142 59.9402 74.866C60.0962 74.578 60.3002 74.35 60.5522 74.182C60.8162 74.002 61.1342 73.912 61.5062 73.912C62.0582 73.912 62.5082 74.086 62.8562 74.434C63.2162 74.77 63.3962 75.244 63.3962 75.856C63.3962 76.24 63.3062 76.582 63.1262 76.882C62.9582 77.182 62.7422 77.452 62.4782 77.692C62.2262 77.932 61.9442 78.154 61.6322 78.358C61.3202 78.55 61.0262 78.742 60.7502 78.934C60.2102 79.306 59.6942 79.672 59.2022 80.032C58.7222 80.392 58.3022 80.788 57.9422 81.22C57.5822 81.64 57.2942 82.12 57.0782 82.66C56.8742 83.2 56.7722 83.836 56.7722 84.568H66.0242V82.372H60.0662C60.3782 81.94 60.7382 81.562 61.1462 81.238C61.5542 80.914 61.9742 80.614 62.4062 80.338C62.8382 80.05 63.2642 79.762 63.6842 79.474C64.1162 79.186 64.5002 78.868 64.8362 78.52C65.1722 78.16 65.4422 77.752 65.6462 77.296C65.8502 76.84 65.9522 76.294 65.9522 75.658C65.9522 75.046 65.8322 74.494 65.5922 74.002C65.3642 73.51 65.0522 73.096 64.6562 72.76C64.2602 72.424 63.7982 72.166 63.2702 71.986C62.7542 71.806 62.2082 71.716 61.6322 71.716C60.8762 71.716 60.2042 71.848 59.6162 72.112C59.0402 72.364 58.5602 72.724 58.1762 73.192C57.7922 73.648 57.5042 74.188 57.3122 74.812C57.1202 75.424 57.0362 76.09 57.0602 76.81ZM69.3302 78.214C69.3302 77.998 69.3302 77.74 69.3302 77.44C69.3422 77.128 69.3662 76.81 69.4022 76.486C69.4382 76.162 69.4982 75.844 69.5822 75.532C69.6662 75.208 69.7802 74.92 69.9242 74.668C70.0802 74.416 70.2722 74.212 70.5002 74.056C70.7402 73.9 71.0342 73.822 71.3822 73.822C71.7302 73.822 72.0242 73.9 72.2642 74.056C72.5042 74.212 72.7022 74.416 72.8582 74.668C73.0142 74.92 73.1282 75.208 73.2002 75.532C73.2842 75.844 73.3442 76.162 73.3802 76.486C73.4282 76.81 73.4522 77.128 73.4522 77.44C73.4642 77.74 73.4702 77.998 73.4702 78.214C73.4702 78.574 73.4582 79.012 73.4342 79.528C73.4102 80.032 73.3322 80.524 73.2002 81.004C73.0802 81.472 72.8762 81.874 72.5882 82.21C72.3122 82.546 71.9102 82.714 71.3822 82.714C70.8662 82.714 70.4702 82.546 70.1942 82.21C69.9182 81.874 69.7142 81.472 69.5822 81.004C69.4622 80.524 69.3902 80.032 69.3662 79.528C69.3422 79.012 69.3302 78.574 69.3302 78.214ZM66.7742 78.214C66.7742 79.474 66.8942 80.53 67.1342 81.382C67.3862 82.222 67.7222 82.894 68.1422 83.398C68.5622 83.902 69.0482 84.262 69.6002 84.478C70.1642 84.694 70.7582 84.802 71.3822 84.802C72.0182 84.802 72.6122 84.694 73.1642 84.478C73.7282 84.262 74.2202 83.902 74.6402 83.398C75.0722 82.894 75.4082 82.222 75.6482 81.382C75.9002 80.53 76.0262 79.474 76.0262 78.214C76.0262 76.99 75.9002 75.964 75.6482 75.136C75.4082 74.296 75.0722 73.624 74.6402 73.12C74.2202 72.616 73.7282 72.256 73.1642 72.04C72.6122 71.824 72.0182 71.716 71.3822 71.716C70.7582 71.716 70.1642 71.824 69.6002 72.04C69.0482 72.256 68.5622 72.616 68.1422 73.12C67.7222 73.624 67.3862 74.296 67.1342 75.136C66.8942 75.964 66.7742 76.99 66.7742 78.214ZM77.0641 76.81H79.5121C79.5121 76.474 79.5421 76.138 79.6021 75.802C79.6741 75.454 79.7881 75.142 79.9441 74.866C80.1001 74.578 80.3041 74.35 80.5561 74.182C80.8201 74.002 81.1381 73.912 81.5101 73.912C82.0621 73.912 82.5121 74.086 82.8601 74.434C83.2201 74.77 83.4001 75.244 83.4001 75.856C83.4001 76.24 83.3101 76.582 83.1301 76.882C82.9621 77.182 82.7461 77.452 82.4821 77.692C82.2301 77.932 81.9481 78.154 81.6361 78.358C81.3241 78.55 81.0301 78.742 80.7541 78.934C80.2141 79.306 79.6981 79.672 79.2061 80.032C78.7261 80.392 78.3061 80.788 77.9461 81.22C77.5861 81.64 77.2981 82.12 77.0821 82.66C76.8781 83.2 76.7761 83.836 76.7761 84.568H86.0281V82.372H80.0701C80.3821 81.94 80.7421 81.562 81.1501 81.238C81.5581 80.914 81.9781 80.614 82.4101 80.338C82.8421 80.05 83.2681 79.762 83.6881 79.474C84.1201 79.186 84.5041 78.868 84.8401 78.52C85.1761 78.16 85.4461 77.752 85.6501 77.296C85.8541 76.84 85.9561 76.294 85.9561 75.658C85.9561 75.046 85.8361 74.494 85.5961 74.002C85.3681 73.51 85.0561 73.096 84.6601 72.76C84.2641 72.424 83.8021 72.166 83.2741 71.986C82.7581 71.806 82.2121 71.716 81.6361 71.716C80.8801 71.716 80.2081 71.848 79.6201 72.112C79.0441 72.364 78.5641 72.724 78.1801 73.192C77.7961 73.648 77.5081 74.188 77.3161 74.812C77.1241 75.424 77.0401 76.09 77.0641 76.81ZM89.3341 78.214C89.3341 77.998 89.3341 77.74 89.3341 77.44C89.3461 77.128 89.3701 76.81 89.4061 76.486C89.4421 76.162 89.5021 75.844 89.5861 75.532C89.6701 75.208 89.7841 74.92 89.9281 74.668C90.0841 74.416 90.2761 74.212 90.5041 74.056C90.7441 73.9 91.0381 73.822 91.3861 73.822C91.7341 73.822 92.0281 73.9 92.2681 74.056C92.5081 74.212 92.7061 74.416 92.8621 74.668C93.0181 74.92 93.1321 75.208 93.2041 75.532C93.2881 75.844 93.3481 76.162 93.3841 76.486C93.4321 76.81 93.4561 77.128 93.4561 77.44C93.4681 77.74 93.4741 77.998 93.4741 78.214C93.4741 78.574 93.4621 79.012 93.4381 79.528C93.4141 80.032 93.3361 80.524 93.2041 81.004C93.0841 81.472 92.8801 81.874 92.5921 82.21C92.3161 82.546 91.9141 82.714 91.3861 82.714C90.8701 82.714 90.4741 82.546 90.1981 82.21C89.9221 81.874 89.7181 81.472 89.5861 81.004C89.4661 80.524 89.3941 80.032 89.3701 79.528C89.3461 79.012 89.3341 78.574 89.3341 78.214ZM86.7781 78.214C86.7781 79.474 86.8981 80.53 87.1381 81.382C87.3901 82.222 87.7261 82.894 88.1461 83.398C88.5661 83.902 89.0521 84.262 89.6041 84.478C90.1681 84.694 90.7621 84.802 91.3861 84.802C92.0221 84.802 92.6161 84.694 93.1681 84.478C93.7321 84.262 94.2241 83.902 94.6441 83.398C95.0761 82.894 95.4121 82.222 95.6521 81.382C95.9041 80.53 96.0301 79.474 96.0301 78.214C96.0301 76.99 95.9041 75.964 95.6521 75.136C95.4121 74.296 95.0761 73.624 94.6441 73.12C94.2241 72.616 93.7321 72.256 93.1681 72.04C92.6161 71.824 92.0221 71.716 91.3861 71.716C90.7621 71.716 90.1681 71.824 89.6041 72.04C89.0521 72.256 88.5661 72.616 88.1461 73.12C87.7261 73.624 87.3901 74.296 87.1381 75.136C86.8981 75.964 86.7781 76.99 86.7781 78.214Z" fill="white"/>
<ellipse cx="38.7019" cy="78.7722" rx="7.74038" ry="7.76627" fill="white" fill-opacity="0.5"/>
<path d="M57.0602 40.1976H59.5082C59.5082 39.8616 59.5382 39.5256 59.5982 39.1896C59.6702 38.8416 59.7842 38.5296 59.9402 38.2536C60.0962 37.9656 60.3002 37.7376 60.5522 37.5696C60.8162 37.3896 61.1342 37.2996 61.5062 37.2996C62.0582 37.2996 62.5082 37.4736 62.8562 37.8216C63.2162 38.1576 63.3962 38.6316 63.3962 39.2436C63.3962 39.6276 63.3062 39.9696 63.1262 40.2696C62.9582 40.5696 62.7422 40.8396 62.4782 41.0796C62.2262 41.3196 61.9442 41.5416 61.6322 41.7456C61.3202 41.9376 61.0262 42.1296 60.7502 42.3216C60.2102 42.6936 59.6942 43.0596 59.2022 43.4196C58.7222 43.7796 58.3022 44.1756 57.9422 44.6076C57.5822 45.0276 57.2942 45.5076 57.0782 46.0476C56.8742 46.5876 56.7722 47.2236 56.7722 47.9556H66.0242V45.7596H60.0662C60.3782 45.3276 60.7382 44.9496 61.1462 44.6256C61.5542 44.3016 61.9742 44.0016 62.4062 43.7256C62.8382 43.4376 63.2642 43.1496 63.6842 42.8616C64.1162 42.5736 64.5002 42.2556 64.8362 41.9076C65.1722 41.5476 65.4422 41.1396 65.6462 40.6836C65.8502 40.2276 65.9522 39.6816 65.9522 39.0456C65.9522 38.4336 65.8322 37.8816 65.5922 37.3896C65.3642 36.8976 65.0522 36.4836 64.6562 36.1476C64.2602 35.8116 63.7982 35.5536 63.2702 35.3736C62.7542 35.1936 62.2082 35.1036 61.6322 35.1036C60.8762 35.1036 60.2042 35.2356 59.6162 35.4996C59.0402 35.7516 58.5602 36.1116 58.1762 36.5796C57.7922 37.0356 57.5042 37.5756 57.3122 38.1996C57.1202 38.8116 57.0362 39.4776 57.0602 40.1976ZM69.3302 41.6016C69.3302 41.3856 69.3302 41.1276 69.3302 40.8276C69.3422 40.5156 69.3662 40.1976 69.4022 39.8736C69.4382 39.5496 69.4982 39.2316 69.5822 38.9196C69.6662 38.5956 69.7802 38.3076 69.9242 38.0556C70.0802 37.8036 70.2722 37.5996 70.5002 37.4436C70.7402 37.2876 71.0342 37.2096 71.3822 37.2096C71.7302 37.2096 72.0242 37.2876 72.2642 37.4436C72.5042 37.5996 72.7022 37.8036 72.8582 38.0556C73.0142 38.3076 73.1282 38.5956 73.2002 38.9196C73.2842 39.2316 73.3442 39.5496 73.3802 39.8736C73.4282 40.1976 73.4522 40.5156 73.4522 40.8276C73.4642 41.1276 73.4702 41.3856 73.4702 41.6016C73.4702 41.9616 73.4582 42.3996 73.4342 42.9156C73.4102 43.4196 73.3322 43.9116 73.2002 44.3916C73.0802 44.8596 72.8762 45.2616 72.5882 45.5976C72.3122 45.9336 71.9102 46.1016 71.3822 46.1016C70.8662 46.1016 70.4702 45.9336 70.1942 45.5976C69.9182 45.2616 69.7142 44.8596 69.5822 44.3916C69.4622 43.9116 69.3902 43.4196 69.3662 42.9156C69.3422 42.3996 69.3302 41.9616 69.3302 41.6016ZM66.7742 41.6016C66.7742 42.8616 66.8942 43.9176 67.1342 44.7696C67.3862 45.6096 67.7222 46.2816 68.1422 46.7856C68.5622 47.2896 69.0482 47.6496 69.6002 47.8656C70.1642 48.0816 70.7582 48.1896 71.3822 48.1896C72.0182 48.1896 72.6122 48.0816 73.1642 47.8656C73.7282 47.6496 74.2202 47.2896 74.6402 46.7856C75.0722 46.2816 75.4082 45.6096 75.6482 44.7696C75.9002 43.9176 76.0262 42.8616 76.0262 41.6016C76.0262 40.3776 75.9002 39.3516 75.6482 38.5236C75.4082 37.6836 75.0722 37.0116 74.6402 36.5076C74.2202 36.0036 73.7282 35.6436 73.1642 35.4276C72.6122 35.2116 72.0182 35.1036 71.3822 35.1036C70.7582 35.1036 70.1642 35.2116 69.6002 35.4276C69.0482 35.6436 68.5622 36.0036 68.1422 36.5076C67.7222 37.0116 67.3862 37.6836 67.1342 38.5236C66.8942 39.3516 66.7742 40.3776 66.7742 41.6016ZM83.4541 47.9556V35.3556H81.4201C81.3481 35.8356 81.1981 36.2376 80.9701 36.5616C80.7421 36.8856 80.4601 37.1496 80.1241 37.3536C79.8001 37.5456 79.4281 37.6836 79.0081 37.7676C78.6001 37.8396 78.1741 37.8696 77.7301 37.8576V39.7836H80.8981V47.9556H83.4541ZM91.2601 41.8896C90.9361 41.8896 90.6481 41.8236 90.3961 41.6916C90.1561 41.5476 89.9581 41.3676 89.8021 41.1516C89.6461 40.9236 89.5261 40.6716 89.4421 40.3956C89.3701 40.1076 89.3341 39.8136 89.3341 39.5136C89.3341 39.2256 89.3761 38.9436 89.4601 38.6676C89.5441 38.3916 89.6701 38.1456 89.8381 37.9296C90.0061 37.7136 90.2101 37.5396 90.4501 37.4076C90.6901 37.2756 90.9601 37.2096 91.2601 37.2096C91.5841 37.2096 91.8721 37.2756 92.1241 37.4076C92.3761 37.5396 92.5861 37.7196 92.7541 37.9476C92.9341 38.1636 93.0661 38.4156 93.1501 38.7036C93.2461 38.9796 93.2941 39.2616 93.2941 39.5496C93.2941 39.8616 93.2521 40.1616 93.1681 40.4496C93.0841 40.7256 92.9581 40.9716 92.7901 41.1876C92.6221 41.4036 92.4121 41.5776 92.1601 41.7096C91.9081 41.8296 91.6081 41.8896 91.2601 41.8896ZM89.4241 44.7156H86.9941C87.0661 45.2676 87.2161 45.7596 87.4441 46.1916C87.6721 46.6236 87.9661 46.9896 88.3261 47.2896C88.6861 47.5896 89.1001 47.8116 89.5681 47.9556C90.0361 48.1116 90.5401 48.1896 91.0801 48.1896C91.9801 48.1896 92.7421 47.9976 93.3661 47.6136C93.9901 47.2176 94.5001 46.7076 94.8961 46.0836C95.2921 45.4476 95.5801 44.7396 95.7601 43.9596C95.9401 43.1796 96.0301 42.3996 96.0301 41.6196C96.0301 40.8276 95.9581 40.0416 95.8141 39.2616C95.6701 38.4816 95.4121 37.7856 95.0401 37.1736C94.6681 36.5496 94.1701 36.0516 93.5461 35.6796C92.9341 35.2956 92.1481 35.1036 91.1881 35.1036C90.5281 35.1036 89.9281 35.2236 89.3881 35.4636C88.8481 35.7036 88.3801 36.0336 87.9841 36.4536C87.6001 36.8616 87.3001 37.3476 87.0841 37.9116C86.8801 38.4636 86.7781 39.0636 86.7781 39.7116C86.7781 40.2156 86.8561 40.7136 87.0121 41.2056C87.1681 41.6976 87.4141 42.1356 87.7501 42.5196C88.1101 42.9156 88.5481 43.2336 89.0641 43.4736C89.5801 43.7016 90.1081 43.8156 90.6481 43.8156C91.2601 43.8156 91.8001 43.7076 92.2681 43.4916C92.7361 43.2756 93.1441 42.9156 93.4921 42.4116L93.5281 42.4476C93.5041 42.7956 93.4501 43.1916 93.3661 43.6356C93.2941 44.0796 93.1681 44.4996 92.9881 44.8956C92.8081 45.2796 92.5681 45.6096 92.2681 45.8856C91.9681 46.1496 91.5841 46.2816 91.1161 46.2816C90.6721 46.2816 90.3001 46.1256 90.0001 45.8136C89.7001 45.5016 89.5081 45.1356 89.4241 44.7156Z" fill="white"/>
<ellipse cx="38.7019" cy="42.1598" rx="7.74038" ry="7.76627" fill="black" fill-opacity="0.25"/>
</svg>
