<svg width="88" height="88" viewBox="0 0 88 88" fill="none" xmlns="http://www.w3.org/2000/svg">
<g id="ScratchJr Command">
<g id="Horizontal/Block/Command">
<path id="Command" fill-rule="evenodd" clip-rule="evenodd" d="M15.8432 8.12255C16.3777 5.97903 18.5486 4.67461 20.6921 5.20905L75.0287 18.7567C77.1722 19.2911 78.4766 21.462 77.9422 23.6055L76.0068 31.3679L75.4399 33.6415C75.1833 34.6708 75.346 35.76 75.8924 36.6693L80.0127 43.5266C80.5591 44.436 80.7219 45.5251 80.4653 46.5545L77.3962 58.8639C77.1395 59.8933 76.4845 60.7785 75.5751 61.3249L68.7178 65.4452C67.8084 65.9916 67.1534 66.8768 66.8968 67.9062L66.3299 70.1797L64.3945 77.9421C63.8601 80.0856 61.6892 81.39 59.5457 80.8556L5.20909 67.308C3.06558 66.7735 1.76116 64.6026 2.2956 62.4591L4.23097 54.6967L4.79783 52.4232C5.05448 51.3938 5.70952 50.5086 6.61886 49.9622L13.4762 45.8419C14.3855 45.2955 15.0406 44.4103 15.2972 43.3809L18.3663 31.0715C18.623 30.0421 18.4602 28.953 17.9138 28.0436L13.7935 21.1863C13.2471 20.277 13.0843 19.1878 13.341 18.1585L13.9079 15.8849L15.8432 8.12255Z" fill="#FFBF00"/>
</g>
</g>
</svg>
