<svg width="200" height="55" viewBox="0 0 200 55" fill="none" xmlns="http://www.w3.org/2000/svg">
<g id="ScratchJr Logo">
<g id="Logo">
<g id="Group 3">
<mask id="mask0" style="mask-type:alpha" maskUnits="userSpaceOnUse" x="0" y="0" width="200" height="55">
<path id="Clip 2" fill-rule="evenodd" clip-rule="evenodd" d="M0 0.948364H199.067V54.6019H0V0.948364Z" fill="white"/>
</mask>
<g mask="url(#mask0)">
<path id="Fill 1" fill-rule="evenodd" clip-rule="evenodd" d="M172.24 0.947876C166.059 0.947876 160.371 3.04361 155.835 6.55546C154.438 5.16115 152.128 3.26541 149.801 3.15451C148.987 3.11565 147.61 3.09669 145.709 3.09669C142.506 3.09669 138.836 3.15072 138.8 3.15262L138.535 3.15641L138.283 3.23224C137.648 3.42276 134.731 4.35451 132.933 5.87205H125.984C124.194 5.87205 121.69 7.4493 117.696 10.3602C117.545 10.4711 117.389 10.5839 117.239 10.6929C117.026 10.4635 116.797 10.201 116.603 9.97631C115.316 8.50333 113.715 6.6711 111.765 6.18295L111.537 6.12607H86.8225C85.4643 4.87299 82.3894 2.32987 79.796 2.32987C79.5173 2.32987 79.1505 2.31186 78.7116 2.29006C77.9865 2.25688 77.0823 2.21328 76.05 2.21328C69.7761 2.21328 65.0538 3.96683 62.0112 7.4256C61.7951 7.59717 61.7126 7.59717 61.6017 7.59717C61.3107 7.59717 60.8169 7.49006 60.2453 7.36778C58.9685 7.09385 57.0406 6.67963 54.0557 6.67963L44.2406 6.73935L43.8074 6.98958C42.6254 7.66825 36.7145 11.1308 34.8093 13.5697C34.6917 13.5981 34.2605 13.6161 33.8709 13.5611C33.2699 9.64361 30.5752 4.0692 23.2936 4.0692C20.1183 4.0692 17.8605 5.26446 16.7306 6.04077C16.3733 5.99622 15.9325 5.96115 15.4244 5.96115C12.5846 5.96115 5.61496 7.16588 2.21212 18.3204L2.12871 18.5924V27.7318C1.36473 28.7574 0.122074 30.9242 0.0424527 34.2995C-0.0257938 37.1943 0.00359012 39.5365 0.0253911 41.2455C0.032974 41.9138 0.0424527 42.491 0.0424527 42.982C0.0424527 48.4711 6.04245 54.2749 11.7145 54.2749H11.9562L12.1903 54.2152C12.3704 54.1678 16.633 53.0484 19.4946 50.8446C20.1325 50.3517 20.8699 50.1014 21.6804 50.1014C22.4453 50.1014 23.0131 50.3223 23.0131 50.3223L23.9628 50.7327L24.8747 50.1261C26.9704 51.5308 31.6481 54.2749 36.2017 54.2749C40.3031 54.2749 43.3183 52.6284 45.1202 51.6436C45.541 51.4142 46.0567 51.1327 46.2898 51.0474C48.3107 51.0446 54.1695 50.9403 56.8026 49.9175C56.9742 50.0095 57.2216 50.1687 57.4188 50.2929C58.7524 51.1384 60.978 52.5507 65.2624 52.5678C65.3619 52.5735 65.5268 52.582 65.7496 52.582C67.5448 52.582 73.4226 52.0379 77.1704 45.4C79.032 46.1213 81.0311 46.2806 81.2927 46.2995L84.7913 46.3033C85.8093 47.9915 88.1315 50.9062 92.0225 50.9062H105.89L106.261 50.7393C107.229 50.3052 107.932 49.891 108.443 49.5128C109.795 50.528 111.961 52.0929 114.357 52.0929H122.543L122.835 51.9953C123.437 51.7943 124.759 51.3308 125.654 50.8493C125.918 50.8313 126.423 50.8123 127.351 50.8123C128.684 50.8123 130.271 50.8512 131.215 50.8796C132.334 52.0976 134.693 54.2749 137.229 54.2749C140.197 54.2749 143.34 54.1412 146.211 53.1621C146.792 52.964 147.58 52.9062 148.415 52.8436C150.673 52.6777 153.693 52.4465 156.264 49.328C160.728 52.6398 166.254 54.6019 172.24 54.6019C187.056 54.6019 199.067 42.5915 199.067 27.7754C199.067 12.9593 187.056 0.947876 172.24 0.947876Z" fill="#2BA4D9"/>
</g>
</g>
<path id="Fill 4" fill-rule="evenodd" clip-rule="evenodd" d="M172.216 4.36914C165.727 4.36914 159.856 7.01085 155.616 11.2762L151.973 8.19189L151.865 8.10658L151.782 8.22033C150.992 7.60895 150.199 7.15018 149.62 7.12175C148.866 7.08668 147.55 7.06867 145.708 7.06867C143.04 7.06867 140.04 7.10753 139.131 7.11985C137.799 7.55208 135.771 8.43644 135.156 9.16724L134.588 9.84497H125.984C124.917 9.97104 121.165 12.7056 119.932 13.6033C119.016 14.2715 118.562 14.6014 118.23 14.7824C117.904 14.9625 117.532 15.0563 117.158 15.0563C115.845 15.0563 114.962 14.0478 113.743 12.6488C113.008 11.808 111.813 10.4383 111.01 10.099H85.2724L84.7169 9.54165C83.1482 7.97767 80.7947 6.30184 79.7956 6.30184C79.4724 6.30184 79.044 6.28194 78.5321 6.25729C77.8468 6.22601 76.9918 6.1862 76.0497 6.1862C70.7861 6.1862 67.1027 7.49805 64.7842 10.1947L64.588 10.3928C63.6648 11.1947 62.7151 11.5691 61.6023 11.5691C60.9065 11.5691 60.2307 11.4232 59.4468 11.2544C58.2601 11.0004 56.6364 10.6526 54.0677 10.6526L45.2686 10.7066C42.7207 12.2023 38.77 14.7758 37.8004 16.08C37.3293 16.7454 36.3378 17.5777 34.4345 17.5777C32.9937 17.5777 31.6146 17.0933 31.461 17.0374L30.2411 16.5957L30.2098 15.299C30.1852 14.5644 29.7833 8.04213 23.2942 8.04213C20.2771 8.04213 18.5871 9.55303 18.5169 9.61748L17.7388 10.3284L16.7065 10.0582C16.7056 10.0582 16.2004 9.93407 15.4241 9.93407C12.9738 9.93407 8.50652 11.1635 5.92548 19.3388V29.3966L5.35107 29.9578C5.31316 29.9976 3.91126 31.4867 3.83733 34.5653C3.77098 37.3909 3.80036 39.6924 3.82122 41.3729C3.83164 42.0592 3.83733 42.6544 3.83733 43.1578C3.83733 46.5161 7.92264 50.4781 11.4781 50.6488C12.3274 50.4033 15.2686 49.4829 17.1767 48.0127C18.4771 47.0099 20.0335 46.481 21.6809 46.481C22.371 46.481 22.9805 46.5739 23.4582 46.6838L24.9909 45.6611L26.0696 46.4962C26.1226 46.536 31.5188 50.6554 36.2023 50.6554C39.335 50.6554 41.6269 49.4042 43.2999 48.4886C44.4278 47.8725 45.2421 47.4289 46.1662 47.4289C49.8819 47.4289 54.5188 47.0649 55.5018 46.5236L55.6961 46.4175L55.9084 46.3587C56.1918 46.28 56.48 46.2402 56.77 46.2402C57.8411 46.2402 58.6601 46.7606 59.4525 47.263C60.6354 48.0137 62.1075 48.9464 65.3378 48.9464L65.5217 48.9559C65.534 48.9559 65.6193 48.9616 65.7501 48.9616C67.0876 48.9616 71.6639 48.5085 74.3928 42.6857C74.7615 41.9009 75.5909 41.4336 76.6098 41.4336C76.9501 41.4336 77.4563 41.4895 77.9283 41.7521C79.025 42.3672 80.8184 42.626 81.498 42.6829H87.1947L87.6828 43.8469C87.6942 43.8725 89.1994 47.2857 92.0231 47.2857H105.056C105.595 47.0175 106.131 46.6952 106.36 46.5028C106.704 45.8194 107.398 45.3815 108.18 45.3815C109.033 45.3815 109.648 45.844 110.58 46.5454C111.537 47.2658 113.141 48.4725 114.357 48.4725H121.92C122.801 48.1644 123.7 47.7947 123.935 47.6355L124.253 47.4232L124.671 47.3208C124.999 47.2563 125.574 47.1919 127.35 47.1919C129.454 47.1919 132.063 47.2838 132.173 47.2867L133.041 47.318L133.585 47.9957C134.486 49.1085 136.256 50.6554 137.23 50.6554C139.008 50.6554 142.314 50.6554 144.985 49.7445C146.029 49.389 147.1 49.3113 148.136 49.2336C150.182 49.0838 151.834 48.9559 153.386 47.0317C153.383 47.0289 153.381 47.026 153.379 47.0232L153.595 46.7748L155.457 44.1075C159.709 48.4687 165.644 51.1815 172.216 51.1815C174.452 51.1815 176.613 50.8677 178.66 50.2819C186.638 48.0023 192.874 41.5947 194.91 33.5161C195.376 31.6791 195.621 29.7559 195.621 27.7748C195.621 14.8488 185.143 4.36914 172.216 4.36914Z" fill="#FEFEFE"/>
<path id="Fill 6" fill-rule="evenodd" clip-rule="evenodd" d="M169.502 19.1494L169.509 19.1058L169.482 19.0044C169.16 17.8082 168.898 17.485 167.668 17.485H164.068C163.569 17.485 163.007 17.539 162.62 17.9409C162.348 18.2243 162.219 18.6291 162.239 19.1466C162.267 19.8878 162.609 20.7712 164.068 20.7712H166.711C166.998 22.7295 167.322 26.358 167.4 29.7542C167.459 32.2622 166.982 35.4954 165.469 37.0433C164.872 37.6547 164.177 37.9513 163.346 37.9513C161.975 37.9513 161.671 37.0111 161.548 35.994C161.538 35.902 161.528 35.8272 161.518 35.7741C161.288 34.5874 160.685 34.0111 159.777 34.0746C159.292 34.1039 158.885 34.2954 158.601 34.6291C158.282 35.0044 158.146 35.5295 158.209 36.1475L158.223 36.3049C158.32 37.4395 158.616 40.8935 163.302 40.8935C164.967 40.8935 166.417 40.2708 167.613 39.0404C169.828 36.7637 170.533 33.0603 170.465 30.5817C170.35 26.3864 169.953 20.9722 169.502 19.1494Z" fill="#F9A738"/>
<path id="Fill 8" fill-rule="evenodd" clip-rule="evenodd" d="M164.736 16.9227C164.942 16.9673 165.157 16.99 165.379 16.99C165.836 16.99 166.315 16.8943 166.777 16.7057C167.461 16.427 168.034 15.9749 168.388 15.4336C168.779 14.8365 168.867 14.2005 168.639 13.6412C168.187 12.5341 166.661 12.1436 165.164 12.754C164.48 13.0327 163.91 13.4858 163.555 14.027C163.17 14.6156 163.079 15.2687 163.304 15.8185C163.529 16.3692 164.05 16.772 164.736 16.9227Z" fill="#F9A738"/>
<path id="Fill 10" fill-rule="evenodd" clip-rule="evenodd" d="M188.591 21.9103C188.519 21.5624 187.946 19.4998 184.542 19.4998C182.633 19.4998 181.297 20.1169 180.514 20.6041C180.267 19.9245 179.606 19.4572 178.834 19.5027L174.476 19.7738C173.556 19.8316 172.853 20.6278 172.908 21.551C172.967 22.4724 173.751 23.1671 174.684 23.1197L177.219 22.9615L177.437 32.7036L176.565 32.7302C176.122 32.7453 175.711 32.9311 175.408 33.2543C175.104 33.5776 174.946 33.9994 174.959 34.4401C174.972 34.8847 175.157 35.2961 175.48 35.5994C175.79 35.8913 176.191 36.0496 176.612 36.0496C176.632 36.0496 176.65 36.0487 176.67 36.0487L182.551 35.8657C182.995 35.8515 183.406 35.6657 183.711 35.3416C184.014 35.0183 184.173 34.5956 184.159 34.1529C184.131 33.2382 183.358 32.5434 182.448 32.5463L181.146 32.587L180.802 25.1908C181.408 23.4705 183.239 22.6534 184.364 22.6231C184.906 22.57 185.15 22.9359 185.484 23.5169C185.811 24.0894 186.299 24.9548 187.521 24.606C187.972 24.4771 188.318 24.2051 188.521 23.8183C188.916 23.0657 188.658 22.1235 188.591 21.9103Z" fill="#F9A738"/>
<path id="Fill 12" fill-rule="evenodd" clip-rule="evenodd" d="M17.9928 27.1734C17.8298 27.1393 17.7094 27.1147 17.6421 27.0957C15.7615 26.581 15.3994 25.8512 15.2942 25.2749C15.2212 24.8625 15.3122 21.0474 15.408 20.527C15.4591 20.2512 15.6781 19.3223 16.3407 18.9943C16.807 18.763 17.4449 18.8483 18.2402 19.2512C20.68 20.4853 20.7103 23.0303 20.7246 24.2531C20.7264 24.4009 20.7283 24.5308 20.7331 24.6379C20.7956 26.0426 21.6601 26.8474 23.1046 26.8474C24.4573 26.8474 24.9151 25.8218 24.97 25.2559L25.4791 14.3223L25.4715 14.272C25.3814 13.7469 24.8118 12.7535 23.2942 12.7535C21.7482 12.7535 21.2535 13.7725 21.207 14.3516V16.0521C20.408 15.3223 18.9729 14.5573 16.4601 14.5573C14.3302 14.5573 11.7151 15.5317 11.3492 20.1725L11.3378 20.3052C11.244 21.3867 11.2089 25.5336 11.3767 27.1469C11.6724 29.9886 14.317 30.637 15.4459 30.9137C17.0108 31.2995 18.7558 31.7753 19.9359 32.0976L20.99 32.3839C21.8667 32.6142 22.7729 32.8521 22.7729 34.7242C22.7729 36.9877 21.1549 38.2853 18.335 38.2853C15.1843 38.2853 13.8506 36.0426 13.8506 35.1516L13.8516 34.9374C13.8582 33.5734 13.8734 30.7346 11.9862 30.5971C11.3577 30.5535 10.8317 30.7166 10.4336 31.0872C9.74541 31.7261 9.7236 32.7156 9.72266 32.8275V43.5981C9.72266 44.5943 10.8563 45.2104 11.9056 45.2104C12.9682 45.2104 13.7084 44.4531 13.7084 43.7744C13.7084 43.5204 13.6942 42.0123 13.6847 41.036C14.9236 41.655 17.1919 42.4597 18.8336 42.4597C22.5767 42.4597 26.9473 40.3346 26.9473 34.345C26.9473 30.8455 23.935 28.4322 17.9928 27.1734Z" fill="#F9A738"/>
<path id="Fill 14" fill-rule="evenodd" clip-rule="evenodd" d="M42.9401 33.0161C41.5391 33.0161 41.1694 34.3403 41.1694 35.0417V38.0124C41.1675 38.1507 41.0851 41.401 36.613 41.401C34.6775 41.401 33.3514 40.8256 32.6718 39.692C32.1192 38.7678 32.1192 37.7081 32.1202 37.1612L32.1183 29.0228C32.1287 28.9034 32.3988 26.1185 35.2206 26.1185C37.9401 26.1185 38.8879 27.7204 39.5808 28.891L39.8424 29.3299C40.0623 29.7157 40.5211 30.5166 41.7059 30.5166C42.6149 30.5166 43.6993 30.127 43.6993 28.2711L43.6946 21.6266C43.6102 21.0029 43.0851 19.8237 41.7059 19.8237C40.3239 19.8237 39.8007 21.0901 39.7145 21.818V23.455C38.8936 22.7242 37.4235 21.9128 34.9363 21.9128C30.3069 21.9128 28.1979 25.4057 28.1979 28.6512V37.983C28.1979 40.4834 29.8576 45.2105 36.1382 45.2105C42.7893 45.2105 45.0273 40.6171 45.0273 38.5214V35.1356C45.0273 33.7887 44.2661 33.0161 42.9401 33.0161Z" fill="#F9A738"/>
<path id="Fill 16" fill-rule="evenodd" clip-rule="evenodd" d="M60.3081 21.2955C60.3081 23.9202 55.3763 25.178 52.9043 25.5372V19.6187C54.7868 19.4832 58.7242 19.4491 59.9659 20.5751C60.1991 20.7875 60.3081 21.0159 60.3081 21.2955ZM68.0427 36.3363L67.9233 36.3344C67.5271 36.3306 66.8569 36.3116 66.3887 36.7685C66.1015 37.05 65.9555 37.4481 65.9555 37.9514C65.9555 38.5306 65.8389 38.9268 65.6105 39.1278C65.4124 39.3031 65.0816 39.3619 64.6427 39.3088C63.0474 39.0936 63.0541 34.378 63.0598 31.2576V30.6908C63.0598 29.1552 62.5669 27.9657 61.5507 27.1211C61.8891 26.9382 62.2427 26.6595 62.5925 26.2936C63.6683 25.1676 64.7811 23.1192 64.673 20.7514C64.4797 16.578 59.5839 15.6529 57.0332 15.7448H46.9185C46.1659 15.7581 44.7432 16.1884 44.7432 17.7211C44.7432 19.2349 46.1375 19.7259 46.9062 19.7751H48.6825V25.9695C47.4152 26.1003 46.8787 26.7486 46.6635 27.1514C46.31 27.8159 46.3697 28.6718 46.8143 29.3325C47.2503 29.9789 47.9631 30.3192 48.6797 30.2405C48.7526 30.2405 48.8161 30.2396 48.8872 30.2377V37.9334L46.7432 38.1732C45.6105 38.2974 45.1574 39.068 45.3166 40.5941C45.3934 41.3353 45.7365 41.7268 46.0105 41.9249C46.6408 42.3808 47.4152 42.2301 47.4398 42.2197C47.7432 42.195 54.873 41.6026 56.1005 41.2794C57.0038 41.0415 57.2948 39.9315 57.1157 38.9581C56.9081 37.8254 56.1735 37.1315 55.2863 37.2235L52.9043 37.4851V29.6595L53.1507 29.6121C54.7943 29.2974 56.4958 28.9695 57.5081 29.0083C58.1707 29.0311 58.3972 29.3562 58.5327 29.6718C59.182 31.1732 59.2275 34.724 59.2522 36.6311L59.2645 37.4396C59.2977 38.9296 59.8019 43.7875 64.91 43.7875C69.7877 43.7875 70.0351 39.2026 70.0351 38.2832C70.0351 36.8548 68.8436 36.3363 68.0427 36.3363Z" fill="#F9A738"/>
<path id="Fill 18" fill-rule="evenodd" clip-rule="evenodd" d="M126.142 33.7122C126.142 32.3653 125.381 31.5937 124.055 31.5937C122.654 31.5937 122.284 32.9179 122.284 33.6174V36.588C122.282 36.7273 122.2 39.9766 117.726 39.9766C115.791 39.9766 114.465 39.4022 113.787 38.2686C113.233 37.3453 113.234 36.2847 113.235 35.7378L113.233 27.6003C113.244 27.4809 113.514 24.6942 116.335 24.6942C119.055 24.6942 120.003 26.2989 120.696 27.4695L120.956 27.9065C121.176 28.2913 121.634 29.0932 122.821 29.0932C123.73 29.0932 124.813 28.7036 124.813 26.8477L124.808 20.2032C124.723 19.5795 124.198 18.4022 122.821 18.4022C121.439 18.4022 120.916 19.6667 120.829 20.3937V22.0307C120.008 21.2989 118.538 20.4885 116.051 20.4885C111.422 20.4885 109.313 23.9814 109.313 27.2269V36.5596C109.313 39.06 110.972 43.7871 117.252 43.7871C123.903 43.7871 126.142 39.1927 126.142 37.097V33.7122Z" fill="#F9A738"/>
<path id="Fill 20" fill-rule="evenodd" clip-rule="evenodd" d="M80.4016 26.5801L76.6651 26.9033L78.0063 21.4635L80.4016 26.5801ZM92.1637 30.9004C91.5703 29.6274 90.6348 29.2502 90.013 29.5393L87.2651 30.8208L79.4366 13.3289C79.4148 11.853 78.7561 11.1801 78.1428 11.1801C77.757 11.1819 69.6603 11.2075 69.5817 11.2151C69.5257 11.2246 68.2016 11.4729 68.2092 13.4274C68.2139 15.3289 69.2016 15.6019 69.3144 15.6265L69.3656 15.6379L74.539 15.6208L71.394 31.9573L66.3618 31.962C65.8442 32.0369 64.8641 32.5791 64.8641 34.0995C64.8641 35.9801 66.0054 36.2246 66.1447 36.2426H75.9684C76.5656 36.2426 77.2016 35.491 77.2016 34.0995C77.2016 32.6929 76.5096 31.9573 75.8253 31.9573H75.4177L75.6869 30.8673L81.903 29.7905L83.2603 32.6891L81.4366 33.544C80.9987 33.8303 80.3409 34.7365 80.9836 36.1137C81.5627 37.3554 82.322 37.5535 82.7438 37.5535C82.9011 37.5535 83.0111 37.526 83.048 37.5147L91.9542 33.362C92.4935 33.109 92.7504 32.1601 92.1637 30.9004Z" fill="#F9A738"/>
<path id="Fill 22" fill-rule="evenodd" clip-rule="evenodd" d="M109.88 22.7136L109.891 22.379C109.918 21.5743 109.991 19.435 109.991 17.2615C109.991 16.253 109.731 15.5061 109.217 15.0407C108.681 14.5572 108.072 14.5648 107.929 14.5743L88.0909 14.9497C87.3278 14.9639 86.9022 15.2994 86.6804 15.579C86.0785 16.3354 86.2899 17.4473 86.3098 17.5383C86.3477 17.8132 87.2245 24.2852 87.4321 25.198C87.7089 26.4084 88.4947 26.8606 90.0615 26.7023C90.7771 26.6312 91.1411 26.3013 91.3202 26.0378C91.7269 25.4378 91.5373 24.7118 91.5297 24.7118L90.9638 19.0473L96.1838 18.8738V38.0473H93.6596C92.4956 38.0473 91.5487 38.9942 91.5487 40.1572C91.5487 41.3222 92.4956 42.2691 93.6596 42.2691H102.849C104.014 42.2691 104.962 41.3222 104.962 40.1572C104.962 38.9942 104.014 38.0473 102.849 38.0473H100.723L100.521 18.7288L105.628 18.5591C105.633 19.5838 105.643 21.9174 105.643 22.5051C105.643 22.871 105.781 23.2018 106.041 23.4606C106.421 23.8378 107.058 24.053 107.792 24.053H107.814C109.033 24.0445 109.866 23.3535 109.88 22.7136Z" fill="#F9A738"/>
<path id="Fill 24" fill-rule="evenodd" clip-rule="evenodd" d="M148.913 40.4927C148.536 40.2036 148.077 40.0794 147.625 40.1363L146.274 40.3126L145.981 16.0264H147.94C148.933 16.0264 149.741 15.1335 149.741 14.0349C149.741 12.9363 148.933 12.0425 147.94 12.0425H139.84C138.846 12.0425 138.036 12.9363 138.036 14.0349C138.036 15.1335 138.846 16.0264 139.84 16.0264H141.883L141.908 25.6804L133.659 27.2927L133.752 18.6851H135.917C136.911 18.6851 137.719 17.8766 137.719 16.8823C137.719 15.888 136.911 15.0785 135.917 15.0785H127.818C126.824 15.0785 126.017 15.888 126.017 16.8823C126.017 17.8766 126.824 18.6851 127.818 18.6851H129.733V38.3979L127.575 38.4235C126.571 38.4368 125.763 39.3392 125.776 40.4377C125.782 40.9951 126.003 41.5297 126.384 41.9003C126.721 42.2292 127.152 42.4084 127.603 42.4084H127.624L135.855 42.3098C136.861 42.2965 137.67 41.3941 137.657 40.2956C137.642 39.2055 136.824 38.3259 135.829 38.3259H135.808L133.542 38.3534L133.614 31.5913L141.921 29.9885L141.949 40.8776L139.461 41.2027C138.465 41.3325 137.768 42.3249 137.909 43.4159C138.043 44.4245 138.85 45.1685 139.761 45.1685C139.832 45.1685 139.905 45.1638 139.977 45.1543L148.142 44.088C149.138 43.9562 149.834 42.9638 149.691 41.8747C149.619 41.3212 149.335 40.8178 148.913 40.4927Z" fill="#F9A738"/>
<path id="Fill 26" fill-rule="evenodd" clip-rule="evenodd" d="M183.166 39.5661L178.855 39.8656C178.65 39.8656 178.409 39.8656 178.142 39.8637C176.807 39.8514 174.771 39.7452 172.78 38.9424C172.582 38.8627 171.897 39.0277 171.753 39.1935C166.691 44.9774 161.939 44.4381 161.939 44.4381C159.217 44.4381 153.903 41.1784 153.997 36.149C154.093 31.1187 157.067 30.3594 159.597 30.2646C161.18 30.2059 162.044 30.7888 162.47 31.2343C162.726 31.5016 162.963 31.7632 163.022 31.0684C163.067 30.567 163.069 29.6798 162.95 28.1139C162.666 24.3803 161.686 23.495 161.686 23.495C160.641 22.8618 157.446 22.5452 158.079 16.4078C158.788 9.53288 164.722 8.81629 164.722 8.81629C171.56 8.26747 172.24 13.3831 172.24 15.1907C172.24 15.7746 172.836 15.785 172.836 15.785L185.238 15.3329C187.61 15.3329 191.74 17.9585 191.74 22.4191C191.74 27.7348 186.713 28.1338 184.528 28.0599C183.865 28.0381 183.914 28.1499 184.29 28.4229C185.203 29.0893 186.666 30.5082 187.184 32.6324C187.304 33.1234 187.373 33.6533 187.373 34.2191C187.373 38.2381 183.166 39.5661 183.166 39.5661ZM172.216 4.3689C159.29 4.3689 148.811 14.8485 148.811 27.7755C148.811 40.7025 159.29 51.1812 172.216 51.1812C174.452 51.1812 176.613 50.8675 178.66 50.2826C186.638 48.0021 192.874 41.5954 194.911 33.5158C195.376 31.6798 195.622 29.7556 195.622 27.7755C195.622 14.8485 185.143 4.3689 172.216 4.3689Z" fill="#F9A738"/>
<path id="Fill 28" fill-rule="evenodd" clip-rule="evenodd" d="M183.166 39.5661L178.855 39.8656C178.65 39.8656 178.409 39.8656 178.142 39.8637C176.807 39.8514 174.771 39.7452 172.78 38.9424C172.582 38.8627 171.897 39.0277 171.753 39.1935C166.691 44.9774 161.939 44.4381 161.939 44.4381C159.217 44.4381 153.903 41.1784 153.997 36.149C154.093 31.1187 157.067 30.3594 159.597 30.2646C161.18 30.2059 162.044 30.7888 162.47 31.2343C162.726 31.5016 162.963 31.7632 163.022 31.0684C163.067 30.567 163.069 29.6798 162.95 28.1139C162.666 24.3803 161.686 23.495 161.686 23.495C160.641 22.8618 157.446 22.5452 158.079 16.4078C158.788 9.53288 164.722 8.81629 164.722 8.81629C171.56 8.26747 172.24 13.3831 172.24 15.1907C172.24 15.7746 172.836 15.785 172.836 15.785L185.238 15.3329C187.61 15.3329 191.74 17.9585 191.74 22.4191C191.74 27.7348 186.713 28.1338 184.528 28.0599C183.865 28.0381 183.914 28.1499 184.29 28.4229C185.203 29.0893 186.666 30.5082 187.184 32.6324C187.304 33.1234 187.373 33.6533 187.373 34.2191C187.373 38.2381 183.166 39.5661 183.166 39.5661ZM172.216 4.3689C159.29 4.3689 148.811 14.8485 148.811 27.7755C148.811 40.7025 159.29 51.1812 172.216 51.1812C174.452 51.1812 176.613 50.8675 178.66 50.2826C186.638 48.0021 192.874 41.5954 194.911 33.5158C195.376 31.6798 195.622 29.7556 195.622 27.7755C195.622 14.8485 185.143 4.3689 172.216 4.3689Z" fill="#F9A738"/>
</g>
</g>
</svg>
