<svg width="144" height="120" viewBox="0 0 144 120" fill="none" xmlns="http://www.w3.org/2000/svg">
<g id="ScratchJr Loop">
<g id="Horizontal/Block/Forever Loop">
<path id="Forever Loop" fill-rule="evenodd" clip-rule="evenodd" d="M6.14117 38.3063C4.0073 38.8781 2.74097 41.0715 3.31274 43.2053L8.48912 62.5238L9.09557 64.7871C9.37015 65.8119 10.0405 66.6855 10.9593 67.216L17.8875 71.216C18.8062 71.7464 19.4766 72.6201 19.7512 73.6448L23.0346 85.8988C23.3092 86.9235 23.1655 88.0153 22.635 88.9341L18.635 95.8623C18.1046 96.781 17.9609 97.8728 18.2354 98.8976L18.8419 101.161L20.9124 108.888C21.4842 111.022 23.6776 112.288 25.8114 111.717L41.2662 107.576C43.4001 107.004 44.6664 104.81 44.0947 102.677L42.0241 94.9492L41.4177 92.6859C41.1431 91.6612 41.2868 90.5694 41.8173 89.6506L45.8173 82.7224C46.3477 81.8037 46.4914 80.7119 46.2169 79.6871L42.9334 67.4331C42.6588 66.4084 41.9884 65.5347 41.0697 65.0043L34.1415 61.0043C33.2228 60.4739 32.5524 59.6002 32.2778 58.5755L31.6713 56.3122L29.6008 48.5848C29.029 46.4509 30.2954 44.2576 32.4292 43.6858L36.2929 42.6505L44.0203 40.58L45.9522 40.0623L55.6114 37.4741L59.4751 36.4389C61.609 35.8671 63.8024 37.1334 64.3741 39.2673L66.4447 46.9947L67.0511 49.258C67.3257 50.2827 67.9961 51.1564 68.9148 51.6868L75.843 55.6868C76.7618 56.2173 77.4322 57.0909 77.7067 58.1156L80.9902 70.3697C81.2648 71.3944 81.121 72.4862 80.5906 73.4049L76.5906 80.3331C76.0601 81.2519 75.9164 82.3437 76.191 83.3684L76.7974 85.6317L78.868 93.3591C79.4398 95.493 81.6331 96.7593 83.767 96.1876L137.859 81.6937C139.993 81.1219 141.259 78.9286 140.687 76.7947L123.088 11.1118C122.516 8.97789 120.322 7.71156 118.189 8.28333L52.5056 25.883L42.8463 28.4712L40.9145 28.9889L33.1871 31.0594L6.14117 38.3063Z" fill="#FFAB19"/>
</g>
</g>
</svg>
