<svg width="216" height="216" viewBox="0 0 216 216" fill="none" xmlns="http://www.w3.org/2000/svg">
<g id="Vertical Loop Block">
<g id="Vertical/Block/Loop">
<path id="Loop C-Block" fill-rule="evenodd" clip-rule="evenodd" d="M51.1365 60.8851C50.175 61.3334 49.431 62.1453 49.0682 63.1422L46.332 70.6598C45.9692 71.6567 45.2252 72.4686 44.2637 72.9169L32.766 78.2784C31.8046 78.7267 30.7044 78.7748 29.7075 78.4119L22.1899 75.6758C21.193 75.3129 20.0929 75.361 19.1314 75.8093L17.0078 76.7996L9.75731 80.1805C7.75515 81.1141 6.88893 83.494 7.82255 85.4962L33.1796 139.875L36.5606 147.125L39.9415 154.376L58.5367 194.253C59.4704 196.255 61.8503 197.122 63.8525 196.188L71.1029 192.807L73.2265 191.817C74.188 191.368 75.2882 191.32 76.2851 191.683L83.8026 194.419C84.7995 194.782 85.8997 194.734 86.8612 194.286L98.3589 188.924C99.3203 188.476 100.064 187.664 100.427 186.667L103.163 179.15C103.526 178.153 104.27 177.341 105.232 176.892L107.355 175.902L208.862 128.569C210.864 127.635 211.73 125.255 210.796 123.253L200.654 101.502C199.72 99.4997 197.34 98.6335 195.338 99.5671L108.332 140.138L106.209 141.129C105.247 141.577 104.503 142.389 104.14 143.386L101.404 150.903C101.041 151.9 100.297 152.712 99.336 153.161L87.8383 158.522C86.8768 158.97 85.7766 159.018 84.7798 158.656L77.2622 155.919C76.2653 155.557 75.1651 155.605 74.2037 156.053L72.0801 157.043L64.8296 160.424C62.8274 161.358 60.4475 160.492 59.5139 158.489L54.4425 147.614L51.0615 140.363L47.6806 133.113L42.6092 122.237C41.6755 120.235 42.5418 117.855 44.5439 116.921L51.7944 113.54L53.918 112.55C54.8795 112.102 55.9796 112.054 56.9765 112.417L64.4941 115.153C65.491 115.516 66.5912 115.468 67.5526 115.019L79.0503 109.658C80.0118 109.209 80.7558 108.398 81.1186 107.401L83.8548 99.8831C84.2176 98.8862 84.9616 98.0743 85.9231 97.626L88.0467 96.6357L175.052 56.0644C177.054 55.1307 177.921 52.7508 176.987 50.7486L160.082 14.4963C159.149 12.4942 156.769 11.628 154.767 12.5616L53.2601 59.8948L51.1365 60.8851Z" fill="#FFAB19"/>
</g>
</g>
</svg>
