<?xml version="1.0" encoding="UTF-8" standalone="no"?>
<svg width="16px" height="16px" viewBox="0 0 16 16" version="1.1" xmlns="http://www.w3.org/2000/svg" xmlns:xlink="http://www.w3.org/1999/xlink">
    <!-- Generator: Sketch 43.2 (39069) - http://www.bohemiancoding.com/sketch -->
    <title>fav it</title>
    <desc>Created with Sketch.</desc>
    <defs></defs>
    <g id="Page-1" stroke="none" stroke-width="1" fill="none" fill-rule="evenodd">
        <g id="fav-it" fill="#FFBF00">
            <path d="M7.79682903,12.7180764 L4.14747875,14.6359379 C3.8273196,14.8052975 3.45225394,14.5330849 3.51334711,14.1758058 L4.21011859,10.11195 C4.23486519,9.97043037 4.18769198,9.82581742 4.08483892,9.72528435 L1.13226012,6.84771868 C0.873194139,6.59483936 1.01626042,6.15481386 1.3743128,6.10222733 L5.45440861,5.50985558 C5.59670156,5.48897563 5.71966123,5.40004254 5.7830744,5.27089621 L7.6081362,1.57359939 C7.76821578,1.24880026 8.23144121,1.24880026 8.39229411,1.57359939 L10.2165826,5.27089621 C10.2799958,5.40004254 10.4029554,5.48897563 10.5452484,5.50985558 L14.6253442,6.10222733 C14.9833966,6.15481386 15.1272362,6.59483936 14.8673969,6.84771868 L11.9155914,9.72528435 C11.811965,9.82581742 11.7655651,9.97043037 11.7895384,10.11195 L12.4863099,14.1758058 C12.5481764,14.5330849 12.1731107,14.8052975 11.8529516,14.6359379 L8.20360128,12.7180764 C8.07600162,12.6507966 7.92442869,12.6507966 7.79682903,12.7180764 Z" id="fav-icon"></path>
        </g>
    </g>
</svg>