<?xml version="1.0" encoding="UTF-8" standalone="no"?>
<svg width="16px" height="16px" viewBox="0 0 16 16" version="1.1" xmlns="http://www.w3.org/2000/svg" xmlns:xlink="http://www.w3.org/1999/xlink">
    <!-- Generator: Sketch 43.2 (39069) - http://www.bohemiancoding.com/sketch -->
    <title>forum activitiy</title>
    <desc>Created with Sketch.</desc>
    <defs></defs>
    <g id="Page-1" stroke="none" stroke-width="1" fill="none" fill-rule="evenodd">
        <g id="forum-activitiy" stroke="#CF63CF" stroke-width="0.5" fill="#CF63CF">
            <path d="M2,9.99895656 C2,9.44724809 2.45576096,9 3.00247329,9 L12.9975267,9 C13.5511774,9 14,9.44266033 14,9.99895656 L14,11.0010434 C14,11.5527519 13.5488094,12 12.9909224,12 L6.03259277,12 L4.71090232,13.3004971 C4.31828181,13.6868219 4,13.5561352 4,13 L4,12 L3,12 C2.44771525,12 2,11.5573397 2,11.0010434 L2,9.99895656 Z" id="Rectangle-2"></path>
            <path d="M2,3.99895656 C2,3.44724809 2.45576096,3 3.00247329,3 L12.9975267,3 C13.5511774,3 14,3.44266033 14,3.99895656 L14,5.00104344 C14,5.55275191 13.5488094,6 12.9909224,6 L6.03259277,6 L4.71090232,7.30049706 C4.31828181,7.68682186 4,7.55613518 4,7 L4,6 L3,6 C2.44771525,6 2,5.55733967 2,5.00104344 L2,3.99895656 Z" id="Rectangle-2-Copy" transform="translate(8.000000, 5.500000) scale(-1, 1) translate(-8.000000, -5.500000) "></path>
        </g>
    </g>
</svg>