<?xml version="1.0" encoding="UTF-8" standalone="no"?>
<svg width="16px" height="16px" viewBox="0 0 16 16" version="1.1" xmlns="http://www.w3.org/2000/svg" xmlns:xlink="http://www.w3.org/1999/xlink">
    <!-- Generator: Sketch 43.2 (39069) - http://www.bohemiancoding.com/sketch -->
    <title>studio invite - owner</title>
    <desc>Created with Sketch.</desc>
    <defs></defs>
    <g id="Page-1" stroke="none" stroke-width="1" fill="none" fill-rule="evenodd" stroke-linecap="round" stroke-linejoin="round">
        <g id="studio-invite---owner" stroke="#0FBD8C" stroke-width="0.5" fill="#0FBD8C">
            <path d="M4.83636674,8.10022876 C4.60398954,8.01221072 4.39132944,7.88405323 4.20824555,7.72350275 C3.75196156,7.34044951 3.46467163,6.76023653 3.46467163,6.11805905 C3.46467163,4.94636681 4.41103844,4 5.58273068,4 C6.74878979,4 7.6951566,4.94636681 7.6951566,6.11805905 C7.6951566,6.76586966 7.41349981,7.34044951 6.95158268,7.72350275 C7.53175256,7.99953799 8.03309339,8.43891827 8.41050851,8.9909583 C8.83862683,9.6218695 9.10901735,10.4048754 9.1484493,11.2554789 C9.15971557,11.3343428 9.15971557,11.4132067 9.15971557,11.4920706 C9.15971557,13.750958 2,13.750958 2,11.4920706 C2,9.79649671 2.90693486,8.34314768 4.20818922,7.72350275 C4.39127272,7.88405289 4.60393231,8.01221018 4.83630894,8.1002282 Z M5.58270252,8.2361181 C6.1009404,8.23611116 6.58537915,8.04458567 6.95152635,7.72350275 Z M12.5226549,7.28320489 C12.2919938,7.4679446 11.995437,7.57647164 11.6791481,7.57647164 C11.3355268,7.57647164 11.0200712,7.45254266 10.7834795,7.24411663 C10.3102961,7.46944206 9.91597656,7.86376157 9.66248545,8.36511065 C10.0906038,8.99602186 10.3609943,9.77902773 10.4004262,10.6296312 C11.7692782,11.0126845 14,10.702862 14,9.68889756 C14,8.58480295 13.4085207,7.64406927 12.5691835,7.24411663 C12.5539941,7.25749781 12.5384796,7.27053071 12.5226549,7.28320489 C12.538475,7.27040386 12.5540493,7.25732304 12.5692962,7.24389131 C12.8622192,6.9904002 13.0481127,6.61861324 13.0481127,6.20176119 C13.0481127,5.44128786 12.4341009,4.82727606 11.6792607,4.82727606 C10.9187874,4.82727606 10.3047756,5.44128786 10.3047756,6.20176119 C10.3047756,6.61861324 10.4906691,6.9904002 10.7835921,7.24389131 C11.0201838,7.45231733 11.3356394,7.57624632 11.6792607,7.57624632 C11.9954677,7.57624632 12.2919527,7.46777553 12.5225882,7.28312321 Z" id="studio-icon"></path>
        </g>
    </g>
</svg>