<?xml version="1.0" encoding="UTF-8" standalone="no"?>
<svg width="16px" height="16px" viewBox="0 0 16 16" version="1.1" xmlns="http://www.w3.org/2000/svg" xmlns:xlink="http://www.w3.org/1999/xlink">
    <!-- Generator: Sketch 43.2 (39069) - http://www.bohemiancoding.com/sketch -->
    <title>remix</title>
    <desc>Created with Sketch.</desc>
    <defs></defs>
    <g id="Page-1" stroke="none" stroke-width="1" fill="none" fill-rule="evenodd" stroke-linecap="round" stroke-linejoin="round">
        <g id="remix" stroke="#9966FF" stroke-width="1.7">
            <path d="M7.62751256,2.12174044 C7.62751256,2.12174044 7.47299968,2.15558612 7.18236832,2.21886282 C6.89541583,2.28655418 6.47381641,2.40501405 5.97863943,2.63825492 C4.99049279,3.07236252 3.67051136,4.04579364 2.88691035,5.66891462 C2.08932959,7.2589257 2.0076585,9.52069991 3.09292751,11.3255575 C4.12448491,13.1443948 6.2810432,14.2988267 8.32355628,14.0994315 C10.3800491,13.950069 12.0841054,12.5189855 12.6705185,10.8921856 C13.3054929,9.25949957 12.9008163,7.58045964 12.1613618,6.5805406 C11.4138138,5.54677587 10.4477404,5.08323724 9.79290016,4.92357394 C9.79290016,4.92357394 8.30589766,4.44605557 6.93661927,5.13842042 C6.36345007,5.41654359 5.61516628,6.0404813 5.21269703,6.99478226 C4.80287002,7.92112375 4.84480923,9.21535303 5.49670641,10.1453734 C6.12579455,11.1018817 7.30818594,11.6073595 8.32355628,11.4219441 C9.35290635,11.2586019 10.08206,10.4757366 10.2674754,9.71200156 C10.4690779,8.95488847 10.1865401,8.24339346 9.83483937,7.90640823 C9.46989467,7.54072776 9.07551894,7.42741832 8.83492032,7.42447521 C8.5913786,7.41417436 8.46629674,7.45758512 8.46629674,7.44875581 C8.46629674,7.44875581 7.26477518,7.79677767 7.63413454,8.7790381" id="remix-icon" transform="translate(7.634254, 8.121740) scale(-1, -1) rotate(30.000000) translate(-7.634254, -8.121740) "></path>
        </g>
    </g>
</svg>