<svg id="Layer_1" data-name="Layer 1" xmlns="http://www.w3.org/2000/svg" width="46.53" height="49.15" viewBox="0 0 46.53 49.15"><title>aug3-icon</title><rect x="8.69" y="10" width="45.13" height="45.13" rx="6.77" ry="6.77" transform="translate(54.51 58.45) rotate(180)" fill="#231f20" stroke="#231f20" stroke-miterlimit="10" stroke-width="1.4" opacity="0.1"/><rect x="8.69" y="7.37" width="45.13" height="45.13" rx="6.77" ry="6.77" transform="translate(54.51 53.2) rotate(180)" fill="#fff" stroke="#22a0d1" stroke-miterlimit="10" stroke-width="1.4"/><path d="M8.69,7.37H53.81a0,0,0,0,1,0,0v8.36A6.77,6.77,0,0,1,47,22.5H15.46a6.77,6.77,0,0,1-6.77-6.77V7.37a0,0,0,0,1,0,0Z" transform="translate(54.51 23.2) rotate(180)" fill="#25aff4" stroke="#22a0d1" stroke-miterlimit="10" stroke-width="1.4"/><path d="M31.23,34.79a3.49,3.49,0,0,0,1.1-.26,2.11,2.11,0,0,0,.84-0.62,1.69,1.69,0,0,0,.33-1.09,1.89,1.89,0,0,0-.68-1.57,2.44,2.44,0,0,0-1.57-.55,2.2,2.2,0,0,0-1.85.81,3.12,3.12,0,0,0-.6,2H25.72a6.75,6.75,0,0,1,.44-2.24,5.11,5.11,0,0,1,1.11-1.74A5,5,0,0,1,29,28.44a6,6,0,0,1,2.23-.4,6.67,6.67,0,0,1,1.91.28,5.46,5.46,0,0,1,1.72.85,4.61,4.61,0,0,1,1.24,1.39,3.68,3.68,0,0,1,.48,1.89,3.77,3.77,0,0,1-.56,2,2.8,2.8,0,0,1-1.67,1.21v0A3.47,3.47,0,0,1,36.41,37a3.74,3.74,0,0,1,.75,2.34,4.92,4.92,0,0,1-.49,2.23,4.86,4.86,0,0,1-1.31,1.64,5.76,5.76,0,0,1-1.89,1,7.68,7.68,0,0,1-4.67,0,5.12,5.12,0,0,1-1.88-1.13,5,5,0,0,1-1.19-1.81,6.35,6.35,0,0,1-.4-2.46h3.07a4.58,4.58,0,0,0,.2,1.22,3,3,0,0,0,.52,1,2.48,2.48,0,0,0,.85.67,2.74,2.74,0,0,0,1.22.25A2.66,2.66,0,0,0,33,41.26a2.72,2.72,0,0,0,.4-3.22,2,2,0,0,0-.9-0.69,3.75,3.75,0,0,0-1.19-.25q-0.65,0-1.24,0V34.79A6.84,6.84,0,0,0,31.23,34.79Z" transform="translate(-7.99 -6.67)" fill="#6b6b6b"/><path d="M23.58,11.31l2.67,7.14H24.62l-0.54-1.59H21.41l-0.56,1.59H19.27L22,11.31h1.61Zm0.09,4.38-0.9-2.62h0l-0.93,2.62h1.85Z" transform="translate(-7.99 -6.67)" fill="#fff"/><path d="M33.12,17.9a3.3,3.3,0,0,1-2.24.71,3.29,3.29,0,0,1-2.25-.7,2.73,2.73,0,0,1-.79-2.16V11.31h1.57v4.44a3.16,3.16,0,0,0,0,.57,1.11,1.11,0,0,0,.65.84,1.81,1.81,0,0,0,.77.13A1.47,1.47,0,0,0,32,16.92a1.79,1.79,0,0,0,.32-1.17V11.31h1.57v4.44A2.71,2.71,0,0,1,33.12,17.9Z" transform="translate(-7.99 -6.67)" fill="#fff"/><path d="M40.5,18.39a2.64,2.64,0,0,1-1,.21A3.65,3.65,0,0,1,38,18.32a3.17,3.17,0,0,1-1.11-.79,3.47,3.47,0,0,1-.69-1.17A4.31,4.31,0,0,1,36,14.91a4.46,4.46,0,0,1,.24-1.49,3.57,3.57,0,0,1,.69-1.19,3.17,3.17,0,0,1,1.11-.8,3.61,3.61,0,0,1,1.47-.29,3.46,3.46,0,0,1,1.07.17,3,3,0,0,1,.93.48,2.62,2.62,0,0,1,1,1.87H41a1.51,1.51,0,0,0-.54-0.9,1.58,1.58,0,0,0-1-.3,1.83,1.83,0,0,0-.9.21,1.7,1.7,0,0,0-.6.55,2.43,2.43,0,0,0-.33.79,4,4,0,0,0-.1.91,3.67,3.67,0,0,0,.1.88,2.37,2.37,0,0,0,.33.76,1.7,1.7,0,0,0,.6.54,1.83,1.83,0,0,0,.9.21,1.7,1.7,0,0,0,1.21-.39,1.72,1.72,0,0,0,.5-1.15H39.59V14.59h3v3.86h-1l-0.16-.81A2.36,2.36,0,0,1,40.5,18.39Z" transform="translate(-7.99 -6.67)" fill="#fff"/></svg>