<svg id="Layer_1" data-name="Layer 1" xmlns="http://www.w3.org/2000/svg" width="46.53" height="49.15" viewBox="0 0 46.53 49.15"><defs><style>.cls-1{fill:#231f20;stroke:#231f20;opacity:0.1;}.cls-1,.cls-2,.cls-3{stroke-miterlimit:10;stroke-width:1.4px;}.cls-2,.cls-5{fill:#fff;}.cls-2,.cls-3{stroke:#22a0d1;}.cls-3{fill:#25aff4;}.cls-4{fill:#6b6b6b;}</style></defs><title>aug5-icon</title><rect class="cls-1" x="3.94" y="5.25" width="45.13" height="45.13" rx="6.77" ry="6.77" transform="translate(49.76 53.7) rotate(180)"/><rect class="cls-2" x="3.94" y="2.62" width="45.13" height="45.13" rx="6.77" ry="6.77" transform="translate(49.76 48.45) rotate(180)"/><path class="cls-3" d="M3.94,2.62H49.06a0,0,0,0,1,0,0V11a6.77,6.77,0,0,1-6.77,6.77H10.71A6.77,6.77,0,0,1,3.94,11V2.62a0,0,0,0,1,0,0Z" transform="translate(49.76 18.45) rotate(180)"/><path class="cls-4" d="M25,26.27l-0.64,3.62,0,0A4,4,0,0,1,25.79,29a5.27,5.27,0,0,1,3.8.15,4.6,4.6,0,0,1,1.54,1.16,5.05,5.05,0,0,1,1,1.72,6.62,6.62,0,0,1,.33,2.1,5.49,5.49,0,0,1-.48,2.29,5.83,5.83,0,0,1-1.28,1.83,5.7,5.7,0,0,1-1.88,1.19,5.86,5.86,0,0,1-2.27.4,7.9,7.9,0,0,1-2.22-.31,5.52,5.52,0,0,1-1.88-.94A4.73,4.73,0,0,1,21.1,37a4.89,4.89,0,0,1-.51-2.19h3.23a2.64,2.64,0,0,0,.82,1.74,2.55,2.55,0,0,0,1.8.65,2.49,2.49,0,0,0,1.15-.26,2.72,2.72,0,0,0,.86-0.68,3.06,3.06,0,0,0,.55-1,3.48,3.48,0,0,0,.19-1.15A3.64,3.64,0,0,0,29,33a2.72,2.72,0,0,0-.55-1,2.56,2.56,0,0,0-.86-0.64,2.78,2.78,0,0,0-1.16-.23,2.86,2.86,0,0,0-1.41.31,3.3,3.3,0,0,0-1,1H21.09l1.57-8.8h8.89v2.66H25Z" transform="translate(-3.24 -1.92)"/><path class="cls-5" d="M18.83,6.56L21.5,13.7H19.87l-0.54-1.59H16.66L16.09,13.7H14.52l2.7-7.14h1.61Zm0.09,4.38L18,8.32h0l-0.93,2.62h1.85Z" transform="translate(-3.24 -1.92)"/><path class="cls-5" d="M28.37,13.15a3.3,3.3,0,0,1-2.24.71,3.29,3.29,0,0,1-2.25-.7A2.73,2.73,0,0,1,23.08,11V6.56h1.57V11a3.16,3.16,0,0,0,0,.57,1.11,1.11,0,0,0,.65.84,1.81,1.81,0,0,0,.77.13,1.47,1.47,0,0,0,1.16-.37A1.79,1.79,0,0,0,27.6,11V6.56h1.57V11A2.71,2.71,0,0,1,28.37,13.15Z" transform="translate(-3.24 -1.92)"/><path class="cls-5" d="M35.75,13.64a2.64,2.64,0,0,1-1,.21,3.65,3.65,0,0,1-1.47-.29,3.17,3.17,0,0,1-1.11-.79,3.47,3.47,0,0,1-.69-1.17,4.31,4.31,0,0,1-.24-1.46,4.46,4.46,0,0,1,.24-1.49,3.57,3.57,0,0,1,.69-1.19,3.17,3.17,0,0,1,1.11-.8,3.61,3.61,0,0,1,1.47-.29,3.46,3.46,0,0,1,1.07.17,3,3,0,0,1,.93.48,2.62,2.62,0,0,1,1,1.87h-1.5A1.51,1.51,0,0,0,35.7,8a1.58,1.58,0,0,0-1-.3,1.83,1.83,0,0,0-.9.21,1.7,1.7,0,0,0-.6.55,2.43,2.43,0,0,0-.33.79,4,4,0,0,0-.1.91,3.67,3.67,0,0,0,.1.88,2.37,2.37,0,0,0,.33.76,1.7,1.7,0,0,0,.6.54,1.83,1.83,0,0,0,.9.21,1.7,1.7,0,0,0,1.21-.39,1.72,1.72,0,0,0,.5-1.15H34.84V9.84h3V13.7h-1l-0.16-.81A2.36,2.36,0,0,1,35.75,13.64Z" transform="translate(-3.24 -1.92)"/></svg>