<?xml version="1.0" encoding="utf-8"?>
<!-- Generator: Adobe Illustrator 22.0.1, SVG Export Plug-In . SVG Version: 6.00 Build 0)  -->
<svg version="1.1" id="Layer_1" xmlns="http://www.w3.org/2000/svg" xmlns:xlink="http://www.w3.org/1999/xlink" x="0px" y="0px"
	 width="46.5px" height="49.2px" viewBox="0 0 46.5 49.2" style="enable-background:new 0 0 46.5 49.2;" xml:space="preserve">
<style type="text/css">
	.st0{opacity:0.1;fill:#231F20;stroke:#231F20;stroke-width:1.4;stroke-miterlimit:10;enable-background:new    ;}
	.st1{fill:#FFFFFF;stroke:#22A0D1;stroke-width:1.4;stroke-miterlimit:10;}
	.st2{fill:#25AFF4;stroke:#22A0D1;stroke-width:1.4;stroke-miterlimit:10;}
	.st3{fill:#FFFFFF;}
	.st4{fill:#6B6B6B;}
</style>
<path class="st0" d="M39,48.5H7.5c-3.7,0-6.8-3-6.8-6.8V10.1c0-3.7,3-6.8,6.8-6.8H39c3.7,0,6.8,3,6.8,6.8v31.6
	C45.8,45.4,42.8,48.5,39,48.5z"/>
<path class="st1" d="M39,45.8H7.5c-3.7,0-6.8-3-6.8-6.8V7.5c0-3.7,3-6.8,6.8-6.8H39c3.7,0,6.8,3,6.8,6.8v31.6
	C45.8,42.8,42.8,45.8,39,45.8z"/>
<path class="st2" d="M45.8,15.8H0.7l0,0V7.5c0-3.7,3-6.8,6.8-6.8c0,0,0,0,0,0H39c3.7,0,6.8,3,6.8,6.8V15.8L45.8,15.8z"/>
<g>
	<path class="st3" d="M14.3,10.3c0,0.3-0.2,0.5-0.3,0.8c-0.2,0.2-0.4,0.4-0.7,0.6c-0.3,0.2-0.7,0.2-1.3,0.2c-0.3,0-0.6,0-0.9-0.1
		c-0.3-0.1-0.5-0.2-0.8-0.4c-0.2-0.2-0.4-0.4-0.5-0.7c-0.1-0.3-0.2-0.6-0.2-1V9.1h1.4v0.3c0,0.2,0,0.3,0,0.5c0,0.1,0.1,0.3,0.1,0.4
		c0.1,0.1,0.2,0.2,0.3,0.2c0.1,0.1,0.3,0.1,0.5,0.1c0.2,0,0.4,0,0.5-0.1c0.1-0.1,0.2-0.2,0.2-0.3c0.1-0.1,0.1-0.2,0.1-0.4
		c0-0.1,0-0.3,0-0.4V4.6h1.6v4.9C14.4,9.8,14.4,10,14.3,10.3z"/>
	<path class="st3" d="M22,11.2c-0.5,0.5-1.3,0.7-2.2,0.7c-1,0-1.7-0.2-2.2-0.7c-0.5-0.5-0.8-1.2-0.8-2.2V4.6h1.6v4.4
		c0,0.2,0,0.4,0,0.6c0,0.2,0.1,0.4,0.2,0.5c0.1,0.1,0.3,0.3,0.4,0.3c0.2,0.1,0.4,0.1,0.8,0.1c0.6,0,0.9-0.1,1.2-0.4s0.3-0.6,0.3-1.2
		V4.6h1.6v4.4C22.8,10,22.6,10.8,22,11.2z"/>
	<path class="st3" d="M26.8,4.6v5.8h3.5v1.3h-5V4.6H26.8z"/>
	<path class="st3" d="M30.2,4.6H32l1.7,2.8l1.7-2.8h1.8L34.4,9v2.7h-1.6V9L30.2,4.6z"/>
</g>
<g>
	<path class="st4" d="M10.8,25.4c0.2-0.8,0.6-1.5,1.1-2.1s1.1-1.1,1.9-1.4c0.7-0.3,1.6-0.5,2.6-0.5c0.7,0,1.4,0.1,2.1,0.3
		s1.3,0.6,1.8,1c0.5,0.4,0.9,1,1.2,1.6c0.3,0.6,0.4,1.3,0.4,2.1c0,0.8-0.1,1.5-0.4,2.1c-0.3,0.6-0.6,1.1-1,1.6
		c-0.4,0.5-0.9,0.9-1.5,1.2c-0.5,0.4-1.1,0.7-1.6,1.1c-0.6,0.4-1.1,0.7-1.6,1.2c-0.5,0.4-1,0.9-1.4,1.4h7.6v2.8H10.1
		c0-0.9,0.1-1.7,0.4-2.4c0.3-0.7,0.6-1.3,1.1-1.9s1-1,1.6-1.5s1.3-0.9,2-1.4c0.4-0.2,0.7-0.5,1.1-0.7c0.4-0.3,0.8-0.5,1.1-0.8
		c0.3-0.3,0.6-0.7,0.8-1c0.2-0.4,0.3-0.8,0.3-1.3c0-0.8-0.2-1.4-0.7-1.8c-0.5-0.4-1-0.7-1.7-0.7c-0.5,0-0.9,0.1-1.2,0.3
		c-0.3,0.2-0.6,0.5-0.8,0.9c-0.2,0.4-0.3,0.8-0.4,1.2c-0.1,0.4-0.1,0.9-0.1,1.3h-3.1C10.4,27.1,10.5,26.2,10.8,25.4z"/>
	<path class="st4" d="M33.8,27.3c-0.7,1.1-1.2,2.2-1.6,3.4c-0.4,1.2-0.8,2.4-1,3.7c-0.2,1.2-0.4,2.4-0.4,3.5h-3.5
		c0.2-2.4,0.7-4.7,1.7-6.9c0.9-2.2,2.2-4.3,3.7-6.1H25v-3h11v2.8C35.2,25.3,34.4,26.2,33.8,27.3z"/>
</g>
</svg>
