<?xml version="1.0" encoding="utf-8"?>
<!-- Generator: Adobe Illustrator 19.1.0, SVG Export Plug-In . SVG Version: 6.00 Build 0)  -->
<svg version="1.1" id="Layer_1" xmlns="http://www.w3.org/2000/svg" xmlns:xlink="http://www.w3.org/1999/xlink" x="0px" y="0px"
	 width="22px" height="22px" viewBox="0 0 22 22" style="enable-background:new 0 0 22 22;" xml:space="preserve">
<g>
	<g>
		<path style="fill:#6B6B6B;" d="M11.3,20c-2.9,0-5.8-1.7-7.2-4.2c-1.5-2.5-1.6-5.8-0.3-8.5c1.4-2.8,3.7-4.1,4.6-4.5
			C9,2.5,9.6,2.3,10.2,2.1L10.8,2c0.5-0.1,0.9,0.2,1,0.6c0.1,0.5-0.2,0.9-0.6,1l-0.6,0.1c-0.5,0.1-1,0.3-1.5,0.5
			C8.5,4.6,6.5,5.6,5.3,8c-0.9,1.8-1.1,4.6,0.2,6.9c1.3,2.2,3.8,3.6,6.3,3.4c2.3-0.2,4.4-1.7,5.2-3.8c0.8-1.9,0.3-3.9-0.6-5.1
			c-1-1.4-2.2-1.8-2.7-1.9c-0.1,0-1.8-0.5-3.3,0.2C9.8,8,8.9,8.7,8.5,9.8c-0.5,1.1-0.4,2.5,0.3,3.5c0.7,1,1.9,1.6,3,1.4
			c1.1-0.2,1.8-1,2-1.7c0.2-0.8-0.1-1.4-0.4-1.6c-0.4-0.4-0.8-0.4-0.8-0.4c-0.2,0-0.3,0-0.3,0c0,0,0,0,0,0c-0.2,0.1-0.5,0.2-0.5,0.4
			c0,0,0,0.1,0,0.3c0.2,0.4-0.1,0.9-0.5,1.1c-0.4,0.2-0.9-0.1-1.1-0.5c-0.3-0.7-0.1-1.3,0.1-1.6c0.5-0.9,1.5-1.2,1.6-1.3
			c0.1,0,0.1,0,0.2,0c0.1,0,0.3,0,0.6,0c0.6,0,1.4,0.3,1.9,0.9c0.7,0.6,1.2,1.9,0.8,3.3c-0.4,1.5-1.7,2.7-3.3,2.9
			c-1.7,0.3-3.7-0.5-4.7-2.1c-1-1.4-1.2-3.5-0.5-5.1c0.8-1.9,2.3-2.7,2.7-2.9c2.1-1.1,4.4-0.4,4.5-0.3c0.6,0.1,2.3,0.7,3.6,2.6
			c1,1.4,1.8,4,0.8,6.7c-1,2.7-3.7,4.7-6.6,4.9C11.8,20,11.5,20,11.3,20z"/>
	</g>
</g>
</svg>
