<?xml version="1.0" encoding="UTF-8"?><svg id="Layer_2" xmlns="http://www.w3.org/2000/svg" viewBox="0 0 287.25 289.31"><g id="Layer_1-2"><g><polygon points="5.62 66.87 17.11 111.29 263.82 47.87 254.29 3.94 5.62 66.87" fill="#fbaa1e"/><circle cx="152.92" cy="203.26" r="62.8" fill="#fbaa1e" stroke="#1e1e1e" stroke-miterlimit="10" stroke-width="8.09"/><g><path d="M283.6,112.42H40.71l228.64-58.13c1.95-.53,3.09-2.54,2.56-4.48l-10.48-38.46c-2.23-8.2-10.72-13.05-18.91-10.81L11.36,59.36C3.16,61.59-1.69,70.08,.54,78.27l10.05,36.91c-.07,.29-.12,.58-.12,.9v157.83c0,8.49,6.91,15.41,15.41,15.41h245.97c8.49,0,15.41-6.91,15.41-15.41V116.07c0-2.02-1.63-3.65-3.65-3.65ZM108.92,42.22l42.38,34.38-44.76,10.23-42.38-34.38,44.76-10.23Zm48.04-12.6l46.88,34.38-42.06,10.23-42.38-34.38,37.57-10.23Zm56.13-13.5l42.38,34.38-42.96,11.13-42.38-34.38,42.96-11.13Zm31.34-8.54c4.31-1.18,8.78,1.38,9.95,5.69l9.42,34.59L221.77,13.76l22.67-6.18ZM55.49,54.82l42.38,34.38-43.86,12.03L11.9,66.92c.44-.21,.9-.39,1.38-.52l42.21-11.58ZM7.45,72.72l37.9,30.88-28.24,7.7L7.59,76.35c-.33-1.21-.37-2.44-.14-3.64Zm272.5,201.19c0,4.47-3.64,8.1-8.11,8.1H25.88c-4.47,0-8.1-3.64-8.1-8.1V119.72H279.95v154.18Z" fill="#1e1e1e"/><path d="M125.19,240.95c1.16,.67,2.42,1,3.69,1s2.54-.33,3.69-1l56.09-32.38c2.31-1.34,3.69-3.73,3.69-6.4s-1.38-5.06-3.69-6.4l-56.09-32.38c-2.31-1.34-5.07-1.34-7.39,0-2.31,1.33-3.69,3.73-3.69,6.4v64.77c0,2.67,1.38,5.06,3.69,6.4Zm3.61-71.21s.04-.04,.09-.04c.01,0,.02,0,.04,0l56.09,32.38,1.83-3.16-1.79,3.18s.01,.08-.03,.13l-56.13,32.4s-.08-.03-.09-.09v-64.81Z" fill="#1e1e1e"/></g><path d="M128.8,169.74s.04-.04,.09-.04c.01,0,.02,0,.04,0l56.09,32.38,1.83-3.16-1.79,3.18s.01,.08-.03,.13l-56.13,32.4s-.08-.03-.09-.09v-64.81Z" fill="#7860aa"/></g></g></svg>