<?xml version="1.0" encoding="UTF-8"?><svg id="Layer_2" xmlns="http://www.w3.org/2000/svg" viewBox="0 0 257.29 252.8"><g id="Layer_1-2"><g><circle cx="130.2" cy="124.6" r="120.27" fill="#fbaa1e"/><circle cx="132.35" cy="122.46" r="95.72" fill="#fff"/><circle cx="131.41" cy="125.24" r="30.02" fill="#7e69af"/><polygon points="13.77 75.45 38.17 94.28 60.83 82.42 32.94 65.34 13.77 75.45" fill="#7e69af"/><polygon points="35.58 37.94 63.22 51.56 62.56 77.13 34.94 59.61 35.58 37.94" fill="#7e69af"/><g><path d="M104.12,140.6l-1.56-4.03c-.21-.54-.4-1.08-.58-1.64l-1.33-4.11,8.23-2.66,1.33,4.11c.13,.4,.27,.79,.42,1.17l1.56,4.03-8.06,3.13Z" fill="#1e1e1e"/><path d="M131.7,156.54c-7.21,0-14.25-2.52-19.81-7.08l-3.34-2.74,5.49-6.68,3.34,2.74c4.02,3.3,9.11,5.12,14.33,5.12,12.46,0,22.6-10.14,22.6-22.6s-10.14-22.6-22.6-22.6c-1.1,0-2.21,.08-3.3,.24l-4.28,.62-1.24-8.56,4.28-.62c1.5-.22,3.02-.33,4.54-.33,17.23,0,31.25,14.02,31.25,31.25s-14.02,31.25-31.25,31.25Z" fill="#1e1e1e"/><path d="M75.74,120.35l-8.51-1.51,.75-4.26c.3-1.7,.68-3.41,1.11-5.07l1.1-4.18,8.36,2.19-1.1,4.18c-.38,1.44-.7,2.92-.96,4.39l-.75,4.26Z" fill="#1e1e1e"/><path d="M131.05,189.86c-15.49,0-30.44-5.6-42.1-15.78-11.54-10.08-19.1-23.94-21.29-39.02l-.62-4.28,8.56-1.24,.62,4.28c3.91,27.02,27.48,47.4,54.83,47.4,30.55,0,55.4-24.85,55.4-55.4s-24.85-55.4-55.4-55.4c-4.97,0-9.9,.66-14.65,1.96l-4.17,1.14-2.28-8.34,4.17-1.14c5.49-1.5,11.19-2.26,16.93-2.26,35.32,0,64.05,28.73,64.05,64.05s-28.73,64.05-64.05,64.05Z" fill="#1e1e1e"/><path d="M94.55,83.91l-5.16-6.94,3.47-2.58c1.46-1.08,2.98-2.11,4.52-3.07l3.68-2.27,4.55,7.35-3.68,2.27c-1.33,.82-2.65,1.72-3.91,2.65l-3.47,2.58Z" fill="#1e1e1e"/><path d="M40.15,123.75l-8.63-.57,.28-4.31c.1-1.54,.24-3.11,.42-4.64l.49-4.3,8.59,.97-.49,4.3c-.16,1.4-.29,2.83-.38,4.24l-.28,4.31Z" fill="#1e1e1e"/><path d="M130.89,224.83c-24.68,0-48.34-9.12-66.62-25.67-18.15-16.43-29.56-38.83-32.12-63.08l-.45-4.3,8.6-.91,.45,4.3c4.88,46.18,43.64,81.01,90.15,81.01,49.99,0,90.66-40.67,90.66-90.65s-40.67-90.66-90.66-90.66c-11.07,0-21.89,1.97-32.15,5.86l-4.04,1.53-3.07-8.08,4.04-1.53c11.24-4.26,23.09-6.43,35.21-6.43,54.76,0,99.3,44.55,99.3,99.3s-44.55,99.3-99.3,99.3Z" fill="#1e1e1e"/><path d="M79.04,51.02l-4.6-7.32,3.66-2.3c.94-.59,1.9-1.17,2.86-1.73l3.73-2.18,4.35,7.47-3.73,2.18c-.88,.51-1.75,1.04-2.61,1.58l-3.66,2.3Z" fill="#1e1e1e"/><rect x="69.62" y="14.07" width="8.65" height="147.15" transform="translate(-39.88 101.61) rotate(-56.84)" fill="#1e1e1e"/><polygon points="62.89 87.44 58.54 53.99 40.37 41.47 39.34 67.5 30.7 67.16 32.35 25.45 66.62 49.05 71.47 86.32 62.89 87.44" fill="#1e1e1e"/><polygon points="36.32 99.83 0 73.51 37.2 55.49 40.97 63.27 16.78 74.99 37.56 90.05 66.76 78.55 69.93 86.59 36.32 99.83" fill="#1e1e1e"/><path d="M14.47,108.08l-8.49-1.65,.82-4.24c.29-1.52,.62-3.05,.97-4.56l.98-4.21,8.42,1.96-.98,4.21c-.33,1.41-.63,2.84-.91,4.25l-.82,4.24Z" fill="#1e1e1e"/><path d="M130.89,252.8c-69.7,0-126.4-56.7-126.4-126.4,0-1.98,.05-3.98,.14-5.95l.2-4.32,8.64,.4-.2,4.32c-.09,1.84-.13,3.7-.13,5.55,0,64.93,52.82,117.75,117.75,117.75s117.75-52.82,117.75-117.75S195.82,8.65,130.89,8.65c-17.33,0-34.01,3.67-49.6,10.92l-3.92,1.82-3.65-7.84,3.92-1.82C94.38,3.95,112.29,0,130.89,0c69.7,0,126.4,56.7,126.4,126.4s-56.7,126.4-126.4,126.4Z" fill="#1e1e1e"/><path d="M59.39,32.73l-4.99-7.06,3.53-2.5c1.16-.82,2.34-1.63,3.53-2.41l3.61-2.38,4.76,7.22-3.61,2.38c-1.11,.73-2.22,1.49-3.29,2.25l-3.53,2.5Z" fill="#1e1e1e"/></g></g></g></svg>