<?xml version="1.0" encoding="UTF-8"?><svg id="Layer_2" xmlns="http://www.w3.org/2000/svg" viewBox="0 0 328.03 253.62"><g id="Layer_1-2"><g><polygon points="84.02 101.63 76.8 115.85 109.59 139.6 119.32 126.19 84.02 101.63" fill="#f68c24"/><polygon points="75.64 121.2 2.61 236.4 21.81 251.09 105.73 138.5 76.8 115.85 75.64 121.2" fill="#7e69af" fill-rule="evenodd"/><g><path d="M299.39,50.51c.82-5.54,5.98-9.36,11.51-8.54l-15.08,101.51c-.15,10.79-13.15,20.55-30.01,22.18-17.64,1.71-32.84-6.12-33.94-17.49-1.1-11.37,12.31-21.97,29.95-23.68,10.14-.98,19.47,1.19,25.78,5.37l11.79-79.35Zm11.52-8.53c10.39,2.61,26.86,18.97,9.64,63.48-1.08,2.47-2.8,5.96-4.9,9.55-2.77,4.72-6.29,2-4.53-3.18,.86-2.54,1.6-5.08,2.13-7.45,2.52-11.39,7.88-36.27-4.83-45.65l2.49-16.75Z" fill="#231f20" fill-rule="evenodd"/><path d="M208.72,10.36c.64-2.98,3.39-4.96,6.35-4.71v-.05s.77,.16,.77,.16l45.66,9.84,5.26,1.13h0s.05,.01,.08,.02l-12.78,59.31c-.5,6.36-8.54,11.62-18.55,11.94-10.47,.33-19.14-4.87-19.35-11.62-.22-6.75,8.1-12.49,18.58-12.83,6.02-.19,11.44,1.44,15,4.15l7.94-36.86-45.14-9.72-9.47,43.95c-.5,6.36-8.54,11.62-18.55,11.94-10.47,.33-19.14-4.87-19.35-11.62-.22-6.75,8.1-12.49,18.58-12.83,6.02-.19,11.44,1.44,15,4.15l9.99-46.36Z" fill="#231f20" fill-rule="evenodd"/></g><path d="M152.13,63.42l-.64-.65c-8.53-8.02-17.19-13.27-25.99-15.74-2.6-.79-5.68-.99-9.22-.6-2.48,.13-5.88,1.56-10.19,4.31-3.88,2.12-9.01,7.3-15.39,15.54-5.26,7.09-8.64,13.12-10.13,18.1-1.33,4.93-1.54,8.61-.63,11.05,.5,1.57,1.14,3.07,1.9,4.49-2.62,3.48-4.42,6.45-5.36,8.89-.71,2.14-.61,4.49,.31,7.05,.08,.18,.18,.36,.28,.55-22.03,34.63-43.68,68.65-56.45,88.35-3.65,5.63-6.6,10.13-8.94,13.7-1.57,2.4-2.88,4.39-3.98,6.08-3.19,4.92-4.67,7.38-5.32,9.37-.96,2.96-.09,4.9,1.58,6.62,.82,.85,1.83,1.64,2.9,2.48,.35,.28,.73,.57,1.12,.87,3.3,2.53,7.93,5.91,10.9,7.17,4.43,1.88,6.26-.96,10.74-6.82l.33-.44c5.15-6.74,14.56-18.92,23.97-31.12h.01s55.17-73.13,55.17-73.13h0s.01-.02,.01-.02c.15,.03,.3,.06,.45,.08,1.6,.27,3.07-.03,4.41-.9,1.5-.77,3.29-2.36,5.38-4.75,.73-.95,2.11-3,4.12-6.13,4.39,.45,8.24-.47,11.57-2.74,.73-.28,2.45-1.8,5.16-4.54,3.18-3.75,5.78-7.28,7.81-10.59,5.45-8.01,9.27-15.56,11.46-22.65,2.34-8.79-.12-16.76-7.38-23.88Zm-43,76.11h0s0,0,0,0h0Zm-57.83,71.11c-9.41,12.19-18.82,24.37-23.97,31.12l-.33,.44c-5.24,6.85-5.25,6.43-6.79,5.77-2.5-1.06-6.79-4.15-10.17-6.74-.38-.29-.75-.58-1.1-.85-1.18-.92-2.02-1.62-2.59-2.21-1.13-1.17-1.2-1.92-.77-3.24,.48-1.48,1.67-3.53,4.94-8.58,1.09-1.69,2.39-3.67,3.97-6.07,2.34-3.57,5.29-8.07,8.95-13.71,12.65-19.51,33.98-53.04,55.77-87.29,1.02,1.1,2.29,2.27,3.85,3.51,.58,.48,1.19,.96,1.83,1.43l17.18,12.35c1.21,.8,2.43,1.45,3.66,1.95l-54.43,72.14Zm61.86-74.98c-.44,.26-.95,.43-1.51,.53l.06-.09h0c-.56,.16-1.14,.2-1.77,.15-.04,0-.07,0-.11,0-.29-.03-.58-.09-.88-.16-.12-.03-.24-.07-.36-.1-.18-.05-.36-.11-.55-.17-1.24-.44-2.67-1.15-4.3-2.12l-15.99-11.51-3.48-2.73c-1.89-1.53-3.33-3.17-4.34-4.9-.29-.58-.48-1.17-.57-1.76h0s0,0,0,0c-.03-.25-.04-.51-.03-.78,.03-.83,.23-1.75,.6-2.75l.68-1.57c.72-1.45,1.76-3.06,3.09-4.82,1.05,1.46,2.25,2.82,3.61,4.1,7.63,7.58,16.93,13.79,27.91,18.63,1.64,.67,3.22,1.19,4.74,1.56-3.26,4.88-5.53,7.71-6.8,8.47Z" stroke="#000" stroke-linecap="round" stroke-linejoin="round" stroke-width="4"/><path d="M152.75,150.65c-3.52-.05-6.79-2.27-8.02-5.79-1.56-4.49,.81-9.4,5.31-10.97,9.77-3.4,16.89-11.91,18.58-22.21,.77-4.7,5.19-7.88,9.89-7.12,4.7,.77,7.88,5.2,7.11,9.89-2.7,16.54-14.16,30.23-29.92,35.71-.98,.34-1.97,.49-2.95,.48Z" fill="#fbaa1e"/><path d="M166.39,181.86c-3.49-.05-6.74-2.23-7.99-5.71-1.61-4.48,.72-9.41,5.19-11.02,20.13-7.23,34.67-24.76,37.93-45.74,.73-4.7,5.11-7.92,9.84-7.19,4.7,.73,7.92,5.14,7.19,9.84-4.23,27.22-23.06,49.95-49.13,59.31-1,.36-2.03,.52-3.03,.51Z" fill="#fbaa1e"/><path d="M70.5,31.21c3.52,.05,6.79,2.27,8.02,5.79,1.56,4.49-.81,9.4-5.31,10.97-9.77,3.4-16.89,11.91-18.58,22.21-.77,4.7-5.19,7.88-9.89,7.12-4.7-.77-7.88-5.2-7.11-9.89,2.7-16.54,14.16-30.23,29.92-35.71,.98-.34,1.97-.49,2.95-.48Z" fill="#fbaa1e"/><path d="M56.87,0c3.49,.05,6.74,2.23,7.99,5.71,1.61,4.48-.72,9.41-5.19,11.02-20.13,7.23-34.67,24.76-37.93,45.74-.73,4.7-5.11,7.92-9.84,7.19-4.7-.73-7.92-5.14-7.19-9.84C8.93,32.6,27.76,9.87,53.83,.51,54.84,.15,55.86-.01,56.87,0Z" fill="#fbaa1e"/></g></g></svg>