<?xml version="1.0" encoding="UTF-8"?><svg id="Layer_2" xmlns="http://www.w3.org/2000/svg" viewBox="0 0 331.84 300.12"><g id="Layer_1-2"><g><path d="M183.85,193.08l-41.73,72.19c-2.09,3.61-8.19,4.02-13.64,.87-5.45-3.15-8.14-8.64-6.05-12.25l41.73-72.19,19.69,11.38Z" fill="#7e69af"/><g><g><path d="M162.09,138.64l4.81-8.32c3.3-5.71,4.88-12.39,3.77-18.9-1.66-9.7,.56-20.14,7.33-28.83,10.09-12.95,28.17-17.51,43.23-10.96,20.44,8.9,28.05,33.23,17.22,51.96-4.45,7.7-11.27,13.17-19.01,16.02-6.12,2.26-11.12,6.83-14.38,12.49l-4.93,8.54" fill="#febf10" stroke="#ffd996" stroke-linecap="round" stroke-linejoin="round" stroke-width="7.32"/><path d="M182.72,190.73l-41.7,72.13c-.9,1.55-2.06,2.91-3.48,4.04l-32.5,27.98c-5.12,4.1-12.85-.37-11.85-6.85l8.03-42.12c.27-1.79,.87-3.47,1.76-5.03l33.46-57.87,8.25-14.26" fill="none" stroke="#000" stroke-linecap="round" stroke-linejoin="round" stroke-width="7.32"/><path d="M184.63,172.81l1.58,.92c4.38,2.53,5.87,8.13,3.34,12.5h0c-2.53,4.38-8.13,5.87-12.5,3.34l-28.52-16.49c-4.38-2.53-5.87-8.13-3.34-12.5h0c2.53-4.38,8.13-5.87,12.5-3.34l1.58,.92" fill="none" stroke="#000" stroke-linecap="round" stroke-linejoin="round" stroke-width="7.32"/><path d="M159.27,158.15l-4.75-2.75c-4.38-2.53-5.87-8.13-3.34-12.5h0c2.53-4.38,8.13-5.87,12.5-3.34l34.86,20.16c4.38,2.53,5.87,8.13,3.34,12.5h0c-2.53,4.38-8.13,5.87-12.5,3.34l-4.75-2.75" fill="none" stroke="#000" stroke-linecap="round" stroke-linejoin="round" stroke-width="7.32"/><polygon points="119.01 282.87 107.82 276.4 96.63 269.93 97.37 295.78 119.01 282.87" fill="#231f20" stroke="#000" stroke-linecap="round" stroke-linejoin="round" stroke-width="7.32"/><path d="M162.09,138.64l4.81-8.32c3.3-5.71,4.88-12.39,3.77-18.9-1.66-9.7,.56-20.14,7.33-28.83,10.09-12.95,28.17-17.51,43.23-10.96,20.44,8.9,28.05,33.23,17.22,51.96-4.45,7.7-11.27,13.17-19.01,16.02-6.12,2.26-11.12,6.83-14.38,12.49l-4.93,8.54" fill="none" stroke="#000" stroke-linecap="round" stroke-linejoin="round" stroke-width="7.32"/><polyline points="191.76 109.27 193.94 127.45 210.77 120.27" fill="none" stroke="#000" stroke-linecap="round" stroke-linejoin="round" stroke-width="7.32"/><line x1="193.94" y1="127.45" x2="188.44" y2="136.95" fill="none" stroke="#000" stroke-linecap="round" stroke-linejoin="round" stroke-width="7.32"/><line x1="232.41" y1="60.89" x2="236.08" y2="54.56" fill="none" stroke="#000" stroke-linecap="round" stroke-linejoin="round" stroke-width="7.32"/><line x1="149.22" y1="80.45" x2="155.56" y2="84.12" fill="none" stroke="#000" stroke-linecap="round" stroke-linejoin="round" stroke-width="7.32"/><line x1="250.64" y1="139.09" x2="256.97" y2="142.75" fill="none" stroke="#000" stroke-linecap="round" stroke-linejoin="round" stroke-width="7.32"/><line x1="260.79" y1="100.56" x2="268.11" y2="100.56" fill="none" stroke="#000" stroke-linecap="round" stroke-linejoin="round" stroke-width="7.32"/><line x1="180.22" y1="49.75" x2="183.88" y2="56.09" fill="none" stroke="#000" stroke-linecap="round" stroke-linejoin="round" stroke-width="7.32"/><path d="M162.79,181.32l-40.31,69.72c-2.02,3.49-7.91,3.88-13.17,.84-5.26-3.04-7.86-8.35-5.84-11.84l40.31-69.72,19.02,10.99Z" fill="#7e69af" stroke="#000" stroke-linecap="round" stroke-linejoin="round" stroke-width="7.32"/><path d="M181.8,192.32l-40.31,69.72c-2.02,3.49-7.91,3.88-13.17,.84-5.26-3.04-7.86-8.35-5.84-11.84l40.31-69.72,19.02,10.99Z" fill="none" stroke="#000" stroke-linecap="round" stroke-linejoin="round" stroke-width="7.32"/></g><g><path d="M312.92,249.61c-1.78,0-3.23-1.45-3.23-3.23v-62.08c0-1.78,1.45-3.23,3.23-3.23s3.23,1.45,3.23,3.23v62.08c0,1.78-1.45,3.23-3.23,3.23Z" fill="#1e1e1e"/><path d="M328.61,265.3H179.95c-1.78,0-3.23-1.45-3.23-3.23s1.45-3.23,3.23-3.23h145.43V39.45H46.3c-1.78,0-3.23-1.45-3.23-3.23s1.45-3.23,3.23-3.23H328.61c1.78,0,3.23,1.45,3.23,3.23v225.85c0,1.78-1.45,3.23-3.23,3.23Z" fill="#1e1e1e"/><path d="M65.4,265.3H33.14c-18.28,0-33.14-14.87-33.14-33.14,0-14.98,12.18-27.16,27.16-27.16,12.34,0,22.37,10.04,22.37,22.37,0,10.23-8.32,18.54-18.54,18.54-8.54,0-15.48-6.94-15.48-15.48,0-1.78,1.45-3.23,3.23-3.23s3.23,1.45,3.23,3.23c0,4.98,4.04,9.02,9.02,9.02,6.66,0,12.08-5.42,12.08-12.08,0-8.78-7.14-15.91-15.91-15.91-11.41,0-20.7,9.29-20.7,20.7,0,14.71,11.97,26.68,26.68,26.68h32.26c1.78,0,3.23,1.45,3.23,3.23s-1.45,3.23-3.23,3.23Z" fill="#1e1e1e"/><path d="M3.23,235.38c-1.78,0-3.23-1.45-3.23-3.23V27.16C0,12.18,12.18,0,27.16,0c12.34,0,22.37,10.04,22.37,22.37V227.37c0,1.78-1.45,3.23-3.23,3.23s-3.23-1.45-3.23-3.23V22.37c0-8.78-7.14-15.91-15.91-15.91C15.74,6.46,6.46,15.75,6.46,27.16V232.15c0,1.78-1.45,3.23-3.23,3.23Z" fill="#1e1e1e"/><g><path d="M18.92,107.72c-1.78,0-3.23-1.45-3.23-3.23V33.22c0-1.78,1.45-3.23,3.23-3.23s3.23,1.45,3.23,3.23V104.49c0,1.78-1.45,3.23-3.23,3.23Z" fill="#1e1e1e"/><path d="M18.92,129.78c-1.78,0-3.23-1.45-3.23-3.23v-7.34c0-1.78,1.45-3.23,3.23-3.23s3.23,1.45,3.23,3.23v7.34c0,1.78-1.45,3.23-3.23,3.23Z" fill="#1e1e1e"/></g></g></g></g></g></svg>