<?xml version="1.0" encoding="UTF-8"?><svg id="Layer_2" xmlns="http://www.w3.org/2000/svg" viewBox="0 0 383.7 275.2"><g id="Layer_1-2"><g><g><path d="M373.76,275.2H32.82c-5.49,0-9.93-4.45-9.93-9.93V32.38c0-5.49,4.45-9.94,9.94-9.94H328.1c3.72,3.27-2.59,7.42-5.83,7.42H32.82c-1.39,0-2.51,1.13-2.51,2.51v232.89c0,1.38,1.13,2.52,2.52,2.52H373.76c1.38,0,2.52-1.13,2.52-2.52V32.38c0-1.38-1.13-2.52-2.52-2.52h-52.83c-1.94,0-3.67-1.41-3.85-3.34-.22-2.21,1.52-4.08,3.69-4.08h52.99c5.49,0,9.94,4.45,9.94,9.94v232.89c0,5.49-4.45,9.94-9.94,9.94Z" fill="#1e1e1e"/><path d="M359.14,254.36H81.45c-2.05,0-3.71-1.66-3.71-3.71V47c0-2.05,1.66-3.71,3.71-3.71h236.92c3.73,3.28-2.59,7.42-5.83,7.42H85.16V246.93H355.43V50.71h-44.22c-1.94,0-3.67-1.42-3.85-3.35-.21-2.21,1.53-4.07,3.69-4.07h48.09c2.05,0,3.71,1.66,3.71,3.71V250.65c0,2.05-1.66,3.71-3.71,3.71Z" fill="#1e1e1e"/><g><path d="M96.91,87.27c-2.05,0-3.71-1.66-3.71-3.71v-21.11c0-2.05,1.66-3.71,3.71-3.71h21.11c2.05,0,3.71,1.66,3.71,3.71s-1.66,3.71-3.71,3.71h-17.4v17.4c0,2.05-1.66,3.71-3.71,3.71Z" fill="#1e1e1e"/><path d="M118.02,238.9h-21.11c-2.05,0-3.71-1.66-3.71-3.71v-21.11c0-2.05,1.66-3.71,3.71-3.71s3.71,1.66,3.71,3.71v17.4h17.4c2.05,0,3.71,1.66,3.71,3.71s-1.66,3.71-3.71,3.71Z" fill="#1e1e1e"/><path d="M343.69,87.27c-2.05,0-3.71-1.66-3.71-3.71v-17.4h-17.4c-2.05,0-3.71-1.66-3.71-3.71s1.66-3.71,3.71-3.71h21.11c2.05,0,3.71,1.66,3.71,3.71v21.11c0,2.05-1.66,3.71-3.71,3.71Z" fill="#1e1e1e"/></g><path d="M54.02,166.06c-9.51,0-17.24-7.73-17.24-17.24s7.74-17.24,17.24-17.24,17.24,7.74,17.24,17.24-7.73,17.24-17.24,17.24Zm0-27.06c-5.42,0-9.82,4.41-9.82,9.82s4.41,9.82,9.82,9.82,9.82-4.41,9.82-9.82-4.41-9.82-9.82-9.82Z" fill="#1e1e1e"/><path d="M60.14,116.31h-12.24c-3.8,0-6.89-3.09-6.89-6.89v-16.86c0-3.8,3.09-6.89,6.89-6.89h12.24c3.8,0,6.89,3.09,6.89,6.89v16.86c0,3.8-3.09,6.89-6.89,6.89Zm-11.71-7.42h11.18v-15.8h-11.18v15.8Z" fill="#1e1e1e"/><path d="M60.14,211.97h-12.24c-3.8,0-6.89-3.09-6.89-6.89v-16.86c0-3.8,3.09-6.89,6.89-6.89h12.24c3.8,0,6.89,3.09,6.89,6.89v16.86c0,3.8-3.09,6.89-6.89,6.89Zm-11.71-7.42h11.18v-15.8h-11.18v15.8Z" fill="#1e1e1e"/></g><path d="M153.23,100.85l2.28-.55h0s92.8-22.48,92.8-22.48c2.73-.66,5.48,1.02,6.14,3.75l12.15,50.6c.66,2.73-1.03,5.49-3.76,6.15l-92.8,22.47h0s-2.28,.55-2.28,.55c-1.78,.43-3.33,1.56-4.28,3.12l-4.71,7.7c-.96,1.57-2.5,2.69-4.28,3.12l-14.69,3.56c-1.78,.43-3.67,.14-5.23-.82l-7.68-4.69c-1.57-.96-3.45-1.25-5.23-.82l-2.28,.55h0s-10.25,2.48-10.25,2.48c-2.73,.66-5.48-1.02-6.14-3.75l-12.15-50.61c-.66-2.73,1.03-5.49,3.76-6.15l10.25-2.48h0s2.28-.55,2.28-.55c1.78-.43,3.67-.14,5.23,.82l7.68,4.7c1.57,.96,3.45,1.25,5.23,.82l14.69-3.56c1.78-.43,3.33-1.56,4.28-3.12l4.7-7.69c.96-1.57,2.5-2.69,4.28-3.13Z" fill="#7e69af" fill-rule="evenodd" stroke="#000" stroke-miterlimit="10" stroke-width="4.86"/><path d="M2.57,49.4c.03-.06,10.66-22.53,51.62-32.66,40.96-10.13,60.83,4.79,60.89,4.84L191.9,2.57c2.59-.64,5.21,.94,5.85,3.53l13.87,56.09c.64,2.59-.94,5.21-3.53,5.85l-128.4,31.76h0s-2.75,.68-2.75,.68c-1.24,.31-2.31,1.1-2.97,2.19l-4.99,8.27c-.66,1.1-1.73,1.89-2.97,2.19l-14.87,3.68c-1.24,.31-2.56,.11-3.65-.55l-8.27-4.99c-1.1-.66-2.41-.86-3.65-.55l-2.74,.68h0l-9.38,2.32c-2.59,.64-5.21-.94-5.85-3.53L2.57,49.4h0Z" fill="#f9a11b" fill-rule="evenodd" stroke="#000" stroke-miterlimit="10" stroke-width="4.86"/><g><path d="M296.7,212.03c-11.2,0-20.31-9.11-20.31-20.31s9.11-20.31,20.31-20.31,20.31,9.11,20.31,20.31-9.11,20.31-20.31,20.31Zm0-33.87c-7.48,0-13.56,6.08-13.56,13.56s6.08,13.56,13.56,13.56,13.56-6.08,13.56-13.56-6.09-13.56-13.56-13.56Z" fill="#1e1e1e"/><g><path d="M332.11,186.32c-1.34-.21-2.43-1.21-2.76-2.54-.82-3.38-2.14-6.59-3.95-9.54-.71-1.17-.65-2.64,.15-3.75l3.58-4.9-6.31-6.31-4.9,3.57c-1.1,.8-2.58,.87-3.75,.15-2.95-1.8-6.16-3.13-9.54-3.95-1.32-.32-2.33-1.41-2.54-2.76l-.94-6h-8.92l-.94,6c-.22,1.35-1.21,2.43-2.54,2.76-3.38,.82-6.59,2.15-9.54,3.95-1.17,.71-2.64,.65-3.75-.15l-4.9-3.57-6.31,6.31,3.57,4.9c.8,1.1,.86,2.58,.15,3.75-1.8,2.95-3.13,6.16-3.95,9.54-.32,1.33-1.41,2.33-2.76,2.54l-6,.94v8.92l6,.94c1.35,.21,2.43,1.21,2.76,2.54,.82,3.38,2.15,6.59,3.95,9.54,.71,1.17,.65,2.64-.15,3.74l-3.57,4.9,6.31,6.31,4.9-3.58c1.1-.8,2.58-.86,3.75-.15,2.95,1.8,6.16,3.13,9.54,3.95,1.33,.32,2.32,1.41,2.54,2.75l.94,6h8.92l.94-6c.21-1.35,1.22-2.43,2.54-2.75,3.38-.82,6.59-2.15,9.54-3.95,1.17-.71,2.64-.65,3.75,.15l4.9,3.58,6.31-6.31-3.58-4.9c-.8-1.1-.86-2.58-.15-3.74,1.8-2.95,3.13-6.16,3.95-9.54,.32-1.33,1.41-2.33,2.76-2.54l6-.94v-8.92l-6-.94Zm-35.41,25.71c-11.2,0-20.31-9.11-20.31-20.31s9.11-20.31,20.31-20.31,20.31,9.11,20.31,20.31-9.11,20.31-20.31,20.31Z" fill="#231f20"/><path d="M304.05,239.88h-14.69c-1.66,0-3.07-1.21-3.33-2.85l-1.05-6.69c-2.53-.76-4.97-1.77-7.29-3.01l-5.47,3.99c-1.34,.98-3.2,.83-4.37-.34l-10.39-10.39c-1.18-1.17-1.32-3.03-.34-4.37l3.99-5.47c-1.24-2.32-2.25-4.76-3.01-7.29l-6.69-1.05c-1.64-.26-2.85-1.67-2.85-3.33v-14.69c0-1.66,1.21-3.08,2.85-3.33l6.69-1.05c.76-2.53,1.77-4.97,3.01-7.29l-3.99-5.47c-.98-1.34-.83-3.2,.34-4.37l10.39-10.39c1.18-1.17,3.03-1.32,4.37-.34l5.47,3.99c2.32-1.24,4.76-2.25,7.29-3.01l1.05-6.69c.26-1.64,1.67-2.85,3.33-2.85h14.69c1.66,0,3.07,1.21,3.33,2.85l1.05,6.69c2.53,.76,4.97,1.77,7.29,3.01l5.47-3.99c1.34-.98,3.2-.83,4.37,.34l10.39,10.39c1.17,1.17,1.32,3.03,.34,4.37l-3.99,5.47c1.24,2.32,2.25,4.76,3.01,7.29l6.69,1.05c1.64,.26,2.85,1.67,2.85,3.33v14.69c0,1.66-1.21,3.07-2.85,3.33l-6.69,1.05c-.77,2.53-1.77,4.97-3.01,7.29l3.99,5.47c.98,1.34,.83,3.2-.34,4.37l-10.39,10.39c-1.17,1.18-3.03,1.32-4.37,.34l-5.47-3.99c-2.32,1.24-4.76,2.25-7.29,3.01l-1.05,6.69c-.26,1.64-1.67,2.85-3.33,2.85Zm-11.8-6.75h8.92l.94-6c.21-1.35,1.22-2.43,2.54-2.75,3.38-.82,6.59-2.15,9.54-3.95,1.17-.71,2.64-.65,3.75,.15l4.9,3.58,6.31-6.31-3.58-4.9c-.8-1.1-.86-2.58-.15-3.74,1.8-2.95,3.13-6.16,3.95-9.54,.32-1.33,1.41-2.33,2.76-2.54l6-.94v-8.92l-6-.94c-1.34-.21-2.43-1.21-2.76-2.54-.82-3.38-2.14-6.59-3.95-9.54-.71-1.17-.65-2.64,.15-3.75l3.58-4.9-6.31-6.31-4.9,3.57c-1.1,.8-2.58,.87-3.75,.15-2.95-1.8-6.16-3.13-9.54-3.95-1.32-.32-2.33-1.41-2.54-2.76l-.94-6h-8.92l-.94,6c-.22,1.35-1.21,2.43-2.54,2.76-3.38,.82-6.59,2.15-9.54,3.95-1.17,.71-2.64,.65-3.75-.15l-4.9-3.57-6.31,6.31,3.57,4.9c.8,1.1,.86,2.58,.15,3.75-1.8,2.95-3.13,6.16-3.95,9.54-.32,1.33-1.41,2.33-2.76,2.54l-6,.94v8.92l6,.94c1.35,.21,2.43,1.21,2.76,2.54,.82,3.38,2.15,6.59,3.95,9.54,.71,1.17,.65,2.64-.15,3.74l-3.57,4.9,6.31,6.31,4.9-3.58c1.1-.8,2.58-.86,3.75-.15,2.95,1.8,6.16,3.13,9.54,3.95,1.33,.32,2.32,1.41,2.54,2.75l.94,6Z" fill="#231f20"/></g></g></g></g></svg>