<?xml version="1.0" encoding="UTF-8"?><svg id="Layer_2" xmlns="http://www.w3.org/2000/svg" viewBox="0 0 349.79 255.18"><g id="Layer_1-2"><g><path d="M94.31,91.76s13.65-16.35,49.71-15.95c36.06,.41,49.29,17.02,49.33,17.06l67.63,.76c2.28,.03,4.11,1.9,4.08,4.17l-.56,49.38c-.03,2.28-1.89,4.11-4.17,4.08l-113.03-1.28h0s-2.42-.03-2.42-.03c-1.09-.01-2.15,.41-2.93,1.18l-5.9,5.77c-.78,.77-1.84,1.19-2.93,1.18l-13.09-.15c-1.09-.01-2.14-.46-2.9-1.24l-5.77-5.9c-.76-.78-1.81-1.23-2.9-1.24l-2.42-.03h0l-8.25-.09c-2.28-.03-4.1-1.89-4.08-4.17l.6-53.5h0Z" fill="#f9a11b" fill-rule="evenodd" stroke="#000" stroke-miterlimit="10" stroke-width="3.79"/><path d="M147.74,149.98h1.97s0-.01,0-.01l80.1-.51c2.36-.02,4.28,1.88,4.29,4.24l.19,43.66c0,2.36-1.89,4.28-4.25,4.3l-80.1,.51h0s-1.97,.01-1.97,.01c-1.54,0-3.02,.63-4.1,1.73l-5.32,5.38c-1.08,1.1-2.56,1.72-4.1,1.73l-12.68,.08c-1.54,.01-3.02-.59-4.11-1.67l-5.37-5.31c-1.09-1.08-2.57-1.68-4.11-1.67h-1.97s0,.01,0,.01l-8.85,.06c-2.36,.01-4.28-1.89-4.29-4.24l-.19-43.66c-.01-2.36,1.89-4.28,4.25-4.3l8.85-.06h0s1.97-.01,1.97-.01c1.54,0,3.02,.59,4.11,1.67l5.37,5.31c1.09,1.08,2.57,1.68,4.11,1.67l12.68-.08c1.54,0,3.02-.63,4.1-1.73l5.32-5.38c1.08-1.1,2.56-1.72,4.1-1.73Z" fill="#7e69af" fill-rule="evenodd" stroke="#000" stroke-miterlimit="10" stroke-width="3.79"/><g><rect x="27.95" y="59.08" width="293.9" height="168.16" fill="none" stroke="#000" stroke-linejoin="round" stroke-width="6.07"/><rect x="3.03" y="3.03" width="343.72" height="249.11" fill="none" stroke="#000" stroke-linejoin="round" stroke-width="6.07"/><line x1="3.03" y1="40.4" x2="346.76" y2="40.4" fill="none" stroke="#000" stroke-linejoin="round" stroke-width="6.07"/><line x1="21.72" y1="21.72" x2="34.17" y2="21.72" fill="none" stroke="#000" stroke-linejoin="round" stroke-width="6.07"/><line x1="46.63" y1="21.72" x2="59.08" y2="21.72" fill="none" stroke="#000" stroke-linejoin="round" stroke-width="6.07"/><line x1="71.54" y1="21.72" x2="84" y2="21.72" fill="none" stroke="#000" stroke-linejoin="round" stroke-width="6.07"/><polygon points="160.79 121.68 160.79 171.51 204.39 146.59 160.79 121.68" fill="#1e1e1e" stroke="#1e1e1e" stroke-linejoin="round" stroke-width="6.07"/></g></g></g></svg>