<svg xmlns="http://www.w3.org/2000/svg" width="20" height="20" viewBox="0 0 20 20" fill="none">
  <path d="M12.0568 5.37903C12.6714 4.76435 13.6686 4.76435 14.2833 5.37903C14.8977 5.99359 14.8976 6.98995 14.2833 7.60461L12.0568 9.8302L14.2833 12.0568C14.8979 12.6715 14.898 13.6687 14.2833 14.2833C13.6687 14.898 12.6715 14.8979 12.0568 14.2833L9.8302 12.0568L7.60461 14.2833C6.98995 14.8975 5.99359 14.8977 5.37903 14.2833C4.76435 13.6686 4.76435 12.6714 5.37903 12.0568L7.60461 9.8302L5.37903 7.60461C4.76461 6.98991 4.76443 5.99362 5.37903 5.37903C5.99362 4.76443 6.98991 4.76461 7.60461 5.37903L9.8302 7.60461L12.0568 5.37903Z" fill="black"/>
</svg>