<?xml version="1.0" encoding="utf-8"?>
<!-- Generator: Adobe Illustrator 21.1.0, SVG Export Plug-In . SVG Version: 6.00 Build 0)  -->
<svg version="1.1" id="Social_Icons" xmlns="http://www.w3.org/2000/svg" xmlns:xlink="http://www.w3.org/1999/xlink" x="0px"
	 y="0px" viewBox="0 0 128 128" style="enable-background:new 0 0 128 128;" xml:space="preserve">
<style type="text/css">
	.st0{fill:#FFFFFF;}
</style>
<path id="Shopify_1_" class="st0" d="M69.7,19.8c0-0.4,0-0.8,0-1.2c0-3.6-0.5-6.5-1.3-8.8c3.2,0.4,5.3,4.1,6.7,8.3
	C73.5,18.6,71.7,19.2,69.7,19.8z M62.6,55.7c0,0-3.8-2-8.3-2c-6.7,0-7.1,4.3-7.1,5.3c0,5.8,15.2,8.1,15.2,21.8
	c0,10.8-6.8,17.7-16,17.7c-11,0-16.6-6.9-16.6-6.9l2.9-9.8c0,0,5.8,5,10.7,5c3.2,0,4.5-2.5,4.5-4.4c0-7.6-12.4-8-12.4-20.5
	c0-10.5,7.5-20.8,22.7-20.8c5.9,0,8.8,1.7,8.8,1.7L62.6,55.7z M60.1,6.4c0.6,0,1.3,0.2,1.9,0.6c-4.6,2.2-9.6,7.7-11.7,18.8
	c-3.1,1-6.1,1.9-8.9,2.8C43.9,20.2,49.7,6.4,60.1,6.4z M65.9,20.3c0,0.2,0,0.4,0,0.6c-3.5,1.1-7.4,2.3-11.2,3.5
	c2.2-8.4,6.2-12.4,9.7-13.9C65.3,12.8,65.9,16,65.9,20.3z M82.6,15.8c-0.2,0-0.4,0.1-0.6,0.1c-0.1,0-1.3,0.4-3.4,1
	c-2-5.8-5.5-11.1-11.8-11.1c-0.2,0-0.4,0-0.5,0c-1.8-2.4-4-3.4-5.9-3.4C46,2.5,39.1,20.7,36.9,30c-5.6,1.8-9.6,3-10.1,3.2
	c-3.1,1-3.2,1.1-3.7,4.1c-0.3,2.3-8.5,66.2-8.5,66.2l64.1,12.1l0.1,0L82.6,15.8z M87.2,19c1.9,1.8,3.9,3.9,3.9,3.9s8.6,0.6,9,0.7
	c0.4,0,0.9,0.3,1,0.9c0.1,0.6,12.3,83.4,12.3,83.4l-29.9,6.5L87.2,19z"/>
</svg>
