<?xml version="1.0" encoding="UTF-8"?>
<svg width="400px" height="220px" viewBox="0 0 400 220" version="1.1" xmlns="http://www.w3.org/2000/svg" xmlns:xlink="http://www.w3.org/1999/xlink">
    <!-- Generator: Sketch 53 (72520) - https://sketchapp.com -->
    <title>vernier-force-banner</title>
    <desc>Created with Sketch.</desc>
    <g id="vernier-force-banner" stroke="none" stroke-width="1" fill="none" fill-rule="evenodd">
        <g id="vernier-force" transform="translate(59.000000, 20.000000)">
            <g id="Group" opacity="0.1" transform="translate(194.000000, 14.899582)" fill="#000000" fill-rule="nonzero">
                <g id="Shape">
                    <path d="M26.8542667,2.40363636 C29.2038667,2.40363636 31.9925333,3.98727273 34.7693333,8.04090909 C40.3822667,16.2427273 44.0609333,23.44 49.5314667,29.9518182 C49.306,26.0163636 48.8669333,19.4454545 49.0924,11.2790909 C49.2466667,5.60636364 52.0234667,2.65181818 54.7528,2.65181818 C57.4109333,2.65181818 60.0334667,5.45272727 60.1521333,11.2909091 C60.3182667,19.2327273 59.5588,25.5672727 60.5793333,32.3627273 C60.7454667,33.4263636 60.9234667,34.36 61.0896,35.3054545 C61.8253333,31.6890909 62.9408,26.7490909 64.8632,21.0881818 C66.5364,16.1954545 69.1233333,14.0445455 71.3186667,14.0445455 C74.1904,14.0445455 76.3738667,17.7554545 74.8312,23.83 C73.0037333,31.0154545 70.7490667,36.5345455 69.9777333,42.9045455 C69.6573333,45.54 69.7404,47.4427273 68.8978667,50.5036364 C68.8385333,52.3 69.0402667,56.1054545 70.9745333,61.3290909 C70.9745333,61.3290909 70.9745333,61.3409091 70.9864,61.3527273 C71.1881333,61.8963636 71.4017333,62.4636364 71.6509333,63.0427273 C71.6984,63.1609091 71.7458667,63.2790909 71.7933333,63.3972727 C71.8526667,63.5509091 71.9001333,63.7045455 71.9713333,63.8463636 C71.9832,63.8936364 72.0069333,63.9409091 72.0188,63.9763636 C72.3154667,64.7681818 72.6121333,65.5363636 72.8969333,66.2572727 C76.7417333,75.83 80.7882667,80.8054545 84.4432,89.7281818 C92.9872,110.563636 74.9617333,125.584545 56.8057333,125.584545 C49.7688,125.584545 42.7081333,123.327273 37.1664,118.280909 C21.0396,103.579091 18.8324,104.571818 10.4664,95.33 C-1.3884,82.2236364 3.4888,76.8936364 9.87306667,76.8936364 C11.8548,76.8936364 13.9908,77.4136364 15.8182667,78.3590909 C27.2933333,84.3863636 25.5252,90.78 32.0993333,93.0727273 C34.7930667,94.0181818 37.1782667,94.4436364 39.2668,94.4436364 C58.6450667,94.4436364 52.4269333,57.8663636 34.71,57.8663636 C32.9893333,57.8663636 31.1618667,58.2090909 29.2394667,58.9654545 C24.6708,60.7618182 23.9588,65.5718182 16.2336,70.8663636 C14.8096,71.8354545 13.0177333,72.3081818 11.214,72.3081818 C6.21813333,72.3081818 1.19853333,68.68 4.18893333,62.2036364 C5.8384,58.6345455 17.7406667,44.9254545 20.7192,43.4245455 C23.7808,41.8763636 33.2266667,40.08 38.7684,39.6072727 C36.6561333,36.3809091 30.1888,27.9663636 22.4398667,16.0418182 C18.5832,10.1090909 21.6685333,2.40363636 26.8542667,2.40363636 L26.8542667,2.40363636 Z M26.8542667,0.04 C23.9469333,0.04 21.2888,1.74181818 19.7342667,4.59 C17.6338667,8.43090909 17.9186667,13.43 20.4462667,17.3181818 C25.632,25.3072727 30.2956,31.7836364 33.3809333,36.0618182 C33.7962667,36.6409091 34.1997333,37.1963636 34.5676,37.7045455 C29.2038667,38.4727273 22.4398667,39.8909091 19.6512,41.2972727 C16.0793333,43.0936364 3.8448,57.2990909 2.04106667,61.1990909 C0.510266667,64.5081818 0.5696,67.7227273 2.19533333,70.2518182 C3.6668,72.5327273 6.3368,74.0809091 9.41026667,74.53 C5.67226667,74.66 2.7412,76.35 1.51893333,79.0918182 C-0.439066667,83.4645455 1.98173333,89.4681818 8.71013333,96.9136364 C13.2076,101.889091 16.02,104.016364 19.9122667,106.970909 C23.4722667,109.677273 27.9104,113.033636 35.5644,120.018182 C41.1773333,125.135455 48.7126667,127.948182 56.8057333,127.948182 C68.0790667,127.948182 79.0438667,122.5 84.7161333,114.085455 C89.6408,106.793636 90.3172,97.8236364 86.6385333,88.83 C84.8229333,84.3863636 82.8768,80.8527273 81.0018667,77.4372727 C79.0438667,73.8681818 77.0265333,70.1809091 75.0922667,65.3827273 C74.8193333,64.6972727 74.5345333,63.9527273 74.2497333,63.1963636 L74.2378667,63.1609091 L74.2378667,63.1490909 L74.2022667,63.0190909 L74.0836,62.7827273 L74.0598667,62.7236364 L73.9886667,62.5463636 L73.8344,62.1681818 L73.8225333,62.1445455 L73.8106667,62.1209091 C73.5852,61.5890909 73.3834667,61.0454545 73.1936,60.5490909 L73.0274667,60.1 C71.4136,55.5618182 71.2237333,52.2881818 71.2474667,50.8581818 C71.8408,48.6245455 71.9832,46.9345455 72.1137333,45.2918182 C72.1730667,44.63 72.2324,43.9327273 72.3154667,43.2118182 C72.7901333,39.2527273 73.87,35.6718182 75.1041333,31.5236364 C75.7686667,29.29 76.4688,26.9854545 77.1096,24.4327273 C78.1894667,20.19 77.7385333,16.3963636 75.8873333,14.0209091 C74.7244,12.5318182 73.0868,11.7045455 71.2949333,11.7045455 C67.6874667,11.7045455 64.436,14.9309091 62.5848,20.3436364 C62.5254667,20.5209091 62.4661333,20.6863636 62.4068,20.8636364 C62.4186667,20.3081818 62.4305333,19.7527273 62.4424,19.1736364 C62.4898667,16.6681818 62.5492,14.08 62.4898667,11.2554545 C62.3356,3.69181818 58.4789333,0.3 54.7172,0.3 C49.4009333,0.3 46.8258667,5.96090909 46.6834667,11.22 C46.5648,15.38 46.6241333,19.1027273 46.7309333,22.3054545 C45.2476,20.1190909 43.8354667,17.85 42.3758667,15.51 C40.6196,12.6972727 38.804,9.79 36.6917333,6.71727273 C32.9656,1.19818182 29.2750667,0.04 26.8542667,0.04 L26.8542667,0.04 Z M11.7717333,74.6481818 C13.9196,74.5536364 15.9725333,73.9036364 17.5745333,72.8045455 C21.7990667,69.9090909 24.0537333,67.1554545 25.8693333,64.9572727 C27.4238667,63.0663636 28.4562667,61.8136364 30.1057333,61.1636364 C31.684,60.5490909 33.2266667,60.23 34.6981333,60.23 C43.0166667,60.23 48.8076,70.6536364 48.8076,80.0136364 C48.8076,82.85 48.1193333,92.08 39.2668,92.08 C37.38,92.08 35.2321333,91.6663636 32.8825333,90.8509091 C30.6516,90.0709091 29.7616,88.7472727 28.2782667,86.5490909 C26.3677333,83.7245455 23.7452,79.8481818 16.9337333,76.2672727 C15.3436,75.44 13.5636,74.8845455 11.7717333,74.6481818 L11.7717333,74.6481818 Z"></path>
                </g>
            </g>
            <path d="M231.768123,133.601709 C215.716618,118.922519 213.519723,119.913718 205.192783,110.686124 C189.731841,93.528936 202.865964,89.7175386 210.519662,93.7413358 C221.941153,99.7593317 220.181275,106.143127 226.724714,108.432326 C256.760755,118.934319 247.654271,65.0083555 223.8782,74.3657491 C219.330864,76.1593479 218.622188,80.9619446 210.933057,86.248341 C205.582555,89.9299385 194.905173,86.3899409 198.944625,77.5989469 C200.586391,74.0353493 212.433087,60.3473587 215.397714,58.8487597 C218.445019,57.3029608 227.846784,55.509362 233.362644,55.0373623 C231.260239,51.8159645 224.823101,43.4143703 217.110347,31.5081784 C211.535431,22.9177843 220.535613,10.5513928 229.382248,23.5313839 C234.968976,31.7205783 238.630467,38.9067734 244.075459,45.4085689 C243.851045,41.4791716 243.414028,34.9183761 243.638442,26.7645817 C243.933724,15.5899893 254.410313,14.9763897 254.646539,26.7763817 C254.811896,34.7059762 254.055976,41.0307719 255.071744,47.8157673 C255.237102,48.8777665 255.414271,49.8099659 255.579628,50.7539653 C256.311927,47.1431677 257.422185,42.2107711 259.33561,36.558575 C263.17427,25.2659827 271.961849,28.6053804 269.25707,39.2961731 C267.438136,46.4705682 265.193996,51.9811644 264.426264,58.3413601 C264.10736,60.9727583 264.190039,62.872557 263.351439,65.9287549 C263.292383,67.7223537 263.493174,71.5219511 265.41841,76.7375475 C265.41841,76.7375475 265.41841,76.7493475 265.430221,76.7611475 C265.631013,77.3039471 265.843615,77.8703467 266.091652,78.4485463 C266.138897,78.5665462 266.186142,78.6845462 266.233387,78.8025461 C266.292443,78.955946 266.339688,79.1093459 266.410556,79.2509458 C266.422367,79.2981457 266.44599,79.3453457 266.457801,79.3807457 C266.753083,80.1713451 267.048364,80.9383446 267.331834,81.6581441 C271.158684,91.2161376 275.186324,96.1839342 278.824193,105.092928 C290.623644,133.967508 251.504743,151.655696 231.768123,133.601709 Z" id="Path" fill="#FF6680" fill-rule="nonzero"></path>
            <path d="M205,88.8995816 C205,95.4427066 199.674651,100.774582 193.139535,100.774582 L192.321163,100.774582 C189.154419,100.774582 186.177442,99.5395816 183.935814,97.2952066 L180.01,93.3645816 C178.681628,92.0345816 176.843256,91.2745816 174.969302,91.2745816 L171.790698,91.2745816 L171.790698,97.2120816 C171.790698,97.8652066 171.256977,98.3995816 170.604651,98.3995816 L168.244419,98.3995816 C167.592093,98.3995816 167.058372,97.8652066 167.058372,97.2120816 L167.058372,95.4308316 C167.058372,94.4452066 166.263721,93.6495816 165.279302,93.6495816 C164.294884,93.6495816 163.500233,94.4452066 163.500233,95.4308316 L163.500233,96.0245816 L152.813953,96.0245816 L152.813953,143.524582 C152.813953,144.830832 151.746512,145.899582 150.44186,145.899582 L17.6046512,145.899582 C16.3,145.899582 15.2325581,144.830832 15.2325581,143.524582 L15.2325581,93.6495816 L14.0465116,92.4620816 L12.8604651,93.6495816 L11.6744186,92.4620816 L10.4883721,93.6495816 L9.30232558,92.4620816 L8.11627907,93.6495816 L6.93023256,92.4620816 L5.74418605,93.6495816 L5.74418605,98.3995816 L1,98.3995816 L1,91.2745816 L3.37209302,91.2745816 L3.37209302,86.5245816 L1,86.5245816 L1,79.3995816 L5.74418605,79.3995816 L5.74418605,85.3370816 L6.93023256,84.1495816 L8.11627907,85.3370816 L9.30232558,84.1495816 L10.4883721,85.3370816 L11.6744186,84.1495816 L12.8604651,85.3370816 L14.0465116,84.1495816 L15.2325581,85.3370816 L15.2325581,34.2745816 C15.2325581,32.9683316 16.3,31.8995816 17.6046512,31.8995816 L150.44186,31.8995816 C151.746512,31.8995816 152.813953,32.9683316 152.813953,34.2745816 L152.813953,81.7745816 L163.500233,81.7745816 L163.500233,82.3683316 C163.500233,83.3539566 164.294884,84.1495816 165.279302,84.1495816 C166.263721,84.1495816 167.058372,83.3539566 167.058372,82.3683316 L167.058372,80.5870816 C167.058372,79.9220816 167.592093,79.3995816 168.244419,79.3995816 L170.604651,79.3995816 C171.256977,79.3995816 171.790698,79.9220816 171.790698,80.5870816 L171.790698,86.5245816 L174.969302,86.5245816 C178.147907,86.5245816 181.124884,87.7595816 183.354651,90.0039566 L187.292326,93.9345816 C188.620698,95.2645816 190.447209,96.0245816 192.321163,96.0245816 L193.139535,96.0245816 C197.065349,96.0245816 200.255814,92.8302066 200.255814,88.8995816 C200.255814,84.9689566 197.065349,81.7745816 193.139535,81.7745816 C191.823023,81.7745816 190.767442,80.7058316 190.767442,79.3995816 C190.767442,78.0814566 191.823023,77.0245816 193.139535,77.0245816 C199.674651,77.0245816 205,82.3445816 205,88.8995816 Z" id="Path" stroke="#000000" stroke-width="6" fill="#000000" fill-rule="nonzero" opacity="0.1" stroke-linecap="round" stroke-linejoin="round"></path>
            <g id="Group" transform="translate(147.000000, 76.899582)" fill-rule="nonzero" stroke-linecap="round" stroke-linejoin="round">
                <path d="M57.7869388,12 C57.7869388,5.388 52.4722449,0 45.9502041,0 C44.6481633,0 43.5828571,1.08 43.5828571,2.4 C43.5828571,3.72 44.6481633,4.8 45.9502041,4.8 C49.8681633,4.8 53.0522449,8.028 53.0522449,12 C53.0522449,15.972 49.8681633,19.2 45.9502041,19.2 L45.1334694,19.2 C43.2632653,19.2 41.4404082,18.432 40.1146939,17.088 L36.1967347,13.116 C33.9595918,10.848 30.9885714,9.6 27.8281633,9.6 L22.2767347,9.6 C20.9746939,9.6 19.9093878,10.68 19.9093878,12 C19.9093878,13.32 20.9746939,14.4 22.2767347,14.4 L27.8281633,14.4 C29.6983673,14.4 31.5212245,15.168 32.8469388,16.512 L36.764898,20.484 C39.0020408,22.752 41.9730612,24 45.1334694,24 L45.9502041,24 C52.4722449,24 57.7869388,18.612 57.7869388,12 Z" id="Path" stroke="#7C87A5" fill="#E6E7E8"></path>
                <polygon id="Rectangle" stroke="#7C87A5" fill="#E6E7E8" transform="translate(7.489812, 11.993040) rotate(90.000000) translate(-7.489812, -11.993040) " points="0.289812245 5.47691755 14.6898122 5.47691755 14.6898122 18.5091624 0.289812245 18.5091624"></polygon>
                <polygon id="Rectangle" stroke="#231F20" fill="#231F20" opacity="0.1" transform="translate(7.489339, 6.592560) rotate(90.000000) translate(-7.489339, -6.592560) " points="5.68933878 0.076437551 9.28933878 0.076437551 9.28933878 13.1086824 5.68933878 13.1086824"></polygon>
                <polygon id="Rectangle" stroke="#231F20" fill="#231F20" opacity="0.1" transform="translate(7.488392, 17.391600) rotate(90.000000) translate(-7.488392, -17.391600) " points="5.68839184 10.8754776 9.28839184 10.8754776 9.28839184 23.9077224 5.68839184 23.9077224"></polygon>
                <path d="M21.104898,21.6 L23.4604082,21.6 C24.1114286,21.6 24.6440816,21.06 24.6440816,20.4 L24.6440816,3.6 C24.6440816,2.94 24.1114286,2.4 23.4604082,2.4 L21.104898,2.4 C20.4538776,2.4 19.9212245,2.94 19.9212245,3.6 L19.9212245,5.4 C19.9212245,6.396 19.1281633,7.2 18.1457143,7.2 L18.1457143,7.2 C17.1632653,7.2 16.3702041,6.396 16.3702041,5.4 L16.3702041,4.8 L14.0028571,4.8 L14.0028571,19.2 L16.3702041,19.2 L16.3702041,18.6 C16.3702041,17.604 17.1632653,16.8 18.1457143,16.8 L18.1457143,16.8 C19.1281633,16.8 19.9212245,17.604 19.9212245,18.6 L19.9212245,20.4 C19.9212245,21.06 20.4538776,21.6 21.104898,21.6 Z" id="Path" stroke="#7C87A5" fill="#8592AF"></path>
                <path d="M19.9212245,5.4 C19.9212245,6.396 19.1281633,7.2 18.1457143,7.2 L18.1457143,7.2 C17.1632653,7.2 16.3702041,6.396 16.3702041,5.4 L16.3702041,4.8 L16.3702041,19.2 L16.3702041,18.6 C16.3702041,17.604 17.1632653,16.8 18.1457143,16.8 L18.1457143,16.8 C19.1281633,16.8 19.9212245,17.604 19.9212245,18.6 L19.9212245,5.4 Z" id="Path" stroke="#7C87A5" fill="#7C87A5"></path>
            </g>
            <g id="Group" transform="translate(0.000000, 31.899582)">
                <g transform="translate(0.000000, 47.500000)" fill="#414757" fill-rule="nonzero" stroke="#414757" stroke-linecap="round" stroke-linejoin="round">
                    <g>
                        <polygon id="Path" points="0.97255814 0 5.71674419 0 5.71674419 19 0.97255814 19 0.97255814 11.875 3.34465116 11.875 3.34465116 7.125 0.97255814 7.125"></polygon>
                        <polygon id="Rectangle" transform="translate(10.460456, 9.495725) rotate(-90.000000) translate(-10.460456, -9.495725) " points="8.08545581 4.75153895 12.8354558 4.75153895 12.8354558 14.239911 8.08545581 14.239911"></polygon>
                        <polygon id="Path" points="5.71674419 11.875 5.71674419 14.25 6.9027907 13.0625 8.08883721 14.25 9.27488372 13.0625 10.4609302 14.25 10.4609302 11.875"></polygon>
                        <polygon id="Path" points="10.4609302 11.875 10.4609302 14.25 11.6469767 13.0625 12.8330233 14.25 14.0190698 13.0625 15.2051163 14.25 15.2051163 11.875"></polygon>
                        <polygon id="Path" points="4.53069767 7.125 4.53069767 4.75 5.71674419 5.9375 6.9027907 4.75 8.08883721 5.9375 9.27488372 4.75 9.27488372 7.125"></polygon>
                        <polygon id="Path" points="9.27488372 7.125 9.27488372 4.75 10.4609302 5.9375 11.6469767 4.75 12.8330233 5.9375 14.0190698 4.75 15.2051163 5.9375 15.2051163 7.125"></polygon>
                    </g>
                    <polygon id="Rectangle" transform="translate(10.460456, 9.495725) rotate(-90.000000) translate(-10.460456, -9.495725) " points="8.08545581 4.75153895 12.8354558 4.75153895 12.8354558 14.239911 8.08545581 14.239911"></polygon>
                    <polygon id="Path" points="5.71674419 11.875 5.71674419 14.25 6.9027907 13.0625 8.08883721 14.25 9.27488372 13.0625 10.4609302 14.25 10.4609302 11.875"></polygon>
                    <polygon id="Path" points="10.4609302 11.875 10.4609302 14.25 11.6469767 13.0625 12.8330233 14.25 14.0190698 13.0625 15.2051163 14.25 15.2051163 11.875"></polygon>
                    <polygon id="Path" points="4.53069767 7.125 4.53069767 4.75 5.71674419 5.9375 6.9027907 4.75 8.08883721 5.9375 9.27488372 4.75 9.27488372 7.125"></polygon>
                    <polygon id="Path" points="9.27488372 7.125 9.27488372 4.75 10.4609302 5.9375 11.6469767 4.75 12.8330233 5.9375 14.0190698 4.75 15.2051163 5.9375 15.2051163 7.125"></polygon>
                </g>
                <path d="M15.2051163,2.375 L15.2051163,111.625 C15.2051163,112.93125 16.2725581,114 17.5772093,114 L150.414419,114 C151.71907,114 152.786512,112.93125 152.786512,111.625 L152.786512,2.375 C152.786512,1.06875 151.71907,0 150.414419,0 L17.5772093,0 C16.2725581,0 15.2051163,1.06875 15.2051163,2.375 Z M62.8960465,50.75375 C65.5765116,51.644375 67.3911628,54.161875 67.3911628,57 C67.3911628,58.425 66.9404651,59.755 66.145814,60.8475 C65.3630233,61.951875 64.2362791,62.795 62.8960465,63.24625 L52.4232558,66.749375 C45.7813953,68.958125 38.9260465,64.00625 38.9260465,57 C38.9260465,49.99375 45.7813953,45.041875 52.4232558,47.250625 L62.8960465,50.75375 Z" id="Shape" stroke="#7C87A5" fill="#8592AF" fill-rule="nonzero" stroke-linecap="round" stroke-linejoin="round"></path>
                <path d="M24.6934884,104.5 L143.29814,104.5 L143.29814,9.5 L24.6934884,9.5 L24.6934884,104.5 Z M62.8960465,50.75375 C65.5765116,51.644375 67.3911628,54.161875 67.3911628,57 C67.3911628,58.425 66.9404651,59.755 66.145814,60.8475 C65.3630233,61.951875 64.2362791,62.795 62.8960465,63.24625 L52.4232558,66.749375 C45.7813953,68.958125 38.9260465,64.00625 38.9260465,57 C38.9260465,49.99375 45.7813953,45.041875 52.4232558,47.250625 L62.8960465,50.75375 Z" id="Shape" stroke="#7C87A5" fill="#8592AF" fill-rule="nonzero" stroke-linecap="round" stroke-linejoin="round"></path>
                <path d="M29.4376744,99.75 L138.553953,99.75 L138.553953,14.25 L29.4376744,14.25 L29.4376744,99.75 Z M38.9260465,57 C38.9260465,49.99375 45.7813953,45.041875 52.4232558,47.250625 L62.8960465,50.75375 C65.5765116,51.644375 67.3911628,54.161875 67.3911628,57 C67.3911628,58.425 66.9404651,59.755 66.145814,60.8475 C65.3630233,61.951875 64.2362791,62.795 62.8960465,63.24625 L52.4232558,66.749375 C45.7813953,68.958125 38.9260465,64.00625 38.9260465,57 Z" id="Shape" stroke="#7C87A5" fill="#5CB1D6" fill-rule="nonzero" stroke-linecap="round" stroke-linejoin="round"></path>
                <polygon id="Path" stroke="#7C87A5" fill="#8592AF" fill-rule="nonzero" stroke-linecap="round" stroke-linejoin="round" points="138.553953 14.25 138.553953 99.75 110.088837 99.75 91.112093 14.25"></polygon>
                <path d="M24.6934884,104.5 L16.3911628,112.8125" id="Path" stroke="#7C87A5" stroke-linecap="round" stroke-linejoin="round"></path>
                <path d="M24.6934884,9.5 L16.3911628,1.1875" id="Path" stroke="#7C87A5" stroke-linecap="round" stroke-linejoin="round"></path>
                <path d="M151.600465,112.8125 L143.29814,104.5" id="Path" stroke="#7C87A5" stroke-linecap="round" stroke-linejoin="round"></path>
                <path d="M151.600465,1.1875 L143.29814,9.5" id="Path" stroke="#7C87A5" stroke-linecap="round" stroke-linejoin="round"></path>
                <path d="M145.670233,90.25 L148.042326,90.25" id="Path" stroke="#7C87A5" stroke-linecap="round" stroke-linejoin="round"></path>
                <path d="M145.670233,23.75 L148.042326,23.75" id="Path" stroke="#7C87A5" stroke-linecap="round" stroke-linejoin="round"></path>
                <path d="M19.9493023,90.25 L22.3213953,90.25" id="Path" stroke="#7C87A5" stroke-linecap="round" stroke-linejoin="round"></path>
                <path d="M19.9493023,23.75 L22.3213953,23.75" id="Path" stroke="#7C87A5" stroke-linecap="round" stroke-linejoin="round"></path>
                <path d="M43.6702326,4.75 L43.6702326,7.125" id="Path" stroke="#7C87A5" stroke-linecap="round" stroke-linejoin="round"></path>
                <path d="M129.065581,4.75 L129.065581,7.125" id="Path" stroke="#7C87A5" stroke-linecap="round" stroke-linejoin="round"></path>
                <path d="M43.6702326,106.875 L43.6702326,109.25" id="Path" stroke="#7C87A5" stroke-linecap="round" stroke-linejoin="round"></path>
                <path d="M129.065581,106.875 L129.065581,109.25" id="Path" stroke="#7C87A5" stroke-linecap="round" stroke-linejoin="round"></path>
                <ellipse id="Oval" fill="#FFBF00" fill-rule="nonzero" cx="83.995814" cy="57" rx="7.11627907" ry="7.125"></ellipse>
                <ellipse id="Oval" stroke="#7C87A5" fill="#8592AF" fill-rule="nonzero" stroke-linecap="round" stroke-linejoin="round" cx="83.995814" cy="73.625" rx="2.37209302" ry="2.375"></ellipse>
                <ellipse id="Oval" stroke="#7C87A5" fill="#8592AF" fill-rule="nonzero" stroke-linecap="round" stroke-linejoin="round" cx="83.995814" cy="40.375" rx="2.37209302" ry="2.375"></ellipse>
                <path d="M119.577209,40.375 L119.577209,73.625 C119.577209,74.93125 118.509767,76 117.205116,76 L117.205116,76 C115.900465,76 114.833023,74.93125 114.833023,73.625 L114.833023,40.375 C114.833023,39.06875 115.900465,38 117.205116,38 L117.205116,38 C118.509767,38 119.577209,39.06875 119.577209,40.375 Z" id="Path" fill="#FFBF00" fill-rule="nonzero"></path>
                <path d="M129.065581,30.875 L129.065581,83.125 C129.065581,84.43125 127.99814,85.5 126.693488,85.5 L126.693488,85.5 C125.388837,85.5 124.321395,84.43125 124.321395,83.125 L124.321395,30.875 C124.321395,29.56875 125.388837,28.5 126.693488,28.5 L126.693488,28.5 C127.99814,28.5 129.065581,29.56875 129.065581,30.875 Z" id="Path" fill="#FFBF00" fill-rule="nonzero"></path>
                <path d="M150.758372,2.030625 L143.29814,9.5 L143.29814,104.5 L24.6934884,104.5 L17.2332558,111.969375 C16.4860465,112.7175 17.0197674,114 18.0753488,114 L150.426279,114 C151.73093,114 152.798372,112.93125 152.798372,111.625 L152.798372,2.861875 C152.786512,1.805 151.505581,1.2825 150.758372,2.030625 Z" id="Path" stroke="#231F20" fill="#231F20" fill-rule="nonzero" opacity="0.1" stroke-linecap="round" stroke-linejoin="round"></path>
            </g>
            <g id="Group" transform="translate(71.000000, 0.899582)" fill="#FFFFFF" fill-rule="nonzero">
                <path d="M6.19272727,21.2386755 C7.20909091,16.627351 8.34363636,12.0160265 10.4354545,7.57066225 C10.9436364,6.45635762 11.5818182,5.36576159 12.3263636,4.29887417 C13.0827273,3.24384106 14.0281818,2.17695364 15.4463636,1.43013245 C15.7890909,1.24046358 16.2263636,1.12192053 16.6163636,0.979668874 C17.0418182,0.908543046 17.4909091,0.825562914 17.9281818,0.837417219 C18.3536364,0.884834437 18.8263636,0.908543046 19.2281818,1.02708609 C19.6181818,1.16933775 20.0318182,1.2997351 20.3863636,1.48940397 C21.8281818,2.24807947 22.6909091,3.32682119 23.53,4.3581457 C25.09,6.46821192 26.1181818,8.7205298 27.04,10.9609934 C27.95,13.2133113 28.6945455,15.4893377 29.3563636,17.7890728 C30.6918182,22.3766887 31.6845455,27.0117219 32.5472727,31.6586093 C34.2727273,40.9523841 35.3127273,50.3291391 36.0572727,59.705894 C36.8018182,69.0945033 37.1681818,78.4949669 37.2745455,87.8954305 C37.3454545,97.3077483 37.0972727,106.720066 36.5063636,116.12053 C35.8918182,125.520993 35.0290909,134.933311 33.4454545,144.298212 C32.6418182,148.980662 31.72,153.651258 30.4318182,158.31 C29.8054545,160.633444 29.0845455,162.968742 28.1863636,165.280331 C27.2763636,167.603775 26.26,169.927219 24.6172727,172.238808 C23.7190909,173.376821 22.7854545,174.58596 21.0481818,175.546159 C20.6227273,175.783245 20.1027273,175.96106 19.6181818,176.138874 C19.1218182,176.304834 18.5190909,176.352252 17.9754545,176.399669 C17.42,176.423377 16.8409091,176.328543 16.2972727,176.233709 C15.8009091,176.079603 15.2572727,175.913642 14.82,175.688411 C13.0472727,174.775629 11.9718182,173.554636 11.1327273,172.416623 C10.2936364,171.254901 9.60818182,170.093179 9.05272727,168.943311 C6.80727273,164.308278 5.59,159.649536 4.49090909,154.97894 C4.11272727,153.390464 5.10545455,151.790132 6.68909091,151.410795 C8.26090909,151.043311 9.83272727,151.991656 10.2227273,153.556424 L10.2345455,153.591987 C10.8018182,155.796887 11.4163636,157.978079 12.1254545,160.1 C12.8227273,162.221921 13.6145455,164.28457 14.5718182,166.145695 C15.0327273,167.082185 15.5645455,167.923841 16.1081818,168.658808 C16.64,169.393775 17.2545455,169.891656 17.5618182,170.033907 C17.6445455,170.081325 17.68,170.045762 17.7272727,170.093179 C17.7509091,170.057616 17.7627273,170.093179 17.7863636,170.081325 C17.81,170.033907 17.81,170.093179 17.8572727,170.057616 C17.9163636,169.998344 17.9518182,170.022053 18.0345455,169.974636 C18.3772727,169.82053 18.9681818,169.156689 19.4763636,168.469139 C20.54,166.975497 21.45,164.995828 22.23,162.968742 C23.01,160.929801 23.6718182,158.784172 24.2627273,156.60298 C25.4445455,152.240596 26.3427273,147.73596 27.0990909,143.207616 C30.1009091,125.046821 31.1881818,106.435563 31.3536364,87.8835762 C31.5309091,69.3315894 30.6681818,50.7084768 27.9972727,32.4054305 C27.3,27.8415232 26.4727273,23.3013245 25.35,18.8678146 C24.7945455,16.6510596 24.1563636,14.4580132 23.3763636,12.3598013 C22.6081818,10.2615894 21.6981818,8.2107947 20.5636364,6.51562914 C19.9845455,5.72139073 19.3345455,4.92715232 18.6963636,4.58337748 C18.0581818,4.23960265 17.5972727,4.15662252 16.9236364,4.45298013 C16.2618182,4.76119205 15.5290909,5.4013245 14.9027273,6.23112583 C14.2763636,7.04907285 13.6854545,7.9618543 13.1772727,8.94576159 C11.1209091,12.893245 9.75,17.3504636 8.52090909,21.7839735 L8.52090909,21.8076821 C8.34363636,22.4478146 7.68181818,22.815298 7.05545455,22.6374834 C6.42909091,22.4833775 6.06272727,21.8550993 6.19272727,21.2386755 Z" id="Path"></path>
                <path d="M2.50545455,159.815497 L14.5718182,157.160132 C15.4345455,156.970464 15.7181818,155.879868 15.0681818,155.287152 L7.19727273,148.186424 C6.64181818,147.688543 5.76727273,147.878212 5.47181818,148.565762 L1.28818182,158.321854 C0.921818182,159.139801 1.64272727,160.005166 2.50545455,159.815497 Z" id="Path"></path>
                <g opacity="0.25" transform="translate(0.000000, 145.993377)">
                    <g>
                        <path d="M2.25727273,14.4503974 C1.70181818,14.4503974 1.17,14.165894 0.862727273,13.6917219 C0.555454545,13.2175497 0.496363636,12.6248344 0.720909091,12.103245 L4.90454545,2.34715232 C5.16454545,1.73072848 5.77909091,1.32768212 6.44090909,1.32768212 C6.85454545,1.32768212 7.24454545,1.48178808 7.56363636,1.75443709 L15.4345455,8.85516556 C15.9072727,9.28192053 16.0963636,9.92205298 15.9309091,10.5384768 C15.7654545,11.1549007 15.2927273,11.6172185 14.6663636,11.7476159 L2.6,14.4029801 C2.50545455,14.4266887 2.38727273,14.4503974 2.25727273,14.4503974 L2.25727273,14.4503974 Z" id="Path"></path>
                        <path d="M6.45272727,1.92039735 C6.71272727,1.92039735 6.96090909,2.01523179 7.17363636,2.20490066 L15.0445455,9.30562914 C15.7063636,9.89834437 15.4109091,10.9889404 14.5481818,11.1786093 L2.48181818,13.8339735 C2.39909091,13.8576821 2.31636364,13.8576821 2.24545455,13.8576821 C1.50090909,13.8576821 0.945454545,13.075298 1.25272727,12.3403311 L5.43636364,2.58423841 C5.63727273,2.15748344 6.05090909,1.92039735 6.45272727,1.92039735 L6.45272727,1.92039735 Z M6.45272727,0.734966887 C5.54272727,0.734966887 4.72727273,1.2802649 4.37272727,2.11006623 L0.189090909,11.8661589 C-0.118181818,12.5655629 -0.0472727273,13.3716556 0.378181818,14.0117881 C0.803636364,14.6519205 1.50090909,15.0431126 2.26909091,15.0431126 C2.43454545,15.0431126 2.6,15.019404 2.76545455,14.9838411 L14.8318182,12.3284768 C15.6709091,12.1506623 16.3209091,11.5105298 16.5336364,10.6925828 C16.7463636,9.86278146 16.4863636,8.99741722 15.86,8.41655629 L7.98909091,1.31582781 C7.55181818,0.948344371 7.02,0.734966887 6.45272727,0.734966887 L6.45272727,0.734966887 Z" id="Shape"></path>
                    </g>
                </g>
                <g opacity="0.25" transform="translate(2.363636, 0.000000)" id="Path">
                    <path d="M3.39181818,21.1319868 C4.36090909,16.4850993 5.46,11.8500662 7.55181818,7.30986755 C8.07181818,6.1718543 8.69818182,5.04569536 9.47818182,3.93139073 C10.2581818,2.8407947 11.2390909,1.69092715 12.8109091,0.849271523 C13.1890909,0.63589404 13.6736364,0.493642384 14.1109091,0.351390728 C14.5836364,0.268410596 15.0918182,0.173576159 15.5881818,0.185430464 C16.0727273,0.232847682 16.6045455,0.256556291 17.0418182,0.398807947 C17.4790909,0.552913907 17.94,0.707019868 18.33,0.908543046 C19.9136364,1.75019868 20.8354545,2.87635762 21.7218182,3.95509934 C23.3645455,6.1481457 24.4045455,8.42417219 25.3618182,10.7001987 C26.2954545,12.9762252 27.0636364,15.2759603 27.7372727,17.5875497 C29.1081818,22.1988742 30.1363636,26.8576159 31.0345455,31.5163576 C32.8309091,40.8456954 33.9063636,50.2343046 34.6863636,59.6466225 C35.4663636,69.0589404 35.8681818,78.4831126 36.0218182,87.9072848 C36.1281818,97.3433113 35.88,106.779338 35.3127273,116.215364 C34.71,125.651391 33.8827273,135.099272 32.2754545,144.511589 C31.4718182,149.217748 30.5263636,153.923907 29.2381818,158.641921 C28.6,161.000927 27.8672727,163.359934 26.9454545,165.730795 C26.0118182,168.101656 24.9718182,170.496225 23.2227273,172.961921 C23.0336364,173.270132 22.7381818,173.590199 22.4781818,173.898411 C22.1945455,174.206623 21.9818182,174.514834 21.6154545,174.823046 C21.2727273,175.131258 20.9418182,175.43947 20.5872727,175.735828 C20.15,176.04404 19.7127273,176.328543 19.2518182,176.601192 C18.7672727,176.861987 18.1527273,177.087219 17.5854545,177.288742 C17.0063636,177.478411 16.2854545,177.537682 15.6354545,177.596954 C14.9736364,177.620662 14.3,177.525828 13.65,177.407285 C13.0709091,177.22947 12.4209091,177.039801 11.9245455,176.779007 C9.88,175.723974 8.72181818,174.360728 7.81181818,173.139735 C6.92545455,171.906887 6.20454545,170.67404 5.63727273,169.476755 C3.32090909,164.675762 2.11545455,159.969603 1.02818182,155.251589 C0.52,153.058543 1.89090909,150.865497 4.07727273,150.355762 C6.22818182,149.857881 8.36727273,151.161854 8.92272727,153.295629 L8.93454545,153.354901 C9.50181818,155.536093 10.1281818,157.693576 10.8372727,159.768079 C11.5345455,161.842583 12.3145455,163.869669 13.2245455,165.63596 C13.6736364,166.536887 14.17,167.319272 14.6545455,167.959404 C15.1272727,168.623245 15.6472727,168.978874 15.6827273,168.96702 C15.6945455,168.978874 15.6354545,168.907748 15.6,168.943311 C15.5290909,168.88404 15.4345455,168.907748 15.3518182,168.895894 C15.2690909,168.848477 15.1627273,168.931457 15.1272727,168.919603 C15.1036364,168.88404 15.0563636,168.943311 15.0681818,168.931457 C15.1509091,168.931457 15.6709091,168.374305 16.12,167.769735 C17.0772727,166.430199 17.9754545,164.521656 18.72,162.553841 C19.4881818,160.574172 20.1381818,158.464106 20.7054545,156.306623 C21.8754545,152.00351 22.7618182,147.534437 23.5063636,143.029801 C26.5081818,124.975695 27.6309091,106.411854 27.8436364,87.9072848 C28.1036364,69.4027152 27.2881818,50.8151656 24.7472727,32.5713907 C24.0854545,28.0193377 23.2936364,23.4909934 22.1945455,19.0930464 C21.6509091,16.8881457 21.0363636,14.7188079 20.2918182,12.6443046 C19.5590909,10.5698013 18.6609091,8.56642384 17.6090909,6.94238411 C17.0772727,6.18370861 16.4745455,5.44874172 15.99,5.17609272 C15.8718182,5.09311258 15.7772727,5.09311258 15.6709091,5.01013245 C15.5645455,4.96271523 15.4936364,4.99827815 15.4109091,4.93900662 C15.3281818,4.91529801 15.2454545,4.95086093 15.1509091,4.92715232 C15.0445455,4.98642384 14.95,4.96271523 14.82,5.03384106 C14.3,5.24721854 13.6027273,5.82807947 13.0118182,6.59860927 C12.4090909,7.36913907 11.83,8.24635762 11.3218182,9.20655629 C9.27727273,13.047351 7.85909091,17.4808609 6.58272727,21.8906623 L6.57090909,21.9143709 C6.32272727,22.7915894 5.40090909,23.2894702 4.53818182,23.0405298 C3.71090909,22.8271523 3.21454545,21.9736424 3.39181818,21.1319868 Z"></path>
                </g>
            </g>
            <path d="M223,74.5017264 C218.43391,76.2933035 217.708567,81.1222563 209.967617,86.4495285 C204.581057,90.1513302 193.831719,86.5919055 197.898393,77.7526676 C199.551223,74.1576487 211.477756,60.4064047 214.462362,58.8995816" id="Path" fill="#FF6680" fill-rule="nonzero"></path>
            <g id="Group" transform="translate(168.000000, 55.899582)" fill="#FFFFFF" fill-rule="nonzero">
                <path d="M12.8873684,1.96181818 L12.9105263,10.2581818 C12.9105263,10.8490909 13.5705263,11.1918182 14.0452632,10.8490909 L19.6957895,6.68909091 C20.0894737,6.39363636 20.0894737,5.79090909 19.6957895,5.50727273 L14.0221053,1.37090909 C13.5357895,1.01636364 12.8757895,1.37090909 12.8873684,1.96181818 Z" id="Path"></path>
                <g opacity="0.25" transform="translate(11.578947, 0.000000)">
                    <g>
                        <path d="M2.03789474,11.5818182 C1.32,11.5818182 0.741052632,10.9909091 0.741052632,10.27 L0.717894737,1.97363636 C0.717894737,1.61909091 0.845263158,1.28818182 1.08842105,1.04 C1.33157895,0.791818182 1.66736842,0.65 2.00315789,0.65 C2.26947368,0.65 2.53578947,0.732727273 2.75578947,0.898181818 L8.42947368,5.03454545 C8.76526316,5.28272727 8.97368421,5.68454545 8.97368421,6.11 C8.97368421,6.53545455 8.77684211,6.93727273 8.44105263,7.18545455 L2.79052632,11.3454545 C2.57052632,11.4872727 2.31578947,11.5818182 2.03789474,11.5818182 Z" id="Path"></path>
                        <path d="M2.01473684,1.22909091 C2.15368421,1.22909091 2.29263158,1.27636364 2.43157895,1.37090909 L8.10526316,5.50727273 C8.49894737,5.79090909 8.49894737,6.39363636 8.10526316,6.68909091 L2.45473684,10.8490909 C2.32736842,10.9436364 2.17684211,10.9909091 2.03789474,10.9909091 C1.66736842,10.9909091 1.32,10.6954545 1.32,10.2581818 L1.29684211,1.96181818 C1.29684211,1.52454545 1.64421053,1.22909091 2.01473684,1.22909091 L2.01473684,1.22909091 Z M2.01473684,0.0472727273 C1.51684211,0.0472727273 1.03052632,0.248181818 0.683157895,0.614545455 C0.335789474,0.969090909 0.138947368,1.45363636 0.138947368,1.96181818 L0.162105263,10.2581818 C0.162105263,11.31 1.00736842,12.1609091 2.03789474,12.1609091 C2.43157895,12.1609091 2.81368421,12.0309091 3.12631579,11.7945455 L8.77684211,7.63454545 C9.26315789,7.28 9.55263158,6.68909091 9.55263158,6.07454545 C9.55263158,5.46 9.26315789,4.88090909 8.76526316,4.52636364 L3.09157895,0.39 C2.77894737,0.165454545 2.40842105,0.0472727273 2.01473684,0.0472727273 L2.01473684,0.0472727273 Z" id="Shape"></path>
                    </g>
                </g>
                <g transform="translate(0.000000, 3.545455)" id="Path">
                    <path d="M12.8989474,2.56454545 L1.69052632,2.56454545"></path>
                    <path d="M12.8989474,4.33727273 L1.69052632,3.47454545 C1.20421053,3.43909091 0.833684211,3.00181818 0.868421053,2.50545455 C0.903157895,2.05636364 1.26210526,1.70181818 1.69052632,1.66636364 L12.8989474,0.803636364 C13.86,0.732727273 14.6936842,1.46545455 14.7631579,2.44636364 C14.8326316,3.42727273 14.1147368,4.27818182 13.1536842,4.34909091 C13.0726316,4.33727273 12.98,4.33727273 12.8989474,4.33727273 Z"></path>
                </g>
                <g opacity="0.25" transform="translate(0.000000, 2.363636)" id="Path">
                    <path d="M12.8989474,3.74636364 L1.69052632,3.74636364"></path>
                    <path d="M12.8989474,6.70090909 L1.69052632,5.25909091 C0.88,5.15272727 0.301052632,4.39636364 0.405263158,3.55727273 C0.497894737,2.86 1.04210526,2.32818182 1.69052632,2.24545455 L12.8989474,0.803636364 C14.4968421,0.602727273 15.9557895,1.74909091 16.1642105,3.38 C16.3610526,5.01090909 15.2378947,6.5 13.64,6.71272727 C13.3852632,6.72454545 13.1305263,6.72454545 12.8989474,6.70090909 Z"></path>
                </g>
            </g>
            <g id="Group" transform="translate(168.000000, 110.899582)" fill="#FFFFFF" fill-rule="nonzero">
                <path d="M8.78842105,10.3409091 L8.76526316,2.04454545 C8.76526316,1.45363636 8.10526316,1.11090909 7.63052632,1.45363636 L1.98,5.61363636 C1.58631579,5.90909091 1.58631579,6.51181818 1.98,6.79545455 L7.65368421,10.9318182 C8.12842105,11.2863636 8.78842105,10.9436364 8.78842105,10.3409091 Z" id="Path"></path>
                <g opacity="0.25">
                    <g>
                        <path d="M8.07052632,11.6645455 C7.80421053,11.6645455 7.53789474,11.5818182 7.31789474,11.4163636 L1.64421053,7.28 C1.30842105,7.03181818 1.1,6.64181818 1.1,6.21636364 C1.1,5.79090909 1.29684211,5.38909091 1.63263158,5.14090909 L7.28315789,0.969090909 C7.50315789,0.803636364 7.76947368,0.720909091 8.03578947,0.720909091 C8.75368421,0.720909091 9.33263158,1.31181818 9.33263158,2.03272727 L9.35578947,10.3290909 C9.35578947,10.6836364 9.22842105,11.0145455 8.98526316,11.2627273 C8.75368421,11.5227273 8.41789474,11.6645455 8.07052632,11.6645455 L8.07052632,11.6645455 Z" id="Path"></path>
                        <path d="M8.04736842,1.32363636 C8.41789474,1.32363636 8.76526316,1.61909091 8.76526316,2.05636364 L8.78842105,10.3527273 C8.78842105,10.7781818 8.44105263,11.0854545 8.07052632,11.0854545 C7.93157895,11.0854545 7.79263158,11.0381818 7.65368421,10.9436364 L1.98,6.80727273 C1.58631579,6.52363636 1.58631579,5.92090909 1.98,5.62545455 L7.63052632,1.46545455 C7.75789474,1.35909091 7.90842105,1.32363636 8.04736842,1.32363636 L8.04736842,1.32363636 Z M8.04736842,0.141818182 C7.65368421,0.141818182 7.27157895,0.271818182 6.95894737,0.508181818 L1.30842105,4.66818182 C0.822105263,5.02272727 0.532631579,5.61363636 0.532631579,6.22818182 C0.532631579,6.84272727 0.822105263,7.42181818 1.32,7.77636364 L6.99368421,11.9127273 C7.31789474,12.1490909 7.68842105,12.2672727 8.08210526,12.2672727 C8.58,12.2672727 9.06631579,12.0663636 9.41368421,11.7 C9.76105263,11.3454545 9.95789474,10.8609091 9.95789474,10.3527273 L9.93473684,2.05636364 C9.92315789,0.992727273 9.07789474,0.141818182 8.04736842,0.141818182 L8.04736842,0.141818182 Z" id="Shape"></path>
                    </g>
                </g>
                <g transform="translate(6.789474, 3.545455)" id="Path">
                    <path d="M1.98736842,2.64727273 L13.1957895,2.64727273"></path>
                    <path d="M1.98736842,0.874545455 L13.1957895,1.73727273 C13.6821053,1.77272727 14.0526316,2.21 14.0178947,2.70636364 C13.9831579,3.15545455 13.6242105,3.51 13.1957895,3.54545455 L1.98736842,4.40818182 C1.02631579,4.47909091 0.192631579,3.74636364 0.123157895,2.76545455 C0.0536842105,1.78454545 0.771578947,0.933636364 1.73263158,0.862727273 C1.81368421,0.874545455 1.90631579,0.874545455 1.98736842,0.874545455 Z"></path>
                </g>
                <g opacity="0.25" transform="translate(4.631579, 2.363636)" id="Path">
                    <path d="M4.14526316,3.82909091 L15.3536842,3.82909091"></path>
                    <path d="M4.14526316,0.874545455 L15.3536842,2.31636364 C16.1642105,2.42272727 16.7431579,3.17909091 16.6389474,4.01818182 C16.5463158,4.71545455 16.0021053,5.24727273 15.3536842,5.33 L4.14526316,6.77181818 C2.54736842,6.97272727 1.08842105,5.82636364 0.88,4.19545455 C0.683157895,2.56454545 1.80631579,1.07545455 3.40421053,0.862727273 C3.65894737,0.850909091 3.91368421,0.850909091 4.14526316,0.874545455 Z"></path>
                </g>
            </g>
        </g>
    </g>
</svg>