<svg width="400" height="220" xmlns="http://www.w3.org/2000/svg"><g fill="none" fill-rule="evenodd"><path d="M279.9 37.3c2.3 0 5 1.6 7.9 5.6 5.6 8.2 9.3 15.4 14.7 22-.2-4-.6-10.6-.4-18.7.1-5.7 3-8.6 5.7-8.6 2.6 0 5.2 2.8 5.4 8.6.1 8-.6 14.3.4 21l.5 3c.7-3.6 1.8-8.6 3.8-14.2 1.6-4.9 4.2-7 6.4-7 2.9 0 5 3.7 3.5 9.7-1.8 7.2-4 12.7-4.8 19.1-.3 2.6-.3 4.5-1.1 7.6a29.1 29.1 0 0 0 2.9 12.9l.2.4v.2l.9 2.3c3.8 9.5 7.9 14.5 11.5 23.4 8.6 20.9-9.4 35.9-27.6 35.9-7 0-14-2.3-19.6-7.3-16.2-14.7-18.4-13.7-26.7-23-11.9-13-7-18.4-.6-18.4 2 0 4 .5 6 1.5 11.4 6 9.6 12.4 16.2 14.7 2.7 1 5 1.3 7.2 1.3 19.3 0 13.1-36.5-4.6-36.5-1.7 0-3.5.3-5.5 1-4.5 1.9-5.2 6.7-13 12a9 9 0 0 1-5 1.4c-5 0-10-3.6-7-10.1a88.7 88.7 0 0 1 16.5-18.8c3-1.5 12.5-3.3 18-3.8-2-3.2-8.5-11.6-16.3-23.6-3.8-5.9-.7-13.6 4.5-13.6zm0-2.4c-3 0-5.6 1.7-7.2 4.6-2 3.8-1.8 8.8.7 12.7 5.2 8 9.9 14.5 13 18.8l1.2 1.6c-5.4.8-12.2 2.2-15 3.6A87.1 87.1 0 0 0 255 96.1c-1.5 3.3-1.4 6.5.2 9 1.5 2.3 4.1 3.9 7.2 4.3-3.7.2-6.7 1.8-7.9 4.6-2 4.4.5 10.4 7.2 17.8 4.5 5 7.3 7.1 11.2 10 3.6 2.8 8 6.1 15.7 13.1 5.6 5.1 13.1 8 21.2 8 11.3 0 22.2-5.5 28-14 4.8-7.2 5.5-16.2 1.8-25.2-1.8-4.4-3.7-8-5.6-11.4a106.5 106.5 0 0 1-6.8-14.2v-.2l-.1-.2-.1-.3-.2-.3-.6-1.7-.2-.4a27 27 0 0 1-1.8-9.2c.6-2.3.8-4 1-5.6l.1-2c.5-4 1.6-7.6 2.8-11.8.7-2.2 1.4-4.5 2-7 1-4.3.6-8.1-1.2-10.5a5.8 5.8 0 0 0-4.6-2.3c-3.6 0-6.9 3.2-8.7 8.6l-.2.6V54v-8c0-7.5-4-10.9-7.7-10.9-5.3 0-7.9 5.7-8 11v11l-4.3-6.8-5.7-8.8c-3.7-5.5-7.4-6.7-9.8-6.7zm-15.1 74.6c2.1 0 4.2-.7 5.8-1.8 4.2-2.9 6.5-5.6 8.3-7.8 1.5-2 2.6-3.2 4.2-3.8 1.6-.7 3.1-1 4.6-1 8.3 0 14.1 10.5 14.1 19.8 0 2.8-.7 12-9.5 12-2 0-4-.3-6.4-1.1-2.2-.8-3.1-2.2-4.6-4.4a28 28 0 0 0-11.4-10.2c-1.6-.9-3.3-1.4-5.1-1.7z" opacity=".1" fill="#000" fill-rule="nonzero"/><path d="M290.8 153.6c-16-14.7-18.3-13.7-26.6-23-15.5-17-2.3-20.9 5.3-16.9 11.4 6 9.7 12.4 16.2 14.7 30 10.5 21-43.4-2.8-34-4.6 1.8-5.3 6.6-13 11.8-5.3 3.7-16 .2-12-8.6a88.4 88.4 0 0 1 16.5-18.8c3-1.5 12.4-3.3 18-3.8-2.1-3.2-8.6-11.6-16.3-23.5-5.6-8.6 3.4-21 12.3-8 5.6 8.2 9.2 15.4 14.7 22-.2-4-.7-10.6-.5-18.7.3-11.2 10.8-11.8 11 0 .2 8-.5 14.2.5 21l.5 3c.7-3.7 1.8-8.6 3.7-14.2 3.9-11.3 12.7-8 10 2.7-1.9 7.2-4.1 12.7-4.9 19-.3 2.7-.2 4.6-1 7.6a29.2 29.2 0 0 0 2.7 12.5l.1.4.2.5 1 2.4c3.8 9.5 7.8 14.5 11.4 23.4 11.8 28.9-27.3 46.6-47 28.5z" fill="#FF6680" fill-rule="nonzero"/><path d="M264 108.9c0 6.5-5.3 11.9-11.9 11.9h-.8c-3.1 0-6.1-1.3-8.4-3.5l-3.9-4a7.2 7.2 0 0 0-5-2h-3.2v6c0 .6-.5 1.1-1.2 1.1h-2.4c-.6 0-1.1-.5-1.1-1.2v-1.8a1.8 1.8 0 1 0-3.6 0v.6h-10.7v47.5c0 1.3-1 2.4-2.4 2.4H76.6c-1.3 0-2.4-1-2.4-2.4v-49.9l-1.2-1.1-1.1 1.1-1.2-1.1-1.2 1.1-1.2-1.1-1.2 1.1-1.2-1.1-1.2 1.1v4.8H60v-7.1h2.4v-4.8H60v-7.1h4.7v6L66 104l1.2 1.2 1.2-1.2 1.2 1.2 1.2-1.2 1.2 1.2 1.1-1.2 1.2 1.2v-51c0-1.3 1.1-2.4 2.4-2.4h132.8c1.3 0 2.4 1 2.4 2.4v47.5h10.7v.6a1.8 1.8 0 1 0 3.6 0v-1.8c0-.7.5-1.2 1.1-1.2h2.4c.7 0 1.2.5 1.2 1.2v6h3.2c3.1 0 6.1 1.2 8.4 3.4l3.9 4c1.3 1.3 3.1 2 5 2h.8a7.1 7.1 0 0 0 0-14.2 2.4 2.4 0 0 1 0-4.8c6.6 0 11.9 5.3 11.9 11.9z" stroke="#000" stroke-width="6" fill="#000" fill-rule="nonzero" opacity=".1" stroke-linecap="round" stroke-linejoin="round"/><g fill-rule="nonzero" stroke-linecap="round" stroke-linejoin="round"><path d="M263.8 108.9a12 12 0 0 0-11.8-12c-1.4 0-2.4 1-2.4 2.4 0 1.3 1 2.4 2.4 2.4 3.9 0 7 3.2 7 7.2s-3.1 7.2-7 7.2h-.9a7 7 0 0 1-5-2.1l-3.9-4a11.7 11.7 0 0 0-8.4-3.5h-5.5c-1.3 0-2.4 1-2.4 2.4 0 1.3 1 2.4 2.4 2.4h5.5a7 7 0 0 1 5 2.1l4 4c2.2 2.3 5.2 3.5 8.3 3.5h.9a12 12 0 0 0 11.8-12zM220 101.7V116h-13v-14.4z" stroke="#7C87A5" fill="#E6E7E8"/><path stroke="#231F20" fill="#231F20" opacity=".1" d="M220 101.7v3.6h-13v-3.6zM220 112.5v3.6h-13v-3.6z"/><path d="M227.1 118.5h2.4c.6 0 1.1-.5 1.1-1.2v-16.8c0-.7-.5-1.2-1.1-1.2H227c-.6 0-1.2.5-1.2 1.2v1.8a1.8 1.8 0 1 1-3.6 0v-.6H220v14.4h2.4v-.6c0-1 .8-1.8 1.7-1.8 1 0 1.8.8 1.8 1.8v1.8c0 .7.6 1.2 1.2 1.2z" stroke="#7C87A5" fill="#8592AF"/><path d="M226 102.3c0 1-.9 1.8-1.9 1.8-1 0-1.7-.8-1.7-1.8v-.6 14.4-.6c0-1 .8-1.8 1.7-1.8 1 0 1.8.8 1.8 1.8v-13.2z" stroke="#7C87A5" fill="#7C87A5"/></g><g transform="translate(59 51.9)"><g fill="#414757" fill-rule="nonzero" stroke="#414757" stroke-linecap="round" stroke-linejoin="round"><path d="M1 47.5h4.7v19H1v-7.1h2.3v-4.8H1zM5.7 59.4v-4.8h9.5v4.8z"/><path d="M5.7 59.4v2.4L7 60.5l1.2 1.1 1.2-1.1 1.2 1.1v-2.3z"/><path d="M10.5 59.4v2.4l1.1-1.2 1.2 1.1 1.2-1.1 1.2 1.1v-2.3zM4.5 54.6v-2.4l1.2 1.2L7 52.3l1.2 1.1 1.2-1.1v2.3z"/><path d="M9.3 54.6v-2.4l1.2 1.2 1.1-1.1 1.2 1.1 1.2-1.1 1.2 1.1v1.2z"/><path d="M5.7 59.4v-4.8h9.5v4.8z"/><path d="M5.7 59.4v2.4L7 60.5l1.2 1.1 1.2-1.1 1.2 1.1v-2.3z"/><path d="M10.5 59.4v2.4l1.1-1.2 1.2 1.1 1.2-1.1 1.2 1.1v-2.3zM4.5 54.6v-2.4l1.2 1.2L7 52.3l1.2 1.1 1.2-1.1v2.3z"/><path d="M9.3 54.6v-2.4l1.2 1.2 1.1-1.1 1.2 1.1 1.2-1.1 1.2 1.1v1.2z"/></g><path d="M15.2 2.4v109.2c0 1.3 1 2.4 2.4 2.4h132.8c1.3 0 2.4-1 2.4-2.4V2.4c0-1.3-1-2.4-2.4-2.4H17.6c-1.3 0-2.4 1-2.4 2.4zM63 50.8a6.6 6.6 0 0 1 0 12.4l-10.5 3.5a10.3 10.3 0 1 1 0-19.4L63 50.8z" stroke="#7C87A5" fill="#8592AF" fill-rule="nonzero" stroke-linecap="round" stroke-linejoin="round"/><path d="M24.7 104.5h118.6v-95H24.7v95zm38.2-53.7a6.6 6.6 0 0 1 0 12.4l-10.5 3.5a10.3 10.3 0 1 1 0-19.4L63 50.8z" stroke="#7C87A5" fill="#8592AF" fill-rule="nonzero" stroke-linecap="round" stroke-linejoin="round"/><path d="M29.4 99.8h109.2V14.3H29.4v85.5zM39 57c0-7 6.9-12 13.5-9.7L63 50.8a6.6 6.6 0 0 1 0 12.4l-10.5 3.5A10.3 10.3 0 0 1 39 57z" stroke="#7C87A5" fill="#5CB1D6" fill-rule="nonzero" stroke-linecap="round" stroke-linejoin="round"/><path stroke="#7C87A5" fill="#8592AF" fill-rule="nonzero" stroke-linecap="round" stroke-linejoin="round" d="M138.6 14.3v85.5H110L91 14.3z"/><path d="M24.7 104.5l-8.3 8.3M24.7 9.5l-8.3-8.3M151.6 112.8l-8.3-8.3M151.6 1.2l-8.3 8.3M145.7 90.3h2.3M145.7 23.8h2.3M20 90.3h2.3M20 23.8h2.3M43.7 4.8V7M129 4.8V7M43.7 106.9v2.3M129 106.9v2.3" stroke="#7C87A5" stroke-linecap="round" stroke-linejoin="round"/><ellipse fill="#FFBF00" fill-rule="nonzero" cx="84" cy="57" rx="7.1" ry="7.1"/><ellipse stroke="#7C87A5" fill="#8592AF" fill-rule="nonzero" stroke-linecap="round" stroke-linejoin="round" cx="84" cy="73.6" rx="2.4" ry="2.4"/><ellipse stroke="#7C87A5" fill="#8592AF" fill-rule="nonzero" stroke-linecap="round" stroke-linejoin="round" cx="84" cy="40.4" rx="2.4" ry="2.4"/><path d="M119.6 40.4v33.2c0 1.3-1 2.4-2.4 2.4-1.3 0-2.4-1-2.4-2.4V40.4c0-1.3 1.1-2.4 2.4-2.4 1.3 0 2.4 1 2.4 2.4zM129 30.9V83c0 1.3-1 2.4-2.3 2.4-1.3 0-2.4-1-2.4-2.4V31c0-1.3 1-2.4 2.4-2.4 1.3 0 2.4 1 2.4 2.4z" fill="#FFBF00" fill-rule="nonzero"/><path d="M150.8 2l-7.5 7.5v95H24.7l-7.5 7.5c-.7.7-.2 2 .9 2h132.3c1.3 0 2.4-1 2.4-2.4V3c0-1-1.3-1.6-2-.9z" stroke="#231F20" fill="#231F20" fill-rule="nonzero" opacity=".1" stroke-linecap="round" stroke-linejoin="round"/></g><g fill="#FFF" fill-rule="nonzero"><path d="M136.2 42.1c1-4.6 2.1-9.2 4.2-13.6.5-1.1 1.2-2.2 2-3.3a9 9 0 0 1 3-2.9l1.2-.4 1.3-.2 1.3.2 1.2.5c1.4.7 2.3 1.8 3.1 2.9a30 30 0 0 1 3.5 6.6c1 2.2 1.7 4.5 2.4 6.8a271 271 0 0 1 6.7 42 416 416 0 0 1 .4 56.3 277 277 0 0 1-3 28.2 143.1 143.1 0 0 1-5.3 21c-1 2.3-2 4.6-3.6 7-.9 1-1.8 2.3-3.6 3.2-.4.3-.9.5-1.4.6-.5.2-1 .3-1.6.3a8 8 0 0 1-1.7-.2l-1.5-.5c-1.8-1-2.8-2.1-3.7-3.3a23 23 0 0 1-2-3.5 65.5 65.5 0 0 1-4.6-14 3 3 0 0 1 2.2-3.5 3 3 0 0 1 3.5 2.2 96.1 96.1 0 0 0 4.4 12.5c.4 1 1 1.8 1.5 2.6.5.7 1.2 1.2 1.5 1.3h.4c.4-.2 1-.8 1.5-1.5 1-1.5 2-3.5 2.7-5.5a138.8 138.8 0 0 0 4.9-19.8c3-18.2 4-36.8 4.3-55.3.1-18.6-.7-37.2-3.4-55.5a143.4 143.4 0 0 0-4.6-20c-.8-2.1-1.7-4.2-2.8-5.9a6.8 6.8 0 0 0-1.9-2c-.6-.3-1.1-.3-1.8 0-.6.3-1.4.9-2 1.7l-1.7 2.7a66 66 0 0 0-4.7 12.9c-.2.6-.8 1-1.4.8-.7-.1-1-.7-1-1.4z"/><path d="M132.5 180.7l12-2.6a1 1 0 0 0 .6-2l-7.9-7a1 1 0 0 0-1.7.4l-4.2 9.7a1 1 0 0 0 1.2 1.5z"/><g opacity=".3"><path d="M132.3 181.3c-.6 0-1.1-.2-1.4-.7-.3-.5-.4-1-.2-1.6l4.2-9.8a1.7 1.7 0 0 1 2.7-.6l7.8 7.1c.5.5.7 1.1.5 1.7-.1.6-.6 1.1-1.2 1.2l-12.1 2.7h-.3z"/><path d="M136.5 168.8c.2 0 .5.1.7.3l7.8 7.1a1 1 0 0 1-.5 1.9l-12 2.6h-.3a1 1 0 0 1-1-1.5l4.2-9.7c.2-.4.7-.7 1-.7zm0-1.2c-1 0-1.8.6-2.1 1.4l-4.2 9.8a2.3 2.3 0 0 0 2.6 3.1l12-2.7c.9-.2 1.5-.8 1.7-1.6.2-.8 0-1.7-.6-2.3l-8-7c-.3-.5-.9-.7-1.4-.7z"/></g><path d="M135.8 42c1-4.6 2-9.3 4.1-13.8.5-1.1 1.2-2.3 2-3.4.7-1 1.7-2.2 3.3-3 .4-.3.8-.4 1.3-.5l1.5-.2c.4 0 1 0 1.4.2l1.3.5c1.6.8 2.5 2 3.4 3 1.6 2.2 2.7 4.5 3.6 6.8a145.1 145.1 0 0 1 5.7 20.8c1.8 9.3 2.9 18.7 3.6 28.1a426.2 426.2 0 0 1 .7 56.6c-.6 9.5-1.5 18.9-3 28.3a147.8 147.8 0 0 1-5.4 21.2c-1 2.4-2 4.8-3.7 7.3l-.8.9-.8 1-1 .8-1.4.9-1.7.7c-.5.2-1.3.2-1.9.3-.7 0-1.3 0-2-.2l-1.7-.6c-2-1-3.2-2.4-4.1-3.7-1-1.2-1.6-2.4-2.2-3.6a65.4 65.4 0 0 1-4.6-14.2 4 4 0 0 1 3-5 4 4 0 0 1 4.9 3 89.7 89.7 0 0 0 4.3 12.3c.4 1 1 1.7 1.4 2.4l1 1-.3-.1h-.2l1-1.1a24 24 0 0 0 2.6-5.2 134.1 134.1 0 0 0 4.8-19.5c3-18.1 4-36.7 4.3-55.2.3-18.5-.5-37-3-55.3a137 137 0 0 0-4.5-20c-.8-2-1.7-4-2.7-5.7a6.5 6.5 0 0 0-1.6-1.7l-.4-.2h-.5-.3a5 5 0 0 0-1.8 1.6c-.6.8-1.2 1.6-1.7 2.6-2 3.8-3.5 8.3-4.8 12.7-.2.9-1.1 1.4-2 1.1-.8-.2-1.3-1-1.1-1.9z" opacity=".3"/></g><path d="M282 94.5c-4.6 1.8-5.3 6.6-13 12-5.4 3.7-16.2 0-12.1-8.7a88.7 88.7 0 0 1 16.6-18.9" fill="#FF6680" fill-rule="nonzero"/><g fill="#FFF" fill-rule="nonzero"><path d="M239.9 77.9v8.3c0 .5.7.9 1.1.5l5.7-4.1c.4-.3.4-1 0-1.2l-5.7-4.1a.7.7 0 0 0-1.1.6z"/><g opacity=".3"><path d="M240.6 87.5c-.7 0-1.3-.6-1.3-1.3v-8.3c0-.4.1-.7.4-1 .2-.2.5-.4.9-.4.2 0 .5.1.7.3l5.7 4.1a1.3 1.3 0 0 1 0 2.2l-5.6 4.1c-.3.2-.5.3-.8.3z"/><path d="M240.6 77.1c.1 0 .3 0 .4.2l5.7 4.1c.4.3.4.9 0 1.2l-5.7 4.1-.4.2a.7.7 0 0 1-.7-.7v-8.3c0-.5.3-.8.7-.8zm0-1.2c-.5 0-1 .2-1.3.6a2 2 0 0 0-.6 1.4v8.3c0 1 .9 1.9 2 1.9.3 0 .7-.2 1-.4l5.7-4.2a2 2 0 0 0 0-3l-5.7-4.2c-.3-.2-.7-.4-1.1-.4z"/></g><path d="M239.9 82h-11.2M239.9 83.8l-11.2-.9a.9.9 0 0 1-.8-1c0-.4.4-.8.8-.8l11.2-.9c1 0 1.8.7 1.9 1.7 0 1-.7 1.8-1.6 1.9h-.3z"/><g opacity=".3"><path d="M239.9 82h-11.2M239.9 85l-11.2-1.5c-.8 0-1.4-.8-1.3-1.7.1-.7.6-1.2 1.3-1.3l11.2-1.4a3 3 0 0 1 3.3 2.5 3 3 0 0 1-2.6 3.4h-.7z"/></g></g><g fill="#FFF" fill-rule="nonzero"><path d="M235.8 141.2V133c0-.5-.7-.9-1.2-.5l-5.6 4.1c-.4.3-.4 1 0 1.2l5.7 4.1c.4.4 1 0 1-.6z"/><g opacity=".3"><path d="M235 142.6c-.2 0-.5-.1-.7-.3l-5.7-4.1a1.3 1.3 0 0 1 0-2.2l5.7-4.1c.2-.2.5-.3.7-.3.8 0 1.3.6 1.3 1.3v8.3c0 .4 0 .7-.3 1-.2.2-.6.4-1 .4z"/><path d="M235 132.2c.4 0 .8.3.8.8v8.3c0 .4-.4.7-.7.7-.2 0-.3 0-.4-.2l-5.7-4a.7.7 0 0 1 0-1.3l5.6-4.1.4-.2zm0-1.2c-.3 0-.7.2-1 .4l-5.7 4.2a2 2 0 0 0 0 3l5.7 4.2c.3.2.7.4 1 .4.6 0 1-.2 1.4-.6.4-.4.6-.8.6-1.3V133c0-1.1-1-2-2-2z"/></g><path d="M235.8 137H247M235.8 135.3l11.2.9c.5 0 .8.5.8 1 0 .4-.4.8-.8.8l-11.2.9c-1 0-1.8-.7-1.9-1.7 0-1 .7-1.8 1.6-1.9h.3z"/><g opacity=".3"><path d="M235.8 137H247M235.8 134.1l11.2 1.5c.8 0 1.4.8 1.3 1.7-.1.7-.7 1.2-1.3 1.3l-11.2 1.4a3 3 0 0 1-3.3-2.5 3 3 0 0 1 2.5-3.4h.8z"/></g></g></g></svg>