<?xml version="1.0" encoding="UTF-8"?>
<svg width="252px" height="106px" viewBox="0 0 252 106" version="1.1" xmlns="http://www.w3.org/2000/svg" xmlns:xlink="http://www.w3.org/1999/xlink">
    <!-- Generator: Sketch 53 (72520) - https://sketchapp.com -->
    <title>vernier-force-push</title>
    <desc>Created with Sketch.</desc>
    <defs>
        <path d="M144.58518,11.3114956 L143.137626,22.0570827 C142.980922,23.2891896 141.864405,24.1577239 140.649948,23.9759376 C139.670547,23.8345483 138.906614,23.0266095 138.787127,22.0570827 L137.339573,11.3114956 L134.046827,11.3114956 C133.108561,11.3114956 132.656078,10.1601827 133.304442,9.49363314 L140.256229,2.30297708 C140.667577,1.89900764 141.335528,1.89900764 141.72533,2.30297708 L148.700622,9.49363314 C149.347027,10.1601827 148.876915,11.3114956 147.956278,11.3114956 L144.58518,11.3114956 Z" id="path-1"></path>
        <filter x="-21.1%" y="-15.3%" width="142.2%" height="130.7%" filterUnits="objectBoundingBox" id="filter-2">
            <feMorphology radius="1.375" operator="dilate" in="SourceAlpha" result="shadowSpreadOuter1"></feMorphology>
            <feOffset dx="0" dy="0" in="shadowSpreadOuter1" result="shadowOffsetOuter1"></feOffset>
            <feComposite in="shadowOffsetOuter1" in2="SourceAlpha" operator="out" result="shadowOffsetOuter1"></feComposite>
            <feColorMatrix values="0 0 0 0 0   0 0 0 0 0   0 0 0 0 0  0 0 0 0.15 0" type="matrix" in="shadowOffsetOuter1"></feColorMatrix>
        </filter>
        <path d="M144.58518,68.3114956 L143.137626,79.0570827 C142.980922,80.2891896 141.864405,81.1577239 140.649948,80.9759376 C139.670547,80.8345483 138.906614,80.0266095 138.787127,79.0570827 L137.339573,68.3114956 L134.046827,68.3114956 C133.108561,68.3114956 132.656078,67.1601827 133.304442,66.4936331 L140.256229,59.3029771 C140.667577,58.8990076 141.335528,58.8990076 141.72533,59.3029771 L148.700622,66.4936331 C149.347027,67.1601827 148.876915,68.3114956 147.956278,68.3114956 L144.58518,68.3114956 Z" id="path-3"></path>
        <filter x="-21.1%" y="-15.3%" width="142.2%" height="130.7%" filterUnits="objectBoundingBox" id="filter-4">
            <feMorphology radius="1.375" operator="dilate" in="SourceAlpha" result="shadowSpreadOuter1"></feMorphology>
            <feOffset dx="0" dy="0" in="shadowSpreadOuter1" result="shadowOffsetOuter1"></feOffset>
            <feComposite in="shadowOffsetOuter1" in2="SourceAlpha" operator="out" result="shadowOffsetOuter1"></feComposite>
            <feColorMatrix values="0 0 0 0 0   0 0 0 0 0   0 0 0 0 0  0 0 0 0.15 0" type="matrix" in="shadowOffsetOuter1"></feColorMatrix>
        </filter>
    </defs>
    <g id="vernier-force-push" stroke="none" stroke-width="1" fill="none" fill-rule="evenodd">
        <g id="force" transform="translate(74.000000, 42.500000) rotate(-90.000000) translate(-74.000000, -42.500000) translate(34.000000, -29.000000)">
            <g id="Group" transform="translate(33.333333, 0.000000)" fill="#414757" fill-rule="nonzero" stroke="#414757" stroke-linecap="round" stroke-linejoin="round" stroke-width="1.25">
                <g>
                    <polygon id="Path" points="13.3333333 0 13.3333333 3.3255814 0 3.3255814 0 0 5 0 5 1.6627907 8.33333333 1.6627907 8.33333333 0"></polygon>
                    <rect id="Rectangle" x="5" y="3.3255814" width="3.33333333" height="6.65116279"></rect>
                    <polygon id="Path" points="5 3.3255814 3.33333333 3.3255814 4.16666667 4.15697674 3.33333333 4.98837209 4.16666667 5.81976744 3.33333333 6.65116279 5 6.65116279"></polygon>
                    <polygon id="Path" points="5 6.65116279 3.33333333 6.65116279 4.16666667 7.48255814 3.33333333 8.31395349 4.16666667 9.14534884 3.33333333 9.97674419 5 9.97674419"></polygon>
                    <polygon id="Path" points="8.33333333 2.49418605 10 2.49418605 9.16666667 3.3255814 10 4.15697674 9.16666667 4.98837209 10 5.81976744 8.33333333 5.81976744"></polygon>
                    <polygon id="Path" points="8.33333333 5.81976744 10 5.81976744 9.16666667 6.65116279 10 7.48255814 9.16666667 8.31395349 10 9.14534884 9.16666667 9.97674419 8.33333333 9.97674419"></polygon>
                </g>
                <rect id="Rectangle" x="5" y="3.3255814" width="3.33333333" height="6.65116279"></rect>
                <polygon id="Path" points="5 3.3255814 3.33333333 3.3255814 4.16666667 4.15697674 3.33333333 4.98837209 4.16666667 5.81976744 3.33333333 6.65116279 5 6.65116279"></polygon>
                <polygon id="Path" points="5 6.65116279 3.33333333 6.65116279 4.16666667 7.48255814 3.33333333 8.31395349 4.16666667 9.14534884 3.33333333 9.97674419 5 9.97674419"></polygon>
                <polygon id="Path" points="8.33333333 2.49418605 10 2.49418605 9.16666667 3.3255814 10 4.15697674 9.16666667 4.98837209 10 5.81976744 8.33333333 5.81976744"></polygon>
                <polygon id="Path" points="8.33333333 5.81976744 10 5.81976744 9.16666667 6.65116279 10 7.48255814 9.16666667 8.31395349 10 9.14534884 9.16666667 9.97674419 8.33333333 9.97674419"></polygon>
            </g>
            <g id="Group" transform="translate(31.666667, 103.093023)" fill-rule="nonzero" stroke-linecap="round" stroke-linejoin="round" stroke-width="1.25">
                <path d="M8.33333333,39.9069767 C3.74166667,39.9069767 0,36.1740116 0,31.5930233 C0,30.6784884 0.75,29.9302326 1.66666667,29.9302326 C2.58333333,29.9302326 3.33333333,30.6784884 3.33333333,31.5930233 C3.33333333,34.3449419 5.575,36.5813953 8.33333333,36.5813953 C11.0916667,36.5813953 13.3333333,34.3449419 13.3333333,31.5930233 L13.3333333,31.0193605 C13.3333333,29.7057558 12.8,28.425407 11.8666667,27.4942442 L9.10833333,24.7423256 C7.53333333,23.1709884 6.66666667,21.084186 6.66666667,18.8643605 L6.66666667,14.9651163 C6.66666667,14.0505814 7.41666667,13.3023256 8.33333333,13.3023256 C9.25,13.3023256 10,14.0505814 10,14.9651163 L10,18.8643605 C10,20.1779651 10.5333333,21.458314 11.4666667,22.3894767 L14.225,25.1413953 C15.8,26.7127326 16.6666667,28.7995349 16.6666667,31.0193605 L16.6666667,31.5930233 C16.6666667,36.1740116 12.9333333,39.9069767 8.33333333,39.9069767 Z" id="Path" stroke="#7C87A5" fill="#E6E7E8"></path>
                <rect id="Rectangle" stroke="#7C87A5" fill="#E6E7E8" x="3.33333333" y="0" width="10" height="9.15366279"></rect>
                <rect id="Rectangle" stroke="#231F20" fill="#231F20" opacity="0.1" x="3.33333333" y="0" width="2.5" height="9.15366279"></rect>
                <rect id="Rectangle" stroke="#231F20" fill="#231F20" opacity="0.1" x="10.8333333" y="0" width="2.5" height="9.15366279"></rect>
                <path d="M15,14.1420349 L15,15.7965116 C15,16.2537791 14.625,16.627907 14.1666667,16.627907 L2.5,16.627907 C2.04166667,16.627907 1.66666667,16.2537791 1.66666667,15.7965116 L1.66666667,14.1420349 C1.66666667,13.6847674 2.04166667,13.3106395 2.5,13.3106395 L3.75,13.3106395 C4.44166667,13.3106395 5,12.7536047 5,12.0635465 L5,12.0635465 C5,11.3734884 4.44166667,10.8164535 3.75,10.8164535 L3.33333333,10.8164535 L3.33333333,9.15366279 L13.3333333,9.15366279 L13.3333333,10.8164535 L12.9166667,10.8164535 C12.225,10.8164535 11.6666667,11.3734884 11.6666667,12.0635465 L11.6666667,12.0635465 C11.6666667,12.7536047 12.225,13.3106395 12.9166667,13.3106395 L14.1666667,13.3106395 C14.625,13.3106395 15,13.6847674 15,14.1420349 Z" id="Path" stroke="#7C87A5" fill="#8592AF"></path>
                <path d="M3.75,13.3106395 C4.44166667,13.3106395 5,12.7536047 5,12.0635465 L5,12.0635465 C5,11.3734884 4.44166667,10.8164535 3.75,10.8164535 L3.33333333,10.8164535 L13.3333333,10.8164535 L12.9166667,10.8164535 C12.225,10.8164535 11.6666667,11.3734884 11.6666667,12.0635465 L11.6666667,12.0635465 C11.6666667,12.7536047 12.225,13.3106395 12.9166667,13.3106395 L3.75,13.3106395 Z" id="Path" stroke="#7C87A5" fill="#7C87A5"></path>
            </g>
            <path d="M78.3333333,9.97674419 L1.66666667,9.97674419 C0.75,9.97674419 0,10.725 0,11.6395349 L0,104.755814 C0,105.670349 0.75,106.418605 1.66666667,106.418605 L78.3333333,106.418605 C79.25,106.418605 80,105.670349 80,104.755814 L80,11.6395349 C80,10.725 79.25,9.97674419 78.3333333,9.97674419 Z M44.3833333,43.4071512 C43.7583333,45.2861047 41.9916667,46.5581395 40,46.5581395 C39,46.5581395 38.0666667,46.2422093 37.3,45.6851744 C36.525,45.1364535 35.9333333,44.3466279 35.6166667,43.4071512 L33.1583333,36.0659302 C31.6083333,31.4101163 35.0833333,26.6046512 40,26.6046512 C44.9166667,26.6046512 48.3916667,31.4101163 46.8416667,36.0659302 L44.3833333,43.4071512 Z" id="Shape" stroke="#7C87A5" stroke-width="1.25" fill="#8592AF" fill-rule="nonzero" stroke-linecap="round" stroke-linejoin="round"></path>
            <path d="M6.66666667,16.627907 L6.66666667,99.7674419 L73.3333333,99.7674419 L73.3333333,16.627907 L6.66666667,16.627907 Z M44.3833333,43.4071512 C43.7583333,45.2861047 41.9916667,46.5581395 40,46.5581395 C39,46.5581395 38.0666667,46.2422093 37.3,45.6851744 C36.525,45.1364535 35.9333333,44.3466279 35.6166667,43.4071512 L33.1583333,36.0659302 C31.6083333,31.4101163 35.0833333,26.6046512 40,26.6046512 C44.9166667,26.6046512 48.3916667,31.4101163 46.8416667,36.0659302 L44.3833333,43.4071512 Z" id="Shape" stroke="#7C87A5" stroke-width="1.25" fill="#8592AF" fill-rule="nonzero" stroke-linecap="round" stroke-linejoin="round"></path>
            <path d="M10,19.9534884 L10,96.4418605 L70,96.4418605 L70,19.9534884 L10,19.9534884 Z M40,26.6046512 C44.9166667,26.6046512 48.3916667,31.4101163 46.8416667,36.0659302 L44.3833333,43.4071512 C43.7583333,45.2861047 41.9916667,46.5581395 40,46.5581395 C39,46.5581395 38.0666667,46.2422093 37.3,45.6851744 C36.525,45.1364535 35.9333333,44.3466279 35.6166667,43.4071512 L33.1583333,36.0659302 C31.6083333,31.4101163 35.0833333,26.6046512 40,26.6046512 Z" id="Shape" stroke="#7C87A5" stroke-width="1.25" fill="#5CB1D6" fill-rule="nonzero" stroke-linecap="round" stroke-linejoin="round"></path>
            <polygon id="Path" stroke="#7C87A5" stroke-width="1.25" fill="#8592AF" fill-rule="nonzero" stroke-linecap="round" stroke-linejoin="round" points="70 96.4418605 10 96.4418605 10 76.4883721 70 63.1860465"></polygon>
            <path d="M6.66666667,16.627907 L0.833333333,10.8081395" id="Path" stroke="#7C87A5" stroke-width="1.25" stroke-linecap="round" stroke-linejoin="round"></path>
            <path d="M73.3333333,16.627907 L79.1666667,10.8081395" id="Path" stroke="#7C87A5" stroke-width="1.25" stroke-linecap="round" stroke-linejoin="round"></path>
            <path d="M0.833333333,105.587209 L6.66666667,99.7674419" id="Path" stroke="#7C87A5" stroke-width="1.25" stroke-linecap="round" stroke-linejoin="round"></path>
            <path d="M79.1666667,105.587209 L73.3333333,99.7674419" id="Path" stroke="#7C87A5" stroke-width="1.25" stroke-linecap="round" stroke-linejoin="round"></path>
            <path d="M16.6666667,101.430233 L16.6666667,103.093023" id="Path" stroke="#7C87A5" stroke-width="1.25" stroke-linecap="round" stroke-linejoin="round"></path>
            <path d="M63.3333333,101.430233 L63.3333333,103.093023" id="Path" stroke="#7C87A5" stroke-width="1.25" stroke-linecap="round" stroke-linejoin="round"></path>
            <path d="M16.6666667,13.3023256 L16.6666667,14.9651163" id="Path" stroke="#7C87A5" stroke-width="1.25" stroke-linecap="round" stroke-linejoin="round"></path>
            <path d="M63.3333333,13.3023256 L63.3333333,14.9651163" id="Path" stroke="#7C87A5" stroke-width="1.25" stroke-linecap="round" stroke-linejoin="round"></path>
            <path d="M76.6666667,29.9302326 L75,29.9302326" id="Path" stroke="#7C87A5" stroke-width="1.25" stroke-linecap="round" stroke-linejoin="round"></path>
            <path d="M76.6666667,89.7906977 L75,89.7906977" id="Path" stroke="#7C87A5" stroke-width="1.25" stroke-linecap="round" stroke-linejoin="round"></path>
            <path d="M5,29.9302326 L3.33333333,29.9302326" id="Path" stroke="#7C87A5" stroke-width="1.25" stroke-linecap="round" stroke-linejoin="round"></path>
            <path d="M5,89.7906977 L3.33333333,89.7906977" id="Path" stroke="#7C87A5" stroke-width="1.25" stroke-linecap="round" stroke-linejoin="round"></path>
            <ellipse id="Oval" fill="#FFBF00" fill-rule="nonzero" cx="40" cy="58.1976744" rx="5" ry="4.98837209"></ellipse>
            <ellipse id="Oval" stroke="#7C87A5" stroke-width="1.25" fill="#8592AF" fill-rule="nonzero" stroke-linecap="round" stroke-linejoin="round" cx="28.3333333" cy="58.1976744" rx="1.66666667" ry="1.6627907"></ellipse>
            <ellipse id="Oval" stroke="#7C87A5" stroke-width="1.25" fill="#8592AF" fill-rule="nonzero" stroke-linecap="round" stroke-linejoin="round" cx="51.6666667" cy="58.1976744" rx="1.66666667" ry="1.6627907"></ellipse>
            <path d="M51.6666667,83.1395349 L28.3333333,83.1395349 C27.4166667,83.1395349 26.6666667,82.3912791 26.6666667,81.4767442 L26.6666667,81.4767442 C26.6666667,80.5622093 27.4166667,79.8139535 28.3333333,79.8139535 L51.6666667,79.8139535 C52.5833333,79.8139535 53.3333333,80.5622093 53.3333333,81.4767442 L53.3333333,81.4767442 C53.3333333,82.3912791 52.5833333,83.1395349 51.6666667,83.1395349 Z" id="Path" fill="#FFBF00" fill-rule="nonzero"></path>
            <path d="M58.3333333,89.7906977 L21.6666667,89.7906977 C20.75,89.7906977 20,89.0424419 20,88.127907 L20,88.127907 C20,87.2133721 20.75,86.4651163 21.6666667,86.4651163 L58.3333333,86.4651163 C59.25,86.4651163 60,87.2133721 60,88.127907 L60,88.127907 C60,89.0424419 59.25,89.7906977 58.3333333,89.7906977 Z" id="Path" fill="#FFBF00" fill-rule="nonzero"></path>
            <path d="M1.425,104.996919 L6.66666667,99.7674419 L73.3333333,99.7674419 L73.3333333,16.627907 L78.575,11.3984302 C79.1,10.8746512 80,11.2487791 80,11.9887209 L80,104.755814 C80,105.670349 79.25,106.418605 78.3333333,106.418605 L2.00833333,106.418605 C1.26666667,106.418605 0.9,105.520698 1.425,104.996919 Z" id="Path" stroke="#231F20" stroke-width="1.25" fill="#231F20" fill-rule="nonzero" opacity="0.1" stroke-linecap="round" stroke-linejoin="round"></path>
        </g>
        <path d="M231.88326,61.3797206 C231.874468,61.664084 231.886189,62.0430484 231.918393,62.5490352 C232.259803,67.9286526 229.313532,71.7118938 225.231563,71.9085758 C221.262901,72.0997984 218.03152,68.825176 217.541495,63.5442783 C217.540264,63.6130355 217.539532,63.6839883 217.539292,63.757087 C217.538299,64.0604335 217.544732,64.3580052 217.559275,64.7989063 C217.580596,65.4452462 217.579129,65.3967905 217.580263,65.5623217 C217.619558,71.6296989 213.850697,75.5759594 209.065226,75.4612621 C204.340538,75.3480216 200.864666,71.333695 201.162263,65.3769088 C200.141982,76.436324 197.411564,94.4218525 195.54629,98.0282009 C192.880901,103.181468 187.815981,105.66612 183.148652,104.856537 C178.446996,104.041 176.139867,100.131406 178.638137,95.7584167 C180.806132,91.9629923 182.26769,84.8560723 183.568174,73.6385701 C183.899495,70.7807093 184.907172,61.0800139 184.875102,61.377066 C185.147764,58.8514612 185.378628,56.9262008 185.61462,55.2708249 C186.272011,50.6597335 185.874193,45.9466306 184.422927,43.1652358 C182.800706,40.0562015 180.043935,39.4986187 175.624559,42.206727 C167.017463,47.481003 158.027881,48.2773888 151.887596,45.3123263 C145.996889,42.4677821 145.123225,36.9745044 150.926657,34.0441587 C151.781571,33.6125131 152.805201,33.2146183 154.179899,32.759431 C154.921561,32.5138535 158.706178,31.3470926 159.822669,30.9771586 C162.213063,30.1851338 164.214631,29.4007007 166.124451,28.4641383 C171.471169,25.8421455 175.587544,22.2240145 178.543136,16.9591101 L178.543142,16.9590991 C185.402532,4.74057703 199.435065,-0.696422919 214.428345,1.44398932 C228.788936,3.49408004 240.371905,12.0732501 242.334937,23.2340126 C243.057227,27.3406113 243.330282,31.1171495 243.657808,39.3829986 C244.040317,49.0364657 244.26834,52.9150633 244.936363,58.6649051 C245.423201,62.858582 243.002543,66.0862053 239.419507,66.8879849 C235.851792,67.6863364 232.554492,65.733439 231.971415,61.8763877 C231.942387,61.6847135 231.912549,61.5195329 231.88326,61.3797206 Z" id="Fill-1" stroke-opacity="0.15" stroke="#000000" stroke-width="2" fill="#FF6680" transform="translate(196.000000, 53.000000) rotate(90.000000) translate(-196.000000, -53.000000) "></path>
        <g id="Arrow" fill-rule="nonzero" transform="translate(141.000000, 13.000000) rotate(-90.000000) translate(-141.000000, -13.000000) ">
            <use fill="black" fill-opacity="1" filter="url(#filter-2)" xlink:href="#path-1"></use>
            <use stroke="#FF3355" stroke-width="0.75" fill="#FF6680" xlink:href="#path-1"></use>
        </g>
        <g id="Arrow-Copy" fill-rule="nonzero" transform="translate(141.000000, 70.000000) rotate(-90.000000) translate(-141.000000, -70.000000) ">
            <use fill="black" fill-opacity="1" filter="url(#filter-4)" xlink:href="#path-3"></use>
            <use stroke="#FF3355" stroke-width="0.75" fill="#FF6680" xlink:href="#path-3"></use>
        </g>
    </g>
</svg>