<svg width="1300" height="600" xmlns="http://www.w3.org/2000/svg"><path d="M819.2 24.9c-15.4 50.6-171.8 78.3-174.6 122.5-2.8 44.1 158.8-53.8 170.4-27.9 11.5 26-167 157-261.4 195.4-57 23-101.8-9.6-36.3-60 43.9-33.8 23.2-62.9-17.1-43-40.4 19.8-61.8-31.4-6-75.1 55.6-43.8 342.5-169.2 325-112zM395.1 155.3c-43.3 64.5-126 24.3-73.6-43.5C368 52 517-10.2 524.2 23.2c5.4 24.5-78.2 56-129.1 132zM39 24.9c70.5-68.3 130-135 172-132.9 43.5 2.2 4.6 85.5-69.3 149.4-52.4 45.3-1.3 68.3 49 41.3 60.7-32.7 108-10.8 29.7 60.8C142 215.2 23 268-41.7 254.4c-65-13.5 91.1-54.8 97.3-109.5 6-53.8-88.6 54.7-137.9 18.6-47.9-35 56-75 121.5-138.6zm789.7 203.2c-8-38.9 89.1-161.5 208.2-193.8 119.7-32.5 232.2-45.1 237-17 4.8 27.9-71 49-165.4 94.2-45.6 21.9 2.7 40.3 32.3 28.5 98.2-39 90.6 20.6 7.7 62.7a726 726 0 0 1-152 58c-47.1 11.5-57-18.9-30-36 52.4-33.5 27.2-64.5-19.8-38.5-29.7 16.5-105.2 104.9-118 42zm-43.9 33.5c27.9-11.2 35.1 9.3 35.1 25.8s-27.8 22.7-43.3 13.4c-15.5-9.3-11.1-31.5 8.2-39.2zM1.5 332c10.7-24.6 129.7-28.5 218.2-107.9 31.8-28.6 70.9 6.3 61.6 33.1-9.3 26.8-37.6 33.8-81.9 51-44.3 17.3 12 40.2 85.2 5.7 41.8-19.7 86.6 13.6 36 47.8-42.1 28.6-139.3 36.8-136.7 61.4 1.5 13.6 72-19.2 84.9 10.2 10.7 24.4-14.6 52.5-85.2 58.2-72 5.8-127.9-9-128.7-44.3-1-40 83.4-50.8 45.5-63.2-38.1-12.4-117.6-8.7-98.9-52zm427.2-85.6c14.2 9.9 14.7 22.5-.4 40-19.6 22.6-52.3 21.6-61.9 13.3-9.6-8.3 12.1-29.8 20.4-42.2 8.3-12.3 23.6-23.8 42-11.1zm-.8 136.2c84.2-20.1 131.7 13.6 112.8 36.7-20.4 25-69.2 24.9-73 73.7-7.2 91.3-97 107.4-58.7 43.7 13.4-22.3-6.3-36.5-17.8-8-7 17.3-40.1 41-57.6 49.7-79.3 39.6-142.6-18-85.8-34 36.9-10.4 70-35.5 91.3-93 11.2-30.5 51.7-60 88.8-68.8zm-251.2 185c32 40.9-66.7 43.1-103.1 55.4-36.5 12.3 38.6 18.5 104.7 17.8 66-.7 56 50-19 75C43.9 753.8-59 714.2 29.4 688.8c33-9.4 9.6-36.7-27-32.8-69.1 7.5-120.4-26.7-108.7-53.3 13-30 45.6-9.8 78.4-7.6 32.9 2.3 4.4-30-38.1-52.1-73-38-12-102.9 50.8-44.3 89.4 83.4 168 38.2 192 68.8zm331.5 99c-47.2 96.3-144 86.9-130.4 54 13.5-32.9-42.4-6.1-68.3-12-25.9-6-41.2-51.1 55-59.8 118.4-10.7 121.2-127.5 160.8-103.1 27.2 16.7.4 85.2-17.1 121zm707.4-435.9c79-13.5 96.5 13.7 63.6 35.4-20.4 13.5-99.8 56.6-41.8 60.8 58 4.2 14.8 59.4-53.4 110.8-68.1 51.3-217 79-210.4 35.7 6.5-43.3 181.7-64 150.2-109.7-13.7-19.9-80.8 62.4-110.5 15-29.8-47.3 152.8-139.5 202.3-148zM701.4 312c25.2-21.4 76.8 9.5 30.4 51.8-10.7 9.8-38.3 19.1-21.8 28.8 49.8 29.2 201.6-122.5 226.7-72.7 12 24-48.5 77.4-114.6 110.9-48.8 24.6-31 69.8 41.5 25.3 72.4-44.5 85.1 8 45 42.4-40 34.5-296.4 153.8-313.8 90-13.6-49.6 129.6-40.5 111.8-72.5-13.1-23.6-112.7 38.9-148-1.7-34-39.2 93.6-65.2 85.4-88.7-6.4-18.6-67.5 7.6-68.7-37.9-1-35.2 65-24 126.1-75.7zm354.3 317c15.3-80.6 157.4-155.8 211.9-176 85.7-31.8 175.3-21.2 124.7 4.8-50.6 26-183.5 112.2-115 118.1 33.6 3 71.7 27.9 0 87.2-45.6 37.6-204.4 89.6-213 56.3-8.7-33.2 182-91 122.8-96.8-59.2-5.8-138.6 44.1-131.4 6.4zm-209.2-29c46.3-23 89.1-51 138.4-61.6 64.2-13.8.9 73.1-60.8 101.3-27.7 12.6 5.4 29.5 32 16.6 72.2-35.1 103.7-8.2 29 41.5-18.5 12.3-75.8 41.5-145.4 50.4-70.2 9-68.4-16.8-46.7-26.5 31.3-14 52.7-44.2-31-18.7-149.9 45.7-238.6 38-204.5 0 31.8-35.5 139.2-28 289-103z" fill="#FFF" fill-rule="evenodd" opacity=".1"/></svg>