<svg width="106" height="166" xmlns="http://www.w3.org/2000/svg" xmlns:xlink="http://www.w3.org/1999/xlink"><defs><path d="M84.8 63.2l-3.4 24.4a5 5 0 0 1-5.7 4.3 5 5 0 0 1-4.3-4.3L68 63.2h-7.6a2.4 2.4 0 0 1-1.7-4.2l16-16.3c1-1 2.6-1 3.5 0L94.3 59c1.5 1.5.4 4.2-1.7 4.2h-7.8z" id="b"/><filter x="-9.1%" y="-6.7%" width="118.2%" height="113.5%" filterUnits="objectBoundingBox" id="a"><feMorphology radius="1.4" operator="dilate" in="SourceAlpha" result="shadowSpreadOuter1"/><feOffset in="shadowSpreadOuter1" result="shadowOffsetOuter1"/><feComposite in="shadowOffsetOuter1" in2="SourceAlpha" operator="out" result="shadowOffsetOuter1"/><feColorMatrix values="0 0 0 0 0 0 0 0 0 0 0 0 0 0 0 0 0 0 0.15 0" in="shadowOffsetOuter1"/></filter></defs><g fill="none" fill-rule="evenodd"><g transform="translate(3 2)"><g fill="#414757" fill-rule="nonzero" stroke="#414757" stroke-linecap="round" stroke-linejoin="round" stroke-width="1.3"><path d="M52.5 0v3.7h-15V0h5.6v1.9H47V0zM43.1 3.7h3.8v7.5h-3.8z"/><path d="M43.1 3.7h-1.9l1 1-1 1 1 .9-1 .9h2z"/><path d="M43.1 7.5h-1.9l1 1-1 .9 1 .9-1 1h2zM46.9 2.8h1.9l-1 1 1 .9-1 1 1 .9h-2z"/><path d="M46.9 6.6h1.9l-1 .9 1 1-1 .9 1 .9-1 1h-1z"/><path d="M43.1 3.7h3.8v7.5h-3.8z"/><path d="M43.1 3.7h-1.9l1 1-1 1 1 .9-1 .9h2z"/><path d="M43.1 7.5h-1.9l1 1-1 .9 1 .9-1 1h2zM46.9 2.8h1.9l-1 1 1 .9-1 1 1 .9h-2z"/><path d="M46.9 6.6h1.9l-1 .9 1 1-1 .9 1 .9-1 1h-1z"/></g><g fill-rule="nonzero" stroke-linecap="round" stroke-linejoin="round" stroke-width="1.3"><path d="M45 161a9.4 9.4 0 0 1-9.4-9.4 1.9 1.9 0 0 1 3.8 0 5.6 5.6 0 0 0 11.2 0v-.6c0-1.5-.6-3-1.6-4l-3.1-3a9.3 9.3 0 0 1-2.8-6.7V133a1.9 1.9 0 0 1 3.8 0v4.4c0 1.5.6 3 1.6 4l3.1 3a9.3 9.3 0 0 1 2.8 6.7v.6c0 5.2-4.2 9.4-9.4 9.4zM39.4 116h11.3v10.4H39.4z" stroke="#7C87A5" fill="#E6E7E8"/><path stroke="#231F20" fill="#231F20" opacity=".1" d="M39.4 116h2.8v10.4h-2.8zM47.8 116h2.8v10.4h-2.8z"/><path d="M52.5 132v1.9c0 .5-.4.9-1 .9h-13a1 1 0 0 1-1-1V132c0-.5.4-1 1-1h1.3c.8 0 1.5-.6 1.5-1.3 0-.8-.7-1.5-1.5-1.5h-.4v-1.8h11.2v1.8h-.4c-.8 0-1.5.7-1.5 1.5 0 .7.7 1.4 1.5 1.4h1.4c.5 0 .9.4.9.9z" stroke="#7C87A5" fill="#8592AF"/><path d="M39.8 131c.8 0 1.5-.6 1.5-1.3 0-.8-.7-1.5-1.5-1.5h-.4 11.2-.4c-.8 0-1.5.7-1.5 1.5 0 .7.7 1.4 1.5 1.4H39.8z" stroke="#7C87A5" fill="#7C87A5"/></g><path d="M88.1 11.2H2c-1 0-1.9.9-1.9 1.9v104.8c0 1 .8 2 1.9 2H88c1 0 1.9-1 1.9-2V13.1c0-1-.8-1.9-1.9-1.9zM50 49a5.2 5.2 0 0 1-9.8 0l-2.8-8.3a8.1 8.1 0 1 1 15.4 0L49.9 49z" stroke="#7C87A5" stroke-width="1.3" fill="#8592AF" fill-rule="nonzero" stroke-linecap="round" stroke-linejoin="round"/><path d="M7.5 18.7v93.6h75V18.7h-75zM49.9 49a5.2 5.2 0 0 1-9.8 0l-2.8-8.3a8.1 8.1 0 1 1 15.4 0L49.9 49z" stroke="#7C87A5" stroke-width="1.3" fill="#8592AF" fill-rule="nonzero" stroke-linecap="round" stroke-linejoin="round"/><path d="M11.3 22.5v86h67.5v-86H11.3zM45 30c5.5 0 9.4 5.4 7.7 10.6L49.9 49a5.2 5.2 0 0 1-9.8 0l-2.8-8.3A8.1 8.1 0 0 1 45 30z" stroke="#7C87A5" stroke-width="1.3" fill="#5CB1D6" fill-rule="nonzero" stroke-linecap="round" stroke-linejoin="round"/><path stroke="#7C87A5" stroke-width="1.3" fill="#8592AF" fill-rule="nonzero" stroke-linecap="round" stroke-linejoin="round" d="M78.8 108.6H11.3V86l67.5-15z"/><path d="M7.5 18.7L.9 12.2M82.5 18.7l6.6-6.5M1 118.9l6.5-6.6M89 118.9l-6.5-6.6M18.8 114.2v1.9M71.3 114.2v1.9M18.8 15v1.8M71.3 15v1.8M86.3 33.7h-2M86.3 101h-2M5.6 33.7H3.8M5.6 101H3.8" stroke="#7C87A5" stroke-width="1.3" stroke-linecap="round" stroke-linejoin="round"/><ellipse fill="#FFBF00" fill-rule="nonzero" cx="45" cy="65.5" rx="5.6" ry="5.6"/><ellipse stroke="#7C87A5" stroke-width="1.3" fill="#8592AF" fill-rule="nonzero" stroke-linecap="round" stroke-linejoin="round" cx="31.9" cy="65.5" rx="1.9" ry="1.9"/><ellipse stroke="#7C87A5" stroke-width="1.3" fill="#8592AF" fill-rule="nonzero" stroke-linecap="round" stroke-linejoin="round" cx="58.1" cy="65.5" rx="1.9" ry="1.9"/><path d="M58.1 93.6H32c-1 0-1.9-.8-1.9-1.9 0-1 .8-1.8 1.9-1.8H58c1 0 1.9.8 1.9 1.8s-.8 1.9-1.9 1.9zM65.6 101H24.4c-1 0-1.9-.7-1.9-1.8 0-1 .8-1.9 1.9-1.9h41.2c1 0 1.9.9 1.9 2 0 1-.8 1.8-1.9 1.8z" fill="#FFBF00" fill-rule="nonzero"/><path d="M1.6 118.2l5.9-5.9h75V18.7l5.9-5.9a1 1 0 0 1 1.6.7v104.4c0 1-.8 2-1.9 2H2.3a1 1 0 0 1-.7-1.7z" stroke="#231F20" stroke-width="1.3" fill="#231F20" fill-rule="nonzero" opacity=".1" stroke-linecap="round" stroke-linejoin="round"/></g><g fill-rule="nonzero" transform="rotate(-90 76.5 67)"><use fill="#000" filter="url(#a)" xlink:href="#b"/><use stroke="#F35" stroke-width=".8" fill="#FF6680" xlink:href="#b"/></g></g></svg>