<svg width="252" height="106" xmlns="http://www.w3.org/2000/svg" xmlns:xlink="http://www.w3.org/1999/xlink"><defs><path d="M144.6 11.3L143 22.1a2.2 2.2 0 0 1-2.5 1.9c-1-.2-1.7-1-1.8-2l-1.5-10.7H134c-.9 0-1.3-1.1-.7-1.8l7-7.2a1 1 0 0 1 1.4 0l7 7.2c.6.7.2 1.8-.7 1.8h-3.4z" id="b"/><filter x="-21.1%" y="-15.3%" width="142.2%" height="130.7%" filterUnits="objectBoundingBox" id="a"><feMorphology radius="1.4" operator="dilate" in="SourceAlpha" result="shadowSpreadOuter1"/><feOffset in="shadowSpreadOuter1" result="shadowOffsetOuter1"/><feComposite in="shadowOffsetOuter1" in2="SourceAlpha" operator="out" result="shadowOffsetOuter1"/><feColorMatrix values="0 0 0 0 0 0 0 0 0 0 0 0 0 0 0 0 0 0 0.15 0" in="shadowOffsetOuter1"/></filter><path d="M144.6 68.3L143 79.1a2.2 2.2 0 0 1-2.5 1.9c-1-.2-1.7-1-1.8-2l-1.5-10.7H134c-.9 0-1.3-1.1-.7-1.8l7-7.2a1 1 0 0 1 1.4 0l7 7.2c.6.7.2 1.8-.7 1.8h-3.4z" id="d"/><filter x="-21.1%" y="-15.3%" width="142.2%" height="130.7%" filterUnits="objectBoundingBox" id="c"><feMorphology radius="1.4" operator="dilate" in="SourceAlpha" result="shadowSpreadOuter1"/><feOffset in="shadowSpreadOuter1" result="shadowOffsetOuter1"/><feComposite in="shadowOffsetOuter1" in2="SourceAlpha" operator="out" result="shadowOffsetOuter1"/><feColorMatrix values="0 0 0 0 0 0 0 0 0 0 0 0 0 0 0 0 0 0 0.15 0" in="shadowOffsetOuter1"/></filter></defs><g fill="none" fill-rule="evenodd"><g transform="rotate(-90 42.5 40)"><g fill="#414757" fill-rule="nonzero" stroke="#414757" stroke-linecap="round" stroke-linejoin="round" stroke-width="1.3"><path d="M46.7 0v3.3H33.3V0h5v1.7h3.4V0zM38.3 3.3h3.3V10h-3.3zM38.3 3.3h-1.6l.8.9-.8.8.8.8-.8.9h1.6zM38.3 6.7h-1.6l.8.8-.8.8.8.8-.8.9h1.6z"/><path d="M41.7 2.5h1.6l-.8.8.8.9-.8.8.8.8h-1.6zM41.7 5.8h1.6l-.8.9.8.8-.8.8.8.8-.8.9h-.8zM38.3 3.3h3.3V10h-3.3zM38.3 3.3h-1.6l.8.9-.8.8.8.8-.8.9h1.6zM38.3 6.7h-1.6l.8.8-.8.8.8.8-.8.9h1.6z"/><path d="M41.7 2.5h1.6l-.8.8.8.9-.8.8.8.8h-1.6zM41.7 5.8h1.6l-.8.9.8.8-.8.8.8.8-.8.9h-.8z"/></g><g fill-rule="nonzero" stroke-linecap="round" stroke-linejoin="round" stroke-width="1.3"><path d="M40 143a8.3 8.3 0 0 1-8.3-8.3 1.7 1.7 0 0 1 3.3 0 5 5 0 0 0 10 0v-.6a5 5 0 0 0-1.5-3.5l-2.7-2.8a8.2 8.2 0 0 1-2.5-5.8v-4a1.7 1.7 0 0 1 3.4 0v4a5 5 0 0 0 1.4 3.5l2.8 2.7a8.2 8.2 0 0 1 2.4 6v.5c0 4.6-3.7 8.3-8.3 8.3zM35 103h10v9.3H35z" stroke="#7C87A5" fill="#E6E7E8"/><path stroke="#231F20" fill="#231F20" opacity=".1" d="M35 103h2.5v9.3H35zM42.5 103H45v9.3h-2.5z"/><path d="M46.7 117.2v1.7c0 .4-.4.8-.9.8H34.2a.8.8 0 0 1-.9-.8v-1.7c0-.4.4-.8.9-.8h1.2c.7 0 1.3-.6 1.3-1.2 0-.7-.6-1.3-1.3-1.3H35v-1.7h10v1.7h-.4c-.7 0-1.3.6-1.3 1.3 0 .6.6 1.2 1.3 1.2h1.2c.5 0 .9.4.9.8z" stroke="#7C87A5" fill="#8592AF"/><path d="M35.4 116.4c.7 0 1.3-.6 1.3-1.2 0-.7-.6-1.3-1.3-1.3H35h10-.4c-.7 0-1.3.6-1.3 1.3 0 .6.6 1.2 1.3 1.2h-9.2z" stroke="#7C87A5" fill="#7C87A5"/></g><path d="M78.3 10H1.7c-1 0-1.7.7-1.7 1.6v93.2c0 .9.8 1.6 1.7 1.6h76.6c1 0 1.7-.7 1.7-1.6V11.6c0-.9-.8-1.6-1.7-1.6zm-34 33.4a4.6 4.6 0 0 1-8.7 0l-2.4-7.3a7.2 7.2 0 1 1 13.6 0l-2.4 7.3z" stroke="#7C87A5" stroke-width="1.3" fill="#8592AF" fill-rule="nonzero" stroke-linecap="round" stroke-linejoin="round"/><path d="M6.7 16.6v83.2h66.6V16.6H6.7zm37.7 26.8a4.6 4.6 0 0 1-8.8 0l-2.4-7.3a7.2 7.2 0 1 1 13.6 0l-2.4 7.3z" stroke="#7C87A5" stroke-width="1.3" fill="#8592AF" fill-rule="nonzero" stroke-linecap="round" stroke-linejoin="round"/><path d="M10 20v76.4h60V20H10zm30 6.6c5 0 8.4 4.8 6.8 9.5l-2.4 7.3a4.6 4.6 0 0 1-8.8 0l-2.4-7.3a7.2 7.2 0 0 1 6.8-9.5z" stroke="#7C87A5" stroke-width="1.3" fill="#5CB1D6" fill-rule="nonzero" stroke-linecap="round" stroke-linejoin="round"/><path stroke="#7C87A5" stroke-width="1.3" fill="#8592AF" fill-rule="nonzero" stroke-linecap="round" stroke-linejoin="round" d="M70 96.4H10v-20l60-13.2z"/><path d="M6.7 16.6L.8 10.8M73.3 16.6l5.9-5.8M.8 105.6l5.9-5.8M79.2 105.6l-5.9-5.8M16.7 101.4v1.7M63.3 101.4v1.7M16.7 13.3V15M63.3 13.3V15M76.7 30H75M76.7 89.8H75M5 30H3.3M5 89.8H3.3" stroke="#7C87A5" stroke-width="1.3" stroke-linecap="round" stroke-linejoin="round"/><ellipse fill="#FFBF00" fill-rule="nonzero" cx="40" cy="58.2" rx="5" ry="5"/><ellipse stroke="#7C87A5" stroke-width="1.3" fill="#8592AF" fill-rule="nonzero" stroke-linecap="round" stroke-linejoin="round" cx="28.3" cy="58.2" rx="1.7" ry="1.7"/><ellipse stroke="#7C87A5" stroke-width="1.3" fill="#8592AF" fill-rule="nonzero" stroke-linecap="round" stroke-linejoin="round" cx="51.7" cy="58.2" rx="1.7" ry="1.7"/><path d="M51.7 83.1H28.3c-.9 0-1.6-.7-1.6-1.6 0-1 .7-1.7 1.6-1.7h23.4c.9 0 1.6.8 1.6 1.7 0 .9-.7 1.6-1.6 1.6zM58.3 89.8H21.7c-1 0-1.7-.8-1.7-1.7 0-.9.8-1.6 1.7-1.6h36.6c1 0 1.7.7 1.7 1.6 0 1-.8 1.7-1.7 1.7z" fill="#FFBF00" fill-rule="nonzero"/><path d="M1.4 105l5.3-5.2h66.6V16.6l5.3-5.2a.8.8 0 0 1 1.4.6v92.8c0 .9-.8 1.6-1.7 1.6H2a.8.8 0 0 1-.6-1.4z" stroke="#231F20" stroke-width="1.3" fill="#231F20" fill-rule="nonzero" opacity=".1" stroke-linecap="round" stroke-linejoin="round"/></g><path d="M187.6 88.9h-1.1c-5.4.4-9.2-2.6-9.4-6.7-.2-4 3-7.2 8.4-7.7a14.6 14.6 0 0 0-1.3 0h-.8c-6 .1-10-3.6-9.9-8.4.2-4.8 4.2-8.2 10.1-8-11-1-29-3.7-32.6-5.6-5.2-2.6-7.7-7.7-6.9-12.4.9-4.7 4.8-7 9.1-4.5a66.3 66.3 0 0 0 22.2 5 1809.7 1809.7 0 0 0 18.3 2c4.6.7 9.4.3 12.1-1.2 3.1-1.6 3.7-4.4 1-8.8-5.3-8.6-6-17.6-3.1-23.7C206.5 3 212 2 215 7.9l1.2 3.3 1.8 5.6c.8 2.4 1.6 4.4 2.5 6.3 2.7 5.4 6.3 9.5 11.5 12.4 12.3 6.9 17.7 21 15.6 36-2 14.3-10.7 25.9-21.8 27.8-4.1.8-8 1-16.2 1.4-9.6.3-13.5.6-19.3 1.2-4.2.5-7.4-1.9-8.2-5.5-.8-3.5 1.2-6.8 5-7.4l.5-.1z" stroke-opacity=".1" stroke="#000" stroke-width="2" fill="#FF6680"/><g fill-rule="nonzero" transform="rotate(-90 141 13)"><use fill="#000" filter="url(#a)" xlink:href="#b"/><use stroke="#F35" stroke-width=".8" fill="#FF6680" xlink:href="#b"/></g><g fill-rule="nonzero" transform="rotate(-90 141 70)"><use fill="#000" filter="url(#c)" xlink:href="#d"/><use stroke="#F35" stroke-width=".8" fill="#FF6680" xlink:href="#d"/></g></g></svg>