<?xml version="1.0" encoding="UTF-8" standalone="no"?>
<svg width="140px" height="78px" viewBox="0 0 140 78" version="1.1" xmlns="http://www.w3.org/2000/svg" xmlns:xlink="http://www.w3.org/1999/xlink">
    <!-- Generator: Sketch 43.2 (39069) - http://www.bohemiancoding.com/sketch -->
    <title>cards</title>
    <desc>Created with Sketch.</desc>
    <defs>
        <rect id="path-1" x="0" y="0" width="40.2823529" height="52.8267674" rx="4"></rect>
        <rect id="path-2" x="0" y="0" width="40.2823529" height="52.8267674" rx="4"></rect>
        <rect id="path-3" x="0" y="0" width="45.8211765" height="60.3734485" rx="4"></rect>
        <rect id="path-4" x="-7.10542736e-14" y="0" width="45.8211765" height="60.3734485" rx="4"></rect>
        <rect id="path-5" x="0.463447099" y="0.0405127612" width="51.8635294" height="67.9201295" rx="4"></rect>
        <rect id="path-6" x="0" y="2.4158453e-13" width="51.8624363" height="67.9201295" rx="4"></rect>
        <rect id="path-7" x="0" y="0" width="57.4023529" height="75.4668106" rx="4"></rect>
        <path d="M6.98256303,7.91789581 C6.56319378,9.11026974 5.42323648,9.83501993 3.59515006,10.0721625 C3.51205523,10.0828205 3.43025875,10.0894818 3.34846227,10.0921464 C3.24199701,10.2520177 3.10307282,10.3905729 2.93947986,10.4984861 C2.51102211,10.7795932 2.10982985,10.9168162 1.71383102,10.9168162 C0.899761283,10.9168162 0.0233704229,10.2933178 0.0233704229,8.92375315 C0.0233704229,8.83049485 0.0272654934,8.70925906 0.0363539912,8.54139413 C0.0402490617,8.46945202 0.0441441322,8.41349704 0.0454424891,8.37219694 C0.0233704229,8.26828055 0.0116852115,8.1630319 0.0116852115,8.05645099 L0.0116852115,7.41163648 C0.0116852115,7.30638784 0.0220720661,7.20113919 0.0428457754,7.09589054 C0.0441441322,7.00662903 0.0480392027,6.90670942 0.0545309869,6.79746399 C0.0233704229,6.68022499 0,6.54433433 0,6.39245653 C0,6.32317894 0.00519342732,6.25390135 0.0142819251,6.18595602 C0.0636194847,5.82890997 0.218123947,5.47053166 0.47909367,5.18409546 C0.389507049,4.92696902 0.342766203,4.6551877 0.342766203,4.37674507 L0.342766203,3.69729177 C0.342766203,3.42151366 0.395998833,3.07779023 0.656968556,2.22247843 C0.76603053,1.85477429 0.801086164,1.74019981 0.849125367,1.6336189 C1.10490166,1.04475937 1.49051364,0.750329607 1.77095872,0.605113117 C2.22927868,0.370635115 2.72135592,0.250731591 3.23290851,0.250731591 C3.46920945,0.250731591 3.69512354,0.276044557 3.91065077,0.324005967 C4.00672918,0.257392898 4.10929937,0.20143792 4.21836134,0.154808772 C4.35728552,0.0935247486 4.5052982,0.0508923845 4.66889116,0.024247157 C5.07787356,-0.0476949572 5.51022639,0.0415665549 5.88674987,0.276044557 C6.2827487,0.523845173 6.73717359,1.03809806 6.68134425,2.0959136 C6.67225575,2.28243019 6.65667547,2.53156307 6.63330505,2.85663484 C6.60993462,3.11642581 6.58007242,3.46814281 6.53982335,3.93310203 C6.55021021,4.11295732 6.54631514,4.31412879 6.53073486,4.55127131 C6.52424307,4.64186508 6.50996115,4.73245886 6.48659072,4.82038811 C6.4813973,4.84037203 6.47620387,4.85902369 6.47101044,4.87634309 C6.64628861,5.1068243 6.76573744,5.33730552 6.84753392,5.53714473 C6.92413698,5.69568383 6.98905482,5.87820364 7.04618252,6.10069129 C7.06825458,6.18462376 7.08253651,6.26988849 7.08902829,6.35648548 C7.14745435,7.10388411 7.11759214,7.54486262 6.98256303,7.91789581 Z" id="path-8"></path>
        <path d="M10.0859244,11.4369606 C9.48016879,13.1592785 7.8335638,14.2061399 5.19299454,14.5486791 C5.07296866,14.5640741 4.95481819,14.573696 4.83666772,14.5775448 C4.68288456,14.8084701 4.4822163,15.0086053 4.24591536,15.1644799 C3.62703194,15.5705236 3.047532,15.7687345 2.47553369,15.7687345 C1.29965519,15.7687345 0.0337572776,14.8681258 0.0337572776,12.8898657 C0.0337572776,12.7551592 0.0393834905,12.5800409 0.0525113207,12.3375693 C0.0581375336,12.2336529 0.0637637466,12.1528291 0.0656391509,12.0931734 C0.0337572776,11.9430719 0.0168786388,11.7910461 0.0168786388,11.6370959 L0.0168786388,10.7056971 C0.0168786388,10.5536713 0.0318818733,10.4016455 0.0618883422,10.2496197 C0.0637637466,10.1206864 0.0693899595,9.97635806 0.078766981,9.8185591 C0.0337572776,9.64921387 0,9.45292736 0,9.23354832 C0,9.13348069 0.00750161724,9.03341306 0.0206294474,8.93526981 C0.0918948112,8.41953662 0.315067924,7.90187906 0.692024191,7.48813789 C0.562621293,7.11673303 0.495106738,6.72416001 0.495106738,6.3219651 L0.495106738,5.34053256 C0.495106738,4.9421864 0.571998315,4.445697 0.948954581,3.21024662 C1.10648854,2.67911841 1.15712446,2.51362195 1.22651442,2.35967174 C1.59596907,1.50909687 2.15296415,1.08380943 2.55805148,0.87405228 C3.2200692,0.535361832 3.93084743,0.362167853 4.66975673,0.362167853 C5.01108032,0.362167853 5.33740067,0.398731027 5.64871778,0.468008618 C5.7874977,0.371789741 5.93565464,0.290965884 6.0931886,0.22361267 C6.29385687,0.135091303 6.50765296,0.0735112221 6.7439539,0.0350236713 C7.33470626,-0.068892716 7.95921589,0.0600405793 8.50308314,0.398731027 C9.07508146,0.75666525 9.73147297,1.49947498 9.65083058,3.02743075 C9.63770275,3.29684361 9.6151979,3.65670221 9.58144062,4.12625033 C9.54768334,4.50150395 9.50454905,5.00953962 9.44641151,5.68114738 C9.46141475,5.94093835 9.45578853,6.23151936 9.43328368,6.57405856 C9.42390666,6.70491623 9.40327721,6.83577391 9.36951994,6.96278282 C9.36201832,6.99164849 9.3545167,7.01858977 9.34701508,7.04360668 C9.60019467,7.376524 9.77273186,7.70944131 9.89088233,7.99809794 C10.0015312,8.22709887 10.0953014,8.49073859 10.1778192,8.81210964 C10.2097011,8.93334543 10.2303305,9.05650559 10.2397075,9.18159013 C10.3241007,10.2611659 10.2809664,10.8981349 10.0859244,11.4369606 Z" id="path-9"></path>
        <path d="M12.8013656,14.3695146 C12.0325219,16.5334525 9.94260021,17.8487399 6.59110845,18.2791096 C6.43876791,18.2984521 6.2888077,18.3105411 6.13884749,18.3153767 C5.94366118,18.6055137 5.68896684,18.8569657 5.38904642,19.0528081 C4.60354053,19.5629655 3.86802139,19.8119997 3.14202353,19.8119997 C1.64956235,19.8119997 0.0428457754,18.6804657 0.0428457754,16.1949594 C0.0428457754,16.0257129 0.049986738,15.8056924 0.066648984,15.5010486 C0.0737899465,15.370487 0.0809309091,15.2689391 0.0833112299,15.193987 C0.0428457754,15.005398 0.0214228877,14.8143912 0.0214228877,14.6209666 L0.0214228877,13.4507477 C0.0214228877,13.2597409 0.0404654545,13.0687341 0.0785505882,12.8777273 C0.0809309091,12.7157342 0.0880718717,12.5343986 0.0999734759,12.3361384 C0.0428457754,12.1233713 0,11.8767549 0,11.6011248 C0,11.4753988 0.00952128342,11.3496728 0.0261835294,11.2263646 C0.116635722,10.5783922 0.399893904,9.9280019 0.878338396,9.40817325 C0.714096257,8.94153637 0.628404706,8.4483036 0.628404706,7.9429818 L0.628404706,6.70989988 C0.628404706,6.20941369 0.725997861,5.58561931 1.20444235,4.03338677 C1.4043893,3.36607185 1.46865797,3.15814039 1.55672984,2.96471578 C2.02565305,1.89604478 2.73260834,1.36170929 3.24675765,1.09816825 C4.08701091,0.672634097 4.98915251,0.455031406 5.92699893,0.455031406 C6.36021733,0.455031406 6.77439316,0.500969752 7.16952642,0.588010828 C7.34567016,0.467120444 7.53371551,0.365572521 7.73366246,0.280949253 C7.98835679,0.169730099 8.25971337,0.0923602534 8.5596338,0.0440040998 C9.30943487,-0.086557515 10.1020817,0.0754355997 10.7923748,0.500969752 C11.5183726,0.95068198 12.3514849,1.88395575 12.2491311,3.80369504 C12.2324689,4.14218812 12.203905,4.59431816 12.1610593,5.18426323 C12.1182135,5.65573573 12.0634661,6.29403696 11.9896761,7.13785184 C12.0087187,7.46425587 12.0015778,7.82934483 11.9730139,8.2597146 C11.9611123,8.42412552 11.9349288,8.58853645 11.892083,8.74811175 C11.8825617,8.78437887 11.8730404,8.81822818 11.8635191,8.84965968 C12.1848625,9.26794041 12.403852,9.68622113 12.5538122,10.0488923 C12.6942511,10.3366114 12.8132672,10.6678511 12.9180013,11.0716249 C12.9584667,11.2239468 12.9846503,11.3786865 12.9965519,11.535844 C13.1036663,12.8922341 13.0489189,13.6925285 12.8013656,14.3695146 Z" id="path-10"></path>
    </defs>
    <g id="Page-1" stroke="none" stroke-width="1" fill="none" fill-rule="evenodd">
        <g id="cards" transform="translate(-1.000000, 0.000000)">
            <g id="card" transform="translate(115.614118, 47.863846) rotate(15.000000) translate(-115.614118, -47.863846) translate(95.114118, 21.363846)">
                <g id="Rectangle-11">
                    <use fill="#59C059" fill-rule="evenodd" xlink:href="#path-1"></use>
                    <rect stroke-opacity="0.2" stroke="#000000" stroke-width="1" x="0.5" y="0.5" width="39.2823529" height="51.8267674" rx="4"></rect>
                </g>
                <ellipse id="Oval" fill-opacity="0.1" fill="#000000" cx="20.2662769" cy="48.8398416" rx="1.25100475" ry="1.24591433"></ellipse>
                <path d="M4.67367556,7.73056853 C4.67367556,6.62635104 5.57335624,5.7312059 6.67188998,5.7312059 L33.8606639,5.7312059 C34.9642473,5.7312059 35.8588783,6.62905878 35.8588783,7.73056853 L35.8588783,12.7083261 L4.67367556,12.7083261 L4.67367556,7.73056853 Z" id="Rectangle-12" fill-opacity="0.1" fill="#000000"></path>
                <path d="M4.67367556,12.7083261 L35.8588783,12.7083261 L35.8588783,43.8511434 C35.8588783,44.9548865 34.9591977,45.8496472 33.8606639,45.8496472 L6.67188998,45.8496472 C5.56830663,45.8496472 4.67367556,44.9631969 4.67367556,43.8511434 L4.67367556,12.7083261 Z" id="Rectangle-12-Copy" fill-opacity="0.5" fill="#FFFFFF"></path>
                <rect id="Rectangle-13" fill="#FFFFFF" opacity="0.25" x="4.75381805" y="48.3414758" width="8.0064304" height="1" rx="0.5"></rect>
                <rect id="Rectangle-13-Copy" fill="#FFFFFF" opacity="0.25" x="15.2622579" y="8.22303455" width="10.008038" height="1.99346292" rx="0.99673146"></rect>
            </g>
            <g id="card" transform="translate(27.614118, 46.863846) rotate(-15.000000) translate(-27.614118, -46.863846) translate(7.114118, 20.363846)">
                <g id="Rectangle-11">
                    <use fill="#9966FF" fill-rule="evenodd" xlink:href="#path-2"></use>
                    <rect stroke-opacity="0.2" stroke="#000000" stroke-width="1" x="0.5" y="0.5" width="39.2823529" height="51.8267674" rx="4"></rect>
                </g>
                <ellipse id="Oval" fill-opacity="0.1" fill="#000000" cx="20.2662769" cy="48.8398416" rx="1.25100475" ry="1.24591433"></ellipse>
                <path d="M4.67367556,7.73056853 C4.67367556,6.62635104 5.57335624,5.7312059 6.67188998,5.7312059 L33.8606639,5.7312059 C34.9642473,5.7312059 35.8588783,6.62905878 35.8588783,7.73056853 L35.8588783,12.7083261 L4.67367556,12.7083261 L4.67367556,7.73056853 Z" id="Rectangle-12" fill-opacity="0.1" fill="#000000"></path>
                <path d="M4.67367556,12.7083261 L35.8588783,12.7083261 L35.8588783,43.8511434 C35.8588783,44.9548865 34.9591977,45.8496472 33.8606639,45.8496472 L6.67188998,45.8496472 C5.56830663,45.8496472 4.67367556,44.9631969 4.67367556,43.8511434 L4.67367556,12.7083261 Z" id="Rectangle-12-Copy" fill-opacity="0.5" fill="#FFFFFF"></path>
                <rect id="Rectangle-13" fill="#FFFFFF" opacity="0.25" x="4.75381805" y="48.3414758" width="8.0064304" height="1" rx="0.5"></rect>
                <rect id="Rectangle-13-Copy" fill="#FFFFFF" opacity="0.25" x="15.2622579" y="8.22303455" width="10.008038" height="1.99346292" rx="0.99673146"></rect>
            </g>
            <g id="card" transform="translate(106.269412, 43.516604) rotate(10.000000) translate(-106.269412, -43.516604) translate(83.269412, 13.016604)">
                <g id="Rectangle-11">
                    <use fill="#9966FF" fill-rule="evenodd" xlink:href="#path-3"></use>
                    <rect stroke-opacity="0.2" stroke="#000000" stroke-width="1" x="0.5" y="0.5" width="44.8211765" height="59.3734485" rx="4"></rect>
                </g>
                <ellipse id="Oval" fill-opacity="0.1" fill="#000000" cx="23.05289" cy="55.8169618" rx="1.4230179" ry="1.42390209"></ellipse>
                <path d="M5.31630595,8.54152008 C5.31630595,7.44160607 6.21091722,6.5499496 7.32513509,6.5499496 L38.780645,6.5499496 C39.8900907,6.5499496 40.7894741,7.44915163 40.7894741,8.54152008 L40.7894741,14.5238013 L5.31630595,14.5238013 L5.31630595,8.54152008 Z" id="Rectangle-12" fill-opacity="0.1" fill="#000000"></path>
                <path d="M5.31630595,14.5238013 L40.7894741,14.5238013 L40.7894741,50.3899715 C40.7894741,51.4998569 39.8948628,52.3995968 38.780645,52.3995968 L7.32513509,52.3995968 C6.21568939,52.3995968 5.31630595,51.5006937 5.31630595,50.3899715 L5.31630595,14.5238013 Z" id="Rectangle-12-Copy" fill-opacity="0.5" fill="#FFFFFF"></path>
                <rect id="Rectangle-13" fill="#FFFFFF" opacity="0.25" x="5.40746803" y="55.247401" width="9.10731458" height="1.13912167" rx="0.569560835"></rect>
                <rect id="Rectangle-13-Copy" fill="#FFFFFF" opacity="0.25" x="17.3608184" y="9.39775377" width="11.3841432" height="2.27824334" rx="1.13912167"></rect>
            </g>
            <g id="card" transform="translate(38.269412, 43.516604) rotate(-10.000000) translate(-38.269412, -43.516604) translate(15.269412, 13.016604)">
                <g id="Rectangle-11">
                    <use fill="#FF8C1A" fill-rule="evenodd" xlink:href="#path-4"></use>
                    <rect stroke-opacity="0.2" stroke="#000000" stroke-width="1" x="0.5" y="0.5" width="44.8211765" height="59.3734485" rx="4"></rect>
                </g>
                <ellipse id="Oval" fill-opacity="0.1" fill="#000000" cx="23.05289" cy="55.8169618" rx="1.4230179" ry="1.42390209"></ellipse>
                <path d="M5.31630595,8.54152008 C5.31630595,7.44160607 6.21091722,6.5499496 7.32513509,6.5499496 L38.780645,6.5499496 C39.8900907,6.5499496 40.7894741,7.44915163 40.7894741,8.54152008 L40.7894741,14.5238013 L5.31630595,14.5238013 L5.31630595,8.54152008 Z" id="Rectangle-12" fill-opacity="0.1" fill="#000000"></path>
                <path d="M5.31630595,14.5238013 L40.7894741,14.5238013 L40.7894741,50.3899715 C40.7894741,51.4998569 39.8948628,52.3995968 38.780645,52.3995968 L7.32513509,52.3995968 C6.21568939,52.3995968 5.31630595,51.5006937 5.31630595,50.3899715 L5.31630595,14.5238013 Z" id="Rectangle-12-Copy" fill-opacity="0.5" fill="#FFFFFF"></path>
                <rect id="Rectangle-13" fill="#FFFFFF" opacity="0.25" x="5.40746803" y="55.247401" width="9.10731458" height="1.13912167" rx="0.569560835"></rect>
                <rect id="Rectangle-13-Copy" fill="#FFFFFF" opacity="0.25" x="17.3608184" y="9.39775377" width="11.3841432" height="2.27824334" rx="1.13912167"></rect>
            </g>
            <g id="card" transform="translate(52.613166, 38.270755) rotate(-5.000000) translate(-52.613166, -38.270755) translate(26.113166, 4.270755)">
                <g id="Rectangle-11">
                    <use fill="#FFBF00" fill-rule="evenodd" xlink:href="#path-5"></use>
                    <rect stroke-opacity="0.2" stroke="#000000" stroke-width="1" x="0.963447099" y="0.540512761" width="50.8635294" height="66.9201295" rx="4"></rect>
                </g>
                <path d="M6.01735728,9.35955644 C6.01735728,8.26003309 6.91226152,7.3686933 8.00844906,7.3686933 L44.1772141,7.3686933 C45.2768637,7.3686933 46.1683059,8.26162296 46.1683059,9.35955644 L46.1683059,16.3392764 L6.01735728,16.3392764 L6.01735728,9.35955644 Z" id="Rectangle-12" fill-opacity="0.1" fill="#000000"></path>
                <path d="M6.01735728,16.3392764 L46.1683059,16.3392764 L46.1683059,56.9515163 C46.1683059,58.0549978 45.2734016,58.9495464 44.1772141,58.9495464 L8.00844906,58.9495464 C6.90879944,58.9495464 6.01735728,58.0595703 6.01735728,56.9515163 L6.01735728,16.3392764 Z" id="Rectangle-12-Copy" fill-opacity="0.5" fill="#FFFFFF"></path>
                <rect id="Rectangle-13" fill="#FFFFFF" opacity="0.25" x="6.12054074" y="62.1533261" width="10.3082791" height="1.28151188" rx="0.640755939"></rect>
                <rect id="Rectangle-13-Copy" fill="#FFFFFF" opacity="0.25" x="19.6501571" y="10.572473" width="12.8853489" height="2.56302376" rx="1.28151188"></rect>
            </g>
            <g id="card" transform="translate(91.115069, 38.227177) rotate(5.000000) translate(-91.115069, -38.227177) translate(65.115069, 4.227177)">
                <g id="Rectangle-11">
                    <use fill="#CF63CF" fill-rule="evenodd" xlink:href="#path-6"></use>
                    <rect stroke-opacity="0.2" stroke="#000000" stroke-width="1" x="0.5" y="0.5" width="50.8624363" height="66.9201295" rx="4"></rect>
                </g>
                <ellipse id="Oval" fill-opacity="0.1" fill="#000000" cx="26.0922816" cy="62.794082" rx="1.61063467" ry="1.60188985"></ellipse>
                <path d="M6.01723046,9.35955644 C6.01723046,8.26003309 6.91211584,7.3686933 8.00828028,7.3686933 L44.176283,7.3686933 C45.2759095,7.3686933 46.1673328,8.26162296 46.1673328,9.35955644 L46.1673328,16.3392764 L6.01723046,16.3392764 L6.01723046,9.35955644 Z" id="Rectangle-12" fill-opacity="0.1" fill="#000000"></path>
                <path d="M6.01723046,16.3392764 L46.1673328,16.3392764 L46.1673328,56.9515163 C46.1673328,58.0549978 45.2724474,58.9495464 44.176283,58.9495464 L8.00828028,58.9495464 C6.90865383,58.9495464 6.01723046,58.0595703 6.01723046,56.9515163 L6.01723046,16.3392764 Z" id="Rectangle-12-Copy" fill-opacity="0.5" fill="#FFFFFF"></path>
                <rect id="Rectangle-13" fill="#FFFFFF" opacity="0.25" x="6.12041174" y="62.1533261" width="10.3080619" height="1.28151188" rx="0.640755939"></rect>
                <rect id="Rectangle-13-Copy" fill="#FFFFFF" opacity="0.25" x="19.649743" y="10.572473" width="12.8850774" height="2.56302376" rx="1.28151188"></rect>
            </g>
            <g id="card" transform="translate(42.614118, 0.248966)">
                <g id="Rectangle-11">
                    <use fill="#4C97FF" fill-rule="evenodd" xlink:href="#path-7"></use>
                    <rect stroke-opacity="0.2" stroke="#000000" stroke-width="1" x="0.5" y="0.5" width="56.4023529" height="74.4668106" rx="4"></rect>
                </g>
                <path d="M6.65998767,10.1805162 C6.65998767,9.07976893 7.54767182,8.187437 8.6557668,8.187437 L49.1031225,8.187437 C50.2053609,8.187437 51.0989016,9.08954919 51.0989016,10.1805162 L51.0989016,18.1547516 L6.65998767,18.1547516 L6.65998767,10.1805162 Z" id="Rectangle-12" fill-opacity="0.1" fill="#000000"></path>
                <path d="M6.65998767,18.1547516 L51.0989016,18.1547516 L51.0989016,63.4953916 C51.0989016,64.6022279 50.2112175,65.499496 49.1031225,65.499496 L8.6557668,65.499496 C7.55352842,65.499496 6.65998767,64.5959982 6.65998767,63.4953916 L6.65998767,18.1547516 Z" id="Rectangle-12-Copy" fill-opacity="0.5" fill="#FFFFFF"></path>
                <rect id="Rectangle-13" fill="#FFFFFF" opacity="0.25" x="6.97826087" y="69.2599388" width="11.4091633" height="1.42390209" rx="0.711951043"></rect>
                <rect id="Rectangle-13-Copy" fill="#FFFFFF" opacity="0.25" x="13.026087" y="11.7471922" width="31.6347826" height="2.84780417" rx="1.42390209"></rect>
            </g>
            <g id="s" transform="translate(64.769412, 26.913905)" fill-rule="nonzero">
                <g id="S-glow-Copy-2" opacity="0.25" transform="translate(3.028806, 19.287238)">
                    <g id="ID0.2794777057133615">
                        <g id="ID0.2817511581815779">
                            <g id="ID0.1519448710605502">
                                <use fill="#FFAB19" fill-rule="evenodd" xlink:href="#path-8"></use>
                                <path stroke="#FFFFFF" stroke-width="4" d="M8.5230758,4.72755504 L7.547236,5.19906211 L6.84753392,5.53714473 L7.62011878,5.22091688 L8.51028403,4.85656203 L8.69848473,4.77952932 C8.69097159,4.76117377 8.68334316,4.7428425 8.67559828,4.72453647 C8.63375778,4.62564107 8.5885186,4.52748264 8.53969752,4.43021434 C8.48210389,4.3154681 8.41952548,4.20196061 8.35166151,4.08994328 C8.30022426,4.00504015 8.24575054,3.92099308 8.1881094,3.83791157 C8.14794573,3.78002135 8.10624423,3.72259991 8.0629606,3.6656843 L7.80759501,3.85988673 L7.59159945,4.02414873 L6.47101044,4.87634309 L7.547236,5.19906211 L7.62011878,5.22091688 L8.38673582,5.45079611 C8.4058359,5.38541767 8.4058359,5.38541767 8.42229215,5.32343878 C8.46201238,5.17408364 8.49149198,5.01657311 8.51028403,4.85656203 C8.5153175,4.81370292 8.5195842,4.77066441 8.52307554,4.72755517 C8.52397513,4.71644751 8.5248232,4.70533573 8.52561965,4.69422111 C8.53166322,4.60238231 8.53637233,4.51467902 8.53969752,4.43021434 C8.54600729,4.26993702 8.54733386,4.12132115 8.54333913,3.97823852 C8.54182692,3.92407417 8.53955214,3.87070275 8.53649648,3.81779181 L8.1881094,3.83791157 L7.80759501,3.85988673 L6.53982335,3.93310203 L7.59159945,4.02414873 L8.35166151,4.08994328 L8.53237176,4.10558641 C8.53618759,4.06127445 8.53984012,4.0188624 8.54333913,3.97823852 C8.59057125,3.42986995 8.60983292,3.20733364 8.62526129,3.03582837 C8.65207691,2.66732729 8.66883716,2.40128614 8.67897409,2.19325322 C8.76514425,0.56087071 8.08699488,-0.706430245 6.94767535,-1.41937195 C6.15641545,-1.91213041 5.22591315,-2.10444278 4.32240067,-1.94551027 C4.0715998,-1.90479582 3.81498294,-1.83598559 3.56487173,-1.73878408 C3.45488135,-1.74576828 3.34420181,-1.74926841 3.23290851,-1.74926841 C2.40442502,-1.74926841 1.60018919,-1.5540628 0.860041839,-1.17540098 C0.0816321167,-0.772361878 -0.574874137,-0.108077537 -0.985298935,0.83682063 C-1.07245735,1.02973627 -1.10821382,1.14043581 -1.26046766,1.65376202 C-1.54585244,2.58888378 -1.6572338,3.14014073 -1.6572338,3.69729177 L-1.6572338,4.37674507 C-1.6572338,4.51723704 -1.65063663,4.65721102 -1.63752806,4.79628042 C-1.80257555,5.14978766 -1.9136194,5.5266631 -1.96689281,5.9121921 C-1.98889429,6.07653238 -2,6.23379336 -2,6.39245653 C-2,6.58020326 -1.98508845,6.76193908 -1.95720391,6.93893669 C-1.95630957,6.94461353 -1.95540189,6.9502855 -1.95448092,6.95595263 C-1.94842528,6.99321582 -1.94179544,7.03027009 -1.93460957,7.06712738 C-1.91856484,7.14942303 -1.89974809,7.23073665 -1.87836171,7.31120111 L-1.01062137,7.08056729 L-0.594770059,6.97003955 L0.0545309869,6.79746399 L-1.94194714,6.67882557 C-1.94663198,6.75766329 -1.95029667,6.83389757 -1.95290233,6.90739877 C-1.95348088,6.9237186 -1.95400722,6.9399037 -1.95448092,6.95595263 C-1.95559391,6.99366039 -1.95641634,7.03061649 -1.95694269,7.06680254 L-1.93460957,7.06712738 L-1.01062137,7.08056729 L0.0428457754,7.09589054 L-0.594770059,6.97003955 L-1.91929892,6.70860743 C-1.93233688,6.77466344 -1.94354216,6.8409408 -1.95290233,6.90739877 C-1.95438234,6.91790695 -1.95581622,6.92841964 -1.95720391,6.93893669 C-1.97789024,7.09571361 -1.98831479,7.25345811 -1.98831479,7.41163648 L-1.98831479,8.05645099 C-1.98831479,8.19700279 -1.97975553,8.33677868 -1.96295441,8.47546641 C-1.97211243,8.65272998 -1.97662958,8.796717 -1.97662958,8.92375315 C-1.97662958,11.2544595 -0.345854694,12.9168162 1.71383102,12.9168162 C2.52939998,12.9168162 3.30102439,12.6533127 4.03660655,12.1707041 C4.12286902,12.1138032 4.20622673,12.0534059 4.28650775,11.9896958 C6.57068552,11.5918101 8.20675076,10.4651861 8.86927188,8.58146926 L8.86315061,8.59862363 C9.11410317,7.90533879 9.16163336,7.20721156 9.08294521,6.2006159 C9.06784876,5.9991012 9.03343105,5.79362353 8.98041905,5.59203715 C8.90108789,5.28294979 8.80133609,4.99496688 8.67560069,4.72454164 C8.66664443,4.70527906 8.65755882,4.68611068 8.64833943,4.66703006 L8.5230758,4.72755504 Z"></path>
                            </g>
                        </g>
                    </g>
                    <g id="ID0.20706806425005198" transform="translate(1.428193, 1.332261)" fill="#FFFFFF">
                        <path d="M4.23731735,5.14199601 C4.27535921,5.62653947 4.26756907,5.93882153 4.21446627,6.07950834 C3.99348594,6.72019283 3.2510855,7.12240254 1.98752464,7.28653714 C1.56101442,7.34129308 1.13476387,7.13425967 0.708253651,6.66543689 C0.708253651,6.73578029 0.723444426,6.94667726 0.754085647,7.29839427 C0.776936727,7.55618684 0.773041657,7.76708382 0.742660107,7.93108519 C0.55219116,8.05605131 0.400023739,8.1186676 0.285768338,8.1186676 C0.110490166,8.1186676 0.0231107516,7.94294232 0.0231107516,7.59122532 C0.0231107516,7.52874226 0.0268759864,7.42922233 0.0345362917,7.29253232 C0.0420667613,7.15597553 0.0459618318,7.06018593 0.0459618318,7.00542999 C0.0459618318,6.87260353 0.0345362917,6.77894556 0.0116852115,6.72418961 L0.0116852115,6.07964156 C0.0116852115,6.0640541 0.0154504463,6.04646825 0.0231107516,6.02688401 C0.0306412212,6.00743299 0.0383015265,5.98984714 0.0459618318,5.97412646 C0.0383015265,5.86488103 0.0420667613,5.69688287 0.0573873719,5.47026521 C0.0725781468,5.32957841 0.0725781468,5.23991722 0.0573873719,5.20074873 C0.0192156811,5.12281144 0.000389507049,5.07591584 0.000389507049,5.06019516 C0.0306412212,4.84143784 0.186963384,4.73205918 0.46857698,4.73205918 C0.651255786,4.73205918 0.761616117,4.79853902 0.799787807,4.93123226 C0.799787807,5.05619837 0.814978582,5.23991722 0.845489968,5.48198911 C0.891321964,5.76322948 1.03582908,6.04460309 1.27953066,6.32571024 C1.54595348,6.6461191 1.80095076,6.79453302 2.04478217,6.77108522 C2.3188653,6.74004353 2.59294843,6.67356368 2.86703155,6.57191214 C3.24770978,6.43122534 3.47609074,6.26722396 3.55230429,6.07977479 C3.60540708,5.93908799 3.63215323,5.7908073 3.63215323,5.63439981 C3.63215323,5.15798314 3.46089997,4.80240258 3.1182636,4.5680578 C2.96583651,4.46653949 2.68422291,4.38447219 2.2730333,4.3218559 C2.03699203,4.29081421 1.89222524,4.2749603 1.83912245,4.2749603 C1.473635,4.28282064 1.13281633,4.16171808 0.816926118,3.91165262 C0.500906065,3.66172039 0.343025875,3.37248645 0.343025875,3.04435047 L0.343025875,2.36476394 C0.343025875,2.21648325 0.42676989,1.86876303 0.594387757,1.32186974 C0.670341632,1.06394393 0.712278557,0.927387144 0.720068698,0.911666459 C0.788492103,0.747665084 0.876001353,0.638286425 0.982596449,0.583530482 C1.24135897,0.450837249 1.51544209,0.384357407 1.80484583,0.384357407 C2.36820286,0.384357407 2.7831577,0.618702183 3.04971036,1.08739173 C3.07256144,1.11083953 3.11060329,1.14601124 3.16396576,1.19290684 C3.17149623,1.0836614 3.18681684,0.915663243 3.20966792,0.689045583 C3.20200761,0.587527267 3.19434731,0.489872508 3.18681684,0.396081307 C3.18681684,0.286835874 3.23991963,0.212628916 3.34664457,0.173460431 C3.37702612,0.157872973 3.41896304,0.146149073 3.47232551,0.138288731 C3.54840922,0.122701273 3.63033553,0.142285515 3.71797462,0.196775005 C3.80535403,0.251530948 3.84157819,0.415665549 3.82638741,0.688912357 C3.81872711,0.860774075 3.80353633,1.10297919 3.78068525,1.41539449 C3.75783417,1.67332029 3.72368739,2.06780288 3.67785539,2.59910872 C3.69304617,2.72407483 3.69304617,2.89606978 3.67785539,3.11469387 C3.6396837,3.26310779 3.5254283,3.33731475 3.33521903,3.33731475 C3.2361544,3.33731475 3.14111468,3.31000339 3.04971036,3.25538067 C3.0040082,3.10709998 2.98128695,3.04435047 2.98128695,3.06779827 C2.99634789,2.85690129 2.9545408,2.57566092 2.85560601,2.22407714 C2.77173216,2.04448831 2.6557889,1.78869412 2.50725688,1.45656136 C2.35872485,1.12456183 2.16267297,0.946704933 1.91910123,0.923257133 C1.61450672,0.899809333 1.41663714,1.00532443 1.32523282,1.23966921 C1.29485127,1.34132075 1.25278451,1.4898679 1.19968171,1.68504419 C1.10827739,1.97414491 1.05114969,2.25152172 1.02829861,2.51704142 C1.0206383,2.6031055 1.012978,2.6382772 1.00544753,2.62255652 C1.02829861,2.778964 1.05491492,2.93510504 1.08542631,3.0913793 C1.12346817,3.28668881 1.21682002,3.43523596 1.36522221,3.53662105 C1.51375423,3.63827259 1.79718552,3.70062242 2.21603544,3.72407022 C3.2438147,3.78681973 3.87949021,4.15399097 4.12319179,4.82571715 C4.16110381,4.88833344 4.19914566,4.99371531 4.23731735,5.14199601 Z" id="ID0.570444684009999"></path>
                    </g>
                </g>
                <g id="S-glow-Copy" opacity="0.5" transform="translate(1.441925, 9.379534)">
                    <g id="ID0.2794777057133615">
                        <g id="ID0.2817511581815779">
                            <g id="ID0.1519448710605502">
                                <use fill="#FFAB19" fill-rule="evenodd" xlink:href="#path-9"></use>
                                <path stroke="#FFFFFF" stroke-width="4" d="M11.3463243,7.29485633 L10.9015631,7.50975638 L9.89088233,7.99809794 L11.0068382,7.54132438 L11.3186713,7.41368753 L11.7418331,7.24048254 C11.7342694,7.22200337 11.7266138,7.20354445 11.7188655,7.18510641 C11.6354605,6.98663314 11.5413226,6.79057845 11.4355498,6.5977228 C11.2921545,6.33627009 11.1273754,6.0806969 10.9389652,5.83294789 L9.34701508,7.04360668 L10.9015631,7.50975638 L11.0068382,7.54132438 L11.2627405,7.61805971 C11.2853028,7.54083895 11.2853028,7.54083895 11.3052214,7.4658335 C11.3098208,7.44853727 11.3143042,7.43115345 11.3186713,7.41368753 C11.328477,7.37447026 11.3376961,7.33483909 11.3463243,7.29485633 C11.3866886,7.1078085 11.4141193,6.91306597 11.4281685,6.71700836 C11.4308241,6.67663671 11.4332852,6.63688818 11.4355498,6.5977228 C11.4542925,6.27356962 11.4595748,5.98936258 11.4503053,5.72244054 C11.4671226,5.52780889 11.4874131,5.29233213 11.5156514,4.96465374 C11.5413224,4.66741209 11.5584383,4.4717269 11.5733969,4.30544385 C11.6103932,3.79533371 11.6341971,3.41748657 11.6484604,3.12477037 C11.7558678,1.0900007 10.9392113,-0.436137325 9.56400863,-1.29668548 C8.6054559,-1.89362465 7.48280125,-2.12565029 6.39746341,-1.93473376 C6.02393685,-1.87405724 5.64928914,-1.76590478 5.29178339,-1.6088097 C5.08655467,-1.62813223 4.87912722,-1.63783215 4.66975673,-1.63783215 C3.61434284,-1.63783215 2.59136454,-1.38953296 1.6471346,-0.906461815 C0.701013354,-0.416580473 -0.100296205,0.39422276 -0.607909883,1.56287347 C-0.714887941,1.79976144 -0.762881593,1.94834647 -0.968481636,2.64153021 C-1.35918466,3.92182587 -1.50489326,4.6429778 -1.50489326,5.34053256 L-1.50489326,6.3219651 C-1.50489326,6.57916984 -1.48715265,6.83490051 -1.45200739,7.08767121 C-1.71260579,7.57839624 -1.88471537,8.11273995 -1.96054528,8.66150588 C-1.98672783,8.85710367 -2,9.0450425 -2,9.23354832 C-2,9.49269999 -1.97608635,9.74272784 -1.9317037,9.98623725 C-1.93017349,9.99463287 -1.92861896,10.0030207 -1.92704023,10.011401 C-1.91375888,10.0819012 -1.8987655,10.1518605 -1.88214413,10.2213427 C-1.87326497,10.2584601 -1.86392122,10.2954414 -1.85412572,10.3322962 L-1.45978642,10.2274861 L-0.859112308,10.0678349 L0.078766981,9.8185591 L-1.91771115,9.69992068 C-1.92358649,9.79879239 -1.92826202,9.89429915 -1.9317037,9.98623725 C-1.93259011,10.009916 -1.93339467,10.0333581 -1.93411681,10.05656 C-1.93586214,10.1126367 -1.93712598,10.1673103 -1.93790012,10.2205317 L-1.88214413,10.2213427 L-1.45978642,10.2274861 L0.0618883422,10.2496197 L-0.859112308,10.0678349 L-1.90025635,9.86233656 C-1.91004725,9.91194154 -1.91897622,9.96163299 -1.92704023,10.011401 C-1.92947817,10.0264471 -1.93183706,10.0415002 -1.93411681,10.05656 C-1.96670485,10.2718337 -1.98312136,10.4884805 -1.98312136,10.7056971 L-1.98312136,11.6370959 C-1.98312136,11.8288507 -1.96970226,12.0196075 -1.94338144,12.2089135 C-1.94258773,12.214622 -1.94178229,12.2203292 -1.94096514,12.2260351 C-1.92741589,12.3206443 -1.9106451,12.4148874 -1.89071746,12.5087077 L-1.80509166,12.4905206 L0.0656391509,12.0931734 L-1.46805643,12.0449584 L-1.74076932,12.036385 L-1.93337329,12.0303301 C-1.9336933,12.0405096 -1.93514274,12.0658487 -1.94338144,12.2089135 C-1.94376096,12.2155039 -1.94415489,12.2223441 -1.94456378,12.2294442 L-1.94096514,12.2260351 L-1.74076932,12.036385 L0.0525113207,10.3375693 C-0.699986975,11.1461161 -1.17199213,11.681773 -1.46805643,12.0449584 C-1.62425666,12.2365709 -1.73148375,12.3801761 -1.80509166,12.4905206 C-1.96494217,12.7301503 -1.96624272,12.8129213 -1.96624272,12.8898657 C-1.96624272,15.7692975 -0.00479142709,17.7687345 2.47553369,17.7687345 C3.4669596,17.7687345 4.4168795,17.4443445 5.34304205,16.8366979 C5.50701887,16.7285341 5.66219607,16.6096619 5.80769915,16.4810099 C8.93910374,15.9923976 11.114755,14.539701 11.9726332,12.1005341 L11.966512,12.1176884 C12.2774335,11.2587326 12.3382988,10.3647375 12.2336245,9.02572056 C12.2156428,8.78571831 12.1748775,8.5423452 12.1120557,8.3034555 C12.0077704,7.89718079 11.8792212,7.52742397 11.7188655,7.18510641 C11.709906,7.16598023 11.7008472,7.14693972 11.6916878,7.12798327 L11.3463243,7.29485633 Z"></path>
                            </g>
                        </g>
                    </g>
                    <g id="ID0.20706806425005198" transform="translate(2.062945, 1.924378)" fill="#FFFFFF">
                        <path d="M6.12056951,7.42732756 C6.17551885,8.12722368 6.16426643,8.57829777 6.08756239,8.78151204 C5.76836858,9.7069452 4.69601239,10.2879148 2.87086892,10.5249981 C2.2547986,10.60409 1.63910337,10.3050417 1.02303305,9.62785328 C1.02303305,9.72946042 1.04497528,10.0340894 1.08923482,10.5421251 C1.12224194,10.9144921 1.11661573,11.2191211 1.07273127,11.4560119 C0.797609453,11.6365186 0.577812068,11.7269643 0.412776489,11.7269643 C0.159596907,11.7269643 0.0333821967,11.4731389 0.0333821967,10.9651032 C0.0333821967,10.8748499 0.0388208692,10.7310989 0.0498857547,10.5336578 C0.0607630997,10.3364091 0.0663893126,10.1980463 0.0663893126,10.1189544 C0.0663893126,9.92709399 0.0498857547,9.79181025 0.0168786388,9.71271833 L0.0168786388,8.78170448 C0.0168786388,8.75918926 0.0223173113,8.73378748 0.0333821967,8.70549913 C0.0442595417,8.67740321 0.0553244272,8.65200143 0.0663893126,8.62929378 C0.0553244272,8.47149482 0.0607630997,8.22883081 0.0828928705,7.90149419 C0.104835101,7.69827992 0.104835101,7.56876931 0.0828928705,7.51219261 C0.0277559838,7.39961653 0.000562621293,7.33187844 0.000562621293,7.30917078 C0.0442595417,6.99318799 0.270058221,6.83519659 0.676833416,6.83519659 C0.940702802,6.83519659 1.10011217,6.93122303 1.15524906,7.12289104 C1.15524906,7.30339765 1.17719129,7.56876931 1.22126329,7.91842871 C1.28746506,8.32466481 1.49619756,8.73109335 1.84821095,9.13713701 C2.23304391,9.59994981 2.60137332,9.81432547 2.95357425,9.78045642 C3.3494721,9.73561843 3.74536995,9.63959199 4.1412678,9.49276198 C4.69113634,9.28954771 5.02101996,9.05265684 5.13110619,8.78189692 C5.20781023,8.57868265 5.24644356,8.36449943 5.24644356,8.1385775 C5.24644356,7.45042009 4.99907773,6.93680373 4.50415853,6.59830572 C4.28398607,6.45166815 3.87721087,6.33312649 3.28327033,6.24268075 C2.94232182,6.19784275 2.73321424,6.17494266 2.65651021,6.17494266 C2.12858389,6.18629649 1.63629026,6.01137057 1.18000439,5.6501649 C0.723530983,5.28915168 0.495481819,4.87136931 0.495481819,4.39739512 L0.495481819,3.41577014 C0.495481819,3.20158692 0.616445397,2.69932438 0.858560093,1.9093674 C0.968271246,1.53680791 1.0288468,1.33955921 1.04009923,1.31685155 C1.13893304,1.07996068 1.26533529,0.921969281 1.41930598,0.842877364 C1.79307406,0.65120936 2.18897191,0.555182921 2.60699953,0.555182921 C3.42073746,0.555182921 4.02011668,0.893680931 4.40513718,1.57067695 C4.4381443,1.60454599 4.49309365,1.65534956 4.57017276,1.72308765 C4.58105011,1.56528869 4.60317988,1.32262468 4.636187,0.995288065 C4.62512211,0.848650496 4.61405723,0.707593622 4.60317988,0.572117443 C4.60317988,0.414318485 4.67988392,0.307130656 4.83404215,0.250553956 C4.87792661,0.228038739 4.93850217,0.211104216 5.01558129,0.199750389 C5.12547998,0.177235172 5.24381799,0.205523522 5.37040778,0.284230563 C5.49662249,0.36332248 5.54894627,0.600405793 5.52700404,0.995095627 C5.51593916,1.24334033 5.49399693,1.59319217 5.46098981,2.0444587 C5.4279827,2.41701819 5.37865956,2.98682638 5.31245779,3.75426815 C5.33440002,3.93477476 5.33440002,4.1832119 5.31245779,4.49900226 C5.2573209,4.71337791 5.09228532,4.82056574 4.81753859,4.82056574 C4.67444524,4.82056574 4.53716565,4.781116 4.40513718,4.70221653 C4.33912295,4.4880333 4.30630338,4.39739512 4.30630338,4.43126417 C4.32805807,4.1266352 4.26767005,3.7203991 4.12476424,3.21255587 C4.00361312,2.95314978 3.83613952,2.58366929 3.62159326,2.10392197 C3.40704701,1.62436708 3.12386096,1.36746268 2.77203511,1.33359364 C2.33206526,1.29972459 2.04625364,1.45213529 1.91422518,1.7906333 C1.87034072,1.93746331 1.80957762,2.15203141 1.73287358,2.43395272 C1.60084512,2.85154264 1.51832733,3.25219805 1.48532021,3.63572649 C1.47425533,3.76004128 1.46319044,3.81084485 1.4523131,3.78813719 C1.48532021,4.01405912 1.523766,4.23959616 1.567838,4.46532565 C1.62278735,4.7474394 1.75762892,4.96200749 1.97198763,5.10845262 C2.18653389,5.25528263 2.59593465,5.3453435 3.20094008,5.37921254 C4.68551013,5.46985073 5.60370808,6.00020918 5.95572147,6.97048033 C6.01048327,7.06092608 6.06543262,7.21314434 6.12056951,7.42732756 Z" id="ID0.570444684009999"></path>
                    </g>
                </g>
                <g id="S-glow" transform="translate(0.251765, 0.478055)">
                    <g id="ID0.2794777057133615">
                        <g id="ID0.2817511581815779">
                            <g id="ID0.1519448710605502">
                                <use fill="#FFAB19" fill-rule="evenodd" xlink:href="#path-10"></use>
                                <path stroke="#FFFFFF" stroke-width="4" d="M-1.91148905,12.5105294 C-1.90748311,12.5310425 -1.90334879,12.5515184 -1.89908766,12.5719585 C-1.87964451,12.6652249 -1.85756113,12.7577451 -1.83298653,12.8496392 C-1.83252939,12.8513486 -1.83207139,12.8530578 -1.83161253,12.8547668 L-1.81357734,12.8499244 L-1.06666854,12.6493803 L0.0999734759,12.3361384 L-1.89643261,12.2162937 C-1.90250565,12.31746 -1.90753181,12.4155951 -1.91148905,12.5105294 C-1.91389754,12.5683091 -1.91591008,12.6249031 -1.91752169,12.6802734 C-1.91919092,12.7376235 -1.92043004,12.7936606 -1.92123353,12.8483425 L-1.83298653,12.8496392 L-1.81357734,12.8499244 L0.0785505882,12.8777273 L-1.06666854,12.6493803 L-1.88283995,12.4866427 C-1.888506,12.5150594 -1.89392204,12.5434985 -1.89908766,12.5719585 C-1.90563488,12.6080306 -1.91177983,12.6441364 -1.91752169,12.6802734 C-1.95813013,12.9358469 -1.97857711,13.1929805 -1.97857711,13.4507477 L-1.97857711,14.6209666 C-1.97857711,14.8547134 -1.96085166,15.0873102 -1.92609325,15.3182001 C-1.92305189,15.338403 -1.91988012,15.3585928 -1.91657841,15.3787691 C-1.90373579,15.4572487 -1.88892716,15.5355249 -1.87217982,15.6135758 L-1.68181848,15.5727301 L0.0833112299,15.193987 L-1.36100919,15.1481184 L-1.66284348,15.1385328 L-1.91568097,15.1305032 C-1.916099,15.1436662 -1.92190779,15.2455999 -1.92609325,15.3182001 C-1.92855812,15.3609553 -1.93045998,15.3935371 -1.93036626,15.3918235 L-1.91657841,15.3787691 L-1.66284348,15.1385328 L0.066648984,13.5010486 C-0.610576134,14.2476085 -1.06118569,14.7723046 -1.36100919,15.1481184 C-1.49634229,15.3177517 -1.60095421,15.4570517 -1.68181848,15.5727301 C-1.9548704,15.9633377 -1.95715422,16.0846137 -1.95715422,16.1949594 C-1.95715422,19.5361359 0.298254179,21.8119997 3.14202353,21.8119997 C4.28351321,21.8119997 5.38684056,21.4390282 6.47839047,20.7301064 C6.70880252,20.5796548 6.92411674,20.4106427 7.12239035,20.2250677 C11.0038909,19.6639282 13.6541303,17.9431911 14.6859479,15.0391037 L14.6797227,15.056373 C15.0452625,14.0567286 15.1181563,12.9968731 14.9903446,11.3783937 C14.9696664,11.1052066 14.9229513,10.8291292 14.8509559,10.558121 C14.7243726,10.0699825 14.5700268,9.63144089 14.378669,9.22877375 L14.378669,9.22877375 C14.2604726,8.94930846 14.1241016,8.67403176 13.9677632,8.40454269 C13.9677736,8.4044003 13.9677839,8.4042579 13.9677942,8.4041155 C13.9986965,7.93898555 14.0079748,7.54350462 13.9938342,7.17747435 C14.0156854,6.92720843 14.0420651,6.62415647 14.0794032,6.19525963 C14.1120329,5.8212601 14.1337995,5.57491798 14.1528515,5.36527036 C14.1988354,4.73665279 14.2288211,4.26548806 14.2467124,3.90202554 C14.3733783,1.5266031 13.4306019,-0.217427198 11.8455664,-1.19926178 C10.7428123,-1.87906486 9.4564188,-2.14224584 8.2165397,-1.92634776 C7.77821822,-1.85583663 7.345295,-1.73183153 6.93329111,-1.55191891 C6.89116164,-1.53410795 6.84898389,-1.51556563 6.806816,-1.49631154 C6.51737559,-1.52869393 6.22395432,-1.54496859 5.92699893,-1.54496859 C4.6759794,-1.54496859 3.46423091,-1.25382165 2.34315616,-0.686069502 C1.24982519,-0.125680056 0.320067121,0.805590742 -0.274715522,2.16109405 C-0.399727038,2.43518756 -0.458596144,2.61560128 -0.711405695,3.459343 C-1.19519215,5.02869618 -1.37159529,5.89294497 -1.37159529,6.70989988 L-1.37159529,7.9429818 C-1.37159529,8.29766204 -1.34242708,8.64984641 -1.28475033,8.9967051 C-1.63155657,9.59887885 -1.85892792,10.2644182 -1.9546106,10.9498603 C-1.98470533,11.1724315 -2,11.386822 -2,11.6011248 C-2,11.9143871 -1.96895293,12.2162762 -1.91148905,12.5105294 Z"></path>
                            </g>
                        </g>
                    </g>
                    <g id="ID0.20706806425005198" transform="translate(2.618353, 2.417808)" fill="#FFFFFF">
                        <path d="M7.76841514,9.33177053 C7.83815855,10.2111272 7.82387662,10.7778613 7.7265215,11.0331818 C7.32139089,12.1959055 5.96032342,12.9258416 3.64379517,13.2237156 C2.86185976,13.3230874 2.08040043,12.9473601 1.29846503,12.0965336 C1.29846503,12.2241939 1.32631478,12.6069328 1.38249035,13.245234 C1.424384,13.7130798 1.41724304,14.0958188 1.36154353,14.3934509 C1.01235046,14.6202413 0.733376856,14.7338782 0.52390862,14.7338782 C0.202565305,14.7338782 0.0423697112,14.4149694 0.0423697112,13.7766682 C0.0423697112,13.663273 0.0492726417,13.4826628 0.0633165348,13.2345957 C0.0771223957,12.9867704 0.0842633583,12.81293 0.0842633583,12.7135581 C0.0842633583,12.4725027 0.0633165348,12.3025308 0.0214228877,12.2031589 L0.0214228877,11.0334236 C0.0214228877,11.0051352 0.0283258182,10.9732202 0.0423697112,10.9376784 C0.0561755722,10.9023784 0.0702194652,10.8704633 0.0842633583,10.8419332 C0.0702194652,10.643673 0.0771223957,10.3387874 0.105210182,9.92751834 C0.133059936,9.67219785 0.133059936,9.50947939 0.105210182,9.43839585 C0.0352287487,9.2969541 0.000714096257,9.21184727 0.000714096257,9.18331714 C0.0561755722,8.78631311 0.342766203,8.5878111 0.859057797,8.5878111 C1.19396894,8.5878111 1.39629621,8.70845971 1.46627765,8.94927335 C1.46627765,9.17606371 1.4941274,9.50947939 1.55006494,9.94879505 C1.63409027,10.4591942 1.89901998,10.9698352 2.3458062,11.4799927 C2.83424804,12.0614754 3.30174306,12.3308192 3.74876732,12.2882658 C4.25125305,12.2319308 4.75373878,12.1112822 5.25622451,11.9268035 C5.95413459,11.671483 6.37283303,11.3738509 6.51255786,11.0336654 C6.60991298,10.7783449 6.65894759,10.5092429 6.65894759,10.2253922 C6.65894759,9.36078422 6.34498327,8.71547135 5.7168166,8.29017898 C5.43736693,8.10594203 4.92107534,7.95700508 4.16722772,7.84336812 C3.73448539,7.7870332 3.46907961,7.75826129 3.37172449,7.75826129 C2.70166417,7.77252635 2.07682995,7.55274764 1.49769788,7.09892513 C0.918327786,6.64534441 0.62888077,6.12043837 0.62888077,5.52493233 L0.62888077,4.29160863 C0.62888077,4.02250664 0.782411465,3.39145883 1.08971089,2.39894878 C1.22895966,1.93086121 1.30584402,1.68303593 1.32012595,1.6545058 C1.44556886,1.35687367 1.60600248,1.15837166 1.80142682,1.05899976 C2.27582477,0.818186119 2.7783105,0.697537516 3.30888402,0.697537516 C4.34170524,0.697537516 5.10245579,1.12282989 5.59113566,1.97341463 C5.6330293,2.01596804 5.70277271,2.07979817 5.80060389,2.164905 C5.81440975,1.96664477 5.84249754,1.66175922 5.88439119,1.25049013 C5.87034729,1.06625319 5.8563034,0.889027885 5.84249754,0.718814224 C5.84249754,0.520553994 5.93985266,0.385882106 6.13551504,0.31479856 C6.19121455,0.28651021 6.26809891,0.265233503 6.3659301,0.250968437 C6.5054169,0.222680087 6.65561514,0.25822186 6.8162868,0.357110195 C6.9764824,0.45648209 7.04289335,0.754355997 7.01504359,1.25024835 C7.0009997,1.56214554 6.97314995,2.00170298 6.9312563,2.56867888 C6.88936265,3.03676645 6.82676021,3.7526793 6.74273489,4.71690101 C6.77058464,4.94369137 6.77058464,5.25583034 6.74273489,5.65259258 C6.67275345,5.92193635 6.46328522,6.05660824 6.11456821,6.05660824 C5.93294973,6.05660824 5.75871025,6.00704318 5.59113566,5.90791307 C5.50734836,5.63881107 5.46569275,5.52493233 5.46569275,5.56748575 C5.49330447,5.18474679 5.41665814,4.67434759 5.23527769,4.03628814 C5.08150896,3.71036767 4.86894631,3.24614859 4.5966376,2.64338914 C4.3243289,2.04087146 3.96490045,1.71809414 3.51835226,1.67554072 C2.95992898,1.63298731 2.59716809,1.82447768 2.4295935,2.24977005 C2.37389399,2.43424877 2.29677159,2.70383433 2.19941647,3.05804316 C2.03184188,3.58270742 1.92710776,4.08609498 1.88521412,4.56796405 C1.87117022,4.72415443 1.85712633,4.78798455 1.84332047,4.75945442 C1.88521412,5.04330504 1.9340107,5.3266721 1.98994824,5.61028094 C2.05969164,5.96473155 2.23083671,6.23431711 2.50290738,6.41831227 C2.77521609,6.602791 3.29484013,6.7159444 4.06273164,6.75849781 C5.94699363,6.87237655 7.11239872,7.53872435 7.55918494,8.75778298 C7.62869031,8.87141995 7.69843371,9.06266853 7.76841514,9.33177053 Z" id="ID0.570444684009999"></path>
                    </g>
                </g>
            </g>
            <g id="cursor" transform="translate(75.847059, 43.516604)" stroke="#575E75" fill-rule="nonzero" stroke-width="3" fill="#575E75" stroke-linecap="round" stroke-linejoin="round">
                <path d="M2.1311489,4.81530856 L3.40950875,7.63319905" id="Shape"></path>
                <polygon id="Shape" points="5.17154668 4.67769822 2.03375431 4.67769822 0 7.21379967 0 0"></polygon>
            </g>
        </g>
    </g>
</svg>