<svg width="200" height="140" xmlns="http://www.w3.org/2000/svg"><g fill="none" fill-rule="evenodd"><g transform="rotate(15 -115.54 519.492)"><rect width="39.437" height="51.719" rx="4" fill="#59C059"/><rect stroke-opacity=".2" stroke="#000" x=".49" y=".49" width="38.458" height="50.739" rx="4"/><ellipse fill-opacity=".1" fill="#000" cx="19.841" cy="47.815" rx="1.225" ry="1.22"/><path d="M4.576 7.568a1.96 1.96 0 0 1 1.956-1.957H33.15c1.08 0 1.957.879 1.957 1.957v4.874H4.576V7.568z" fill-opacity=".1" fill="#000"/><path d="M4.576 12.442h30.53v30.49a1.96 1.96 0 0 1-1.956 1.956H6.532a1.951 1.951 0 0 1-1.956-1.957v-30.49z" fill-opacity=".5" fill="#FFF"/><rect fill="#FFF" opacity=".25" x="4.654" y="47.327" width="7.838" height="1" rx=".5"/><rect fill="#FFF" opacity=".25" x="14.942" y="8.051" width="9.798" height="1.952" rx=".976"/></g><g transform="rotate(-15 232.003 -88.976)"><rect width="39.437" height="51.719" rx="4" fill="#96F"/><rect stroke-opacity=".2" stroke="#000" x=".49" y=".49" width="38.458" height="50.739" rx="4"/><ellipse fill-opacity=".1" fill="#000" cx="19.841" cy="47.815" rx="1.225" ry="1.22"/><path d="M4.576 7.568a1.96 1.96 0 0 1 1.956-1.957H33.15c1.08 0 1.957.879 1.957 1.957v4.874H4.576V7.568z" fill-opacity=".1" fill="#000"/><path d="M4.576 12.442h30.53v30.49a1.96 1.96 0 0 1-1.956 1.956H6.532a1.951 1.951 0 0 1-1.956-1.957v-30.49z" fill-opacity=".5" fill="#FFF"/><rect fill="#FFF" opacity=".25" x="4.654" y="47.327" width="7.838" height="1" rx=".5"/><rect fill="#FFF" opacity=".25" x="14.942" y="8.051" width="9.798" height="1.952" rx=".976"/></g><g transform="rotate(10 -171.717 689.086)"><rect width="44.86" height="59.107" rx="4" fill="#96F"/><rect stroke-opacity=".2" stroke="#000" x=".49" y=".49" width="43.881" height="58.128" rx="4"/><ellipse fill-opacity=".1" fill="#000" cx="22.569" cy="54.646" rx="1.393" ry="1.394"/><path d="M5.205 8.362c0-1.077.876-1.95 1.966-1.95h30.796c1.086 0 1.967.88 1.967 1.95v5.857H5.204V8.362z" fill-opacity=".1" fill="#000"/><path d="M5.205 14.22h34.729v35.113a1.964 1.964 0 0 1-1.967 1.967H7.171a1.967 1.967 0 0 1-1.966-1.967V14.219z" fill-opacity=".5" fill="#FFF"/><rect fill="#FFF" opacity=".25" x="5.294" y="54.088" width="8.916" height="1.115" rx=".558"/><rect fill="#FFF" opacity=".25" x="16.997" y="9.201" width="11.145" height="2.23" rx="1.115"/></g><g transform="rotate(-10 294.987 -205.153)"><rect width="44.86" height="59.107" rx="4" fill="#FF8C1A"/><rect stroke-opacity=".2" stroke="#000" x=".49" y=".49" width="43.881" height="58.128" rx="4"/><ellipse fill-opacity=".1" fill="#000" cx="22.569" cy="54.646" rx="1.393" ry="1.394"/><path d="M5.205 8.362c0-1.077.876-1.95 1.966-1.95h30.796c1.086 0 1.967.88 1.967 1.95v5.857H5.204V8.362z" fill-opacity=".1" fill="#000"/><path d="M5.205 14.22h34.729v35.113a1.964 1.964 0 0 1-1.967 1.967H7.171a1.967 1.967 0 0 1-1.966-1.967V14.219z" fill-opacity=".5" fill="#FFF"/><rect fill="#FFF" opacity=".25" x="5.294" y="54.088" width="8.916" height="1.115" rx=".558"/><rect fill="#FFF" opacity=".25" x="16.997" y="9.201" width="11.145" height="2.23" rx="1.115"/></g><g transform="rotate(-5 456.617 -585.45)"><rect x=".454" y=".04" width="50.775" height="66.495" rx="4" fill="#FFBF00"/><rect stroke-opacity=".2" stroke="#000" x=".943" y=".529" width="49.796" height="65.516" rx="4"/><path d="M5.891 9.163c0-1.076.876-1.949 1.95-1.949h35.41a1.95 1.95 0 0 1 1.949 1.95v6.832H5.89V9.163z" fill-opacity=".1" fill="#000"/><path d="M5.891 15.996H45.2v39.76c0 1.081-.876 1.957-1.95 1.957H7.84a1.95 1.95 0 0 1-1.949-1.956v-39.76z" fill-opacity=".5" fill="#FFF"/><rect fill="#FFF" opacity=".25" x="5.992" y="60.849" width="10.092" height="1.255" rx=".627"/><rect fill="#FFF" opacity=".25" x="19.238" y="10.351" width="12.615" height="2.509" rx="1.255"/></g><g transform="rotate(5 -330.073 1124.459)"><rect width="50.774" height="66.495" rx="4" fill="#CF63CF"/><rect stroke-opacity=".2" stroke="#000" x=".49" y=".49" width="49.795" height="65.516" rx="4"/><ellipse fill-opacity=".1" fill="#000" cx="25.545" cy="61.477" rx="1.577" ry="1.568"/><path d="M5.891 9.163c0-1.076.876-1.949 1.95-1.949H43.25a1.95 1.95 0 0 1 1.949 1.95v6.832H5.89V9.163z" fill-opacity=".1" fill="#000"/><path d="M5.891 15.996h39.308v39.76c0 1.081-.876 1.957-1.95 1.957H7.84a1.95 1.95 0 0 1-1.949-1.956v-39.76z" fill-opacity=".5" fill="#FFF"/><rect fill="#FFF" opacity=".25" x="5.992" y="60.849" width="10.092" height="1.255" rx=".627"/><rect fill="#FFF" opacity=".25" x="19.238" y="10.351" width="12.615" height="2.509" rx="1.255"/></g><g transform="translate(71.72 31.244)"><rect width="56.198" height="73.884" rx="4" fill="#4C97FF"/><rect stroke-opacity=".2" stroke="#000" x=".49" y=".49" width="55.219" height="72.905" rx="4"/><path d="M6.52 9.967c0-1.078.87-1.951 1.954-1.951h39.599c1.08 0 1.954.883 1.954 1.95v7.808H6.52V9.967z" fill-opacity=".1" fill="#000"/><path d="M6.52 17.774h43.507v44.39c0 1.083-.87 1.961-1.954 1.961H8.474a1.962 1.962 0 0 1-1.954-1.962v-44.39z" fill-opacity=".5" fill="#FFF"/><rect fill="#FFF" opacity=".25" x="6.832" y="67.807" width="11.17" height="1.394" rx=".697"/><rect fill="#FFF" opacity=".25" x="12.753" y="11.501" width="30.971" height="2.788" rx="1.394"/></g><g opacity=".5"><path d="M104.855 84.054c-.543 1.59-2.021 2.555-4.39 2.87a3.278 3.278 0 0 1-.32.027 1.908 1.908 0 0 1-.53.542c-.556.375-1.076.557-1.59.557-1.055 0-2.19-.83-2.19-2.655 0-.125.004-.286.016-.51l.012-.225a2.075 2.075 0 0 1-.044-.421v-.86c0-.14.013-.28.04-.42.002-.12.007-.252.015-.398a2.147 2.147 0 0 1-.052-.815 2.53 2.53 0 0 1 .603-1.335 3.346 3.346 0 0 1-.177-1.076v-.905c0-.368.07-.826.407-1.965.142-.49.187-.643.25-.785.331-.785.83-1.177 1.194-1.37a4.035 4.035 0 0 1 2.774-.375 2.328 2.328 0 0 1 .983-.4c.53-.095 1.09.024 1.579.336.513.33 1.102 1.015 1.03 2.425-.012.249-.032.58-.062 1.014l-.122 1.434c.014.24.009.508-.011.824a1.987 1.987 0 0 1-.078.433c.227.307.382.614.488.88.1.212.184.455.258.752.028.111.047.225.055.34.076.996.037 1.584-.138 2.081z" fill="#FFAB19"/><path d="M94.452 82.69c.003.014.016 2.22.028 2.278 0 0-.06.346-.06.427 0 2.453 1.595 4.124 3.605 4.124.808 0 1.588-.274 2.36-.794.162-.11.315-.235.455-.371 2.744-.412 4.618-1.676 5.348-3.808.254-.722.305-1.5.215-2.688a3.45 3.45 0 0 0-.099-.602 5.58 5.58 0 0 0-.333-.977 5.471 5.471 0 0 0-.291-.605c.022-.342.028-.632.018-.9a179.143 179.143 0 0 1 .112-1.33c.033-.463.055-.809.067-1.076.09-1.744-.577-3.025-1.698-3.745-.78-.5-1.689-.693-2.566-.534a3.657 3.657 0 0 0-.996.315A5.407 5.407 0 0 0 97.46 73c-.774.412-1.43 1.096-1.851 2.09-.089.202-.13.335-.31.954-.341 1.153-.466 1.787-.466 2.387v.905c0 .26.02.52.061.774-.245.442-.406.93-.473 1.434a3.598 3.598 0 0 0 .03 1.146z" stroke="#FFF" stroke-width="2.88"/><g fill="#FFF"><path d="M103.148 82.13c.05.646.04 1.062-.03 1.25-.286.853-1.248 1.39-2.886 1.608-.553.073-1.106-.203-1.659-.827 0 .093.02.374.06.843.03.343.024.625-.015.843-.247.167-.444.25-.592.25-.228 0-.34-.234-.34-.703 0-.083.004-.216.014-.398.01-.182.015-.31.015-.382 0-.177-.015-.302-.045-.375v-.86a.2.2 0 0 1 .015-.07l.03-.07c-.01-.145-.005-.37.015-.671.02-.188.02-.307 0-.36a.76.76 0 0 1-.074-.187c.039-.291.241-.437.607-.437.236 0 .38.089.429.266 0 .166.02.41.06.733.059.375.246.75.562 1.125.345.427.676.625.992.593a4.42 4.42 0 0 0 1.066-.265c.493-.188.79-.406.888-.656.069-.187.103-.385.103-.593 0-.635-.222-1.11-.666-1.421-.197-.136-.562-.245-1.095-.328a6.43 6.43 0 0 0-.563-.063c-.474.01-.915-.15-1.325-.484-.41-.333-.614-.719-.614-1.156v-.905c0-.198.108-.661.326-1.39.098-.344.152-.526.163-.547.088-.218.202-.364.34-.437.335-.177.69-.265 1.066-.265.73 0 1.268.312 1.613.936.03.032.08.079.149.141.01-.146.03-.37.059-.671a83.56 83.56 0 0 0-.03-.39c0-.146.069-.245.207-.297a.525.525 0 0 1 .163-.047c.099-.021.205.005.319.078.113.073.16.291.14.655-.01.23-.03.552-.059.969-.03.343-.074.869-.133 1.577.02.166.02.396 0 .687-.05.198-.198.297-.444.297a.697.697 0 0 1-.37-.11c-.06-.197-.09-.28-.09-.25.02-.28-.034-.655-.162-1.124-.109-.24-.26-.58-.452-1.023-.192-.442-.446-.679-.762-.71-.395-.032-.651.11-.77.421-.04.136-.094.334-.163.594a5.274 5.274 0 0 0-.222 1.109c-.01.114-.02.161-.03.14.03.209.065.417.104.625.05.26.17.458.363.593.192.136.56.219 1.103.25 1.332.084 2.156.573 2.472 1.468.05.083.098.224.148.421z"/></g></g><g opacity=".5"><path d="M105.312 77.914c-.669 1.942-2.487 3.122-5.404 3.509a4.062 4.062 0 0 1-.394.032 2.34 2.34 0 0 1-.652.662c-.684.458-1.324.681-1.956.681-1.298 0-2.697-1.015-2.697-3.246 0-.152.007-.35.021-.623.006-.117.013-.208.015-.275a2.519 2.519 0 0 1-.054-.514v-1.05c0-.172.016-.343.05-.515.002-.145.008-.308.018-.486a2.607 2.607 0 0 1-.064-.996 3.083 3.083 0 0 1 .741-1.631 4.064 4.064 0 0 1-.217-1.315V71.04c0-.45.085-1.009.501-2.402.174-.599.23-.785.307-.96.408-.958 1.023-1.438 1.47-1.674a4.994 4.994 0 0 1 3.414-.458 2.88 2.88 0 0 1 1.21-.488c.653-.117 1.342.028 1.943.41.632.403 1.357 1.241 1.268 2.964-.015.304-.04.71-.077 1.239-.037.423-.085.996-.149 1.753.017.293.01.62-.015 1.007a2.413 2.413 0 0 1-.095.53c.28.375.47.75.6 1.076.123.258.227.555.318.917.035.137.058.276.068.417.093 1.217.046 1.935-.17 2.543z" fill="#FFAB19"/><path d="M92.509 76.246c.003.018.02 2.714.034 2.784 0 0-.074.423-.074.522 0 2.999 1.963 5.041 4.437 5.041.994 0 1.954-.335 2.904-.97.2-.136.388-.287.56-.454 3.378-.504 5.684-2.048 6.582-4.654.313-.882.377-1.833.265-3.285a4.189 4.189 0 0 0-.121-.736 6.788 6.788 0 0 0-.411-1.193 6.667 6.667 0 0 0-.358-.74c.027-.418.035-.773.023-1.101l.075-.882.063-.745c.04-.564.067-.987.082-1.313.11-2.132-.71-3.697-2.09-4.578-.96-.61-2.079-.846-3.158-.652a4.524 4.524 0 0 0-1.226.385 6.691 6.691 0 0 0-3.884.727c-.952.503-1.761 1.34-2.279 2.556-.109.246-.16.408-.38 1.165-.421 1.408-.575 2.184-.575 2.917v1.107c0 .318.026.634.076.945-.302.54-.5 1.138-.583 1.753a4.368 4.368 0 0 0 .038 1.4z" stroke="#FFF" stroke-width="3.6"/><g fill="#FFF"><path d="M103.211 75.563c.06.789.048 1.298-.036 1.527-.353 1.043-1.537 1.698-3.553 1.966-.68.089-1.36-.248-2.041-1.012 0 .115.024.458.073 1.03.036.42.03.764-.018 1.031-.304.204-.547.306-.73.306-.279 0-.418-.286-.418-.86 0-.101.006-.263.018-.486.012-.222.018-.378.018-.467 0-.217-.018-.37-.055-.458v-1.05c0-.025.006-.054.019-.086.012-.032.024-.06.036-.086a6.723 6.723 0 0 1 .018-.82c.024-.23.024-.376 0-.44a.926.926 0 0 1-.09-.228c.048-.357.297-.535.746-.535.292 0 .468.108.529.325 0 .203.024.502.073.897.073.458.303.916.692 1.374.425.522.832.763 1.221.725.437-.05.875-.159 1.312-.324.607-.23.972-.497 1.093-.802.085-.229.128-.47.128-.725 0-.776-.274-1.355-.82-1.737-.244-.165-.693-.299-1.349-.401a7.968 7.968 0 0 0-.692-.076c-.583.012-1.127-.185-1.631-.592s-.756-.878-.756-1.413V71.04c0-.242.134-.808.401-1.699.121-.42.188-.642.2-.668.11-.267.25-.445.42-.535a2.79 2.79 0 0 1 1.311-.324c.899 0 1.561.382 1.986 1.145.037.038.097.096.183.172.012-.178.036-.452.073-.82l-.037-.478c0-.178.085-.299.255-.362a.65.65 0 0 1 .2-.058c.122-.025.253.007.392.096.14.089.198.356.173.801-.012.28-.036.675-.072 1.183-.037.42-.091 1.063-.165 1.928.025.204.025.484 0 .84-.06.242-.243.363-.546.363a.862.862 0 0 1-.456-.134c-.073-.241-.109-.344-.109-.305.024-.344-.043-.802-.2-1.375-.134-.292-.32-.709-.556-1.25-.237-.54-.55-.83-.939-.868-.485-.038-.801.133-.947.515-.048.166-.116.408-.2.726-.146.47-.237.922-.274 1.355-.012.14-.024.197-.036.171.036.255.079.51.127.764.061.318.21.56.447.725.237.166.689.267 1.357.305 1.64.103 2.654.7 3.043 1.795.06.102.121.273.182.515z"/></g></g><path d="M106.19 71.885c-.753 2.119-2.799 3.407-6.08 3.828a4.71 4.71 0 0 1-.443.035c-.19.284-.44.53-.734.722-.769.5-1.489.744-2.2.744-1.46 0-3.034-1.108-3.034-3.541 0-.166.007-.382.023-.68.007-.128.014-.227.017-.3a2.668 2.668 0 0 1-.06-.561v-1.146c0-.187.018-.374.055-.561.002-.159.01-.336.021-.53a2.763 2.763 0 0 1-.072-1.087 3.317 3.317 0 0 1 .834-1.78 4.312 4.312 0 0 1-.245-1.434v-1.208c0-.49.096-1.1.564-2.62.196-.653.259-.857.345-1.046.46-1.046 1.151-1.57 1.655-1.828a5.76 5.76 0 0 1 3.84-.499c.173-.118.357-.218.553-.3.249-.11.515-.185.808-.233.734-.127 1.51.031 2.186.448.71.44 1.526 1.354 1.426 3.233-.016.332-.044.774-.086 1.352-.042.461-.096 1.086-.168 1.912.019.32.012.677-.016 1.099a2.56 2.56 0 0 1-.107.577c.314.41.529.82.676 1.174.137.282.254.606.356 1.002.04.149.065.3.077.454.105 1.328.051 2.112-.191 2.774z" fill="#FFAB19"/><path d="M91.786 70.065c.004.02.022 2.962.038 3.038 0 0-.083.461-.083.57 0 3.27 2.208 5.499 4.992 5.499 1.118 0 2.198-.365 3.267-1.06.225-.147.436-.312.63-.494 3.8-.55 6.395-2.234 7.405-5.077.352-.962.423-2 .298-3.584a4.443 4.443 0 0 0-.137-.803 7.254 7.254 0 0 0-.462-1.302 7.18 7.18 0 0 0-.402-.806c.03-.456.04-.843.025-1.202l.084-.961.072-.813c.045-.615.074-1.077.092-1.433.124-2.325-.8-4.033-2.35-4.994-1.08-.665-2.34-.923-3.554-.712a5.209 5.209 0 0 0-1.38.421 7.743 7.743 0 0 0-4.37.794c-1.07.548-1.98 1.46-2.563 2.787-.122.268-.18.445-.427 1.271-.474 1.537-.647 2.383-.647 3.182v1.208c0 .347.029.692.085 1.031a5.308 5.308 0 0 0-.656 1.912 4.625 4.625 0 0 0 .042 1.528z" stroke="#FFF" stroke-width="4"/><g fill="#FFF"><path d="M103.826 69.32c.068.861.054 1.416-.041 1.666-.397 1.138-1.73 1.853-3.997 2.145-.766.097-1.53-.27-2.296-1.104 0 .125.027.5.082 1.125.041.458.034.832-.02 1.124-.342.222-.615.333-.82.333-.315 0-.472-.312-.472-.937 0-.111.007-.288.02-.53.014-.243.021-.413.021-.51 0-.237-.02-.403-.062-.5v-1.146c0-.027.007-.059.021-.093.014-.035.027-.066.041-.094a7.112 7.112 0 0 1 .02-.895c.028-.25.028-.41 0-.48-.068-.138-.102-.221-.102-.249.055-.389.335-.583.84-.583.328 0 .527.118.595.354 0 .222.027.548.082.978.082.5.342 1 .78 1.5.477.569.935.833 1.373.79a6.315 6.315 0 0 0 1.475-.353c.684-.25 1.094-.541 1.23-.874.096-.25.144-.514.144-.792 0-.846-.308-1.478-.923-1.894-.273-.18-.779-.327-1.517-.438a9.235 9.235 0 0 0-.778-.083c-.656.014-1.268-.201-1.835-.646-.567-.444-.85-.958-.85-1.54v-1.208c0-.263.15-.881.45-1.853.137-.458.212-.7.226-.729.123-.291.28-.486.471-.583a3.217 3.217 0 0 1 1.476-.354c1.011 0 1.756.417 2.234 1.25.041.041.11.104.205.187.014-.194.041-.493.082-.895l-.04-.52c0-.195.095-.327.286-.396a.748.748 0 0 1 .226-.063c.136-.028.284.007.44.104.158.097.223.389.195.874-.013.306-.04.736-.082 1.291l-.184 2.103c.027.222.027.528 0 .916-.069.264-.274.396-.615.396a.992.992 0 0 1-.513-.146c-.082-.263-.122-.375-.122-.333.027-.375-.048-.874-.226-1.499-.15-.32-.359-.774-.625-1.364-.267-.59-.619-.906-1.056-.947-.547-.042-.902.146-1.066.562-.054.18-.13.444-.225.791a6.803 6.803 0 0 0-.308 1.479c-.014.152-.027.215-.04.187.04.278.088.555.143.833.068.347.236.61.502.791.267.18.775.291 1.527.333 1.845.112 2.986.764 3.423 1.957.068.112.136.299.205.562z"/></g><g stroke-linecap="round" stroke-linejoin="round" fill="#575E75" stroke="#575E75" stroke-width="3"><path d="M106.342 78.318l1.252 2.759M109.319 78.183h-3.072l-1.991 2.483v-7.062z"/></g></g></svg>