<svg id="Layer_1" data-name="Layer 1" xmlns="http://www.w3.org/2000/svg" width="140" height="116" viewBox="0 0 140 116"><title>creative-computing</title><g opacity="0.1"><rect x="52.5" y="36.5" width="44" height="52" rx="2.12" ry="2.12" fill="#231f20" stroke="#231f20" stroke-linecap="round" stroke-linejoin="round" stroke-width="1.4"/></g><rect x="51.5" y="35.5" width="44" height="52" rx="2.12" ry="2.12" fill="#fff" stroke="#824dcb" stroke-linecap="round" stroke-linejoin="round" stroke-width="1.4"/><g opacity="0.1"><rect x="48.5" y="32.5" width="44" height="52" rx="2.12" ry="2.12" fill="#231f20" stroke="#231f20" stroke-linecap="round" stroke-linejoin="round" stroke-width="1.4"/></g><rect x="47.5" y="31.5" width="44" height="52" rx="2.12" ry="2.12" fill="#fff" stroke="#824dcb" stroke-linecap="round" stroke-linejoin="round" stroke-width="1.4"/><g opacity="0.1"><rect x="44.5" y="28.5" width="44" height="52" rx="2.12" ry="2.12" fill="#231f20" stroke="#231f20" stroke-linecap="round" stroke-linejoin="round" stroke-width="1.4"/></g><rect x="43.5" y="27.5" width="44" height="52" rx="2.12" ry="2.12" fill="#fff"/><polygon points="79.5 59.5 43.5 59.5 43.5 51.5 79.5 51.5 75.5 55.5 79.5 59.5" fill="#f7941e" stroke="#ce781b" stroke-linecap="round" stroke-linejoin="round" stroke-width="1.4"/><rect x="43.5" y="27.5" width="44" height="52" rx="2.12" ry="2.12" fill="none" stroke="#824dcb" stroke-linecap="round" stroke-linejoin="round" stroke-width="1.4"/><line x1="63.5" y1="67.5" x2="79.5" y2="67.5" fill="none" stroke="#a7a9ac" stroke-linecap="round" stroke-linejoin="round" stroke-width="1.4"/><line x1="63.5" y1="71.5" x2="67.5" y2="71.5" fill="none" stroke="#a7a9ac" stroke-linecap="round" stroke-linejoin="round" stroke-width="1.4"/><line x1="71.5" y1="71.5" x2="79.5" y2="71.5" fill="none" stroke="#a7a9ac" stroke-linecap="round" stroke-linejoin="round" stroke-width="1.4"/></svg>