<?xml version="1.0" encoding="UTF-8"?>
<svg width="200px" height="140px" viewBox="0 0 200 140" version="1.1" xmlns="http://www.w3.org/2000/svg" xmlns:xlink="http://www.w3.org/1999/xlink">
    <!-- Generator: Sketch 52.5 (67469) - http://www.bohemiancoding.com/sketch -->
    <title>ideas-page-icon</title>
    <desc>Created with Sketch.</desc>
    <defs>
        <path d="M32.3677902,28.7257176 C38.022184,24.7659775 33.7629387,22.6395971 31.2662992,23.2995538 C27.5359898,24.2855291 25.506823,27.1728395 23.9230993,27.2592939 C20.8246051,27.4280228 19.9308553,22.0557555 21.4302049,20.1678394 C23.1947934,17.9455453 25.8507085,15.7206114 26.9376598,15.6581355 C28.3938309,15.574321 29.4045591,17.4560774 31.0957884,19.6728719 C32.5645165,21.5977455 36.5023468,21.0790196 34.7031714,18.0359594 C32.211819,13.821696 29.4528044,10.7267192 27.5650691,10.6514841 C26.0721082,10.592088 24.3711858,11.065497 22.2195333,12.6148552 C19.451927,14.6079244 18.3819387,15.7507494 17.8503591,15.8231246 C16.6561226,15.985474 18.3568247,9.54187697 20.6591612,3.83391169 C22.2563231,-0.125828366 17.8129084,-1.76098102 16.1430481,2.56899473 C13.0037987,10.7084604 12.8738228,17.690362 12.1126925,17.6503247 C11.5894843,17.6228265 10.8197624,12.4615253 11.8472332,5.04383226 C12.3111812,1.69521209 7.63975789,0.793711268 7.29433032,5.48380338 C6.83699126,11.6975155 7.55538368,18.7555321 6.61515097,18.9814573 C5.96174651,19.138307 4.81046812,12.6575324 4.15508098,9.99350732 C3.12716958,5.81378171 -0.587278356,7.59412484 0.0795642926,10.4884748 C2.68657318,21.7992523 3.33424989,22.4213715 3.12716958,28.9855205 C2.83329178,38.2981692 17.6668507,43.5045674 23.7653658,35.8019931 C27.9470662,30.5203598 29.3252517,30.8564977 32.3677902,28.7257176 Z" id="path-1"></path>
        <path d="M0.194462167,5.16615237 C1.65769272,5.08387732 2.88048261,7.07191872 4.58038943,9.24799656 C6.05646117,11.1375154 10.0139806,10.628533 8.20580936,7.64114976 C5.70177886,3.50429126 2.78234926,0.340430699 0.885175316,0.266793452 L0.194462167,5.16615237 Z" id="path-3"></path>
    </defs>
    <g id="ideas-page-icon" stroke="none" stroke-width="1" fill="none" fill-rule="evenodd">
        <g transform="translate(47.000000, 18.000000)">
            <path d="M88.0244325,79.1028951 C86.1785434,79.1028951 84.8643702,77.6561666 84.8705783,75.6125101 C84.8767864,73.5688535 86.6058569,72.1184164 88.3080007,71.8576635 C90.0101445,71.5969106 92.5416977,73.3422537 92.112112,75.6125101 C91.6825263,77.8827664 89.8703216,79.1028951 88.0244325,79.1028951 Z M92.0175863,85.5660712 C90.7797206,85.5660712 89.4677261,84.670556 89.7760398,82.9151658 C90.0843535,81.1597757 91.1552617,81.0154249 92.4165086,80.7482175 C93.6777554,80.4810101 94.5903631,82.0825034 94.5903631,83.3224172 C94.5903631,84.5621113 93.2556714,85.5660712 92.0175863,85.5660712 Z M89.3253276,92.8371443 C88.2070642,92.8371443 87.3005081,92.3539617 87.3005081,91.2595877 C87.3005081,90.1652137 88.2072409,89.2776044 89.3253276,88.8734689 C90.4434143,88.4693334 91.3504275,89.7609326 91.3504275,90.8553066 C91.3504275,91.9496805 90.4438714,92.8371443 89.3253276,92.8371443 Z M12.2621603,34.8631457 C16.7871518,26.3803625 28.5723022,29.6069072 28.5723022,29.6069072 C28.5723022,29.6069072 24.32671,20.8667285 35.84527,14.7168936 C47.3641442,8.56674061 56.92022,19.2161055 56.0823866,24.0938569 C56.0823866,24.0938569 66.4247755,15.5681302 74.3808943,22.2491928 C80.8209336,27.6568994 77.679451,38.3132625 77.679451,38.3132625 C77.679451,38.3132625 86.6326764,38.2744543 87.2609729,48.6178066 C87.8892694,58.9614771 80.8209336,62.503843 80.8209336,62.503843 C80.8209336,62.503843 82.4504206,69.5071413 78.5141429,75.0525854 C73.6969936,81.838621 58.8274141,85.2317979 53.0188128,76.3262594 C53.0188128,76.3262594 45.8043981,87.7766011 32.4945647,82.6122412 C23.1329466,78.9798528 25.0391982,70.4331315 25.0391982,70.4331315 C25.0391982,70.4331315 18.1483562,69.7689379 14.0644289,64.5524096 C8.20964779,57.0745055 17.8716563,52.3701929 17.8716563,52.3701929 C18.6863062,53.850263 7.73716881,43.3459288 12.2621603,34.8631457 Z" id="Cloud" fill-opacity="0.15" fill="#000000" transform="translate(52.876192, 52.846242) rotate(20.000000) translate(-52.876192, -52.846242) "></path>
            <g id="Stack-Blocks" transform="translate(0.000000, 0.000000)">
                <g id="Block" transform="translate(35.153301, 46.696447)">
                    <path d="M2.13162821e-14,1.71128113 C2.13162821e-14,0.767036666 0.772684919,0.00159467082 1.72591122,0.00139533697 L6.19033534,7.10542736e-15 C6.64823015,7.10542736e-15 7.0876079,0.179998469 7.41145527,0.500726639 L9.8530913,2.91884561 C10.1769387,3.23957378 10.6159139,3.41957225 11.07401,3.41957225 L16.5496268,3.41957225 C17.0073204,3.41957225 17.4464969,3.23957378 17.7703442,2.91884561 L20.2119803,0.500726639 C20.5356264,0.180197803 20.9748028,7.10542736e-15 21.4326976,7.10542736e-15 L47.6327857,1.77359474e-14 C48.5864146,1.77359474e-14 49.3593008,0.765641329 49.3593008,1.70988579 L49.3593008,18.8081457 C49.3593008,19.7523902 48.5864146,20.5180315 47.6327857,20.5180315 L21.4326976,20.5180315 C20.9748028,20.5180315 20.5356264,20.6982293 20.2119803,21.0187581 L17.7703442,23.4368771 C17.4464969,23.7576053 17.0073204,23.9378031 16.5496268,23.9378031 L11.07401,23.9378031 C10.6159139,23.9378031 10.1769387,23.7576053 9.8530913,23.4368771 L7.41145527,21.0187581 C7.0876079,20.69803 6.64823015,20.5178322 6.19033534,20.5180315 L1.72691758,20.5194268 C0.773288736,20.5198255 2.13162821e-14,19.7541842 2.13162821e-14,18.809541 L2.13162821e-14,1.71128113 Z" id="Fill-4-Copy" fill="#855CD6"></path>
                    <path d="M1.42108547e-14,5.10444858 C1.42108547e-14,4.16020411 0.772684919,3.39476212 1.72591122,3.39456278 L6.19033534,3.39316745 C6.64823015,3.39316745 7.0876079,3.57316592 7.41145527,3.89389409 L9.8530913,6.31201306 C10.1769387,6.63274123 10.6159139,6.8127397 11.07401,6.8127397 L16.5496268,6.8127397 C17.0073204,6.8127397 17.4464969,6.63274123 17.7703442,6.31201306 L20.2119803,3.89389409 C20.5356264,3.57336525 20.9748028,3.39316745 21.4326976,3.39316745 L47.6327857,3.39316745 C48.5864146,3.39316745 49.3593008,4.15880878 49.3593008,5.10305324 L49.3593008,22.2013131 C49.3593008,23.1455576 48.5864146,23.9111989 47.6327857,23.9111989 L21.4326976,23.9111989 C20.9748028,23.9111989 20.5356264,24.0913967 20.2119803,24.4119256 L17.7703442,26.8300445 C17.4464969,27.1507727 17.0073204,27.3309705 16.5496268,27.3309705 L11.07401,27.3309705 C10.6159139,27.3309705 10.1769387,27.1507727 9.8530913,26.8300445 L7.41145527,24.4119256 C7.0876079,24.0911974 6.64823015,23.9109996 6.19033534,23.9111989 L1.72691758,23.9125943 C0.773288736,23.9129929 1.42108547e-14,23.1473516 1.42108547e-14,22.2027085 L1.42108547e-14,5.10444858 Z" id="Fill-4" fill="#9966FF"></path>
                </g>
                <g id="Placing" transform="translate(51.095792, 27.826186) rotate(-10.000000) translate(-51.095792, -27.826186) translate(3.306742, 8.032709)">
                    <g id="Hand" transform="translate(0.000000, -0.000000)">
                        <mask id="mask-2" fill="white">
                            <use xlink:href="#path-1"></use>
                        </mask>
                        <use id="Fill-1" fill="#0EA57A" xlink:href="#path-1"></use>
                        <path d="M31.9683172,27.1262447 C37.6227111,23.1665047 33.3634657,21.0401243 30.8668262,21.7000809 C27.1365168,22.6860562 25.1073501,25.5733667 23.5236264,25.659821 C20.4251322,25.8285499 19.9883141,21.5121127 21.4876637,19.6241966 C23.2522523,17.4019025 25.4717558,14.95005 26.5587071,14.8875741 C28.0148782,14.8037596 29.0050862,15.8566046 30.6963154,18.073399 C32.1650435,19.9982727 36.1028738,19.4795467 34.3036985,16.4364865 C31.8123461,12.2222231 29.0533315,9.12724632 27.1655962,9.05201126 C25.6726353,8.99261516 23.9717129,9.46602408 21.8200604,11.0153824 C19.0524541,13.0084515 19.4142819,13.3478113 18.8827024,13.4201866 C17.6884658,13.5825359 20.8765518,8.04538357 22.7699561,2.1518299 C23.162187,0.930942372 19.5990139,-2.26888343 17.9291536,2.06109232 C16.9613509,4.57041723 16.8193388,7.063451 16.2926593,9.18819383 C15.1109553,13.9554526 14.0634003,17.2849218 12.0992763,17.7379217 C11.7413424,14.501455 11.9048657,10.4106574 12.5898463,5.46552867 C13.0537943,2.1169085 8.83540065,0.951738164 8.53428855,4.15761023 C8.23224122,7.37343942 8.94024539,8.90629012 8.7755018,11.9095436 C8.62262478,14.6964712 8.02249117,18.6296292 6.61528301,18.9434571 C5.84360752,14.7329242 5.23930739,11.7396494 4.80238263,9.96363261 C3.77447123,5.783907 0.472996389,7.37947534 1.13983904,10.2738253 C3.74684793,21.5846028 6.41724616,21.9229228 6.21016585,28.4870719 C5.91628806,37.7997205 18.6373814,42.0836261 24.7358964,34.3810517 C28.9175968,29.0994185 28.9257788,29.2570248 31.9683172,27.1262447 Z" id="Fill-1-Copy" fill="#0EBD8C" mask="url(#mask-2)"></path>
                    </g>
                    <path d="M29.1530173,27.6719264 L29.1530173,10.5736665 C29.1530173,9.62942206 29.9257022,8.86398007 30.8789285,8.86378073 L35.3433526,8.8623854 C35.8012474,8.8623854 36.2406252,9.04238387 36.5644725,9.36311204 L39.0061086,11.781231 C39.3299559,12.1019592 39.7689311,12.2819576 40.2270272,12.2819576 L45.7026441,12.2819576 C46.1603376,12.2819576 46.5995141,12.1019592 46.9233615,11.781231 L49.3649975,9.36311204 C49.6886436,9.0425832 50.1278201,8.8623854 50.5857149,8.8623854 L93.6827748,8.8623854 C94.6364036,8.8623854 95.4092898,9.62802673 95.4092898,10.5722712 L95.4092898,27.6705311 C95.4092898,28.6147756 94.6364036,29.3804169 93.6827748,29.3804169 L50.5857149,29.3804169 C50.1278201,29.3804169 49.6886436,29.5606147 49.3649975,29.8811435 L46.9233615,32.2992625 C46.5995141,32.6199907 46.1603376,32.8001885 45.7026441,32.8001885 L40.2270272,32.8001885 C39.7689311,32.8001885 39.3299559,32.6199907 39.0061086,32.2992625 L36.5644725,29.8811435 C36.2406252,29.5604154 35.8012474,29.3802176 35.3433526,29.3804169 L30.8799348,29.3818122 C29.926306,29.3822109 29.1530173,28.6165696 29.1530173,27.6719264" id="Fill-4-Copy" fill="#FF3355"></path>
                    <path d="M29.1530173,30.9328926 L29.1530173,13.8346326 C29.1530173,12.8903882 29.9257022,12.1249462 30.8789285,12.1247469 L35.3433526,12.1233515 C35.8012474,12.1233515 36.2406252,12.30335 36.5644725,12.6240782 L39.0061086,15.0421971 C39.3299559,15.3629253 39.7689311,15.5429238 40.2270272,15.5429238 L45.7026441,15.5429238 C46.1603376,15.5429238 46.5995141,15.3629253 46.9233615,15.0421971 L49.3649975,12.6240782 C49.6886436,12.3035493 50.1278201,12.1233515 50.5857149,12.1233515 L93.6827748,12.1233515 C94.6364036,12.1233515 95.4092898,12.8889928 95.4092898,13.8332373 L95.4092898,30.9314972 C95.4092898,31.8757417 94.6364036,32.641383 93.6827748,32.641383 L50.5857149,32.641383 C50.1278201,32.641383 49.6886436,32.8215808 49.3649975,33.1421096 L46.9233615,35.5602286 C46.5995141,35.8809568 46.1603376,36.0611546 45.7026441,36.0611546 L40.2270272,36.0611546 C39.7689311,36.0611546 39.3299559,35.8809568 39.0061086,35.5602286 L36.5644725,33.1421096 C36.2406252,32.8213815 35.8012474,32.6411837 35.3433526,32.641383 L30.8799348,32.6427783 C29.926306,32.643177 29.1530173,31.8775357 29.1530173,30.9328926" id="Fill-4" fill="#FF6680"></path>
                    <g id="Finger" transform="translate(26.729469, 10.502661)">
                        <mask id="mask-4" fill="white">
                            <use xlink:href="#path-3"></use>
                        </mask>
                        <use id="Fill-6" fill="#0EA57A" xlink:href="#path-3"></use>
                        <path d="M0.148039715,4.40255913 C1.80427144,4.57160498 3.25373081,7.8168894 4.95363763,9.99296724 C6.42970936,11.8824861 10.8964351,10.8468653 9.08826385,7.8594821 C6.58423335,3.72262359 2.38087898,-1.2296641 0.483705036,-1.30330135 L0.148039715,4.40255913 Z" id="Fill-6" fill="#0EBD8C" mask="url(#mask-4)"></path>
                    </g>
                </g>
            </g>
        </g>
    </g>
</svg>