<svg xmlns="http://www.w3.org/2000/svg" width="140" height="116" viewBox="0 0 140 116"><title>offline-editor</title><g style="isolation:isolate"><g id="Layer_1" data-name="Layer 1"><path d="M89.64,40.64V68a4,4,0,0,1-4,4H55.31a4,4,0,0,1-4-4V30a4,4,0,0,1,4-4H75Z" fill="#231f20" stroke="#231f20" stroke-linecap="round" stroke-linejoin="round" stroke-width="1.4" opacity="0.1"/><path d="M89.64,38.64V66a4,4,0,0,1-4,4H55.31a4,4,0,0,1-4-4V28a4,4,0,0,1,4-4H75Z" fill="#fff"/><path d="M74.94,35.9V25.36L89.58,40H79A4.1,4.1,0,0,1,74.94,35.9Z" fill="#231f20" stroke="#231f20" stroke-linecap="round" stroke-linejoin="round" stroke-width="1.4" opacity="0.1"/><path d="M74.94,34.61V24.06L89.58,38.7H79A4.1,4.1,0,0,1,74.94,34.61Z" fill="#fff" stroke="#88898c" stroke-linecap="round" stroke-linejoin="round" stroke-width="1.4"/><line x1="70.37" y1="70" x2="70.37" y2="52" fill="none" stroke="#bcbec0" stroke-linecap="round" stroke-linejoin="round" stroke-width="1.4"/><line x1="67.33" y1="65.76" x2="73.62" y2="65.76" fill="none" stroke="#bcbec0" stroke-linecap="round" stroke-linejoin="round" stroke-width="1.4"/><path d="M89.64,38.64V66a4,4,0,0,1-4,4H55.31a4,4,0,0,1-4-4V28a4,4,0,0,1,4-4H75Z" fill="none" stroke="#88898c" stroke-linecap="round" stroke-linejoin="round" stroke-width="1.4"/><line x1="67.33" y1="62.23" x2="73.62" y2="62.23" fill="none" stroke="#bcbec0" stroke-linecap="round" stroke-linejoin="round" stroke-width="1.4"/><line x1="67.33" y1="58.71" x2="73.62" y2="58.71" fill="none" stroke="#bcbec0" stroke-linecap="round" stroke-linejoin="round" stroke-width="1.4"/><line x1="67.33" y1="55.18" x2="73.62" y2="55.18" fill="none" stroke="#bcbec0" stroke-linecap="round" stroke-linejoin="round" stroke-width="1.4"/><path d="M66,37.49a4.19,4.19,0,0,1-1.52,3.22,4.6,4.6,0,0,1-3,1.12,4.74,4.74,0,0,1-.57,0L60.79,42a2.36,2.36,0,0,1-1.64.8H59a2.4,2.4,0,0,1-2.38-2.21s0,0,0-.08v0c0-.88,0-1.61,0-2.06s0-1.42,0-1.61a2.39,2.39,0,0,1,.62-1.57,5.81,5.81,0,0,1-.13-2.34V32.71a5.82,5.82,0,0,1,.57-2.09,3.33,3.33,0,0,1,3-1.8H61l0.42,0a2.37,2.37,0,0,1,1.63-.62,2.4,2.4,0,0,1,2.35,2.39s-0.11,3.48-.17,3.78a2.43,2.43,0,0,1-.16.53A3.82,3.82,0,0,1,66,37.49Z" fill="#f9a83a"/><path d="M60.83,35c-0.62-.1-0.94-0.51-0.78-1.78l0-.15c0.14-1.11.25-1.35,0.79-1.32a1,1,0,0,1,.51.26,3,3,0,0,1,.74.94,2.65,2.65,0,0,1,.22.85l0,0.31h0a0.54,0.54,0,0,0,1.06,0s0.14-3.39.14-3.44A0.54,0.54,0,0,0,63,30.11a0.54,0.54,0,0,0-.54.53s0,0.47,0,.94a2.47,2.47,0,0,0-1.57-.91c-1.62-.09-1.8,1.4-1.91,2.26l0,0.15c-0.22,1.7.35,2.77,1.68,3s2.41,0.56,2.42,1.45a1.3,1.3,0,0,1-.49,1,1.72,1.72,0,0,1-1.38.39,2.57,2.57,0,0,1-.42-0.11A3.09,3.09,0,0,1,59.88,38a2.15,2.15,0,0,1-.3-1c0-.13,0-0.21,0-0.22a0.54,0.54,0,1,0-1.08,0s0,1.06-.05,1.69a19,19,0,0,0,0,1.92,0.54,0.54,0,0,0,.57.5,0.53,0.53,0,0,0,.5-0.57s0-.42,0-1a4.14,4.14,0,0,0,1.53.6,2.75,2.75,0,0,0,2.25-.64,2.36,2.36,0,0,0,.87-1.8c0-2-2.26-2.33-3.33-2.5" fill="#fff"/><rect x="36.74" y="85.13" width="66.52" height="6.87" rx="3.43" ry="3.43" fill="#231f20" stroke="#231f20" stroke-linecap="round" stroke-linejoin="round" stroke-width="3.4" opacity="0.1" style="mix-blend-mode:multiply"/><rect x="36.74" y="85.13" width="66.52" height="6.87" rx="3.43" ry="3.43" fill="#b6ecff"/><polygon points="62.61 92 59.02 92 61.13 85.13 64.72 85.13 62.61 92" fill="#2398c1" opacity="0.3"/><polygon points="69.75 92 66.16 92 68.27 85.13 71.86 85.13 69.75 92" fill="#2398c1" opacity="0.3"/><polygon points="76.89 92 73.3 92 75.41 85.13 79 85.13 76.89 92" fill="#2398c1" opacity="0.3"/><polygon points="84.03 92 80.44 92 82.55 85.13 86.14 85.13 84.03 92" fill="#2398c1" opacity="0.3"/><polygon points="91.17 92 87.58 92 89.69 85.13 93.28 85.13 91.17 92" fill="#2398c1" opacity="0.3"/><polygon points="98.32 92 94.72 92 96.83 85.13 100.42 85.13 98.32 92" fill="#2398c1" opacity="0.3"/><rect x="36.74" y="85.13" width="24.28" height="6.87" rx="3.43" ry="3.43" fill="#2398c1" stroke="#2398c1" stroke-linecap="round" stroke-linejoin="round" stroke-width="1.4"/><rect x="36.74" y="85.13" width="66.52" height="6.87" rx="3.43" ry="3.43" fill="none" stroke="#2398c1" stroke-linecap="round" stroke-linejoin="round" stroke-width="1.4"/><path d="M99,67.55l-9.6,9.6a2.35,2.35,0,0,1-3.32,0l-9.6-9.6a0.94,0.94,0,0,1,.67-1.61h2V55.56a1.63,1.63,0,0,1,1.63-1.63H94.72a1.63,1.63,0,0,1,1.63,1.63V65.95h2A0.94,0.94,0,0,1,99,67.55Z" fill="#f7941e"/><path d="M96.33,55.54v1.32a1.61,1.61,0,0,0-1.61-1.61H80.82a1.61,1.61,0,0,0-1.61,1.61V55.54a1.61,1.61,0,0,1,1.61-1.61h13.9A1.61,1.61,0,0,1,96.33,55.54Z" fill="#fff" opacity="0.2"/><path d="M99,67.55l-9.6,9.6a2.35,2.35,0,0,1-3.32,0l-9.6-9.6a0.94,0.94,0,0,1,.67-1.61h2V55.56a1.63,1.63,0,0,1,1.63-1.63H94.72a1.63,1.63,0,0,1,1.63,1.63V65.95h2A0.94,0.94,0,0,1,99,67.55Z" fill="none" stroke="#ce781b" stroke-miterlimit="10" stroke-width="1.4"/></g></g></svg>