<svg xmlns="http://www.w3.org/2000/svg" width="140" height="116" viewBox="0 0 140 116"><title>resources</title><g style="isolation:isolate"><g id="Layer_1" data-name="Layer 1"><g opacity="0.4" style="mix-blend-mode:multiply"><path d="M97,44.18L91.25,62.24V81.16a2.45,2.45,0,0,1-2.44,2.45H84.43l-0.95,3a2.44,2.44,0,0,1-3.07,1.58L66.18,83.61h-15a2.45,2.45,0,0,1-2.44-2.45V78l-4.17-1.33A2.44,2.44,0,0,1,43,73.66l5.75-18v-19a2.44,2.44,0,0,1,2.44-2.44H73.85l17.4,5.55,4.17,1.33A2.45,2.45,0,0,1,97,44.18Z" fill="#bcbec0" stroke="#bcbec0" stroke-linecap="round" stroke-linejoin="round" stroke-width="1.4"/><path d="M91.25,36.66v3.11l-17.4-5.55h15A2.44,2.44,0,0,1,91.25,36.66Z" fill="#bcbec0" stroke="#bcbec0" stroke-linecap="round" stroke-linejoin="round" stroke-width="1.4"/></g><rect x="48.74" y="32.47" width="42.52" height="49.4" rx="2.12" ry="2.12" transform="translate(20.68 -18.57) rotate(17.69)" fill="#caa9ff" stroke="#824dcb" stroke-linecap="round" stroke-linejoin="round" stroke-width="1.4"/><rect x="48.74" y="32.47" width="42.52" height="49.4" rx="2.12" ry="2.12" fill="#caa9ff" stroke="#824dcb" stroke-linecap="round" stroke-linejoin="round" stroke-width="1.4"/><path d="M54.57,45.78H85.43a0,0,0,0,1,0,0V71.35a3,3,0,0,1-3,3H57.57a3,3,0,0,1-3-3V45.78A0,0,0,0,1,54.57,45.78Z" fill="#fff" stroke="#824dcb" stroke-linecap="round" stroke-linejoin="round" stroke-width="1.4"/><path d="M57.34,40H82.66a2.77,2.77,0,0,1,2.77,2.77v3a0,0,0,0,1,0,0H54.57a0,0,0,0,1,0,0v-3A2.77,2.77,0,0,1,57.34,40Z" fill="#824dcb" stroke="#824dcb" stroke-linecap="round" stroke-linejoin="round" stroke-width="1.4"/><polygon points="74.76 61.95 70 66.7 65.24 61.95 67.36 61.95 67.36 57.45 72.64 57.45 72.64 61.95 74.76 61.95" fill="#fff" stroke="#824dcb" stroke-linecap="round" stroke-linejoin="round" stroke-width="1.4"/><line x1="67.93" y1="54.53" x2="72.07" y2="54.53" fill="#fff" stroke="#824dcb" stroke-linecap="round" stroke-linejoin="round" stroke-width="1.4"/><line x1="68.88" y1="51.81" x2="71.12" y2="51.81" fill="#fff" stroke="#824dcb" stroke-linecap="round" stroke-linejoin="round" stroke-width="1.4"/></g></g></svg>