<?xml version="1.0" encoding="UTF-8"?>
<svg width="59px" height="64px" viewBox="0 0 59 64" version="1.1" xmlns="http://www.w3.org/2000/svg" xmlns:xlink="http://www.w3.org/1999/xlink">
    <!-- Generator: Sketch 46.2 (44496) - http://www.bohemiancoding.com/sketch -->
    <title>Artboard</title>
    <desc>Created with Sketch.</desc>
    <defs></defs>
    <g id="Page-1" stroke="none" stroke-width="1" fill="none" fill-rule="evenodd" stroke-linecap="round" stroke-linejoin="round">
        <g id="Artboard" stroke-width="1.4" fill-rule="nonzero">
            <g id="resources" transform="translate(2.000000, 1.000000)">
                <g id="Group" opacity="0.4" style="mix-blend-mode: multiply;" transform="translate(0.000000, 7.000000)" stroke="#BCBEC0" fill="#BCBEC0">
                    <path d="M55,10.18 L49.25,28.24 L49.25,47.16 C49.2500112,48.509202 48.1591908,49.6044931 46.81,49.61 L42.43,49.61 L41.48,52.61 C41.282743,53.2268572 40.848344,53.739989 40.2725027,54.0363503 C39.6966615,54.3327116 39.0266232,54.3879873 38.41,54.19 L24.18,49.61 L9.18,49.61 C7.83080924,49.6044931 6.73998876,48.509202 6.74,47.16 L6.74,44 L2.57,42.67 C1.32005722,42.2548438 0.625178693,40.9226245 1,39.66 L6.75,21.66 L6.75,2.66 C6.75,1.31242521 7.84242521,0.22 9.19,0.22 L31.85,0.22 L49.25,5.77 L53.42,7.1 C54.7059477,7.51524424 55.4128655,8.89328666 55,10.18 L55,10.18 Z" id="Shape"></path>
                    <path d="M49.25,2.66 L49.25,5.77 L31.85,0.22 L46.85,0.22 C48.1819281,0.24183781 49.250179,1.32789288 49.25,2.66 L49.25,2.66 Z" id="Shape"></path>
                </g>
                <rect id="Rectangle-path" stroke="#824DCB" fill="#CAA9FF" transform="translate(27.997953, 30.167365) rotate(17.690000) translate(-27.997953, -30.167365) " x="6.73795301" y="5.4673647" width="42.52" height="49.4" rx="2.12"></rect>
                <rect id="Rectangle-path" stroke="#824DCB" fill="#CAA9FF" x="6.74" y="5.47" width="42.52" height="49.4" rx="2.12"></rect>
                <path d="M12.57,18.78 L43.43,18.78 L43.43,44.35 C43.43,46.0068542 42.0868542,47.35 40.43,47.35 L15.57,47.35 C13.9131458,47.35 12.57,46.0068542 12.57,44.35 L12.57,18.78 L12.57,18.78 Z" id="Shape" stroke="#824DCB" fill="#FFFFFF"></path>
                <path d="M15.34,13 L40.66,13 C42.1898288,13 43.43,14.2401712 43.43,15.77 L43.43,18.77 L12.57,18.77 L12.57,15.77 C12.57,15.0353503 12.8618384,14.33079 13.3813142,13.8113142 C13.90079,13.2918384 14.6053503,13 15.34,13 L15.34,13 Z" id="Shape" stroke="#824DCB" fill="#824DCB"></path>
                <polygon id="Shape" stroke="#824DCB" fill="#FFFFFF" points="32.76 34.95 28 39.7 23.24 34.95 25.36 34.95 25.36 30.45 30.64 30.45 30.64 34.95"></polygon>
                <path d="M25.93,27.53 L30.07,27.53" id="Shape" stroke="#824DCB" fill="#FFFFFF"></path>
                <path d="M26.88,24.81 L29.12,24.81" id="Shape" stroke="#824DCB" fill="#FFFFFF"></path>
            </g>
        </g>
    </g>
</svg>