<svg width="200" height="140" xmlns="http://www.w3.org/2000/svg" xmlns:xlink="http://www.w3.org/1999/xlink"><defs><rect id="b" x="0" y="0" width="148" height="103.876" rx="3"/><filter x="-10.1%" y="-14.4%" width="120.3%" height="128.9%" filterUnits="objectBoundingBox" id="a"><feMorphology radius="1" operator="dilate" in="SourceAlpha" result="shadowSpreadOuter1"/><feOffset in="shadowSpreadOuter1" result="shadowOffsetOuter1"/><feGaussianBlur stdDeviation="4" in="shadowOffsetOuter1" result="shadowBlurOuter1"/><feColorMatrix values="0 0 0 0 0 0 0 0 0 0 0 0 0 0 0 0 0 0 0.2 0" in="shadowBlurOuter1"/></filter><path d="M0 0h148v81.479a3.008 3.008 0 0 1-3.007 3.007H3.007A3.005 3.005 0 0 1 0 81.479V0z" id="c"/><path id="f" d="M0 70.636h6.916v6.925H0z"/><filter x="-7.2%" y="-21.7%" width="114.5%" height="128.9%" filterUnits="objectBoundingBox" id="e"><feOffset dy="-1" in="SourceAlpha" result="shadowOffsetOuter1"/><feColorMatrix values="0 0 0 0 0.298039216 0 0 0 0 0.592156863 0 0 0 0 1 0 0 0 0.2 0" in="shadowOffsetOuter1"/></filter><rect id="g" x="0" y=".231" width="46.106" height="32.317" rx="4"/><filter x="-6.5%" y="-9.3%" width="113%" height="118.6%" filterUnits="objectBoundingBox" id="h"><feOffset in="SourceAlpha" result="shadowOffsetOuter1"/><feGaussianBlur stdDeviation="1" in="shadowOffsetOuter1" result="shadowBlurOuter1"/><feColorMatrix values="0 0 0 0 0 0 0 0 0 0 0 0 0 0 0 0 0 0 0.15 0" in="shadowBlurOuter1"/></filter><rect id="i" x="0" y=".231" width="46.106" height="32.317" rx="4"/><filter x="-6.5%" y="-9.3%" width="113%" height="118.6%" filterUnits="objectBoundingBox" id="j"><feOffset in="SourceAlpha" result="shadowOffsetOuter1"/><feGaussianBlur stdDeviation="1" in="shadowOffsetOuter1" result="shadowBlurOuter1"/><feColorMatrix values="0 0 0 0 0 0 0 0 0 0 0 0 0 0 0 0 0 0 0.15 0" in="shadowBlurOuter1"/></filter><path d="M3.06.346h1.05c.117 0 .234.059.292.117l.584.586a.445.445 0 0 0 .291.117H6.62a.445.445 0 0 0 .291-.117l.584-.586a.445.445 0 0 1 .292-.117h8.98a.4.4 0 0 1 .408.41v2.516a.4.4 0 0 1-.408.41h-8.98a.445.445 0 0 0-.292.117l-.584.585a.445.445 0 0 1-.291.117H5.277a.445.445 0 0 1-.291-.117L4.402 3.8a.445.445 0 0 0-.292-.117H3.06a.4.4 0 0 1-.409-.41V.756c0-.234.234-.41.409-.41z" id="l"/><rect id="m" x="0" y="0" width="55.327" height="41.55" rx="1.5"/><rect id="n" x="0" y="0" width="55.327" height="41.55" rx="1.5"/><path d="M0 2.998A3.003 3.003 0 0 1 3.007 0h141.986A2.999 2.999 0 0 1 148 2.998v8.082H0V2.998z" id="p"/><filter x="-.3%" y="-4.5%" width="100.7%" height="109%" filterUnits="objectBoundingBox" id="q"><feOffset dy="-1" in="SourceAlpha" result="shadowOffsetInner1"/><feComposite in="shadowOffsetInner1" in2="SourceAlpha" operator="arithmetic" k2="-1" k3="1" result="shadowInnerInner1"/><feColorMatrix values="0 0 0 0 0 0 0 0 0 0 0 0 0 0 0 0 0 0 0.15 0" in="shadowInnerInner1"/></filter></defs><g transform="translate(26 18)" fill="none" fill-rule="evenodd"><use fill="#000" filter="url(#a)" xlink:href="#b"/><use fill="#FFF" xlink:href="#b"/><g transform="translate(0 19.39)"><mask id="d" fill="#fff"><use xlink:href="#c"/></mask><use fill="#D9E3F2" xlink:href="#c"/><g mask="url(#d)"><g transform="translate(0 2.078)"><path d="M0 4.848h86.332a1.5 1.5 0 0 1 1.5 1.5v76.06H0V4.848z" fill="#E5F0FF"/><ellipse stroke-opacity=".15" stroke="#000" stroke-width=".75" fill="#FFF" cx="81.607" cy="76.522" rx="3.141" ry="3.145"/><ellipse stroke-opacity=".15" stroke="#000" stroke-width=".75" fill="#FFF" cx="81.607" cy="68.212" rx="3.141" ry="3.145"/><ellipse stroke-opacity=".15" stroke="#000" stroke-width=".75" fill="#FFF" cx="81.607" cy="59.902" rx="3.141" ry="3.145"/><path fill="#FFF" d="M0 4.848h33.196v77.56H0z"/><path d="M10.782 7.964h1.05c.118 0 .234.058.293.117l.583.585a.445.445 0 0 0 .292.117h1.342a.445.445 0 0 0 .292-.117l.584-.585a.445.445 0 0 1 .292-.117h6.213a.4.4 0 0 1 .409.41v2.516a.4.4 0 0 1-.409.41H15.51a.445.445 0 0 0-.292.117l-.584.585a.445.445 0 0 1-.292.117H13a.445.445 0 0 1-.292-.117l-.583-.585a.445.445 0 0 0-.292-.117h-1.05a.4.4 0 0 1-.41-.41V8.373c0-.234.234-.41.41-.41zM11.128 66.134h1.05c.117 0 .234.059.292.117l.584.586a.445.445 0 0 0 .292.117h1.342a.445.445 0 0 0 .292-.117l.584-.586a.445.445 0 0 1 .291-.117h4.83a.4.4 0 0 1 .41.41v2.516a.4.4 0 0 1-.41.41h-4.83a.445.445 0 0 0-.291.117l-.584.585a.445.445 0 0 1-.292.117h-1.342a.445.445 0 0 1-.292-.117l-.584-.585a.445.445 0 0 0-.291-.117h-1.05a.4.4 0 0 1-.41-.41v-2.516c0-.234.234-.41.41-.41zM11.128 77.214h1.05c.117 0 .234.059.292.117l.584.586a.445.445 0 0 0 .292.117h1.342a.445.445 0 0 0 .292-.117l.584-.586a.445.445 0 0 1 .291-.117h4.83a.4.4 0 0 1 .41.41v2.516a.4.4 0 0 1-.41.41h-4.83a.445.445 0 0 0-.291.117l-.584.585a.445.445 0 0 1-.292.117h-1.342a.445.445 0 0 1-.292-.117l-.584-.585a.445.445 0 0 0-.291-.117h-1.05a.4.4 0 0 1-.41-.41v-2.516c0-.234.234-.41.41-.41zM11.128 71.674h1.05c.117 0 .234.059.292.117l.584.586a.445.445 0 0 0 .292.117h1.342a.445.445 0 0 0 .292-.117l.584-.586a.445.445 0 0 1 .291-.117h3.448a.4.4 0 0 1 .408.41V74.6a.4.4 0 0 1-.408.41h-3.448a.445.445 0 0 0-.291.117l-.584.585a.445.445 0 0 1-.292.117h-1.342a.445.445 0 0 1-.292-.117l-.584-.585a.445.445 0 0 0-.291-.117h-1.05a.4.4 0 0 1-.41-.41v-2.516c0-.234.234-.41.41-.41z" stroke="#4280D7" stroke-width=".75" fill="#4C95FF" fill-rule="nonzero"/><path d="M11.128 82.754h1.05c.117 0 .234.059.292.117l.584.586a.445.445 0 0 0 .292.117h1.342a.445.445 0 0 0 .292-.117l.584-.586a.445.445 0 0 1 .291-.117h3.448a.4.4 0 0 1 .408.41v2.516a.4.4 0 0 1-.408.41h-3.448a.445.445 0 0 0-.291.117l-.584.585a.445.445 0 0 1-.292.117h-1.342a.445.445 0 0 1-.292-.117l-.584-.585a.445.445 0 0 0-.291-.117h-1.05a.4.4 0 0 1-.41-.41v-2.516c0-.234.234-.41.41-.41z" stroke="#4C95FF" stroke-width=".75" fill="#4C95FF" fill-rule="nonzero"/><path d="M10.782 13.504h1.05c.118 0 .234.058.293.117l.583.585a.445.445 0 0 0 .292.117h1.342a.445.445 0 0 0 .292-.117l.584-.585a.445.445 0 0 1 .292-.117h8.98a.4.4 0 0 1 .408.41v2.516a.4.4 0 0 1-.409.41h-8.98a.445.445 0 0 0-.291.117l-.584.585a.445.445 0 0 1-.292.117H13a.445.445 0 0 1-.292-.117l-.583-.585a.445.445 0 0 0-.292-.117h-1.05a.4.4 0 0 1-.41-.41v-2.516c0-.235.234-.41.41-.41zM10.782 19.044h1.05c.118 0 .234.058.293.117l.583.585a.445.445 0 0 0 .292.117h1.342a.445.445 0 0 0 .292-.117l.584-.585a.445.445 0 0 1 .292-.117h8.98a.4.4 0 0 1 .408.41v2.516a.4.4 0 0 1-.409.41h-8.98a.445.445 0 0 0-.291.117l-.584.585a.445.445 0 0 1-.292.117H13a.445.445 0 0 1-.292-.117l-.583-.585a.445.445 0 0 0-.292-.117h-1.05a.4.4 0 0 1-.41-.41v-2.516c0-.235.234-.41.41-.41zM10.782 52.284h1.05c.118 0 .234.059.293.117l.583.585a.445.445 0 0 0 .292.117h1.342a.445.445 0 0 0 .292-.117l.584-.585a.445.445 0 0 1 .292-.117h8.98a.4.4 0 0 1 .408.41v2.516a.4.4 0 0 1-.409.41h-8.98a.445.445 0 0 0-.291.117l-.584.585a.445.445 0 0 1-.292.117H13a.445.445 0 0 1-.292-.117l-.583-.585a.445.445 0 0 0-.292-.117h-1.05a.4.4 0 0 1-.41-.41v-2.516c0-.234.234-.41.41-.41zM10.782 27.354h1.05c.118 0 .234.058.293.117l.583.585a.445.445 0 0 0 .292.117h1.342a.445.445 0 0 0 .292-.117l.584-.585a.445.445 0 0 1 .292-.117h11.054a.4.4 0 0 1 .409.41v2.516a.4.4 0 0 1-.409.41H15.51a.445.445 0 0 0-.292.117l-.584.585a.445.445 0 0 1-.292.117H13a.445.445 0 0 1-.292-.117l-.583-.585a.445.445 0 0 0-.292-.117h-1.05a.4.4 0 0 1-.41-.41v-2.516c0-.234.234-.41.41-.41zM10.782 43.974h1.05c.118 0 .234.059.293.117l.583.585a.445.445 0 0 0 .292.117h1.342a.445.445 0 0 0 .292-.117l.584-.585a.445.445 0 0 1 .292-.117h11.054a.4.4 0 0 1 .409.41V46.9a.4.4 0 0 1-.409.41H15.51a.445.445 0 0 0-.292.117l-.584.585a.445.445 0 0 1-.292.117H13a.445.445 0 0 1-.292-.117l-.583-.585a.445.445 0 0 0-.292-.117h-1.05a.4.4 0 0 1-.41-.41v-2.516c0-.234.234-.41.41-.41zM10.782 38.434h1.05c.118 0 .234.059.293.117l.583.585a.445.445 0 0 0 .292.117h1.342a.445.445 0 0 0 .292-.117l.584-.585a.445.445 0 0 1 .292-.117h13.82a.4.4 0 0 1 .41.41v2.516a.4.4 0 0 1-.41.41H15.51a.445.445 0 0 0-.292.117l-.584.585a.445.445 0 0 1-.292.117H13a.445.445 0 0 1-.292-.117l-.583-.585a.445.445 0 0 0-.292-.117h-1.05a.4.4 0 0 1-.41-.41v-2.516c0-.234.234-.41.41-.41zM10.782 57.824h1.05c.118 0 .234.059.293.117l.583.585a.445.445 0 0 0 .292.117h1.342a.445.445 0 0 0 .292-.117l.584-.585a.445.445 0 0 1 .292-.117h13.82a.4.4 0 0 1 .41.41v2.516a.4.4 0 0 1-.41.41H15.51a.445.445 0 0 0-.292.117l-.584.585a.445.445 0 0 1-.292.117H13a.445.445 0 0 1-.292-.117l-.583-.585a.445.445 0 0 0-.292-.117h-1.05a.4.4 0 0 1-.41-.41v-2.516c0-.234.234-.41.41-.41zM10.782 32.894h1.05c.118 0 .234.059.293.117l.583.585a.445.445 0 0 0 .292.117h1.342a.445.445 0 0 0 .292-.117l.584-.585a.445.445 0 0 1 .292-.117h9.671a.4.4 0 0 1 .409.41v2.516a.4.4 0 0 1-.409.41H15.51a.445.445 0 0 0-.292.117l-.584.585a.445.445 0 0 1-.292.117H13a.445.445 0 0 1-.292-.117l-.583-.585a.445.445 0 0 0-.292-.117h-1.05a.4.4 0 0 1-.41-.41v-2.516c0-.234.234-.41.41-.41z" stroke="#4280D7" stroke-width=".75" fill="#4C95FF" fill-rule="nonzero"/><g transform="translate(0 4.848)"><path stroke-opacity=".05" stroke="#000" stroke-width=".75" fill="#FFF" d="M-.375-.375h7.666v78.311H-.375z"/><use fill="#000" filter="url(#e)" xlink:href="#f"/><use fill="#4C97FF" xlink:href="#f"/><ellipse stroke-opacity=".1" stroke="#000" stroke-width=".75" fill="#FF8C1A" cx="3.458" cy="42.935" rx="1.7" ry="1.703"/><ellipse stroke-opacity=".1" stroke="#000" stroke-width=".75" fill="#59C059" cx="3.458" cy="37.395" rx="1.7" ry="1.703"/><ellipse stroke-opacity=".1" stroke="#000" stroke-width=".75" fill="#5CB1D6" cx="3.458" cy="31.855" rx="1.7" ry="1.703"/><ellipse stroke-opacity=".1" stroke="#000" stroke-width=".75" fill="#FFAB19" cx="3.458" cy="26.315" rx="1.7" ry="1.703"/><ellipse stroke-opacity=".1" stroke="#000" stroke-width=".75" fill="#FFBF00" cx="3.458" cy="20.775" rx="1.7" ry="1.703"/><ellipse stroke-opacity=".1" stroke="#000" stroke-width=".75" fill="#CF63CF" cx="3.458" cy="15.235" rx="1.7" ry="1.703"/><ellipse stroke-opacity=".1" stroke="#000" stroke-width=".75" fill="#96F" cx="3.458" cy="9.695" rx="1.7" ry="1.703"/><ellipse stroke-opacity=".1" stroke="#000" stroke-width=".75" fill="#4C97FF" cx="3.458" cy="4.155" rx="1.7" ry="1.703"/></g><g><path d="M.281 4.566h10.503V1.507c0-.678-.542-1.226-1.21-1.226H1.491C.83.281.282.832.282 1.507v3.06z" stroke="#E6EBF2" stroke-width=".563" fill-opacity=".75" fill="#FFF"/><rect fill-opacity=".1" fill="#000" x="2.766" y="2.078" width="5.533" height="1.385" rx=".693"/><path d="M0 1.507C0 .675.676 0 1.492 0h8.081a1.5 1.5 0 0 1 1.492 1.507v3.34H0v-3.34z" fill="#FFF"/><rect fill="#4C97FF" x="2.766" y="1.847" width="5.533" height="1.385" rx=".693"/><g transform="translate(11.065)"><path d="M.281 4.566h10.503V1.507c0-.678-.542-1.226-1.21-1.226H1.491C.83.281.282.832.282 1.507v3.06z" stroke="#D9E3F2" stroke-width=".563" fill-opacity=".75" fill="#FFF"/><rect fill-opacity=".15" fill="#000" x="2.766" y="1.847" width="5.533" height="1.385" rx=".693"/></g><g transform="translate(22.13)"><path d="M.281 4.566h10.503V1.507c0-.678-.542-1.226-1.21-1.226H1.491C.83.281.282.832.282 1.507v3.06z" stroke="#D9E3F2" stroke-width=".563" fill-opacity=".75" fill="#FFF"/><rect fill-opacity=".15" fill="#000" x="2.766" y="1.847" width="5.533" height="1.385" rx=".693"/></g></g></g></g><g mask="url(#d)"><g transform="translate(29.047 23.084)"><g transform="translate(2.766 .115)"><use fill="#000" filter="url(#h)" xlink:href="#g"/><use fill="#FFF" xlink:href="#g"/><mask id="k" fill="#fff"><use xlink:href="#i"/></mask><use fill="#000" filter="url(#j)" xlink:href="#i"/><use fill="#FFF" xlink:href="#i"/><rect fill-opacity=".15" fill="#000" mask="url(#k)" x="10.604" y="26.777" width="24.897" height="1.847" rx=".923"/><g mask="url(#k)"><g transform="translate(3.227 8.31)"><rect stroke-opacity=".15" stroke="#000" stroke-width=".5" fill="#E5F0FF" x=".25" y=".25" width="39.151" height="14.273" rx="2"/><path d="M13.774 6.752l-2.766 4.501M15.503 6.752L11.7 12.984M17.232 6.752l-2.42 4.155" stroke="#FFF" stroke-width=".75" stroke-linecap="round" stroke-linejoin="round"/><g fill-rule="nonzero" transform="translate(10.604 3.116)"><use fill="#4C95FF" xlink:href="#l"/><path stroke="#FFF" stroke-width="1.125" d="M5.336.603H6.56l.536-.537c.17-.17.43-.282.69-.282h8.98c.544 0 .97.428.97.972v2.516a.962.962 0 0 1-.97.972H7.845l-.535.537c-.17.17-.431.283-.69.283H5.277c-.259 0-.52-.113-.69-.283l-.535-.537H3.06a.962.962 0 0 1-.971-.972V.756c0-.538.475-.972.97-.972H4.11c.26 0 .52.112.69.282l.536.537z"/><use stroke="#4C95FF" stroke-width=".75" xlink:href="#l"/></g><path d="M23.678 9.076c-1.043 0-1.93-.512-2.108-1.218-.095-.373-.223-.7-.336-.987-.24-.61-.446-1.137.024-1.49a.51.51 0 0 1 .306-.117c.302 0 .408.302.486.524l.008.022a9.223 9.223 0 0 0-.04-.15c-.097-.351-.257-.938.333-1.192a.622.622 0 0 1 .25-.058c.32 0 .44.263.497.54.031-.374.16-.795.693-.795.224 0 .36.095.434.175.122.13.17.308.186.496.096-.218.253-.397.539-.397.089 0 .185.02.285.06.733.295.258 1.51.102 1.91-.084.214-.066.337-.049.38.003-.022.041-.069.078-.16.109-.275.32-.44.563-.44.17 0 .326.084.427.23.134.192.15.464.045.748-.445 1.201-1.463 1.919-2.722 1.919z" fill="#FFF"/><path d="M23.791 3.924c-.395 0-.623.177-.755.408a.631.631 0 0 0-.435-.153.857.857 0 0 0-.341.077c-.415.178-.545.488-.563.79a.634.634 0 0 0-.132-.013c-.151 0-.3.055-.444.163-.612.459-.34 1.15-.101 1.759.11.282.235.6.326.96.204.806 1.185 1.391 2.333 1.391 1.36 0 2.457-.774 2.938-2.069.132-.355.106-.705-.071-.96a.754.754 0 0 0-.82-.3c.265-.915.13-1.487-.405-1.701a.992.992 0 0 0-.371-.078.735.735 0 0 0-.44.134.797.797 0 0 0-.719-.408m0 .462c.7 0 .205 1.284.442 1.37a.154.154 0 0 0 .049.01c.287 0 .147-1.106.668-1.106.058 0 .124.014.2.044.419.168.243.917-.028 1.611-.17.435-.038.699.14.699.11 0 .234-.096.318-.31.08-.203.22-.293.349-.293.217 0 .408.255.256.665-.475 1.282-1.54 1.769-2.506 1.769-.91 0-1.732-.433-1.886-1.044-.293-1.158-.893-1.863-.396-2.235.066-.05.121-.071.168-.071.274 0 .26.734.53.734a.207.207 0 0 0 .049-.007c.542-.156-.448-1.221.298-1.543a.41.41 0 0 1 .16-.038c.454 0 .186 1.202.526 1.202l.016-.001c.416-.043-.162-1.456.647-1.456" fill="#575E75"/></g></g><path fill="#0EBD8C" mask="url(#k)" d="M0 .231h46.106v5.54H0z"/></g><ellipse stroke-opacity=".15" stroke="#000" stroke-width=".75" fill="#0EBD8C" cx="2.766" cy="18.005" rx="3.141" ry="3.145"/><ellipse stroke-opacity=".15" stroke="#000" stroke-width=".75" fill="#0EBD8C" cx="48.872" cy="18.005" rx="3.141" ry="3.145"/></g></g><g mask="url(#d)"><g transform="translate(89.907 6.925)"><use fill="#FFF" xlink:href="#m"/><mask id="o" fill="#fff"><use xlink:href="#n"/></mask><use fill="#FFF" xlink:href="#n"/><rect fill-opacity=".11" fill="#000" mask="url(#o)" x="47.028" y="47.783" width="5.533" height="1.385" rx=".693"/><path d="M33.196 22.056c0 3.005-2.486 4.26-5.54 4.26-3.052 0-5.525-1.255-5.525-4.26 0-.742.126-1.37.371-1.896l-.092-4.34c-.012-.48.534-.754.928-.469l2.357 1.748c.546-.286 1.22-.411 1.962-.411.744 0 1.429.125 1.975.41l2.357-1.747a.582.582 0 0 1 .929.468l-.093 4.341c.244.526.371 1.154.371 1.896" stroke="#DB6E00" stroke-width=".75" fill="#FF8C1A" mask="url(#o)"/></g></g><g mask="url(#d)"><g transform="translate(89.907 51.245)"><path d="M0 1.505A1.5 1.5 0 0 1 1.501 0h38.493c.83 0 1.501.68 1.501 1.505V8.31H0V1.505z" fill="#FFF"/><rect fill-opacity=".15" fill="#000" x="2.075" y="2.078" width="8.299" height="1.385" rx=".693"/><rect fill-opacity=".15" fill="#000" x="2.075" y="4.848" width="2.766" height="1.385" rx=".693"/><rect fill-opacity=".15" fill="#000" x="6.224" y="4.848" width="2.766" height="1.385" rx=".693"/><rect fill-opacity=".15" fill="#000" x="20.056" y="2.078" width="2.766" height="1.385" rx=".693"/><rect fill-opacity=".15" fill="#000" x="32.505" y="2.078" width="2.766" height="1.385" rx=".693"/><rect fill-opacity=".15" fill="#000" x="10.374" y="4.848" width="2.766" height="1.385" rx=".693"/><rect fill-opacity=".15" fill="#000" x="24.206" y="2.078" width="2.766" height="1.385" rx=".693"/><rect fill-opacity=".15" fill="#000" x="36.654" y="2.078" width="2.766" height="1.385" rx=".693"/><rect fill-opacity=".15" fill="#000" x="20.056" y="4.848" width="5.533" height="1.385" rx=".693"/><rect fill-opacity=".15" fill="#000" x="27.664" y="4.848" width="11.757" height="1.385" rx=".693"/></g></g><g mask="url(#d)"><g transform="translate(89.907 59.555)"><path fill="#E5F0FF" d="M0 0h41.495v24.93H0z"/><ellipse stroke-opacity=".2" stroke="#4C97FF" stroke-width=".75" fill="#4C97FF" cx="36.654" cy="20.083" rx="3.141" ry="3.145"/><g transform="translate(1.383 1.385)"><rect stroke="#4C97FF" stroke-width=".75" fill="#FFF" x=".375" y=".375" width="7.549" height="7.56" rx="1.5"/><path d="M4.147 6.233c-1.145 0-2.072-.47-2.072-1.597 0-.279.047-.515.14-.712l-.036-1.627c-.004-.18.2-.283.349-.176l.883.655c.205-.107.458-.154.736-.154.279 0 .536.047.74.154l.884-.655a.218.218 0 0 1 .349.176l-.035 1.627c.091.197.14.433.14.712 0 1.126-.933 1.597-2.078 1.597z" fill="#FF8C1A"/></g></g></g><g mask="url(#d)"><g transform="translate(134.168 51.245)"><path d="M0 1.493C0 .668.676 0 1.492 0h8.081a1.49 1.49 0 0 1 1.492 1.493V33.24H0V1.493z" fill="#FFF"/><ellipse stroke-opacity=".2" stroke="#4C97FF" stroke-width=".75" fill="#4C97FF" cx="5.533" cy="28.393" rx="3.141" ry="3.145"/><path d="M.346 16.274H10.72M.346 7.964H10.72" stroke-opacity=".1" stroke="#000" stroke-width=".75" stroke-linecap="square"/></g></g></g><g transform="translate(0 11.08)"><path fill="#4C97FF" d="M0 0h148v8.31H0z"/><rect fill="#FFF" opacity=".5" x="58.093" y="1.385" width="16.252" height="5.54" rx=".75"/><rect fill="#FF8000" opacity=".75" x="75.729" y="1.385" width="8.991" height="5.54" rx=".75"/><rect fill="#FFBF00" x="126.215" y="1.385" width="5.533" height="5.54" rx=".75"/><rect stroke-opacity=".15" stroke="#000" stroke-width=".75" opacity=".75" x="86.478" y="1.76" width="18.96" height="4.79" rx=".75"/><rect stroke="#FFF" stroke-width=".75" fill="#FFAB19" x="5.158" y="2.395" width="9.049" height="3.52" rx="1.76"/><rect fill="#FFF" x="23.86" y="3.463" width="5.533" height="1.385" rx=".693"/><ellipse fill="#FFF" cx="20.056" cy="4.155" rx="1.383" ry="1.385"/><ellipse fill="#FFF" cx="121.028" cy="4.155" rx="1.383" ry="1.385"/><rect fill="#FFF" x="32.505" y="3.463" width="5.533" height="1.385" rx=".693"/><rect fill="#FFF" x="42.879" y="3.463" width="10.374" height="1.385" rx=".693"/><rect fill="#FFF" x="134.168" y="3.463" width="10.374" height="1.385" rx=".693"/></g><use fill="#E9F1FC" xlink:href="#p"/><use fill="#000" filter="url(#q)" xlink:href="#p"/><ellipse fill-opacity=".15" fill="#000" cx="6.916" cy="5.54" rx="1.383" ry="1.385"/><ellipse fill-opacity=".15" fill="#000" cx="12.449" cy="5.54" rx="1.383" ry="1.385"/><ellipse fill-opacity=".15" fill="#000" cx="17.981" cy="5.54" rx="1.383" ry="1.385"/><rect fill="#59C059" x="90.829" y="20.775" width="3.688" height="2.77" rx=".5"/><rect fill="#379438" x="90.829" y="20.775" width="1" height="4.155" rx=".5"/><path fill="#E64D00" d="M99.372 20.916l.999 1v1.413l-.999.999h-1.411l-.998-1v-1.413l.998-1z"/></g></svg>