<?xml version="1.0" encoding="UTF-8"?>
<svg width="200px" height="140px" viewBox="0 0 200 140" version="1.1" xmlns="http://www.w3.org/2000/svg" xmlns:xlink="http://www.w3.org/1999/xlink">
    <!-- Generator: Sketch 52.5 (67469) - http://www.bohemiancoding.com/sketch -->
    <title>scratch tutorials icons</title>
    <desc>Created with Sketch.</desc>
    <defs>
        <rect id="path-1" x="0" y="0" width="148" height="103.875776" rx="3"></rect>
        <filter x="-10.1%" y="-14.4%" width="120.3%" height="128.9%" filterUnits="objectBoundingBox" id="filter-2">
            <feMorphology radius="1" operator="dilate" in="SourceAlpha" result="shadowSpreadOuter1"></feMorphology>
            <feOffset dx="0" dy="0" in="shadowSpreadOuter1" result="shadowOffsetOuter1"></feOffset>
            <feGaussianBlur stdDeviation="4" in="shadowOffsetOuter1" result="shadowBlurOuter1"></feGaussianBlur>
            <feColorMatrix values="0 0 0 0 0   0 0 0 0 0   0 0 0 0 0  0 0 0 0.2 0" type="matrix" in="shadowBlurOuter1"></feColorMatrix>
        </filter>
        <path d="M0,0 L148,0 L148,81.4787431 C148,83.1394017 146.652438,84.4856315 144.993411,84.4856315 L3.00658937,84.4856315 C1.34609591,84.4856315 0,83.1415056 0,81.4787431 L0,0 Z" id="path-3"></path>
        <rect id="path-5" x="0" y="70.635528" width="6.91588785" height="6.92505176"></rect>
        <filter x="-7.2%" y="-21.7%" width="114.5%" height="128.9%" filterUnits="objectBoundingBox" id="filter-6">
            <feOffset dx="0" dy="-1" in="SourceAlpha" result="shadowOffsetOuter1"></feOffset>
            <feColorMatrix values="0 0 0 0 0.298039216   0 0 0 0 0.592156863   0 0 0 0 1  0 0 0 0.2 0" type="matrix" in="shadowOffsetOuter1"></feColorMatrix>
        </filter>
        <rect id="path-7" x="0" y="0.230835059" width="46.105919" height="32.3169082" rx="4"></rect>
        <filter x="-6.5%" y="-9.3%" width="113.0%" height="118.6%" filterUnits="objectBoundingBox" id="filter-9">
            <feOffset dx="0" dy="0" in="SourceAlpha" result="shadowOffsetOuter1"></feOffset>
            <feGaussianBlur stdDeviation="1" in="shadowOffsetOuter1" result="shadowBlurOuter1"></feGaussianBlur>
            <feColorMatrix values="0 0 0 0 0   0 0 0 0 0   0 0 0 0 0  0 0 0 0.15 0" type="matrix" in="shadowBlurOuter1"></feColorMatrix>
        </filter>
        <rect id="path-10" x="0" y="0.230835059" width="46.105919" height="32.3169082" rx="4"></rect>
        <filter x="-6.5%" y="-9.3%" width="113.0%" height="118.6%" filterUnits="objectBoundingBox" id="filter-12">
            <feOffset dx="0" dy="0" in="SourceAlpha" result="shadowOffsetOuter1"></feOffset>
            <feGaussianBlur stdDeviation="1" in="shadowOffsetOuter1" result="shadowBlurOuter1"></feGaussianBlur>
            <feColorMatrix values="0 0 0 0 0   0 0 0 0 0   0 0 0 0 0  0 0 0 0.15 0" type="matrix" in="shadowBlurOuter1"></feColorMatrix>
        </filter>
        <path d="M3.05962046,0.346252588 L4.11012649,0.346252588 C4.22684938,0.346252588 4.34357227,0.404774152 4.40193371,0.463295716 L4.98554817,1.04851136 C5.04390962,1.10703292 5.16063251,1.16555449 5.2773554,1.16555449 L6.61966865,1.16555449 C6.73639154,1.16555449 6.85311444,1.10703292 6.91147588,1.04851136 L7.49509034,0.463295716 C7.55345178,0.404774152 7.67017468,0.346252588 7.78689757,0.346252588 L16.7667553,0.346252588 C17.0002011,0.346252588 17.1752854,0.52181728 17.1752854,0.755903537 L17.1752854,3.2723308 C17.1752854,3.50641705 17.0002011,3.68198175 16.7667553,3.68198175 L7.78689757,3.68198175 C7.67017468,3.68198175 7.55345178,3.74050331 7.49509034,3.79902487 L6.91147588,4.38424052 C6.85311444,4.44276208 6.73639154,4.50128364 6.61966865,4.50128364 L5.2773554,4.50128364 C5.16063251,4.50128364 5.04390962,4.44276208 4.98554817,4.38424052 L4.40193371,3.79902487 C4.34357227,3.74050331 4.22684938,3.68198175 4.11012649,3.68198175 L3.05962046,3.68198175 C2.82617468,3.68198175 2.65109034,3.50641705 2.65109034,3.2723308 L2.65109034,0.755903537 C2.65109034,0.52181728 2.88453613,0.346252588 3.05962046,0.346252588 Z" id="path-13"></path>
        <rect id="path-14" x="0" y="0" width="55.3271028" height="41.5503106" rx="1.5"></rect>
        <rect id="path-16" x="0" y="0" width="55.3271028" height="41.5503106" rx="1.5"></rect>
        <path d="M0,2.99842997 C0,1.34244282 1.34756232,0 3.00658937,0 L144.993411,0 C146.653904,0 148,1.33651687 148,2.99842997 L148,11.0800828 L0,11.0800828 L0,2.99842997 Z" id="path-18"></path>
        <filter x="-0.3%" y="-4.5%" width="100.7%" height="109.0%" filterUnits="objectBoundingBox" id="filter-19">
            <feOffset dx="0" dy="-1" in="SourceAlpha" result="shadowOffsetInner1"></feOffset>
            <feComposite in="shadowOffsetInner1" in2="SourceAlpha" operator="arithmetic" k2="-1" k3="1" result="shadowInnerInner1"></feComposite>
            <feColorMatrix values="0 0 0 0 0   0 0 0 0 0   0 0 0 0 0  0 0 0 0.15 0" type="matrix" in="shadowInnerInner1"></feColorMatrix>
        </filter>
    </defs>
    <g id="scratch-tutorials-icons" stroke="none" stroke-width="1" fill="none" fill-rule="evenodd">
        <g transform="translate(26.000000, 18.000000)">
            <g id="Rectangle">
                <use fill="black" fill-opacity="1" filter="url(#filter-2)" xlink:href="#path-1"></use>
                <use fill="#FFFFFF" fill-rule="evenodd" xlink:href="#path-1"></use>
            </g>
            <g id="Editor" transform="translate(0.000000, 19.390145)">
                <mask id="mask-4" fill="white">
                    <use xlink:href="#path-3"></use>
                </mask>
                <use id="Editor-Container" fill="#D9E3F2" xlink:href="#path-3"></use>
                <g id="Blocks" mask="url(#mask-4)">
                    <g transform="translate(0.000000, 2.077516)">
                        <path d="M0,4.84753623 L86.3317757,4.84753623 C87.1602028,4.84753623 87.8317757,5.51910911 87.8317757,6.34753623 L87.8317757,82.4081159 L0,82.4081159 L0,4.84753623 Z" id="Workspace" stroke="none" fill="#E5F0FF"></path>
                        <ellipse id="Add-Sprite" stroke-opacity="0.15" stroke="#000000" stroke-width="0.75" fill="#FFFFFF" cx="81.6074766" cy="76.5218219" rx="3.14135514" ry="3.1450207"></ellipse>
                        <ellipse id="Add-Sprite-Copy-2" stroke-opacity="0.15" stroke="#000000" stroke-width="0.75" fill="#FFFFFF" cx="81.6074766" cy="68.2117598" rx="3.14135514" ry="3.1450207"></ellipse>
                        <ellipse id="Add-Sprite-Copy-3" stroke-opacity="0.15" stroke="#000000" stroke-width="0.75" fill="#FFFFFF" cx="81.6074766" cy="59.9016977" rx="3.14135514" ry="3.1450207"></ellipse>
                        <g id="Block-Menu" stroke="none" stroke-width="1" fill="none" transform="translate(0.000000, 4.847536)">
                            <rect id="Blocks-Menu" fill="#FFFFFF" x="0" y="0" width="33.1962617" height="77.5605797"></rect>
                            <path d="M10.7823619,3.11627329 L11.8328679,3.11627329 C11.9495908,3.11627329 12.0663137,3.17479486 12.1246751,3.23331642 L12.7082896,3.81853206 C12.7666511,3.87705363 12.8833739,3.93557519 13.0000968,3.93557519 L14.3424101,3.93557519 C14.459133,3.93557519 14.5758559,3.87705363 14.6342173,3.81853206 L15.2178318,3.23331642 C15.2761932,3.17479486 15.3929161,3.11627329 15.509639,3.11627329 L21.7231416,3.11627329 C21.9565874,3.11627329 22.1316717,3.29183798 22.1316717,3.52592424 L22.1316717,6.0423515 C22.1316717,6.27643776 21.9565874,6.45200245 21.7231416,6.45200245 L15.509639,6.45200245 C15.3929161,6.45200245 15.2761932,6.51052401 15.2178318,6.56904558 L14.6342173,7.15426122 C14.5758559,7.21278278 14.459133,7.27130435 14.3424101,7.27130435 L13.0000968,7.27130435 C12.8833739,7.27130435 12.7666511,7.21278278 12.7082896,7.15426122 L12.1246751,6.56904558 C12.0663137,6.51052401 11.9495908,6.45200245 11.8328679,6.45200245 L10.7823619,6.45200245 C10.5489161,6.45200245 10.3738318,6.27643776 10.3738318,6.0423515 L10.3738318,3.52592424 C10.3738318,3.29183798 10.6072776,3.11627329 10.7823619,3.11627329 Z" id="Shape" stroke="#4280D7" stroke-width="0.75" fill="#4C95FF" fill-rule="nonzero"></path>
                            <path d="M11.1281563,61.2867081 L12.1786623,61.2867081 C12.2953852,61.2867081 12.4121081,61.3452296 12.4704695,61.4037512 L13.054084,61.9889668 C13.1124454,62.0474884 13.2291683,62.10601 13.3458912,62.10601 L14.6882045,62.10601 C14.8049274,62.10601 14.9216503,62.0474884 14.9800117,61.9889668 L15.5636262,61.4037512 C15.6219876,61.3452296 15.7387105,61.2867081 15.8554334,61.2867081 L20.6857584,61.2867081 C20.9192042,61.2867081 21.0942885,61.4622728 21.0942885,61.696359 L21.0942885,64.2127863 C21.0942885,64.4468725 20.9192042,64.6224372 20.6857584,64.6224372 L15.8554334,64.6224372 C15.7387105,64.6224372 15.6219876,64.6809588 15.5636262,64.7394804 L14.9800117,65.324696 C14.9216503,65.3832176 14.8049274,65.4417391 14.6882045,65.4417391 L13.3458912,65.4417391 C13.2291683,65.4417391 13.1124454,65.3832176 13.054084,65.324696 L12.4704695,64.7394804 C12.4121081,64.6809588 12.2953852,64.6224372 12.1786623,64.6224372 L11.1281563,64.6224372 C10.8947105,64.6224372 10.7196262,64.4468725 10.7196262,64.2127863 L10.7196262,61.696359 C10.7196262,61.4622728 10.953072,61.2867081 11.1281563,61.2867081 Z" id="Shape-Copy-4" stroke="#4280D7" stroke-width="0.75" fill="#4C95FF" fill-rule="nonzero"></path>
                            <path d="M11.1281563,72.3667909 L12.1786623,72.3667909 C12.2953852,72.3667909 12.4121081,72.4253125 12.4704695,72.483834 L13.054084,73.0690497 C13.1124454,73.1275712 13.2291683,73.1860928 13.3458912,73.1860928 L14.6882045,73.1860928 C14.8049274,73.1860928 14.9216503,73.1275712 14.9800117,73.0690497 L15.5636262,72.483834 C15.6219876,72.4253125 15.7387105,72.3667909 15.8554334,72.3667909 L20.6857584,72.3667909 C20.9192042,72.3667909 21.0942885,72.5423556 21.0942885,72.7764418 L21.0942885,75.2928691 C21.0942885,75.5269554 20.9192042,75.70252 20.6857584,75.70252 L15.8554334,75.70252 C15.7387105,75.70252 15.6219876,75.7610416 15.5636262,75.8195632 L14.9800117,76.4047788 C14.9216503,76.4633004 14.8049274,76.5218219 14.6882045,76.5218219 L13.3458912,76.5218219 C13.2291683,76.5218219 13.1124454,76.4633004 13.054084,76.4047788 L12.4704695,75.8195632 C12.4121081,75.7610416 12.2953852,75.70252 12.1786623,75.70252 L11.1281563,75.70252 C10.8947105,75.70252 10.7196262,75.5269554 10.7196262,75.2928691 L10.7196262,72.7764418 C10.7196262,72.5423556 10.953072,72.3667909 11.1281563,72.3667909 Z" id="Shape-Copy-6" stroke="#4280D7" stroke-width="0.75" fill="#4C95FF" fill-rule="nonzero"></path>
                            <path d="M11.1281563,66.8267495 L12.1786623,66.8267495 C12.2953852,66.8267495 12.4121081,66.885271 12.4704695,66.9437926 L13.054084,67.5290083 C13.1124454,67.5875298 13.2291683,67.6460514 13.3458912,67.6460514 L14.6882045,67.6460514 C14.8049274,67.6460514 14.9216503,67.5875298 14.9800117,67.5290083 L15.5636262,66.9437926 C15.6219876,66.885271 15.7387105,66.8267495 15.8554334,66.8267495 L19.3025808,66.8267495 C19.5360266,66.8267495 19.711111,67.0023142 19.711111,67.2364004 L19.711111,69.7528277 C19.711111,69.9869139 19.5360266,70.1624786 19.3025808,70.1624786 L15.8554334,70.1624786 C15.7387105,70.1624786 15.6219876,70.2210002 15.5636262,70.2795218 L14.9800117,70.8647374 C14.9216503,70.923259 14.8049274,70.9817805 14.6882045,70.9817805 L13.3458912,70.9817805 C13.2291683,70.9817805 13.1124454,70.923259 13.054084,70.8647374 L12.4704695,70.2795218 C12.4121081,70.2210002 12.2953852,70.1624786 12.1786623,70.1624786 L11.1281563,70.1624786 C10.8947105,70.1624786 10.7196262,69.9869139 10.7196262,69.7528277 L10.7196262,67.2364004 C10.7196262,67.0023142 10.953072,66.8267495 11.1281563,66.8267495 Z" id="Shape-Copy-5" stroke="#4280D7" stroke-width="0.75" fill="#4C95FF" fill-rule="nonzero"></path>
                            <path d="M11.1281563,77.9068323 L12.1786623,77.9068323 C12.2953852,77.9068323 12.4121081,77.9653539 12.4704695,78.0238754 L13.054084,78.6090911 C13.1124454,78.6676126 13.2291683,78.7261342 13.3458912,78.7261342 L14.6882045,78.7261342 C14.8049274,78.7261342 14.9216503,78.6676126 14.9800117,78.6090911 L15.5636262,78.0238754 C15.6219876,77.9653539 15.7387105,77.9068323 15.8554334,77.9068323 L19.3025808,77.9068323 C19.5360266,77.9068323 19.711111,78.082397 19.711111,78.3164832 L19.711111,80.8329105 C19.711111,81.0669968 19.5360266,81.2425615 19.3025808,81.2425615 L15.8554334,81.2425615 C15.7387105,81.2425615 15.6219876,81.301083 15.5636262,81.3596046 L14.9800117,81.9448202 C14.9216503,82.0033418 14.8049274,82.0618634 14.6882045,82.0618634 L13.3458912,82.0618634 C13.2291683,82.0618634 13.1124454,82.0033418 13.054084,81.9448202 L12.4704695,81.3596046 C12.4121081,81.301083 12.2953852,81.2425615 12.1786623,81.2425615 L11.1281563,81.2425615 C10.8947105,81.2425615 10.7196262,81.0669968 10.7196262,80.8329105 L10.7196262,78.3164832 C10.7196262,78.082397 10.953072,77.9068323 11.1281563,77.9068323 Z" id="Shape-Copy-12" stroke="#4C95FF" stroke-width="0.75" fill="#4C95FF" fill-rule="nonzero"></path>
                            <path d="M10.7823619,8.6563147 L11.8328679,8.6563147 C11.9495908,8.6563147 12.0663137,8.71483626 12.1246751,8.77335783 L12.7082896,9.35857347 C12.7666511,9.41709503 12.8833739,9.4756166 13.0000968,9.4756166 L14.3424101,9.4756166 C14.459133,9.4756166 14.5758559,9.41709503 14.6342173,9.35857347 L15.2178318,8.77335783 C15.2761932,8.71483626 15.3929161,8.6563147 15.509639,8.6563147 L24.4894967,8.6563147 C24.7229425,8.6563147 24.8980269,8.83187939 24.8980269,9.06596565 L24.8980269,11.5823929 C24.8980269,11.8164792 24.7229425,11.9920439 24.4894967,11.9920439 L15.509639,11.9920439 C15.3929161,11.9920439 15.2761932,12.0505654 15.2178318,12.109087 L14.6342173,12.6943026 C14.5758559,12.7528242 14.459133,12.8113458 14.3424101,12.8113458 L13.0000968,12.8113458 C12.8833739,12.8113458 12.7666511,12.7528242 12.7082896,12.6943026 L12.1246751,12.109087 C12.0663137,12.0505654 11.9495908,11.9920439 11.8328679,11.9920439 L10.7823619,11.9920439 C10.5489161,11.9920439 10.3738318,11.8164792 10.3738318,11.5823929 L10.3738318,9.06596565 C10.3738318,8.83187939 10.6072776,8.6563147 10.7823619,8.6563147 Z" id="Shape-Copy" stroke="#4280D7" stroke-width="0.75" fill="#4C95FF" fill-rule="nonzero"></path>
                            <path d="M10.7823619,14.1963561 L11.8328679,14.1963561 C11.9495908,14.1963561 12.0663137,14.2548777 12.1246751,14.3133992 L12.7082896,14.8986149 C12.7666511,14.9571364 12.8833739,15.015658 13.0000968,15.015658 L14.3424101,15.015658 C14.459133,15.015658 14.5758559,14.9571364 14.6342173,14.8986149 L15.2178318,14.3133992 C15.2761932,14.2548777 15.3929161,14.1963561 15.509639,14.1963561 L24.4894967,14.1963561 C24.7229425,14.1963561 24.8980269,14.3719208 24.8980269,14.6060071 L24.8980269,17.1224343 C24.8980269,17.3565206 24.7229425,17.5320853 24.4894967,17.5320853 L15.509639,17.5320853 C15.3929161,17.5320853 15.2761932,17.5906068 15.2178318,17.6491284 L14.6342173,18.234344 C14.5758559,18.2928656 14.459133,18.3513872 14.3424101,18.3513872 L13.0000968,18.3513872 C12.8833739,18.3513872 12.7666511,18.2928656 12.7082896,18.234344 L12.1246751,17.6491284 C12.0663137,17.5906068 11.9495908,17.5320853 11.8328679,17.5320853 L10.7823619,17.5320853 C10.5489161,17.5320853 10.3738318,17.3565206 10.3738318,17.1224343 L10.3738318,14.6060071 C10.3738318,14.3719208 10.6072776,14.1963561 10.7823619,14.1963561 Z" id="Shape-Copy-2" stroke="#4280D7" stroke-width="0.75" fill="#4C95FF" fill-rule="nonzero"></path>
                            <path d="M10.7823619,47.4366046 L11.8328679,47.4366046 C11.9495908,47.4366046 12.0663137,47.4951261 12.1246751,47.5536477 L12.7082896,48.1388633 C12.7666511,48.1973849 12.8833739,48.2559065 13.0000968,48.2559065 L14.3424101,48.2559065 C14.459133,48.2559065 14.5758559,48.1973849 14.6342173,48.1388633 L15.2178318,47.5536477 C15.2761932,47.4951261 15.3929161,47.4366046 15.509639,47.4366046 L24.4894967,47.4366046 C24.7229425,47.4366046 24.8980269,47.6121692 24.8980269,47.8462555 L24.8980269,50.3626828 C24.8980269,50.596769 24.7229425,50.7723337 24.4894967,50.7723337 L15.509639,50.7723337 C15.3929161,50.7723337 15.2761932,50.8308553 15.2178318,50.8893768 L14.6342173,51.4745925 C14.5758559,51.533114 14.459133,51.5916356 14.3424101,51.5916356 L13.0000968,51.5916356 C12.8833739,51.5916356 12.7666511,51.533114 12.7082896,51.4745925 L12.1246751,50.8893768 C12.0663137,50.8308553 11.9495908,50.7723337 11.8328679,50.7723337 L10.7823619,50.7723337 C10.5489161,50.7723337 10.3738318,50.596769 10.3738318,50.3626828 L10.3738318,47.8462555 C10.3738318,47.6121692 10.6072776,47.4366046 10.7823619,47.4366046 Z" id="Shape-Copy-3" stroke="#4280D7" stroke-width="0.75" fill="#4C95FF" fill-rule="nonzero"></path>
                            <path d="M10.7823619,22.5064182 L11.8328679,22.5064182 C11.9495908,22.5064182 12.0663137,22.5649398 12.1246751,22.6234613 L12.7082896,23.208677 C12.7666511,23.2671986 12.8833739,23.3257201 13.0000968,23.3257201 L14.3424101,23.3257201 C14.459133,23.3257201 14.5758559,23.2671986 14.6342173,23.208677 L15.2178318,22.6234613 C15.2761932,22.5649398 15.3929161,22.5064182 15.509639,22.5064182 L26.5642631,22.5064182 C26.7977089,22.5064182 26.9727932,22.6819829 26.9727932,22.9160692 L26.9727932,25.4324964 C26.9727932,25.6665827 26.7977089,25.8421474 26.5642631,25.8421474 L15.509639,25.8421474 C15.3929161,25.8421474 15.2761932,25.9006689 15.2178318,25.9591905 L14.6342173,26.5444061 C14.5758559,26.6029277 14.459133,26.6614493 14.3424101,26.6614493 L13.0000968,26.6614493 C12.8833739,26.6614493 12.7666511,26.6029277 12.7082896,26.5444061 L12.1246751,25.9591905 C12.0663137,25.9006689 11.9495908,25.8421474 11.8328679,25.8421474 L10.7823619,25.8421474 C10.5489161,25.8421474 10.3738318,25.6665827 10.3738318,25.4324964 L10.3738318,22.9160692 C10.3738318,22.6819829 10.6072776,22.5064182 10.7823619,22.5064182 Z" id="Shape-Copy-7" stroke="#4280D7" stroke-width="0.75" fill="#4C95FF" fill-rule="nonzero"></path>
                            <path d="M10.7823619,39.1265424 L11.8328679,39.1265424 C11.9495908,39.1265424 12.0663137,39.185064 12.1246751,39.2435856 L12.7082896,39.8288012 C12.7666511,39.8873228 12.8833739,39.9458443 13.0000968,39.9458443 L14.3424101,39.9458443 C14.459133,39.9458443 14.5758559,39.8873228 14.6342173,39.8288012 L15.2178318,39.2435856 C15.2761932,39.185064 15.3929161,39.1265424 15.509639,39.1265424 L26.5642631,39.1265424 C26.7977089,39.1265424 26.9727932,39.3021071 26.9727932,39.5361934 L26.9727932,42.0526207 C26.9727932,42.2867069 26.7977089,42.4622716 26.5642631,42.4622716 L15.509639,42.4622716 C15.3929161,42.4622716 15.2761932,42.5207932 15.2178318,42.5793147 L14.6342173,43.1645304 C14.5758559,43.2230519 14.459133,43.2815735 14.3424101,43.2815735 L13.0000968,43.2815735 C12.8833739,43.2815735 12.7666511,43.2230519 12.7082896,43.1645304 L12.1246751,42.5793147 C12.0663137,42.5207932 11.9495908,42.4622716 11.8328679,42.4622716 L10.7823619,42.4622716 C10.5489161,42.4622716 10.3738318,42.2867069 10.3738318,42.0526207 L10.3738318,39.5361934 C10.3738318,39.3021071 10.6072776,39.1265424 10.7823619,39.1265424 Z" id="Shape-Copy-10" stroke="#4280D7" stroke-width="0.75" fill="#4C95FF" fill-rule="nonzero"></path>
                            <path d="M10.7823619,33.586501 L11.8328679,33.586501 C11.9495908,33.586501 12.0663137,33.6450226 12.1246751,33.7035442 L12.7082896,34.2887598 C12.7666511,34.3472814 12.8833739,34.4058029 13.0000968,34.4058029 L14.3424101,34.4058029 C14.459133,34.4058029 14.5758559,34.3472814 14.6342173,34.2887598 L15.2178318,33.7035442 C15.2761932,33.6450226 15.3929161,33.586501 15.509639,33.586501 L29.3306182,33.586501 C29.564064,33.586501 29.7391484,33.7620657 29.7391484,33.996152 L29.7391484,36.5125792 C29.7391484,36.7466655 29.564064,36.9222302 29.3306182,36.9222302 L15.509639,36.9222302 C15.3929161,36.9222302 15.2761932,36.9807518 15.2178318,37.0392733 L14.6342173,37.624489 C14.5758559,37.6830105 14.459133,37.7415321 14.3424101,37.7415321 L13.0000968,37.7415321 C12.8833739,37.7415321 12.7666511,37.6830105 12.7082896,37.624489 L12.1246751,37.0392733 C12.0663137,36.9807518 11.9495908,36.9222302 11.8328679,36.9222302 L10.7823619,36.9222302 C10.5489161,36.9222302 10.3738318,36.7466655 10.3738318,36.5125792 L10.3738318,33.996152 C10.3738318,33.7620657 10.6072776,33.586501 10.7823619,33.586501 Z" id="Shape-Copy-9" stroke="#4280D7" stroke-width="0.75" fill="#4C95FF" fill-rule="nonzero"></path>
                            <path d="M10.7823619,52.976646 L11.8328679,52.976646 C11.9495908,52.976646 12.0663137,53.0351675 12.1246751,53.0936891 L12.7082896,53.6789047 C12.7666511,53.7374263 12.8833739,53.7959479 13.0000968,53.7959479 L14.3424101,53.7959479 C14.459133,53.7959479 14.5758559,53.7374263 14.6342173,53.6789047 L15.2178318,53.0936891 C15.2761932,53.0351675 15.3929161,52.976646 15.509639,52.976646 L29.3306182,52.976646 C29.564064,52.976646 29.7391484,53.1522107 29.7391484,53.3862969 L29.7391484,55.9027242 C29.7391484,56.1368104 29.564064,56.3123751 29.3306182,56.3123751 L15.509639,56.3123751 C15.3929161,56.3123751 15.2761932,56.3708967 15.2178318,56.4294182 L14.6342173,57.0146339 C14.5758559,57.0731555 14.459133,57.131677 14.3424101,57.131677 L13.0000968,57.131677 C12.8833739,57.131677 12.7666511,57.0731555 12.7082896,57.0146339 L12.1246751,56.4294182 C12.0663137,56.3708967 11.9495908,56.3123751 11.8328679,56.3123751 L10.7823619,56.3123751 C10.5489161,56.3123751 10.3738318,56.1368104 10.3738318,55.9027242 L10.3738318,53.3862969 C10.3738318,53.1522107 10.6072776,52.976646 10.7823619,52.976646 Z" id="Shape-Copy-11" stroke="#4280D7" stroke-width="0.75" fill="#4C95FF" fill-rule="nonzero"></path>
                            <path d="M10.7823619,28.0464596 L11.8328679,28.0464596 C11.9495908,28.0464596 12.0663137,28.1049812 12.1246751,28.1635028 L12.7082896,28.7487184 C12.7666511,28.80724 12.8833739,28.8657615 13.0000968,28.8657615 L14.3424101,28.8657615 C14.459133,28.8657615 14.5758559,28.80724 14.6342173,28.7487184 L15.2178318,28.1635028 C15.2761932,28.1049812 15.3929161,28.0464596 15.509639,28.0464596 L25.1810855,28.0464596 C25.4145313,28.0464596 25.5896156,28.2220243 25.5896156,28.4561106 L25.5896156,30.9725378 C25.5896156,31.2066241 25.4145313,31.3821888 25.1810855,31.3821888 L15.509639,31.3821888 C15.3929161,31.3821888 15.2761932,31.4407103 15.2178318,31.4992319 L14.6342173,32.0844476 C14.5758559,32.1429691 14.459133,32.2014907 14.3424101,32.2014907 L13.0000968,32.2014907 C12.8833739,32.2014907 12.7666511,32.1429691 12.7082896,32.0844476 L12.1246751,31.4992319 C12.0663137,31.4407103 11.9495908,31.3821888 11.8328679,31.3821888 L10.7823619,31.3821888 C10.5489161,31.3821888 10.3738318,31.2066241 10.3738318,30.9725378 L10.3738318,28.4561106 C10.3738318,28.2220243 10.6072776,28.0464596 10.7823619,28.0464596 Z" id="Shape-Copy-8" stroke="#4280D7" stroke-width="0.75" fill="#4C95FF" fill-rule="nonzero"></path>
                        </g>
                        <g id="Category-Menu" stroke="none" stroke-width="1" fill="none" transform="translate(0.000000, 4.847536)">
                            <rect stroke-opacity="0.05" stroke="#000000" stroke-width="0.75" fill="#FFFFFF" x="-0.375" y="-0.375" width="7.66588785" height="78.3105797"></rect>
                            <g id="Rectangle-4">
                                <use fill="black" fill-opacity="1" filter="url(#filter-6)" xlink:href="#path-5"></use>
                                <use fill="#4C97FF" fill-rule="evenodd" xlink:href="#path-5"></use>
                            </g>
                            <ellipse id="Data" stroke-opacity="0.1" stroke="#000000" stroke-width="0.75" fill="#FF8C1A" cx="3.45794393" cy="42.9353209" rx="1.69976636" ry="1.70251553"></ellipse>
                            <ellipse id="Operators" stroke-opacity="0.1" stroke="#000000" stroke-width="0.75" fill="#59C059" cx="3.45794393" cy="37.3952795" rx="1.69976636" ry="1.70251553"></ellipse>
                            <ellipse id="Sensing" stroke-opacity="0.1" stroke="#000000" stroke-width="0.75" fill="#5CB1D6" cx="3.45794393" cy="31.8552381" rx="1.69976636" ry="1.70251553"></ellipse>
                            <ellipse id="Control" stroke-opacity="0.1" stroke="#000000" stroke-width="0.75" fill="#FFAB19" cx="3.45794393" cy="26.3151967" rx="1.69976636" ry="1.70251553"></ellipse>
                            <ellipse id="Events" stroke-opacity="0.1" stroke="#000000" stroke-width="0.75" fill="#FFBF00" cx="3.45794393" cy="20.7751553" rx="1.69976636" ry="1.70251553"></ellipse>
                            <ellipse id="Sounds" stroke-opacity="0.1" stroke="#000000" stroke-width="0.75" fill="#CF63CF" cx="3.45794393" cy="15.2351139" rx="1.69976636" ry="1.70251553"></ellipse>
                            <ellipse id="Looks" stroke-opacity="0.1" stroke="#000000" stroke-width="0.75" fill="#9966FF" cx="3.45794393" cy="9.69507246" rx="1.69976636" ry="1.70251553"></ellipse>
                            <ellipse id="Motion" stroke-opacity="0.1" stroke="#000000" stroke-width="0.75" fill="#4C97FF" cx="3.45794393" cy="4.15503106" rx="1.69976636" ry="1.70251553"></ellipse>
                        </g>
                        <g id="Workspace-Tabs" stroke="none" stroke-width="1" fill="none">
                            <g id="Blocks-off">
                                <path d="M0.28125,4.56628623 L10.7841706,4.56628623 L10.7841706,1.5072185 C10.7841706,0.829027737 10.2416103,0.28125 9.57308871,0.28125 L1.49233185,0.28125 C0.828721923,0.28125 0.28125,0.832297088 0.28125,1.5072185 L0.28125,4.56628623 Z" id="Costumes-Tab" stroke="#E6EBF2" stroke-width="0.5625" fill-opacity="0.75" fill="#FFFFFF"></path>
                                <rect id="Costumes" fill-opacity="0.1" fill="#000000" x="2.76635514" y="2.07751553" width="5.53271028" height="1.38501035" rx="0.692505176"></rect>
                            </g>
                            <g id="Blocks-on">
                                <path d="M0,1.5072185 C0,0.674804709 0.675534502,0 1.49233185,0 L9.57308871,0 C10.3972808,0 11.0654206,0.674029143 11.0654206,1.5072185 L11.0654206,4.84753623 L0,4.84753623 L0,1.5072185 Z" id="Blocks-Tab" fill="#FFFFFF"></path>
                                <rect id="Blocks" fill="#4C97FF" x="2.76635514" y="1.84668047" width="5.53271028" height="1.38501035" rx="0.692505176"></rect>
                            </g>
                            <g id="Costumes-off" transform="translate(11.065421, 0.000000)">
                                <path d="M0.28125,4.56628623 L10.7841706,4.56628623 L10.7841706,1.5072185 C10.7841706,0.829027737 10.2416103,0.28125 9.57308871,0.28125 L1.49233185,0.28125 C0.828721923,0.28125 0.28125,0.832297088 0.28125,1.5072185 L0.28125,4.56628623 Z" id="Costumes-Tab" stroke="#D9E3F2" stroke-width="0.5625" fill-opacity="0.75" fill="#FFFFFF"></path>
                                <rect id="Costumes" fill-opacity="0.15" fill="#000000" x="2.76635514" y="1.84668047" width="5.53271028" height="1.38501035" rx="0.692505176"></rect>
                            </g>
                            <g id="Sounds-off" transform="translate(22.130841, 0.000000)">
                                <path d="M0.28125,4.56628623 L10.7841706,4.56628623 L10.7841706,1.5072185 C10.7841706,0.829027737 10.2416103,0.28125 9.57308871,0.28125 L1.49233185,0.28125 C0.828721923,0.28125 0.28125,0.832297088 0.28125,1.5072185 L0.28125,4.56628623 Z" id="Sounds-Tab" stroke="#D9E3F2" stroke-width="0.5625" fill-opacity="0.75" fill="#FFFFFF"></path>
                                <rect id="Sounds" fill-opacity="0.15" fill="#000000" x="2.76635514" y="1.84668047" width="5.53271028" height="1.38501035" rx="0.692505176"></rect>
                            </g>
                        </g>
                    </g>
                </g>
                <g id="Tutorial" mask="url(#mask-4)">
                    <g transform="translate(29.046729, 23.083506)">
                        <g id="Tutorial" stroke="none" stroke-width="1" fill="none" transform="translate(2.766355, 0.115418)">
                            <mask id="mask-8" fill="white">
                                <use xlink:href="#path-7"></use>
                            </mask>
                            <g>
                                <use fill="black" fill-opacity="1" filter="url(#filter-9)" xlink:href="#path-7"></use>
                                <use fill="#FFFFFF" fill-rule="evenodd" xlink:href="#path-7"></use>
                            </g>
                            <mask id="mask-11" fill="white">
                                <use xlink:href="#path-10"></use>
                            </mask>
                            <g>
                                <use fill="black" fill-opacity="1" filter="url(#filter-12)" xlink:href="#path-10"></use>
                                <use fill="#FFFFFF" fill-rule="evenodd" xlink:href="#path-10"></use>
                            </g>
                            <rect id="Rectangle" fill-opacity="0.15" fill="#000000" mask="url(#mask-11)" x="10.6043614" y="26.7768668" width="24.8971963" height="1.84668047" rx="0.923340235"></rect>
                            <g id="Image" mask="url(#mask-11)">
                                <g transform="translate(3.227414, 8.310062)">
                                    <rect id="Rectangle" stroke-opacity="0.15" stroke="#000000" stroke-width="0.5" fill="#E5F0FF" x="0.25" y="0.25" width="39.1510903" height="14.2734438" rx="2"></rect>
                                    <g id="Dragging-Block" stroke="none" stroke-width="1" fill="none" transform="translate(10.604361, 3.116273)">
                                        <path d="M3.16978193,3.63565217 L0.403426791,8.13693582" id="Line-4" stroke="#FFFFFF" stroke-width="0.75" stroke-linecap="round" stroke-linejoin="round"></path>
                                        <path d="M4.89875389,3.63565217 L1.09501558,9.86819876" id="Line-4-Copy" stroke="#FFFFFF" stroke-width="0.75" stroke-linecap="round" stroke-linejoin="round"></path>
                                        <path d="M6.62772586,3.63565217 L4.20716511,7.79068323" id="Line-4-Copy-2" stroke="#FFFFFF" stroke-width="0.75" stroke-linecap="round" stroke-linejoin="round"></path>
                                        <g id="Shape-Copy-16" fill-rule="nonzero">
                                            <use fill="#4C95FF" xlink:href="#path-13"></use>
                                            <path stroke="#FFFFFF" stroke-width="1.125" d="M5.33571771,0.603054486 L6.56130634,0.603054486 L7.09679827,0.0660934003 C7.26625726,-0.103830505 7.52784569,-0.216247412 7.78689757,-0.216247412 L16.7667553,-0.216247412 C17.3112068,-0.216247412 17.7377854,0.211501577 17.7377854,0.755903537 L17.7377854,3.2723308 C17.7377854,3.81673276 17.3112068,4.24448175 16.7667553,4.24448175 L7.84525988,4.24448175 L7.30976795,4.78144283 C7.14030896,4.95136674 6.87872053,5.06378364 6.61966865,5.06378364 L5.2773554,5.06378364 C5.01830352,5.06378364 4.75671509,4.95136674 4.58725611,4.78144283 L4.05176418,4.24448175 L3.05962046,4.24448175 C2.51516899,4.24448175 2.08859034,3.81673275 2.08859034,3.2723308 L2.08859034,0.755903537 C2.08859034,0.217560623 2.56447356,-0.216247412 3.05962046,-0.216247412 L4.11012649,-0.216247412 C4.36917837,-0.216247412 4.6307668,-0.103830505 4.80022578,0.0660934003 L5.33571771,0.603054486 Z"></path>
                                            <use stroke="#4C95FF" stroke-width="0.75" xlink:href="#path-13"></use>
                                        </g>
                                        <g id="hand" transform="translate(10.143302, 0.807923)">
                                            <path d="M2.93076885,5.15131517 C1.88693084,5.15131517 0.99985296,4.63932301 0.821884112,3.9334294 C0.727366978,3.56039994 0.599192523,3.23446084 0.486233022,2.94684036 C0.246943302,2.33651246 0.0399277259,1.81020853 0.510669159,1.45656922 C0.615790654,1.3780853 0.715840498,1.33976668 0.816812461,1.33976668 C1.11788411,1.33976668 1.22438879,1.64216061 1.30230779,1.86376226 C1.30461308,1.87068732 1.30737944,1.87761237 1.31014579,1.88546076 C1.29631402,1.83283037 1.28156012,1.77789162 1.26957259,1.73541797 C1.17367227,1.38454868 1.01322368,0.797304293 1.60337944,0.543385728 C1.69236386,0.504605438 1.7744324,0.486138634 1.85373458,0.486138634 C2.1732486,0.486138634 2.29404611,0.74882893 2.35029533,1.02536933 C2.38164735,0.651878206 2.50982181,0.230835059 3.04326729,0.230835059 C3.266881,0.230835059 3.4024324,0.325939103 3.47712399,0.405808033 C3.59884361,0.535537336 3.64725483,0.713742001 3.66293084,0.901641739 C3.75929221,0.684195114 3.9165134,0.505067108 4.20190903,0.505067108 C4.29135452,0.505067108 4.38771589,0.524918923 4.48776573,0.565545894 C5.21992773,0.859629758 4.74503676,2.07520718 4.58919875,2.4750135 C4.50574704,2.68830509 4.52372835,2.81203268 4.54078754,2.85542968 C4.54309283,2.83234617 4.58182181,2.78617916 4.61824548,2.69523014 C4.72705545,2.41961308 4.9377595,2.25572019 5.18119875,2.25572019 C5.35179065,2.25572019 5.5071676,2.33882081 5.60860062,2.48470857 C5.74230779,2.67676334 5.75844486,2.94914871 5.65332336,3.23261416 C5.20794019,4.43387981 4.1899215,5.15131517 2.93122991,5.15131517 L2.93076885,5.15131517 Z" id="Fill-1" fill="#FFFFFF"></path>
                                            <path d="M3.0433595,-9.23340234e-05 C2.64823178,-9.23340234e-05 2.42000748,0.176727321 2.28860561,0.40802405 C2.18302305,0.314766686 2.0424,0.255211241 1.85382679,0.255211241 L1.85336573,0.255211241 C1.7440947,0.255211241 1.62882991,0.280603097 1.51218193,0.33138681 C1.09722866,0.509591476 0.967209969,0.820295464 0.94968972,1.12222772 C0.908655452,1.11345599 0.864393769,1.10883929 0.816904673,1.10883929 C0.666138318,1.10883929 0.51675514,1.16377803 0.372904673,1.27227051 C-0.238920872,1.73070894 0.0326429907,2.42136743 0.27193271,3.03077199 C0.382586916,3.31239076 0.507533956,3.63094314 0.598362617,3.99058416 C0.802150779,4.79666018 1.78328474,5.38205789 2.93086106,5.38205789 C4.29052461,5.38205789 5.3887676,4.60829878 5.86919128,3.31285243 C6.00105421,2.95782811 5.97523489,2.60788216 5.79818816,2.35304025 C5.65525981,2.14713538 5.42473022,2.0247928 5.18129097,2.0247928 C5.11120997,2.0247928 5.04297321,2.0340262 4.9775028,2.05295468 C5.2430729,1.13746284 5.10798255,0.56591523 4.57361495,0.351700295 C4.44590156,0.299993242 4.32095452,0.274139716 4.20200125,0.274139716 C4.02080498,0.274139716 3.87695452,0.325846769 3.76215078,0.40802405 C3.73033769,0.351238625 3.69206978,0.297684892 3.6455028,0.247824519 C3.53945919,0.13471534 3.34904174,-9.23340234e-05 3.0433595,-9.23340234e-05 M3.0433595,0.461577783 C3.74416947,0.461577783 3.24806978,1.74594405 3.48505421,1.83273803 C3.50303551,1.83873974 3.51917259,1.84150976 3.53392648,1.84150976 C3.82116636,1.84150976 3.68100436,0.735809833 4.20200125,0.735809833 C4.2600947,0.735809833 4.32648723,0.749659937 4.40210093,0.779668494 C4.82120374,0.948178087 4.64554019,1.69700702 4.37443738,2.3908972 C4.20430654,2.82625212 4.33663053,3.08940409 4.51506044,3.08940409 C4.62340935,3.08940409 4.74789533,2.99337671 4.83226916,2.78008511 C4.91295452,2.57695026 5.05173333,2.48646292 5.18129097,2.48646292 C5.39844984,2.48646292 5.58932835,2.74130482 5.43717882,3.15219123 C4.96228785,4.4333258 3.89678006,4.92038778 2.93086106,4.92038778 C2.02073022,4.92038778 1.19912274,4.48734121 1.04559003,3.87701331 C0.752817445,2.71868299 0.15251838,2.01371272 0.649079128,1.6416066 C0.715471651,1.59174623 0.770337695,1.57050941 0.816904673,1.57050941 C1.09169595,1.57050941 1.07786417,2.30502656 1.3475838,2.30502656 C1.36279875,2.30502656 1.37893583,2.30225654 1.39599502,2.29810151 C1.93866168,2.14205701 0.948767601,1.07652238 1.69430031,0.755199978 C1.75562118,0.728884781 1.80818193,0.716881358 1.85382679,0.716881358 C2.30843115,0.716881358 2.04055576,1.91860867 2.38035639,1.91860867 C2.38542804,1.91860867 2.39049969,1.91860867 2.3960324,1.91768533 C2.81236885,1.87521168 2.23420062,0.461577783 3.0433595,0.461577783" id="Fill-3" fill="#575E75"></path>
                                        </g>
                                    </g>
                                </g>
                            </g>
                            <rect fill="#0EBD8C" mask="url(#mask-11)" x="0" y="0.230835059" width="46.105919" height="5.54004141"></rect>
                        </g>
                        <ellipse id="Add-Sprite" stroke-opacity="0.15" stroke="#000000" stroke-width="0.75" fill="#0EBD8C" cx="2.76635514" cy="18.0051346" rx="3.14135514" ry="3.1450207"></ellipse>
                        <ellipse id="Add-Sprite-Copy-4" stroke-opacity="0.15" stroke="#000000" stroke-width="0.75" fill="#0EBD8C" cx="48.8722741" cy="18.0051346" rx="3.14135514" ry="3.1450207"></ellipse>
                    </g>
                </g>
                <g id="Stage" mask="url(#mask-4)">
                    <g transform="translate(89.906542, 6.925052)">
                        <mask id="mask-15" fill="white">
                            <use xlink:href="#path-14"></use>
                        </mask>
                        <use id="Stage" stroke="none" fill="#FFFFFF" fill-rule="evenodd" xlink:href="#path-14"></use>
                        <mask id="mask-17" fill="white">
                            <use xlink:href="#path-16"></use>
                        </mask>
                        <use id="Stage" stroke="none" fill="#FFFFFF" fill-rule="evenodd" xlink:href="#path-16"></use>
                        <rect id="Rectangle-2-Copy-10" stroke="none" fill-opacity="0.11" fill="#000000" fill-rule="evenodd" mask="url(#mask-17)" x="47.0280374" y="47.7828571" width="5.53271028" height="1.38501035" rx="0.692505176"></rect>
                        <path d="M33.1962617,22.0564628 C33.1962617,25.0607291 30.7103157,26.316124 27.6565847,26.316124 C24.6040149,26.316124 22.1308411,25.0607291 22.1308411,22.0564628 C22.1308411,21.3139636 22.2574026,20.685695 22.5023977,20.1602339 L22.4095086,15.819469 C22.3978974,15.3397002 22.9436212,15.0655466 23.3384001,15.3511233 L25.6954624,17.0988523 C26.2411862,16.8132757 26.9146326,16.6876219 27.6565847,16.6876219 C28.4008591,16.6876219 29.0859166,16.8132757 29.6316404,17.0988523 L31.9887027,15.3511233 C32.3718704,15.0655466 32.9175942,15.3397002 32.9175942,15.819469 L32.8247051,20.1602339 C33.0685391,20.685695 33.1962617,21.3139636 33.1962617,22.0564628" id="Fill-1" stroke="#DB6E00" stroke-width="0.75" fill="#FF8C1A" fill-rule="evenodd" mask="url(#mask-17)"></path>
                    </g>
                </g>
                <g id="Sprite-Info-Area" mask="url(#mask-4)">
                    <g transform="translate(89.906542, 51.245383)">
                        <path d="M0,1.50488956 C0,0.673762005 0.66859952,0 1.50135515,0 L39.993972,0 C40.8231475,0 41.4953271,0.68004726 41.4953271,1.50488956 L41.4953271,8.31006211 L0,8.31006211 L0,1.50488956 Z" id="stage-copy" fill="#FFFFFF"></path>
                        <rect id="Rectangle-2" fill-opacity="0.15" fill="#000000" x="2.07476636" y="2.07751553" width="8.29906542" height="1.38501035" rx="0.692505176"></rect>
                        <rect id="Rectangle-2-Copy" fill-opacity="0.15" fill="#000000" x="2.07476636" y="4.84753623" width="2.76635514" height="1.38501035" rx="0.692505176"></rect>
                        <rect id="Rectangle-2-Copy-2" fill-opacity="0.15" fill="#000000" x="6.22429907" y="4.84753623" width="2.76635514" height="1.38501035" rx="0.692505176"></rect>
                        <rect id="Rectangle-2-Copy-5" fill-opacity="0.15" fill="#000000" x="20.0560748" y="2.07751553" width="2.76635514" height="1.38501035" rx="0.692505176"></rect>
                        <rect id="Rectangle-2-Copy-7" fill-opacity="0.15" fill="#000000" x="32.5046729" y="2.07751553" width="2.76635514" height="1.38501035" rx="0.692505176"></rect>
                        <rect id="Rectangle-2-Copy-3" fill-opacity="0.15" fill="#000000" x="10.3738318" y="4.84753623" width="2.76635514" height="1.38501035" rx="0.692505176"></rect>
                        <rect id="Rectangle-2-Copy-6" fill-opacity="0.15" fill="#000000" x="24.2056075" y="2.07751553" width="2.76635514" height="1.38501035" rx="0.692505176"></rect>
                        <rect id="Rectangle-2-Copy-8" fill-opacity="0.15" fill="#000000" x="36.6542056" y="2.07751553" width="2.76635514" height="1.38501035" rx="0.692505176"></rect>
                        <rect id="Rectangle-2-Copy-4" fill-opacity="0.15" fill="#000000" x="20.0560748" y="4.84753623" width="5.53271028" height="1.38501035" rx="0.692505176"></rect>
                        <rect id="Rectangle-2-Copy-9" fill-opacity="0.15" fill="#000000" x="27.6635514" y="4.84753623" width="11.7570093" height="1.38501035" rx="0.692505176"></rect>
                    </g>
                </g>
                <g id="Sprite-List" mask="url(#mask-4)">
                    <g transform="translate(89.906542, 59.555445)">
                        <polygon id="Sprite-Area" stroke="none" fill="#E5F0FF" points="0 0 41.4953271 0 41.4953271 24.9301863 0 24.9301863"></polygon>
                        <ellipse id="Add-Sprite" stroke-opacity="0.2" stroke="#4C97FF" stroke-width="0.75" fill="#4C97FF" cx="36.6542056" cy="20.0826501" rx="3.14135514" ry="3.1450207"></ellipse>
                        <g id="cat" stroke="none" stroke-width="1" fill="none" transform="translate(1.383178, 1.385010)">
                            <rect id="sprite-selected" stroke="#4C97FF" stroke-width="0.75" fill="#FFFFFF" x="0.375" y="0.375" width="7.54906542" height="7.56006211" rx="1.5"></rect>
                            <path d="M4.1469202,6.23289434 C3.00220651,6.23289434 2.07476636,5.76212125 2.07476636,4.63552139 C2.07476636,4.35708416 2.12222691,4.12148343 2.21410009,3.92443555 L2.17926665,2.29664868 C2.17491248,2.1167354 2.37955889,2.01392781 2.52760098,2.12101905 L3.41149935,2.77641744 C3.61614577,2.6693262 3.86868816,2.62220606 4.1469202,2.62220606 C4.42602308,2.62220606 4.68291965,2.6693262 4.88756607,2.77641744 L5.77146444,2.12101905 C5.91515235,2.01392781 6.11979877,2.1167354 6.11979877,2.29664868 L6.08496533,3.92443555 C6.17640309,4.12148343 6.22429907,4.35708416 6.22429907,4.63552139 C6.22429907,5.76212125 5.29206931,6.23289434 4.1469202,6.23289434 Z" id="Fill-1" fill="#FF8C1A"></path>
                        </g>
                    </g>
                </g>
                <g id="Stage-Area" mask="url(#mask-4)">
                    <g transform="translate(134.168224, 51.245383)">
                        <path d="M0,1.49284013 C0,0.668367294 0.675534502,0 1.49233185,0 L9.57308871,0 C10.3972808,0 11.0654206,0.663986564 11.0654206,1.49284013 L11.0654206,33.2402484 L0,33.2402484 L0,1.49284013 Z" id="Stage-Area" stroke="none" fill="#FFFFFF" fill-rule="evenodd"></path>
                        <ellipse id="Add-Sprite-Copy" stroke-opacity="0.2" stroke="#4C97FF" stroke-width="0.75" fill="#4C97FF" fill-rule="evenodd" cx="5.53271028" cy="28.3927122" rx="3.14135514" ry="3.1450207"></ellipse>
                        <path d="M0.345794393,16.2738716 L10.7196262,16.2738716" id="Line" stroke-opacity="0.1" stroke="#000000" stroke-width="0.75" fill="none" stroke-linecap="square"></path>
                        <path d="M0.345794393,7.96380952 L10.7196262,7.96380952" id="Line-Copy" stroke-opacity="0.1" stroke="#000000" stroke-width="0.75" fill="none" stroke-linecap="square"></path>
                    </g>
                </g>
            </g>
            <g id="Toolbar" transform="translate(0.000000, 11.080083)">
                <rect id="nav-container" fill="#4C97FF" x="0" y="0" width="148" height="8.31006211"></rect>
                <rect id="Rectangle" fill="#FFFFFF" opacity="0.5" x="58.0934579" y="1.38501035" width="16.2523364" height="5.54004141" rx="0.75"></rect>
                <rect id="Rectangle-Copy-7" fill="#FF8000" opacity="0.75" x="75.728972" y="1.38501035" width="8.99065421" height="5.54004141" rx="0.75"></rect>
                <rect id="Rectangle-Copy-10" fill="#FFBF00" x="126.214953" y="1.38501035" width="5.53271028" height="5.54004141" rx="0.75"></rect>
                <rect id="Rectangle-Copy-8" stroke-opacity="0.15" stroke="#000000" stroke-width="0.75" opacity="0.75" x="86.4778037" y="1.76001035" width="18.9602804" height="4.79004141" rx="0.75"></rect>
                <rect id="logo" stroke="#FFFFFF" stroke-width="0.75" fill="#FFAB19" x="5.15771028" y="2.3950207" width="9.04906542" height="3.5200207" rx="1.76001035"></rect>
                <rect id="Rectangle-Copy" fill="#FFFFFF" x="23.8598131" y="3.46252588" width="5.53271028" height="1.38501035" rx="0.692505176"></rect>
                <ellipse id="Oval" fill="#FFFFFF" cx="20.0560748" cy="4.15503106" rx="1.38317757" ry="1.38501035"></ellipse>
                <ellipse id="Oval-Copy-7" fill="#FFFFFF" cx="121.028037" cy="4.15503106" rx="1.38317757" ry="1.38501035"></ellipse>
                <rect id="Rectangle-Copy-2" fill="#FFFFFF" x="32.5046729" y="3.46252588" width="5.53271028" height="1.38501035" rx="0.692505176"></rect>
                <rect id="Rectangle-Copy-6" fill="#FFFFFF" x="42.8785047" y="3.46252588" width="10.3738318" height="1.38501035" rx="0.692505176"></rect>
                <rect id="Rectangle-Copy-9" fill="#FFFFFF" x="134.168224" y="3.46252588" width="10.3738318" height="1.38501035" rx="0.692505176"></rect>
            </g>
            <g id="Chrome">
                <g>
                    <use fill="#E9F1FC" fill-rule="evenodd" xlink:href="#path-18"></use>
                    <use fill="black" fill-opacity="1" filter="url(#filter-19)" xlink:href="#path-18"></use>
                </g>
                <ellipse id="Oval" fill-opacity="0.15" fill="#000000" cx="6.91588785" cy="5.54004141" rx="1.38317757" ry="1.38501035"></ellipse>
                <ellipse id="Oval-Copy" fill-opacity="0.15" fill="#000000" cx="12.4485981" cy="5.54004141" rx="1.38317757" ry="1.38501035"></ellipse>
                <ellipse id="Oval-Copy-2" fill-opacity="0.15" fill="#000000" cx="17.9813084" cy="5.54004141" rx="1.38317757" ry="1.38501035"></ellipse>
            </g>
            <rect id="Rectangle" fill="#59C059" x="90.8286604" y="20.7751553" width="3.68847352" height="2.7700207" rx="0.5"></rect>
            <rect id="Rectangle" fill="#379438" x="90.8286604" y="20.7751553" width="1" height="4.15503106" rx="0.5"></rect>
            <polygon id="Polygon" fill="#E64D00" transform="translate(98.666667, 22.621836) rotate(22.500000) translate(-98.666667, -22.621836) " points="98.6658027 20.7755132 99.9703811 21.3168994 100.511261 22.6226997 99.971603 23.9279939 98.6675306 24.4681583 97.3629522 23.926772 96.822072 22.6209718 97.3617304 21.3156776"></polygon>
        </g>
    </g>
</svg>