<?xml version="1.0" encoding="UTF-8"?>
<svg width="147px" height="112px" viewBox="0 0 147 112" version="1.1" xmlns="http://www.w3.org/2000/svg" xmlns:xlink="http://www.w3.org/1999/xlink">
    <!-- Generator: Sketch 52.6 (67491) - http://www.bohemiancoding.com/sketch -->
    <title>icon</title>
    <desc>Created with Sketch.</desc>
    <g id="icon" stroke="none" stroke-width="1" fill="none" fill-rule="evenodd">
        <g id="Group-2-Copy">
            <path d="M147,23 L147,105.654302 C147,109.14285 144.451645,112 141.336989,112 L10.663011,112 C7.54835494,112 5,109.14285 5,105.654302 L5,23 L5,11.1971831 C5,7.78873239 7.5508982,5 10.6686627,5 L141.331337,5 C144.449102,5 147,7.78873239 147,11.1971831 L147,23 Z" id="Combined-Shape" fill="#E2E3E4"></path>
            <path d="M142,18 L142,100.654302 C142,104.14285 139.451645,107 136.336989,107 L5.66301097,107 C2.54835494,107 0,104.14285 0,100.654302 L0,18 L0,6.1971831 C0,2.78873239 2.5508982,0 5.66866267,0 L136.331337,0 C139.449102,0 142,2.78873239 142,6.1971831 L142,18 Z" id="Combined-Shape-Copy" fill="#FFFFFF"></path>
            <path d="M3,22 L3,100.725602 C3,102.58343 4.27831709,104 5.66301097,104 L136.336989,104 C137.721683,104 139,102.58343 139,100.725602 L139,22 L3,22 Z M0,19 L142,19 L142,100.725602 C142,104.174952 139.451645,107 136.336989,107 L5.66301097,107 C2.54835494,107 0,104.174952 0,100.725602 L0,19 Z" id="Fill-1" fill="#774DCB" fill-rule="nonzero"></path>
            <polygon id="Fill-5" fill="#C4ACF9" points="3 61 139 61 139 22 3 22"></polygon>
            <path d="M139,19 L139,6.1971831 C139,4.38884231 137.729604,3 136.331337,3 L5.66866267,3 C4.27039631,3 3,4.38884231 3,6.1971831 L3,19 L139,19 Z M136.331337,0 C139.449102,0 142,2.78873239 142,6.1971831 L142,22 L0,22 L0,6.1971831 C0,2.78873239 2.5508982,0 5.66866267,0 L136.331337,0 Z" id="Fill-7" fill="#774DCB" fill-rule="nonzero"></path>
            <path d="M139,19 L3,19 L3,6.1971831 C3,4.38884231 4.27039631,3 5.66866267,3 L136.331337,3 C137.729604,3 139,4.38884231 139,6.1971831 L139,19 Z" id="Combined-Shape" fill="#9966FF"></path>
            <path d="M120,13 C119.171573,13 118.5,12.3284271 118.5,11.5 C118.5,10.6715729 119.171573,10 120,10 L132,10 C132.828427,10 133.5,10.6715729 133.5,11.5 C133.5,12.3284271 132.828427,13 132,13 L120,13 Z" id="Stroke-9" fill="#774DCB" fill-rule="nonzero"></path>
            <path d="M100,13 C99.1715729,13 98.5,12.3284271 98.5,11.5 C98.5,10.6715729 99.1715729,10 100,10 L112,10 C112.828427,10 113.5,10.6715729 113.5,11.5 C113.5,12.3284271 112.828427,13 112,13 L100,13 Z" id="Stroke-10" fill="#774DCB" fill-rule="nonzero"></path>
            <circle id="Oval" fill="#FFFFFF" cx="10" cy="11" r="3"></circle>
            <circle id="Oval-Copy" fill="#FFFFFF" cx="19" cy="11" r="3"></circle>
            <circle id="Oval-Copy-2" fill="#FFFFFF" cx="28" cy="11" r="3"></circle>
            <polygon id="Fill-13" fill-opacity="0.2" fill="#FCFCFC" points="128.9543 22 139 22 125.0457 61 115 61"></polygon>
            <polygon id="Fill-14" fill-opacity="0.2" fill="#FCFCFC" points="100.603441 22 124 22 110.396559 61 87 61"></polygon>
            <polygon id="Fill-15" fill-opacity="0.2" fill="#FCFCFC" points="71.3939394 22 76 22 61.6060606 61 57 61"></polygon>
            <path d="M16,69.7 C15.3372583,69.7 14.8,69.1627417 14.8,68.5 C14.8,67.8372583 15.3372583,67.3 16,67.3 L126,67.3 C126.662742,67.3 127.2,67.8372583 127.2,68.5 C127.2,69.1627417 126.662742,69.7 126,69.7 L16,69.7 Z" id="Stroke-19" fill-opacity="0.15" fill="#000000" fill-rule="nonzero"></path>
            <path d="M37,75.7 C36.3372583,75.7 35.8,75.1627417 35.8,74.5 C35.8,73.8372583 36.3372583,73.3 37,73.3 L105,73.3 C105.662742,73.3 106.2,73.8372583 106.2,74.5 C106.2,75.1627417 105.662742,75.7 105,75.7 L37,75.7 Z" id="Stroke-20" fill-opacity="0.15" fill="#000000" fill-rule="nonzero"></path>
            <path d="M78,88.9122489 L78,86.7450803 C78,85.3003012 76.92,84 75.4382022,84 L68.5617978,84 C67.2134831,84 66,85.1543785 66,86.7450803 L66,88.9122489 L78,88.9122489 Z" id="Fill-21" fill="#FF8000"></path>
            <path d="M75.8901099,94.9274141 C76.7864259,94.9274141 77.4655,94.2788612 77.4655,93.4455945 L77.4655,86.0163196 C77.4655,85.1838199 76.7859181,84.5345 75.8901099,84.5345 L68.1098901,84.5345 C67.2132711,84.5345 66.5345,85.1833271 66.5345,86.0163196 L66.5345,93.4455945 C66.5345,94.2793538 67.2127635,94.9274141 68.1098901,94.9274141 L75.8901099,94.9274141 Z M75.8901099,95.9964141 L68.1098901,95.9964141 C66.6329892,95.9964141 65.4655,94.8809134 65.4655,93.4455945 L65.4655,86.0163196 C65.4655,84.5818765 66.6333983,83.4655 68.1098901,83.4655 L75.8901099,83.4655 C77.3656923,83.4655 78.5345,84.5822603 78.5345,86.0163196 L78.5345,93.4455945 C78.5345,94.8805299 77.3661016,95.9964141 75.8901099,95.9964141 Z" id="Stroke-22" fill="#DB6E00" fill-rule="nonzero"></path>
            <path d="M55.9615922,43.999705 C54.5810433,43.9784929 53.479083,42.8421412 53.500295,41.4615922 C53.5215071,40.0810433 54.6578588,38.979083 56.0384078,39.000295 L88.5800744,39.500295 C89.9606233,39.5215071 91.0625836,40.6578588 91.0413716,42.0384078 C91.0201596,43.4189567 89.8838078,44.520917 88.5032589,44.499705 L55.9615922,43.999705 Z" id="Stroke-10-Copy" fill="#774DCB" fill-rule="nonzero"></path>
        </g>
    </g>
</svg>