<?xml version="1.0" encoding="UTF-8"?>
<svg width="20px" height="20px" viewBox="0 0 20 20" version="1.1" xmlns="http://www.w3.org/2000/svg" xmlns:xlink="http://www.w3.org/1999/xlink">
    <!-- Generator: Sketch 52.5 (67469) - http://www.bohemiancoding.com/sketch -->
    <title>Resources/Activity Cards</title>
    <desc>Created with Sketch.</desc>
    <defs>
        <path d="M8.49764281,16.1363636 L15.5885519,16.1363636 C15.4521883,16.2727273 15.179461,16.4090909 15.0430974,16.4090909 L7.54309736,18.8636364 C7.27037009,19 7.13400645,19 6.86127918,19 C6.04309736,19 5.22491554,18.4545455 4.95218827,17.6363636 L1.81582463,8.09090909 C1.40673372,7.13636364 1.95218827,5.90909091 3.04309736,5.5 L5.36127918,4.68181818 L5.36127918,13 C5.36127918,14.7727273 6.72491554,16.1363636 8.49764281,16.1363636 Z M16.2703701,1 C17.3612792,1 18.3158246,1.95454545 18.3158246,3.04545455 L18.3158246,13 C18.3158246,14.0909091 17.3612792,15.0454545 16.2703701,15.0454545 L8.36127918,15.0454545 C7.27037009,15.0454545 6.31582463,14.0909091 6.31582463,13 L6.31582463,3.04545455 C6.31582463,1.95454545 7.27037009,1 8.49764281,1 L16.2703701,1 Z M16.4067337,12.4545455 L16.4067337,7.27272727 C16.4067337,6.86363636 15.9976428,6.45454545 15.5885519,6.45454545 L8.77037009,6.45454545 C8.36127918,6.45454545 7.95218827,6.86363636 7.95218827,7.27272727 L7.95218827,12.4545455 C7.95218827,12.8636364 8.36127918,13.2727273 8.77037009,13.2727273 L15.5885519,13.2727273 C16.1340064,13.2727273 16.4067337,12.8636364 16.4067337,12.4545455 Z M15.7249155,4.54545455 C16.1340064,4.54545455 16.4067337,4.27272727 16.5430974,3.86363636 C16.5430974,3.45454545 16.1340064,3.04545455 15.7249155,3.04545455 L9.04309736,3.04545455 C8.63400645,3.04545455 8.22491554,3.45454545 8.22491554,3.86363636 C8.22491554,4.27272727 8.63400645,4.54545455 9.04309736,4.54545455 L15.7249155,4.54545455 Z" id="path-1"></path>
    </defs>
    <g id="Resources/Activity-Cards" stroke="none" stroke-width="1" fill="none" fill-rule="evenodd">
        <mask id="mask-2" fill="white">
            <use xlink:href="#path-1"></use>
        </mask>
        <use id="Activity-Cards" fill="#575E75" xlink:href="#path-1"></use>
        <g id="Color/Gray" mask="url(#mask-2)" fill="#575E75">
            <rect id="Color" x="0" y="0" width="20" height="20"></rect>
        </g>
    </g>
</svg>