<?xml version="1.0" encoding="UTF-8"?><svg id="Layer_2" xmlns="http://www.w3.org/2000/svg" viewBox="0 0 273.63 197.08"><g id="Layer_1-2"><g><path d="M119.11,197.08c63.28,0,136.82-18.47,149.84-75.43,13.02-56.96,5.63-88.69-111.47-116.4C40.38-22.46-10.51,66.31,3.79,112.36c14.31,46.05,52.04,84.72,115.32,84.72Z" fill="#628fca" fill-rule="evenodd" isolation="isolate" opacity=".25"/><g><g><path d="M72.58,137.91c1.26-.11,3.98-.28,3.6,5.61-.39,5.88-8.21,11.83-9.17,12.42-3.67,2.41-8.26,5.22-14.37,6.64-17.7,4.19-27.51-11.57-24.35-16.99,3.04-5.35,11.08,3.18,21.35,5.04,4.53,.88,8.62-.29,11.89-1.46,4.55-1.79,9.6-11.19,11.05-11.25h0Z" fill="#fbab20" fill-rule="evenodd" stroke="#424143" stroke-linecap="round" stroke-linejoin="round" stroke-width="1.73"/><path d="M36.63,146.46c3.93,2.08,10.49,4.38,10.49,4.38,0,0-5.14,1.65-6.42,5.25-1.09,2.83,1.02,5.19,1.78,5.89-2.53-.61-5.8-1.6-9.59-5.09-3.8-3.49-5.69-9.3-3.72-11.51,2.12-1.96,3.83-.52,7.47,1.08h0Z" fill="#fff" fill-rule="evenodd"/></g><g><path d="M84.4,119.43c2.43-7.28,4.35-5.54,4.35-5.54,1.06,.93,1.18,2.67,2.3,3.98,3.48,3.98,11.63,12.56,14.93,10.76,14.24-6.28,22.2-9.52,21.33-1.37,2.3,2.36-1.43,5.72-2.24,7.71-1,2.24,.93,2.43-2.05,4.23-3.36,2.05-7.28,3.92-10.2,5.6-5.85,2.43-11.57,5.41-20.09-3.17-6.78-7.77-10.01-8.09-10.01-8.09-3.98-3.36-.75-6.9,1.68-14.12Z" fill="#faa51f" stroke="#424143" stroke-linecap="round" stroke-linejoin="round" stroke-width="1.73"/><path d="M106.04,128.57l-4.66,2.55" fill="#faa51f" stroke="#424143" stroke-linecap="round" stroke-linejoin="round" stroke-width="1.73"/></g><g><path d="M93.43,146.73s-3.42,11.26-1.87,29.36c.68,7.77,15.3-1.06,14.18,14.12-.31,4.29-19.41,3.86-23.57,2.36-3.92-1.43-4.91-2.86-4.23-7.03,2.3-14.93-5.22-32.22-5.22-32.22" fill="#faa51f" stroke="#424143" stroke-linecap="round" stroke-linejoin="round" stroke-width="1.73"/><path d="M90.01,180.01c2.99-.56,5.72-.25,5.72-.25" fill="#faa51f" stroke="#424143" stroke-linecap="round" stroke-linejoin="round" stroke-width="1.73"/></g><path d="M95.11,131.55c0,13.75,3.48,34.02-20.9,34.02s-22.27-18.47-22.27-32.16,8.33-17.48,22.27-17.48,20.9,1.93,20.9,15.61h0Z" fill="#faa51f" stroke="#424143" stroke-linecap="round" stroke-linejoin="round" stroke-width="1.73"/><path d="M89.82,137.65c0,8.71,1.87,21.52-11.38,21.52s-12.13-11.69-12.13-20.4,4.54-11.07,12.13-11.07,11.38,1.24,11.38,9.95h0Z" fill="#fff"/><g><path d="M71.79,164.89c-.81,6.28-1.93,15.92-1.49,21.4,.37,4.17-1.24,6.59-5.6,7.34-4.54,.81-20.03,1.18-20.28-3.92-.81-15.49,12.25-5.91,11.94-13.75-.31-8.46-.56-15.67-2.3-20.46-1.8-4.91-1.68-7.65-1.93-8.58" fill="#faa51f" stroke="#424143" stroke-linecap="round" stroke-linejoin="round" stroke-width="1.73"/><path d="M51.51,179.63s3.23-.44,6.22,.37" fill="#faa51f" stroke="#424143" stroke-linecap="round" stroke-linejoin="round" stroke-width="1.73"/></g><g><path d="M100.16,138.25l-3.65,2.5c-.31,.2-.67,.28-1.02,.19l-3.31-.8c-.35-.09-.72-.02-1.02,.19l-7.03,4.94c-.23,.17-.42,.39-.49,.67l-.79,2.6c-.09,.3-.29,.54-.55,.72l-31.67,18.79c-.58,.37-1.34,.18-1.71-.41l-7.08-11.32c-.37-.58-.2-1.35,.39-1.72l31.49-19.26c.29-.21,.5-.51,.56-.86l.52-3.08c.06-.34,.26-.68,.56-.86l7.36-4.65c.33-.22,.74-.26,1.1-.13l2.82,1.03c.34,.11,.72,.08,1.04-.09l3.81-2.12c.59-.34,1.32-.16,1.67,.41l7.3,11.56c.37,.58,.21,1.33-.32,1.71h0Z" fill="#ac3a95" stroke="#424143" stroke-miterlimit="10" stroke-width="1.08"/><path d="M101.4,140.32l-3.65,2.5c-.31,.2-.67,.28-1.02,.19l-3.31-.8c-.35-.09-.72-.02-1.02,.19l-7.03,4.94c-.23,.17-.42,.39-.49,.67l-.79,2.6c-.09,.3-.29,.54-.55,.72l-31.67,18.79c-.58,.37-1.34,.18-1.71-.41l-7.08-11.32c-.37-.58-.2-1.35,.39-1.72l31.49-19.26c.29-.21,.5-.51,.56-.86l.52-3.08c.06-.34,.26-.68,.56-.86l7.36-4.65c.33-.22,.74-.26,1.1-.13l2.82,1.03c.34,.11,.72,.08,1.04-.09l3.81-2.12c.59-.34,1.32-.16,1.67,.41l7.3,11.56c.35,.57,.21,1.33-.32,1.71h0Z" fill="#e1569f" stroke="#424143" stroke-miterlimit="10" stroke-width="1.08"/></g><g><path d="M59.54,118.74l1.24,14.55-17.23,8.02,.93-8.21,15.05-14.37Z" fill="#faa51f"/><path d="M44.48,133.11c.81-1.74,3.17-6.84,5.22-11.51,2.55-5.72,9.08-15.11,15.05-5.66" fill="#faa51f" stroke="#424143" stroke-linecap="round" stroke-linejoin="round" stroke-width="1.73"/><path d="M60.22,132.92c2.86,1.12,9.64,2.18,14.31,5.66,5.29,3.98,5.47,12.31,.19,16.23-4.79,3.55-11.76-.44-24.82-7.77-3.73-2.11-6.16-6.16-5.91-10.45v-.19c.25-4.1,1.62-8.02,3.67-11.57l4.54-8.02" fill="#faa51f" stroke="#424143" stroke-linecap="round" stroke-linejoin="round" stroke-width="1.73"/></g><g><g><path d="M81.49,19.73l14.68-14.06,5.6,22.7s12.63,9.39,16.42,15.8c6.34,10.76,6.53,19.59,6.53,19.59,0,0,13.93,4.1,16.36,15.36,2.43,11.26-6.34,32.47-43.23,39.81-36.82,7.34-66.61-2.67-80.54-25.13-13.93-22.45,8.09-49.2,6.84-47.64L19.73,8.97l25.56,16.73s8.89-3.36,18.16-3.79c3.48-.19,9.76,.12,12.81,.44l5.22-2.61Z" fill="#faa51f" stroke="#424143" stroke-linecap="round" stroke-linejoin="round" stroke-width="1.73"/><path d="M124.03,64.51s13.43,3.23,15.86,14.49c2.92,11.2-7.03,32.28-41.92,38.62-7.9,1.62-15.05,2.92-26.18,2.92-17.29,.06-36.01-10.64-34.71-33.15,.81-12.94,17.17-11.94,17.17-11.94l14.31-3.73s14.43,3.36,23.01,1.49,8.58-8.58,8.58-8.58l17.91-5.22,4.85,4.04,1.12,1.06Z" fill="#fff"/><path d="M16.25,84.53s-7.15,1-10.82,1.18c-3.67,.25-4.56,.27-4.56,.27" fill="none" stroke="#424143" stroke-linecap="round" stroke-linejoin="round" stroke-width="1.73"/><path d="M146.67,71.41s5.35-1.87,0,0c-4.54,1.62-13.5,3.05-13.5,3.05" fill="none" stroke="#424143" stroke-linecap="round" stroke-linejoin="round" stroke-width="1.73"/><path d="M4.55,70.17s-8.15-3.61,0,0c7.34,3.23,12,6.72,12,6.72" fill="none" stroke="#424143" stroke-linecap="round" stroke-linejoin="round" stroke-width="1.73"/><path d="M150.15,89.2s.31,.25-5.16-.31c-5.54-.56-10.88-2.74-10.88-2.74" fill="none" stroke="#424143" stroke-linecap="round" stroke-linejoin="round" stroke-width="1.73"/><path d="M75.58,22.46c5.6,1.37,7.65,2.86,7.65,2.86" fill="none" stroke="#424143" stroke-linecap="round" stroke-linejoin="round" stroke-width="1.73"/><path d="M40.69,22.65l10.51,7.34" fill="none" stroke="#424143" stroke-linecap="round" stroke-linejoin="round" stroke-width="1.73"/></g><g><path d="M113.89,44.36c5.72,8.83,5.97,18.85,.5,22.45-5.47,3.61-14.62-.62-20.34-9.45-5.78-8.83-5.97-18.85-.5-22.45,5.47-3.61,14.55,.62,20.34,9.45Z" fill="#fff" stroke="#424143" stroke-linecap="round" stroke-linejoin="round" stroke-width="1.73"/><path d="M105.56,54.43c.56,2.05-.5,4.1-2.36,4.66-1.87,.5-3.86-.68-4.48-2.74-.56-2.05,.5-4.17,2.36-4.66,1.93-.56,3.92,.68,4.48,2.74" fill="#414142"/></g><g><path d="M66.75,50.76c5.72,8.83,5.16,19.41-1.37,23.63-6.47,4.23-16.42,.56-22.14-8.27-5.78-8.83-5.16-19.41,1.31-23.63,6.53-4.23,16.48-.56,22.2,8.27Z" fill="#fff" stroke="#424143" stroke-linecap="round" stroke-linejoin="round" stroke-width="1.73"/><path d="M58.04,61.27c0,2.11-1.55,3.86-3.55,3.86s-3.55-1.74-3.55-3.86,1.62-3.86,3.55-3.86c1.93,.06,3.55,1.74,3.55,3.86" fill="#414142"/></g><path d="M89.02,70.85c3.36-.44,8.21-2.99,8.83,.87,.06,1.68-3.17,8.4-6.97,8.58-4.04,.25-11.2-4.91-10.95-8.02,.19-3.05,6.1-1.06,9.08-1.43Z" fill="#424143" stroke="#424143" stroke-linecap="round" stroke-linejoin="round" stroke-width="1.73"/><path d="M31.42,44.92s2.05-11.32,12.87-11.32" fill="#faa51f" stroke="#424143" stroke-linecap="round" stroke-linejoin="round" stroke-width="1.73"/><path d="M87.27,94.92c-7.77,3.36-6.72,13-2.43,13.93-2.67,3.36-11.44,2.55-15.49,1.06-14.55-5.41-5.72-19.28-5.72-19.28,0,0,10.88,8.46,31.97,2.61" fill="#b74f6c" stroke="#424143" stroke-linecap="round" stroke-linejoin="round" stroke-width="1.73"/><path d="M64.82,107.42s3.98-2.43,8.71-1.8c3.92,.5,8.83,4.91,8.83,4.91,0,0-9.95,2.36-17.54-3.11Z" fill="#f16680" stroke="#424143" stroke-linecap="round" stroke-linejoin="round" stroke-width="1.73"/></g><g><g><path d="M119.52,95.43c2.65-.68,5.51-.45,8.09,.74,4.39,2.11,10.02,1.05,13.45-2.3,.57-.58,1.53-.29,1.71,.5l4.08,16.16c.07,.3,.02,.63-.18,.87-1.63,2.04-3.93,3.41-6.4,4.04-2.65,.68-5.56,.53-8.01-.69-2.51-1.2-5.36-1.37-8.01-.69s-5.11,2.21-6.7,4.43l-4.72-18.63c1.59-2.22,3.97-3.8,6.7-4.43h0Z" fill="#2db674" stroke="#424143" stroke-linecap="round" stroke-linejoin="round" stroke-width="1.73"/><path d="M123.91,148.37l-12.66-49.74c-.1-.42,.17-.93,.65-1.05h0c.42-.1,.93,.17,1.05,.65l12.66,49.74c.1,.42-.17,.93-.65,1.05h0c-.48,.11-.93-.17-1.05-.65Z" fill="#c3996c" stroke="#424143" stroke-linecap="round" stroke-linejoin="round" stroke-width="1.73"/></g><path d="M124.51,121.98h0c2.8,1.24,4.6,4.6,4.54,8.4v1.62c.06,3.98-2.3,7.53-5.41,8.21-.12,0-.25,.06-.31,.06-5.22,.93-9.27-5.35-7.71-11.76h0c1.24-4.85,5.16-7.65,8.89-6.53h0Z" fill="#faa51f" stroke="#424143" stroke-linecap="round" stroke-linejoin="round" stroke-width="1.73"/></g></g><g><path d="M173.44,175.25l-27.49-26.28s-.04-.05-.04-.09c0-.03,0-.06,.03-.09,.02-.03,.05-.04,.08-.05,.03,0,.06,0,.09,.02l21.82,13.95,5.5,12.53Z" fill="#af5aa3"/><path d="M173.56,175.16l33.62-7.91s.07-.02,.09-.05c.03-.02,.05-.05,.06-.08,.01-.03,.02-.07,.02-.1,0-.04-.01-.07-.03-.1l-21.19-55.31s-.06-.07-.1-.09c-.04-.02-.09-.03-.14-.02-.05,0-.09,.03-.12,.07-.03,.03-.05,.08-.06,.12l-12.42,63.22s0,.07,.01,.11c.01,.03,.03,.07,.06,.09,.03,.02,.06,.04,.1,.05,.04,0,.07,.01,.11,0Z" fill="#a9509f"/><path d="M173.44,175.25l34.02-7.91-64.12-44.9s-.09-.05-.14-.05c-.05,0-.1,.02-.14,.05-.04,.03-.07,.07-.08,.12s0,.1,.01,.14l30.44,52.55Z" fill="#b76bab"/><path d="M198.94,161.37l7.08-43.32h3.59s-2.15,49.29-2.15,49.29l-8.52-5.97Z" fill="#af5aa3"/><path d="M209.61,118.06l6.66,.59-6.88,4.54,.22-5.13Z" fill="#b76bab"/><path d="M185,169.21l-34.94-38.69" fill="none" stroke="#af5aa3" stroke-linecap="round" stroke-miterlimit="10" stroke-width=".87"/></g><g><path d="M224.1,120.86l-11.52-20.47s-.01-.04,0-.06c0-.02,.02-.04,.03-.05,.02-.01,.04-.02,.06-.01,.02,0,.04,.01,.05,.03l10.39,12.16,1,8.39Z" fill="#4172b8"/><path d="M224.18,120.83l21.28,1.37s.04,0,.06-.01c.02,0,.04-.02,.05-.04,.01-.02,.02-.04,.03-.06,0-.02,0-.04,0-.06l-2.58-36.49s-.02-.05-.04-.07c-.02-.02-.05-.03-.08-.03-.03,0-.06,0-.08,.02-.03,.01-.05,.04-.06,.06l-18.7,35.12s-.01,.04-.01,.07c0,.02,0,.04,.02,.06,.01,.02,.03,.04,.05,.05,.02,.01,.04,.02,.06,.02Z" fill="#4172b8"/><path d="M224.1,120.86l21.52,1.44-29.82-38.05s-.04-.04-.07-.05c-.03,0-.06,0-.09,0-.03,.01-.05,.03-.07,.06s-.02,.06-.02,.09l8.54,36.52Z" fill="#618fca"/><path d="M241.66,117.24l11.97-24.32,2.12,.65-10.13,28.74-3.96-5.06Z" fill="#4c7dbf"/><path d="M255.75,93.57l3.83,1.55-4.88,1.44,1.05-2.99Z" fill="#4172b8"/><path d="M232.01,119.37l-13.69-29.14" fill="#4c7dbf" stroke="#4c7dbf" stroke-linecap="round" stroke-miterlimit="10" stroke-width=".54"/></g><g><path d="M213.86,62.01s-5.16-36.9,16.35-45.8c21.17-8.8,39.74,24.11,31.36,27.38l-47.71,18.43Z" fill="#e6b522" fill-rule="evenodd"/><path d="M192.71,54.11s-9.36-3.58-1.01-10.54c5.11-4.28,1.61-13.88,5.38-17.4,4.43-4.13,8.51-.78,12.49-4.28,4.26-3.68,3.28-10.53,10.2-12.38,4.46-1.18,7.2,5.48,16.09,2.46,10.62-3.62,8.46,6.39,12.55,10.48,4.16,4.03,11.54,1.55,12.88,11.38,.86,5.9-1.34,10.62-12.34,13.14-8.27,1.94-56.24,7.13-56.24,7.13Z" fill="#77c045" fill-rule="evenodd"/><path d="M248.1,29.54l-4.51,3.52c-.86,.67-2.05,.5-2.72-.36l-1.34-1.65c-.67-.86-.5-2.05,.36-2.72l4.51-3.52c.86-.67,2.05-.5,2.72,.36l1.33,1.72c.68,.73,.51,1.99-.35,2.65Z" fill="#f36d27" fill-rule="evenodd"/><path d="M241.89,26.75c1.57,1.34,2.99,2.79,4.35,4.25l.79-.61,.72-.55c-1.36-1.45-2.79-2.84-4.42-4.18l-1.43,1.09Z" fill="#db6326" fill-rule="evenodd"/><path d="M240.19,20.44l-2.93-.24c-1.07-.09-1.86-1.02-1.77-2.09l.03-.4c.09-1.07,1.02-1.86,2.09-1.77l2.93,.24c1.07,.09,1.86,1.02,1.77,2.09l-.03,.4c-.09,1.07-1.02,1.86-2.09,1.77Z" fill="#f36d27" fill-rule="evenodd"/><path d="M212.12,22.57c.69-.28,1.38-.49,2.14-.7,12.72-3.85,21.35-.33,27.63,4.94l1.43-1.09c-6.22-5.07-14.75-8.25-27.19-4.57-1.38,.42-2.75,.85-4.01,1.42Z" fill="#68af44" fill-rule="evenodd"/><path d="M196.16,44.74l-.59,3.98c-.15,1.06-1.15,1.78-2.21,1.63l-1.06-.15c-1.06-.15-1.78-1.15-1.63-2.21l.59-3.98c.15-1.06,1.15-1.78,2.21-1.63l1.06,.15c1.06,.15,1.78,1.15,1.63,2.21Z" fill="#f36d27" fill-rule="evenodd"/><path d="M212.6,24.09l-4.03,.14c-1.08,.05-1.94-.83-1.99-1.91l-.05-1.08c-.05-1.08,.83-1.94,1.91-1.99l4.03-.14c1.08-.05,1.94,.83,1.99,1.91l.05,1.08c.05,1.08-.83,1.94-1.91,1.99Z" fill="#f36d27" fill-rule="evenodd"/><path d="M200.9,67.05c-2.84,1.11-5.99-.56-6.75-3.5-2.9-11.3-4.85-34.19,20.11-41.68,31.35-9.44,37.68,25.48,45.99,22.27l-59.34,22.91Z" fill="#ffc810" fill-rule="evenodd"/><path d="M224.32,16.93c.28-.11,.49-.29,.59-.62,.18-.52-.11-1.08-.63-1.26l-6.34-2.06c-.52-.18-1.08,.11-1.26,.63-.18,.52,.11,1.08,.63,1.26l6.34,2.06c.19,.08,.47,.04,.67-.01Z" fill="#ffc810" fill-rule="evenodd"/><path d="M193.98,31.95c.07,0,.14-.06,.14-.06l5.66-3.56c.49-.29,.61-.89,.31-1.38-.29-.49-.89-.61-1.38-.31l-5.72,3.56c-.49,.29-.61,.89-.31,1.38,.37,.37,.83,.54,1.31,.38Z" fill="#ffc810" fill-rule="evenodd"/><path d="M200.64,48.12c1.53-.61,.57-2.9-.88-2.35-1.53,.61-.64,2.9,.88,2.35Z" fill="#e6b522" fill-rule="evenodd"/><path d="M213.46,45.55c1.53-.61,.57-2.9-.88-2.35-1.59,.61-.64,2.96,.88,2.35Z" fill="#e6b522" fill-rule="evenodd"/><path d="M218.62,54.62c1.53-.61,.57-2.9-.88-2.35-1.53,.61-.64,2.96,.88,2.35Z" fill="#e6b522" fill-rule="evenodd"/><path d="M238.86,48.16c1.53-.61,.57-2.9-.88-2.35-1.53,.61-.64,2.9,.88,2.35Z" fill="#e6b522" fill-rule="evenodd"/><path d="M228.65,28.69c1.53-.61,.57-2.9-.88-2.35-1.53,.61-.58,2.97,.88,2.35Z" fill="#e6b522" fill-rule="evenodd"/><path d="M214.2,28.24c1.53-.61,.57-2.9-.88-2.35-1.52,.55-.57,2.9,.88,2.35Z" fill="#e6b522" fill-rule="evenodd"/><path d="M226.61,42.13c1.53-.61,.57-2.9-.88-2.35-1.52,.55-.64,2.9,.88,2.35Z" fill="#e6b522" fill-rule="evenodd"/><path d="M239.89,38.06c1.53-.61,.57-2.9-.88-2.35-1.52,.55-.64,2.9,.88,2.35Z" fill="#e6b522" fill-rule="evenodd"/><path d="M202.01,58.49c1.53-.61,.57-2.9-.88-2.35-1.53,.61-.57,2.9,.88,2.35Z" fill="#edab20" fill-rule="evenodd"/><path d="M204.18,36.88c1.53-.61,.57-2.9-.88-2.35-1.52,.55-.64,2.9,.88,2.35Z" fill="#e6b522" fill-rule="evenodd"/><path d="M180.5,51.64l-14.65,7.79" fill="none" stroke="#58595b" stroke-linecap="round" stroke-linejoin="round" stroke-width="4.01"/><path d="M184.21,61.26l-8.55,4.53" fill="none" stroke="#58595b" stroke-linecap="round" stroke-linejoin="round" stroke-width="4.01"/></g></g></g></svg>