<svg width="19" height="20" viewBox="0 0 19 20" fill="none" xmlns="http://www.w3.org/2000/svg">
<path fill-rule="evenodd" clip-rule="evenodd" d="M8.82051 1.12883V2.1582C8.82051 2.53811 9.10996 2.84565 9.48987 2.84565C9.86978 2.84565 10.1773 2.53811 10.1773 2.1582V1.12883C10.1773 0.748926 9.86978 0.459473 9.48987 0.459473C9.10996 0.459473 8.82051 0.748926 8.82051 1.12883ZM3.12281 3.08264C2.86773 3.35219 2.86773 3.78637 3.12281 4.03965L3.86272 4.78137C3.98936 4.908 4.17026 4.98218 4.35298 4.98218C4.5158 4.98218 4.69671 4.908 4.82153 4.78137C5.09471 4.51182 5.09471 4.07764 4.82153 3.82256L4.09971 3.08264C3.82835 2.80947 3.39236 2.80947 3.12281 3.08264ZM15.8589 4.0391C16.1122 3.78764 16.1122 3.35165 15.8589 3.0821C15.5876 2.81074 15.1516 2.81074 14.9001 3.0821L14.1584 3.82201C13.9051 4.07709 13.9051 4.51127 14.1584 4.78083C14.3031 4.90927 14.4641 4.98163 14.6468 4.98163C14.8097 4.98163 14.9906 4.90927 15.1172 4.78083L15.8589 4.0391ZM18.5 9.44934C18.5 9.82925 18.1906 10.1187 17.8125 10.1187H16.7814C16.4015 10.1187 16.0939 9.82925 16.0939 9.44934C16.0939 9.06944 16.4015 8.76189 16.7814 8.76189H17.8125C18.1906 8.76189 18.5 9.06944 18.5 9.44934ZM4.82244 14.117C5.0938 14.3883 5.0938 14.8044 4.82244 15.0758L4.10062 15.8175C3.95589 15.9441 3.79307 16.0165 3.61035 16.0165C3.42945 16.0165 3.26663 15.9441 3.12371 15.8175C2.86863 15.5461 2.86863 15.1119 3.12371 14.8587L3.86363 14.117C4.13499 13.8456 4.56917 13.8456 4.82244 14.117ZM11.9139 17.3004C12.0966 18.46 11.4254 19.4369 9.48969 19.4369C7.55578 19.4369 6.88461 18.46 7.06552 17.3004C7.11066 17.0476 7.25535 17.0926 7.61807 17.2054C7.98222 17.3187 8.56614 17.5003 9.48969 17.5175C10.4516 17.5175 11.0471 17.3247 11.4081 17.2078C11.7464 17.0982 11.8788 17.0553 11.9139 17.3004ZM2.88799 9.44934C2.88799 9.82925 2.58044 10.1187 2.21863 10.1187H1.16936C0.807544 10.1187 0.5 9.82925 0.5 9.44934C0.5 9.06944 0.807544 8.76189 1.16936 8.76189H2.21863C2.58044 8.76189 2.88799 9.06944 2.88799 9.44934ZM14.5021 8.76207C14.6269 10.1189 14.2307 11.3852 13.4709 12.3422C13.3081 12.5551 13.1588 12.7295 13.0251 12.8855C12.5783 13.4072 12.3071 13.7239 12.2932 14.5873C12.2932 15.1662 12.0038 15.6366 11.5334 15.8537H11.5171C10.2327 16.4869 8.74742 16.4688 7.46297 15.8537C7.0107 15.6366 6.72125 15.1662 6.72125 14.6597C6.72125 13.7589 6.44527 13.442 5.99087 12.9202L5.99086 12.9202C5.85205 12.7608 5.69659 12.5823 5.52726 12.3621C4.85971 11.5119 4.4599 10.4264 4.4599 9.26861C4.4599 6.28363 7.04869 3.93182 10.088 4.27555C12.4036 4.54691 14.285 6.44645 14.5021 8.76207ZM15.8589 15.8177C16.1122 15.5463 16.1122 15.1121 15.8589 14.8589L15.1172 14.1171C14.8621 13.844 14.4297 13.844 14.1584 14.1171C13.9051 14.3885 13.9051 14.8046 14.1584 15.0759L14.9001 15.8177C15.0249 15.9443 15.2077 16.0167 15.3687 16.0167C15.5514 16.0167 15.7323 15.9443 15.8589 15.8177Z" fill="#FFBF00"/>
</svg>
