<?xml version="1.0" encoding="UTF-8"?>
<svg width="20px" height="20px" viewBox="0 0 20 20" version="1.1" xmlns="http://www.w3.org/2000/svg" xmlns:xlink="http://www.w3.org/1999/xlink">
    <!-- Generator: Sketch 52.5 (67469) - http://www.bohemiancoding.com/sketch -->
    <title>Resources/Educator Guide</title>
    <desc>Created with Sketch.</desc>
    <defs>
        <path d="M13.4619231,12.25 L17.4426923,12.25 L10.8657692,19 L10.8657692,15.0192308 C10.8657692,13.4615385 12.0773077,12.25 13.4619231,12.25 Z M15.0196154,1 C16.4042308,1 17.6157692,2.21153846 17.6157692,3.59615385 L17.6157692,10.8653846 L13.635,10.8653846 C11.385,10.8653846 9.65423077,12.7692308 9.65423077,14.8461538 L9.65423077,18.8269231 L4.98115385,18.8269231 C3.59653846,18.8269231 2.385,17.6153846 2.385,16.2307692 L2.385,3.59615385 C2.385,2.21153846 3.59653846,1 4.98115385,1 L15.0196154,1 Z M8.78884615,9.82692308 C9.48115385,9.82692308 10.0003846,9.48076923 10.0003846,8.78846154 C10.0003846,8.09615385 9.48115385,7.75 8.96192308,7.75 L6.01961538,7.75 C5.50038462,7.75 4.98115385,8.26923077 4.98115385,8.78846154 C4.98115385,9.30769231 5.50038462,9.82692308 6.01961538,9.82692308 L8.78884615,9.82692308 Z M14.1542308,5.84615385 C14.6734615,5.84615385 15.0196154,5.32692308 15.1926923,4.80769231 C15.1926923,4.28846154 14.6734615,3.76923077 14.1542308,3.76923077 L6.01961538,3.76923077 C5.50038462,3.76923077 4.98115385,4.28846154 4.98115385,4.80769231 C4.98115385,5.32692308 5.32730769,5.84615385 6.01961538,5.84615385 L14.1542308,5.84615385 Z" id="path-1"></path>
    </defs>
    <g id="Resources/Educator-Guide" stroke="none" stroke-width="1" fill="none" fill-rule="evenodd">
        <mask id="mask-2" fill="white">
            <use xlink:href="#path-1"></use>
        </mask>
        <use id="Educator-Guides" fill="#575E75" xlink:href="#path-1"></use>
        <g id="Color/Gray" mask="url(#mask-2)" fill="#575E75">
            <rect id="Color" x="0" y="0" width="20" height="20"></rect>
        </g>
    </g>
</svg>