<?xml version="1.0" encoding="UTF-8"?>
<svg width="454px" height="253px" viewBox="0 0 454 253" version="1.1" xmlns="http://www.w3.org/2000/svg" xmlns:xlink="http://www.w3.org/1999/xlink">
    <!-- Generator: Sketch 52.5 (67469) - http://www.bohemiancoding.com/sketch -->
    <title>Image</title>
    <desc>Created with Sketch.</desc>
    <defs>
        <rect id="path-1" x="0" y="0" width="340" height="190" rx="8"></rect>
    </defs>
    <g id="Page-1" stroke="none" stroke-width="1" fill="none" fill-rule="evenodd">
        <g id="V3-Ideas-Page" transform="translate(-143.000000, -564.000000)">
            <g id="Getting-Started" transform="translate(143.000000, 564.000000)">
                <g id="Image">
                    <path d="M341.245259,72.8586065 C353.568394,96.3404444 317.371686,107.520989 367.426483,108.787726 C417.481281,110.054464 429.802676,123.667794 421.717631,144.01458 C413.632585,164.361365 314.675511,139.824763 319.681077,165.405438 C324.686644,190.986113 401.31032,169.241561 394.764579,210.481796 C388.218838,251.722032 300.428028,205.516346 239.549951,236.469189 C178.671874,267.422032 64,251.814148 64,215.224396 C64,178.634644 124.07893,194.109602 124.07893,175.376967 C124.07893,156.644331 64,173.643549 64,140.293484 C64,106.943419 164.893551,138.747097 164.893551,114.337031 C164.893551,89.9269644 89.4250063,111.579615 89.4250063,81.6276918 C89.4250063,51.6757687 151.417025,70.076419 154.882418,55.6219135 C158.34781,41.1674081 134.475107,48.1856765 139.865718,27.5322122 C148.941954,-7.24227735 349.329434,-13.530715 302.739159,34.7953444 C275.386993,63.1665527 328.922124,49.3767686 341.245259,72.8586065 Z M31.2116468,186.972618 C56.989414,193.492924 31.2116468,240.93831 9.73017408,224.594785 C-11.7512986,208.25126 5.43387954,180.452312 31.2116468,186.972618 Z M43.5974453,152.576835 C61.4913207,157.135498 59.9088548,184.344089 39.5887841,178.063915 C19.2687135,171.783741 25.7035699,148.018172 43.5974453,152.576835 Z M424.597445,194.576835 C442.491321,199.135498 440.908855,226.344089 420.588784,220.063915 C400.268713,213.783741 406.70357,190.018172 424.597445,194.576835 Z M335.579711,16.3268956 C362.361548,-10.0336354 457.456476,3.01682136 453.903,30.8995228 C450.349524,58.7822243 414.372652,32.8144954 412.431939,50.0510297 C410.491226,67.2875641 435.33235,52.1742096 435.33235,70.8678588 C435.33235,89.561508 364.690403,96.7973429 364.690403,72.6532069 C364.690403,59.3027825 378.275393,60.5259021 382.544961,57.6014041 C386.814529,54.6769061 392.208589,42.5934868 371.616776,42.8704011 C340.625564,43.2871642 319.373315,32.278348 335.579711,16.3268956 Z" id="Combined-Shape-Copy" fill-opacity="0.5" fill="#4D97FF"></path>
                    <g transform="translate(68.000000, 31.000000)">
                        <mask id="mask-2" fill="white">
                            <use xlink:href="#path-1"></use>
                        </mask>
                        <use id="Rectangle" fill="#4D97FF" xlink:href="#path-1"></use>
                        <g id="GettingStarted" mask="url(#mask-2)">
                            <g transform="translate(-54.000000, -3.000000)">
                                <rect id="Rectangle" stroke="none" fill="#54C4E9" x="47.6136662" y="0.335766423" width="357.146518" height="196.26764"></rect>
                                <path d="M375.686597,28.1265207 C362.674113,28.0705596 297.890933,27.9586375 284.878449,27.9586375 C284.040736,27.9586375 283.147175,28.406326 282.421156,28.9099757 C281.527595,29.5815085 280.745729,30.4768856 279.963863,31.2603406 C279.181997,32.0437956 278.232589,32.4355231 277.05979,32.4355231 C275.049277,32.379562 273.038765,32.4914842 271.028252,32.323601 C270.246386,32.2676399 269.352825,31.8759124 268.682654,31.3722628 C267.844941,30.756691 267.17477,29.8613139 266.392904,29.13382 C265.666886,28.406326 264.829172,27.8467153 263.768068,27.8467153 C262.427727,27.8467153 261.087385,27.7907543 259.747043,27.8467153 C258.239159,27.9026764 257.233903,28.8540146 257.233903,30.4209246 C257.178055,37.8077859 257.122208,45.1386861 257.122208,52.5255474 C257.122208,54.0924574 258.183311,55.0997567 259.691196,55.1557178 C260.919842,55.1557178 262.148489,55.2116788 263.432983,55.1557178 C264.549934,55.0997567 265.443495,55.4914842 266.225361,56.2749392 C267.063075,57.1143552 267.844941,58.0097324 268.79435,58.6812652 C269.46452,59.1849148 270.413929,59.5206813 271.251643,59.6326034 C273.094612,59.8004866 274.99343,59.6885645 276.892247,59.6885645 C277.953351,59.7445255 278.846912,59.3527981 279.628778,58.6253041 C280.410644,57.8978102 281.19251,57.1143552 281.918528,56.3868613 C282.700394,55.6034063 283.649803,55.2116788 284.822602,55.2116788 C291.245072,55.2676399 297.72339,55.2676399 304.145861,55.323601 C310.680026,55.379562 368.984888,55.379562 375.519054,55.4355231 C377.362024,55.4355231 378.423127,54.4282238 378.423127,52.5815085 C378.478975,45.3625304 378.478975,38.1995134 378.534823,30.9805353 C378.478975,29.13382 377.529566,28.1824818 375.686597,28.1265207 Z" id="Path" stroke="#FFFFFF" stroke-width="1.25" fill="#ABD9E8" opacity="0.52"></path>
                                <path d="M186.586728,47.7688564 C186.586728,44.1873479 185.302234,42.9002433 181.672142,42.9002433 C169.664915,42.9002433 157.713535,42.9562044 145.706307,42.9562044 C144.924442,42.9562044 144.03088,42.5085158 143.304862,42.0608273 C140.847569,40.4939173 138.557819,38.5912409 135.98883,37.1922141 C122.920499,30.2530414 108.90276,28.5182482 94.3823916,31.2043796 C85.0558476,32.9391727 76.4553219,36.4647202 69.1392904,42.676399 C68.6366623,43.1240876 68.1340342,43.9075426 68.1340342,44.5231144 C68.0781866,55.6593674 68.1340342,66.8515815 68.1898817,77.9878345 C68.1898817,80.2822384 69.7536137,81.7931873 72.043364,81.8491484 C73.4954008,81.9051095 75.0032852,82.0170316 76.4553219,81.7931873 C78.8009198,81.513382 80.4204993,82.5206813 81.9842313,84.0875912 C86.8429698,89.0121655 85.6143233,88.1167883 91.7575558,88.0608273 C99.4645204,88.0048662 97.4540079,89.0681265 103.15046,83.5279805 C103.262155,83.4160584 103.37385,83.3600973 103.429698,83.2481752 C104.490802,82.1849148 105.719448,81.7372263 107.227332,81.7931873 C119.68134,81.7931873 132.135348,81.7372263 144.589356,81.7372263 C157.043364,81.7372263 169.497372,81.6812652 181.95138,81.6253041 C185.358081,81.6253041 186.698423,80.2822384 186.698423,76.8686131 C186.642576,67.1313869 186.642576,57.4501217 186.586728,47.7688564 Z" id="Path" stroke="#FFFFFF" stroke-width="1.25" fill="#ABD9E8" opacity="0.4"></path>
                                <g id="Group" opacity="0.8" stroke="none" stroke-width="1" fill="none" transform="translate(185.972405, 89.739659)">
                                    <ellipse id="Oval" fill="#FFF09F" opacity="0.3" cx="76.1202365" cy="71.2944039" rx="76.064389" ry="71.2944039"></ellipse>
                                    <ellipse id="Oval" fill="#FFF09F" opacity="0.42" cx="76.1202365" cy="71.2944039" rx="60.8738502" ry="57.080292"></ellipse>
                                    <ellipse id="Oval" fill="#FFF09F" cx="76.1202365" cy="71.2944039" rx="45.9625493" ry="43.0900243"></ellipse>
                                </g>
                                <path d="M261.980946,175.472019 L144.980289,175.472019 L183.626807,111.22871 C191.389619,98.3017032 210.43364,97.8540146 218.754928,110.445255 L261.980946,175.472019 Z" id="Path" stroke="none" fill="#00A18B"></path>
                                <g id="Group" stroke="none" stroke-width="1" fill="none" transform="translate(244.612352, 23.705596)">
                                    <path d="M127.332457,78.4574209 C127.332457,78.4574209 130.515769,78.4574209 128.840342,70.8467153 C127.164915,63.2360097 111.63929,28.0364964 111.63929,28.0364964 L103.206307,32.2895377 L108.288436,73.8126521 L127.332457,78.4574209 Z" id="Shape_561_" fill="#FAB414"></path>
                                    <path d="M99.3528252,170.457421 L180.164258,170.457421 C180.164258,167.379562 116.665572,30.3309002 114.934297,27.9805353 L99.2969777,38.6131387 L99.2969777,170.457421 L99.3528252,170.457421 Z" id="Shape_560_" fill="#00A18B"></path>
                                    <path d="M103.15046,33.3527981 L78.9684625,26.3017032 C77.5164258,30.8905109 0.390932983,170.009732 0.279237845,170.457421 L127.109067,170.457421 L103.15046,33.3527981 Z" id="Shape_559_" fill="#0FB887"></path>
                                    <path d="M125.377792,45.1046229 C123.199737,38.7810219 108.846912,11.4720195 106.501314,6.6593674 C102.424442,-1.67883212 91.3666229,-2.35036496 86.1169514,6.99513382 C80.4204993,17.0681265 74.1655716,27.7007299 58.3607096,60.3260341 C58.3607096,60.3260341 57.8022339,61.5571776 58.8633377,63.1800487 C59.3659658,63.9075426 60.7063075,64.4111922 61.8791064,63.3479319 C69.3068331,56.5766423 71.1498029,53.8905109 73.4954008,54.8978102 C77.1254928,55.7931873 76.3436268,62.3965937 76.7345598,65.5863747 C77.1254928,68.8321168 82.2634691,72.6934307 84.6649146,63.5158151 C85.4467806,60.5498783 85.2233903,57.1922141 86.4520368,55.5693431 C89.2444152,51.8199513 93.4888305,52.379562 94.5499343,57.080292 C95.2201051,59.9343066 97.2306176,69.4476886 101.419185,64.9148418 C104.546649,59.2068127 99.9113009,52.7153285 103.485545,47.56691 C107.618265,41.5790754 110.578187,49.4695864 112.644547,52.6034063 C113.817346,54.3381995 116.218791,58.9829684 120.909987,56.9124088 C126.829829,54.8978102 126.103811,47.1751825 125.377792,45.1046229 Z" id="Path" fill="#4C92FF"></path>
                                </g>
                                <g id="Group" stroke="none" stroke-width="1" fill="none" transform="translate(0.000000, 60.080292)">
                                    <path d="M98.347569,48.7980535 L103.59724,20.5377129 L94.8291721,17.6277372 C94.8291721,17.6277372 78.6892247,41.5790754 76.9021025,46.783455 C75.1708279,51.9878345 78.4658344,51.9878345 78.4658344,51.9878345 L98.347569,48.7980535 Z" id="Shape_558_" fill="#FAB414"></path>
                                    <path d="M107.618265,24.9026764 L94.8291721,17.6836983 C93.0420499,19.3065693 0.390932983,135.985401 0.390932983,138.055961 L112.086071,138.055961 L107.618265,24.9026764 Z" id="Shape_557_" fill="#00A18B"></path>
                                    <path d="M49.8160315,138 L229.868594,137.384428 C229.756899,137.048662 130.404074,19.5863747 128.896189,16.5085158 L105.496058,21.3211679 L49.8160315,138 Z" id="Shape_556_" fill="#0FB887"></path>
                                    <path d="M82.8219448,29.323601 C85.1116951,25.0145985 103.15046,6.2676399 106.557162,3.13381995 C110.634034,-0.615571776 115.269382,-0.503649635 119.067017,3.35766423 C125.712878,10.0729927 133.810775,17.459854 150.285808,39.676399 C150.285808,39.676399 152.296321,45.1605839 146.655716,41.7469586 C136.435611,35.5912409 136.659001,32.1776156 132.470434,33.6326034 C130.013141,35.4233577 132.470434,41.6909976 133.028909,42.9781022 C133.866623,45.1046229 134.034166,47.56691 130.739159,48.2944039 C126.662286,49.189781 124.651774,47.2311436 123.646518,44.8248175 C122.362024,41.6909976 124.372536,37.9416058 121.07753,35.5912409 C117.782523,33.2408759 113.761498,34.1922141 112.644547,37.3819951 C111.918528,39.2846715 110.187254,45.3844282 105.496058,42.6982968 C100.916557,40.1240876 107.05979,33.2408759 103.37385,29.7153285 C99.0735874,25.6301703 95.9461235,32.1776156 93.8239159,34.3041363 C92.651117,35.4793187 90.1379763,38.6131387 85.1675427,37.2141119 C79.0243101,35.9829684 82.0959264,30.7226277 82.8219448,29.323601 Z" id="Path" fill="#D7EEF3"></path>
                                </g>
                                <path d="M72.043364,199.703163 C72.043364,199.703163 80.588042,180.060827 110.522339,172.841849 C110.522339,172.841849 133.587385,168.868613 170.167543,181.79562 C199.319974,192.092457 213.058476,165.902676 213.058476,165.902676 C213.058476,165.902676 229.589356,138.985401 271.419185,145.309002 C271.419185,145.309002 254.329829,174.800487 278.120894,172.394161 C295.321945,170.603406 285.492773,192.092457 285.492773,192.092457 L72.043364,199.703163 Z" id="Path" stroke="none" fill="#CA63CA"></path>
                                <path d="M225.233246,194.218978 L285.54862,193.715328 C285.54862,193.715328 295.377792,170.547445 278.176741,172.3382 C254.385677,174.800487 272.536137,144.077859 272.536137,144.077859 C249.303548,140.608273 232.660972,148.386861 223.669514,155.270073 C209.037451,166.406326 217.805519,170.099757 217.805519,170.099757 C230.87385,174.96837 207.697109,181.291971 207.697109,181.291971 C202.1682,182.523114 201.609724,187.279805 202.335742,189.014599 C204.290407,193.883212 210.545335,194.274939 215.739159,194.554745 L225.233246,194.218978 Z" id="Path" stroke="none" fill="#C44FC4"></path>
                                <g id="Group" stroke="none" stroke-width="1" fill="none" transform="translate(80.978975, 42.172749)">
                                    <g>
                                        <g id="sam-b">
                                            <g id="soccer_3_">
                                                <g id="sam-b_3_">
                                                    <g id="scratch_footie_player_boy02_3_">
                                                        <path d="M9.49408673,33.3527981 C9.82917214,32.8491484 9.82917214,32.2335766 9.82917214,31.6739659 C10.2201051,31.2822384 13.1241787,31.8418491 13.6826544,32.0097324 C13.5151117,33.1289538 13.2917214,34.2481752 12.6773982,35.1435523 C12.2306176,35.1435523 11.5604468,34.5279805 11.1695138,34.3041363 C10.5551905,33.9683698 9.99671485,33.6885645 9.49408673,33.3527981 Z" id="Shape_555_" fill="#A0640A"></path>
                                                        <path d="M9.38239159,33.0170316 C9.32654402,33.1289538 9.10315375,33.5206813 9.04730618,33.6326034 C8.60052562,34.3041363 7.98620237,34.7518248 7.2043364,35.0316302 C5.86399474,35.4793187 4.18856767,34.9756691 3.07161629,34.1922141 L2.90407359,34.4720195 C2.73653088,34.4720195 2.28975033,34.080292 2.12220762,34.3041363 L2.23390276,34.5279805 C2.45729304,34.4720195 2.68068331,34.5839416 2.84822602,34.7518248 L2.79237845,34.919708 C2.62483574,34.9756691 2.12220762,34.6399027 1.95466491,34.863747 C1.95466491,35.1995134 2.5131406,35.1435523 2.73653088,35.1435523 L2.68068331,35.4233577 C2.62483574,35.4233577 1.95466491,35.2554745 1.78712221,35.3114355 L1.78712221,35.4793187 L1.95466491,35.5352798 C2.17805519,35.4793187 2.40144547,35.5352798 2.56898817,35.6472019 L2.5131406,35.9270073 C2.28975033,36.0389294 2.12220762,35.8150852 1.89881735,35.8710462 C1.84296978,36.1508516 2.17805519,36.1508516 2.3455979,36.2068127 C2.3455979,36.3746959 2.23390276,36.486618 2.3455979,36.5985401 L2.5131406,36.5425791 C2.62483574,36.2627737 2.62483574,35.9829684 2.84822602,35.703163 C3.79763469,36.3187348 4.74704336,35.9829684 5.80814717,36.3746959 C6.42247043,36.6545012 9.38239159,33.0170316 9.38239159,33.0170316 Z" id="Shape_554_" fill="#000000"></path>
                                                        <path d="M20.5519054,30.5547445 L16.7542707,30.7226277 C17.2568988,31.729927 18.4855453,33.9683698 18.4855453,33.9683698 C18.4855453,33.9683698 20.5519054,33.9683698 21.3337714,33.6326034 C21.2779238,33.3527981 20.8311432,31.5060827 20.5519054,30.5547445 Z" id="Shape_553_" fill="#A0640A"></path>
                                                        <path d="M23.3442838,40.7396594 L21.6130092,33.5206813 L17.8712221,33.6885645 C18.3180026,34.5279805 18.7089356,35.3114355 18.8206307,35.5352798 C19.6024967,37.3819951 21.6130092,41.1313869 21.6688568,41.1873479 C21.6688568,41.3552311 21.6688568,41.9148418 21.892247,41.9708029 L22.0597898,41.9148418 C22.0039422,41.6909976 22.0039422,41.1313869 22.0039422,41.1313869 L22.4507227,41.0754258 L22.5065703,41.8029197 C22.5624179,41.8588808 22.674113,41.8588808 22.7299606,41.8029197 C22.7299606,41.8029197 22.6182654,41.2992701 22.7299606,41.0754258 C23.065046,41.0754258 23.2325887,41.0194647 23.2325887,41.0754258 C23.2884363,41.1313869 23.3442838,42.026764 23.6235217,41.6909976 C23.5676741,41.4671533 23.4001314,41.243309 23.5118265,41.0194647 C23.6793693,41.0194647 23.846912,41.0194647 23.9027595,41.1313869 C23.9586071,41.243309 24.0144547,41.6350365 24.1261498,41.6909976 C24.1819974,41.6350365 24.2378449,41.6350365 24.2378449,41.6350365 L24.0703022,41.0194647 C24.2378449,41.0194647 24.4053876,40.9635036 24.5729304,40.9635036 C24.5729304,40.9635036 24.5729304,40.8515815 24.5170828,40.7956204 C24.2936925,40.7396594 23.5118265,40.7396594 23.3442838,40.7396594 Z" id="Shape_552_" fill="#000000"></path>
                                                        <path d="M20.607753,28.5961071 C20.607753,28.5961071 20.8311432,27.4209246 18.3738502,27.1970803 C15.9724047,27.0291971 14.9113009,28.3722628 14.9113009,28.3722628 L20.9428384,40.7396594 L23.2884363,39.676399 L20.607753,28.5961071 Z" id="Shape_551_" fill="#2E89B3"></path>
                                                        <path d="M21.0545335,30.5547445 L20.1051248,26.3017032 L10.2201051,24.8467153 L9.60578187,28.0924574 C9.66162943,28.0364964 20.7194481,30.4987835 21.0545335,30.5547445 Z" id="Shape_550_" fill="#2E89B3"></path>
                                                        <path d="M20.7194481,9.96107056 C20.7194481,9.96107056 22.5065703,10.3527981 22.9533509,8.67396594 C23.3442838,6.99513382 20.9428384,7.55474453 20.6636005,8.39416058 C20.4960578,8.78588808 20.7194481,9.96107056 20.7194481,9.96107056 Z" id="Shape_549_" fill="#824600"></path>
                                                        <path d="M21.2220762,3.97323601 C21.0545335,3.8053528 18.3180026,3.30170316 18.3180026,3.30170316 L12.4540079,6.88321168 C12.6215506,7.55474453 12.8449409,8.22627737 13.1241787,8.89781022 C13.9060447,10.5206813 15.1905388,12.3114355 16.4750329,12.6472019 C17.1452037,12.8150852 19.7700394,12.9829684 21.0545335,11.5279805 C21.7805519,10.6885645 22.5065703,9.00973236 22.3948752,7.16301703 C22.2273325,5.81995134 21.3896189,4.19708029 21.2220762,3.97323601 Z" id="Shape_548_" fill="#A0640A"></path>
                                                        <path d="M11.6162943,3.02189781 L11.7838371,2.90997567 C11.5045992,2.18248175 10.7785808,1.00729927 12.0072273,0.727493917 C12.7332457,0.559610706 13.8501971,1.28710462 14.129435,1.95863747 C14.2411301,2.01459854 14.2411301,2.01459854 14.3528252,1.9026764 C14.2411301,1.34306569 13.9618922,0.671532847 14.4086728,0.223844282 C15.7490145,-0.615571776 16.5308804,1.28710462 17.368594,2.07055961 L17.5361367,2.01459854 C17.6478318,1.39902676 17.2010512,0.559610706 18.0946124,0.447688564 C18.7089356,0.391727494 18.9881735,0.9513382 19.3232589,1.34306569 C20.1051248,2.23844282 21.2220762,3.97323601 21.2220762,3.97323601 C21.2220762,3.97323601 21.2779238,5.03649635 19.6583443,5.42822384 C18.8764783,5.59610706 17.4244415,4.86861314 15.3580815,5.76399027 C13.2358739,6.71532847 13.4592641,9.56934307 13.4592641,9.56934307 C13.4592641,9.56934307 10.9461235,5.37226277 10.6668857,4.756691 C10.4434954,4.30900243 9.77332457,2.96593674 10.2759527,2.57420925 C10.6110381,2.23844282 11.2812089,2.79805353 11.6162943,3.02189781 Z" id="Shape_547_" fill="#000000"></path>
                                                        <path d="M13.8501971,10.0729927 C13.8501971,10.0729927 12.1189225,10.6326034 11.5045992,8.95377129 C10.9461235,7.27493917 13.4034166,7.66666667 13.7943495,8.50608273 C13.9618922,8.89781022 13.8501971,10.0729927 13.8501971,10.0729927 Z" id="Shape_546_" fill="#A0640A"></path>
                                                        <path d="M17.1452037,9.513382 C18.0946124,9.56934307 18.9323259,9.84914842 19.7700394,10.1849148 C19.434954,11.6399027 16.3633377,10.8564477 17.1452037,9.513382 Z" id="Shape_545_" fill="#000000"></path>
                                                        <path d="M18.7647832,8.95377129 C18.2063075,8.05839416 20.1609724,7.10705596 20.4402102,8.50608273 C20.7194481,9.513382 19.434954,9.1216545 18.7647832,8.95377129 Z" id="Shape_544_" fill="#824600"></path>
                                                        <path d="M17.0335085,8.11435523 L16.9218134,8.45012165 L16.6984231,8.45012165 C16.6425756,8.05839416 16.8659658,7.49878345 17.0335085,8.11435523 Z" id="Shape_543_" fill="#000000"></path>
                                                        <path d="M21.6688568,8.67396594 L21.5013141,8.67396594 L21.3896189,8.22627737 C21.5013141,8.11435523 21.5013141,8.11435523 21.6130092,8.11435523 C21.7247043,8.28223844 21.7247043,8.50608273 21.6688568,8.67396594 Z" id="Shape_542_" fill="#000000"></path>
                                                        <path d="M31.9448095,18.4671533 C31.7772668,18.2992701 32.8383706,17.7396594 32.782523,17.5717762 C32.7266754,17.4038929 31.7214192,18.0754258 31.5538765,17.9075426 C31.3863338,17.7396594 32.4474376,17.2360097 32.39159,17.1240876 C32.3357424,17.0121655 31.9448095,17.2919708 31.1070959,17.5717762 C30.8278581,17.6836983 30.1576873,17.9635036 29.7667543,18.0194647 C29.3199737,18.1313869 28.8173456,18.1873479 28.3147175,18.1313869 C28.3147175,18.1313869 25.8015769,17.7956204 25.0755585,17.6277372 C24.6287779,17.5158151 23.1208936,16.7883212 21.8363995,16.3406326 L22.0039422,20.2019465 C23.2325887,20.4257908 26.1366623,20.9294404 28.761498,20.3698297 C30.8837057,19.9221411 32.8942181,18.4111922 32.9500657,18.243309 C33.1176084,17.7396594 32.1681997,18.5790754 31.9448095,18.4671533 Z" id="Shape_541_" fill="#A0640A"></path>
                                                        <path d="M18.7647832,14.6618005 C18.7647832,14.6618005 16.2516426,13.5425791 15.413929,15.836983 C14.6320631,18.1313869 18.653088,19.6982968 18.653088,19.6982968 C25.2431012,21.8248175 28.761498,20.2579075 28.761498,20.2579075 C28.761498,20.2579075 28.3147175,18.1313869 28.3147175,18.0754258 C28.0913272,17.9635036 18.7647832,14.6618005 18.7647832,14.6618005 Z" id="Shape_540_" fill="#BE0A3C"></path>
                                                        <path d="M30.1576873,18.5790754 C29.6550591,18.5790754 29.4875164,18.0194647 29.4875164,18.0194647 C29.4875164,18.0194647 30.7720105,16.676399 30.9395532,16.7883212 C31.1070959,16.9002433 30.8278581,17.2360097 30.6603154,17.6277372 C31.2746386,18.0754258 30.7161629,18.5790754 30.1576873,18.5790754 Z" id="Shape_388_" fill="#824600"></path>
                                                        <path d="M3.239159,24.3990268 C2.56898817,24.2311436 3.40670171,21.4890511 3.51839685,21.2652068 C3.63009198,21.4890511 3.51839685,24.2311436 3.239159,24.3990268 Z" id="Shape_387_" fill="#824600"></path>
                                                        <path d="M5.91984231,14.5498783 C4.80289093,15.2773723 3.90932983,16.2287105 3.239159,17.3479319 C1.95466491,19.4744526 0.279237845,24.3430657 0.446780552,24.56691 C0.614323259,24.7907543 0.893561104,23.3917275 1.28449409,23.5036496 C1.67542707,23.6155718 0.949408673,24.9586375 1.17279895,25.1265207 C1.39618922,25.2944039 1.95466491,23.6155718 2.12220762,23.7274939 C2.28975033,23.8394161 1.73127464,25.0145985 1.84296978,25.0705596 C1.95466491,25.1265207 3.74178712,21.6009732 4.80289093,20.2579075 C5.30551905,19.6423358 6.25492773,18.4111922 6.92509855,17.9075426 C7.76281209,17.2919708 9.04730618,16.8442822 10.10841,17.0121655 L10.6668857,13.0948905 C9.60578187,13.0948905 6.86925099,13.9343066 5.91984231,14.5498783 Z" id="Shape_385_" fill="#A0640A"></path>
                                                        <path d="M12.2306176,12.8150852 C3.68593955,12.1435523 1.95466491,19.026764 1.95466491,19.026764 L4.30026281,21.2652068 C4.30026281,21.2652068 7.09264126,14.9416058 13.2358739,18.1313869 C13.2358739,18.1313869 16.0840999,19.3065693 17.6478318,17.4038929 C19.2115637,15.5012165 17.5919842,13.7664234 17.5919842,13.7664234 C17.5919842,13.7104623 14.5762155,12.8710462 12.2306176,12.8150852 Z" id="Shape_384_" fill="#F01446"></path>
                                                    </g>
                                                </g>
                                            </g>
                                        </g>
                                        <path d="M12.7890933,26.3576642 C10.10841,25.8540146 9.66162943,28.0364964 9.66162943,28.0364964 L8.60052562,33.0170316 C7.48357424,36.0948905 4.52365309,34.6399027 4.52365309,34.6399027 L3.90932983,36.3746959 C7.42772668,37.6618005 9.49408673,37.3819951 9.49408673,37.3819951 C12.3423127,37.4379562 13.6826544,32.9051095 13.6826544,32.9051095 L14.9671485,29.2676399 C14.9113009,29.2676399 15.413929,26.8613139 12.7890933,26.3576642 Z" id="Path" fill="#2E89B3"></path>
                                        <path d="M21.3337714,19.0827251 C21.2779238,16.4525547 19.5466491,13.3187348 16.586728,13.7104623 C15.6373193,13.8223844 14.4086728,14.1581509 13.6268068,14.7737226 C13.5151117,14.8296837 12.0630749,16.676399 11.8396846,17.1800487 C10.7227332,19.6982968 8.8239159,25.8540146 8.8239159,25.8540146 L20.3843627,26.3576642 C20.3843627,26.4136253 21.3337714,20.4257908 21.3337714,19.0827251 Z" id="Shape_383_" fill="#F01446"></path>
                                    </g>
                                    <g transform="translate(30.716163, 2.798054)" id="Path">
                                        <path d="M1.39618922,2.18248175 C2.56898817,1.45498783 3.9651774,1.00729927 5.36136662,1.00729927 C7.09264126,1.00729927 8.76806833,1.62287105 10.10841,2.68613139 C11.1695138,3.58150852 12.565703,4.02919708 13.9618922,4.02919708 C15.3580815,4.02919708 16.6984231,3.52554745 17.8153745,2.68613139 C18.0387648,2.51824818 18.3180026,2.4622871 18.5413929,2.57420925 C18.7647832,2.68613139 18.9323259,2.90997567 18.9323259,3.18978102 L18.9323259,12.6472019 C18.9323259,12.8150852 18.8206307,13.0389294 18.7089356,13.1508516 C17.368594,14.2141119 15.6931669,14.8296837 13.9618922,14.8296837 C12.2306176,14.8296837 10.5551905,14.2141119 9.21484888,13.1508516 C8.15374507,12.2554745 6.75755585,11.7518248 5.36136662,11.7518248 C4.07687254,11.7518248 2.40144547,12.5352798 1.39618922,13.3187348 L1.39618922,2.01459854" fill="#4CBF56"></path>
                                        <path d="M1.17279895,25.2384428 L0.670170828,25.2384428 C0.502628121,25.2384428 0.390932983,25.1265207 0.390932983,24.9586375 L0.390932983,0.671532847 C0.390932983,0.503649635 0.502628121,0.391727494 0.670170828,0.391727494 L1.17279895,0.391727494 C1.34034166,0.391727494 1.45203679,0.503649635 1.45203679,0.671532847 L1.45203679,24.9586375 C1.39618922,25.1265207 1.28449409,25.2384428 1.17279895,25.2384428 Z" stroke="#45993D" stroke-width="1.25" fill="#45993D" stroke-linecap="round" stroke-linejoin="round"></path>
                                    </g>
                                    <path d="M30.8278581,17.5717762 C30.8278581,17.5717762 30.7720105,17.5158151 30.7720105,17.5158151 C31.0512484,16.9002433 31.4980289,16.3406326 31.2187911,16.1167883 C30.9954008,15.9489051 28.9290407,18.0754258 28.9290407,18.0754258 C28.9290407,18.0754258 29.152431,18.9148418 29.9901445,18.9148418 C30.2693824,18.9148418 30.6044678,18.8029197 30.8278581,18.6350365 L30.8278581,17.5717762 Z" id="Path" fill="#824600"></path>
                                </g>
                                <path d="M340.893561,119.007299 C340.893561,119.007299 339.553219,118.671533 338.268725,116.209246 C338.268725,116.209246 337.877792,114.978102 337.263469,114.86618 C336.816689,114.810219 336.481603,115.257908 336.369908,115.537713 L333.354139,124.491484 C333.298292,124.547445 333.298292,124.659367 333.242444,124.77129 C333.074901,124.547445 332.907359,124.379562 332.683968,124.155718 C331.343627,122.868613 329.612352,122.476886 328.662943,123.540146 C327.657687,124.603406 327.992773,126.450122 329.333114,127.737226 C330.673456,129.024331 332.572273,129.192214 333.521682,128.128954 C333.745072,127.849148 333.912615,127.569343 333.968463,127.289538 C333.968463,127.289538 333.968463,127.289538 333.968463,127.289538 L336.760841,118.223844 C337.040079,119.119221 337.654402,120.294404 338.994744,120.574209 C338.994744,120.574209 340.837714,120.909976 341.563732,120.406326 C341.61958,120.406326 342.736531,119.56691 340.893561,119.007299 Z" id="Path" stroke="none" fill="#0B8969"></path>
                                <path d="M335.699737,101.883212 C335.699737,101.883212 334.359396,102.163017 332.069645,100.652068 C332.069645,100.652068 331.176084,99.756691 330.561761,99.9245742 C330.170828,100.092457 330.059133,100.596107 330.11498,100.931873 L331.567017,110.221411 C331.567017,110.333333 331.622865,110.389294 331.622865,110.501217 C331.399474,110.389294 331.120237,110.277372 330.840999,110.221411 C329.053876,109.717762 327.378449,110.16545 326.987516,111.564477 C326.596583,112.963504 327.713535,114.474453 329.500657,114.978102 C331.287779,115.481752 333.019054,114.754258 333.409987,113.355231 C333.521682,113.019465 333.521682,112.683698 333.409987,112.403893 C333.409987,112.403893 333.409987,112.403893 333.409987,112.347932 L331.73456,103.058394 C332.404731,103.729927 333.465834,104.457421 334.806176,104.121655 C334.806176,104.121655 336.593298,103.618005 336.984231,102.778589 C336.984231,102.778589 337.598555,101.547445 335.699737,101.883212 Z" id="Path" stroke="none" fill="#0B8969"></path>
                                <g id="toucan-c" stroke="none" stroke-width="1" fill="none" transform="translate(291.524310, 128.352798)">
                                    <g id="jungle_3_">
                                        <g id="toucan-c_3_">
                                            <g id="Group-39_3_" transform="translate(42.444152, 24.902676) scale(-1, 1) translate(-42.444152, -24.902676) ">
                                                <g id="Group-4_3_" transform="translate(39.032923, 6.881003)">
                                                    <path d="M2.62483574,5.20437956 C1.22864652,6.37956204 1.28449409,10.8564477 1.28449409,10.8564477 L1.11695138,16.620438 C1.11695138,17.2360097 1.84296978,17.5158151 2.23390276,17.0681265 C1.95466491,19.4744526 1.56373193,22.0486618 1.28449409,23.5596107 C1.22864652,23.9513382 1.67542707,24.1751825 1.95466491,23.8953771 C2.23390276,23.6155718 2.68068331,23.8394161 2.68068331,24.1751825 C2.62483574,25.5742092 2.28975033,27.3090024 2.01051248,28.540146 C1.89881735,29.0997567 2.5131406,29.5474453 3.01576873,29.2116788 C3.74178712,28.7639903 4.30026281,28.4841849 4.13272011,28.4282238 C3.01576873,31.0583942 1.78712221,32.9051095 0.949408673,33.9683698 C0.670170828,34.3041363 1.06110381,34.7518248 1.45203679,34.5839416 C1.50788436,34.5279805 1.56373193,34.5279805 1.6195795,34.4720195 C2.06636005,34.2481752 2.40144547,34.8077859 2.06636005,35.1435523 C1.56373193,35.5912409 1.00525624,36.0948905 0.502628121,36.5425791 C-0.055847569,37.0462287 0.502628121,37.9416058 1.17279895,37.6058394 C18.8206307,29.6593674 19.7700394,23.2238443 20.21682,21.8807786 C20.5519054,20.9854015 19.434954,17.0681265 19.434954,17.0681265 L14.5762155,0.447688564" id="Fill-1_3_" fill="#34538C"></path>
                                                    <path d="M2.62483574,5.20437956 C1.22864652,6.37956204 1.28449409,10.8564477 1.28449409,10.8564477 L1.11695138,16.620438 C1.11695138,17.2360097 1.84296978,17.5158151 2.23390276,17.0681265 C1.95466491,19.4744526 1.56373193,22.0486618 1.28449409,23.5596107 C1.22864652,23.9513382 1.67542707,24.1751825 1.95466491,23.8953771 C2.23390276,23.6155718 2.68068331,23.8394161 2.68068331,24.1751825 C2.62483574,25.5742092 2.28975033,27.3090024 2.01051248,28.540146 C1.89881735,29.0997567 2.5131406,29.5474453 3.01576873,29.2116788 C3.74178712,28.7639903 4.30026281,28.4841849 4.13272011,28.4282238 C3.01576873,31.0583942 1.78712221,32.9051095 0.949408673,33.9683698 C0.670170828,34.3041363 1.06110381,34.7518248 1.45203679,34.5839416 C1.50788436,34.5279805 1.56373193,34.5279805 1.6195795,34.4720195 C2.06636005,34.2481752 2.40144547,34.8077859 2.06636005,35.1435523 C1.56373193,35.5912409 1.00525624,36.0948905 0.502628121,36.5425791 C-0.055847569,37.0462287 0.502628121,37.9416058 1.17279895,37.6058394 C18.8206307,29.6593674 19.7700394,23.2238443 20.21682,21.8807786 C20.5519054,20.9854015 19.434954,17.0681265 19.434954,17.0681265 L14.5762155,0.447688564" id="Stroke-3_3_" stroke="#5A7C96" stroke-width="0.625" stroke-linecap="round" stroke-linejoin="round"></path>
                                                </g>
                                                <path d="M52.217477,33.7445255 C52.217477,33.7445255 52.5525624,33.5206813 53.0551905,33.1289538 C53.3344284,32.9051095 53.6136662,32.6812652 53.9487516,32.3454988 C54.2838371,32.0097324 54.5630749,31.6180049 54.8981603,31.1703163 C55.1773982,30.7226277 55.456636,30.163017 55.5683311,29.5474453 C55.6800263,28.9318735 55.6241787,28.2603406 55.456636,27.6447689 C55.456636,27.5888078 55.4007884,27.4768856 55.4007884,27.4209246 L55.2890933,27.1970803 C55.2332457,27.0291971 55.1773982,26.8613139 55.065703,26.6934307 C54.8981603,26.3576642 54.7306176,26.0218978 54.5630749,25.7420925 C54.3955322,25.406326 54.2279895,25.0705596 54.0604468,24.7347932 C53.8929041,24.3990268 53.6695138,24.0632603 53.5019711,23.7274939 C53.1110381,23.0559611 52.7201051,22.4403893 52.3291721,21.7688564 C51.9382392,21.1532847 51.5473062,20.4817518 51.2122208,19.9221411 C50.4303548,18.6909976 49.760184,17.5717762 49.1458607,16.620438 C48.5315375,15.6690998 48.0289093,14.8296837 47.6938239,14.270073 C47.3587385,13.7104623 47.1353482,13.3746959 47.1353482,13.3746959 C47.1353482,13.3746959 47.3587385,13.6545012 47.8055191,14.2141119 C48.196452,14.7177616 48.8107753,15.5012165 49.4809461,16.3965937 C49.8160315,16.8442822 50.2069645,17.3479319 50.5420499,17.9075426 C50.9329829,18.4671533 51.3239159,19.026764 51.7148489,19.5863747 C52.1057819,20.2019465 52.4967148,20.8175182 52.8876478,21.43309 C53.2785808,22.0486618 53.6695138,22.7201946 54.0604468,23.3917275 C54.2279895,23.7274939 54.4513798,24.0632603 54.6189225,24.3990268 C54.7864652,24.7347932 54.9540079,25.0705596 55.1215506,25.406326 C55.2890933,25.7420925 55.456636,26.0778589 55.6241787,26.4136253 C55.6800263,26.5815085 55.7358739,26.7493917 55.7917214,26.9172749 L55.9034166,27.1970803 C55.9592641,27.3090024 55.9592641,27.3649635 56.0151117,27.4768856 C56.238502,28.2043796 56.238502,28.9878345 56.0709593,29.6593674 C55.9034166,30.3309002 55.6241787,30.8905109 55.2332457,31.3941606 C54.8981603,31.8978102 54.5072273,32.2335766 54.1721419,32.5693431 C53.8370565,32.8491484 53.5019711,33.1289538 53.2227332,33.296837 C52.9434954,33.4647202 52.7201051,33.6326034 52.5525624,33.6885645 C52.3291721,33.6885645 52.217477,33.7445255 52.217477,33.7445255" id="Fill-5_3_" fill="#2A4372"></path>
                                                <path d="M84.218134,12.1435523 C82.9894875,12.5912409 81.4816032,12.3673966 81.4816032,12.3673966 C72.6018397,9.513382 61.7674113,9.513382 61.7674113,9.513382 C61.7674113,9.513382 58.0814717,8.05839416 55.1215506,11.6958637 C54.1162943,12.9270073 47.9730618,20.0900243 40.9362681,21.5450122 C28.8173456,24.2311436 19.1557162,15.9489051 14.8554534,11.0243309 C14.8554534,11.0243309 13.2358739,11.5839416 11.3929041,12.0875912 C8.43298292,12.9270073 5.64060447,13.486618 5.36136662,12.5912409 C4.91458607,11.1922141 5.69645204,10.8004866 5.69645204,10.8004866 C5.69645204,10.8004866 0.390932983,9.68126521 0.390932983,8.89781022 C0.390932983,8.1703163 2.40144547,7.66666667 4.97043364,7.89051095 C6.98094612,8.05839416 16.5308804,8.84184915 16.5308804,8.84184915 C27.7003942,8.84184915 35.5190539,7.44282238 35.5190539,7.44282238 C46.9678055,7.05109489 47.4145861,6.09975669 48.5315375,5.26034063 C49.8160315,4.25304136 50.5420499,1.17518248 55.456636,0.559610706 C70.3679369,-1.11922141 80.4763469,6.21167883 82.7660972,8.5620438" id="Fill-7_3_" fill="#365997"></path>
                                                <path d="M54.5072273,4.25304136 C54.5072273,4.25304136 54.0045992,4.19708029 57.1320631,5.87591241 C58.3607096,6.54744526 59.9802891,7.83454988 61.544021,9.45742092 C61.544021,9.45742092 58.5840999,9.40145985 54.3955322,12.1995134 C53.0551905,13.0948905 49.369251,18.8588808 43.0026281,20.8175182 C36.021682,22.9440389 31.7772668,21.43309 31.7772668,21.43309 C33.3409987,21.4890511 39.3725361,21.7688564 46.3534823,17.1800487 C49.2575558,15.2214112 52.217477,12.703163 52.5525624,9.56934307 C53.0551905,4.64476886 54.5072273,4.25304136 54.5072273,4.25304136" id="Fill-9_3_" fill="#FAF1E8"></path>
                                                <path d="M61.7115637,9.45742092 C64.78318,9.06569343 78.7450723,11.136253 81.369908,12.3114355 C82.3751643,12.7591241 84.2739816,12.4793187 84.2739816,11.919708 C84.2739816,10.2408759 83.5479632,9.23357664 82.7102497,8.39416058 C72.6576873,-0.335766423 60.4270696,0.223844282 60.4270696,0.223844282 C60.4270696,0.223844282 60.1478318,0.615571776 59.9802891,1.34306569 C59.7568988,2.07055961 60.0919842,4.47688564 59.9244415,5.42822384 C59.7568988,6.6593674 58.6399474,6.82725061 58.6399474,6.82725061 L61.7115637,9.45742092 Z" id="Fill-11_3_" fill="#FFA364"></path>
                                                <path d="M61.7115637,9.45742092 C72.2109067,9.45742092 81.760841,12.3114355 81.760841,12.3114355 C75.673456,8.45012165 58.7516426,6.93917275 58.7516426,6.93917275 C58.7516426,6.93917275 58.8633377,7.72262774 59.7010512,8.33819951 C60.1478318,8.72992701 61.7115637,9.45742092 61.7115637,9.45742092" id="Fill-13_3_" fill="#FF5855"></path>
                                                <path d="M84.218134,11.9756691 C84.1064389,13.0948905 80.8672799,12.3114355 79.303548,11.5839416 C79.2477004,11.5839416 73.5512484,9.28953771 73.7746386,6.32360097 C74.1655716,4.53284672 77.2371879,4.70072993 79.9737188,6.21167883 C85.1116951,9.17761557 84.218134,11.9756691 84.218134,11.9756691 Z" id="Fill-15_3_" fill="#E35855"></path>
                                                <path d="M81.4816032,12.3114355 C72.6018397,9.45742092 61.7674113,9.45742092 61.7674113,9.45742092 C61.7674113,9.45742092 56.8528252,9.00973236 51.826544,14.9975669 C50.7654402,16.2287105 45.348226,21.5450122 37.5295664,21.9367397 C23.3442838,22.1605839 14.9671485,10.8564477 14.9671485,10.8564477 C12.7890933,11.6958637 6.3107753,13.4306569 5.52890933,12.5352798 C4.97043364,11.863747 5.75229961,10.6326034 5.75229961,10.6326034 C5.75229961,10.6326034 0.446780552,9.513382 0.446780552,8.72992701 C0.446780552,7.38686131 4.91458607,7.6107056 7.42772668,7.94647202 C9.77332457,8.28223844 13.9618922,8.5620438 13.9618922,8.5620438 C26.5275953,9.34549878 33.173456,7.38686131 35.5190539,7.27493917 C38.0321945,7.10705596 45.348226,6.99513382 47.2470434,5.98783455 C49.4250986,5.26034063 49.9835742,0.9513382 55.4007884,0.391727494 C70.3120894,-1.28710462 80.4204993,6.04379562 82.7102497,8.39416058 C83.9388962,9.62530414 84.4415243,10.5766423 84.3298292,11.6399027 C84.218134,13.2627737 81.4816032,12.3114355 81.4816032,12.3114355 Z" id="Stroke-17_3_" stroke="#5A7C96" stroke-width="0.625"></path>
                                                <path d="M59.9244415,1.9026764 C59.8127464,2.90997567 60.1478318,4.14111922 59.9802891,5.37226277 C59.7568988,6.6593674 58.5840999,6.82725061 58.5840999,6.82725061 C56.9645204,6.2676399 53.6136662,4.86861314 54.0045992,2.57420925 C54.4513798,0.335766423 59.9244415,1.9026764 59.9244415,1.9026764" id="Fill-19_3_" fill="#FFD5A3"></path>
                                                <path d="M61.8232589,9.45742092 C60.0919842,8.89781022 59.3101183,8.05839416 58.9191853,7.49878345 C58.7516426,7.2189781 58.8074901,6.82725061 59.086728,6.71532847 C60.2036794,6.15571776 60.0361367,4.25304136 59.9244415,2.63017032 C59.7568988,0.839416058 60.4829172,0.167883212 60.4829172,0.167883212" id="Stroke-21_3_" stroke="#5A7C96" stroke-width="0.625" stroke-linecap="round"></path>
                                                <path d="M56.1268068,3.35766423 C56.0151117,4.02919708 56.4060447,4.64476886 57.0762155,4.756691 C57.6905388,4.86861314 58.304862,4.42092457 58.4724047,3.8053528 C58.5840999,3.13381995 58.1931669,2.51824818 57.5229961,2.40632603 C56.8528252,2.29440389 56.238502,2.74209246 56.1268068,3.35766423" id="Fill-27_3_" fill="#3A486F"></path>
                                                <path d="M56.629435,3.46958637 C56.5735874,3.86131387 56.7969777,4.25304136 57.2437582,4.3649635 C57.6346912,4.42092457 58.0256242,4.19708029 58.1373193,3.74939173 C58.1931669,3.35766423 57.9697766,2.96593674 57.5229961,2.8540146 C57.1320631,2.79805353 56.7411301,3.07785888 56.629435,3.46958637" id="Fill-29_3_" fill="#495AA9"></path>
                                                <path d="M56.9086728,3.52554745 C56.8528252,3.8053528 57.0203679,4.02919708 57.2996058,4.08515815 C57.5788436,4.14111922 57.8022339,3.97323601 57.8580815,3.69343066 C57.913929,3.4136253 57.7463863,3.18978102 57.4671485,3.13381995 C57.1879106,3.07785888 56.9645204,3.24574209 56.9086728,3.52554745" id="Fill-31_3_" fill="#1E223D"></path>
                                                <path d="M14.7996058,10.9124088 C14.7996058,10.9124088 14.6320631,10.5766423 14.4645204,10.2408759 C14.3528252,10.0729927 14.2969777,9.90510949 14.2411301,9.73722628 C14.1852825,9.62530414 14.129435,9.513382 14.129435,9.513382 C14.129435,9.513382 14.1852825,9.56934307 14.2411301,9.73722628 C14.2969777,9.84914842 14.4086728,10.0170316 14.5203679,10.1849148 C14.7437582,10.5206813 14.9671485,10.8004866 14.9671485,10.8004866 L14.7996058,10.9124088 Z" id="Fill-33_3_" fill="#5A7C96"></path>
                                                <g id="Group-38_3_" transform="translate(9.565244, 10.485337)">
                                                    <path d="M21.3896189,0.839416058 C19.434954,1.67883212 16.977661,6.99513382 16.977661,6.99513382 L13.4034166,14.1021898 C13.1241787,14.6618005 13.738502,15.1654501 14.2411301,14.8856448 L14.3528252,14.8296837 C12.6773982,17.6836983 10.7785808,20.649635 9.717477,22.2725061 C9.49408673,22.6082725 9.88501971,23.0559611 10.2201051,22.8321168 C10.5551905,22.6642336 10.9461235,23 10.7785808,23.3917275 C9.88501971,25.2384428 8.43298292,27.3090024 7.37187911,28.7639903 C7.03679369,29.2116788 7.48357424,29.8272506 8.04204993,29.7153285 C9.04730618,29.4355231 9.77332457,29.379562 9.66162943,29.2676399 C7.31603154,31.7858881 5.30551905,33.3527981 3.90932983,34.3041363 C3.40670171,34.6399027 3.68593955,35.4793187 4.30026281,35.3673966 C4.30026281,35.3673966 4.30026281,35.3673966 4.30026281,35.3673966 C4.74704336,35.3114355 4.91458607,35.9270073 4.52365309,36.1508516 C3.239159,36.7664234 1.78712221,37.3819951 0.502628121,37.9416058 C-0.111695138,38.2214112 0.111695138,39.1727494 0.781865966,39.0608273 C22.4507227,37.1021898 27.086071,29.6034063 28.3147175,28.2043796 C29.152431,27.2530414 30.32523,22.1046229 30.32523,22.1046229 L35.1839685,0.223844282" id="Fill-35_3_" fill="#365997"></path>
                                                    <path d="M21.3896189,0.839416058 C19.434954,1.67883212 16.977661,6.99513382 16.977661,6.99513382 L13.4034166,14.1021898 C13.1241787,14.6618005 13.738502,15.1654501 14.2411301,14.8856448 L14.3528252,14.8296837 C12.6773982,17.6836983 10.7785808,20.649635 9.717477,22.2725061 C9.49408673,22.6082725 9.88501971,23.0559611 10.2201051,22.8321168 C10.5551905,22.6642336 10.9461235,23 10.7785808,23.3917275 C9.88501971,25.2384428 8.43298292,27.3090024 7.37187911,28.7639903 C7.03679369,29.2116788 7.48357424,29.8272506 8.04204993,29.7153285 C9.04730618,29.4355231 9.77332457,29.379562 9.66162943,29.2676399 C7.31603154,31.7858881 5.30551905,33.3527981 3.90932983,34.3041363 C3.40670171,34.6399027 3.68593955,35.4793187 4.30026281,35.3673966 C4.30026281,35.3673966 4.30026281,35.3673966 4.30026281,35.3673966 C4.74704336,35.3114355 4.91458607,35.9270073 4.52365309,36.1508516 C3.239159,36.7664234 1.78712221,37.3819951 0.502628121,37.9416058 C-0.111695138,38.2214112 0.111695138,39.1727494 0.781865966,39.0608273 C22.4507227,37.1021898 27.086071,29.6034063 28.3147175,28.2043796 C29.152431,27.2530414 30.32523,22.1046229 30.32523,22.1046229 L35.1839685,0.223844282" id="Stroke-37_3_" stroke="#5A7C96" stroke-width="0.625" stroke-linecap="round"></path>
                                                </g>
                                            </g>
                                        </g>
                                    </g>
                                </g>
                                <ellipse id="Oval" stroke="none" fill="#6685A4" transform="translate(366.982412, 35.918467) rotate(-45.000000) translate(-366.982412, -35.918467) " cx="366.982412" cy="35.9184674" rx="14.1436576" ry="3.18654871"></ellipse>
                                <path d="M356.977661,45.9221411 L377.641261,61.9829684 C378.59067,62.9343066 382.835085,60.3041363 387.023653,56.0510949 C391.268068,51.7980535 393.892904,47.6009732 392.943495,46.649635 L376.915243,25.9440389 C378.14389,27.1751825 374.737188,32.7153285 369.208279,38.2554745 C363.679369,43.7956204 358.262155,47.1532847 356.977661,45.9221411 Z" id="Path" stroke="none" fill="#779CAD"></path>
                                <path d="M363.958607,40.3819951 C362.171485,40.3819951 360.496058,40.7177616 358.820631,41.3892944 C357.201051,42.0608273 355.581472,43.0681265 354.296978,44.4671533 C353.012484,45.810219 351.895532,47.4890511 351.225361,49.2238443 C350.499343,50.9586375 350.10841,52.8053528 349.829172,54.6520681 C349.494087,56.7226277 350.946124,58.6253041 353.012484,58.9610706 C355.078844,59.296837 356.977661,57.8418491 357.312746,55.7712895 C357.368594,55.4355231 357.368594,55.0437956 357.312746,54.7080292 L357.312746,54.6520681 C357.145204,53.3649635 357.033509,52.0778589 357.145204,50.9026764 C357.201051,49.6715328 357.591984,48.4963504 358.15046,47.377129 C359.211564,45.1946472 361.613009,43.2919708 364.237845,42.4525547 L364.405388,42.3965937 C364.963863,42.2287105 365.243101,41.6131387 365.075558,41.053528 C364.852168,40.6618005 364.405388,40.3260341 363.958607,40.3819951 Z" id="Path" stroke="none" fill="#4280D2"></path>
                                <path d="M390.039422,42.7323601 C390.039422,42.7323601 388.084757,46.8175182 380.545335,48.5523114 C370.269382,50.9026764 367.756242,40.3260341 359.211564,46.2579075 L360.049277,48.2725061 L377.641261,61.9270073 L392.999343,46.5377129 L390.039422,42.7323601 Z" id="Path" stroke="none" fill="#779CAD"></path>
                                <path d="M376.580158,38.3114355 C376.189225,37.6958637 367.421156,23.3698297 361.389619,23.3138686 C361.389619,23.3138686 361.389619,23.3138686 361.389619,23.3138686 C359.770039,23.3138686 358.708936,23.8175182 358.206307,24.8807786 C356.53088,28.1824818 361.668857,35.4574209 362.227332,36.296837 C362.227332,36.296837 362.227332,36.296837 362.227332,36.296837 C362.394875,36.0729927 362.729961,35.7372263 362.953351,35.4574209 C362.953351,35.4574209 362.953351,35.4574209 362.953351,35.4574209 C361.501314,33.3868613 357.982917,27.6788321 359.155716,25.3844282 C359.490802,24.7688564 360.21682,24.43309 361.333771,24.43309 C361.333771,24.43309 361.333771,24.43309 361.333771,24.43309 C365.801577,24.43309 373.117608,34.8418491 375.574901,38.8710462 C375.686597,39.0389294 375.854139,39.1508516 376.07753,39.1508516 C376.189225,39.1508516 376.30092,39.1508516 376.356767,39.0948905 C376.636005,38.9270073 376.7477,38.5912409 376.580158,38.3114355 Z" id="Path" stroke="none" fill="#607B98"></path>
                                <path d="M358.429698,46.1459854 C358.429698,46.1459854 361.668857,45.0827251 365.801577,41.3892944 L367.365309,39.9902676 C367.365309,39.9902676 362.897503,39.2068127 356.977661,42.3406326 C356.977661,42.2846715 358.038765,45.9781022 358.429698,46.1459854 Z" id="Path" stroke="none" fill="#4280D2"></path>
                                <g id="Group" stroke="none" stroke-width="1" fill="none" transform="translate(245.729304, 81.905109)">
                                    <path d="M15.804862,49.0218978 C14.1852825,50.756691 13.2358739,53.163017 13.2917214,55.7372263 L13.2917214,55.9610706 C13.2917214,55.9610706 13.347569,56.0170316 13.2917214,56.0170316 C13.347569,56.4647202 13.347569,58.4793187 11.3370565,60.6618005 C10.499343,61.5571776 9.38239159,62.4525547 7.70696452,63.2919708 C7.48357424,63.4038929 7.26018397,63.5717762 7.14848883,63.6836983 C4.63534823,66.3698297 19.7700394,72.0218978 28.9290407,62.1727494 C29.0407359,62.0048662 29.2082786,61.892944 29.3199737,61.7250608 L29.7109067,61.2773723 L29.6550591,61.2214112 C31.0512484,59.5425791 31.8889619,57.3600973 31.8331143,55.0656934 C31.6655716,49.9172749 27.3653088,45.8880779 22.1714849,46.0559611 C19.7141919,46.1678832 17.4244415,47.2871046 15.804862,49.0218978 Z" id="Path" fill="#DBB680"></path>
                                    <path d="M3.68593955,0.615571776 C-0.726018397,2.18248175 2.62483574,23.1678832 7.26018397,36.3187348 C9.60578187,42.9781022 12.0072273,46.5036496 14.1852825,48.0145985 C15.5814717,46.5596107 17.1452037,45.1605839 19.1557162,44.4890511 C21.1662286,43.7615572 23.1208936,43.9294404 25.131406,44.377129 C25.913272,41.8029197 25.6340342,37.3260341 23.2884363,30.6666667 C18.653088,17.459854 8.15374507,-0.9513382 3.68593955,0.615571776 Z" id="Path" stroke="#E14D00" stroke-width="1.875" fill="#FF661A"></path>
                                    <path d="M22.674113,47.1751825 C27.086071,47.1751825 30.7161629,50.6447689 30.8837057,55.1216545 C30.9395532,57.080292 30.2693824,58.9829684 28.9848883,60.5498783 L28.3147175,61.3892944 C28.3147175,61.3892944 28.2588699,61.4452555 28.2588699,61.4452555 C24.0144547,65.9781022 18.7089356,66.7055961 15.9165572,66.7055961 C11.2812089,66.7055961 8.60052562,65.0827251 8.15374507,64.4671533 C8.20959264,64.4111922 8.26544021,64.4111922 8.32128778,64.3552311 C9.94086728,63.5158151 11.2253614,62.5644769 12.2306176,61.5012165 C14.3528252,59.2068127 14.5203679,56.9683698 14.4645204,56.1849148 C14.4645204,56.0729927 14.4645204,55.9610706 14.4645204,55.8491484 L14.4645204,55.7931873 C14.4086728,53.6107056 15.1905388,51.4841849 16.6425756,49.9172749 C18.1504599,48.2944039 20.1609724,47.3990268 22.3390276,47.2871046 C22.4507227,47.1751825 22.5624179,47.1751825 22.674113,47.1751825 Z M22.674113,46.0559611 C22.5624179,46.0559611 22.4507227,46.0559611 22.3390276,46.0559611 C19.7700394,46.1678832 17.4802891,47.2871046 15.8607096,49.0218978 C14.2411301,50.756691 13.2917214,53.163017 13.347569,55.7372263 L13.347569,55.9610706 C13.347569,55.9610706 13.4034166,56.0170316 13.347569,56.0170316 C13.4034166,56.4647202 13.4034166,58.4793187 11.3929041,60.6618005 C10.5551905,61.5571776 9.43823916,62.4525547 7.76281209,63.2919708 C7.53942181,63.4038929 7.31603154,63.5717762 7.2043364,63.6836983 C5.75229961,65.2506083 10.1642576,67.7688564 15.8607096,67.7688564 C20.1051248,67.7688564 25.131406,66.3698297 28.9848883,62.1727494 C29.0965834,62.0048662 29.2641261,61.892944 29.3758213,61.7250608 L29.7667543,61.2773723 L29.7109067,61.2214112 C31.1070959,59.5425791 31.9448095,57.3600973 31.8889619,55.0656934 C31.7772668,49.973236 27.6445466,46.0559611 22.674113,46.0559611 Z" id="Shape" fill="#987249" fill-rule="nonzero"></path>
                                    <g transform="translate(5.584757, 56.520681)">
                                        <path d="M9.99671485,11.080292 C4.80289093,11.080292 0.893561104,9.23357664 0.614323259,8.00243309 C0.55847569,7.66666667 0.726018397,7.33090024 1.28449409,7.10705596 C4.97043364,5.14841849 6.98094612,3.02189781 7.70696452,1.39902676 C7.87450723,1.84671533 8.26544021,2.23844282 9.10315375,2.23844282 C9.27069645,2.23844282 9.43823916,2.23844282 9.66162943,2.18248175 L9.88501971,2.12652068 C10.9461235,1.95863747 12.6773982,1.62287105 14.2969777,1.62287105 C16.6984231,1.62287105 17.8712221,2.29440389 17.8712221,3.74939173 C17.8712221,5.65206813 18.7089356,7.10705596 20.3285151,8.11435523 C16.6984231,10.5206813 12.7332457,11.080292 9.99671485,11.080292 Z" id="Path" fill="#B82DB8"></path>
                                        <path d="M14.2411301,1.84671533 C17.5361367,1.84671533 17.5361367,3.24574209 17.5361367,3.69343066 C17.5361367,5.54014599 18.3180026,7.05109489 19.7700394,8.05839416 C16.3633377,10.3527981 12.6215506,10.8004866 9.99671485,10.8004866 C4.80289093,10.8004866 1.11695138,8.95377129 0.893561104,7.89051095 C0.837713535,7.66666667 1.00525624,7.49878345 1.39618922,7.27493917 C4.8587385,5.48418491 6.81340342,3.52554745 7.70696452,1.9026764 C7.98620237,2.23844282 8.37713535,2.4622871 9.10315375,2.4622871 C9.27069645,2.4622871 9.49408673,2.4622871 9.717477,2.40632603 L9.94086728,2.35036496 C10.9461235,2.18248175 12.6773982,1.84671533 14.2411301,1.84671533 Z M7.76281209,0.279805353 C7.53942181,1.73479319 5.86399474,4.3649635 1.17279895,6.82725061 C-1.73127464,8.33819951 3.46254928,11.3600973 10.0525624,11.3600973 C13.5709593,11.3600973 17.5361367,10.4647202 20.8311432,8.00243309 C20.6636005,7.83454988 18.2063075,6.93917275 18.1504599,3.69343066 C18.1504599,1.84671533 16.3074901,1.34306569 14.2969777,1.34306569 C12.565703,1.34306569 10.6668857,1.73479319 9.66162943,1.9026764 C9.49408673,1.95863747 9.32654402,1.95863747 9.15900131,1.95863747 C7.76281209,1.9026764 7.87450723,0.727493917 7.76281209,0.279805353 Z" id="Shape" fill="#7E1670" fill-rule="nonzero"></path>
                                    </g>
                                    <g transform="translate(0.000000, 54.282238)">
                                        <path d="M3.85348226,6.09975669 C2.90407359,6.09975669 2.17805519,5.7080292 1.78712221,5.37226277 C0.837713535,4.47688564 0.55847569,2.96593674 1.17279895,2.01459854 C1.6195795,1.23114355 2.28975033,0.839416058 3.01576873,0.839416058 C3.85348226,0.839416058 4.57950066,1.34306569 4.6911958,2.01459854 C4.97043364,3.8053528 6.478318,3.97323601 7.31603154,4.02919708 C7.42772668,4.02919708 7.53942181,4.02919708 7.65111695,4.08515815 C7.65111695,4.08515815 7.65111695,4.08515815 7.65111695,4.08515815 C6.14323259,5.7080292 4.74704336,6.09975669 3.85348226,6.09975669 Z" id="Path" fill="#B82DB8"></path>
                                        <path d="M3.01576873,1.06326034 C3.74178712,1.06326034 4.35611038,1.56690998 4.41195795,2.01459854 C4.6911958,3.86131387 6.14323259,4.14111922 7.03679369,4.25304136 C5.80814717,5.54014599 4.63534823,5.81995134 3.85348226,5.81995134 C2.95992116,5.81995134 2.28975033,5.48418491 1.95466491,5.14841849 C1.06110381,4.3649635 0.837713535,3.02189781 1.39618922,2.12652068 C1.89881735,1.28710462 2.56898817,1.06326034 3.01576873,1.06326034 Z M3.01576873,0.503649635 C2.28975033,0.503649635 1.50788436,0.895377129 0.893561104,1.84671533 C0.167542707,3.02189781 0.55847569,4.64476886 1.56373193,5.59610706 C2.01051248,6.04379562 2.84822602,6.37956204 3.79763469,6.37956204 C4.97043364,6.37956204 6.42247043,5.81995134 7.76281209,4.25304136 C8.65637319,3.18978102 5.36136662,4.58880779 4.91458607,1.95863747 C4.8587385,1.17518248 3.9651774,0.503649635 3.01576873,0.503649635 Z" id="Shape" fill="#7E1670" fill-rule="nonzero"></path>
                                    </g>
                                </g>
                            </g>
                        </g>
                    </g>
                </g>
            </g>
        </g>
    </g>
</svg>