<svg width="24" height="19" viewBox="0 0 24 19" fill="none" xmlns="http://www.w3.org/2000/svg">
<path fill-rule="evenodd" clip-rule="evenodd" d="M0.558139 10.7977L7.83016 18.2108C8.42768 18.7845 9.26604 18.9379 9.9863 18.6192C10.7066 18.3028 11.1512 17.604 11.1512 16.7943L11.1512 13.9825L21.2718 12.5494C22.8212 12.344 24 10.97 24 9.35284C24 9.21355 23.9907 9.0719 23.9745 8.93261C23.7499 7.4736 22.6336 6.34747 21.2603 6.17041L11.1512 4.6996L11.1512 2.01058C11.1512 1.19137 10.6788 0.461858 9.94924 0.152587C9.21509 -0.156686 8.4022 0.0109341 7.83016 0.594066L0.558139 8.00716C0.199169 8.37545 -8.6648e-07 8.87123 -8.20042e-07 9.40242C-7.73604e-07 9.93361 0.199169 10.4294 0.558139 10.7977Z" fill="#4C97FF"/>
</svg>
