<?xml version="1.0" encoding="UTF-8"?><svg id="Layer_2" xmlns="http://www.w3.org/2000/svg" viewBox="0 0 203.56 103.11"><g id="Layer_1-2"><g id="Makey_Board"><path d="M203.56,90.88v-3.15h0v-.48h0v-1.94h0V1.09h0v-.24c0-.48-.48-.85-.97-.85H.97C.61,0,.24,.48,.12,.85H.12V84.82H.12v2.06H.12v3.64H.12v11.03c0,.61,.48,.97,.97,.97H101.78c0-.12,59.86-.12,59.86-.12h40.71c.61,0,.97-.48,.97-.97l.24-10.66h0v.12Zm-11.03,8.36c-1.58,0-2.79-1.21-2.79-2.79s1.21-2.79,2.79-2.79,2.79,1.21,2.79,2.79-1.21,2.79-2.79,2.79Zm-7.39,0c-1.58,0-2.79-1.21-2.79-2.79s1.21-2.79,2.79-2.79,2.79,1.21,2.79,2.79-1.33,2.79-2.79,2.79Zm-96.93-.85c-1.58,0-2.79-1.21-2.79-2.79s1.21-2.79,2.79-2.79,2.79,1.21,2.79,2.79-1.21,2.79-2.79,2.79Zm-7.39,0c-1.58,0-2.79-1.21-2.79-2.79s1.21-2.79,2.79-2.79,2.79,1.21,2.79,2.79-1.21,2.79-2.79,2.79Zm-27.38,0c-1.58,0-2.79-1.21-2.79-2.79s1.21-2.79,2.79-2.79,2.79,1.21,2.79,2.79-1.21,2.79-2.79,2.79Zm-7.39,0c-1.58,0-2.79-1.21-2.79-2.79s1.21-2.79,2.79-2.79,2.79,1.21,2.79,2.79-1.21,2.79-2.79,2.79Zm-27.38,.97c-1.58,0-2.79-1.21-2.79-2.79s1.21-2.79,2.79-2.79,2.79,1.21,2.79,2.79-1.21,2.79-2.79,2.79Zm-7.39,0c-1.58,0-2.79-1.21-2.79-2.79s1.21-2.79,2.79-2.79,2.79,1.21,2.79,2.79-1.21,2.79-2.79,2.79ZM125.89,33.68c1.58,0,2.79,1.21,2.79,2.79s-1.21,2.79-2.79,2.79-2.79-1.21-2.79-2.79,1.21-2.79,2.79-2.79Zm0,7.39c1.58,0,2.79,1.21,2.79,2.79s-1.21,2.79-2.79,2.79-2.79-1.21-2.79-2.79,1.33-2.79,2.79-2.79Zm0-16.72c-1.58,0-2.79-1.21-2.79-2.79s1.21-2.79,2.79-2.79,2.79,1.21,2.79,2.79-1.21,2.79-2.79,2.79Zm36.96,22.17c-1.58,0-2.79-1.21-2.79-2.79s1.21-2.79,2.79-2.79,2.79,1.21,2.79,2.79-1.21,2.79-2.79,2.79Zm0-7.39c-1.58,0-2.79-1.21-2.79-2.79s1.21-2.79,2.79-2.79,2.79,1.21,2.79,2.79-1.21,2.79-2.79,2.79Zm0-14.78c-1.58,0-2.79-1.21-2.79-2.79s1.21-2.79,2.79-2.79,2.79,1.21,2.79,2.79-1.21,2.79-2.79,2.79ZM59.37,4.12c1.58,0,2.79,1.21,2.79,2.79s-1.21,2.79-2.79,2.79-2.79-1.21-2.79-2.79,1.21-2.79,2.79-2.79Zm0,19.99c-1.58,0-2.79-1.21-2.79-2.79s1.21-2.79,2.79-2.79,2.79,1.21,2.79,2.79-1.33,2.79-2.79,2.79Zm2.79,4.6c0,1.58-1.21,2.79-2.79,2.79s-2.79-1.21-2.79-2.79,1.21-2.79,2.79-2.79,2.79,1.21,2.79,2.79Zm-2.79,7.75c4.12,0,7.39,3.27,7.39,7.39s-3.27,7.39-7.39,7.39-7.39-3.27-7.39-7.39,3.27-7.39,7.39-7.39Zm0,27.14c1.58,0,2.79,1.21,2.79,2.79s-1.21,2.79-2.79,2.79-2.79-1.21-2.79-2.79,1.21-2.67,2.79-2.79Zm-2.79-4.6c0-1.58,1.21-2.79,2.79-2.79s2.79,1.21,2.79,2.79-1.21,2.79-2.79,2.79-2.79-1.21-2.79-2.79Zm17.93-17.93c1.58,0,2.79,1.21,2.79,2.79s-1.21,2.79-2.79,2.79-2.79-1.21-2.79-2.79,1.21-2.79,2.79-2.79Zm7.39,0c1.58,0,2.79,1.21,2.79,2.79s-1.21,2.79-2.79,2.79-2.79-1.21-2.79-2.79,1.33-2.79,2.79-2.79Zm-45.07,0c1.58,0,2.79,1.21,2.79,2.79s-1.21,2.79-2.79,2.79-2.79-1.21-2.79-2.79,1.21-2.79,2.79-2.79Zm7.39,0c1.58,0,2.79,1.21,2.79,2.79s-1.21,2.79-2.79,2.79-2.79-1.21-2.79-2.79,1.21-2.79,2.79-2.79Zm-19.14,2.79c0,1.58-1.21,2.79-2.79,2.79s-2.79-1.21-2.79-2.79,1.21-2.79,2.79-2.79,2.91,1.33,2.79,2.79Zm71.25,2.79c-1.58,0-2.79-1.21-2.79-2.79s1.21-2.79,2.79-2.79,2.79,1.21,2.79,2.79-1.21,2.79-2.79,2.79Zm19.27,51.74c-1.58,0-2.79-1.21-2.79-2.79s1.21-2.79,2.79-2.79,2.79,1.21,2.79,2.79-1.21,2.79-2.79,2.79Zm7.39,0c-1.58,0-2.79-1.21-2.79-2.79s1.21-2.79,2.79-2.79,2.79,1.21,2.79,2.79-1.21,2.79-2.79,2.79Zm27.38,0c-1.58,0-2.79-1.21-2.79-2.79s1.21-2.79,2.79-2.79,2.79,1.21,2.79,2.79-1.21,2.79-2.79,2.79Zm7.39,0c-1.58,0-2.79-1.21-2.79-2.79s1.21-2.79,2.79-2.79,2.79,1.21,2.79,2.79-1.21,2.79-2.79,2.79Z" fill="#fff"/><path d="M203.56,91h0v-3.27h0v-.48h0v-1.94c0-.48-.36-.97-.85-.97H1.09c-.48,0-.97,.36-.97,.85H.12v1.94H.12v3.64H.12v11.03c0,.61,.48,.97,.97,.97H101.78c0-.12,59.86-.12,59.86-.12h40.71c.61,0,.97-.48,.97-.97l.24-10.66Zm-115.35,7.39c-1.58,0-2.79-1.21-2.79-2.79s1.21-2.79,2.79-2.79,2.79,1.21,2.79,2.79-1.21,2.79-2.79,2.79Zm-7.39,0c-1.58,0-2.79-1.21-2.79-2.79s1.21-2.79,2.79-2.79,2.79,1.21,2.79,2.79-1.21,2.79-2.79,2.79Zm-27.38,0c-1.58,0-2.79-1.21-2.79-2.79s1.21-2.79,2.79-2.79,2.79,1.21,2.79,2.79-1.21,2.79-2.79,2.79Zm-7.39,0c-1.58,0-2.79-1.21-2.79-2.79s1.21-2.79,2.79-2.79,2.79,1.21,2.79,2.79-1.21,2.79-2.79,2.79Zm-27.38,.97c-1.58,0-2.79-1.21-2.79-2.79s1.21-2.79,2.79-2.79,2.79,1.21,2.79,2.79-1.21,2.79-2.79,2.79Zm-7.39,0c-1.58,0-2.79-1.21-2.79-2.79s1.21-2.79,2.79-2.79,2.79,1.21,2.79,2.79-1.21,2.79-2.79,2.79Zm104.33-.97c-1.58,0-2.79-1.21-2.79-2.79s1.21-2.79,2.79-2.79,2.79,1.21,2.79,2.79-1.21,2.79-2.79,2.79Zm7.39,0c-1.58,0-2.79-1.21-2.79-2.79s1.21-2.79,2.79-2.79,2.79,1.21,2.79,2.79-1.21,2.79-2.79,2.79Zm27.38,0c-1.58,0-2.79-1.21-2.79-2.79s1.21-2.79,2.79-2.79,2.79,1.21,2.79,2.79-1.21,2.79-2.79,2.79Zm7.39,0c-1.58,0-2.79-1.21-2.79-2.79s1.21-2.79,2.79-2.79,2.79,1.21,2.79,2.79-1.21,2.79-2.79,2.79Zm27.38,.85c-1.58,0-2.79-1.21-2.79-2.79s1.21-2.79,2.79-2.79,2.79,1.21,2.79,2.79-1.33,2.79-2.79,2.79Zm7.39,0c-1.58,0-2.79-1.21-2.79-2.79s1.21-2.79,2.79-2.79,2.79,1.21,2.79,2.79-1.21,2.79-2.79,2.79Z" fill="#f15822"/><path d="M199.93,94.27v-3.27h0v-1.94c0-.48-.36-.97-.97-.97H111.11v-3.64h-18.54v3.64H4.73c-.12,.12-.24,.12-.36,.12-.36,.12-.61,.48-.61,.85v12.96c0,.48,.36,.97,.97,.97H198.84c.48,0,.85-.48,.85-.97l.24-7.75h0ZM11.27,99.36c-1.58,0-2.79-1.21-2.79-2.79s1.21-2.79,2.79-2.79,2.79,1.21,2.79,2.79-1.21,2.79-2.79,2.79Zm7.39,0c-1.58,0-2.79-1.21-2.79-2.79s1.21-2.79,2.79-2.79,2.79,1.21,2.79,2.79-1.21,2.79-2.79,2.79Zm27.38-.97c-1.58,0-2.79-1.21-2.79-2.79s1.21-2.79,2.79-2.79,2.79,1.21,2.79,2.79-1.21,2.79-2.79,2.79Zm7.39,0c-1.58,0-2.79-1.21-2.79-2.79s1.21-2.79,2.79-2.79,2.79,1.21,2.79,2.79-1.21,2.79-2.79,2.79Zm27.38,0c-1.58,0-2.79-1.21-2.79-2.79s1.21-2.79,2.79-2.79,2.79,1.21,2.79,2.79-1.21,2.79-2.79,2.79Zm7.39,0c-1.58,0-2.79-1.21-2.79-2.79s1.21-2.79,2.79-2.79,2.79,1.21,2.79,2.79-1.21,2.79-2.79,2.79Zm104.33,.85c-1.58,0-2.79-1.21-2.79-2.79s1.21-2.79,2.79-2.79,2.79,1.21,2.79,2.79-1.21,2.79-2.79,2.79Zm-7.39,0c-1.58,0-2.79-1.21-2.79-2.79s1.21-2.79,2.79-2.79,2.79,1.21,2.79,2.79-1.33,2.79-2.79,2.79Zm-69.55-.85c-1.58,0-2.79-1.21-2.79-2.79s1.21-2.79,2.79-2.79,2.79,1.21,2.79,2.79-1.21,2.79-2.79,2.79Zm7.39,0c-1.58,0-2.79-1.21-2.79-2.79s1.21-2.79,2.79-2.79,2.79,1.21,2.79,2.79-1.21,2.79-2.79,2.79Zm27.38,0c-1.58,0-2.79-1.21-2.79-2.79s1.21-2.79,2.79-2.79,2.79,1.21,2.79,2.79-1.21,2.79-2.79,2.79Zm7.39,0c-1.58,0-2.79-1.21-2.79-2.79s1.21-2.79,2.79-2.79,2.79,1.21,2.79,2.79-1.21,2.79-2.79,2.79Z" fill="#86869e"/><path d="M92.69,84.58v3.76H4.85c-.48,0-.97,.36-.97,.97v1.82c0,.48-.36,.97-.97,.97H1.09c-.48,0-.97-.36-.97-.97v-5.57c0-.48,.36-.97,.97-.97H92.69Z" fill="#f15822"/><path d="M203.56,85.42v5.57c0,.48-.36,.97-.97,.97h-1.82c-.48,0-.97-.36-.97-.97v-1.82c0-.48-.36-.97-.97-.97H114.75v-3.76h87.85c.61,0,.97,.36,.97,.97Z" fill="#f15822"/><path d="M203.56,1.21V87.24c0,.48-.36,.97-.97,.97h0c-.48,0-.97-.36-.97-.97V3.15c0-.48-.36-.97-.97-.97H2.91c-.48,0-.97,.48-.97,1.09V87.36c0,.48-.36,.97-.97,.97H.97c-.48,0-.97-.36-.97-.97V1.33C0,.85,.36,.36,.97,.36H202.47c.61,0,1.09,.36,1.09,.85h0Z" fill="#f15822"/><g opacity=".1"><path d="M20.84,17.57c0,.36,0,.61-.36,.85l-1.7,1.7h-.48l-1.7-1.7h0c-.24-.24-.36-.48-.36-.85,0-.61,.48-1.09,1.09-1.09s.73,0,.85,.48h.48c.24-.24,.48-.48,.85-.48,.85,0,1.33,.48,1.33,1.09h0Z" fill="none" stroke="#010101" stroke-linecap="round" stroke-linejoin="round" stroke-width="1.21"/><path d="M27.38,17.57c0,.36,0,.61-.36,.85l-1.7,1.7h-.48l-1.7-1.7h0c-.24-.24-.36-.48-.36-.85,0-.61,.48-1.09,1.09-1.09s.73,0,.85,.48h.48c.24-.24,.48-.48,.85-.48,.85,0,1.33,.48,1.33,1.09h0Z" fill="none" stroke="#010101" stroke-linecap="round" stroke-linejoin="round" stroke-width="1.21"/><path d="M33.81,17.57c0,.36,0,.61-.36,.85l-1.7,1.7h-.48l-1.7-1.7h0c-.24-.24-.36-.48-.36-.85,0-.61,.48-1.09,1.09-1.09s.73,0,.85,.48h.48c.24-.24,.48-.48,.85-.48,.85,0,1.33,.48,1.33,1.09h0Z" fill="none" stroke="#010101" stroke-linecap="round" stroke-linejoin="round" stroke-width="1.21"/><path d="M40.23,17.57c0,.36,0,.61-.36,.85l-1.7,1.7h-.48l-1.7-1.7h0c-.24-.24-.36-.48-.36-.85,0-.61,.48-1.09,1.09-1.09s.73,0,.85,.48h.48c.24-.24,.48-.48,.85-.48,.85,0,1.33,.48,1.33,1.09h0Z" fill="none" stroke="#010101" stroke-linecap="round" stroke-linejoin="round" stroke-width="1.21"/><polyline points="133.28 11.51 133.28 63.25 129.65 66.88 129.65 70.64" fill="none" stroke="#010101" stroke-linecap="round" stroke-linejoin="round" stroke-width="1.21"/><polyline points="140.68 15.15 140.68 22.54 137.04 26.29 137.04 74.28" fill="none" stroke="#010101" stroke-linecap="round" stroke-linejoin="round" stroke-width="1.21"/><polyline points="144.43 22.54 144.43 26.29 140.68 29.93 140.68 59.49 144.43 63.25 144.31 67.01" fill="none" stroke="#010101" stroke-linecap="round" stroke-linejoin="round" stroke-width="1.21"/><line x1="159.21" y1="21.57" x2="159.21" y2="70.64" fill="none" stroke="#010101" stroke-linecap="round" stroke-linejoin="round" stroke-width="1.21"/><line x1="170.24" y1="16.36" x2="170.36" y2="78.03" fill="none" stroke="#010101" stroke-linecap="round" stroke-linejoin="round" stroke-width="1.21"/><line x1="166.61" y1="29.93" x2="166.61" y2="66.4" fill="none" stroke="#010101" stroke-linecap="round" stroke-linejoin="round" stroke-width="1.21"/><line x1="174" y1="22.54" x2="174" y2="66.4" fill="none" stroke="#010101" stroke-linecap="round" stroke-linejoin="round" stroke-width="1.21"/><circle cx="133.28" cy="10.54" r=".97" fill="none" stroke="#010101" stroke-linecap="round" stroke-linejoin="round" stroke-width="1.21"/><circle cx="140.68" cy="14.18" r=".97" fill="none" stroke="#010101" stroke-linecap="round" stroke-linejoin="round" stroke-width="1.21"/><circle cx="144.43" cy="21.57" r=".97" fill="none" stroke="#010101" stroke-linecap="round" stroke-linejoin="round" stroke-width="1.21"/><circle cx="144.31" cy="67.85" r=".97" fill="none" stroke="#010101" stroke-linecap="round" stroke-linejoin="round" stroke-width="1.21"/><circle cx="137.04" cy="75.25" r=".97" fill="none" stroke="#010101" stroke-linecap="round" stroke-linejoin="round" stroke-width="1.21"/><circle cx="129.65" cy="71.61" r=".97" fill="none" stroke="#010101" stroke-linecap="round" stroke-linejoin="round" stroke-width="1.21"/><polyline points="111.11 54.89 111.11 22.54 114.75 18.9 114.75 15.15" fill="none" stroke="#010101" stroke-linecap="round" stroke-linejoin="round" stroke-width="1.21"/><polyline points="103.72 70.64 103.72 63.25 107.48 59.61 107.35 11.51" fill="none" stroke="#010101" stroke-linecap="round" stroke-linejoin="round" stroke-width="1.21"/><polyline points="100.08 63.25 100.08 59.61 103.72 55.86 103.72 26.29 99.96 22.54 100.08 18.78" fill="none" stroke="#010101" stroke-linecap="round" stroke-linejoin="round" stroke-width="1.21"/><circle cx="111.11" cy="75.25" r=".97" fill="none" stroke="#010101" stroke-linecap="round" stroke-linejoin="round" stroke-width="1.21"/><circle cx="111.11" cy="67.01" r=".97" fill="none" stroke="#010101" stroke-linecap="round" stroke-linejoin="round" stroke-width="1.21"/><circle cx="111.11" cy="55.86" r=".97" fill="none" stroke="#010101" stroke-linecap="round" stroke-linejoin="round" stroke-width="1.21"/><circle cx="103.72" cy="71.61" r=".97" fill="none" stroke="#010101" stroke-linecap="round" stroke-linejoin="round" stroke-width="1.21"/><circle cx="100.08" cy="64.22" r=".97" fill="none" stroke="#010101" stroke-linecap="round" stroke-linejoin="round" stroke-width="1.21"/><circle cx="100.08" cy="17.93" r=".97" fill="none" stroke="#010101" stroke-linecap="round" stroke-linejoin="round" stroke-width="1.21"/><circle cx="107.35" cy="10.54" r=".97" fill="none" stroke="#010101" stroke-linecap="round" stroke-linejoin="round" stroke-width="1.21"/><circle cx="114.75" cy="14.3" r=".97" fill="none" stroke="#010101" stroke-linecap="round" stroke-linejoin="round" stroke-width="1.21"/><circle cx="159.21" cy="20.72" r=".97" fill="none" stroke="#010101" stroke-linecap="round" stroke-linejoin="round" stroke-width="1.21"/><circle cx="170.24" cy="15.39" r=".97" fill="none" stroke="#010101" stroke-linecap="round" stroke-linejoin="round" stroke-width="1.21"/><circle cx="159.21" cy="71.49" r=".97" fill="none" stroke="#010101" stroke-linecap="round" stroke-linejoin="round" stroke-width="1.21"/><circle cx="166.61" cy="67.25" r=".97" fill="none" stroke="#010101" stroke-linecap="round" stroke-linejoin="round" stroke-width="1.21"/><circle cx="170.36" cy="78.88" r=".97" fill="none" stroke="#010101" stroke-linecap="round" stroke-linejoin="round" stroke-width="1.21"/><circle cx="174" cy="67.25" r=".97" fill="none" stroke="#010101" stroke-linecap="round" stroke-linejoin="round" stroke-width="1.21"/><circle cx="174" cy="21.57" r=".97" fill="none" stroke="#010101" stroke-linecap="round" stroke-linejoin="round" stroke-width="1.21"/><path d="M37.2,52.22v16.6c0,.97-.85,1.82-1.82,1.82h-1.82l-4.24-4.24h0l-3.39,.61,2.67-5.21-5.21,2.54,2.79-4.97-5.21,2.42,3.15-4.73-3.27,.85-5.69-5.69" fill="none" stroke="#010101" stroke-linecap="round" stroke-linejoin="round" stroke-width="1.21"/><line x1="51.98" y1="74.4" x2="44.59" y2="67.01" fill="none" stroke="#010101" stroke-linecap="round" stroke-linejoin="round" stroke-width="1.21"/><line x1="29.81" y1="48.47" x2="29.81" y2="26.29" fill="none" stroke="#010101" stroke-linecap="round" stroke-linejoin="round" stroke-width="1.21"/><line x1="37.2" y1="41.08" x2="37.2" y2="26.29" fill="none" stroke="#010101" stroke-linecap="round" stroke-linejoin="round" stroke-width="1.21"/><polyline points="44.59 19.27 44.59 15.27 40.83 11.51 40.83 7.88" fill="none" stroke="#010101" stroke-linecap="round" stroke-linejoin="round" stroke-width="1.21"/><line x1="44.59" y1="37.44" x2="44.59" y2="21.2" fill="none" stroke="#010101" stroke-linecap="round" stroke-linejoin="round" stroke-width="1.21"/><polyline points="74.15 41.08 74.15 22.54 77.79 18.9 77.79 7.75" fill="none" stroke="#010101" stroke-linecap="round" stroke-linejoin="round" stroke-width="1.21"/><line x1="77.79" y1="41.08" x2="77.79" y2="26.29" fill="none" stroke="#010101" stroke-linecap="round" stroke-linejoin="round" stroke-width="1.21"/><polyline points="81.55 15.15 81.55 26.29 85.18 29.93 85.18 44.83" fill="none" stroke="#010101" stroke-linecap="round" stroke-linejoin="round" stroke-width="1.21"/><polyline points="88.94 25.32 88.94 41.08 88.94 59.61 92.69 63.25 92.69 68.82" fill="none" stroke="#010101" stroke-linecap="round" stroke-linejoin="round" stroke-width="1.21"/><line x1="92.69" y1="70.64" x2="92.69" y2="74.4" fill="none" stroke="#010101" stroke-linecap="round" stroke-linejoin="round" stroke-width="1.21"/><polyline points="85.3 52.22 85.3 63.25 81.55 67.01 81.55 74.4" fill="none" stroke="#010101" stroke-linecap="round" stroke-linejoin="round" stroke-width="1.21"/><path d="M40.83,52.22v23.99c0,.97-.85,1.82-1.82,1.82h-12.96l-4.24-4.24h0l-3.39,.61,2.67-5.21-5.21,2.54,2.79-4.97-5.21,2.42,3.15-4.73-3.27,.85-2.06-2.06" fill="none" stroke="#010101" stroke-linecap="round" stroke-linejoin="round" stroke-width="1.21"/><circle cx="92.69" cy="75.25" r=".97" fill="none" stroke="#010101" stroke-linecap="round" stroke-linejoin="round" stroke-width="1.21"/><circle cx="88.94" cy="17.93" r=".97" fill="none" stroke="#010101" stroke-linecap="round" stroke-linejoin="round" stroke-width="1.21"/><circle cx="88.94" cy="24.48" r=".97" fill="none" stroke="#010101" stroke-linecap="round" stroke-linejoin="round" stroke-width="1.21"/><circle cx="81.55" cy="14.3" r=".97" fill="none" stroke="#010101" stroke-linecap="round" stroke-linejoin="round" stroke-width="1.21"/><circle cx="77.79" cy="6.91" r=".97" fill="none" stroke="#010101" stroke-linecap="round" stroke-linejoin="round" stroke-width="1.21"/><circle cx="77.79" cy="25.32" r=".97" fill="none" stroke="#010101" stroke-linecap="round" stroke-linejoin="round" stroke-width="1.21"/><circle cx="81.55" cy="75.25" r=".97" fill="none" stroke="#010101" stroke-linecap="round" stroke-linejoin="round" stroke-width="1.21"/><circle cx="29.81" cy="25.45" r=".97" fill="none" stroke="#010101" stroke-linecap="round" stroke-linejoin="round" stroke-width="1.21"/><circle cx="37.2" cy="25.45" r=".97" fill="none" stroke="#010101" stroke-linecap="round" stroke-linejoin="round" stroke-width="1.21"/><circle cx="44.59" cy="20.24" r=".97" fill="none" stroke="#010101" stroke-linecap="round" stroke-linejoin="round" stroke-width="1.21"/><circle cx="40.83" cy="6.91" r=".97" fill="none" stroke="#010101" stroke-linecap="round" stroke-linejoin="round" stroke-width="1.21"/><circle cx="14.42" cy="51.25" r=".97" fill="none" stroke="#010101" stroke-linecap="round" stroke-linejoin="round" stroke-width="1.21"/><circle cx="10.54" cy="62.4" r=".97" fill="none" stroke="#010101" stroke-linecap="round" stroke-linejoin="round" stroke-width="1.21"/><line x1="111.11" y1="56.83" x2="111.11" y2="66.04" fill="none" stroke="#010101" stroke-linecap="round" stroke-linejoin="round" stroke-width="1.21"/><line x1="111.11" y1="67.85" x2="111.11" y2="74.4" fill="none" stroke="#010101" stroke-linecap="round" stroke-linejoin="round" stroke-width="1.21"/><circle cx="92.69" cy="69.79" r=".97" fill="none" stroke="#010101" stroke-linecap="round" stroke-linejoin="round" stroke-width="1.21"/><line x1="88.94" y1="23.51" x2="88.94" y2="18.9" fill="none" stroke="#010101" stroke-linecap="round" stroke-linejoin="round" stroke-width="1.21"/></g><g><path d="M140.68,40.11c0-3.76-1.45-7.15-3.76-9.81-1.09-1.21-2.3-2.18-3.76-3.03-2.18-1.21-4.73-1.94-7.39-1.94-8.12,0-14.78,6.66-14.78,14.78h0c0,8.12,6.66,14.78,14.78,14.78s5.21-.73,7.39-1.94c1.33-.85,2.67-1.82,3.76-3.03,2.42-2.67,3.76-6.06,3.76-9.81h0Zm-14.78-6.42c1.58,0,2.79,1.21,2.79,2.79s-1.21,2.79-2.79,2.79-2.79-1.21-2.79-2.79,1.21-2.79,2.79-2.79Zm-2.79,10.18c0-1.58,1.21-2.79,2.79-2.79s2.79,1.21,2.79,2.79-1.21,2.79-2.79,2.79-2.79-1.33-2.79-2.79Z" fill="#f15822"/><path d="M137.04,40.23h0v-.61c0-3.03-1.58-5.82-3.76-7.75-1.94-1.7-4.6-2.79-7.39-2.79-6.18,0-11.15,4.97-11.15,11.15s4.97,11.15,11.15,11.15,5.45-1.09,7.39-2.79c2.3-2.18,3.64-5.09,3.76-8.36Zm-13.93-3.76c0-1.58,1.21-2.79,2.79-2.79s2.79,1.21,2.79,2.79-1.21,2.79-2.79,2.79c-1.45-.12-2.79-1.33-2.79-2.79Zm2.79,10.18c-1.58,0-2.79-1.21-2.79-2.79s1.21-2.79,2.79-2.79,2.79,1.21,2.79,2.79-1.21,2.79-2.79,2.79Z" fill="#86869e"/><path d="M137.04,40.23h0v-.61c0-3.03-1.58-5.82-3.76-7.75-1.94-1.7-4.6-2.79-7.39-2.79-6.18,0-11.15,4.97-11.15,11.15s4.97,11.15,11.15,11.15,5.45-1.09,7.39-2.79c2.3-2.18,3.64-5.09,3.76-8.36Zm-13.93-3.76c0-1.58,1.21-2.79,2.79-2.79s2.79,1.21,2.79,2.79-1.21,2.79-2.79,2.79c-1.45-.12-2.79-1.33-2.79-2.79Zm2.79,10.18c-1.58,0-2.79-1.21-2.79-2.79s1.21-2.79,2.79-2.79,2.79,1.21,2.79,2.79-1.21,2.79-2.79,2.79Z" fill="none" isolation="isolate" opacity=".2" stroke="#010101" stroke-miterlimit="10" stroke-width="1.21"/></g><g><path d="M177.63,40.11c0-3.76-1.45-7.15-3.76-9.81-1.09-1.21-2.3-2.18-3.76-3.03-2.18-1.21-4.73-1.94-7.39-1.94s-2.54,0-3.76,.48c-6.42,1.7-11.15,7.39-11.15,14.3s4.73,12.72,11.15,14.3c1.21,.36,2.42,.48,3.76,.48s2.54,0,3.64-.48c1.33-.36,2.54-.85,3.76-1.45,1.33-.85,2.67-1.82,3.76-3.03,2.42-2.67,3.76-6.06,3.76-9.81Zm-14.78,6.42c-1.58,0-2.79-1.21-2.79-2.79s1.21-2.79,2.79-2.79,2.79,1.21,2.79,2.79-1.21,2.79-2.79,2.79Zm0-12.84c1.58,0,2.79,1.21,2.79,2.79s-1.21,2.79-2.79,2.79-2.79-1.21-2.79-2.79,1.33-2.79,2.79-2.79Z" fill="#f15822"/><path d="M174,40.11c0-3.27-1.45-6.18-3.76-8.24-1.94-1.82-4.6-2.79-7.39-2.79s-2.54,.24-3.76,.61c-4.36,1.58-7.39,5.57-7.39,10.42s3.15,8.97,7.39,10.42c1.21,.36,2.42,.61,3.76,.61s2.54-.24,3.64-.61c1.33-.48,2.67-1.21,3.76-2.18,2.3-2.06,3.76-4.97,3.76-8.24Zm-11.15-6.42c1.58,0,2.79,1.21,2.79,2.79s-1.21,2.79-2.79,2.79-2.79-1.21-2.79-2.79,1.33-2.79,2.79-2.79Zm0,12.84c-1.58,0-2.79-1.21-2.79-2.79s1.21-2.79,2.79-2.79,2.79,1.21,2.79,2.79-1.21,2.79-2.79,2.79Z" fill="#86869e"/><path d="M174,40.11c0-3.27-1.45-6.18-3.76-8.24-1.94-1.82-4.6-2.79-7.39-2.79s-2.54,.24-3.76,.61c-4.36,1.58-7.39,5.57-7.39,10.42s3.15,8.97,7.39,10.42c1.21,.36,2.42,.61,3.76,.61s2.54-.24,3.64-.61c1.33-.48,2.67-1.21,3.76-2.18,2.3-2.06,3.76-4.97,3.76-8.24Zm-11.15-6.42c1.58,0,2.79,1.21,2.79,2.79s-1.21,2.79-2.79,2.79-2.79-1.21-2.79-2.79,1.33-2.79,2.79-2.79Zm0,12.84c-1.58,0-2.79-1.21-2.79-2.79s1.21-2.79,2.79-2.79,2.79,1.21,2.79,2.79-1.21,2.79-2.79,2.79Z" fill="none" isolation="isolate" opacity=".2" stroke="#010101" stroke-miterlimit="10" stroke-width="1.21"/></g><path d="M92.69,52.95v-18.18c0-1.09-.97-2.06-2.06-2.06H27.99c-1.09,0-2.06,.97-2.06,2.06v18.18c0,1.09,.97,2.06,2.06,2.06h62.52c1.21,0,2.18-.97,2.18-2.06h0Zm-18.18-11.87c1.58,0,2.79,1.21,2.79,2.79s-1.21,2.79-2.79,2.79-2.79-1.21-2.79-2.79,1.21-2.79,2.79-2.79Zm4.6,2.79c0-1.58,1.21-2.79,2.79-2.79s2.79,1.21,2.79,2.79-1.21,2.79-2.79,2.79-2.79-1.21-2.79-2.79Zm-45.07,0c0-1.58,1.21-2.79,2.79-2.79s2.79,1.21,2.79,2.79-1.21,2.79-2.79,2.79-2.79-1.21-2.79-2.79Zm10.18,2.79c-1.58,0-2.79-1.21-2.79-2.79s1.21-2.79,2.79-2.79,2.79,1.21,2.79,2.79-1.33,2.79-2.79,2.79Zm15.15,4.6c-4.12,0-7.39-3.27-7.39-7.39s3.27-7.39,7.39-7.39,7.39,3.27,7.39,7.39-3.27,7.39-7.39,7.39Z" fill="#f15822"/><path d="M70.52,75.12V12.72c0-1.09-.97-2.06-2.06-2.06h-18.18c-1.09,0-2.06,.97-2.06,2.06v58.04h0v4.48c0,1.09,.97,2.06,2.06,2.06h18.18c1.09,0,2.06-1.09,2.06-2.18h0Zm-11.15-56.59c1.58,0,2.79,1.21,2.79,2.79s-1.21,2.79-2.79,2.79-2.79-1.21-2.79-2.79,1.21-2.79,2.79-2.79Zm0,12.96c-1.58,0-2.79-1.21-2.79-2.79s1.21-2.79,2.79-2.79,2.79,1.21,2.79,2.79-1.33,2.79-2.79,2.79Zm0,4.97c4.12,0,7.39,3.27,7.39,7.39s-3.27,7.39-7.39,7.39-7.39-3.27-7.39-7.39,3.27-7.39,7.39-7.39Zm0,25.32c-1.58,0-2.79-1.21-2.79-2.79s1.21-2.79,2.79-2.79,2.79,1.21,2.79,2.79-1.21,2.79-2.79,2.79Zm-2.79,4.6c0-1.58,1.21-2.79,2.79-2.79s2.79,1.21,2.79,2.79-1.21,2.79-2.79,2.79-2.79-1.21-2.79-2.79Z" fill="#f15822"/><g><path d="M66.4,66.4h-.48c-.48,0-.97-.36-.97-.97v-10.54c0-.85-.97-1.45-1.82-1.45h-8.36c-.48,0-.97,.36-.97,.97v11.15c0,.48-.36,.97-.97,.97h-.48c-.85,0-1.21,.97-.61,1.58l7.03,7.03c.36,.36,.97,.36,1.33,0l7.03-7.03c.48-.73,.12-1.7-.73-1.7h0Zm-9.81-7.39c0-1.58,1.21-2.79,2.79-2.79s2.79,1.21,2.79,2.79-1.21,2.79-2.79,2.79-2.79-1.21-2.79-2.79Zm2.79,10.18c-1.58,0-2.79-1.21-2.79-2.79s1.21-2.79,2.79-2.79,2.79,1.21,2.79,2.79-1.21,2.79-2.79,2.79Z" fill="#86869e"/><path d="M66.4,66.4h-.48c-.48,0-.97-.36-.97-.97v-10.54c0-.85-.97-1.45-1.82-1.45h-8.36c-.48,0-.97,.36-.97,.97v11.15c0,.48-.36,.97-.97,.97h-.48c-.85,0-1.21,.97-.61,1.58l7.03,7.03c.36,.36,.97,.36,1.33,0l7.03-7.03c.48-.73,.12-1.7-.73-1.7h0Zm-9.81-7.39c0-1.58,1.21-2.79,2.79-2.79s2.79,1.21,2.79,2.79-1.21,2.79-2.79,2.79-2.79-1.21-2.79-2.79Zm2.79,10.18c-1.58,0-2.79-1.21-2.79-2.79s1.21-2.79,2.79-2.79,2.79,1.21,2.79,2.79-1.21,2.79-2.79,2.79Z" fill="none" isolation="isolate" opacity=".2" stroke="#010101" stroke-miterlimit="10" stroke-width="1.21"/></g><g><path d="M65.79,21.33h.48c.85,0,1.21-.97,.61-1.58l-7.03-7.03c-.36-.36-.97-.36-1.33,0l-7.03,7.03c-.61,.61,0,1.58,.61,1.58h.48c.48,0,.97,.36,.97,.97v10.54c0,.85,.85,1.45,1.82,1.45h8.36c.48,0,.97-.36,.97-.97v-11.03c0-.61,.61-.97,1.09-.97h0Zm-3.64,7.39c0,1.58-1.21,2.79-2.79,2.79s-2.79-1.21-2.79-2.79,1.21-2.79,2.79-2.79,2.79,1.21,2.79,2.79Zm-2.79-10.18c1.58,0,2.79,1.21,2.79,2.79s-1.21,2.79-2.79,2.79-2.79-1.21-2.79-2.79,1.21-2.79,2.79-2.79Z" fill="#86869e"/><path d="M65.79,21.33h.48c.85,0,1.21-.97,.61-1.58l-7.03-7.03c-.36-.36-.97-.36-1.33,0l-7.03,7.03c-.61,.61,0,1.58,.61,1.58h.48c.48,0,.97,.36,.97,.97v10.54c0,.85,.85,1.45,1.82,1.45h8.36c.48,0,.97-.36,.97-.97v-11.03c0-.61,.61-.97,1.09-.97h0Zm-3.64,7.39c0,1.58-1.21,2.79-2.79,2.79s-2.79-1.21-2.79-2.79,1.21-2.79,2.79-2.79,2.79,1.21,2.79,2.79Zm-2.79-10.18c1.58,0,2.79,1.21,2.79,2.79s-1.21,2.79-2.79,2.79-2.79-1.21-2.79-2.79,1.21-2.79,2.79-2.79Z" fill="none" isolation="isolate" opacity=".2" stroke="#010101" stroke-miterlimit="10" stroke-width="1.21"/></g><path d="M3.88,103.11v-13.81c0-.48,.36-.97,.97-.97H92.69v-3.76h18.54v3.76h87.85c.48,0,.97,.36,.97,.97v13.81" fill="none" isolation="isolate" opacity=".2" stroke="#010101" stroke-miterlimit="10" stroke-width="1.21"/><g><path d="M49.68,47.62v-8.36c0-.48-.36-.97-.97-.97h-11.63c-.24,0-.36-.48-.36-.73v-.48c0-.85-.97-1.21-1.58-.61l-5.45,5.45-1.58,1.58c-.36,.36-.36,.97,0,1.33l1.58,1.58,5.45,5.45c.61,.61,1.58,0,1.58-.61v-.48c0-.48,.36-.97,.97-.97h10.54c.85-.48,1.45-1.21,1.45-2.06h0v-.12Zm-12.84-.97c-1.58,0-2.79-1.21-2.79-2.79s1.21-2.79,2.79-2.79,2.79,1.21,2.79,2.79-1.33,2.79-2.79,2.79Zm7.39,0c-1.58,0-2.79-1.21-2.79-2.79s1.21-2.79,2.79-2.79,2.79,1.21,2.79,2.79-1.33,2.79-2.79,2.79Z" fill="#86869e"/><path d="M49.68,47.62v-8.36c0-.48-.36-.97-.97-.97h-11.63c-.24,0-.36-.48-.36-.73v-.48c0-.85-.97-1.21-1.58-.61l-5.45,5.45-1.58,1.58c-.36,.36-.36,.97,0,1.33l1.58,1.58,5.45,5.45c.61,.61,1.58,0,1.58-.61v-.48c0-.48,.36-.97,.97-.97h10.54c.85-.48,1.45-1.21,1.45-2.06h0v-.12Zm-12.84-.97c-1.58,0-2.79-1.21-2.79-2.79s1.21-2.79,2.79-2.79,2.79,1.21,2.79,2.79-1.33,2.79-2.79,2.79Zm7.39,0c-1.58,0-2.79-1.21-2.79-2.79s1.21-2.79,2.79-2.79,2.79,1.21,2.79,2.79-1.33,2.79-2.79,2.79Z" fill="none" isolation="isolate" opacity=".2" stroke="#010101" stroke-miterlimit="10" stroke-width="1.21"/></g><g><path d="M90.51,43.26l-1.58-1.58-3.76-3.76-1.7-1.7c-.61-.61-1.58,0-1.58,.61v.48c0,.48-.36,.97-.97,.97h-10.54c-.85,0-1.45,.85-1.45,1.82v8.36c0,.48,.36,.97,.97,.97h11.03c.48,0,.97,.36,.97,.97v.48c0,.85,.97,1.21,1.58,.61l5.45-5.45,1.58-1.58c.36-.36,.36-.97,0-1.21h0Zm-15.99,3.39c-1.58,0-2.79-1.21-2.79-2.79s1.21-2.79,2.79-2.79,2.79,1.21,2.79,2.79-1.21,2.79-2.79,2.79Zm7.39,0c-1.58,0-2.79-1.21-2.79-2.79s1.21-2.79,2.79-2.79,2.79,1.21,2.79,2.79-1.21,2.79-2.79,2.79Z" fill="#86869e"/><path d="M90.51,43.26l-1.58-1.58-3.76-3.76-1.7-1.7c-.61-.61-1.58,0-1.58,.61v.48c0,.48-.36,.97-.97,.97h-10.54c-.85,0-1.45,.85-1.45,1.82v8.36c0,.48,.36,.97,.97,.97h11.03c.48,0,.97,.36,.97,.97v.48c0,.85,.97,1.21,1.58,.61l5.45-5.45,1.58-1.58c.36-.36,.36-.97,0-1.21h0Zm-15.99,3.39c-1.58,0-2.79-1.21-2.79-2.79s1.21-2.79,2.79-2.79,2.79,1.21,2.79,2.79-1.21,2.79-2.79,2.79Zm7.39,0c-1.58,0-2.79-1.21-2.79-2.79s1.21-2.79,2.79-2.79,2.79,1.21,2.79,2.79-1.21,2.79-2.79,2.79Z" fill="none" isolation="isolate" opacity=".2" stroke="#010101" stroke-miterlimit="10" stroke-width="1.21"/></g><circle cx="59.37" cy="80.82" r="2.79" fill="#fff" isolation="isolate" opacity=".1" stroke="#010101" stroke-miterlimit="10" stroke-width="1.21"/><path d="M135.22,63.25h-18.54c-.97,0-1.82-.85-1.82-1.82h0c0-.97,.85-1.82,1.82-1.82h18.54c.97,0,1.82,.85,1.82,1.82h0c0,.97-.85,1.82-1.82,1.82Z" fill="#f15822"/><path d="M172.18,63.25h-18.54c-.97,0-1.82-.85-1.82-1.82h0c0-.97,.85-1.82,1.82-1.82h18.54c.97,0,1.82,.85,1.82,1.82h0c0,.97-.85,1.82-1.82,1.82Z" fill="#f15822"/></g></g></svg>