<svg width="24" height="19" viewBox="0 0 24 19" fill="none" xmlns="http://www.w3.org/2000/svg">
<path fill-rule="evenodd" clip-rule="evenodd" d="M23.4419 10.7977L16.1698 18.2108C15.5723 18.7845 14.734 18.9379 14.0137 18.6192C13.2934 18.3028 12.8488 17.604 12.8488 16.7943L12.8488 13.9825L2.72817 12.5494C1.17881 12.344 6.82997e-07 10.97 8.24376e-07 9.35284C8.36553e-07 9.21355 0.00926484 9.0719 0.0254754 8.93261C0.250121 7.4736 1.3664 6.34747 2.73975 6.17041L12.8488 4.6996L12.8488 2.01058C12.8488 1.19137 13.3212 0.461858 14.0508 0.152587C14.7849 -0.156686 15.5978 0.0109341 16.1698 0.594066L23.4419 8.00716C23.8008 8.37545 24 8.87123 24 9.40242C24 9.93361 23.8008 10.4294 23.4419 10.7977Z" fill="#4C97FF"/>
</svg>
