<?xml version="1.0" encoding="UTF-8"?><svg id="Layer_2" xmlns="http://www.w3.org/2000/svg" xmlns:xlink="http://www.w3.org/1999/xlink" viewBox="0 0 272.19 197.08"><defs><mask id="mask" x="114.68" y="9.86" width="104.81" height="66.49" maskUnits="userSpaceOnUse"/><mask id="mask-1" x="114.68" y="33.09" width="142.93" height="43.62" maskUnits="userSpaceOnUse"/></defs><g id="Layer_1-2"><g><path d="M117.67,197.08c63.28,0,136.82-18.47,149.84-75.43,13.02-56.96,5.63-88.69-111.47-116.4C38.94-22.46-11.95,66.31,2.35,112.36c14.31,46.05,52.04,84.72,115.32,84.72Z" fill="#f9a44e" fill-rule="evenodd" isolation="isolate" opacity=".25"/><g><g><path d="M51.03,120.09c-6.45,1.14-12.05,0-12.5-2.56s4.42-5.54,10.87-6.68c6.45-1.14,12.05,0,12.5,2.56s-4.42,5.54-10.87,6.68ZM17.44,83.86c-4.45,14.06,33.43,2.82,34.43,9.64,1.01,6.82-46.25,8.55-49.7,28.31-4.7,26.91,144.95,18.53,148.7-36.23,2.45-35.83-126.82-22.58-133.43-1.72Z" fill="#b58d66" fill-rule="evenodd"/><path d="M50.73,118.42c-6.45,1.14-12.05,0-12.5-2.55-.45-2.55,4.42-5.54,10.87-6.68,6.45-1.14,12.05,0,12.5,2.56s-4.42,5.54-10.87,6.68ZM17.14,82.19c-4.45,14.06,33.43,2.82,34.43,9.64,1.01,6.82-46.25,8.55-49.7,28.31-4.7,26.92,144.95,18.53,148.7-36.23,2.45-35.83-126.82-22.58-133.43-1.72Z" fill="#e4c498" fill-rule="evenodd"/><path d="M71.42,74.79c.31,1.75-3.68,3.92-8.91,4.84s-9.72,.25-10.02-1.5,3.13-7.05,8.35-7.97,10.27,2.88,10.58,4.63Z" fill="#628fca" fill-rule="evenodd"/><path d="M98.93,73.76c.31,1.75-3.68,3.92-8.91,4.84-5.23,.92-9.72,.25-10.02-1.5s3.13-7.05,8.35-7.97c5.23-.92,10.27,2.88,10.58,4.63Z" fill="#7e69af" fill-rule="evenodd"/><path d="M125.29,75.05c.31,1.76-3.68,3.92-8.91,4.85-5.23,.92-9.72,.25-10.02-1.51s3.12-7.05,8.35-7.97c5.23-.92,10.27,2.88,10.58,4.63Z" fill="#febf10" fill-rule="evenodd"/><path d="M105.05,90.09c.31,1.75-3.68,3.92-8.91,4.84-5.23,.92-9.72,.25-10.03-1.5s3.13-7.05,8.35-7.97c5.23-.92,10.27,2.88,10.58,4.63Z" fill="#25b78a" fill-rule="evenodd"/><path d="M141.17,86.56c.31,1.76-3.68,3.92-8.91,4.85-5.23,.92-9.72,.25-10.02-1.51s3.13-7.05,8.35-7.97c5.23-.92,10.27,2.88,10.58,4.63Z" fill="#f26724" fill-rule="evenodd"/></g><g><g mask="url(#mask)"><path d="M114.68,75.39s31.59-50.99,104.74-56.71c-1.45-4.84-5.98-8.13-11.03-7.93-69.82,2.72-93.71,64.65-93.71,64.65Z" fill="#f15b22" fill-rule="evenodd"/></g><g opacity=".15"><path d="M217.62,15.09c.79,1.05,1.41,2.26,1.8,3.58-57.65,4.59-89.08,38.19-99.33,51.41-.89,.69-1.63,1.27-2.21,1.73-.96,.77-1.49,1.21-1.55,1.27,.09-.22,3.08-7.42,10.53-16.68,0,0,0,0,0,0,13.25-16.48,40.6-39.48,90.76-41.3Z" fill="#010101" fill-rule="evenodd"/></g><path d="M114.68,75.39s51.32-43,115.29-46.76c3.28-.19,5.72-3.11,5.28-6.36-.37-2.74-2.67-4.8-5.43-4.88-89.99-2.68-115.14,58.01-115.14,58.01Z" fill="#faa31b" fill-rule="evenodd"/><g opacity=".15"><path d="M235.28,23.47c-.22,2.74-2.44,4.99-5.31,5.16-21.72,1.27-41.98,7.07-59.27,14.18-28.3,7.23-44.2,17.8-51.58,24.5,3.74-5.85,10.05-14.12,19.77-22.26,17.03-10.9,45.98-20.67,96.39-21.59Z" fill="#010101" fill-rule="evenodd"/></g><path d="M114.68,75.39c5.18-7.38,38.47-37.6,128.6-37.15,3.17,.02,5.76-2.54,5.79-5.71,.03-3.2-2.56-5.82-5.76-5.82-104.14-.06-122.48,36.1-128.62,48.68Z" fill="#00aa7e" fill-rule="evenodd"/><g opacity=".15"><path d="M248.88,31.02c.12,.48,.19,.98,.18,1.51-.03,3.17-2.57,5.73-5.68,5.71-50.32-.25-82.58,9.43-101.98,19.18-10.66,3.93-16.89,7.96-20.35,10.8-2.74,2.25-3.74,3.75-3.82,3.87,.08-.28,2.45-8.16,14.83-16.94,16.16-11.47,49.38-24.47,116.81-24.12Z" fill="#010101" fill-rule="evenodd"/></g><path d="M241.94,38.25c3.56,.1,6.39,3.03,6.35,6.58v.1c-.02,1.02-.29,1.99-.73,2.83-37.09-.4-64.09,2.37-83.65,6.28-25.22,3.94-38.86,10.68-44.6,16.88,0,0,0,0,0,0-.37,.39-.7,.79-1.01,1.18,.22-.29,.44-.59,.67-.91,7.42-10.29,25.34-35.7,122.97-32.94Z" fill="#0090c8" fill-rule="evenodd"/><g mask="url(#mask-1)"><path d="M114.68,75.39s18.78-29.38,136.03-27.58c3.74,.06,6.81-2.93,6.84-6.67,.03-3.66-2.86-6.68-6.52-6.79-124.38-1.15-136.35,41.04-136.35,41.04Z" fill="#439dc4" fill-rule="evenodd"/></g><path d="M232.43,47.24c1.93,.24,3.62,1.19,4.82,2.56,1.02,1.17,1.68,2.64,1.85,4.25-.29,.03-.59,.03-.89,.02-73.58-3.45-108.12,7.45-120.22,17.8h0c-.53,.3-.96,.55-1.28,.74-.47,.28-.72,.45-.76,.47,.07-.11,1.23-1.85,3.9-4.43,0,0,.01-.02,.02-.02,9.88-9.51,40.33-30.22,112.56-21.39Z" fill="#b44483" fill-rule="evenodd"/><g opacity=".15"><path d="M241.94,38.25c3.56,.1,6.39,3.03,6.35,6.58v.1c-.02,1.02-.29,1.99-.73,2.83-37.09-.4-64.09,2.37-83.65,6.28-25.77,5.15-38.62,12.31-44.6,16.88,0,0,0,0,0,0-.11,.09-.22,.17-.33,.26,7.43-10.29,25.34-35.7,122.97-32.94Z" fill="#010101" fill-rule="evenodd"/></g><path d="M114.68,75.39c8-11.18,41.52-25.17,123.53-21.32,3.65,.17,6.73-2.69,6.82-6.34,.09-3.6-2.76-6.57-6.35-6.67-102.41-2.9-117.11,25.21-124,34.34Z" fill="#b862a7" fill-rule="evenodd"/><g opacity=".15"><path d="M232.43,47.24c1.93,.24,3.62,1.19,4.82,2.56,1.02,1.17,1.68,2.64,1.85,4.25-.29,.03-.59,.03-.89,.02-73.58-3.45-108.12,7.45-120.22,17.8h0c-1.19,1.03-2.17,2.04-2.95,3.04,.5-.68,1.05-1.45,1.66-2.29,.88-1.19,1.9-2.53,3.14-3.96,0,0,.01-.02,.02-.02,9.88-9.51,40.33-30.22,112.56-21.39Z" fill="#010101" fill-rule="evenodd"/></g><path d="M114.68,75.39s37.19-25.03,114.16-10.69c4.68,.87,9.01-2.71,9.05-7.47,.04-3.89-2.85-7.21-6.71-7.68-92.53-11.32-116.5,25.84-116.5,25.84Z" fill="#f0597e" fill-rule="evenodd"/></g><g><path d="M136.28,119.67c-7.08,19.46,8.37,42.94,34.52,52.46,26.15,9.52,53.09,1.46,60.17-18l11.99-32.93-94.69-34.46c-3.27,8.98-7.26,19.96-11.98,32.93Z" fill="#f26724" fill-rule="evenodd"/><path d="M183.2,138.06l-13.05,35.85" fill="none" stroke="#e45125" stroke-linecap="round" stroke-linejoin="round" stroke-width="1.1"/><path d="M218.04,140.55l-13.05,35.85" fill="none" stroke="#e45125" stroke-linecap="round" stroke-linejoin="round" stroke-width="1.1"/><path d="M154.91,117.57l-13.05,35.85" fill="none" stroke="#e45125" stroke-linecap="round" stroke-linejoin="round" stroke-width="1.1"/><path d="M244.6,121.35l-13.05,35.85" fill="none" stroke="#e45125" stroke-linecap="round" stroke-linejoin="round" stroke-width="1.1"/><path d="M153.53,133.06c.76-2.08-.31-4.37-2.39-5.12-2.08-.76-4.37,.31-5.13,2.39l-1.63,4.48c-.76,2.08,.31,4.37,2.39,5.13,2.08,.75,4.37-.31,5.13-2.39l1.63-4.48Z" fill="#010101"/><path d="M153.53,133.06c.76-2.08-.31-4.37-2.39-5.12-2.08-.76-4.37,.31-5.13,2.39l-1.63,4.48c-.76,2.08,.31,4.37,2.39,5.13,2.08,.75,4.37-.31,5.13-2.39l1.63-4.48Z" fill="#e7f0fa"/><path d="M216.66,156.04c.76-2.08-.31-4.37-2.39-5.13-2.08-.76-4.37,.31-5.13,2.39l-1.63,4.48c-.75,2.08,.31,4.37,2.39,5.12,2.08,.76,4.37-.31,5.13-2.39l1.63-4.48Z" fill="#010101"/><path d="M216.66,156.04c.76-2.08-.31-4.37-2.39-5.13-2.08-.76-4.37,.31-5.13,2.39l-1.63,4.48c-.75,2.08,.31,4.37,2.39,5.12,2.08,.76,4.37-.31,5.13-2.39l1.63-4.48Z" fill="#e7f0fa"/><path d="M181.82,153.54c.76-2.08-.31-4.37-2.39-5.13-2.08-.75-4.37,.31-5.13,2.39l-1.63,4.48c-.76,2.08,.31,4.37,2.39,5.13,2.08,.75,4.37-.31,5.13-2.39l1.63-4.48Z" fill="#010101"/><path d="M181.82,153.54c.76-2.08-.31-4.37-2.39-5.13-2.08-.75-4.37,.31-5.13,2.39l-1.63,4.48c-.76,2.08,.31,4.37,2.39,5.13,2.08,.75,4.37-.31,5.13-2.39l1.63-4.48Z" fill="#e7f0fa"/><path d="M140.54,98.61l1.5,.55c.83,.3,1.26,1.22,.96,2.05l-3.27,8.99c-.3,.83-1.22,1.26-2.05,.96l-1.5-.55c-1.66-.6-2.52-2.44-1.91-4.1l2.18-5.98c.6-1.66,2.44-2.52,4.1-1.91Z" fill="#010101"/><path d="M140.54,98.61l1.5,.55c.83,.3,1.26,1.22,.96,2.05l-3.27,8.99c-.3,.83-1.22,1.26-2.05,.96l-1.5-.55c-1.66-.6-2.52-2.44-1.91-4.1l2.18-5.98c.6-1.66,2.44-2.52,4.1-1.91Z" fill="#e7f0fa"/><path d="M239.74,134.71l1.5,.55c1.66,.6,2.52,2.44,1.91,4.1l-2.18,5.98c-.6,1.66-2.44,2.52-4.1,1.91l-1.5-.55c-.83-.3-1.26-1.22-.96-2.05l3.27-8.99c.3-.83,1.22-1.26,2.05-.96Z" fill="#010101"/><path d="M239.74,134.71l1.5,.55c1.66,.6,2.52,2.44,1.91,4.1l-2.18,5.98c-.6,1.66-2.44,2.52-4.1,1.91l-1.5-.55c-.83-.3-1.26-1.22-.96-2.05l3.27-8.99c.3-.83,1.22-1.26,2.05-.96Z" fill="#e7f0fa"/><path d="M144.11,98.15c-7.08,19.46,8.37,42.94,34.52,52.46,26.15,9.52,53.09,1.46,60.17-18l3.39-9.3-94.69-34.46c2.46-6.77,1.34-3.67-3.39,9.3Z" fill="rgba(1,1,1,.1)" fill-rule="evenodd"/><path d="M183.25,137.92c25.32,9.21,51.34,1.58,58.12-17.04,6.78-18.63-8.25-41.2-33.57-50.41-25.32-9.21-51.34-1.59-58.12,17.04-6.78,18.63,8.25,41.2,33.57,50.41Z" fill="#fff" stroke="#e45125" stroke-width="1.1"/><path d="M186.25,129.68c19.09,6.95,38.72,1.17,43.84-12.9,5.12-14.07-6.2-31.12-25.29-38.07-19.09-6.95-38.72-1.17-43.84,12.9-5.12,14.07,6.2,31.12,25.29,38.07Z" fill="none" stroke="rgba(1,1,1,.15)" stroke-width=".55"/><path d="M202.56,96.67c4.02-2.38,5.22,6.96,8.93,13.23,3.71,6.27,25.81,39.19,30.13,46.48,2.88,4.86,3.4,7.84,1.57,8.93-1.84,1.08-4.2-.81-7.08-5.67-4.32-7.29-22.54-42.51-26.25-48.78-3.71-6.27-11.32-11.81-7.3-14.19Z" fill="#ca992c" fill-rule="evenodd"/><path d="M181.86,113.18c4.04,2.33-3.5,7.96-7.15,14.27-3.64,6.31-21.48,41.72-25.72,49.06-2.83,4.89-5.16,6.81-7.01,5.75-1.84-1.07-1.35-4.06,1.47-8.95,4.24-7.34,25.98-40.49,29.63-46.8,3.64-6.31,4.74-15.66,8.78-13.33Z" fill="#ca992c" fill-rule="evenodd"/></g></g><path d="M147.57,135.27c-11.52,2.68-8.57,15.39-11.45,16.06s-4.67-6.96-7.55-6.29,1.85,21.01-1.03,21.69-6.43-14.58-9.31-13.91-.52,10.84-3.41,11.51-6.43-14.59-12.19-13.25c-2.88,.67-1.7,5.76-4.58,6.43-.68,.16-1.33-.28-2.04-1.02-3.35-3.5-9.25-1.52-9.62,3.32-.23,2.99-.33,5.44-1.38,5.69-2.67,.62-4.4-6.81-7.06-6.19-5.35,1.24-.16,23.56-2.83,24.18s-6.13-14.26-8.81-13.64,2.52,22.94-.15,23.56-9.59-29.13-12.26-28.51-.08,11.78-2.74,12.4-7-17.98-17.69-15.49c10.69-2.49,6.36-21.09,9.04-21.71s5.26,10.54,7.93,9.92-4.25-30.37-1.57-30.99,7.86,21.7,10.54,21.07-.79-15.5,1.89-16.12,7.86,21.69,13.21,20.44c2.66-.62,.93-8.05,3.61-8.67,1.05-.24,2.22,1.91,3.75,4.5,2.46,4.17,8.63,3.36,10.09-1.26,.31-.97,.7-1.66,1.38-1.81,2.88-.67,4.06,4.41,6.94,3.74,5.76-1.34,2.21-16.6,5.09-17.27s5.26,9.5,8.14,8.83-.67-15.93,2.21-16.6,7.61,19.67,10.49,19,1.11-8.3,4-8.97,5.84,12.04,17.36,9.36Z" fill="#b76bab" fill-rule="evenodd"/></g></g></svg>