<svg width="18" height="17" viewBox="0 0 18 17" fill="none" xmlns="http://www.w3.org/2000/svg">
<rect x="2" y="0.0300293" width="15" height="16" fill="#606060"/>
<path d="M15 7.03003H13.5V6.53003H11.5V9.53003H13.5V9.03003H15V10.03C15 10.2952 14.8946 10.5496 14.7071 10.7371C14.5196 10.9247 14.2652 11.03 14 11.03H11C10.7348 11.03 10.4804 10.9247 10.2929 10.7371C10.1054 10.5496 10 10.2952 10 10.03V6.03003C10 5.76481 10.1054 5.51046 10.2929 5.32292C10.4804 5.13539 10.7348 5.03003 11 5.03003H14C14.2652 5.03003 14.5196 5.13539 14.7071 5.32292C14.8946 5.51046 15 5.76481 15 6.03003M8 7.03003H6.5V6.53003H4.5V9.53003H6.5V9.03003H8V10.03C8 10.2952 7.89464 10.5496 7.70711 10.7371C7.51957 10.9247 7.26522 11.03 7 11.03H4C3.73478 11.03 3.48043 10.9247 3.29289 10.7371C3.10536 10.5496 3 10.2952 3 10.03V6.03003C3 5.76481 3.10536 5.51046 3.29289 5.32292C3.48043 5.13539 3.73478 5.03003 4 5.03003H7C7.26522 5.03003 7.51957 5.13539 7.70711 5.32292C7.89464 5.51046 8 5.76481 8 6.03003M16 0.0300293H2C0.89 0.0300293 0 0.920029 0 2.03003V14.03C0 14.5605 0.210714 15.0692 0.585786 15.4442C0.960859 15.8193 1.46957 16.03 2 16.03H16C16.5304 16.03 17.0391 15.8193 17.4142 15.4442C17.7893 15.0692 18 14.5605 18 14.03V2.03003C18 1.4996 17.7893 0.990888 17.4142 0.615816C17.0391 0.240743 16.5304 0.0300293 16 0.0300293Z" fill="#F4F4F4"/>
</svg>
