<svg width="140" height="110" viewBox="0 0 140 110" fill="none" xmlns="http://www.w3.org/2000/svg">
<g clip-path="url(#clip0_2_749)">
<path opacity="0.15" fill-rule="evenodd" clip-rule="evenodd" d="M55 102.36C23.62 102.06 -6.70002 64.7 2.64998 39.56C12.01 14.43 29.31 -0.300021 60.69 -2.09711e-05C92.07 0.299979 118.24 30.85 123.1 63.38C127.97 95.91 86.38 102.65 55 102.35V102.36ZM22.16 108.18C17.61 111.53 10.57 104.29 6.26998 99.23C1.96998 94.17 3.61998 88.8 7.47998 88.84C10.12 88.87 12.94 91.03 15.54 93.07L15.79 93.27C16.89 94.13 17.95 94.96 18.93 95.57C22.3 97.67 26.71 104.83 22.16 108.18Z" fill="#628EC9"/>
<path d="M139.01 57.4C138.99 65.5 133.84 71.28 126.28 73.12C118.11 75.11 111.03 76.27 93.01 78.16C74.39 80.12 67.76 80.36 59.32 80.15C51.29 79.95 45.15 75.44 43.6 67.42C43.28 65.76 41.85 60.53 40.91 51.64C40.24 45.22 40.47 38.9 40.44 37.34C40.3 29.32 45.38 23.67 53.17 21.62C61.33 19.47 67.42 18.32 86.51 16.31C105.55 14.31 111.72 14.38 120.13 14.58C128.33 14.78 134.34 19.13 135.85 27.31C136.14 28.9 137.59 34.09 138.44 42.16C139.31 50.45 139.01 55.76 139.01 57.39V57.4Z" fill="#FF0000"/>
<path d="M84.33 59.9L104.45 45.28L81.73 35.16L84.33 59.9Z" fill="white"/>
</g>
<defs>
<clipPath id="clip0_2_749">
<rect width="138.14" height="109.03" fill="white" transform="translate(0.929993)"/>
</clipPath>
</defs>
</svg>
