<svg id="Layer_1" data-name="Layer 1" xmlns="http://www.w3.org/2000/svg" width="13.01" height="13.24" viewBox="0 0 13.01 13.24"><title>event-icon</title><path d="M12.26,1a1.25,1.25,0,0,0-1.32.18,2.9,2.9,0,0,1-3.55,0A5.52,5.52,0,0,0,1.74.47,0.82,0.82,0,0,0,1,0H0.83A0.83,0.83,0,0,0,0,.83V12.41a0.83,0.83,0,0,0,.83.83H1a0.83,0.83,0,0,0,.83-0.83V9.19A0.85,0.85,0,0,0,2.35,9a2.85,2.85,0,0,1,3.41.09,5.35,5.35,0,0,0,6.8,0,1.27,1.27,0,0,0,.45-1v-6A1.26,1.26,0,0,0,12.26,1Zm-1,6.93A3.75,3.75,0,0,1,6.84,7.8a4.62,4.62,0,0,0-5-.46v-5a3.74,3.74,0,0,1,4.48.12,4.58,4.58,0,0,0,5,.46v5Z" fill="#929497"/></svg>