<svg id="Layer_1" data-name="Layer 1" xmlns="http://www.w3.org/2000/svg" viewBox="0 0 16 16"><title>conf</title><path d="M3.55,13.66a0.5,0.5,0,0,1-.5-0.5V9.41A0.5,0.5,0,0,1,3.25,9a4,4,0,0,1,4.81.12,3.84,3.84,0,0,0,4.7,0V3.79A4,4,0,0,1,8,3.67a3.81,3.81,0,0,0-4-.45,0.5,0.5,0,1,1-.45-0.89,4.83,4.83,0,0,1,5.13.57,3,3,0,0,0,3.72,0,0.9,0.9,0,0,1,.94-0.13,0.86,0.86,0,0,1,.53.8V9.23a0.86,0.86,0,0,1-.32.67,4.87,4.87,0,0,1-6,0,3,3,0,0,0-3.38-.23v3.49A0.5,0.5,0,0,1,3.55,13.66Zm9.39-10h0Z" fill="#929497"/><path d="M3.55,13.66a0.5,0.5,0,0,1-.5-0.5V1.78a0.5,0.5,0,0,1,1,0V13.16A0.5,0.5,0,0,1,3.55,13.66Z" fill="#929497"/></svg>