<svg id="Layer_1" data-name="Layer 1" xmlns="http://www.w3.org/2000/svg" width="13.46" height="19.12" viewBox="0 0 13.46 19.12"><defs><style>.cls-1{fill:#929497;}</style></defs><title>location-icon</title><path class="cls-1" d="M12,21.56a1.25,1.25,0,0,1-1.22-1,15.77,15.77,0,0,0-3.16-5.91A14.75,14.75,0,0,1,6.46,13,6.57,6.57,0,0,1,5.27,9.17a6.73,6.73,0,1,1,12.22,3.9,14,14,0,0,1-1.11,1.58,15.8,15.8,0,0,0-3.17,5.95A1.24,1.24,0,0,1,12,21.56ZM12,4.14a5,5,0,0,0-4.1,7.94A14.34,14.34,0,0,0,9,13.63a19.24,19.24,0,0,1,3,5.13,19.21,19.21,0,0,1,3-5.14,13.8,13.8,0,0,0,1-1.46,5.12,5.12,0,0,0,1-3A5,5,0,0,0,12,4.14Z" transform="translate(-5.27 -2.44)"/><path class="cls-1" d="M12,12.39a3,3,0,1,1,3-3A3,3,0,0,1,12,12.39Zm0-4.86a1.83,1.83,0,1,0,1.83,1.83A1.83,1.83,0,0,0,12,7.54Z" transform="translate(-5.27 -2.44)"/></svg>