<svg id="Layer_1" data-name="Layer 1" xmlns="http://www.w3.org/2000/svg" viewBox="0 0 16 16"><title>conf</title><path d="M8,14.53A11.14,11.14,0,0,1,4.3,14c-1.6-.59-1.93-1.45-1.93-2.06A5.57,5.57,0,0,1,3.7,8.27a0.5,0.5,0,1,1,.76.65,4.59,4.59,0,0,0-1.09,3c0,0.89,2.08,1.62,4.63,1.62s4.63-.73,4.63-1.62a4.59,4.59,0,0,0-1.09-3,0.5,0.5,0,1,1,.76-0.64,5.58,5.58,0,0,1,1.33,3.64C13.63,13.72,10.8,14.53,8,14.53Z" fill="#929497"/><path d="M8,8.81a3.55,3.55,0,1,1,3.55-3.55A3.55,3.55,0,0,1,8,8.81Zm0-6.1a2.55,2.55,0,1,0,2.55,2.55A2.55,2.55,0,0,0,8,2.71Z" fill="#929497"/></svg>