<svg id="Layer_1" data-name="Layer 1" xmlns="http://www.w3.org/2000/svg" width="15.45" height="19.32" viewBox="0 0 15.45 19.32"><defs><style>.cls-1{fill:#929497;}</style></defs><title>facilitator-icon</title><path class="cls-1" d="M16,10.13a4.91,4.91,0,1,0-8.9-2.87A4.86,4.86,0,0,0,8,10.13a8.92,8.92,0,0,0-3.75,7.44c0,1.35.95,2.49,2.67,3.22a13.65,13.65,0,0,0,5.06.87c3.84,0,7.72-1.26,7.72-4.09A8.94,8.94,0,0,0,16,10.13ZM12,4A3.21,3.21,0,0,1,14.08,9.7a3.29,3.29,0,0,1-3.53.41,2.61,2.61,0,0,1-.4-0.23L9.91,9.69A3.21,3.21,0,0,1,12,4ZM12,20c-3.38,0-6-1-6-2.39a7.15,7.15,0,0,1,3.3-6.23l0.06,0,0.25,0.15a4.53,4.53,0,0,0,1,.42L10.93,12a5.5,5.5,0,0,0,2.14,0L13.42,12a4.53,4.53,0,0,0,1-.42l0.25-.15,0.06,0A7.16,7.16,0,0,1,18,17.57C18,18.91,15.38,20,12,20Z" transform="translate(-4.27 -2.34)"/><path class="cls-1" d="M14.41,11.53a4.75,4.75,0,0,1-1,.42A4.53,4.53,0,0,0,14.41,11.53ZM10.93,12a4.47,4.47,0,0,0,2.14,0A5.5,5.5,0,0,1,10.93,12ZM10.58,12a4.75,4.75,0,0,1-1-.42A4.53,4.53,0,0,0,10.58,12Z" transform="translate(-4.27 -2.34)"/></svg>