<svg id="Layer_1" data-name="Layer 1" xmlns="http://www.w3.org/2000/svg" width="13.12" height="13.12" viewBox="0 0 13.12 13.12"><defs><style>.cls-1{fill:#929497;}</style></defs><title>time-icon</title><path class="cls-1" d="M12,5.44A6.56,6.56,0,1,0,18.56,12,6.57,6.57,0,0,0,12,5.44Zm0,11.45A4.89,4.89,0,1,1,16.89,12,4.9,4.9,0,0,1,12,16.89Z" transform="translate(-5.44 -5.44)"/><path class="cls-1" d="M14.5,12a0.59,0.59,0,0,1-.59.6H12a0.6,0.6,0,0,1-.6-0.6V8.57a0.6,0.6,0,0,1,1.2,0V11.4h1.31A0.59,0.59,0,0,1,14.5,12Z" transform="translate(-5.44 -5.44)"/></svg>