<svg id="Layer_1" data-name="Layer 1" xmlns="http://www.w3.org/2000/svg" viewBox="0 0 16 16"><title>conf</title><path d="M8,14.41A6.41,6.41,0,1,1,14.41,8,6.41,6.41,0,0,1,8,14.41ZM8,2.59A5.41,5.41,0,1,0,13.41,8,5.41,5.41,0,0,0,8,2.59Z" fill="#929497"/><path d="M8,8.71a0.5,0.5,0,0,1-.5-0.5V5.29a0.5,0.5,0,1,1,1,0V8.21A0.5,0.5,0,0,1,8,8.71Z" fill="#929497"/><path d="M10,8.71H8a0.5,0.5,0,0,1,0-1h2A0.5,0.5,0,0,1,10,8.71Z" fill="#929497"/><circle cx="8" cy="3.69" r="0.5" fill="#929497"/><path d="M8,12.81a0.5,0.5,0,1,1,.5-0.5A0.5,0.5,0,0,1,8,12.81Zm0-.5H8Z" fill="#929497"/><path d="M5.84,4.77a0.5,0.5,0,0,1-.25-0.93A0.49,0.49,0,0,1,6,3.78a0.5,0.5,0,0,1,.3.23h0A0.5,0.5,0,0,1,5.84,4.77Z" fill="#929497"/><path d="M10.16,12.24l-0.13,0a0.5,0.5,0,0,1-.35-0.61,0.49,0.49,0,0,1,.23-0.3,0.5,0.5,0,0,1,.68.18h0a0.5,0.5,0,0,1-.18.68A0.5,0.5,0,0,1,10.16,12.24Z" fill="#929497"/><path d="M4.26,6.34A0.5,0.5,0,0,1,3.78,6a0.49,0.49,0,0,1,.05-0.38,0.5,0.5,0,0,1,.68-0.18h0a0.5,0.5,0,0,1-.12.92Zm0.13-.72-0.13.22Z" fill="#929497"/><path d="M11.73,10.66a0.49,0.49,0,0,1-.25-0.07,0.5,0.5,0,0,1-.18-0.68,0.49,0.49,0,0,1,.3-0.23,0.5,0.5,0,0,1,.38,0h0A0.5,0.5,0,0,1,11.73,10.66Z" fill="#929497"/><circle cx="3.69" cy="8" r="0.5" fill="#929497"/><circle cx="12.31" cy="8" r="0.5" fill="#929497"/><path d="M4.27,10.66a0.5,0.5,0,0,1-.43-0.25A0.5,0.5,0,0,1,4,9.72H4a0.5,0.5,0,0,1,.38,0,0.49,0.49,0,0,1,.3.23A0.5,0.5,0,0,1,4.27,10.66ZM4.14,9.94l0.12,0.22h0Z" fill="#929497"/><path d="M11.74,6.34l-0.13,0a0.5,0.5,0,0,1-.12-0.92h0a0.5,0.5,0,0,1,.68.18A0.5,0.5,0,0,1,11.74,6.34Zm-0.13-.72,0.13,0.22h0Z" fill="#929497"/><path d="M5.84,12.24a0.5,0.5,0,0,1-.25-0.07,0.5,0.5,0,0,1-.18-0.68h0a0.5,0.5,0,0,1,.68-0.18,0.5,0.5,0,0,1,.18.68,0.5,0.5,0,0,1-.31.23Z" fill="#929497"/><path d="M10.16,4.77A0.49,0.49,0,0,1,9.91,4.7,0.5,0.5,0,0,1,9.72,4h0a0.5,0.5,0,0,1,.68-0.18A0.5,0.5,0,0,1,10.16,4.77Z" fill="#929497"/></svg>