<?xml version="1.0" encoding="utf-8"?>
<!-- Generator: Adobe Illustrator 21.0.0, SVG Export Plug-In . SVG Version: 6.00 Build 0)  -->
<svg version="1.1" id="Layer_1" xmlns="http://www.w3.org/2000/svg" xmlns:xlink="http://www.w3.org/1999/xlink" x="0px" y="0px"
	 viewBox="0 0 22.1 19.1" style="enable-background:new 0 0 22.1 19.1;" xml:space="preserve">
<style type="text/css">
	.st0{fill:#51ABF4;}
</style>
<title>AudienceIcon</title>
<path class="st0" d="M18.3,7.9c0.7-0.9,1-1.9,1-3c0-2.6-2-4.7-4.6-4.9v0.8l0,0V0l0,0c-2.7,0-4.9,2.2-4.9,4.8c0,0,0,0,0,0
	c0,1,0.3,2,0.9,2.9c-0.6,0.4-1.2,0.9-1.7,1.4C8.8,8.7,8.4,8.4,8,8.1c0.4-0.5,0.6-1.2,0.6-1.8c0.1-1.8-1.3-3.3-3-3.4
	c-0.1,0-0.2,0-0.3,0l0,0c-1.8,0-3.3,1.5-3.3,3.4c0,0.6,0.2,1.3,0.5,1.8C0.9,9.2,0,11,0,12.9c0.1,1.1,0.8,1.9,1.8,2.3
	c1.1,0.4,2.2,0.6,3.3,0.6c0.6,0,1.2-0.1,1.8-0.1c0.4,1.2,1.3,2.2,2.6,2.6c1.6,0.6,3.3,0.9,5,0.9c1.7,0,3.4-0.3,5-0.9
	c1.4-0.6,2.6-1.6,2.6-3.1C22.1,12.2,20.7,9.5,18.3,7.9z M14.7,1.5c1.8,0.1,3.2,1.6,3.2,3.4c0,0.7-0.3,1.5-0.8,2l0.1-0.1l-0.6,0.6
	c-0.6,0.5-1.3,0.8-2.1,0.7c-0.7,0-1.5-0.3-2-0.8l0,0c-0.8-0.6-1.2-1.5-1.2-2.5C11.4,3,12.9,1.5,14.7,1.5z M5.2,4.4L5.2,4.4V3.6l0,0
	V4.4C6.2,4.3,7,5.1,7,6c0,0.1,0,0.1,0,0.2C7,6.6,6.9,7,6.6,7.4l0,0L6.3,7.7C6,8,5.6,8.1,5.2,8.1C4.7,8.1,4.3,7.9,4,7.7L3.9,7.6
	C3.5,7.3,3.3,6.8,3.4,6.2C3.3,5.2,4.1,4.4,5.2,4.4C5.2,4.4,5.2,4.4,5.2,4.4z M6.9,14.1c-0.6,0.1-1.2,0.2-1.8,0.2
	c-0.9,0-1.9-0.1-2.8-0.4c-0.7-0.3-0.9-0.6-0.9-0.9c0-1.5,0.7-3,2-3.8C4,9.5,4.6,9.6,5.2,9.6h0.1c0.6,0,1.2-0.1,1.7-0.4
	c0.5,0.3,0.9,0.8,1.2,1.3C7.5,11.6,7.1,12.8,6.9,14.1z M9.9,10.5c0.5-0.7,1.1-1.2,1.9-1.7c0.8,0.5,1.7,0.8,2.6,0.9h0.2
	c0.9,0,1.8-0.3,2.6-0.8c2.2,1.3,3.5,3.7,3.5,6.2c0,0.6-0.5,1.2-1.7,1.7c-1.4,0.5-2.9,0.8-4.5,0.8c-1.5,0-3-0.2-4.5-0.8
	c-1.1-0.5-1.6-1-1.6-1.6C8.4,13.6,8.9,11.9,9.9,10.5L9.9,10.5z"/>
</svg>
