<svg width="20" height="20" xmlns="http://www.w3.org/2000/svg" xmlns:xlink="http://www.w3.org/1999/xlink"><defs><path d="M6.403 11.673C7.312 10.715 8.588 10 10 10s2.688.715 3.597 1.673c.63-.91 1.695-1.673 2.903-1.673 1.933 0 3.5 1.953 3.5 3.333C20 14.714 18.433 15 16.5 15c-.542 0-1.055-.022-1.513-.085C14.801 16.635 12.639 17 10 17c-2.639 0-4.8-.366-4.987-2.085-.458.063-.971.085-1.513.085-1.933 0-3.5-.286-3.5-1.667C0 11.953 1.567 10 3.5 10c1.208 0 2.274.763 2.903 1.673zM3.66 9a2 2 0 1 1 0-4 2 2 0 0 1 0 4zm13 0a2 2 0 1 1 0-4 2 2 0 0 1 0 4zM10 9a3 3 0 1 1 0-6 3 3 0 0 1 0 6z" id="a"/></defs><g fill="none" fill-rule="evenodd"><mask id="b" fill="#fff"><use xlink:href="#a"/></mask><use fill="#575E75" xlink:href="#a"/><g mask="url(#b)" fill="#4D97FF"><path d="M0 0h20v20H0z"/></g></g></svg>