<svg width="23" height="20" viewBox="0 0 23 20" version="1.1" xmlns="http://www.w3.org/2000/svg" xmlns:xlink="http://www.w3.org/1999/xlink" xmlns:figma="http://www.figma.com/figma/ns">
<title>AudienceIcon</title>
<desc>Created using Figma</desc>
<g id="Canvas" transform="translate(18383 7173)" figma:type="canvas">
<g id="AudienceIcon" style="mix-blend-mode:normal;" figma:type="frame">
<g id="Group" style="mix-blend-mode:normal;" figma:type="frame">
<g id="Vector" style="mix-blend-mode:normal;" figma:type="vector">
<use xlink:href="#path0_fill" transform="translate(-18382.2 -7164.25)" fill="#FFFFFF" style="mix-blend-mode:normal;"/>
<use xlink:href="#path1_stroke" transform="translate(-18382.2 -7164.25)" fill="#51ABF4" style="mix-blend-mode:normal;"/>
</g>
<g id="Vector" style="mix-blend-mode:normal;" figma:type="vector">
<use xlink:href="#path2_fill" transform="translate(-18380.3 -7168.86)" fill="#FFFFFF" style="mix-blend-mode:normal;"/>
<use xlink:href="#path3_stroke" transform="translate(-18380.3 -7168.86)" fill="#51ABF4" style="mix-blend-mode:normal;"/>
</g>
</g>
<g id="Group" style="mix-blend-mode:normal;" figma:type="frame">
<g id="Vector" style="mix-blend-mode:normal;" figma:type="vector">
<use xlink:href="#path4_fill" transform="translate(-18375.3 -7164.55)" fill="#FFFFFF" style="mix-blend-mode:normal;"/>
<use xlink:href="#path5_stroke" transform="translate(-18375.3 -7164.55)" fill="#51ABF4" style="mix-blend-mode:normal;"/>
</g>
<g id="Vector" style="mix-blend-mode:normal;" figma:type="vector">
<use xlink:href="#path6_fill" transform="translate(-18372.3 -7171.75)" fill="#FFFFFF" style="mix-blend-mode:normal;"/>
<use xlink:href="#path7_stroke" transform="translate(-18372.3 -7171.75)" fill="#51ABF4" style="mix-blend-mode:normal;"/>
</g>
</g>
</g>
</g>
<defs>
<path id="path0_fill" d="M 8.9 4.7C 8.9 7.5 1.19209e-08 7.5 1.19209e-08 4.7C 1.19209e-08 2.6 1.1 0.8 2.8 -1.90735e-07C 3.2 0.4 3.8 0.6 4.4 0.6C 5.1 0.6 5.7 0.4 6.1 -1.90735e-07C 7.7 0.7 8.9 2.6 8.9 4.7Z"/>
<path id="path1_stroke" d="M 2.8 -1.90735e-07L 3.33033 -0.53033L 2.9576 -0.90306L 2.48065 -0.678614L 2.8 -1.90735e-07ZM 6.1 -1.90735e-07L 6.40061 -0.687118L 5.93164 -0.892296L 5.56967 -0.53033L 6.1 -1.90735e-07ZM 8.15 4.7C 8.15 4.92893 7.97378 5.26688 7.21926 5.58338C 6.47018 5.90351 5.50405 6.05228 4.45 6.05C 3.39595 6.05228 2.42982 5.90351 1.68074 5.58338C 0.926219 5.26688 0.75 4.92893 0.75 4.7L -0.75 4.7C -0.75 5.87107 0.186281 6.58312 1.10051 6.96662C 2.02018 7.34649 3.27905 7.54772 4.45 7.55C 5.62095 7.54772 6.87982 7.34649 7.79949 6.96662C 8.71372 6.58312 9.65 5.87107 9.65 4.7L 8.15 4.7ZM 0.75 4.7C 0.75 2.86026 1.70854 1.34253 3.11935 0.678614L 2.48065 -0.678614C 0.491463 0.257475 -0.75 2.33974 -0.75 4.7L 0.75 4.7ZM 2.26967 0.53033C 2.84215 1.10281 3.65114 1.35 4.4 1.35L 4.4 -0.15C 3.94886 -0.15 3.55785 -0.30281 3.33033 -0.53033L 2.26967 0.53033ZM 4.4 1.35C 5.23182 1.35 6.04844 1.11222 6.63033 0.53033L 5.56967 -0.53033C 5.35156 -0.312217 4.96818 -0.15 4.4 -0.15L 4.4 1.35ZM 5.79939 0.687118C 7.08981 1.25168 8.15 2.85589 8.15 4.7L 9.65 4.7C 9.65 2.34411 8.31019 0.148322 6.40061 -0.687118L 5.79939 0.687118Z"/>
<path id="path2_fill" d="M 5.2 2.60583C 5.2 3.40583 4.8 4.10583 4.3 4.60583C 3.9 5.00583 3.3 5.20583 2.6 5.20583C 2 5.20583 1.4 5.00583 0.9 4.60583C 0.3 4.10583 -9.53674e-08 3.40583 -9.53674e-08 2.60583C -9.53674e-08 1.10583 1.2 0.00582733 2.6 0.00582733C 4.1 -0.0941727 5.2 1.10583 5.2 2.60583Z"/>
<path id="path3_stroke" d="M 0.9 4.60583L 0.419862 5.18199L 0.425623 5.18679L 0.431479 5.19148L 0.9 4.60583ZM 2.6 0.00582733L 2.6 0.755827L 2.62497 0.755827L 2.64989 0.754166L 2.6 0.00582733ZM 4.45 2.60583C 4.45 3.15041 4.17477 3.67039 3.76967 4.0755L 4.83033 5.13616C 5.42523 4.54126 5.95 3.66125 5.95 2.60583L 4.45 2.60583ZM 3.76967 4.0755C 3.55156 4.29361 3.16818 4.45583 2.6 4.45583L 2.6 5.95583C 3.43182 5.95583 4.24844 5.71804 4.83033 5.13616L 3.76967 4.0755ZM 2.6 4.45583C 2.12014 4.46551 1.75841 4.34701 1.36852 4.02018L 0.431479 5.19148C 1.04159 5.66464 1.87986 5.94614 2.6 5.95583L 2.6 4.45583ZM 1.38014 4.02966C 0.967577 3.68586 0.75 3.20557 0.75 2.60583L -0.75 2.60583C -0.75 3.60608 -0.367577 4.52579 0.419862 5.18199L 1.38014 4.02966ZM 0.75 2.60583C 0.75 1.53877 1.59523 0.755827 2.6 0.755827L 2.6 -0.744173C 0.804767 -0.744173 -0.75 0.672885 -0.75 2.60583L 0.75 2.60583ZM 2.64989 0.754166C 3.65043 0.687464 4.45 1.46998 4.45 2.60583L 5.95 2.60583C 5.95 0.741676 4.54957 -0.875809 2.55011 -0.742512L 2.64989 0.754166Z"/>
<path id="path4_fill" d="M 13.8 7.2C 13.8 11.5 -9.53674e-08 11.5 -9.53674e-08 7.2C -9.53674e-08 3.9 1.8 1.2 4.2 9.53674e-08C 4.9 0.6 5.8 1 6.8 1C 7.8 1 8.7 0.6 9.4 9.53674e-08C 12 1.2 13.8 4 13.8 7.2Z"/>
<path id="path5_stroke" d="M 4.2 9.53674e-08L 4.68809 -0.569442L 4.31 -0.893524L 3.86459 -0.67082L 4.2 9.53674e-08ZM 9.4 9.53674e-08L 9.71429 -0.680969L 9.27732 -0.882651L 8.91191 -0.569442L 9.4 9.53674e-08ZM 13.05 7.2C 13.05 7.79995 12.5733 8.42042 11.356 8.92615C 10.1469 9.43426 8.5671 9.67724 6.9 9.675C 5.2329 9.67724 3.65305 9.43426 2.444 8.92615C 1.22672 8.42042 0.75 7.79995 0.75 7.2L -0.75 7.2C -0.75 8.75005 0.498283 9.74209 1.8685 10.3114C 3.24695 10.8782 5.1171 11.1728 6.9 11.175C 8.6829 11.1728 10.5531 10.8782 11.9315 10.3114C 13.3017 9.74209 14.55 8.75005 14.55 7.2L 13.05 7.2ZM 0.75 7.2C 0.75 4.17377 2.39859 1.73923 4.53541 0.67082L 3.86459 -0.67082C 1.20141 0.660771 -0.75 3.62623 -0.75 7.2L 0.75 7.2ZM 3.71191 0.569443C 4.49944 1.23407 5.64431 1.73366 6.8 1.75L 6.8 0.25C 5.95569 0.266338 5.30056 -0.0340729 4.68809 -0.569442L 3.71191 0.569443ZM 6.8 1.75C 7.95569 1.73366 9.10056 1.23407 9.88809 0.569443L 8.91191 -0.569442C 8.29944 -0.034073 7.64431 0.266338 6.8 0.25L 6.8 1.75ZM 9.08571 0.68097C 11.405 1.75139 13.05 4.2755 13.05 7.2L 14.55 7.2C 14.55 3.7245 12.595 0.648606 9.71429 -0.680969L 9.08571 0.68097Z"/>
<path id="path6_fill" d="M 8 4.1C 8 5.3 7.4 6.4 6.6 7.2C 5.9 7.8 5 8.2 4 8.2C 3 8.2 2.1 7.8 1.4 7.2C 0.5 6.5 3.8147e-07 5.4 3.8147e-07 4.1C 3.8147e-07 1.9 1.8 -1.19209e-08 4.1 -1.19209e-08C 6.2 0.1 8 1.9 8 4.1Z"/>
<path id="path7_stroke" d="M 6.6 7.2L 7.08809 7.76944L 7.10996 7.7507L 7.13033 7.73033L 6.6 7.2ZM 1.4 7.2L 1.88809 6.63056L 1.87454 6.61894L 1.86046 6.60799L 1.4 7.2ZM 4.1 -1.19209e-08L 4.13567 -0.749151L 4.11785 -0.75L 4.1 -0.75L 4.1 -1.19209e-08ZM 7.25 4.1C 7.25 5.04863 6.77106 5.96828 6.06967 6.66967L 7.13033 7.73033C 8.02895 6.83172 8.75 5.55137 8.75 4.1L 7.25 4.1ZM 6.11191 6.63056C 5.49944 7.16593 4.84431 7.46634 4 7.45L 4 8.95C 5.15569 8.93366 6.30056 8.43407 7.08809 7.76944L 6.11191 6.63056ZM 4 7.45C 3.15569 7.46634 2.50056 7.16593 1.88809 6.63056L 0.911906 7.76944C 1.69944 8.43407 2.84431 8.93366 4 8.95L 4 7.45ZM 1.86046 6.60799C 1.16873 6.06998 0.75 5.20303 0.75 4.1L -0.75 4.1C -0.75 5.59698 -0.168731 6.93002 0.939544 7.79201L 1.86046 6.60799ZM 0.75 4.1C 0.75 2.30228 2.22605 0.75 4.1 0.75L 4.1 -0.75C 1.37395 -0.75 -0.75 1.49772 -0.75 4.1L 0.75 4.1ZM 4.06433 0.749151C 5.77351 0.830541 7.25 2.30937 7.25 4.1L 8.75 4.1C 8.75 1.49063 6.62649 -0.630541 4.13567 -0.749151L 4.06433 0.749151Z"/>
</defs>
</svg>
