<svg id="Layer_1" data-name="Layer 1" xmlns="http://www.w3.org/2000/svg" viewBox="0 0 32 32"><defs><style>.cls-1{fill:#51abf4;}</style></defs><title>AudienceIcon</title><path class="cls-1" d="M22.9,16a5,5,0,0,0,1.05-3,4.9,4.9,0,0,0-4.61-4.85l0,.75h0l0-.75h0A4.87,4.87,0,0,0,14.45,13a4.78,4.78,0,0,0,.9,2.86,8.16,8.16,0,0,0-1.67,1.45,5.36,5.36,0,0,0-1.1-1.08,3.37,3.37,0,0,0,.58-1.84A3.21,3.21,0,0,0,9.8,11h0a3.33,3.33,0,0,0-3.3,3.35A3.37,3.37,0,0,0,7,16.19a5.94,5.94,0,0,0-2.42,4.9A2.59,2.59,0,0,0,6.4,23.35a9.34,9.34,0,0,0,3.35.58,10.8,10.8,0,0,0,1.75-.15,3.86,3.86,0,0,0,2.57,2.61,14,14,0,0,0,5,.86,14,14,0,0,0,5-.86c1.37-.57,2.62-1.56,2.62-3.11A8.74,8.74,0,0,0,22.9,16ZM19.28,9.64A3.4,3.4,0,0,1,22.45,13a2.9,2.9,0,0,1-.77,2l.09-.08-.58.65a3.11,3.11,0,0,1-2.09.74,3,3,0,0,1-2-.81h0A3.06,3.06,0,0,1,15.95,13,3.37,3.37,0,0,1,19.28,9.64ZM9.8,12.53h0l0-.75h0l0,.75a1.72,1.72,0,0,1,1.8,1.85,2,2,0,0,1-.39,1.12h0l-.36.36a1.58,1.58,0,0,1-1.1.37,1.7,1.7,0,0,1-1.19-.42l-.05-.05a1.77,1.77,0,0,1-.58-1.37A1.83,1.83,0,0,1,9.8,12.53Zm1.71,9.73a8.68,8.68,0,0,1-1.76.17A7.17,7.17,0,0,1,7,22c-.75-.32-.93-.65-.93-.88a4.4,4.4,0,0,1,2-3.8,3.19,3.19,0,0,0,1.67.45h.1a3.39,3.39,0,0,0,1.72-.43,4,4,0,0,1,1.23,1.28A9,9,0,0,0,11.51,22.26Zm3-3.58A6.7,6.7,0,0,1,16.37,17a5,5,0,0,0,2.63.86h.2a5,5,0,0,0,2.56-.8,7.18,7.18,0,0,1,3.49,6.25c0,.6-.48,1.22-1.69,1.73a11.82,11.82,0,0,1-4.46.75A11.82,11.82,0,0,1,14.64,25C13.5,24.54,13,24,13,23.4A7.86,7.86,0,0,1,14.47,18.68Z"/></svg>