<svg id="Layer_1" data-name="Layer 1" xmlns="http://www.w3.org/2000/svg" viewBox="0 0 32 32"><defs><style>.cls-1{fill:#46a6f3;}</style></defs><title>CalendarIcon</title><path class="cls-1" d="M21.1,9V8.33a.75.75,0,0,0-1.5,0V9H13.35v-.7a.75.75,0,0,0-1.5,0V9H11.3A3.33,3.33,0,0,0,8,12.33V22a3.33,3.33,0,0,0,3.3,3.3H21A3.33,3.33,0,0,0,24.3,22v-9.7A3.32,3.32,0,0,0,21.1,9Zm1.7,13a1.79,1.79,0,0,1-1.8,1.8H11.3A1.79,1.79,0,0,1,9.5,22v-7H22.8ZM9.5,13.58V12.33a1.79,1.79,0,0,1,1.8-1.8h.55v1a.75.75,0,0,0,1.5,0v-1H19.6v1a.75.75,0,0,0,1.5,0v-1a1.79,1.79,0,0,1,1.7,1.79v1.25Z"/></svg>