<?xml version="1.0" encoding="utf-8"?>
<!-- Generator: Adobe Illustrator 21.0.0, SVG Export Plug-In . SVG Version: 6.00 Build 0)  -->
<svg version="1.1" id="Layer_1" xmlns="http://www.w3.org/2000/svg" xmlns:xlink="http://www.w3.org/1999/xlink" x="0px" y="0px"
	 viewBox="0 0 16.3 17.8" style="enable-background:new 0 0 16.3 17.8;" xml:space="preserve">
<style type="text/css">
	.st0{fill:#46A6F3;}
</style>
<title>CalendarIcon</title>
<path class="st0" d="M13.1,1.4V0.8c0-0.4-0.3-0.8-0.8-0.8s-0.8,0.3-0.8,0.8v0.7H5.4V0.8C5.4,0.3,5,0,4.6,0S3.9,0.3,3.9,0.8v0.7H3.3
	C1.5,1.5,0,3,0,4.8v9.7c0,1.8,1.5,3.3,3.3,3.3H13c1.8,0,3.3-1.5,3.3-3.3V4.8C16.3,3,14.9,1.5,13.1,1.4z M14.8,14.4
	c0,1-0.8,1.8-1.8,1.8c0,0,0,0,0,0H3.3c-1,0-1.8-0.8-1.8-1.8c0,0,0,0,0,0v-7h13.3L14.8,14.4z M1.5,6V4.8c0-1,0.8-1.8,1.8-1.8
	c0,0,0,0,0,0h0.6v1c0,0.4,0.3,0.8,0.8,0.8S5.4,4.4,5.4,4V3h6.2v1c0,0.4,0.3,0.8,0.8,0.8s0.8-0.3,0.8-0.8V3c1,0,1.7,0.8,1.7,1.8V6
	L1.5,6z"/>
</svg>
