<?xml version="1.0" encoding="UTF-8"?>
<svg width="20px" height="20px" viewBox="0 0 20 20" version="1.1" xmlns="http://www.w3.org/2000/svg" xmlns:xlink="http://www.w3.org/1999/xlink">
    <!-- Generator: Sketch 53 (72520) - https://sketchapp.com -->
    <title>Conference/Date</title>
    <desc>Created with Sketch.</desc>
    <defs>
        <path d="M16,2 C17.6568542,2 19,3.34314575 19,5 L19,16 C19,17.6568542 17.6568542,19 16,19 L4,19 C2.34314575,19 1,17.6568542 1,16 L1,5 C1,3.34314575 2.34314575,2 4,2 L4,3 C4,4.1045695 4.8954305,5 6,5 C7.1045695,5 8,4.1045695 8,3 L8,2 L12,2 L12,3 C12,4.1045695 12.8954305,5 14,5 C15.1045695,5 16,4.1045695 16,3 L16,2 Z M3,8 L3,15.6 C3,16.4284271 3.67157288,17.1 4.5,17.1 L15.5,17.1 C16.3284271,17.1 17,16.4284271 17,15.6 L17,8 L3,8 Z M6,1 C6.55228475,1 7,1.44771525 7,2 L7,3 C7,3.55228475 6.55228475,4 6,4 C5.44771525,4 5,3.55228475 5,3 L5,2 C5,1.44771525 5.44771525,1 6,1 Z M14,1 C14.5522847,1 15,1.44771525 15,2 L15,3 C15,3.55228475 14.5522847,4 14,4 C13.4477153,4 13,3.55228475 13,3 L13,2 C13,1.44771525 13.4477153,1 14,1 Z" id="path-1"></path>
    </defs>
    <g id="Conference/Date" stroke="none" stroke-width="1" fill="none" fill-rule="evenodd">
        <mask id="mask-2" fill="white">
            <use xlink:href="#path-1"></use>
        </mask>
        <use id="Cal-Icon" fill="#575E75" fill-rule="nonzero" xlink:href="#path-1"></use>
        <g id="Blue/1_Blue" mask="url(#mask-2)" fill="#4D97FF">
            <rect id="Primary-Blue" x="0" y="0" width="20" height="20"></rect>
        </g>
    </g>
</svg>