<svg width="17" height="18" viewBox="0 0 17 18" version="1.1" xmlns="http://www.w3.org/2000/svg" xmlns:xlink="http://www.w3.org/1999/xlink" xmlns:figma="http://www.figma.com/figma/ns">
<title>CalendarIcon</title>
<desc>Created using Figma</desc>
<g id="Canvas" transform="translate(18379 7261)" figma:type="canvas">
<g id="CalendarIcon" style="mix-blend-mode:normal;" figma:type="frame">
<g id="Group" style="mix-blend-mode:normal;" figma:type="frame">
<g id="Group" style="mix-blend-mode:normal;" figma:type="frame">
<g id="Vector" style="mix-blend-mode:normal;" figma:type="vector">
<use xlink:href="#path0_fill" transform="translate(-18379 -7259.55)" fill="#46A6F3" style="mix-blend-mode:normal;"/>
</g>
</g>
<g id="Vector" style="mix-blend-mode:normal;" figma:type="vector">
<use xlink:href="#path1_stroke" transform="translate(-18366.4 -7260.25)" fill="#46A6F3" style="mix-blend-mode:normal;"/>
</g>
<g id="Vector" style="mix-blend-mode:normal;" figma:type="vector">
<use xlink:href="#path2_stroke" transform="translate(-18374.4 -7260.25)" fill="#46A6F3" style="mix-blend-mode:normal;"/>
</g>
<g id="Group" style="mix-blend-mode:normal;" figma:type="frame">
<g id="Vector" style="mix-blend-mode:normal;" figma:type="vector">
<use xlink:href="#path3_stroke" transform="translate(-18379 -7254.25)" fill="#46A6F3" style="mix-blend-mode:normal;"/>
</g>
</g>
</g>
</g>
</g>
<defs>
<path id="path0_fill" d="M 13 1.5C 14 1.5 14.8 2.3 14.8 3.3L 14.8 13C 14.8 14 14 14.8 13 14.8L 3.3 14.8C 2.3 14.8 1.5 14 1.5 13L 1.5 3.3C 1.5 2.3 2.3 1.5 3.3 1.5L 13 1.5ZM 13 0L 3.3 0C 1.5 0 0 1.5 0 3.3L 0 13C 0 14.8 1.5 16.3 3.3 16.3L 13 16.3C 14.8 16.3 16.3 14.8 16.3 13L 16.3 3.3C 16.3 1.5 14.8 0 13 0Z"/>
<path id="path1_stroke" d="M 0.75 1.19209e-08C 0.75 -0.414214 0.414214 -0.75 3.8147e-07 -0.75C -0.414213 -0.75 -0.75 -0.414214 -0.75 1.19209e-08L 0.75 1.19209e-08ZM -0.75 3.2C -0.75 3.61421 -0.414213 3.95 3.8147e-07 3.95C 0.414214 3.95 0.75 3.61421 0.75 3.2L -0.75 3.2ZM -0.75 1.19209e-08L -0.75 3.2L 0.75 3.2L 0.75 1.19209e-08L -0.75 1.19209e-08Z"/>
<path id="path2_stroke" d="M 0.75 1.19209e-08C 0.75 -0.414214 0.414213 -0.75 -9.53674e-08 -0.75C -0.414214 -0.75 -0.75 -0.414214 -0.75 1.19209e-08L 0.75 1.19209e-08ZM -0.75 3.2C -0.75 3.61421 -0.414214 3.95 -9.53674e-08 3.95C 0.414213 3.95 0.75 3.61421 0.75 3.2L -0.75 3.2ZM -0.75 1.19209e-08L -0.75 3.2L 0.75 3.2L 0.75 1.19209e-08L -0.75 1.19209e-08Z"/>
<path id="path3_stroke" d="M 0 0.75L 16.3 0.75L 16.3 -0.75L 0 -0.75L 0 0.75Z"/>
</defs>
</svg>
