<svg width="20" height="20" xmlns="http://www.w3.org/2000/svg" xmlns:xlink="http://www.w3.org/1999/xlink"><defs><path d="M16 2a3 3 0 0 1 3 3v11a3 3 0 0 1-3 3H4a3 3 0 0 1-3-3V5a3 3 0 0 1 3-3v1a2 2 0 1 0 4 0V2h4v1a2 2 0 1 0 4 0V2zM3 8v7.6a1.5 1.5 0 0 0 1.5 1.5h11a1.5 1.5 0 0 0 1.5-1.5V8H3zm3-7a1 1 0 0 1 1 1v1a1 1 0 1 1-2 0V2a1 1 0 0 1 1-1zm8 0a1 1 0 0 1 1 1v1a1 1 0 0 1-2 0V2a1 1 0 0 1 1-1z" id="a"/></defs><g fill="none" fill-rule="evenodd"><mask id="b" fill="#fff"><use xlink:href="#a"/></mask><use fill="#575E75" fill-rule="nonzero" xlink:href="#a"/><g mask="url(#b)" fill="#4D97FF"><path d="M0 0h20v20H0z"/></g></g></svg>