<svg width="107" height="50" xmlns="http://www.w3.org/2000/svg" xmlns:xlink="http://www.w3.org/1999/xlink"><defs><rect id="a" x="24" width="56" height="40" rx="8"/><filter x="-13.4%" y="-18.8%" width="126.8%" height="137.5%" filterUnits="objectBoundingBox" id="b"><feMorphology radius="2.5" operator="dilate" in="SourceAlpha" result="shadowSpreadOuter1"/><feOffset in="shadowSpreadOuter1" result="shadowOffsetOuter1"/><feColorMatrix values="0 0 0 0 0.258823529 0 0 0 0 0.501960784 0 0 0 0 0.843137255 0 0 0 0.5 0" in="shadowOffsetOuter1"/></filter></defs><g transform="translate(2 5)" fill="none" fill-rule="evenodd"><mask id="c" fill="#fff"><use xlink:href="#a"/></mask><use fill="#000" filter="url(#b)" xlink:href="#a"/><use fill="#FFF" xlink:href="#a"/><path d="M22.207 7.212l24.762 19.102a8 8 0 0 0 9.778-.004L81.462 7.212V6.123a8 8 0 0 0-8-8H30.207a8 8 0 0 0-8 8v1.09z" fill-opacity=".55" fill="#4D97FF" mask="url(#c)"/><g stroke="#FFBF00" stroke-linecap="round" stroke-width="4"><path d="M11.664 14L.334 10M11.667 23.5H.333M12 33L0 37"/></g><g stroke="#FFBF00" stroke-linecap="round" stroke-width="4"><path d="M91.336 14l11.33-4M91.333 23.5h11.334M91 33l11.667 4"/></g></g></svg>