<svg width="20" height="20" xmlns="http://www.w3.org/2000/svg" xmlns:xlink="http://www.w3.org/1999/xlink"><defs><path d="M8.3 11.5h2.97l.43-3H8.73l-.43 3zm-.428 3l-.387 2.712a1.5 1.5 0 0 1-2.97-.424l.327-2.288H3a1.5 1.5 0 0 1 0-3h2.27l.43-3H3a1.5 1.5 0 0 1 0-3h3.128l.387-2.712a1.5 1.5 0 1 1 2.97.424L9.158 5.5h2.97l.387-2.712a1.5 1.5 0 1 1 2.97.424L15.158 5.5H17a1.5 1.5 0 0 1 0 3h-2.27l-.43 3H17a1.5 1.5 0 0 1 0 3h-3.128l-.387 2.712a1.5 1.5 0 1 1-2.97-.424l.327-2.288h-2.97z" id="a"/></defs><g fill="none" fill-rule="evenodd"><mask id="b" fill="#fff"><use xlink:href="#a"/></mask><use fill="#575E75" fill-rule="nonzero" xlink:href="#a"/><g mask="url(#b)" fill="#4D97FF"><path d="M0 0h20v20H0z"/></g></g></svg>