<?xml version="1.0" encoding="utf-8"?>
<!-- Generator: Adobe Illustrator 21.0.0, SVG Export Plug-In . SVG Version: 6.00 Build 0)  -->
<svg version="1.1" id="Layer_1" xmlns="http://www.w3.org/2000/svg" xmlns:xlink="http://www.w3.org/1999/xlink" x="0px" y="0px"
	 viewBox="0 0 22.4 16" style="enable-background:new 0 0 22.4 16;" xml:space="preserve">
<style type="text/css">
	.st0{fill:#51ABF4;}
</style>
<title>LanguageIcon</title>
<g id="Canvas">
	<g id="LanguageIcon">
		<g id="Vector">
			<path class="st0" d="M22.4,5.4C22.3,5.1,22,5,21.7,5l-4.5,0.6v-3C17.2,1.2,16,0,14.6,0c0,0,0,0,0,0h-12C1.2,0,0,1.2,0,2.6v10.8
				C0,14.8,1.2,16,2.6,16h12c1.4,0,2.6-1.2,2.6-2.6v-2.7l5-4.5C22.4,6,22.5,5.7,22.4,5.4z M16.1,9.9c-0.1,0.1-0.2,0.3-0.2,0.5v3
				c0,0.7-0.6,1.3-1.3,1.3h-12c-0.7,0-1.3-0.6-1.3-1.3V2.6c0-0.7,0.6-1.3,1.3-1.3h12c0.7,0,1.3,0.6,1.3,1.3v3.7
				c0,0.4,0.3,0.7,0.7,0.7c0,0,0,0,0.1,0l3.2-0.4L16.1,9.9z"/>
		</g>
		<path class="st0" d="M4.5,5.3h8.1c0.4,0,0.7-0.3,0.7-0.7c0-0.4-0.3-0.7-0.7-0.7H4.5C4.1,4,3.8,4.3,3.8,4.7S4.1,5.3,4.5,5.3
			C4.5,5.3,4.5,5.3,4.5,5.3z"/>
		<path class="st0" d="M12.6,7.3H4.5C4.1,7.3,3.8,7.6,3.8,8s0.3,0.7,0.7,0.7c0,0,0,0,0,0h8.1c0.4,0,0.7-0.3,0.7-0.7
			C13.2,7.6,12.9,7.3,12.6,7.3z"/>
		<path class="st0" d="M12.6,10.5H4.5c-0.4,0-0.7,0.3-0.7,0.7s0.3,0.7,0.7,0.7c0,0,0,0,0,0h8.1c0.4,0,0.7-0.3,0.7-0.7
			C13.2,10.8,12.9,10.5,12.6,10.5z"/>
	</g>
</g>
</svg>
