<svg id="Layer_1" data-name="Layer 1" xmlns="http://www.w3.org/2000/svg" viewBox="0 0 32 32"><defs><style>.cls-1{fill:#51abf4;}</style></defs><title>LanguageIcon</title><g id="Canvas"><g id="LanguageIcon"><g id="Vector"><path class="cls-1" d="M29.59,15.06a.66.66,0,0,0-.69-.37l-4.51.6v-3A2.6,2.6,0,0,0,21.8,9.68h-12A2.6,2.6,0,0,0,7.2,12.27V23.05a2.6,2.6,0,0,0,2.59,2.59h12a2.6,2.6,0,0,0,2.59-2.59V20.36l5-4.53A.68.68,0,0,0,29.59,15.06Zm-6.3,4.52a.68.68,0,0,0-.22.49v3a1.29,1.29,0,0,1-1.27,1.28h-12a1.3,1.3,0,0,1-1.28-1.28V12.27A1.29,1.29,0,0,1,9.79,11h12a1.28,1.28,0,0,1,1.27,1.27V16a.67.67,0,0,0,.75.65L27,16.27Z"/></g><path class="cls-1" d="M11.71,15h8.07a.66.66,0,0,0,0-1.32H11.71a.66.66,0,1,0,0,1.32Z"/><path class="cls-1" d="M19.78,17H11.71a.66.66,0,1,0,0,1.32h8.07a.66.66,0,0,0,0-1.32Z"/><path class="cls-1" d="M19.78,20.2H11.71a.66.66,0,1,0,0,1.32h8.07a.66.66,0,0,0,0-1.32Z"/></g></g></svg>