<?xml version="1.0" encoding="utf-8"?>
<!-- Generator: Adobe Illustrator 21.0.0, SVG Export Plug-In . SVG Version: 6.00 Build 0)  -->
<svg version="1.1" id="Layer_1" xmlns="http://www.w3.org/2000/svg" xmlns:xlink="http://www.w3.org/1999/xlink" x="0px" y="0px"
	 viewBox="0 0 16.3 19.7" style="enable-background:new 0 0 16.3 19.7;" xml:space="preserve">
<style type="text/css">
	.st0{fill:#51ABF4;}
	.st1{fill:none;stroke:#46A6F3;stroke-width:1.3;stroke-miterlimit:10;}
</style>
<title>MapIcon</title>
<path class="st0" d="M13.9,13.9L13.9,13.9c3.1-3.2,3.1-8.3,0-11.5l0,0l0,0l0,0c-3.2-3.2-8.4-3.2-11.6,0c0,0,0,0,0,0
	c-3.2,3.2-3.2,8.3,0,11.4c0,0,0.1,0.1,0.1,0.1l0,0l5.2,5.2l0.5,0.5l0.5-0.5L13.9,13.9 M3.5,12.9L3.5,12.9c-2.6-2.5-2.7-6.7-0.2-9.3
	c0,0,0.1-0.1,0.1-0.1c2.6-2.6,6.8-2.6,9.4,0c2.5,2.6,2.5,6.8,0,9.4l-4.7,4.7L3.5,12.9"/>
<circle class="st1" cx="8.2" cy="8.5" r="3.3"/>
</svg>
