<svg id="Layer_1" data-name="Layer 1" xmlns="http://www.w3.org/2000/svg" viewBox="0 0 32 32"><defs><style>.cls-1{fill:#51abf4;}.cls-2{fill:none;stroke:#46a6f3;stroke-miterlimit:10;stroke-width:1.3px;}</style></defs><title>MapIcon</title><path class="cls-1" d="M22.31,20.62h0a8.36,8.36,0,0,0,0-11.54l0,0,0,0h0a8.17,8.17,0,0,0-11.56,0,8.09,8.09,0,0,0,.1,11.56h0l5.2,5.2.53.53.53-.53,5.2-5.2m-10.4-1.06h0a6.59,6.59,0,0,1-.09-9.43,6.67,6.67,0,0,1,9.43,0,6.86,6.86,0,0,1,0,9.45l-4.66,4.66-4.67-4.67"/><circle class="cls-2" cx="16.52" cy="15.21" r="3.26"/></svg>