<svg id="Layer_1" data-name="Layer 1" xmlns="http://www.w3.org/2000/svg" viewBox="0 0 32 32"><defs><style>.cls-1{fill:#51abf4;}</style></defs><title>WebsiteIcon</title><path class="cls-1" d="M15.81,21.72l-.8.8A2.5,2.5,0,0,1,11.47,19l3.29-3.19,0,0,0,0h0l-.53-.53h0l.53.53a2.45,2.45,0,0,1,3.54,0,.75.75,0,0,0,1.06-1.06,4,4,0,0,0-5.65,0h0l-3.3,3.2,0,0,0,0h0l.53.53h0l-.53-.53a4,4,0,0,0,5.66,5.66l.8-.8a.75.75,0,1,0-1.06-1.06Z"/><path class="cls-1" d="M23.59,10.42a4,4,0,0,0-5.66,0l-.8.8a.75.75,0,0,0,1.06,1.06l.8-.8A2.5,2.5,0,0,1,22.53,15l-3.3,3.3a2.45,2.45,0,0,1-3.54,0,.75.75,0,0,0-1.06,1.06,4,4,0,0,0,5.66,0l3.3-3.3A4,4,0,0,0,23.59,10.42Z"/></svg>