<svg width="16" height="16" viewBox="0 0 16 16" version="1.1" xmlns="http://www.w3.org/2000/svg" xmlns:xlink="http://www.w3.org/1999/xlink" xmlns:figma="http://www.figma.com/figma/ns">
<title>WebsiteIcon</title>
<desc>Created using Figma</desc>
<g id="Canvas" transform="translate(18380 7081)" figma:type="canvas">
<g id="WebsiteIcon" style="mix-blend-mode:normal;" figma:type="frame">
<g id="Group" style="mix-blend-mode:normal;" figma:type="frame">
<g id="Vector" style="mix-blend-mode:normal;" figma:type="vector">
<use xlink:href="#path0_stroke" transform="translate(-18379.2 -7075.5)" fill="#51ABF4" style="mix-blend-mode:normal;"/>
</g>
<g id="Vector" style="mix-blend-mode:normal;" figma:type="vector">
<use xlink:href="#path1_stroke" transform="translate(-18374 -7079.8)" fill="#51ABF4" style="mix-blend-mode:normal;"/>
</g>
</g>
</g>
</g>
<defs>
<path id="path0_stroke" d="M 6.90533 8.50533C 7.19822 8.21244 7.19822 7.73756 6.90533 7.44467C 6.61244 7.15178 6.13756 7.15178 5.84467 7.44467L 6.90533 8.50533ZM 5.575 8.775L 6.10533 9.30533L 5.575 8.775ZM 0.975 4.175L 0.452829 3.63651L 0.44467 3.64467L 0.975 4.175ZM 4.275 0.975L 4.79717 1.51349L 4.80533 1.50533L 4.275 0.975ZM 8.34467 1.50533C 8.63756 1.79822 9.11244 1.79822 9.40533 1.50533C 9.69822 1.21244 9.69822 0.737563 9.40533 0.44467L 8.34467 1.50533ZM 5.84467 7.44467L 5.04467 8.24467L 6.10533 9.30533L 6.90533 8.50533L 5.84467 7.44467ZM 5.04467 8.24467C 4.03756 9.25178 2.51244 9.25178 1.50533 8.24467L 0.44467 9.30533C 2.03756 10.8982 4.51244 10.8982 6.10533 9.30533L 5.04467 8.24467ZM 1.50533 8.24467C 0.498223 7.23756 0.498223 5.71244 1.50533 4.70533L 0.44467 3.64467C -1.14822 5.23756 -1.14822 7.71244 0.44467 9.30533L 1.50533 8.24467ZM 1.49711 4.71343L 4.79711 1.51343L 3.75289 0.436575L 0.452891 3.63657L 1.49711 4.71343ZM 4.80533 1.50533C 5.81244 0.498223 7.33756 0.498223 8.34467 1.50533L 9.40533 0.44467C 7.81244 -1.14822 5.33756 -1.14822 3.74467 0.44467L 4.80533 1.50533Z"/>
<path id="path1_stroke" d="M 1.96967 1.24467C 1.67678 1.53756 1.67678 2.01244 1.96967 2.30533C 2.26256 2.59822 2.73744 2.59822 3.03033 2.30533L 1.96967 1.24467ZM 3.3 0.975L 3.83033 1.50533L 3.83033 1.50533L 3.3 0.975ZM 7.9 5.575L 8.43033 6.10533L 7.9 5.575ZM 4.6 8.875L 4.06967 8.34467L 4.6 8.875ZM 0.53033 8.34467C 0.237437 8.05178 -0.237437 8.05178 -0.53033 8.34467C -0.823223 8.63756 -0.823223 9.11244 -0.53033 9.40533L 0.53033 8.34467ZM 3.03033 2.30533L 3.83033 1.50533L 2.76967 0.44467L 1.96967 1.24467L 3.03033 2.30533ZM 3.83033 1.50533C 4.83744 0.498223 6.36256 0.498223 7.36967 1.50533L 8.43033 0.44467C 6.83744 -1.14822 4.36256 -1.14822 2.76967 0.44467L 3.83033 1.50533ZM 7.36967 1.50533C 8.37678 2.51244 8.37678 4.03756 7.36967 5.04467L 8.43033 6.10533C 10.0232 4.51244 10.0232 2.03756 8.43033 0.44467L 7.36967 1.50533ZM 7.36967 5.04467L 4.06967 8.34467L 5.13033 9.40533L 8.43033 6.10533L 7.36967 5.04467ZM 4.06967 8.34467C 3.06256 9.35178 1.53744 9.35178 0.53033 8.34467L -0.53033 9.40533C 1.06256 10.9982 3.53744 10.9982 5.13033 9.40533L 4.06967 8.34467Z"/>
</defs>
</svg>
