<?xml version="1.0" encoding="utf-8"?>
<!-- Generator: Adobe Illustrator 21.0.0, SVG Export Plug-In . SVG Version: 6.00 Build 0)  -->
<svg version="1.1" id="Layer_1" xmlns="http://www.w3.org/2000/svg" xmlns:xlink="http://www.w3.org/1999/xlink" x="0px" y="0px"
	 viewBox="0 0 15.5 15.5" style="enable-background:new 0 0 15.5 15.5;" xml:space="preserve">
<style type="text/css">
	.st0{fill:#51ABF4;}
</style>
<title>WebsiteIcon</title>
<path class="st0" d="M6.6,12.5l-0.8,0.8c-1,0.9-2.6,0.8-3.5-0.2c-0.9-0.9-0.9-2.4,0-3.3l3.3-3.2l0,0l0,0l0,0L5,6l0,0l0.5,0.5
	c0.9-1,2.5-1,3.5-0.1c0,0,0.1,0.1,0.1,0.1c0.3,0.3,0.8,0.3,1.1,0c0.3-0.3,0.3-0.7,0-1C8.6,3.9,6,3.9,4.5,5.5l0,0L1.2,8.7l0,0l0,0
	l0,0l0.5,0.5l0,0L1.2,8.7c-1.6,1.6-1.6,4.1,0,5.7s4.1,1.6,5.7,0l0,0l0.8-0.8c0.3-0.3,0.3-0.8,0-1.1S6.9,12.2,6.6,12.5
	C6.6,12.5,6.6,12.5,6.6,12.5L6.6,12.5z"/>
<path class="st0" d="M14.4,1.2c-1.6-1.6-4.1-1.6-5.7,0c0,0,0,0,0,0L7.9,2C7.6,2.3,7.6,2.8,7.9,3c0.3,0.3,0.7,0.3,1,0l0.8-0.8
	c1-0.9,2.6-0.8,3.5,0.2c0.9,0.9,0.9,2.4,0,3.3L10,9.1c-0.9,1-2.5,1-3.5,0.1c0,0-0.1-0.1-0.1-0.1c-0.3-0.3-0.8-0.3-1.1,0
	c-0.3,0.3-0.3,0.7,0,1c1.6,1.6,4.1,1.6,5.7,0c0,0,0,0,0,0l3.3-3.3C15.9,5.3,15.9,2.7,14.4,1.2z"/>
</svg>
