<?xml version="1.0" encoding="UTF-8"?>
<svg width="32px" height="36px" viewBox="0 0 32 36" version="1.1" xmlns="http://www.w3.org/2000/svg" xmlns:xlink="http://www.w3.org/1999/xlink">
    <!-- Generator: Sketch 51.1 (57501) - http://www.bohemiancoding.com/sketch -->
    <title>ev3</title>
    <desc>Created with Sketch.</desc>
    <defs></defs>
    <g id="Round-1" stroke="none" stroke-width="1" fill="none" fill-rule="evenodd">
        <g id="EV3-Landing" transform="translate(-169.000000, -112.000000)" fill-rule="nonzero">
            <g id="Masthead" transform="translate(0.000000, 46.000000)">
                <g id="ev3" transform="translate(169.000000, 66.000000)">
                    <path d="M30.3448276,32.0727273 L1.65517241,32.0727273 C0.993103448,32.0727273 0.551724138,31.6363636 0.551724138,30.9818182 L0.551724138,5.01818182 C0.551724138,4.36363636 0.993103448,3.92727273 1.65517241,3.92727273 L30.3448276,3.92727273 C31.0068966,3.92727273 31.4482759,4.36363636 31.4482759,5.01818182 L31.4482759,30.9818182 C31.4482759,31.6363636 31.0068966,32.0727273 30.3448276,32.0727273 Z" id="Shape" stroke="#7C87A5" stroke-width="1.09090909" fill="#FFFFFF" stroke-linecap="round" stroke-linejoin="round"></path>
                    <path d="M28.137931,35.4545455 L3.86206897,35.4545455 C3.2,35.4545455 2.75862069,35.0181818 2.75862069,34.3636364 L2.75862069,1.63636364 C2.75862069,0.981818182 3.2,0.545454545 3.86206897,0.545454545 L28.137931,0.545454545 C28.8,0.545454545 29.2413793,0.981818182 29.2413793,1.63636364 L29.2413793,34.3636364 C29.2413793,35.0181818 28.8,35.4545455 28.137931,35.4545455 Z" id="Shape" stroke="#7C87A5" stroke-width="1.09090909" fill="#E6E7E8" stroke-linecap="round" stroke-linejoin="round"></path>
                    <rect id="Rectangle-path" stroke="#7C87A5" stroke-width="1.09090909" fill="#FFFFFF" stroke-linecap="round" stroke-linejoin="round" x="2.75862069" y="15.8181818" width="26.4827586" height="14.1818182"></rect>
                    <path d="M16,11.4545455 L16,15.8181818" id="Shape" stroke="#7C87A5" stroke-width="1.09090909" fill="#E6E7E8" stroke-linecap="round" stroke-linejoin="round"></path>
                    <path d="M25.9310345,13.6363636 L6.06896552,13.6363636 C5.40689655,13.6363636 4.96551724,13.2 4.96551724,12.5454545 L4.96551724,3.81818182 C4.96551724,3.16363636 5.40689655,2.72727273 6.06896552,2.72727273 L25.9310345,2.72727273 C26.5931034,2.72727273 27.0344828,3.16363636 27.0344828,3.81818182 L27.0344828,12.5454545 C27.0344828,13.2 26.5931034,13.6363636 25.9310345,13.6363636 Z" id="Shape" fill="#414757"></path>
                    <path d="M16.5517241,24.1090909 L15.4482759,24.1090909 C15.1172414,24.1090909 14.8965517,23.8909091 14.8965517,23.5636364 L14.8965517,22.4727273 C14.8965517,22.1454545 15.1172414,21.9272727 15.4482759,21.9272727 L16.5517241,21.9272727 C16.8827586,21.9272727 17.1034483,22.1454545 17.1034483,22.4727273 L17.1034483,23.5636364 C17.1034483,23.8909091 16.8827586,24.1090909 16.5517241,24.1090909 Z" id="Shape" fill="#7C87A5" opacity="0.5"></path>
                    <path d="M11.6965517,24.1090909 L10.0413793,24.1090909 C9.37931034,24.1090909 8.93793103,23.6727273 8.93793103,23.0181818 C8.93793103,22.3636364 9.37931034,21.9272727 10.0413793,21.9272727 L11.6965517,21.9272727 C12.0275862,21.9272727 12.2482759,22.1454545 12.2482759,22.4727273 L12.2482759,23.5636364 C12.2482759,23.8909091 11.9172414,24.1090909 11.6965517,24.1090909 Z" id="Shape" fill="#7C87A5" opacity="0.5"></path>
                    <path d="M20.3034483,21.9272727 L21.9586207,21.9272727 C22.6206897,21.9272727 23.062069,22.3636364 23.062069,23.0181818 C23.062069,23.6727273 22.6206897,24.1090909 21.9586207,24.1090909 L20.3034483,24.1090909 C19.9724138,24.1090909 19.7517241,23.8909091 19.7517241,23.5636364 L19.7517241,22.4727273 C19.7517241,22.2545455 20.0827586,21.9272727 20.3034483,21.9272727 Z" id="Shape" fill="#7C87A5" opacity="0.5"></path>
                    <path d="M9.04827586,19.0909091 L5.51724138,19.0909091 C5.1862069,19.0909091 4.96551724,18.8727273 4.96551724,18.5454545 L4.96551724,15.8181818 L11.5862069,15.8181818 L9.48965517,18.8727273 C9.48965517,18.9818182 9.26896552,19.0909091 9.04827586,19.0909091 Z" id="Shape" fill="#7C87A5" opacity="0.5"></path>
                    <path d="M19.9724138,20.6181818 L19.4206897,21.1636364 C19.3103448,21.2727273 19.3103448,21.3818182 19.3103448,21.6 L19.3103448,21.8181818 C19.3103448,22.1454545 19.0896552,22.3636364 18.7586207,22.3636364 L18.2068966,22.3636364 C17.8758621,22.3636364 17.6551724,22.1454545 17.6551724,21.8181818 C17.6551724,21.4909091 17.4344828,21.2727273 17.1034483,21.2727273 L14.8965517,21.2727273 C14.5655172,21.2727273 14.3448276,21.4909091 14.3448276,21.8181818 C14.3448276,22.1454545 14.1241379,22.3636364 13.7931034,22.3636364 L13.2413793,22.3636364 C12.9103448,22.3636364 12.6896552,22.1454545 12.6896552,21.8181818 L12.6896552,21.4909091 C12.6896552,21.3818182 12.5793103,21.1636364 12.5793103,21.0545455 L12.0275862,20.5090909 C11.8068966,20.2909091 11.8068966,19.9636364 12.0275862,19.7454545 L13.6827586,18.1090909 C13.7931034,18 13.9034483,18 14.1241379,18 L18.0965517,18 C18.2068966,18 18.4275862,18.1090909 18.537931,18.1090909 L20.1931034,19.7454545 C20.1931034,19.9636364 20.1931034,20.4 19.9724138,20.6181818 Z" id="Shape" fill="#7C87A5" opacity="0.5"></path>
                    <path d="M12.0275862,25.5272727 L12.5793103,24.9818182 C12.6896552,24.8727273 12.6896552,24.7636364 12.6896552,24.5454545 L12.6896552,24.2181818 C12.6896552,23.8909091 12.9103448,23.6727273 13.2413793,23.6727273 L13.7931034,23.6727273 C14.1241379,23.6727273 14.3448276,23.8909091 14.3448276,24.2181818 C14.3448276,24.5454545 14.5655172,24.7636364 14.8965517,24.7636364 L17.1034483,24.7636364 C17.4344828,24.7636364 17.6551724,24.5454545 17.6551724,24.2181818 C17.6551724,23.8909091 17.8758621,23.6727273 18.2068966,23.6727273 L18.7586207,23.6727273 C19.0896552,23.6727273 19.3103448,23.8909091 19.3103448,24.2181818 L19.3103448,24.5454545 C19.3103448,24.6545455 19.4206897,24.8727273 19.4206897,24.9818182 L19.9724138,25.5272727 C20.1931034,25.7454545 20.1931034,26.0727273 19.9724138,26.2909091 L18.3172414,27.9272727 C18.2068966,28.0363636 18.0965517,28.0363636 17.8758621,28.0363636 L13.9034483,28.0363636 C13.7931034,28.0363636 13.5724138,27.9272727 13.462069,27.9272727 L11.8068966,26.2909091 C11.8068966,26.0727273 11.8068966,25.7454545 12.0275862,25.5272727 Z" id="Shape" fill="#7C87A5" opacity="0.5"></path>
                    <path d="M23.7241379,30 L29.2413793,30 L29.2413793,34.3636364 C29.2413793,35.0181818 28.8,35.4545455 28.137931,35.4545455 L23.7241379,35.4545455 L23.7241379,30 Z" id="Shape" stroke="#CC4C23" stroke-width="1.09090909" fill="#F15A29" stroke-linecap="round" stroke-linejoin="round"></path>
                </g>
            </g>
        </g>
    </g>
</svg>