<?xml version="1.0" encoding="UTF-8"?>
<svg width="200px" height="200px" viewBox="0 0 200 200" version="1.1" xmlns="http://www.w3.org/2000/svg" xmlns:xlink="http://www.w3.org/1999/xlink">
    <title>Blocks</title>
    <g id="Blocks" stroke="none" stroke-width="1" fill="none" fill-rule="evenodd">
        <path d="M30.7278484,45.7867229 C31.7887144,45.7867229 32.80613,46.2081503 33.5562755,46.9582958 L33.5562755,46.9582958 L39.2131298,52.61515 C39.9632753,53.3652956 40.980691,53.7867229 42.0415569,53.7867229 L42.0415569,53.7867229 L54.7278484,53.7867229 C55.7887144,53.7867229 56.80613,53.3652956 57.5562755,52.61515 L57.5562755,52.61515 L63.2131298,46.9582958 C63.9632753,46.2081503 64.980691,45.7867229 66.0415569,45.7867229 L66.0415569,45.7867229 L180.384703,45.7867229 C182.593842,45.7867229 184.384703,47.5775839 184.384703,49.7867229 L184.384703,89.7867229 C184.384703,91.9958619 182.593842,93.7867229 180.384703,93.7867229 L66.0415569,93.7867229 C64.980691,93.7867229 63.9632753,94.2081503 63.2131298,94.9582958 L57.5562755,100.61515 C56.80613,101.365296 55.7887144,101.786723 54.7278484,101.786723 L42.0415569,101.786723 C40.980691,101.786723 39.9632753,101.365296 39.2131298,100.61515 L33.5562755,94.9582958 C32.80613,94.2081503 31.7887144,93.7867229 30.7278484,93.7867229 L20.3847027,93.7867229 C18.1755637,93.7867229 16.3847027,91.9958619 16.3847027,89.7867229 L16.3847027,49.7867229 C16.3847027,47.5775839 18.1755637,45.7867229 20.3847027,45.7867229 Z" id="Command" fill="#0EBD8C" transform="translate(100.384703, 73.786723) rotate(-15.000000) translate(-100.384703, -73.786723) "></path>
        <path d="M45.7278484,104.786723 C46.7887144,104.786723 47.80613,105.20815 48.5562755,105.958296 L48.5562755,105.958296 L54.2131298,111.61515 C54.9632753,112.365296 55.980691,112.786723 57.0415569,112.786723 L57.0415569,112.786723 L69.7278484,112.786723 C70.7887144,112.786723 71.80613,112.365296 72.5562755,111.61515 L72.5562755,111.61515 L78.2131298,105.958296 C78.9632753,105.20815 79.980691,104.786723 81.0415569,104.786723 L81.0415569,104.786723 L147.384703,104.786723 C149.593842,104.786723 151.384703,106.577584 151.384703,108.786723 L151.384703,148.786723 C151.384703,150.995862 149.593842,152.786723 147.384703,152.786723 L81.0415569,152.786723 C79.980691,152.786723 78.9632753,153.20815 78.2131298,153.958296 L72.5562755,159.61515 C71.80613,160.365296 70.7887144,160.786723 69.7278484,160.786723 L57.0415569,160.786723 C55.980691,160.786723 54.9632753,160.365296 54.2131298,159.61515 L48.5562755,153.958296 C47.80613,153.20815 46.7887144,152.786723 45.7278484,152.786723 L35.3847027,152.786723 C33.1755637,152.786723 31.3847027,150.995862 31.3847027,148.786723 L31.3847027,108.786723 C31.3847027,106.577584 33.1755637,104.786723 35.3847027,104.786723 Z" id="Command" fill="#9966FF" transform="translate(91.384703, 132.786723) rotate(-15.000000) translate(-91.384703, -132.786723) "></path>
    </g>
</svg>