<?xml version="1.0" encoding="UTF-8"?>
<svg width="200px" height="200px" viewBox="0 0 200 200" version="1.1" xmlns="http://www.w3.org/2000/svg" xmlns:xlink="http://www.w3.org/1999/xlink">
    <title>Blocks</title>
    <defs>
        <filter id="filter-1">
            <feColorMatrix in="SourceGraphic" type="matrix" values="0 0 0 0 0.054902 0 0 0 0 0.741176 0 0 0 0 0.549020 0 0 0 1.000000 0"></feColorMatrix>
        </filter>
        <filter id="filter-2">
            <feColorMatrix in="SourceGraphic" type="matrix" values="0 0 0 0 0.600000 0 0 0 0 0.400000 0 0 0 0 1.000000 0 0 0 1.000000 0"></feColorMatrix>
        </filter>
    </defs>
    <g id="Blocks" stroke="none" stroke-width="1" fill="none" fill-rule="evenodd">
        <g transform="translate(106.000000, 101.500000) rotate(-10.000000) translate(-106.000000, -101.500000) translate(22.000000, 45.000000)"></g>
        <g id="Group" transform="translate(17.051027, 45.432979)" stroke-linecap="round" stroke-linejoin="round">
            <g filter="url(#filter-1)" id="Vertical/Block/Command">
                <g transform="translate(84.000000, 28.000000) rotate(-10.000000) translate(-84.000000, -28.000000) ">
                    <path d="M14.3431458,0 C15.4040117,0 16.4214274,0.421427361 17.1715729,1.17157288 L17.1715729,1.17157288 L22.8284271,6.82842712 C23.5785726,7.57857264 24.5959883,8 25.6568542,8 L25.6568542,8 L38.3431458,8 C39.4040117,8 40.4214274,7.57857264 41.1715729,6.82842712 L41.1715729,6.82842712 L46.8284271,1.17157288 C47.5785726,0.421427361 48.5959883,0 49.6568542,0 L49.6568542,0 L164,0 C166.209139,-4.05812251e-16 168,1.790861 168,4 L168,44 C168,46.209139 166.209139,48 164,48 L49.6568542,48 C48.5959883,48 47.5785726,48.4214274 46.8284271,49.1715729 L41.1715729,54.8284271 C40.4214274,55.5785726 39.4040117,56 38.3431458,56 L25.6568542,56 C24.5959883,56 23.5785726,55.5785726 22.8284271,54.8284271 L17.1715729,49.1715729 C16.4214274,48.4214274 15.4040117,48 14.3431458,48 L4,48 C1.790861,48 2.705415e-16,46.209139 0,44 L0,4 C-2.705415e-16,1.790861 1.790861,4.05812251e-16 4,0 Z" id="Command" stroke="#0A8E69" fill="#0EBD8C"></path>
                </g>
            </g>
        </g>
        <g id="Group" transform="translate(28.235776, 105.205800)" stroke-linecap="round" stroke-linejoin="round">
            <g filter="url(#filter-2)" id="Vertical/Block/Command-Copy">
                <g transform="translate(60.000000, 28.000000) rotate(-10.000000) translate(-60.000000, -28.000000) ">
                    <path d="M14.3431458,0 C15.4040117,0 16.4214274,0.421427361 17.1715729,1.17157288 L17.1715729,1.17157288 L22.8284271,6.82842712 C23.5785726,7.57857264 24.5959883,8 25.6568542,8 L25.6568542,8 L38.3431458,8 C39.4040117,8 40.4214274,7.57857264 41.1715729,6.82842712 L41.1715729,6.82842712 L46.8284271,1.17157288 C47.5785726,0.421427361 48.5959883,0 49.6568542,0 L49.6568542,0 L116,0 C118.209139,-4.05812251e-16 120,1.790861 120,4 L120,44 C120,46.209139 118.209139,48 116,48 L49.6568542,48 C48.5959883,48 47.5785726,48.4214274 46.8284271,49.1715729 L41.1715729,54.8284271 C40.4214274,55.5785726 39.4040117,56 38.3431458,56 L25.6568542,56 C24.5959883,56 23.5785726,55.5785726 22.8284271,54.8284271 L17.1715729,49.1715729 C16.4214274,48.4214274 15.4040117,48 14.3431458,48 L4,48 C1.790861,48 2.705415e-16,46.209139 0,44 L0,4 C-2.705415e-16,1.790861 1.790861,4.05812251e-16 4,0 Z" id="Command" stroke="#0A8E69" fill="#0EBD8C"></path>
                </g>
            </g>
        </g>
    </g>
</svg>