<?xml version="1.0" encoding="UTF-8"?>
<svg width="140px" height="140px" viewBox="0 0 140 140" version="1.1" xmlns="http://www.w3.org/2000/svg" xmlns:xlink="http://www.w3.org/1999/xlink">
    <title>Wave Icon</title>
    <g id="Wave-Icon" stroke="none" stroke-width="1" fill="none" fill-rule="evenodd">
        <g transform="translate(9.000000, 20.000000)">
            <path d="M1.2801,39.1114 C-5.1539,29.5324 14.2311,26.3004 24.7121,45.0704 C30.7031,55.7994 38.2491,46.5614 41.3461,38.5934 C45.4221,28.1064 51.9561,14.6224 55.7181,6.4474 C59.9671,-2.7836 71.5841,3.2524 68.0281,11.5824 C63.1871,22.9204 53.0271,41.1774 56.0351,42.9864 C59.2781,44.9374 69.5051,19.7384 78.0751,5.7304 C84.3211,-4.4806 94.4431,1.2634 89.9201,12.4164 C84.5051,25.7694 71.5821,43.7754 73.7541,45.5124 C75.9401,47.2594 86.9551,29.8414 93.5261,19.1894 C98.8791,10.5134 108.9061,17.5134 104.0351,25.4394 C96.7011,37.3714 81.2301,55.9924 83.1791,57.6674 C85.7421,59.8684 94.2381,47.4524 99.2821,41.2524 C105.3881,33.7454 112.8721,40.5874 108.1941,47.0234 C99.9481,58.3674 78.8801,85.0764 72.8721,92.4004 C58.6951,109.6784 16.8891,96.4154 16.8961,67.6084 C16.9011,52.1914 4.9401,44.5634 1.2801,39.1114 Z" id="Hand" fill="#ECC293"></path>
            <path d="M30.0269,9.0771 L30.0269,9.0771 C26.2459,11.6791 24.1809,16.1321 24.6379,20.6981" id="Stroke-4" stroke="#FEFEFE" stroke-width="6" stroke-linecap="round" stroke-linejoin="round"></path>
            <path d="M22.7847,-0.0005 L22.7847,-0.0005 C15.9407,4.7085 12.2037,12.7695 13.0307,21.0355" id="Stroke-6" stroke="#FEFEFE" stroke-width="6" stroke-linecap="round" stroke-linejoin="round"></path>
            <path d="M101.7779,82.436 L101.7779,82.436 C106.1819,80.797 109.3439,76.891 110.0309,72.243" id="Stroke-8" stroke="#FEFEFE" stroke-width="6" stroke-linecap="round" stroke-linejoin="round"></path>
            <path d="M106.7017,93.2583 L106.7017,93.2583 C114.6737,90.2913 120.3977,83.2203 121.6397,74.8063" id="Stroke-10" stroke="#FEFEFE" stroke-width="6" stroke-linecap="round" stroke-linejoin="round"></path>
        </g>
    </g>
</svg>